# Made in Blockbench 4.8.2
mtllib simple_test.mtl

g main
o cube
v 0.125 0.75 0.125
v 0.125 0.75 -0.125
v 0.125 0 0.125
v 0.125 0 -0.125
v -0.125 0.75 -0.125
v -0.125 0.75 0.125
v -0.125 0 -0.125
v -0.125 0 0.125
vt 0.265625 0.59375
vt 0.328125 0.59375
vt 0.328125 0.40625
vt 0.265625 0.40625
vt 0.53125 1
vt 0.59375 1
vt 0.59375 0.8125
vt 0.53125 0.8125
vt 0 0.453125
vt 0.0625 0.453125
vt 0.0625 0.265625
vt 0 0.265625
vt 0.078125 0.453125
vt 0.140625 0.453125
vt 0.140625 0.265625
vt 0.078125 0.265625
vt 0.0625 0.671875
vt 0 0.671875
vt 0 0.734375
vt 0.0625 0.734375
vt 0.140625 0.734375
vt 0.078125 0.734375
vt 0.078125 0.671875
vt 0.140625 0.671875
vn 0 0 -1
vn 1 0 0
vn 0 0 1
vn -1 0 0
vn 0 1 0
vn 0 -1 0
usemtl none
f 4/4/1 7/3/1 5/2/1 2/1/1
f 3/8/2 4/7/2 2/6/2 1/5/2
f 8/12/3 3/11/3 1/10/3 6/9/3
f 7/16/4 8/15/4 6/14/4 5/13/4
f 6/20/5 1/19/5 2/18/5 5/17/5
f 7/24/6 4/23/6 3/22/6 8/21/6
o pyramid
v 0 0.5 0
v 0.5 0 0.5
v 0.5 0 -0.5
v -0.5 0 0.5
v -0.5 0 -0.5
vt 0.25 0.75
vt 0.25 1
vt 0 1
vt 0 0.75
vt 0 0.479471875
vt 0.25 0.479471875
vt 0.125 0.65625
vt 0.1875 0.620096875
vt 0.4375 0.620096875
vt 0.3125 0.796875
vt 0.265625 0.823221875
vt 0.515625 0.823221875
vt 0.390625 1
vt 0.375 0.479471875
vt 0.625 0.479471875
vt 0.5 0.65625
vn 0 -1 0
vn 0.7071067811865476 0.7071067811865476 0
vn 0 0.7071067811865476 0.7071067811865476
vn 0 0.7071067811865476 -0.7071067811865476
vn -0.7071067811865476 0.7071067811865476 0
usemtl none
f 11/25/7 10/26/7 12/27/7 13/28/7
f 10/29/8 11/30/8 9/31/8
f 12/32/9 10/33/9 9/34/9
f 11/35/10 13/36/10 9/37/10
f 13/38/11 12/39/11 9/40/11
g head
o cube
v 0.25 1.25 0.25
v 0.25 1.25 -0.25
v 0.25 0.75 0.25
v 0.25 0.75 -0.25
v -0.25 1.25 -0.25
v -0.25 1.25 0.25
v -0.25 0.75 -0.25
v -0.25 0.75 0.25
vt 0 1
vt 0.125 1
vt 0.125 0.875
vt 0 0.875
vt 0 1
vt 0.125 1
vt 0.125 0.875
vt 0 0.875
vt 0 1
vt 0.125 1
vt 0.125 0.875
vt 0 0.875
vt 0 1
vt 0.125 1
vt 0.125 0.875
vt 0 0.875
vt 0 1
vt 0.125 1
vt 0.125 0.875
vt 0 0.875
vt 0 1
vt 0.125 1
vt 0.125 0.875
vt 0 0.875
vn 0 0 -1
vn 1 0 0
vn 0 0 1
vn -1 0 0
vn 0 1 0
vn 0 -1 0
usemtl none
f 17/44/12 20/43/12 18/42/12 15/41/12
f 16/48/13 17/47/13 15/46/13 14/45/13
f 21/52/14 16/51/14 14/50/14 19/49/14
f 20/56/15 21/55/15 19/54/15 18/53/15
f 19/60/16 14/59/16 15/58/16 18/57/16
f 20/64/17 17/63/17 16/62/17 21/61/17