# Made in Blockbench 4.10.4
mtllib 20mm.mtl

o cube
v 0.0625 -0.0625 -0.21875
v 0.0625 0.0625 -0.21875
v 0.0625 -0.0625 -0.25
v 0.0625 0.0625 -0.25
v -0.0625 0.0625 -0.21875
v -0.0625 -0.0625 -0.21875
v -0.0625 0.0625 -0.25
v -0.0625 -0.0625 -0.25
vt 0.28125 1
vt 0.34375 1
vt 0.34375 0.96875
vt 0.28125 0.96875
vt 0.28125 1
vt 0.34375 1
vt 0.34375 0.96875
vt 0.28125 0.96875
vt 0.28125 1
vt 0.34375 1
vt 0.34375 0.96875
vt 0.28125 0.96875
vt 0.28125 1
vt 0.34375 1
vt 0.34375 0.96875
vt 0.28125 0.96875
vt 0.34375 0.9375
vt 0.28125 0.9375
vt 0.28125 1
vt 0.34375 1
vt 0.34375 1
vt 0.28125 1
vt 0.28125 0.9375
vt 0.34375 0.9375
vn 0 1 -2.220446049250313e-16
vn 1 0 0
vn 0 -1 2.220446049250313e-16
vn -1 0 0
vn 0 2.220446049250313e-16 1
vn 0 -2.220446049250313e-16 -1
usemtl m_dd9b0295-6b23-b2e8-762a-cdd8ca43b952
f 4/4/1 7/3/1 5/2/1 2/1/1
f 3/8/2 4/7/2 2/6/2 1/5/2
f 8/12/3 3/11/3 1/10/3 6/9/3
f 7/16/4 8/15/4 6/14/4 5/13/4
f 6/20/5 1/19/5 2/18/5 5/17/5
f 7/24/6 4/23/6 3/22/6 8/21/6
o cube1
v 0.0625 -0.062499999999999944 -0.015625
v 0.0625 0.0625 -0.015625
v 0.0625 -0.0625 -0.203125
v 0.0625 0.0625 -0.203125
v -0.0625 0.0625 -0.015625
v -0.0625 -0.062499999999999944 -0.015625
v -0.0625 0.0625 -0.203125
v -0.0625 -0.0625 -0.203125
vt 0 1
vt 0.0625 1
vt 0.0625 0.90625
vt 0 0.90625
vt 0 1
vt 0.0625 1
vt 0.0625 0.90625
vt 0 0.90625
vt 0 1
vt 0.0625 1
vt 0.0625 0.90625
vt 0 0.90625
vt 0 1
vt 0.0625 1
vt 0.0625 0.90625
vt 0 0.90625
vt 0.34375 0.9375
vt 0.28125 0.9375
vt 0.28125 1
vt 0.34375 1
vt 0.34375 1
vt 0.28125 1
vt 0.28125 0.9375
vt 0.34375 0.9375
vn 0 1 -2.220446049250313e-16
vn 1 0 0
vn 0 -1 2.220446049250313e-16
vn -1 0 0
vn 0 2.220446049250313e-16 1
vn 0 -2.220446049250313e-16 -1
usemtl m_dd9b0295-6b23-b2e8-762a-cdd8ca43b952
f 12/28/7 15/27/7 13/26/7 10/25/7
f 11/32/8 12/31/8 10/30/8 9/29/8
f 16/36/9 11/35/9 9/34/9 14/33/9
f 15/40/10 16/39/10 14/38/10 13/37/10
f 14/44/11 9/43/11 10/42/11 13/41/11
f 15/48/12 12/47/12 11/46/12 16/45/12
o cube2
v 0.046875 -0.04687499999999989 0.1875
v 0.046875 0.04687500000000011 0.1875
v 0.046875 -0.046874999999999944 -0.015625
v 0.046875 0.046875 -0.015625
v -0.046875 0.04687500000000011 0.1875
v -0.046875 -0.04687499999999989 0.1875
v -0.046875 0.046875 -0.015625
v -0.046875 -0.046874999999999944 -0.015625
vt 0.46875 1
vt 0.53125 1
vt 0.53125 0.875
vt 0.46875 0.875
vt 0.46875 1
vt 0.53125 1
vt 0.53125 0.875
vt 0.46875 0.875
vt 0.46875 1
vt 0.53125 1
vt 0.53125 0.875
vt 0.46875 0.875
vt 0.46875 1
vt 0.53125 1
vt 0.53125 0.875
vt 0.46875 0.875
vt 0.34375 0.9375
vt 0.28125 0.9375
vt 0.28125 1
vt 0.34375 1
vt 0.34375 1
vt 0.28125 1
vt 0.28125 0.9375
vt 0.34375 0.9375
vn 0 1 -2.220446049250313e-16
vn 1 0 0
vn 0 -1 2.220446049250313e-16
vn -1 0 0
vn 0 2.220446049250313e-16 1
vn 0 -2.220446049250313e-16 -1
usemtl m_dd9b0295-6b23-b2e8-762a-cdd8ca43b952
f 20/52/13 23/51/13 21/50/13 18/49/13
f 19/56/14 20/55/14 18/54/14 17/53/14
f 24/60/15 19/59/15 17/58/15 22/57/15
f 23/64/16 24/63/16 22/62/16 21/61/16
f 22/68/17 17/67/17 18/66/17 21/65/17
f 23/72/18 20/71/18 19/70/18 24/69/18
o cube3
v 0.05312499999999998 -0.05312499999999998 -0.203125
v 0.05312499999999998 0.05312499999999998 -0.203125
v 0.05312499999999998 -0.05312499999999998 -0.21875
v 0.05312499999999998 0.05312499999999998 -0.21875
v -0.05312499999999998 0.05312499999999998 -0.203125
v -0.05312499999999998 -0.05312499999999998 -0.203125
v -0.05312499999999998 0.05312499999999998 -0.21875
v -0.05312499999999998 -0.05312499999999998 -0.21875
vt 0.28125 1
vt 0.34375 1
vt 0.34375 0.96875
vt 0.28125 0.96875
vt 0.28125 1
vt 0.34375 1
vt 0.34375 0.96875
vt 0.28125 0.96875
vt 0.28125 1
vt 0.34375 1
vt 0.34375 0.96875
vt 0.28125 0.96875
vt 0.28125 1
vt 0.34375 1
vt 0.34375 0.96875
vt 0.28125 0.96875
vt 0.34375 0.9375
vt 0.28125 0.9375
vt 0.28125 1
vt 0.34375 1
vt 0.34375 1
vt 0.28125 1
vt 0.28125 0.9375
vt 0.34375 0.9375
vn 0 1 -2.220446049250313e-16
vn 1 0 0
vn 0 -1 2.220446049250313e-16
vn -1 0 0
vn 0 2.220446049250313e-16 1
vn 0 -2.220446049250313e-16 -1
usemtl m_dd9b0295-6b23-b2e8-762a-cdd8ca43b952
f 28/76/19 31/75/19 29/74/19 26/73/19
f 27/80/20 28/79/20 26/78/20 25/77/20
f 32/84/21 27/83/21 25/82/21 30/81/21
f 31/88/22 32/87/22 30/86/22 29/85/22
f 30/92/23 25/91/23 26/90/23 29/89/23
f 31/96/24 28/95/24 27/94/24 32/93/24
o pyramid
v 0 1.249000902703301e-16 0.3125
v 0.046875 -0.0468749999999999 0.1875
v 0.046875 0.0468750000000001 0.1875
v -0.046875 -0.0468749999999999 0.1875
v -0.046875 0.0468750000000001 0.1875
vt 0.34375 0.9375
vt 0.34375 1
vt 0.28125 1
vt 0.28125 0.9375
vt 0.38393380724210424 0.90825
vt 0.4308088072421043 0.90825
vt 0.40737130724210435 1
vt 0.3839338072421043 0.90825
vt 0.4308088072421043 0.90825
vt 0.4073713072421043 1
vt 0.3839338072421043 0.90825
vt 0.4308088072421043 0.90825
vt 0.40737130724210435 1
vt 0.3839338072421043 0.90825
vt 0.4308088072421043 0.90825
vt 0.40737130724210435 1
vn 0 -2.220446049250313e-16 -1
vn 0.9363291775690445 7.796506586741174e-17 0.3511234415883917
vn 0 -0.9363291775690444 0.3511234415883919
vn 0 0.9363291775690447 0.3511234415883915
vn -0.9363291775690445 7.796506586741174e-17 0.3511234415883917
usemtl m_dd9b0295-6b23-b2e8-762a-cdd8ca43b952
f 35/97/25 34/98/25 36/99/25 37/100/25
f 34/101/26 35/102/26 33/103/26
f 36/104/27 34/105/27 33/106/27
f 35/107/28 37/108/28 33/109/28
f 37/110/29 36/111/29 33/112/29