# Made in Blockbench 4.8.3
mtllib aim7mh.mtl

o cylinder
v -2.5010840216515017e-15 -5.001861384619667e-15 2.5055555555555555
v 0.07766504294495755 0.1875000000000051 -2.494444444444444
v 0.07766504294495255 0.18749999999999512 2.505555555555556
v -0.07766504294495305 0.18750000000000488 -2.4944444444444445
v -0.07766504294495805 0.1874999999999949 2.5055555555555555
v -0.18749999999999759 0.07766504294496003 -2.4944444444444445
v -0.18750000000000258 0.07766504294495004 2.5055555555555555
v -0.1874999999999974 -0.07766504294495058 -2.494444444444445
v -0.1875000000000024 -0.07766504294496057 2.505555555555555
v -0.07766504294495258 -0.18749999999999512 -2.494444444444445
v -0.07766504294495757 -0.1875000000000051 2.505555555555555
v 0.07766504294495793 -0.18749999999999498 -2.4944444444444445
v 0.07766504294495294 -0.18750000000000497 2.5055555555555555
v 0.1874999999999976 -0.07766504294495999 2.5055555555555555
v 0.18750000000000244 0.07766504294496049 -2.494444444444444
v 0.18749999999999745 0.0776650429449505 2.505555555555556
v 2.4949195891617028e-15 4.990145837006742e-15 -2.4944444444444445
v 0.1875000000000026 -0.07766504294495 -2.4944444444444445
vt 0.09375 0.375
vt 0.109375 0.375
vt 0.109375 1
vt 0.09375 1
vt 0.31439531249999997 0.8984375
vt 0.328125 0.9121671875
vt 0.3046875 0.921875
vt 0 0.375
vt 0.015625 0.375
vt 0.015625 1
vt 0 1
vt 0.328125 0.9121671875
vt 0.328125 0.9315828125
vt 0.3046875 0.921875
vt 0.1171875 0.375
vt 0.1328125 0.375
vt 0.1328125 1
vt 0.1171875 1
vt 0.328125 0.9315828125
vt 0.31439531249999997 0.9453125
vt 0.3046875 0.921875
vt 0.0703125 0.375
vt 0.0859375 0.375
vt 0.0859375 1
vt 0.0703125 1
vt 0.31439531249999997 0.9453125
vt 0.2949796875 0.9453125
vt 0.3046875 0.921875
vt 0.1640625 0.375
vt 0.1796875 0.375
vt 0.1796875 1
vt 0.1640625 1
vt 0.2949796875 0.9453125
vt 0.28125 0.9315828125
vt 0.3046875 0.921875
vt 0.28125 0.9315828125
vt 0.28125 0.9121671875
vt 0.3046875 0.921875
vt 0.28125 0.9121671875
vt 0.2949796875 0.8984375
vt 0.3046875 0.921875
vt 0.046875 0.375
vt 0.0625 0.375
vt 0.0625 1
vt 0.046875 1
vt 0.2949796875 0.8984375
vt 0.31439531249999997 0.8984375
vt 0.3046875 0.921875
vt 0.34375 0.9862703125
vt 0.33002031249999997 1
vt 0.3203125 0.9765625
vt 0.34375 0.9668546875
vt 0.34375 0.9862703125
vt 0.3203125 0.9765625
vt 0.33002031249999997 0.953125
vt 0.34375 0.9668546875
vt 0.3203125 0.9765625
vt 0.3106046875 0.953125
vt 0.33002031249999997 0.953125
vt 0.3203125 0.9765625
vt 0.296875 0.9668546875
vt 0.3106046875 0.953125
vt 0.3203125 0.9765625
vt 0.296875 0.9862703125
vt 0.296875 0.9668546875
vt 0.3203125 0.9765625
vt 0.0234375 0.375
vt 0.0390625 0.375
vt 0.0390625 1
vt 0.0234375 1
vt 0.3106046875 1
vt 0.296875 0.9862703125
vt 0.3203125 0.9765625
vt 0.140625 0.375
vt 0.15625 0.375
vt 0.15625 1
vt 0.140625 1
vt 0.33002031249999997 1
vt 0.3106046875 1
vt 0.3203125 0.9765625
vn -1.4988010832439613e-15 1 1.99840144432528e-15
vn -1.0205600981444508e-15 -2.1196248192230977e-15 1
vn -0.7071067811865486 0.7071067811865465 7.065416064076955e-16
vn -1.0205600981444508e-15 -2.1196248192230977e-15 1
vn -1 -1.2767564783189298e-15 -9.992007221626435e-16
vn -1.0205600981444508e-15 -2.1196248192230977e-15 1
vn -0.7071067811865467 -0.7071067811865483 -2.1196248192230973e-15
vn -1.0205600981444508e-15 -2.1196248192230977e-15 1
vn 1.1657341758564144e-15 -1 -1.9984014443252806e-15
vn -1.0205600981444508e-15 -2.1196248192230977e-15 1
vn -1.0205600981444508e-15 -2.1196248192230977e-15 1
vn -1.0205600981444508e-15 -2.1196248192230977e-15 1
vn 0.7071067811865467 0.7071067811865483 2.1196248192230973e-15
vn -1.0205600981444508e-15 -2.1196248192230977e-15 1
vn 1.0205600981444508e-15 2.1196248192230977e-15 -1
vn 1.0205600981444508e-15 2.1196248192230977e-15 -1
vn 1.0205600981444508e-15 2.1196248192230977e-15 -1
vn 1.0205600981444508e-15 2.1196248192230977e-15 -1
vn 1.0205600981444508e-15 2.1196248192230977e-15 -1
vn 1.0205600981444508e-15 2.1196248192230977e-15 -1
vn 0.7071067811865486 -0.7071067811865467 -7.065416064076961e-16
vn 1.0205600981444508e-15 2.1196248192230977e-15 -1
vn 1 1.1102230246251565e-15 9.992007221626433e-16
vn 1.0205600981444508e-15 2.1196248192230977e-15 -1
usemtl m_69da8e5b-3472-fb95-d488-c3d55e0aff90
f 2/1/1 4/2/1 5/3/1 3/4/1
f 3/5/2 5/6/2 1/7/2
f 4/8/3 6/9/3 7/10/3 5/11/3
f 5/12/4 7/13/4 1/14/4
f 6/15/5 8/16/5 9/17/5 7/18/5
f 7/19/6 9/20/6 1/21/6
f 8/22/7 10/23/7 11/24/7 9/25/7
f 9/26/8 11/27/8 1/28/8
f 10/29/9 12/30/9 13/31/9 11/32/9
f 11/33/10 13/34/10 1/35/10
f 13/36/11 14/37/11 1/38/11
f 14/39/12 16/40/12 1/41/12
f 15/42/13 2/43/13 3/44/13 16/45/13
f 16/46/14 3/47/14 1/48/14
f 4/49/15 2/50/15 17/51/15
f 6/52/16 4/53/16 17/54/16
f 8/55/17 6/56/17 17/57/17
f 10/58/18 8/59/18 17/60/18
f 12/61/19 10/62/19 17/63/19
f 18/64/20 12/65/20 17/66/20
f 12/67/21 18/68/21 14/69/21 13/70/21
f 15/71/22 18/72/22 17/73/22
f 18/74/23 15/75/23 16/76/23 14/77/23
f 2/78/24 15/79/24 17/80/24
o cone
v -2.5010840216515017e-15 -5.001861384619667e-15 2.5055555555555555
v -3.000684382732822e-15 -6.0010621067823075e-15 3.0055555555555555
v 0.07766504294495255 0.18749999999999512 2.505555555555556
v -0.07766504294495805 0.1874999999999949 2.5055555555555555
v -0.18750000000000258 0.07766504294495004 2.5055555555555555
v -0.1875000000000024 -0.07766504294496057 2.505555555555555
v -0.07766504294495757 -0.1875000000000051 2.505555555555555
v 0.07766504294495294 -0.18750000000000497 2.5055555555555555
v 0.1874999999999976 -0.07766504294495999 2.5055555555555555
v 0.18749999999999745 0.0776650429449505 2.505555555555556
vt 0.34375 0.8768953125
vt 0.33002031249999997 0.890625
vt 0.3203125 0.8671875
vt 0.33234900837765674 0.6072170858423867
vt 0.3515625 0.6044227641324236
vt 0.3515625 0.671875
vt 0.34375 0.8574796875
vt 0.34375 0.8768953125
vt 0.3203125 0.8671875
vt 0.3373676320662118 0.9453125
vt 0.34016195377617475 0.9260990083776568
vt 0.4048198679337882 0.9453125
vt 0.33002031249999997 0.84375
vt 0.34375 0.8574796875
vt 0.3203125 0.8671875
vt 0.2109375 0.6072170858423867
vt 0.23015099162234326 0.6044227641324236
vt 0.23015099162234323 0.671875
vt 0.3106046875 0.84375
vt 0.33002031249999997 0.84375
vt 0.3203125 0.8671875
vt 0.3139301320662118 0.7265625
vt 0.31672445377617475 0.7073490083776568
vt 0.3813823679337882 0.7265625
vt 0.296875 0.8574796875
vt 0.3106046875 0.84375
vt 0.3203125 0.8671875
vt 0.26203650837765674 0.5915920858423867
vt 0.28125 0.5887977641324236
vt 0.28125 0.65625
vt 0.296875 0.8768953125
vt 0.296875 0.8574796875
vt 0.3203125 0.8671875
vt 0.24429950418882837 0.6462795858423867
vt 0.2635129958111716 0.6434852641324236
vt 0.2635129958111716 0.7109375
vt 0.3106046875 0.890625
vt 0.296875 0.8768953125
vt 0.3203125 0.8671875
vt 0.3515625 0.8572170858423867
vt 0.37077599162234326 0.8544227641324236
vt 0.37077599162234326 0.921875
vt 0.33002031249999997 0.890625
vt 0.3106046875 0.890625
vt 0.3203125 0.8671875
vt 0.3139301320662118 0.6953125
vt 0.31672445377617475 0.6760990083776568
vt 0.3813823679337882 0.6953125
vn 1.0205600981444508e-15 2.1196248192230977e-15 -1
vn -1.609823385706477e-15 0.9363291775690439 0.3511234415883936
vn 1.0205600981444508e-15 2.1196248192230977e-15 -1
vn -0.6620847108818957 0.6620847108818927 0.3511234415883923
vn 1.0205600981444508e-15 2.1196248192230977e-15 -1
vn -0.9363291775690448 -1.8873791418627657e-15 0.35112344158839076
vn 1.0205600981444508e-15 2.1196248192230977e-15 -1
vn -0.662084710881894 -0.6620847108818959 0.35112344158838976
vn 1.0205600981444508e-15 2.1196248192230977e-15 -1
vn 7.771561172376096e-16 -0.9363291775690452 0.35112344158838993
vn 1.0205600981444508e-15 2.1196248192230977e-15 -1
vn 0.6620847108818949 -0.6620847108818942 0.351123441588391
vn 1.0205600981444508e-15 2.1196248192230977e-15 -1
vn 0.9363291775690442 2.7755575615628914e-16 0.35112344158839276
vn 1.0205600981444508e-15 2.1196248192230977e-15 -1
vn 0.6620847108818934 0.6620847108818944 0.35112344158839376
usemtl m_69da8e5b-3472-fb95-d488-c3d55e0aff90
f 22/81/25 21/82/25 19/83/25
f 21/84/26 22/85/26 20/86/26
f 23/87/27 22/88/27 19/89/27
f 22/90/28 23/91/28 20/92/28
f 24/93/29 23/94/29 19/95/29
f 23/96/30 24/97/30 20/98/30
f 25/99/31 24/100/31 19/101/31
f 24/102/32 25/103/32 20/104/32
f 26/105/33 25/106/33 19/107/33
f 25/108/34 26/109/34 20/110/34
f 27/111/35 26/112/35 19/113/35
f 26/114/36 27/115/36 20/116/36
f 28/117/37 27/118/37 19/119/37
f 27/120/38 28/121/38 20/122/38
f 21/123/39 28/124/39 19/125/39
f 28/126/40 21/127/40 20/128/40
o plane
v 0.48613591206575074 0.4861359120657521 -0.11944444444444446
v 0.13258252147247987 0.13258252147247546 0.44305555555555554
v 0.13258252147247704 0.1325825214724783 -0.11944444444444446
v 0.4861359120657505 0.4861359120657523 -0.16114028910797953
v 0.13258252147247682 0.1325825214724785 -0.16114028910797953
vt 0.25 0.99478828125
vt 0.1875 0.99478828125
vt 0.1875 0.92447578125
vt 0.25 0.99478828125
vt 0.25 1
vt 0.1875 1
vt 0.1875 0.99478828125
vn -0.7071067811865476 0.7071067811865475 7.153999614928371e-15
vn -0.7071067811865476 0.7071067811865475 7.15460738008924e-15
usemtl m_69da8e5b-3472-fb95-d488-c3d55e0aff90
f 29/129/41 31/130/41 30/131/41
f 29/132/42 32/133/42 33/134/42 31/135/42
o plane1
v 0.3065053747919287 0.30650537479192974 -2.3688166251230514
v 0.13258252147248042 0.13258252147248262 -2.4937514528210896
v 0.1325825214724836 0.13258252147247945 -1.8687514528210896
v 0.21811702714361156 0.21811702714361 -2.1188166251230514
v 0.3065053747919281 0.3065053747919303 -2.4938166251230514
vt 0.28880966214411563 0.9843748896175774
vt 0.28881015625 1
vt 0.27318504586757736 0.9531246688527322
vt 0.28881015625 1
vt 0.25806484375 0.99999140625
vt 0.25806484375 0.92186640625
vt 0.27318515625 0.953125
vn -0.707106781186548 0.707106781186547 6.93195501000334e-15
vn -0.7071067811865476 0.7071067811865475 7.153999614928371e-15
usemtl m_69da8e5b-3472-fb95-d488-c3d55e0aff90
f 34/136/43 38/137/43 37/138/43
f 38/139/44 35/140/44 36/141/44 37/142/44
o plane2
v -0.48613591206575196 0.48613591206575213 -0.11944444444443955
v -0.13258252147247543 0.13258252147247546 0.44305555555555687
v -0.13258252147247826 0.1325825214724783 -0.11944444444444312
v -0.4861359120657522 0.48613591206575235 -0.16114028910797462
v -0.13258252147247848 0.1325825214724785 -0.1611402891079782
vt 0.25 0.90885078125
vt 0.1875 0.90885078125
vt 0.1875 0.83853828125
vt 0.25 0.90885078125
vt 0.25 0.9140625
vt 0.1875 0.9140625
vt 0.1875 0.90885078125
vn -0.7071067811865477 -0.7071067811865475 -7.888609052210118e-31
vn -0.7071067811865477 -0.7071067811865475 6.077651608663813e-19
usemtl m_69da8e5b-3472-fb95-d488-c3d55e0aff90
f 39/143/45 41/144/45 40/145/45
f 39/146/46 42/147/46 43/148/46 41/149/46
o plane3
v 0.48613591206575074 -0.48613591206575085 -0.11944444444444938
v 0.13258252147247987 -0.1325825214724799 0.4430555555555542
v 0.13258252147247704 -0.13258252147247707 -0.11944444444444581
v 0.4861359120657505 -0.48613591206575063 -0.16114028910798445
v 0.13258252147247682 -0.13258252147247684 -0.16114028910798087
vt 0.25 0.82291328125
vt 0.1875 0.82291328125
vt 0.1875 0.75260078125
vt 0.25 0.82291328125
vt 0.25 0.828125
vt 0.1875 0.828125
vt 0.1875 0.82291328125
vn 0.7071067811865476 0.7071067811865475 7.888609052210118e-31
vn 0.7071067811865476 0.7071067811865475 6.077651608679591e-19
usemtl m_69da8e5b-3472-fb95-d488-c3d55e0aff90
f 44/150/47 46/151/47 45/152/47
f 44/153/48 47/154/48 48/155/48 46/156/48
o plane4
v -0.48613591206575196 -0.4861359120657509 -0.11944444444444446
v -0.13258252147247543 -0.1325825214724799 0.44305555555555554
v -0.13258252147247826 -0.13258252147247707 -0.11944444444444446
v -0.4861359120657522 -0.4861359120657507 -0.16114028910797953
v -0.13258252147247848 -0.13258252147247684 -0.16114028910797953
vt 0.2890625 0.76822578125
vt 0.2265625 0.76822578125
vt 0.2265625 0.69791328125
vt 0.2890625 0.76822578125
vt 0.2890625 0.7734375
vt 0.2265625 0.7734375
vt 0.2265625 0.76822578125
vn 0.7071067811865477 -0.7071067811865475 -7.153999614928371e-15
vn 0.7071067811865477 -0.7071067811865475 -7.153391849767503e-15
usemtl m_69da8e5b-3472-fb95-d488-c3d55e0aff90
f 49/157/49 51/158/49 50/159/49
f 49/160/50 52/161/50 53/162/50 51/163/50
o plane5
v 0.3065053747919287 -0.30650537479192974 -2.3688166251230514
v 0.13258252147248042 -0.13258252147248262 -2.4937514528210896
v 0.1325825214724836 -0.13258252147247945 -1.8687514528210896
v 0.21811702714361156 -0.21811702714361 -2.1188166251230514
v 0.3065053747919281 -0.3065053747919303 -2.4938166251230514
vt 0.28881015625 0.8203125
vt 0.28880966214411563 0.8359376103824226
vt 0.27318504586757736 0.8671878311472678
vt 0.25806484375 0.89844609375
vt 0.25806484375 0.82032109375
vt 0.28881015625 0.8203125
vt 0.27318515625 0.8671875
vn -0.707106781186548 -0.707106781186547 6.93195501000334e-15
vn -0.7071067811865476 -0.7071067811865475 7.153999614928371e-15
usemtl m_69da8e5b-3472-fb95-d488-c3d55e0aff90
f 58/164/51 54/165/51 57/166/51
f 56/167/52 55/168/52 58/169/52 57/170/52
o plane6
v -0.3065053747919287 -0.30650537479192974 -2.3688166251230514
v -0.13258252147248042 -0.13258252147248262 -2.4937514528210896
v -0.1325825214724836 -0.13258252147247945 -1.8687514528210896
v -0.21811702714361156 -0.21811702714361 -2.1188166251230514
v -0.3065053747919281 -0.3065053747919303 -2.4938166251230514
vt 0.18775283785588437 0.6875001103824226
vt 0.18775234375 0.671875
vt 0.2033774541324226 0.7187503311472678
vt 0.18775234375 0.671875
vt 0.21849765625 0.67188359375
vt 0.21849765625 0.75000859375
vt 0.20337734375 0.71875
vn 0.707106781186548 -0.707106781186547 6.93195501000334e-15
vn 0.7071067811865476 -0.7071067811865475 7.153999614928371e-15
usemtl m_69da8e5b-3472-fb95-d488-c3d55e0aff90
f 59/171/53 63/172/53 62/173/53
f 63/174/54 60/175/54 61/176/54 62/177/54
o plane7
v -0.3065053747919287 0.30650537479192974 -2.3688166251230514
v -0.13258252147248042 0.13258252147248262 -2.4937514528210896
v -0.1325825214724836 0.13258252147247945 -1.8687514528210896
v -0.21811702714361156 0.21811702714361 -2.1188166251230514
v -0.3065053747919281 0.3065053747919303 -2.4938166251230514
vt 0.27368984375 0.7265625
vt 0.27369033785588437 0.7109373896175774
vt 0.28931495413242264 0.6796871688527322
vt 0.30443515625 0.64842890625
vt 0.30443515625 0.72655390625
vt 0.27368984375 0.7265625
vt 0.28931484375 0.6796875
vn 0.707106781186548 0.707106781186547 6.93195501000334e-15
vn 0.7071067811865476 0.7071067811865475 7.153999614928371e-15
usemtl m_69da8e5b-3472-fb95-d488-c3d55e0aff90
f 68/178/55 64/179/55 67/180/55
f 66/181/56 65/182/56 68/183/56 67/184/56
o cube
v 0.07766504294495755 0.1875000000000051 -2.494444444444444
v 0.07766504294495755 0.1875000000000051 -2.619444444444444
v 0.0464125 0.12500000000000533 -2.494444444444444
v 0.0464125 0.12500000000000533 -2.619444444444444
v -0.07766504294495302 0.1875000000000051 -2.494444444444444
v -0.07766504294495302 0.1875000000000051 -2.619444444444444
v -0.07766504294495305 0.12500000000000533 -2.494444444444444
v -0.0464125 0.1250000000000061 -2.6194444444444436
v 0.18750000000000244 0.07766504294496049 -2.619444444444444
v 0.18750000000000244 0.07766504294496049 -2.494444444444444
v 0.12500000000000294 0.046412500000000224 -2.619444444444444
v 0.12500000000000294 0.046412500000000224 -2.494444444444444
v 0.1875000000000026 -0.07766504294495 -2.6194444444444445
v 0.1875000000000026 -0.07766504294495 -2.4944444444444445
v 0.1250000000000031 -0.04641249999999978 -2.6194444444444445
v 0.1250000000000031 -0.04641249999999978 -2.4944444444444445
v 0.07766504294495793 -0.18749999999999498 -2.6194444444444445
v 0.07766504294495793 -0.18749999999999498 -2.4944444444444445
v 0.0464125 -0.12499999999999559 -2.6194444444444445
v 0.0464125 -0.12499999999999559 -2.4944444444444445
v -0.07766504294495258 -0.18749999999999512 -2.619444444444445
v -0.07766504294495258 -0.18749999999999512 -2.494444444444445
v -0.0464125 -0.12499999999999573 -2.619444444444445
v -0.0464125 -0.12499999999999573 -2.494444444444445
v -0.1874999999999974 -0.07766504294495058 -2.619444444444445
v -0.1874999999999974 -0.07766504294495058 -2.494444444444445
v -0.12499999999999825 -0.04641249999999978 -2.619444444444445
v -0.12499999999999825 -0.04641249999999978 -2.494444444444445
v -0.18749999999999759 0.07766504294496003 -2.6194444444444445
v -0.18749999999999759 0.07766504294496003 -2.4944444444444445
v -0.12499999999999845 0.046412500000000224 -2.6194444444444445
v -0.12499999999999845 0.046412500000000224 -2.4944444444444445
v -0.07766504294495305 0.1875000000000051 -2.6194444444444436
v -0.07766504294495305 0.1875000000000051 -2.494444444444444
v -0.0464125 0.1250000000000061 -2.6194444444444436
v -0.0464125 0.1250000000000061 -2.494444444444444
vt 0.203125 0.6328125
vt 0.203125 0.640625
vt 0.1875 0.640625
vt 0.1875 0.6328125
vt 0.3261140625 0.828125
vt 0.33002031249999997 0.8359375
vt 0.3106046875 0.8359375
vt 0.3106046875 0.828125
vt 0.296875 0.7675203125
vt 0.3046875 0.7636140625
vt 0.3145109375 0.7734375
vt 0.3106046875 0.78125
vt 0.3515625 0.828125
vt 0.3671875 0.828125
vt 0.3671875 0.84375
vt 0.3515625 0.84375
vt 0.3359375 0.8183015625
vt 0.34375 0.8222078125
vt 0.33002031249999997 0.8359375
vt 0.3261140625 0.828125
vt 0.3125 0.6484375
vt 0.328125 0.6484375
vt 0.328125 0.6640625
vt 0.3125 0.6640625
vt 0.296875 0.7481046875
vt 0.3046875 0.7520109375
vt 0.3046875 0.7636140625
vt 0.296875 0.7675203125
vt 0.2421875 0.78125
vt 0.2578125 0.78125
vt 0.2578125 0.796875
vt 0.2421875 0.796875
vt 0.3359375 0.8066984375
vt 0.34375 0.8027921875
vt 0.34375 0.8222078125
vt 0.3359375 0.8183015625
vt 0.234375 0.9453125
vt 0.25 0.9453125
vt 0.25 0.953125
vt 0.234375 0.953125
vt 0.3106046875 0.734375
vt 0.3145109375 0.7421875
vt 0.3046875 0.7520109375
vt 0.296875 0.7481046875
vt 0.3515625 0.9609375
vt 0.3671875 0.9609375
vt 0.3671875 0.9765625
vt 0.3515625 0.9765625
vt 0.3261140625 0.796875
vt 0.33002031249999997 0.7890625
vt 0.34375 0.8027921875
vt 0.3359375 0.8066984375
vt 0.3515625 0.7578125
vt 0.3671875 0.7578125
vt 0.3671875 0.7734375
vt 0.3515625 0.7734375
vt 0.33002031249999997 0.734375
vt 0.3261140625 0.7421875
vt 0.3145109375 0.7421875
vt 0.3106046875 0.734375
vt 0.3359375 0.8984375
vt 0.3515625 0.8984375
vt 0.3515625 0.9140625
vt 0.3359375 0.9140625
vt 0.3145109375 0.796875
vt 0.3106046875 0.7890625
vt 0.33002031249999997 0.7890625
vt 0.3261140625 0.796875
vt 0.2265625 0.6796875
vt 0.2421875 0.6796875
vt 0.2421875 0.6875
vt 0.2265625 0.6875
vt 0.34375 0.7481046875
vt 0.3359375 0.7520109375
vt 0.3261140625 0.7421875
vt 0.33002031249999997 0.734375
vt 0.3671875 0.8203125
vt 0.3515625 0.8203125
vt 0.3515625 0.8046875
vt 0.3671875 0.8046875
vt 0.3046875 0.8066984375
vt 0.296875 0.8027921875
vt 0.3106046875 0.7890625
vt 0.3145109375 0.796875
vt 0.3671875 0.796875
vt 0.3515625 0.796875
vt 0.3515625 0.78125
vt 0.3671875 0.78125
vt 0.34375 0.7675203125
vt 0.3359375 0.7636140625
vt 0.3359375 0.7520109375
vt 0.34375 0.7481046875
vt 0.28125 0.8125
vt 0.265625 0.8125
vt 0.265625 0.796875
vt 0.28125 0.796875
vt 0.3046875 0.8183015625
vt 0.296875 0.8222078125
vt 0.296875 0.8027921875
vt 0.3046875 0.8066984375
vt 0.25 0.8671875
vt 0.234375 0.8671875
vt 0.234375 0.859375
vt 0.25 0.859375
vt 0.3300203125 0.78125
vt 0.3261140625 0.7734375
vt 0.3359375 0.7636140625
vt 0.34375 0.7675203125
vt 0.3671875 1
vt 0.3515625 1
vt 0.3515625 0.984375
vt 0.3671875 0.984375
vt 0.28428996927081224 0.78125
vt 0.28705210513482216 0.7890625
vt 0.26763539486517784 0.7890625
vt 0.27039753072918776 0.78125
vt 0.203125 0.6640625
vt 0.1875 0.6640625
vt 0.1875 0.6484375
vt 0.203125 0.6484375
vt 0.234375 0.8359375
vt 0.234375 0.8515625
vt 0.21875 0.8515625
vt 0.22265625 0.8359375
vt 0.3261140625 0.7734375
vt 0.33002031249999997 0.78125
vt 0.3106046875 0.78125
vt 0.3145109375 0.7734375
vt 0.234375 0.921875
vt 0.234375 0.9375
vt 0.21875 0.9375
vt 0.21875 0.921875
vn 0.8944126340967131 0.4472427081218648 0
vn 0 0 1
vn 3.2376639023110843e-16 -6.474800922626119e-16 -1
vn 0.7071067811865467 0.7071067811865485 0
vn 0 0 1
vn -0.7071067811865573 -0.7071067811865378 0
vn 2.3922722718626597e-15 4.7841552367364715e-15 -1
vn 1 1.0721261933235738e-15 0
vn -1.4296179157013876e-15 -2.859003182196198e-15 1
vn -1 -1.794058213776175e-15 0
vn -5.886182656933257e-17 -2.9433308202828e-17 -1
vn 0.7071067811865486 -0.7071067811865466 0
vn 0 0 1
vn -0.7071067811865147 0.7071067811865803 0
vn 4.7841552367364715e-15 -2.3922722718628446e-15 -1
vn 8.934384944363112e-16 -1 0
vn -2.8590031821961974e-15 1.4296179157014976e-15 1
vn -1.495048511480146e-15 1 0
vn -2.648997738254257e-16 5.297564391240594e-16 -1
vn -0.7071067811865467 -0.7071067811865485 0
vn 0 0 1
vn 0.7071067811865371 0.7071067811865579 0
vn 2.3922722718634083e-15 4.784155236736472e-15 -1
vn -1 -1.250813892210835e-15 0
vn -1.4296179157018335e-15 -2.859003182196196e-15 1
vn 1 2.0930679160722043e-15 0
vn 4.473498819269484e-15 2.236931423414697e-15 -1
vn -0.7071067811865492 0.7071067811865458 0
vn -2.695420937477708e-15 -1.3478201376519844e-15 1
vn 0.707106781186581 -0.707106781186514 0
vn 0 -1 0
vn 0 -7.105427357601115e-15 -1
vn 0 1 0
usemtl m_69da8e5b-3472-fb95-d488-c3d55e0aff90
f 103/185/57 101/186/57 102/187/57 104/188/57
f 71/189/58 69/190/58 73/191/58 75/192/58
f 77/193/59 79/194/59 72/195/59 70/196/59
f 78/197/60 77/198/60 70/199/60 69/200/60
f 80/201/61 78/202/61 69/203/61 71/204/61
f 79/205/62 80/206/62 71/207/62 72/208/62
f 81/209/63 83/210/63 79/211/63 77/212/63
f 82/213/64 81/214/64 77/215/64 78/216/64
f 84/217/65 82/218/65 78/219/65 80/220/65
f 83/221/66 84/222/66 80/223/66 79/224/66
f 85/225/67 87/226/67 83/227/67 81/228/67
f 86/229/68 85/230/68 81/231/68 82/232/68
f 88/233/69 86/234/69 82/235/69 84/236/69
f 87/237/70 88/238/70 84/239/70 83/240/70
f 89/241/71 91/242/71 87/243/71 85/244/71
f 90/245/72 89/246/72 85/247/72 86/248/72
f 92/249/73 90/250/73 86/251/73 88/252/73
f 91/253/74 92/254/74 88/255/74 87/256/74
f 93/257/75 95/258/75 91/259/75 89/260/75
f 94/261/76 93/262/76 89/263/76 90/264/76
f 96/265/77 94/266/77 90/267/77 92/268/77
f 95/269/78 96/270/78 92/271/78 91/272/78
f 97/273/79 99/274/79 95/275/79 93/276/79
f 98/277/80 97/278/80 93/279/80 94/280/80
f 100/281/81 98/282/81 94/283/81 96/284/81
f 99/285/82 100/286/82 96/287/82 95/288/82
f 101/289/83 103/290/83 99/291/83 97/292/83
f 102/293/84 101/294/84 97/295/84 98/296/84
f 104/297/85 102/298/85 98/299/85 100/300/85
f 103/301/86 104/302/86 100/303/86 99/304/86
f 72/305/87 71/306/87 75/307/87 76/308/87
f 76/309/88 74/310/88 70/311/88 72/312/88
f 69/313/89 70/314/89 74/315/89 73/316/89
o cube8
v 0.07766504294495755 0.1875000000000051 -2.494444444444444
v 0.07766504294495755 0.1875000000000051 -2.619444444444444
v 0.07766504294495755 0.12500000000000533 -2.494444444444444
v 0.07766504294495755 0.12500000000000533 -2.619444444444444
v -0.07766504294495305 0.1875000000000051 -2.494444444444444
v -0.07766504294495305 0.1875000000000051 -2.619444444444444
v -0.07766504294495305 0.12500000000000533 -2.494444444444444
v -0.07766504294495305 0.12500000000000533 -2.619444444444444
vt 0.328125 0.6328125
vt 0.328125 0.640625
vt 0.3125 0.640625
vt 0.3125 0.6328125
vt 0.375 0.6640625
vt 0.375 0.671875
vt 0.359375 0.671875
vt 0.359375 0.6640625
vt 0.375 0.6484375
vt 0.375 0.65625
vt 0.359375 0.65625
vt 0.359375 0.6484375
vn 1 0 0
vn -1 0 0
vn 0 0 1
usemtl m_69da8e5b-3472-fb95-d488-c3d55e0aff90
f 108/317/90 106/318/90 105/319/90 107/320/90
f 111/321/91 109/322/91 110/323/91 112/324/91
f 107/325/92 105/326/92 109/327/92 111/328/92