# Made in Blockbench 4.8.3
mtllib aim7f.mtl

o cylinder
v 2.4949195891617028e-15 4.990145837006742e-15 -2.4944444444444445
v -2.5010840216515017e-15 -5.001861384619667e-15 2.5055555555555555
v 0.07766504294495755 0.1875000000000051 -2.494444444444444
v 0.07766504294495255 0.18749999999999512 2.505555555555556
v -0.07766504294495305 0.18750000000000488 -2.4944444444444445
v -0.07766504294495805 0.1874999999999949 2.5055555555555555
v -0.18749999999999759 0.07766504294496003 -2.4944444444444445
v -0.18750000000000258 0.07766504294495004 2.5055555555555555
v -0.1874999999999974 -0.07766504294495058 -2.494444444444445
v -0.1875000000000024 -0.07766504294496057 2.505555555555555
v -0.07766504294495258 -0.18749999999999512 -2.494444444444445
v -0.07766504294495757 -0.1875000000000051 2.505555555555555
v 0.07766504294495793 -0.18749999999999498 -2.4944444444444445
v 0.07766504294495294 -0.18750000000000497 2.5055555555555555
v 0.1875000000000026 -0.07766504294495 -2.4944444444444445
v 0.1874999999999976 -0.07766504294495999 2.5055555555555555
v 0.18750000000000244 0.07766504294496049 -2.494444444444444
v 0.18749999999999745 0.0776650429449505 2.505555555555556
vt 0.15625 0.9862703125
vt 0.1425203125 1
vt 0.1328125 0.9765625
vt 0.1875 0.1875
vt 0.203125 0.1875
vt 0.203125 0.8125
vt 0.1875 0.8125
vt 0.35345781249999997 0.859375
vt 0.3671875 0.8731046875
vt 0.34375 0.8828125
vt 0.15625 0.9668546875
vt 0.15625 0.9862703125
vt 0.1328125 0.9765625
vt 0.0390625 0.2890625
vt 0.0546875 0.2890625
vt 0.0546875 0.9140625
vt 0.0390625 0.9140625
vt 0.3671875 0.8731046875
vt 0.3671875 0.8925203125
vt 0.34375 0.8828125
vt 0.1425203125 0.953125
vt 0.15625 0.9668546875
vt 0.1328125 0.9765625
vt 0.1640625 0.1640625
vt 0.1796875 0.1640625
vt 0.1796875 0.7890625
vt 0.1640625 0.7890625
vt 0.3671875 0.8925203125
vt 0.35345781249999997 0.90625
vt 0.34375 0.8828125
vt 0.1231046875 0.953125
vt 0.1425203125 0.953125
vt 0.1328125 0.9765625
vt 0.0625 0.1953125
vt 0.078125 0.1953125
vt 0.078125 0.8203125
vt 0.0625 0.8203125
vt 0.35345781249999997 0.90625
vt 0.3340421875 0.90625
vt 0.34375 0.8828125
vt 0.109375 0.9668546875
vt 0.1231046875 0.953125
vt 0.1328125 0.9765625
vt 0.234375 0.3125
vt 0.25 0.3125
vt 0.25 0.9375
vt 0.234375 0.9375
vt 0.3340421875 0.90625
vt 0.3203125 0.8925203125
vt 0.34375 0.8828125
vt 0.109375 0.9862703125
vt 0.109375 0.9668546875
vt 0.1328125 0.9765625
vt 0 0.2578125
vt 0.015625 0.2578125
vt 0.015625 0.8828125
vt 0 0.8828125
vt 0.3203125 0.8925203125
vt 0.3203125 0.8731046875
vt 0.34375 0.8828125
vt 0.1231046875 1
vt 0.109375 0.9862703125
vt 0.1328125 0.9765625
vt 0.2109375 0.2109375
vt 0.2265625 0.2109375
vt 0.2265625 0.8359375
vt 0.2109375 0.8359375
vt 0.3203125 0.8731046875
vt 0.3340421875 0.859375
vt 0.34375 0.8828125
vt 0.1425203125 1
vt 0.1231046875 1
vt 0.1328125 0.9765625
vt 0.1015625 0.2265625
vt 0.1171875 0.2265625
vt 0.1171875 0.8515625
vt 0.1015625 0.8515625
vt 0.3340421875 0.859375
vt 0.35345781249999997 0.859375
vt 0.34375 0.8828125
vn 1.0205600981444508e-15 2.1196248192230977e-15 -1
vn -1.4988010832439613e-15 1 1.99840144432528e-15
vn -1.0205600981444508e-15 -2.1196248192230977e-15 1
vn 1.0205600981444508e-15 2.1196248192230977e-15 -1
vn -0.7071067811865486 0.7071067811865465 7.065416064076955e-16
vn -1.0205600981444508e-15 -2.1196248192230977e-15 1
vn 1.0205600981444508e-15 2.1196248192230977e-15 -1
vn -1 -1.2767564783189298e-15 -9.992007221626435e-16
vn -1.0205600981444508e-15 -2.1196248192230977e-15 1
vn 1.0205600981444508e-15 2.1196248192230977e-15 -1
vn -0.7071067811865467 -0.7071067811865483 -2.1196248192230973e-15
vn -1.0205600981444508e-15 -2.1196248192230977e-15 1
vn 1.0205600981444508e-15 2.1196248192230977e-15 -1
vn 1.1657341758564144e-15 -1 -1.9984014443252806e-15
vn -1.0205600981444508e-15 -2.1196248192230977e-15 1
vn 1.0205600981444508e-15 2.1196248192230977e-15 -1
vn 0.7071067811865486 -0.7071067811865467 -7.065416064076961e-16
vn -1.0205600981444508e-15 -2.1196248192230977e-15 1
vn 1.0205600981444508e-15 2.1196248192230977e-15 -1
vn 1 1.1102230246251565e-15 9.992007221626433e-16
vn -1.0205600981444508e-15 -2.1196248192230977e-15 1
vn 1.0205600981444508e-15 2.1196248192230977e-15 -1
vn 0.7071067811865467 0.7071067811865483 2.1196248192230973e-15
vn -1.0205600981444508e-15 -2.1196248192230977e-15 1
usemtl m_7566dfe4-b886-e1a4-4a09-722fa04a3073
f 5/1/1 3/2/1 1/3/1
f 3/4/2 5/5/2 6/6/2 4/7/2
f 4/8/3 6/9/3 2/10/3
f 7/11/4 5/12/4 1/13/4
f 5/14/5 7/15/5 8/16/5 6/17/5
f 6/18/6 8/19/6 2/20/6
f 9/21/7 7/22/7 1/23/7
f 7/24/8 9/25/8 10/26/8 8/27/8
f 8/28/9 10/29/9 2/30/9
f 11/31/10 9/32/10 1/33/10
f 9/34/11 11/35/11 12/36/11 10/37/11
f 10/38/12 12/39/12 2/40/12
f 13/41/13 11/42/13 1/43/13
f 11/44/14 13/45/14 14/46/14 12/47/14
f 12/48/15 14/49/15 2/50/15
f 15/51/16 13/52/16 1/53/16
f 13/54/17 15/55/17 16/56/17 14/57/17
f 14/58/18 16/59/18 2/60/18
f 17/61/19 15/62/19 1/63/19
f 15/64/20 17/65/20 18/66/20 16/67/20
f 16/68/21 18/69/21 2/70/21
f 3/71/22 17/72/22 1/73/22
f 17/74/23 3/75/23 4/76/23 18/77/23
f 18/78/24 4/79/24 2/80/24
o cone
v -2.5010840216515017e-15 -5.001861384619667e-15 2.5055555555555555
v -3.000684382732822e-15 -6.0010621067823075e-15 3.0055555555555555
v 0.07766504294495255 0.18749999999999512 2.505555555555556
v -0.07766504294495805 0.1874999999999949 2.5055555555555555
v -0.18750000000000258 0.07766504294495004 2.5055555555555555
v -0.1875000000000024 -0.07766504294496057 2.505555555555555
v -0.07766504294495757 -0.1875000000000051 2.505555555555555
v 0.07766504294495294 -0.18750000000000497 2.5055555555555555
v 0.1874999999999976 -0.07766504294495999 2.5055555555555555
v 0.18749999999999745 0.0776650429449505 2.505555555555556
vt 0.3671875 0.7831453125
vt 0.35345781249999997 0.796875
vt 0.34375 0.7734375
vt 0.28547400837765674 0.5994045858423867
vt 0.3046875 0.5966102641324236
vt 0.3046875 0.6640625
vt 0.3671875 0.7637296875
vt 0.3671875 0.7831453125
vt 0.34375 0.7734375
vt 0.3529926320662118 0.9375
vt 0.35578695377617475 0.9182865083776568
vt 0.4204448679337882 0.9375
vt 0.35345781249999997 0.75
vt 0.3671875 0.7637296875
vt 0.34375 0.7734375
vt 0.125 0.6228420858423867
vt 0.14421349162234326 0.6200477641324236
vt 0.14421349162234323 0.6875
vt 0.3340421875 0.75
vt 0.35345781249999997 0.75
vt 0.34375 0.7734375
vt 0.2826801320662118 1
vt 0.28547445377617475 0.9807865083776568
vt 0.3501323679337882 1
vt 0.3203125 0.7637296875
vt 0.3340421875 0.75
vt 0.34375 0.7734375
vt 0.36359900837765674 0.8103420858423867
vt 0.3828125 0.8075477641324236
vt 0.3828125 0.875
vt 0.3203125 0.7831453125
vt 0.3203125 0.7637296875
vt 0.34375 0.7734375
vt 0.13492450418882837 0.7009670858423867
vt 0.15413799581117163 0.6981727641324236
vt 0.1541379958111716 0.765625
vt 0.3340421875 0.796875
vt 0.3203125 0.7831453125
vt 0.34375 0.7734375
vt 0.3671875 0.5681545858423867
vt 0.38640099162234326 0.5653602641324236
vt 0.38640099162234326 0.6328125
vt 0.35345781249999997 0.796875
vt 0.3340421875 0.796875
vt 0.34375 0.7734375
vt 0.3451801320662118 0.7109375
vt 0.34797445377617475 0.6917240083776568
vt 0.4126323679337882 0.7109375
vn 1.0205600981444508e-15 2.1196248192230977e-15 -1
vn -1.609823385706477e-15 0.9363291775690439 0.3511234415883936
vn 1.0205600981444508e-15 2.1196248192230977e-15 -1
vn -0.6620847108818957 0.6620847108818927 0.3511234415883923
vn 1.0205600981444508e-15 2.1196248192230977e-15 -1
vn -0.9363291775690448 -1.8873791418627657e-15 0.35112344158839076
vn 1.0205600981444508e-15 2.1196248192230977e-15 -1
vn -0.662084710881894 -0.6620847108818959 0.35112344158838976
vn 1.0205600981444508e-15 2.1196248192230977e-15 -1
vn 7.771561172376096e-16 -0.9363291775690452 0.35112344158838993
vn 1.0205600981444508e-15 2.1196248192230977e-15 -1
vn 0.6620847108818949 -0.6620847108818942 0.351123441588391
vn 1.0205600981444508e-15 2.1196248192230977e-15 -1
vn 0.9363291775690442 2.7755575615628914e-16 0.35112344158839276
vn 1.0205600981444508e-15 2.1196248192230977e-15 -1
vn 0.6620847108818934 0.6620847108818944 0.35112344158839376
usemtl m_7566dfe4-b886-e1a4-4a09-722fa04a3073
f 22/81/25 21/82/25 19/83/25
f 21/84/26 22/85/26 20/86/26
f 23/87/27 22/88/27 19/89/27
f 22/90/28 23/91/28 20/92/28
f 24/93/29 23/94/29 19/95/29
f 23/96/30 24/97/30 20/98/30
f 25/99/31 24/100/31 19/101/31
f 24/102/32 25/103/32 20/104/32
f 26/105/33 25/106/33 19/107/33
f 25/108/34 26/109/34 20/110/34
f 27/111/35 26/112/35 19/113/35
f 26/114/36 27/115/36 20/116/36
f 28/117/37 27/118/37 19/119/37
f 27/120/38 28/121/38 20/122/38
f 21/123/39 28/124/39 19/125/39
f 28/126/40 21/127/40 20/128/40
o cylinder2
v 4.265860408467041e-16 -1.1364383604189763e-15 -2.5569444444444445
v -0.18749999999999967 -0.0776650429449563 -2.4944444444444445
v -0.17866116523516778 -0.06882620818012447 -2.5569444444444445
v -0.18749999999999956 0.07766504294495437 -2.4944444444444445
v -0.1786611652351677 0.06882620818012247 -2.5569444444444445
v -0.07766504294495477 0.18749999999999897 -2.4944444444444445
v -0.06882620818012292 0.1786611652351671 -2.5569444444444445
v 0.07766504294495588 0.18749999999999886 -2.4944444444444445
v 0.06882620818012403 0.178661165235167 -2.5569444444444445
v 0.1875000000000005 0.0776650429449541 -2.4944444444444445
v 0.17866116523516865 0.06882620818012221 -2.5569444444444445
v 0.18750000000000044 -0.07766504294495648 -2.4944444444444445
v 0.17866116523516862 -0.06882620818012467 -2.5569444444444445
v 0.07766504294495556 -0.18750000000000122 -2.4944444444444445
v 0.06882620818012374 -0.1786611652351694 -2.5569444444444445
v -0.07766504294495495 -0.1875000000000011 -2.4944444444444445
v -0.06882620818012311 -0.17866116523516934 -2.5569444444444445
vt 0.144646875 0.8828125
vt 0.1640625 0.8828125
vt 0.1629578125 0.890625
vt 0.1457515625 0.890625
vt 0.3925203125 0.95625
vt 0.4046875 0.9684171875
vt 0.3828125 0.978125
vt 0.296875 0.875
vt 0.3125 0.875
vt 0.3125 0.8828125
vt 0.296875 0.8828125
vt 0.4046875 0.9684171875
vt 0.4046875 0.9878328125
vt 0.3828125 0.978125
vt 0.28125 0.859375
vt 0.300665625 0.859375
vt 0.2995609375 0.8671875
vt 0.2823546875 0.8671875
vt 0.4046875 0.9878328125
vt 0.3925203125 1
vt 0.3828125 0.978125
vt 0.28125 0.75
vt 0.296875 0.75
vt 0.296875 0.7578125
vt 0.28125 0.7578125
vt 0.3925203125 1
vt 0.3731046875 1
vt 0.3828125 0.978125
vt 0.199334375 0.8828125
vt 0.21875 0.8828125
vt 0.2176453125 0.890625
vt 0.2004390625 0.890625
vt 0.3731046875 1
vt 0.3609375 0.9878328125
vt 0.3828125 0.978125
vt 0.296875 0.765625
vt 0.3125 0.765625
vt 0.3125 0.7734375
vt 0.296875 0.7734375
vt 0.3609375 0.9878328125
vt 0.3609375 0.9684171875
vt 0.3828125 0.978125
vt 0.078125 0.9453125
vt 0.09754062499999999 0.9453125
vt 0.0964359375 0.953125
vt 0.0792296875 0.953125
vt 0.3609375 0.9684171875
vt 0.3731046875 0.95625
vt 0.3828125 0.978125
vt 0.2109375 0.90625
vt 0.2265625 0.90625
vt 0.2265625 0.9140625
vt 0.2109375 0.9140625
vt 0.3731046875 0.95625
vt 0.3925203125 0.95625
vt 0.3828125 0.978125
vn -0.9901475429766743 6.661338147750939e-16 -0.1400280084028012
vn 2.747661802696604e-16 -2.7476618026966083e-16 -1
vn -0.6933752452815358 0.6933752452815369 -0.19611613513818466
vn 2.747661802696604e-16 -2.7476618026966083e-16 -1
vn 6.661338147750941e-16 0.9901475429766744 -0.1400280084028017
vn 2.747661802696604e-16 -2.7476618026966083e-16 -1
vn 0.6933752452815368 0.6933752452815359 -0.19611613513818488
vn 2.747661802696604e-16 -2.7476618026966083e-16 -1
vn 0.9901475429766744 -3.885780586188049e-16 -0.1400280084028006
vn 2.747661802696604e-16 -2.7476618026966083e-16 -1
vn 0.6933752452815362 -0.693375245281537 -0.19611613513818388
vn 2.747661802696604e-16 -2.7476618026966083e-16 -1
vn -4.996003610813205e-16 -0.9901475429766744 -0.14002800840280036
vn 2.747661802696604e-16 -2.7476618026966083e-16 -1
vn -0.6933752452815367 -0.693375245281536 -0.19611613513818404
vn 2.747661802696604e-16 -2.7476618026966083e-16 -1
usemtl m_7566dfe4-b886-e1a4-4a09-722fa04a3073
f 30/129/41 32/130/41 33/131/41 31/132/41
f 31/133/42 33/134/42 29/135/42
f 32/136/43 34/137/43 35/138/43 33/139/43
f 33/140/44 35/141/44 29/142/44
f 34/143/45 36/144/45 37/145/45 35/146/45
f 35/147/46 37/148/46 29/149/46
f 36/150/47 38/151/47 39/152/47 37/153/47
f 37/154/48 39/155/48 29/156/48
f 38/157/49 40/158/49 41/159/49 39/160/49
f 39/161/50 41/162/50 29/163/50
f 40/164/51 42/165/51 43/166/51 41/167/51
f 41/168/52 43/169/52 29/170/52
f 42/171/53 44/172/53 45/173/53 43/174/53
f 43/175/54 45/176/54 29/177/54
f 44/178/55 30/179/55 31/180/55 45/181/55
f 45/182/56 31/183/56 29/184/56
o plane2
v -0.574524259714071 0.5745242597140711 -0.16469182468885482
v -0.04419417382415636 0.04419417382415637 0.630555555555556
v -0.04419417382416006 0.04419417382416008 -0.10219182468886018
v -0.5745242597140713 0.5745242597140714 -0.22364028910797373
v -0.04419417382416036 0.044194173824160375 -0.16114028910797912
vt 0.09765636842236522 0.9926315951621335
vt 0.0039063684223652265 0.9848190951621335
vt 0.0039063684223652265 0.8932261264121335
vt 0.09765636842236522 0.9926315951621335
vt 0.09765617378452182 1
vt 0.0039061315776347735 0.9921874964827594
vt 0.0039063262154781855 0.9848190916448929
vn -0.7071067811865477 -0.7071067811865475 -7.888609052210118e-31
vn -0.7071067811865477 -0.7071067811865475 4.2988875094701237e-19
usemtl m_7566dfe4-b886-e1a4-4a09-722fa04a3073
f 46/185/57 48/186/57 47/187/57
f 46/188/58 49/189/58 50/190/58 48/191/58
o plane1
v 0.5745242597140687 0.5745242597140711 -0.16469182468886062
v 0.044194173824162075 0.044194173824156364 0.6305555555555555
v 0.04419417382415837 0.04419417382416007 -0.10219182468886062
v 0.5745242597140684 0.5745242597140714 -0.22364028910797956
v 0.04419417382415807 0.04419417382416037 -0.16114028910797956
vt 0.16015636842236522 0.9301315951621335
vt 0.06640636842236522 0.9223190951621335
vt 0.06640636842236522 0.8307261264121335
vt 0.16015636842236522 0.9301315951621335
vt 0.16015617378452182 0.9375
vt 0.06640613157763478 0.9296874964827594
vt 0.06640632621547818 0.9223190916448929
vn -0.7071067811865476 0.7071067811865475 7.153999614928371e-15
vn -0.7071067811865476 0.7071067811865475 7.154429503679319e-15
usemtl m_7566dfe4-b886-e1a4-4a09-722fa04a3073
f 51/192/59 53/193/59 52/194/59
f 51/195/60 54/196/60 55/197/60 53/198/60
o plane3
v 0.5745242597140687 -0.5745242597140688 -0.16469182468886642
v 0.044194173824162075 -0.04419417382416208 0.6305555555555551
v 0.04419417382415837 -0.04419417382415838 -0.10219182468886107
v 0.5745242597140684 -0.5745242597140685 -0.2236402891079854
v 0.04419417382415807 -0.04419417382415808 -0.16114028910798
vt 0.22265636842236522 0.8676315951621335
vt 0.12890636842236522 0.8598190951621335
vt 0.12890636842236522 0.7682261264121335
vt 0.22265636842236522 0.8676315951621335
vt 0.22265617378452182 0.875
vt 0.12890613157763478 0.8671874964827594
vt 0.12890632621547818 0.8598190916448929
vn 0.7071067811865476 0.7071067811865475 7.888609052210118e-31
vn 0.7071067811865476 0.7071067811865475 4.298887509485896e-19
usemtl m_7566dfe4-b886-e1a4-4a09-722fa04a3073
f 56/199/61 58/200/61 57/201/61
f 56/202/62 59/203/62 60/204/62 58/205/62
o plane4
v -0.574524259714071 -0.5745242597140688 -0.16469182468886062
v -0.04419417382415636 -0.04419417382416209 0.6305555555555555
v -0.04419417382416006 -0.044194173824158384 -0.10219182468886062
v -0.5745242597140713 -0.5745242597140685 -0.22364028910797956
v -0.04419417382416036 -0.044194173824158085 -0.16114028910797956
vt 0.26953136842236525 0.9926315951621335
vt 0.17578136842236522 0.9848190951621335
vt 0.17578136842236522 0.8932261264121335
vt 0.26953136842236525 0.9926315951621335
vt 0.26953117378452185 1
vt 0.17578113157763478 0.9921874964827594
vt 0.17578132621547818 0.9848190916448929
vn 0.7071067811865477 -0.7071067811865475 -7.153999614928371e-15
vn 0.7071067811865477 -0.7071067811865475 -7.153569726177424e-15
usemtl m_7566dfe4-b886-e1a4-4a09-722fa04a3073
f 61/206/63 63/207/63 62/208/63
f 61/209/64 64/210/64 65/211/64 63/212/64
o plane5
v -0.5745242597140827 0.5745242597140828 -2.539691824688855
v -0.044194173824168057 0.04419417382416807 -1.744444444444444
v -0.04419417382417208 0.044194173824172095 -2.5396918246888602
vt 0.3515625 0.9609375
vt 0.2578125 0.9609375
vt 0.2578125 0.86153203125
vn -0.7071067811865477 -0.7071067811865475 -7.888609052210118e-31
usemtl m_7566dfe4-b886-e1a4-4a09-722fa04a3073
f 66/213/65 68/214/65 67/215/65
o plane6
v -0.5745242597140827 -0.5745242597140571 -2.5396918246888607
v -0.044194173824168057 -0.04419417382415039 -1.7444444444444445
v -0.04419417382417208 -0.044194173824146366 -2.5396918246888607
vt 0.3515625 0.8515625
vt 0.2578125 0.8515625
vt 0.2578125 0.75215703125
vn 0.7071067811865477 -0.7071067811865475 -7.153999614928371e-15
usemtl m_7566dfe4-b886-e1a4-4a09-722fa04a3073
f 69/216/66 71/217/66 70/218/66
o plane7
v 0.574524259714057 0.5745242597140828 -2.5396918246888607
v 0.044194173824150376 0.04419417382416806 -1.7444444444444445
v 0.04419417382414635 0.04419417382417209 -2.5396918246888607
vt 0.40625 0.6796875
vt 0.3125 0.6796875
vt 0.3125 0.58028203125
vn -0.7071067811865476 0.7071067811865475 7.153999614928371e-15
usemtl m_7566dfe4-b886-e1a4-4a09-722fa04a3073
f 72/219/67 74/220/67 73/221/67
o plane8
v 0.574524259714057 -0.5745242597140571 -2.5396918246888665
v 0.044194173824150376 -0.04419417382415038 -1.744444444444445
v 0.04419417382414635 -0.04419417382414636 -2.539691824688861
vt 0.3515625 0.7421875
vt 0.2578125 0.7421875
vt 0.2578125 0.64278203125
vn 0.7071067811865476 0.7071067811865475 7.888609052210118e-31
usemtl m_7566dfe4-b886-e1a4-4a09-722fa04a3073
f 75/222/68 77/223/68 76/224/68