# Made in Blockbench 4.8.1
mtllib aim9p5.mtl

o cylinder1
v 2.914244621154422e-15 -9.645062526431047e-15 -1.2101388888888889
v -8.118252873215891e-16 2.7755575615628914e-15 1.0273611111111112
v 0.03281348064424659 0.07921874999999035 -1.2101388888888893
v 0.032813480644242866 0.07921875000000277 1.0273611111111107
v 0.07921875000000293 0.03281348064423394 -1.2101388888888889
v 0.07921874999999921 0.032813480644246364 1.0273611111111112
v 0.07921875000000289 -0.03281348064425333 -1.2101388888888884
v 0.07921874999999917 -0.03281348064424091 1.0273611111111116
v 0.0328134806442465 -0.07921875000000966 -1.2101388888888884
v 0.032813480644242776 -0.07921874999999724 1.0273611111111116
v -0.03281348064424076 -0.07921875000000962 -1.2101388888888884
v -0.03281348064424448 -0.0792187499999972 1.0273611111111116
v -0.0792187499999971 -0.03281348064425329 -1.2101388888888889
v -0.07921875000000082 -0.03281348064424087 1.0273611111111112
v -0.07921874999999708 0.03281348064423404 -1.2101388888888893
v -0.0792187500000008 0.03281348064424646 1.0273611111111107
v -0.032813480644240715 0.07921874999999037 -1.2101388888888893
v -0.03281348064424444 0.0792187500000028 1.0273611111111107
vt 0.437890625 0.828125
vt 0.4494921875 0.8397265625
vt 0.4296875 0.8479296875
vt 0.1875 1
vt 0.1875 0.4375
vt 0.203125 0.4375
vt 0.203125 1
vt 0.4494921875 0.8008984375
vt 0.437890625 0.8125
vt 0.4296875 0.7926953125
vt 0.4494921875 0.8397265625
vt 0.4494921875 0.8561328125000001
vt 0.4296875 0.8479296875
vt 0 1
vt 0 0.4375
vt 0.015625 0.4375
vt 0.015625 1
vt 0.4494921875 0.7844921874999999
vt 0.4494921875 0.8008984375
vt 0.4296875 0.7926953125
vt 0.4494921875 0.8561328125000001
vt 0.437890625 0.867734375
vt 0.4296875 0.8479296875
vt 0.125 1
vt 0.125 0.4375
vt 0.140625 0.4375
vt 0.140625 1
vt 0.437890625 0.772890625
vt 0.4494921875 0.7844921874999999
vt 0.4296875 0.7926953125
vt 0.437890625 0.867734375
vt 0.421484375 0.867734375
vt 0.4296875 0.8479296875
vt 0.03125 1
vt 0.03125 0.4375
vt 0.046875 0.4375
vt 0.046875 1
vt 0.421484375 0.772890625
vt 0.437890625 0.772890625
vt 0.4296875 0.7926953125
vt 0.421484375 0.867734375
vt 0.4098828125 0.8561328125000001
vt 0.4296875 0.8479296875
vt 0.21875 1
vt 0.21875 0.4375
vt 0.234375 0.4375
vt 0.234375 1
vt 0.4098828125 0.7844921874999999
vt 0.421484375 0.772890625
vt 0.4296875 0.7926953125
vt 0.4098828125 0.8561328125000001
vt 0.4098828125 0.8397265625
vt 0.4296875 0.8479296875
vt 0.0625 1
vt 0.0625 0.4375
vt 0.078125 0.4375
vt 0.078125 1
vt 0.4098828125 0.8008984375
vt 0.4098828125 0.7844921874999999
vt 0.4296875 0.7926953125
vt 0.4098828125 0.8397265625
vt 0.421484375 0.828125
vt 0.4296875 0.8479296875
vt 0.15625 1
vt 0.15625 0.4375
vt 0.171875 0.4375
vt 0.171875 1
vt 0.421484375 0.8125
vt 0.4098828125 0.8008984375
vt 0.4296875 0.7926953125
vt 0.421484375 0.828125
vt 0.437890625 0.828125
vt 0.4296875 0.8479296875
vt 0.09375 1
vt 0.09375 0.4375
vt 0.109375 0.4375
vt 0.109375 1
vt 0.437890625 0.8125
vt 0.421484375 0.8125
vt 0.4296875 0.7926953125
vn 1.6652826406596698e-15 -5.5511151231257835e-15 -1
vn 0.7071067811865481 0.707106781186547 -2.747698498906741e-15
vn -1.6652826406596698e-15 5.5511151231257835e-15 1
vn 1.6652826406596698e-15 -5.5511151231257835e-15 -1
vn 1 -6.279180020255393e-16 1.6652826406596735e-15
vn -1.6652826406596698e-15 5.5511151231257835e-15 1
vn 1.6652826406596698e-15 -5.5511151231257835e-15 -1
vn 0.7071067811865472 -0.7071067811865479 5.102763794512133e-15
vn -1.6652826406596698e-15 5.5511151231257835e-15 1
vn 1.6652826406596698e-15 -5.5511151231257835e-15 -1
vn -6.279180020255487e-16 -1 5.551115123125782e-15
vn -1.6652826406596698e-15 5.5511151231257835e-15 1
vn 1.6652826406596698e-15 -5.5511151231257835e-15 -1
vn -0.7071067811865475 -0.7071067811865476 2.7476984989067452e-15
vn -1.6652826406596698e-15 5.5511151231257835e-15 1
vn 1.6652826406596698e-15 -5.5511151231257835e-15 -1
vn -1 4.1645326961457853e-16 -1.6652826406596723e-15
vn -1.6652826406596698e-15 5.5511151231257835e-15 1
vn 1.6652826406596698e-15 -5.5511151231257835e-15 -1
vn -0.7071067811865472 0.7071067811865479 -5.102763794512133e-15
vn -1.6652826406596698e-15 5.5511151231257835e-15 1
vn 1.6652826406596698e-15 -5.5511151231257835e-15 -1
vn 4.164532696145878e-16 1 -5.551115123125782e-15
vn -1.6652826406596698e-15 5.5511151231257835e-15 1
usemtl m_a66e248c-3fc0-8453-6830-ca9e7d2131c3
f 3/1/1 5/2/1 1/3/1
f 6/4/2 5/5/2 3/6/2 4/7/2
f 6/8/3 4/9/3 2/10/3
f 5/11/4 7/12/4 1/13/4
f 8/14/5 7/15/5 5/16/5 6/17/5
f 8/18/6 6/19/6 2/20/6
f 7/21/7 9/22/7 1/23/7
f 10/24/8 9/25/8 7/26/8 8/27/8
f 10/28/9 8/29/9 2/30/9
f 9/31/10 11/32/10 1/33/10
f 12/34/11 11/35/11 9/36/11 10/37/11
f 12/38/12 10/39/12 2/40/12
f 11/41/13 13/42/13 1/43/13
f 14/44/14 13/45/14 11/46/14 12/47/14
f 14/48/15 12/49/15 2/50/15
f 13/51/16 15/52/16 1/53/16
f 16/54/17 15/55/17 13/56/17 14/57/17
f 16/58/18 14/59/18 2/60/18
f 15/61/19 17/62/19 1/63/19
f 18/64/20 17/65/20 15/66/20 16/67/20
f 18/68/21 16/69/21 2/70/21
f 17/71/22 3/72/22 1/73/22
f 4/74/23 3/75/23 17/76/23 18/77/23
f 4/78/24 18/79/24 2/80/24
o cylinder4
v -1.2515639846207832e-15 4.249636907803654e-15 1.291423611111111
v 0.016827425971405793 0.04062500000000412 1.2711111111111109
v 0.0406249999999988 0.016827425971411104 1.2711111111111113
v 0.04062499999999877 -0.01682742597140287 1.2711111111111113
v 0.01682742597140575 -0.04062499999999588 1.2711111111111113
v -0.016827425971408225 -0.04062499999999585 1.2711111111111113
v -0.04062500000000122 -0.01682742597140285 1.2711111111111113
v -0.0406250000000012 0.016827425971411156 1.2711111111111109
v -0.016827425971408207 0.040625000000004144 1.2711111111111109
vt 0.4894114913775987 0.931625908373332
vt 0.49579375 0.9261453125
vt 0.5 0.9375
vt 0.2762135086224013 0.5229341413923398
vt 0.2774849848775491 0.53125
vt 0.265625 0.5288082330190078
vt 0.26983125 0.5174535455190078
vt 0.2762135086224013 0.5229341413923398
vt 0.265625 0.5288082330190078
vt 0.26141875 0.5174535455190078
vt 0.26983125 0.5174535455190078
vt 0.265625 0.5288082330190078
vt 0.2550364913775987 0.5229341413923398
vt 0.26141875 0.5174535455190078
vt 0.265625 0.5288082330190078
vt 0.2537650151224509 0.53125
vt 0.2550364913775987 0.5229341413923398
vt 0.265625 0.5288082330190078
vt 0.50420625 0.9261453125
vt 0.5105885086224012 0.931625908373332
vt 0.5 0.9375
vt 0.49579375 0.9261453125
vt 0.50420625 0.9261453125
vt 0.5 0.9375
vn 0.3162277660168361 0.3162277660168422 0.8944271909999151
vn 0.44721359549995576 4.6842548391295585e-15 0.8944271909999172
vn 0.3162277660168357 -0.31622776601683256 0.8944271909999186
vn -1.7702875418711466e-15 -0.4472135954999523 0.8944271909999189
vn -0.3162277660168389 -0.3162277660168324 0.8944271909999175
vn -0.44721359549995876 5.1536761181391715e-15 0.8944271909999156
vn -0.3162277660168387 0.3162277660168424 0.8944271909999142
vn -1.300866262861525e-15 0.44721359549996215 0.8944271909999139
usemtl m_a66e248c-3fc0-8453-6830-ca9e7d2131c3
f 21/81/25 20/82/25 19/83/25
f 22/84/26 21/85/26 19/86/26
f 23/87/27 22/88/27 19/89/27
f 24/90/28 23/91/28 19/92/28
f 25/93/29 24/94/29 19/95/29
f 26/96/30 25/97/30 19/98/30
f 27/99/31 26/100/31 19/101/31
f 20/102/32 27/103/32 19/104/32
o cylinder3
v -8.118252873215892e-16 2.783795570603253e-15 1.0273611111111112
v -1.2177379309823838e-15 4.136879881865162e-15 1.2711111111111113
v 0.032813480644242866 0.07921875000000278 1.0273611111111107
v 0.016827425971405793 0.04062500000000412 1.2711111111111109
v 0.07921874999999921 0.03281348064424637 1.0273611111111112
v 0.0406249999999988 0.016827425971411104 1.2711111111111113
v 0.07921874999999919 -0.032813480644240896 1.0273611111111114
v 0.04062499999999877 -0.01682742597140287 1.2711111111111113
v 0.032813480644242776 -0.07921874999999723 1.0273611111111116
v 0.016827425971405754 -0.04062499999999589 1.2711111111111113
v -0.03281348064424448 -0.07921874999999722 1.0273611111111116
v -0.016827425971408225 -0.04062499999999586 1.2711111111111113
v -0.07921875000000081 -0.032813480644240854 1.0273611111111112
v -0.04062500000000122 -0.01682742597140285 1.2711111111111113
v -0.0792187500000008 0.032813480644246475 1.027361111111111
v -0.0406250000000012 0.016827425971411156 1.2711111111111109
v -0.03281348064424444 0.0792187500000028 1.0273611111111107
v -0.016827425971408207 0.040625000000004144 1.2711111111111109
vt 0.281640625 0.546875
vt 0.2932421875 0.5584765625
vt 0.2734375 0.5666796875
vt 0.351727028662522 0.546875
vt 0.34375 0.4855655683581347
vt 0.359375 0.48450495445755626
vt 0.359375 0.5463311575961225
vt 0.49453125 0.790925
vt 0.48858125 0.796875
vt 0.484375 0.78671875
vt 0.2932421875 0.5584765625
vt 0.2932421875 0.5748828125000001
vt 0.2734375 0.5666796875
vt 0.398602028662522 0.5625
vt 0.390625 0.5011905683581347
vt 0.40625 0.5001299544575563
vt 0.40625 0.5619561575961225
vt 0.49453125 0.7825124999999999
vt 0.49453125 0.790925
vt 0.484375 0.78671875
vt 0.2932421875 0.5748828125000001
vt 0.281640625 0.586484375
vt 0.2734375 0.5666796875
vt 0.320477028662522 0.546875
vt 0.3125 0.4855655683581347
vt 0.328125 0.48450495445755626
vt 0.328125 0.5463311575961225
vt 0.48858125 0.7765625
vt 0.49453125 0.7825124999999999
vt 0.484375 0.78671875
vt 0.281640625 0.586484375
vt 0.265234375 0.586484375
vt 0.2734375 0.5666796875
vt 0.445477028662522 0.640625
vt 0.4375 0.5793155683581347
vt 0.453125 0.5782549544575563
vt 0.453125 0.6400811575961225
vt 0.48016875 0.7765625
vt 0.48858125 0.7765625
vt 0.484375 0.78671875
vt 0.265234375 0.586484375
vt 0.2536328125 0.5748828125000001
vt 0.2734375 0.5666796875
vt 0.476727028662522 0.875
vt 0.46875 0.8136905683581347
vt 0.484375 0.8126299544575563
vt 0.484375 0.8744561575961225
vt 0.47421875 0.7825124999999999
vt 0.48016875 0.7765625
vt 0.484375 0.78671875
vt 0.2536328125 0.5748828125000001
vt 0.2536328125 0.5584765625
vt 0.2734375 0.5666796875
vt 0.429852028662522 0.5625
vt 0.421875 0.5011905683581347
vt 0.4375 0.5001299544575563
vt 0.4375 0.5619561575961225
vt 0.47421875 0.790925
vt 0.47421875 0.7825124999999999
vt 0.484375 0.78671875
vt 0.2536328125 0.5584765625
vt 0.265234375 0.546875
vt 0.2734375 0.5666796875
vt 0.461102028662522 0.5625
vt 0.453125 0.5011905683581347
vt 0.46875 0.5001299544575563
vt 0.46875 0.5619561575961225
vt 0.48016875 0.796875
vt 0.47421875 0.790925
vt 0.484375 0.78671875
vt 0.265234375 0.546875
vt 0.281640625 0.546875
vt 0.2734375 0.5666796875
vt 0.414227028662522 0.640625
vt 0.40625 0.5793155683581347
vt 0.421875 0.5782549544575563
vt 0.421875 0.6400811575961225
vt 0.48858125 0.796875
vt 0.48016875 0.796875
vt 0.484375 0.78671875
vn 1.6652826406596698e-15 -5.5511151231257835e-15 -1
vn 0.6984066374088592 0.6984066374088596 0.1563852219568718
vn -1.6652826406596698e-15 5.5511151231257835e-15 1
vn 1.6652826406596698e-15 -5.5511151231257835e-15 -1
vn 0.9876961386749968 2.4792018463304455e-16 0.1563852219568762
vn -1.6652826406596698e-15 5.5511151231257835e-15 1
vn 1.6652826406596698e-15 -5.5511151231257835e-15 -1
vn 0.6984066374088584 -0.6984066374088586 0.15638522195687957
vn -1.6652826406596698e-15 5.5511151231257835e-15 1
vn 1.6652826406596698e-15 -5.5511151231257835e-15 -1
vn -6.663994227515459e-16 -0.9876961386749962 0.15638522195688007
vn -1.6652826406596698e-15 5.5511151231257835e-15 1
vn 1.6652826406596698e-15 -5.5511151231257835e-15 -1
vn -0.6984066374088596 -0.6984066374088581 0.15638522195687735
vn -1.6652826406596698e-15 5.5511151231257835e-15 1
vn 1.6652826406596698e-15 -5.5511151231257835e-15 -1
vn -0.9876961386749974 1.2740861980092328e-15 0.1563852219568729
vn -1.6652826406596698e-15 5.5511151231257835e-15 1
vn 1.6652826406596698e-15 -5.5511151231257835e-15 -1
vn -0.6984066374088591 0.6984066374088602 0.15638522195686955
vn -1.6652826406596698e-15 5.5511151231257835e-15 1
vn 1.6652826406596698e-15 -5.5511151231257835e-15 -1
vn 1.4554823199056082e-16 0.987696138674998 0.15638522195686905
vn -1.6652826406596698e-15 5.5511151231257835e-15 1
usemtl m_a66e248c-3fc0-8453-6830-ca9e7d2131c3
f 30/105/33 32/106/33 28/107/33
f 33/108/34 32/109/34 30/110/34 31/111/34
f 33/112/35 31/113/35 29/114/35
f 32/115/36 34/116/36 28/117/36
f 35/118/37 34/119/37 32/120/37 33/121/37
f 35/122/38 33/123/38 29/124/38
f 34/125/39 36/126/39 28/127/39
f 37/128/40 36/129/40 34/130/40 35/131/40
f 37/132/41 35/133/41 29/134/41
f 36/135/42 38/136/42 28/137/42
f 39/138/43 38/139/43 36/140/43 37/141/43
f 39/142/44 37/143/44 29/144/44
f 38/145/45 40/146/45 28/147/45
f 41/148/46 40/149/46 38/150/46 39/151/46
f 41/152/47 39/153/47 29/154/47
f 40/155/48 42/156/48 28/157/48
f 43/158/49 42/159/49 40/160/49 41/161/49
f 43/162/50 41/163/50 29/164/50
f 42/165/51 44/166/51 28/167/51
f 45/168/52 44/169/52 42/170/52 43/171/52
f 45/172/53 43/173/53 29/174/53
f 44/175/54 30/176/54 28/177/54
f 31/178/55 30/179/55 44/180/55 45/181/55
f 31/182/56 45/183/56 29/184/56
o plane1
v -4.9170474624886946e-15 0.17812500000000023 0.9265625000000002
v -5.2366731159977925e-15 0.07839355468750016 0.8375000000000001
v -5.505359813273272e-15 0.07839355468750003 1.015625
v -4.848160109509334e-15 0.16374511718750065 0.8375000000000001
v -4.484193297651016e-15 0.2732177734374995 0.9265625000000002
v -4.3498499490132765e-15 0.27321777343749953 0.8375000000000001
vt 0.278234375 0.609375
vt 0.2818296875 0.631640625
vt 0.256896875 0.65390625
vt 0.256896875 0.609375
vt 0.305603125 0.609375
vt 0.305603125 0.631640625
vt 0.2818296875 0.631640625
vt 0.278234375 0.609375
vn 1 -4.5519144009631426e-15 1.508416546107953e-15
vn 1 -4.5519144009631426e-15 1.508416546107953e-15
usemtl m_a66e248c-3fc0-8453-6830-ca9e7d2131c3
f 49/185/57 46/186/57 48/187/57 47/188/57
f 51/189/58 50/190/58 46/191/58 49/192/58
o plane3
v 0.31250000000000216 0.0030468750000002057 -0.8124826388888883
v 0.07617187500000273 0.0030468750000002057 -1.257404513888889
v 0.07617187500000201 0.0030468750000002057 -0.6788888888888888
v 0.3125000000000027 0.0030468750000002057 -1.2574045138888885
v 0.22851562500000275 0.0030468750000002057 -1.2574045138888885
vt 0.2897953125 0.84375
vt 0.310790625 0.9549812500000001
vt 0.251709375 0.9883796875
vt 0.251709375 0.84375
vt 0.310790625 0.84375
vt 0.310790625 0.9549812500000001
vt 0.2897953125 0.84375
vn 0 -1 0
vn 0 -1 0
usemtl m_a66e248c-3fc0-8453-6830-ca9e7d2131c3
f 56/193/59 52/194/59 54/195/59 53/196/59
f 55/197/60 52/198/60 56/199/60
o plane4
v 3.984959539932226e-15 0.3155468750000012 -0.8124826388888885
v 3.580341662367484e-15 0.0792187500000015 -1.257404513888889
v 2.707699121435499e-15 0.07921875000000114 -0.6788888888888888
v 4.656087057907602e-15 0.3155468750000015 -1.257404513888889
v 4.273797371889213e-15 0.2315625000000015 -1.257404513888889
vt 0.2897953125 0.671875
vt 0.310790625 0.7831062500000001
vt 0.251709375 0.8165046875
vt 0.251709375 0.671875
vt 0.310790625 0.671875
vt 0.310790625 0.7831062500000001
vt 0.2897953125 0.671875
vn 1 -4.5519144009631426e-15 1.508416546107953e-15
vn 1 -4.5519144009631426e-15 1.508416546107953e-15
usemtl m_a66e248c-3fc0-8453-6830-ca9e7d2131c3
f 61/200/61 57/201/61 59/202/61 58/203/61
f 60/204/62 57/205/62 61/206/62
o plane5
v -0.31249999999999917 0.003046874999999987 -0.8124826388888889
v -0.07617187499999893 0.0030468750000000157 -1.257404513888889
v -0.07617187499999921 0.0030468750000000157 -0.6788888888888888
v -0.31249999999999895 0.003046874999999987 -1.257404513888889
v -0.22851562499999892 0.003046874999999997 -1.257404513888889
vt 0.3679203125 0.84375
vt 0.388915625 0.9549812500000001
vt 0.329834375 0.9883796875
vt 0.329834375 0.84375
vt 0.388915625 0.84375
vt 0.388915625 0.9549812500000001
vt 0.3679203125 0.84375
vn -1.2246467991473532e-16 1 -7.904573630796398e-32
vn -1.2246467991473532e-16 1 -7.904573630796398e-32
usemtl m_a66e248c-3fc0-8453-6830-ca9e7d2131c3
f 66/207/63 62/208/63 64/209/63 63/210/63
f 65/211/64 62/212/64 66/213/64
o plane6
v 4.165486597574403e-15 -0.309453125000001 -0.8124826388888884
v 3.760868720009661e-15 -0.07312500000000127 -1.2574045138888887
v 2.8882261790776756e-15 -0.0731250000000009 -0.6788888888888887
v 4.836614115549779e-15 -0.3094531250000013 -1.2574045138888885
v 4.45432442953139e-15 -0.22546875000000127 -1.2574045138888885
vt 0.3679203125 0.671875
vt 0.388915625 0.7831046875000001
vt 0.329834375 0.816503125
vt 0.329834375 0.671875
vt 0.388915625 0.671875
vt 0.388915625 0.7831046875000001
vt 0.3679203125 0.671875
vn -1 -4.5519144009631426e-15 -1.508416546107953e-15
vn -1 -4.5519144009631426e-15 -1.508416546107953e-15
usemtl m_a66e248c-3fc0-8453-6830-ca9e7d2131c3
f 71/214/65 67/215/65 69/216/65 68/217/65
f 70/218/66 67/219/66 71/220/66
o cylinder2
v 2.9662847036750372e-15 -9.810296864988368e-15 -1.2413888888888889
v 2.9142446211544224e-15 -9.636824517390687e-15 -1.2101388888888889
v 0.0203125000000031 0.07812499999998986 -1.2913888888888894
v 0.03281348064424659 0.07921874999999036 -1.2101388888888893
v 0.07812500000000307 0.02031249999998981 -1.291388888888889
v 0.07921875000000293 0.03281348064423395 -1.2101388888888889
v 0.07812500000000304 -0.02031250000001019 -1.2913888888888885
v 0.0792187500000029 -0.032813480644253316 -1.2101388888888884
v 0.020312500000003002 -0.07812500000001014 -1.2913888888888885
v 0.0328134806442465 -0.07921875000000965 -1.2101388888888884
v -0.020312499999997 -0.07812500000001013 -1.2913888888888885
v -0.03281348064424076 -0.07921875000000964 -1.2101388888888884
v -0.07812499999999696 -0.020312500000010093 -1.291388888888889
v -0.07921874999999709 -0.032813480644253275 -1.2101388888888889
v -0.07812499999999693 0.020312499999989908 -1.2913888888888894
v -0.07921874999999708 0.032813480644234054 -1.2101388888888893
v -0.020312499999996902 0.07812499999998987 -1.2913888888888894
v -0.032813480644240715 0.07921874999999037 -1.2101388888888893
vt 0.348828125 0.5625
vt 0.36496781443548887 0.5750431086783379
vt 0.3437498540392513 0.5856897290241452
vt 0.4707671875 0.6875
vt 0.46875 0.671875
vt 0.489190625 0.671875
vt 0.4871734375 0.6875
vt 0.4494921875 0.7383984375
vt 0.437890625 0.75
vt 0.4296875 0.7301953125
vt 0.36496781443548887 0.5750431086783379
vt 0.36747540353607683 0.5848849281729798
vt 0.3437504638904013 0.5856894230167089
vt 0.491796875 1
vt 0.494921875 0.984375
vt 0.505078125 0.984375
vt 0.508203125 1
vt 0.4494921875 0.7219921874999999
vt 0.4494921875 0.7383984375
vt 0.4296875 0.7301953125
vt 0.40846968556451113 0.6687931086783379
vt 0.424609375 0.65625
vt 0.4296876459607487 0.6794397290241452
vt 0.4815765625 0.75
vt 0.479559375 0.734375
vt 0.5 0.734375
vt 0.4979828125 0.75
vt 0.437890625 0.710390625
vt 0.4494921875 0.7219921874999999
vt 0.4296875 0.7301953125
vt 0.424609375 0.65625
vt 0.434765625 0.65625
vt 0.4296875 0.6794390625
vt 0.476171875 0.625
vt 0.479296875 0.609375
vt 0.489453125 0.609375
vt 0.492578125 0.625
vt 0.421484375 0.710390625
vt 0.437890625 0.710390625
vt 0.4296875 0.7301953125
vt 0.434765625 0.65625
vt 0.45090531443548887 0.6687931086783379
vt 0.4296873540392513 0.6794397290241452
vt 0.4707671875 0.71875
vt 0.46875 0.703125
vt 0.489190625 0.703125
vt 0.4871734375 0.71875
vt 0.4098828125 0.7219921874999999
vt 0.421484375 0.710390625
vt 0.4296875 0.7301953125
vt 0.32002459646392317 0.5848849281729798
vt 0.32253218556451113 0.5750431086783379
vt 0.3437495361095987 0.5856894230167089
vt 0.491796875 0.96875
vt 0.494921875 0.953125
vt 0.505078125 0.953125
vt 0.508203125 0.96875
vt 0.4098828125 0.7383984375
vt 0.4098828125 0.7219921874999999
vt 0.4296875 0.7301953125
vt 0.32253218556451113 0.5750431086783379
vt 0.338671875 0.5625
vt 0.3437501459607487 0.5856897290241452
vt 0.4815765625 0.65625
vt 0.479559375 0.640625
vt 0.5 0.640625
vt 0.4979828125 0.65625
vt 0.421484375 0.75
vt 0.4098828125 0.7383984375
vt 0.4296875 0.7301953125
vt 0.338671875 0.5625
vt 0.348828125 0.5625
vt 0.34375 0.5856890625
vt 0.476171875 0.59375
vt 0.479296875 0.578125
vt 0.489453125 0.578125
vt 0.492578125 0.59375
vt 0.437890625 0.75
vt 0.421484375 0.75
vt 0.4296875 0.7301953125
vn -0.41253421350752917 -0.4125342135075345 -0.8121767328429473
vn 0.702209116420955 0.7022091164209533 -0.1174934620760056
vn -1.6652826406596698e-15 5.5511151231257835e-15 1
vn -0.5390536964233662 -4.337063989945809e-15 -0.8422714006615121
vn 0.9999094058035743 -7.025808962413856e-16 -0.013460318924277268
vn -1.6652826406596698e-15 5.5511151231257835e-15 1
vn -0.41253421350752834 0.41253421350752567 -0.8121767328429523
vn 0.7022091164209543 -0.7022091164209555 -0.11749346207599684
vn -1.6652826406596698e-15 5.5511151231257835e-15 1
vn 1.7411014622883681e-15 0.5390536964233628 -0.8422714006615145
vn -6.054458808563902e-16 -0.9999094058035742 -0.013460318924272867
vn -1.6652826406596698e-15 5.5511151231257835e-15 1
vn 0.4125342135075315 0.4125342135075251 -0.812176732842951
vn -0.7022091164209546 -0.7022091164209547 -0.11749346207599948
vn -1.6652826406596698e-15 5.5511151231257835e-15 1
vn 0.5390536964233691 -5.0140270300310934e-15 -0.8422714006615103
vn -0.9999094058035741 5.531413363560635e-16 -0.013460318924280595
vn -1.6652826406596698e-15 5.5511151231257835e-15 1
vn 0.4125342135075313 -0.412534213507535 -0.812176732842946
vn -0.7022091164209537 0.7022091164209541 -0.11749346207600818
vn -1.6652826406596698e-15 5.5511151231257835e-15 1
vn 1.064138422203072e-15 -0.5390536964233725 -0.8422714006615081
vn 6.502763517410797e-16 0.9999094058035742 -0.013460318924285166
vn -1.6652826406596698e-15 5.5511151231257835e-15 1
usemtl m_a66e248c-3fc0-8453-6830-ca9e7d2131c3
f 74/221/67 76/222/67 72/223/67
f 77/224/68 76/225/68 74/226/68 75/227/68
f 77/228/69 75/229/69 73/230/69
f 76/231/70 78/232/70 72/233/70
f 79/234/71 78/235/71 76/236/71 77/237/71
f 79/238/72 77/239/72 73/240/72
f 78/241/73 80/242/73 72/243/73
f 81/244/74 80/245/74 78/246/74 79/247/74
f 81/248/75 79/249/75 73/250/75
f 80/251/76 82/252/76 72/253/76
f 83/254/77 82/255/77 80/256/77 81/257/77
f 83/258/78 81/259/78 73/260/78
f 82/261/79 84/262/79 72/263/79
f 85/264/80 84/265/80 82/266/80 83/267/80
f 85/268/81 83/269/81 73/270/81
f 84/271/82 86/272/82 72/273/82
f 87/274/83 86/275/83 84/276/83 85/277/83
f 87/278/84 85/279/84 73/280/84
f 86/281/85 88/282/85 72/283/85
f 89/284/86 88/285/86 86/286/86 87/287/86
f 89/288/87 87/289/87 73/290/87
f 88/291/88 74/292/88 72/293/88
f 75/294/89 74/295/89 88/296/89 89/297/89
f 75/298/90 89/299/90 73/300/90
o 2
v 0.17812500000000095 5.541722707296226e-15 0.9265625000000003
v 0.07839355468750098 6.389442036862746e-15 0.8375000000000001
v 0.0783935546875007 6.277108134881401e-15 1.015625
v 0.16374511718750145 5.712020466360622e-15 0.8375000000000002
v 0.2732177734375002 4.7869867184215855e-15 0.9265625000000004
v 0.27321777343750037 4.8431536694122576e-15 0.8375000000000004
vt 0.356359375 0.609375
vt 0.3599546875 0.631640625
vt 0.335021875 0.65390625
vt 0.335021875 0.609375
vt 0.383728125 0.609375
vt 0.383728125 0.631640625
vt 0.3599546875 0.631640625
vt 0.356359375 0.609375
vn -7.936838537690752e-15 -1 -6.306464672637005e-16
vn -7.936838537690752e-15 -1 -6.306464672637005e-16
usemtl m_a66e248c-3fc0-8453-6830-ca9e7d2131c3
f 93/301/91 90/302/91 92/303/91 91/304/91
f 95/305/92 94/306/92 90/307/92 93/308/92
o 7
v 6.272445657483604e-15 -0.17812499999999973 0.9265625
v 7.204002863549936e-15 -0.07839355468749955 0.8374999999999999
v 6.935316166274456e-15 -0.07839355468749967 1.015625
v 6.521736120448254e-15 -0.16374511718750004 0.8374999999999999
v 5.512311514354022e-15 -0.27321777343749903 0.9265624999999998
v 5.646654862991762e-15 -0.273217773437499 0.8374999999999999
vt 0.434484375 0.953125
vt 0.4380796875 0.975390625
vt 0.413146875 0.99765625
vt 0.413146875 0.953125
vt 0.461853125 0.953125
vt 0.461853125 0.975390625
vt 0.4380796875 0.975390625
vt 0.434484375 0.953125
vn -1 7.993605777301129e-15 -1.5084165461079504e-15
vn -1 7.993605777301129e-15 -1.5084165461079504e-15
usemtl m_a66e248c-3fc0-8453-6830-ca9e7d2131c3
f 99/309/93 96/310/93 98/311/93 97/312/93
f 101/313/94 100/314/94 96/315/94 99/316/94
o 9
v -0.178124999999999 -5.102120170216198e-15 0.9265624999999997
v -0.07839355468749873 -5.811090997435715e-15 0.8374999999999999
v -0.078393554687499 -5.92342489941706e-15 1.015625
v -0.16374511718749923 -5.1562754105023406e-15 0.8374999999999998
v -0.2732177734374983 -4.3725701956436986e-15 0.9265624999999996
v -0.27321777343749815 -4.3164032446530265e-15 0.8374999999999997
vt 0.434484375 0.890625
vt 0.4380796875 0.912890625
vt 0.413146875 0.93515625
vt 0.413146875 0.890625
vt 0.461853125 0.890625
vt 0.461853125 0.912890625
vt 0.4380796875 0.912890625
vt 0.434484375 0.890625
vn 7.671981247365798e-15 1 6.306464672637001e-16
vn 7.671981247365798e-15 1 6.306464672637001e-16
usemtl m_a66e248c-3fc0-8453-6830-ca9e7d2131c3
f 105/317/95 102/318/95 104/319/95 103/320/95
f 107/321/96 106/322/96 102/323/96 105/324/96