# Made in Blockbench 4.12.1
mtllib anm30.mtl

o cube
v 8.802148868871575e-17 0 0.7187499999999979
v 8.993499931238349e-17 0 0.7343749999999979
v 0.06250000000000006 0.0625 0.5937499999999979
v -0.062499999999999944 0.062499999999999986 0.5937499999999979
v 0.06250000000000008 -0.062499999999999986 0.5937499999999979
v 8.802148868871575e-17 0 0.7187499999999979
v -0.06249999999999992 -0.06250000000000001 0.5937499999999979
v 8.802148868871575e-17 0 0.7187499999999979
v 0.07766504294495515 0.1875 -0.4375
v 0.18749999999999983 0.07766504294495535 -0.43750000000000006
v -1.507228121173979e-16 0 -0.4375
v 0.07766504294495545 0.1875 0.4375
v 0.18750000000000017 0.07766504294495538 0.43749999999999994
v -0.07766504294495552 0.18749999999999997 -0.4375
v -0.07766504294495521 0.18749999999999997 0.4375
v -0.18750000000000017 0.0776650429449553 -0.43749999999999994
v -0.18749999999999983 0.07766504294495533 0.43750000000000006
v -0.18750000000000017 -0.07766504294495535 -0.43749999999999994
v -0.1874999999999999 -0.07766504294495535 0.43750000000000006
v -0.07766504294495556 -0.1875 -0.4375
v -0.07766504294495526 -0.1875 0.4375
v 0.07766504294495526 -0.1875 -0.4375
v 0.07766504294495556 -0.1875 0.4375
v 0.18749999999999983 -0.07766504294495541 -0.43750000000000006
v 0.1875000000000001 -0.07766504294495541 0.43749999999999994
v 0.15468750000000106 -0.06407366042958823 -0.6249999999999992
v 0.154687500000001 0.06407366042958726 -0.6249999999999991
v 0.18749999999999983 0.07766504294495433 -0.43750000000000006
v 0.18749999999999983 -0.07766504294495541 -0.43750000000000006
v 0.06407366042958848 0.1546874999999987 -0.6249999999999991
v 0.07766504294495588 0.1874999999999983 -0.43749999999999983
v -0.06407366042958651 0.15468749999999848 -0.6249999999999991
v -0.0776650429449538 0.18749999999999825 -0.43749999999999983
v -0.154687499999999 0.06407366042958709 -0.624999999999999
v -0.1874999999999976 0.07766504294495422 -0.4374999999999997
v -0.15468749999999895 -0.06407366042958826 -0.6249999999999992
v -0.1874999999999976 -0.07766504294495546 -0.43750000000000006
v -0.06407366042958637 -0.15468749999999987 -0.6249999999999998
v -0.0776650429449536 -0.18749999999999956 -0.43749999999999994
v 0.06407366042958854 -0.1546874999999998 -0.6249999999999998
v 0.07766504294495594 -0.18749999999999956 -0.43749999999999994
v 0.11601562500000051 -0.048055245322191506 -0.6874999999999988
v 0.11601562500000046 0.04805524532219027 -0.6874999999999988
v 0.048055245322191825 0.1160156249999989 -0.6874999999999988
v -0.04805524532218986 0.11601562499999879 -0.6874999999999988
v -0.11601562499999843 0.048055245322190215 -0.6874999999999988
v -0.1160156249999984 -0.04805524532219155 -0.6874999999999988
v -0.04805524532218973 -0.1160156249999998 -0.6874999999999987
v 0.04805524532219187 -0.11601562499999978 -0.6874999999999987
v 0.08701171875000054 -0.03604143399164368 -0.7187499999999986
v 0.08701171875000052 0.036041433991642516 -0.7187499999999988
v 0.03604143399164402 0.0870117187499986 -0.7187499999999984
v -0.036041433991642044 0.0870117187499986 -0.7187499999999984
v -0.0870117187499985 0.03604143399164221 -0.7187499999999987
v -0.08701171874999848 -0.03604143399164371 -0.7187499999999986
v -0.03604143399164194 -0.08701171875000022 -0.7187499999999984
v 0.036041433991644056 -0.08701171875000022 -0.7187499999999984
v -0.0870117187499987 -0.03604143399164359 -0.8437499999999986
v -0.03604143399164198 -0.08701171875000008 -0.8437499999999984
v 0.036041433991644015 -0.08701171875000008 -0.8437499999999984
v 0.08701171875000058 -0.03604143399164354 -0.8437499999999986
v 0.08701171875000108 0.03604143399164271 -0.8437499999999988
v 0.036041433991644584 0.0870117187499988 -0.8437499999999984
v -0.03604143399164197 0.08701171874999875 -0.8437499999999984
v -0.08701171874999891 0.03604143399164232 -0.8437499999999987
v -0.1546874999999999 -0.0640736604295854 0.624999999999999
v -0.15468749999999995 0.06407366042958931 0.6249999999999988
v -0.18749999999999878 0.07766504294495657 0.4375000000000006
v -0.18749999999999867 -0.07766504294495281 0.43750000000000083
v -0.06407366042958747 0.15468750000000114 0.6249999999999987
v -0.07766504294495521 0.18749999999999997 0.4375
v 0.06407366042958665 0.15468750000000103 0.6249999999999989
v 0.07766504294495437 0.1875 0.43749999999999967
v 0.1546874999999994 0.06407366042958926 0.6249999999999984
v 0.1874999999999976 0.0776650429449566 0.4375000000000003
v 0.15468749999999923 -0.06407366042958532 0.6249999999999989
v 0.18749999999999745 -0.0776650429449527 0.4375000000000005
v 0.0640736604295869 -0.1546874999999973 0.6249999999999994
v 0.07766504294495422 -0.18749999999999628 0.4374999999999998
v -0.0640736604295877 -0.15468749999999737 0.6249999999999998
v -0.0776650429449552 -0.18749999999999628 0.4375
v -0.11601562499999943 -0.04805524532218894 0.6874999999999983
v -0.11601562499999948 0.0480552453221926 0.6874999999999983
v -0.048055245322191104 0.11601562500000129 0.6874999999999983
v 0.048055245322190424 0.11601562500000115 0.6874999999999984
v 0.1160156249999988 0.04805524532219266 0.6874999999999981
v 0.11601562499999883 -0.04805524532218888 0.6874999999999981
v 0.04805524532219049 -0.1160156249999971 0.6874999999999983
v -0.04805524532219084 -0.11601562499999712 0.6874999999999983
v -0.08701171874999974 -0.03604143399164103 0.7187499999999982
v -0.08701171874999956 0.03604143399164479 0.7187499999999983
v -0.036041433991643244 0.08701171875000091 0.7187499999999979
v 0.03604143399164272 0.08701171875000091 0.7187499999999978
v 0.08701171874999888 0.03604143399164454 0.7187499999999982
v 0.08701171874999883 -0.036041433991640975 0.7187499999999978
v 0.03604143399164255 -0.08701171874999752 0.7187499999999978
v -0.03604143399164322 -0.08701171874999755 0.7187499999999979
v 0.027031075493732067 0.06525878906250068 0.7656249999999979
v -0.027031075493732407 0.06525878906250068 0.7656249999999979
v 9.376202055971897e-17 0 0.7656249999999979
v 0.06525878906249921 0.027031075493733417 0.7656249999999979
v 0.06525878906249914 -0.02703107549373073 0.7656249999999979
v 0.027031075493731935 -0.06525878906249814 0.7656249999999979
v -0.027031075493732386 -0.06525878906249816 0.7656249999999979
v -0.06525878906249978 -0.027031075493730773 0.7656249999999979
v -0.06525878906249963 0.027031075493733583 0.7656249999999979
v -0.02703107549373241 0.06525878906250068 0.7343749999999979
v 0.027031075493732064 0.06525878906250068 0.7343749999999979
v -0.06525878906249964 0.027031075493733583 0.7343749999999979
v -0.0652587890624998 -0.027031075493730773 0.7343749999999979
v -0.02703107549373239 -0.06525878906249816 0.7343749999999979
v 0.027031075493731932 -0.06525878906249814 0.7343749999999979
v 0.06525878906249913 -0.02703107549373073 0.7343749999999979
v 0.0652587890624992 0.027031075493733417 0.7343749999999979
vt 0.130859375 0.475221875
vt 0.166015625 0.459596875
vt 0.162109375 0.459596875
vt 0.130859375 0.453125
vt 0.4375 0.71875
vt 0.39922769237098443 0.71875
vt 0.42474191771415903 0.6902229280088595
vt 0.39922769237098443 0.71875
vt 0.546875 0.859375
vt 0.515625 0.84375
vt 0.51953125 0.84375
vt 0.546875 0.837278125
vt 0.515625 0.934633082285841
vt 0.546875 0.921875
vt 0.546875 0.9601473076290156
vt 0.5441520719911405 0.9601473076290156
vt 0.546875 0.875
vt 0.546875 0.90625
vt 0.515625 0.90625
vt 0.515625 0.875
vt 0 0.99609375
vt 0 1
vt 0 0.984375
vt 0 0.984375
vt 0.09375 0.972540625
vt 0.06629062499999999 1
vt 0.046875 0.953125
vt 0.21875 0.8125
vt 0.21875 0.78125
vt 0.4375 0.78125
vt 0.4375 0.8125
vt 0.09375 0.9337093750000001
vt 0.09375 0.972540625
vt 0.046875 0.953125
vt 0.21875 1
vt 0.21875 0.96875
vt 0.4375 0.96875
vt 0.4375 1
vt 0.06629062499999999 0.90625
vt 0.09375 0.9337093750000001
vt 0.046875 0.953125
vt 0.21875 0.765625
vt 0.21875 0.734375
vt 0.4375 0.734375
vt 0.4375 0.765625
vt 0.027459375 0.90625
vt 0.06629062499999999 0.90625
vt 0.046875 0.953125
vt 0.21875 0.90625
vt 0.21875 0.875
vt 0.4375 0.875
vt 0.4375 0.90625
vt 0 0.9337093750000001
vt 0.027459375 0.90625
vt 0.046875 0.953125
vt 0.265625 0.6875
vt 0.265625 0.71875
vt 0.046875 0.71875
vt 0.046875 0.6875
vt 0 0.972540625
vt 0 0.9337093750000001
vt 0.046875 0.953125
vt 0.4375 0.921875
vt 0.4375 0.953125
vt 0.21875 0.953125
vt 0.21875 0.921875
vt 0.027459375 1
vt 0 0.972540625
vt 0.046875 0.953125
vt 0.4375 0.828125
vt 0.4375 0.859375
vt 0.21875 0.859375
vt 0.21875 0.828125
vt 0.06629062499999999 1
vt 0.027459375 1
vt 0.046875 0.953125
vt 0 0.578125
vt 0.03125 0.578125
vt 0.03125 0.796875
vt 0 0.796875
vt 0.06991875 0.49928906249999994
vt 0.10195625 0.49928906249999994
vt 0.10535312499999999 0.546875
vt 0.06652187500000001 0.546875
vt 0.20935024178706435 0.5656348816683096
vt 0.20947159314088223 0.5976724062126162
vt 0.16189853567443635 0.6012518228290173
vt 0.16175016194627503 0.5624204645709989
vt 0.2961625 0.582309375
vt 0.2961625 0.550271875
vt 0.34375 0.546875
vt 0.34375 0.58570625
vt 0.4125967933554359 0.5742049867778029
vt 0.412475442001618 0.6062425113221095
vt 0.36487536216082866 0.6094569284194202
vt 0.36502373588899 0.5706255701614018
vt 0.49258124999999997 0.9538359375000001
vt 0.46054375000000003 0.9538359375000001
vt 0.457146875 0.90625
vt 0.495978125 0.90625
vt 0.40946255372788054 0.6367269019563198
vt 0.40958517251853493 0.6687626164132348
vt 0.36201238637736666 0.6723435717917499
vt 0.3618622025618137 0.633510946096895
vt 0.5007125 0.714565625
vt 0.5007125 0.746603125
vt 0.453125 0.75
vt 0.453125 0.71116875
vt 0.09708518097446567 0.5656123828813098
vt 0.09696256218381127 0.5976480973382248
vt 0.04936221101774438 0.6008640531976496
vt 0.049512394833297405 0.5620314275027947
vt 0.1207984375 0.4809140625
vt 0.1448265625 0.4809140625
vt 0.14883125 0.49928906249999994
vt 0.11679375 0.49928906249999994
vt 0.24336396892485648 0.5226955818886623
vt 0.24345550690922887 0.5467229024020138
vt 0.22509658816775566 0.5507960932757618
vt 0.22497524178706435 0.5187598816683096
vt 0.24653749999999997 0.5158046875
vt 0.24653749999999997 0.4917765625
vt 0.2649125 0.48777187499999997
vt 0.2649125 0.519809375
vt 0.43095571209690914 0.5782781776515509
vt 0.43086417411253675 0.6023054981649024
vt 0.4124754469747446 0.606241198385255
vt 0.4125967933554359 0.5742049867778029
vt 0.4885765625 0.9722109375
vt 0.4645484375 0.9722109375
vt 0.46054375000000003 0.9538359375000001
vt 0.49258124999999997 0.9538359375000001
vt 0.42785281738432535 0.6406611378938394
vt 0.4279439311117503 0.6646891875841803
vt 0.40958517440283937 0.6687631087116713
vt 0.40946255372788054 0.6367269019563198
vt 0.4565859375 0.6873203125
vt 0.4565859375 0.7113484375
vt 0.4382125 0.715353125
vt 0.4382125 0.683315625
vt 0.14669393768337657 0.6009363040088009
vt 0.14660282395595164 0.6249643536991418
vt 0.12821256029950684 0.6288985896366615
vt 0.12833518097446567 0.5968623828813098
vt 0.0769265625 0.4702546875
vt 0.09494843750000001 0.4702546875
vt 0.0979515625 0.4809140625
vt 0.0739234375 0.4809140625
vt 0.22941982016448745 0.5726862532100327
vt 0.2294885905700018 0.5907068663970259
vt 0.21884153421315575 0.59375
vt 0.21875 0.5697236693733239
vt 0.265625 0.575121875
vt 0.265625 0.5570999999999999
vt 0.27628437499999997 0.5540968749999999
vt 0.27628437499999997 0.578125
vt 0.44823859057000187 0.5883918029762981
vt 0.4481698201644875 0.6064124161632912
vt 0.4375 0.609375
vt 0.4375915342131558 0.5853486693733239
vt 0.48977499999999996 1
vt 0.471753125 1
vt 0.46875 0.989340625
vt 0.49277812499999996 0.989340625
vt 0.4481699267989371 0.6508099886339966
vt 0.4482393458755817 0.668830599333851
vt 0.4375911105476235 0.671875
vt 0.4375 0.647847788870754
vt 0.5262828125 0.728975
vt 0.5262828125 0.746996875
vt 0.515625 0.75
vt 0.515625 0.725971875
vt 0.12011434587558167 0.5727671895369031
vt 0.12004492679893711 0.5907878002367575
vt 0.109375 0.59375
vt 0.10946611054762348 0.569722788870754
vt 0.5168234375 0.6439937499999999
vt 0.529565625 0.6567359374999999
vt 0.529565625 0.6747578125
vt 0.5168234375 0.6875
vt 0.5168234375 0.6875
vt 0.4988015625 0.6875
vt 0.486059375 0.6747578125
vt 0.486059375 0.6567359374999999
vt 0.486059375 0.6567359374999999
vt 0.4988015625 0.6439937499999999
vt 0.5168234375 0.6439937499999999
vt 0.5168234375 0.6875
vt 0.234375 0.46875
vt 0.234375 0.453125
vt 0.265625 0.453125
vt 0.265625 0.46875
vt 0.1875 0.484375
vt 0.1875 0.46875
vt 0.21875 0.46875
vt 0.21875 0.484375
vt 0.53125 0.515625
vt 0.53125 0.5
vt 0.5625 0.5
vt 0.5625 0.515625
vt 0.53125 0.5625
vt 0.515625 0.5625
vt 0.515625 0.53125
vt 0.53125 0.53125
vt 0.5625 0.46875
vt 0.5625 0.484375
vt 0.53125 0.484375
vt 0.53125 0.46875
vt 0.390625 0.46875
vt 0.390625 0.484375
vt 0.359375 0.484375
vt 0.359375 0.46875
vt 0.484375 0.46875
vt 0.484375 0.484375
vt 0.453125 0.484375
vt 0.453125 0.46875
vt 0.40625 0.484375
vt 0.40625 0.46875
vt 0.4375 0.46875
vt 0.4375 0.484375
vt 0.49258124999999997 0.8757125
vt 0.46054375000000003 0.8757125
vt 0.457146875 0.828125
vt 0.495978125 0.828125
vt 0.33133909936260697 0.6836017949314817
vt 0.33146171815326125 0.7156375093883967
vt 0.28388712192470134 0.7192171973300753
vt 0.28373874819654 0.680385839072057
vt 0.1725875 0.511440625
vt 0.1725875 0.543478125
vt 0.125 0.546875
vt 0.125 0.50804375
vt 0.3061533522672745 0.6445468991454992
vt 0.30627597105792886 0.6125111846885842
vt 0.35387632222399584 0.6092952288291595
vt 0.3537279484958345 0.6481265870871779
vt 0.007418750000000002 0.4992875
vt 0.03945625 0.4992875
vt 0.042853125 0.546875
vt 0.004021875000000001 0.546875
vt 0.19991253973407566 0.660148162377649
vt 0.19978964961814372 0.6281109091586199
vt 0.24736270708458957 0.6245314925422188
vt 0.24751135213802852 0.6633643895623513
vt 0.4836625 0.809103125
vt 0.4836625 0.777065625
vt 0.53125 0.77366875
vt 0.53125 0.8125
vt 0.09041467336732749 0.6687640888561781
vt 0.09053756348325948 0.6367268356371492
vt 0.1381363758872123 0.6335106084524468
vt 0.1379877308337734 0.6723435054725793
vt 0.4885765625 0.8940859375
vt 0.4645484375 0.8940859375
vt 0.46054375000000003 0.8757125
vt 0.49258124999999997 0.8757125
vt 0.34972815285781284 0.6875359700067817
vt 0.34982030367681965 0.711564015742117
vt 0.3314617228224038 0.7156387292611115
vt 0.33133909936260697 0.6836017949314817
vt 0.1909625 0.5154453125
vt 0.1909625 0.5394734375
vt 0.1725875 0.543478125
vt 0.1725875 0.511440625
vt 0.2877947714128587 0.6404721856265048
vt 0.2878869222318655 0.6164441398911693
vt 0.30627597572707144 0.6125099648158694
vt 0.3061533522672745 0.6445468991454992
vt 0.011423437500000001 0.4809140625
vt 0.0354515625 0.4809140625
vt 0.03945625 0.4992875
vt 0.007418750000000002 0.4992875
vt 0.18152362346075807 0.6562133459568271
vt 0.18143166352917167 0.632187409848717
vt 0.1997896536361231 0.6281119566393207
vt 0.19991253973407566 0.660148162377649
vt 0.4652890625 0.8050984375
vt 0.4652890625 0.7810703125
vt 0.4836625 0.777065625
vt 0.4836625 0.809103125
vt 0.07205668326037602 0.6646886356467818
vt 0.07214864319196237 0.6406626995386718
vt 0.09053755946528004 0.63672788311785
vt 0.09041467336732749 0.6687640888561781
vt 0.4855734375 0.9047453125
vt 0.4675515625 0.9047453125
vt 0.4645484375 0.8940859375
vt 0.4885765625 0.8940859375
vt 0.3603988236319424 0.6904999617652381
vt 0.36046650869183694 0.7085192871598798
vt 0.3498203020448711 0.7115635902164775
vt 0.34972815285781284 0.6875359700067817
vt 0.2016203125 0.5184484375
vt 0.2016203125 0.5364703125
vt 0.1909625 0.5394734375
vt 0.1909625 0.5154453125
vt 0.2771485647658927 0.6374278825699069
vt 0.2772162498257873 0.6194085571752652
vt 0.28788692059991694 0.6164445654168088
vt 0.2877947714128587 0.6404721856265048
vt 0.0144265625 0.4702546875
vt 0.032448437499999996 0.4702546875
vt 0.0354515625 0.4809140625
vt 0.011423437500000001 0.4809140625
vt 0.17085297523756737 0.653249273013902
vt 0.17078454352982722 0.6352286585375507
vt 0.18143165708054573 0.6321857250467375
vt 0.18152362346075807 0.6562133459568271
vt 0.4546296875 0.8020953125
vt 0.4546296875 0.7840734375
vt 0.4652890625 0.7810703125
vt 0.4652890625 0.8050984375
vt 0.061409569709657524 0.6616457021559686
vt 0.06147800141739766 0.6436250876796173
vt 0.07214864964058833 0.6406610147366922
vt 0.07205668326037602 0.6646886356467818
vt 0.3039984375 0.4524984375000001
vt 0.3039984375 0.43898281249999993
vt 0.3203125 0.445740625
vt 0.3135546875 0.4620546875
vt 0.3039984375 0.4524984375000001
vt 0.3203125 0.445740625
vt 0.3270703125 0.4620546875
vt 0.3135546875 0.4620546875
vt 0.3203125 0.445740625
vt 0.3366265625 0.4524984375000001
vt 0.3270703125 0.4620546875
vt 0.3203125 0.445740625
vt 0.3366265625 0.4524984375000001
vt 0.3203125 0.445740625
vt 0.3366265625 0.43898281249999993
vt 0.3203125 0.445740625
vt 0.3270703125 0.4294265625
vt 0.3366265625 0.43898281249999993
vt 0.3255614991762327 0.42638432518511316
vt 0.32107909937261037 0.4434642770890135
vt 0.31217079577460183 0.42821767772899977
vt 0.32107909937261037 0.4434642770890135
vt 0.30399914746871004 0.4389818772853912
vt 0.31217079577460183 0.42821767772899977
vt 0.3039984375 0.5014828124999999
vt 0.3039984375 0.5149984375000001
vt 0.297303125 0.5172515625
vt 0.297303125 0.49922968749999996
vt 0.31217079577460183 0.49071767772899977
vt 0.3039984375 0.5014828124999999
vt 0.2973035573798047 0.4992298330056426
vt 0.3081984220522983 0.4848748096940675
vt 0.325187826743053 0.4870805052135687
vt 0.31217079577460183 0.49071767772899977
vt 0.3081990220306563 0.48487569218766313
vt 0.3255560665613056 0.480025848512174
vt 0.3377567508496822 0.49205018460041516
vt 0.325187826743053 0.4870805052135687
vt 0.325556122187818 0.48002478283179617
vt 0.34231332556748073 0.4866517875867007
vt 0.3366265625 0.5149984375000001
vt 0.3366265625 0.5014828124999999
vt 0.343321875 0.49922968749999996
vt 0.343321875 0.5172515625
vt 0.3270694822343998 0.5245555177656003
vt 0.3366265625 0.5149984375000001
vt 0.34295379288337013 0.5181402871387193
vt 0.3302125733855942 0.5308832217629886
vt 0.3039976072343998 0.5149976072343998
vt 0.3135546875 0.5245546875
vt 0.3104115963488056 0.5308823914973884
vt 0.2976702159142274 0.5181379026834281
vt 0.3135546875 0.5245546875
vt 0.3270703125 0.5245546875
vt 0.3293234375 0.53125
vt 0.3113015625 0.53125
vt 0.1484375 0.2833593750000001
vt 0.1484375 0.296875
vt 0.140625 0.296875
vt 0.140625 0.2833593750000001
vt 0.1484375 0.3146093750000001
vt 0.1484375 0.328125
vt 0.140625 0.328125
vt 0.140625 0.3146093750000001
vt 0.1640625 0.2833593750000001
vt 0.1640625 0.296875
vt 0.15625 0.296875
vt 0.15625 0.2833593750000001
vt 0.15625 0.328125
vt 0.15625 0.31460937499999997
vt 0.1640625 0.31460937499999997
vt 0.1640625 0.328125
vt 0.171875 0.296875
vt 0.171875 0.2833593750000001
vt 0.1796875 0.2833593750000001
vt 0.1796875 0.296875
vt 0.171875 0.34375
vt 0.171875 0.33023437499999997
vt 0.1796875 0.33023437499999997
vt 0.1796875 0.34375
vt 0.1484375 0.29898437499999997
vt 0.1484375 0.3125
vt 0.140625 0.3125
vt 0.140625 0.29898437499999997
vt 0.171875 0.3125
vt 0.171875 0.29898437499999997
vt 0.1796875 0.29898437499999997
vt 0.1796875 0.3125
vn 0.7071067811865476 -0.7071067811865476 -8.659560562354934e-17
vn 2.5337060208620213e-16 -0.8944271909999161 0.44721359549995804
vn 0.7071067811865476 -0.7071067811865476 -8.659560562354934e-17
vn -0.8944271909999159 -1.9860273225978183e-16 0.44721359549995804
vn -1.2246467991473532e-16 0 -1
vn 0 0 0
vn -4.798400776892596e-16 1.480297366166875e-16 -1
vn 0.7071067811865475 0.7071067811865477 -2.3975649038405976e-16
vn -1.2246467991473532e-16 0 -1
vn -1.7868769888726211e-16 1 5.589147999554494e-32
vn -4.798400776892595e-16 -1.480297366166876e-16 -1
vn -0.7071067811865477 0.7071067811865475 2.525198974474356e-16
vn -4.1852415314811036e-16 0 -1
vn -1 0 3.127886269933336e-16
vn -4.798400776892596e-16 1.4802973661668773e-16 -1
vn -0.7071067811865477 -0.7071067811865475 2.397564903840598e-16
vn -1.2246467991473532e-16 0 -1
vn 0 -1 0
vn -4.798400776892598e-16 -1.480297366166878e-16 -1
vn 0.7071067811865476 -0.7071067811865475 -2.142296762573081e-16
vn -4.1852415314811036e-16 0 -1
vn 1 0 -3.762299426861997e-16
vn 0.9850304671557051 5.760419809414825e-16 -0.17238033175224313
vn 0.6965217230011471 0.6965217230011553 -0.17238033175224868
vn -1.7279015567930833e-15 0.9850304671557043 -0.17238033175224782
vn -0.6965217230011478 0.696521723001156 -0.17238033175224324
vn -0.9850304671557053 -1.28009329098119e-16 -0.1723803317522422
vn -0.6965217230011482 -0.6965217230011544 -0.17238033175224785
vn 4.055872615087277e-16 -0.9850304671557044 -0.1723803317522471
vn 0.6965217230011487 -0.6965217230011548 -0.17238033175224418
vn 0.8503783946149175 4.911584921767578e-16 -0.5261716316679907
vn 0.6013083294067422 0.6013083294067423 -0.5261716316679812
vn -1.0467544248059559e-15 0.8503783946149228 -0.5261716316679823
vn -0.6013083294067396 0.6013083294067395 -0.5261716316679872
vn -0.8503783946149173 -2.455792460883788e-16 -0.5261716316679911
vn -0.601308329406737 -0.6013083294067414 -0.5261716316679881
vn 1.81141805635945e-16 -0.8503783946149179 -0.5261716316679903
vn 0.6013083294067375 -0.6013083294067417 -0.5261716316679871
vn 0.7329566287142794 -1.9544125168078827e-15 -0.6802753710254386
vn 0.5182786024794872 0.5182786024794959 -0.6802753710254478
vn -8.330970556650904e-17 0.7329566287142727 -0.6802753710254458
vn -0.5182786024794936 0.5182786024794971 -0.6802753710254419
vn -0.7329566287142767 -1.1888754840510139e-15 -0.6802753710254413
vn -0.5182786024794963 -0.5182786024794982 -0.6802753710254389
vn -8.330970556650791e-17 -0.732956628714281 -0.6802753710254367
vn 0.5182786024794944 -0.5182786024794954 -0.6802753710254424
vn 1.2246467991473532e-16 2.1781770101708866e-15 1
vn 9.737403179460258e-15 3.080407469032887e-15 1
vn -5.77409307494345e-15 1.5402037345164669e-15 1
vn 0.7071067811865459 0.7071067811865493 -6.160406393635858e-16
vn 1.3596310734468911e-31 1 1.1102230246251565e-15
vn -0.7071067811865475 0.7071067811865477 1.0010915729927044e-15
vn -1 6.930916805324144e-15 -3.216245299353196e-16
vn -0.7071067811865448 -0.7071067811865503 -4.24522739770405e-15
vn 7.701018672582348e-16 -1 -1.5543122344752158e-15
vn 0.7071067811865439 -0.7071067811865512 -3.753838058453866e-16
vn 1 2.887882002218402e-15 -3.3421114513276867e-15
vn -0.985030467155705 -1.2800932909811703e-16 0.17238033175224388
vn -0.6965217230011488 0.696521723001154 0.1723803317522475
vn 5.758175949101175e-16 0.985030467155705 0.1723803317522437
vn 0.6965217230011485 0.6965217230011551 0.17238033175224374
vn 0.9850304671557055 -6.82716421856609e-16 0.17238033175224068
vn 0.6965217230011509 -0.6965217230011523 0.17238033175224546
vn 8.958409176553658e-16 -0.9850304671557053 0.17238033175224285
vn -0.6965217230011514 -0.6965217230011516 0.17238033175224632
vn -0.8503783946149176 -4.91158492176759e-16 0.5261716316679904
vn -0.6013083294067444 0.6013083294067418 0.5261716316679793
vn 6.845250368255921e-16 0.8503783946149212 0.5261716316679849
vn 0.6013083294067417 0.6013083294067381 0.5261716316679866
vn 0.8503783946149169 2.4557924608837924e-16 0.5261716316679915
vn 0.6013083294067402 -0.6013083294067394 0.5261716316679868
vn 3.100166865408143e-16 -0.8503783946149155 0.5261716316679943
vn -0.6013083294067383 -0.601308329406742 0.5261716316679861
vn -0.7329566287142791 7.867039553215936e-16 0.6802753710254389
vn -0.5182786024794859 0.5182786024794939 0.6802753710254502
vn 1.1310723725194947e-15 0.7329566287142681 0.6802753710254507
vn 0.5182786024794946 0.5182786024794985 0.6802753710254399
vn 0.7329566287142738 -4.7555019362041e-15 0.6802753710254444
vn 0.5182786024794958 -0.5182786024794929 0.6802753710254433
vn 1.413298006715565e-15 -0.7329566287142789 0.6802753710254392
vn -0.5182786024794951 -0.5182786024794996 0.6802753710254389
vn 1.2246467991473532e-16 0 1
vn 1.2246467991473532e-16 0 1
vn 1.2246467991473532e-16 0 1
vn 1.2246467991473532e-16 0 1
vn 1.2246467991473532e-16 0 1
vn 1.2246467991473532e-16 0 1
vn 1.2246467991473532e-16 0 1
vn 1.2246467991473532e-16 0 1
vn 9.946469074081268e-17 0.5833918461700603 0.8121908358398836
vn -0.4125203305157868 0.4125203305157883 0.812190835839885
vn -0.5833918461700516 1.6473275502888984e-15 0.8121908358398899
vn -0.4125203305157894 -0.4125203305157897 0.812190835839883
vn 2.492217407670805e-16 -0.5833918461700723 0.812190835839875
vn 0.41252033051580056 -0.41252033051579823 0.812190835839873
vn 0.4125203305157847 0.41252033051578324 0.8121908358398885
vn 0.5833918461700696 -7.487852501313432e-16 0.812190835839877
vn 0 1 0
vn -0.7071067811865464 0.7071067811865487 8.659560562354918e-17
vn -1 2.823706846613558e-15 1.2246467991473532e-16
vn -0.7071067811865474 -0.7071067811865477 8.65956056235493e-17
vn 2.567006224194145e-16 -1 -3.1436759558506925e-32
vn 0.7071067811865495 -0.7071067811865456 -8.659560562354956e-17
vn 0.7071067811865487 0.7071067811865464 -8.659560562354948e-17
vn 1 -1.2835031120970768e-15 -1.2246467991473532e-16
usemtl m_777b2e2c-925e-b9cb-4d89-153d52f28ab0
f 3/1/1 2/2/1 1/3/1 4/4/1
f 5/5/2 6/6/2 7/7/2 8/8/2
f 3/9/3 2/10/3 6/11/3 5/12/3
f 4/13/4 7/14/4 1/15/4 8/16/4
f 4/17/5 3/18/5 5/19/5 7/20/5
f 6/21/6 2/22/6 8/23/6 1/24/6
f 9/25/7 10/26/7 11/27/7
f 10/28/8 9/29/8 12/30/8 13/31/8
f 14/32/9 9/33/9 11/34/9
f 9/35/10 14/36/10 15/37/10 12/38/10
f 16/39/11 14/40/11 11/41/11
f 14/42/12 16/43/12 17/44/12 15/45/12
f 18/46/13 16/47/13 11/48/13
f 16/49/14 18/50/14 19/51/14 17/52/14
f 20/53/15 18/54/15 11/55/15
f 18/56/16 20/57/16 21/58/16 19/59/16
f 22/60/17 20/61/17 11/62/17
f 20/63/18 22/64/18 23/65/18 21/66/18
f 24/67/19 22/68/19 11/69/19
f 22/70/20 24/71/20 25/72/20 23/73/20
f 10/74/21 24/75/21 11/76/21
f 24/77/22 10/78/22 13/79/22 25/80/22
f 26/81/23 27/82/23 28/83/23 29/84/23
f 27/85/24 30/86/24 31/87/24 28/88/24
f 30/89/25 32/90/25 33/91/25 31/92/25
f 32/93/26 34/94/26 35/95/26 33/96/26
f 34/97/27 36/98/27 37/99/27 35/100/27
f 36/101/28 38/102/28 39/103/28 37/104/28
f 38/105/29 40/106/29 41/107/29 39/108/29
f 40/109/30 26/110/30 29/111/30 41/112/30
f 42/113/31 43/114/31 27/115/31 26/116/31
f 43/117/32 44/118/32 30/119/32 27/120/32
f 44/121/33 45/122/33 32/123/33 30/124/33
f 45/125/34 46/126/34 34/127/34 32/128/34
f 46/129/35 47/130/35 36/131/35 34/132/35
f 47/133/36 48/134/36 38/135/36 36/136/36
f 48/137/37 49/138/37 40/139/37 38/140/37
f 49/141/38 42/142/38 26/143/38 40/144/38
f 50/145/39 51/146/39 43/147/39 42/148/39
f 51/149/40 52/150/40 44/151/40 43/152/40
f 52/153/41 53/154/41 45/155/41 44/156/41
f 53/157/42 54/158/42 46/159/42 45/160/42
f 54/161/43 55/162/43 47/163/43 46/164/43
f 55/165/44 56/166/44 48/167/44 47/168/44
f 56/169/45 57/170/45 49/171/45 48/172/45
f 57/173/46 50/174/46 42/175/46 49/176/46
f 58/177/47 59/178/47 60/179/47 61/180/47
f 61/181/48 62/182/48 63/183/48 64/184/48
f 64/185/49 65/186/49 58/187/49 61/188/49
f 59/189/50 58/190/50 55/191/50 56/192/50
f 60/193/51 59/194/51 56/195/51 57/196/51
f 61/197/52 60/198/52 57/199/52 50/200/52
f 62/201/53 61/202/53 50/203/53 51/204/53
f 63/205/54 62/206/54 51/207/54 52/208/54
f 64/209/55 63/210/55 52/211/55 53/212/55
f 65/213/56 64/214/56 53/215/56 54/216/56
f 58/217/57 65/218/57 54/219/57 55/220/57
f 66/221/58 67/222/58 68/223/58 69/224/58
f 67/225/59 70/226/59 71/227/59 68/228/59
f 70/229/60 72/230/60 73/231/60 71/232/60
f 72/233/61 74/234/61 75/235/61 73/236/61
f 74/237/62 76/238/62 77/239/62 75/240/62
f 76/241/63 78/242/63 79/243/63 77/244/63
f 78/245/64 80/246/64 81/247/64 79/248/64
f 80/249/65 66/250/65 69/251/65 81/252/65
f 82/253/66 83/254/66 67/255/66 66/256/66
f 83/257/67 84/258/67 70/259/67 67/260/67
f 84/261/68 85/262/68 72/263/68 70/264/68
f 85/265/69 86/266/69 74/267/69 72/268/69
f 86/269/70 87/270/70 76/271/70 74/272/70
f 87/273/71 88/274/71 78/275/71 76/276/71
f 88/277/72 89/278/72 80/279/72 78/280/72
f 89/281/73 82/282/73 66/283/73 80/284/73
f 90/285/74 91/286/74 83/287/74 82/288/74
f 91/289/75 92/290/75 84/291/75 83/292/75
f 92/293/76 93/294/76 85/295/76 84/296/76
f 93/297/77 94/298/77 86/299/77 85/300/77
f 94/301/78 95/302/78 87/303/78 86/304/78
f 95/305/79 96/306/79 88/307/79 87/308/79
f 96/309/80 97/310/80 89/311/80 88/312/80
f 97/313/81 90/314/81 82/315/81 89/316/81
f 98/317/82 99/318/82 100/319/82
f 101/320/83 98/321/83 100/322/83
f 102/323/84 101/324/84 100/325/84
f 103/326/85 102/327/85 100/328/85
f 103/329/86 100/330/86 104/331/86
f 100/332/87 105/333/87 104/334/87
f 105/335/88 100/336/88 106/337/88
f 100/338/89 99/339/89 106/340/89
f 107/341/90 108/342/90 93/343/90 92/344/90
f 109/345/91 107/346/91 92/347/91 91/348/91
f 110/349/92 109/350/92 91/351/92 90/352/92
f 111/353/93 110/354/93 90/355/93 97/356/93
f 112/357/94 111/358/94 97/359/94 96/360/94
f 113/361/95 112/362/95 96/363/95 95/364/95
f 108/365/96 114/366/96 94/367/96 93/368/96
f 114/369/97 113/370/97 95/371/97 94/372/97
f 99/373/98 98/374/98 108/375/98 107/376/98
f 106/377/99 99/378/99 107/379/99 109/380/99
f 105/381/100 106/382/100 109/383/100 110/384/100
f 104/385/101 105/386/101 110/387/101 111/388/101
f 103/389/102 104/390/102 111/391/102 112/392/102
f 102/393/103 103/394/103 112/395/103 113/396/103
f 98/397/104 101/398/104 114/399/104 108/400/104
f 101/401/105 102/402/105 113/403/105 114/404/105
o plane
v -8.400909096436636e-17 -0.0870117187499986 -0.8437499999999986
v -6.870100597502446e-17 -0.0870117187499986 -0.7187499999999986
v -5.122813206849797e-17 -0.2432617187499986 -0.8593749999999986
v -6.462270643417216e-17 -0.2432617187499986 -0.9687499999999986
v -7.156160033807939e-17 -0.2120117187499986 -0.9687499999999986
v -1.1715176837610642e-16 -0.2120117187499986 -1.3410219731907072
v -1.102128744721992e-16 -0.2432617187499986 -1.3410219731907072
v -0.2432617187499989 -6.938893903907228e-18 -0.8593749999999984
v -0.08701171874999888 -6.938893903907228e-18 -0.7187499999999984
v -0.0870117187499989 -6.938893903907228e-18 -0.8437499999999984
v -0.2432617187499989 -6.938893903907228e-18 -0.9687499999999984
v -0.2120117187499989 -6.938893903907228e-18 -0.9687499999999984
v -0.24326171874999897 -6.938893903907228e-18 -1.3410219731907072
v -0.21201171874999897 -6.938893903907228e-18 -1.3410219731907072
v -1.1499601389707877e-16 0.08701171875000122 -0.8437499999999988
v -9.968792890773686e-17 0.08701171875000122 -0.7187499999999988
v -1.3246888780360526e-16 0.24326171875000122 -0.8593749999999988
v -1.4586346216927944e-16 0.24326171875000122 -0.9687499999999988
v -1.427515895127077e-16 0.2120117187500012 -0.9687499999999988
v -1.8834175755073477e-16 0.2120117187500012 -1.3410219731907076
v -1.9145363020730653e-16 0.24326171875000122 -1.3410219731907076
v 0.08701171875000058 6.938893903907228e-18 -0.8437499999999986
v 0.08701171875000059 6.938893903907228e-18 -0.7187499999999986
v 0.24326171875000058 6.938893903907228e-18 -0.8593749999999986
v 0.24326171875000058 6.938893903907228e-18 -0.9687499999999986
v 0.21201171875000058 6.938893903907228e-18 -0.9687499999999986
v 0.21201171875000052 6.938893903907228e-18 -1.3410219731907072
v 0.24326171875000052 6.938893903907228e-18 -1.3410219731907072
v 0.10600585937500016 0.1060058593750006 -1.3410219731907072
v 0.1060058593750002 0.1060058593750006 -1.0312499999999987
v 0.10600585937500019 -0.10600585937499929 -1.3410219731907072
v 0.10600585937500023 -0.10600585937499929 -1.0312499999999987
v -0.10600585937499951 -0.10600585937499932 -1.0312499999999987
v -0.10600585937499955 -0.10600585937499932 -1.3410219731907072
v -0.10600585937499954 0.1060058593750006 -1.0312499999999987
v -0.10600585937499958 0.1060058593750006 -1.3410219731907072
vt 0.08984375 0.765625
vt 0.08984375 0.796875
vt 0.05078125 0.76171875
vt 0.05078125 0.734375
vt 0.05078125 0.734375
vt 0.05859375 0.734375
vt 0.08984375 0.765625
vt 0.515625 0.515625
vt 0.5 0.515625
vt 0.5 0.40625
vt 0.515625 0.40625
vt 0.46484375 0.5078125
vt 0.5 0.546875
vt 0.46875 0.546875
vt 0.4375 0.5078125
vt 0.4375 0.515625
vt 0.4375 0.5078125
vt 0.46875 0.546875
vt 0.484375 0.578125
vt 0.59375 0.578125
vt 0.59375 0.59375
vt 0.484375 0.59375
vt 0.390625 0.5
vt 0.421875 0.5
vt 0.38671875 0.5390625
vt 0.359375 0.5390625
vt 0.359375 0.5390625
vt 0.359375 0.53125
vt 0.390625 0.5
vt 0.59375 0.609375
vt 0.59375 0.625
vt 0.484375 0.625
vt 0.484375 0.609375
vt 0.25 0.4921875
vt 0.28125 0.4921875
vt 0.24609375 0.53125
vt 0.21875 0.53125
vt 0.21875 0.53125
vt 0.21875 0.5234375
vt 0.25 0.4921875
vt 0.625 0.984375
vt 0.625 1
vt 0.515625 1
vt 0.515625 0.984375
vt 0.10971562500000001 0.90625
vt 0.10971562500000001 0.868771875
vt 0.187159375 0.868771875
vt 0.202784375 0.90625
vt 0.09340937499999999 0.8156671875
vt 0.09340937499999999 0.8531453125
vt 0.01596562500000001 0.8531453125
vt 0.00034062500000001106 0.8156671875
vt 0.10971562500000001 0.9968328125
vt 0.125340625 0.9593546875
vt 0.202784375 0.9593546875
vt 0.202784375 0.9968328125
vt 0.10971562500000001 0.8125
vt 0.125340625 0.7750203125
vt 0.202784375 0.7750203125
vt 0.202784375 0.8125
vt 0.202784375 0.8312921875
vt 0.187159375 0.868771875
vt 0.10971562500000001 0.868771875
vt 0.10971562500000001 0.8312921875
vt 0.202784375 0.7375421875
vt 0.202784375 0.7750203125
vt 0.125340625 0.7750203125
vt 0.10971562500000001 0.7375421875
vt 0.202784375 0.921875
vt 0.202784375 0.9593546875
vt 0.125340625 0.9593546875
vt 0.10971562500000001 0.921875
vt 0.00034062500000001106 0.890625
vt 0.01596562500000001 0.8531453125
vt 0.09340937499999999 0.8531453125
vt 0.09340937499999999 0.890625
vn 1 2.220446049250313e-16 -1.2246467991473532e-16
vn 1 2.220446049250313e-16 -1.2246467991473532e-16
vn -1 -2.220446049250313e-16 1.2246467991473532e-16
vn 0 1 0
vn 0 1 0
vn 0 -1 0
vn -1 -9.9579925010296e-17 1.2246467991473532e-16
vn -1 -9.957992501029607e-17 1.2246467991473522e-16
vn 1 9.957992501029607e-17 -1.2246467991473532e-16
vn 0 1 0
vn 0 1 0
vn 0 -1 0
vn 0.7071067811865483 0.7071067811865468 -8.659560562354944e-17
vn 0.7071067811865442 -0.7071067811865509 -8.659560562354893e-17
vn -0.7071067811865471 -0.707106781186548 8.659560562354928e-17
vn 0.7071067811865516 -0.7071067811865435 -8.659560562354982e-17
vn 0.7071067811865483 0.7071067811865468 -8.659560562354944e-17
vn 0.7071067811865516 -0.7071067811865435 -8.659560562354982e-17
vn -0.7071067811865472 -0.7071067811865479 8.659560562354929e-17
vn 0.7071067811865441 -0.707106781186551 -8.659560562354892e-17
usemtl m_777b2e2c-925e-b9cb-4d89-153d52f28ab0
f 115/405/106 116/406/106 117/407/106 118/408/106
f 118/409/107 119/410/107 115/411/107
f 120/412/108 121/413/108 118/414/108 119/415/108
f 122/416/109 123/417/109 124/418/109 125/419/109
f 126/420/110 125/421/110 124/422/110
f 125/423/111 127/424/111 128/425/111 126/426/111
f 129/427/112 130/428/112 131/429/112 132/430/112
f 132/431/113 133/432/113 129/433/113
f 134/434/114 135/435/114 132/436/114 133/437/114
f 136/438/115 137/439/115 138/440/115 139/441/115
f 139/442/116 140/443/116 136/444/116
f 141/445/117 142/446/117 139/447/117 140/448/117
f 141/449/118 143/450/118 144/451/118 140/452/118
f 120/453/119 145/454/119 146/455/119 119/456/119
f 119/457/120 147/458/120 148/459/120 120/460/120
f 133/461/121 149/462/121 150/463/121 134/464/121
f 133/465/122 144/466/122 143/467/122 134/468/122
f 128/469/123 150/470/123 149/471/123 126/472/123
f 128/473/124 148/474/124 147/475/124 126/476/124
f 140/477/125 146/478/125 145/479/125 141/480/125