# Made in Blockbench 4.8.3
mtllib cruiser.mtl

o cylinder
v 0 0 0.26753544425303494
v 0 4 -0.41606839414635044
v 2.7400955965359146 0 -18.987851718481636
v 2.979080329763453 4 -19.67145555688102
v 4.285488161815907 0 -16.712337467299495
v 6.000000000000001 4 -16.712337467299495
v 4.285488161815907 0 8.808621579900798
v 6.000000000000001 4 8.808621579900798
v 3.6354129754917612 0 15.13484552257232
v 4.16755626400633 4 15.538591449061634
v 0 0 18.96133676632021
v 0 4 20.32854444311898
v -3.588962187669403 0 15.160606160451227
v -4.167556264006326 4 15.538591449061645
v -4.285488161815907 0 8.808621579900798
v -6.000000000000001 4 8.808621579900798
v -4.285488161815907 0 -16.712337467299495
v -6.000000000000001 4 -16.712337467299495
v -2.843156652141241 0 -18.987851718481622
v -2.9790803297634567 4 -19.671455556881007
vt 0.29867333984375 0.9992060546875
vt 0.32282011718750003 0.963651171875
vt 0.255859375 0.6983406249999999
vt 0.38558458470748846 0.9825123155441107
vt 0.38841905082823835 0.9145720599561166
vt 0.3469387164629857 0.9033203125
vt 0.32421875 0.961340208336366
vt 0.1875 0.42123623046875003
vt 0.14029814453125 0.375
vt 0.09375 0.6758654296875
vt 0.32282011718750003 0.963651171875
vt 0.32282011718750003 0.56488623046875
vt 0.255859375 0.6983406249999999
vt 0.7840029436641779 0.9991342811616362
vt 0.7868374081004496 0.93119406594946
vt 0.38841905082823835 0.9145720599561166
vt 0.3855845863919668 0.9825122751682926
vt 0.1875 0.820001171875
vt 0.1875 0.42123623046875003
vt 0.09375 0.6758654296875
vt 0.32282011718750003 0.56488623046875
vt 0.3126626953125 0.46603896484374996
vt 0.255859375 0.6983406249999999
vt 0.8916307674754496 0.99432687844946
vt 0.8862051815379495 0.93119406594946
vt 0.7868374081004496 0.93119406594946
vt 0.7840990291941996 0.99683117532446
vt 0.15886806640625 0.9251570312499999
vt 0.1875 0.820001171875
vt 0.09375 0.6758654296875
vt 0.3126626953125 0.46603896484374996
vt 0.255859375 0.40625
vt 0.255859375 0.6983406249999999
vt 0.64403291015625 0.8408203125
vt 0.6285455078125 0.7763671875
vt 0.54607529296875 0.7763671875
vt 0.544921875 0.8398255859375
vt 0.09375 1
vt 0.15886806640625 0.9251570312499999
vt 0.09375 0.6758654296875
vt 0.255859375 0.40625
vt 0.19978183593749999 0.46563642578125
vt 0.255859375 0.6983406249999999
vt 0.595703125 0.42578125
vt 0.5322771075986276 0.42578125
vt 0.5298138495039988 0.5069565594629154
vt 0.5933905052679022 0.5244140625
vt 0.028631933593750006 0.9251570312499999
vt 0.09375 1
vt 0.09375 0.6758654296875
vt 0.19978183593749999 0.46563642578125
vt 0.1888986328125 0.56488623046875
vt 0.255859375 0.6983406249999999
vt 0.4319314705594019 0.9101101283986109
vt 0.4319314705594019 0.8421107786221278
vt 0.33217894726989455 0.837823119726755
vt 0.32466672477160086 0.898830138198508
vt 0 0.820001171875
vt 0.028631933593750006 0.9251570312499999
vt 0.09375 0.6758654296875
vt 0.1888986328125 0.56488623046875
vt 0.1888986328125 0.963651171875
vt 0.255859375 0.6983406249999999
vt 0.8306964119656519 0.9101100950283778
vt 0.8306964119656519 0.8421107786221278
vt 0.4319314705594019 0.8421107786221278
vt 0.4319314705594019 0.9101100950283778
vt 0 0.42123623046875003
vt 0 0.820001171875
vt 0.09375 0.6758654296875
vt 0.1888986328125 0.963651171875
vt 0.21143505859375 0.9992060546875
vt 0.255859375 0.6983406249999999
vt 0.8931067127283991 0.8927632444720582
vt 0.8717959984302387 0.8330078125
vt 0.8306964119656519 0.8421107786221278
vt 0.8306964119656519 0.9084336492843963
vt 0.04720185546875 0.375
vt 0 0.42123623046875003
vt 0.09375 0.6758654296875
vt 0.21143505859375 0.9992060546875
vt 0.29867333984375 0.9992060546875
vt 0.255859375 0.6983406249999999
vt 0.63834501953125 0.775390625
vt 0.63461083984375 0.7119140625
vt 0.54737255859375 0.7119140625
vt 0.54524873046875 0.775390625
vt 0.14029814453125 0.375
vt 0.04720185546875 0.375
vt 0.09375 0.6758654296875
vn 0 -1 0
vn 0.7796923241017852 -0.33419792995344494 -0.5295201821947763
vn 0 1 0
vn 0 -1 0
vn 0.9191262161919874 -0.3939631946116287 0
vn 0 1 0
vn 0 -1 0
vn 0.984791515290948 -0.14122691657270192 0.1011959952089293
vn 0 1 0
vn 0 -1 0
vn 0.7056837308360558 -0.22915937608415488 0.6704449659636696
vn 0 1 0
vn 0 -1 0
vn -0.7167826092739894 -0.16764091044357401 0.6768450459211629
vn 0 1 0
vn 0 -1 0
vn -0.9144932633808299 -0.3919773815015093 0.10027862993829119
vn 0 1 0
vn 0 -1 0
vn -0.9191262161919874 -0.3939631946116287 0
vn 0 1 0
vn 0 -1 0
vn -0.8385865536617004 -0.11933610979100864 -0.5315369083306826
vn 0 1 0
vn 0 -1 0
vn -2.5088896226300056e-15 -0.16845856872921383 -0.9857087351858584
vn 0 1 0
usemtl m_e93733d1-d4f7-af28-7627-42761edba5d9
f 3/1/1 5/2/1 1/3/1
f 6/4/2 5/5/2 3/6/2 4/7/2
f 6/8/3 4/9/3 2/10/3
f 5/11/4 7/12/4 1/13/4
f 8/14/5 7/15/5 5/16/5 6/17/5
f 8/18/6 6/19/6 2/20/6
f 7/21/7 9/22/7 1/23/7
f 10/24/8 9/25/8 7/26/8 8/27/8
f 10/28/9 8/29/9 2/30/9
f 9/31/10 11/32/10 1/33/10
f 12/34/11 11/35/11 9/36/11 10/37/11
f 12/38/12 10/39/12 2/40/12
f 11/41/13 13/42/13 1/43/13
f 14/44/14 13/45/14 11/46/14 12/47/14
f 14/48/15 12/49/15 2/50/15
f 13/51/16 15/52/16 1/53/16
f 16/54/17 15/55/17 13/56/17 14/57/17
f 16/58/18 14/59/18 2/60/18
f 15/61/19 17/62/19 1/63/19
f 18/64/20 17/65/20 15/66/20 16/67/20
f 18/68/21 16/69/21 2/70/21
f 17/71/22 19/72/22 1/73/22
f 20/74/23 19/75/23 17/76/23 18/77/23
f 20/78/24 18/79/24 2/80/24
f 19/81/25 3/82/25 1/83/25
f 4/84/26 3/85/26 19/86/26 20/87/26
f 4/88/27 20/89/27 2/90/27
o cube1
v 3.5 5 11.3125
v 3.5 5 -9.6875
v 3.5 4 11.3125
v 3.5 4 -9.6875
v -3.5 5 -9.6875
v -3.5 5 11.3125
v -3.5 4 -9.6875
v -3.5 4 11.3125
vt 0.7021484375 0.677734375
vt 0.5927734375 0.677734375
vt 0.5927734375 0.662109375
vt 0.7021484375 0.662109375
vt 0.873046875 0.7109375
vt 0.544921875 0.7109375
vt 0.544921875 0.6953125
vt 0.873046875 0.6953125
vt 0.654296875 0.55078125
vt 0.544921875 0.55078125
vt 0.544921875 0.53515625
vt 0.654296875 0.53515625
vt 0.873046875 0.6943359375
vt 0.544921875 0.6943359375
vt 0.544921875 0.6787109375
vt 0.873046875 0.6787109375
vt 0.43359375 0.8359375
vt 0.32421875 0.8359375
vt 0.32421875 0.5078125
vt 0.43359375 0.5078125
vt 0.943359375 0.2744140625
vt 0.833984375 0.2744140625
vt 0.833984375 0.6025390625
vt 0.943359375 0.6025390625
vn 0 0 -1
vn 1 0 0
vn 0 0 1
vn -1 0 0
vn 0 1 0
vn 0 -1 0
usemtl m_e93733d1-d4f7-af28-7627-42761edba5d9
f 24/94/28 27/93/28 25/92/28 22/91/28
f 23/98/29 24/97/29 22/96/29 21/95/29
f 28/102/30 23/101/30 21/100/30 26/99/30
f 27/106/31 28/105/31 26/104/31 25/103/31
f 26/110/32 21/109/32 22/108/32 25/107/32
f 27/114/33 24/113/33 23/112/33 28/111/33
o cube
v 1.5 9 -2.6875
v 1.5 9 -5.6875
v 1.5 5 -2.6875
v 1.5 5 -5.6875
v -1.5 9 -5.6875
v -1.5 9 -2.6875
v -1.5 5 -5.6875
v -1.5 5 -2.6875
vt 0.591796875 0.677734375
vt 0.544921875 0.677734375
vt 0.544921875 0.615234375
vt 0.591796875 0.615234375
vt 0.591796875 0.677734375
vt 0.544921875 0.677734375
vt 0.544921875 0.615234375
vt 0.591796875 0.615234375
vt 0.591796875 0.677734375
vt 0.544921875 0.677734375
vt 0.544921875 0.615234375
vt 0.591796875 0.615234375
vt 0.591796875 0.677734375
vt 0.544921875 0.677734375
vt 0.544921875 0.615234375
vt 0.591796875 0.615234375
vt 0.046875 1
vt 0 1
vt 0 0.953125
vt 0.046875 0.953125
vt 0.9052734375 0.27734375
vt 0.8583984375 0.27734375
vt 0.8583984375 0.32421875
vt 0.9052734375 0.32421875
vn 0 0 -1
vn 1 0 0
vn 0 0 1
vn -1 0 0
vn 0 1 0
vn 0 -1 0
usemtl m_e93733d1-d4f7-af28-7627-42761edba5d9
f 32/118/34 35/117/34 33/116/34 30/115/34
f 31/122/35 32/121/35 30/120/35 29/119/35
f 36/126/36 31/125/36 29/124/36 34/123/36
f 35/130/37 36/129/37 34/128/37 33/127/37
f 34/134/38 29/133/38 30/132/38 33/131/38
f 35/138/39 32/137/39 31/136/39 36/135/39
o cube2
v -3 6 5.8125
v -3 6 -0.1875
v -3 5 5.8125
v -3 5 -0.1875
v -3.5 6 -0.1875
v -3.5 6 5.8125
v -3.5 5 -0.1875
v -3.5 5 5.8125
vt 0.0341796875 0.9521484375
vt 0.0263671875 0.9521484375
vt 0.0263671875 0.9365234375
vt 0.0341796875 0.9365234375
vt 0.404296875 1
vt 0.310546875 1
vt 0.310546875 0.984375
vt 0.404296875 0.984375
vt 0.025390625 0.9521484375
vt 0.017578125 0.9521484375
vt 0.017578125 0.9365234375
vt 0.025390625 0.9365234375
vt 0.412109375 0.412109375
vt 0.318359375 0.412109375
vt 0.318359375 0.396484375
vt 0.412109375 0.396484375
vt 0.0078125 0.9521484375
vt 0 0.9521484375
vt 0 0.8583984375
vt 0.0078125 0.8583984375
vt 0.1865234375 0.8583984375
vt 0.1787109375 0.8583984375
vt 0.1787109375 0.9521484375
vt 0.1865234375 0.9521484375
vn 0 0 -1
vn 1 0 0
vn 0 0 1
vn -1 0 0
vn 0 1 0
vn 0 -1 0
usemtl m_e93733d1-d4f7-af28-7627-42761edba5d9
f 40/142/40 43/141/40 41/140/40 38/139/40
f 39/146/41 40/145/41 38/144/41 37/143/41
f 44/150/42 39/149/42 37/148/42 42/147/42
f 43/154/43 44/153/43 42/152/43 41/151/43
f 42/158/44 37/157/44 38/156/44 41/155/44
f 43/162/45 40/161/45 39/160/45 44/159/45
o cube6
v 3.5 6 6.3125
v 3.5 6 5.8125
v 3.5 5 6.3125
v 3.5 5 5.8125
v -3.5 6 5.8125
v -3.5 6 6.3125
v -3.5 5 5.8125
v -3.5 5 6.3125
vt 0.7021484375 0.64453125
vt 0.5927734375 0.64453125
vt 0.5927734375 0.62890625
vt 0.7021484375 0.62890625
vt 0.072265625 1
vt 0.064453125 1
vt 0.064453125 0.984375
vt 0.072265625 0.984375
vt 0.7021484375 0.6611328125
vt 0.5927734375 0.6611328125
vt 0.5927734375 0.6455078125
vt 0.7021484375 0.6455078125
vt 0.025390625 0.935546875
vt 0.017578125 0.935546875
vt 0.017578125 0.919921875
vt 0.025390625 0.919921875
vt 0.5146484375 1
vt 0.4052734375 1
vt 0.4052734375 0.9921875
vt 0.5146484375 0.9921875
vt 0.6279296875 0.9111328125
vt 0.5185546875 0.9111328125
vt 0.5185546875 0.9189453125
vt 0.6279296875 0.9189453125
vn 0 0 -1
vn 1 0 0
vn 0 0 1
vn -1 0 0
vn 0 1 0
vn 0 -1 0
usemtl m_e93733d1-d4f7-af28-7627-42761edba5d9
f 48/166/46 51/165/46 49/164/46 46/163/46
f 47/170/47 48/169/47 46/168/47 45/167/47
f 52/174/48 47/173/48 45/172/48 50/171/48
f 51/178/49 52/177/49 50/176/49 49/175/49
f 50/182/50 45/181/50 46/180/50 49/179/50
f 51/186/51 48/185/51 47/184/51 52/183/51
o cube8
v -0.5 8 -0.1875
v -0.5 8 -0.6875
v -0.5 5 -0.1875
v -0.5 5 -0.6875
v -3.5 8 -0.6875
v -3.5 8 -0.1875
v -3.5 5 -0.6875
v -3.5 5 -0.1875
vt 0.3173828125 0.4189453125
vt 0.2705078125 0.4189453125
vt 0.2705078125 0.3720703125
vt 0.3173828125 0.3720703125
vt 0.0166015625 0.9521484375
vt 0.0087890625 0.9521484375
vt 0.0087890625 0.9052734375
vt 0.0166015625 0.9052734375
vt 0.6240234375 0.4248046875
vt 0.5771484375 0.4248046875
vt 0.5771484375 0.3779296875
vt 0.6240234375 0.3779296875
vt 0.173828125 0.9521484375
vt 0.166015625 0.9521484375
vt 0.166015625 0.9052734375
vt 0.173828125 0.9052734375
vt 0.5625 1
vt 0.515625 1
vt 0.515625 0.9921875
vt 0.5625 0.9921875
vt 0.591796875 0.5263671875
vt 0.544921875 0.5263671875
vt 0.544921875 0.5341796875
vt 0.591796875 0.5341796875
vn 0 0 -1
vn 1 0 0
vn 0 0 1
vn -1 0 0
vn 0 1 0
vn 0 -1 0
usemtl m_e93733d1-d4f7-af28-7627-42761edba5d9
f 56/190/52 59/189/52 57/188/52 54/187/52
f 55/194/53 56/193/53 54/192/53 53/191/53
f 60/198/54 55/197/54 53/196/54 58/195/54
f 59/202/55 60/201/55 58/200/55 57/199/55
f 58/206/56 53/205/56 54/204/56 57/203/56
f 59/210/57 56/209/57 55/208/57 60/207/57
o cube4
v 3.5 6 5.8125
v 3.5 6 -0.1875
v 3.5 5 5.8125
v 3.5 5 -0.1875
v 3 6 -0.1875
v 3 6 5.8125
v 3 5 -0.1875
v 3 5 5.8125
vt 0.1171875 1
vt 0.109375 1
vt 0.109375 0.984375
vt 0.1171875 0.984375
vt 0.6904296875 0.4677734375
vt 0.5966796875 0.4677734375
vt 0.5966796875 0.4521484375
vt 0.6904296875 0.4521484375
vt 0.0166015625 0.904296875
vt 0.0087890625 0.904296875
vt 0.0087890625 0.888671875
vt 0.0166015625 0.888671875
vt 0.6904296875 0.451171875
vt 0.5966796875 0.451171875
vt 0.5966796875 0.435546875
vt 0.6904296875 0.435546875
vt 0.5166015625 0.4169921875
vt 0.5087890625 0.4169921875
vt 0.5087890625 0.3232421875
vt 0.5166015625 0.3232421875
vt 0.525390625 0.3232421875
vt 0.517578125 0.3232421875
vt 0.517578125 0.4169921875
vt 0.525390625 0.4169921875
vn 0 0 -1
vn 1 0 0
vn 0 0 1
vn -1 0 0
vn 0 1 0
vn 0 -1 0
usemtl m_e93733d1-d4f7-af28-7627-42761edba5d9
f 64/214/58 67/213/58 65/212/58 62/211/58
f 63/218/59 64/217/59 62/216/59 61/215/59
f 68/222/60 63/221/60 61/220/60 66/219/60
f 67/226/61 68/225/61 66/224/61 65/223/61
f 66/230/62 61/229/62 62/228/62 65/227/62
f 67/234/63 64/233/63 63/232/63 68/231/63
o cube11
v 3 8 5.8125
v 3 8 -0.1875
v 3 7.5 5.8125
v 3 7.5 -0.1875
v -3 8 -0.1875
v -3 8 5.8125
v -3 7.5 -0.1875
v -3 7.5 5.8125
vt 0.71875 0.3916015625
vt 0.625 0.3916015625
vt 0.625 0.3837890625
vt 0.71875 0.3837890625
vt 0.71875 0.400390625
vt 0.625 0.400390625
vt 0.625 0.392578125
vt 0.71875 0.392578125
vt 0.71875 0.4091796875
vt 0.625 0.4091796875
vt 0.625 0.4013671875
vt 0.71875 0.4013671875
vt 0.09375 0.3740234375
vt 0 0.3740234375
vt 0 0.3662109375
vt 0.09375 0.3662109375
vt 0.5283203125 0.51171875
vt 0.4345703125 0.51171875
vt 0.4345703125 0.41796875
vt 0.5283203125 0.41796875
vt 0.412109375 0.4130859375
vt 0.318359375 0.4130859375
vt 0.318359375 0.5068359375
vt 0.412109375 0.5068359375
vn 0 0 -1
vn 1 0 0
vn 0 0 1
vn -1 0 0
vn 0 1 0
vn 0 -1 0
usemtl m_e93733d1-d4f7-af28-7627-42761edba5d9
f 72/238/64 75/237/64 73/236/64 70/235/64
f 71/242/65 72/241/65 70/240/65 69/239/65
f 76/246/66 71/245/66 69/244/66 74/243/66
f 75/250/67 76/249/67 74/248/67 73/247/67
f 74/254/68 69/253/68 70/252/68 73/251/68
f 75/258/69 72/257/69 71/256/69 76/255/69
o cube9
v 3.5 8 -0.1875
v 3.5 8 -0.6875
v 3.5 5 -0.1875
v 3.5 5 -0.6875
v 0.5 8 -0.6875
v 0.5 8 -0.1875
v 0.5 5 -0.6875
v 0.5 5 -0.1875
vt 0.5078125 0.4169921875
vt 0.4609375 0.4169921875
vt 0.4609375 0.3701171875
vt 0.5078125 0.3701171875
vt 0.4208984375 0.5068359375
vt 0.4130859375 0.5068359375
vt 0.4130859375 0.4599609375
vt 0.4208984375 0.4599609375
vt 0.4599609375 0.4169921875
vt 0.4130859375 0.4169921875
vt 0.4130859375 0.3701171875
vt 0.4599609375 0.3701171875
vt 0.4296875 0.5068359375
vt 0.421875 0.5068359375
vt 0.421875 0.4599609375
vt 0.4296875 0.4599609375
vt 0.1416015625 0.3740234375
vt 0.0947265625 0.3740234375
vt 0.0947265625 0.3662109375
vt 0.1416015625 0.3662109375
vt 0.67578125 0.9150390625
vt 0.62890625 0.9150390625
vt 0.62890625 0.9228515625
vt 0.67578125 0.9228515625
vn 0 0 -1
vn 1 0 0
vn 0 0 1
vn -1 0 0
vn 0 1 0
vn 0 -1 0
usemtl m_e93733d1-d4f7-af28-7627-42761edba5d9
f 80/262/70 83/261/70 81/260/70 78/259/70
f 79/266/71 80/265/71 78/264/71 77/263/71
f 84/270/72 79/269/72 77/268/72 82/267/72
f 83/274/73 84/273/73 82/272/73 81/271/73
f 82/278/74 77/277/74 78/276/74 81/275/74
f 83/282/75 80/281/75 79/280/75 84/279/75
o cube10
v 0.5 8 -0.1875
v 0.5 8 -0.6875
v 0.5 7 -0.1875
v 0.5 7 -0.6875
v -0.5 8 -0.6875
v -0.5 8 -0.1875
v -0.5 7 -0.6875
v -0.5 7 -0.1875
vt 0.0634765625 0.9833984375
vt 0.0478515625 0.9833984375
vt 0.0478515625 0.9677734375
vt 0.0634765625 0.9677734375
vt 0.1259765625 1
vt 0.1181640625 1
vt 0.1181640625 0.984375
vt 0.1259765625 0.984375
vt 0.0634765625 1
vt 0.0478515625 1
vt 0.0478515625 0.984375
vt 0.0634765625 0.984375
vt 0.1318359375 0.9833984375
vt 0.1240234375 0.9833984375
vt 0.1240234375 0.9677734375
vt 0.1318359375 0.9677734375
vt 0.16015625 0.9521484375
vt 0.14453125 0.9521484375
vt 0.14453125 0.9443359375
vt 0.16015625 0.9443359375
vt 0.2001953125 0.9921875
vt 0.1845703125 0.9921875
vt 0.1845703125 1
vt 0.2001953125 1
vn 0 0 -1
vn 1 0 0
vn 0 0 1
vn -1 0 0
vn 0 1 0
vn 0 -1 0
usemtl m_e93733d1-d4f7-af28-7627-42761edba5d9
f 88/286/76 91/285/76 89/284/76 86/283/76
f 87/290/77 88/289/77 86/288/77 85/287/77
f 92/294/78 87/293/78 85/292/78 90/291/78
f 91/298/79 92/297/79 90/296/79 89/295/79
f 90/302/80 85/301/80 86/300/80 89/299/80
f 91/306/81 88/305/81 87/304/81 92/303/81
o cube3
v -3 8 5.8125
v -3 8 -0.1875
v -3 7 5.8125
v -3 7 -0.1875
v -3.5 8 -0.1875
v -3.5 8 5.8125
v -3.5 7 -0.1875
v -3.5 7 5.8125
vt 0.1923828125 0.9912109375
vt 0.1845703125 0.9912109375
vt 0.1845703125 0.9755859375
vt 0.1923828125 0.9755859375
vt 0.412109375 0.3955078125
vt 0.318359375 0.3955078125
vt 0.318359375 0.3798828125
vt 0.412109375 0.3798828125
vt 0.134765625 1
vt 0.126953125 1
vt 0.126953125 0.984375
vt 0.134765625 0.984375
vt 0.412109375 0.37890625
vt 0.318359375 0.37890625
vt 0.318359375 0.36328125
vt 0.412109375 0.36328125
vt 0.244140625 0.416015625
vt 0.236328125 0.416015625
vt 0.236328125 0.322265625
vt 0.244140625 0.322265625
vt 0.1875 0.3173828125
vt 0.1796875 0.3173828125
vt 0.1796875 0.4111328125
vt 0.1875 0.4111328125
vn 0 0 -1
vn 1 0 0
vn 0 0 1
vn -1 0 0
vn 0 1 0
vn 0 -1 0
usemtl m_e93733d1-d4f7-af28-7627-42761edba5d9
f 96/310/82 99/309/82 97/308/82 94/307/82
f 95/314/83 96/313/83 94/312/83 93/311/83
f 100/318/84 95/317/84 93/316/84 98/315/84
f 99/322/85 100/321/85 98/320/85 97/319/85
f 98/326/86 93/325/86 94/324/86 97/323/86
f 99/330/87 96/329/87 95/328/87 100/327/87
o cube7
v 3.5 8 6.3125
v 3.5 8 5.8125
v 3.5 7 6.3125
v 3.5 7 5.8125
v -3.5 8 5.8125
v -3.5 8 6.3125
v -3.5 7 5.8125
v -3.5 7 6.3125
vt 0.7021484375 0.611328125
vt 0.5927734375 0.611328125
vt 0.5927734375 0.595703125
vt 0.7021484375 0.595703125
vt 0.330078125 0.9833984375
vt 0.322265625 0.9833984375
vt 0.322265625 0.9677734375
vt 0.330078125 0.9677734375
vt 0.7021484375 0.6279296875
vt 0.5927734375 0.6279296875
vt 0.5927734375 0.6123046875
vt 0.7021484375 0.6123046875
vt 0.33203125 0.9375
vt 0.32421875 0.9375
vt 0.32421875 0.921875
vt 0.33203125 0.921875
vt 0.7021484375 0.5615234375
vt 0.5927734375 0.5615234375
vt 0.5927734375 0.5537109375
vt 0.7021484375 0.5537109375
vt 0.734375 0.41015625
vt 0.625 0.41015625
vt 0.625 0.41796875
vt 0.734375 0.41796875
vn 0 0 -1
vn 1 0 0
vn 0 0 1
vn -1 0 0
vn 0 1 0
vn 0 -1 0
usemtl m_e93733d1-d4f7-af28-7627-42761edba5d9
f 104/334/88 107/333/88 105/332/88 102/331/88
f 103/338/89 104/337/89 102/336/89 101/335/89
f 108/342/90 103/341/90 101/340/90 106/339/90
f 107/346/91 108/345/91 106/344/91 105/343/91
f 106/350/92 101/349/92 102/348/92 105/347/92
f 107/354/93 104/353/93 103/352/93 108/351/93
o cube5
v 3.5 8 5.8125
v 3.5 8 -0.1875
v 3.5 7 5.8125
v 3.5 7 -0.1875
v 3 8 -0.1875
v 3 8 5.8125
v 3 7 -0.1875
v 3 7 5.8125
vt 0.3388671875 0.9833984375
vt 0.3310546875 0.9833984375
vt 0.3310546875 0.9677734375
vt 0.3388671875 0.9677734375
vt 0.6708984375 0.376953125
vt 0.5771484375 0.376953125
vt 0.5771484375 0.361328125
vt 0.6708984375 0.361328125
vt 0.33203125 0.9208984375
vt 0.32421875 0.9208984375
vt 0.32421875 0.9052734375
vt 0.33203125 0.9052734375
vt 0.71875 0.4345703125
vt 0.625 0.4345703125
vt 0.625 0.4189453125
vt 0.71875 0.4189453125
vt 0.26953125 0.41015625
vt 0.26171875 0.41015625
vt 0.26171875 0.31640625
vt 0.26953125 0.31640625
vt 0.2529296875 0.3134765625
vt 0.2451171875 0.3134765625
vt 0.2451171875 0.4072265625
vt 0.2529296875 0.4072265625
vn 0 0 -1
vn 1 0 0
vn 0 0 1
vn -1 0 0
vn 0 1 0
vn 0 -1 0
usemtl m_e93733d1-d4f7-af28-7627-42761edba5d9
f 112/358/94 115/357/94 113/356/94 110/355/94
f 111/362/95 112/361/95 110/360/95 109/359/95
f 116/366/96 111/365/96 109/364/96 114/363/96
f 115/370/97 116/369/97 114/368/97 113/367/97
f 114/374/98 109/373/98 110/372/98 113/371/98
f 115/378/99 112/377/99 111/376/99 116/375/99
o cube12
v 3.25 7 6.0625
v 3.25 7 6.0625
v 3.25 6 6.0625
v 3.25 6 6.0625
v -3.25 7 6.0625
v -3.25 7 6.0625
v -3.25 6 6.0625
v -3.25 6 6.0625
vt 0.6943359375 0.5947265625
vt 0.5927734375 0.5947265625
vt 0.5927734375 0.5791015625
vt 0.6943359375 0.5791015625
vt 0.0478515625 0.966796875
vt 0.0478515625 0.966796875
vt 0.0478515625 0.951171875
vt 0.0478515625 0.951171875
vt 0.6943359375 0.5947265625
vt 0.5927734375 0.5947265625
vt 0.5927734375 0.5791015625
vt 0.6943359375 0.5791015625
vt 0.03515625 0.9521484375
vt 0.03515625 0.9521484375
vt 0.03515625 0.9365234375
vt 0.03515625 0.9365234375
vt 0.482421875 0.9111328125
vt 0.380859375 0.9111328125
vt 0.380859375 0.9111328125
vt 0.482421875 0.9111328125
vt 0.486328125 0.912109375
vt 0.384765625 0.912109375
vt 0.384765625 0.912109375
vt 0.486328125 0.912109375
vn 0 0 -1
vn 1 0 0
vn 0 0 1
vn -1 0 0
vn 0 1 0
vn 0 -1 0
usemtl m_e93733d1-d4f7-af28-7627-42761edba5d9
f 120/382/100 123/381/100 121/380/100 118/379/100
f 119/386/101 120/385/101 118/384/101 117/383/101
f 124/390/102 119/389/102 117/388/102 122/387/102
f 123/394/103 124/393/103 122/392/103 121/391/103
f 122/398/104 117/397/104 118/396/104 121/395/104
f 123/402/105 120/401/105 119/400/105 124/399/105
o cube13
v -3.25 7 6.0625
v -3.25 7 -0.1875
v -3.25 6 6.0625
v -3.25 6 -0.1875
v -3.25 7 -0.1875
v -3.25 7 6.0625
v -3.25 6 -0.1875
v -3.25 6 6.0625
vt 0.048828125 0.966796875
vt 0.048828125 0.966796875
vt 0.048828125 0.951171875
vt 0.048828125 0.951171875
vt 0.6943359375 0.5947265625
vt 0.5966796875 0.5947265625
vt 0.5966796875 0.5791015625
vt 0.6943359375 0.5791015625
vt 0.0361328125 0.9521484375
vt 0.0361328125 0.9521484375
vt 0.0361328125 0.9365234375
vt 0.0361328125 0.9365234375
vt 0.6904296875 0.5947265625
vt 0.5927734375 0.5947265625
vt 0.5927734375 0.5791015625
vt 0.6904296875 0.5791015625
vt 0.1875 0.974609375
vt 0.1875 0.974609375
vt 0.1875 0.876953125
vt 0.1875 0.876953125
vt 0.1884765625 0.4609375
vt 0.1884765625 0.4609375
vt 0.1884765625 0.55859375
vt 0.1884765625 0.55859375
vn 0 0 -1
vn 1 0 0
vn 0 0 1
vn -1 0 0
vn 0 1 0
vn 0 -1 0
usemtl m_e93733d1-d4f7-af28-7627-42761edba5d9
f 128/406/106 131/405/106 129/404/106 126/403/106
f 127/410/107 128/409/107 126/408/107 125/407/107
f 132/414/108 127/413/108 125/412/108 130/411/108
f 131/418/109 132/417/109 130/416/109 129/415/109
f 130/422/110 125/421/110 126/420/110 129/419/110
f 131/426/111 128/425/111 127/424/111 132/423/111
o cube14
v 3.25 7 6.0625
v 3.25 7 -0.1875
v 3.25 6 6.0625
v 3.25 6 -0.1875
v 3.25 7 -0.1875
v 3.25 7 6.0625
v 3.25 6 -0.1875
v 3.25 6 6.0625
vt 0.07421875 1
vt 0.07421875 1
vt 0.07421875 0.984375
vt 0.07421875 0.984375
vt 0.6943359375 0.5947265625
vt 0.5966796875 0.5947265625
vt 0.5966796875 0.5791015625
vt 0.6943359375 0.5791015625
vt 0.0732421875 1
vt 0.0732421875 1
vt 0.0732421875 0.984375
vt 0.0732421875 0.984375
vt 0.6904296875 0.5947265625
vt 0.5927734375 0.5947265625
vt 0.5927734375 0.5791015625
vt 0.6904296875 0.5791015625
vt 0.189453125 0.5498046875
vt 0.189453125 0.5498046875
vt 0.189453125 0.4521484375
vt 0.189453125 0.4521484375
vt 0.1904296875 0.443359375
vt 0.1904296875 0.443359375
vt 0.1904296875 0.541015625
vt 0.1904296875 0.541015625
vn 0 0 -1
vn 1 0 0
vn 0 0 1
vn -1 0 0
vn 0 1 0
vn 0 -1 0
usemtl m_e93733d1-d4f7-af28-7627-42761edba5d9
f 136/430/112 139/429/112 137/428/112 134/427/112
f 135/434/113 136/433/113 134/432/113 133/431/113
f 140/438/114 135/437/114 133/436/114 138/435/114
f 139/442/115 140/441/115 138/440/115 137/439/115
f 138/446/116 133/445/116 134/444/116 137/443/116
f 139/450/117 136/449/117 135/448/117 140/447/117