# Made in Blockbench 4.9.4
mtllib heavy_missile_rack.mtl

o cube2
v 0.0625 0.5625 0.09375
v 0.0625 0.5625 -0.03125
v 0.125 0.125 0.09375
v 0.125 0.125 -0.15625
v -0.0625 0.5625 0.09375
v -0.0625 0.5625 -0.03125
v -0.125 0.125 0.09375
v -0.125 0.125 -0.15625
vt 0.125 0.5
vt 0.0625 0.71875
vt 0 0.71875
vt 0 0.5
vt 0.28125 0.5
vt 0.28125 0.71875
vt 0.21875 0.71875
vt 0.15625 0.5
vt 0.375 0.28125
vt 0.375 0.34375
vt 0.3125 0.34375
vt 0.3125 0.28125
vt 0.59375 0.625
vt 0.59375 0.75
vt 0.46875 0.75
vt 0.46875 0.625
vt 0.28125 0.7701902961143721
vt 0.28125 0.9911611652351682
vt 0.21812184335382293 1
vt 0.15625 0.7878679656440357
vt 0.125 0.7618554587217735
vt 0.125 0.9914948159425374
vt 0.06191859045673341 1
vt 0 0.7788658268366987
vn 0.9899494936611667 0.14142135623730953 0
vn -0.9899494936611667 0.14142135623730953 0
vn 0 1 0
vn 0 -1 0
vn 0 0 1
vn 0 0.27472112789737807 -0.9615239476408232
usemtl m_cf6ae193-8056-344e-cd5f-c9080cd79486
f 4/1/1 2/2/1 1/3/1 3/4/1
f 7/5/2 5/6/2 6/7/2 8/8/2
f 1/9/3 2/10/3 6/11/3 5/12/3
f 4/13/4 3/14/4 7/15/4 8/16/4
f 3/17/5 1/18/5 5/19/5 7/20/5
f 8/21/6 6/22/6 2/23/6 4/24/6
o cube4
v -0.4375 0.09375 -0.031249999999999944
v -0.4375 0.09375 0.09375000000000006
v -0.4375 0.03125 -0.031249999999999944
v -0.4375 0.03125 0.09375000000000006
v -0.12500000000000003 0.125 -0.15624999999999997
v -0.12499999999999994 0.125 0.09375000000000001
v -0.12500000000000003 0 -0.15624999999999997
v -0.12499999999999994 0 0.09375000000000001
vt 0.46875 0.3125
vt 0.46875 0.34375
vt 0.40625 0.34375
vt 0.40625 0.3125
vt 0.75 0.75
vt 0.75 0.8125
vt 0.625 0.8125
vt 0.625 0.75
vt 0.375 0.46875
vt 0.4375 0.46875
vt 0.4375 0.625
vt 0.3125 0.625
vt 0.5625 0.9375
vt 0.5 0.9375
vt 0.4375 0.78125
vt 0.5625 0.78125
vt 0.3408609020066511 0.375
vt 0.34375 0.40638383679203316
vt 0.17763089850545244 0.4375
vt 0.17185270251875454 0.375
vt 0.7613504164608976 0.8440601756118757
vt 0.7675693988997101 0.90625
vt 0.6105400923196962 0.90625
vt 0.6074306011002899 0.8751550878059379
vn -1 0 1.2246467991473532e-16
vn 1 0 -2.8899813360850883e-16
vn -0.0995037190209989 0.9950371902099892 1.218569110023239e-17
vn -0.09950371902099892 -0.9950371902099892 1.2185691100232393e-17
vn -0.37139067635410383 0 -0.9284766908852594
vn 1.2246467991473532e-16 0 1
usemtl m_cf6ae193-8056-344e-cd5f-c9080cd79486
f 12/25/7 10/26/7 9/27/7 11/28/7
f 15/29/8 13/30/8 14/31/8 16/32/8
f 9/33/9 10/34/9 14/35/9 13/36/9
f 12/37/10 11/38/10 15/39/10 16/40/10
f 11/41/11 9/42/11 13/43/11 15/44/11
f 16/45/12 14/46/12 10/47/12 12/48/12
o cube1
v 0.125 0.125 0.09375
v 0.125 0.125 -0.15625
v 0.125 0 0.09375
v 0.125 0 -0.15625
v -0.125 0.125 0.09375
v -0.125 0.125 -0.15625
v -0.125 0 0.09375
v -0.125 0 -0.15625
vt 0.75 0.65625
vt 0.75 0.71875
vt 0.625 0.71875
vt 0.625 0.65625
vt 0.75 0.5625
vt 0.75 0.625
vt 0.625 0.625
vt 0.625 0.5625
vt 0.59375 0.46875
vt 0.59375 0.59375
vt 0.46875 0.59375
vt 0.46875 0.46875
vt 0.125 0.34375
vt 0.125 0.46875
vt 0 0.46875
vt 0 0.34375
vt 0.75 0.46875
vt 0.75 0.53125
vt 0.625 0.53125
vt 0.625 0.46875
vt 0.28125 0.28125
vt 0.28125 0.34375
vt 0.15625 0.34375
vt 0.15625 0.28125
vn 1 0 0
vn -1 0 0
vn 0 1 0
vn 0 -1 0
vn 0 0 1
vn 0 0 -1
usemtl m_cf6ae193-8056-344e-cd5f-c9080cd79486
f 20/49/13 18/50/13 17/51/13 19/52/13
f 23/53/14 21/54/14 22/55/14 24/56/14
f 17/57/15 18/58/15 22/59/15 21/60/15
f 20/61/16 19/62/16 23/63/16 24/64/16
f 19/65/17 17/66/17 21/67/17 23/68/17
f 24/69/18 22/70/18 18/71/18 20/72/18
o cube3
v 0.4375 0.09375 0.09375
v 0.4375 0.09375 -0.03125
v 0.4375 0.03125 0.09375
v 0.4375 0.03125 -0.03125
v 0.125 0.125 0.09375
v 0.125 0.125 -0.15625
v 0.125 0 0.09375
v 0.125 0 -0.15625
vt 0.53125 0.96875
vt 0.53125 1
vt 0.46875 1
vt 0.46875 0.96875
vt 0.71875 0.375
vt 0.71875 0.4375
vt 0.59375 0.4375
vt 0.59375 0.375
vt 0.3125 0.84375
vt 0.375 0.84375
vt 0.4375 1
vt 0.3125 1
vt 0.375 0.8125
vt 0.3125 0.8125
vt 0.3125 0.65625
vt 0.4375 0.65625
vt 0.7644599076803038 0.9375
vt 0.7675693988997101 0.9689050878059379
vt 0.6136495835391024 1
vt 0.6074306011002899 0.9375
vt 0.5411191014945476 0.37526767358406643
vt 0.5468972974812455 0.4375
vt 0.3778890979933489 0.4375
vt 0.375 0.40638383679203316
vn 1 0 0
vn -1 0 0
vn 0.09950371902099892 0.9950371902099892 0
vn 0.09950371902099892 -0.9950371902099892 0
vn 0 0 1
vn 0.3713906763541037 0 -0.9284766908852594
usemtl m_cf6ae193-8056-344e-cd5f-c9080cd79486
f 28/73/19 26/74/19 25/75/19 27/76/19
f 31/77/20 29/78/20 30/79/20 32/80/20
f 25/81/21 26/82/21 30/83/21 29/84/21
f 28/85/22 27/86/22 31/87/22 32/88/22
f 27/89/23 25/90/23 29/91/23 31/92/23
f 32/93/24 30/94/24 26/95/24 28/96/24