# Made in Blockbench 4.9.4
mtllib light_missile_rack.mtl

o cube
v 0.03125 0.9375 0.03125
v 0.03125 0.9375 -0.09375
v 0.03125 0 0.03125
v 0.03125 0 -0.09375
v -0.03125 0.9375 0.03125
v -0.03125 0.9375 -0.09375
v -0.03125 0 0.03125
v -0.03125 0 -0.09375
vt 0.0625 0.53125
vt 0.0625 1
vt 0 1
vt 0 0.53125
vt 0.15625 0.53125
vt 0.15625 1
vt 0.09375 1
vt 0.09375 0.53125
vt 0.5 0.3125
vt 0.5 0.375
vt 0.46875 0.375
vt 0.46875 0.3125
vt 0.5625 0.3125
vt 0.5625 0.375
vt 0.53125 0.375
vt 0.53125 0.3125
vt 0.21875 0.53125
vt 0.21875 1
vt 0.1875 1
vt 0.1875 0.53125
vt 0.28125 0.53125
vt 0.28125 1
vt 0.25 1
vt 0.25 0.53125
vn 1 0 0
vn -1 0 0
vn 0 1 0
vn 0 -1 0
vn 0 0 1
vn 0 0 -1
usemtl m_880b0ce8-0312-f527-6815-3ca4fee88429
f 4/1/1 2/2/1 1/3/1 3/4/1
f 7/5/2 5/6/2 6/7/2 8/8/2
f 1/9/3 2/10/3 6/11/3 5/12/3
f 4/13/4 3/14/4 7/15/4 8/16/4
f 3/17/5 1/18/5 5/19/5 7/20/5
f 8/21/6 6/22/6 2/23/6 4/24/6
o cube1
v 0.3125 0.046875 0.03125
v 0.3125 0.046875 -0.03125
v 0.3125 0.015625 0.03125
v 0.3125 0.015625 -0.03125
v 0.03125 0.0625 0.03125
v 0.03125 0.0625 -0.09375
v 0.03125 0 0.03125
v 0.03125 0 -0.09375
vt 0.40625 0.28125
vt 0.40625 0.3125
vt 0.375 0.3125
vt 0.375 0.28125
vt 0.65625 0.34375
vt 0.65625 0.375
vt 0.59375 0.375
vt 0.59375 0.34375
vt 0.3125 0.84375
vt 0.34375 0.84375
vt 0.375 1
vt 0.3125 1
vt 0.34375 0.8125
vt 0.3125 0.8125
vt 0.3125 0.65625
vt 0.375 0.65625
vt 0.7418625638206051 0.59375
vt 0.742729282877207 0.6093990569811654
vt 0.6027541552359968 0.625
vt 0.601020717122793 0.59375
vt 0.7371686645133694 0.8437958561907406
vt 0.7388609733300635 0.875
vt 0.5945961544083471 0.875
vt 0.59375 0.8593979280953703
vn 1 0 0
vn -1 0 0
vn 0.05547001962252291 0.9984603532054125 0
vn 0.05547001962252291 -0.9984603532054125 0
vn 0 0 1
vn 0.21693045781865616 0 -0.9761870601839528
usemtl m_880b0ce8-0312-f527-6815-3ca4fee88429
f 12/25/7 10/26/7 9/27/7 11/28/7
f 15/29/8 13/30/8 14/31/8 16/32/8
f 9/33/9 10/34/9 14/35/9 13/36/9
f 12/37/10 11/38/10 15/39/10 16/40/10
f 11/41/11 9/42/11 13/43/11 15/44/11
f 16/45/12 14/46/12 10/47/12 12/48/12
o cube2
v 0.3125 0.359375 0.03125
v 0.3125 0.359375 -0.03125
v 0.3125 0.328125 0.03125
v 0.3125 0.328125 -0.03125
v 0.03125 0.375 0.03125
v 0.03125 0.375 -0.09375
v 0.03125 0.3125 0.03125
v 0.03125 0.3125 -0.09375
vt 0.625 0.28125
vt 0.625 0.3125
vt 0.59375 0.3125
vt 0.59375 0.28125
vt 0.71875 0.40625
vt 0.71875 0.4375
vt 0.65625 0.4375
vt 0.65625 0.40625
vt 0.3125 0.46875
vt 0.34375 0.46875
vt 0.375 0.625
vt 0.3125 0.625
vt 0.4375 1
vt 0.40625 1
vt 0.40625 0.84375
vt 0.46875 0.84375
vt 0.7418625638206051 0.65625
vt 0.742729282877207 0.6718990569811654
vt 0.6027541552359968 0.6875
vt 0.601020717122793 0.65625
vt 0.7371686645133694 0.9062958561907406
vt 0.7388609733300635 0.9375
vt 0.594596154408347 0.9375
vt 0.59375 0.9218979280953703
vn 1 0 0
vn -1 0 0
vn 0.05547001962252291 0.9984603532054125 0
vn 0.05547001962252291 -0.9984603532054125 0
vn 0 0 1
vn 0.21693045781865616 0 -0.9761870601839528
usemtl m_880b0ce8-0312-f527-6815-3ca4fee88429
f 20/49/13 18/50/13 17/51/13 19/52/13
f 23/53/14 21/54/14 22/55/14 24/56/14
f 17/57/15 18/58/15 22/59/15 21/60/15
f 20/61/16 19/62/16 23/63/16 24/64/16
f 19/65/17 17/66/17 21/67/17 23/68/17
f 24/69/18 22/70/18 18/71/18 20/72/18
o cube4
v -0.03125 0.375 0.03125
v -0.03125 0.375 -0.09375
v -0.03125 0.3125 0.03125
v -0.03125 0.3125 -0.09375
v -0.3125 0.359375 0.03125
v -0.3125 0.359375 -0.03125
v -0.3125 0.328125 0.03125
v -0.3125 0.328125 -0.03125
vt 0.15625 0.28125
vt 0.15625 0.3125
vt 0.09375 0.3125
vt 0.09375 0.28125
vt 0.6875 0.28125
vt 0.6875 0.3125
vt 0.65625 0.3125
vt 0.65625 0.28125
vt 0.0625 0.5
vt 0 0.5
vt 0.03125 0.34375
vt 0.0625 0.34375
vt 0.5 0.84375
vt 0.5625 0.84375
vt 0.5625 1
vt 0.53125 1
vt 0.7409958447640032 0.5312981139623308
vt 0.742729282877207 0.5625
vt 0.6018874361793949 0.5625
vt 0.601020717122793 0.5468990569811654
vt 0.43665384559165293 0.40625
vt 0.4375 0.4218979280953702
vt 0.2940813354866306 0.4375
vt 0.2923890266699365 0.40625
vn 1 0 0
vn -1 0 0
vn -0.05547001962252291 0.9984603532054125 0
vn -0.05547001962252291 -0.9984603532054125 0
vn 0 0 1
vn -0.21693045781865616 0 -0.9761870601839528
usemtl m_880b0ce8-0312-f527-6815-3ca4fee88429
f 28/73/19 26/74/19 25/75/19 27/76/19
f 31/77/20 29/78/20 30/79/20 32/80/20
f 25/81/21 26/82/21 30/83/21 29/84/21
f 28/85/22 27/86/22 31/87/22 32/88/22
f 27/89/23 25/90/23 29/91/23 31/92/23
f 32/93/24 30/94/24 26/95/24 28/96/24
o cube5
v -0.03125 0.6875 0.03125
v -0.03125 0.6875 -0.09375
v -0.03125 0.625 0.03125
v -0.03125 0.625 -0.09375
v -0.3125 0.671875 0.03125
v -0.3125 0.671875 -0.03125
v -0.3125 0.640625 0.03125
v -0.3125 0.640625 -0.03125
vt 0.25 0.28125
vt 0.25 0.3125
vt 0.1875 0.3125
vt 0.1875 0.28125
vt 0.46875 0.25
vt 0.46875 0.28125
vt 0.4375 0.28125
vt 0.4375 0.25
vt 0.15625 0.5
vt 0.09375 0.5
vt 0.125 0.34375
vt 0.15625 0.34375
vt 0.1875 0.34375
vt 0.25 0.34375
vt 0.25 0.5
vt 0.21875 0.5
vt 0.7409958447640032 0.46879811396233084
vt 0.742729282877207 0.5
vt 0.6018874361793949 0.5
vt 0.601020717122793 0.48439905698116537
vt 0.7491538455916529 0.96875
vt 0.75 0.9843979280953702
vt 0.6065813354866307 1
vt 0.6048890266699365 0.96875
vn 1 0 0
vn -1 0 0
vn -0.05547001962252291 0.9984603532054125 0
vn -0.05547001962252291 -0.9984603532054125 0
vn 0 0 1
vn -0.21693045781865616 0 -0.9761870601839528
usemtl m_880b0ce8-0312-f527-6815-3ca4fee88429
f 36/97/25 34/98/25 33/99/25 35/100/25
f 39/101/26 37/102/26 38/103/26 40/104/26
f 33/105/27 34/106/27 38/107/27 37/108/27
f 36/109/28 35/110/28 39/111/28 40/112/28
f 35/113/29 33/114/29 37/115/29 39/116/29
f 40/117/30 38/118/30 34/119/30 36/120/30
o cube6
v -0.03125 0.0625 0.03125
v -0.03125 0.0625 -0.09375
v -0.03125 0 0.03125
v -0.03125 0 -0.09375
v -0.3125 0.046875 0.03125
v -0.3125 0.046875 -0.03125
v -0.3125 0.015625 0.03125
v -0.3125 0.015625 -0.03125
vt 0.34375 0.28125
vt 0.34375 0.3125
vt 0.28125 0.3125
vt 0.28125 0.28125
vt 0.53125 0.25
vt 0.53125 0.28125
vt 0.5 0.28125
vt 0.5 0.25
vt 0.5625 0.8125
vt 0.5 0.8125
vt 0.53125 0.65625
vt 0.5625 0.65625
vt 0.5 0.46875
vt 0.5625 0.46875
vt 0.5625 0.625
vt 0.53125 0.625
vt 0.42849584476400315 0.34379811396233084
vt 0.430229282877207 0.375
vt 0.2893874361793949 0.375
vt 0.288520717122793 0.35939905698116537
vt 0.6241538455916529 0.40625
vt 0.625 0.4218979280953702
vt 0.4815813354866306 0.4375
vt 0.4798890266699365 0.40625
vn 1 0 0
vn -1 0 0
vn -0.05547001962252291 0.9984603532054125 0
vn -0.05547001962252291 -0.9984603532054125 0
vn 0 0 1
vn -0.21693045781865616 0 -0.9761870601839528
usemtl m_880b0ce8-0312-f527-6815-3ca4fee88429
f 44/121/31 42/122/31 41/123/31 43/124/31
f 47/125/32 45/126/32 46/127/32 48/128/32
f 41/129/33 42/130/33 46/131/33 45/132/33
f 44/133/34 43/134/34 47/135/34 48/136/34
f 43/137/35 41/138/35 45/139/35 47/140/35
f 48/141/36 46/142/36 42/143/36 44/144/36
o cube3
v 0.3125 0.671875 0.03125
v 0.3125 0.671875 -0.03125
v 0.3125 0.640625 0.03125
v 0.3125 0.640625 -0.03125
v 0.03125 0.6875 0.03125
v 0.03125 0.6875 -0.09375
v 0.03125 0.625 0.03125
v 0.03125 0.625 -0.09375
vt 0.71875 0.34375
vt 0.71875 0.375
vt 0.6875 0.375
vt 0.6875 0.34375
vt 0.0625 0.28125
vt 0.0625 0.3125
vt 0 0.3125
vt 0 0.28125
vt 0.40625 0.65625
vt 0.4375 0.65625
vt 0.46875 0.8125
vt 0.40625 0.8125
vt 0.4375 0.625
vt 0.40625 0.625
vt 0.40625 0.46875
vt 0.46875 0.46875
vt 0.7418625638206051 0.71875
vt 0.742729282877207 0.7343990569811654
vt 0.6027541552359968 0.75
vt 0.601020717122793 0.71875
vt 0.7371686645133694 0.7812958561907406
vt 0.7388609733300635 0.8125
vt 0.594596154408347 0.8125
vt 0.59375 0.7968979280953703
vn 1 0 0
vn -1 0 0
vn 0.05547001962252291 0.9984603532054125 0
vn 0.05547001962252291 -0.9984603532054125 0
vn 0 0 1
vn 0.21693045781865616 0 -0.9761870601839528
usemtl m_880b0ce8-0312-f527-6815-3ca4fee88429
f 52/145/37 50/146/37 49/147/37 51/148/37
f 55/149/38 53/150/38 54/151/38 56/152/38
f 49/153/39 50/154/39 54/155/39 53/156/39
f 52/157/40 51/158/40 55/159/40 56/160/40
f 51/161/41 49/162/41 53/163/41 55/164/41
f 56/165/42 54/166/42 50/167/42 52/168/42