# Made in Blockbench 4.12.1
mtllib meteor.mtl

o cylinder
v -0.1875000000000004 0.07766504294495465 -3.125
v -0.07766504294495571 0.1874999999999993 -3.125
v -3.3677786976552215e-16 -6.106226635438361e-16 -2.75
v -0.1874999999999997 0.07766504294495591 2.5625
v -0.077665042944955 0.18750000000000056 2.5625
v -0.062499999999999556 0.12500000000000072 3.1875
v -0.12499999999999961 0.06250000000000071 3.1875
v 4.3628042219624456e-16 7.91033905045424e-16 3.5625
v -0.1875000000000004 -0.07766504294495602 -3.125
v -0.1874999999999997 -0.07766504294495476 2.5625
v -0.12499999999999961 -0.062499999999999285 3.1875
v -0.07766504294495574 -0.1875000000000007 -3.125
v -0.07766504294495503 -0.18749999999999944 2.5625
v -0.06249999999999964 -0.12499999999999929 3.1875
v 0.07766504294495492 -0.18750000000000072 -3.125
v 0.07766504294495563 -0.18749999999999944 2.5625
v 0.06250000000000037 -0.12499999999999929 3.1875
v 0.18749999999999958 -0.07766504294495614 -3.125
v 0.18750000000000028 -0.07766504294495488 2.5625
v 0.1250000000000004 -0.062499999999999334 3.1875
v 0.1874999999999996 0.07766504294495467 -3.125
v 0.1875000000000003 0.07766504294495594 2.5625
v 0.1250000000000004 0.06250000000000067 3.1875
v 0.07766504294495506 0.18749999999999928 -3.125
v 0.07766504294495577 0.18750000000000056 2.5625
v 0.06250000000000044 0.12500000000000072 3.1875
v -0.07766504294495497 0.17187500000000067 2.9375
v 0.07766504294495581 0.17187500000000067 2.9375
v -0.17187499999999964 0.07766504294495599 2.9375
v -0.07766504294495499 -0.17187499999999933 2.9375
v -0.17187499999999964 -0.07766504294495467 2.9375
v 0.07766504294495567 -0.17187499999999933 2.9375
v 0.17187500000000036 0.07766504294495602 2.9375
v 0.17187500000000036 -0.0776650429449548 2.9375
vt 0.4262216389674932 0.4488488143494519
vt 0.4453125 0.4453125
vt 0.4453125 0.49861184741223685
vt 0 0.1640625
vt 0.019415625 0.1640625
vt 0.019415625 0.875
vt 0 0.875
vt 0.004183593749999999 0.95028203125
vt 0.01523203125 0.95028203125
vt 0.0097078125 1
vt 0.4943608194837466 0.6519738143494519
vt 0.5134516805162535 0.6484375
vt 0.5134516805162533 0.7017368474122369
vt 0.1229890625 0.1640625
vt 0.1424046875 0.1640625
vt 0.1424046875 0.875
vt 0.1229890625 0.875
vt 0.12488437499999999 0.95058984375
vt 0.140509375 0.95058984375
vt 0.132696875 1
vt 0.515625 0.5504113143494519
vt 0.5347158610325068 0.546875
vt 0.5347158610325068 0.6001743474122369
vt 0.027228125 0.1640625
vt 0.04664375 0.1640625
vt 0.04664375 0.875
vt 0.027228125 0.875
vt 0.03141171875 0.95028203125
vt 0.04246015625 0.95028203125
vt 0.036935937499999995 1
vt 0.42256907629388163 0.5269033610325068
vt 0.4261053906433335 0.5078125
vt 0.47586842370611837 0.5269033610325068
vt 0.2167390625 0.1640625
vt 0.2361546875 0.1640625
vt 0.2361546875 0.875
vt 0.2167390625 0.875
vt 0.218634375 0.95058984375
vt 0.234259375 0.95058984375
vt 0.226446875 1
vt 0.5277841389674932 0.7144738143494519
vt 0.546875 0.7109375
vt 0.546875 0.7642368474122369
vt 0.09375 0.1640625
vt 0.11316562499999999 0.1640625
vt 0.11316562499999999 0.875
vt 0.09375 0.875
vt 0.09793359374999999 0.95028203125
vt 0.10898203125 0.95028203125
vt 0.1034578125 1
vt 0.4943608194837466 0.5894738143494519
vt 0.5134516805162535 0.5859375
vt 0.5134516805162533 0.6392368474122369
vt 0.1542390625 0.1640625
vt 0.1736546875 0.1640625
vt 0.1736546875 0.875
vt 0.1542390625 0.875
vt 0.156134375 0.95058984375
vt 0.171759375 0.95058984375
vt 0.163946875 1
vt 0.5234375 0.6987783610325068
vt 0.5269738143494519 0.6796875
vt 0.5767368474122367 0.6987783610325068
vt 0.058478125 0.1640625
vt 0.07789374999999998 0.1640625
vt 0.07789374999999998 0.875
vt 0.058478125 0.875
vt 0.06266171875000001 0.95028203125
vt 0.07371015624999999 0.95028203125
vt 0.06818593749999999 1
vt 0.4943608194837466 0.7144738143494519
vt 0.5134516805162535 0.7109375
vt 0.5134516805162533 0.7642368474122369
vt 0.1854890625 0.1640625
vt 0.2049046875 0.1640625
vt 0.2049046875 0.875
vt 0.1854890625 0.875
vt 0.187384375 0.95058984375
vt 0.203009375 0.95058984375
vt 0.195196875 1
vt 0.2049046875 0.921875
vt 0.1854890625 0.921875
vt 0.1854890625 0.874959375
vt 0.2049046875 0.874959375
vt 0.01803515625 0.921875
vt 0.0013804687499999989 0.921875
vt 0 0.8749796875
vt 0.019415625 0.8749796875
vt 0.04526328125 0.921875
vt 0.02860859375 0.921875
vt 0.027228125 0.8749796875
vt 0.04664375 0.8749796875
vt 0.2361546875 0.921875
vt 0.2167390625 0.921875
vt 0.2167390625 0.874959375
vt 0.2361546875 0.874959375
vt 0.1424046875 0.921875
vt 0.1229890625 0.921875
vt 0.1229890625 0.874959375
vt 0.1424046875 0.874959375
vt 0.07651328125000001 0.921875
vt 0.05985859375 0.921875
vt 0.058478125 0.8749796875
vt 0.07789374999999998 0.8749796875
vt 0.1736546875 0.921875
vt 0.1542390625 0.921875
vt 0.1542390625 0.874959375
vt 0.1736546875 0.874959375
vt 0.11178515624999999 0.921875
vt 0.09513046875 0.921875
vt 0.09375 0.8749796875
vt 0.11316562499999999 0.8749796875
vt 0.203009375 0.953125
vt 0.187384375 0.953125
vt 0.1854890625 0.92133046875
vt 0.2049046875 0.92133046875
vt 0.07371015624999999 0.953125
vt 0.06266171874999998 0.953125
vt 0.05985859375 0.9213968749999999
vt 0.07651328125000001 0.9213968749999999
vt 0.171759375 0.953125
vt 0.156134375 0.953125
vt 0.1542390625 0.92133046875
vt 0.1736546875 0.92133046875
vt 0.10898203125 0.953125
vt 0.09793359374999999 0.953125
vt 0.09513046875 0.9213968749999999
vt 0.11178515624999999 0.9213968749999999
vt 0.234259375 0.953125
vt 0.218634375 0.953125
vt 0.2167390625 0.92133046875
vt 0.2361546875 0.92133046875
vt 0.04246015625 0.953125
vt 0.03141171875 0.953125
vt 0.02860859375 0.9213968749999999
vt 0.04526328125 0.9213968749999999
vt 0.140509375 0.953125
vt 0.12488437499999999 0.953125
vt 0.1229890625 0.92133046875
vt 0.1424046875 0.92133046875
vt 0.01523203125 0.953125
vt 0.004183593749999999 0.953125
vt 0.0013804687499999989 0.9213968749999999
vt 0.01803515625 0.9213968749999999
vn 0.6324555320336759 -0.632455532033676 -0.44721359549995787
vn -0.7071067811865476 0.7071067811865476 -7.049248131030748e-17
vn -0.6666666666666665 0.6666666666666669 0.3333333333333332
vn 0.894427190999916 0 -0.4472135954999581
vn -1 0 1.2246467991473532e-16
vn -0.9486832980505138 0 0.31622776601683805
vn 0.632455532033676 0.6324555320336758 -0.4472135954999581
vn -0.7071067811865476 -0.7071067811865475 2.4368369255740617e-16
vn -0.6666666666666669 -0.6666666666666665 0.33333333333333354
vn 1.0505526675555232e-16 0.8944271909999159 -0.4472135954999581
vn -1.7868769888726206e-16 -1 2.2448465552860307e-16
vn 3.872673214540389e-17 -0.9486832980505138 0.3162277660168381
vn -0.6324555320336755 0.6324555320336761 -0.4472135954999581
vn 0.7071067811865472 -0.7071067811865478 7.049248131030758e-17
vn 0.6666666666666663 -0.666666666666667 0.3333333333333334
vn -0.8944271909999161 1.5982313658197247e-16 -0.44721359549995787
vn 1 -1.786876988872619e-16 -1.2246467991473527e-16
vn 0.948683298050514 0 0.3162277660168379
vn -0.6324555320336761 -0.6324555320336758 -0.4472135954999578
vn 0.7071067811865477 0.7071067811865474 -2.456472936440795e-16
vn 0.6666666666666673 0.6666666666666661 0.3333333333333332
vn -2.1459100640839279e-16 -0.8944271909999161 -0.44721359549995776
vn 1.7868769888726194e-16 1 -2.1960455432145954e-16
vn 3.8726732145403855e-17 0.9486832980505139 0.3162277660168378
vn 5.098271332853328e-18 0.9991330730923521 0.04163054471218104
vn -0.7068000768645126 0.7068000768645126 0.029450003202687893
vn -0.7068000768645126 -0.7068000768645125 0.029450003202688285
vn 5.098271332853401e-18 -0.9991330730923521 0.04163054471218164
vn -0.9991330730923521 0 0.041630544712181465
vn 0.7068000768645128 0.7068000768645122 0.029450003202687813
vn 0.9991330730923521 0 0.04163054471218114
vn 0.706800076864512 -0.7068000768645131 0.029450003202688153
vn 2.256883645687641e-17 0.9828721869343221 0.18428853505018516
vn 0.6964653878846839 0.6964653878846827 0.17283497029616296
vn 0.9828721869343219 0 0.18428853505018525
vn 0.6964653878846828 -0.6964653878846836 0.17283497029616302
vn 2.256883645687645e-17 -0.9828721869343219 0.18428853505018553
vn -0.6964653878846834 -0.696465387884683 0.17283497029616313
vn -0.9828721869343219 0 0.18428853505018547
vn -0.696465387884683 0.6964653878846835 0.17283497029616296
usemtl m_9b41bc1f-bbd7-421a-ff1c-a02ea60b3deb
f 1/1/1 2/2/1 3/3/1
f 2/4/2 1/5/2 4/6/2 5/7/2
f 6/8/3 7/9/3 8/10/3
f 9/11/4 1/12/4 3/13/4
f 1/14/5 9/15/5 10/16/5 4/17/5
f 7/18/6 11/19/6 8/20/6
f 12/21/7 9/22/7 3/23/7
f 9/24/8 12/25/8 13/26/8 10/27/8
f 11/28/9 14/29/9 8/30/9
f 15/31/10 12/32/10 3/33/10
f 12/34/11 15/35/11 16/36/11 13/37/11
f 14/38/12 17/39/12 8/40/12
f 18/41/13 15/42/13 3/43/13
f 15/44/14 18/45/14 19/46/14 16/47/14
f 17/48/15 20/49/15 8/50/15
f 21/51/16 18/52/16 3/53/16
f 18/54/17 21/55/17 22/56/17 19/57/17
f 20/58/18 23/59/18 8/60/18
f 24/61/19 21/62/19 3/63/19
f 21/64/20 24/65/20 25/66/20 22/67/20
f 23/68/21 26/69/21 8/70/21
f 2/71/22 24/72/22 3/73/22
f 24/74/23 2/75/23 5/76/23 25/77/23
f 26/78/24 6/79/24 8/80/24
f 27/81/25 28/82/25 25/83/25 5/84/25
f 29/85/26 27/86/26 5/87/26 4/88/26
f 30/89/27 31/90/27 10/91/27 13/92/27
f 32/93/28 30/94/28 13/95/28 16/96/28
f 31/97/29 29/98/29 4/99/29 10/100/29
f 28/101/30 33/102/30 22/103/30 25/104/30
f 33/105/31 34/106/31 19/107/31 22/108/31
f 34/109/32 32/110/32 16/111/32 19/112/32
f 6/113/33 26/114/33 28/115/33 27/116/33
f 26/117/34 23/118/34 33/119/34 28/120/34
f 23/121/35 20/122/35 34/123/35 33/124/35
f 20/125/36 17/126/36 32/127/36 34/128/36
f 17/129/37 14/130/37 30/131/37 32/132/37
f 14/133/38 11/134/38 31/135/38 30/136/38
f 11/137/39 7/138/39 29/139/39 31/140/39
f 7/141/40 6/142/40 27/143/40 29/144/40
o cuboid
v -0.06249999999999992 -0.1875 0.6875
v -0.06250000000000036 -0.1875 -3
v -0.06250000000000036 -0.25 -3
v -0.06249999999999992 -0.25 0.6875
v 0.06249999999999963 -0.25 -3
v 0.06249999999999963 -0.1875 -3
v 0.06250000000000008 -0.1875 0.6875
v 0.06250000000000008 -0.25 0.6875
v -0.06250000000000039 -0.21875 -3.125
v -0.06250000000000039 -0.1875 -3.125
v 0.06249999999999962 -0.1875 -3.125
v 0.06249999999999962 -0.21875 -3.125
v 0.0625000000000001 -0.125 0.8125
v -0.0624999999999999 -0.125 0.8125
v -0.0312499999999999 -0.1875 0.8125
v 0.0312500000000001 -0.1875 0.8125
vt 0.730228125 0.7881921875
vt 0.269290625 0.7881921875
vt 0.269290625 0.7803796875
vt 0.730228125 0.7803796875
vt 0.7305171875 0.8103281250000001
vt 0.7305171875 0.8181406250000001
vt 0.2695796875 0.8181406250000001
vt 0.2695796875 0.8103281250000001
vt 0.2734375 0.28721874999999997
vt 0.2890625 0.28721874999999997
vt 0.2890625 0.74815625
vt 0.2734375 0.74815625
vt 0.265625 0.28309453124999995
vt 0.265625 0.74403203125
vt 0.25 0.74403203125
vt 0.25 0.28309453124999995
vt 0.328125 0.953125
vt 0.328125 0.9609375
vt 0.3125 0.9609375
vt 0.3125 0.953125
vt 0.328125 0.921875
vt 0.3125 0.921875
vt 0.31640625 0.9140625
vt 0.32421875 0.9140625
vt 0.2890625 0.765625
vt 0.2734375 0.765625
vt 0.2734375 0.74815625
vt 0.2890625 0.74815625
vt 0.746334375 0.7881921875
vt 0.7453867187500001 0.796875
vt 0.730228125 0.7881921875
vt 0.730228125 0.7811625
vt 0.25390625 0.265625
vt 0.26171875 0.265625
vt 0.265625 0.28309453124999995
vt 0.25 0.28309453124999995
vt 0.2556046875 0.828125
vt 0.2538578125 0.81956640625
vt 0.2695796875 0.81100859375
vt 0.2695796875 0.8181406250000001
vt 0.253665625 0.7881921875
vt 0.253665625 0.7842859375
vt 0.269290625 0.7803796875
vt 0.269290625 0.7881921875
vt 0.2734375 0.27159374999999997
vt 0.2890625 0.27159374999999997
vt 0.2890625 0.28721874999999997
vt 0.2734375 0.28721874999999997
vt 0.7461421875 0.8142343750000001
vt 0.7461421875 0.8181406250000001
vt 0.7305171875 0.8181406250000001
vt 0.7305171875 0.8103281250000001
vt 0.265625 0.7601382812499999
vt 0.25 0.7601382812499999
vt 0.25 0.74403203125
vt 0.265625 0.74403203125
vn -1 0 1.2246467991473532e-16
vn 1 0 -1.2246467991473532e-16
vn 0 1 0
vn 0 -1 0
vn -1.2246467991473532e-16 0 -1
vn 1.2246467991473532e-16 0 1
vn -5.4767869826420275e-17 0.8944271909999161 -0.44721359549995804
vn -0.8728715609439696 -0.4364357804719848 0.2182178902359925
vn 5.4767869826420275e-17 -0.8944271909999161 0.44721359549995804
vn 0.8164965809277261 -0.4082482904638631 0.40824829046386296
vn -1 0 1.2246467991473532e-16
vn 0 1 0
vn 1 0 -1.2246467991473532e-16
vn -2.970204768799478e-17 -0.9701425001453319 -0.24253562503633297
usemtl m_9b41bc1f-bbd7-421a-ff1c-a02ea60b3deb
f 35/145/41 36/146/41 37/147/41 38/148/41
f 39/149/42 40/150/42 41/151/42 42/152/42
f 40/153/43 36/154/43 35/155/43 41/156/43
f 38/157/44 37/158/44 39/159/44 42/160/44
f 43/161/45 44/162/45 45/163/45 46/164/45
f 47/165/46 48/166/46 49/167/46 50/168/46
f 48/169/47 47/170/47 41/171/47 35/172/47
f 49/173/48 48/174/48 35/175/48 38/176/48
f 50/177/49 49/178/49 38/179/49 42/180/49
f 47/181/50 50/182/50 42/183/50 41/184/50
f 44/185/51 43/186/51 37/187/51 36/188/51
f 45/189/52 44/190/52 36/191/52 40/192/52
f 46/193/53 45/194/53 40/195/53 39/196/53
f 43/197/54 46/198/54 39/199/54 37/200/54
o plane
v 0.1436310649285174 0.12800606492851674 -3.125
v 0.1436310649285174 0.1280060649285168 -2.609375
v 0.24306795603287562 0.22744295603287507 -2.609375
v 0.24306795603287562 0.227442956032875 -3.125
v 0.4750873686097115 0.4594623686097109 -3.03125
v 0.4750873686097115 0.4594623686097109 -3.125
vt 0.482421875 0.701171875
vt 0.482421875 0.765625
vt 0.46484375 0.765625
vt 0.46484375 0.701171875
vt 0.46484375 0.765625
vt 0.423828125 0.712890625
vt 0.423828125 0.701171875
vt 0.46484375 0.701171875
vn -0.7071067811865477 0.7071067811865474 -6.565578430942277e-17
vn -0.7071067811865472 0.7071067811865478 8.659560562354929e-17
usemtl m_9b41bc1f-bbd7-421a-ff1c-a02ea60b3deb
f 51/201/55 52/202/55 53/203/55 54/204/55
f 53/205/56 55/206/56 56/207/56 54/208/56
o plane1
v 0.1436310649285174 -0.15925606492851824 -3.125
v 0.1436310649285174 -0.15925606492851818 -2.609375
v 0.24306795603287562 -0.2586929560328764 -2.609375
v 0.24306795603287562 -0.25869295603287645 -3.125
v 0.4750873686097115 -0.49071236860971235 -3.03125
v 0.4750873686097115 -0.49071236860971235 -3.125
vt 0.482421875 0.623046875
vt 0.482421875 0.6875
vt 0.46484375 0.6875
vt 0.46484375 0.623046875
vt 0.46484375 0.6875
vt 0.423828125 0.634765625
vt 0.423828125 0.623046875
vt 0.46484375 0.623046875
vn 0.7071067811865476 0.7071067811865476 -8.659560562354934e-17
vn 0.7071067811865476 0.7071067811865476 -8.659560562354934e-17
usemtl m_9b41bc1f-bbd7-421a-ff1c-a02ea60b3deb
f 57/209/57 58/210/57 59/211/57 60/212/57
f 59/213/58 61/214/58 62/215/58 60/216/58
o plane2
v -0.14363106492851752 -0.15925606492851824 -3.125
v -0.14363106492851752 -0.15925606492851818 -2.609375
v -0.24306795603287573 -0.25869295603287645 -2.609375
v -0.24306795603287573 -0.2586929560328765 -3.125
v -0.4750873686097116 -0.49071236860971246 -3.03125
v -0.4750873686097116 -0.49071236860971246 -3.125
vt 0.482421875 0.544921875
vt 0.482421875 0.609375
vt 0.46484375 0.609375
vt 0.46484375 0.544921875
vt 0.46484375 0.609375
vt 0.423828125 0.556640625
vt 0.423828125 0.544921875
vt 0.46484375 0.544921875
vn 0.7071067811865477 -0.7071067811865474 6.565578430942277e-17
vn 0.7071067811865478 -0.7071067811865472 -8.659560562354937e-17
usemtl m_9b41bc1f-bbd7-421a-ff1c-a02ea60b3deb
f 63/217/59 64/218/59 65/219/59 66/220/59
f 65/221/60 67/222/60 68/223/60 66/224/60
o plane3
v -0.14363106492851752 0.12800606492851674 -3.125
v -0.14363106492851752 0.1280060649285168 -2.609375
v -0.24306795603287573 0.22744295603287507 -2.609375
v -0.24306795603287573 0.227442956032875 -3.125
v -0.4750873686097116 0.459462368609711 -3.03125
v -0.4750873686097116 0.459462368609711 -3.125
vt 0.521484375 0.474609375
vt 0.521484375 0.5390625
vt 0.50390625 0.5390625
vt 0.50390625 0.474609375
vt 0.50390625 0.5390625
vt 0.462890625 0.486328125
vt 0.462890625 0.474609375
vt 0.50390625 0.474609375
vn -0.7071067811865477 -0.7071067811865474 8.659560562354932e-17
vn -0.7071067811865478 -0.7071067811865472 8.659560562354937e-17
usemtl m_9b41bc1f-bbd7-421a-ff1c-a02ea60b3deb
f 69/225/61 70/226/61 71/227/61 72/228/61
f 71/229/62 73/230/62 74/231/62 72/232/62
o cube1
v 0.08838834764831867 0.17677669529663687 1.75
v 0.08843254182214282 0.176820889470461 1.75
v 0.08843254182214279 0.176820889470461 1.5
v 0.08838834764831864 0.17677669529663687 1.5
v 0.1767766952966371 0.08838834764831843 1.5
v 0.17682088947046123 0.08843254182214258 1.5
v 0.17682088947046126 0.08843254182214258 1.75
v 0.17677669529663712 0.08838834764831843 1.75
vt 0.1328125 0.1328125
vt 0.1328125 0.1484375
vt 0.1171875 0.1484375
vt 0.1171875 0.1328125
vt 0.109375 0.1328125
vt 0.109375 0.1484375
vt 0.09375 0.1484375
vt 0.09375 0.1328125
vt 0.015625 0.1328125
vt 0.015625 0.1484375
vt 0 0.1484375
vt 0 0.1328125
vt 0.0859375 0.1328125
vt 0.0859375 0.1484375
vt 0.0703125 0.1484375
vt 0.0703125 0.1328125
vt 0.0625 0.1328125
vt 0.0625 0.1484375
vt 0.046875 0.1484375
vt 0.046875 0.1328125
vt 0.0390625 0.1328125
vt 0.0390625 0.1484375
vt 0.0234375 0.1484375
vt 0.0234375 0.1328125
vn -0.7071067811865476 0.7071067811865476 8.659560562354934e-17
vn 0.7071067811865476 -0.7071067811865476 -8.659560562354934e-17
vn 0.7071067811865476 0.7071067811865476 -8.659560562354934e-17
vn -0.7071067811865476 -0.7071067811865476 8.659560562354934e-17
vn -1.2246467991473532e-16 0 -1
vn 1.2246467991473532e-16 0 1
usemtl m_9b41bc1f-bbd7-421a-ff1c-a02ea60b3deb
f 75/233/63 76/234/63 77/235/63 78/236/63
f 79/237/64 80/238/64 81/239/64 82/240/64
f 77/241/65 76/242/65 81/243/65 80/244/65
f 75/245/66 78/246/66 79/247/66 82/248/66
f 78/249/67 77/250/67 80/251/67 79/252/67
f 82/253/68 81/254/68 76/255/68 75/256/68
o cube2
v -0.17677669529663667 0.08838834764831843 1.75
v -0.17682088947046082 0.08843254182214258 1.75
v -0.17682088947046085 0.08843254182214258 1.5
v -0.1767766952966367 0.08838834764831843 1.5
v -0.08838834764831828 0.17677669529663687 1.5
v -0.08843254182214243 0.176820889470461 1.5
v -0.0884325418221424 0.176820889470461 1.75
v -0.08838834764831825 0.17677669529663687 1.75
vt 0.1328125 0.1328125
vt 0.1328125 0.1484375
vt 0.1171875 0.1484375
vt 0.1171875 0.1328125
vt 0.109375 0.1328125
vt 0.109375 0.1484375
vt 0.09375 0.1484375
vt 0.09375 0.1328125
vt 0.015625 0.1328125
vt 0.015625 0.1484375
vt 0 0.1484375
vt 0 0.1328125
vt 0.0859375 0.1328125
vt 0.0859375 0.1484375
vt 0.0703125 0.1484375
vt 0.0703125 0.1328125
vt 0.0625 0.1328125
vt 0.0625 0.1484375
vt 0.046875 0.1484375
vt 0.046875 0.1328125
vt 0.0390625 0.1328125
vt 0.0390625 0.1484375
vt 0.0234375 0.1484375
vt 0.0234375 0.1328125
vn -0.7071067811865476 -0.7071067811865476 8.659560562354934e-17
vn 0.7071067811865476 0.7071067811865476 -8.659560562354934e-17
vn -0.7071067811865476 0.7071067811865476 8.659560562354934e-17
vn 0.7071067811865476 -0.7071067811865476 -8.659560562354934e-17
vn -1.2246467991473532e-16 0 -1
vn 1.2246467991473532e-16 0 1
usemtl m_9b41bc1f-bbd7-421a-ff1c-a02ea60b3deb
f 83/257/69 84/258/69 85/259/69 86/260/69
f 87/261/70 88/262/70 89/263/70 90/264/70
f 85/265/71 84/266/71 89/267/71 88/268/71
f 83/269/72 86/270/72 87/271/72 90/272/72
f 86/273/73 85/274/73 88/275/73 87/276/73
f 90/277/74 89/278/74 84/279/74 83/280/74
o cube3
v 0.220970869120796 -0.3535533905932738 -1.125
v 0.2209708691207961 -0.3535533905932738 -0.12500000000000003
v 0.06629126073623882 -0.19887378220871652 -0.125
v 0.0662912607362387 -0.19887378220871652 -1.125
v 0.33145630368119416 -0.2430679560328757 -0.12500000000000003
v 0.33145630368119405 -0.2430679560328757 -1.125
v 0.17677669529663673 -0.08838834764831843 -1.125
v 0.17677669529663684 -0.08838834764831843 -0.12500000000000003
v 0.24306795603287534 -0.15467960838455727 -3.125
v 0.13258252147247732 -0.26516504294495535 -3.125
v 0.06629126073623845 -0.19887378220871652 -3.125
v 0.17677669529663648 -0.08838834764831843 -3.125
v 0.22097086912079614 -0.3535533905932738 -2.706112675735917e-17
v 0.33145630368119416 -0.2430679560328757 -4.059169013603875e-17
v 0.13258252147247765 -0.044194173824159216 -0.12500000000000003
v 0.022097086912079608 -0.1546796083845573 -0.125
v 0.06629126073623857 -0.19887378220871652 -2.1875
v 0.13258252147247743 -0.26516504294495535 -2.1875
v 0.24306795603287545 -0.15467960838455727 -2.1875
v 0.1767766952966366 -0.08838834764831843 -2.1875
vt 0.390625 1
vt 0.265625 1
vt 0.265625 0.97265625
vt 0.390625 0.97265625
vt 0.625 0.9609375
vt 0.5 0.9609375
vt 0.5 0.93359375
vt 0.625 0.93359375
vt 0.318359375 0.75
vt 0.298828125 0.75
vt 0.298828125 0.625
vt 0.318359375 0.625
vt 0.380859375 0.515625
vt 0.361328125 0.515625
vt 0.361328125 0.390625
vt 0.380859375 0.390625
vt 0.2734375 0.921875
vt 0.25 0.921875
vt 0.25 0.90625
vt 0.2734375 0.90625
vt 0.546875 0.671875
vt 0.5234375 0.671875
vt 0.5234375 0.6328125
vt 0.546875 0.6328125
vt 0.390625 0.97265625
vt 0.5234375 0.97265625
vt 0.5234375 0.984375
vt 0.390625 1
vt 0.298828125 0.625
vt 0.298828125 0.49127109375
vt 0.318359375 0.49127109375
vt 0.318359375 0.625
vt 0.5 0.9609375
vt 0.3671875 0.9453125
vt 0.3671875 0.93359375
vt 0.5 0.93359375
vt 0.380859375 0.515625
vt 0.380859375 0.6484375
vt 0.361328125 0.6484375
vt 0.361328125 0.515625
vt 0.5234375 0.97265625
vt 0.640625 0.97265625
vt 0.640625 0.984375
vt 0.5234375 0.984375
vt 0.298828125 0.49127109375
vt 0.298828125 0.37408359375
vt 0.318359375 0.37408359375
vt 0.318359375 0.49127109375
vt 0.3671875 0.9453125
vt 0.25 0.9453125
vt 0.25 0.93359375
vt 0.3671875 0.93359375
vt 0.380859375 0.6484375
vt 0.380859375 0.765625
vt 0.361328125 0.765625
vt 0.361328125 0.6484375
vt 0.318359375 0.765625
vt 0.298828125 0.765625
vt 0.298828125 0.75
vt 0.318359375 0.75
vt 0.625 0.92578125
vt 0.640625 0.9609375
vt 0.625 0.9609375
vt 0.625 0.93359375
vt 0.28125 0.953125
vt 0.3046875 0.953125
vt 0.3046875 0.9609375
vt 0.28125 0.9609375
vt 0.265625 0.97265625
vt 0.25 1
vt 0.265625 0.96484375
vt 0.265625 1
vn -0.7071067811865475 -0.7071067811865476 8.659560562354932e-17
vn 0.7071067811865475 0.7071067811865476 -8.659560562354932e-17
vn 0.7071067811865477 -0.7071067811865474 -8.659560562354935e-17
vn -0.7071067811865477 0.7071067811865474 8.659560562354935e-17
vn -1.2246467991473532e-16 0 -1
vn -0.28718326344709516 0.28718326344709516 0.9138115486202572
vn -0.7071067811865474 -0.7071067811865477 8.65956056235493e-17
vn 0.7022635270562236 -0.7022635270562234 -0.11684124756739729
vn 0.7071067811865475 0.7071067811865477 -5.1765079360799314e-17
vn -0.7071067811865477 0.7071067811865474 8.659560562354935e-17
vn -0.7071067811865474 -0.7071067811865477 8.65956056235493e-17
vn 0.7071067811865478 -0.7071067811865474 -8.659560562354937e-17
vn 0.7071067811865474 0.7071067811865477 -8.65956056235493e-17
vn -0.7071067811865478 0.7071067811865474 8.659560562354937e-17
vn 0.7071067811865477 -0.7071067811865474 -8.659560562354935e-17
vn 0.7071067811865476 0.7071067811865476 -8.659560562354934e-17
vn -1.2246467991473532e-16 0 -1
vn -0.7071067811865476 -0.7071067811865476 3.086402105485807e-16
usemtl m_9b41bc1f-bbd7-421a-ff1c-a02ea60b3deb
f 91/281/75 92/282/75 93/283/75 94/284/75
f 95/285/76 96/286/76 97/287/76 98/288/76
f 95/289/77 92/290/77 91/291/77 96/292/77
f 97/293/78 94/294/78 93/295/78 98/296/78
f 99/297/79 100/298/79 101/299/79 102/300/79
f 103/301/80 104/302/80 105/303/80 106/304/80
f 94/305/81 107/306/81 108/307/81 91/308/81
f 91/309/82 108/310/82 109/311/82 96/312/82
f 96/313/83 109/314/83 110/315/83 97/316/83
f 97/317/84 110/318/84 107/319/84 94/320/84
f 107/321/85 101/322/85 100/323/85 108/324/85
f 108/325/86 100/326/86 99/327/86 109/328/86
f 109/329/87 99/330/87 102/331/87 110/332/87
f 110/333/88 102/334/88 101/335/88 107/336/88
f 104/337/89 103/338/89 92/339/89 95/340/89
f 105/341/90 104/342/90 95/343/90 98/344/90
f 106/345/91 105/346/91 98/347/91 93/348/91
f 93/349/92 103/350/92 106/351/92 92/352/92
o cube4
v -0.06629126073623885 -0.19887378220871652 -0.12499999999999999
v -0.22097086912079617 -0.3535533905932738 -0.12499999999999997
v -0.22097086912079628 -0.3535533905932738 -1.125
v -0.06629126073623898 -0.19887378220871652 -1.125
v -0.176776695296637 -0.08838834764831843 -1.125
v -0.3314563036811943 -0.2430679560328757 -1.125
v -0.33145630368119416 -0.2430679560328757 -0.12499999999999996
v -0.1767766952966369 -0.08838834764831843 -0.12499999999999997
v -0.06629126073623923 -0.19887378220871652 -3.125
v -0.1325825214724781 -0.26516504294495535 -3.125
v -0.24306795603287612 -0.15467960838455727 -3.125
v -0.17677669529663725 -0.08838834764831843 -3.125
v -0.1325825214724777 -0.044194173824159216 -0.12499999999999999
v -0.33145630368119416 -0.2430679560328757 4.059169013603875e-17
v -0.22097086912079614 -0.3535533905932738 2.706112675735917e-17
v -0.022097086912079636 -0.1546796083845573 -0.125
v -0.13258252147247798 -0.26516504294495535 -2.1875
v -0.0662912607362391 -0.19887378220871652 -2.1875
v -0.243067956032876 -0.15467960838455727 -2.1875
v -0.17677669529663714 -0.08838834764831843 -2.1875
vt 0.625 0.88671875
vt 0.625 0.9140625
vt 0.5 0.9140625
vt 0.5 0.88671875
vt 0.390625 0.84765625
vt 0.390625 0.875
vt 0.265625 0.875
vt 0.265625 0.84765625
vt 0.349609375 0.625
vt 0.349609375 0.75
vt 0.330078125 0.75
vt 0.330078125 0.625
vt 0.412109375 0.390625
vt 0.412109375 0.515625
vt 0.392578125 0.515625
vt 0.392578125 0.390625
vt 0.3046875 0.90625
vt 0.3046875 0.921875
vt 0.28125 0.921875
vt 0.28125 0.90625
vt 0.5546875 0.5
vt 0.5546875 0.5390625
vt 0.53125 0.5390625
vt 0.53125 0.5
vt 0.3671875 0.8984375
vt 0.3671875 0.88671875
vt 0.5 0.88671875
vt 0.5 0.9140625
vt 0.330078125 0.49127109375
vt 0.349609375 0.49127109375
vt 0.349609375 0.625
vt 0.330078125 0.625
vt 0.5234375 0.84765625
vt 0.5234375 0.859375
vt 0.390625 0.875
vt 0.390625 0.84765625
vt 0.412109375 0.6484375
vt 0.392578125 0.6484375
vt 0.392578125 0.515625
vt 0.412109375 0.515625
vt 0.25 0.8984375
vt 0.25 0.88671875
vt 0.3671875 0.88671875
vt 0.3671875 0.8984375
vt 0.330078125 0.37408359375
vt 0.349609375 0.37408359375
vt 0.349609375 0.49127109375
vt 0.330078125 0.49127109375
vt 0.640625 0.84765625
vt 0.640625 0.859375
vt 0.5234375 0.859375
vt 0.5234375 0.84765625
vt 0.412109375 0.765625
vt 0.392578125 0.765625
vt 0.392578125 0.6484375
vt 0.412109375 0.6484375
vt 0.265625 0.84765625
vt 0.25 0.875
vt 0.265625 0.83984375
vt 0.265625 0.875
vt 0.349609375 0.765625
vt 0.330078125 0.765625
vt 0.330078125 0.75
vt 0.349609375 0.75
vt 0.625 0.87890625
vt 0.640625 0.9140625
vt 0.625 0.9140625
vt 0.625 0.88671875
vt 0.28125 0.828125
vt 0.3046875 0.828125
vt 0.3046875 0.8359375
vt 0.28125 0.8359375
vn 0.7071067811865475 -0.7071067811865476 -8.659560562354932e-17
vn -0.7071067811865475 0.7071067811865476 8.659560562354932e-17
vn -0.7071067811865477 -0.7071067811865474 8.659560562354935e-17
vn 0.7071067811865477 0.7071067811865474 -8.659560562354935e-17
vn -1.2246467991473532e-16 0 -1
vn 0.2871832634470955 0.28718326344709516 0.9138115486202572
vn 0.7071067811865474 -0.7071067811865477 -8.65956056235493e-17
vn -0.7022635270562237 -0.7022635270562234 -0.1168412475673971
vn -0.7071067811865474 0.7071067811865477 1.040108687549243e-16
vn 0.7071067811865477 0.7071067811865474 -8.659560562354935e-17
vn 0.7071067811865474 -0.7071067811865477 -8.65956056235493e-17
vn -0.7071067811865478 -0.7071067811865474 8.659560562354937e-17
vn -0.7071067811865474 0.7071067811865477 8.65956056235493e-17
vn 0.7071067811865478 0.7071067811865474 -8.659560562354937e-17
vn -0.7071067811865478 0.7071067811865474 -6.905605116140606e-16
vn -0.7071067811865477 -0.7071067811865474 8.659560562354935e-17
vn 0.7071067811865475 -0.7071067811865476 -8.659560562354932e-17
vn -1.2246467991473532e-16 0 -1
usemtl m_9b41bc1f-bbd7-421a-ff1c-a02ea60b3deb
f 111/353/93 112/354/93 113/355/93 114/356/93
f 115/357/94 116/358/94 117/359/94 118/360/94
f 113/361/95 112/362/95 117/363/95 116/364/95
f 111/365/96 114/366/96 115/367/96 118/368/96
f 119/369/97 120/370/97 121/371/97 122/372/97
f 123/373/98 124/374/98 125/375/98 126/376/98
f 127/377/99 128/378/99 114/379/99 113/380/99
f 129/381/100 127/382/100 113/383/100 116/384/100
f 130/385/101 129/386/101 116/387/101 115/388/101
f 128/389/102 130/390/102 115/391/102 114/392/102
f 120/393/103 119/394/103 128/395/103 127/396/103
f 121/397/104 120/398/104 127/399/104 129/400/104
f 122/401/105 121/402/105 129/403/105 130/404/105
f 119/405/106 122/406/106 130/407/106 128/408/106
f 118/409/107 124/410/107 123/411/107 117/412/107
f 125/413/108 124/414/108 117/415/108 112/416/108
f 126/417/109 125/418/109 112/419/109 111/420/109
f 123/421/110 126/422/110 111/423/110 118/424/110