# Made in Blockbench 4.8.3
mtllib naval_cannon.mtl

g barrels
o cylinder2
v 1.125 0.6249999999999989 -5.9375
v 1.125 0.6249999999999999 -1.5625000000000002
v 1.2544417382415922 0.3124999999999989 -5.9375
v 1.2544417382415922 0.3124999999999999 -1.5625
v 1.4375 0.49555826175840667 -5.9375
v 1.4375 0.49555826175840767 -1.5625
v 1.4375 0.7544417382415908 -5.9375
v 1.4375 0.7544417382415918 -1.5625000000000002
v 1.2544417382415922 0.9374999999999989 -5.9375
v 1.2544417382415922 0.9374999999999998 -1.5625000000000002
v 0.9955582617584078 0.9374999999999989 -5.9375
v 0.9955582617584078 0.9374999999999998 -1.5625000000000002
v 0.8125000000000001 0.7544417382415913 -5.9375
v 0.8125000000000001 0.7544417382415923 -1.5625000000000002
v 0.8125 0.49555826175840667 -5.9375
v 0.8125 0.49555826175840767 -1.5625
v 0.9955582617584076 0.3124999999999989 -5.9375
v 0.9955582617584076 0.3124999999999999 -1.5625
vt 0.23046875 0.621371484375
vt 0.219027734375 0.6328125
vt 0.2109375 0.61328125
vt 0.55859375 0.66015625
vt 0.57421875 0.66015625
vt 0.57421875 0.93359375
vt 0.55859375 0.93359375
vt 0.328402734375 0.35546875
vt 0.33984375 0.366909765625
vt 0.3203125 0.375
vt 0.23046875 0.605191015625
vt 0.23046875 0.621371484375
vt 0.2109375 0.61328125
vt 0.55859375 0.66015625
vt 0.57421875 0.66015625
vt 0.57421875 0.93359375
vt 0.55859375 0.93359375
vt 0.33984375 0.366909765625
vt 0.33984375 0.383090234375
vt 0.3203125 0.375
vt 0.219027734375 0.59375
vt 0.23046875 0.605191015625
vt 0.2109375 0.61328125
vt 0.55859375 0.66015625
vt 0.57421875 0.66015625
vt 0.57421875 0.93359375
vt 0.55859375 0.93359375
vt 0.33984375 0.383090234375
vt 0.328402734375 0.39453125
vt 0.3203125 0.375
vt 0.202847265625 0.59375
vt 0.219027734375 0.59375
vt 0.2109375 0.61328125
vt 0.55859375 0.66015625
vt 0.57421875 0.66015625
vt 0.57421875 0.93359375
vt 0.55859375 0.93359375
vt 0.328402734375 0.39453125
vt 0.312222265625 0.39453125
vt 0.3203125 0.375
vt 0.19140625 0.605191015625
vt 0.202847265625 0.59375
vt 0.2109375 0.61328125
vt 0.55859375 0.66015625
vt 0.57421875 0.66015625
vt 0.57421875 0.93359375
vt 0.55859375 0.93359375
vt 0.312222265625 0.39453125
vt 0.30078125 0.383090234375
vt 0.3203125 0.375
vt 0.19140625 0.621371484375
vt 0.19140625 0.605191015625
vt 0.2109375 0.61328125
vt 0.55859375 0.66015625
vt 0.57421875 0.66015625
vt 0.57421875 0.93359375
vt 0.55859375 0.93359375
vt 0.30078125 0.383090234375
vt 0.30078125 0.366909765625
vt 0.3203125 0.375
vt 0.202847265625 0.6328125
vt 0.19140625 0.621371484375
vt 0.2109375 0.61328125
vt 0.55859375 0.66015625
vt 0.57421875 0.66015625
vt 0.57421875 0.93359375
vt 0.55859375 0.93359375
vt 0.30078125 0.366909765625
vt 0.312222265625 0.35546875
vt 0.3203125 0.375
vt 0.219027734375 0.6328125
vt 0.202847265625 0.6328125
vt 0.2109375 0.61328125
vt 0.55859375 0.66015625
vt 0.57421875 0.66015625
vt 0.57421875 0.93359375
vt 0.55859375 0.93359375
vt 0.312222265625 0.35546875
vt 0.328402734375 0.35546875
vt 0.3203125 0.375
vn 0 -2.220446049250313e-16 -1
vn 0.7071067811865476 -0.7071067811865476 1.5700924586837752e-16
vn 0 2.220446049250313e-16 1
vn 0 -2.220446049250313e-16 -1
vn 1 0 0
vn 0 2.220446049250313e-16 1
vn 0 -2.220446049250313e-16 -1
vn 0.7071067811865482 0.7071067811865469 -1.5700924586837737e-16
vn 0 2.220446049250313e-16 1
vn 0 -2.220446049250313e-16 -1
vn 0 1 -2.220446049250313e-16
vn 0 2.220446049250313e-16 1
vn 0 -2.220446049250313e-16 -1
vn -0.7071067811865474 0.7071067811865478 -1.5700924586837757e-16
vn 0 2.220446049250313e-16 1
vn 0 -2.220446049250313e-16 -1
vn -1 4.2885047732942867e-16 -9.522393481052408e-32
vn 0 2.220446049250313e-16 1
vn 0 -2.220446049250313e-16 -1
vn -0.707106781186548 -0.7071067811865471 1.5700924586837742e-16
vn 0 2.220446049250313e-16 1
vn 0 -2.220446049250313e-16 -1
vn 0 -1 2.220446049250313e-16
vn 0 2.220446049250313e-16 1
usemtl m_b502fceb-f5e1-7f8b-04c9-e5a573196ab1
f 5/1/1 3/2/1 1/3/1
f 3/4/2 5/5/2 6/6/2 4/7/2
f 4/8/3 6/9/3 2/10/3
f 7/11/4 5/12/4 1/13/4
f 5/14/5 7/15/5 8/16/5 6/17/5
f 6/18/6 8/19/6 2/20/6
f 9/21/7 7/22/7 1/23/7
f 7/24/8 9/25/8 10/26/8 8/27/8
f 8/28/9 10/29/9 2/30/9
f 11/31/10 9/32/10 1/33/10
f 9/34/11 11/35/11 12/36/11 10/37/11
f 10/38/12 12/39/12 2/40/12
f 13/41/13 11/42/13 1/43/13
f 11/44/14 13/45/14 14/46/14 12/47/14
f 12/48/15 14/49/15 2/50/15
f 15/51/16 13/52/16 1/53/16
f 13/54/17 15/55/17 16/56/17 14/57/17
f 14/58/18 16/59/18 2/60/18
f 17/61/19 15/62/19 1/63/19
f 15/64/20 17/65/20 18/66/20 16/67/20
f 16/68/21 18/69/21 2/70/21
f 3/71/22 17/72/22 1/73/22
f 17/74/23 3/75/23 4/76/23 18/77/23
f 18/78/24 4/79/24 2/80/24
o cylinder4
v 0 0.6249999999999989 -5.9375
v 0 0.6249999999999999 -1.5625000000000002
v 0.12944173824159222 0.3124999999999989 -5.9375
v 0.12944173824159222 0.3124999999999999 -1.5625
v 0.3125 0.49555826175840667 -5.9375
v 0.3125 0.49555826175840767 -1.5625
v 0.3125 0.7544417382415908 -5.9375
v 0.3125 0.7544417382415918 -1.5625000000000002
v 0.12944173824159222 0.9374999999999989 -5.9375
v 0.12944173824159222 0.9374999999999998 -1.5625000000000002
v -0.12944173824159222 0.9374999999999989 -5.9375
v -0.12944173824159222 0.9374999999999998 -1.5625000000000002
v -0.3124999999999999 0.7544417382415913 -5.9375
v -0.3124999999999999 0.7544417382415923 -1.5625000000000002
v -0.3125 0.49555826175840667 -5.9375
v -0.3125 0.49555826175840767 -1.5625
v -0.12944173824159244 0.3124999999999989 -5.9375
v -0.12944173824159244 0.3124999999999999 -1.5625
vt 0.23046875 0.621371484375
vt 0.219027734375 0.6328125
vt 0.2109375 0.61328125
vt 0.55859375 0.66015625
vt 0.57421875 0.66015625
vt 0.57421875 0.93359375
vt 0.55859375 0.93359375
vt 0.328402734375 0.35546875
vt 0.33984375 0.366909765625
vt 0.3203125 0.375
vt 0.23046875 0.605191015625
vt 0.23046875 0.621371484375
vt 0.2109375 0.61328125
vt 0.55859375 0.66015625
vt 0.57421875 0.66015625
vt 0.57421875 0.93359375
vt 0.55859375 0.93359375
vt 0.33984375 0.366909765625
vt 0.33984375 0.383090234375
vt 0.3203125 0.375
vt 0.219027734375 0.59375
vt 0.23046875 0.605191015625
vt 0.2109375 0.61328125
vt 0.55859375 0.66015625
vt 0.57421875 0.66015625
vt 0.57421875 0.93359375
vt 0.55859375 0.93359375
vt 0.33984375 0.383090234375
vt 0.328402734375 0.39453125
vt 0.3203125 0.375
vt 0.202847265625 0.59375
vt 0.219027734375 0.59375
vt 0.2109375 0.61328125
vt 0.55859375 0.66015625
vt 0.57421875 0.66015625
vt 0.57421875 0.93359375
vt 0.55859375 0.93359375
vt 0.328402734375 0.39453125
vt 0.312222265625 0.39453125
vt 0.3203125 0.375
vt 0.19140625 0.605191015625
vt 0.202847265625 0.59375
vt 0.2109375 0.61328125
vt 0.55859375 0.66015625
vt 0.57421875 0.66015625
vt 0.57421875 0.93359375
vt 0.55859375 0.93359375
vt 0.312222265625 0.39453125
vt 0.30078125 0.383090234375
vt 0.3203125 0.375
vt 0.19140625 0.621371484375
vt 0.19140625 0.605191015625
vt 0.2109375 0.61328125
vt 0.55859375 0.66015625
vt 0.57421875 0.66015625
vt 0.57421875 0.93359375
vt 0.55859375 0.93359375
vt 0.30078125 0.383090234375
vt 0.30078125 0.366909765625
vt 0.3203125 0.375
vt 0.202847265625 0.6328125
vt 0.19140625 0.621371484375
vt 0.2109375 0.61328125
vt 0.55859375 0.66015625
vt 0.57421875 0.66015625
vt 0.57421875 0.93359375
vt 0.55859375 0.93359375
vt 0.30078125 0.366909765625
vt 0.312222265625 0.35546875
vt 0.3203125 0.375
vt 0.219027734375 0.6328125
vt 0.202847265625 0.6328125
vt 0.2109375 0.61328125
vt 0.55859375 0.66015625
vt 0.57421875 0.66015625
vt 0.57421875 0.93359375
vt 0.55859375 0.93359375
vt 0.312222265625 0.35546875
vt 0.328402734375 0.35546875
vt 0.3203125 0.375
vn 0 -2.220446049250313e-16 -1
vn 0.7071067811865476 -0.7071067811865476 1.5700924586837752e-16
vn 0 2.220446049250313e-16 1
vn 0 -2.220446049250313e-16 -1
vn 1 0 0
vn 0 2.220446049250313e-16 1
vn 0 -2.220446049250313e-16 -1
vn 0.7071067811865482 0.7071067811865469 -1.5700924586837737e-16
vn 0 2.220446049250313e-16 1
vn 0 -2.220446049250313e-16 -1
vn 0 1 -2.220446049250313e-16
vn 0 2.220446049250313e-16 1
vn 0 -2.220446049250313e-16 -1
vn -0.7071067811865474 0.7071067811865478 -1.5700924586837757e-16
vn 0 2.220446049250313e-16 1
vn 0 -2.220446049250313e-16 -1
vn -1 4.2885047732942867e-16 -9.522393481052408e-32
vn 0 2.220446049250313e-16 1
vn 0 -2.220446049250313e-16 -1
vn -0.707106781186548 -0.7071067811865471 1.5700924586837742e-16
vn 0 2.220446049250313e-16 1
vn 0 -2.220446049250313e-16 -1
vn 0 -1 2.220446049250313e-16
vn 0 2.220446049250313e-16 1
usemtl m_b502fceb-f5e1-7f8b-04c9-e5a573196ab1
f 23/81/25 21/82/25 19/83/25
f 21/84/26 23/85/26 24/86/26 22/87/26
f 22/88/27 24/89/27 20/90/27
f 25/91/28 23/92/28 19/93/28
f 23/94/29 25/95/29 26/96/29 24/97/29
f 24/98/30 26/99/30 20/100/30
f 27/101/31 25/102/31 19/103/31
f 25/104/32 27/105/32 28/106/32 26/107/32
f 26/108/33 28/109/33 20/110/33
f 29/111/34 27/112/34 19/113/34
f 27/114/35 29/115/35 30/116/35 28/117/35
f 28/118/36 30/119/36 20/120/36
f 31/121/37 29/122/37 19/123/37
f 29/124/38 31/125/38 32/126/38 30/127/38
f 30/128/39 32/129/39 20/130/39
f 33/131/40 31/132/40 19/133/40
f 31/134/41 33/135/41 34/136/41 32/137/41
f 32/138/42 34/139/42 20/140/42
f 35/141/43 33/142/43 19/143/43
f 33/144/44 35/145/44 36/146/44 34/147/44
f 34/148/45 36/149/45 20/150/45
f 21/151/46 35/152/46 19/153/46
f 35/154/47 21/155/47 22/156/47 36/157/47
f 36/158/48 22/159/48 20/160/48
o cylinder3
v -1.125 0.6249999999999989 -5.9375
v -1.125 0.6249999999999999 -1.5625000000000002
v -0.9955582617584078 0.3124999999999989 -5.9375
v -0.9955582617584078 0.3124999999999999 -1.5625
v -0.8125 0.49555826175840667 -5.9375
v -0.8125 0.49555826175840767 -1.5625
v -0.8125 0.7544417382415908 -5.9375
v -0.8125 0.7544417382415918 -1.5625000000000002
v -0.9955582617584078 0.9374999999999989 -5.9375
v -0.9955582617584078 0.9374999999999998 -1.5625000000000002
v -1.2544417382415922 0.9374999999999989 -5.9375
v -1.2544417382415922 0.9374999999999998 -1.5625000000000002
v -1.4375 0.7544417382415913 -5.9375
v -1.4375 0.7544417382415923 -1.5625000000000002
v -1.4375 0.49555826175840667 -5.9375
v -1.4375 0.49555826175840767 -1.5625
v -1.2544417382415924 0.3124999999999989 -5.9375
v -1.2544417382415924 0.3124999999999999 -1.5625
vt 0.23046875 0.621371484375
vt 0.219027734375 0.6328125
vt 0.2109375 0.61328125
vt 0.55859375 0.66015625
vt 0.57421875 0.66015625
vt 0.57421875 0.93359375
vt 0.55859375 0.93359375
vt 0.328402734375 0.35546875
vt 0.33984375 0.366909765625
vt 0.3203125 0.375
vt 0.23046875 0.605191015625
vt 0.23046875 0.621371484375
vt 0.2109375 0.61328125
vt 0.55859375 0.66015625
vt 0.57421875 0.66015625
vt 0.57421875 0.93359375
vt 0.55859375 0.93359375
vt 0.33984375 0.366909765625
vt 0.33984375 0.383090234375
vt 0.3203125 0.375
vt 0.219027734375 0.59375
vt 0.23046875 0.605191015625
vt 0.2109375 0.61328125
vt 0.55859375 0.66015625
vt 0.57421875 0.66015625
vt 0.57421875 0.93359375
vt 0.55859375 0.93359375
vt 0.33984375 0.383090234375
vt 0.328402734375 0.39453125
vt 0.3203125 0.375
vt 0.202847265625 0.59375
vt 0.219027734375 0.59375
vt 0.2109375 0.61328125
vt 0.55859375 0.66015625
vt 0.57421875 0.66015625
vt 0.57421875 0.93359375
vt 0.55859375 0.93359375
vt 0.328402734375 0.39453125
vt 0.312222265625 0.39453125
vt 0.3203125 0.375
vt 0.19140625 0.605191015625
vt 0.202847265625 0.59375
vt 0.2109375 0.61328125
vt 0.55859375 0.66015625
vt 0.57421875 0.66015625
vt 0.57421875 0.93359375
vt 0.55859375 0.93359375
vt 0.312222265625 0.39453125
vt 0.30078125 0.383090234375
vt 0.3203125 0.375
vt 0.19140625 0.621371484375
vt 0.19140625 0.605191015625
vt 0.2109375 0.61328125
vt 0.55859375 0.66015625
vt 0.57421875 0.66015625
vt 0.57421875 0.93359375
vt 0.55859375 0.93359375
vt 0.30078125 0.383090234375
vt 0.30078125 0.366909765625
vt 0.3203125 0.375
vt 0.202847265625 0.6328125
vt 0.19140625 0.621371484375
vt 0.2109375 0.61328125
vt 0.55859375 0.66015625
vt 0.57421875 0.66015625
vt 0.57421875 0.93359375
vt 0.55859375 0.93359375
vt 0.30078125 0.366909765625
vt 0.312222265625 0.35546875
vt 0.3203125 0.375
vt 0.219027734375 0.6328125
vt 0.202847265625 0.6328125
vt 0.2109375 0.61328125
vt 0.55859375 0.66015625
vt 0.57421875 0.66015625
vt 0.57421875 0.93359375
vt 0.55859375 0.93359375
vt 0.312222265625 0.35546875
vt 0.328402734375 0.35546875
vt 0.3203125 0.375
vn 0 -2.220446049250313e-16 -1
vn 0.7071067811865476 -0.7071067811865476 1.5700924586837752e-16
vn 0 2.220446049250313e-16 1
vn 0 -2.220446049250313e-16 -1
vn 1 0 0
vn 0 2.220446049250313e-16 1
vn 0 -2.220446049250313e-16 -1
vn 0.7071067811865482 0.7071067811865469 -1.5700924586837737e-16
vn 0 2.220446049250313e-16 1
vn 0 -2.220446049250313e-16 -1
vn 0 1 -2.220446049250313e-16
vn 0 2.220446049250313e-16 1
vn 0 -2.220446049250313e-16 -1
vn -0.7071067811865471 0.707106781186548 -1.5700924586837762e-16
vn 0 2.220446049250313e-16 1
vn 0 -2.220446049250313e-16 -1
vn -1 0 0
vn 0 2.220446049250313e-16 1
vn 0 -2.220446049250313e-16 -1
vn -0.707106781186548 -0.7071067811865471 1.5700924586837742e-16
vn 0 2.220446049250313e-16 1
vn 0 -2.220446049250313e-16 -1
vn 0 -1 2.220446049250313e-16
vn 0 2.220446049250313e-16 1
usemtl m_b502fceb-f5e1-7f8b-04c9-e5a573196ab1
f 41/161/49 39/162/49 37/163/49
f 39/164/50 41/165/50 42/166/50 40/167/50
f 40/168/51 42/169/51 38/170/51
f 43/171/52 41/172/52 37/173/52
f 41/174/53 43/175/53 44/176/53 42/177/53
f 42/178/54 44/179/54 38/180/54
f 45/181/55 43/182/55 37/183/55
f 43/184/56 45/185/56 46/186/56 44/187/56
f 44/188/57 46/189/57 38/190/57
f 47/191/58 45/192/58 37/193/58
f 45/194/59 47/195/59 48/196/59 46/197/59
f 46/198/60 48/199/60 38/200/60
f 49/201/61 47/202/61 37/203/61
f 47/204/62 49/205/62 50/206/62 48/207/62
f 48/208/63 50/209/63 38/210/63
f 51/211/64 49/212/64 37/213/64
f 49/214/65 51/215/65 52/216/65 50/217/65
f 50/218/66 52/219/66 38/220/66
f 53/221/67 51/222/67 37/223/67
f 51/224/68 53/225/68 54/226/68 52/227/68
f 52/228/69 54/229/69 38/230/69
f 39/231/70 53/232/70 37/233/70
f 53/234/71 39/235/71 40/236/71 54/237/71
f 54/238/72 40/239/72 38/240/72
g head
o cylinder1
v 1.6653345369377348e-16 0 2.0340871844025189e-16
v 1.6653345369377348e-16 1.25 -0.8821428571428571
v 1.9999999999999998 0 2.375
v 1.9999999999999998 1.25 2.375
v 2 0 -2.3749999999999987
v 2 1.25 -1.4928571428571424
v -1.9999999999999993 0 -2.375
v -1.9999999999999993 1.25 -1.4928571428571427
v -2 0 2.3749999999999996
v -2 1.25 2.3749999999999996
vt 0.25 0.703125
vt 0.25 1
vt 0.125 0.8515625
vt 0.25390625 0.67578125
vt 0.55078125 0.67578125
vt 0.49564726562499994 0.75390625
vt 0.25390625 0.75390625
vt 0.50390625 0.7582589843750001
vt 0.50390625 1
vt 0.37890625 0.96183046875
vt 0 0.703125
vt 0.25 0.703125
vt 0.125 0.8515625
vt 0.25390625 0.578125
vt 0.50390625 0.578125
vt 0.50390625 0.671875
vt 0.25390625 0.671875
vt 0.50390625 1
vt 0.25390625 1
vt 0.37890625 0.96183046875
vt 0 1
vt 0 0.703125
vt 0.125 0.8515625
vt 0.55078125 0.67578125
vt 0.25390625 0.67578125
vt 0.25390625 0.75390625
vt 0.49564726562499994 0.75390625
vt 0.25390625 1
vt 0.25390625 0.7582589843750001
vt 0.37890625 0.96183046875
vt 0.25 1
vt 0 1
vt 0.125 0.8515625
vt 0.25390625 0.49609375
vt 0.50390625 0.49609375
vt 0.50390625 0.57421875
vt 0.25390625 0.57421875
vt 0.25390625 0.7582589843750001
vt 0.50390625 0.7582589843750001
vt 0.37890625 0.96183046875
vn 0 -1 0
vn 1 -3.2989484160290324e-17 4.674623261579608e-17
vn 0 1 0
vn 0 -1 0
vn 2.721265054036915e-16 0.5765915439969981 -0.8170325522224668
vn 0 1 0
vn 0 -1 0
vn -1 0 -1.4023869784738819e-16
vn 0 1 0
vn 0 -1 0
vn -1.1102230246251565e-16 0 1
vn 0 1 0
usemtl m_b502fceb-f5e1-7f8b-04c9-e5a573196ab1
f 59/241/73 57/242/73 55/243/73
f 57/244/74 59/245/74 60/246/74 58/247/74
f 58/248/75 60/249/75 56/250/75
f 61/251/76 59/252/76 55/253/76
f 59/254/77 61/255/77 62/256/77 60/257/77
f 60/258/78 62/259/78 56/260/78
f 63/261/79 61/262/79 55/263/79
f 61/264/80 63/265/80 64/266/80 62/267/80
f 62/268/81 64/269/81 56/270/81
f 57/271/82 63/272/82 55/273/82
f 63/274/83 57/275/83 58/276/83 64/277/83
f 64/278/84 58/279/84 56/280/84
g base
o cylinder
v -6.344131569286608e-17 -1 1.2688263138573217e-16
v -6.344131569286608e-17 0 1.2688263138573217e-16
v 0.9243661069253057 -1 1.5
v 0.9243661069253057 0 1.5
v 1.5 -1 0.9243661069253061
v 1.5 0 0.9243661069253061
v 1.5 -1 -0.9243661069253055
v 1.5 0 -0.9243661069253055
v 0.9243661069253061 -1 -1.4999999999999996
v 0.9243661069253061 0 -1.4999999999999996
v -0.9243661069253057 -1 -1.5
v -0.9243661069253057 0 -1.5
v -1.4999999999999993 -1 -0.9243661069253069
v -1.4999999999999993 0 -0.9243661069253069
v -1.5 -1 0.9243661069253063
v -1.5 0 0.9243661069253063
v -0.9243661069253071 -1 1.4999999999999996
v -0.9243661069253071 0 1.4999999999999996
vt 0.1875 0.663241796875
vt 0.151523046875 0.69921875
vt 0.09375 0.60546875
vt 0.19140625 0.63671875
vt 0.2421875 0.63671875
vt 0.2421875 0.69921875
vt 0.19140625 0.69921875
vt 0.151523046875 0.51171875
vt 0.1875 0.547695703125
vt 0.09375 0.60546875
vt 0.1875 0.547695703125
vt 0.1875 0.663241796875
vt 0.09375 0.60546875
vt 0.5078125 0.9375
vt 0.625 0.9375
vt 0.625 1
vt 0.5078125 1
vt 0.1875 0.547695703125
vt 0.1875 0.663241796875
vt 0.09375 0.60546875
vt 0.151523046875 0.51171875
vt 0.1875 0.547695703125
vt 0.09375 0.60546875
vt 0.19140625 0.63671875
vt 0.2421875 0.63671875
vt 0.2421875 0.69921875
vt 0.19140625 0.69921875
vt 0.1875 0.663241796875
vt 0.151523046875 0.69921875
vt 0.09375 0.60546875
vt 0.03597695312499999 0.51171875
vt 0.151523046875 0.51171875
vt 0.09375 0.60546875
vt 0.5078125 0.9375
vt 0.625 0.9375
vt 0.625 1
vt 0.5078125 1
vt 0.151523046875 0.69921875
vt 0.035976953125 0.69921875
vt 0.09375 0.60546875
vt 0 0.547695703125
vt 0.03597695312499999 0.51171875
vt 0.09375 0.60546875
vt 0.19140625 0.63671875
vt 0.2421875 0.63671875
vt 0.2421875 0.69921875
vt 0.19140625 0.69921875
vt 0.035976953125 0.69921875
vt 0 0.663241796875
vt 0.09375 0.60546875
vt 0 0.663241796875
vt 0 0.547695703125
vt 0.09375 0.60546875
vt 0.5078125 0.9375
vt 0.625 0.9375
vt 0.625 1
vt 0.5078125 1
vt 0 0.663241796875
vt 0 0.547695703125
vt 0.09375 0.60546875
vt 0.03597695312499999 0.69921875
vt 0 0.663241796875
vt 0.09375 0.60546875
vt 0.19140625 0.63671875
vt 0.2421875 0.63671875
vt 0.2421875 0.69921875
vt 0.19140625 0.69921875
vt 0 0.547695703125
vt 0.035976953125 0.51171875
vt 0.09375 0.60546875
vt 0.151523046875 0.69921875
vt 0.03597695312499999 0.69921875
vt 0.09375 0.60546875
vt 0.5078125 0.9375
vt 0.625 0.9375
vt 0.625 1
vt 0.5078125 1
vt 0.035976953125 0.51171875
vt 0.151523046875 0.51171875
vt 0.09375 0.60546875
vn 0 -1 0
vn 0.7071067811865474 0 0.7071067811865478
vn 0 1 0
vn 0 -1 0
vn 1 0 0
vn 0 1 0
vn 0 -1 0
vn 0.7071067811865476 0 -0.7071067811865475
vn 0 1 0
vn 0 -1 0
vn 2.402128369500828e-16 0 -1
vn 0 1 0
vn 0 -1 0
vn -0.7071067811865472 0 -0.7071067811865478
vn 0 1 0
vn 0 -1 0
vn -1 0 -3.6031925542512394e-16
vn 0 1 0
vn 0 -1 0
vn -0.7071067811865478 0 0.7071067811865474
vn 0 1 0
vn 0 -1 0
vn -2.402128369500827e-16 0 1
vn 0 1 0
usemtl m_b502fceb-f5e1-7f8b-04c9-e5a573196ab1
f 69/281/85 67/282/85 65/283/85
f 67/284/86 69/285/86 70/286/86 68/287/86
f 68/288/87 70/289/87 66/290/87
f 71/291/88 69/292/88 65/293/88
f 69/294/89 71/295/89 72/296/89 70/297/89
f 70/298/90 72/299/90 66/300/90
f 73/301/91 71/302/91 65/303/91
f 71/304/92 73/305/92 74/306/92 72/307/92
f 72/308/93 74/309/93 66/310/93
f 75/311/94 73/312/94 65/313/94
f 73/314/95 75/315/95 76/316/95 74/317/95
f 74/318/96 76/319/96 66/320/96
f 77/321/97 75/322/97 65/323/97
f 75/324/98 77/325/98 78/326/98 76/327/98
f 76/328/99 78/329/99 66/330/99
f 79/331/100 77/332/100 65/333/100
f 77/334/101 79/335/101 80/336/101 78/337/101
f 78/338/102 80/339/102 66/340/102
f 81/341/103 79/342/103 65/343/103
f 79/344/104 81/345/104 82/346/104 80/347/104
f 80/348/105 82/349/105 66/350/105
f 67/351/106 81/352/106 65/353/106
f 81/354/107 67/355/107 68/356/107 82/357/107
f 82/358/108 68/359/108 66/360/108