# Made in Blockbench 4.8.3
mtllib radar2.mtl

g head
o cube1
v -0.12500000000000044 1.6729968245269449 -0.7493988160479113
v -0.12500000000000033 1.5479968245269449 -0.5328924651018015
v -0.12500000000000056 1.4564904735808355 -0.8743988160479113
v -0.12500000000000044 1.3314904735808355 -0.6578924651018015
v 0.12499999999999967 1.5479968245269449 -0.5328924651018018
v 0.12499999999999956 1.6729968245269449 -0.7493988160479115
v 0.12499999999999956 1.3314904735808355 -0.6578924651018017
v 0.12499999999999944 1.4564904735808355 -0.8743988160479115
vt 0 1
vt 0.03125 1
vt 0.03125 0.96875
vt 0 0.96875
vt 0 1
vt 0.03125 1
vt 0.03125 0.96875
vt 0 0.96875
vt 0 1
vt 0.03125 1
vt 0.03125 0.96875
vt 0 0.96875
vt 0 1
vt 0.03125 1
vt 0.03125 0.96875
vt 0 0.96875
vt 0.03125 0.96875
vt 0 0.96875
vt 0 1
vt 0.03125 1
vt 0.03125 1
vt 0 1
vt 0 0.96875
vt 0.03125 0.96875
vn 4.2864984736674187e-16 -0.49999999999999994 0.8660254037844387
vn -1 1.224646799147354e-16 5.656672254455545e-16
vn -4.2864984736674187e-16 0.49999999999999994 -0.8660254037844387
vn 1 -1.224646799147354e-16 -5.656672254455545e-16
vn 3.88891136595268e-16 0.8660254037844388 0.49999999999999994
vn -3.88891136595268e-16 -0.8660254037844388 -0.49999999999999994
usemtl m_dd438e9b-a00d-8cd2-fc0a-228b1060b9dc
f 4/4/1 7/3/1 5/2/1 2/1/1
f 3/8/2 4/7/2 2/6/2 1/5/2
f 8/12/3 3/11/3 1/10/3 6/9/3
f 7/16/4 8/15/4 6/14/4 5/13/4
f 6/20/5 1/19/5 2/18/5 5/17/5
f 7/24/6 4/23/6 3/22/6 8/21/6
o tube
v -0.04166441002141356 0.88714950211976 -0.10702132664670011
v -0.44010191002141524 0.3845355084790303 -0.83021835306586
v -0.03672119639817378 1.0369145441572294 -0.02055443931117301
v -0.38788665589652943 0.5562056097141033 -0.875442141203388
v -0.26562499999999967 1.081105062487767 0.004958968342591685
v -1.0625000000000007 0.9235480656674019 -0.5190193080765699
v -0.09269122532894292 1.0853860110618259 0.007430575154211305
v -0.936441225328944 1.0312678022046122 -0.601164856487183
v -0.26562499999999956 1.153269937512238 0.046623378364004986
v -1.0624999999999993 1.6858269343326002 -0.07891739805516218
v -0.0926912253289428 1.148988988938179 0.04415177155238503
v -0.9364412253289427 1.7031071977953876 -0.21327820059066033
v -0.04166441002141277 1.3472254978802451 0.15860367335329634
v -0.4401019100214118 2.224839491520971 0.23228164693412579
v -0.03672119639817364 1.1974604558427753 0.07213678601776913
v -0.38788665589652643 2.1781693902858956 0.06099908412554289
v 0.04166441002141429 1.347225497880245 0.15860367335329623
v 0.44010191002141524 2.22483949152097 0.23228164693412423
v 0.036721196398174574 1.1974604558427753 0.07213678601776902
v 0.3878866558965293 2.178169390285895 0.06099908412554156
v 0.2656250000000002 1.153269937512238 0.04662337836400432
v 1.0625000000000004 1.6858269343325984 -0.07891739805516562
v 0.0926912253289435 1.1489889889381792 0.04415177155238492
v 0.9364412253289436 1.7031071977953862 -0.21327820059066332
v 0.2656250000000002 1.0811050624877665 0.004958968342590797
v 1.0624999999999993 0.9235480656673997 -0.5190193080765737
v 0.09269122532894353 1.0853860110618256 0.007430575154210972
v 0.9364412253289425 1.0312678022046105 -0.6011648564871863
v 0.04166441002141422 0.88714950211976 -0.10702132664670022
v 0.4401019100214125 0.3845355084790296 -0.8302183530658614
v 0.03672119639817506 1.0369145441572294 -0.020554439311173123
v 0.38788665589652677 0.5562056097141027 -0.8754421412033893
vt 0.16217715710176148 0.8847250796564932
vt 0.19017195651067514 0.8567302802475795
vt 0.2968036591136065 0.9135573586593746
vt 0.2190042355135566 0.9913567822594245
vt 0.37338906250000004 1
vt 0.29827695778315433 0.9386671681232536
vt 0.409621474750545 0.8711461297981968
vt 0.4172849378530403 0.8774037349582555
vt 0.16155867526067513 0.8631091864975795
vt 0.16855555026067515 0.8561123114975795
vt 0.19017195651067514 0.8567302802475795
vt 0.16217664401067514 0.8847255927475794
vt 0.2972 0.5424967999588055
vt 0.38970554970082183 0.6020637698292697
vt 0.3722043314095149 0.6171875
vt 0.29067343749999996 0.5646874249588055
vt 0.19017195651067514 0.8567302802475795
vt 0.19084629729948083 0.8463365076581306
vt 0.30392812314581796 0.8037637789599319
vt 0.2968047536611882 0.9135579419750277
vt 0.5218925118317923 0.6092782666078531
vt 0.5025042922168457 0.7042921681232536
vt 0.39115922127248604 0.6367707938579892
vt 0.39299457608280164 0.6277764547873343
vt 0.16855555026067515 0.8561123114975795
vt 0.16855555026067515 0.8469326239975795
vt 0.19017195651067514 0.8463146552475795
vt 0.19017195651067514 0.8567302802475795
vt 0.19108124999999998 0.5390625
vt 0.30110625 0.5390625
vt 0.29457968749999996 0.5625
vt 0.19760781250000004 0.5625
vt 0.19084629729948083 0.8463365076581306
vt 0.16670352836118507 0.8149590588153282
vt 0.2368325896189157 0.7165641828921899
vt 0.3039269624012598 0.8037642159537882
vt 0.5025042922168457 0.7042921681232536
vt 0.42739218749999996 0.765625
vt 0.3834963121469597 0.6430287349582555
vt 0.391159775249455 0.6367711297981968
vt 0.16855555026067515 0.8469326239975795
vt 0.16155867526067513 0.8399357489975795
vt 0.16217664401067514 0.8183193427475794
vt 0.19017195651067514 0.8463146552475795
vt 0.09466945029917817 0.6020637698292697
vt 0.18717499999999998 0.5424967999588055
vt 0.19370156250000004 0.5646874249588055
vt 0.11217066859048508 0.6171875
vt 0.16670352836118507 0.8149590588153282
vt 0.156484025273807 0.812947342933874
vt 0.12888003473847776 0.6953125
vt 0.23683330947607387 0.7165631728935603
vt 0.42739218749999996 0.765625
vt 0.33042031250000004 0.765625
vt 0.37431640625 0.6430281250000001
vt 0.38349609375 0.6430281250000001
vt 0.16155867526067513 0.8399357489975795
vt 0.15237898776067516 0.8399357489975795
vt 0.15176101901067515 0.8183193427475794
vt 0.16217664401067514 0.8183193427475794
vt 0.18717499999999998 0.5424967999588055
vt 0.2972 0.5424967999588055
vt 0.29067343749999996 0.5646874249588055
vt 0.19370156250000004 0.5646874249588055
vt 0.13828016314546215 0.8168031471244701
vt 0.11839421978805606 0.851037148419625
vt 0.0007605843338346074 0.8234334412294005
vt 0.05602495356009976 0.7282948574737915
vt 0.33042031250000004 0.765625
vt 0.25530820778315433 0.7042921681232536
vt 0.366652724750545 0.6367711297981968
vt 0.3743161878530403 0.6430287349582555
vt 0.15237898776067516 0.8399357489975795
vt 0.14538211276067514 0.8469326239975795
vt 0.12376570651067514 0.8463146552475795
vt 0.15176101901067515 0.8183193427475794
vt 0.2972 0.5424967999588055
vt 0.38970554970082183 0.6020637698292697
vt 0.3722043314095149 0.6171875
vt 0.29067343749999996 0.5646874249588055
vt 0.11839421978805606 0.851037148419625
vt 0.12040593566951019 0.861256651507003
vt 0.0220100497477424 0.9313864326218919
vt 0.0007593768541820367 0.8234331578842958
vt 0.25530820778315433 0.7042921681232536
vt 0.23591998816820772 0.6092782666078531
vt 0.36481792391719836 0.6277764547873343
vt 0.36665327872751396 0.6367707938579892
vt 0.14538211276067514 0.8469326239975795
vt 0.14538211276067514 0.8561123114975795
vt 0.12376570651067514 0.8567302802475795
vt 0.12376570651067514 0.8463146552475795
vt 0.19108124999999998 0.5390625
vt 0.30110625 0.5390625
vt 0.29457968749999996 0.5625
vt 0.19760781249999998 0.5625
vt 0.12040593566951019 0.861256651507003
vt 0.15178338451231266 0.8853994204452988
vt 0.10921109280797024 0.9984800855470778
vt 0.022011059746371908 0.9313857127647337
vt 0.5454730422168457 0.9386671681232536
vt 0.47036093749999996 1
vt 0.4264650621469597 0.8774037349582555
vt 0.434128525249455 0.8711461297981968
vt 0.14538211276067514 0.8561123114975795
vt 0.15237898776067516 0.8631091864975795
vt 0.15176101901067515 0.8847255927475794
vt 0.12376570651067514 0.8567302802475795
vt 0.09466945029917817 0.6020637698292697
vt 0.18717499999999998 0.5424967999588055
vt 0.19370156250000004 0.5646874249588055
vt 0.11217066859048508 0.6171875
vt 0.15178338451231266 0.8853994204452988
vt 0.16217715710176148 0.8847250796564932
vt 0.21900481882920975 0.9913578768070062
vt 0.10921065581411389 0.9984812462916359
vt 0.47036093749999996 1
vt 0.37338906250000004 1
vt 0.41728515625 0.8774031250000001
vt 0.42646484375 0.8774031250000001
vt 0.15237898776067516 0.8631091864975795
vt 0.16155867526067513 0.8631091864975795
vt 0.16217664401067514 0.8847255927475794
vt 0.15176101901067515 0.8847255927475794
vt 0.18717499999999998 0.5424967999588055
vt 0.2972 0.5424967999588055
vt 0.29067343749999996 0.5646874249588055
vt 0.19370156250000004 0.5646874249588055
vn -0.28676782493159353 -0.7053844423634925 0.6482260431790346
vn 0.36011103573999925 0.7421675488756504 -0.5652498309014998
vn 1.0106430996148604e-15 -0.49999999999999334 0.8660254037844425
vn -0.4978869534034124 -0.0761414975875442 -0.8638929644208214
vn -0.4257970363298787 -0.4524093511004906 0.7835959819253319
vn 0.509802390301732 0.430145766817081 -0.745034322787874
vn 1.0106430996148604e-15 -0.49999999999999334 0.8660254037844425
vn -0.7041184820317256 0.3550412522726508 -0.6149494877191188
vn -0.28676782493159286 -0.20868799960595166 0.9349938681106256
vn 0.36011103573999814 0.11843693860771673 -0.9253608666414946
vn 1.0106430996148604e-15 -0.49999999999999334 0.8660254037844425
vn -0.4978869534034109 0.7862240021328455 -0.366006011017417
vn 1.6373513394790333e-15 -0.0836583007826881 0.9964945000902681
vn -1.7349714668857621e-15 -0.011356054094250724 -0.9999355179387361
vn 1.0106430996148604e-15 -0.49999999999999334 0.8660254037844425
vn 4.77786501473223e-16 0.9648257449862634 -0.26289024670326194
vn 0.2867678249315954 -0.20868799960595202 0.9349938681106247
vn -0.360111035740001 0.11843693860771734 -0.9253608666414933
vn 1.0106430996148604e-15 -0.49999999999999334 0.8660254037844425
vn 0.4978869534034105 0.7862240021328446 -0.3660060110174194
vn 0.4257970363298807 -0.45240935110049085 0.7835959819253306
vn -0.5098023903017339 0.43014576681708183 -0.7450343227878723
vn 1.0106430996148604e-15 -0.49999999999999334 0.8660254037844425
vn 0.7041184820317241 0.3550412522726496 -0.6149494877191211
vn 0.28676782493159486 -0.7053844423634925 0.6482260431790342
vn -0.36011103574 0.7421675488756511 -0.5652498309014985
vn 1.0106430996148604e-15 -0.49999999999999334 0.8660254037844425
vn 0.4978869534034093 -0.07614149758754507 -0.8638929644208229
vn 1.9154621608478232e-16 -0.821160401418294 0.5706974637603942
vn -1.4984139626974574e-16 0.8716475877284138 -0.49013312763701
vn 1.0106430996148604e-15 -0.49999999999999334 0.8660254037844425
vn -1.7354420287452628e-15 -0.2547432404409635 -0.9670087287349776
usemtl m_dd438e9b-a00d-8cd2-fc0a-228b1060b9dc
f 9/25/7 13/26/7 14/27/7 10/28/7
f 12/29/8 16/30/8 15/31/8 11/32/8
f 11/33/9 15/34/9 13/35/9 9/36/9
f 10/37/10 14/38/10 16/39/10 12/40/10
f 13/41/11 17/42/11 18/43/11 14/44/11
f 16/45/12 20/46/12 19/47/12 15/48/12
f 15/49/13 19/50/13 17/51/13 13/52/13
f 14/53/14 18/54/14 20/55/14 16/56/14
f 17/57/15 21/58/15 22/59/15 18/60/15
f 20/61/16 24/62/16 23/63/16 19/64/16
f 19/65/17 23/66/17 21/67/17 17/68/17
f 18/69/18 22/70/18 24/71/18 20/72/18
f 21/73/19 25/74/19 26/75/19 22/76/19
f 24/77/20 28/78/20 27/79/20 23/80/20
f 23/81/21 27/82/21 25/83/21 21/84/21
f 22/85/22 26/86/22 28/87/22 24/88/22
f 25/89/23 29/90/23 30/91/23 26/92/23
f 28/93/24 32/94/24 31/95/24 27/96/24
f 27/97/25 31/98/25 29/99/25 25/100/25
f 26/101/26 30/102/26 32/103/26 28/104/26
f 29/105/27 33/106/27 34/107/27 30/108/27
f 32/109/28 36/110/28 35/111/28 31/112/28
f 31/113/29 35/114/29 33/115/29 29/116/29
f 30/117/30 34/118/30 36/119/30 32/120/30
f 33/121/31 37/122/31 38/123/31 34/124/31
f 36/125/32 40/126/32 39/127/32 35/128/32
f 35/129/33 39/130/33 37/131/33 33/132/33
f 34/133/34 38/134/34 40/135/34 36/136/34
f 37/137/35 9/138/35 10/139/35 38/140/35
f 40/141/36 12/142/36 11/143/36 39/144/36
f 39/145/37 11/146/37 9/147/37 37/148/37
f 38/149/38 10/150/38 12/151/38 40/152/38
o cube2
v -0.06250000000000033 1.4938702367904177 -0.5641424651018017
v -0.06250000000000011 1.1813702367904177 -0.022876587736527343
v -0.06250000000000044 1.3856170613173628 -0.6266424651018017
v -0.06250000000000017 1.0731170613173628 -0.08537658773652734
v 0.06249999999999989 1.1813702367904177 -0.022876587736527454
v 0.06249999999999967 1.4938702367904177 -0.5641424651018017
v 0.06249999999999989 1.0731170613173628 -0.08537658773652745
v 0.062499999999999556 1.3856170613173628 -0.6266424651018017
vt 0.0390625 1
vt 0.0546875 1
vt 0.0546875 0.984375
vt 0.0390625 0.984375
vt 0.2421875 1
vt 0.3203125 1
vt 0.3203125 0.984375
vt 0.2421875 0.984375
vt 0.0390625 1
vt 0.0546875 1
vt 0.0546875 0.984375
vt 0.0390625 0.984375
vt 0.2421875 1
vt 0.3203125 1
vt 0.3203125 0.984375
vt 0.2421875 0.984375
vt 0.3203125 1
vt 0.3203125 0.984375
vt 0.2421875 0.984375
vt 0.2421875 1
vt 0.2421875 1
vt 0.2421875 0.984375
vt 0.3203125 0.984375
vt 0.3203125 1
vn 4.2864984736674187e-16 -0.49999999999999994 0.8660254037844387
vn -1 1.224646799147354e-16 5.656672254455545e-16
vn -4.2864984736674187e-16 0.49999999999999994 -0.8660254037844387
vn 1 -1.224646799147354e-16 -5.656672254455545e-16
vn 3.88891136595268e-16 0.8660254037844388 0.49999999999999994
vn -3.88891136595268e-16 -0.8660254037844388 -0.49999999999999994
usemtl m_dd438e9b-a00d-8cd2-fc0a-228b1060b9dc
f 44/156/39 47/155/39 45/154/39 42/153/39
f 43/160/40 44/159/40 42/158/40 41/157/40
f 48/164/41 43/163/41 41/162/41 46/161/41
f 47/168/42 48/167/42 46/166/42 45/165/42
f 46/172/43 41/171/43 42/170/43 45/169/43
f 47/176/44 44/175/44 43/174/44 48/173/44
g base
o cube
v -0.12499999868291073 1.25 -0.12499999736582179
v -0.12499999341455481 1.25 0.1250000026341782
v -0.1249999986829109 0 -0.1249999973658219
v -0.12499999341455498 0 0.1250000026341781
v 0.1250000065854452 1.25 0.12499999736582224
v 0.12500000131708933 1.25 -0.12500000263417765
v 0.12500000658544508 0 0.12499999736582224
v 0.1250000013170891 0 -0.12500000263417788
vt 0 0.7421875
vt 0.03125 0.7421875
vt 0.03125 0.5859375
vt 0 0.5859375
vt 0 0.7421875
vt 0.03125 0.7421875
vt 0.03125 0.5859375
vt 0 0.5859375
vt 0 0.7421875
vt 0.03125 0.7421875
vt 0.03125 0.5859375
vt 0 0.5859375
vt 0 0.7421875
vt 0.03125 0.7421875
vt 0.03125 0.5859375
vt 0 0.5859375
vt 0.03125 0.96875
vt 0 0.96875
vt 0 1
vt 0.03125 1
vt 0.03125 1
vt 0 1
vt 0 0.96875
vt 0.03125 0.96875
vn 2.1073423693562792e-8 -1.2246468249548542e-16 0.9999999999999998
vn -0.9999999999999998 1.224646799147353e-16 2.1073423693562792e-8
vn -2.1073423693562792e-8 1.2246468249548542e-16 -0.9999999999999998
vn 0.9999999999999998 -1.224646799147353e-16 -2.1073423693562792e-8
vn 1.224646824954854e-16 1 1.2246467991473527e-16
vn -1.224646824954854e-16 -1 -1.2246467991473527e-16
usemtl m_dd438e9b-a00d-8cd2-fc0a-228b1060b9dc
f 52/180/45 55/179/45 53/178/45 50/177/45
f 51/184/46 52/183/46 50/182/46 49/181/46
f 56/188/47 51/187/47 49/186/47 54/185/47
f 55/192/48 56/191/48 54/190/48 53/189/48
f 54/196/49 49/195/49 50/194/49 53/193/49
f 55/200/50 52/199/50 51/198/50 56/197/50