# Made in Blockbench 4.8.2
mtllib torpedo_tubes.mtl

g head
o tube3
v 1.0000000000000002 1.4999999999999996 2
v 0.9999999999999998 1.5000000000000004 -1.9999999999999996
v 0.7928932188134526 0.9999999999999996 2
v 0.7928932188134522 1.0000000000000004 -1.9999999999999998
v 0.5000000000000002 1.292893218813452 2.0000000000000004
v 0.4999999999999998 1.292893218813453 -1.9999999999999998
v 0.5000000000000002 1.707106781186547 2.0000000000000004
v 0.4999999999999998 1.707106781186548 -1.9999999999999996
v 0.7928932188134526 1.9999999999999996 2.0000000000000004
v 0.7928932188134522 2.0000000000000004 -1.9999999999999996
v 1.2071067811865477 1.9999999999999996 2
v 1.2071067811865472 2.0000000000000004 -1.9999999999999996
v 1.5000000000000002 1.7071067811865475 2
v 1.4999999999999998 1.7071067811865483 -1.9999999999999996
v 1.5000000000000002 1.2928932188134519 2
v 1.4999999999999998 1.2928932188134528 -1.9999999999999998
v 1.2071067811865481 0.9999999999999996 2
v 1.2071067811865477 1.0000000000000004 -1.9999999999999998
vt 0.19140625 0.981694140625
vt 0.173100390625 1
vt 0.16015625 0.96875
vt 0 0.625
vt 0.02734375 0.625
vt 0.02734375 0.875
vt 0 0.875
vt 0.28247539062500004 0.9375
vt 0.30078125 0.955805859375
vt 0.26953125 0.96875
vt 0.19140625 0.955805859375
vt 0.19140625 0.981694140625
vt 0.16015625 0.96875
vt 0 0.625
vt 0.02734375 0.625
vt 0.02734375 0.875
vt 0 0.875
vt 0.30078125 0.955805859375
vt 0.30078125 0.981694140625
vt 0.26953125 0.96875
vt 0.173100390625 0.9375
vt 0.19140625 0.955805859375
vt 0.16015625 0.96875
vt 0 0.625
vt 0.02734375 0.625
vt 0.02734375 0.875
vt 0 0.875
vt 0.30078125 0.981694140625
vt 0.28247539062500004 1
vt 0.26953125 0.96875
vt 0.147212109375 0.9375
vt 0.173100390625 0.9375
vt 0.16015625 0.96875
vt 0 0.625
vt 0.02734375 0.625
vt 0.02734375 0.875
vt 0 0.875
vt 0.28247539062500004 1
vt 0.256587109375 1
vt 0.26953125 0.96875
vt 0.12890625 0.955805859375
vt 0.147212109375 0.9375
vt 0.16015625 0.96875
vt 0 0.625
vt 0.02734375 0.625
vt 0.02734375 0.875
vt 0 0.875
vt 0.256587109375 1
vt 0.23828125 0.981694140625
vt 0.26953125 0.96875
vt 0.12890625 0.981694140625
vt 0.12890625 0.955805859375
vt 0.16015625 0.96875
vt 0 0.625
vt 0.02734375 0.625
vt 0.02734375 0.875
vt 0 0.875
vt 0.23828125 0.981694140625
vt 0.23828125 0.955805859375
vt 0.26953125 0.96875
vt 0.147212109375 1
vt 0.12890625 0.981694140625
vt 0.16015625 0.96875
vt 0 0.625
vt 0.02734375 0.625
vt 0.02734375 0.875
vt 0 0.875
vt 0.23828125 0.955805859375
vt 0.256587109375 0.9375
vt 0.26953125 0.96875
vt 0.173100390625 1
vt 0.147212109375 1
vt 0.16015625 0.96875
vt 0 0.625
vt 0.02734375 0.625
vt 0.02734375 0.875
vt 0 0.875
vt 0.256587109375 0.9375
vt 0.28247539062500004 0.9375
vt 0.26953125 0.96875
vn 1.2246467991473532e-16 -2.220446049250313e-16 1
vn -0.7071067811865477 -0.7071067811865475 -7.041364024482814e-17
vn -1.2246467991473532e-16 2.220446049250313e-16 -1
vn 1.2246467991473532e-16 -2.220446049250313e-16 1
vn -1 0 1.2246467991473532e-16
vn -1.2246467991473532e-16 2.220446049250313e-16 -1
vn 1.2246467991473532e-16 -2.220446049250313e-16 1
vn -0.7071067811865477 0.7071067811865475 2.4360485149192685e-16
vn -1.2246467991473532e-16 2.220446049250313e-16 -1
vn 1.2246467991473532e-16 -2.220446049250313e-16 1
vn 2.719262146893782e-32 1 2.220446049250313e-16
vn -1.2246467991473532e-16 2.220446049250313e-16 -1
vn 1.2246467991473532e-16 -2.220446049250313e-16 1
vn 0.707106781186547 0.7071067811865481 7.041364024482837e-17
vn -1.2246467991473532e-16 2.220446049250313e-16 -1
vn 1.2246467991473532e-16 -2.220446049250313e-16 1
vn 1 0 -1.2246467991473532e-16
vn -1.2246467991473532e-16 2.220446049250313e-16 -1
vn 1.2246467991473532e-16 -2.220446049250313e-16 1
vn 0.7071067811865478 -0.7071067811865474 -2.4360485149192685e-16
vn -1.2246467991473532e-16 2.220446049250313e-16 -1
vn 1.2246467991473532e-16 -2.220446049250313e-16 1
vn -2.719262146893782e-32 -1 -2.220446049250313e-16
vn -1.2246467991473532e-16 2.220446049250313e-16 -1
usemtl m_d1c4fb60-9a11-da58-a3f5-d280cd30c748
f 5/1/1 3/2/1 1/3/1
f 3/4/2 5/5/2 6/6/2 4/7/2
f 4/8/3 6/9/3 2/10/3
f 7/11/4 5/12/4 1/13/4
f 5/14/5 7/15/5 8/16/5 6/17/5
f 6/18/6 8/19/6 2/20/6
f 9/21/7 7/22/7 1/23/7
f 7/24/8 9/25/8 10/26/8 8/27/8
f 8/28/9 10/29/9 2/30/9
f 11/31/10 9/32/10 1/33/10
f 9/34/11 11/35/11 12/36/11 10/37/11
f 10/38/12 12/39/12 2/40/12
f 13/41/13 11/42/13 1/43/13
f 11/44/14 13/45/14 14/46/14 12/47/14
f 12/48/15 14/49/15 2/50/15
f 15/51/16 13/52/16 1/53/16
f 13/54/17 15/55/17 16/56/17 14/57/17
f 14/58/18 16/59/18 2/60/18
f 17/61/19 15/62/19 1/63/19
f 15/64/20 17/65/20 18/66/20 16/67/20
f 16/68/21 18/69/21 2/70/21
f 3/71/22 17/72/22 1/73/22
f 17/74/23 3/75/23 4/76/23 18/77/23
f 18/78/24 4/79/24 2/80/24
o tube1
v -0.9999999999999998 1.4999999999999996 2.0000000000000004
v -1.0000000000000002 1.5000000000000004 -1.9999999999999996
v -1.2071067811865472 0.9999999999999996 2
v -1.2071067811865477 1.0000000000000004 -1.9999999999999996
v -1.4999999999999998 1.292893218813452 2.0000000000000004
v -1.5000000000000002 1.292893218813453 -1.9999999999999996
v -1.4999999999999998 1.707106781186547 2.0000000000000004
v -1.5000000000000002 1.707106781186548 -1.9999999999999993
v -1.2071067811865472 1.9999999999999996 2.0000000000000004
v -1.2071067811865477 2.0000000000000004 -1.9999999999999993
v -0.7928932188134523 1.9999999999999996 2.0000000000000004
v -0.7928932188134528 2.0000000000000004 -1.9999999999999996
v -0.4999999999999998 1.7071067811865475 2.0000000000000004
v -0.5000000000000002 1.7071067811865483 -1.9999999999999996
v -0.4999999999999998 1.2928932188134519 2.0000000000000004
v -0.5000000000000002 1.2928932188134528 -1.9999999999999998
v -0.7928932188134519 0.9999999999999996 2
v -0.7928932188134523 1.0000000000000004 -1.9999999999999998
vt 0.19140625 0.981694140625
vt 0.17310039062500004 1
vt 0.16015625 0.96875
vt 0 0.625
vt 0.02734375 0.625
vt 0.02734375 0.875
vt 0 0.875
vt 0.28247539062500004 0.9375
vt 0.30078125 0.9558058593750001
vt 0.26953125 0.96875
vt 0.19140625 0.955805859375
vt 0.19140625 0.981694140625
vt 0.16015625 0.96875
vt 0 0.625
vt 0.02734375 0.625
vt 0.02734375 0.875
vt 0 0.875
vt 0.30078125 0.9558058593750001
vt 0.30078125 0.9816941406249999
vt 0.26953125 0.96875
vt 0.17310039062500004 0.9375
vt 0.19140625 0.955805859375
vt 0.16015625 0.96875
vt 0 0.625
vt 0.02734375 0.625
vt 0.02734375 0.875
vt 0 0.875
vt 0.30078125 0.9816941406249999
vt 0.28247539062500004 1
vt 0.26953125 0.96875
vt 0.147212109375 0.9375
vt 0.17310039062500004 0.9375
vt 0.16015625 0.96875
vt 0 0.625
vt 0.02734375 0.625
vt 0.02734375 0.875
vt 0 0.875
vt 0.28247539062500004 1
vt 0.256587109375 1
vt 0.26953125 0.96875
vt 0.12890625 0.955805859375
vt 0.147212109375 0.9375
vt 0.16015625 0.96875
vt 0 0.625
vt 0.02734375 0.625
vt 0.02734375 0.875
vt 0 0.875
vt 0.256587109375 1
vt 0.23828125 0.9816941406249999
vt 0.26953125 0.96875
vt 0.12890625 0.981694140625
vt 0.12890625 0.955805859375
vt 0.16015625 0.96875
vt 0 0.625
vt 0.02734375 0.625
vt 0.02734375 0.875
vt 0 0.875
vt 0.23828125 0.9816941406249999
vt 0.23828125 0.9558058593750001
vt 0.26953125 0.96875
vt 0.147212109375 1
vt 0.12890625 0.981694140625
vt 0.16015625 0.96875
vt 0 0.625
vt 0.02734375 0.625
vt 0.02734375 0.875
vt 0 0.875
vt 0.23828125 0.9558058593750001
vt 0.256587109375 0.9375
vt 0.26953125 0.96875
vt 0.17310039062500004 1
vt 0.147212109375 1
vt 0.16015625 0.96875
vt 0 0.625
vt 0.02734375 0.625
vt 0.02734375 0.875
vt 0 0.875
vt 0.256587109375 0.9375
vt 0.28247539062500004 0.9375
vt 0.26953125 0.96875
vn 1.2246467991473532e-16 -2.220446049250313e-16 1
vn -0.7071067811865476 -0.7071067811865476 -7.041364024482819e-17
vn -1.2246467991473532e-16 2.220446049250313e-16 -1
vn 1.2246467991473532e-16 -2.220446049250313e-16 1
vn -1 0 1.2246467991473532e-16
vn -1.2246467991473532e-16 2.220446049250313e-16 -1
vn 1.2246467991473532e-16 -2.220446049250313e-16 1
vn -0.7071067811865476 0.7071067811865476 2.4360485149192685e-16
vn -1.2246467991473532e-16 2.220446049250313e-16 -1
vn 1.2246467991473532e-16 -2.220446049250313e-16 1
vn 2.719262146893782e-32 1 2.220446049250313e-16
vn -1.2246467991473532e-16 2.220446049250313e-16 -1
vn 1.2246467991473532e-16 -2.220446049250313e-16 1
vn 0.707106781186547 0.7071067811865481 7.041364024482837e-17
vn -1.2246467991473532e-16 2.220446049250313e-16 -1
vn 1.2246467991473532e-16 -2.220446049250313e-16 1
vn 1 0 -1.2246467991473532e-16
vn -1.2246467991473532e-16 2.220446049250313e-16 -1
vn 1.2246467991473532e-16 -2.220446049250313e-16 1
vn 0.7071067811865478 -0.7071067811865474 -2.4360485149192685e-16
vn -1.2246467991473532e-16 2.220446049250313e-16 -1
vn 1.2246467991473532e-16 -2.220446049250313e-16 1
vn -2.719262146893782e-32 -1 -2.220446049250313e-16
vn -1.2246467991473532e-16 2.220446049250313e-16 -1
usemtl m_d1c4fb60-9a11-da58-a3f5-d280cd30c748
f 23/81/25 21/82/25 19/83/25
f 21/84/26 23/85/26 24/86/26 22/87/26
f 22/88/27 24/89/27 20/90/27
f 25/91/28 23/92/28 19/93/28
f 23/94/29 25/95/29 26/96/29 24/97/29
f 24/98/30 26/99/30 20/100/30
f 27/101/31 25/102/31 19/103/31
f 25/104/32 27/105/32 28/106/32 26/107/32
f 26/108/33 28/109/33 20/110/33
f 29/111/34 27/112/34 19/113/34
f 27/114/35 29/115/35 30/116/35 28/117/35
f 28/118/36 30/119/36 20/120/36
f 31/121/37 29/122/37 19/123/37
f 29/124/38 31/125/38 32/126/38 30/127/38
f 30/128/39 32/129/39 20/130/39
f 33/131/40 31/132/40 19/133/40
f 31/134/41 33/135/41 34/136/41 32/137/41
f 32/138/42 34/139/42 20/140/42
f 35/141/43 33/142/43 19/143/43
f 33/144/44 35/145/44 36/146/44 34/147/44
f 34/148/45 36/149/45 20/150/45
f 21/151/46 35/152/46 19/153/46
f 35/154/47 21/155/47 22/156/47 36/157/47
f 36/158/48 22/159/48 20/160/48
o tube2
v 2.449293598294707e-16 1.4999999999999996 2.0000000000000004
v -2.449293598294706e-16 1.5000000000000004 -1.9999999999999996
v -0.20710678118654732 0.9999999999999996 2
v -0.20710678118654782 1.0000000000000004 -1.9999999999999998
v -0.4999999999999998 1.292893218813452 2.0000000000000004
v -0.5000000000000002 1.292893218813453 -1.9999999999999998
v -0.4999999999999998 1.707106781186547 2.0000000000000004
v -0.5000000000000002 1.707106781186548 -1.9999999999999996
v -0.20710678118654732 1.9999999999999996 2.0000000000000004
v -0.20710678118654782 2.0000000000000004 -1.9999999999999996
v 0.2071067811865477 1.9999999999999996 2.0000000000000004
v 0.2071067811865472 2.0000000000000004 -1.9999999999999996
v 0.5000000000000002 1.7071067811865475 2.0000000000000004
v 0.4999999999999998 1.7071067811865483 -1.9999999999999996
v 0.5000000000000002 1.2928932188134517 2.0000000000000004
v 0.4999999999999998 1.2928932188134525 -1.9999999999999998
v 0.20710678118654816 0.9999999999999996 2
v 0.20710678118654766 1.0000000000000004 -1.9999999999999998
vt 0.19140625 0.9816941406249999
vt 0.17310039062500004 1
vt 0.16015625 0.96875
vt 0 0.625
vt 0.02734375 0.625
vt 0.02734375 0.875
vt 0 0.875
vt 0.28247539062500004 0.9375
vt 0.30078125 0.9558058593750001
vt 0.26953125 0.96875
vt 0.19140625 0.9558058593750001
vt 0.19140625 0.9816941406249999
vt 0.16015625 0.96875
vt 0 0.625
vt 0.02734375 0.625
vt 0.02734375 0.875
vt 0 0.875
vt 0.30078125 0.9558058593750001
vt 0.30078125 0.9816941406249999
vt 0.26953125 0.96875
vt 0.17310039062500004 0.9375
vt 0.19140625 0.9558058593750001
vt 0.16015625 0.96875
vt 0 0.625
vt 0.02734375 0.625
vt 0.02734375 0.875
vt 0 0.875
vt 0.30078125 0.9816941406249999
vt 0.28247539062500004 1
vt 0.26953125 0.96875
vt 0.147212109375 0.9375
vt 0.17310039062500004 0.9375
vt 0.16015625 0.96875
vt 0 0.625
vt 0.02734375 0.625
vt 0.02734375 0.875
vt 0 0.875
vt 0.28247539062500004 1
vt 0.256587109375 1
vt 0.26953125 0.96875
vt 0.12890625 0.9558058593750001
vt 0.147212109375 0.9375
vt 0.16015625 0.96875
vt 0 0.625
vt 0.02734375 0.625
vt 0.02734375 0.875
vt 0 0.875
vt 0.256587109375 1
vt 0.23828125 0.9816941406249999
vt 0.26953125 0.96875
vt 0.12890625 0.9816941406249999
vt 0.12890625 0.9558058593750001
vt 0.16015625 0.96875
vt 0 0.625
vt 0.02734375 0.625
vt 0.02734375 0.875
vt 0 0.875
vt 0.23828125 0.9816941406249999
vt 0.23828125 0.9558058593750001
vt 0.26953125 0.96875
vt 0.147212109375 1
vt 0.12890625 0.9816941406249999
vt 0.16015625 0.96875
vt 0 0.625
vt 0.02734375 0.625
vt 0.02734375 0.875
vt 0 0.875
vt 0.23828125 0.9558058593750001
vt 0.256587109375 0.9375
vt 0.26953125 0.96875
vt 0.17310039062500004 1
vt 0.147212109375 1
vt 0.16015625 0.96875
vt 0 0.625
vt 0.02734375 0.625
vt 0.02734375 0.875
vt 0 0.875
vt 0.256587109375 0.9375
vt 0.28247539062500004 0.9375
vt 0.26953125 0.96875
vn 1.2246467991473532e-16 -2.220446049250313e-16 1
vn -0.7071067811865477 -0.7071067811865475 -7.041364024482814e-17
vn -1.2246467991473532e-16 2.220446049250313e-16 -1
vn 1.2246467991473532e-16 -2.220446049250313e-16 1
vn -1 0 1.2246467991473532e-16
vn -1.2246467991473532e-16 2.220446049250313e-16 -1
vn 1.2246467991473532e-16 -2.220446049250313e-16 1
vn -0.7071067811865477 0.7071067811865475 2.4360485149192685e-16
vn -1.2246467991473532e-16 2.220446049250313e-16 -1
vn 1.2246467991473532e-16 -2.220446049250313e-16 1
vn 2.719262146893782e-32 1 2.220446049250313e-16
vn -1.2246467991473532e-16 2.220446049250313e-16 -1
vn 1.2246467991473532e-16 -2.220446049250313e-16 1
vn 0.707106781186547 0.7071067811865481 7.041364024482837e-17
vn -1.2246467991473532e-16 2.220446049250313e-16 -1
vn 1.2246467991473532e-16 -2.220446049250313e-16 1
vn 1 0 -1.2246467991473532e-16
vn -1.2246467991473532e-16 2.220446049250313e-16 -1
vn 1.2246467991473532e-16 -2.220446049250313e-16 1
vn 0.7071067811865476 -0.7071067811865476 -2.4360485149192685e-16
vn -1.2246467991473532e-16 2.220446049250313e-16 -1
vn 1.2246467991473532e-16 -2.220446049250313e-16 1
vn -2.719262146893782e-32 -1 -2.220446049250313e-16
vn -1.2246467991473532e-16 2.220446049250313e-16 -1
usemtl m_d1c4fb60-9a11-da58-a3f5-d280cd30c748
f 41/161/49 39/162/49 37/163/49
f 39/164/50 41/165/50 42/166/50 40/167/50
f 40/168/51 42/169/51 38/170/51
f 43/171/52 41/172/52 37/173/52
f 41/174/53 43/175/53 44/176/53 42/177/53
f 42/178/54 44/179/54 38/180/54
f 45/181/55 43/182/55 37/183/55
f 43/184/56 45/185/56 46/186/56 44/187/56
f 44/188/57 46/189/57 38/190/57
f 47/191/58 45/192/58 37/193/58
f 45/194/59 47/195/59 48/196/59 46/197/59
f 46/198/60 48/199/60 38/200/60
f 49/201/61 47/202/61 37/203/61
f 47/204/62 49/205/62 50/206/62 48/207/62
f 48/208/63 50/209/63 38/210/63
f 51/211/64 49/212/64 37/213/64
f 49/214/65 51/215/65 52/216/65 50/217/65
f 50/218/66 52/219/66 38/220/66
f 53/221/67 51/222/67 37/223/67
f 51/224/68 53/225/68 54/226/68 52/227/68
f 52/228/69 54/229/69 38/230/69
f 39/231/70 53/232/70 37/233/70
f 53/234/71 39/235/71 40/236/71 54/237/71
f 54/238/72 40/239/72 38/240/72
o cube
v -0.31250000000000006 1.25 -0.31249999999999994
v -0.31249999999999994 1.25 0.3125
v -0.31250000000000006 0.25 -0.31249999999999994
v -0.31249999999999994 0.25 0.3125
v 0.3125 1.25 0.3125
v 0.3125 1.25 -0.31250000000000006
v 0.3125 0.25 0.3125
v 0.3125 0.25 -0.31250000000000006
vt 0.1953125 1
vt 0.234375 1
vt 0.234375 0.9375
vt 0.1953125 0.9375
vt 0.1953125 1
vt 0.234375 1
vt 0.234375 0.9375
vt 0.1953125 0.9375
vt 0.1953125 1
vt 0.234375 1
vt 0.234375 0.9375
vt 0.1953125 0.9375
vt 0.1953125 1
vt 0.234375 1
vt 0.234375 0.9375
vt 0.1953125 0.9375
vt 0.234375 0.89453125
vt 0.1953125 0.89453125
vt 0.1953125 0.93359375
vt 0.234375 0.93359375
vt 0.234375 0.93359375
vt 0.1953125 0.93359375
vt 0.1953125 0.89453125
vt 0.234375 0.89453125
vn 1.2246467991473532e-16 0 1
vn -1 0 1.2246467991473532e-16
vn -1.2246467991473532e-16 0 -1
vn 1 0 -1.2246467991473532e-16
vn 0 1 0
vn 0 -1 0
usemtl m_d1c4fb60-9a11-da58-a3f5-d280cd30c748
f 58/244/73 61/243/73 59/242/73 56/241/73
f 57/248/74 58/247/74 56/246/74 55/245/74
f 62/252/75 57/251/75 55/250/75 60/249/75
f 61/256/76 62/255/76 60/254/76 59/253/76
f 60/260/77 55/259/77 56/258/77 59/257/77
f 61/264/78 58/263/78 57/262/78 62/261/78
g main
o base
v 2.7755575615628907e-17 0 -5.1810407815840646e-17
v 2.7755575615628907e-17 0.25 -5.1810407815840646e-17
v -0.41421356237309515 0 -1
v -0.41421356237309515 0.25 -1
v -1 0 -0.4142135623730951
v -1 0.25 -0.4142135623730951
v -1 0 0.4142135623730951
v -1 0.25 0.4142135623730951
v -0.41421356237309503 0 1
v -0.41421356237309503 0.25 1
v 0.41421356237309515 0 1
v 0.41421356237309515 0.25 1
v 0.9999999999999998 0 0.41421356237309553
v 0.9999999999999998 0.25 0.41421356237309553
v 1 0 -0.4142135623730954
v 1 0.25 -0.4142135623730954
v 0.4142135623730957 0 -0.9999999999999998
v 0.4142135623730957 0.25 -0.9999999999999998
vt 0.125 0.96338828125
vt 0.08838828125 1
vt 0.0625 0.9375
vt 0.12890625 0.91796875
vt 0.1796875 0.91796875
vt 0.1796875 0.93359375
vt 0.12890625 0.93359375
vt 0.08838828125 0.875
vt 0.125 0.91161171875
vt 0.0625 0.9375
vt 0.125 0.91161171875
vt 0.125 0.96338828125
vt 0.0625 0.9375
vt 0.12890625 0.91796875
vt 0.1796875 0.91796875
vt 0.1796875 0.93359375
vt 0.12890625 0.93359375
vt 0.125 0.91161171875
vt 0.125 0.96338828125
vt 0.0625 0.9375
vt 0.08838828125 0.875
vt 0.125 0.91161171875
vt 0.0625 0.9375
vt 0.12890625 0.91796875
vt 0.1796875 0.91796875
vt 0.1796875 0.93359375
vt 0.12890625 0.93359375
vt 0.125 0.96338828125
vt 0.08838828125 1
vt 0.0625 0.9375
vt 0.03661171875 0.875
vt 0.08838828125 0.875
vt 0.0625 0.9375
vt 0.12890625 0.91796875
vt 0.1796875 0.91796875
vt 0.1796875 0.93359375
vt 0.12890625 0.93359375
vt 0.08838828125 1
vt 0.036611718749999994 1
vt 0.0625 0.9375
vt 0 0.91161171875
vt 0.03661171875 0.875
vt 0.0625 0.9375
vt 0.12890625 0.91796875
vt 0.1796875 0.91796875
vt 0.1796875 0.93359375
vt 0.12890625 0.93359375
vt 0.036611718749999994 1
vt 0 0.96338828125
vt 0.0625 0.9375
vt 0 0.96338828125
vt 0 0.91161171875
vt 0.0625 0.9375
vt 0.12890625 0.91796875
vt 0.1796875 0.91796875
vt 0.1796875 0.93359375
vt 0.12890625 0.93359375
vt 0 0.96338828125
vt 0 0.91161171875
vt 0.0625 0.9375
vt 0.03661171875 1
vt 0 0.96338828125
vt 0.0625 0.9375
vt 0.12890625 0.91796875
vt 0.1796875 0.91796875
vt 0.1796875 0.93359375
vt 0.12890625 0.93359375
vt 0 0.91161171875
vt 0.036611718749999994 0.875
vt 0.0625 0.9375
vt 0.08838828125 1
vt 0.03661171875 1
vt 0.0625 0.9375
vt 0.12890625 0.91796875
vt 0.1796875 0.91796875
vt 0.1796875 0.93359375
vt 0.12890625 0.93359375
vt 0.036611718749999994 0.875
vt 0.08838828125 0.875
vt 0.0625 0.9375
vn 0 -1 0
vn -0.7071067811865476 0 -0.7071067811865475
vn 0 1 0
vn 0 -1 0
vn -1 0 1.2246467991473532e-16
vn 0 1 0
vn 0 -1 0
vn -0.7071067811865476 0 0.7071067811865476
vn 0 1 0
vn 0 -1 0
vn 1.2246467991473532e-16 0 1
vn 0 1 0
vn 0 -1 0
vn 0.7071067811865475 0 0.7071067811865477
vn 0 1 0
vn 0 -1 0
vn 1 0 1.4556686841615758e-16
vn 0 1 0
vn 0 -1 0
vn 0.7071067811865476 0 -0.7071067811865475
vn 0 1 0
vn 0 -1 0
vn 1.4556686841615758e-16 0 -1
vn 0 1 0
usemtl m_d1c4fb60-9a11-da58-a3f5-d280cd30c748
f 67/265/79 65/266/79 63/267/79
f 65/268/80 67/269/80 68/270/80 66/271/80
f 66/272/81 68/273/81 64/274/81
f 69/275/82 67/276/82 63/277/82
f 67/278/83 69/279/83 70/280/83 68/281/83
f 68/282/84 70/283/84 64/284/84
f 71/285/85 69/286/85 63/287/85
f 69/288/86 71/289/86 72/290/86 70/291/86
f 70/292/87 72/293/87 64/294/87
f 73/295/88 71/296/88 63/297/88
f 71/298/89 73/299/89 74/300/89 72/301/89
f 72/302/90 74/303/90 64/304/90
f 75/305/91 73/306/91 63/307/91
f 73/308/92 75/309/92 76/310/92 74/311/92
f 74/312/93 76/313/93 64/314/93
f 77/315/94 75/316/94 63/317/94
f 75/318/95 77/319/95 78/320/95 76/321/95
f 76/322/96 78/323/96 64/324/96
f 79/325/97 77/326/97 63/327/97
f 77/328/98 79/329/98 80/330/98 78/331/98
f 78/332/99 80/333/99 64/334/99
f 65/335/100 79/336/100 63/337/100
f 79/338/101 65/339/101 66/340/101 80/341/101
f 80/342/102 66/343/102 64/344/102