# Made in Blockbench 4.12.3
mtllib Computadora_B.mtl

g SadScreenFolder ComputaGaemin 
o SadScreen
v 0.25 1.5625 0.37500625
v 0.25 1.5625 0.37500625
v 0.25 1.125 0.37500625
v 0.25 1.125 0.37500625
v -0.25 1.5625 0.37500625
v -0.25 1.5625 0.37500625
v -0.25 1.125 0.37500625
v -0.25 1.125 0.37500625
vt 0.1015625 0.671875
vt 0.1640625 0.671875
vt 0.1640625 0.6171875
vt 0.1015625 0.6171875
vt 0.203125 0.609375
vt 0.203125 0.609375
vt 0.203125 0.5546875
vt 0.203125 0.5546875
vt 0.5546875 0.90625
vt 0.75 0.90625
vt 0.75 0.75
vt 0.5546875 0.75
vt 0.2109375 0.609375
vt 0.2109375 0.609375
vt 0.2109375 0.5546875
vt 0.2109375 0.5546875
vt 0.46875 0.8828125
vt 0.40625 0.8828125
vt 0.40625 0.8828125
vt 0.46875 0.8828125
vt 0.46875 0.875
vt 0.40625 0.875
vt 0.40625 0.875
vt 0.46875 0.875
vn 0 0 -1
vn 1 0 0
vn 0 0 1
vn -1 0 0
vn 0 1 0
vn 0 -1 0
usemtl m_7e2ded47-c995-0926-878c-406785270485
f 4/4/1 7/3/1 5/2/1 2/1/1
f 3/8/2 4/7/2 2/6/2 1/5/2
f 8/12/3 3/11/3 1/10/3 6/9/3
f 7/16/4 8/15/4 6/14/4 5/13/4
f 6/20/5 1/19/5 2/18/5 5/17/5
f 7/24/6 4/23/6 3/22/6 8/21/6
g ComputaGaemin 
o Terminal
v -0.375 1.8125 -0.4375
v 0.375 1.8125 -0.4375
v 0.375 1.8125 0.4375
v -0.375 1.8125 0.4375
v 0.375 0.0625 -0.4375
v -0.375 0.0625 -0.4375
v -0.375 0.0625 0.4375
v 0.375 0.0625 0.4375
v -0.375 1.875 0.375
v 0.375 1.875 0.375
v 0.4375 1.8125 0.375
v 0.4375 0.0625 0.375
v 0.375 0 0.375
v -0.375 0 0.375
v -0.4375 0.0625 0.375
v -0.4375 1.8125 0.375
v 0.375 1.875 -0.375
v -0.375 1.875 -0.375
v -0.4375 1.8125 -0.375
v -0.4375 0.0625 -0.375
v -0.375 0 -0.375
v 0.375 0 -0.375
v 0.4375 0.0625 -0.375
v 0.4375 1.8125 -0.375
v -0.375 1.625 0.4375
v 0.375 1.625 0.4375
v 0.4375 1.625 0.375
v 0.4375 1.625 -0.375
v 0.375 1.625 -0.4375
v -0.375 1.625 -0.4375
v -0.4375 1.625 -0.375
v -0.4375 1.625 0.375
v 0.375 1.09375 0.4375
v -0.375 1.09375 0.4375
v -0.4375 1.09375 0.375
v -0.4375 1.09375 -0.375
v -0.375 1.09375 -0.4375
v 0.375 1.09375 -0.4375
v 0.4375 1.09375 -0.375
v 0.4375 1.09375 0.375
v 0.3125 1.09375 0.4375
v 0.3125 1.625 0.4375
v 0.3125 1.8125 0.4375
v 0.3125 1.875 0.375
v 0.3125 1.875 -0.375
v 0.3125 1.8125 -0.4375
v 0.3125 1.625 -0.4375
v 0.3125 1.09375 -0.4375
v 0.3125 0.0625 -0.4375
v 0.3125 0 -0.375
v 0.3125 0 0.375
v 0.3125 0.0625 0.4375
v -0.3125 1.625 0.4375
v -0.3125 1.09375 0.4375
v -0.3125 0.0625 0.4375
v -0.3125 0 0.375
v -0.3125 0 -0.375
v -0.3125 0.0625 -0.4375
v -0.3125 1.09375 -0.4375
v -0.3125 1.625 -0.4375
v -0.3125 1.8125 -0.4375
v -0.3125 1.875 -0.375
v -0.3125 1.875 0.375
v -0.3125 1.8125 0.4375
v 0.25 1.5625 0.375
v -0.25 1.5625 0.375
v -0.25 1.15625 0.375
v 0.25 1.15625 0.375
v 0.4375 0.96875 -0.375
v 0.4375 0.96875 0.375
v 0.375 0.96875 0.4375
v 0.3125 0.96875 0.4375
v -0.3125 0.96875 0.4375
v -0.375 0.96875 0.4375
v -0.4375 0.96875 0.375
v -0.4375 0.96875 -0.375
v -0.375 0.96875 -0.4375
v -0.3125 0.96875 -0.4375
v 0.3125 0.96875 -0.4375
v 0.375 0.96875 -0.4375
v 0.375 0.90625 -0.375
v 0.375 0.90625 0.375
v 0.3125 0.90625 0.4375
v 0.25 0.90625 0.4375
v -0.3125 0.90625 0.4375
v -0.375 0.90625 0.4375
v -0.4375 0.90625 0.375
v -0.4375 0.90625 -0.375
v -0.375 0.90625 -0.4375
v -0.3125 0.90625 -0.4375
v 0.25 0.90625 -0.4375
v 0.3125 0.90625 -0.4375
v 0.375 0.84375 -0.375
v 0.375 0.84375 0.375
v 0.3125 0.84375 0.4375
v 0.25 0.84375 0.4375
v -0.3125 0.84375 0.4375
v -0.375 0.84375 0.4375
v -0.4375 0.84375 0.375
v -0.4375 0.84375 -0.375
v -0.375 0.84375 -0.4375
v -0.3125 0.84375 -0.4375
v 0.25 0.84375 -0.4375
v 0.3125 0.84375 -0.4375
v 0.4375 0.78125 -0.375
v 0.4375 0.78125 0.375
v 0.375 0.78125 0.4375
v 0.3125 0.78125 0.4375
v -0.3125 0.78125 0.4375
v -0.375 0.78125 0.4375
v -0.4375 0.78125 0.375
v -0.4375 0.78125 -0.375
v -0.375 0.78125 -0.4375
v -0.3125 0.78125 -0.4375
v 0.3125 0.78125 -0.4375
v 0.375 0.78125 -0.4375
v 0.4375 0.71875 -0.375
v 0.4375 0.71875 0.375
v 0.375 0.71875 0.4375
v 0.3125 0.71875 0.4375
v -0.3125 0.71875 0.4375
v -0.375 0.71875 0.4375
v -0.4375 0.71875 0.375
v -0.4375 0.71875 -0.375
v -0.375 0.71875 -0.4375
v -0.3125 0.71875 -0.4375
v 0.3125 0.71875 -0.4375
v 0.375 0.71875 -0.4375
v 0.375 0.65625 -0.375
v 0.375 0.65625 0.375
v 0.3125 0.65625 0.4375
v 0.25 0.65625 0.4375
v -0.3125 0.65625 0.4375
v -0.375 0.65625 0.4375
v -0.4375 0.65625 0.375
v -0.4375 0.65625 -0.375
v -0.375 0.65625 -0.4375
v -0.3125 0.65625 -0.4375
v 0.25 0.65625 -0.4375
v 0.3125 0.65625 -0.4375
v 0.375 0.59375 -0.375
v 0.375 0.59375 0.375
v 0.3125 0.59375 0.4375
v 0.25 0.59375 0.4375
v -0.3125 0.59375 0.4375
v -0.375 0.59375 0.4375
v -0.4375 0.59375 0.375
v -0.4375 0.59375 -0.375
v -0.375 0.59375 -0.4375
v -0.3125 0.59375 -0.4375
v 0.25 0.59375 -0.4375
v 0.3125 0.59375 -0.4375
v 0.4375 0.53125 -0.375
v 0.4375 0.53125 0.375
v 0.375 0.53125 0.4375
v 0.3125 0.53125 0.4375
v -0.3125 0.53125 0.4375
v -0.375 0.53125 0.4375
v -0.4375 0.53125 0.375
v -0.4375 0.53125 -0.375
v -0.375 0.53125 -0.4375
v -0.3125 0.53125 -0.4375
v 0.3125 0.53125 -0.4375
v 0.375 0.53125 -0.4375
v 0.4375 0.46875 -0.375
v 0.4375 0.46875 0.375
v 0.375 0.46875 0.4375
v 0.3125 0.46875 0.4375
v -0.3125 0.46875 0.4375
v -0.375 0.46875 0.4375
v -0.4375 0.46875 0.375
v -0.4375 0.46875 -0.375
v -0.375 0.46875 -0.4375
v -0.3125 0.46875 -0.4375
v 0.3125 0.46875 -0.4375
v 0.375 0.46875 -0.4375
v 0.375 0.40625 -0.375
v 0.375 0.40625 0.375
v 0.3125 0.40625 0.4375
v 0.25 0.40625 0.4375
v -0.3125 0.40625 0.4375
v -0.375 0.40625 0.4375
v -0.4375 0.40625 0.375
v -0.4375 0.40625 -0.375
v -0.375 0.40625 -0.4375
v -0.3125 0.40625 -0.4375
v 0.25 0.40625 -0.4375
v 0.3125 0.40625 -0.4375
v 0.375 0.34375 -0.375
v 0.375 0.34375 0.375
v 0.3125 0.34375 0.4375
v 0.25 0.34375 0.4375
v -0.3125 0.34375 0.4375
v -0.375 0.34375 0.4375
v -0.4375 0.34375 0.375
v -0.4375 0.34375 -0.375
v -0.375 0.34375 -0.4375
v -0.3125 0.34375 -0.4375
v 0.25 0.34375 -0.4375
v 0.3125 0.34375 -0.4375
v 0.4375 0.28125 -0.375
v 0.4375 0.28125 0.375
v 0.375 0.28125 0.4375
v 0.3125 0.28125 0.4375
v -0.3125 0.28125 0.4375
v -0.375 0.28125 0.4375
v -0.4375 0.28125 0.375
v -0.4375 0.28125 -0.375
v -0.375 0.28125 -0.4375
v -0.3125 0.28125 -0.4375
v 0.3125 0.28125 -0.4375
v 0.375 0.28125 -0.4375
vt 0 0.91015625
vt 0.0078125 0.91015625
vt 0.0078125 0.9765625
vt 0 0.9765625
vt 0.1953125 0.9765625
vt 0.1875 0.9765625
vt 0.1875 0.91015625
vt 0.1953125 0.91015625
vt 0.1953125 0.7734375
vt 0.1875 0.7734375
vt 0.1875 0.6796875
vt 0.1953125 0.6796875
vt 0.203125 0.9765625
vt 0.203125 0.91015625
vt 0.296875 0.91015625
vt 0.296875 0.9765625
vt 0.296875 0.7734375
vt 0.2890625 0.7734375
vt 0.2890625 0.6796875
vt 0.296875 0.6796875
vt 0 0.75
vt 0 0.68359375
vt 0.09375 0.68359375
vt 0.09375 0.75
vt 0.34765625 0.80926328125
vt 0.35546875 0.80926328125
vt 0.35546875 0.8203125
vt 0.34765625 0.8203125
vt 0.09375 0.625
vt 0.09375 0.6328125
vt 0 0.6328125
vt 0 0.625
vt 0.4453125 0.6171875
vt 0.4453125 0.625
vt 0.3515625 0.625
vt 0.3515625 0.6171875
vt 0.3046875 0.9765625
vt 0.3046875 0.91015625
vt 0.3157359375 0.91015625
vt 0.3157359375 0.9765625
vt 0.45703125 0.796875
vt 0.44921875 0.796875
vt 0.44921875 0.78582578125
vt 0.45703125 0.78582578125
vt 0.3327015625 0.7734375
vt 0.3327015625 0.70703125
vt 0.34375 0.70703125
vt 0.34375 0.7734375
vt 0.4453125 0.8203125
vt 0.4453125 0.8125
vt 0.453125 0.8125
vt 0.353713125 0.791350078125
vt 0.36328125 0.78582578125
vt 0.36328125 0.796873984375
vt 0.2421875 0.6484375
vt 0.2421875 0.58203125
vt 0.2532359375 0.58203125
vt 0.2532359375 0.6484375
vt 0.46875 0.7890625
vt 0.4609375 0.796875
vt 0.4609375 0.7890625
vt 0.34765625 0.80926328125
vt 0.34765625 0.820311484375
vt 0.338088125 0.814787578125
vt 0.3092640625 0.734375
vt 0.3092640625 0.66796875
vt 0.3203125 0.66796875
vt 0.3203125 0.734375
vt 0.45703125 0.76886171875
vt 0.44921875 0.76886171875
vt 0.44921875 0.7578125
vt 0.45703125 0.7578125
vt 0.09375 0.6171875
vt 0 0.6171875
vt 0 0.609375
vt 0.09375 0.609375
vt 0.466599375 0.763337421875
vt 0.45703125 0.76886171875
vt 0.45703125 0.757813515625
vt 0.3641590625 0.734375
vt 0.3719715625 0.734375
vt 0.3719715625 0.74542421875
vt 0.3641590625 0.74542421875
vt 0.3641590625 0.734375
vt 0.3641590625 0.745423203125
vt 0.3545909375 0.73989890625
vt 0.1953125 0.609375
vt 0.1015625 0.609375
vt 0.1015625 0.6015625
vt 0.1953125 0.6015625
vt 0.353713125 0.76333640625
vt 0.36328125 0.7578125
vt 0.36328125 0.768860703125
vt 0.1953125 1
vt 0.1875 1
vt 0.1875 0.9765625
vt 0.1953125 0.9765625
vt 0.3092640625 0.7578125
vt 0.3092640625 0.734375
vt 0.3203125 0.734375
vt 0.3203125 0.7578125
vt 0 0.7734375
vt 0 0.75
vt 0.09375 0.75
vt 0.09375 0.7734375
vt 0.3046875 1
vt 0.3046875 0.9765625
vt 0.3157359375 0.9765625
vt 0.3157359375 1
vt 0 0.9765625
vt 0.0078125 0.9765625
vt 0.0078125 1
vt 0 1
vt 0.3327015625 0.796875
vt 0.3327015625 0.7734375
vt 0.34375 0.7734375
vt 0.34375 0.796875
vt 0.203125 1
vt 0.203125 0.9765625
vt 0.296875 0.9765625
vt 0.296875 1
vt 0.2421875 0.671875
vt 0.2421875 0.6484375
vt 0.2532359375 0.6484375
vt 0.2532359375 0.671875
vt 0.1875 0.91015625
vt 0.1875 0.89453125
vt 0.1953125 0.89453125
vt 0.1953125 0.91015625
vt 0.2421875 0.58203125
vt 0.2421875 0.56640625
vt 0.2532359375 0.56640625
vt 0.2532359375 0.58203125
vt 0.203125 0.91015625
vt 0.203125 0.89453125
vt 0.296875 0.89453125
vt 0.296875 0.91015625
vt 0.3327015625 0.70703125
vt 0.3327015625 0.69140625
vt 0.34375 0.69140625
vt 0.34375 0.70703125
vt 0 0.91015625
vt 0 0.89453125
vt 0.0078125 0.89453125
vt 0.0078125 0.91015625
vt 0.3046875 0.91015625
vt 0.3046875 0.89453125
vt 0.3157359375 0.89453125
vt 0.3157359375 0.91015625
vt 0 0.68359375
vt 0 0.66796875
vt 0.09375 0.66796875
vt 0.09375 0.68359375
vt 0.3092640625 0.66796875
vt 0.3092640625 0.65234375
vt 0.3203125 0.65234375
vt 0.3203125 0.66796875
vt 0.1015625 0.91015625
vt 0.109375 0.91015625
vt 0.109375 0.9765625
vt 0.1015625 0.9765625
vt 0.1015625 0.9765625
vt 0.109375 0.9765625
vt 0.109375 1
vt 0.1015625 1
vt 0.36328125 0.78582578125
vt 0.37109375 0.78582578125
vt 0.37109375 0.796875
vt 0.36328125 0.796875
vt 0.1015625 0.6796875
vt 0.109375 0.6796875
vt 0.109375 0.7734375
vt 0.1015625 0.7734375
vt 0.4453125 0.8203125
vt 0.4375 0.8203125
vt 0.4375 0.8125
vt 0.4453125 0.8125
vt 0.09375 1
vt 0.0859375 1
vt 0.0859375 0.9765625
vt 0.09375 0.9765625
vt 0.09375 0.9765625
vt 0.0859375 0.9765625
vt 0.0859375 0.91015625
vt 0.09375 0.91015625
vt 0.0859375 0.91015625
vt 0.0859375 0.89453125
vt 0.09375 0.89453125
vt 0.09375 0.91015625
vt 0.4579090625 0.74542421875
vt 0.4500965625 0.74542421875
vt 0.4500965625 0.734375
vt 0.4579090625 0.734375
vt 0.203125 0.6796875
vt 0.2109375 0.6796875
vt 0.2109375 0.7734375
vt 0.203125 0.7734375
vt 0.36328125 0.7578125
vt 0.37109375 0.7578125
vt 0.37109375 0.76886171875
vt 0.36328125 0.76886171875
vt 0.1015625 0.91015625
vt 0.1015625 0.89453125
vt 0.109375 0.89453125
vt 0.109375 0.91015625
vt 0.390625 1
vt 0.328125 1
vt 0.328125 0.9453125
vt 0.390625 0.9453125
vt 0.109375 0.91015625
vt 0.109375 0.89453125
vt 0.1875 0.89453125
vt 0.1875 0.91015625
vt 0.453125 0.765625
vt 0.375 0.765625
vt 0.375 0.7578125
vt 0.453125 0.7578125
vt 0.2890625 0.7734375
vt 0.2109375 0.7734375
vt 0.2109375 0.6796875
vt 0.2890625 0.6796875
vt 0.375 0.734375
vt 0.453125 0.734375
vt 0.453125 0.7421875
vt 0.375 0.7421875
vt 0.0078125 0.91015625
vt 0.0078125 0.89453125
vt 0.0859375 0.89453125
vt 0.0859375 0.91015625
vt 0.0078125 0.91015625
vt 0.0859375 0.91015625
vt 0.0859375 0.9765625
vt 0.0078125 0.9765625
vt 0.0078125 0.9765625
vt 0.0859375 0.9765625
vt 0.0859375 1
vt 0.0078125 1
vt 0.359375 0.8125
vt 0.4375 0.8125
vt 0.4375 0.8203125
vt 0.359375 0.8203125
vt 0.1875 0.7734375
vt 0.109375 0.7734375
vt 0.109375 0.6796875
vt 0.1875 0.6796875
vt 0.453125 0.796875
vt 0.375 0.796875
vt 0.375 0.7890625
vt 0.453125 0.7890625
vt 0.1875 1
vt 0.109375 1
vt 0.109375 0.9765625
vt 0.1875 0.9765625
vt 0.109375 0.5859375
vt 0.171875 0.5859375
vt 0.1796875 0.59375
vt 0.1015625 0.59375
vt 0.2734375 0.61328125
vt 0.2734375 0.6640625
vt 0.265625 0.671875
vt 0.265625 0.60546875
vt 0.4765625 0.8984375
vt 0.4140625 0.8984375
vt 0.40625 0.890625
vt 0.484375 0.890625
vt 0.28125 0.6640625
vt 0.28125 0.61328125
vt 0.2890625 0.60546875
vt 0.2890625 0.671875
vt 0.3515625 0.609375
vt 0.3515625 0.6015625
vt 0.4453125 0.6015625
vt 0.4453125 0.609375
vt 0.3092640625 0.65234375
vt 0.30373984375 0.64277578125
vt 0.31478828125 0.64277578125
vt 0.3203125 0.65234375
vt 0.1875 0.89453125
vt 0.1796875 0.88671875
vt 0.1875 0.88671875
vt 0.1953125 0.89453125
vt 0.109375 0.89453125
vt 0.109375 0.88671875
vt 0.1796875 0.88671875
vt 0.1875 0.89453125
vt 0.1015625 0.89453125
vt 0.1015625 0.88671875
vt 0.109375 0.88671875
vt 0.109375 0.89453125
vt 0.2421875 0.56640625
vt 0.2421875 0.55859375
vt 0.2532359375 0.55859375
vt 0.2532359375 0.56640625
vt 0.203125 0.89453125
vt 0.203125 0.88671875
vt 0.296875 0.88671875
vt 0.296875 0.89453125
vt 0.3327015625 0.69140625
vt 0.3327015625 0.68359375
vt 0.34375 0.68359375
vt 0.34375 0.69140625
vt 0.0859375 0.89453125
vt 0.0859375 0.88671875
vt 0.09375 0.88671875
vt 0.09375 0.89453125
vt 0.0078125 0.89453125
vt 0.015625 0.88671875
vt 0.0859375 0.88671875
vt 0.0859375 0.89453125
vt 0 0.89453125
vt 0.0078125 0.88671875
vt 0.015625 0.88671875
vt 0.0078125 0.89453125
vt 0.3046875 0.89453125
vt 0.31021171875 0.88496328125
vt 0.32126015625 0.88496328125
vt 0.3157359375 0.89453125
vt 0.3515625 0.703125
vt 0.3515625 0.6953125
vt 0.4453125 0.6953125
vt 0.4453125 0.703125
vt 0.30373984375 0.64277578125
vt 0.30373984375 0.63496328125
vt 0.31478828125 0.63496328125
vt 0.31478828125 0.64277578125
vt 0.1796875 0.88671875
vt 0.1796875 0.87890625
vt 0.1875 0.87890625
vt 0.1875 0.88671875
vt 0.109375 0.88671875
vt 0.109375 0.87890625
vt 0.1796875 0.87890625
vt 0.1796875 0.88671875
vt 0.1015625 0.88671875
vt 0.1015625 0.87890625
vt 0.109375 0.87890625
vt 0.109375 0.88671875
vt 0.2421875 0.55859375
vt 0.2421875 0.55078125
vt 0.2532359375 0.55078125
vt 0.2532359375 0.55859375
vt 0.203125 0.88671875
vt 0.203125 0.87890625
vt 0.296875 0.87890625
vt 0.296875 0.88671875
vt 0.3327015625 0.68359375
vt 0.3327015625 0.67578125
vt 0.34375 0.67578125
vt 0.34375 0.68359375
vt 0.0859375 0.88671875
vt 0.0859375 0.87890625
vt 0.09375 0.87890625
vt 0.09375 0.88671875
vt 0.015625 0.88671875
vt 0.015625 0.87890625
vt 0.0859375 0.87890625
vt 0.0859375 0.88671875
vt 0.0078125 0.88671875
vt 0.0078125 0.87890625
vt 0.015625 0.87890625
vt 0.015625 0.88671875
vt 0.31021171875 0.88496328125
vt 0.31021171875 0.87715078125
vt 0.32126015625 0.87715078125
vt 0.32126015625 0.88496328125
vt 0 0.6015625
vt 0 0.59375
vt 0.09375 0.59375
vt 0.09375 0.6015625
vt 0.30373984375 0.63496328125
vt 0.3092640625 0.6253953125
vt 0.3203125 0.6253953125
vt 0.31478828125 0.63496328125
vt 0.1796875 0.87890625
vt 0.1875 0.87109375
vt 0.1953125 0.87109375
vt 0.1875 0.87890625
vt 0.109375 0.87890625
vt 0.109375 0.87109375
vt 0.1875 0.87109375
vt 0.1796875 0.87890625
vt 0.1015625 0.87890625
vt 0.1015625 0.87109375
vt 0.109375 0.87109375
vt 0.109375 0.87890625
vt 0.2421875 0.55078125
vt 0.2421875 0.54296875
vt 0.2532359375 0.54296875
vt 0.2532359375 0.55078125
vt 0.203125 0.87890625
vt 0.203125 0.87109375
vt 0.296875 0.87109375
vt 0.296875 0.87890625
vt 0.3327015625 0.67578125
vt 0.3327015625 0.66796875
vt 0.34375 0.66796875
vt 0.34375 0.67578125
vt 0.0859375 0.87890625
vt 0.0859375 0.87109375
vt 0.09375 0.87109375
vt 0.09375 0.87890625
vt 0.015625 0.87890625
vt 0.0078125 0.87109375
vt 0.0859375 0.87109375
vt 0.0859375 0.87890625
vt 0.0078125 0.87890625
vt 0 0.87109375
vt 0.0078125 0.87109375
vt 0.015625 0.87890625
vt 0.31021171875 0.87715078125
vt 0.3046875 0.8675828125
vt 0.3157359375 0.8675828125
vt 0.32126015625 0.87715078125
vt 0.3515625 0.6875
vt 0.3515625 0.6796875
vt 0.4453125 0.6796875
vt 0.4453125 0.6875
vt 0.3092640625 0.6253953125
vt 0.3092640625 0.6175828125
vt 0.3203125 0.6175828125
vt 0.3203125 0.6253953125
vt 0.1875 0.87109375
vt 0.1875 0.86328125
vt 0.1953125 0.86328125
vt 0.1953125 0.87109375
vt 0.109375 0.87109375
vt 0.109375 0.86328125
vt 0.1875 0.86328125
vt 0.1875 0.87109375
vt 0.1015625 0.87109375
vt 0.1015625 0.86328125
vt 0.109375 0.86328125
vt 0.109375 0.87109375
vt 0.2421875 0.54296875
vt 0.2421875 0.53515625
vt 0.2532359375 0.53515625
vt 0.2532359375 0.54296875
vt 0.203125 0.87109375
vt 0.203125 0.86328125
vt 0.296875 0.86328125
vt 0.296875 0.87109375
vt 0.3327015625 0.66796875
vt 0.3327015625 0.66015625
vt 0.34375 0.66015625
vt 0.34375 0.66796875
vt 0.0859375 0.87109375
vt 0.0859375 0.86328125
vt 0.09375 0.86328125
vt 0.09375 0.87109375
vt 0.0078125 0.87109375
vt 0.0078125 0.86328125
vt 0.0859375 0.86328125
vt 0.0859375 0.87109375
vt 0 0.87109375
vt 0 0.86328125
vt 0.0078125 0.86328125
vt 0.0078125 0.87109375
vt 0.3046875 0.8675828125
vt 0.3046875 0.8597703125
vt 0.3157359375 0.8597703125
vt 0.3157359375 0.8675828125
vt 0.3984375 1
vt 0.3984375 0.9921875
vt 0.4921875 0.9921875
vt 0.4921875 1
vt 0.3092640625 0.6175828125
vt 0.30373984375 0.6080148437499999
vt 0.31478828125 0.6080148437499999
vt 0.3203125 0.6175828125
vt 0.1875 0.86328125
vt 0.1796875 0.85546875
vt 0.1875 0.85546875
vt 0.1953125 0.86328125
vt 0.109375 0.86328125
vt 0.109375 0.85546875
vt 0.1796875 0.85546875
vt 0.1875 0.86328125
vt 0.1015625 0.86328125
vt 0.1015625 0.85546875
vt 0.109375 0.85546875
vt 0.109375 0.86328125
vt 0.2421875 0.53515625
vt 0.2421875 0.52734375
vt 0.2532359375 0.52734375
vt 0.2532359375 0.53515625
vt 0.203125 0.86328125
vt 0.203125 0.85546875
vt 0.296875 0.85546875
vt 0.296875 0.86328125
vt 0.3327015625 0.66015625
vt 0.3327015625 0.65234375
vt 0.34375 0.65234375
vt 0.34375 0.66015625
vt 0.0859375 0.86328125
vt 0.0859375 0.85546875
vt 0.09375 0.85546875
vt 0.09375 0.86328125
vt 0.0078125 0.86328125
vt 0.015625 0.85546875
vt 0.0859375 0.85546875
vt 0.0859375 0.86328125
vt 0 0.86328125
vt 0.0078125 0.85546875
vt 0.015625 0.85546875
vt 0.0078125 0.86328125
vt 0.3046875 0.8597703125
vt 0.31021171875 0.85020234375
vt 0.32126015625 0.85020234375
vt 0.3157359375 0.8597703125
vt 0.3515625 0.671875
vt 0.3515625 0.6640625
vt 0.4453125 0.6640625
vt 0.4453125 0.671875
vt 0.30373984375 0.6080148437499999
vt 0.30373984375 0.6002023437499999
vt 0.31478828125 0.6002023437499999
vt 0.31478828125 0.6080148437499999
vt 0.1796875 0.85546875
vt 0.1796875 0.84765625
vt 0.1875 0.84765625
vt 0.1875 0.85546875
vt 0.109375 0.85546875
vt 0.109375 0.84765625
vt 0.1796875 0.84765625
vt 0.1796875 0.85546875
vt 0.1015625 0.85546875
vt 0.1015625 0.84765625
vt 0.109375 0.84765625
vt 0.109375 0.85546875
vt 0.2421875 0.52734375
vt 0.2421875 0.51953125
vt 0.2532359375 0.51953125
vt 0.2532359375 0.52734375
vt 0.203125 0.85546875
vt 0.203125 0.84765625
vt 0.296875 0.84765625
vt 0.296875 0.85546875
vt 0.3327015625 0.65234375
vt 0.3327015625 0.64453125
vt 0.34375 0.64453125
vt 0.34375 0.65234375
vt 0.0859375 0.85546875
vt 0.0859375 0.84765625
vt 0.09375 0.84765625
vt 0.09375 0.85546875
vt 0.015625 0.85546875
vt 0.015625 0.84765625
vt 0.0859375 0.84765625
vt 0.0859375 0.85546875
vt 0.0078125 0.85546875
vt 0.0078125 0.84765625
vt 0.015625 0.84765625
vt 0.015625 0.85546875
vt 0.31021171875 0.85020234375
vt 0.31021171875 0.84238984375
vt 0.32126015625 0.84238984375
vt 0.32126015625 0.85020234375
vt 0.3984375 0.984375
vt 0.3984375 0.9765625
vt 0.4921875 0.9765625
vt 0.4921875 0.984375
vt 0.30373984375 0.6002023437499999
vt 0.3092640625 0.590634375
vt 0.3203125 0.590634375
vt 0.31478828125 0.6002023437499999
vt 0.1796875 0.84765625
vt 0.1875 0.83984375
vt 0.1953125 0.83984375
vt 0.1875 0.84765625
vt 0.109375 0.84765625
vt 0.109375 0.83984375
vt 0.1875 0.83984375
vt 0.1796875 0.84765625
vt 0.1015625 0.84765625
vt 0.1015625 0.83984375
vt 0.109375 0.83984375
vt 0.109375 0.84765625
vt 0.2421875 0.51953125
vt 0.2421875 0.51171875
vt 0.2532359375 0.51171875
vt 0.2532359375 0.51953125
vt 0.203125 0.84765625
vt 0.203125 0.83984375
vt 0.296875 0.83984375
vt 0.296875 0.84765625
vt 0.3327015625 0.64453125
vt 0.3327015625 0.63671875
vt 0.34375 0.63671875
vt 0.34375 0.64453125
vt 0.0859375 0.84765625
vt 0.0859375 0.83984375
vt 0.09375 0.83984375
vt 0.09375 0.84765625
vt 0.015625 0.84765625
vt 0.0078125 0.83984375
vt 0.0859375 0.83984375
vt 0.0859375 0.84765625
vt 0.0078125 0.84765625
vt 0 0.83984375
vt 0.0078125 0.83984375
vt 0.015625 0.84765625
vt 0.31021171875 0.84238984375
vt 0.3046875 0.832821875
vt 0.3157359375 0.832821875
vt 0.32126015625 0.84238984375
vt 0.3515625 0.65625
vt 0.3515625 0.6484375
vt 0.4453125 0.6484375
vt 0.4453125 0.65625
vt 0.3092640625 0.590634375
vt 0.3092640625 0.582821875
vt 0.3203125 0.582821875
vt 0.3203125 0.590634375
vt 0.1875 0.83984375
vt 0.1875 0.83203125
vt 0.1953125 0.83203125
vt 0.1953125 0.83984375
vt 0.109375 0.83984375
vt 0.109375 0.83203125
vt 0.1875 0.83203125
vt 0.1875 0.83984375
vt 0.1015625 0.83984375
vt 0.1015625 0.83203125
vt 0.109375 0.83203125
vt 0.109375 0.83984375
vt 0.2421875 0.51171875
vt 0.2421875 0.50390625
vt 0.2532359375 0.50390625
vt 0.2532359375 0.51171875
vt 0.203125 0.83984375
vt 0.203125 0.83203125
vt 0.296875 0.83203125
vt 0.296875 0.83984375
vt 0.3327015625 0.63671875
vt 0.3327015625 0.62890625
vt 0.34375 0.62890625
vt 0.34375 0.63671875
vt 0.0859375 0.83984375
vt 0.0859375 0.83203125
vt 0.09375 0.83203125
vt 0.09375 0.83984375
vt 0.0078125 0.83984375
vt 0.0078125 0.83203125
vt 0.0859375 0.83203125
vt 0.0859375 0.83984375
vt 0 0.83984375
vt 0 0.83203125
vt 0.0078125 0.83203125
vt 0.0078125 0.83984375
vt 0.3046875 0.832821875
vt 0.3046875 0.825009375
vt 0.3157359375 0.825009375
vt 0.3157359375 0.832821875
vt 0.3984375 0.96875
vt 0.3984375 0.9609375
vt 0.4921875 0.9609375
vt 0.4921875 0.96875
vt 0.3092640625 0.582821875
vt 0.30373984375 0.5732531249999999
vt 0.31478828125 0.5732531249999999
vt 0.3203125 0.582821875
vt 0.1875 0.83203125
vt 0.1796875 0.82421875
vt 0.1875 0.82421875
vt 0.1953125 0.83203125
vt 0.109375 0.83203125
vt 0.109375 0.82421875
vt 0.1796875 0.82421875
vt 0.1875 0.83203125
vt 0.1015625 0.83203125
vt 0.1015625 0.82421875
vt 0.109375 0.82421875
vt 0.109375 0.83203125
vt 0.2421875 0.50390625
vt 0.2421875 0.49609375
vt 0.2532359375 0.49609375
vt 0.2532359375 0.50390625
vt 0.203125 0.83203125
vt 0.203125 0.82421875
vt 0.296875 0.82421875
vt 0.296875 0.83203125
vt 0.3327015625 0.62890625
vt 0.3327015625 0.62109375
vt 0.34375 0.62109375
vt 0.34375 0.62890625
vt 0.0859375 0.83203125
vt 0.0859375 0.82421875
vt 0.09375 0.82421875
vt 0.09375 0.83203125
vt 0.0078125 0.83203125
vt 0.015625 0.82421875
vt 0.0859375 0.82421875
vt 0.0859375 0.83203125
vt 0 0.83203125
vt 0.0078125 0.82421875
vt 0.015625 0.82421875
vt 0.0078125 0.83203125
vt 0.3046875 0.825009375
vt 0.31021171875 0.815440625
vt 0.32126015625 0.815440625
vt 0.3157359375 0.825009375
vt 0.3515625 0.640625
vt 0.3515625 0.6328125
vt 0.4453125 0.6328125
vt 0.4453125 0.640625
vt 0.30373984375 0.5732531249999999
vt 0.30373984375 0.5654406249999999
vt 0.31478828125 0.5654406249999999
vt 0.31478828125 0.5732531249999999
vt 0.1796875 0.82421875
vt 0.1796875 0.81640625
vt 0.1875 0.81640625
vt 0.1875 0.82421875
vt 0.109375 0.82421875
vt 0.109375 0.81640625
vt 0.1796875 0.81640625
vt 0.1796875 0.82421875
vt 0.1015625 0.82421875
vt 0.1015625 0.81640625
vt 0.109375 0.81640625
vt 0.109375 0.82421875
vt 0.2421875 0.49609375
vt 0.2421875 0.48828125
vt 0.2532359375 0.48828125
vt 0.2532359375 0.49609375
vt 0.203125 0.82421875
vt 0.203125 0.81640625
vt 0.296875 0.81640625
vt 0.296875 0.82421875
vt 0.3327015625 0.62109375
vt 0.3327015625 0.61328125
vt 0.34375 0.61328125
vt 0.34375 0.62109375
vt 0.0859375 0.82421875
vt 0.0859375 0.81640625
vt 0.09375 0.81640625
vt 0.09375 0.82421875
vt 0.015625 0.82421875
vt 0.015625 0.81640625
vt 0.0859375 0.81640625
vt 0.0859375 0.82421875
vt 0.0078125 0.82421875
vt 0.0078125 0.81640625
vt 0.015625 0.81640625
vt 0.015625 0.82421875
vt 0.31021171875 0.815440625
vt 0.31021171875 0.807628125
vt 0.32126015625 0.807628125
vt 0.32126015625 0.815440625
vt 0.3984375 0.953125
vt 0.3984375 0.9453125
vt 0.4921875 0.9453125
vt 0.4921875 0.953125
vt 0.30373984375 0.5654406249999999
vt 0.3092640625 0.555871875
vt 0.3203125 0.555871875
vt 0.31478828125 0.5654406249999999
vt 0.1796875 0.81640625
vt 0.1875 0.80859375
vt 0.1953125 0.80859375
vt 0.1875 0.81640625
vt 0.109375 0.81640625
vt 0.109375 0.80859375
vt 0.1875 0.80859375
vt 0.1796875 0.81640625
vt 0.1015625 0.81640625
vt 0.1015625 0.80859375
vt 0.109375 0.80859375
vt 0.109375 0.81640625
vt 0.2421875 0.48828125
vt 0.2421875 0.48046875
vt 0.2532359375 0.48046875
vt 0.2532359375 0.48828125
vt 0.203125 0.81640625
vt 0.203125 0.80859375
vt 0.296875 0.80859375
vt 0.296875 0.81640625
vt 0.3327015625 0.61328125
vt 0.3327015625 0.60546875
vt 0.34375 0.60546875
vt 0.34375 0.61328125
vt 0.0859375 0.81640625
vt 0.0859375 0.80859375
vt 0.09375 0.80859375
vt 0.09375 0.81640625
vt 0.015625 0.81640625
vt 0.0078125 0.80859375
vt 0.0859375 0.80859375
vt 0.0859375 0.81640625
vt 0.0078125 0.81640625
vt 0 0.80859375
vt 0.0078125 0.80859375
vt 0.015625 0.81640625
vt 0.31021171875 0.807628125
vt 0.3046875 0.798059375
vt 0.3157359375 0.798059375
vt 0.32126015625 0.807628125
vt 0.421875 0.90625
vt 0.421875 0.9375
vt 0.328125 0.9375
vt 0.328125 0.90625
vt 0.3203125 0.53125
vt 0.3203125 0.5546875
vt 0.3125 0.5546875
vt 0.3125 0.53125
vt 0.1953125 0.78125
vt 0.1953125 0.80859375
vt 0.1875 0.80859375
vt 0.1875 0.78125
vt 0.1875 0.78125
vt 0.1875 0.80859375
vt 0.109375 0.80859375
vt 0.109375 0.78125
vt 0.109375 0.78125
vt 0.109375 0.80859375
vt 0.1015625 0.80859375
vt 0.1015625 0.78125
vt 0.25 0.453125
vt 0.25 0.4765625
vt 0.2421875 0.4765625
vt 0.2421875 0.453125
vt 0.296875 0.78125
vt 0.296875 0.80859375
vt 0.203125 0.80859375
vt 0.203125 0.78125
vt 0.34375 0.578125
vt 0.34375 0.6015625
vt 0.3359375 0.6015625
vt 0.3359375 0.578125
vt 0.09375 0.78125
vt 0.09375 0.80859375
vt 0.0859375 0.80859375
vt 0.0859375 0.78125
vt 0.0859375 0.78125
vt 0.0859375 0.80859375
vt 0.0078125 0.80859375
vt 0.0078125 0.78125
vt 0.0078125 0.78125
vt 0.0078125 0.80859375
vt 0 0.80859375
vt 0 0.78125
vt 0.3125 0.7734375
vt 0.3125 0.796875
vt 0.3046875 0.796875
vt 0.3046875 0.7734375
vt 0.0078125 0.5859375
vt 0 0.5859375
vt 0.0078125 0.578125
vn 0 0 -1
vn 0 0 1
vn 0 1 0
vn -1 0 0
vn 0 -1 0
vn 1 0 0
vn 0 0.7071067811865476 -0.7071067811865476
vn -0.7071067811865476 0.7071067811865476 0
vn 0.7071067811865476 0.7071067811865476 0
vn 0.7071067811865476 0 -0.7071067811865476
vn 0 0.7071067811865476 0.7071067811865476
vn -0.7071067811865476 0 -0.7071067811865476
vn -0.5773502691896258 0.5773502691896258 -0.5773502691896258
vn -0.5773502691896258 0.5773502691896258 0.5773502691896258
vn -0.7071067811865476 0 0.7071067811865476
vn 0.5773502691896258 0.5773502691896258 0.5773502691896258
vn 0.5773502691896258 0.5773502691896258 -0.5773502691896258
vn 0.7071067811865476 0 0.7071067811865476
vn 0 -0.7071067811865476 0.7071067811865476
vn 0.7071067811865476 -0.7071067811865476 0
vn 0.5773502691896258 -0.5773502691896258 0.5773502691896258
vn 0 -0.7071067811865476 -0.7071067811865476
vn 0.5773502691896258 -0.5773502691896258 -0.5773502691896258
vn -0.7071067811865476 -0.7071067811865476 0
vn -0.5773502691896258 -0.5773502691896258 0.5773502691896258
vn 0 0 1
vn 0.7071067811865476 0 0.7071067811865476
vn 1 0 0
vn 0.7071067811865476 0 -0.7071067811865476
vn 0 0 -1
vn -0.7071067811865476 0 -0.7071067811865476
vn -1 0 0
vn -0.7071067811865476 0 0.7071067811865476
vn 0 0 1
vn -0.7071067811865476 0 0.7071067811865476
vn -1 0 0
vn -0.7071067811865476 0 -0.7071067811865476
vn 0 0 -1
vn 0.7071067811865476 0 -0.7071067811865476
vn 1 0 0
vn 0.7071067811865476 0 0.7071067811865476
vn 0 0 1
vn 0 0 1
vn 0 0.7071067811865476 0.7071067811865476
vn 0 1 0
vn 0 0.7071067811865476 -0.7071067811865476
vn 0 0 -1
vn 0 0 -1
vn 0 0 -1
vn 0 -0.7071067811865476 -0.7071067811865476
vn 0 -1 0
vn 0 -0.7071067811865476 0.7071067811865476
vn 0 0 1
vn 0 0 1
vn 0 0 1
vn 0 -0.7071067811865476 0.7071067811865476
vn 0 -1 0
vn 0 -0.7071067811865476 -0.7071067811865476
vn 0 0 -1
vn 0 0 -1
vn 0 0 -1
vn 0 0.7071067811865476 -0.7071067811865476
vn 0 1 0
vn 0 0.7071067811865476 0.7071067811865476
vn 0 0 1
vn 0 -0.7071067811865476 0.7071067811865476
vn 0.7071067811865476 0 0.7071067811865476
vn 0 0.7071067811865476 0.7071067811865476
vn -0.7071067811865476 0 0.7071067811865476
vn 0.7071067811865476 -0.7071067811865476 0
vn 0.5773502691896258 -0.5773502691896258 0.5773502691896258
vn 0 0 1
vn 0 0 1
vn 0 0 1
vn -0.7071067811865476 0 0.7071067811865476
vn -1 0 0
vn -0.7071067811865476 0 -0.7071067811865476
vn 0 0 -1
vn 0 0 -1
vn 0 0 -1
vn 0.5773502691896258 -0.5773502691896258 -0.5773502691896258
vn 1 0 0
vn 0.7071067811865476 0 0.7071067811865476
vn 0 0 1
vn 0 0 1
vn 0 0 1
vn -0.7071067811865476 0 0.7071067811865476
vn -1 0 0
vn -0.7071067811865476 0 -0.7071067811865476
vn 0 0 -1
vn 0 0 -1
vn 0 0 -1
vn 0.7071067811865476 0 -0.7071067811865476
vn 0.7071067811865476 0.7071067811865476 0
vn 0.5773502691896258 0.5773502691896258 0.5773502691896258
vn 0 0 1
vn 0 0 1
vn 0 0 1
vn -0.7071067811865476 0 0.7071067811865476
vn -1 0 0
vn -0.7071067811865476 0 -0.7071067811865476
vn 0 0 -1
vn 0 0 -1
vn 0 0 -1
vn 0.5773502691896258 0.5773502691896258 -0.5773502691896258
vn 1 0 0
vn 0.7071067811865476 0 0.7071067811865476
vn 0 0 1
vn 0 0 1
vn 0 0 1
vn -0.7071067811865476 0 0.7071067811865476
vn -1 0 0
vn -0.7071067811865476 0 -0.7071067811865476
vn 0 0 -1
vn 0 0 -1
vn 0 0 -1
vn 0.7071067811865476 0 -0.7071067811865476
vn 0.7071067811865476 -0.7071067811865476 0
vn 0.5773502691896258 -0.5773502691896258 0.5773502691896258
vn 0 0 1
vn 0 0 1
vn 0 0 1
vn -0.7071067811865476 0 0.7071067811865476
vn -1 0 0
vn -0.7071067811865476 0 -0.7071067811865476
vn 0 0 -1
vn 0 0 -1
vn 0 0 -1
vn 0.5773502691896258 -0.5773502691896258 -0.5773502691896258
vn 1 0 0
vn 0.7071067811865476 0 0.7071067811865476
vn 0 0 1
vn 0 0 1
vn 0 0 1
vn -0.7071067811865476 0 0.7071067811865476
vn -1 0 0
vn -0.7071067811865476 0 -0.7071067811865476
vn 0 0 -1
vn 0 0 -1
vn 0 0 -1
vn 0.7071067811865476 0 -0.7071067811865476
vn 0.7071067811865476 0.7071067811865476 0
vn 0.5773502691896258 0.5773502691896258 0.5773502691896258
vn 0 0 1
vn 0 0 1
vn 0 0 1
vn -0.7071067811865476 0 0.7071067811865476
vn -1 0 0
vn -0.7071067811865476 0 -0.7071067811865476
vn 0 0 -1
vn 0 0 -1
vn 0 0 -1
vn 0.5773502691896258 0.5773502691896258 -0.5773502691896258
vn 1 0 0
vn 0.7071067811865476 0 0.7071067811865476
vn 0 0 1
vn 0 0 1
vn 0 0 1
vn -0.7071067811865476 0 0.7071067811865476
vn -1 0 0
vn -0.7071067811865476 0 -0.7071067811865476
vn 0 0 -1
vn 0 0 -1
vn 0 0 -1
vn 0.7071067811865476 0 -0.7071067811865476
vn 0.7071067811865476 -0.7071067811865476 0
vn 0.5773502691896258 -0.5773502691896258 0.5773502691896258
vn 0 0 1
vn 0 0 1
vn 0 0 1
vn -0.7071067811865476 0 0.7071067811865476
vn -1 0 0
vn -0.7071067811865476 0 -0.7071067811865476
vn 0 0 -1
vn 0 0 -1
vn 0 0 -1
vn 0.5773502691896258 -0.5773502691896258 -0.5773502691896258
vn 1 0 0
vn 0.7071067811865476 0 0.7071067811865476
vn 0 0 1
vn 0 0 1
vn 0 0 1
vn -0.7071067811865476 0 0.7071067811865476
vn -1 0 0
vn -0.7071067811865476 0 -0.7071067811865476
vn 0 0 -1
vn 0 0 -1
vn 0 0 -1
vn 0.7071067811865476 0 -0.7071067811865476
vn 0.7071067811865476 0.7071067811865476 0
vn 0.5773502691896258 0.5773502691896258 0.5773502691896258
vn 0 0 1
vn 0 0 1
vn 0 0 1
vn -0.7071067811865476 0 0.7071067811865476
vn -1 0 0
vn -0.7071067811865476 0 -0.7071067811865476
vn 0 0 -1
vn 0 0 -1
vn 0 0 -1
vn 0.5773502691896258 0.5773502691896258 -0.5773502691896258
vn 1 0 0
vn 0.7071067811865476 0 0.7071067811865476
vn 0 0 1
vn 0 0 1
vn 0 0 1
vn -0.7071067811865476 0 0.7071067811865476
vn -1 0 0
vn -0.7071067811865476 0 -0.7071067811865476
vn 0 0 -1
vn 0 0 -1
vn 0 0 -1
vn 0.7071067811865476 0 -0.7071067811865476
vn -0.5773502691896258 -0.5773502691896258 -0.5773502691896258
usemtl m_7e2ded47-c995-0926-878c-406785270485
f 46/25/7 56/26/7 55/27/7 37/28/7
f 34/29/8 50/30/8 49/31/8 41/32/8
f 25/33/9 53/34/9 52/35/9 18/36/9
f 39/37/10 44/38/10 43/39/10 40/40/10
f 21/41/11 59/42/11 58/43/11 30/44/11
f 35/45/12 48/46/12 47/47/12 36/48/12
f 10/49/13 54/50/13 53/51/13 25/52/13
f 24/53/14 17/54/14 26/55/14 27/56/14
f 32/57/15 25/58/15 18/59/15 19/60/15
f 36/61/16 47/62/16 46/63/16 37/64/16
f 18/65/17 52/66/17 51/67/17 11/68/17
f 38/69/18 45/70/18 44/71/18 39/72/18
f 26/73/19 9/74/19 27/75/19
f 24/76/20 12/77/20 17/78/20
f 40/79/21 43/80/21 42/81/21 33/82/21
f 19/83/22 18/84/22 11/85/22
f 10/86/23 25/87/23 32/88/23
f 34/89/24 41/90/24 48/91/24 35/92/24
f 16/93/25 60/94/25 59/95/25 21/96/25
f 31/97/26 20/98/26 21/99/26 30/100/26
f 20/101/27 16/102/27 21/103/27
f 30/104/28 58/105/28 57/106/28 13/107/28
f 30/108/29 13/109/29 31/110/29
f 23/111/30 28/112/30 29/113/30 22/114/30
f 23/115/31 22/116/31 15/117/31
f 11/118/32 51/119/32 50/120/32 34/121/32
f 11/122/33 34/123/33 35/124/33 19/125/33
f 19/126/34 35/127/34 36/128/34 32/129/34
f 32/130/35 36/131/35 37/132/35 10/133/35
f 37/134/36 55/135/36 54/136/36 10/137/36
f 9/138/37 38/139/37 39/140/37 27/141/37
f 27/142/38 39/143/38 40/144/38 24/145/38
f 24/146/39 40/147/39 33/148/39 12/149/39
f 49/150/40 80/151/40 79/152/40 41/153/40
f 43/154/41 83/155/41 82/156/41 42/157/41
f 44/158/42 84/159/42 83/160/42 43/161/42
f 45/162/43 85/163/43 84/164/43 44/165/43
f 46/166/44 88/167/44 87/168/44 56/169/44
f 47/170/45 77/171/45 88/172/45 46/173/45
f 48/174/46 78/175/46 77/176/46 47/177/46
f 41/178/47 79/179/47 78/180/47 48/181/47
f 42/182/48 62/183/48 61/184/48 33/185/48
f 33/186/49 61/187/49 72/188/49 12/189/49
f 12/190/50 72/191/50 71/192/50 17/193/50
f 17/194/51 71/195/51 70/196/51 26/197/51
f 26/198/52 70/199/52 69/200/52 9/201/52
f 9/202/53 69/203/53 68/204/53 38/205/53
f 38/206/54 68/207/54 67/208/54 45/209/54
f 67/210/55 86/211/55 85/212/55 45/213/55
f 14/214/56 66/215/56 65/216/56 29/217/56
f 29/218/57 65/219/57 64/220/57 22/221/57
f 22/222/58 64/223/58 63/224/58 15/225/58
f 42/226/59 82/227/59 81/228/59 62/229/59
f 73/230/60 74/231/60 75/232/60 76/233/60
f 62/234/61 81/235/61 80/236/61 49/237/61
f 60/238/62 63/239/62 64/240/62 59/241/62
f 59/242/63 64/243/63 65/244/63 58/245/63
f 58/246/64 65/247/64 66/248/64 57/249/64
f 56/250/65 87/251/65 86/252/65 67/253/65
f 56/254/66 67/255/66 68/256/66 55/257/66
f 55/258/67 68/259/67 69/260/67 54/261/67
f 54/262/68 69/263/68 70/264/68 53/265/68
f 53/266/69 70/267/69 71/268/69 52/269/69
f 52/270/70 71/271/70 72/272/70 51/273/70
f 51/274/71 72/275/71 61/276/71 50/277/71
f 74/278/72 73/279/72 50/280/72 61/281/72
f 75/282/73 74/283/73 61/284/73 62/285/73
f 76/286/74 75/287/74 62/288/74 49/289/74
f 73/290/75 76/291/75 49/292/75 50/293/75
f 78/294/76 90/295/76 89/296/76 77/297/76
f 79/298/77 91/299/77 90/300/77 78/301/77
f 80/302/78 92/303/78 91/304/78 79/305/78
f 81/306/79 93/307/79 92/308/79 80/309/79
f 82/310/80 94/311/80 93/312/80 81/313/80
f 83/314/81 95/315/81 94/316/81 82/317/81
f 84/318/82 96/319/82 95/320/82 83/321/82
f 85/322/83 97/323/83 96/324/83 84/325/83
f 86/326/84 98/327/84 97/328/84 85/329/84
f 87/330/85 99/331/85 98/332/85 86/333/85
f 88/334/86 100/335/86 99/336/86 87/337/86
f 77/338/87 89/339/87 100/340/87 88/341/87
f 90/342/88 102/343/88 101/344/88 89/345/88
f 91/346/89 103/347/89 102/348/89 90/349/89
f 92/350/90 104/351/90 103/352/90 91/353/90
f 93/354/91 105/355/91 104/356/91 92/357/91
f 94/358/92 106/359/92 105/360/92 93/361/92
f 95/362/93 107/363/93 106/364/93 94/365/93
f 96/366/94 108/367/94 107/368/94 95/369/94
f 97/370/95 109/371/95 108/372/95 96/373/95
f 98/374/96 110/375/96 109/376/96 97/377/96
f 99/378/97 111/379/97 110/380/97 98/381/97
f 100/382/98 112/383/98 111/384/98 99/385/98
f 89/386/99 101/387/99 112/388/99 100/389/99
f 102/390/100 114/391/100 113/392/100 101/393/100
f 103/394/101 115/395/101 114/396/101 102/397/101
f 104/398/102 116/399/102 115/400/102 103/401/102
f 105/402/103 117/403/103 116/404/103 104/405/103
f 106/406/104 118/407/104 117/408/104 105/409/104
f 107/410/105 119/411/105 118/412/105 106/413/105
f 108/414/106 120/415/106 119/416/106 107/417/106
f 109/418/107 121/419/107 120/420/107 108/421/107
f 110/422/108 122/423/108 121/424/108 109/425/108
f 111/426/109 123/427/109 122/428/109 110/429/109
f 112/430/110 124/431/110 123/432/110 111/433/110
f 101/434/111 113/435/111 124/436/111 112/437/111
f 114/438/112 126/439/112 125/440/112 113/441/112
f 115/442/113 127/443/113 126/444/113 114/445/113
f 116/446/114 128/447/114 127/448/114 115/449/114
f 117/450/115 129/451/115 128/452/115 116/453/115
f 118/454/116 130/455/116 129/456/116 117/457/116
f 119/458/117 131/459/117 130/460/117 118/461/117
f 120/462/118 132/463/118 131/464/118 119/465/118
f 121/466/119 133/467/119 132/468/119 120/469/119
f 122/470/120 134/471/120 133/472/120 121/473/120
f 123/474/121 135/475/121 134/476/121 122/477/121
f 124/478/122 136/479/122 135/480/122 123/481/122
f 113/482/123 125/483/123 136/484/123 124/485/123
f 126/486/124 138/487/124 137/488/124 125/489/124
f 127/490/125 139/491/125 138/492/125 126/493/125
f 128/494/126 140/495/126 139/496/126 127/497/126
f 129/498/127 141/499/127 140/500/127 128/501/127
f 130/502/128 142/503/128 141/504/128 129/505/128
f 131/506/129 143/507/129 142/508/129 130/509/129
f 132/510/130 144/511/130 143/512/130 131/513/130
f 133/514/131 145/515/131 144/516/131 132/517/131
f 134/518/132 146/519/132 145/520/132 133/521/132
f 135/522/133 147/523/133 146/524/133 134/525/133
f 136/526/134 148/527/134 147/528/134 135/529/134
f 125/530/135 137/531/135 148/532/135 136/533/135
f 138/534/136 150/535/136 149/536/136 137/537/136
f 139/538/137 151/539/137 150/540/137 138/541/137
f 140/542/138 152/543/138 151/544/138 139/545/138
f 141/546/139 153/547/139 152/548/139 140/549/139
f 142/550/140 154/551/140 153/552/140 141/553/140
f 143/554/141 155/555/141 154/556/141 142/557/141
f 144/558/142 156/559/142 155/560/142 143/561/142
f 145/562/143 157/563/143 156/564/143 144/565/143
f 146/566/144 158/567/144 157/568/144 145/569/144
f 147/570/145 159/571/145 158/572/145 146/573/145
f 148/574/146 160/575/146 159/576/146 147/577/146
f 137/578/147 149/579/147 160/580/147 148/581/147
f 150/582/148 162/583/148 161/584/148 149/585/148
f 151/586/149 163/587/149 162/588/149 150/589/149
f 152/590/150 164/591/150 163/592/150 151/593/150
f 153/594/151 165/595/151 164/596/151 152/597/151
f 154/598/152 166/599/152 165/600/152 153/601/152
f 155/602/153 167/603/153 166/604/153 154/605/153
f 156/606/154 168/607/154 167/608/154 155/609/154
f 157/610/155 169/611/155 168/612/155 156/613/155
f 158/614/156 170/615/156 169/616/156 157/617/156
f 159/618/157 171/619/157 170/620/157 158/621/157
f 160/622/158 172/623/158 171/624/158 159/625/158
f 149/626/159 161/627/159 172/628/159 160/629/159
f 162/630/160 174/631/160 173/632/160 161/633/160
f 163/634/161 175/635/161 174/636/161 162/637/161
f 164/638/162 176/639/162 175/640/162 163/641/162
f 165/642/163 177/643/163 176/644/163 164/645/163
f 166/646/164 178/647/164 177/648/164 165/649/164
f 167/650/165 179/651/165 178/652/165 166/653/165
f 168/654/166 180/655/166 179/656/166 167/657/166
f 169/658/167 181/659/167 180/660/167 168/661/167
f 170/662/168 182/663/168 181/664/168 169/665/168
f 171/666/169 183/667/169 182/668/169 170/669/169
f 172/670/170 184/671/170 183/672/170 171/673/170
f 161/674/171 173/675/171 184/676/171 172/677/171
f 174/678/172 186/679/172 185/680/172 173/681/172
f 175/682/173 187/683/173 186/684/173 174/685/173
f 176/686/174 188/687/174 187/688/174 175/689/174
f 177/690/175 189/691/175 188/692/175 176/693/175
f 178/694/176 190/695/176 189/696/176 177/697/176
f 179/698/177 191/699/177 190/700/177 178/701/177
f 180/702/178 192/703/178 191/704/178 179/705/178
f 181/706/179 193/707/179 192/708/179 180/709/179
f 182/710/180 194/711/180 193/712/180 181/713/180
f 183/714/181 195/715/181 194/716/181 182/717/181
f 184/718/182 196/719/182 195/720/182 183/721/182
f 173/722/183 185/723/183 196/724/183 184/725/183
f 186/726/184 198/727/184 197/728/184 185/729/184
f 187/730/185 199/731/185 198/732/185 186/733/185
f 188/734/186 200/735/186 199/736/186 187/737/186
f 189/738/187 201/739/187 200/740/187 188/741/187
f 190/742/188 202/743/188 201/744/188 189/745/188
f 191/746/189 203/747/189 202/748/189 190/749/189
f 192/750/190 204/751/190 203/752/190 191/753/190
f 193/754/191 205/755/191 204/756/191 192/757/191
f 194/758/192 206/759/192 205/760/192 193/761/192
f 195/762/193 207/763/193 206/764/193 194/765/193
f 196/766/194 208/767/194 207/768/194 195/769/194
f 185/770/195 197/771/195 208/772/195 196/773/195
f 198/774/196 210/775/196 209/776/196 197/777/196
f 199/778/197 211/779/197 210/780/197 198/781/197
f 200/782/198 212/783/198 211/784/198 199/785/198
f 201/786/199 213/787/199 212/788/199 200/789/199
f 202/790/200 214/791/200 213/792/200 201/793/200
f 203/794/201 215/795/201 214/796/201 202/797/201
f 204/798/202 216/799/202 215/800/202 203/801/202
f 205/802/203 217/803/203 216/804/203 204/805/203
f 206/806/204 218/807/204 217/808/204 205/809/204
f 207/810/205 219/811/205 218/812/205 206/813/205
f 208/814/206 220/815/206 219/816/206 207/817/206
f 197/818/207 209/819/207 220/820/207 208/821/207
f 31/822/208 209/823/208 210/824/208 20/825/208
f 20/826/209 210/827/209 211/828/209 16/829/209
f 16/830/210 211/831/210 212/832/210 60/833/210
f 60/834/211 212/835/211 213/836/211 63/837/211
f 63/838/212 213/839/212 214/840/212 15/841/212
f 15/842/213 214/843/213 215/844/213 23/845/213
f 23/846/214 215/847/214 216/848/214 28/849/214
f 28/850/215 216/851/215 217/852/215 14/853/215
f 14/854/216 217/855/216 218/856/216 66/857/216
f 66/858/217 218/859/217 219/860/217 57/861/217
f 57/862/218 219/863/218 220/864/218 13/865/218
f 13/866/219 220/867/219 209/868/219 31/869/219
f 28/870/220 14/871/220 29/872/220
g ComputaGaemin 
o Keypad
v 0.25 0.9342463925604966 0.4978595656726822
v 0.25 1.1691695477569737 0.41235452984126497
v 0.25 0.8914938746447879 0.38039798807444364
v 0.25 1.126417029841265 0.2948929522430264
v -0.25 1.1691695477569737 0.41235452984126497
v -0.25 0.9342463925604966 0.4978595656726822
v -0.25 1.126417029841265 0.2948929522430264
v -0.25 0.8914938746447879 0.38039798807444364
vt 0 0.65625
vt 0.0625 0.65625
vt 0.0625 0.640625
vt 0 0.640625
vt 0.125 0.9609375
vt 0.15625 0.9609375
vt 0.15625 0.9453125
vt 0.125 0.9453125
vt 0.3515625 0.7265625
vt 0.4140625 0.7265625
vt 0.4140625 0.7109375
vt 0.3515625 0.7109375
vt 0.125 0.9375
vt 0.15625 0.9375
vt 0.15625 0.921875
vt 0.125 0.921875
vt 0.6328125 0.921875
vt 0.5078125 0.921875
vt 0.5078125 0.9921875
vt 0.6328125 0.9921875
vt 0.3984375 0.859375
vt 0.3359375 0.859375
vt 0.3359375 0.828125
vt 0.3984375 0.828125
vn 0 0.9396926207859083 -0.3420201433256689
vn 1 0 0
vn 0 -0.9396926207859083 0.3420201433256689
vn -1 0 0
vn 0 0.3420201433256689 0.9396926207859083
vn 0 -0.3420201433256689 -0.9396926207859083
usemtl m_7e2ded47-c995-0926-878c-406785270485
f 224/876/221 227/875/221 225/874/221 222/873/221
f 223/880/222 224/879/222 222/878/222 221/877/222
f 228/884/223 223/883/223 221/882/223 226/881/223
f 227/888/224 228/887/224 226/886/224 225/885/224
f 226/892/225 221/891/225 222/890/225 225/889/225
f 227/896/226 224/895/226 223/894/226 228/893/226
g ComputaGaemin 
o KICKME
v 0.25 1.4375 -0.440625
v 0.25 1.4375 -0.440625
v 0.25 1.0625 -0.440625
v 0.25 1.0625 -0.440625
v -0.3125 1.4375 -0.440625
v -0.3125 1.4375 -0.440625
v -0.3125 1.0625 -0.440625
v -0.3125 1.0625 -0.440625
vt 0.515625 0.5625
vt 0.640625 0.5625
vt 0.640625 0.46875
vt 0.515625 0.46875
vt 0.46875 0.4609375
vt 0.46875 0.4609375
vt 0.46875 0.4140625
vt 0.46875 0.4140625
vt 0.390625 0.5625
vt 0.515625 0.5625
vt 0.515625 0.46875
vt 0.390625 0.46875
vt 0.46875 0.4609375
vt 0.46875 0.4609375
vt 0.46875 0.4140625
vt 0.46875 0.4140625
vt 0.46875 0.4609375
vt 0.5390625 0.4609375
vt 0.5390625 0.4609375
vt 0.46875 0.4609375
vt 0.46875 0.4609375
vt 0.5390625 0.4609375
vt 0.5390625 0.4609375
vt 0.46875 0.4609375
vn 0 0 -1
vn 1 0 0
vn 0 0 1
vn -1 0 0
vn 0 1 0
vn 0 -1 0
usemtl m_7e2ded47-c995-0926-878c-406785270485
f 232/900/227 235/899/227 233/898/227 230/897/227
f 231/904/228 232/903/228 230/902/228 229/901/228
f 236/908/229 231/907/229 229/906/229 234/905/229
f 235/912/230 236/911/230 234/910/230 233/909/230
f 234/916/231 229/915/231 230/914/231 233/913/231
f 235/920/232 232/919/232 231/918/232 236/917/232