# Made in Blockbench 4.10.4
mtllib NuclearBombaclot.mtl

o BottomStage
v 0.2512023679041775 -7 0.9375
v 0.6862976320958223 -7 0.6862976320958224
v 0.9375 -7 0.2512023679041775
v 0.9375 -7 -0.2512023679041776
v 0.6862976320958224 -7 -0.6862976320958223
v 0.25120236790417777 -7 -0.9374999999999999
v -0.2512023679041771 -7 -0.9375000000000001
v -0.6862976320958223 -7 -0.6862976320958225
v -0.9375 -7 -0.2512023679041774
v -0.9375000000000001 -7 0.25120236790417705
v -0.6862976320958225 -7 0.6862976320958222
v -0.25120236790417744 -7 0.9375
v -0.2512023679041771 2.9375 -0.9375000000000001
v 0.25120236790417777 2.9375 -0.9374999999999999
v 0.6862976320958224 2.9375 -0.6862976320958223
v 0.9375 2.9375 -0.2512023679041776
v 0.9375 2.9375 0.2512023679041775
v 0.6862976320958223 2.9375 0.6862976320958224
v 0.2512023679041775 2.9375 0.9375
v -0.25120236790417744 2.9375 0.9375
v -0.6862976320958225 2.9375 0.6862976320958222
v -0.9375000000000001 2.9375 0.25120236790417705
v -0.9375 2.9375 -0.2512023679041774
v -0.6862976320958223 2.9375 -0.6862976320958225
v 0.46875 -7.875 -0.40625
v 0.46875 -6.8125 -0.40625
v 0.6949251345948129 -7.875 -0.03125
v 0.9211002691896257 -7.875 -0.40625
v 0.6949251345948129 -7.875 -0.78125
v 0.2425748654051871 -7.875 -0.78125
v 0.01639973081037427 -7.875 -0.40625000000000006
v 0.2425748654051869 -7.875 -0.03125000000000011
v 0.71875 -6.8125 -0.15625
v 0.71875 -6.8125 -0.65625
v 0.71875 -7.1875 -0.15625
v 0.71875 -7.1875 -0.65625
v 0.21875 -6.8125 -0.15625
v 0.21875 -6.8125 -0.65625
v 0.21875 -7.1875 -0.15625
v 0.21875 -7.1875 -0.65625
v 0.46875 -7.875 0.40625
v 0.46875 -6.8125 0.40625
v 0.6949251345948129 -7.875 0.78125
v 0.9211002691896257 -7.875 0.40625
v 0.6949251345948129 -7.875 0.03125
v 0.2425748654051871 -7.875 0.031250000000000056
v 0.01639973081037427 -7.875 0.40625
v 0.2425748654051869 -7.875 0.78125
v 0.71875 -6.8125 0.65625
v 0.71875 -6.8125 0.15625
v 0.71875 -7.1875 0.65625
v 0.71875 -7.1875 0.15625
v 0.21875 -6.8125 0.65625
v 0.21875 -6.8125 0.15625
v 0.21875 -7.1875 0.65625
v 0.21875 -7.1875 0.15625
v -0.4687500000000001 -7.875 0.40625
v -0.4687500000000001 -6.8125 0.40625
v -0.24257486540518736 -7.875 0.78125
v -0.01639973081037438 -7.875 0.40625
v -0.24257486540518736 -7.875 0.03125
v -0.6949251345948131 -7.875 0.031250000000000056
v -0.9211002691896257 -7.875 0.40625
v -0.6949251345948131 -7.875 0.78125
v -0.2187500000000001 -6.8125 -0.15625
v -0.2187500000000001 -6.8125 -0.65625
v -0.2187500000000001 -7.1875 -0.15625
v -0.2187500000000001 -7.1875 -0.65625
v -0.71875 -6.8125 -0.15625
v -0.71875 -6.8125 -0.65625
v -0.71875 -7.1875 -0.15625
v -0.71875 -7.1875 -0.65625
v -0.4687500000000001 -7.875 -0.40625
v -0.4687500000000001 -6.8125 -0.40625
v -0.24257486540518736 -7.875 -0.03125
v -0.01639973081037438 -7.875 -0.40625
v -0.24257486540518736 -7.875 -0.78125
v -0.6949251345948131 -7.875 -0.78125
v -0.9211002691896257 -7.875 -0.40625000000000006
v -0.6949251345948131 -7.875 -0.03125000000000011
v -0.2187500000000001 -6.8125 0.65625
v -0.2187500000000001 -6.8125 0.15625
v -0.2187500000000001 -7.1875 0.65625
v -0.2187500000000001 -7.1875 0.15625
v -0.71875 -6.8125 0.65625
v -0.71875 -6.8125 0.15625
v -0.71875 -7.1875 0.65625
v -0.71875 -7.1875 0.15625
v 1.2426380234267411 -5.625000417621415 1.104030527482671
v 0.6896802441304413 -4.250000060259051 0.5973385978359879
v 1.2426378001152976 -7.000000417621203 1.1040298014178993
v 0.689679797507554 -7.000000060258631 0.597337145706445
v 1.2004136354507775 -5.625000435096146 1.1501103610333139
v 0.6474558561544774 -4.250000077733782 0.643418431386631
v 1.200413412139334 -7.000000435095934 1.1501096349685425
v 0.6474554095315903 -7.000000077733362 0.6434169792570881
v 0.2512023679041775 -7 0.9375
v 0.6862976320958223 -7 0.6862976320958224
v 0.9375 -7 0.2512023679041775
v 0.9375 -7 -0.2512023679041776
v 0.6862976320958224 -7 -0.6862976320958223
v 0.25120236790417777 -7 -0.9374999999999999
v -0.2512023679041771 -7 -0.9375000000000001
v -0.6862976320958223 -7 -0.6862976320958225
v -0.9375 -7 -0.2512023679041774
v -0.9375000000000001 -7 0.25120236790417705
v -0.6862976320958225 -7 0.6862976320958222
v -0.25120236790417744 -7 0.9375
v 0 2.9375 0
v 1.1865896825941908 -5.642187926162078 1.1374430355647178
v 0.6612797922627058 -4.335937586667833 0.6560857024003691
v 1.1865894704483193 -6.979687926161876 1.1374423458031848
v 0.6612793679709631 -6.979687586667432 0.6560843228773033
v 0.7035041802386697 -4.335937569193102 0.6100058688497261
v 1.2288140705701547 -5.642187908687347 1.0913632020140749
v 1.2288138584242831 -6.979687908687145 1.0913625122525419
v 0.7035037559469268 -6.979687569192701 0.6100044893266602
v -0.23236219031136382 -7 -0.8671875000000001
v 0.23236219031136443 -7 -0.8671874999999999
v 0 -7 0
v 0.6348253096886357 -7 -0.6348253096886356
v 0.8671875 -7 -0.2323621903113643
v 0.8671875 -7 0.23236219031136418
v 0.6348253096886356 -7 0.6348253096886357
v 0.23236219031136418 -7 0.8671875
v -0.23236219031136413 -7 0.8671875
v -0.6348253096886358 -7 0.6348253096886355
v -0.8671875000000001 -7 0.23236219031136376
v -0.8671875 -7 -0.23236219031136407
v -0.6348253096886356 -7 -0.6348253096886358
v 0.6650625885488419 -4.3359360233331214 -0.6948396170235063
v 1.16887547178528 -5.642186362827368 -1.1986530167620948
v 1.1821337331214516 -5.624998871761435 -1.2119112713022016
v 0.6518043823462534 -4.2499985143990715 -0.6815813768405292
v 0.7092567623730123 -4.335936040807853 -0.6506454431993611
v 1.2130696456094503 -5.642186380302099 -1.154458842937951
v 1.2263279069456212 -5.624998889236166 -1.167717097478057
v 0.6959985561704229 -4.2499985318738025 -0.6373872030163843
v 1.213068947250744 -6.979686380301897 -1.1544586610809708
v 1.226327171831194 -6.999998889235954 -1.1677169060496577
v 0.7092553656556004 -6.979686040807453 -0.6506450794854018
v 0.6959970859415692 -6.999998531873382 -0.6373868201595841
v 1.1688747734265748 -6.979686362827166 -1.1986528349051147
v 1.1821329980070243 -6.999998871761224 -1.2119110798738024
v 0.6650611918314306 -6.979686023332722 -0.6948392533095461
v 0.6518029121173989 -6.999998514398651 -0.6815809939837295
v -0.7208898633037049 -4.335936020106049 -0.6330748670716009
v -1.2461997536351856 -5.642186359600289 -1.1144322002359446
v -1.2600237064917732 -5.624998868534356 -1.1270995257045413
v -0.7070659271954757 -4.249998511171996 -0.620407596057863
v -1.2461995414893163 -6.979686359600077 -1.114431510474412
v -1.2600234831803305 -6.999998868534135 -1.1270987996397694
v -0.7208894390119607 -6.979686020105633 -0.6330734875485353
v -0.7070654805725881 -6.999998511171572 -0.6204061439283202
v -0.6786654753277399 -4.3359360375807805 -0.6791547006222441
v -1.2039753656592231 -5.642186377075018 -1.1605120337865882
v -1.2177993185158091 -5.624998886009086 -1.1731793592551836
v -0.6648415392195117 -4.249998528646719 -0.6664874296085063
v -1.203975153513352 -6.9796863770748185 -1.1605113440250547
v -1.217799095204368 -6.99999888600886 -1.1731786331904122
v -0.6786650510359993 -6.979686037580364 -0.6791533210991776
v -0.6648410925966248 -6.999998528646296 -0.6664859774789628
v -0.7418147906569574 -4.335937459686498 0.6074087054613186
v -1.2876207448278485 -5.642187799180728 1.0653947570641649
v -1.301984087498837 -5.625000308114799 1.077447026328673
v -0.7274515041610579 -4.249999950752429 0.5953564456941005
v -1.2876200332767274 -6.979687799180528 1.065394636765177
v -1.3019833384976567 -7.000000308114561 1.0774468996981632
v -0.7418133675547175 -6.979687459686065 0.6074084648633469
v -0.7274500061586986 -6.999999950751999 0.5953561924330739
v -1.247446519222425 -5.642187781706 1.1132725347590868
v -1.247445807671306 -6.979687781705779 1.1132724144601
v -1.261809112892236 -7.0000002906398375 1.1253246773930827
v -1.2618098618934153 -5.625000290640068 1.125324804023595
v -0.701640565051537 -4.335937442211765 0.6552864831562432
v -0.6872772785556365 -4.249999933277714 0.6432342233890228
v -0.7016391419492956 -6.979687442211334 0.6552862425582668
v -0.6872757805532792 -6.999999933277283 0.643233970127996
vt 0.359375 0.37890625
vt 0.359375 1
vt 0.32421875 1
vt 0.32421875 0.37890625
vt 0.32421875 0.37890625
vt 0.32421875 1
vt 0.29296875 1
vt 0.29296875 0.37890625
vt 0.09765625 0.37890625
vt 0.09765625 1
vt 0.06640625 1
vt 0.06640625 0.37890625
vt 0.06640625 0.37890625
vt 0.06640625 1
vt 0.03125 1
vt 0.03125 0.37890625
vt 0.03125 0.37890625
vt 0.03125 1
vt 0 1
vt 0 0.37890625
vt 0.1953125 0.37890625
vt 0.1953125 1
vt 0.1640625 1
vt 0.1640625 0.37890625
vt 0.1640625 0.37890625
vt 0.1640625 1
vt 0.12890625 1
vt 0.12890625 0.37890625
vt 0.12890625 0.37890625
vt 0.12890625 1
vt 0.09765625 1
vt 0.09765625 0.37890625
vt 0.29296875 0.37890625
vt 0.29296875 1
vt 0.26171875 1
vt 0.26171875 0.37890625
vt 0.26171875 0.37890625
vt 0.26171875 1
vt 0.2265625 1
vt 0.2265625 0.37890625
vt 0.2265625 0.37890625
vt 0.2265625 1
vt 0.1953125 1
vt 0.1953125 0.37890625
vt 0.390625 0.37890625
vt 0.390625 1
vt 0.359375 1
vt 0.359375 0.37890625
vt 0.50390625 0.3984375
vt 0.48828125 0.421875
vt 0.4765625 0.3984375
vt 0.48828125 0.1484375
vt 0.515625 0.1484375
vt 0.50390625 0.21875
vt 0.48828125 0.375
vt 0.50390625 0.3984375
vt 0.4765625 0.3984375
vt 0.79296875 0.96875
vt 0.79296875 0.94140625
vt 0.86328125 0.95703125
vt 0.4609375 0.375
vt 0.48828125 0.375
vt 0.4765625 0.3984375
vt 0.76171875 0.73828125
vt 0.7890625 0.73828125
vt 0.775390625 0.80859375
vt 0.4453125 0.3984375
vt 0.4609375 0.375
vt 0.4765625 0.3984375
vt 0.55078125 0.1484375
vt 0.578125 0.1484375
vt 0.56640625 0.21875
vt 0.4609375 0.421875
vt 0.4453125 0.3984375
vt 0.4765625 0.3984375
vt 0.73046875 0.64453125
vt 0.73046875 0.6171875
vt 0.80078125 0.6328125
vt 0.48828125 0.421875
vt 0.4609375 0.421875
vt 0.4765625 0.3984375
vt 0.51953125 0.171875
vt 0.55078125 0.171875
vt 0.53515625 0.2421875
vt 0.640625 0.9765625
vt 0.640625 1
vt 0.609375 1
vt 0.609375 0.9765625
vt 0.4921875 0.34765625
vt 0.4921875 0.37109375
vt 0.4609375 0.37109375
vt 0.4609375 0.34765625
vt 0.296875 0.34375
vt 0.296875 0.375
vt 0.265625 0.375
vt 0.265625 0.34375
vt 0.375 0.31640625
vt 0.375 0.33984375
vt 0.34375 0.33984375
vt 0.34375 0.31640625
vt 0.15625 0.1796875
vt 0.15625 0.203125
vt 0.125 0.203125
vt 0.125 0.1796875
vt 0.78515625 0.4921875
vt 0.76953125 0.515625
vt 0.7578125 0.4921875
vt 0.7890625 0.14453125
vt 0.81640625 0.14453125
vt 0.8046875 0.21484375
vt 0.76953125 0.46875
vt 0.78515625 0.4921875
vt 0.7578125 0.4921875
vt 0.78125 0.53125
vt 0.78125 0.50390625
vt 0.8515625 0.51953125
vt 0.7421875 0.46875
vt 0.76953125 0.46875
vt 0.7578125 0.4921875
vt 0.62890625 0.203125
vt 0.65625 0.203125
vt 0.642578125 0.2734375
vt 0.7265625 0.4921875
vt 0.7421875 0.46875
vt 0.7578125 0.4921875
vt 0.1640625 0.16796875
vt 0.19140625 0.16796875
vt 0.1796875 0.23828125
vt 0.7421875 0.515625
vt 0.7265625 0.4921875
vt 0.7578125 0.4921875
vt 0.76171875 0.73046875
vt 0.76171875 0.703125
vt 0.83203125 0.71875
vt 0.76953125 0.515625
vt 0.7421875 0.515625
vt 0.7578125 0.4921875
vt 0.76171875 0.9296875
vt 0.7890625 0.9296875
vt 0.77734375 1
vt 0.828125 0.765625
vt 0.828125 0.7890625
vt 0.796875 0.7890625
vt 0.796875 0.765625
vt 0.828125 0.73828125
vt 0.828125 0.76171875
vt 0.796875 0.76171875
vt 0.796875 0.73828125
vt 0.375 0.34375
vt 0.375 0.375
vt 0.34375 0.375
vt 0.34375 0.34375
vt 0.84375 0.61328125
vt 0.84375 0.63671875
vt 0.8125 0.63671875
vt 0.8125 0.61328125
vt 0.828125 0.29296875
vt 0.828125 0.31640625
vt 0.796875 0.31640625
vt 0.796875 0.29296875
vt 0.6328125 0.25
vt 0.6171875 0.2734375
vt 0.60546875 0.25
vt 0.58203125 0.14453125
vt 0.609375 0.14453125
vt 0.59765625 0.21484375
vt 0.6171875 0.2265625
vt 0.6328125 0.25
vt 0.60546875 0.25
vt 0.7578125 0.921875
vt 0.7578125 0.89453125
vt 0.828125 0.91015625
vt 0.58984375 0.2265625
vt 0.6171875 0.2265625
vt 0.60546875 0.25
vt 0.45703125 0.171875
vt 0.48828125 0.171875
vt 0.47265625 0.2421875
vt 0.57421875 0.25
vt 0.58984375 0.2265625
vt 0.60546875 0.25
vt 0.04296875 0.140625
vt 0.0703125 0.140625
vt 0.05859375 0.2109375
vt 0.58984375 0.2734375
vt 0.57421875 0.25
vt 0.60546875 0.25
vt 0.79296875 1
vt 0.79296875 0.97265625
vt 0.86328125 0.98828125
vt 0.6171875 0.2734375
vt 0.58984375 0.2734375
vt 0.60546875 0.25
vt 0.765625 0.23828125
vt 0.79296875 0.23828125
vt 0.78125 0.30859375
vt 0.828125 0.265625
vt 0.828125 0.2890625
vt 0.796875 0.2890625
vt 0.796875 0.265625
vt 0.828125 0.23828125
vt 0.828125 0.26171875
vt 0.796875 0.26171875
vt 0.796875 0.23828125
vt 0.42578125 0.22265625
vt 0.42578125 0.25390625
vt 0.39453125 0.25390625
vt 0.39453125 0.22265625
vt 0.2734375 0.17578125
vt 0.2734375 0.19921875
vt 0.2421875 0.19921875
vt 0.2421875 0.17578125
vt 0.30859375 0.17578125
vt 0.30859375 0.19921875
vt 0.27734375 0.19921875
vt 0.27734375 0.17578125
vt 0.05859375 0.23046875
vt 0.04296875 0.25390625
vt 0.03125 0.23046875
vt 0.76171875 0.171875
vt 0.7890625 0.171875
vt 0.77734375 0.2421875
vt 0.04296875 0.20703125
vt 0.05859375 0.23046875
vt 0.03125 0.23046875
vt 0.78125 0.4765625
vt 0.78125 0.44921875
vt 0.8515625 0.46484375
vt 0.015625 0.20703125
vt 0.04296875 0.20703125
vt 0.03125 0.23046875
vt 0.7578125 0.8125
vt 0.78515625 0.8125
vt 0.771484375 0.8828125
vt 0 0.23046875
vt 0.015625 0.20703125
vt 0.03125 0.23046875
vt 0.7890625 0.83203125
vt 0.81640625 0.83203125
vt 0.8046875 0.90234375
vt 0.015625 0.25390625
vt 0 0.23046875
vt 0.03125 0.23046875
vt 0.77734375 0.38671875
vt 0.77734375 0.359375
vt 0.84765625 0.375
vt 0.04296875 0.25390625
vt 0.015625 0.25390625
vt 0.03125 0.23046875
vt 0.421875 0.1796875
vt 0.453125 0.1796875
vt 0.4375 0.25
vt 0.88671875 0.5390625
vt 0.88671875 0.5625
vt 0.85546875 0.5625
vt 0.85546875 0.5390625
vt 0.83203125 0.48046875
vt 0.83203125 0.50390625
vt 0.80078125 0.50390625
vt 0.80078125 0.48046875
vt 0.03125 0.171875
vt 0.03125 0.203125
vt 0 0.203125
vt 0 0.171875
vt 0.64453125 0.17578125
vt 0.64453125 0.19921875
vt 0.61328125 0.19921875
vt 0.61328125 0.17578125
vt 0.87890625 0.61328125
vt 0.87890625 0.63671875
vt 0.84765625 0.63671875
vt 0.84765625 0.61328125
vt 0.40625 0.1171875
vt 0.40625 0.215077734375
vt 0.40234375 0.215077734375
vt 0.40234375 0.1171875
vt 0.609375 0.73828125
vt 0.609375 0.69140625
vt 0.61328125 0.69140625
vt 0.61328125 0.73828125
vt 0.40625 0.03125
vt 0.40625 0.1171875
vt 0.40234375 0.1171875
vt 0.40234375 0.03125
vt 0.65234375 0.37109375
vt 0.734375 0.37109375
vt 0.81640625 0.41796875
vt 0.65234375 0.41796875
vt 0.3984375 0.1171875
vt 0.3984375 0.215078125
vt 0.39453125 0.215078125
vt 0.39453125 0.1171875
vt 0.140625 0.375
vt 0.09375 0.375
vt 0.09375 0.37109375
vt 0.140625 0.37109375
vt 0.3984375 0.03125
vt 0.3984375 0.1171875
vt 0.39453125 0.1171875
vt 0.39453125 0.03125
vt 0.4140625 0.120859765625
vt 0.4140625 0.21875
vt 0.41015625 0.21875
vt 0.41015625 0.120859765625
vt 0.61328125 0.92578125
vt 0.61328125 0.97265625
vt 0.609375 0.97265625
vt 0.609375 0.92578125
vt 0.4140625 0.034922265625000004
vt 0.4140625 0.120859765625
vt 0.41015625 0.120859765625
vt 0.41015625 0.034922265625000004
vt 0.6640625 0.179453515625
vt 0.6640625 0.27734375
vt 0.66015625 0.27734375
vt 0.66015625 0.179453515625
vt 0.4921875 0.2421875
vt 0.5390625 0.2421875
vt 0.5390625 0.24609375
vt 0.4921875 0.24609375
vt 0.664062109375 0.093516015625
vt 0.6640625 0.179453515625
vt 0.66015625 0.179453515625
vt 0.660155859375 0.093516015625
vt 0.7109375 0.8125
vt 0.68359375 0.828125
vt 0.6699218749999999 0.775390625
vt 0.72265625 0.7890625
vt 0.7109375 0.8125
vt 0.6699218749999999 0.775390625
vt 0.72265625 0.76171875
vt 0.72265625 0.7890625
vt 0.6699218749999999 0.775390625
vt 0.7109375 0.734375
vt 0.72265625 0.76171875
vt 0.6699218749999999 0.775390625
vt 0.68359375 0.71875
vt 0.7109375 0.734375
vt 0.6699218749999999 0.775390625
vt 0.65625 0.71875
vt 0.68359375 0.71875
vt 0.6699218749999999 0.775390625
vt 0.62890625 0.734375
vt 0.65625 0.71875
vt 0.6699218749999999 0.775390625
vt 0.61328125 0.76171875
vt 0.62890625 0.734375
vt 0.6699218749999999 0.775390625
vt 0.61328125 0.7890625
vt 0.61328125 0.76171875
vt 0.6699218749999999 0.775390625
vt 0.62890625 0.8125
vt 0.61328125 0.7890625
vt 0.6699218749999999 0.775390625
vt 0.65625 0.828125
vt 0.62890625 0.8125
vt 0.6699218749999999 0.775390625
vt 0.68359375 0.828125
vt 0.65625 0.828125
vt 0.6699218749999999 0.775390625
vt 0.609375 0.63664375
vt 0.66796875 0.65234375
vt 0.609375 0.66804375
vt 0.609375 0.66804375
vt 0.66796875 0.65234375
vt 0.625075 0.6952375
vt 0.625075 0.6952375
vt 0.66796875 0.65234375
vt 0.65226875 0.7109375
vt 0.65226875 0.7109375
vt 0.66796875 0.65234375
vt 0.68366875 0.7109375
vt 0.68366875 0.7109375
vt 0.66796875 0.65234375
vt 0.7108625 0.6952375
vt 0.7108625 0.6952375
vt 0.66796875 0.65234375
vt 0.7265625 0.66804375
vt 0.7265625 0.66804375
vt 0.66796875 0.65234375
vt 0.7265625 0.63664375
vt 0.7265625 0.63664375
vt 0.66796875 0.65234375
vt 0.7108625 0.60945
vt 0.7108625 0.60945
vt 0.66796875 0.65234375
vt 0.68366875 0.59375
vt 0.68366875 0.59375
vt 0.66796875 0.65234375
vt 0.65226875 0.59375
vt 0.65226875 0.59375
vt 0.66796875 0.65234375
vt 0.625075 0.60945
vt 0.625075 0.60945
vt 0.66796875 0.65234375
vt 0.609375 0.63664375
vt 0.8945312499999997 0.08486328124999998
vt 0.8945312499999997 0.0032226562499999556
vt 0.8957031249999997 0
vt 0.8957031249999997 0.0859375
vt 0.9843749999999998 0.1119110800439922
vt 0.9843749999999999 0.018915439893140706
vt 0.9859181744034807 0.019297342628032732
vt 0.9859181563546044 0.1171875
vt 0.8777343749999998 0.07031249999999978
vt 0.8332031249999999 0.07031249999999978
vt 0.8320312499999999 0.06708984374999982
vt 0.8789062499999999 0.06708984374999982
vt 0.8945312499999997 0.08486328124999998
vt 0.8945312499999997 0.0032226562499999556
vt 0.8957031249999997 0
vt 0.8957031249999997 0.0859375
vt 0.9843749999999998 0.1119110800439922
vt 0.9843749999999999 0.018915439893140706
vt 0.9859181744034807 0.019297342628032732
vt 0.9859181563546044 0.1171875
vt 0.8777343749999998 0.07031249999999978
vt 0.8332031249999999 0.07031249999999978
vt 0.8320312499999999 0.06708984374999982
vt 0.8789062499999999 0.06708984374999982
vt 0.33984375 0.20703125
vt 0.29296875 0.20703125
vt 0.29296875 0.2890625
vt 0.33984375 0.37109375
vt 0.9286601562499999 0.015625
vt 0.8996148437499998 0.015625
vt 0.8984374999999998 0.01123046875
vt 0.9298374999999999 0.01123046875
vt 0.9599104114349669 0.0234375
vt 0.9308651614930323 0.0234375
vt 0.9296875000000002 0.01904305388920058
vt 0.9610879783237956 0.019042738681948057
vt 0.9794415668307634 0.046875
vt 0.9503963168888289 0.046875
vt 0.9492187500000002 0.04248023868194806
vt 0.9806192283237956 0.04248055388920069
vt 0.97265625 0.08866640625000022
vt 0.97265625 0.05962109375000013
vt 0.97705078125 0.05844375000000013
vt 0.97705078125 0.08984375000000022
vt 0.9648437499999999 0.11991618311117114
vt 0.9648437499999999 0.09087093316923656
vt 0.9692381961107993 0.08969327167620444
vt 0.969238511318052 0.12109374999999978
vt 0.9414062499999999 0.13944733850696767
vt 0.9414062499999999 0.11040208856503309
vt 0.945801011318052 0.10922452167620444
vt 0.9458006961107993 0.14062499999999978
vt 0.8996148437499998 0.13232421875
vt 0.9286601562499999 0.13232421875
vt 0.9298374999999999 0.13671875
vt 0.8984374999999998 0.13671875
vt 0.8683650668888284 0.12451148868194784
vt 0.8974103168307631 0.12451148868194772
vt 0.8985879783237952 0.12890593479274715
vt 0.8671874999999998 0.1289062499999999
vt 0.8488339114930323 0.10107398868194784
vt 0.8778791614349669 0.10107398868194784
vt 0.8790567283237956 0.10546874999999978
vt 0.8476562500000002 0.10546843479274715
vt 0.85595703125 0.05962109375000013
vt 0.85595703125 0.08866640625000022
vt 0.8515625 0.08984375000000022
vt 0.8515625 0.05844375000000013
vt 0.8637697613180523 0.028370838565033085
vt 0.8637697613180523 0.057416088506967666
vt 0.8593753152072529 0.05859374999999978
vt 0.8593750000000001 0.027193271676204445
vt 0.8872072613180523 0.008839683169237
vt 0.8872072613180523 0.03788493311117147
vt 0.8828125000000001 0.03906250000000022
vt 0.8828128152072529 0.007662021676204889
vt 0.8945312499999997 0.08486328124999998
vt 0.8945312499999997 0.0032226562499999556
vt 0.8957031249999997 0
vt 0.8957031249999997 0.0859375
vt 0.9843749999999998 0.1119110800439922
vt 0.9843749999999999 0.018915439893140706
vt 0.9859181744034807 0.019297342628032732
vt 0.9859181563546044 0.1171875
vt 0.8777343749999998 0.07031249999999978
vt 0.8332031249999999 0.07031249999999978
vt 0.8320312499999999 0.06708984374999982
vt 0.8789062499999999 0.06708984374999982
vt 0.8945312499999997 0.08486328124999998
vt 0.8945312499999997 0.0032226562499999556
vt 0.8957031249999997 0
vt 0.8957031249999997 0.0859375
vt 0.9843749999999998 0.1119110800439922
vt 0.9843749999999999 0.018915439893140706
vt 0.9859181744034807 0.019297342628032732
vt 0.9859181563546044 0.1171875
vt 0.8777343749999998 0.07031249999999978
vt 0.8332031249999999 0.07031249999999978
vt 0.8320312499999999 0.06708984374999982
vt 0.8789062499999999 0.06708984374999982
vt 0.8945312499999997 0.08486328124999998
vt 0.8945312499999997 0.0032226562499999556
vt 0.8957031249999997 0
vt 0.8957031249999997 0.0859375
vt 0.9843749999999998 0.1119110800439922
vt 0.9843749999999999 0.018915439893140706
vt 0.9859181744034807 0.019297342628032732
vt 0.9859181563546044 0.1171875
vt 0.8777343749999998 0.07031249999999978
vt 0.8332031249999999 0.07031249999999978
vt 0.8320312499999999 0.06708984374999982
vt 0.8789062499999999 0.06708984374999982
vt 0.8945312499999997 0.08486328124999998
vt 0.8945312499999997 0.0032226562499999556
vt 0.8957031249999997 0
vt 0.8957031249999997 0.0859375
vt 0.9843749999999998 0.1119110800439922
vt 0.9843749999999999 0.018915439893140706
vt 0.9859181744034807 0.019297342628032732
vt 0.9859181563546044 0.1171875
vt 0.8777343749999998 0.07031249999999978
vt 0.8332031249999999 0.07031249999999978
vt 0.8320312499999999 0.06708984374999982
vt 0.8789062499999999 0.06708984374999982
vt 0.8945312499999997 0.08486328124999998
vt 0.8945312499999997 0.0032226562499999556
vt 0.8957031249999997 0
vt 0.8957031249999997 0.0859375
vt 0.9843749999999998 0.1119110800439922
vt 0.9843749999999999 0.018915439893140706
vt 0.9859181744034807 0.019297342628032732
vt 0.9859181563546044 0.1171875
vt 0.8777343749999998 0.07031249999999978
vt 0.8332031249999999 0.07031249999999978
vt 0.8320312499999999 0.06708984374999982
vt 0.8789062499999999 0.06708984374999982
vt 0.8945312499999997 0.08486328124999998
vt 0.8945312499999997 0.0032226562499999556
vt 0.8957031249999997 0
vt 0.8957031249999997 0.0859375
vt 0.9843749999999998 0.1119110800439922
vt 0.9843749999999999 0.018915439893140706
vt 0.9859181744034807 0.019297342628032732
vt 0.9859181563546044 0.1171875
vt 0.8777343749999998 0.07031249999999978
vt 0.8332031249999999 0.07031249999999978
vt 0.8320312499999999 0.06708984374999982
vt 0.8789062499999999 0.06708984374999982
vt 0.75390625 0.83203125
vt 0.70703125 0.83203125
vt 0.70703125 0.9140625
vt 0.75390625 0.99609375
vt 0.2890625 0.20703125
vt 0.2890625 0.2890625
vt 0.2421875 0.37109375
vt 0.2421875 0.20703125
vt 0.07421875 0.19921875
vt 0.12109375 0.28125
vt 0.12109375 0.1171875
vt 0.07421875 0.1171875
vt 0.34375 0.14453125
vt 0.390625 0.14453125
vt 0.390625 0.2265625
vt 0.34375 0.30859375
vt 0.71484375 0.19921875
vt 0.71484375 0.28125
vt 0.66796875 0.36328125
vt 0.66796875 0.19921875
vt 0.63671875 0.421875
vt 0.63671875 0.46875
vt 0.71875 0.46875
vt 0.80078125 0.421875
vn 4.419635984676137e-16 0 -1
vn 0.5000000000000003 0 -0.8660254037844386
vn 0.8660254037844386 0 -0.5000000000000003
vn 1 0 0
vn 0.8660254037844387 0 0.5000000000000003
vn 0.5000000000000002 0 0.8660254037844386
vn 0 0 1
vn -0.5000000000000003 0 0.8660254037844387
vn -0.8660254037844387 0 0.4999999999999999
vn -1 0 -2.2098179923380705e-16
vn -0.8660254037844387 0 -0.5000000000000002
vn -0.49999999999999983 0 -0.8660254037844387
vn 0 -1 0
vn 0.8045112132738368 0.34251375424987524 0.4852278185206566
vn 0 -1 0
vn 0.8045112132738368 0.34251375424987524 -0.4852278185206566
vn 0 -1 0
vn 0 0.3328201177351375 -0.9429903335828896
vn 0 -1 0
vn -0.8045112132738369 0.34251375424987535 -0.48522781852065666
vn 0 -1 0
vn -0.8045112132738369 0.3425137542498753 0.4852278185206563
vn 0 -1 0
vn -2.3144223661416823e-16 0.3328201177351374 0.9429903335828896
vn 1 0 0
vn -1 0 0
vn 0 -1 0
vn 0 0 1
vn 0 0 -1
vn 0 -1 0
vn 0.8045112132738368 0.34251375424987524 0.4852278185206566
vn 0 -1 0
vn 0.8045112132738368 0.34251375424987524 -0.4852278185206566
vn 0 -1 0
vn -1.1572111830708416e-16 0.3328201177351375 -0.9429903335828896
vn 0 -1 0
vn -0.8045112132738369 0.3425137542498753 -0.48522781852065666
vn 0 -1 0
vn -0.8045112132738371 0.3425137542498754 0.48522781852065633
vn 0 -1 0
vn 0 0.3328201177351375 0.9429903335828896
vn 1 0 0
vn -1 0 0
vn 0 -1 0
vn 0 0 1
vn 0 0 -1
vn 0 -1 0
vn 0.8045112132738367 0.34251375424987524 0.4852278185206568
vn 0 -1 0
vn 0.8045112132738367 0.34251375424987524 -0.4852278185206568
vn 0 -1 0
vn -1.1572111830708416e-16 0.3328201177351375 -0.9429903335828896
vn 0 -1 0
vn -0.804511213273837 0.3425137542498753 -0.48522781852065633
vn 0 -1 0
vn -0.804511213273837 0.34251375424987524 0.4852278185206563
vn 0 -1 0
vn 0 0.3328201177351375 0.9429903335828896
vn 1 0 0
vn -1 0 0
vn 0 -1 0
vn 0 0 1
vn 0 0 -1
vn 0 -1 0
vn 0.8045112132738367 0.34251375424987524 0.4852278185206568
vn 0 -1 0
vn 0.8045112132738367 0.34251375424987524 -0.4852278185206568
vn 0 -1 0
vn 0 0.3328201177351375 -0.9429903335828896
vn 0 -1 0
vn -0.804511213273837 0.3425137542498753 -0.48522781852065633
vn 0 -1 0
vn -0.804511213273837 0.3425137542498753 0.48522781852065633
vn 0 -1 0
vn -2.3144223661416833e-16 0.3328201177351374 0.9429903335828896
vn 1 0 0
vn -1 0 0
vn 0 -1 0
vn 0 0 1
vn 0 0 -1
vn -0.6725072861136454 0.47885171237780444 0.5643004409681992
vn 5.447280415557517e-7 -0.9999999999998476 -9.209498763762521e-8
vn -0.7660444431186084 -4.764834295320042e-7 0.6427876096868032
vn -0.6755901987854541 -2.73063087957903e-7 0.7372773449014667
vn 0.6472525877654621 0.4788517123778058 0.5930979052262415
vn -1.6240831996788152e-7 -0.9999999999998473 -5.280471094076933e-7
vn 0.7372773368103255 -4.764834299638255e-7 0.6755902076152726
vn 0.6207661687891658 0.47885171237780505 -0.620765979447702
vn -5.346286669366415e-7 -0.9999999999998473 1.3922066187019825e-7
vn 0.7071067811861724 -4.764834295646232e-7 -0.7071067811867622
vn -0.647252587765505 0.4788517123778047 -0.5930979052261958
vn 1.624083775686537e-7 -0.9999999999998473 5.280470272656541e-7
vn -0.737277336810317 -4.764834295966884e-7 -0.6755902076152817
vn 0 -1 0
vn 0 -1 0
vn 0 -1 0
vn 0 -1 0
vn 0 -1 0
vn 0 -1 0
vn 0 -1 0
vn 0 -1 0
vn 0 -1 0
vn 0 -1 0
vn 0 -1 0
vn 0 -1 0
vn 0 1 0
vn 0 1 0
vn 0 1 0
vn 0 1 0
vn 0 1 0
vn 0 1 0
vn 0 1 0
vn 0 1 0
vn 0 1 0
vn 0 1 0
vn 0 1 0
vn 0 1 0
vn -0.6755898588314123 -2.7306330252814023e-7 0.7372776564118011
vn -0.6755902076154213 -2.795956926198812e-7 0.7372773368102901
vn -0.6755902076154288 -7.097429043636028e-7 0.7372773368099945
vn -0.6755898588314119 -2.730633025281406e-7 0.7372776564118017
vn -0.6755902076154259 -2.795956956418617e-7 0.7372773368102858
vn -0.6755902076154288 -7.097429043636025e-7 0.7372773368099945
vn -0.6755902076154203 -2.73063082396723e-7 0.7372773368102933
vn 0 -1 0
vn 0 -1 0
vn 0 -1 0
vn 0 -1 0
vn 0 -1 0
vn 0 -1 0
vn 0 -1 0
vn 0 -1 0
vn 0 -1 0
vn 0 -1 0
vn 0 -1 0
vn 0 -1 0
vn 0.7071071156977826 -2.7306330275182575e-7 0.7071064466751016
vn 0.7071067811867118 -2.795957016858248e-7 0.707106781186328
vn 0.7071067811864288 -7.097428698433095e-7 0.7071067811863101
vn 0.7071071156978184 -2.7306330228228876e-7 0.7071064466750657
vn 0.7071067811867118 -2.795957001748259e-7 0.707106781186328
vn 0.7071067811864282 -7.097429235415461e-7 0.7071067811863108
vn 0.6755898588313709 -2.730633029972793e-7 -0.7372776564118392
vn 0.6755902076154194 -2.7959569261989787e-7 -0.7372773368102917
vn 0.6755902076154278 -7.097428391585039e-7 -0.7372773368099955
vn 0.6755898588314183 -2.7306330340491876e-7 -0.7372776564117955
vn 0.6755902076154192 -2.795956895978941e-7 -0.7372773368102921
vn 0.6755902076154254 -7.097429120344416e-7 -0.7372773368099976
vn -0.6427879720795755 -2.7306330286837807e-7 -0.7660441390349205
vn -0.6427876096867281 -2.7959569564188897e-7 -0.7660444431187686
vn -0.6427876096864402 -7.097428736787644e-7 -0.7660444431187327
vn -0.642787972079447 -2.730633025437672e-7 -0.7660441390350282
vn -0.642787609686703 -2.7959571679570774e-7 -0.7660444431187899
vn -0.6427876096864423 -7.09742877513839e-7 -0.7660444431187307
vn -0.6427876096867396 -2.730630823967296e-7 -0.7660444431187613
vn -0.6427876188612331 -2.7306308829807043e-7 -0.7660444354204473
vn 0.707106785471092 -2.762907816126676e-7 0.7071067769019491
vn 0.707106781186727 -2.730630821637207e-7 0.7071067811863153
vn 0.6755901987854523 -2.7306308842701696e-7 -0.7372773449014682
vn 0.675590207615417 -2.7306308327048785e-7 -0.7372773368102965
usemtl m_0da303ee-af21-34aa-0b8d-2b5473e6cb55
f 7/1/1 13/2/1 14/3/1 6/4/1
f 6/5/2 14/6/2 15/7/2 5/8/2
f 5/9/3 15/10/3 16/11/3 4/12/3
f 4/13/4 16/14/4 17/15/4 3/16/4
f 3/17/5 17/18/5 18/19/5 2/20/5
f 2/21/6 18/22/6 19/23/6 1/24/6
f 1/25/7 19/26/7 20/27/7 12/28/7
f 12/29/8 20/30/8 21/31/8 11/32/8
f 11/33/9 21/34/9 22/35/9 10/36/9
f 10/37/10 22/38/10 23/39/10 9/40/10
f 9/41/11 23/42/11 24/43/11 8/44/11
f 8/45/12 24/46/12 13/47/12 7/48/12
f 28/49/13 27/50/13 25/51/13
f 27/52/14 28/53/14 26/54/14
f 29/55/15 28/56/15 25/57/15
f 28/58/16 29/59/16 26/60/16
f 30/61/17 29/62/17 25/63/17
f 29/64/18 30/65/18 26/66/18
f 31/67/19 30/68/19 25/69/19
f 30/70/20 31/71/20 26/72/20
f 32/73/21 31/74/21 25/75/21
f 31/76/22 32/77/22 26/78/22
f 27/79/23 32/80/23 25/81/23
f 32/82/24 27/83/24 26/84/24
f 36/85/25 34/86/25 33/87/25 35/88/25
f 39/89/26 37/90/26 38/91/26 40/92/26
f 36/93/27 35/94/27 39/95/27 40/96/27
f 35/97/28 33/98/28 37/99/28 39/100/28
f 40/101/29 38/102/29 34/103/29 36/104/29
f 44/105/30 43/106/30 41/107/30
f 43/108/31 44/109/31 42/110/31
f 45/111/32 44/112/32 41/113/32
f 44/114/33 45/115/33 42/116/33
f 46/117/34 45/118/34 41/119/34
f 45/120/35 46/121/35 42/122/35
f 47/123/36 46/124/36 41/125/36
f 46/126/37 47/127/37 42/128/37
f 48/129/38 47/130/38 41/131/38
f 47/132/39 48/133/39 42/134/39
f 43/135/40 48/136/40 41/137/40
f 48/138/41 43/139/41 42/140/41
f 52/141/42 50/142/42 49/143/42 51/144/42
f 55/145/43 53/146/43 54/147/43 56/148/43
f 52/149/44 51/150/44 55/151/44 56/152/44
f 51/153/45 49/154/45 53/155/45 55/156/45
f 56/157/46 54/158/46 50/159/46 52/160/46
f 60/161/47 59/162/47 57/163/47
f 59/164/48 60/165/48 58/166/48
f 61/167/49 60/168/49 57/169/49
f 60/170/50 61/171/50 58/172/50
f 62/173/51 61/174/51 57/175/51
f 61/176/52 62/177/52 58/178/52
f 63/179/53 62/180/53 57/181/53
f 62/182/54 63/183/54 58/184/54
f 64/185/55 63/186/55 57/187/55
f 63/188/56 64/189/56 58/190/56
f 59/191/57 64/192/57 57/193/57
f 64/194/58 59/195/58 58/196/58
f 68/197/59 66/198/59 65/199/59 67/200/59
f 71/201/60 69/202/60 70/203/60 72/204/60
f 68/205/61 67/206/61 71/207/61 72/208/61
f 67/209/62 65/210/62 69/211/62 71/212/62
f 72/213/63 70/214/63 66/215/63 68/216/63
f 76/217/64 75/218/64 73/219/64
f 75/220/65 76/221/65 74/222/65
f 77/223/66 76/224/66 73/225/66
f 76/226/67 77/227/67 74/228/67
f 78/229/68 77/230/68 73/231/68
f 77/232/69 78/233/69 74/234/69
f 79/235/70 78/236/70 73/237/70
f 78/238/71 79/239/71 74/240/71
f 80/241/72 79/242/72 73/243/72
f 79/244/73 80/245/73 74/246/73
f 75/247/74 80/248/74 73/249/74
f 80/250/75 75/251/75 74/252/75
f 84/253/76 82/254/76 81/255/76 83/256/76
f 87/257/77 85/258/77 86/259/77 88/260/77
f 84/261/78 83/262/78 87/263/78 88/264/78
f 83/265/79 81/266/79 85/267/79 87/268/79
f 88/269/80 86/270/80 82/271/80 84/272/80
f 174/273/81 176/274/81 166/275/81 165/276/81
f 178/277/82 173/278/82 168/279/82 170/280/82
f 173/281/83 174/282/83 165/283/83 168/284/83
f 112/285/84 110/286/84 111/287/84 113/288/84
f 89/289/85 90/290/85 94/291/85 93/292/85
f 92/293/86 91/294/86 95/295/86 96/296/86
f 91/297/87 89/298/87 93/299/87 95/300/87
f 133/301/88 134/302/88 138/303/88 137/304/88
f 146/305/89 144/306/89 140/307/89 142/308/89
f 144/309/90 133/310/90 137/311/90 140/312/90
f 149/313/91 150/314/91 158/315/91 157/316/91
f 154/317/92 152/318/92 160/319/92 162/320/92
f 152/321/93 149/322/93 157/323/93 160/324/93
f 124/325/94 125/326/94 120/327/94
f 123/328/95 124/329/95 120/330/95
f 122/331/96 123/332/96 120/333/96
f 121/334/97 122/335/97 120/336/97
f 119/337/98 121/338/98 120/339/98
f 118/340/99 119/341/99 120/342/99
f 130/343/100 118/344/100 120/345/100
f 129/346/101 130/347/101 120/348/101
f 128/349/102 129/350/102 120/351/102
f 127/352/103 128/353/103 120/354/103
f 126/355/104 127/356/104 120/357/104
f 125/358/105 126/359/105 120/360/105
f 22/361/106 109/362/106 23/363/106
f 23/364/107 109/365/107 24/366/107
f 24/367/108 109/368/108 13/369/108
f 13/370/109 109/371/109 14/372/109
f 14/373/110 109/374/110 15/375/110
f 15/376/111 109/377/111 16/378/111
f 16/379/112 109/380/112 17/381/112
f 17/382/113 109/383/113 18/384/113
f 18/385/114 109/386/114 19/387/114
f 19/388/115 109/389/115 20/390/115
f 20/391/116 109/392/116 21/393/116
f 21/394/117 109/395/117 22/396/117
f 110/397/118 112/398/118 95/399/118 93/400/118
f 111/401/119 110/402/119 93/403/119 94/404/119
f 112/405/120 113/406/120 96/407/120 95/408/120
f 115/409/121 116/410/121 91/411/121 89/412/121
f 114/413/122 115/414/122 89/415/122 90/416/122
f 116/417/123 117/418/123 92/419/123 91/420/123
f 117/421/124 116/422/124 115/423/124 114/424/124
f 119/425/125 118/426/125 103/427/125 102/428/125
f 121/429/126 119/430/126 102/431/126 101/432/126
f 122/433/127 121/434/127 101/435/127 100/436/127
f 123/437/128 122/438/128 100/439/128 99/440/128
f 124/441/129 123/442/129 99/443/129 98/444/129
f 125/445/130 124/446/130 98/447/130 97/448/130
f 126/449/131 125/450/131 97/451/131 108/452/131
f 127/453/132 126/454/132 108/455/132 107/456/132
f 128/457/133 127/458/133 107/459/133 106/460/133
f 129/461/134 128/462/134 106/463/134 105/464/134
f 130/465/135 129/466/135 105/467/135 104/468/135
f 118/469/136 130/470/136 104/471/136 103/472/136
f 136/473/137 139/474/137 140/475/137 137/476/137
f 135/477/138 136/478/138 137/479/138 138/480/138
f 139/481/139 141/482/139 142/483/139 140/484/139
f 132/485/140 143/486/140 144/487/140 133/488/140
f 131/489/141 132/490/141 133/491/141 134/492/141
f 143/493/142 145/494/142 146/495/142 144/496/142
f 156/497/143 159/498/143 160/499/143 157/500/143
f 155/501/144 156/502/144 157/503/144 158/504/144
f 159/505/145 161/506/145 162/507/145 160/508/145
f 148/509/146 151/510/146 152/511/146 149/512/146
f 147/513/147 148/514/147 149/515/147 150/516/147
f 151/517/148 153/518/148 154/519/148 152/520/148
f 164/521/149 167/522/149 168/523/149 165/524/149
f 163/525/150 164/526/150 165/527/150 166/528/150
f 167/529/151 169/530/151 170/531/151 168/532/151
f 171/533/152 172/534/152 173/535/152 174/536/152
f 175/537/153 171/538/153 174/539/153 176/540/153
f 172/541/154 177/542/154 178/543/154 173/544/154
f 177/545/155 172/546/155 171/547/155 175/548/155
f 167/549/156 164/550/156 163/551/156 169/552/156
f 136/553/157 135/554/157 141/555/157 139/556/157
f 145/557/158 143/558/158 132/559/158 131/560/158
f 159/561/159 156/562/159 155/563/159 161/564/159
f 153/565/160 151/566/160 148/567/160 147/568/160
o WarHead
v 0.2512023679041775 7.5 0.9375
v 0.6862976320958223 7.5 0.6862976320958224
v 0.9375 7.5 0.2512023679041775
v 0.9375 7.5 -0.2512023679041776
v 0.6862976320958224 7.5 -0.6862976320958223
v 0.25120236790417777 7.5 -0.9374999999999999
v -0.2512023679041771 7.5 -0.9375000000000001
v -0.6862976320958223 7.5 -0.6862976320958225
v -0.9375 7.5 -0.2512023679041774
v -0.9375000000000001 7.5 0.25120236790417705
v -0.6862976320958225 7.5 0.6862976320958222
v -0.25120236790417744 7.5 0.9375
v -0.18840177592813306 8.4375 0.703125
v 0.18840177592813312 8.4375 0.703125
v 0 9.875 0
v 0.5147232240718667 8.4375 0.5147232240718668
v 0.703125 8.4375 0.18840177592813312
v 0.703125 8.4375 -0.1884017759281332
v 0.5147232240718668 8.4375 -0.5147232240718667
v 0.18840177592813334 8.4375 -0.7031249999999999
v -0.18840177592813284 8.4375 -0.7031250000000001
v -0.5147232240718667 8.4375 -0.5147232240718669
v -0.703125 8.4375 -0.18840177592813304
v -0.7031250000000001 8.4375 0.1884017759281328
v -0.5147232240718669 8.4375 0.5147232240718667
v 0 7.5 0
vt 0.62890625 0.33984375
vt 0.65234375 0.33984375
vt 0.6171875 0.44140625
vt 0.48828125 0.3125
vt 0.51171875 0.3125
vt 0.5234375 0.4140625
vt 0.51171875 0.3125
vt 0.53515625 0.3125
vt 0.5234375 0.4140625
vt 0.53515625 0.3125
vt 0.55859375 0.3125
vt 0.5234375 0.4140625
vt 0.390625 0.3203125
vt 0.4140625 0.3203125
vt 0.42578125 0.421875
vt 0.4140625 0.3203125
vt 0.4375 0.3203125
vt 0.42578125 0.421875
vt 0.4375 0.3203125
vt 0.4609375 0.3203125
vt 0.42578125 0.421875
vt 0.62109375 0.8984375
vt 0.64453125 0.8984375
vt 0.65625 1
vt 0.64453125 0.8984375
vt 0.66796875 0.8984375
vt 0.65625 1
vt 0.66796875 0.8984375
vt 0.69140625 0.8984375
vt 0.65625 1
vt 0.58203125 0.33984375
vt 0.60546875 0.33984375
vt 0.6171875 0.44140625
vt 0.60546875 0.33984375
vt 0.62890625 0.33984375
vt 0.6171875 0.44140625
vt 0.62890625 0.33984375
vt 0.60546875 0.33984375
vt 0.6015625 0.28125
vt 0.6328125 0.28125
vt 0.65234375 0.33984375
vt 0.62890625 0.33984375
vt 0.6328125 0.28125
vt 0.6640625 0.28125
vt 0.51171875 0.3125
vt 0.48828125 0.3125
vt 0.4765625 0.25390625
vt 0.5078125 0.25390625
vt 0.53515625 0.3125
vt 0.51171875 0.3125
vt 0.5078125 0.25390625
vt 0.5390625 0.25390625
vt 0.55859375 0.3125
vt 0.53515625 0.3125
vt 0.5390625 0.25390625
vt 0.5703125 0.25390625
vt 0.4140625 0.3203125
vt 0.390625 0.3203125
vt 0.37890625 0.26171875
vt 0.41015625 0.26171875
vt 0.4375 0.3203125
vt 0.4140625 0.3203125
vt 0.41015625 0.26171875
vt 0.44140625 0.26171875
vt 0.4609375 0.3203125
vt 0.4375 0.3203125
vt 0.44140625 0.26171875
vt 0.47265625 0.26171875
vt 0.64453125 0.8984375
vt 0.62109375 0.8984375
vt 0.609375 0.83984375
vt 0.640625 0.83984375
vt 0.66796875 0.8984375
vt 0.64453125 0.8984375
vt 0.640625 0.83984375
vt 0.671875 0.83984375
vt 0.69140625 0.8984375
vt 0.66796875 0.8984375
vt 0.671875 0.83984375
vt 0.703125 0.83984375
vt 0.60546875 0.33984375
vt 0.58203125 0.33984375
vt 0.5703125 0.28125
vt 0.6015625 0.28125
vt 0.66796875 0.53125
vt 0.65234375 0.58984375
vt 0.625 0.57421875
vt 0.65234375 0.58984375
vt 0.66796875 0.53125
vt 0.68359375 0.58984375
vt 0.68359375 0.58984375
vt 0.66796875 0.53125
vt 0.7109375 0.57421875
vt 0.7109375 0.57421875
vt 0.66796875 0.53125
vt 0.7265625 0.546875
vt 0.7265625 0.546875
vt 0.66796875 0.53125
vt 0.7265625 0.515625
vt 0.7265625 0.515625
vt 0.66796875 0.53125
vt 0.7109375 0.48828125
vt 0.7109375 0.48828125
vt 0.66796875 0.53125
vt 0.68359375 0.47265625
vt 0.68359375 0.47265625
vt 0.66796875 0.53125
vt 0.65234375 0.47265625
vt 0.65234375 0.47265625
vt 0.66796875 0.53125
vt 0.625 0.48828125
vt 0.625 0.48828125
vt 0.66796875 0.53125
vt 0.609375 0.515625
vt 0.609375 0.515625
vt 0.66796875 0.53125
vt 0.609375 0.546875
vt 0.609375 0.546875
vt 0.66796875 0.53125
vt 0.625 0.57421875
vn 0.44914936392105437 0.4393852473140746 0.777949518498509
vn 0.7779495184985089 0.4393852473140745 0.44914936392105437
vn 0.8982987278421081 0.4393852473140746 0
vn 0.7779495184985089 0.4393852473140745 -0.4491493639210544
vn 0.4491493639210544 0.4393852473140745 -0.7779495184985089
vn 5.293537843413035e-16 0.43938524731407463 -0.898298727842108
vn -0.44914936392105403 0.4393852473140745 -0.7779495184985091
vn -0.7779495184985092 0.4393852473140745 -0.44914936392105426
vn -0.8982987278421081 0.43938524731407463 -2.6467689217065206e-16
vn -0.7779495184985091 0.4393852473140745 0.4491493639210539
vn -0.4491493639210543 0.43938524731407463 0.7779495184985091
vn 0 0.4393852473140746 0.898298727842108
vn 0 0.242535625036333 0.970142500145332
vn 0.4850712500726664 0.24253562503633297 0.8401680504168059
vn 0.8401680504168058 0.24253562503633308 0.4850712500726665
vn 0.970142500145332 0.242535625036333 0
vn 0.8401680504168056 0.2425356250363329 -0.48507125007266644
vn 0.48507125007266644 0.24253562503633305 -0.8401680504168056
vn 5.716902271874644e-16 0.24253562503633305 -0.970142500145332
vn -0.485071250072666 0.2425356250363329 -0.8401680504168059
vn -0.8401680504168058 0.242535625036333 -0.48507125007266616
vn -0.9701425001453319 0.24253562503633302 -2.8584511359373256e-16
vn -0.840168050416806 0.24253562503633289 0.48507125007266594
vn -0.4850712500726662 0.2425356250363329 0.8401680504168058
vn 0 -1 0
vn 0 -1 0
vn 0 -1 0
vn 0 -1 0
vn 0 -1 0
vn 0 -1 0
vn 0 -1 0
vn 0 -1 0
vn 0 -1 0
vn 0 -1 0
vn 0 -1 0
vn 0 -1 0
usemtl m_0da303ee-af21-34aa-0b8d-2b5473e6cb55
f 192/569/161 194/570/161 193/571/161
f 194/572/162 195/573/162 193/574/162
f 195/575/163 196/576/163 193/577/163
f 196/578/164 197/579/164 193/580/164
f 197/581/165 198/582/165 193/583/165
f 198/584/166 199/585/166 193/586/166
f 199/587/167 200/588/167 193/589/167
f 200/590/168 201/591/168 193/592/168
f 201/593/169 202/594/169 193/595/169
f 202/596/170 203/597/170 193/598/170
f 203/599/171 191/600/171 193/601/171
f 191/602/172 192/603/172 193/604/172
f 192/605/173 191/606/173 190/607/173 179/608/173
f 194/609/174 192/610/174 179/611/174 180/612/174
f 195/613/175 194/614/175 180/615/175 181/616/175
f 196/617/176 195/618/176 181/619/176 182/620/176
f 197/621/177 196/622/177 182/623/177 183/624/177
f 198/625/178 197/626/178 183/627/178 184/628/178
f 199/629/179 198/630/179 184/631/179 185/632/179
f 200/633/180 199/634/180 185/635/180 186/636/180
f 201/637/181 200/638/181 186/639/181 187/640/181
f 202/641/182 201/642/182 187/643/182 188/644/182
f 203/645/183 202/646/183 188/647/183 189/648/183
f 191/649/184 203/650/184 189/651/184 190/652/184
f 204/653/185 190/654/185 189/655/185
f 190/656/186 204/657/186 179/658/186
f 179/659/187 204/660/187 180/661/187
f 180/662/188 204/663/188 181/664/188
f 181/665/189 204/666/189 182/667/189
f 182/668/190 204/669/190 183/670/190
f 183/671/191 204/672/191 184/673/191
f 184/674/192 204/675/192 185/676/192
f 185/677/193 204/678/193 186/679/193
f 186/680/194 204/681/194 187/682/194
f 187/683/195 204/684/195 188/685/195
f 188/686/196 204/687/196 189/688/196
o MidStage
v 0.2512023679041775 7.5 0.9375
v 0.6862976320958223 7.5 0.6862976320958224
v 0.9375 7.5 0.2512023679041775
v 0.9375 7.5 -0.2512023679041776
v 0.6862976320958224 7.5 -0.6862976320958223
v 0.25120236790417777 7.5 -0.9374999999999999
v -0.2512023679041771 7.5 -0.9375000000000001
v -0.6862976320958223 7.5 -0.6862976320958225
v -0.9375 7.5 -0.2512023679041774
v -0.9375000000000001 7.5 0.25120236790417705
v -0.6862976320958225 7.5 0.6862976320958222
v -0.25120236790417744 7.5 0.9375
v -0.2512023679041771 2.9375 -0.9375000000000001
v 0.25120236790417777 2.9375 -0.9374999999999999
v 0.6862976320958224 2.9375 -0.6862976320958223
v 0.9375 2.9375 -0.2512023679041776
v 0.9375 2.9375 0.2512023679041775
v 0.6862976320958223 2.9375 0.6862976320958224
v 0.2512023679041775 2.9375 0.9375
v -0.25120236790417744 2.9375 0.9375
v -0.6862976320958225 2.9375 0.6862976320958222
v -0.9375000000000001 2.9375 0.25120236790417705
v -0.9375 2.9375 -0.2512023679041774
v -0.6862976320958223 2.9375 -0.6862976320958225
v 0 2.9375 0
v -0.3812499999999999 3.3072265625 -0.3875
v 0.39374999999999993 3.3072265625 -0.3875
v -0.3812499999999999 2.7259765625 -0.3875
v 0.39374999999999993 2.7259765625 -0.3875
v 0.39374999999999993 3.3072265625 0.3875000000000002
v 0.39374999999999993 2.7259765625 0.3875000000000002
v -0.3812499999999999 2.7259765625 0.3875000000000002
v -0.3812499999999999 3.3072265625 0.3875000000000002
v -0.3443214586219603 1.6603515624999998 -0.5812499999999998
v 0.35682145862195963 1.6603515624999998 -0.5812499999999998
v 0.006250000000000037 1.6603515624999998 -3.0184188481996453e-17
v 0.70739291724392 1.6603515624999998 -3.0184188481996453e-17
v 0.35682145862195963 1.6603515624999998 0.5812500000000002
v 0.006250000000000037 3.3072265625 -3.0184188481996453e-17
v -0.6948929172439199 1.6603515624999998 -1.1622647289044608e-16
v -0.3443214586219603 1.6603515624999998 0.58125
v 0.006250000000000037 7.5 -3.0184188481996453e-17
vt 0.47265625 0.7109375
vt 0.47265625 0.42578125
vt 0.50390625 0.42578125
vt 0.50390625 0.7109375
vt 0.40625 0.99609375
vt 0.40625 0.7109375
vt 0.4375 0.7109375
vt 0.4375 0.99609375
vt 0.4375 0.99609375
vt 0.4375 0.7109375
vt 0.47265625 0.7109375
vt 0.47265625 0.99609375
vt 0.47265625 0.99609375
vt 0.47265625 0.7109375
vt 0.50390625 0.7109375
vt 0.50390625 0.99609375
vt 0.50390625 0.7109375
vt 0.50390625 0.42578125
vt 0.53515625 0.42578125
vt 0.53515625 0.7109375
vt 0.53515625 0.7109375
vt 0.53515625 0.42578125
vt 0.5703125 0.42578125
vt 0.5703125 0.7109375
vt 0.5703125 0.7109375
vt 0.5703125 0.42578125
vt 0.6015625 0.42578125
vt 0.6015625 0.7109375
vt 0.50390625 0.99609375
vt 0.50390625 0.7109375
vt 0.53515625 0.7109375
vt 0.53515625 0.99609375
vt 0.53515625 0.99609375
vt 0.53515625 0.7109375
vt 0.5703125 0.7109375
vt 0.5703125 0.99609375
vt 0.5703125 0.99609375
vt 0.5703125 0.7109375
vt 0.6015625 0.7109375
vt 0.6015625 0.99609375
vt 0.40625 0.7109375
vt 0.40625 0.42578125
vt 0.4375 0.42578125
vt 0.4375 0.7109375
vt 0.4375 0.7109375
vt 0.4375 0.42578125
vt 0.47265625 0.42578125
vt 0.47265625 0.7109375
vt 0.05859375 0.31640625
vt 0.1171875 0.30078125
vt 0.1171875 0.33203125
vt 0.05859375 0.31640625
vt 0.1015625 0.2734375
vt 0.1171875 0.30078125
vt 0.1015625 0.2734375
vt 0.05859375 0.31640625
vt 0.07421875 0.2578125
vt 0.07421875 0.2578125
vt 0.05859375 0.31640625
vt 0.04296875 0.2578125
vt 0.04296875 0.2578125
vt 0.05859375 0.31640625
vt 0.015625 0.2734375
vt 0.015625 0.2734375
vt 0.05859375 0.31640625
vt 0 0.30078125
vt 0 0.30078125
vt 0.05859375 0.31640625
vt 0 0.33203125
vt 0 0.33203125
vt 0.05859375 0.31640625
vt 0.015625 0.359375
vt 0.015625 0.359375
vt 0.05859375 0.31640625
vt 0.04296875 0.375
vt 0.04296875 0.375
vt 0.05859375 0.31640625
vt 0.07421875 0.375
vt 0.07421875 0.375
vt 0.05859375 0.31640625
vt 0.1015625 0.359375
vt 0.1015625 0.359375
vt 0.05859375 0.31640625
vt 0.1171875 0.33203125
vt 0.5859375 0.38671875
vt 0.5859375 0.421875
vt 0.5390625 0.421875
vt 0.5390625 0.38671875
vt 0.72265625 0.96484375
vt 0.72265625 1
vt 0.67578125 1
vt 0.67578125 0.96484375
vt 0.171875 0.20703125
vt 0.171875 0.25390625
vt 0.125 0.25390625
vt 0.125 0.20703125
vt 0.83984375 0.3203125
vt 0.83984375 0.35546875
vt 0.79296875 0.35546875
vt 0.79296875 0.3203125
vt 0.84375 0.79296875
vt 0.84375 0.828125
vt 0.796875 0.828125
vt 0.796875 0.79296875
vt 0.7890625 0.328125
vt 0.765625 0.3671875
vt 0.74609375 0.328125
vt 0.71484375 0.171875
vt 0.7578125 0.171875
vt 0.73828125 0.28515625
vt 0.765625 0.29296875
vt 0.7890625 0.328125
vt 0.74609375 0.328125
vt 0.73046875 0.69140625
vt 0.73046875 0.6484375
vt 0.84375 0.671875
vt 0.72265625 0.29296875
vt 0.765625 0.29296875
vt 0.74609375 0.328125
vt 0.71484375 0.6953125
vt 0.7578125 0.6953125
vt 0.73828125 0.80859375
vt 0.69921875 0.328125
vt 0.72265625 0.29296875
vt 0.74609375 0.328125
vt 0.1953125 0.140625
vt 0.23828125 0.140625
vt 0.21875 0.25390625
vt 0.72265625 0.3671875
vt 0.69921875 0.328125
vt 0.74609375 0.328125
vt 0.73046875 0.56640625
vt 0.73046875 0.5234375
vt 0.84375 0.546875
vt 0.765625 0.3671875
vt 0.72265625 0.3671875
vt 0.74609375 0.328125
vt 0.73046875 0.609375
vt 0.73046875 0.56640625
vt 0.84375 0.58984375
vt 0.1796875 0.31640625
vt 0.1640625 0.375
vt 0.13671875 0.359375
vt 0.1640625 0.375
vt 0.1796875 0.31640625
vt 0.1953125 0.375
vt 0.1953125 0.375
vt 0.1796875 0.31640625
vt 0.22265625 0.359375
vt 0.22265625 0.359375
vt 0.1796875 0.31640625
vt 0.23828125 0.33203125
vt 0.23828125 0.33203125
vt 0.1796875 0.31640625
vt 0.23828125 0.30078125
vt 0.23828125 0.30078125
vt 0.1796875 0.31640625
vt 0.22265625 0.2734375
vt 0.22265625 0.2734375
vt 0.1796875 0.31640625
vt 0.1953125 0.2578125
vt 0.1953125 0.2578125
vt 0.1796875 0.31640625
vt 0.1640625 0.2578125
vt 0.1640625 0.2578125
vt 0.1796875 0.31640625
vt 0.13671875 0.2734375
vt 0.13671875 0.2734375
vt 0.1796875 0.31640625
vt 0.12109375 0.30078125
vt 0.12109375 0.30078125
vt 0.1796875 0.31640625
vt 0.12109375 0.33203125
vt 0.12109375 0.33203125
vt 0.1796875 0.31640625
vt 0.13671875 0.359375
vn 0.5000000000000003 0 0.8660254037844387
vn 0.8660254037844385 0 0.5000000000000003
vn 1 0 0
vn 0.8660254037844385 0 -0.5000000000000003
vn 0.5000000000000003 0 -0.8660254037844385
vn 4.419635984676137e-16 0 -1
vn -0.4999999999999999 0 -0.8660254037844388
vn -0.8660254037844387 0 -0.5000000000000002
vn -1 0 -2.2098179923380708e-16
vn -0.8660254037844387 0 0.4999999999999999
vn -0.5000000000000004 0 0.8660254037844386
vn 0 0 1
vn 0 -1 0
vn 0 -1 0
vn 0 -1 0
vn 0 -1 0
vn 0 -1 0
vn 0 -1 0
vn 0 -1 0
vn 0 -1 0
vn 0 -1 0
vn 0 -1 0
vn 0 -1 0
vn 0 -1 0
vn 1 0 0
vn -1 0 0
vn 0 -1 0
vn 0 0 1
vn 0 0 -1
vn 0 -1 0
vn 0.8045112132738367 0.3425137542498752 0.4852278185206569
vn 0 -1 0
vn 0.8045112132738366 0.34251375424987507 -0.48522781852065705
vn 0 -1 0
vn 0 0.33282011773513737 -0.9429903335828898
vn 0 -1 0
vn -0.8045112132738368 0.3425137542498753 -0.48522781852065644
vn 0 -1 0
vn -0.804511213273837 0.34251375424987535 0.48522781852065616
vn 0 -1 0
vn -1.4931757200914084e-16 0.3328201177351375 0.9429903335828895
vn 0 1 0
vn 0 1 0
vn 0 1 0
vn 0 1 0
vn 0 1 0
vn 0 1 0
vn 0 1 0
vn 0 1 0
vn 0 1 0
vn 0 1 0
vn 0 1 0
vn 0 1 0
usemtl m_0da303ee-af21-34aa-0b8d-2b5473e6cb55
f 205/689/197 223/690/197 222/691/197 206/692/197
f 206/693/198 222/694/198 221/695/198 207/696/198
f 207/697/199 221/698/199 220/699/199 208/700/199
f 208/701/200 220/702/200 219/703/200 209/704/200
f 209/705/201 219/706/201 218/707/201 210/708/201
f 210/709/202 218/710/202 217/711/202 211/712/202
f 211/713/203 217/714/203 228/715/203 212/716/203
f 212/717/204 228/718/204 227/719/204 213/720/204
f 213/721/205 227/722/205 226/723/205 214/724/205
f 214/725/206 226/726/206 225/727/206 215/728/206
f 215/729/207 225/730/207 224/731/207 216/732/207
f 216/733/208 224/734/208 223/735/208 205/736/208
f 229/737/209 220/738/209 221/739/209
f 229/740/210 219/741/210 220/742/210
f 219/743/211 229/744/211 218/745/211
f 218/746/212 229/747/212 217/748/212
f 217/749/213 229/750/213 228/751/213
f 228/752/214 229/753/214 227/754/214
f 227/755/215 229/756/215 226/757/215
f 226/758/216 229/759/216 225/760/216
f 225/761/217 229/762/217 224/763/217
f 224/764/218 229/765/218 223/766/218
f 223/767/219 229/768/219 222/769/219
f 222/770/220 229/771/220 221/772/220
f 233/773/221 231/774/221 234/775/221 235/776/221
f 236/777/222 237/778/222 230/779/222 232/780/222
f 233/781/223 235/782/223 236/783/223 232/784/223
f 235/785/224 234/786/224 237/787/224 236/788/224
f 232/789/225 230/790/225 231/791/225 233/792/225
f 241/793/226 242/794/226 240/795/226
f 242/796/227 241/797/227 243/798/227
f 239/799/228 241/800/228 240/801/228
f 241/802/229 239/803/229 243/804/229
f 238/805/230 239/806/230 240/807/230
f 239/808/231 238/809/231 243/810/231
f 244/811/232 238/812/232 240/813/232
f 238/814/233 244/815/233 243/816/233
f 245/817/234 244/818/234 240/819/234
f 244/820/235 245/821/235 243/822/235
f 242/823/236 245/824/236 240/825/236
f 245/826/237 242/827/237 243/828/237
f 246/829/238 211/830/238 212/831/238
f 211/832/239 246/833/239 210/834/239
f 210/835/240 246/836/240 209/837/240
f 209/838/241 246/839/241 208/840/241
f 208/841/242 246/842/242 207/843/242
f 207/844/243 246/845/243 206/846/243
f 206/847/244 246/848/244 205/849/244
f 205/850/245 246/851/245 216/852/245
f 216/853/246 246/854/246 215/855/246
f 215/856/247 246/857/247 214/858/247
f 214/859/248 246/860/248 213/861/248
f 213/862/249 246/863/249 212/864/249