# Blender 3.6.23
# www.blender.org
mtllib afterburner_flame.mtl
o fire
v -0.089614 -0.066958 8.927062
v 0.083446 0.078257 8.927062
v -0.813393 -0.681760 2.606651
v 0.810201 0.680598 2.606651
v -0.813393 -0.681760 1.234297
v 0.810201 0.680598 1.234297
v -0.630222 -0.528061 -0.041028
v 0.627030 0.526899 -0.041028
v -0.070876 0.087863 8.927062
v 0.063757 -0.072586 8.927062
v -0.647791 0.779860 2.606651
v 0.637695 -0.752122 2.606651
v -0.647791 0.779860 1.234297
v 0.637695 -0.752122 1.234297
v -0.494092 0.596688 -0.041028
v 0.483996 -0.568951 -0.041028
v -0.116736 0.005729 8.927061
v 0.109178 0.005729 8.927061
v -1.066370 0.000000 2.606651
v 1.053082 -0.000000 2.606651
v -1.066370 0.000000 1.234297
v 1.053082 -0.000000 1.234297
v -0.827257 0.000000 -0.041028
v 0.813969 0.000000 -0.041028
v -0.002865 0.112285 8.927061
v -0.002865 -0.097168 8.927061
v -0.000000 1.013218 2.606651
v 0.000000 -0.986642 2.606651
v -0.000000 1.013218 1.234297
v 0.000000 -0.986642 1.234297
v -0.000000 0.774105 -0.041028
v 0.000000 -0.747529 -0.041028
vn -0.6428 0.7660 -0.0009
vn -0.6428 0.7660 -0.0000
vn 0.7660 0.6428 0.0005
vn 0.7660 0.6428 -0.0000
vn -0.0000 1.0000 -0.0009
vn -0.0000 1.0000 -0.0000
vn 1.0000 -0.0000 0.0005
vn 1.0000 -0.0000 -0.0000
vt 0.973260 0.238781
vt 0.973260 0.781454
vt 0.507185 0.860518
vt 0.507185 0.159718
vt 0.193204 0.860517
vt 0.193204 0.159718
vt 0.018060 0.781454
vt 0.018060 0.238781
vt 0.974700 0.250199
vt 0.974700 0.773490
vt 0.506200 0.855721
vt 0.506200 0.167968
vt 0.193857 0.855721
vt 0.193857 0.167968
vt 0.021852 0.773490
vt 0.021852 0.250199
s 0
usemtl Material.002
f 1/1/1 2/2/1 4/3/1 3/4/1
f 3/4/2 4/3/2 6/5/2 5/6/2
f 5/6/2 6/5/2 8/7/2 7/8/2
f 9/9/3 10/10/3 12/11/3 11/12/3
f 11/12/4 12/11/4 14/13/4 13/14/4
f 13/14/4 14/13/4 16/15/4 15/16/4
usemtl Material.001
f 17/1/5 18/2/5 20/3/5 19/4/5
f 19/4/6 20/3/6 22/5/6 21/6/6
f 21/6/6 22/5/6 24/7/6 23/8/6
f 25/9/7 26/10/7 28/11/7 27/12/7
f 27/12/8 28/11/8 30/13/8 29/14/8
f 29/14/8 30/13/8 32/15/8 31/16/8
