# Made in Blockbench 5.0.7
mtllib antitank_mina.mtl

o mesh
v 0.2705980500730985 0.171875 0.6532814824381883
v 0.6532814824381883 0.171875 -0.2705980500730985
v 0.2705980500730985 -0.015625 0.6532814824381883
v 0.6532814824381883 -0.015625 -0.2705980500730985
v -0.6532814824381883 0.171875 0.2705980500730985
v -0.2705980500730985 0.171875 -0.6532814824381883
v -0.6532814824381883 -0.015625 0.2705980500730985
v -0.2705980500730985 -0.015625 -0.6532814824381883
vt 0.515625 1
vt 0.265625 1
vt 0.265625 0.953125
vt 0.515625 0.953125
vt 0.515625 0.890625
vt 0.515625 0.9375
vt 0.265625 0.9375
vt 0.265625 0.890625
vt 0 0.75
vt 0.25 0.75
vt 0.25 1
vt 0 1
vt 0.25 0.484375
vt 0.25 0.734375
vt 0 0.734375
vt 0 0.484375
vt 0.515625 0.828125
vt 0.515625 0.875
vt 0.265625 0.875
vt 0.265625 0.828125
vt 0.515625 0.8125
vt 0.265625 0.8125
vt 0.265625 0.765625
vt 0.515625 0.765625
vn 0.9238795325112867 0 0.3826834323650897
vn -0.9238795325112867 0 -0.3826834323650897
vn 0 1 0
vn 0 -1 0
vn -0.3826834323650897 0 0.9238795325112867
vn 0.3826834323650897 0 -0.9238795325112867
usemtl m_f93e2ed1-7cff-6b79-c76f-d70c2229f558
f 2/1/1 1/2/1 3/3/1 4/4/1
f 7/5/2 5/6/2 6/7/2 8/8/2
f 5/9/3 1/10/3 2/11/3 6/12/3
f 4/13/4 3/14/4 7/15/4 8/16/4
f 3/17/5 1/18/5 5/19/5 7/20/5
f 6/21/6 2/22/6 4/23/6 8/24/6
o mesh
v 0.10147426877741192 0.228125 0.24498055591432058
v 0.24498055591432058 0.228125 -0.10147426877741192
v 0.10147426877741192 0.165625 0.24498055591432058
v 0.24498055591432058 0.165625 -0.10147426877741192
v -0.24498055591432058 0.228125 0.10147426877741192
v -0.10147426877741192 0.228125 -0.24498055591432058
v -0.24498055591432058 0.165625 0.10147426877741192
v -0.10147426877741192 0.165625 -0.24498055591432058
vt 0.46875 0.75
vt 0.375 0.75
vt 0.375 0.734375
vt 0.46875 0.734375
vt 0.46875 0.703125
vt 0.46875 0.71875
vt 0.375 0.71875
vt 0.375 0.703125
vt 0.265625 0.65625
vt 0.359375 0.65625
vt 0.359375 0.75
vt 0.265625 0.75
vt 0.359375 0.546875
vt 0.359375 0.640625
vt 0.265625 0.640625
vt 0.265625 0.546875
vt 0.46875 0.671875
vt 0.46875 0.6875
vt 0.375 0.6875
vt 0.375 0.671875
vt 0.46875 0.65625
vt 0.375 0.65625
vt 0.375 0.640625
vt 0.46875 0.640625
vn 0.9238795325112867 0 0.3826834323650897
vn -0.9238795325112867 0 -0.3826834323650897
vn 0 1 0
vn 0 -1 0
vn -0.3826834323650897 0 0.9238795325112867
vn 0.3826834323650897 0 -0.9238795325112867
usemtl m_f93e2ed1-7cff-6b79-c76f-d70c2229f558
f 10/25/7 9/26/7 11/27/7 12/28/7
f 15/29/8 13/30/8 14/31/8 16/32/8
f 13/33/9 9/34/9 10/35/9 14/36/9
f 12/37/10 11/38/10 15/39/10 16/40/10
f 11/41/11 9/42/11 13/43/11 15/44/11
f 14/45/12 10/46/12 12/47/12 16/48/12