# Blender 3.6.23
# www.blender.org
mtllib muzzle_flash.mtl
o Plane.001
v -0.248842 -0.248000 -1.339684
v -0.248842 -0.248000 0.013168
v 0.248842 0.249684 -1.339684
v 0.248842 0.249684 0.013168
v 0.248842 -0.248000 -1.339684
v 0.248842 -0.248000 0.013168
v -0.248842 0.249685 -1.339684
v -0.248842 0.249685 0.013168
vn -0.7071 0.7071 -0.0000
vn -0.7071 -0.7071 -0.0000
vt 0.000443 0.008658
vt 0.507881 0.008658
vt 0.507881 1.008658
vt 0.000443 1.008658
vt 0.000000 0.005179
vt 0.505592 0.005179
vt 0.505592 1.005179
vt 0.000000 1.005179
s 0
usemtl Material.003
f 1/1/1 2/2/1 4/3/1 3/4/1
f 5/5/2 6/6/2 8/7/2 7/8/2
o Plane.002
v -0.468736 0.441895 0.000000
v -0.468736 -0.495577 0.000000
v 0.468736 0.441895 -0.000000
v 0.468736 -0.495577 -0.000000
vn -0.0000 -0.0000 1.0000
vt 0.528997 0.063200
vt 0.967222 0.063200
vt 0.967222 0.948662
vt 0.528997 0.948662
s 0
usemtl Material.003
f 9/9/3 10/10/3 12/11/3 11/12/3
