# Made in Blockbench 4.8.3
mtllib scud_b.mtl

o body
v 0 0 -8
v 0 1 -8
v 0.7071 0.7071 -8
v 1 0 -8
v 0.7071 -0.7071 -8
v 0 -1 -8
v -0.7071 -0.7071 -8
v -1 0 -8
v -0.7071 0.7071 -8
v 0 0 8
v 0 1 8
v 0.7071 0.7071 8
v 1 0 8
v 0.7071 -0.7071 8
v 0 -1 8
v -0.7071 -0.7071 8
v -1 0 8
v -0.7071 0.7071 8
vt 0 0
vt 0 1
vt 0.125 1
vt 0.125 0
vt 0.25 0
vt 0.25 1
vt 0.375 1
vt 0.375 0
vt 0.5 0
vt 0.5 1
vt 0.625 1
vt 0.625 0
vt 0.75 0
vt 0.75 1
vt 0.875 1
vt 0.875 0
vt 1 0
vt 1 1
vn 0 1 0
vn 0.7071 0.7071 0
vn 1 0 0
vn 0.7071 -0.7071 0
vn 0 -1 0
vn -0.7071 -0.7071 0
vn -1 0 0
vn -0.7071 0.7071 0
usemtl m_scud_b
f 2/2/1 11/3/1 12/4/1 3/1/1
f 3/1/2 12/4/2 13/5/2 4/6/2
f 4/6/3 13/5/3 14/7/3 5/8/3
f 5/8/4 14/7/4 15/9/4 6/10/4
f 6/10/5 15/9/5 16/11/5 7/12/5
f 7/12/6 16/11/6 17/13/6 8/14/6
f 8/14/7 17/13/7 18/15/7 9/16/7
f 9/16/8 18/15/8 11/17/8 2/18/8
