# Blender 3.6.23
# www.blender.org
mtllib traccer.mtl
o traccer
v -0.000000 -0.770478 -2.013051
v 0.000000 -0.770478 2.013051
v -0.000000 0.770478 -2.013051
v 0.000000 0.770478 2.013051
vn -1.0000 -0.0000 -0.0000
vt 0.000000 0.000000
vt 1.000000 0.000000
vt 1.000000 1.000000
vt 0.000000 1.000000
s 0
usemtl Material.003
f 1/1/1 2/2/1 4/3/1 3/4/1
o traccer.001
v -0.764478 0.000000 -2.013051
v -0.764478 -0.000000 2.013051
v 0.764478 0.000000 -2.013051
v 0.764478 -0.000000 2.013051
vn -0.0000 1.0000 -0.0000
vt 0.000000 0.000000
vt 1.000000 0.000000
vt 1.000000 1.000000
vt 0.000000 1.000000
s 0
usemtl Material.004
f 5/5/2 6/6/2 8/7/2 7/8/2
