# Made in Blockbench 4.12.3
mtllib turret_platform.mtl

o base
v 0 0 0
v 0 0.125 0
v 0.20710678118654754 0 0.5
v 0.20710678118654754 0.125 0.5
v 0.5 0 0.20710678118654757
v 0.5 0.125 0.20710678118654757
v 0.5 0 -0.20710678118654752
v 0.5 0.125 -0.20710678118654752
v 0.2071067811865476 0 -0.5
v 0.2071067811865476 0.125 -0.5
v -0.2071067811865475 0 -0.5000000000000001
v -0.2071067811865475 0.125 -0.5000000000000001
v -0.4999999999999999 0 -0.20710678118654785
v -0.4999999999999999 0.125 -0.20710678118654785
v -0.49999999999999994 0 0.20710678118654766
v -0.49999999999999994 0.125 0.20710678118654766
v -0.20710678118654788 0 0.4999999999999999
v -0.20710678118654788 0.125 0.4999999999999999
vt 0.5 0.853553125
vt 0.353553125 1
vt 0.25 0.75
vt 0.53125 0.65625
vt 0.75 0.65625
vt 0.75 0.71875
vt 0.53125 0.71875
vt 0.759803125 0.0625
vt 0.90625 0.20894687499999998
vt 0.65625 0.3125
vt 0.5 0.646446875
vt 0.5 0.853553125
vt 0.25 0.75
vt 0.5 0.9375
vt 0.71875 0.9375
vt 0.71875 1
vt 0.5 1
vt 0.90625 0.20894687499999998
vt 0.90625 0.416053125
vt 0.65625 0.3125
vt 0.353553125 0.5
vt 0.5 0.646446875
vt 0.25 0.75
vt 0 0.3125
vt 0.21875 0.3125
vt 0.21875 0.375
vt 0 0.375
vt 0.90625 0.416053125
vt 0.759803125 0.5625
vt 0.65625 0.3125
vt 0.146446875 0.5
vt 0.353553125 0.5
vt 0.25 0.75
vt 0.53125 0.75
vt 0.75 0.75
vt 0.75 0.8125
vt 0.53125 0.8125
vt 0.759803125 0.5625
vt 0.552696875 0.5625
vt 0.65625 0.3125
vt 0 0.646446875
vt 0.146446875 0.5
vt 0.25 0.75
vt 0.75 0.9375
vt 0.96875 0.9375
vt 0.96875 1
vt 0.75 1
vt 0.552696875 0.5625
vt 0.40625 0.416053125
vt 0.65625 0.3125
vt 0 0.853553125
vt 0 0.646446875
vt 0.25 0.75
vt 0 0.40625
vt 0.21875 0.40625
vt 0.21875 0.46875
vt 0 0.46875
vt 0.40625 0.416053125
vt 0.40625 0.20894687499999998
vt 0.65625 0.3125
vt 0.146446875 1
vt 0 0.853553125
vt 0.25 0.75
vt 0 0.21875
vt 0.21875 0.21875
vt 0.21875 0.28125
vt 0 0.28125
vt 0.40625 0.20894687499999998
vt 0.552696875 0.0625
vt 0.65625 0.3125
vt 0.353553125 1
vt 0.146446875 1
vt 0.25 0.75
vt 0.53125 0.84375
vt 0.75 0.84375
vt 0.75 0.90625
vt 0.53125 0.90625
vt 0.552696875 0.0625
vt 0.759803125 0.0625
vt 0.65625 0.3125
vn 0 -1 0
vn 0.7071067811865476 0 0.7071067811865476
vn 0 1 0
vn 0 -1 0
vn 1 0 0
vn 0 1 0
vn 0 -1 0
vn 0.7071067811865476 0 -0.7071067811865475
vn 0 1 0
vn 0 -1 0
vn 2.6803154833089315e-16 0 -1
vn 0 1 0
vn 0 -1 0
vn -0.7071067811865474 0 -0.7071067811865477
vn 0 1 0
vn 0 -1 0
vn -1 0 -1.3401577416544645e-16
vn 0 1 0
vn 0 -1 0
vn -0.7071067811865477 0 0.7071067811865474
vn 0 1 0
vn 0 -1 0
vn -2.680315483308929e-16 0 1
vn 0 1 0
usemtl m_4e3548fb-b32f-b0d7-01a3-b6e8ce7aae1a
f 5/1/1 3/2/1 1/3/1
f 3/4/2 5/5/2 6/6/2 4/7/2
f 4/8/3 6/9/3 2/10/3
f 7/11/4 5/12/4 1/13/4
f 5/14/5 7/15/5 8/16/5 6/17/5
f 6/18/6 8/19/6 2/20/6
f 9/21/7 7/22/7 1/23/7
f 7/24/8 9/25/8 10/26/8 8/27/8
f 8/28/9 10/29/9 2/30/9
f 11/31/10 9/32/10 1/33/10
f 9/34/11 11/35/11 12/36/11 10/37/11
f 10/38/12 12/39/12 2/40/12
f 13/41/13 11/42/13 1/43/13
f 11/44/14 13/45/14 14/46/14 12/47/14
f 12/48/15 14/49/15 2/50/15
f 15/51/16 13/52/16 1/53/16
f 13/54/17 15/55/17 16/56/17 14/57/17
f 14/58/18 16/59/18 2/60/18
f 17/61/19 15/62/19 1/63/19
f 15/64/20 17/65/20 18/66/20 16/67/20
f 16/68/21 18/69/21 2/70/21
f 3/71/22 17/72/22 1/73/22
f 17/74/23 3/75/23 4/76/23 18/77/23
f 18/78/24 4/79/24 2/80/24