# Made in Blockbench 4.12.2
mtllib type91.mtl

o pedo
v -3.342028454037538e-15 -2.086435902965579e-14 -3.75
v -0.022329099369263517 0.0812499999999791 -3.7500000000000004
v -0.11164549684629813 0.4062500000000159 2.874999999999998
v -0.061004233964076386 0.059479128114950416 -3.7500000000000004
v -0.3050211698203626 0.2973956405748725 2.8749999999999987
v -0.08333333333333662 0.021770871885007877 -3.75
v -0.4166666666666638 0.10885435942515974 2.875
v -0.08333333333333665 -0.021770871885049534 -3.75
v -0.4166666666666639 -0.10885435942512747 2.875000000000001
v -0.06100423396407645 -0.05947912811499207 -3.7499999999999996
v -0.3050211698203629 -0.2973956405748403 2.875000000000002
v -0.022329099369263614 -0.08125000000002079 -3.7499999999999996
v -0.11164549684629864 -0.40624999999998396 2.875000000000002
v 0.022329099369256793 -0.08125000000002085 -3.7499999999999996
v 0.11164549684630355 -0.40624999999998407 2.875000000000002
v 0.06100423396406972 -0.05947912811499216 -3.7499999999999996
v 0.30502116982036814 -0.2973956405748407 2.8750000000000013
v 0.08333333333332994 -0.0217708718850496 -3.75
v 0.4166666666666694 -0.10885435942512779 2.875
v 0.08333333333332997 0.02177087188500776 -3.75
v 0.4166666666666695 0.10885435942515914 2.874999999999999
v 0.06100423396406979 0.05947912811495035 -3.7500000000000004
v 0.3050211698203686 0.29739564057487217 2.874999999999998
v 0.022329099369256897 0.08124999999997908 -3.7500000000000004
v 0.11164549684630408 0.4062500000000158 2.874999999999998
v -0.30502116982036526 0.29739564057485657 -1.3651897595771041e-15
v -0.1116454968463008 0.40624999999999994 -2.1492180071042275e-15
v 0.1116454968463014 0.40624999999999983 -2.3567929418792186e-15
v 0.3050211698203659 0.2973956405748562 -1.9322950277601754e-15
v 0.41666666666666685 0.10885435942514318 -9.89468138023989e-16
v 0.41666666666666674 -0.10885435942514375 2.1905802362217783e-16
v 0.3050211698203655 -0.2973956405748567 1.3694598481333551e-15
v 0.11164549684630087 -0.40625000000000006 2.153488095660479e-15
v -0.11164549684630132 -0.4062499999999999 2.3610630304354698e-15
v -0.3050211698203656 -0.29739564057485623 1.936565116316426e-15
v -0.4166666666666666 -0.10885435942514343 9.937382265802408e-16
v -0.41666666666666646 0.10885435942514378 -2.1478793506592778e-16
v -0.3050211698203643 0.2973956405748621 0.9999999999999986
v -0.4166666666666655 0.10885435942514933 0.9999999999999999
v -0.41666666666666563 -0.10885435942513788 1.000000000000001
v -0.30502116982036465 -0.2973956405748507 1.0000000000000018
v -0.11164549684630039 -0.40624999999999434 1.0000000000000022
v 0.1116454968463018 -0.4062499999999945 1.0000000000000022
v 0.3050211698203664 -0.29739564057485113 1.0000000000000013
v 0.4166666666666677 -0.1088543594251382 1.0000000000000002
v 0.4166666666666678 0.10885435942514873 0.9999999999999991
v 0.30502116982036687 0.29739564057486173 0.999999999999998
v 0.11164549684630233 0.4062500000000054 0.9999999999999977
v -0.11164549684629987 0.4062500000000055 0.9999999999999978
v -0.4166666666666672 0.10885435942513962 -0.7500000000000002
v -0.305021169820366 0.2973956405748524 -0.7500000000000013
v -0.1116454968463015 0.4062499999999958 -0.7500000000000021
v 0.1116454968463007 0.40624999999999567 -0.7500000000000023
v 0.3050211698203652 0.297395640574852 -0.750000000000002
v 0.41666666666666613 0.10885435942513902 -0.7500000000000009
v 0.416666666666666 -0.10885435942514791 -0.7499999999999998
v 0.30502116982036476 -0.29739564057486084 -0.7499999999999987
v 0.11164549684630018 -0.4062500000000042 -0.7499999999999979
v -0.11164549684630201 -0.40625000000000405 -0.7499999999999977
v -0.3050211698203663 -0.2973956405748604 -0.749999999999998
v -0.4166666666666673 -0.1088543594251476 -0.7499999999999991
v -0.3710661526544448 -0.09694120404373328 -1.556629336978132
v -0.3710661526544447 0.09694120404371628 -1.556629336978133
v -0.2716392767121628 0.26484829479434907 -1.5566293369781343
v -0.09942687594228294 0.36178949883807365 -1.556629336978135
v 0.09942687594228064 0.36178949883807354 -1.556629336978135
v 0.2716392767121605 0.26484829479434874 -1.5566293369781348
v 0.37106615265444215 0.09694120404371576 -1.5566293369781339
v 0.37106615265444204 -0.09694120404373356 -1.556629336978133
v 0.2716392767121602 -0.2648482947943664 -1.5566293369781317
v 0.09942687594228015 -0.3617894988380911 -1.556629336978131
v -0.0994268759422834 -0.3617894988380909 -1.556629336978131
v -0.27163927671216304 -0.26484829479436606 -1.5566293369781312
v 0.27335068413489494 0.07141299268781522 -2.549459672344872
v 0.27335068413489483 -0.07141299268784378 -2.549459672344871
v 0.20010658907045425 -0.1951039243437094 -2.54945967234487
v 0.0732440950644381 -0.26651691703153896 -2.5494596723448697
v -0.07324409506444303 -0.2665169170315388 -2.5494596723448697
v -0.20010658907045883 -0.19510392434370918 -2.54945967234487
v -0.2733506841348995 -0.07141299268784358 -2.54945967234487
v -0.2733506841348994 0.07141299268781559 -2.549459672344871
v -0.20010658907045867 0.19510392434368107 -2.549459672344872
v -0.07324409506444271 0.26651691703151054 -2.5494596723448724
v 0.07324409506443844 0.2665169170315104 -2.5494596723448724
v 0.20010658907045448 0.19510392434368082 -2.549459672344872
v 0.061004233964077684 0.059479128114997656 4.75
v 0.022329099369264804 0.08125000000002637 4.749999999999999
v 4.5887601237456465e-15 2.6608979887721428e-14 4.781249999999998
v 0.08333333333333787 0.021770871885055065 4.75
v 0.08333333333333784 -0.021770871885002298 4.75
v 0.061004233964077614 -0.05947912811494486 4.75
v 0.0223290993692647 -0.08124999999997354 4.750000000000001
v -0.06100423396406855 -0.059479128114944775 4.75
v -0.022329099369255718 -0.08124999999997348 4.750000000000001
v -0.08333333333332875 -0.021770871885002235 4.75
v -0.08333333333332872 0.021770871885055186 4.75
v -0.06100423396406849 0.05947912811499772 4.75
v -0.022329099369255614 0.0812500000000264 4.749999999999999
v -0.3050211698203614 0.29739564057487944 4.124999999999998
v -0.41666666666666263 0.10885435942516668 4.124999999999999
v -0.41666666666666274 -0.10885435942512053 4.125000000000001
v -0.30502116982036176 -0.29739564057483336 4.125000000000002
v -0.11164549684629749 -0.406249999999977 4.125000000000003
v 0.1116454968463047 -0.40624999999997713 4.125000000000003
v 0.3050211698203693 -0.29739564057483375 4.125000000000002
v 0.41666666666667057 -0.10885435942512085 4.125000000000001
v 0.4166666666666707 0.10885435942516608 4.124999999999999
v 0.30502116982036975 0.2973956405748791 4.124999999999998
v 0.11164549684630523 0.40625000000002276 4.124999999999997
v -0.11164549684629697 0.4062500000000228 4.124999999999997
v -0.2643516805109791 0.2577428884982336 4.437499999999998
v -0.3611111111111068 0.09434044483514936 4.437499999999999
v -0.3611111111111069 -0.09434044483509957 4.437500000000001
v -0.2643516805109794 -0.25774288849818416 4.437500000000002
v -0.09675943060012367 -0.3520833333333086 4.437500000000002
v 0.09675943060013156 -0.35208333333330877 4.437500000000002
v 0.2643516805109876 -0.2577428884981845 4.437500000000002
v 0.36111111111111527 -0.09434044483509985 4.437500000000001
v 0.3611111111111154 0.09434044483514883 4.437499999999999
v 0.2643516805109879 0.2577428884982333 4.437499999999998
v 0.09675943060013202 0.35208333333335784 4.437499999999998
v -0.09675943060012324 0.35208333333335795 4.437499999999998
v -0.07443033123086289 0.2708333333333588 4.593749999999998
v -0.20334744654690584 0.19826376038326318 4.593749999999999
v -0.2777777777777733 0.07256957295012145 4.59375
v -0.2777777777777734 -0.07256957295007002 4.59375
v -0.20334744654690606 -0.19826376038321203 4.593750000000001
v -0.0744303312308632 -0.2708333333333078 4.593750000000002
v 0.07443033123087156 -0.2708333333333079 4.593750000000002
v 0.2033474465469147 -0.1982637603832123 4.593750000000001
v 0.2777777777777821 -0.07256957295007022 4.59375
v 0.27777777777778223 0.07256957295012106 4.59375
v 0.20334744654691495 0.19826376038326293 4.593749999999999
v 0.0744303312308719 0.27083333333335874 4.593749999999998
v 0.3888888888888887 -2.7759367065805555e-15 -3.75
v 0.3888888888888887 -2.7759367065805555e-15 -3.75
v 0.38888888888888873 -2.2208251942679772e-15 -3
v -2.5573834444680916e-16 -2.7832437209641406e-15 -3.75
v -1.6535898743503462e-16 -2.1356136232661316e-15 -2.875
v -2.5573834444680916e-16 -2.7832437209641406e-15 -3.75
v -1.6535898743503462e-16 -2.1356136232661316e-15 -2.875
v -1.3830175821732138e-15 0.3791666666666639 -3.75
v -2.5573834444680916e-16 -2.7832437209641406e-15 -3.75
v -2.0409299758293825e-16 -2.4131693794224207e-15 -3.25
v -2.5573834444680916e-16 -2.7832437209641406e-15 -3.75
v -0.3888888888888892 -2.7905507353477258e-15 -3.75
v -0.3888888888888892 -2.7905507353477258e-15 -3.75
v -0.3888888888888891 -2.2354392230351475e-15 -3
v -2.5573834444680916e-16 -2.7832437209641406e-15 -3.75
v -1.6535898743503462e-16 -2.1356136232661316e-15 -2.875
v -2.5573834444680916e-16 -2.7832437209641406e-15 -3.75
v -1.6535898743503462e-16 -2.1356136232661316e-15 -2.875
v -0.5 -1.019321510719731e-15 -1.375
v -0.5 -9.268029253343025e-16 -1.25
v -0.5 -1.019321510719731e-15 -1.375
v -0.5 -9.268029253343025e-16 -1.25
v -0.2777777777777778 -1.0220188831291743e-15 -1.375
v -0.2777777777777778 -9.29500297743746e-16 -1.25
v -0.2777777777777778 -1.0220188831291743e-15 -1.375
v -0.2777777777777778 -9.29500297743746e-16 -1.25
v 0.2777777777777778 -1.0287623141527797e-15 -1.375
v 0.2777777777777778 -9.362437287673513e-16 -1.25
v 0.2777777777777778 -1.0287623141527797e-15 -1.375
v 0.2777777777777778 -9.362437287673513e-16 -1.25
v 0.49999999999999994 -1.0314596865622208e-15 -1.375
v 0.4999999999999999 -9.389411011767924e-16 -1.25
v 0.49999999999999994 -1.0314596865622208e-15 -1.375
v 0.4999999999999999 -9.389411011767924e-16 -1.25
v 0.06185558947309387 0.06030919973626366 -3.664920963148039
v 0.0879619632467152 0.08576291416554456 -3.4607699830186993
v 0.20344719719498433 0.19836101726510647 -3.4981514707219232
v 0.11406833702033653 0.11121662859482545 -3.256619002889359
v 0.22955357096860568 0.22381473169438737 -3.294000490592584
v 0.216500384081795 0.2110878744797469 -3.396075980657254
v 0.14017471079395785 0.13667034302410636 -3.0524680227600203
v 0.15754935833162378 0.1536106243733302 -3.3769940862121195
v -0.06185558947309386 -0.06030919973626974 -3.6649209631480386
v -0.08796196324671506 -0.08576291416555035 -3.4607699830186993
v -0.20344719719498344 -0.1983610172651131 -3.498151470721924
v -0.11406833702033628 -0.111216628594831 -3.25661900288936
v -0.22955357096860468 -0.22381473169439378 -3.2940004905925844
v -0.2165003840817941 -0.2110878744797534 -3.3960759806572542
v -0.14017471079395744 -0.13667034302411163 -3.0524680227600203
v -0.15754935833162323 -0.1536106243733363 -3.3769940862121204
v 0.06185558947309382 -0.06030919973626911 -3.664920963148039
v 0.08796196324671515 -0.08576291416554974 -3.4607699830186993
v 0.20344719719498428 -0.19836101726511174 -3.498151470721924
v 0.11406833702033649 -0.11121662859483039 -3.2566190028893596
v 0.22955357096860562 -0.22381473169439242 -3.2940004905925844
v 0.2165003840817949 -0.21108787447975205 -3.3960759806572542
v 0.14017471079395785 -0.13667034302411102 -3.0524680227600203
v 0.1575493583316237 -0.1536106243733353 -3.37699408621212
v -0.061855589473094504 0.06030919973626341 -3.664920963148039
v -0.08796196324671583 0.08576291416554438 -3.4607699830186993
v -0.20344719719498525 0.19836101726510605 -3.498151470721924
v -0.1140683370203372 0.11121662859482534 -3.25661900288936
v -0.22955357096860657 0.223814731694387 -3.2940004905925844
v -0.21650038408179592 0.21108787447974656 -3.3960759806572542
v -0.14017471079395855 0.1366703430241063 -3.0524680227600203
v -0.15754935833162453 0.15361062437332992 -3.37699408621212
v -1.3830175821732142e-15 0.3791666666666639 -3.75
v -1.3442835720253104e-15 0.37916666666666426 -3.375
v -2.5573834444680916e-16 -2.7832437209641406e-15 -3.75
v -2.0409299758293825e-16 -2.4131693794224176e-15 -3.25
v -2.5573834444680916e-16 -2.7832437209641406e-15 -3.75
v -1.3735767787401658e-15 -0.3791666666666695 -3.75
v -1.3348427685922628e-15 -0.37916666666666926 -3.375
v -2.5573834444680916e-16 -2.7832437209641406e-15 -3.75
v -2.0409299758293825e-16 -2.413169379422424e-15 -3.25
v -2.5573834444680916e-16 -2.7832437209641406e-15 -3.75
vt 0.3417733990922583 0.9196653070838551
vt 0.3393572455241584 0.9210259865766693
vt 0.33796227861121253 0.9159478615766694
vt 0.04296875 0.7109375
vt 0.04296875 0.7734375
vt 0.02734375 0.7734375
vt 0.02734375 0.7109375
vt 0.23474567293276885 0.61254349111769
vt 0.232329519364669 0.6111828116248758
vt 0.23614063984571476 0.6074653661176901
vt 0.34316836600520423 0.9173085410694837
vt 0.3417733990922583 0.9196653070838551
vt 0.33796227861121253 0.9159478615766694
vt 0.109375 0.7109375
vt 0.109375 0.7734375
vt 0.09375 0.7734375
vt 0.09375 0.7109375
vt 0.232329519364669 0.6111828116248758
vt 0.2309345524517231 0.6088260456105044
vt 0.23614063984571476 0.6074653661176901
vt 0.34316836600520423 0.9145871820838551
vt 0.34316836600520423 0.9173085410694837
vt 0.33796227861121253 0.9159478615766694
vt 0.12109375 0.7109375
vt 0.12109375 0.7734375
vt 0.109375 0.7734375
vt 0.109375 0.7109375
vt 0.2309345524517231 0.6088260456105044
vt 0.2309345524517231 0.6061046866248757
vt 0.23614063984571476 0.6074653661176901
vt 0.3417733990922583 0.9122304160694836
vt 0.34316836600520423 0.9145871820838551
vt 0.33796227861121253 0.9159478615766694
vt 0.13671875 0.7109375
vt 0.13671875 0.7734375
vt 0.12109375 0.7734375
vt 0.12109375 0.7109375
vt 0.2309345524517231 0.6061046866248757
vt 0.232329519364669 0.6037479206105043
vt 0.23614063984571476 0.6074653661176901
vt 0.33935724552415847 0.9108697365766694
vt 0.3417733990922583 0.9122304160694836
vt 0.33796227861121253 0.9159478615766694
vt 0.0625 0.7109375
vt 0.0625 0.7734375
vt 0.046875 0.7734375
vt 0.046875 0.7109375
vt 0.232329519364669 0.6037479206105043
vt 0.23474567293276882 0.60238724111769
vt 0.23614063984571476 0.6074653661176901
vt 0.33656731169826665 0.9108697365766694
vt 0.33935724552415847 0.9108697365766694
vt 0.33796227861121253 0.9159478615766694
vt 0.07421875 0.7109375
vt 0.07421875 0.7734375
vt 0.0625 0.7734375
vt 0.0625 0.7109375
vt 0.23474567293276882 0.60238724111769
vt 0.23753560675866067 0.60238724111769
vt 0.23614063984571476 0.6074653661176901
vt 0.33415115813016677 0.9122304160694836
vt 0.33656731169826665 0.9108697365766694
vt 0.33796227861121253 0.9159478615766694
vt 0.08984375 0.7109375
vt 0.08984375 0.7734375
vt 0.07421875 0.7734375
vt 0.07421875 0.7109375
vt 0.23753560675866067 0.60238724111769
vt 0.2399517603267605 0.6037479206105043
vt 0.23614063984571476 0.6074653661176901
vt 0.3327561912172209 0.9145871820838551
vt 0.33415115813016677 0.9122304160694836
vt 0.33796227861121253 0.9159478615766694
vt 0.15625 0.7109375
vt 0.15625 0.7734375
vt 0.140625 0.7734375
vt 0.140625 0.7109375
vt 0.2399517603267605 0.6037479206105043
vt 0.2413467272397064 0.6061046866248757
vt 0.23614063984571476 0.6074653661176901
vt 0.3327561912172209 0.9173085410694837
vt 0.3327561912172209 0.9145871820838551
vt 0.33796227861121253 0.9159478615766694
vt 0.16796875 0.7109375
vt 0.16796875 0.7734375
vt 0.15625 0.7734375
vt 0.15625 0.7109375
vt 0.2413467272397064 0.6061046866248757
vt 0.2413467272397064 0.6088260456105044
vt 0.23614063984571476 0.6074653661176901
vt 0.33415115813016677 0.9196653070838551
vt 0.3327561912172209 0.9173085410694837
vt 0.33796227861121253 0.9159478615766694
vt 0.18359375 0.7109375
vt 0.18359375 0.7734375
vt 0.16796875 0.7734375
vt 0.16796875 0.7109375
vt 0.2413467272397064 0.6088260456105044
vt 0.2399517603267605 0.6111828116248758
vt 0.23614063984571476 0.6074653661176901
vt 0.33656731169826665 0.9210259865766693
vt 0.33415115813016677 0.9196653070838551
vt 0.33796227861121253 0.9159478615766694
vt 0.015625 0.7109375
vt 0.015625 0.7734375
vt 0 0.7734375
vt 0 0.7109375
vt 0.2399517603267605 0.6111828116248758
vt 0.23753560675866067 0.61254349111769
vt 0.23614063984571476 0.6074653661176901
vt 0.3393572455241584 0.9210259865766693
vt 0.33656731169826665 0.9210259865766693
vt 0.33796227861121253 0.9159478615766694
vt 0.02734375 0.7109375
vt 0.02734375 0.7734375
vt 0.015625 0.7734375
vt 0.015625 0.7109375
vt 0.23753560675866067 0.61254349111769
vt 0.23474567293276885 0.61254349111769
vt 0.23614063984571476 0.6074653661176901
vt 0.02734375 0.7109375
vt 0.02734375 0.6640625
vt 0.04296875 0.6640625
vt 0.04296875 0.7109375
vt 0.015625 0.7109375
vt 0.015625 0.6640625
vt 0.02734375 0.6640625
vt 0.02734375 0.7109375
vt 0 0.7109375
vt 0 0.6640625
vt 0.015625 0.6640625
vt 0.015625 0.7109375
vt 0.16796875 0.7109375
vt 0.16796875 0.6640625
vt 0.18359375 0.6640625
vt 0.18359375 0.7109375
vt 0.15625 0.7109375
vt 0.15625 0.6640625
vt 0.16796875 0.6640625
vt 0.16796875 0.7109375
vt 0.140625 0.7109375
vt 0.140625 0.6640625
vt 0.15625 0.6640625
vt 0.15625 0.7109375
vt 0.07421875 0.7109375
vt 0.07421875 0.6640625
vt 0.08984375 0.6640625
vt 0.08984375 0.7109375
vt 0.0625 0.7109375
vt 0.0625 0.6640625
vt 0.07421875 0.6640625
vt 0.07421875 0.7109375
vt 0.046875 0.7109375
vt 0.046875 0.6640625
vt 0.0625 0.6640625
vt 0.0625 0.7109375
vt 0.12109375 0.7109375
vt 0.12109375 0.6640625
vt 0.13671875 0.6640625
vt 0.13671875 0.7109375
vt 0.109375 0.7109375
vt 0.109375 0.6640625
vt 0.12109375 0.6640625
vt 0.12109375 0.7109375
vt 0.09375 0.7109375
vt 0.09375 0.6640625
vt 0.109375 0.6640625
vt 0.109375 0.7109375
vt 0.09375 0.890625
vt 0.09375 0.7734375
vt 0.109375 0.7734375
vt 0.109375 0.890625
vt 0.109375 0.890625
vt 0.109375 0.7734375
vt 0.12109375 0.7734375
vt 0.12109375 0.890625
vt 0.12109375 0.890625
vt 0.12109375 0.7734375
vt 0.13671875 0.7734375
vt 0.13671875 0.890625
vt 0.046875 0.890625
vt 0.046875 0.7734375
vt 0.0625 0.7734375
vt 0.0625 0.890625
vt 0.0625 0.890625
vt 0.0625 0.7734375
vt 0.07421875 0.7734375
vt 0.07421875 0.890625
vt 0.07421875 0.890625
vt 0.07421875 0.7734375
vt 0.08984375 0.7734375
vt 0.08984375 0.890625
vt 0.140625 0.890625
vt 0.140625 0.7734375
vt 0.15625 0.7734375
vt 0.15625 0.890625
vt 0.15625 0.890625
vt 0.15625 0.7734375
vt 0.16796875 0.7734375
vt 0.16796875 0.890625
vt 0.16796875 0.890625
vt 0.16796875 0.7734375
vt 0.18359375 0.7734375
vt 0.18359375 0.890625
vt 0 0.890625
vt 0 0.7734375
vt 0.015625 0.7734375
vt 0.015625 0.890625
vt 0.015625 0.890625
vt 0.015625 0.7734375
vt 0.02734375 0.7734375
vt 0.02734375 0.890625
vt 0.02734375 0.890625
vt 0.02734375 0.7734375
vt 0.04296875 0.7734375
vt 0.04296875 0.890625
vt 0.09375 0.6640625
vt 0.09765625 0.61328125
vt 0.109375 0.61328125
vt 0.109375 0.6640625
vt 0.02734375 0.6640625
vt 0.02734375 0.61328125
vt 0.0390625 0.61328125
vt 0.04296875 0.6640625
vt 0.015625 0.6640625
vt 0.015625 0.61328125
vt 0.02734375 0.61328125
vt 0.02734375 0.6640625
vt 0 0.6640625
vt 0.00390625 0.61328125
vt 0.015625 0.61328125
vt 0.015625 0.6640625
vt 0.16796875 0.6640625
vt 0.16796875 0.61328125
vt 0.1796875 0.61328125
vt 0.18359375 0.6640625
vt 0.15625 0.6640625
vt 0.15625 0.61328125
vt 0.16796875 0.61328125
vt 0.16796875 0.6640625
vt 0.140625 0.6640625
vt 0.14453125 0.61328125
vt 0.15625 0.61328125
vt 0.15625 0.6640625
vt 0.07421875 0.6640625
vt 0.07421875 0.61328125
vt 0.0859375 0.61328125
vt 0.08984375 0.6640625
vt 0.0625 0.6640625
vt 0.0625 0.61328125
vt 0.07421875 0.61328125
vt 0.07421875 0.6640625
vt 0.046875 0.6640625
vt 0.05078125 0.61328125
vt 0.0625 0.61328125
vt 0.0625 0.6640625
vt 0.12109375 0.6640625
vt 0.12109375 0.61328125
vt 0.1328125 0.61328125
vt 0.13671875 0.6640625
vt 0.109375 0.6640625
vt 0.109375 0.61328125
vt 0.12109375 0.61328125
vt 0.12109375 0.6640625
vt 0.109375 0.61328125
vt 0.109375 0.55078125
vt 0.12109375 0.55078125
vt 0.12109375 0.61328125
vt 0.09765625 0.61328125
vt 0.1015625 0.55078125
vt 0.109375 0.55078125
vt 0.109375 0.61328125
vt 0.02734375 0.61328125
vt 0.02734375 0.55078125
vt 0.03515625 0.55078125
vt 0.0390625 0.61328125
vt 0.015625 0.61328125
vt 0.015625 0.55078125
vt 0.02734375 0.55078125
vt 0.02734375 0.61328125
vt 0.00390625 0.61328125
vt 0.0078125 0.55078125
vt 0.015625 0.55078125
vt 0.015625 0.61328125
vt 0.16796875 0.61328125
vt 0.16796875 0.55078125
vt 0.17578125 0.55078125
vt 0.1796875 0.61328125
vt 0.15625 0.61328125
vt 0.15625 0.55078125
vt 0.16796875 0.55078125
vt 0.16796875 0.61328125
vt 0.14453125 0.61328125
vt 0.1484375 0.55078125
vt 0.15625 0.55078125
vt 0.15625 0.61328125
vt 0.07421875 0.61328125
vt 0.07421875 0.55078125
vt 0.08203125 0.55078125
vt 0.0859375 0.61328125
vt 0.0625 0.61328125
vt 0.0625 0.55078125
vt 0.07421875 0.55078125
vt 0.07421875 0.61328125
vt 0.05078125 0.61328125
vt 0.0546875 0.55078125
vt 0.0625 0.55078125
vt 0.0625 0.61328125
vt 0.12109375 0.61328125
vt 0.12109375 0.55078125
vt 0.12890625 0.55078125
vt 0.1328125 0.61328125
vt 0.1640625 0.47265625
vt 0.16796875 0.55078125
vt 0.15625 0.55078125
vt 0.16015625 0.47265625
vt 0.16015625 0.47265625
vt 0.15625 0.55078125
vt 0.1484375 0.55078125
vt 0.15625 0.47265625
vt 0.07421875 0.47265625
vt 0.08203125 0.55078125
vt 0.07421875 0.55078125
vt 0.0703125 0.47265625
vt 0.0703125 0.47265625
vt 0.07421875 0.55078125
vt 0.0625 0.55078125
vt 0.06640625 0.47265625
vt 0.06640625 0.47265625
vt 0.0625 0.55078125
vt 0.0546875 0.55078125
vt 0.0625 0.47265625
vt 0.12109375 0.47265625
vt 0.12890625 0.55078125
vt 0.12109375 0.55078125
vt 0.1171875 0.47265625
vt 0.1171875 0.47265625
vt 0.12109375 0.55078125
vt 0.109375 0.55078125
vt 0.11328125 0.47265625
vt 0.11328125 0.47265625
vt 0.109375 0.55078125
vt 0.1015625 0.55078125
vt 0.109375 0.47265625
vt 0.02734375 0.47265625
vt 0.03515625 0.55078125
vt 0.02734375 0.55078125
vt 0.0234375 0.47265625
vt 0.0234375 0.47265625
vt 0.02734375 0.55078125
vt 0.015625 0.55078125
vt 0.01953125 0.47265625
vt 0.01953125 0.47265625
vt 0.015625 0.55078125
vt 0.0078125 0.55078125
vt 0.015625 0.47265625
vt 0.16796875 0.47265625
vt 0.17578125 0.55078125
vt 0.16796875 0.55078125
vt 0.1640625 0.47265625
vt 0.015625 0.890625
vt 0.015625 0.96875
vt 0 0.96875
vt 0 0.890625
vt 0.18359375 0.890625
vt 0.18359375 0.96875
vt 0.16796875 0.96875
vt 0.16796875 0.890625
vt 0.16796875 0.890625
vt 0.16796875 0.96875
vt 0.15625 0.96875
vt 0.15625 0.890625
vt 0.15625 0.890625
vt 0.15625 0.96875
vt 0.140625 0.96875
vt 0.140625 0.890625
vt 0.08984375 0.890625
vt 0.08984375 0.96875
vt 0.07421875 0.96875
vt 0.07421875 0.890625
vt 0.0625 0.890625
vt 0.0625 0.96875
vt 0.046875 0.96875
vt 0.046875 0.890625
vt 0.13671875 0.890625
vt 0.13671875 0.96875
vt 0.12109375 0.96875
vt 0.12109375 0.890625
vt 0.07421875 0.890625
vt 0.07421875 0.96875
vt 0.0625 0.96875
vt 0.0625 0.890625
vt 0.12109375 0.890625
vt 0.12109375 0.96875
vt 0.109375 0.96875
vt 0.109375 0.890625
vt 0.109375 0.890625
vt 0.109375 0.96875
vt 0.09375 0.96875
vt 0.09375 0.890625
vt 0.04296875 0.890625
vt 0.04296875 0.96875
vt 0.02734375 0.96875
vt 0.02734375 0.890625
vt 0.02734375 0.890625
vt 0.02734375 0.96875
vt 0.015625 0.96875
vt 0.015625 0.890625
vt 0.109375 0.96875
vt 0.109375 0.98828125
vt 0.09765625 0.98828125
vt 0.09375 0.96875
vt 0.12109375 0.96875
vt 0.12109375 0.98828125
vt 0.109375 0.98828125
vt 0.109375 0.96875
vt 0.13671875 0.96875
vt 0.1328125 0.98828125
vt 0.12109375 0.98828125
vt 0.12109375 0.96875
vt 0.0625 0.96875
vt 0.0625 0.98828125
vt 0.05078125 0.98828125
vt 0.046875 0.96875
vt 0.07421875 0.96875
vt 0.07421875 0.98828125
vt 0.0625 0.98828125
vt 0.0625 0.96875
vt 0.08984375 0.96875
vt 0.0859375 0.98828125
vt 0.07421875 0.98828125
vt 0.07421875 0.96875
vt 0.15625 0.96875
vt 0.15625 0.98828125
vt 0.14453125 0.98828125
vt 0.140625 0.96875
vt 0.16796875 0.96875
vt 0.16796875 0.98828125
vt 0.15625 0.98828125
vt 0.15625 0.96875
vt 0.18359375 0.96875
vt 0.1796875 0.98828125
vt 0.16796875 0.98828125
vt 0.16796875 0.96875
vt 0.015625 0.96875
vt 0.015625 0.98828125
vt 0.00390625 0.98828125
vt 0 0.96875
vt 0.02734375 0.96875
vt 0.02734375 0.98828125
vt 0.015625 0.98828125
vt 0.015625 0.96875
vt 0.04296875 0.96875
vt 0.0390625 0.98828125
vt 0.02734375 0.98828125
vt 0.02734375 0.96875
vt 0.109375 0.98828125
vt 0.109375 1
vt 0.1015625 1
vt 0.09765625 0.98828125
vt 0.12109375 0.98828125
vt 0.12109375 1
vt 0.109375 1
vt 0.109375 0.98828125
vt 0.1328125 0.98828125
vt 0.12890625 1
vt 0.12109375 1
vt 0.12109375 0.98828125
vt 0.0625 0.98828125
vt 0.0625 1
vt 0.0546875 1
vt 0.05078125 0.98828125
vt 0.07421875 0.98828125
vt 0.07421875 1
vt 0.0625 1
vt 0.0625 0.98828125
vt 0.0859375 0.98828125
vt 0.08203125 1
vt 0.07421875 1
vt 0.07421875 0.98828125
vt 0.15625 0.98828125
vt 0.15625 1
vt 0.1484375 1
vt 0.14453125 0.98828125
vt 0.16796875 0.98828125
vt 0.16796875 1
vt 0.15625 1
vt 0.15625 0.98828125
vt 0.1796875 0.98828125
vt 0.17578125 1
vt 0.16796875 1
vt 0.16796875 0.98828125
vt 0.015625 0.98828125
vt 0.015625 1
vt 0.0078125 1
vt 0.00390625 0.98828125
vt 0.02734375 0.98828125
vt 0.02734375 1
vt 0.015625 1
vt 0.015625 0.98828125
vt 0.0390625 0.98828125
vt 0.03515625 1
vt 0.02734375 1
vt 0.02734375 0.98828125
vt 0.20740192293276885 0.61254349111769
vt 0.20414700013589504 0.6243924494510233
vt 0.1960931549088956 0.6198568511416424
vt 0.204985769364669 0.6111828116248758
vt 0.204985769364669 0.6111828116248758
vt 0.1960931549088956 0.6198568511416424
vt 0.19144326519907587 0.612000964427071
vt 0.2035908024517231 0.6088260456105044
vt 0.2035908024517231 0.6088260456105044
vt 0.19144326519907587 0.612000964427071
vt 0.19144326519907587 0.602929767808309
vt 0.2035908024517231 0.6061046866248757
vt 0.2035908024517231 0.6061046866248757
vt 0.19144326519907587 0.602929767808309
vt 0.19609315490889556 0.5950738810937376
vt 0.204985769364669 0.6037479206105043
vt 0.204985769364669 0.6037479206105043
vt 0.19609315490889556 0.5950738810937376
vt 0.204147000135895 0.5905382827843566
vt 0.20740192293276882 0.60238724111769
vt 0.20740192293276882 0.60238724111769
vt 0.204147000135895 0.5905382827843566
vt 0.21344677955553443 0.5905382827843566
vt 0.21019185675866067 0.60238724111769
vt 0.21019185675866067 0.60238724111769
vt 0.21344677955553443 0.5905382827843566
vt 0.2215006247825339 0.5950738810937376
vt 0.2126080103267605 0.6037479206105043
vt 0.2126080103267605 0.6037479206105043
vt 0.2215006247825339 0.5950738810937376
vt 0.2261505144923536 0.602929767808309
vt 0.2140029772397064 0.6061046866248757
vt 0.2140029772397064 0.6061046866248757
vt 0.2261505144923536 0.602929767808309
vt 0.22615051449235363 0.612000964427071
vt 0.2140029772397064 0.6088260456105044
vt 0.2140029772397064 0.6088260456105044
vt 0.22615051449235363 0.612000964427071
vt 0.22150062478253393 0.6198568511416422
vt 0.2126080103267605 0.6111828116248758
vt 0.2126080103267605 0.6111828116248758
vt 0.22150062478253393 0.6198568511416422
vt 0.21344677955553445 0.6243924494510233
vt 0.21019185675866067 0.61254349111769
vt 0.21019185675866067 0.61254349111769
vt 0.21344677955553445 0.6243924494510233
vt 0.20414700013589504 0.6243924494510233
vt 0.20740192293276885 0.61254349111769
vt 0 1
vt 0 1
vt 0 1
vt 0 1
vt 0 1
vt 0 1
vt 0 1
vt 0.265625 0.734375
vt 0.2421875 0.7265625
vt 0.2421875 0.6796875
vt 0.265625 0.6796875
vt 0.1875 0.6796875
vt 0.2109375 0.6796875
vt 0.2109375 0.7265625
vt 0.1875 0.734375
vt 0.0234375 1
vt 0 1
vt 0 1
vt 0.0234375 1
vt 0.025824609375 1
vt 0.025824609375 1
vt 0.001519140625 1
vt 0 1
vt 0 1
vt 0 1
vt 0 1
vt 0 0.976301953125
vt 0 1
vt 0 1
vt 0 1
vt 0 1
vt 0 1
vt 0 1
vt 0 1
vt 0 1
vt 0.23828125 0.6796875
vt 0.23828125 0.7265625
vt 0.21484375 0.734375
vt 0.21484375 0.6796875
vt 0.26953125 0.7265625
vt 0.26953125 0.6796875
vt 0.29296875 0.6796875
vt 0.29296875 0.734375
vt 0.025824609375 1
vt 0.001519140625 1
vt 0.025824609375 1
vt 0.001519140625 1
vt 0.001519140625 1
vt 0.001519140625 1
vt 0.025824609375 1
vt 0.24609375 0.64453125
vt 0.24609375 0.65234375
vt 0.24609375 0.64453125
vt 0.24609375 0.65234375
vt 0.23046875 0.65234375
vt 0.23046875 0.64453125
vt 0.23046875 0.65234375
vt 0.23046875 0.64453125
vt 0.24609375 0.65234375
vt 0.24609375 0.64453125
vt 0.23046875 0.64453125
vt 0.23046875 0.65234375
vt 0.24609375 0.64453125
vt 0.24609375 0.65234375
vt 0.23046875 0.65234375
vt 0.23046875 0.64453125
vt 0.24609375 0.65234375
vt 0.23046875 0.65234375
vt 0.24609375 0.65234375
vt 0.23046875 0.65234375
vt 0.23046875 0.64453125
vt 0.24609375 0.64453125
vt 0.23046875 0.64453125
vt 0.24609375 0.64453125
vt 0 1
vt 0 1
vt 0 1
vt 0 1
vt 0 1
vt 0 1
vt 0 1
vt 0 1
vt 0.34375 0.6875
vt 0.34375 0.6953125
vt 0.328125 0.6953125
vt 0.328125 0.6875
vt 0.328125 0.6953125
vt 0.328125 0.6875
vt 0.34375 0.6875
vt 0.34375 0.6953125
vt 0.01475703125 1
vt 0.0008679687499999998 1
vt 0.01475703125 1
vt 0.0008679687499999998 1
vt 0.0008679687499999998 1
vt 0.01475703125 1
vt 0.0008679687499999998 1
vt 0.01475703125 1
vt 0.2734375 0.62890625
vt 0.265625 0.62890625
vt 0.265625 0.640625
vt 0.28125 0.6015625
vt 0.28125 0.61328125
vt 0.2734375 0.61328125
vt 0.265625 0.6015625
vt 0.265625 0.61328125
vt 0.2734375 0.61328125
vt 0.2734375 0.62890625
vt 0.2734375 0.62109375
vt 0.26953125 0.62109375
vt 0.265625 0.62890625
vt 0.2734375 0.62890625
vt 0.28125 0.62890625
vt 0.28125 0.640625
vt 0.27734375 0.62109375
vt 0.2734375 0.62109375
vt 0.2734375 0.61328125
vt 0.28125 0.61328125
vt 0.26953125 0.62109375
vt 0.2734375 0.62109375
vt 0.2734375 0.61328125
vt 0.265625 0.61328125
vt 0.2734375 0.62890625
vt 0.2734375 0.62109375
vt 0.27734375 0.62109375
vt 0.28125 0.62890625
vt 0.26171875 0.61328125
vt 0.25390625 0.61328125
vt 0.26171875 0.6015625
vt 0.24609375 0.62890625
vt 0.24609375 0.640625
vt 0.25390625 0.62890625
vt 0.26171875 0.62890625
vt 0.26171875 0.640625
vt 0.25390625 0.62890625
vt 0.2578125 0.62109375
vt 0.25390625 0.62109375
vt 0.25390625 0.61328125
vt 0.26171875 0.61328125
vt 0.24609375 0.61328125
vt 0.25390625 0.61328125
vt 0.24609375 0.6015625
vt 0.25390625 0.62890625
vt 0.25390625 0.62109375
vt 0.25 0.62109375
vt 0.24609375 0.62890625
vt 0.25390625 0.62890625
vt 0.25390625 0.62109375
vt 0.2578125 0.62109375
vt 0.26171875 0.62890625
vt 0.25 0.62109375
vt 0.25390625 0.62109375
vt 0.25390625 0.61328125
vt 0.24609375 0.61328125
vt 0.29296875 0.61328125
vt 0.28515625 0.61328125
vt 0.28515625 0.6015625
vt 0.30078125 0.640625
vt 0.30078125 0.62890625
vt 0.29296875 0.62890625
vt 0.28515625 0.640625
vt 0.28515625 0.62890625
vt 0.29296875 0.62890625
vt 0.29296875 0.62890625
vt 0.29296875 0.62109375
vt 0.296875 0.62109375
vt 0.30078125 0.62890625
vt 0.29296875 0.61328125
vt 0.30078125 0.61328125
vt 0.30078125 0.6015625
vt 0.2890625 0.62109375
vt 0.29296875 0.62109375
vt 0.29296875 0.61328125
vt 0.28515625 0.61328125
vt 0.2890625 0.62109375
vt 0.29296875 0.62109375
vt 0.29296875 0.62890625
vt 0.28515625 0.62890625
vt 0.29296875 0.61328125
vt 0.29296875 0.62109375
vt 0.296875 0.62109375
vt 0.30078125 0.61328125
vt 0.19140625 0.91015625
vt 0.19921875 0.91015625
vt 0.19140625 0.921875
vt 0.20703125 0.91015625
vt 0.20703125 0.921875
vt 0.19921875 0.91015625
vt 0.19140625 0.89453125
vt 0.19140625 0.8828125
vt 0.19921875 0.89453125
vt 0.1953125 0.90234375
vt 0.19921875 0.90234375
vt 0.19921875 0.91015625
vt 0.19140625 0.91015625
vt 0.20703125 0.89453125
vt 0.19921875 0.89453125
vt 0.20703125 0.8828125
vt 0.19921875 0.91015625
vt 0.19921875 0.90234375
vt 0.203125 0.90234375
vt 0.20703125 0.91015625
vt 0.19921875 0.89453125
vt 0.19921875 0.90234375
vt 0.1953125 0.90234375
vt 0.19140625 0.89453125
vt 0.203125 0.90234375
vt 0.19921875 0.90234375
vt 0.19921875 0.89453125
vt 0.20703125 0.89453125
vt 0.30859375 0.95703125
vt 0.28515625 0.94921875
vt 0.28515625 0.92578125
vt 0.30859375 0.92578125
vt 0.28515625 0.890625
vt 0.30859375 0.890625
vt 0.30859375 0.9140625
vt 0.28515625 0.921875
vt 0.2109375 0.82421875
vt 0.2109375 0.84765625
vt 0.1875 0.85546875
vt 0.1875 0.82421875
vt 0.265625 0.98046875
vt 0.265625 0.95703125
vt 0.2890625 0.95703125
vt 0.2890625 0.98828125
vn -9.296162435496776e-16 -5.551115123125782e-15 -1
vn -0.4905369335242753 0.8714204019005986 -4.381343870125546e-15
vn -0.17514165459174366 0.3111325582303447 0.9340888244893565
vn -9.296162435496776e-16 -5.551115123125782e-15 -1
vn -0.8604569574149822 0.5095231343483351 -2.0285268121751925e-15
vn -0.3038387135733258 0.17991934674030255 0.9355806030495979
vn -9.296162435496776e-16 -5.551115123125782e-15 -1
vn -1 4.855270336996175e-16 9.296162435496747e-16
vn -0.3511234415883735 5.368150980884289e-15 0.9363291775690513
vn -9.296162435496776e-16 -5.551115123125782e-15 -1
vn -0.8604569574149826 -0.5095231343483344 3.62831634115179e-15
vn -0.3038387135733261 -0.17991934674029192 0.9355806030496
vn -9.296162435496776e-16 -5.551115123125782e-15 -1
vn -0.4905369335242767 -0.8714204019005979 5.293366073055972e-15
vn -0.175141654591744 -0.3111325582303341 0.9340888244893598
vn -9.296162435496776e-16 -5.551115123125782e-15 -1
vn -7.34131557837645e-16 -1 5.5511151231257835e-15
vn 4.702496308673313e-16 -0.3589790793088463 0.9333456062030683
vn -9.296162435496776e-16 -5.551115123125782e-15 -1
vn 0.4905369335242749 -0.8714204019005988 4.381343870125548e-15
vn 0.1751416545917452 -0.3111325582303343 0.9340888244893595
vn -9.296162435496776e-16 -5.551115123125782e-15 -1
vn 0.8604569574149823 -0.509523134348335 2.0285268121751913e-15
vn 0.3038387135733277 -0.17991934674029214 0.9355806030495994
vn -9.296162435496776e-16 -5.551115123125782e-15 -1
vn 1 -4.855270336996175e-16 -9.296162435496747e-16
vn 0.3511234415883752 5.0271911347706814e-15 0.9363291775690509
vn -9.296162435496776e-16 -5.551115123125782e-15 -1
vn 0.860456957414983 0.5095231343483337 -3.628316341151787e-15
vn 0.303838713573328 0.17991934674030216 0.9355806030495974
vn -9.296162435496776e-16 -5.551115123125782e-15 -1
vn 0.49053693352427613 0.8714204019005981 -5.293366073055973e-15
vn 0.1751416545917456 0.3111325582303446 0.9340888244893562
vn -9.296162435496776e-16 -5.551115123125782e-15 -1
vn 4.855270336996123e-16 1 -5.5511151231257835e-15
vn 1.0419472839091357e-15 0.35897907930885664 0.9333456062030643
vn -0.4905369335242754 0.8714204019005987 -4.381343870125546e-15
vn 4.855270336996123e-16 1 -5.5511151231257835e-15
vn 0.49053693352427613 0.8714204019005981 -5.293366073055973e-15
vn 0.8604569574149832 0.5095231343483337 -3.628316341151787e-15
vn 1 -4.855270336996175e-16 -9.296162435496747e-16
vn 0.8604569574149823 -0.509523134348335 2.0285268121751913e-15
vn 0.4905369335242749 -0.8714204019005988 4.381343870125548e-15
vn -7.34131557837645e-16 -1 5.5511151231257835e-15
vn -0.4905369335242767 -0.8714204019005978 5.293366073055972e-15
vn -0.8604569574149826 -0.5095231343483343 3.6283163411517894e-15
vn -1 4.855270336996175e-16 9.296162435496747e-16
vn -0.8604569574149823 0.5095231343483351 -2.028526812175192e-15
vn -0.8604569574149823 0.509523134348335 -2.0285268121751913e-15
vn -1 4.855270336996175e-16 9.296162435496747e-16
vn -0.8604569574149827 -0.5095231343483344 3.62831634115179e-15
vn -0.4905369335242767 -0.8714204019005979 5.293366073055972e-15
vn -7.34131557837645e-16 -1 5.5511151231257835e-15
vn 0.4905369335242749 -0.8714204019005988 4.381343870125548e-15
vn 0.8604569574149823 -0.509523134348335 2.0285268121751913e-15
vn 1 -4.855270336996175e-16 -9.296162435496747e-16
vn 0.860456957414983 0.5095231343483337 -3.628316341151787e-15
vn 0.49053693352427613 0.8714204019005981 -5.293366073055973e-15
vn 4.855270336996123e-16 1 -5.5511151231257835e-15
vn -0.4905369335242753 0.8714204019005986 -4.381343870125546e-15
vn -0.8591028238543131 0.5087212785783135 -0.05608028857977755
vn -0.48978420902083836 0.8700832151477211 -0.05537713708775674
vn 4.336294295284145e-16 0.9984844073465925 -0.05503533670037809
vn 0.4897842090208391 0.8700832151477208 -0.0553771370877577
vn 0.859102823854314 0.5087212785783118 -0.05608028857977914
vn 0.9984058763360638 -7.980694144732519e-16 -0.056442059650731104
vn 0.8591028238543134 -0.5087212785783138 -0.05608028857977347
vn 0.489784209020838 -0.8700832151477219 -0.05537713708774798
vn -7.951170990965664e-16 -0.9984844073465932 -0.055035336700367005
vn -0.4897842090208396 -0.8700832151477211 -0.055377137087747115
vn -0.8591028238543136 -0.5087212785783135 -0.05608028857977184
vn -0.9984058763360638 1.7143667265818075e-16 -0.05644205965072918
vn -0.9951915475909121 -6.052745606935755e-17 -0.09794786165917883
vn -0.8563721498580206 0.5071042987148995 -0.0973240523838891
vn -0.4882660350032721 0.867386236139356 -0.09611137507176247
vn 3.9450827391054255e-16 0.9954273390312297 -0.09552179180273623
vn 0.4882660350032727 0.8673862361393556 -0.09611137507176341
vn 0.8563721498580213 0.5071042987148981 -0.09732405238389064
vn 0.9951915475909119 -1.0269122561988518e-15 -0.09794786165918068
vn 0.8563721498580209 -0.5071042987149 -0.09732405238388507
vn 0.4882660350032718 -0.8673862361393572 -0.09611137507175375
vn -9.520429803005115e-16 -0.9954273390312308 -0.0955217918027252
vn -0.4882660350032732 -0.8673862361393564 -0.09611137507175282
vn -0.8563721498580211 -0.5071042987148995 -0.09732405238388346
vn 0.9877048039969093 -1.3473658964172667e-15 -0.15633048378811773
vn 0.8500106233752436 -0.5033372945843482 -0.15534963157258794
vn 0.4847278209749168 -0.8611007320725229 -0.15344206984094724
vn -1.0895573601044957e-15 -0.9883012688850662 -0.1525142679232606
vn -0.48472782097491846 -0.8611007320725221 -0.15344206984094633
vn -0.8500106233752442 -0.503337294584348 -0.15534963157258647
vn -0.9877048039969097 -3.8825112910630396e-16 -0.15633048378811598
vn -0.8500106233752436 0.5033372945843474 -0.15534963157259216
vn -0.4847278209749174 0.8611007320725212 -0.15344206984095596
vn 3.3806724264877305e-16 0.9883012688850646 -0.1525142679232716
vn 0.48472782097491796 0.8611007320725208 -0.1534420698409568
vn 0.8500106233752441 0.5033372945843458 -0.1553496315725936
vn 0.4905369335242762 0.8714204019005983 -5.293366073055974e-15
vn 0.8604569574149831 0.5095231343483337 -3.628316341151787e-15
vn 1 -4.855270336996175e-16 -9.296162435496747e-16
vn 0.8604569574149823 -0.5095231343483351 2.028526812175192e-15
vn 0.4905369335242749 -0.8714204019005988 4.381343870125548e-15
vn -0.4905369335242767 -0.8714204019005979 5.293366073055972e-15
vn -0.8604569574149827 -0.5095231343483345 3.628316341151791e-15
vn -7.34131557837645e-16 -1 5.5511151231257835e-15
vn -1 4.855270336996175e-16 9.296162435496747e-16
vn -0.8604569574149822 0.5095231343483351 -2.0285268121751925e-15
vn -0.4905369335242753 0.8714204019005987 -4.381343870125547e-15
vn 4.855270336996123e-16 1 -5.5511151231257835e-15
vn -0.847340057352468 0.5017559079052327 0.17394204807381142
vn -0.9845625077859065 1.4496619052985689e-15 0.17503333471749546
vn -0.8473400573524688 -0.5017559079052293 0.17394204807381683
vn -0.4832419015509682 -0.8584610521358695 0.17181934277368266
vn -6.022645275136388e-16 -0.9853080203996402 0.17078672353594312
vn 0.4832419015509669 -0.8584610521358705 0.17181934277368174
vn 0.8473400573524686 -0.50175590790523 0.17394204807381575
vn 0.9845625077859068 4.935984775042734e-16 0.1750333347174937
vn 0.8473400573524691 0.5017559079052315 0.17394204807381
vn 0.48324190155096836 0.8584610521358718 0.17181934277367222
vn 6.371597928067104e-16 0.9853080203996419 0.17078672353593222
vn -0.48324190155096713 0.8584610521358721 0.17181934277367322
vn -0.7603066291945199 0.4502187046483245 0.46822745283425243
vn -0.8823529411764702 3.040695675911795e-15 0.4705882352941184
vn -0.7603066291945204 -0.45021870464831776 0.4682274528342575
vn -0.4346348941572603 -0.7721125327412244 0.4636105537677492
vn -3.3273590978069283e-16 -0.8872168012345928 0.4613527366419944
vn 0.4346348941572598 -0.7721125327412252 0.46361055376774835
vn 0.7603066291945211 -0.4502187046483186 0.46822745283425604
vn 0.8823529411764711 2.183883263500705e-15 0.4705882352941167
vn 0.7603066291945213 0.4502187046483233 0.46822745283425105
vn 0.4346348941572608 0.7721125327412296 0.4636105537677398
vn 8.596487397403814e-16 0.8872168012345978 0.4613527366419845
vn -0.4346348941572593 0.77211253274123 0.4636105537677405
vn -0.3108291333647548 0.5521762579080659 0.7736191763745008
vn -0.541093974842759 0.32041102772549396 0.7775307606138528
vn -0.6263911083160476 4.6312736532992894e-15 0.7795089347933053
vn -0.5410939748427595 -0.32041102772548424 0.7775307606138565
vn -0.31082913336475526 -0.5521762579080565 0.7736191763745071
vn 2.1883762598506063e-16 -0.6360044449233925 0.7716853931737258
vn 0.31082913336475576 -0.5521762579080571 0.7736191763745065
vn 0.5410939748427608 -0.32041102772548474 0.7775307606138553
vn 0.6263911083160492 4.023014019786276e-15 0.7795089347933042
vn 0.541093974842761 0.3204110277254931 0.777530760613852
vn 0.31082913336475676 0.5521762579080656 0.7736191763745002
vn 1.0261686279677368e-15 0.6360044449234017 0.7716853931737182
vn 0 0 0
vn 0 0 0
vn -1.8789465557786737e-17 1 -7.401486830834382e-16
vn 1.8789465557781313e-17 -1 7.40148683083439e-16
vn 0 0 0
vn 0 0 0
vn 0 0 0
vn 0 0 0
vn 0 0 0
vn 0 0 0
vn -1.8789465557783877e-17 1 -7.401486830834382e-16
vn 1.87894655577894e-17 -1 7.401486830834382e-16
vn 0 0 0
vn 0 0 0
vn 0 0 0
vn 0 0 0
vn 1.2138175842492964e-17 1 -7.40148683083428e-16
vn -1.2138175842492767e-17 -1 7.40148683083428e-16
vn 0 0 0
vn 0 0 0
vn 0 0 0
vn 0 0 0
vn 1.2138175842481821e-17 1 -7.40148683083428e-16
vn -1.2138175842489118e-17 -1 7.40148683083428e-16
vn 0 0 0
vn 0 0 0
vn -0.6981001361295385 0.7160001396200423 -7.962145328583244e-16
vn 0.6981001361295384 -0.7160001396200423 7.582732411956783e-16
vn -0.6981001361295385 0.7160001396200423 -6.95037755091272e-16
vn -0.6981001361295385 0.7160001396200423 -9.71942392202503e-16
vn 0.6981001361295385 -0.7160001396200424 7.962145328583282e-16
vn 0.6981001361295384 -0.7160001396200424 9.47166691309533e-16
vn -0.6981001361295385 0.7160001396200424 -6.003068788079415e-16
vn 0.6981001361295385 -0.7160001396200424 6.003068788079415e-16
vn -0.698100136129543 0.7160001396200377 -8.97391310625355e-16
vn 0.698100136129543 -0.7160001396200377 8.97391310625355e-16
vn -0.698100136129543 0.7160001396200378 -9.353326022880012e-16
vn -0.6981001361295431 0.7160001396200376 -7.489610841657394e-16
vn 0.698100136129543 -0.7160001396200378 9.353326022880012e-16
vn 0.6981001361295431 -0.7160001396200377 7.985124859516812e-16
vn -0.6981001361295431 0.7160001396200376 -9.843302426489515e-16
vn 0.6981001361295431 -0.7160001396200377 9.471666913094947e-16
vn 0.6981001361295387 0.716000139620042 -2.7296298539183185e-16
vn -0.6981001361295387 -0.7160001396200419 2.9825717983359606e-16
vn 0.6981001361295387 0.7160001396200419 -3.614926659380201e-16
vn 0.6981001361295387 0.716000139620042 -2.38265371319425e-16
vn -0.6981001361295387 -0.716000139620042 2.729629853918476e-16
vn -0.6981001361295387 -0.7160001396200419 2.6304107221239535e-16
vn 0.6981001361295387 0.716000139620042 -2.6304107221237647e-16
vn -0.6981001361295387 -0.716000139620042 2.5065322176589166e-16
vn 0.6981001361295369 0.7160001396200438 -1.1962010825162413e-15
vn -0.6981001361295369 -0.7160001396200438 1.1962010825162413e-15
vn 0.6981001361295368 0.7160001396200437 -1.3606133463877026e-15
vn 0.698100136129537 0.7160001396200437 -1.3531719115031124e-15
vn -0.6981001361295368 -0.7160001396200437 1.3606133463877026e-15
vn -0.698100136129537 -0.7160001396200435 1.2664569583777133e-15
vn 0.6981001361295371 0.7160001396200436 -1.2664569583777287e-15
vn -0.698100136129537 -0.7160001396200436 1.2540691079312427e-15
vn -1 -2.973044143454253e-15 1.0329069372774515e-16
vn 1 2.9730441434542542e-15 -1.0329069372774495e-16
vn -1 2.948145321213247e-15 1.0329069372773949e-16
vn 1 -2.948145321213248e-15 -1.0329069372773919e-16
usemtl m_7688e6d8-7089-f4ab-2f3a-285dd6de27cd
f 4/1/1 2/2/1 1/3/1
f 26/4/2 38/5/2 49/6/2 27/7/2
f 98/8/3 97/9/3 88/10/3
f 6/11/4 4/12/4 1/13/4
f 37/14/5 39/15/5 38/16/5 26/17/5
f 97/18/6 96/19/6 88/20/6
f 8/21/7 6/22/7 1/23/7
f 36/24/8 40/25/8 39/26/8 37/27/8
f 96/28/9 95/29/9 88/30/9
f 10/31/10 8/32/10 1/33/10
f 35/34/11 41/35/11 40/36/11 36/37/11
f 95/38/12 93/39/12 88/40/12
f 12/41/13 10/42/13 1/43/13
f 34/44/14 42/45/14 41/46/14 35/47/14
f 93/48/15 94/49/15 88/50/15
f 14/51/16 12/52/16 1/53/16
f 33/54/17 43/55/17 42/56/17 34/57/17
f 94/58/18 92/59/18 88/60/18
f 16/61/19 14/62/19 1/63/19
f 32/64/20 44/65/20 43/66/20 33/67/20
f 92/68/21 91/69/21 88/70/21
f 18/71/22 16/72/22 1/73/22
f 31/74/23 45/75/23 44/76/23 32/77/23
f 91/78/24 90/79/24 88/80/24
f 20/81/25 18/82/25 1/83/25
f 30/84/26 46/85/26 45/86/26 31/87/26
f 90/88/27 89/89/27 88/90/27
f 22/91/28 20/92/28 1/93/28
f 29/94/29 47/95/29 46/96/29 30/97/29
f 89/98/30 86/99/30 88/100/30
f 24/101/31 22/102/31 1/103/31
f 28/104/32 48/105/32 47/106/32 29/107/32
f 86/108/33 87/109/33 88/110/33
f 2/111/34 24/112/34 1/113/34
f 27/114/35 49/115/35 48/116/35 28/117/35
f 87/118/36 98/119/36 88/120/36
f 27/121/37 52/122/37 51/123/37 26/124/37
f 28/125/38 53/126/38 52/127/38 27/128/38
f 29/129/39 54/130/39 53/131/39 28/132/39
f 30/133/40 55/134/40 54/135/40 29/136/40
f 31/137/41 56/138/41 55/139/41 30/140/41
f 32/141/42 57/142/42 56/143/42 31/144/42
f 33/145/43 58/146/43 57/147/43 32/148/43
f 34/149/44 59/150/44 58/151/44 33/152/44
f 35/153/45 60/154/45 59/155/45 34/156/45
f 36/157/46 61/158/46 60/159/46 35/160/46
f 37/161/47 50/162/47 61/163/47 36/164/47
f 26/165/48 51/166/48 50/167/48 37/168/48
f 5/169/49 38/170/49 39/171/49 7/172/49
f 7/173/50 39/174/50 40/175/50 9/176/50
f 9/177/51 40/178/51 41/179/51 11/180/51
f 11/181/52 41/182/52 42/183/52 13/184/52
f 13/185/53 42/186/53 43/187/53 15/188/53
f 15/189/54 43/190/54 44/191/54 17/192/54
f 17/193/55 44/194/55 45/195/55 19/196/55
f 19/197/56 45/198/56 46/199/56 21/200/56
f 21/201/57 46/202/57 47/203/57 23/204/57
f 23/205/58 47/206/58 48/207/58 25/208/58
f 25/209/59 48/210/59 49/211/59 3/212/59
f 3/213/60 49/214/60 38/215/60 5/216/60
f 51/217/61 64/218/61 63/219/61 50/220/61
f 52/221/62 65/222/62 64/223/62 51/224/62
f 53/225/63 66/226/63 65/227/63 52/228/63
f 54/229/64 67/230/64 66/231/64 53/232/64
f 55/233/65 68/234/65 67/235/65 54/236/65
f 56/237/66 69/238/66 68/239/66 55/240/66
f 57/241/67 70/242/67 69/243/67 56/244/67
f 58/245/68 71/246/68 70/247/68 57/248/68
f 59/249/69 72/250/69 71/251/69 58/252/69
f 60/253/70 73/254/70 72/255/70 59/256/70
f 61/257/71 62/258/71 73/259/71 60/260/71
f 50/261/72 63/262/72 62/263/72 61/264/72
f 63/265/73 81/266/73 80/267/73 62/268/73
f 64/269/74 82/270/74 81/271/74 63/272/74
f 65/273/75 83/274/75 82/275/75 64/276/75
f 66/277/76 84/278/76 83/279/76 65/280/76
f 67/281/77 85/282/77 84/283/77 66/284/77
f 68/285/78 74/286/78 85/287/78 67/288/78
f 69/289/79 75/290/79 74/291/79 68/292/79
f 70/293/80 76/294/80 75/295/80 69/296/80
f 71/297/81 77/298/81 76/299/81 70/300/81
f 72/301/82 78/302/82 77/303/82 71/304/82
f 73/305/83 79/306/83 78/307/83 72/308/83
f 62/309/84 80/310/84 79/311/84 73/312/84
f 20/313/85 74/314/85 75/315/85 18/316/85
f 18/317/86 75/318/86 76/319/86 16/320/86
f 16/321/87 76/322/87 77/323/87 14/324/87
f 14/325/88 77/326/88 78/327/88 12/328/88
f 12/329/89 78/330/89 79/331/89 10/332/89
f 10/333/90 79/334/90 80/335/90 8/336/90
f 8/337/91 80/338/91 81/339/91 6/340/91
f 6/341/92 81/342/92 82/343/92 4/344/92
f 4/345/93 82/346/93 83/347/93 2/348/93
f 2/349/94 83/350/94 84/351/94 24/352/94
f 24/353/95 84/354/95 85/355/95 22/356/95
f 22/357/96 85/358/96 74/359/96 20/360/96
f 25/361/97 109/362/97 108/363/97 23/364/97
f 23/365/98 108/366/98 107/367/98 21/368/98
f 21/369/99 107/370/99 106/371/99 19/372/99
f 19/373/100 106/374/100 105/375/100 17/376/100
f 17/377/101 105/378/101 104/379/101 15/380/101
f 13/381/102 103/382/102 102/383/102 11/384/102
f 11/385/103 102/386/103 101/387/103 9/388/103
f 15/389/104 104/390/104 103/391/104 13/392/104
f 9/393/105 101/394/105 100/395/105 7/396/105
f 7/397/106 100/398/106 99/399/106 5/400/106
f 5/401/107 99/402/107 110/403/107 3/404/107
f 3/405/108 110/406/108 109/407/108 25/408/108
f 100/409/109 112/410/109 111/411/109 99/412/109
f 101/413/110 113/414/110 112/415/110 100/416/110
f 102/417/111 114/418/111 113/419/111 101/420/111
f 103/421/112 115/422/112 114/423/112 102/424/112
f 104/425/113 116/426/113 115/427/113 103/428/113
f 105/429/114 117/430/114 116/431/114 104/432/114
f 106/433/115 118/434/115 117/435/115 105/436/115
f 107/437/116 119/438/116 118/439/116 106/440/116
f 108/441/117 120/442/117 119/443/117 107/444/117
f 109/445/118 121/446/118 120/447/118 108/448/118
f 110/449/119 122/450/119 121/451/119 109/452/119
f 99/453/120 111/454/120 122/455/120 110/456/120
f 112/457/121 125/458/121 124/459/121 111/460/121
f 113/461/122 126/462/122 125/463/122 112/464/122
f 114/465/123 127/466/123 126/467/123 113/468/123
f 115/469/124 128/470/124 127/471/124 114/472/124
f 116/473/125 129/474/125 128/475/125 115/476/125
f 117/477/126 130/478/126 129/479/126 116/480/126
f 118/481/127 131/482/127 130/483/127 117/484/127
f 119/485/128 132/486/128 131/487/128 118/488/128
f 120/489/129 133/490/129 132/491/129 119/492/129
f 121/493/130 134/494/130 133/495/130 120/496/130
f 122/497/131 123/498/131 134/499/131 121/500/131
f 111/501/132 124/502/132 123/503/132 122/504/132
f 98/505/133 123/506/133 124/507/133 97/508/133
f 97/509/134 124/510/134 125/511/134 96/512/134
f 96/513/135 125/514/135 126/515/135 95/516/135
f 95/517/136 126/518/136 127/519/136 93/520/136
f 93/521/137 127/522/137 128/523/137 94/524/137
f 94/525/138 128/526/138 129/527/138 92/528/138
f 92/529/139 129/530/139 130/531/139 91/532/139
f 91/533/140 130/534/140 131/535/140 90/536/140
f 90/537/141 131/538/141 132/539/141 89/540/141
f 89/541/142 132/542/142 133/543/142 86/544/142
f 86/545/143 133/546/143 134/547/143 87/548/143
f 87/549/144 134/550/144 123/551/144 98/552/144
f 137/553/145 135/554/145 136/555/145
f 139/556/146 138/557/146 140/558/146 141/559/146
f 139/560/147 137/561/147 135/562/147 138/563/147
f 140/564/148 136/565/148 137/566/148 141/567/148
f 138/568/149 135/569/149 136/570/149 140/571/149
f 141/572/150 139/573/150 137/574/150
f 144/575/151 143/576/151 145/577/151
f 143/578/152 142/579/152 145/580/152
f 146/581/153 148/582/153 147/583/153
f 149/584/154 150/585/154 151/586/154 152/587/154
f 146/588/155 148/589/155 150/590/155 149/591/155
f 148/592/156 147/593/156 151/594/156 152/595/156
f 146/596/157 149/597/157 147/598/157 151/599/157
f 150/600/158 152/601/158 148/602/158
f 154/603/159 153/604/159 156/605/159 155/606/159
f 157/607/160 158/608/160 159/609/160 160/610/160
f 153/611/161 154/612/161 158/613/161 157/614/161
f 156/615/162 155/616/162 159/617/162 160/618/162
f 153/619/163 157/620/163 155/621/163 159/622/163
f 158/623/164 154/624/164 160/625/164 156/626/164
f 162/627/165 161/628/165 164/629/165 163/630/165
f 165/631/166 166/632/166 167/633/166 168/634/166
f 161/635/167 162/636/167 166/637/167 165/638/167
f 164/639/168 163/640/168 167/641/168 168/642/168
f 161/643/169 165/644/169 163/645/169 167/646/169
f 166/647/170 162/648/170 168/649/170 164/650/170
f 173/651/171 172/652/171 175/653/171
f 175/654/172 172/655/172 173/656/172
f 169/657/173 170/658/173 171/659/173
f 173/660/174 174/661/174 176/662/174 172/663/174
f 171/664/175 170/665/175 169/666/175
f 176/667/176 174/668/176 173/669/176 172/670/176
f 176/671/177 174/672/177 171/673/177 170/674/177
f 171/675/178 174/676/178 176/677/178 170/678/178
f 180/679/179 181/680/179 183/681/179
f 180/682/180 183/683/180 181/684/180
f 178/685/181 177/686/181 179/687/181
f 184/688/182 182/689/182 181/690/182 180/691/182
f 178/692/183 179/693/183 177/694/183
f 181/695/184 182/696/184 184/697/184 180/698/184
f 179/699/185 182/700/185 184/701/185 178/702/185
f 184/703/186 182/704/186 179/705/186 178/706/186
f 189/707/187 188/708/187 191/709/187
f 191/710/188 188/711/188 189/712/188
f 185/713/189 186/714/189 187/715/189
f 189/716/190 190/717/190 192/718/190 188/719/190
f 187/720/191 186/721/191 185/722/191
f 192/723/192 190/724/192 189/725/192 188/726/192
f 192/727/193 190/728/193 187/729/193 186/730/193
f 187/731/194 190/732/194 192/733/194 186/734/194
f 196/735/195 197/736/195 199/737/195
f 196/738/196 199/739/196 197/740/196
f 194/741/197 193/742/197 195/743/197
f 200/744/198 198/745/198 197/746/198 196/747/198
f 194/748/199 195/749/199 193/750/199
f 197/751/200 198/752/200 200/753/200 196/754/200
f 195/755/201 198/756/201 200/757/201 194/758/201
f 200/759/202 198/760/202 195/761/202 194/762/202
f 204/763/203 202/764/203 201/765/203 203/766/203
f 205/767/204 201/768/204 202/769/204 204/770/204
f 206/771/205 207/772/205 209/773/205 208/774/205
f 207/775/206 206/776/206 210/777/206 209/778/206
o prop1
v -0.009560136971249814 -0.08306961021960851 -3.8125
v 0.05748987570876497 0.06071960599293691 -3.8125
v -0.05748987570876497 -0.06071960599293691 -3.8125
v 0.00956013697124982 0.08306961021960851 -3.8125
v 0.05748987570876497 0.06071960599293691 -3.75
v 0.00956013697124982 0.08306961021960851 -3.75
v -0.009560136971249814 -0.08306961021960851 -3.75
v -0.05748987570876497 -0.06071960599293691 -3.75
v -0.035139871482093375 -0.012789867255421777 -3.8125
v 0.01278986725542178 -0.035139871482093375 -3.8125
v -0.012789867255421776 0.03513987148209337 -3.8125
v 0.035139871482093375 0.01278986725542177 -3.8125
v 0.06071960599293691 -0.05748987570876497 -3.8125
v 0.08306961021960851 -0.009560136971249824 -3.8125
v 0.06071960599293691 -0.05748987570876497 -3.75
v 0.08306961021960851 -0.009560136971249824 -3.75
v 0.01278986725542178 -0.035139871482093375 -3.75
v 0.035139871482093375 0.01278986725542177 -3.75
v -0.035139871482093375 -0.012789867255421777 -3.75
v -0.012789867255421776 0.03513987148209337 -3.75
v -0.08306961021960851 0.009560136971249817 -3.75
v -0.060719605992936916 0.05748987570876496 -3.75
v -0.08306961021960851 0.009560136971249817 -3.8125
v -0.060719605992936916 0.05748987570876496 -3.8125
v 0.28057023460900454 -0.21169698440067078 -3.7453734282157725
v 0.06157025237799138 -0.05566565864910919 -3.7692911427385907
v 0.3425163689786924 -0.07885307054605994 -3.8171265717842267
v 0.08221896383455403 -0.011384354030905566 -3.7932088572614084
v 0.07885307054606024 0.3425163689786923 -3.8171265717842267
v 0.011384354030905652 0.082218963834554 -3.7932088572614084
v 0.21169698440067097 0.2805702346090042 -3.7453734282157725
v 0.055665658649109245 0.06157025237799133 -3.7692911427385907
v -0.3425163689786924 0.07885307054605997 -3.8171265717842267
v -0.08221896383455403 0.011384354030905586 -3.7932088572614084
v -0.28057023460900454 0.2116969844006708 -3.7453734282157725
v -0.06157025237799138 0.05566565864910922 -3.7692911427385907
v -0.211696984400671 -0.2805702346090042 -3.7453734282157725
v -0.05566565864910924 -0.061570252377991304 -3.7692911427385907
v -0.07885307054606026 -0.3425163689786923 -3.8171265717842267
v -0.011384354030905638 -0.08221896383455399 -3.7932088572614084
vt 0.3125 0.65625
vt 0.31640625 0.65625
vt 0.31640625 0.66015625
vt 0.3125 0.66015625
vt 0.2109375 0.91796875
vt 0.2109375 0.921875
vt 0.20703125 0.921875
vt 0.20703125 0.91796875
vt 0.33984375 0.66015625
vt 0.3359375 0.66015625
vt 0.3359375 0.65625
vt 0.33984375 0.65625
vt 0.2109375 0.8828125
vt 0.2109375 0.88671875
vt 0.20703125 0.88671875
vt 0.20703125 0.8828125
vt 0.32421875 0.66015625
vt 0.3203125 0.66015625
vt 0.3203125 0.65625
vt 0.32421875 0.65625
vt 0.3203125 0.66015625
vt 0.31640625 0.66015625
vt 0.31640625 0.65625
vt 0.3203125 0.65625
vt 0.3203125 0.65625
vt 0.31640625 0.65625
vt 0.31640625 0.65234375
vt 0.3203125 0.65234375
vt 0.2890625 0.8046875
vt 0.28515625 0.8046875
vt 0.28515625 0.80078125
vt 0.2890625 0.80078125
vt 0.33203125 0.65234375
vt 0.3359375 0.65234375
vt 0.3359375 0.65625
vt 0.33203125 0.65625
vt 0.328125 0.65625
vt 0.33203125 0.65625
vt 0.33203125 0.66015625
vt 0.328125 0.66015625
vt 0.33203125 0.65625
vt 0.3359375 0.65625
vt 0.3359375 0.66015625
vt 0.33203125 0.66015625
vt 0.33203125 0.66015625
vt 0.3359375 0.66015625
vt 0.3359375 0.6640625
vt 0.33203125 0.6640625
vt 0.2890625 0.796875
vt 0.28515625 0.796875
vt 0.28515625 0.79296875
vt 0.2890625 0.79296875
vt 0.3203125 0.6640625
vt 0.31640625 0.6640625
vt 0.31640625 0.66015625
vt 0.3203125 0.66015625
vt 0.31640625 0.66015625
vt 0.31640625 0.6640625
vt 0.3125 0.66015625
vt 0.32421875 0.66015625
vt 0.3203125 0.6640625
vt 0.3203125 0.66015625
vt 0.32421875 0.65625
vt 0.3203125 0.65625
vt 0.3203125 0.65234375
vt 0.31640625 0.65234375
vt 0.31640625 0.65625
vt 0.3125 0.65625
vt 0.33984375 0.66015625
vt 0.3359375 0.6640625
vt 0.3359375 0.66015625
vt 0.33984375 0.65625
vt 0.3359375 0.65625
vt 0.3359375 0.65234375
vt 0.33203125 0.65625
vt 0.328125 0.65625
vt 0.33203125 0.65234375
vt 0.33203125 0.66015625
vt 0.33203125 0.6640625
vt 0.328125 0.66015625
vt 0.3203125 0.69921875
vt 0.3203125 0.6953125
vt 0.32421875 0.6953125
vt 0.32421875 0.69921875
vt 0.328125 0.71484375
vt 0.33203125 0.71484375
vt 0.33203125 0.71875
vt 0.328125 0.71875
vt 0.34375 0.78125
vt 0.34375 0.77734375
vt 0.34765625 0.77734375
vt 0.34765625 0.78125
vt 0.34765625 0.75
vt 0.34375 0.75
vt 0.34375 0.74609375
vt 0.34765625 0.74609375
vt 0.30078125 0.77734375
vt 0.3125 0.77734375
vt 0.30859375 0.796875
vt 0.3046875 0.796875
vt 0.30078125 0.77734375
vt 0.3125 0.77734375
vt 0.30859375 0.796875
vt 0.3046875 0.796875
vt 0.3203125 0.703125
vt 0.33984375 0.69921875
vt 0.33984375 0.7109375
vt 0.3203125 0.70703125
vt 0.3203125 0.703125
vt 0.33984375 0.69921875
vt 0.33984375 0.7109375
vt 0.3203125 0.70703125
vt 0.1953125 0.65625
vt 0.19921875 0.67578125
vt 0.1875 0.67578125
vt 0.19140625 0.65625
vt 0.1953125 0.65625
vt 0.19921875 0.67578125
vt 0.1875 0.67578125
vt 0.19140625 0.65625
vt 0.3203125 0.8125
vt 0.33203125 0.8125
vt 0.328125 0.83203125
vt 0.32421875 0.83203125
vt 0.3203125 0.8125
vt 0.33203125 0.8125
vt 0.328125 0.83203125
vt 0.32421875 0.83203125
vn 0 0 -1
vn 0.4226182617406993 0.90630778703665 0
vn 0 0 1
vn -0.4226182617406993 -0.90630778703665 0
vn 0 0 -1
vn 0 0 -1
vn 0 0 -1
vn 0.90630778703665 -0.4226182617406993 0
vn 0 0 1
vn 0 0 1
vn 0 0 1
vn 0 0 1
vn -0.90630778703665 0.4226182617406993 0
vn 0 0 -1
vn 0 0 -1
vn 0 0 -1
vn 0 0 -1
vn 0 0 -1
vn 0 0 1
vn 0 0 1
vn 0 0 1
vn 0 0 1
vn -0.9396926207859084 -0.34202014332566893 0
vn -0.34202014332566905 0.9396926207859084 0
vn 0.9396926207859085 0.3420201433256689 0
vn 0.34202014332566893 -0.9396926207859084 0
vn -0.18581311073802964 -0.398477501899115 -0.8981587656745869
vn 0.1858131107380306 0.3984775018991146 0.8981587656745869
vn 0.3984775018991144 -0.18581311073803092 -0.898158765674587
vn -0.39847750189911485 0.18581311073803 0.8981587656745869
vn 0.1858131107380306 0.3984775018991146 -0.8981587656745869
vn -0.18581311073802967 -0.398477501899115 0.8981587656745869
vn -0.39847750189911474 0.18581311073803 -0.898158765674587
vn 0.3984775018991144 -0.18581311073803095 0.898158765674587
usemtl m_7688e6d8-7089-f4ab-2f3a-285dd6de27cd
f 212/779/207 222/780/207 221/781/207 214/782/207
f 212/783/208 214/784/208 216/785/208 215/786/208
f 216/787/209 230/788/209 228/789/209 215/790/209
f 217/791/210 218/792/210 213/793/210 211/794/210
f 213/795/211 219/796/211 220/797/211 211/798/211
f 219/799/212 221/800/212 222/801/212 220/802/212
f 220/803/213 222/804/213 224/805/213 223/806/213
f 223/807/214 224/808/214 226/809/214 225/810/214
f 225/811/215 226/812/215 228/813/215 227/814/215
f 217/815/216 227/816/216 229/817/216 218/818/216
f 227/819/217 228/820/217 230/821/217 229/822/217
f 229/823/218 230/824/218 232/825/218 231/826/218
f 231/827/219 232/828/219 234/829/219 233/830/219
f 233/831/220 234/832/220 221/833/220 219/834/220
f 221/835/221 234/836/221 214/837/221
f 213/838/222 233/839/222 219/840/222
f 211/841/223 220/842/223 223/843/223
f 224/844/224 222/845/224 212/846/224
f 216/847/225 232/848/225 230/849/225
f 215/850/226 228/851/226 226/852/226
f 227/853/227 217/854/227 225/855/227
f 229/856/228 231/857/228 218/858/228
f 233/859/229 213/860/229 218/861/229 231/862/229
f 216/863/230 214/864/230 234/865/230 232/866/230
f 215/867/231 226/868/231 224/869/231 212/870/231
f 217/871/232 211/872/232 223/873/232 225/874/232
f 237/875/233 235/876/233 236/877/233 238/878/233
f 235/879/234 237/880/234 238/881/234 236/882/234
f 240/883/235 239/884/235 241/885/235 242/886/235
f 242/887/236 241/888/236 239/889/236 240/890/236
f 244/891/237 243/892/237 245/893/237 246/894/237
f 246/895/238 245/896/238 243/897/238 244/898/238
f 249/899/239 247/900/239 248/901/239 250/902/239
f 247/903/240 249/904/240 250/905/240 248/906/240
o prop2
v -0.03739507015890394 -0.07479014031780791 -3.8125
v 0.0747901403178079 0.03739507015890396 -3.8125
v -0.0747901403178079 -0.03739507015890396 -3.8125
v 0.037395070158903955 0.07479014031780791 -3.8125
v 0.0747901403178079 0.03739507015890396 -3.875
v 0.037395070158903955 0.07479014031780791 -3.875
v -0.03739507015890394 -0.07479014031780791 -3.875
v -0.0747901403178079 -0.03739507015890396 -3.875
v -0.03739507015890395 -2.6598060751153247e-18 -3.8125
v 6.005093880122996e-18 -0.03739507015890396 -3.8125
v 2.535646928169382e-18 0.037395070158903955 -3.8125
v 0.037395070158903955 8.096408768382895e-19 -3.8125
v 0.03739507015890397 -0.0747901403178079 -3.8125
v 0.07479014031780791 -0.03739507015890395 -3.8125
v 0.03739507015890397 -0.0747901403178079 -3.875
v 0.07479014031780791 -0.03739507015890395 -3.875
v 6.005093880122996e-18 -0.03739507015890396 -3.875
v 0.037395070158903955 8.096408768382895e-19 -3.875
v -0.03739507015890395 -2.6598060751153247e-18 -3.875
v 2.535646928169382e-18 0.037395070158903955 -3.875
v -0.07479014031780791 0.03739507015890394 -3.875
v -0.037395070158903955 0.0747901403178079 -3.875
v -0.07479014031780791 0.03739507015890394 -3.8125
v -0.037395070158903955 0.0747901403178079 -3.8125
v 0.19124514612792332 -0.2948907659378281 -3.879626571784227
v 0.03881833527003845 -0.0733668752066734 -3.8557088572614084
v 0.29489076593782815 -0.19124514612792323 -3.807873428215773
v 0.07336687520667341 -0.038818335270038425 -3.8317911427385916
v 0.19124514612792348 0.294890765937828 -3.807873428215773
v 0.038818335270038494 0.07336687520667337 -3.8317911427385916
v 0.2948907659378282 0.19124514612792298 -3.879626571784227
v 0.07336687520667343 0.038818335270038376 -3.8557088572614084
v -0.29489076593782815 0.19124514612792326 -3.807873428215773
v -0.0733668752066734 0.03881833527003843 -3.8317911427385916
v -0.1912451461279233 0.29489076593782815 -3.879626571784227
v -0.038818335270038425 0.0733668752066734 -3.8557088572614084
v -0.29489076593782826 -0.19124514612792295 -3.879626571784227
v -0.0733668752066734 -0.03881833527003836 -3.8557088572614084
v -0.1912451461279235 -0.294890765937828 -3.807873428215773
v -0.038818335270038466 -0.07336687520667334 -3.8317911427385916
vt 0.34375 0.98828125
vt 0.34375 0.984375
vt 0.33984375 0.984375
vt 0.33984375 0.98828125
vt 0.2578125 0.65625
vt 0.26171875 0.65625
vt 0.26171875 0.65234375
vt 0.2578125 0.65234375
vt 0.3515625 0.93359375
vt 0.3515625 0.9375
vt 0.35546875 0.9375
vt 0.35546875 0.93359375
vt 0.34375 0.7421875
vt 0.34765625 0.7421875
vt 0.34765625 0.73828125
vt 0.34375 0.73828125
vt 0.34765625 0.984375
vt 0.34765625 0.98828125
vt 0.3515625 0.98828125
vt 0.3515625 0.984375
vt 0.34375 0.984375
vt 0.34375 0.98828125
vt 0.34765625 0.98828125
vt 0.34765625 0.984375
vt 0.34375 0.98046875
vt 0.34375 0.984375
vt 0.34765625 0.984375
vt 0.34765625 0.98046875
vt 0.28125 0.65234375
vt 0.28125 0.65625
vt 0.28515625 0.65625
vt 0.28515625 0.65234375
vt 0.3515625 0.93359375
vt 0.3515625 0.9296875
vt 0.34765625 0.9296875
vt 0.34765625 0.93359375
vt 0.34765625 0.9375
vt 0.34765625 0.93359375
vt 0.34375 0.93359375
vt 0.34375 0.9375
vt 0.3515625 0.9375
vt 0.3515625 0.93359375
vt 0.34765625 0.93359375
vt 0.34765625 0.9375
vt 0.3515625 0.94140625
vt 0.3515625 0.9375
vt 0.34765625 0.9375
vt 0.34765625 0.94140625
vt 0.34375 0.70703125
vt 0.34375 0.7109375
vt 0.34765625 0.7109375
vt 0.34765625 0.70703125
vt 0.34375 0.98828125
vt 0.34375 0.9921875
vt 0.34765625 0.9921875
vt 0.34765625 0.98828125
vt 0.34375 0.9921875
vt 0.34375 0.98828125
vt 0.33984375 0.98828125
vt 0.34765625 0.9921875
vt 0.3515625 0.98828125
vt 0.34765625 0.98828125
vt 0.34765625 0.984375
vt 0.3515625 0.984375
vt 0.34765625 0.98046875
vt 0.34375 0.984375
vt 0.34375 0.98046875
vt 0.33984375 0.984375
vt 0.3515625 0.94140625
vt 0.35546875 0.9375
vt 0.3515625 0.9375
vt 0.3515625 0.93359375
vt 0.35546875 0.93359375
vt 0.3515625 0.9296875
vt 0.34375 0.93359375
vt 0.34765625 0.93359375
vt 0.34765625 0.9296875
vt 0.34765625 0.94140625
vt 0.34765625 0.9375
vt 0.34375 0.9375
vt 0.34765625 0.65234375
vt 0.34375 0.65234375
vt 0.34375 0.65625
vt 0.34765625 0.65625
vt 0.34765625 0.703125
vt 0.34765625 0.69921875
vt 0.34375 0.69921875
vt 0.34375 0.703125
vt 0.34765625 0.66015625
vt 0.34375 0.66015625
vt 0.34375 0.6640625
vt 0.34765625 0.6640625
vt 0.34765625 0.921875
vt 0.34765625 0.92578125
vt 0.3515625 0.92578125
vt 0.3515625 0.921875
vt 0.31640625 0.9921875
vt 0.3203125 0.97265625
vt 0.30859375 0.97265625
vt 0.3125 0.9921875
vt 0.31640625 0.9921875
vt 0.3203125 0.97265625
vt 0.30859375 0.97265625
vt 0.3125 0.9921875
vt 0.33984375 0.75
vt 0.33984375 0.73828125
vt 0.3203125 0.7421875
vt 0.3203125 0.74609375
vt 0.33984375 0.75
vt 0.33984375 0.73828125
vt 0.3203125 0.7421875
vt 0.3203125 0.74609375
vt 0.31640625 0.85546875
vt 0.328125 0.85546875
vt 0.32421875 0.8359375
vt 0.3203125 0.8359375
vt 0.31640625 0.85546875
vt 0.328125 0.85546875
vt 0.32421875 0.8359375
vt 0.3203125 0.8359375
vt 0.32421875 0.71875
vt 0.3046875 0.71484375
vt 0.3046875 0.7265625
vt 0.32421875 0.72265625
vt 0.32421875 0.71875
vt 0.3046875 0.71484375
vt 0.3046875 0.7265625
vt 0.32421875 0.72265625
vn 0 0 1
vn 0.7071067811865475 0.7071067811865476 0
vn 0 0 -1
vn -0.7071067811865475 -0.7071067811865476 0
vn 0 0 1
vn 0 0 1
vn 0 0 1
vn 0.7071067811865476 -0.7071067811865475 0
vn 0 0 -1
vn 0 0 -1
vn 0 0 -1
vn 0 0 -1
vn -0.7071067811865476 0.7071067811865475 0
vn 0 0 1
vn 0 0 1
vn 0 0 1
vn 0 0 1
vn 0 0 1
vn 0 0 -1
vn 0 0 -1
vn 0 0 -1
vn 0 0 -1
vn -1 -1.1102230246251565e-16 0
vn -2.220446049250313e-16 1 0
vn 1 0 0
vn 1.1102230246251565e-16 -1 0
vn -0.31089454131739 -0.31089454131739297 0.8981587656745869
vn 0.3108945413173929 0.3108945413173901 -0.8981587656745869
vn 0.3108945413173898 -0.3108945413173932 0.8981587656745869
vn -0.3108945413173927 0.3108945413173903 -0.8981587656745871
vn 0.3108945413173929 0.3108945413173901 0.8981587656745869
vn -0.31089454131739 -0.31089454131739297 -0.8981587656745869
vn -0.3108945413173927 0.3108945413173903 0.8981587656745871
vn 0.31089454131738975 -0.31089454131739314 -0.898158765674587
usemtl m_7688e6d8-7089-f4ab-2f3a-285dd6de27cd
f 261/907/241 262/908/241 252/909/241 254/910/241
f 256/911/242 254/912/242 252/913/242 255/914/242
f 268/915/243 270/916/243 256/917/243 255/918/243
f 253/919/244 258/920/244 257/921/244 251/922/244
f 260/923/245 259/924/245 253/925/245 251/926/245
f 262/927/246 261/928/246 259/929/246 260/930/246
f 264/931/247 262/932/247 260/933/247 263/934/247
f 266/935/248 264/936/248 263/937/248 265/938/248
f 268/939/249 266/940/249 265/941/249 267/942/249
f 269/943/250 267/944/250 257/945/250 258/946/250
f 270/947/251 268/948/251 267/949/251 269/950/251
f 272/951/252 270/952/252 269/953/252 271/954/252
f 274/955/253 272/956/253 271/957/253 273/958/253
f 261/959/254 274/960/254 273/961/254 259/962/254
f 274/963/255 261/964/255 254/965/255
f 273/966/256 253/967/256 259/968/256
f 260/969/257 251/970/257 263/971/257
f 262/972/258 264/973/258 252/974/258
f 272/975/259 256/976/259 270/977/259
f 268/978/260 255/979/260 266/980/260
f 257/981/261 267/982/261 265/983/261
f 271/984/262 269/985/262 258/986/262
f 258/987/263 253/988/263 273/989/263 271/990/263
f 274/991/264 254/992/264 256/993/264 272/994/264
f 264/995/265 266/996/265 255/997/265 252/998/265
f 263/999/266 251/1000/266 257/1001/266 265/1002/266
f 276/1003/267 275/1004/267 277/1005/267 278/1006/267
f 278/1007/268 277/1008/268 275/1009/268 276/1010/268
f 281/1011/269 279/1012/269 280/1013/269 282/1014/269
f 279/1015/270 281/1016/270 282/1017/270 280/1018/270
f 285/1019/271 283/1020/271 284/1021/271 286/1022/271
f 283/1023/272 285/1024/272 286/1025/272 284/1026/272
f 288/1027/273 287/1028/273 289/1029/273 290/1030/273
f 290/1031/274 289/1032/274 287/1033/274 288/1034/274
o wood
v -0.027430555555555552 0.49375 -5
v -0.027430555555555552 0.49375 -3.625
v -0.027430555555555552 0.38402777777777775 -5.0625
v -0.027430555555555552 0.38402777777777775 -3.5625
v 0.027430555555555552 0.49375 -5
v 0.027430555555555552 0.49375 -3.625
v 0.027430555555555552 0.38402777777777775 -5.0625
v 0.027430555555555552 0.38402777777777775 -3.5625
v -0.027430555555555552 0.49375 -3.9375
v -0.027430555555555552 0.38402777777777775 -3.9375
v 0.027430555555555552 0.38402777777777775 -3.9375
v 0.027430555555555552 0.49375 -3.9375
v 0.027430555555555552 -0.38402777777777775 -5.0625
v -0.027430555555555552 -0.38402777777777775 -3.9375
v 0.027430555555555552 -0.38402777777777775 -3.9375
v -0.027430555555555552 -0.38402777777777775 -5.0625
v 0.027430555555555552 -0.49375 -5
v -0.027430555555555552 -0.49375 -3.9375
v 0.027430555555555552 -0.49375 -3.9375
v -0.027430555555555552 -0.49375 -5
v -0.027430555555555552 -0.49375 -3.625
v 0.027430555555555552 -0.49375 -3.625
v 0.027430555555555552 -0.38402777777777775 -3.5625
v -0.027430555555555552 -0.38402777777777775 -3.5625
v -0.027430555555555552 0.4388888888888889 -3.9375
v -0.027430555555555552 0.4388888888888889 -5.0625
v 0.027430555555555552 0.4388888888888889 -5.0625
v 0.027430555555555552 0.4388888888888889 -3.9375
v 0.027430555555555552 0.4388888888888889 -3.5625
v -0.027430555555555552 0.4388888888888889 -3.5625
v -0.027430555555555552 -0.4388888888888889 -3.9375
v -0.027430555555555552 -0.4388888888888889 -5.0625
v 0.027430555555555552 -0.4388888888888889 -5.0625
v 0.027430555555555552 -0.4388888888888889 -3.9375
v 0.027430555555555552 -0.4388888888888889 -3.5625
v -0.027430555555555552 -0.4388888888888889 -3.5625
v -0.49374999999999997 -0.027430555555555444 -4.6875
v -0.49374999999999997 -0.027430555555555444 -3.25
v -0.3840277777777777 -0.02743055555555547 -4.6875
v -0.3840277777777777 -0.02743055555555547 -3.1875
v -0.49374999999999997 0.027430555555555666 -4.6875
v -0.49374999999999997 0.027430555555555666 -3.25
v -0.3840277777777777 0.027430555555555642 -4.6875
v -0.3840277777777777 0.027430555555555642 -3.1875
v -0.49374999999999997 -0.027430555555555444 -3.9375
v -0.3840277777777777 -0.02743055555555547 -3.9375
v -0.3840277777777777 0.027430555555555642 -3.9375
v -0.49374999999999997 0.027430555555555666 -3.9375
v 0.3840277777777777 0.02743055555555547 -4.6875
v 0.3840277777777777 -0.027430555555555642 -3.9375
v 0.3840277777777777 0.02743055555555547 -3.9375
v 0.3840277777777777 -0.027430555555555642 -4.6875
v 0.49374999999999997 0.027430555555555444 -4.6875
v 0.49374999999999997 -0.027430555555555666 -3.9375
v 0.49374999999999997 0.027430555555555444 -3.9375
v 0.49374999999999997 -0.027430555555555666 -4.6875
v 0.49374999999999997 -0.027430555555555666 -3.25
v 0.49374999999999997 0.027430555555555444 -3.25
v 0.3840277777777777 0.02743055555555547 -3.1875
v 0.3840277777777777 -0.027430555555555642 -3.1875
v -0.43888888888888883 0.027430555555555652 -3.9375
v -0.43888888888888883 0.027430555555555652 -3.1875
v -0.43888888888888883 -0.027430555555555458 -3.1875
v -0.43888888888888883 -0.027430555555555458 -3.9375
v -0.43888888888888883 -0.027430555555555458 -4.6875
v -0.43888888888888883 0.027430555555555652 -4.6875
v 0.43888888888888883 0.027430555555555458 -3.1875
v 0.43888888888888883 0.027430555555555458 -3.9375
v 0.43888888888888883 0.027430555555555458 -4.6875
v 0.43888888888888883 -0.027430555555555652 -4.6875
v 0.43888888888888883 -0.027430555555555652 -3.9375
v 0.43888888888888883 -0.027430555555555652 -3.1875
v -0.5 0 -1.625
v -0.5 0.025 -1.375
v -0.5 -2.7755575615628914e-17 -1.625
v -0.5 -0.02500000000000003 -1.375
v -0.375 0 -1.625
v -0.375 0.025 -1.375
v -0.375 -2.7755575615628914e-17 -1.625
v -0.375 -0.02500000000000003 -1.375
v 0.5 0 -1.625
v 0.5 0.025 -1.375
v 0.5 -2.7755575615628914e-17 -1.625
v 0.5 -0.02500000000000003 -1.375
v 0.375 0 -1.625
v 0.375 0.025 -1.375
v 0.375 -2.7755575615628914e-17 -1.625
v 0.375 -0.02500000000000003 -1.375
vt 0.19140625 1
vt 0.1875 0.99609375
vt 0.2578125 0.99609375
vt 0.2578125 1
vt 0.2109375 0.93359375
vt 0.2109375 0.9296875
vt 0.28125 0.9296875
vt 0.27734375 0.93359375
vt 0.296875 0.77734375
vt 0.296875 0.84375
vt 0.29296875 0.84375
vt 0.29296875 0.77734375
vt 0.296875 0.75
vt 0.296875 0.68359375
vt 0.30078125 0.68359375
vt 0.30078125 0.75
vt 0.34765625 0.81640625
vt 0.34765625 0.8125
vt 0.3515625 0.8125
vt 0.3515625 0.81640625
vt 0.1875 0.65234375
vt 0.1875 0.6484375
vt 0.19140625 0.6484375
vt 0.19140625 0.65234375
vt 0.2578125 1
vt 0.2578125 0.99609375
vt 0.28125 0.99609375
vt 0.27734375 1
vt 0.203125 0.63671875
vt 0.203125 0.66015625
vt 0.19921875 0.66015625
vt 0.19921875 0.63671875
vt 0.19140625 0.93359375
vt 0.1875 0.9296875
vt 0.2109375 0.9296875
vt 0.2109375 0.93359375
vt 0.29296875 0.86328125
vt 0.29296875 0.84375
vt 0.296875 0.84375
vt 0.296875 0.86328125
vt 0.2109375 0.87890625
vt 0.28125 0.87890625
vt 0.28125 0.92578125
vt 0.2109375 0.92578125
vt 0.3046875 0.640625
vt 0.30859375 0.640625
vt 0.30859375 0.6875
vt 0.3046875 0.6875
vt 0.1875 0.9453125
vt 0.2578125 0.9453125
vt 0.2578125 0.9921875
vt 0.1875 0.9921875
vt 0.28515625 0.81640625
vt 0.2890625 0.81640625
vt 0.2890625 0.86328125
vt 0.28515625 0.86328125
vt 0.2109375 0.87890625
vt 0.2109375 0.875
vt 0.28125 0.875
vt 0.28125 0.87890625
vt 0.34765625 0.91796875
vt 0.34765625 0.9140625
vt 0.3515625 0.9140625
vt 0.3515625 0.91796875
vt 0.1875 0.9453125
vt 0.1875 0.94140625
vt 0.2578125 0.94140625
vt 0.2578125 0.9453125
vt 0.28515625 0.81640625
vt 0.28515625 0.8125
vt 0.2890625 0.8125
vt 0.2890625 0.81640625
vt 0.296875 0.6640625
vt 0.30078125 0.6640625
vt 0.30078125 0.68359375
vt 0.296875 0.68359375
vt 0.1875 0.87890625
vt 0.1875 0.875
vt 0.2109375 0.875
vt 0.2109375 0.87890625
vt 0.27734375 0.6640625
vt 0.2734375 0.6640625
vt 0.2734375 0.640625
vt 0.27734375 0.640625
vt 0.2578125 0.9453125
vt 0.2578125 0.94140625
vt 0.28125 0.94140625
vt 0.28125 0.9453125
vt 0.2578125 0.9921875
vt 0.2578125 0.99609375
vt 0.1875 0.99609375
vt 0.1875 0.9921875
vt 0.2890625 0.86328125
vt 0.2890625 0.8671875
vt 0.28515625 0.8671875
vt 0.28515625 0.86328125
vt 0.28125 0.92578125
vt 0.28125 0.9296875
vt 0.2109375 0.9296875
vt 0.2109375 0.92578125
vt 0.2109375 0.92578125
vt 0.2109375 0.9296875
vt 0.1875 0.9296875
vt 0.1875 0.92578125
vt 0.3515625 0.87109375
vt 0.3515625 0.875
vt 0.34765625 0.875
vt 0.34765625 0.87109375
vt 0.28125 0.9921875
vt 0.28125 0.99609375
vt 0.2578125 0.99609375
vt 0.2578125 0.9921875
vt 0.2578125 0.9375
vt 0.2578125 0.94140625
vt 0.1875 0.94140625
vt 0.19140625 0.9375
vt 0.3515625 0.8046875
vt 0.3515625 0.80859375
vt 0.34765625 0.80859375
vt 0.34765625 0.8046875
vt 0.27734375 0.87109375
vt 0.28125 0.875
vt 0.2109375 0.875
vt 0.2109375 0.87109375
vt 0.2109375 0.87109375
vt 0.2109375 0.875
vt 0.1875 0.875
vt 0.19140625 0.87109375
vt 0.2109375 0.6484375
vt 0.2109375 0.65234375
vt 0.20703125 0.65234375
vt 0.20703125 0.6484375
vt 0.27734375 0.9375
vt 0.28125 0.94140625
vt 0.2578125 0.94140625
vt 0.2578125 0.9375
vt 0.1875 0.80078125
vt 0.1875 0.796875
vt 0.234375 0.796875
vt 0.234375 0.80078125
vt 0.234375 0.8671875
vt 0.234375 0.86328125
vt 0.28125 0.86328125
vt 0.28125 0.8671875
vt 0.2421875 0.75390625
vt 0.2890625 0.75390625
vt 0.2890625 0.7578125
vt 0.2421875 0.7578125
vt 0.375 1
vt 0.328125 1
vt 0.328125 0.99609375
vt 0.375 0.99609375
vt 0.3515625 0.76953125
vt 0.34765625 0.76953125
vt 0.34765625 0.765625
vt 0.3515625 0.765625
vt 0.21484375 0.6484375
vt 0.21875 0.6484375
vt 0.21875 0.65234375
vt 0.21484375 0.65234375
vt 0.234375 0.80078125
vt 0.234375 0.796875
vt 0.28125 0.796875
vt 0.27734375 0.80078125
vt 0.3125 0.90234375
vt 0.359375 0.90234375
vt 0.359375 0.90625
vt 0.3125 0.90625
vt 0.19140625 0.8671875
vt 0.1875 0.86328125
vt 0.234375 0.86328125
vt 0.234375 0.8671875
vt 0.33203125 0.7578125
vt 0.2890625 0.7578125
vt 0.2890625 0.75390625
vt 0.33203125 0.75390625
vt 0.234375 0.8125
vt 0.28125 0.8125
vt 0.28125 0.859375
vt 0.234375 0.859375
vt 0.359375 0.89453125
vt 0.359375 0.8984375
vt 0.3125 0.8984375
vt 0.3125 0.89453125
vt 0.1875 0.74609375
vt 0.234375 0.74609375
vt 0.234375 0.79296875
vt 0.1875 0.79296875
vt 0.296875 0.76953125
vt 0.296875 0.765625
vt 0.34375 0.765625
vt 0.34375 0.76953125
vt 0.28125 0.8046875
vt 0.28125 0.80859375
vt 0.234375 0.80859375
vt 0.234375 0.8046875
vt 0.2265625 0.65234375
vt 0.22265625 0.65234375
vt 0.22265625 0.6484375
vt 0.2265625 0.6484375
vt 0.234375 0.73828125
vt 0.234375 0.7421875
vt 0.1875 0.7421875
vt 0.1875 0.73828125
vt 0.2890625 0.765625
vt 0.29296875 0.765625
vt 0.29296875 0.76953125
vt 0.2890625 0.76953125
vt 0.28515625 1
vt 0.28515625 0.99609375
vt 0.328125 0.99609375
vt 0.328125 1
vt 0.234375 0.8046875
vt 0.234375 0.80859375
vt 0.1875 0.80859375
vt 0.19140625 0.8046875
vt 0.359375 0.859375
vt 0.359375 0.86328125
vt 0.3125 0.86328125
vt 0.3125 0.859375
vt 0.27734375 0.73828125
vt 0.28125 0.7421875
vt 0.234375 0.7421875
vt 0.234375 0.73828125
vt 0.234375 0.859375
vt 0.234375 0.86328125
vt 0.1875 0.86328125
vt 0.1875 0.859375
vt 0.3515625 0.83203125
vt 0.34765625 0.83203125
vt 0.34765625 0.828125
vt 0.3515625 0.828125
vt 0.28125 0.79296875
vt 0.28125 0.796875
vt 0.234375 0.796875
vt 0.234375 0.79296875
vt 0.234375 0.79296875
vt 0.234375 0.796875
vt 0.1875 0.796875
vt 0.1875 0.79296875
vt 0.34375 0.765625
vt 0.34765625 0.765625
vt 0.34765625 0.76953125
vt 0.34375 0.76953125
vt 0.28125 0.859375
vt 0.28125 0.86328125
vt 0.234375 0.86328125
vt 0.234375 0.859375
vt 0.1875 0.8125
vt 0.1875 0.80859375
vt 0.234375 0.80859375
vt 0.234375 0.8125
vt 0.234375 0.8125
vt 0.234375 0.80859375
vt 0.28125 0.80859375
vt 0.28125 0.8125
vt 0.296875 0.76953125
vt 0.29296875 0.76953125
vt 0.29296875 0.765625
vt 0.296875 0.765625
vt 0.1875 0.74609375
vt 0.1875 0.7421875
vt 0.234375 0.7421875
vt 0.234375 0.74609375
vt 0.234375 0.74609375
vt 0.234375 0.7421875
vt 0.28125 0.7421875
vt 0.28125 0.74609375
vt 0.34765625 0.8203125
vt 0.3515625 0.8203125
vt 0.3515625 0.82421875
vt 0.34765625 0.82421875
vt 0.2051170903290007 0.81640625
vt 0.1894141596709993 0.81640625
vt 0.20480614120706006 0.8172030087805938
vt 0.1894141596709993 0.8203125
vt 0.28125 0.94921875
vt 0.28125 0.94921875
vt 0.26593594912194063 0.953125
vt 0.265625 0.9500155087805938
vt 0.2890625 0.66015625
vt 0.2890625 0.67578125
vt 0.28125 0.67578125
vt 0.28125 0.66015625
vt 0.33984375 0.92578125
vt 0.33984375 0.94140625
vt 0.33203125 0.94140625
vt 0.33203125 0.92578125
vt 0.0078125 1
vt 0 1
vt 0.0078125 1
vt 0 1
vt 0.33203125 0.88671875
vt 0.33203125 0.890625
vt 0.32421875 0.890625
vt 0.32421875 0.88671875
vt 0.30859375 0.9617342587805938
vt 0.29327969912194063 0.96484375
vt 0.29296875 0.9609375
vt 0.30859375 0.9609375
vt 0.3535545903290007 0.9765625
vt 0.3378516596709993 0.9765625
vt 0.3378516596709993 0.9765625
vt 0.3532436412070601 0.9734530087805938
vt 0.33984375 0.79296875
vt 0.33203125 0.79296875
vt 0.33203125 0.77734375
vt 0.33984375 0.77734375
vt 0.34375 0.83203125
vt 0.3359375 0.83203125
vt 0.3359375 0.81640625
vt 0.34375 0.81640625
vt 0.0078125 1
vt 0 1
vt 0 1
vt 0.0078125 1
vt 0.33984375 0.85546875
vt 0.33203125 0.85546875
vt 0.33203125 0.8515625
vt 0.33984375 0.8515625
vn -1 0 0
vn 1 0 0
vn 0 1 0
vn 0 -1 0
vn 0 0.7515411959203101 -0.6596861608633836
vn 0 0.7515411959203101 0.6596861608633836
vn -1 0 0
vn 0 -1 0
vn 1 0 0
vn 0 1 0
vn 1 0 0
vn 0 0 1
vn -1 0 0
vn 0 0 -1
vn 1 0 0
vn 0 0 1
vn -1 0 0
vn 0 0 -1
vn 0 -1 0
vn 1 0 0
vn 0 1 0
vn -1 0 0
vn -1 0 0
vn 0 0 -1
vn 1 0 0
vn 1 0 0
vn 0 0 1
vn -1 0 0
vn -1 0 0
vn 0 -0.7515411959203101 -0.6596861608633836
vn 1 0 0
vn 1 0 0
vn 0 -0.7515411959203101 0.6596861608633836
vn -1 0 0
vn -2.529622081424406e-16 -1 0
vn 2.529622081424406e-16 1 0
vn -1 0 0
vn 1 0 0
vn 0 0 -1
vn -0.7515411959203102 0 0.6596861608633837
vn -2.529622081424406e-16 -1 0
vn 1 0 0
vn 2.529622081424406e-16 1 0
vn -1 0 0
vn 2.2585911441289357e-16 1 0
vn 0 0 1
vn -2.2585911441289357e-16 -1 0
vn 0 0 -1
vn 2.529622081424406e-16 1 0
vn 0.7515411959203102 0 0.6596861608633837
vn -2.529622081424406e-16 -1 0
vn 0 0 -1
vn 1 0 0
vn 2.529622081424406e-16 1 0
vn -1 0 0
vn -2.529622081424406e-16 -1 0
vn 1.8972165610683045e-16 1 0
vn 0 0 1
vn -1.8972165610683045e-16 -1 0
vn -1.8972165610683045e-16 -1 0
vn 0 0 -1
vn 1.8972165610683045e-16 1 0
vn 1.8972165610683045e-16 1 0
vn 1.8972165610683045e-16 1 0
vn 0 0 -1
vn -1.8972165610683045e-16 -1 0
vn -1.8972165610683045e-16 -1 0
vn 0 0 1
vn -1 0 0
vn 1 0 0
vn 0 0.9950371902099893 -0.09950371902099893
vn 0 -0.9950371902099893 -0.09950371902099893
vn 0 0 -1
vn 0 0 1
vn 1 0 0
vn -1 0 0
vn 0 0.9950371902099893 -0.09950371902099893
vn 0 -0.9950371902099893 -0.09950371902099893
vn 0 0 -1
vn 0 0 1
usemtl m_7688e6d8-7089-f4ab-2f3a-285dd6de27cd
f 291/1035/275 316/1036/275 315/1037/275 299/1038/275
f 302/1039/276 318/1040/276 317/1041/276 295/1042/276
f 291/1043/277 299/1044/277 302/1045/277 295/1046/277
f 307/1047/278 309/1048/278 308/1049/278 310/1050/278
f 295/1051/279 317/1052/279 316/1053/279 291/1054/279
f 292/1055/280 320/1056/280 319/1057/280 296/1058/280
f 299/1059/281 315/1060/281 320/1061/281 292/1062/281
f 294/1063/282 300/1064/282 301/1065/282 298/1066/282
f 296/1067/283 319/1068/283 318/1069/283 302/1070/283
f 296/1071/284 302/1072/284 299/1073/284 292/1074/284
f 305/1075/285 303/1076/285 297/1077/285 301/1078/285
f 304/1079/286 305/1080/286 301/1081/286 300/1082/286
f 306/1083/287 304/1084/287 300/1085/287 293/1086/287
f 303/1087/288 306/1088/288 293/1089/288 297/1090/288
f 305/1091/289 324/1092/289 323/1093/289 303/1094/289
f 314/1095/290 326/1096/290 325/1097/290 313/1098/290
f 306/1099/291 322/1100/291 321/1101/291 304/1102/291
f 303/1103/292 323/1104/292 322/1105/292 306/1106/292
f 312/1107/293 311/1108/293 308/1109/293 309/1110/293
f 313/1111/294 325/1112/294 324/1113/294 305/1114/294
f 314/1115/295 313/1116/295 305/1117/295 304/1118/295
f 304/1119/296 321/1120/296 326/1121/296 314/1122/296
f 300/1123/297 315/1124/297 316/1125/297 293/1126/297
f 293/1127/298 316/1128/298 317/1129/298 297/1130/298
f 297/1131/299 317/1132/299 318/1133/299 301/1134/299
f 301/1135/300 318/1136/300 319/1137/300 298/1138/300
f 298/1139/301 319/1140/301 320/1141/301 294/1142/301
f 294/1143/302 320/1144/302 315/1145/302 300/1146/302
f 308/1147/303 321/1148/303 322/1149/303 310/1150/303
f 310/1151/304 322/1152/304 323/1153/304 307/1154/304
f 307/1155/305 323/1156/305 324/1157/305 309/1158/305
f 309/1159/306 324/1160/306 325/1161/306 312/1162/306
f 312/1163/307 325/1164/307 326/1165/307 311/1166/307
f 311/1167/308 326/1168/308 321/1169/308 308/1170/308
f 327/1171/309 355/1172/309 354/1173/309 335/1174/309
f 338/1175/310 351/1176/310 356/1177/310 331/1178/310
f 327/1179/311 335/1180/311 338/1181/311 331/1182/311
f 343/1183/312 345/1184/312 344/1185/312 346/1186/312
f 331/1187/313 356/1188/313 355/1189/313 327/1190/313
f 328/1191/314 353/1192/314 352/1193/314 332/1194/314
f 335/1195/315 354/1196/315 353/1197/315 328/1198/315
f 330/1199/316 336/1200/316 337/1201/316 334/1202/316
f 332/1203/317 352/1204/317 351/1205/317 338/1206/317
f 332/1207/318 338/1208/318 335/1209/318 328/1210/318
f 341/1211/319 339/1212/319 333/1213/319 337/1214/319
f 340/1215/320 341/1216/320 337/1217/320 336/1218/320
f 342/1219/321 340/1220/321 336/1221/321 329/1222/321
f 339/1223/322 342/1224/322 329/1225/322 333/1226/322
f 343/1227/323 359/1228/323 358/1229/323 345/1230/323
f 348/1231/324 357/1232/324 362/1233/324 347/1234/324
f 344/1235/325 361/1236/325 360/1237/325 346/1238/325
f 346/1239/326 360/1240/326 359/1241/326 343/1242/326
f 348/1243/327 347/1244/327 344/1245/327 345/1246/327
f 345/1247/328 358/1248/328 357/1249/328 348/1250/328
f 350/1251/329 349/1252/329 341/1253/329 340/1254/329
f 347/1255/330 362/1256/330 361/1257/330 344/1258/330
f 337/1259/331 351/1260/331 352/1261/331 334/1262/331
f 334/1263/332 352/1264/332 353/1265/332 330/1266/332
f 330/1267/333 353/1268/333 354/1269/333 336/1270/333
f 336/1271/334 354/1272/334 355/1273/334 329/1274/334
f 329/1275/335 355/1276/335 356/1277/335 333/1278/335
f 333/1279/336 356/1280/336 351/1281/336 337/1282/336
f 349/1283/337 357/1284/337 358/1285/337 341/1286/337
f 341/1287/338 358/1288/338 359/1289/338 339/1290/338
f 339/1291/339 359/1292/339 360/1293/339 342/1294/339
f 342/1295/340 360/1296/340 361/1297/340 340/1298/340
f 340/1299/341 361/1300/341 362/1301/341 350/1302/341
f 350/1303/342 362/1304/342 357/1305/342 349/1306/342
f 364/1307/343 363/1308/343 366/1309/343 365/1310/343
f 369/1311/344 367/1312/344 368/1313/344 370/1314/344
f 363/1315/345 364/1316/345 368/1317/345 367/1318/345
f 366/1319/346 365/1320/346 369/1321/346 370/1322/346
f 363/1323/347 367/1324/347 365/1325/347 369/1326/347
f 370/1327/348 368/1328/348 364/1329/348 366/1330/348
f 371/1331/349 372/1332/349 374/1333/349 373/1334/349
f 376/1335/350 375/1336/350 377/1337/350 378/1338/350
f 376/1339/351 372/1340/351 371/1341/351 375/1342/351
f 377/1343/352 373/1344/352 374/1345/352 378/1346/352
f 375/1347/353 371/1348/353 373/1349/353 377/1350/353
f 372/1351/354 376/1352/354 378/1353/354 374/1354/354