# Blender 3.3.21
# www.blender.org
mtllib 2a42_30mm.mtl
o cube
v -0.048880 0.097760 -0.293280
v 0.048880 0.097760 -0.293280
v -0.048880 -0.000000 -0.293280
v 0.048880 0.000000 -0.293280
v 0.048880 0.097760 -0.317720
v -0.048880 0.097760 -0.317720
v 0.048880 0.000000 -0.317720
v -0.048880 -0.000000 -0.317720
vn 1.0000 -0.0000 -0.0000
vn -0.0000 -0.0000 1.0000
vn -1.0000 -0.0000 -0.0000
vn -0.0000 -0.0000 -1.0000
vn -0.0000 1.0000 -0.0000
vn -0.0000 -1.0000 -0.0000
vt 0.250000 0.250000
vt 0.937500 0.625000
vt 0.437500 0.125000
vt 0.375000 0.125000
vt 0.375000 0.250000
vt 0.437500 0.000000
vt 0.250000 0.125000
vt 0.937500 0.500000
vt 0.500000 0.125000
vt 0.375000 0.000000
vt 0.375000 0.125000
vt 0.500000 0.000000
vt 0.437500 0.125000
vt 0.375000 0.250000
vt 0.500000 0.000000
vt 0.875000 0.625000
vt 0.500000 0.250000
vt 0.500000 0.125000
vt 0.437500 0.000000
vt 0.375000 0.125000
vt 0.562500 0.000000
vt 0.875000 0.500000
vt 0.500000 0.125000
vt 0.562500 0.125000
s 0
usemtl m_6408e22f-ad4a-a72c-0ba0-b865212e56f5
f 4/10/1 7/19/1 5/13/1 2/4/1
f 3/7/2 4/11/2 2/5/2 1/1/2
f 8/22/3 3/8/3 1/2/3 6/16/3
f 7/20/4 8/23/4 6/17/4 5/14/4
f 6/18/5 1/3/5 2/6/5 5/15/5
f 7/21/6 4/12/6 3/9/6 8/24/6
o cube.001
v -0.048880 0.097760 0.244400
v 0.048880 0.097760 0.244400
v -0.048880 -0.000000 0.244400
v 0.048880 0.000000 0.244400
v 0.048880 0.097760 0.146640
v -0.048880 0.097760 0.146640
v 0.048880 0.000000 0.146640
v -0.048880 -0.000000 0.146640
vn 1.0000 -0.0000 -0.0000
vn -0.0000 -0.0000 1.0000
vn -1.0000 -0.0000 -0.0000
vn -0.0000 -0.0000 -1.0000
vn -0.0000 1.0000 -0.0000
vn -0.0000 -1.0000 -0.0000
vt 0.500000 0.250000
vt 0.875000 0.500000
vt 0.750000 0.375000
vt 0.750000 0.625000
vt 0.625000 0.250000
vt 0.750000 0.250000
vt 0.500000 0.125000
vt 0.875000 0.375000
vt 0.750000 0.250000
vt 0.750000 0.500000
vt 0.625000 0.125000
vt 0.750000 0.125000
vt 0.875000 0.625000
vt 0.625000 0.250000
vt 0.875000 0.250000
vt 0.750000 0.500000
vt 0.750000 0.250000
vt 0.875000 0.375000
vt 0.875000 0.500000
vt 0.625000 0.125000
vt 0.875000 0.125000
vt 0.750000 0.375000
vt 0.750000 0.125000
vt 0.875000 0.250000
s 0
usemtl m_6408e22f-ad4a-a72c-0ba0-b865212e56f5
f 12/34/7 15/43/7 13/37/7 10/28/7
f 11/31/8 12/35/8 10/29/8 9/25/8
f 16/46/9 11/32/9 9/26/9 14/40/9
f 15/44/10 16/47/10 14/41/10 13/38/10
f 14/42/11 9/27/11 10/30/11 13/39/11
f 15/45/12 12/36/12 11/33/12 16/48/12
o cube.002
v -0.036660 0.085540 0.293280
v 0.036660 0.085540 0.293280
v -0.036660 0.012220 0.293280
v 0.036660 0.012220 0.293280
v 0.036660 0.085540 0.244400
v -0.036660 0.085540 0.244400
v 0.036660 0.012220 0.244400
v -0.036660 0.012220 0.244400
vn 1.0000 -0.0000 -0.0000
vn -0.0000 -0.0000 1.0000
vn -1.0000 -0.0000 -0.0000
vn -0.0000 -0.0000 -1.0000
vn -0.0000 1.0000 -0.0000
vn -0.0000 -1.0000 -0.0000
vt 0.875000 1.000000
vt 0.625000 0.125000
vt 0.875000 0.500000
vt 1.000000 1.000000
vt 0.625000 0.000000
vt 0.875000 0.875000
vt 0.625000 0.000000
vt 0.875000 0.375000
vt 0.875000 0.375000
vt 1.000000 0.875000
vt 0.875000 0.250000
vt 0.937500 0.500000
vt 0.875000 0.875000
vt 0.687500 0.000000
vt 0.562500 0.125000
vt 1.000000 0.875000
vt 0.687500 0.125000
vt 0.937500 0.375000
vt 0.875000 0.750000
vt 0.937500 0.250000
vt 0.562500 0.000000
vt 1.000000 0.750000
vt 0.937500 0.375000
s 0
usemtl m_6408e22f-ad4a-a72c-0ba0-b865212e56f5
f 20/57/13 23/66/13 21/60/13 18/51/13
f 19/54/14 20/58/14 18/52/14 17/49/14
f 24/69/15 19/55/15 17/50/15 22/63/15
f 23/67/16 24/70/16 22/64/16 21/61/16
f 22/65/17 17/50/17 18/53/17 21/62/17
f 23/68/18 20/59/18 19/56/18 24/71/18
o cube.003
v -0.036660 0.085540 0.342160
v 0.036660 0.085540 0.342160
v -0.036660 0.012220 0.342160
v 0.036660 0.012220 0.342160
v 0.036660 0.085540 0.293280
v -0.036660 0.085540 0.293280
v 0.036660 0.012220 0.293280
v -0.036660 0.012220 0.293280
vn 1.0000 -0.0000 -0.0000
vn -0.0000 -0.0000 1.0000
vn -1.0000 -0.0000 -0.0000
vn -0.0000 -0.0000 -1.0000
vn -0.0000 1.0000 -0.0000
vn -0.0000 -1.0000 -0.0000
vt 0.250000 0.125000
vt 0.812500 0.125000
vt 0.875000 0.250000
vt 0.687500 0.125000
vt 0.375000 0.125000
vt 0.875000 0.125000
vt 0.250000 0.000000
vt 0.812500 0.000000
vt 0.812500 0.125000
vt 0.687500 0.000000
vt 0.375000 0.000000
vt 0.812500 0.000000
vt 0.750000 0.125000
vt 0.875000 0.750000
vt 0.937500 0.125000
vt 0.750000 0.125000
vt 1.000000 0.750000
vt 0.937500 0.250000
vt 0.750000 0.000000
vt 0.875000 0.625000
vt 0.875000 0.000000
vt 0.750000 0.000000
vt 1.000000 0.625000
vt 0.875000 0.125000
s 0
usemtl m_6408e22f-ad4a-a72c-0ba0-b865212e56f5
f 28/81/19 31/90/19 29/84/19 26/75/19
f 27/78/20 28/82/20 26/76/20 25/72/20
f 32/93/21 27/79/21 25/73/21 30/87/21
f 31/91/22 32/94/22 30/88/22 29/85/22
f 30/89/23 25/74/23 26/77/23 29/86/23
f 31/92/24 28/83/24 27/80/24 32/95/24
o cube.004
v -0.024440 0.073320 0.342160
v 0.024440 0.073320 0.342160
v -0.024440 0.024440 0.342160
v 0.024440 0.024440 0.342160
v 0.024440 0.073320 0.293280
v -0.024440 0.073320 0.293280
v 0.024440 0.024440 0.293280
v -0.024440 0.024440 0.293280
vn 1.0000 -0.0000 -0.0000
vn -0.0000 -0.0000 1.0000
vn -1.0000 -0.0000 -0.0000
vn -0.0000 -0.0000 -1.0000
vn -0.0000 1.0000 -0.0000
vn -0.0000 -1.0000 -0.0000
vt 0.937500 0.500000
vt 1.000000 0.437500
vt 0.937500 0.312500
vt 0.937500 0.562500
vt 1.000000 0.500000
vt 0.937500 0.250000
vt 0.937500 0.437500
vt 1.000000 0.375000
vt 0.937500 0.250000
vt 0.937500 0.500000
vt 1.000000 0.437500
vt 0.937500 0.187500
vt 1.000000 0.562500
vt 0.937500 0.375000
vt 1.000000 0.250000
vt 0.937500 0.437500
vt 1.000000 0.375000
vt 1.000000 0.312500
vt 1.000000 0.500000
vt 0.937500 0.312500
vt 1.000000 0.187500
vt 0.937500 0.375000
vt 1.000000 0.312500
vt 1.000000 0.250000
s 0
usemtl m_6408e22f-ad4a-a72c-0ba0-b865212e56f5
f 36/105/25 39/114/25 37/108/25 34/99/25
f 35/102/26 36/106/26 34/100/26 33/96/26
f 40/117/27 35/103/27 33/97/27 38/111/27
f 39/115/28 40/118/28 38/112/28 37/109/28
f 38/113/29 33/98/29 34/101/29 37/110/29
f 39/116/30 36/107/30 35/104/30 40/119/30
o cube.005
v -0.024440 0.073320 0.391040
v 0.024440 0.073320 0.391040
v -0.024440 0.024440 0.391040
v 0.024440 0.024440 0.391040
v 0.024440 0.073320 0.342160
v -0.024440 0.073320 0.342160
v 0.024440 0.024440 0.342160
v -0.024440 0.024440 0.342160
vn 1.0000 -0.0000 -0.0000
vn -0.0000 -0.0000 1.0000
vn -1.0000 -0.0000 -0.0000
vn -0.0000 -0.0000 -1.0000
vn -0.0000 1.0000 -0.0000
vn -0.0000 -1.0000 -0.0000
vt 0.000000 0.062500
vt 0.125000 0.062500
vt 0.187500 0.062500
vt 0.875000 0.125000
vt 0.062500 0.062500
vt 0.187500 0.000000
vt 0.000000 0.000000
vt 0.125000 0.000000
vt 0.937500 0.625000
vt 0.875000 0.062500
vt 0.062500 0.000000
vt 0.937500 0.562500
vt 0.937500 0.125000
vt 0.125000 0.062500
vt 0.250000 0.000000
vt 0.062500 0.062500
vt 0.187500 0.062500
vt 0.250000 0.062500
vt 0.937500 0.062500
vt 0.125000 0.000000
vt 1.000000 0.562500
vt 0.062500 0.000000
vt 0.187500 0.000000
vt 1.000000 0.625000
s 0
usemtl m_6408e22f-ad4a-a72c-0ba0-b865212e56f5
f 44/129/31 47/138/31 45/132/31 42/123/31
f 43/126/32 44/130/32 42/124/32 41/120/32
f 48/141/33 43/127/33 41/121/33 46/135/33
f 47/139/34 48/142/34 46/136/34 45/133/34
f 46/137/35 41/122/35 42/125/35 45/134/35
f 47/140/36 44/131/36 43/128/36 48/143/36
o cube.006
v -0.061100 0.109980 0.146640
v 0.061100 0.109980 0.146640
v -0.061100 -0.012220 0.146640
v 0.061100 -0.012220 0.146640
v 0.061100 0.109980 -0.293280
v -0.061100 0.109980 -0.293280
v 0.061100 -0.012220 -0.293280
v -0.061100 -0.012220 -0.293280
vn 1.0000 -0.0000 -0.0000
vn -0.0000 -0.0000 1.0000
vn -1.0000 -0.0000 -0.0000
vn -0.0000 -0.0000 -1.0000
vn -0.0000 1.0000 -0.0000
vn -0.0000 -1.0000 -0.0000
vt 0.562500 0.625000
vt 0.562500 0.812500
vt 0.000000 0.625000
vt 0.000000 1.000000
vt 0.750000 0.625000
vt 0.000000 0.437500
vt 0.562500 0.437500
vt 0.562500 0.625000
vt 0.000000 0.437500
vt 0.000000 0.812500
vt 0.750000 0.437500
vt 0.000000 0.250000
vt 0.562500 1.000000
vt 0.562500 0.437500
vt 0.000000 0.812500
vt 0.750000 0.437500
vt 0.562500 0.625000
vt 0.562500 0.812500
vt 0.562500 0.250000
vt 0.000000 0.625000
vt 0.750000 0.250000
vt 0.562500 0.437500
s 0
usemtl m_6408e22f-ad4a-a72c-0ba0-b865212e56f5
f 52/153/37 55/161/37 53/156/37 50/147/37
f 51/150/38 52/154/38 50/148/38 49/144/38
f 56/163/39 51/151/39 49/145/39 54/158/39
f 55/162/40 56/164/40 54/159/40 53/157/40
f 54/160/41 49/146/41 50/149/41 53/157/41
f 55/162/42 52/155/42 51/152/42 56/165/42
o cube.007
v -0.061100 0.109980 -0.317720
v 0.061100 0.109980 -0.317720
v -0.061100 -0.012220 -0.317720
v 0.061100 -0.012220 -0.317720
v 0.061100 0.109980 -0.391040
v -0.061100 0.109980 -0.391040
v 0.061100 -0.012220 -0.391040
v -0.061100 -0.012220 -0.391040
vn 1.0000 -0.0000 -0.0000
vn -0.0000 -0.0000 1.0000
vn -1.0000 -0.0000 -0.0000
vn -0.0000 -0.0000 -1.0000
vn -0.0000 1.0000 -0.0000
vn -0.0000 -1.0000 -0.0000
vt 0.562500 1.000000
vt 0.875000 1.000000
vt 0.125000 0.250000
vt 0.000000 0.250000
vt 0.750000 1.000000
vt 0.125000 0.062500
vt 0.562500 0.812500
vt 0.875000 0.812500
vt 0.750000 0.812500
vt 0.000000 0.062500
vt 0.750000 0.812500
vt 0.750000 0.625000
vt 0.125000 0.250000
vt 0.562500 0.812500
vt 0.250000 0.062500
vt 0.750000 1.000000
vt 0.750000 0.812500
vt 0.250000 0.250000
vt 0.125000 0.062500
vt 0.562500 0.625000
vt 0.875000 0.625000
vt 0.750000 0.812500
vt 0.750000 0.625000
vt 0.875000 0.812500
s 0
usemtl m_6408e22f-ad4a-a72c-0ba0-b865212e56f5
f 60/175/43 63/184/43 61/178/43 58/169/43
f 59/172/44 60/176/44 58/170/44 57/166/44
f 64/187/45 59/173/45 57/167/45 62/181/45
f 63/185/46 64/188/46 62/182/46 61/179/46
f 62/183/47 57/168/47 58/171/47 61/180/47
f 63/186/48 60/177/48 59/174/48 64/189/48
