# Blender 3.6.23
# www.blender.org
mtllib 2b14.mtl
o base
v -0.437500 0.250000 0.437500
v -0.437500 0.250000 -0.437500
v -0.437500 0.187500 0.437500
v -0.437500 0.187500 -0.437500
v 0.437500 0.250000 0.437500
v 0.437500 0.250000 -0.437500
v 0.437500 0.187500 0.437500
v 0.437500 0.187500 -0.437500
v 0.187500 0.187500 0.312500
v -0.187500 0.187500 0.312500
v 0.187500 -0.125000 0.312500
v -0.187500 -0.125000 0.312500
v -0.000000 0.187500 -0.000000
v -0.000000 0.187500 0.312500
v -0.000000 -0.125000 0.000000
v -0.000000 -0.125000 0.312500
v 0.176883 0.187500 -0.318630
v 0.364383 0.187500 0.006130
v 0.176883 -0.125000 -0.318630
v 0.364383 -0.125000 0.006130
v 0.000000 0.187500 -0.000000
v 0.270633 0.187500 -0.156250
v -0.000000 -0.125000 0.000000
v 0.270633 -0.125000 -0.156250
v -0.364383 0.187500 0.006130
v -0.176883 0.187500 -0.318630
v -0.364383 -0.125000 0.006130
v -0.176883 -0.125000 -0.318630
v 0.000000 0.187500 -0.000000
v -0.270633 0.187500 -0.156250
v -0.000000 -0.125000 0.000000
v -0.270633 -0.125000 -0.156250
v 0.187500 0.187500 0.312500
v -0.187500 0.187500 0.312500
v 0.187500 -0.125000 0.312500
v -0.187500 -0.125000 0.312500
v -0.000000 0.187500 -0.000000
v -0.000000 0.187500 0.312500
v -0.000000 -0.125000 0.000000
v -0.000000 -0.125000 0.312500
v 0.176883 0.187500 -0.318630
v 0.364383 0.187500 0.006130
v 0.176883 -0.125000 -0.318630
v 0.364383 -0.125000 0.006130
v 0.000000 0.187500 -0.000000
v 0.270633 0.187500 -0.156250
v -0.000000 -0.125000 0.000000
v 0.270633 -0.125000 -0.156250
v -0.364383 0.187500 0.006130
v -0.176883 0.187500 -0.318630
v -0.364383 -0.125000 0.006130
v -0.176883 -0.125000 -0.318630
v 0.000000 0.187500 -0.000000
v -0.270633 0.187500 -0.156250
v -0.000000 -0.125000 0.000000
v -0.270633 -0.125000 -0.156250
vn -1.0000 -0.0000 -0.0000
vn 1.0000 -0.0000 -0.0000
vn -0.0000 1.0000 -0.0000
vn -0.0000 -1.0000 -0.0000
vn -0.0000 -0.0000 1.0000
vn -0.0000 -0.0000 -1.0000
vn 0.8660 -0.0000 -0.5000
vn -0.5000 -0.0000 -0.8660
vn -0.8660 -0.0000 -0.5000
vn -0.5000 -0.0000 0.8660
vn -0.8660 -0.0000 0.5000
vn 0.5000 -0.0000 0.8660
vn 0.8660 -0.0000 0.5000
vn 0.5000 -0.0000 -0.8660
vt 0.000000 0.515625
vt 0.000000 0.531250
vt 0.218750 0.531250
vt 0.218750 0.515625
vt 0.328125 0.531250
vt 0.546875 0.531250
vt 0.546875 0.515625
vt 0.328125 0.515625
vt 0.218750 1.000000
vt 0.218750 0.781250
vt 0.000000 0.781250
vt 0.000000 1.000000
vt 0.000000 0.765625
vt 0.218750 0.765625
vt 0.218750 0.546875
vt 0.000000 0.546875
vt 0.000000 0.500000
vt 0.218750 0.500000
vt 0.218750 0.484375
vt 0.000000 0.484375
vt 0.328125 0.484375
vt 0.328125 0.500000
vt 0.546875 0.500000
vt 0.546875 0.484375
vt 0.421875 0.921875
vt 0.421875 1.000000
vt 0.515625 1.000000
vt 0.515625 0.921875
vt 0.421875 0.640625
vt 0.421875 0.718750
vt 0.500000 0.718750
vt 0.500000 0.640625
s 0
usemtl m_ccf1fe98-c5a2-63c0-ab0d-a3eda1a7b8c1
f 3/1/1 1/2/1 2/3/1 4/4/1
f 6/5/2 5/6/2 7/7/2 8/8/2
f 2/9/3 1/10/3 5/11/3 6/12/3
f 7/13/4 3/14/4 4/15/4 8/16/4
f 5/17/5 1/18/5 3/19/5 7/20/5
f 4/21/6 2/22/6 6/23/6 8/24/6
f 11/25/5 9/26/5 10/27/5 12/28/5
f 15/29/2 13/30/2 14/31/2 16/32/2
f 19/25/7 17/26/7 18/27/7 20/28/7
f 23/29/8 21/30/8 22/31/8 24/32/8
f 27/25/9 25/26/9 26/27/9 28/28/9
f 31/29/10 29/30/10 30/31/10 32/32/10
f 34/27/6 33/26/6 35/25/6 36/28/6
f 38/31/1 37/30/1 39/29/1 40/32/1
f 42/27/11 41/26/11 43/25/11 44/28/11
f 46/31/12 45/30/12 47/29/12 48/32/12
f 50/27/13 49/26/13 51/25/13 52/28/13
f 54/31/14 53/30/14 55/29/14 56/32/14
