# Blender 3.6.23
# www.blender.org
mtllib 2b14_turret.mtl
o elevator
v -0.250488 0.871250 0.720002
v -0.250488 0.978796 0.566411
v -0.250488 0.820053 0.684153
v -0.250488 0.927599 0.530562
v -0.250488 0.871250 0.720002
v -0.250488 0.978796 0.566411
v -0.250488 0.820053 0.684153
v -0.250488 0.927599 0.530562
v -0.312988 0.942947 0.617608
v -0.312988 0.978796 0.566411
v -0.312988 0.891750 0.581759
v -0.312988 0.927599 0.530562
v -0.250488 0.942947 0.617608
v -0.250488 0.978796 0.566411
v -0.250488 0.891750 0.581759
v -0.250488 0.927599 0.530562
v -0.031250 0.273624 0.825317
v -0.031250 0.877328 0.663555
v -0.031250 0.257448 0.764947
v -0.031250 0.861151 0.603185
v 0.031250 0.273624 0.825317
v 0.031250 0.877328 0.663555
v 0.031250 0.257448 0.764947
v 0.031250 0.861151 0.603185
v -0.023746 0.344353 0.871070
v -0.037273 0.403292 0.855277
v -0.023746 0.328177 0.810700
v -0.037273 0.387116 0.794907
v 0.342366 0.422752 0.850063
v 0.328838 0.481691 0.834270
v 0.342366 0.406576 0.789693
v 0.328838 0.465515 0.773900
v -0.273564 0.073413 0.878963
v -0.081177 0.583979 0.742158
v -0.273564 0.057237 0.818593
v -0.081177 0.567803 0.681787
v -0.214833 0.052765 0.884496
v -0.022446 0.563331 0.747690
v -0.214833 0.036589 0.824126
v -0.022446 0.547155 0.687320
v -0.281250 -0.036316 0.876013
v -0.281250 0.084425 0.843661
v -0.218750 -0.036316 0.876013
v -0.218750 0.084425 0.843661
v 0.273564 0.073413 0.878963
v 0.081177 0.583979 0.742158
v 0.273564 0.057237 0.818593
v 0.081177 0.567803 0.681787
v 0.214833 0.052765 0.884496
v 0.022446 0.563331 0.747690
v 0.214833 0.036589 0.824126
v 0.022446 0.547155 0.687320
v 0.281250 -0.036316 0.876013
v 0.281250 0.084425 0.843661
v 0.218750 -0.036316 0.876013
v 0.218750 0.084425 0.843661
v -0.281250 -0.036316 0.876013
v -0.281250 0.084425 0.843661
v -0.218750 -0.036316 0.876013
v -0.218750 0.084425 0.843661
v 0.281250 -0.036316 0.876013
v 0.281250 0.084425 0.843661
v 0.218750 -0.036316 0.876013
v 0.218750 0.084425 0.843661
v -0.343750 0.108689 0.934216
v -0.343750 0.060160 0.753105
v -0.156250 0.108689 0.934216
v -0.156250 0.060160 0.753105
v 0.343750 0.108689 0.934216
v 0.343750 0.060160 0.753105
v 0.156250 0.108689 0.934216
v 0.156250 0.060160 0.753105
v -0.343750 0.108689 0.934216
v -0.343750 0.060160 0.753105
v -0.156250 0.108689 0.934216
v -0.156250 0.060160 0.753105
v 0.343750 0.108689 0.934216
v 0.343750 0.060160 0.753105
v 0.156250 0.108689 0.934216
v 0.156250 0.060160 0.753105
v -0.075444 1.012069 0.627858
v -0.031250 1.037417 0.591656
v -0.075444 0.551296 0.305221
v -0.031250 0.576644 0.269019
v -0.031250 0.986720 0.664059
v 0.012944 1.012069 0.627858
v -0.031250 0.525947 0.341423
v 0.012944 0.551296 0.305221
v -0.012944 1.012069 0.627858
v 0.031250 1.037417 0.591656
v -0.012944 0.551296 0.305221
v 0.031250 0.576644 0.269019
v 0.031250 0.986720 0.664059
v 0.075444 1.012069 0.627858
v 0.031250 0.525947 0.341423
v 0.075444 0.551296 0.305221
v -0.250000 0.907099 0.668805
v -0.250000 0.942947 0.617608
v -0.250000 0.855902 0.632956
v -0.250000 0.891750 0.581759
v 0.125000 0.907099 0.668805
v 0.125000 0.942947 0.617608
v 0.125000 0.855902 0.632956
v 0.125000 0.891750 0.581759
v -0.125000 0.876402 0.494714
v -0.125000 0.912250 0.443517
v -0.125000 0.774008 0.423017
v -0.125000 0.809856 0.371820
v -0.062500 0.876402 0.494714
v -0.062500 0.912250 0.443517
v -0.062500 0.774008 0.423017
v -0.062500 0.809856 0.371820
v 0.062500 0.942947 0.617608
v 0.062500 1.014644 0.515214
v 0.062500 0.891750 0.581759
v 0.062500 0.963447 0.479365
v 0.125000 0.942947 0.617608
v 0.125000 1.014644 0.515214
v 0.125000 0.891750 0.581759
v 0.125000 0.963447 0.479365
v -0.062500 1.132387 0.673956
v -0.062500 1.204084 0.571562
v 0.062500 1.132387 0.673956
v 0.062500 1.204084 0.571562
v -0.062500 1.593160 0.996593
v -0.062500 1.664857 0.894199
v -0.062500 0.210841 0.028683
v -0.062500 0.282538 -0.073711
v 0.062500 1.593160 0.996593
v 0.062500 1.664857 0.894199
v 0.062500 0.210841 0.028683
v 0.062500 0.282538 -0.073711
v -0.062500 1.593160 0.996593
v -0.062500 1.664857 0.894199
v -0.062500 0.210841 0.028683
v -0.062500 0.282538 -0.073711
v 0.062500 1.593160 0.996593
v 0.062500 1.664857 0.894199
v 0.062500 0.210841 0.028683
v 0.062500 0.282538 -0.073711
v 0.137944 0.964959 0.580152
v 0.137944 1.097541 0.447569
v 0.093750 0.933709 0.548902
v 0.093750 1.066291 0.416319
v 0.093750 0.996209 0.611402
v 0.093750 1.128791 0.478819
v 0.049556 0.964959 0.580152
v 0.049556 1.097541 0.447569
v 0.093750 1.012944 0.638861
v 0.093750 1.012944 0.576361
v 0.137944 0.968750 0.638861
v 0.137944 0.968750 0.576361
v 0.049556 0.968750 0.638861
v 0.049556 0.968750 0.576361
v 0.093750 0.924556 0.638861
v 0.093750 0.924556 0.576361
vn -1.0000 -0.0000 -0.0000
vn 1.0000 -0.0000 -0.0000
vn -0.0000 0.8192 0.5736
vn -0.0000 -0.8192 -0.5736
vn -0.0000 -0.5736 0.8192
vn -0.0000 0.5736 -0.8192
vn -0.0000 0.2588 0.9659
vn -0.0000 -0.2588 -0.9659
vn -0.0000 -0.9659 0.2588
vn -0.0000 0.9659 -0.2588
vn -0.9763 -0.2091 0.0560
vn 0.9763 0.2091 -0.0560
vn 0.2164 -0.9430 0.2527
vn -0.2164 0.9430 -0.2527
vn -0.9397 0.3304 -0.0885
vn 0.9397 -0.3304 0.0885
vn -0.3420 -0.9077 0.2432
vn 0.3420 0.9077 -0.2432
vn 0.9397 0.3304 -0.0885
vn -0.9397 -0.3304 0.0885
vn 0.3420 -0.9077 0.2432
vn -0.3420 0.9077 -0.2432
vn -0.7071 0.4056 -0.5792
vn 0.7071 -0.4056 0.5792
vn -0.7071 -0.4056 0.5792
vn 0.7071 0.4056 -0.5792
vn 0.7071 -0.5000 -0.5000
vn -0.7071 0.5000 0.5000
vn 0.7071 0.5000 0.5000
vn -0.7071 -0.5000 -0.5000
vn -0.0000 -0.7071 0.7071
vn -0.0000 0.7071 -0.7071
vn 0.7071 0.7071 -0.0000
vn -0.7071 -0.7071 -0.0000
vn -0.7071 0.7071 -0.0000
vn 0.7071 -0.7071 -0.0000
vn -0.0000 -0.0000 1.0000
vn -0.0000 -0.0000 -1.0000
vt 0.375000 0.546875
vt 0.375000 0.562500
vt 0.328125 0.562500
vt 0.328125 0.546875
vt 0.656250 0.546875
vt 0.656250 0.562500
vt 0.671875 0.562500
vt 0.671875 0.546875
vt 0.671875 0.484375
vt 0.671875 0.468750
vt 0.656250 0.468750
vt 0.656250 0.484375
vt 0.562500 0.343750
vt 0.578125 0.343750
vt 0.578125 0.328125
vt 0.562500 0.328125
vt 0.656250 0.421875
vt 0.671875 0.421875
vt 0.671875 0.406250
vt 0.656250 0.406250
vt 0.593750 0.328125
vt 0.593750 0.343750
vt 0.609375 0.343750
vt 0.609375 0.328125
vt 0.515625 0.703125
vt 0.515625 0.718750
vt 0.671875 0.718750
vt 0.671875 0.703125
vt 0.515625 0.687500
vt 0.671875 0.687500
vt 0.671875 0.671875
vt 0.515625 0.671875
vt 0.015625 0.468750
vt 0.015625 0.312500
vt 0.000000 0.312500
vt 0.000000 0.468750
vt 0.531250 1.000000
vt 0.546875 1.000000
vt 0.546875 0.843750
vt 0.531250 0.843750
vt 0.609375 0.375000
vt 0.625000 0.375000
vt 0.625000 0.359375
vt 0.609375 0.359375
vt 0.640625 0.750000
vt 0.640625 0.765625
vt 0.656250 0.765625
vt 0.656250 0.750000
vt 0.406250 0.343750
vt 0.406250 0.359375
vt 0.421875 0.359375
vt 0.421875 0.343750
vt 0.468750 0.359375
vt 0.484375 0.359375
vt 0.484375 0.343750
vt 0.468750 0.343750
vt 0.656250 0.937500
vt 0.656250 0.921875
vt 0.562500 0.921875
vt 0.562500 0.937500
vt 0.562500 0.906250
vt 0.656250 0.906250
vt 0.656250 0.890625
vt 0.562500 0.890625
vt 0.562500 0.875000
vt 0.656250 0.875000
vt 0.656250 0.859375
vt 0.562500 0.859375
vt 0.468750 0.421875
vt 0.468750 0.437500
vt 0.562500 0.437500
vt 0.562500 0.421875
vt 0.515625 0.640625
vt 0.515625 0.656250
vt 0.656250 0.656250
vt 0.656250 0.640625
vt 0.515625 0.625000
vt 0.656250 0.625000
vt 0.656250 0.609375
vt 0.515625 0.609375
vt 0.296875 0.468750
vt 0.296875 0.328125
vt 0.281250 0.328125
vt 0.281250 0.468750
vt 0.312500 0.468750
vt 0.328125 0.468750
vt 0.328125 0.328125
vt 0.312500 0.328125
vt 0.640625 0.515625
vt 0.656250 0.515625
vt 0.656250 0.500000
vt 0.640625 0.500000
vt 0.500000 0.343750
vt 0.500000 0.359375
vt 0.515625 0.359375
vt 0.515625 0.343750
vt 0.593750 0.453125
vt 0.593750 0.421875
vt 0.578125 0.421875
vt 0.578125 0.453125
vt 0.531250 0.828125
vt 0.671875 0.828125
vt 0.671875 0.812500
vt 0.531250 0.812500
vt 0.531250 0.781250
vt 0.531250 0.796875
vt 0.671875 0.796875
vt 0.671875 0.781250
vt 0.359375 0.328125
vt 0.343750 0.328125
vt 0.343750 0.468750
vt 0.359375 0.468750
vt 0.375000 0.328125
vt 0.375000 0.468750
vt 0.390625 0.468750
vt 0.390625 0.328125
vt 0.531250 0.343750
vt 0.531250 0.359375
vt 0.546875 0.359375
vt 0.546875 0.343750
vt 0.640625 0.453125
vt 0.656250 0.453125
vt 0.656250 0.437500
vt 0.640625 0.437500
vt 0.421875 0.375000
vt 0.406250 0.375000
vt 0.406250 0.406250
vt 0.421875 0.406250
vt 0.515625 0.546875
vt 0.515625 0.593750
vt 0.562500 0.593750
vt 0.562500 0.546875
vt 0.406250 0.468750
vt 0.453125 0.468750
vt 0.453125 0.421875
vt 0.406250 0.421875
vt 0.031250 0.328125
vt 0.031250 0.468750
vt 0.046875 0.468750
vt 0.046875 0.328125
vt 0.062500 0.468750
vt 0.078125 0.468750
vt 0.078125 0.328125
vt 0.062500 0.328125
vt 0.406250 0.562500
vt 0.406250 0.546875
vt 0.390625 0.546875
vt 0.390625 0.562500
vt 0.609375 0.515625
vt 0.625000 0.515625
vt 0.625000 0.500000
vt 0.609375 0.500000
vt 0.093750 0.468750
vt 0.109375 0.468750
vt 0.109375 0.328125
vt 0.093750 0.328125
vt 0.125000 0.328125
vt 0.125000 0.468750
vt 0.140625 0.468750
vt 0.140625 0.328125
vt 0.156250 0.328125
vt 0.156250 0.468750
vt 0.171875 0.468750
vt 0.171875 0.328125
vt 0.187500 0.468750
vt 0.203125 0.468750
vt 0.203125 0.328125
vt 0.187500 0.328125
vt 0.453125 0.375000
vt 0.453125 0.359375
vt 0.437500 0.359375
vt 0.437500 0.375000
vt 0.625000 0.484375
vt 0.640625 0.484375
vt 0.640625 0.468750
vt 0.625000 0.468750
vt 0.218750 0.468750
vt 0.234375 0.468750
vt 0.234375 0.328125
vt 0.218750 0.328125
vt 0.250000 0.328125
vt 0.250000 0.468750
vt 0.265625 0.468750
vt 0.265625 0.328125
vt 0.578125 0.359375
vt 0.578125 0.375000
vt 0.593750 0.375000
vt 0.593750 0.359375
vt 0.625000 0.406250
vt 0.640625 0.406250
vt 0.640625 0.390625
vt 0.625000 0.390625
vt 0.625000 0.765625
vt 0.625000 0.750000
vt 0.531250 0.750000
vt 0.531250 0.765625
vt 0.468750 0.468750
vt 0.562500 0.468750
vt 0.562500 0.453125
vt 0.468750 0.453125
vt 0.562500 1.000000
vt 0.656250 1.000000
vt 0.656250 0.984375
vt 0.562500 0.984375
vt 0.562500 0.953125
vt 0.562500 0.968750
vt 0.656250 0.968750
vt 0.656250 0.953125
vt 0.484375 0.375000
vt 0.484375 0.406250
vt 0.500000 0.406250
vt 0.500000 0.375000
vt 0.656250 0.375000
vt 0.656250 0.359375
vt 0.640625 0.359375
vt 0.640625 0.375000
vt 0.656250 0.593750
vt 0.671875 0.593750
vt 0.671875 0.578125
vt 0.656250 0.578125
vt 0.515625 0.406250
vt 0.531250 0.406250
vt 0.531250 0.375000
vt 0.515625 0.375000
vt 0.546875 0.375000
vt 0.546875 0.406250
vt 0.562500 0.406250
vt 0.562500 0.375000
vt 0.578125 0.390625
vt 0.578125 0.406250
vt 0.609375 0.406250
vt 0.609375 0.390625
vt 0.609375 0.546875
vt 0.640625 0.546875
vt 0.640625 0.531250
vt 0.609375 0.531250
vt 0.625000 0.453125
vt 0.625000 0.421875
vt 0.609375 0.421875
vt 0.609375 0.453125
vt 0.625000 0.593750
vt 0.640625 0.593750
vt 0.640625 0.562500
vt 0.625000 0.562500
vt 0.437500 0.328125
vt 0.437500 0.343750
vt 0.453125 0.343750
vt 0.453125 0.328125
vt 0.593750 0.531250
vt 0.593750 0.500000
vt 0.562500 0.500000
vt 0.562500 0.531250
vt 0.265625 1.000000
vt 0.234375 1.000000
vt 0.234375 0.578125
vt 0.265625 0.578125
vt 0.312500 0.578125
vt 0.312500 1.000000
vt 0.281250 1.000000
vt 0.281250 0.578125
vt 0.609375 0.562500
vt 0.609375 0.593750
vt 0.578125 0.593750
vt 0.578125 0.562500
vt 0.359375 0.578125
vt 0.359375 1.000000
vt 0.328125 1.000000
vt 0.328125 0.578125
vt 0.406250 1.000000
vt 0.375000 1.000000
vt 0.375000 0.578125
vt 0.406250 0.578125
vt 0.921875 0.265625
vt 0.875000 0.265625
vt 0.875000 0.250000
vt 0.921875 0.250000
vt 0.921875 0.218750
vt 0.921875 0.234375
vt 0.875000 0.234375
vt 0.875000 0.218750
vt 0.875000 0.156250
vt 0.890625 0.156250
vt 0.890625 0.203125
vt 0.875000 0.203125
vt 0.953125 0.218750
vt 0.953125 0.265625
vt 0.937500 0.265625
vt 0.937500 0.218750
vt 0.921875 0.187500
vt 0.921875 0.203125
vt 0.906250 0.203125
vt 0.906250 0.187500
vt 0.953125 0.203125
vt 0.937500 0.203125
vt 0.937500 0.187500
vt 0.953125 0.187500
vt 0.109375 0.140625
vt 0.109375 0.156250
vt 0.093750 0.156250
vt 0.093750 0.140625
vt 0.125000 0.140625
vt 0.125000 0.156250
vt 0.093750 0.125000
vt 0.109375 0.125000
vt 0.125000 0.171875
vt 0.140625 0.171875
vt 0.140625 0.156250
vt 0.109375 0.171875
vt 0.093750 0.171875
s 0
usemtl m_ccf1fe98-c5a2-63c0-ab0d-a3eda1a7b8c1
f 3/1/1 1/2/1 2/3/1 4/4/1
f 6/3/2 5/2/2 7/1/2 8/4/2
f 11/5/1 9/6/1 10/7/1 12/8/1
f 10/9/3 9/10/3 13/11/3 14/12/3
f 15/13/4 11/14/4 12/15/4 16/16/4
f 13/17/5 9/18/5 11/19/5 15/20/5
f 12/21/6 10/22/6 14/23/6 16/24/6
f 19/25/1 17/26/1 18/27/1 20/28/1
f 22/29/2 21/30/2 23/31/2 24/32/2
f 18/33/7 17/34/7 21/35/7 22/36/7
f 23/37/8 19/38/8 20/39/8 24/40/8
f 21/41/9 17/42/9 19/43/9 23/44/9
f 20/45/10 18/46/10 22/47/10 24/48/10
f 27/49/11 25/50/11 26/51/11 28/52/11
f 30/53/12 29/54/12 31/55/12 32/56/12
f 26/57/7 25/58/7 29/59/7 30/60/7
f 31/61/8 27/62/8 28/63/8 32/64/8
f 29/65/13 25/66/13 27/67/13 31/68/13
f 28/69/14 26/70/14 30/71/14 32/72/14
f 35/73/15 33/74/15 34/75/15 36/76/15
f 38/77/16 37/78/16 39/79/16 40/80/16
f 34/81/7 33/82/7 37/83/7 38/84/7
f 39/85/8 35/86/8 36/87/8 40/88/8
f 37/89/17 33/90/17 35/91/17 39/92/17
f 36/93/18 34/94/18 38/95/18 40/96/18
f 42/97/7 41/98/7 43/99/7 44/100/7
f 46/101/19 45/102/19 47/103/19 48/104/19
f 51/105/20 49/106/20 50/107/20 52/108/20
f 49/109/7 45/110/7 46/111/7 50/112/7
f 48/113/8 47/114/8 51/115/8 52/116/8
f 47/117/21 45/118/21 49/119/21 51/120/21
f 50/121/22 46/122/22 48/123/22 52/124/22
f 55/125/7 53/126/7 54/127/7 56/128/7
f 59/99/8 57/98/8 58/97/8 60/100/8
f 62/127/8 61/126/8 63/125/8 64/128/8
f 66/129/10 65/130/10 67/131/10 68/132/10
f 71/133/10 69/134/10 70/135/10 72/136/10
f 75/131/9 73/130/9 74/129/9 76/132/9
f 78/135/9 77/134/9 79/133/9 80/136/9
f 83/137/23 81/138/23 82/139/23 84/140/23
f 86/141/24 85/142/24 87/143/24 88/144/24
f 82/145/3 81/146/3 85/147/3 86/148/3
f 87/149/4 83/150/4 84/151/4 88/152/4
f 85/153/25 81/154/25 83/155/25 87/156/25
f 84/157/26 82/158/26 86/159/26 88/160/26
f 91/161/23 89/162/23 90/163/23 92/164/23
f 94/165/24 93/166/24 95/167/24 96/168/24
f 90/169/3 89/170/3 93/171/3 94/172/3
f 95/173/4 91/174/4 92/175/4 96/176/4
f 93/177/25 89/178/25 91/179/25 95/180/25
f 92/181/26 90/182/26 94/183/26 96/184/26
f 99/185/1 97/186/1 98/187/1 100/188/1
f 102/189/2 101/190/2 103/191/2 104/192/2
f 98/193/3 97/194/3 101/195/3 102/196/3
f 103/197/4 99/198/4 100/199/4 104/200/4
f 101/201/5 97/202/5 99/203/5 103/204/5
f 100/205/6 98/206/6 102/207/6 104/208/6
f 107/209/1 105/210/1 106/211/1 108/212/1
f 106/213/3 105/214/3 109/215/3 110/216/3
f 111/217/4 107/218/4 108/219/4 112/220/4
f 109/221/5 105/222/5 107/223/5 111/224/5
f 108/225/6 106/226/6 110/227/6 112/228/6
f 115/229/1 113/230/1 114/231/1 116/232/1
f 118/233/2 117/234/2 119/235/2 120/236/2
f 114/237/3 113/238/3 117/239/3 118/240/3
f 119/241/4 115/242/4 116/243/4 120/244/4
f 116/245/6 114/246/6 118/247/6 120/248/6
f 122/249/3 121/250/3 123/251/3 124/252/3
f 126/253/2 125/254/2 127/255/2 128/256/2
f 131/257/1 129/258/1 130/259/1 132/260/1
f 128/261/3 127/262/3 131/263/3 132/264/3
f 127/265/6 125/266/6 129/267/6 131/268/6
f 130/269/5 126/270/5 128/271/5 132/272/5
f 135/255/1 133/254/1 134/253/1 136/256/1
f 138/259/2 137/258/2 139/257/2 140/260/2
f 139/263/4 135/262/4 136/261/4 140/264/4
f 137/267/5 133/266/5 135/265/5 139/268/5
f 136/271/6 134/270/6 138/269/6 140/272/6
f 142/273/27 141/274/27 143/275/27 144/276/27
f 147/277/28 145/278/28 146/279/28 148/280/28
f 145/281/29 141/282/29 142/283/29 146/284/29
f 144/285/30 143/286/30 147/287/30 148/288/30
f 143/289/31 141/290/31 145/291/31 147/292/31
f 146/293/32 142/294/32 144/295/32 148/296/32
f 152/297/33 150/298/33 149/299/33 151/300/33
f 155/301/34 153/302/34 154/298/34 156/297/34
f 149/300/35 150/303/35 154/304/35 153/297/35
f 152/302/36 151/305/36 155/306/36 156/307/36
f 151/302/37 149/305/37 153/308/37 155/298/37
f 156/298/38 154/308/38 150/309/38 152/299/38
