# Blender 3.6.23
# www.blender.org
mtllib 9m729.mtl
o mesh
v -0.000000 -0.732000 6.289512
v 0.732001 0.000001 6.289512
v -0.000000 -0.900924 -0.240248
v 0.900924 -0.000000 -0.240248
v -0.732001 0.000001 6.289512
v 0.000000 0.732002 6.289512
v -0.900924 0.000000 -0.240248
v 0.000000 0.900924 -0.240248
v -0.000000 -0.281537 10.430336
v 0.281539 0.000002 10.430336
v -0.281539 0.000002 10.430336
v 0.000000 0.281541 10.430336
v -0.000000 -0.056306 11.306280
v 0.056308 0.000002 11.306280
v -0.056308 0.000002 11.306280
v 0.000000 0.056310 11.306280
vn 0.7070 -0.7070 0.0183
vn -0.7070 0.7070 0.0183
vn -0.0000 -0.0000 1.0000
vn -0.0000 -0.0000 -1.0000
vn -0.7070 -0.7070 0.0183
vn 0.7070 0.7070 0.0183
vn -0.7050 -0.7050 0.0767
vn 0.7050 -0.7050 0.0767
vn 0.7050 0.7050 0.0767
vn -0.7050 0.7050 0.0767
vn -0.6957 -0.6957 0.1789
vn 0.6957 -0.6957 0.1789
vn 0.6957 0.6957 0.1789
vn -0.6957 0.6957 0.1789
vt 0.189453 0.752602
vt 0.138672 0.752602
vt 0.132812 0.432236
vt 0.195312 0.432236
vt 0.261719 0.432236
vt 0.255859 0.752602
vt 0.205078 0.752602
vt 0.199219 0.432236
vt 0.000000 0.996094
vt 0.003906 0.996094
vt 0.003906 1.000000
vt 0.000000 1.000000
vt 0.308594 0.937500
vt 0.308594 1.000000
vt 0.246094 1.000000
vt 0.246094 0.937500
vt 0.062500 0.432236
vt 0.056641 0.752602
vt 0.005859 0.752602
vt 0.000000 0.432236
vt 0.123047 0.752602
vt 0.072266 0.752602
vt 0.066406 0.432236
vt 0.128906 0.432236
vt 0.041016 0.956327
vt 0.021484 0.956327
vt 0.173828 0.956327
vt 0.154297 0.956327
vt 0.107422 0.956327
vt 0.087891 0.956327
vt 0.240234 0.956327
vt 0.220703 0.956327
vt 0.033203 1.000000
vt 0.029297 1.000000
vt 0.166016 1.000000
vt 0.162109 1.000000
vt 0.099609 1.000000
vt 0.095703 1.000000
vt 0.232422 1.000000
vt 0.228516 1.000000
s 0
usemtl m_49b96e62-7a76-95a0-cdc0-3f669bf96ae0
f 2/1/1 1/2/1 3/3/1 4/4/1
f 7/5/2 5/6/2 6/7/2 8/8/2
f 15/9/3 13/10/3 14/11/3 16/12/3
f 4/13/4 3/14/4 7/15/4 8/16/4
f 3/17/5 1/18/5 5/19/5 7/20/5
f 6/21/6 2/22/6 4/23/6 8/24/6
f 9/25/7 11/26/7 5/19/7 1/18/7
f 10/27/8 9/28/8 1/2/8 2/1/8
f 12/29/9 10/30/9 2/22/9 6/21/9
f 11/31/10 12/32/10 6/7/10 5/6/10
f 13/33/11 15/34/11 11/26/11 9/25/11
f 14/35/12 13/36/12 9/28/12 10/27/12
f 16/37/13 14/38/13 10/30/13 12/29/13
f 15/39/14 16/40/14 12/32/14 11/31/14
o mesh.001
v -0.489792 -0.394154 1.352376
v -0.489792 -0.394154 1.352376
v -0.489792 -0.394154 -0.240248
v -0.940255 -0.844617 0.688783
v -0.940255 -0.844617 0.688783
v -0.940255 -0.844617 -0.240248
v -0.940255 -0.844617 -0.240248
v -0.489792 -0.394154 0.290627
v -0.940255 -0.844617 0.290627
v -0.489792 -0.394154 -0.240248
vn 1.0000 -0.0000 -0.0000
vn -0.0000 -1.0000 -0.0000
vn 0.7071 -0.7071 -0.0000
vn -0.7071 0.7071 -0.0000
vt 0.000000 1.000000
vt 0.031250 1.000000
vt 0.328125 0.781250
vt 0.328125 0.808594
vt 0.296875 0.808594
vt 0.296875 0.781250
vt 0.328125 0.750000
vt 0.328125 0.777344
vt 0.296875 0.777344
vt 0.296875 0.750000
vt 0.257812 0.878906
vt 0.257812 0.828125
vt 0.289062 0.828125
vt 0.289062 0.846354
vt 0.261719 0.791667
vt 0.261719 0.773438
vt 0.292969 0.773438
vt 0.292969 0.824219
s 0
usemtl m_49b96e62-7a76-95a0-cdc0-3f669bf96ae0
f 18/41/15 24/41/15 19/41/15
f 20/41/16 25/41/16 23/41/16
f 17/42/16 20/41/16 21/41/16
f 19/42/16 22/41/16 26/42/16 23/41/16
f 19/43/17 24/44/17 25/45/17 22/46/17
f 23/47/18 25/48/18 24/49/18 26/50/18
f 17/41/15 24/41/15 26/41/15
f 18/51/18 24/52/18 25/53/18 21/54/18
f 21/41/16 25/41/16 22/41/16
f 20/55/17 25/56/17 24/57/17 17/58/17
f 18/42/16 20/41/16 21/41/16
o mesh.002
v -0.489792 0.394155 1.352376
v -0.489792 0.394155 1.352376
v -0.489792 0.394154 -0.240248
v -0.940255 0.844617 0.688783
v -0.940255 0.844617 0.688783
v -0.940255 0.844617 -0.240248
v -0.940255 0.844617 -0.240248
v -0.489792 0.394155 0.290627
v -0.940255 0.844617 0.290627
v -0.489792 0.394154 -0.240248
vn -0.0000 -1.0000 -0.0000
vn 0.7071 0.7071 -0.0000
vn -0.7071 -0.7071 -0.0000
vt 0.000000 1.000000
vt 0.031250 1.000000
vt 0.328125 0.746094
vt 0.296875 0.746094
vt 0.296875 0.718750
vt 0.328125 0.718750
vt 0.328125 0.714844
vt 0.296875 0.714844
vt 0.296875 0.687500
vt 0.328125 0.687500
vt 0.261719 0.718750
vt 0.292969 0.718750
vt 0.292969 0.769531
vt 0.261719 0.736979
vt 0.261719 0.664062
vt 0.292969 0.664062
vt 0.292969 0.682292
vt 0.261719 0.714844
s 0
usemtl m_49b96e62-7a76-95a0-cdc0-3f669bf96ae0
f 34/59/19 28/59/19 29/59/19
f 35/59/19 30/59/19 33/59/19
f 30/59/19 27/60/19 31/59/19
f 32/59/19 29/60/19 36/60/19 33/59/19
f 35/61/20 34/62/20 29/63/20 32/64/20
f 34/65/21 35/66/21 33/67/21 36/68/21
f 34/59/19 27/59/19 36/59/19
f 35/69/21 34/70/21 28/71/21 31/72/21
f 35/59/19 31/59/19 32/59/19
f 34/73/20 35/74/20 30/75/20 27/76/20
f 30/59/19 28/60/19 31/59/19
o mesh.003
v 0.489792 0.394155 1.352376
v 0.489792 0.394155 1.352376
v 0.489792 0.394154 -0.240248
v 0.940255 0.844617 0.688783
v 0.940255 0.844617 0.688783
v 0.940255 0.844617 -0.240248
v 0.940255 0.844617 -0.240248
v 0.489792 0.394155 0.290627
v 0.940255 0.844617 0.290627
v 0.489792 0.394154 -0.240248
vn -1.0000 -0.0000 -0.0000
vn -0.0000 -1.0000 -0.0000
vn -0.7071 0.7071 -0.0000
vn 0.7071 -0.7071 -0.0000
vt 0.000000 1.000000
vt 0.031250 1.000000
vt 0.320312 0.906250
vt 0.320312 0.933594
vt 0.289062 0.933594
vt 0.289062 0.906250
vt 0.320312 0.875000
vt 0.320312 0.902344
vt 0.289062 0.902344
vt 0.289062 0.875000
vt 0.046875 1.000000
vt 0.046875 0.949219
vt 0.078125 0.949219
vt 0.078125 0.967448
vt 0.113281 0.967448
vt 0.113281 0.949219
vt 0.144531 0.949219
vt 0.144531 1.000000
s 0
usemtl m_49b96e62-7a76-95a0-cdc0-3f669bf96ae0
f 38/77/22 44/77/22 39/77/22
f 40/77/23 45/77/23 43/77/23
f 37/77/23 40/78/23 41/78/23
f 39/77/23 42/78/23 46/77/23 43/78/23
f 39/79/24 44/80/24 45/81/24 42/82/24
f 43/83/25 45/84/25 44/85/25 46/86/25
f 37/77/22 44/77/22 46/77/22
f 38/87/25 44/88/25 45/89/25 41/90/25
f 41/77/23 45/77/23 42/77/23
f 40/91/24 45/92/24 44/93/24 37/94/24
f 38/77/23 40/78/23 41/78/23
o mesh.004
v 0.489792 -0.394154 1.352376
v 0.489792 -0.394154 1.352376
v 0.489792 -0.394154 -0.240248
v 0.940255 -0.844617 0.688783
v 0.940255 -0.844617 0.688783
v 0.940255 -0.844617 -0.240248
v 0.940255 -0.844617 -0.240248
v 0.489792 -0.394154 0.290627
v 0.940255 -0.844617 0.290627
v 0.489792 -0.394154 -0.240248
vn -0.0000 -1.0000 -0.0000
vn -0.7071 -0.7071 -0.0000
vn 0.7071 0.7071 -0.0000
vt 0.000000 1.000000
vt 0.031250 1.000000
vt 0.324219 0.871094
vt 0.292969 0.871094
vt 0.292969 0.843750
vt 0.324219 0.843750
vt 0.328125 0.839844
vt 0.296875 0.839844
vt 0.296875 0.812500
vt 0.328125 0.812500
vt 0.179688 0.949219
vt 0.210938 0.949219
vt 0.210938 1.000000
vt 0.179688 0.967448
vt 0.253906 0.882812
vt 0.285156 0.882812
vt 0.285156 0.901042
vt 0.253906 0.933594
s 0
usemtl m_49b96e62-7a76-95a0-cdc0-3f669bf96ae0
f 54/95/26 48/95/26 49/95/26
f 55/95/26 50/95/26 53/95/26
f 50/96/26 47/95/26 51/96/26
f 52/96/26 49/95/26 56/95/26 53/96/26
f 55/97/27 54/98/27 49/99/27 52/100/27
f 54/101/28 55/102/28 53/103/28 56/104/28
f 54/95/26 47/95/26 56/95/26
f 55/105/28 54/106/28 48/107/28 51/108/28
f 55/95/26 51/95/26 52/95/26
f 54/109/27 55/110/27 50/111/27 47/112/27
f 50/96/26 48/95/26 51/96/26
