# Blender 3.6.23
# www.blender.org
mtllib a10.mtl
o body
v -0.000001 2.183210 9.485734
v -0.141997 2.114829 9.485734
v -0.177067 1.961176 9.485734
v -0.078803 1.837956 9.485734
v 0.078801 1.837956 9.485734
v 0.177065 1.961176 9.485734
v 0.141995 2.114829 9.485734
v -0.000001 2.183210 8.554153
v -0.141997 2.114829 8.554153
v -0.177067 1.961176 8.554153
v -0.078802 1.837956 8.554153
v 0.078801 1.837956 8.554153
v 0.177065 1.961176 8.554153
v 0.141995 2.114829 8.554153
v -0.459220 3.693679 6.652028
v -0.638124 3.236990 7.122023
v -0.000001 3.693562 6.652133
v -0.000001 3.237302 7.122033
v -0.459220 4.069777 5.802771
v -0.000001 4.069739 5.802758
v -0.835358 3.298183 5.543452
v 0.459220 3.693679 6.652028
v 0.638124 3.236990 7.122023
v 0.000001 3.693562 6.652133
v 0.000001 3.237302 7.122033
v 0.459220 4.069777 5.802771
v 0.000001 4.069739 5.802758
v 0.835358 3.298183 5.543452
v 0.509967 3.812855 4.687084
v 0.509965 2.672840 5.109073
v -0.510926 3.812855 4.687084
v -0.510924 2.672841 5.109077
v -0.510926 3.866379 4.831686
v -0.510924 2.726342 5.253693
v 0.509965 3.866379 4.831686
v 0.509967 2.726341 5.253683
v 0.376080 2.714636 5.177004
v 0.376080 2.532491 5.191121
v -0.377041 2.714636 5.177004
v -0.377039 2.532491 5.191121
v -0.377041 2.766819 5.849790
v -0.377039 2.584700 5.863932
v 0.376082 2.766817 5.849790
v 0.376082 2.584700 5.863932
v -0.674111 3.780646 3.630493
v -0.835358 3.548229 4.567753
v 0.835358 3.548229 4.567753
v 0.674111 3.780646 3.630493
v 0.524614 2.617348 3.733171
v -0.524615 2.617348 3.733171
v 0.278452 3.780646 3.630493
v -0.278452 3.780646 3.630493
v -0.638124 3.237150 7.122074
v -0.835359 2.926305 6.995266
v -0.000001 3.340504 6.535490
v -0.638124 3.340504 6.535490
v -0.773377 2.984214 6.431368
v -0.212198 2.984214 6.431368
v -0.212198 2.403789 6.431369
v 0.212197 2.403789 6.431369
v 0.835357 2.926305 6.995266
v 0.638123 3.340504 6.535490
v 0.773375 2.984214 6.431368
v 0.212197 2.984214 6.431368
v -0.212198 2.939812 6.767135
v -0.212198 2.403789 6.767136
v 0.773377 2.984214 6.431368
v 0.212198 2.984214 6.431368
v 0.212198 2.403789 6.431369
v 0.212198 2.939812 6.767135
v 0.212198 2.403789 6.767136
v -0.140661 3.535742 6.563704
v -0.140661 3.324768 6.563704
v -0.173553 3.535742 6.563704
v -0.173553 3.324768 6.563704
v -0.173553 3.518397 6.729968
v -0.173553 3.271867 6.843575
v -0.140661 3.518397 6.729968
v -0.140661 3.271867 6.843575
v 0.140661 3.535742 6.563704
v 0.140661 3.324768 6.563704
v 0.173553 3.535742 6.563704
v 0.173553 3.324768 6.563704
v 0.173553 3.518397 6.729968
v 0.173553 3.271867 6.843575
v 0.140661 3.518397 6.729968
v 0.140661 3.271867 6.843575
v 0.142952 3.636195 6.583234
v -0.142953 3.636195 6.583234
v 0.142952 3.307033 6.690240
v -0.142953 3.307033 6.690240
v 0.142952 3.636195 6.586639
v -0.142953 3.636195 6.586639
v 0.142952 3.307033 6.693643
v -0.142953 3.307033 6.693643
v -0.638124 3.236990 7.122023
v -0.000001 4.082299 5.774401
v -0.459220 4.082379 5.774313
v -0.835358 3.308331 5.504135
v -0.459220 4.069777 5.802771
v -0.000001 4.069739 5.802758
v 0.638123 3.237150 7.122074
v 0.000001 4.082299 5.774401
v 0.459220 4.082379 5.774313
v 0.835358 3.308331 5.504135
v 0.459220 4.069777 5.802771
v 0.000001 4.069739 5.802758
v -0.000001 4.081639 5.773038
v -0.459220 4.081718 5.772951
v -0.835358 3.307671 5.502774
v -0.459220 4.069118 5.801409
v -0.000001 4.069081 5.801393
v -0.835358 3.298183 5.543452
v 0.000001 4.081639 5.773038
v 0.459220 4.081718 5.772951
v 0.835358 3.307671 5.502774
v 0.459220 4.069118 5.801409
v 0.000001 4.069081 5.801393
v 0.835358 3.298183 5.543452
v 0.470734 2.378049 -9.214891
v 0.314287 1.846164 -9.044963
v -0.470733 2.378049 -9.214891
v -0.314285 1.846164 -9.044963
v -0.314286 1.846165 3.630493
v -0.314286 1.846165 4.569643
v -0.314287 1.846165 5.962194
v -0.314287 1.846165 7.122023
v -0.311167 2.613689 8.765662
v -0.314287 1.846165 8.413757
v 0.311165 2.613689 8.765662
v 0.314285 1.846165 8.413757
v 0.314285 1.846165 7.122023
v 0.314286 1.846165 5.962194
v 0.314286 1.846165 4.569643
v 0.314286 1.846165 3.630493
v 0.470734 2.204069 -9.515821
v -0.470733 2.204069 -9.515821
v -0.835358 2.468891 3.630493
v -0.835358 2.468891 4.569643
v -0.835359 2.482906 7.122023
v -0.407342 2.390039 8.866058
v 0.407341 2.390039 8.866058
v 0.835357 2.482906 7.122023
v 0.835358 2.468891 4.569643
v 0.835358 2.468891 3.630493
v 0.744040 3.389711 -2.324942
v 0.403299 1.741789 -2.324942
v -0.744040 3.389711 -2.324942
v -0.403299 1.741789 -2.324942
v 0.859990 2.386943 -2.324942
v -0.859990 2.386943 -2.324942
v 0.481355 2.451296 -8.544078
v 0.314287 1.846164 -8.544078
v -0.481353 2.451296 -8.544078
v -0.314285 1.846164 -8.544078
v 0.497687 2.223644 -8.544078
v -0.497685 2.223644 -8.544078
v 0.194444 2.505002 -9.214891
v -0.194443 2.505002 -9.214891
v 0.104763 1.733315 -9.044963
v -0.104761 1.733315 -9.044963
v -0.135782 2.659203 8.891732
v 0.135780 2.659203 8.891732
v -0.104763 1.733316 8.550678
v 0.104761 1.733316 8.550678
v -0.000001 3.237302 7.122033
v 0.104761 1.733316 7.122023
v -0.104763 1.733316 7.122023
v 0.104761 1.733316 5.962194
v -0.104763 1.733316 5.962194
v 0.104762 1.733316 4.569643
v -0.104762 1.733316 4.569643
v 0.104762 1.733316 3.630493
v -0.104762 1.733316 3.630493
v 0.194444 2.204069 -9.515821
v -0.194442 2.204069 -9.515821
v -0.135782 2.362533 9.032165
v 0.135780 2.362533 9.032165
v 0.307337 3.465241 -2.324942
v -0.307336 3.465241 -2.324942
v 0.134434 1.596979 -2.324942
v -0.134434 1.596979 -2.324942
v 0.198831 2.571619 -8.544078
v -0.198830 2.571619 -8.544078
v 0.104763 1.733315 -8.544078
v -0.104761 1.733315 -8.544078
v -0.428992 2.664608 1.072675
v -2.931584 2.652588 0.973296
v -0.408971 2.263221 -2.246607
v -3.412081 2.253606 -2.326115
v -8.997866 2.919073 0.336074
v -9.838740 2.649879 -1.890031
v -9.818719 2.839757 -0.319834
v -9.748062 2.625811 0.250513
v 0.428992 2.664608 1.072676
v 2.931584 2.652588 0.973296
v 0.408972 2.263221 -2.246607
v 3.412082 2.253606 -2.326115
v 8.997866 2.919073 0.336074
v 9.838740 2.649879 -1.890028
v 9.818719 2.839757 -0.319831
v 9.748062 2.625811 0.250514
v -3.082345 1.716939 1.567639
v -3.082345 2.279797 -1.445469
v -3.082345 2.617041 0.855632
v -3.082345 2.655587 1.567639
v -3.082345 2.076103 2.173679
v -3.082345 1.694273 -0.592971
v -3.796403 2.279797 -1.445471
v -3.796403 2.617041 0.855632
v -3.796403 2.655587 1.567639
v -3.796403 2.076103 2.173679
v -3.796403 1.716937 -0.592971
v -3.796403 1.716937 1.567639
v 3.082345 1.716939 1.567639
v 3.082345 2.279797 -1.445469
v 3.082345 2.617041 0.855633
v 3.082345 2.655587 1.567639
v 3.082345 2.076103 2.173680
v 3.082345 1.694273 -0.592971
v 3.796403 2.279797 -1.445469
v 3.796403 2.617041 0.855633
v 3.796402 2.655587 1.567639
v 3.796402 2.076103 2.173680
v 3.796403 1.716937 -0.592971
v 3.796402 1.716937 1.567639
v -0.440455 2.184008 -7.262598
v -3.343214 2.184008 -7.222554
v -3.323193 2.184008 -8.704085
v -3.043151 2.184008 -9.364770
v -0.300311 2.184008 -9.364770
v -3.343242 2.505000 -7.259991
v -0.237975 2.505000 -7.259959
v 0.440457 2.184008 -7.262598
v 3.343216 2.184008 -7.222552
v 3.323194 2.184008 -8.704085
v 3.043153 2.184008 -9.364770
v 0.300313 2.184008 -9.364770
v 3.343243 2.505000 -7.259991
v 0.237976 2.505000 -7.259959
v -0.457303 2.754300 -5.655793
v -0.505694 2.394177 -5.634912
v -1.522711 3.000207 -5.655793
v -1.571102 2.640084 -5.634912
v -1.466977 3.241681 -3.102224
v -1.515368 2.881558 -3.081344
v -0.401568 2.995774 -3.102224
v -0.449959 2.635651 -3.081344
v 0.457303 2.754300 -5.655793
v 0.505694 2.394177 -5.634912
v 1.522711 3.000207 -5.655793
v 1.571102 2.640084 -5.634912
v 1.466977 3.241681 -3.102224
v 1.515368 2.881558 -3.081344
v 0.401568 2.995774 -3.102224
v 0.449959 2.635651 -3.081344
v -0.702027 2.224500 0.472685
v -0.702027 1.531361 1.084789
v -0.574982 2.224500 0.472685
v -0.574982 1.531361 1.084789
v -0.574984 2.224500 -1.229563
v -0.574984 1.531360 -1.229563
v -0.702027 2.224500 -1.229563
v -0.702027 1.531360 -1.229563
v -2.149031 2.224500 0.472685
v -2.149032 1.531361 1.084789
v -2.021987 2.224500 0.472685
v -2.021987 1.531361 1.084789
v -2.021988 2.224500 -1.229563
v -2.021988 1.531360 -1.229563
v -2.149031 2.224500 -1.229563
v -2.149031 1.531360 -1.229563
v -4.448698 2.310202 0.472685
v -4.448698 1.617062 1.084789
v -4.321653 2.310202 0.472685
v -4.321653 1.617062 1.084789
v -4.321655 2.310202 -1.229564
v -4.321655 1.617062 -1.229564
v -4.448698 2.310202 -1.229564
v -4.448698 1.617062 -1.229564
v -5.624393 2.376709 0.428471
v -5.624393 1.683569 1.040575
v -5.497346 2.376709 0.428471
v -5.497346 1.683569 1.040575
v -5.497349 2.376709 -1.273779
v -5.497349 1.683569 -1.273779
v -5.624393 2.376709 -1.273779
v -5.624393 1.683569 -1.273779
v -6.809882 2.523341 0.223817
v -6.809882 1.830200 0.835919
v -6.682838 2.523341 0.223817
v -6.682838 1.830200 0.835919
v -6.682840 2.523341 -1.478433
v -6.682840 1.830200 -1.478433
v -6.809882 2.523341 -1.478433
v -6.809882 1.830200 -1.478433
v 0.702027 2.224500 0.472685
v 0.702027 1.531361 1.084789
v 0.574982 2.224500 0.472685
v 0.574982 1.531361 1.084789
v 0.574984 2.224500 -1.229563
v 0.574984 1.531360 -1.229563
v 0.702027 2.224500 -1.229563
v 0.702027 1.531360 -1.229563
v 2.149031 2.224500 0.472685
v 2.149032 1.531361 1.084789
v 2.021987 2.224500 0.472685
v 2.021987 1.531361 1.084789
v 2.021988 2.224500 -1.229563
v 2.021988 1.531360 -1.229563
v 2.149031 2.224500 -1.229563
v 2.149031 1.531360 -1.229563
v 4.448698 2.310202 0.472685
v 4.448698 1.617062 1.084789
v 4.321653 2.310202 0.472685
v 4.321653 1.617062 1.084789
v 4.321655 2.310202 -1.229564
v 4.321655 1.617062 -1.229564
v 4.448698 2.310202 -1.229564
v 4.448698 1.617062 -1.229564
v 5.624393 2.376709 0.428471
v 5.624393 1.683569 1.040575
v 5.497346 2.376709 0.428471
v 5.497346 1.683569 1.040575
v 5.497349 2.376709 -1.273779
v 5.497349 1.683569 -1.273779
v 5.624393 2.376709 -1.273779
v 5.624393 1.683569 -1.273779
v 6.809882 2.523341 0.223817
v 6.809882 1.830200 0.835919
v 6.682838 2.523341 0.223817
v 6.682838 1.830200 0.835919
v 6.682840 2.523341 -1.478433
v 6.682840 1.830200 -1.478433
v 6.809882 2.523341 -1.478433
v 6.809882 1.830200 -1.478433
v -0.419193 2.007344 1.152146
v 0.419193 2.007344 1.152146
v 3.207821 2.007344 1.152146
v 9.578467 2.904650 0.216819
v 9.383579 2.768291 0.504618
v -9.578467 2.904650 0.216818
v -9.383579 2.768291 0.504618
v -3.207821 2.007344 1.152146
v -9.748062 2.625811 0.250514
v -0.424034 2.332018 1.325425
v -3.068824 2.332019 1.274688
v 0.424034 2.332018 1.325425
v 3.068824 2.332019 1.274688
v 0.000002 3.212383 6.328093
v 0.046351 3.247511 6.268643
v -0.046351 3.247511 6.268643
v 0.000000 2.871870 6.189794
v 0.029441 2.871870 6.138805
v -0.029440 2.871870 6.138805
v 0.000001 3.109238 6.267154
v 0.046351 3.144365 6.207698
v -0.046348 3.144365 6.207703
v 0.000002 3.152672 6.320786
v 0.075568 3.200049 6.240599
v -0.075564 3.200049 6.240602
v 0.000000 2.976527 6.189794
v 0.046352 3.012029 6.129513
v -0.046348 3.012029 6.129513
v 0.029441 2.976527 6.138805
v -0.029440 2.976527 6.138805
v -0.044948 2.928355 6.284687
v -0.044948 2.331660 6.284688
v 0.044947 2.928355 6.284687
v 0.044947 2.331660 6.284688
v 0.044947 2.928355 6.090473
v 0.044947 2.331660 6.090474
v -0.044948 2.928355 6.090473
v -0.044948 2.331660 6.090474
v -0.873027 2.665595 5.864812
v -0.873027 1.600285 5.864812
v -0.783204 2.665595 5.864812
v -0.783204 1.600285 5.864812
v -0.783204 2.665595 5.157377
v -0.783204 1.600285 5.157377
v -0.873027 2.665595 5.157377
v -0.873027 1.600285 5.157377
v -0.825622 1.509169 6.047164
v -0.825622 1.368327 5.911997
v -0.691672 1.465647 5.911997
v -0.742836 1.623115 5.911997
v -0.908408 1.623115 5.911997
v -0.959572 1.465647 5.911997
v -0.825622 1.368327 5.113133
v -0.691672 1.465647 5.113133
v -0.742836 1.623115 5.113133
v -0.908408 1.623115 5.113133
v -0.959572 1.465647 5.113133
v -0.825622 1.509169 4.972787
v 0.524614 2.380616 6.995266
v -0.524615 2.380616 6.995266
v -0.835358 2.468891 5.962194
v 0.835357 2.468891 5.962194
v -0.408971 2.263221 -2.246607
v -3.412081 2.253606 -2.326115
v -9.838740 2.649879 -1.890031
v -9.748062 2.625811 0.250513
v 0.408972 2.263221 -2.246607
v 3.412082 2.253606 -2.326115
v 9.838740 2.649879 -1.890028
v 9.748062 2.625811 0.250514
v -0.419193 2.007344 1.152146
v 0.419193 2.007344 1.152146
v 3.207821 2.007344 1.152146
v -3.207821 2.007344 1.152145
v -3.450677 4.711828 -9.043806
v -3.450679 4.711828 -7.659527
v -3.450678 1.822889 -6.997478
v -3.450678 1.461772 -7.398721
v -3.450677 1.782766 -9.424990
v -3.126915 1.822889 -6.997498
v 3.450679 4.711828 -9.043806
v 3.450679 4.711828 -7.659527
v 3.450678 1.822889 -6.997478
v 3.450678 1.461772 -7.398721
v 3.450679 1.782766 -9.424990
v 3.126916 1.822889 -6.997498
v 3.167040 1.501896 -7.398704
v 3.291711 1.822889 -6.783421
v -3.291711 1.822889 -6.783421
v -3.167039 1.501896 -7.398704
v -2.070395 3.241026 -2.725056
v -2.070395 2.785753 -2.685225
v -2.339020 2.872702 -2.692832
v -2.505040 3.100340 -2.712747
v -2.505040 3.381712 -2.737364
v -2.339020 3.609352 -2.757279
v -2.070395 3.696296 -2.764886
v -1.801769 3.609349 -2.757280
v -1.635750 3.381712 -2.737364
v -1.635750 3.100340 -2.712747
v -1.801770 2.872702 -2.692832
v -2.070395 2.557481 -5.448964
v -2.331101 2.641864 -5.456347
v -2.492225 2.862792 -5.475676
v -2.492225 3.135874 -5.499568
v -2.331101 3.356801 -5.518896
v -2.070395 3.441183 -5.526279
v -1.809689 3.356801 -5.518896
v -1.648564 3.135874 -5.499568
v -1.648564 2.862792 -5.475676
v -1.809689 2.641864 -5.456347
v -2.070395 2.999333 -5.487622
v -2.070395 2.431418 -2.099715
v -2.576495 2.595235 -2.114046
v -2.889282 3.024112 -2.151569
v -2.889282 3.554231 -2.197949
v -2.576495 3.983107 -2.235471
v -2.070395 4.146922 -2.249802
v -1.564295 3.983105 -2.235470
v -1.251508 3.554231 -2.197949
v -1.251508 3.024112 -2.151569
v -1.564295 2.595235 -2.114046
v -2.070395 2.591741 -2.113740
v -2.481901 2.724937 -2.125395
v -2.736226 3.073653 -2.155903
v -2.736226 3.504686 -2.193613
v -2.481901 3.853406 -2.224122
v -2.070395 3.986598 -2.235775
v -1.658888 3.853404 -2.224123
v -1.404563 3.504689 -2.193614
v -1.404563 3.073653 -2.155903
v -1.658888 2.724936 -2.125395
v -2.070395 2.337498 -2.563894
v -2.607711 2.511418 -2.579110
v -2.939789 2.966747 -2.618946
v -2.939789 3.529564 -2.668186
v -2.607711 3.984894 -2.708022
v -2.070395 4.158812 -2.723239
v -1.533079 3.984891 -2.708022
v -1.201000 3.529564 -2.668186
v -1.201000 2.966747 -2.618946
v -1.533079 2.511418 -2.579110
v -2.070395 2.288001 -5.947835
v -2.463339 2.415192 -5.958963
v -2.706190 2.748175 -5.988097
v -2.706190 3.159769 -6.024108
v -2.463339 3.492753 -6.053239
v -2.070395 3.619941 -6.064367
v -1.677452 3.492753 -6.053239
v -1.434599 3.159769 -6.024108
v -1.434599 2.748175 -5.988097
v -1.677452 2.415192 -5.958963
v -2.070395 2.402889 -5.957889
v -2.395550 2.508135 -5.967095
v -2.596505 2.783678 -5.991203
v -2.596505 3.124265 -6.021003
v -2.395550 3.399808 -6.045107
v -2.070395 3.505053 -6.054316
v -1.745239 3.399809 -6.045107
v -1.544281 3.124266 -6.021003
v -1.544281 2.783676 -5.991203
v -1.745240 2.508134 -5.967095
v -2.070395 2.121980 -5.027282
v -2.607711 2.295901 -5.042499
v -2.939789 2.751228 -5.082333
v -2.939789 3.314046 -5.131575
v -2.607711 3.769374 -5.171411
v -2.070395 3.943293 -5.186626
v -1.533079 3.769374 -5.171411
v -1.201000 3.314046 -5.131575
v -1.201000 2.751228 -5.082333
v -1.533080 2.295901 -5.042499
v 2.070395 3.241026 -2.725056
v 2.070395 2.785753 -2.685225
v 2.339020 2.872702 -2.692832
v 2.505040 3.100340 -2.712747
v 2.505040 3.381712 -2.737364
v 2.339020 3.609352 -2.757279
v 2.070395 3.696296 -2.764886
v 1.801769 3.609349 -2.757280
v 1.635750 3.381712 -2.737364
v 1.635750 3.100340 -2.712747
v 1.801770 2.872702 -2.692832
v 2.070395 2.557481 -5.448964
v 2.331101 2.641864 -5.456347
v 2.492225 2.862792 -5.475676
v 2.492225 3.135874 -5.499568
v 2.331101 3.356801 -5.518896
v 2.070395 3.441183 -5.526279
v 1.809689 3.356801 -5.518896
v 1.648564 3.135874 -5.499568
v 1.648564 2.862792 -5.475676
v 1.809689 2.641864 -5.456347
v 2.070395 2.999333 -5.487622
v 2.070395 2.431418 -2.099715
v 2.576495 2.595235 -2.114046
v 2.889282 3.024112 -2.151569
v 2.889282 3.554231 -2.197949
v 2.576495 3.983107 -2.235471
v 2.070395 4.146922 -2.249802
v 1.564295 3.983105 -2.235470
v 1.251508 3.554231 -2.197949
v 1.251508 3.024112 -2.151569
v 1.564295 2.595235 -2.114046
v 2.070395 2.591741 -2.113740
v 2.481901 2.724937 -2.125395
v 2.736226 3.073653 -2.155903
v 2.736226 3.504686 -2.193613
v 2.481901 3.853406 -2.224122
v 2.070395 3.986598 -2.235775
v 1.658888 3.853404 -2.224123
v 1.404563 3.504689 -2.193614
v 1.404563 3.073653 -2.155903
v 1.658888 2.724936 -2.125395
v 2.070395 2.337498 -2.563894
v 2.607711 2.511418 -2.579110
v 2.939789 2.966747 -2.618946
v 2.939789 3.529564 -2.668186
v 2.607711 3.984894 -2.708022
v 2.070395 4.158812 -2.723239
v 1.533079 3.984891 -2.708022
v 1.201000 3.529564 -2.668186
v 1.201000 2.966747 -2.618946
v 1.533079 2.511418 -2.579110
v 2.070395 2.286831 -5.961206
v 2.463339 2.414021 -5.972334
v 2.706190 2.747005 -6.001469
v 2.706190 3.158599 -6.037480
v 2.463339 3.491583 -6.066611
v 2.070395 3.618771 -6.077739
v 1.677452 3.491583 -6.066611
v 1.434599 3.158599 -6.037480
v 1.434599 2.747005 -6.001469
v 1.677452 2.414021 -5.972334
v 2.070395 2.401720 -5.971260
v 2.395550 2.506965 -5.980467
v 2.596505 2.782508 -6.004575
v 2.596505 3.123095 -6.034375
v 2.395550 3.398638 -6.058479
v 2.070395 3.503884 -6.067688
v 1.745239 3.398639 -6.058479
v 1.544281 3.123096 -6.034375
v 1.544281 2.782506 -6.004575
v 1.745240 2.506965 -5.980467
v 2.070395 2.121980 -5.027282
v 2.607711 2.295901 -5.042499
v 2.939789 2.751228 -5.082333
v 2.939789 3.314046 -5.131575
v 2.607711 3.769374 -5.171411
v 2.070395 3.943293 -5.186626
v 1.533079 3.769374 -5.171411
v 1.201000 3.314046 -5.131575
v 1.201000 2.751228 -5.082333
v 1.533080 2.295901 -5.042499
v 2.069943 2.955575 -5.884974
v 2.069943 3.297852 -6.267976
v 2.362627 3.157441 -6.255691
v 2.434914 2.841939 -6.228086
v 2.232370 2.588922 -6.205956
v 1.907516 2.588922 -6.205956
v 1.704972 2.841939 -6.228086
v 1.777259 3.157441 -6.255691
v 2.069943 3.475846 -5.522075
v 2.455005 3.291116 -5.505918
v 2.550108 2.876030 -5.469597
v 2.283637 2.543156 -5.440480
v 1.856249 2.543156 -5.440480
v 1.589777 2.876030 -5.469597
v 1.684881 3.291116 -5.505918
v -2.070033 2.956190 -5.898502
v -2.069943 3.297852 -6.267976
v -2.362627 3.157441 -6.255691
v -2.434914 2.841939 -6.228086
v -2.232370 2.588922 -6.205956
v -1.907516 2.588922 -6.205956
v -1.704972 2.841939 -6.228086
v -1.777259 3.157441 -6.255691
v -2.069943 3.475846 -5.522075
v -2.455005 3.291116 -5.505918
v -2.550108 2.876030 -5.469597
v -2.283637 2.543156 -5.440480
v -1.856249 2.543156 -5.440480
v -1.589777 2.876030 -5.469597
v -1.684881 3.291116 -5.505918
v -0.674111 3.780646 3.630493
v 0.674111 3.780646 3.630493
v 0.524614 2.617348 3.733171
v -0.524615 2.617348 3.733171
v 0.278452 3.780646 3.630493
v -0.278452 3.780646 3.630493
v -0.674111 3.780646 3.630493
v -0.835358 3.548229 4.567753
v -0.459220 4.044764 4.269654
v -0.459220 4.132535 5.009445
v -0.459220 4.082379 5.774313
v 0.000000 3.780858 3.630189
v 0.000000 4.044790 4.269906
v 0.000000 4.132768 5.009194
v -0.000001 4.082299 5.774401
v -0.835358 3.308331 5.504135
v -0.459220 4.084823 5.737061
v -0.835358 3.319101 5.462097
v -0.000001 4.084763 5.737042
v -0.459220 4.081718 5.772951
v -0.000001 4.081639 5.773038
v -0.835358 3.307671 5.502774
v -0.459220 4.084163 5.735700
v -0.835358 3.318441 5.460734
v -0.000001 4.084103 5.735679
v 0.674111 3.780646 3.630493
v 0.835358 3.548229 4.567753
v 0.459220 4.044764 4.269654
v 0.459220 4.132535 5.009445
v 0.459220 4.082379 5.774313
v 0.000001 4.082299 5.774401
v 0.835358 3.308331 5.504135
v 0.459220 4.084823 5.737061
v 0.835358 3.319101 5.462097
v 0.000001 4.084763 5.737042
v 0.459220 4.081718 5.772951
v 0.000001 4.081639 5.773038
v 0.835358 3.307671 5.502774
v 0.459220 4.084163 5.735700
v 0.835358 3.318441 5.460734
v 0.000001 4.084103 5.735679
vn -0.0000 -0.0000 1.0000
vn -0.7818 0.6235 -0.0000
vn -0.9749 -0.2225 -0.0000
vn -0.0000 1.0000 -0.0000
vn -0.4339 -0.9010 -0.0000
vn 0.4339 -0.9010 -0.0000
vn 0.7818 0.6235 -0.0000
vn 0.9749 -0.2225 -0.0000
vn -0.3904 0.7875 0.4768
vn -0.0860 0.9110 0.4034
vn -0.1367 0.7360 0.6631
vn -0.0002 0.7173 0.6967
vn 0.0001 0.8288 0.5595
vn 0.0001 0.9143 0.4049
vn 0.1367 0.7359 0.6631
vn 0.0860 0.9110 0.4034
vn 0.3904 0.7875 0.4768
vn -0.0001 0.8288 0.5595
vn 0.0002 0.7173 0.6967
vn 0.1367 0.7360 0.6631
vn -0.0001 0.9143 0.4049
vn 0.9078 0.3992 0.1289
vn -0.9078 0.3992 0.1289
vn -0.0000 -0.9379 0.3470
vn -0.0000 -0.9970 0.0774
vn -0.9685 0.2214 0.1137
vn -0.5667 0.8200 0.0800
vn -0.6427 0.7561 0.1234
vn 0.5667 0.8200 0.0801
vn 0.9685 0.2214 0.1137
vn 0.6426 0.7562 0.1234
vn -0.0000 0.1887 -0.9820
vn -0.0000 0.8494 -0.5278
vn 0.5877 0.7721 0.2417
vn 0.4274 0.7869 -0.4451
vn -0.4274 0.7869 -0.4451
vn -0.4616 0.8736 0.1539
vn 0.9652 0.2613 -0.0090
vn 0.6550 0.4302 -0.6212
vn -0.9652 0.2614 -0.0090
vn -0.6550 0.4302 -0.6212
vn -0.6812 -0.7271 -0.0860
vn 0.5911 -0.7946 -0.1388
vn -0.0000 -0.9948 -0.1022
vn -0.6759 -0.5799 -0.4548
vn -0.9417 -0.3346 -0.0358
vn 0.6812 -0.7271 -0.0860
vn 0.6759 -0.5799 -0.4548
vn -0.5533 0.7621 0.3362
vn -0.9074 0.4065 0.1065
vn -0.9862 0.1605 0.0414
vn -0.5264 0.7775 0.3442
vn 0.0001 0.9143 0.4050
vn 0.9862 0.1605 0.0414
vn 0.9074 0.4065 0.1065
vn 0.5534 0.7621 0.3362
vn 0.5264 0.7775 0.3442
vn -0.0001 0.9143 0.4050
vn 0.9070 -0.4098 -0.0975
vn 0.5536 -0.7620 -0.3360
vn 0.9977 0.0670 -0.0099
vn 0.5264 -0.7774 -0.3442
vn -0.0001 -0.9143 -0.4049
vn -0.9977 0.0670 -0.0099
vn -0.5536 -0.7620 -0.3360
vn -0.9070 -0.4098 -0.0975
vn -0.5264 -0.7774 -0.3442
vn 0.0001 -0.9143 -0.4049
vn -0.9399 -0.3415 0.0008
vn -0.9544 -0.2827 0.0960
vn 0.9399 -0.3415 0.0008
vn 0.9544 -0.2827 0.0960
vn -0.6353 -0.7722 0.0012
vn -0.7252 -0.6524 0.2202
vn -0.7826 -0.0192 0.6222
vn 0.7826 -0.0192 0.6222
vn 0.7252 -0.6524 0.2202
vn 0.6353 -0.7722 0.0012
vn -0.6378 0.6224 0.4537
vn -0.6618 0.6885 0.2966
vn -0.9399 -0.3414 -0.0000
vn -0.9979 0.0427 -0.0492
vn 0.9399 -0.3414 -0.0000
vn 0.9979 0.0427 -0.0492
vn 0.9550 -0.2965 -0.0105
vn 0.9906 0.1218 -0.0630
vn -0.9906 0.1218 -0.0630
vn -0.9550 -0.2965 -0.0105
vn -0.7195 -0.6943 -0.0160
vn -0.6614 -0.7501 -0.0021
vn -0.9697 -0.2434 -0.0182
vn -0.9814 -0.1889 -0.0343
vn 0.9697 -0.2434 -0.0182
vn 0.6614 -0.7501 -0.0021
vn 0.7195 -0.6943 -0.0160
vn 0.9814 -0.1889 -0.0343
vn -0.6319 -0.7750 0.0115
vn -0.6319 -0.7750 -0.0000
vn 0.6319 -0.7750 -0.0000
vn 0.6319 -0.7750 0.0115
vn -0.7235 0.6856 -0.0809
vn 0.7235 0.6856 -0.0809
vn -0.5975 -0.6813 -0.4229
vn -0.6522 -0.7174 -0.2448
vn -0.7868 0.5808 -0.2089
vn -0.8135 0.5733 -0.0979
vn 0.6522 -0.7174 -0.2448
vn 0.5975 -0.6813 -0.4229
vn 0.7868 0.5808 -0.2089
vn 0.8135 0.5733 -0.0979
vn -0.2811 -0.8587 0.4285
vn -0.2554 -0.1090 0.9607
vn 0.2554 -0.1090 0.9607
vn 0.2811 -0.8587 0.4285
vn -0.1957 0.9727 -0.1248
vn -0.0837 0.9914 -0.1003
vn 0.1957 0.9727 -0.1248
vn 0.0837 0.9914 -0.1003
vn -0.0001 0.9506 0.3105
vn 0.2343 0.7146 0.6591
vn 0.6378 0.6223 0.4537
vn 0.2445 -0.9696 -0.0000
vn -0.2445 -0.9696 -0.0000
vn 0.2446 -0.9696 0.0117
vn -0.2446 -0.9696 0.0117
vn 0.2141 -0.9119 -0.3501
vn 0.0427 -0.7508 -0.6592
vn -0.0427 -0.7508 -0.6592
vn -0.2141 -0.9119 -0.3501
vn 0.2444 -0.9697 0.0005
vn -0.2444 -0.9697 0.0005
vn 0.1640 0.9081 -0.3854
vn -0.1640 0.9081 -0.3854
vn 0.2446 -0.9696 -0.0112
vn -0.2446 -0.9696 -0.0112
vn -0.0000 0.9928 -0.1201
vn -0.0067 0.9391 0.3437
vn -0.0100 0.9185 0.3952
vn 0.0301 0.9916 -0.1258
vn -0.0095 0.9651 0.2617
vn 0.0406 0.9900 -0.1351
vn -0.1449 0.9879 -0.0546
vn -0.4195 0.8579 0.2967
vn -0.8102 0.4192 0.4098
vn -0.8102 0.4192 0.4097
vn -0.9751 -0.2185 0.0388
vn 0.0100 0.9185 0.3952
vn 0.0067 0.9391 0.3437
vn -0.0301 0.9916 -0.1258
vn 0.0095 0.9651 0.2617
vn -0.0406 0.9900 -0.1351
vn 0.4195 0.8579 0.2967
vn 0.1449 0.9879 -0.0546
vn 0.8081 0.2119 0.5497
vn 0.9751 -0.2184 0.0388
vn 1.0000 -0.0000 -0.0000
vn -1.0000 -0.0000 -0.0000
vn -0.6563 -0.7219 -0.2194
vn 0.6563 -0.7219 -0.2194
vn -0.6563 -0.7219 -0.2193
vn -0.0304 -0.9567 -0.2896
vn -0.0033 -0.9641 0.2653
vn -0.0000 -0.9644 0.2643
vn -0.0000 -0.8345 -0.5510
vn -0.0102 -0.8305 -0.5569
vn 0.0033 -0.9641 0.2653
vn 0.0304 -0.9567 -0.2896
vn 0.0102 -0.8305 -0.5569
vn -0.0000 -1.0000 -0.0000
vn 0.0007 -0.0018 1.0000
vn 0.0127 0.1072 0.9942
vn 0.0137 0.1158 0.9932
vn -0.0000 -0.0082 1.0000
vn -0.0429 0.9867 -0.1566
vn -0.0705 0.9846 -0.1602
vn -0.4672 0.8617 -0.1980
vn -0.0000 0.9886 -0.1508
vn -0.0137 0.1158 0.9932
vn -0.0128 0.1072 0.9942
vn -0.0007 -0.0018 1.0000
vn 0.4672 0.8617 -0.1980
vn 0.0705 0.9846 -0.1602
vn 0.0429 0.9867 -0.1566
vn -0.0000 0.9986 -0.0529
vn -0.0000 0.7071 -0.7071
vn -0.0000 0.9985 -0.0541
vn -0.0000 0.9378 0.3471
vn -0.0000 0.7228 0.6911
vn -0.0000 -0.8603 0.5098
vn -0.0000 -0.0000 -1.0000
vn -0.0000 0.6619 0.7496
vn -0.2343 0.7146 0.6591
vn -0.5667 0.8200 0.0801
vn -0.1415 0.6131 -0.7772
vn -0.2238 0.9698 -0.0966
vn -0.1512 0.6553 -0.7401
vn 0.2238 0.9698 -0.0966
vn 0.1415 0.6131 -0.7772
vn 0.1512 0.6553 -0.7401
vn -0.0130 -0.0561 -0.9983
vn 0.0130 -0.0561 -0.9983
vn 0.2238 -0.9698 0.0966
vn 0.1415 -0.6131 0.7772
vn 0.1512 -0.6553 0.7401
vn -0.2238 -0.9698 0.0966
vn -0.1512 -0.6553 0.7401
vn -0.1415 -0.6131 0.7772
vn -0.0130 0.0561 0.9983
vn 0.0130 0.0561 0.9983
vn -0.0000 0.3471 0.9378
vn -0.0000 0.9970 -0.0773
vn -0.0000 0.0774 0.9970
vn -0.0000 0.9378 -0.3471
vn -0.0000 -0.3471 -0.9378
vn -0.0000 -0.0773 -0.9970
vn -0.0000 -0.3092 -0.9510
vn -0.0000 0.3092 0.9510
vn -0.0000 0.8130 0.5822
vn -0.0000 0.4185 0.9082
vn -0.0000 0.9946 0.1038
vn 0.4582 -0.1041 -0.8827
vn 0.8872 -0.0000 -0.4614
vn -0.4582 -0.1041 -0.8827
vn -0.9652 0.2615 -0.0090
vn -0.8872 -0.0000 -0.4614
vn -0.4583 -0.1041 -0.8827
vn 0.5117 0.8538 0.0961
vn -0.5118 0.8537 0.0961
vn -0.6426 0.7562 0.1234
vn 0.2411 0.7627 0.6002
vn -0.2410 0.7627 0.6002
vn -0.2411 0.7627 0.6002
vn 0.5803 0.4176 0.6992
vn -0.5803 0.4176 0.6992
vn -0.0000 0.2757 0.9612
vn 0.8558 -0.1530 0.4941
vn 0.8325 -0.2778 0.4794
vn 0.8554 -0.1584 0.4931
vn -0.8325 -0.2778 0.4794
vn -0.8558 -0.1529 0.4941
vn -0.8554 -0.1584 0.4931
vn 0.8076 -0.2809 0.5186
vn 0.7765 -0.3076 0.5500
vn 0.8035 -0.4196 0.4222
vn 0.8160 -0.4413 0.3734
vn -0.8076 -0.2809 0.5186
vn -0.7765 -0.3076 0.5500
vn -0.8035 -0.4196 0.4222
vn -0.8160 -0.4413 0.3734
vn -0.0000 0.5087 -0.8610
vn -0.0000 0.2037 -0.9790
vn -0.0000 -0.1431 -0.9897
vn -0.0000 -0.1430 -0.9897
vn 0.8660 -0.0000 0.5000
vn -0.8660 -0.0000 0.5000
vn -0.0000 -0.9403 -0.3403
vn 0.8943 -0.2906 -0.3403
vn 0.8919 -0.2898 0.3473
vn -0.0000 -0.9378 0.3473
vn 0.5527 0.7607 -0.3403
vn 0.5512 0.7587 0.3473
vn -0.5527 0.7607 -0.3403
vn -0.5512 0.7587 0.3473
vn -0.8943 -0.2906 -0.3403
vn -0.8919 -0.2898 0.3473
vn 0.0522 0.1916 0.9801
vn 0.0845 -0.3270 0.9412
vn 0.8081 0.2119 0.5496
vn 0.1597 -0.7455 0.6471
vn 0.0845 -0.3271 0.9412
vn 0.0191 0.0739 0.9971
vn -0.0522 0.1916 0.9801
vn -0.0191 0.0739 0.9971
vn -0.0845 -0.3270 0.9412
vn -0.0155 -0.4614 0.8870
vn 0.0155 -0.4614 0.8870
vn 0.8621 0.4909 0.1257
vn -0.9417 -0.3346 -0.0359
vn -0.5117 0.8537 0.0961
vn 0.8600 -0.4943 -0.1266
vn 0.5911 -0.7946 -0.1387
vn 0.9977 0.0671 -0.0100
vn -0.1597 -0.7455 0.6471
vn -0.0845 -0.3271 0.9412
vn 0.0029 -0.9973 -0.0727
vn -0.0000 -0.9972 -0.0751
vn -0.0315 -0.9974 -0.0645
vn -0.0314 -0.9971 -0.0688
vn -0.0847 -0.9961 -0.0258
vn -0.0932 -0.9956 -0.0072
vn 0.0315 -0.9974 -0.0645
vn -0.0029 -0.9973 -0.0727
vn 0.0314 -0.9971 -0.0688
vn 0.0847 -0.9961 -0.0258
vn 0.0932 -0.9956 -0.0072
vn -0.9960 -0.0667 0.0600
vn 0.9148 -0.1906 0.3561
vn 0.9874 -0.0655 -0.1439
vn 0.9958 0.0702 -0.0584
vn 0.9926 0.1177 0.0283
vn 0.7149 -0.6949 0.0773
vn 0.1387 -0.9805 0.1393
vn -0.9996 0.0063 0.0275
vn -0.9035 -0.1795 0.3893
vn 0.9960 -0.0667 0.0600
vn -0.9958 0.0702 -0.0584
vn -0.9874 -0.0655 -0.1439
vn -0.9148 -0.1906 0.3561
vn -0.9926 0.1177 0.0283
vn -0.7149 -0.6949 0.0773
vn -0.1387 -0.9805 0.1393
vn 0.9996 0.0063 0.0275
vn 0.9035 -0.1795 0.3893
vn -0.7339 -0.2270 0.6402
vn 0.7992 -0.0951 0.5935
vn 0.7338 -0.2270 0.6402
vn -0.7992 -0.0951 0.5935
vn -0.0000 0.0872 0.9962
vn 0.3610 0.5638 0.7428
vn -0.0000 0.6807 0.7326
vn 0.5841 0.2579 0.7696
vn 0.5841 -0.1203 0.8027
vn 0.3610 -0.4262 0.8294
vn -0.0000 -0.5431 0.8397
vn -0.3610 -0.4262 0.8294
vn -0.5841 -0.1203 0.8027
vn -0.5841 0.2579 0.7696
vn -0.3610 0.5638 0.7428
vn -0.0000 -0.0872 -0.9962
vn -0.0000 0.6295 -0.7770
vn 0.4084 0.4973 -0.7654
vn 0.6608 0.1512 -0.7352
vn 0.6608 -0.2766 -0.6977
vn 0.4084 -0.6227 -0.6675
vn -0.0000 -0.7548 -0.6559
vn -0.4084 -0.6227 -0.6675
vn -0.6608 -0.2766 -0.6977
vn -0.6608 0.1512 -0.7352
vn -0.4084 0.4973 -0.7655
vn -0.0000 0.5364 0.8440
vn 0.2709 0.4487 0.8516
vn -0.4282 -0.5273 0.7339
vn -0.0000 -0.6659 0.7460
vn 0.4383 0.2192 0.8717
vn -0.6928 -0.1645 0.7021
vn 0.4383 -0.0645 0.8965
vn -0.6928 0.2840 0.6629
vn 0.2709 -0.2940 0.9166
vn -0.4282 0.6468 0.6312
vn -0.0000 -0.3817 0.9243
vn -0.0000 0.7854 0.6190
vn -0.2709 -0.2940 0.9166
vn 0.4281 0.6468 0.6312
vn -0.4383 -0.0645 0.8965
vn 0.6928 0.2840 0.6629
vn -0.4383 0.2192 0.8717
vn 0.6928 -0.1645 0.7021
vn -0.2709 0.4487 0.8516
vn 0.4282 -0.5273 0.7339
vn -0.5869 -0.7999 0.1257
vn -0.0000 -0.9898 0.1424
vn -0.9496 -0.3025 0.0822
vn -0.9496 0.3122 0.0284
vn -0.5869 0.8095 -0.0151
vn -0.0000 0.9995 -0.0317
vn 0.5869 0.8095 -0.0151
vn 0.9496 0.3122 0.0284
vn 0.9496 -0.3025 0.0822
vn 0.5869 -0.7999 0.1257
vn 0.3184 0.3633 -0.8756
vn -0.0000 0.4663 -0.8846
vn -0.0000 -0.7351 -0.6779
vn -0.3957 -0.6070 -0.6891
vn 0.5151 0.0935 -0.8520
vn -0.6403 -0.2717 -0.7185
vn 0.5151 -0.2400 -0.8228
vn -0.6403 0.1428 -0.7547
vn 0.3184 -0.5098 -0.7992
vn -0.3957 0.4782 -0.7841
vn -0.0000 -0.6129 -0.7902
vn -0.0000 0.6062 -0.7953
vn -0.3184 -0.5098 -0.7992
vn 0.3957 0.4782 -0.7841
vn -0.5151 -0.2400 -0.8228
vn 0.6403 0.1428 -0.7547
vn -0.5151 0.0935 -0.8520
vn 0.6403 -0.2717 -0.7185
vn -0.3184 0.3633 -0.8756
vn 0.3957 -0.6070 -0.6891
vn -0.0000 -0.9991 -0.0422
vn -0.5829 -0.8104 -0.0587
vn -0.9431 -0.3165 -0.1020
vn -0.9431 0.2940 -0.1554
vn -0.5829 0.7879 -0.1986
vn -0.0000 0.9766 -0.2151
vn 0.5829 0.7879 -0.1986
vn 0.9431 0.2940 -0.1554
vn 0.9431 -0.3165 -0.1020
vn 0.5829 -0.8104 -0.0587
vn -0.4095 0.4989 -0.7638
vn -0.0000 0.6315 -0.7754
vn -0.6626 0.1519 -0.7334
vn -0.6626 -0.2770 -0.6959
vn -0.4095 -0.6240 -0.6656
vn -0.0000 -0.7565 -0.6540
vn 0.4095 -0.6240 -0.6656
vn 0.6626 -0.2770 -0.6959
vn 0.6626 0.1519 -0.7334
vn 0.4095 0.4989 -0.7638
vn 0.4282 0.6468 0.6312
vn -0.0000 0.4684 -0.8835
vn -0.3195 0.3650 -0.8745
vn 0.3965 -0.6081 -0.6878
vn -0.0000 -0.7364 -0.6765
vn -0.5170 0.0942 -0.8508
vn 0.6416 -0.2720 -0.7172
vn -0.5170 -0.2405 -0.8215
vn 0.6416 0.1434 -0.7535
vn -0.3195 -0.5113 -0.7978
vn 0.3965 0.4794 -0.7829
vn -0.0000 -0.6147 -0.7888
vn -0.0000 0.6077 -0.7941
vn 0.3195 -0.5113 -0.7978
vn -0.3965 0.4794 -0.7829
vn 0.5170 -0.2405 -0.8215
vn -0.6416 0.1434 -0.7535
vn 0.5170 0.0942 -0.8508
vn -0.6416 -0.2720 -0.7172
vn 0.3195 0.3650 -0.8745
vn -0.3965 -0.6081 -0.6878
vn 0.5830 -0.8105 -0.0570
vn -0.0000 -0.9992 -0.0405
vn 0.9433 -0.3164 -0.1002
vn 0.9433 0.2942 -0.1536
vn 0.5830 0.7883 -0.1969
vn -0.0000 0.9770 -0.2134
vn -0.5830 0.7883 -0.1969
vn -0.9433 0.2942 -0.1536
vn -0.9433 -0.3164 -0.1002
vn -0.5830 -0.8105 -0.0570
vn -0.0000 0.9727 -0.2321
vn 0.7740 0.6000 -0.2023
vn 0.7720 0.6025 -0.2025
vn 0.9626 -0.2344 -0.1357
vn 0.9635 -0.2304 -0.1360
vn 0.4275 -0.9003 -0.0825
vn 0.4291 -0.8995 -0.0825
vn -0.4275 -0.9003 -0.0825
vn -0.4291 -0.8995 -0.0825
vn -0.9626 -0.2344 -0.1357
vn -0.9635 -0.2304 -0.1360
vn -0.7740 0.6000 -0.2023
vn -0.7720 0.6025 -0.2025
vn -0.0000 -0.7456 -0.6664
vn -0.5353 -0.4888 -0.6888
vn -0.6676 0.0883 -0.7393
vn -0.2971 0.5511 -0.7798
vn 0.2971 0.5511 -0.7798
vn 0.6676 0.0883 -0.7393
vn 0.5353 -0.4888 -0.6888
vn 0.0001 -0.0897 -0.9960
vn 0.5253 -0.4814 -0.7016
vn -0.0000 -0.7342 -0.6789
vn 0.6532 0.0844 -0.7524
vn 0.2900 0.5357 -0.7930
vn -0.2900 0.5356 -0.7931
vn -0.6531 0.0843 -0.7526
vn -0.5252 -0.4813 -0.7017
vn -0.0000 0.0879 0.9961
vn 0.1464 0.7634 -0.6291
vn -0.1464 0.7634 -0.6291
vn -0.0000 0.9677 -0.2520
vn -0.0000 0.9243 -0.3816
vn -0.3125 0.9289 -0.1988
vn -0.3406 0.8984 -0.2774
vn -0.4660 0.8848 -0.0065
vn -0.0000 0.9997 -0.0264
vn -0.2972 0.9517 0.0775
vn 0.0001 0.9978 0.0658
vn -0.9070 0.4080 0.1045
vn -0.9069 0.4085 0.1027
vn -0.9031 0.4284 0.0302
vn -0.9029 0.4289 0.0281
vn -0.8592 0.5110 0.0252
vn 0.0001 0.9979 0.0655
vn 0.0002 0.9978 0.0658
vn 0.9070 -0.4085 -0.1027
vn 0.9070 -0.4080 -0.1045
vn 0.9031 -0.4284 -0.0302
vn 0.9029 -0.4289 -0.0281
vn -0.0002 -0.9978 -0.0658
vn -0.0001 -0.9979 -0.0655
vn 0.3125 0.9289 -0.1988
vn 0.3406 0.8984 -0.2774
vn 0.4660 0.8848 -0.0065
vn 0.2972 0.9517 0.0775
vn -0.0001 0.9978 0.0658
vn 0.9070 0.4080 0.1045
vn 0.9031 0.4284 0.0302
vn 0.9069 0.4085 0.1027
vn 0.9029 0.4289 0.0281
vn 0.8592 0.5110 0.0252
vn -0.0001 0.9979 0.0655
vn -0.0002 0.9978 0.0658
vn -0.9069 -0.4085 -0.1027
vn -0.9031 -0.4284 -0.0302
vn -0.9070 -0.4080 -0.1045
vn -0.9029 -0.4289 -0.0281
vn 0.0002 -0.9978 -0.0658
vn 0.0001 -0.9979 -0.0655
vt 0.012890 0.672210
vt 0.007830 0.627890
vt 0.022010 0.592350
vt 0.058910 0.627890
vt 0.053850 0.672210
vt 0.044730 0.592350
vt 0.139240 0.622760
vt 0.139240 0.593660
vt 0.063600 0.593660
vt 0.063600 0.622760
vt 0.033370 0.691930
vt 0.974710 0.043170
vt 0.990960 0.057560
vt 0.965720 0.025690
vt 0.965720 0.025710
vt 0.974710 0.043160
vt 0.990960 0.057550
vt 0.995920 0.028040
vt 0.781950 0.646820
vt 0.757820 0.646820
vt 0.757820 0.654280
vt 0.781950 0.654280
vt 0.780230 0.545150
vt 0.761200 0.545150
vt 0.780230 0.578580
vt 0.761200 0.578580
vt 0.807850 0.087360
vt 0.804130 0.053050
vt 0.830100 0.061370
vt 0.947250 0.201200
vt 0.930170 0.265570
vt 0.913130 0.201200
vt 0.841270 0.226840
vt 0.822360 0.263720
vt 0.822360 0.226840
vt 0.860170 0.226840
vt 0.860170 0.263720
vt 0.811020 0.259320
vt 0.810730 0.224020
vt 0.881460 0.161320
vt 0.893230 0.184750
vt 0.883630 0.184750
vt 0.890500 0.161320
vt 0.786020 0.464700
vt 0.782310 0.396700
vt 0.786020 0.396700
vt 0.782310 0.464700
vt 0.786020 0.497900
vt 0.782310 0.497900
vt 0.793110 0.107550
vt 0.796820 0.175550
vt 0.796820 0.107550
vt 0.793110 0.175550
vt 0.796820 0.208750
vt 0.793110 0.208750
vt 0.117220 0.690890
vt 0.144630 0.716790
vt 0.113840 0.715810
vt 0.144630 0.888650
vt 0.117220 0.914550
vt 0.113840 0.889630
vt 0.113840 0.761950
vt 0.075770 0.760920
vt 0.062650 0.723340
vt 0.062650 0.882100
vt 0.075770 0.844520
vt 0.113840 0.843490
vt 0.066080 0.704720
vt 0.111040 0.672520
vt 0.181700 0.717090
vt 0.181700 0.656410
vt 0.181700 0.888350
vt 0.181700 0.949030
vt 0.206710 0.888130
vt 0.206710 0.962530
vt 0.206710 0.642910
vt 0.206710 0.717310
vt 0.530790 0.763330
vt 0.365140 0.769130
vt 0.365140 0.724690
vt 0.530790 0.739690
vt 0.365140 0.880750
vt 0.365140 0.836310
vt 0.530790 0.842110
vt 0.530790 0.865750
vt 0.206710 0.763050
vt 0.181700 0.762710
vt 0.144630 0.762380
vt 0.144630 0.843060
vt 0.181700 0.842730
vt 0.206710 0.842390
vt 0.365140 0.667890
vt 0.365140 0.937550
vt 0.556830 0.741310
vt 0.544190 0.763430
vt 0.548810 0.731300
vt 0.530790 0.726790
vt 0.544200 0.842010
vt 0.556840 0.864130
vt 0.548820 0.874140
vt 0.530790 0.878650
vt 0.029550 0.787540
vt 0.028750 0.831720
vt 0.021590 0.831720
vt 0.024300 0.792570
vt 0.043140 0.831720
vt 0.035950 0.831720
vt 0.035100 0.787540
vt 0.040130 0.792570
vt 0.530770 0.592790
vt 0.530770 0.609460
vt 0.365110 0.622770
vt 0.365110 0.592790
vt 0.530770 0.562980
vt 0.365110 0.562980
vt 0.365110 0.533200
vt 0.530770 0.549760
vt 0.048980 0.950960
vt 0.032300 0.950930
vt 0.035890 0.850930
vt 0.040130 0.855670
vt 0.075750 0.821920
vt 0.071820 0.807770
vt 0.113840 0.807770
vt 0.113840 0.821920
vt 0.071820 0.796750
vt 0.075750 0.783500
vt 0.113840 0.783500
vt 0.113840 0.796750
vt 0.144630 0.807770
vt 0.144630 0.821920
vt 0.144630 0.783500
vt 0.144630 0.796750
vt 0.181700 0.807770
vt 0.181700 0.821920
vt 0.181700 0.783500
vt 0.181700 0.796750
vt 0.206710 0.807770
vt 0.206710 0.821920
vt 0.206710 0.783500
vt 0.206710 0.796750
vt 0.580220 0.553020
vt 0.582510 0.570080
vt 0.562550 0.562980
vt 0.562510 0.541910
vt 0.562530 0.592790
vt 0.582470 0.585990
vt 0.580350 0.603240
vt 0.562510 0.613560
vt 0.365140 0.821920
vt 0.365140 0.807770
vt 0.365140 0.796750
vt 0.365140 0.783500
vt 0.548790 0.549760
vt 0.548790 0.562980
vt 0.548790 0.592790
vt 0.548790 0.609460
vt 0.530790 0.807770
vt 0.544180 0.807770
vt 0.544180 0.821920
vt 0.530790 0.821920
vt 0.530790 0.783500
vt 0.544180 0.783500
vt 0.544180 0.796750
vt 0.530790 0.796750
vt 0.289100 0.317320
vt 0.354650 0.467510
vt 0.289100 0.468060
vt 0.368010 0.317320
vt 0.514180 0.449940
vt 0.536720 0.349800
vt 0.535660 0.421370
vt 0.530240 0.447100
vt 0.542390 0.446900
vt 0.265600 0.468000
vt 0.200050 0.467450
vt 0.265600 0.317260
vt 0.186690 0.317260
vt 0.040520 0.449880
vt 0.017980 0.349740
vt 0.024460 0.447040
vt 0.019040 0.421310
vt 0.012310 0.446840
vt 0.630350 0.497700
vt 0.648430 0.499980
vt 0.648430 0.445740
vt 0.664370 0.467200
vt 0.594770 0.445740
vt 0.572900 0.480840
vt 0.648440 0.333540
vt 0.648440 0.279300
vt 0.630360 0.281580
vt 0.664380 0.312080
vt 0.594780 0.333540
vt 0.572910 0.298440
vt 0.594370 0.401560
vt 0.594370 0.436460
vt 0.647990 0.436460
vt 0.647990 0.401560
vt 0.568850 0.401560
vt 0.568850 0.436460
vt 0.648000 0.342820
vt 0.594380 0.342820
vt 0.594380 0.377720
vt 0.648000 0.377720
vt 0.568860 0.342820
vt 0.568860 0.377720
vt 0.804690 0.562500
vt 0.804690 0.481580
vt 0.889050 0.562500
vt 0.811580 0.445540
vt 0.889050 0.445540
vt 0.884350 0.419920
vt 0.804690 0.402280
vt 0.804690 0.419920
vt 0.889050 0.402280
vt 0.811580 0.285320
vt 0.804690 0.321250
vt 0.889050 0.285320
vt 0.900010 0.562480
vt 0.984370 0.481560
vt 0.984370 0.562480
vt 0.977480 0.445520
vt 0.900010 0.445520
vt 0.984370 0.419920
vt 0.984370 0.402280
vt 0.904710 0.419920
vt 0.900010 0.402280
vt 0.984370 0.321250
vt 0.977480 0.285320
vt 0.900010 0.285320
vt 0.643620 0.187440
vt 0.643620 0.196840
vt 0.563830 0.196840
vt 0.563830 0.187440
vt 0.206710 0.592790
vt 0.206710 0.562980
vt 0.703980 0.342820
vt 0.686290 0.342820
vt 0.686290 0.377720
vt 0.703980 0.377720
vt 0.665480 0.377720
vt 0.665480 0.342820
vt 0.686280 0.401560
vt 0.665470 0.401560
vt 0.665470 0.436460
vt 0.686280 0.436460
vt 0.703970 0.436460
vt 0.703970 0.401560
vt 0.584880 0.249990
vt 0.643620 0.249990
vt 0.647900 0.249990
vt 0.647900 0.196840
vt 0.655500 0.249990
vt 0.650650 0.249990
vt 0.650650 0.191160
vt 0.655500 0.191160
vt 0.028790 0.850930
vt 0.015620 0.950890
vt 0.024310 0.855670
vt 0.206710 0.537880
vt 0.718790 0.525320
vt 0.718790 0.638830
vt 0.740720 0.638830
vt 0.740720 0.525320
vt 0.718790 0.654170
vt 0.740720 0.654170
vt 0.757820 0.588000
vt 0.781950 0.588000
vt 0.761200 0.536470
vt 0.780230 0.536470
vt 0.785600 0.646820
vt 0.785600 0.588000
vt 0.784850 0.545150
vt 0.784850 0.578580
vt 0.879620 0.265570
vt 0.869010 0.201200
vt 0.990390 0.201200
vt 0.979770 0.265570
vt 0.953100 0.076150
vt 0.929700 0.076150
vt 0.929700 0.014700
vt 0.953100 0.014700
vt 0.898450 0.014720
vt 0.898450 0.076170
vt 0.921850 0.076170
vt 0.921850 0.014720
vt 0.889850 0.145910
vt 0.901700 0.145910
vt 0.901700 0.125040
vt 0.888190 0.112750
vt 0.906230 0.145910
vt 0.901700 0.171910
vt 0.906230 0.171910
vt 0.906230 0.125040
vt 0.947250 0.105500
vt 0.913130 0.105500
vt 0.867090 0.175870
vt 0.830100 0.175870
vt 0.867090 0.061370
vt 0.111040 0.932920
vt 0.066080 0.900720
vt 0.030140 0.456260
vt 0.020340 0.462280
vt 0.524560 0.456320
vt 0.534360 0.462340
vt 0.755600 0.217240
vt 0.769090 0.217240
vt 0.762390 0.237770
vt 0.737080 0.242060
vt 0.736000 0.250610
vt 0.743020 0.242140
vt 0.737080 0.242140
vt 0.748930 0.295330
vt 0.752200 0.306630
vt 0.759120 0.298280
vt 0.758270 0.284080
vt 0.752020 0.273730
vt 0.745100 0.282090
vt 0.788650 0.323560
vt 0.784500 0.339380
vt 0.771110 0.339380
vt 0.766970 0.323560
vt 0.771060 0.303840
vt 0.784480 0.303840
vt 0.784480 0.258640
vt 0.771060 0.258640
vt 0.773530 0.248760
vt 0.781990 0.248760
vt 0.773530 0.217280
vt 0.781990 0.217280
vt 0.737080 0.217240
vt 0.743020 0.217240
vt 0.996050 0.095800
vt 0.991190 0.095800
vt 0.991190 0.160120
vt 0.996050 0.160120
vt 0.980480 0.095800
vt 0.980480 0.160120
vt 0.980480 0.169880
vt 0.991190 0.169880
vt 0.706990 0.133110
vt 0.709930 0.133110
vt 0.709930 0.203060
vt 0.706990 0.203060
vt 0.684610 0.133110
vt 0.684610 0.203060
vt 0.706990 0.208920
vt 0.684610 0.208920
vt 0.188480 0.062490
vt 0.188480 0.048870
vt 0.220700 0.048870
vt 0.220700 0.062490
vt 0.227830 0.055680
vt 0.181180 0.055680
vt 0.196280 0.482580
vt 0.192470 0.497860
vt 0.196280 0.482560
vt 0.265600 0.483150
vt 0.358420 0.482620
vt 0.289100 0.483210
vt 0.362230 0.497920
vt 0.289100 0.498000
vt 0.265600 0.497940
vt 0.358420 0.482640
vt 0.155700 0.670310
vt 0.155700 0.935130
vt 0.813050 0.123040
vt 0.820750 0.175870
vt 0.823070 0.147890
vt 0.805810 0.119870
vt 0.812690 0.120570
vt 0.820720 0.175730
vt 0.206710 0.614790
vt 0.289070 0.269520
vt 0.289070 0.111640
vt 0.362310 0.119140
vt 0.362960 0.280900
vt 0.522350 0.267120
vt 0.523770 0.167850
vt 0.192370 0.119100
vt 0.265610 0.111600
vt 0.265610 0.269480
vt 0.191720 0.280860
vt 0.032330 0.267080
vt 0.030910 0.167810
vt 0.920780 0.779280
vt 0.909350 0.620490
vt 0.967570 0.601120
vt 0.827660 0.620650
vt 0.898620 0.620650
vt 0.887200 0.778530
vt 0.847090 0.778530
vt 0.840410 0.601280
vt 0.970640 0.590290
vt 0.960880 0.779280
vt 0.980320 0.620490
vt 0.838040 0.804260
vt 0.896260 0.823630
vt 0.884830 0.982420
vt 0.918410 0.981670
vt 0.906990 0.822880
vt 0.977950 0.822880
vt 0.958520 0.981670
vt 0.965200 0.803510
vt 0.834970 0.793430
vt 0.844730 0.982420
vt 0.825290 0.823630
vt 0.819810 0.819200
vt 0.822600 0.821450
vt 0.983010 0.618310
vt 0.985800 0.616060
vt 0.619220 0.561260
vt 0.636460 0.535980
vt 0.625800 0.520360
vt 0.640520 0.561260
vt 0.636460 0.586540
vt 0.625800 0.602160
vt 0.612630 0.602160
vt 0.601980 0.586540
vt 0.597910 0.561260
vt 0.601980 0.535980
vt 0.612630 0.520360
vt 0.680290 0.561260
vt 0.701600 0.561260
vt 0.697530 0.535980
vt 0.686880 0.520360
vt 0.673710 0.520360
vt 0.663050 0.535980
vt 0.658980 0.561260
vt 0.663050 0.586540
vt 0.673710 0.602160
vt 0.686880 0.602160
vt 0.697530 0.586540
vt 0.609490 0.635460
vt 0.630040 0.635460
vt 0.631820 0.653970
vt 0.607900 0.653970
vt 0.665030 0.708430
vt 0.665030 0.678530
vt 0.676570 0.685500
vt 0.676570 0.714030
vt 0.665030 0.738780
vt 0.676570 0.742990
vt 0.665030 0.769260
vt 0.676570 0.772080
vt 0.665030 0.799790
vt 0.676570 0.801200
vt 0.665030 0.830330
vt 0.676570 0.830330
vt 0.665030 0.860840
vt 0.676570 0.859460
vt 0.665030 0.891370
vt 0.676570 0.888580
vt 0.665030 0.921850
vt 0.676570 0.917670
vt 0.665030 0.952180
vt 0.676570 0.946610
vt 0.665030 0.982240
vt 0.676570 0.975300
vt 0.670560 0.635460
vt 0.691120 0.635460
vt 0.692890 0.653970
vt 0.668970 0.653970
vt 0.593750 0.678530
vt 0.593750 0.708430
vt 0.570290 0.714030
vt 0.570290 0.685500
vt 0.593750 0.738780
vt 0.570290 0.742990
vt 0.593750 0.769260
vt 0.570290 0.772280
vt 0.593750 0.799790
vt 0.570290 0.801200
vt 0.593750 0.830330
vt 0.570290 0.830330
vt 0.593750 0.860840
vt 0.570290 0.859460
vt 0.593750 0.891370
vt 0.570290 0.888580
vt 0.593750 0.921850
vt 0.570290 0.917670
vt 0.593750 0.952180
vt 0.570290 0.946610
vt 0.593750 0.982240
vt 0.570290 0.975300
vt 0.690610 0.714030
vt 0.690610 0.685500
vt 0.702150 0.678530
vt 0.702150 0.708430
vt 0.690610 0.742990
vt 0.702150 0.738780
vt 0.690610 0.772080
vt 0.702150 0.769260
vt 0.690610 0.801200
vt 0.702150 0.799790
vt 0.690610 0.830330
vt 0.702150 0.830330
vt 0.690610 0.859460
vt 0.702150 0.860840
vt 0.690610 0.888580
vt 0.702150 0.891370
vt 0.690610 0.917670
vt 0.702150 0.921850
vt 0.690610 0.946610
vt 0.702150 0.952180
vt 0.690610 0.975300
vt 0.702150 0.982240
vt 0.773440 0.708430
vt 0.773440 0.678530
vt 0.796880 0.685500
vt 0.796880 0.714030
vt 0.773440 0.738780
vt 0.796880 0.742990
vt 0.773440 0.769260
vt 0.796880 0.772280
vt 0.773440 0.799790
vt 0.796880 0.801200
vt 0.773440 0.830330
vt 0.796880 0.830330
vt 0.773440 0.860840
vt 0.796880 0.859460
vt 0.773440 0.891370
vt 0.796880 0.888580
vt 0.773440 0.921850
vt 0.796880 0.917670
vt 0.773440 0.952180
vt 0.796880 0.946610
vt 0.773440 0.982240
vt 0.796880 0.975300
vt 0.560540 0.982390
vt 0.560540 0.941460
vt 0.520170 0.946370
vt 0.520170 0.977480
vt 0.494510 0.961920
vt 0.824360 0.011890
vt 0.838310 0.011890
vt 0.857940 0.011890
vt 0.871880 0.011890
vt 0.987330 0.050160
vt 0.997940 0.041400
vt 0.987330 0.050150
vt 0.997930 0.041400
vt 0.975070 0.053060
vt 0.975070 0.053070
vt 0.963010 0.051480
vt 0.982390 0.033690
vt 0.967570 0.026090
s 1
usemtl mat1
f 2/1/1 3/2/1 4/3/1
f 6/4/1 7/5/1 5/6/1
f 9/7/2 10/8/3 3/9/3 2/10/2
f 2/10/2 1/9/4 8/8/4 9/7/2
f 4/10/5 3/9/3 10/8/3 11/7/5
f 11/8/5 12/7/6 5/10/6 4/9/5
f 7/10/7 6/9/8 13/8/8 14/7/7
f 6/9/8 5/10/6 12/7/6 13/8/8
f 1/9/4 7/10/7 14/7/7 8/8/4
f 5/6/1 7/5/1 1/11/1
f 1/11/1 2/1/1 4/3/1
f 5/6/1 1/11/1 4/3/1
f 15/12/9 19/13/10 16/14/11
f 18/15/12 17/16/13 15/12/9
f 16/14/11 18/15/12 15/12/9
f 20/17/14 19/13/10 15/12/9
f 17/16/13 20/17/14 15/12/9
f 23/14/15 26/13/16 22/12/17
f 22/12/17 24/16/18 25/15/19
f 22/12/17 25/15/19 23/14/20
f 22/12/17 26/13/16 27/17/21
f 22/12/17 27/17/21 24/16/18
f 26/13/22 23/14/22 28/18/22
f 19/13/23 21/18/23 16/14/23
f 36/19/24 34/20/24 32/21/24
f 30/22/24 36/19/24 32/21/24
f 44/23/25 42/24/25 38/25/25
f 42/24/25 40/26/25 38/25/25
f 47/27/26 48/28/27 49/29/28
f 45/28/29 46/27/30 50/29/31
f 58/30/32 55/31/33 64/32/32
f 55/33/33 102/34/34 62/35/35
f 55/33/33 56/36/36 53/37/37
f 102/34/34 55/33/33 53/37/37
f 61/38/38 63/39/39 62/35/35
f 102/34/34 61/38/38 62/35/35
f 54/38/40 53/34/37 56/35/36
f 57/39/41 54/38/40 56/35/36
f 58/40/42 54/41/43 57/42/44
f 65/43/45 54/41/43 58/40/42
f 67/42/44 61/41/46 68/40/47
f 68/40/47 61/41/46 70/43/48
f 100/44/49 99/45/50 113/46/51
f 100/44/49 98/47/52 99/45/50
f 98/47/52 100/44/49 101/48/53
f 97/49/53 98/47/52 101/48/53
f 119/46/54 105/45/55 106/44/56
f 105/45/55 104/47/57 106/44/56
f 107/48/58 106/44/56 104/47/57
f 107/48/58 104/47/57 103/49/58
f 110/50/59 111/51/60 113/52/61
f 109/53/62 111/51/60 110/50/59
f 111/51/60 109/53/62 112/54/63
f 109/53/62 108/55/63 112/54/63
f 119/52/64 117/51/65 116/50/66
f 116/50/66 117/51/65 115/53/67
f 118/54/68 115/53/67 117/51/65
f 118/54/68 114/55/68 115/53/67
f 54/56/40 397/57/69 140/58/70
f 398/59/71 61/60/38 143/61/72
f 140/58/70 127/62/73 129/63/74
f 141/64/75 140/58/70 129/63/74
f 143/61/72 142/65/76 131/66/77
f 132/67/78 143/61/72 131/66/77
f 128/68/79 96/69/80 141/64/75
f 139/70/81 397/57/69 46/71/82
f 398/59/71 144/72/83 47/73/84
f 47/73/84 144/72/83 145/74/85
f 48/75/86 47/73/84 145/74/85
f 46/71/82 45/76/87 138/77/88
f 139/70/81 46/71/82 138/77/88
f 155/78/89 149/79/90 151/80/91
f 157/81/92 155/78/89 151/80/91
f 150/82/93 147/83/94 153/84/95
f 156/85/96 150/82/93 153/84/95
f 138/77/88 124/86/97 125/87/98
f 139/70/81 138/77/88 125/87/98
f 139/70/81 125/87/98 126/88/98
f 397/57/69 139/70/81 126/88/98
f 397/57/69 126/88/98 127/62/73
f 140/58/70 397/57/69 127/62/73
f 132/67/78 133/89/99 398/59/71
f 143/61/72 132/67/78 398/59/71
f 398/59/71 133/89/99 134/90/99
f 144/72/83 398/59/71 134/90/99
f 144/72/83 134/90/99 135/91/100
f 145/74/85 144/72/83 135/91/100
f 151/80/91 138/77/88 148/92/101
f 146/93/102 48/75/86 145/74/85
f 150/82/93 146/93/102 145/74/85
f 157/81/92 137/94/103 123/95/104
f 155/78/89 157/81/92 123/95/104
f 122/96/105 137/94/103 157/81/92
f 154/97/106 122/96/105 157/81/92
f 151/80/91 148/92/101 154/97/106
f 157/81/92 151/80/91 154/97/106
f 121/98/107 136/99/108 156/85/96
f 153/84/95 121/98/107 156/85/96
f 156/85/96 136/99/108 120/100/109
f 152/101/110 156/85/96 120/100/109
f 150/82/93 156/85/96 152/101/110
f 146/93/102 150/82/93 152/101/110
f 164/102/111 177/103/112 141/104/75
f 129/105/74 164/102/111 141/104/75
f 142/106/76 178/107/113 165/108/114
f 131/109/77 142/106/76 165/108/114
f 184/110/115 154/111/106 148/112/101
f 180/113/116 184/110/115 148/112/101
f 183/114/117 179/115/118 146/116/102
f 152/117/110 183/114/117 146/116/102
f 102/118/34 166/119/119 163/120/120
f 130/121/121 102/118/34 163/120/120
f 131/122/77 165/123/114 167/124/122
f 132/125/78 131/122/77 167/124/122
f 164/126/111 129/127/74 127/128/73
f 168/129/123 164/126/111 127/128/73
f 132/125/78 167/124/122 169/130/122
f 133/131/99 132/125/78 169/130/122
f 168/129/123 127/128/73 126/132/98
f 170/133/123 168/129/123 126/132/98
f 133/131/99 169/130/122 171/134/122
f 134/135/99 133/131/99 171/134/122
f 170/133/123 126/132/98 125/136/98
f 172/137/123 170/133/123 125/136/98
f 134/135/99 171/134/122 173/138/124
f 135/139/100 134/135/99 173/138/124
f 172/137/123 125/136/98 124/140/97
f 174/141/125 172/137/123 124/140/97
f 121/142/107 160/143/126 175/144/127
f 136/145/108 121/142/107 175/144/127
f 176/146/128 161/147/129 123/148/104
f 137/149/103 176/146/128 123/148/104
f 147/150/94 135/139/100 173/138/124
f 181/151/130 147/150/94 173/138/124
f 182/152/131 174/141/125 124/140/97
f 149/153/90 182/152/131 124/140/97
f 152/117/110 120/154/109 158/155/132
f 183/114/117 152/117/110 158/155/132
f 159/156/133 122/157/105 154/111/106
f 184/110/115 159/156/133 154/111/106
f 185/158/134 160/159/126 121/160/107
f 153/161/95 185/158/134 121/160/107
f 147/150/94 181/151/130 185/158/134
f 153/161/95 147/150/94 185/158/134
f 155/162/89 123/163/104 161/164/129
f 186/165/135 155/162/89 161/164/129
f 182/152/131 149/153/90 155/162/89
f 186/165/135 182/152/131 155/162/89
f 189/166/136 188/167/137 187/168/138
f 189/166/136 190/169/139 188/167/137
f 190/169/139 191/170/140 188/167/137
f 190/169/139 192/171/141 191/170/140
f 193/172/142 342/173/143 191/170/140
f 191/170/140 192/171/141 193/172/142
f 193/172/142 194/174/144 342/173/143
f 194/174/145 193/172/146 192/171/146
f 195/175/147 196/176/148 197/177/136
f 196/176/148 198/178/149 197/177/136
f 196/176/148 199/179/150 198/178/149
f 199/179/150 200/180/151 198/178/149
f 199/179/150 340/181/152 201/182/153
f 201/182/153 200/180/151 199/179/150
f 340/181/152 202/183/154 201/182/153
f 200/180/155 201/182/155 202/183/154
f 205/184/156 206/185/156 203/186/156
f 206/185/156 207/187/156 203/186/156
f 211/185/157 210/184/157 214/186/157
f 212/187/157 211/185/157 214/186/157
f 205/184/156 203/186/156 208/188/156
f 204/189/156 205/184/156 208/188/156
f 210/184/157 209/189/157 213/188/158
f 214/186/157 210/184/157 213/188/158
f 215/190/157 218/191/157 217/192/157
f 215/190/157 219/193/157 218/191/157
f 226/190/156 222/192/156 223/191/156
f 226/190/156 223/191/156 224/193/156
f 220/194/157 215/190/157 217/192/157
f 220/194/157 217/192/157 216/195/157
f 225/194/159 221/195/156 222/192/156
f 225/194/159 222/192/156 226/190/156
f 213/196/160 208/197/161 203/198/162
f 214/199/163 213/196/160 203/198/162
f 213/196/160 209/200/164 204/201/165
f 208/197/161 213/196/160 204/201/165
f 215/202/166 220/203/167 225/204/159
f 226/205/163 215/202/166 225/204/159
f 216/206/168 221/207/164 225/204/159
f 220/203/167 216/206/168 225/204/159
f 228/208/169 229/209/169 227/210/169
f 230/211/169 227/210/169 229/209/169
f 231/212/169 227/210/169 230/211/169
f 227/213/170 232/214/171 228/215/172
f 227/213/170 233/216/173 232/214/171
f 232/214/174 230/217/175 229/218/176
f 230/217/175 232/214/174 233/216/177
f 231/219/177 230/217/175 233/216/177
f 234/220/169 236/221/169 235/222/169
f 236/221/169 234/220/169 237/223/169
f 237/223/169 234/220/169 238/224/169
f 235/225/178 239/226/179 234/227/180
f 239/226/179 240/228/173 234/227/180
f 236/229/181 237/230/182 239/226/183
f 240/228/177 239/226/183 237/230/182
f 240/228/177 237/230/182 238/231/177
f 264/232/169 262/233/169 260/234/169
f 258/235/169 264/232/169 260/234/169
f 272/232/169 270/233/169 268/234/169
f 266/235/169 272/232/169 268/234/169
f 280/232/169 278/233/169 276/234/169
f 274/235/169 280/232/169 276/234/169
f 288/232/169 286/233/169 284/234/169
f 282/235/169 288/232/169 284/234/169
f 296/232/169 294/233/169 292/234/169
f 290/235/169 296/232/169 292/234/169
f 300/234/169 302/233/169 304/232/169
f 300/234/169 304/232/169 298/235/169
f 308/234/169 310/233/169 312/232/169
f 308/234/169 312/232/169 306/235/169
f 316/234/169 318/233/169 320/232/169
f 316/234/169 320/232/169 314/235/169
f 324/234/169 326/233/169 328/232/169
f 324/234/169 328/232/169 322/235/169
f 332/234/169 334/233/169 336/232/169
f 332/234/169 336/232/169 330/235/169
f 52/236/184 51/237/184 179/115/118 180/113/116
f 180/113/116 179/115/118 183/114/117 184/110/115
f 159/156/133 158/155/132 175/144/185 176/146/185
f 183/114/117 158/155/132 159/156/133 184/110/115
f 161/147/129 176/146/128 175/144/127 160/143/126
f 217/238/186 218/239/187 223/240/187 222/241/186
f 224/242/188 223/240/187 218/239/187 219/243/188
f 226/205/163 224/242/189 219/243/189 215/202/166
f 211/244/187 212/245/188 207/246/188 206/247/187
f 212/245/189 214/199/163 203/198/162 207/246/189
f 206/247/187 205/248/186 210/249/186 211/244/187
f 289/250/157 295/251/157 296/233/157 290/234/157
f 281/250/157 287/251/157 288/233/157 282/234/157
f 280/233/157 274/234/157 273/250/157 279/251/157
f 272/233/157 266/234/157 265/250/157 271/251/157
f 257/250/157 263/251/157 264/233/157 258/234/157
f 316/234/157 315/250/157 317/251/157 318/233/157
f 324/234/157 323/250/157 325/251/157 326/233/157
f 332/234/157 331/250/157 333/251/157 334/233/157
f 309/251/157 310/233/157 308/234/157 307/250/157
f 300/234/157 299/250/157 301/251/157 302/233/157
f 329/250/156 330/234/156 336/233/156 335/251/156
f 328/233/156 327/251/156 321/250/156 322/234/156
f 320/233/156 319/251/156 313/250/156 314/234/156
f 297/250/156 298/234/156 304/233/156 303/251/156
f 305/250/156 306/234/156 312/233/156 311/251/156
f 261/251/156 259/250/156 260/234/156 262/233/156
f 269/251/156 267/250/156 268/234/156 270/233/156
f 277/251/156 275/250/156 276/234/156 278/233/156
f 285/251/156 283/250/156 284/234/156 286/233/156
f 293/251/156 291/250/156 292/234/156 294/233/156
f 295/252/190 293/251/190 294/233/190 296/253/190
f 287/252/190 285/251/190 286/233/190 288/253/190
f 279/252/190 277/251/190 278/233/190 280/253/190
f 271/252/190 269/251/190 270/233/190 272/253/190
f 262/233/190 264/253/190 263/252/190 261/251/190
f 302/233/190 301/251/190 303/252/190 304/253/190
f 310/233/190 309/251/190 311/252/190 312/253/190
f 318/233/190 317/251/190 319/252/190 320/253/190
f 326/233/190 325/251/190 327/252/190 328/253/190
f 267/254/191 265/255/191 266/256/191 268/257/191
f 275/254/191 273/255/191 274/256/191 276/257/191
f 283/254/191 281/255/191 282/256/191 284/257/191
f 290/256/191 292/257/191 291/254/191 289/255/191
f 259/254/191 257/255/191 258/256/191 260/257/191
f 299/254/191 300/257/191 298/256/191 297/255/191
f 306/256/191 305/255/191 307/254/191 308/257/191
f 330/256/191 329/255/191 331/254/191 332/257/191
f 322/256/191 321/255/191 323/254/191 324/257/191
f 314/256/191 313/255/191 315/254/191 316/257/191
f 160/159/126 185/158/134 186/165/135 161/164/129
f 181/151/130 182/152/131 186/165/135 185/158/134
f 174/141/125 182/152/131 181/151/130 173/138/124
f 174/141/125 173/138/124 171/134/122 172/137/123
f 169/130/122 170/133/123 172/137/123 171/134/122
f 167/124/122 168/129/123 170/133/123 169/130/122
f 168/129/123 167/124/122 165/123/114 164/126/111
f 177/103/112 164/102/111 165/108/114 178/107/113
f 163/120/120 162/258/192 177/103/112 178/107/113
f 162/258/192 166/119/119 96/259/80
f 128/260/79 162/258/192 96/259/80
f 141/104/75 177/103/112 162/258/192
f 128/260/79 141/104/75 162/258/192
f 142/106/76 130/121/121 163/120/120
f 178/107/113 142/106/76 163/120/120
f 179/115/118 51/237/184 48/261/193
f 146/116/102 179/115/118 48/261/193
f 249/262/194 255/263/195 253/264/195 251/265/196
f 245/264/197 247/263/197 241/262/198 243/265/199
f 243/264/199 241/263/198 242/266/200 244/267/200
f 250/266/201 249/263/194 251/264/196 252/267/201
f 252/265/202 254/264/203 256/263/204 250/262/202
f 244/265/205 242/262/205 248/263/206 246/264/207
f 255/263/208 256/266/204 254/267/203 253/264/208
f 246/267/207 248/266/206 247/263/209 245/264/209
f 34/268/210 36/269/210 35/19/210 33/20/210
f 41/24/211 43/23/211 37/25/211 39/26/211
f 43/23/212 41/24/212 42/270/212 44/271/212
f 29/22/213 31/21/213 33/20/213 35/19/213
f 33/19/157 31/272/157 32/273/157 34/269/157
f 29/272/156 35/19/156 36/269/156 30/273/156
f 31/20/214 29/19/214 30/269/214 32/268/214
f 39/24/215 37/23/215 38/271/215 40/270/215
f 37/25/156 43/23/156 44/274/156 38/275/156
f 40/275/157 42/274/157 41/23/157 39/25/157
f 62/276/35 63/277/39 64/32/32 55/31/33
f 58/30/32 57/278/41 56/279/36 55/31/33
f 89/280/216 88/281/216 90/282/216 91/283/216
f 94/284/217 92/285/217 93/286/217 95/287/217
f 83/288/156 82/289/156 84/290/156 85/291/156
f 79/291/156 73/288/156 72/289/156 78/290/156
f 76/290/157 74/289/157 75/288/157 77/291/157
f 78/292/218 76/289/218 77/293/219 79/294/219
f 87/291/157 86/290/157 80/289/157 81/288/157
f 85/293/219 84/289/218 86/292/218 87/294/219
f 84/290/218 82/289/220 80/292/220 86/295/218
f 72/292/220 74/289/220 76/290/218 78/295/218
f 74/289/190 72/292/190 73/294/190 75/293/190
f 81/294/190 80/292/190 82/289/190 83/293/190
f 70/43/48 61/41/38 395/42/221
f 71/40/222 70/43/48 395/42/221
f 396/42/223 54/41/224 65/43/45
f 66/40/225 396/42/226 65/43/45
f 59/296/190 58/30/32 64/32/32 60/297/190
f 70/43/48 71/41/222 69/42/156 68/40/47
f 59/42/157 66/41/225 65/43/45 58/40/42
f 396/298/227 395/299/228 49/29/229 50/300/31
f 142/65/76 143/61/72 61/60/38
f 141/64/75 96/69/80 54/56/40
f 140/58/70 141/64/75 54/56/40
f 142/65/76 61/60/38 102/301/34
f 130/302/121 142/65/76 102/301/34
f 147/83/94 150/82/93 145/74/85
f 135/91/100 147/83/94 145/74/85
f 149/79/90 124/86/97 138/77/88
f 151/80/91 149/79/90 138/77/88
f 340/181/152 199/179/150 341/303/230
f 341/303/230 202/304/154 340/181/152
f 343/305/231 191/170/140 342/173/143
f 194/306/144 343/305/232 342/173/143
f 351/307/233 352/308/234 350/309/235
f 365/310/236 363/311/237 362/312/238
f 364/311/239 366/313/240 362/312/241
f 360/314/242 351/315/233 350/316/235
f 359/317/243 360/314/242 350/316/235
f 356/318/244 357/319/245 360/314/242
f 359/317/243 356/318/244 360/314/242
f 350/316/235 352/315/234 361/314/246
f 359/317/247 350/316/235 361/314/246
f 356/318/248 359/317/247 361/314/246
f 358/319/249 356/318/248 361/314/246
f 361/320/250 352/321/250 351/322/250 360/323/250
f 361/320/250 360/323/250 357/324/250 358/325/250
f 364/326/251 358/325/250 357/324/250 363/327/251
f 364/326/251 363/327/251 365/328/252 366/329/253
f 365/328/252 354/330/190 355/331/190 366/329/253
f 354/332/254 365/310/236 362/312/238 353/333/254
f 363/311/237 357/319/245 356/318/244 362/312/238
f 364/311/239 362/312/241 356/318/248 358/319/249
f 366/313/240 355/332/255 353/333/255 362/312/241
f 368/334/1 370/335/1 369/336/1 367/337/1
f 370/338/156 372/335/156 371/336/156 369/339/156
f 372/335/190 374/334/190 373/337/190 371/336/190
f 374/335/157 368/338/157 367/339/157 373/336/157
f 367/340/4 369/339/4 371/336/4 373/341/4
f 162/258/192 163/120/120 166/119/119
f 376/342/1 378/343/1 377/344/1 375/345/1
f 378/342/156 380/346/156 379/347/156 377/345/156
f 380/343/190 382/342/190 381/345/190 379/344/190
f 382/346/157 376/342/157 375/345/157 381/347/157
f 375/345/4 377/348/4 379/349/4 381/347/4
f 389/350/256 390/351/257 385/352/258 384/353/259
f 390/351/257 391/350/260 386/353/261 385/352/258
f 391/350/260 392/351/262 387/352/263 386/353/261
f 392/350/262 393/351/264 388/352/265 387/353/263
f 393/351/264 389/350/256 384/353/259 388/352/265
f 384/353/259 385/352/258 383/354/1
f 385/352/258 386/353/261 383/354/1
f 386/353/261 387/352/263 383/354/1
f 387/353/263 388/352/265 383/354/1
f 388/352/265 384/353/259 383/354/1
f 390/351/257 389/350/256 394/355/190
f 391/350/260 390/351/257 394/355/190
f 392/351/262 391/350/260 394/355/190
f 393/351/264 392/350/262 394/355/190
f 389/350/256 393/351/264 394/355/190
f 334/233/190 333/251/190 335/252/190 336/253/190
f 196/176/148 349/356/266 341/303/230
f 199/179/150 196/176/148 341/303/230
f 341/303/230 349/356/266 339/357/267
f 202/304/268 341/303/269 339/357/270
f 349/358/266 196/176/148 195/175/147
f 348/359/271 349/358/266 195/175/147
f 347/360/272 346/361/273 187/168/138
f 188/167/137 347/360/272 187/168/138
f 347/360/272 344/362/274 337/363/275
f 346/361/273 347/360/272 337/363/275
f 338/364/276 339/357/267 349/358/266
f 348/359/271 338/364/276 349/358/266
f 188/167/137 191/170/140 343/305/231
f 347/365/272 188/167/137 343/305/231
f 113/366/51 46/71/82 397/57/69
f 398/59/71 47/73/84 119/367/54
f 119/367/54 61/60/38 398/59/71
f 54/56/40 113/366/51 397/57/69
f 102/301/34 61/60/38 119/367/54
f 113/368/61 54/369/277 396/370/227
f 61/369/278 119/368/64 395/370/279
f 119/368/64 47/27/26 49/29/28
f 395/299/279 119/368/64 49/29/28
f 113/368/61 396/299/227 50/29/31
f 46/27/30 113/368/61 50/29/31
f 96/371/280 54/372/281 113/373/282
f 344/362/274 347/365/272 343/305/231
f 345/306/283 344/362/284 343/305/283
f 138/77/88 45/76/87 148/92/101
f 45/374/29 52/236/184 180/113/116
f 148/112/101 45/374/29 180/113/116
f 399/375/285 407/376/286 410/377/287
f 410/377/287 400/378/288 399/375/285
f 401/379/289 400/378/288 410/377/287
f 410/377/287 402/380/290 401/379/289
f 409/381/291 408/382/286 403/383/292
f 403/383/292 404/384/293 409/381/291
f 409/381/291 404/384/293 405/385/294
f 405/385/294 406/386/295 409/381/291
f 411/387/157 415/388/157 414/389/296
f 416/390/297 415/391/298 411/392/299
f 411/392/299 412/393/300 416/390/297
f 426/394/301 415/391/298 416/390/297
f 426/395/301 414/389/302 415/388/298
f 412/396/303 411/387/157 414/389/296
f 413/397/304 412/396/303 414/389/296
f 420/398/305 421/399/156 417/400/156
f 417/401/306 421/402/307 422/403/308
f 422/403/308 418/404/309 417/401/306
f 422/403/308 421/402/307 423/405/310
f 421/399/307 420/398/311 423/406/310
f 420/398/305 417/400/156 418/407/312
f 420/398/305 418/407/312 419/408/313
f 418/407/309 422/409/308 424/410/314
f 424/410/315 419/408/313 418/407/312
f 424/410/314 422/409/308 423/406/310
f 424/410/314 423/406/310 420/398/311
f 419/408/313 424/410/315 420/398/305
f 425/411/316 416/412/297 412/396/300
f 412/396/303 413/397/304 425/411/317
f 426/395/301 416/412/297 425/411/316
f 414/389/302 426/395/301 425/411/316
f 414/389/296 425/411/317 413/397/304
f 427/413/318 429/414/319 428/415/320
f 427/413/318 430/416/321 429/414/319
f 427/413/318 431/417/322 430/416/321
f 427/413/318 432/418/323 431/417/322
f 427/413/318 433/419/324 432/418/323
f 427/413/318 434/420/325 433/419/324
f 427/413/318 435/421/326 434/420/325
f 427/413/318 436/422/327 435/421/326
f 427/413/318 437/423/328 436/422/327
f 427/413/318 428/415/320 437/423/328
f 448/424/329 438/425/330 439/426/331
f 448/424/329 439/426/331 440/427/332
f 448/424/329 440/427/332 441/428/333
f 448/424/329 441/428/333 442/429/334
f 448/424/329 442/429/334 443/430/335
f 448/424/329 443/430/335 444/431/336
f 448/424/329 444/431/336 445/432/337
f 448/424/329 445/432/337 446/433/338
f 448/424/329 446/433/338 447/434/339
f 448/424/329 447/434/339 438/425/330
f 459/435/340 428/419/320 429/418/319 460/436/341
f 459/435/340 460/436/341 450/437/342 449/438/343
f 460/436/341 429/418/319 430/419/321 461/435/344
f 460/436/341 461/435/344 451/438/345 450/437/342
f 461/435/344 430/419/321 431/418/322 462/436/346
f 461/435/344 462/436/346 452/437/347 451/438/345
f 462/436/346 431/418/322 432/419/323 463/435/348
f 462/436/346 463/435/348 453/438/349 452/437/347
f 463/435/348 432/419/323 433/418/324 464/436/350
f 463/435/348 464/436/350 454/437/351 453/438/349
f 464/436/350 433/418/324 434/419/325 465/435/352
f 464/436/350 465/435/352 455/438/353 454/437/351
f 465/435/352 434/419/325 435/418/326 466/436/354
f 465/435/352 466/436/354 456/437/355 455/438/353
f 466/436/354 435/418/326 436/419/327 467/435/356
f 466/436/354 467/435/356 457/438/357 456/437/355
f 467/435/356 436/419/327 437/418/328 468/436/358
f 467/435/356 468/436/358 458/437/359 457/438/357
f 468/436/358 437/418/328 428/419/320 459/435/340
f 468/436/358 459/435/340 449/438/343 458/437/359
f 470/439/360 469/440/361 449/441/343 450/442/342
f 471/443/362 470/439/360 450/442/342 451/444/345
f 472/445/363 471/443/362 451/444/345 452/446/347
f 473/447/364 472/445/363 452/446/347 453/448/349
f 474/449/365 473/447/364 453/448/349 454/450/351
f 475/451/366 474/449/365 454/450/351 455/452/353
f 476/453/367 475/451/366 455/452/353 456/454/355
f 477/455/368 476/453/367 456/454/355 457/456/357
f 478/457/369 477/455/368 457/456/357 458/458/359
f 469/459/361 478/457/369 458/458/359 449/460/343
f 490/461/370 439/432/331 438/433/330 489/462/371
f 490/461/370 489/462/371 479/463/372 480/464/373
f 491/462/374 440/433/332 439/432/331 490/461/370
f 491/462/374 490/461/370 480/464/373 481/463/375
f 492/461/376 441/432/333 440/433/332 491/462/374
f 492/461/376 491/462/374 481/463/375 482/464/377
f 493/462/378 442/433/334 441/432/333 492/461/376
f 493/462/378 492/461/376 482/464/377 483/463/379
f 494/461/380 443/432/335 442/433/334 493/462/378
f 494/461/380 493/462/378 483/463/379 484/464/381
f 495/462/382 444/433/336 443/432/335 494/461/380
f 495/462/382 494/461/380 484/464/381 485/463/383
f 496/461/384 445/432/337 444/433/336 495/462/382
f 496/461/384 495/462/382 485/463/383 486/464/385
f 497/462/386 446/433/338 445/432/337 496/461/384
f 497/462/386 496/461/384 486/464/385 487/463/387
f 498/461/388 447/432/339 446/433/338 497/462/386
f 498/461/388 497/462/386 487/463/387 488/464/389
f 489/462/371 438/433/330 447/432/339 498/461/388
f 489/462/371 498/461/388 488/464/389 479/463/372
f 499/465/390 469/440/361 470/439/360 500/466/391
f 499/465/390 500/466/391 480/467/373 479/468/372
f 500/466/391 470/439/360 471/443/362 501/469/392
f 500/466/391 501/469/392 481/470/375 480/467/373
f 501/469/392 471/443/362 472/445/363 502/471/393
f 501/469/392 502/471/393 482/472/377 481/470/375
f 502/471/393 472/445/363 473/447/364 503/473/394
f 502/471/393 503/473/394 483/474/379 482/472/377
f 503/473/394 473/447/364 474/449/365 504/475/395
f 503/473/394 504/475/395 484/476/381 483/474/379
f 504/475/395 474/449/365 475/451/366 505/477/396
f 504/475/395 505/477/396 485/478/383 484/476/381
f 505/477/396 475/451/366 476/453/367 506/479/397
f 505/477/396 506/479/397 486/480/385 485/478/383
f 506/479/397 476/453/367 477/455/368 507/481/398
f 506/479/397 507/481/398 487/482/387 486/480/385
f 507/481/398 477/455/368 478/457/369 508/483/399
f 507/481/398 508/483/399 488/484/389 487/482/387
f 508/483/399 478/457/369 469/459/361 499/485/390
f 508/483/399 499/485/390 479/486/372 488/484/389
f 510/415/320 511/414/328 509/413/318
f 511/414/328 512/416/327 509/413/318
f 512/416/327 513/417/326 509/413/318
f 513/417/326 514/418/325 509/413/318
f 514/418/325 515/419/324 509/413/318
f 515/419/324 516/420/323 509/413/318
f 516/420/323 517/421/322 509/413/318
f 517/421/322 518/422/321 509/413/318
f 518/422/321 519/423/319 509/413/318
f 519/423/319 510/415/320 509/413/318
f 521/426/400 520/425/401 530/424/329
f 522/427/402 521/426/400 530/424/329
f 523/428/403 522/427/402 530/424/329
f 524/429/404 523/428/403 530/424/329
f 525/430/405 524/429/404 530/424/329
f 526/431/406 525/430/405 530/424/329
f 527/432/407 526/431/406 530/424/329
f 528/433/408 527/432/407 530/424/329
f 529/434/409 528/433/408 530/424/329
f 520/425/401 529/434/409 530/424/329
f 542/436/358 511/418/328 510/419/320 541/435/340
f 531/438/343 532/437/359 542/436/358 541/435/340
f 543/435/356 512/419/327 511/418/328 542/436/358
f 532/437/359 533/438/357 543/435/356 542/436/358
f 544/436/354 513/418/326 512/419/327 543/435/356
f 533/438/357 534/437/355 544/436/354 543/435/356
f 545/435/352 514/419/325 513/418/326 544/436/354
f 534/437/355 535/438/410 545/435/352 544/436/354
f 546/436/350 515/418/324 514/419/325 545/435/352
f 535/438/410 536/437/351 546/436/350 545/435/352
f 547/435/348 516/419/323 515/418/324 546/436/350
f 536/437/351 537/438/349 547/435/348 546/436/350
f 548/436/346 517/418/322 516/419/323 547/435/348
f 537/438/349 538/437/347 548/436/346 547/435/348
f 549/435/344 518/419/321 517/418/322 548/436/346
f 538/437/347 539/438/345 549/435/344 548/436/346
f 550/436/341 519/418/319 518/419/321 549/435/344
f 539/438/345 540/437/342 550/436/341 549/435/344
f 541/435/340 510/419/320 519/418/319 550/436/341
f 540/437/342 531/438/343 541/435/340 550/436/341
f 532/487/359 531/488/343 551/489/361 552/490/369
f 533/491/357 532/487/359 552/490/369 553/492/368
f 534/493/355 533/491/357 553/492/368 554/494/367
f 535/495/410 534/493/355 554/494/367 555/496/366
f 536/497/351 535/495/410 555/496/366 556/498/365
f 537/499/349 536/497/351 556/498/365 557/500/364
f 538/501/347 537/499/349 557/500/364 558/502/363
f 539/503/345 538/501/347 558/502/363 559/504/362
f 540/505/342 539/503/345 559/504/362 560/506/360
f 531/507/343 540/505/342 560/506/360 551/508/361
f 571/462/411 520/433/401 521/432/400 572/461/412
f 562/464/413 561/463/414 571/462/411 572/461/412
f 572/461/412 521/432/400 522/433/402 573/462/415
f 563/463/416 562/464/413 572/461/412 573/462/415
f 573/462/415 522/433/402 523/432/403 574/461/417
f 564/464/418 563/463/416 573/462/415 574/461/417
f 574/461/417 523/432/403 524/433/404 575/462/419
f 565/463/420 564/464/418 574/461/417 575/462/419
f 575/462/419 524/433/404 525/432/405 576/461/421
f 566/464/422 565/463/420 575/462/419 576/461/421
f 576/461/421 525/432/405 526/433/406 577/462/423
f 567/463/424 566/464/422 576/461/421 577/462/423
f 577/462/423 526/433/406 527/432/407 578/461/425
f 568/464/426 567/463/424 577/462/423 578/461/425
f 578/461/425 527/432/407 528/433/408 579/462/427
f 569/463/428 568/464/426 578/461/425 579/462/427
f 579/462/427 528/433/408 529/432/409 580/461/429
f 570/464/430 569/463/428 579/462/427 580/461/429
f 580/461/429 529/432/409 520/433/401 571/462/411
f 561/463/414 570/464/430 580/461/429 571/462/411
f 582/509/431 552/490/369 551/489/361 581/510/432
f 561/511/414 562/512/413 582/509/431 581/510/432
f 583/513/433 553/492/368 552/490/369 582/509/431
f 562/512/413 563/514/416 583/513/433 582/509/431
f 584/515/434 554/494/367 553/492/368 583/513/433
f 563/514/416 564/516/418 584/515/434 583/513/433
f 585/517/435 555/496/366 554/494/367 584/515/434
f 564/516/418 565/518/420 585/517/435 584/515/434
f 586/519/436 556/498/365 555/496/366 585/517/435
f 565/518/420 566/520/422 586/519/436 585/517/435
f 587/521/437 557/500/364 556/498/365 586/519/436
f 566/520/422 567/522/424 587/521/437 586/519/436
f 588/523/438 558/502/363 557/500/364 587/521/437
f 567/522/424 568/524/426 588/523/438 587/521/437
f 589/525/439 559/504/362 558/502/363 588/523/438
f 568/524/426 569/526/428 589/525/439 588/523/438
f 590/527/440 560/506/360 559/504/362 589/525/439
f 569/526/428 570/528/430 590/527/440 589/525/439
f 581/529/432 551/508/361 560/506/360 590/527/440
f 570/528/430 561/530/414 581/529/432 590/527/440
f 599/531/441 600/532/442 593/533/443 592/534/441
f 600/532/442 601/531/444 594/534/445 593/533/443
f 601/531/444 602/532/446 595/533/447 594/534/445
f 602/532/446 603/531/448 596/534/449 595/533/447
f 603/531/448 604/532/450 597/533/451 596/534/449
f 604/532/450 605/531/452 598/534/453 597/533/451
f 605/531/452 599/532/441 592/533/441 598/534/453
f 592/534/454 593/533/455 591/535/329
f 593/533/455 594/534/456 591/535/329
f 594/534/456 595/533/457 591/535/329
f 595/533/457 596/534/458 591/535/329
f 596/534/458 597/533/459 591/535/329
f 597/533/459 598/534/460 591/535/329
f 598/534/460 592/533/454 591/535/329
f 607/534/441 608/533/453 615/532/452 614/531/441
f 608/533/453 609/534/451 616/531/450 615/532/452
f 609/534/451 610/533/449 617/532/448 616/531/450
f 610/533/449 611/534/447 618/531/446 617/532/448
f 611/534/447 612/533/445 619/532/444 618/531/446
f 612/533/445 613/534/443 620/531/442 619/532/444
f 613/534/443 607/533/441 614/532/441 620/531/442
f 606/535/461 608/533/462 607/534/463
f 606/535/461 609/534/464 608/533/462
f 606/535/461 610/533/465 609/534/464
f 606/535/461 611/534/466 610/533/465
f 606/535/461 612/533/467 611/534/466
f 606/535/461 613/534/468 612/533/467
f 606/535/461 607/533/463 613/534/468
f 622/536/469 625/537/469 623/29/469
f 626/538/469 621/539/469 624/300/469
f 624/300/469 623/29/469 625/537/469 626/538/469
f 158/155/132 120/154/109 136/145/470
f 175/144/185 158/155/132 136/145/470
f 137/149/471 122/157/105 159/156/133
f 176/146/185 137/149/471 159/156/133
f 633/540/472 632/541/473 629/542/474
f 632/541/473 627/543/475 629/542/474
f 629/542/474 630/544/476 633/540/472
f 630/544/476 634/545/477 633/540/472
f 630/544/476 637/546/478 634/545/477
f 637/546/478 639/546/479 634/545/477
f 638/45/480 636/46/481 637/47/482
f 636/46/481 631/44/483 637/47/482
f 637/546/478 630/544/476 628/547/484
f 638/548/480 637/546/478 628/547/484
f 627/543/475 628/547/484 630/544/476
f 629/542/474 627/543/475 630/544/476
f 631/44/485 635/48/486 639/49/479
f 637/47/478 631/44/485 639/49/479
f 642/52/487 644/50/488 643/53/489
f 640/51/490 642/52/487 643/53/489
f 641/54/491 640/51/491 645/55/491
f 640/51/492 643/53/492 645/55/491
f 633/540/472 648/542/493 632/541/473
f 632/541/473 648/542/493 646/543/494
f 648/542/493 633/540/472 649/544/495
f 649/544/495 633/540/472 634/545/477
f 649/544/495 634/545/477 653/546/496
f 653/546/496 634/545/477 655/546/497
f 654/45/498 653/47/499 652/46/500
f 652/46/500 653/47/499 650/44/501
f 653/546/496 647/547/502 649/544/495
f 654/548/498 647/547/502 653/546/496
f 646/543/494 649/544/495 647/547/502
f 648/542/493 649/544/495 646/543/494
f 650/44/503 655/49/504 651/48/504
f 653/47/496 655/49/497 650/44/503
f 658/52/505 659/53/506 660/50/507
f 656/51/508 659/53/506 658/52/505
f 657/54/509 661/55/509 656/51/510
f 656/51/510 661/55/509 659/53/510
o lg0
v -0.124839 0.421067 5.359458
v -0.124839 0.421065 4.904764
v -0.124839 0.027292 5.132115
v -0.124839 0.027292 5.586802
v -0.124839 0.421065 5.814145
v -0.124839 0.814837 5.586802
v -0.124839 0.814837 5.132115
v 0.079250 0.421065 4.904764
v 0.079250 0.027292 5.132115
v 0.079250 0.027292 5.586802
v 0.079250 0.421065 5.814145
v 0.079250 0.814837 5.586802
v 0.079250 0.814837 5.132115
v 0.079250 0.421067 5.359458
v 0.120751 1.001384 5.246543
v 0.120751 0.363670 5.246543
v -0.173617 1.001384 5.246543
v -0.173617 0.363670 5.246543
v -0.173617 1.001384 5.478232
v -0.173617 0.363670 5.478232
v 0.120751 1.001384 5.478232
v 0.120751 0.363670 5.478232
v -0.021243 2.239048 5.266593
v -0.123714 2.239048 5.444073
v 0.081215 2.239048 5.444073
v -0.021243 0.976223 5.266593
v -0.123714 0.976223 5.444072
v 0.081215 0.976223 5.444072
vn -1.0000 -0.0000 -0.0000
vn 1.0000 -0.0000 -0.0000
vn -0.0000 -0.0000 1.0000
vn 0.8660 -0.0000 -0.5000
vn -0.8660 -0.0000 -0.5000
vn -0.0000 -0.0000 -1.0000
vn -0.0000 1.0000 -0.0000
vn -0.0000 -1.0000 -0.0000
vn -0.0000 -0.5000 0.8660
vn -0.0000 0.5000 0.8660
vn -0.0000 -0.5000 -0.8660
vn -0.0000 0.5000 -0.8660
vt 0.755950 0.044960
vt 0.764490 0.014700
vt 0.773030 0.044960
vt 0.781580 0.014700
vt 0.790120 0.044960
vt 0.781580 0.075210
vt 0.764490 0.075210
vt 0.749950 0.179020
vt 0.742550 0.179020
vt 0.742550 0.013760
vt 0.749950 0.013760
vt 0.781270 0.142590
vt 0.773830 0.142590
vt 0.773830 0.177090
vt 0.781270 0.177090
vt 0.763830 0.177090
vt 0.763830 0.142590
vt 0.781270 0.193160
vt 0.773830 0.193160
vt 0.773830 0.125320
vt 0.781270 0.125320
vt 0.761770 0.091810
vt 0.782680 0.091810
vt 0.782680 0.111000
vt 0.761770 0.111000
s 1
usemtl mat1
f 663/549/511 664/550/511 662/551/511
f 664/550/511 665/552/511 662/551/511
f 665/552/511 666/553/511 662/551/511
f 666/553/511 667/554/511 662/551/511
f 667/554/511 668/555/511 662/551/511
f 668/555/511 663/549/511 662/551/511
f 670/550/512 669/549/512 675/551/512
f 671/552/512 670/550/512 675/551/512
f 672/553/512 671/552/512 675/551/512
f 673/554/512 672/553/512 675/551/512
f 674/555/512 673/554/512 675/551/512
f 669/549/512 674/555/512 675/551/512
f 686/556/513 685/557/513 688/558/513 689/559/513
f 684/557/514 686/556/514 689/559/514 687/558/514
f 687/559/515 688/558/515 685/557/515 684/556/515
f 683/560/512 677/561/512 676/562/512 682/563/512
f 678/562/516 676/564/516 677/565/516 679/561/516
f 682/564/513 680/562/513 681/561/513 683/565/513
f 680/563/517 682/566/517 676/567/517 678/562/517
f 679/561/518 677/568/518 683/569/518 681/560/518
f 670/570/518 671/571/518 665/572/518 664/573/518
f 666/573/519 665/572/519 671/571/519 672/570/519
f 667/572/520 666/573/520 672/570/520 673/571/520
f 669/571/521 670/570/521 664/573/521 663/572/521
f 663/572/522 668/573/522 674/570/522 669/571/522
f 668/573/517 667/572/517 673/571/517 674/570/517
f 679/561/511 681/560/511 680/563/511 678/562/511
o lg1
v -3.666354 0.499925 -0.482326
v -3.666354 0.499925 -1.023747
v -3.666354 0.031048 -0.753027
v -3.666354 0.031048 -0.211624
v -3.666354 0.499925 0.059082
v -3.666354 0.968800 -0.211624
v -3.666354 0.968800 -0.753027
v -3.315137 0.499925 -1.023746
v -3.315137 0.031048 -0.753027
v -3.315137 0.031048 -0.211624
v -3.315137 0.499925 0.059082
v -3.315137 0.968800 -0.211624
v -3.315137 0.968800 -0.753027
v -3.315137 0.499925 -0.482326
v -3.135962 1.080244 -0.595239
v -3.135962 0.442528 -0.595239
v -3.430330 1.080244 -0.595241
v -3.430330 0.442528 -0.595241
v -3.430330 1.080244 -0.363553
v -3.430330 0.442528 -0.363553
v -3.135962 1.080244 -0.363553
v -3.135962 0.442528 -0.363553
v -3.277956 1.927620 -0.575193
v -3.380427 1.927620 -0.397712
v -3.175498 1.927620 -0.397712
v -3.277956 1.055085 -0.575192
v -3.380427 1.055085 -0.397712
v -3.175498 1.055085 -0.397712
v 3.666354 0.499925 -0.482326
v 3.666354 0.499925 -1.023747
v 3.666354 0.031048 -0.753027
v 3.666354 0.031048 -0.211624
v 3.666354 0.499925 0.059082
v 3.666354 0.968800 -0.211624
v 3.666354 0.968800 -0.753027
v 3.315137 0.499925 -1.023746
v 3.315137 0.031048 -0.753027
v 3.315137 0.031048 -0.211624
v 3.315137 0.499925 0.059082
v 3.315137 0.968800 -0.211624
v 3.315137 0.968800 -0.753027
v 3.315137 0.499925 -0.482326
v 3.135962 1.080244 -0.595239
v 3.135962 0.442528 -0.595239
v 3.430330 1.080244 -0.595241
v 3.430330 0.442528 -0.595241
v 3.430330 1.080244 -0.363553
v 3.430330 0.442528 -0.363553
v 3.135962 1.080244 -0.363553
v 3.135962 0.442528 -0.363553
v 3.277956 1.927620 -0.575193
v 3.380427 1.927620 -0.397712
v 3.175498 1.927620 -0.397712
v 3.277956 1.055085 -0.575192
v 3.380427 1.055085 -0.397712
v 3.175498 1.055085 -0.397712
vn -1.0000 -0.0000 -0.0000
vn 1.0000 -0.0000 -0.0000
vn -0.0000 1.0000 -0.0000
vn -0.0000 -1.0000 -0.0000
vn -0.0000 -0.0000 1.0000
vn -0.0000 0.5000 0.8660
vn -0.0000 -0.5000 0.8660
vn -0.8660 -0.0000 -0.5000
vn -0.0000 0.5000 -0.8660
vn -0.0000 -0.5000 -0.8660
vn -0.0000 -0.0000 -1.0000
vn 0.8660 -0.0000 -0.5000
vt 0.755950 0.044960
vt 0.764490 0.014700
vt 0.773030 0.044960
vt 0.781580 0.014700
vt 0.790120 0.044960
vt 0.781580 0.075210
vt 0.764490 0.075210
vt 0.773830 0.193160
vt 0.773830 0.177090
vt 0.781270 0.177090
vt 0.781270 0.193160
vt 0.781270 0.125320
vt 0.781270 0.142590
vt 0.773830 0.142590
vt 0.773830 0.125320
vt 0.763830 0.177090
vt 0.763830 0.142590
vt 0.761770 0.091810
vt 0.782680 0.091810
vt 0.782680 0.111000
vt 0.761770 0.111000
vt 0.742550 0.179020
vt 0.749950 0.179020
vt 0.749950 0.013760
vt 0.742550 0.013760
s 1
usemtl mat1
f 691/574/523 692/575/523 690/576/523
f 692/575/523 693/577/523 690/576/523
f 693/577/523 694/578/523 690/576/523
f 694/578/523 695/579/523 690/576/523
f 695/579/523 696/580/523 690/576/523
f 696/580/523 691/574/523 690/576/523
f 698/575/524 697/574/524 703/576/524
f 699/577/524 698/575/524 703/576/524
f 700/578/524 699/577/524 703/576/524
f 701/579/524 700/578/524 703/576/524
f 702/580/524 701/579/524 703/576/524
f 697/574/524 702/580/524 703/576/524
f 704/581/525 706/582/525 708/583/525
f 710/584/525 704/581/525 708/583/525
f 711/585/526 709/586/526 707/587/526
f 705/588/526 711/585/526 707/587/526
f 719/574/524 718/576/524 720/575/524
f 720/575/524 718/576/524 721/577/524
f 721/577/524 718/576/524 722/578/524
f 722/578/524 718/576/524 723/579/524
f 723/579/524 718/576/524 724/580/524
f 724/580/524 718/576/524 719/574/524
f 726/575/523 731/576/523 725/574/523
f 727/577/523 731/576/523 726/575/523
f 728/578/523 731/576/523 727/577/523
f 729/579/523 731/576/523 728/578/523
f 730/580/523 731/576/523 729/579/523
f 725/574/523 731/576/523 730/580/523
f 710/589/527 708/582/527 709/587/527 711/590/527
f 700/591/528 701/592/528 695/593/528 694/594/528
f 694/594/529 693/593/529 699/592/529 700/591/529
f 696/594/525 695/593/525 701/592/525 702/591/525
f 704/582/524 710/583/524 711/586/524 705/587/524
f 713/595/530 712/596/530 715/597/530 716/598/530
f 708/583/523 706/582/523 707/587/523 709/586/523
f 702/591/531 697/592/531 691/593/531 696/594/531
f 692/594/532 691/593/532 697/592/532 698/591/532
f 705/590/533 707/587/533 706/582/533 704/589/533
f 693/593/526 692/594/526 698/591/526 699/592/526
f 712/595/534 714/596/534 717/597/534 715/598/534
f 716/598/527 717/597/527 714/596/527 713/595/527
f 744/598/527 741/595/527 742/596/527 745/597/527
f 738/589/527 739/590/527 737/587/527 736/582/527
f 728/591/528 722/594/528 723/593/528 729/592/528
f 727/592/529 721/593/529 722/594/529 728/591/529
f 729/592/525 723/593/525 724/594/525 730/591/525
f 726/591/526 720/594/526 721/593/526 727/592/526
f 725/592/532 719/593/532 720/594/532 726/591/532
f 730/591/531 724/594/531 719/593/531 725/592/531
f 736/583/525 734/582/525 732/581/525 738/584/525
f 743/597/534 740/596/534 741/595/534 744/598/534
f 735/587/524 734/582/524 736/583/524 737/586/524
f 734/582/533 735/587/533 733/590/533 732/589/533
f 739/586/523 738/583/523 732/582/523 733/587/523
f 735/587/526 737/586/526 739/585/526 733/588/526
f 740/595/530 743/598/530 745/597/530 742/596/530
