# Blender 3.6.23
# www.blender.org
mtllib agm69.mtl
o cube
v -0.175946 0.178525 -1.072299
v -0.175946 0.178525 0.731148
v -0.175946 -0.173367 -1.072299
v -0.175946 -0.173367 0.731148
v 0.175946 0.178525 -1.072299
v 0.175946 0.178525 0.731148
v 0.175946 -0.173367 -1.072299
v 0.175946 -0.173367 0.731148
v 0.087973 0.090551 1.628472
v -0.087973 0.090551 1.628472
v 0.087973 -0.085395 1.628472
v -0.087973 -0.085395 1.628472
v 0.017595 0.020173 1.839607
v -0.017594 0.020173 1.839607
v 0.017595 -0.015016 1.839607
v -0.017594 -0.015016 1.839607
v -0.149554 0.152133 -1.749691
v 0.149554 0.152133 -1.749691
v -0.149554 -0.120583 -1.749691
v 0.149554 -0.120583 -1.749691
v -0.087973 0.222511 -0.966731
v -0.087973 0.222511 0.660769
v -0.087973 0.046565 -0.966731
v -0.087973 0.046565 0.660769
v 0.087973 0.222511 0.660769
v 0.087973 0.222511 -0.966731
v 0.087973 0.046565 0.660769
v 0.087973 0.046565 -0.966731
v -0.087973 0.222511 0.660769
v -0.087973 0.154204 0.915695
v -0.087973 0.137535 0.638000
v -0.087973 0.069228 0.892926
v 0.087973 0.154204 0.915695
v 0.087973 0.222511 0.660769
v 0.087973 0.069228 0.892926
v 0.087973 0.137535 0.638000
v -0.087973 0.176973 -1.136682
v -0.087973 0.222511 -0.966732
v -0.087973 0.091997 -1.113913
v -0.087973 0.137536 -0.943962
v 0.087973 0.222511 -0.966732
v 0.087973 0.176973 -1.136682
v 0.087973 0.137536 -0.943962
v 0.087973 0.091997 -1.113913
v -0.000000 0.398457 -1.670515
v -0.000000 0.398457 -1.186664
v -0.000000 0.046565 -1.670515
v -0.000000 0.046565 -1.186664
v -0.000000 0.398457 -1.186664
v -0.000000 0.398457 -1.670515
v -0.000000 0.046565 -1.186664
v -0.000000 0.046565 -1.670515
v -0.337789 -0.308818 -1.669716
v -0.337789 -0.308818 -1.185864
v -0.088964 -0.059993 -1.669716
v -0.088964 -0.059993 -1.185864
v -0.337789 -0.308818 -1.185864
v -0.337789 -0.308818 -1.669716
v -0.088964 -0.059993 -1.185864
v -0.088964 -0.059993 -1.669716
v 0.337789 -0.308818 -1.669716
v 0.337789 -0.308818 -1.185864
v 0.088963 -0.059993 -1.669716
v 0.088964 -0.059993 -1.185864
v 0.337789 -0.308818 -1.185864
v 0.337789 -0.308818 -1.669716
v 0.088964 -0.059993 -1.185864
v 0.088963 -0.059993 -1.669716
vn -1.0000 -0.0000 -0.0000
vn 1.0000 -0.0000 -0.0000
vn -0.0000 1.0000 -0.0000
vn -0.0000 -1.0000 -0.0000
vn -0.0000 -0.0000 -1.0000
vn -0.0000 -0.0000 1.0000
vn 0.9952 -0.0000 0.0976
vn -0.0000 0.9952 0.0976
vn -0.9952 -0.0000 0.0976
vn -0.0000 -0.9952 0.0976
vn 0.9487 -0.0000 0.3162
vn -0.0000 0.9487 0.3162
vn -0.9487 -0.0000 0.3162
vn -0.0000 -0.9487 0.3162
vn -0.9992 -0.0000 -0.0389
vn -0.0000 0.9992 -0.0389
vn 0.9992 -0.0000 -0.0389
vn -0.0000 -0.9970 -0.0777
vn -0.0000 -0.2588 0.9659
vn -0.0000 0.2588 -0.9659
vn -0.0000 0.9659 0.2588
vn -0.0000 -0.9659 -0.2588
vn -0.0000 0.2588 0.9659
vn -0.0000 -0.2588 -0.9659
vn -0.0000 0.9659 -0.2588
vn -0.0000 -0.9659 0.2588
vn -0.0000 -0.0000 -0.0000
vn 0.7071 -0.7071 -0.0000
vn -0.7071 0.7071 -0.0000
vn 0.7071 0.7071 -0.0000
vn -0.7071 -0.7071 -0.0000
vt 0.518962 0.937500
vt 0.518962 1.000000
vt 0.198649 1.000000
vt 0.198649 0.937500
vt 0.598226 0.859375
vt 0.598226 0.921875
vt 0.277913 0.921875
vt 0.277913 0.859375
vt 0.140625 0.323770
vt 0.140625 0.644083
vt 0.078125 0.644083
vt 0.078125 0.323770
vt 0.062500 0.543417
vt 0.062500 0.863730
vt 0.000000 0.863730
vt 0.000000 0.543417
vt 0.406250 0.703125
vt 0.406250 0.750000
vt 0.359375 0.750000
vt 0.359375 0.703125
vt 0.468750 0.671875
vt 0.468750 0.687500
vt 0.453125 0.687500
vt 0.453125 0.671875
vt 0.117774 0.906250
vt 0.117774 0.875000
vt 0.125000 0.804222
vt 0.093750 0.804222
vt 0.679101 0.953125
vt 0.679101 0.984375
vt 0.015625 0.383278
vt 0.046875 0.383278
vt 0.078246 0.893750
vt 0.078246 0.887500
vt 0.112500 0.843750
vt 0.106250 0.843750
vt 0.718629 0.965625
vt 0.718629 0.971875
vt 0.028125 0.343750
vt 0.034375 0.343750
vt 0.078246 0.995313
vt 0.078246 0.946875
vt 0.082813 0.203367
vt 0.135937 0.203367
vt 0.718629 0.868750
vt 0.718629 0.917188
vt 0.057813 0.984406
vt 0.004688 0.984406
vt 0.250000 0.562500
vt 0.281250 0.562500
vt 0.281250 0.593750
vt 0.250000 0.593750
vt 0.156250 0.812500
vt 0.453125 0.812500
vt 0.453125 0.843750
vt 0.156250 0.843750
vt 0.296875 0.562500
vt 0.328125 0.562500
vt 0.328125 0.593750
vt 0.296875 0.593750
vt 0.156250 0.765625
vt 0.453125 0.765625
vt 0.453125 0.796875
vt 0.156250 0.796875
vt 0.187500 0.750000
vt 0.156250 0.750000
vt 0.156250 0.453125
vt 0.187500 0.453125
vt 0.234375 0.453125
vt 0.203125 0.453125
vt 0.203125 0.750000
vt 0.234375 0.750000
vt 0.421875 0.703125
vt 0.453125 0.703125
vt 0.453125 0.718750
vt 0.421875 0.718750
vt 0.406250 0.578125
vt 0.453125 0.578125
vt 0.453125 0.593750
vt 0.406250 0.593750
vt 0.343750 0.546875
vt 0.375000 0.546875
vt 0.375000 0.562500
vt 0.343750 0.562500
vt 0.421875 0.734375
vt 0.468750 0.734375
vt 0.468750 0.750000
vt 0.421875 0.750000
vt 0.390625 0.687500
vt 0.359375 0.687500
vt 0.359375 0.640625
vt 0.390625 0.640625
vt 0.390625 0.578125
vt 0.359375 0.578125
vt 0.359375 0.625000
vt 0.390625 0.625000
vt 0.390625 0.546875
vt 0.421875 0.546875
vt 0.421875 0.562500
vt 0.390625 0.562500
vt 0.437500 0.546875
vt 0.468750 0.546875
vt 0.468750 0.562500
vt 0.437500 0.562500
vt 0.250000 0.531250
vt 0.281250 0.531250
vt 0.281250 0.546875
vt 0.250000 0.546875
vt 0.296875 0.531250
vt 0.328125 0.531250
vt 0.328125 0.546875
vt 0.296875 0.546875
vt 0.437500 0.687500
vt 0.406250 0.687500
vt 0.406250 0.656250
vt 0.437500 0.656250
vt 0.437500 0.609375
vt 0.406250 0.609375
vt 0.406250 0.640625
vt 0.437500 0.640625
vt 0.468750 0.781250
vt 0.468750 0.843750
vt 0.250000 0.687500
vt 0.343750 0.687500
vt 0.343750 0.750000
vt 0.250000 0.750000
vt 0.343750 0.468750
vt 0.343750 0.531250
vt 0.250000 0.609375
vt 0.343750 0.609375
vt 0.343750 0.671875
vt 0.250000 0.671875
vt 0.359375 0.531250
vt 0.359375 0.437500
vt 0.375000 0.437500
vt 0.375000 0.531250
s 0
usemtl m_7a9725a5-e47b-131d-bac5-ad0dec184bdd
f 4/1/1 2/2/1 1/3/1 3/4/1
f 7/5/2 5/6/2 6/7/2 8/8/2
f 1/9/3 2/10/3 6/11/3 5/12/3
f 4/13/4 3/14/4 7/15/4 8/16/4
f 19/17/5 17/18/5 18/19/5 20/20/5
f 15/21/6 13/22/6 14/23/6 16/24/6
f 9/25/7 11/26/7 8/8/7 6/7/7
f 10/27/8 9/28/8 6/11/8 2/10/8
f 12/29/9 10/30/9 2/2/9 4/1/9
f 11/31/10 12/32/10 4/13/10 8/16/10
f 13/33/11 15/34/11 11/26/11 9/25/11
f 14/35/12 13/36/12 9/28/12 10/27/12
f 16/37/13 14/38/13 10/30/13 12/29/13
f 15/39/14 16/40/14 12/32/14 11/31/14
f 17/41/15 19/42/15 3/4/15 1/3/15
f 18/43/16 17/44/16 1/9/16 5/12/16
f 20/45/17 18/46/17 5/6/17 7/5/17
f 19/47/18 20/48/18 7/15/18 3/14/18
f 24/49/6 27/50/6 25/51/6 22/52/6
f 23/53/1 24/54/1 22/55/1 21/56/1
f 28/57/5 23/58/5 21/59/5 26/60/5
f 27/61/2 28/62/2 26/63/2 25/64/2
f 26/65/3 21/66/3 22/67/3 25/68/3
f 27/69/4 24/70/4 23/71/4 28/72/4
f 32/73/19 35/74/19 33/75/19 30/76/19
f 31/77/1 32/78/1 30/79/1 29/80/1
f 36/81/20 31/82/20 29/83/20 34/84/20
f 35/85/2 36/86/2 34/87/2 33/88/2
f 34/89/21 29/90/21 30/91/21 33/92/21
f 35/93/22 32/94/22 31/95/22 36/96/22
f 40/97/23 43/98/23 41/99/23 38/100/23
f 39/101/1 40/102/1 38/103/1 37/104/1
f 44/105/24 39/106/24 37/107/24 42/108/24
f 43/109/2 44/110/2 42/111/2 41/112/2
f 42/113/25 37/114/25 38/115/25 41/116/25
f 43/117/26 40/118/26 39/119/26 44/120/26
f 48/121/6 51/121/6 49/122/6 46/122/6
f 47/123/1 48/124/1 46/125/1 45/126/1
f 52/127/5 47/127/5 45/128/5 50/128/5
f 51/129/2 52/130/2 50/131/2 49/132/2
f 50/133/27 45/133/27 46/134/27 49/134/27
f 51/135/27 48/135/27 47/136/27 52/136/27
f 56/121/6 59/121/6 57/122/6 54/122/6
f 55/123/28 56/124/28 54/125/28 53/126/28
f 60/127/5 55/127/5 53/128/5 58/128/5
f 59/129/29 60/130/29 58/131/29 57/132/29
f 58/133/27 53/133/27 54/134/27 57/134/27
f 59/135/27 56/135/27 55/136/27 60/136/27
f 64/121/6 67/121/6 65/122/6 62/122/6
f 63/130/30 64/129/30 62/132/30 61/131/30
f 68/127/5 63/127/5 61/128/5 66/128/5
f 67/124/31 68/123/31 66/126/31 65/125/31
f 66/133/27 61/133/27 62/134/27 65/134/27
f 67/135/27 64/135/27 63/136/27 68/136/27
