# Blender 3.6.23
# www.blender.org
mtllib aim9.mtl
o cube.008
v 0.062500 0.079201 1.127382
v 0.062500 0.079201 -1.622618
v 0.062500 -0.045799 1.127382
v 0.062500 -0.045799 -1.622618
v -0.062500 0.079201 -1.622618
v -0.062500 0.079201 1.127382
v -0.062500 -0.045799 -1.622618
v -0.062500 -0.045799 1.127382
v 0.176777 0.199727 -0.928868
v 0.176777 0.199727 -1.616368
v 0.000000 0.022951 -0.928868
v 0.000000 0.022951 -1.616368
v 0.176777 0.199727 -1.616368
v 0.176777 0.199727 -0.928868
v 0.000000 0.022951 -1.616368
v 0.000000 0.022951 -0.928868
v -0.220971 0.243922 1.083632
v -0.220971 0.243922 0.896132
v 0.000000 0.022951 1.083632
v 0.000000 0.022951 0.896132
v -0.220971 0.243922 0.896132
v -0.220971 0.243922 1.083632
v 0.000000 0.022951 0.896132
v 0.000000 0.022951 1.083632
v 0.176777 -0.153826 -0.928868
v 0.176777 -0.153826 -1.616368
v 0.000000 0.022951 -0.928868
v 0.000000 0.022951 -1.616368
v 0.176777 -0.153826 -1.616368
v 0.176777 -0.153826 -0.928868
v 0.000000 0.022951 -1.616368
v 0.000000 0.022951 -0.928868
v -0.176777 -0.153826 -0.928868
v -0.176777 -0.153826 -1.616368
v 0.000000 0.022951 -0.928868
v 0.000000 0.022951 -1.616368
v -0.176777 -0.153826 -1.616368
v -0.176777 -0.153826 -0.928868
v 0.000000 0.022951 -1.616368
v 0.000000 0.022951 -0.928868
v -0.176777 0.199727 -0.928868
v -0.176777 0.199727 -1.616368
v 0.000000 0.022951 -0.928868
v 0.000000 0.022951 -1.616368
v -0.176777 0.199727 -1.616368
v -0.176777 0.199727 -0.928868
v 0.000000 0.022951 -1.616368
v 0.000000 0.022951 -0.928868
v -0.220971 -0.198020 1.083632
v -0.220971 -0.198020 0.896132
v 0.000000 0.022951 1.083632
v 0.000000 0.022951 0.896132
v -0.220971 -0.198020 0.896132
v -0.220971 -0.198020 1.083632
v 0.000000 0.022951 0.896132
v 0.000000 0.022951 1.083632
v 0.220971 -0.198020 1.083632
v 0.220971 -0.198020 0.896132
v 0.000000 0.022951 1.083632
v 0.000000 0.022951 0.896132
v 0.220971 -0.198020 0.896132
v 0.220971 -0.198020 1.083632
v 0.000000 0.022951 0.896132
v 0.000000 0.022951 1.083632
v 0.220971 0.243922 1.083632
v 0.220971 0.243922 0.896132
v 0.000000 0.022951 1.083632
v 0.000000 0.022951 0.896132
v 0.220971 0.243922 0.896132
v 0.220971 0.243922 1.083632
v 0.000000 0.022951 0.896132
v 0.000000 0.022951 1.083632
v 0.012500 0.029201 1.564882
v 0.062500 0.079201 1.127382
v 0.012500 0.004201 1.564882
v 0.062500 -0.045799 1.127382
v -0.012500 0.029201 1.564882
v -0.062500 0.079201 1.127382
v -0.012500 0.004201 1.564882
v -0.062500 -0.045799 1.127382
vn -0.0000 -0.0000 -1.0000
vn 1.0000 -0.0000 -0.0000
vn -0.0000 -0.0000 1.0000
vn -1.0000 -0.0000 -0.0000
vn -0.0000 1.0000 -0.0000
vn -0.0000 -1.0000 -0.0000
vn 0.7071 -0.7071 -0.0000
vn -0.7071 0.7071 -0.0000
vn -0.0000 -0.0000 -0.0000
vn 0.7071 0.7071 -0.0000
vn -0.7071 -0.7071 -0.0000
vn 0.9935 -0.0000 0.1135
vn -0.9935 -0.0000 0.1135
vn -0.0000 0.9935 0.1135
vn -0.0000 -0.9935 0.1135
vt 0.125000 0.906250
vt 0.156250 0.906250
vt 0.156250 0.937500
vt 0.125000 0.937500
vt 0.000000 0.968750
vt 0.687500 0.968750
vt 0.687500 1.000000
vt 0.000000 1.000000
vt 0.125000 0.875000
vt 0.156250 0.875000
vt 0.000000 0.937500
vt 0.687500 0.937500
vt 0.031250 0.937500
vt 0.000000 0.250000
vt 0.031250 0.250000
vt 0.062500 0.250000
vt 0.062500 0.937500
vt 0.234375 0.656250
vt 0.234375 0.718750
vt 0.265625 0.765625
vt 0.093750 0.765625
vt 0.093750 0.828125
vt 0.265625 0.828125
vt 0.250000 0.656250
vt 0.250000 0.718750
vt 0.281250 0.750000
vt 0.281250 0.578125
vt 0.296875 0.734375
vt 0.296875 0.906250
vt 0.000000 0.921875
vt 0.078125 0.843750
vt 0.125000 0.843750
vt 0.125000 0.921875
vt 0.078125 0.921875
vt 0.000000 0.953125
vt 0.178125 0.662500
vt 0.178125 0.693750
vt 0.131250 0.693750
vt 0.131250 0.662500
vt 0.734375 0.968750
vt 0.734375 1.000000
vt 0.031250 0.265625
vt 0.031250 0.312500
vt 0.000000 0.312500
vt 0.000000 0.265625
vt 0.128125 0.646875
vt 0.128125 0.693750
vt 0.096875 0.693750
vt 0.096875 0.646875
vt 0.078125 0.937500
vt 0.062500 0.921875
vt 0.128125 0.662500
vt 0.096875 0.662500
s 0
usemtl m_ccf10c61-7f5c-1fe0-9dbc-0a1d3fa7c456
f 4/1/1 7/2/1 5/3/1 2/4/1
f 3/5/2 4/6/2 2/7/2 1/8/2
f 8/9/3 3/10/3 1/2/3 6/1/3
f 7/11/4 8/12/4 6/6/4 5/5/4
f 6/13/5 1/11/5 2/14/5 5/15/5
f 7/16/6 4/15/6 3/13/6 8/17/6
f 12/18/1 15/18/1 13/19/1 10/19/1
f 11/20/7 12/21/7 10/22/7 9/23/7
f 16/24/3 11/24/3 9/25/3 14/25/3
f 15/21/8 16/20/8 14/23/8 13/22/8
f 14/26/9 9/26/9 10/27/9 13/27/9
f 15/28/9 12/28/9 11/29/9 16/29/9
f 20/30/1 23/30/1 21/8/1 18/8/1
f 19/31/10 20/32/10 18/33/10 17/34/10
f 24/30/3 19/30/3 17/8/3 22/8/3
f 23/32/11 24/31/11 22/34/11 21/33/11
f 22/8/9 17/8/9 18/35/9 21/35/9
f 23/35/9 20/35/9 19/8/9 24/8/9
f 28/18/1 31/18/1 29/19/1 26/19/1
f 27/20/11 28/21/11 26/22/11 25/23/11
f 32/24/3 27/24/3 25/25/3 30/25/3
f 31/21/10 32/20/10 30/23/10 29/22/10
f 30/26/9 25/26/9 26/27/9 29/27/9
f 31/28/9 28/28/9 27/29/9 32/29/9
f 36/18/1 39/18/1 37/19/1 34/19/1
f 35/20/8 36/21/8 34/22/8 33/23/8
f 40/24/3 35/24/3 33/25/3 38/25/3
f 39/21/7 40/20/7 38/23/7 37/22/7
f 38/26/9 33/26/9 34/27/9 37/27/9
f 39/28/9 36/28/9 35/29/9 40/29/9
f 44/18/1 47/18/1 45/19/1 42/19/1
f 43/20/10 44/21/10 42/22/10 41/23/10
f 48/24/3 43/24/3 41/25/3 46/25/3
f 47/21/11 48/20/11 46/23/11 45/22/11
f 46/26/9 41/26/9 42/27/9 45/27/9
f 47/28/9 44/28/9 43/29/9 48/29/9
f 52/30/1 55/30/1 53/8/1 50/8/1
f 51/31/8 52/32/8 50/33/8 49/34/8
f 56/30/3 51/30/3 49/8/3 54/8/3
f 55/32/7 56/31/7 54/34/7 53/33/7
f 54/8/9 49/8/9 50/35/9 53/35/9
f 55/35/9 52/35/9 51/8/9 56/8/9
f 60/30/1 63/30/1 61/8/1 58/8/1
f 59/31/11 60/32/11 58/33/11 57/34/11
f 64/30/3 59/30/3 57/8/3 62/8/3
f 63/32/10 64/31/10 62/34/10 61/33/10
f 62/8/9 57/8/9 58/35/9 61/35/9
f 63/35/9 60/35/9 59/8/9 64/8/9
f 68/30/1 71/30/1 69/8/1 66/8/1
f 67/31/7 68/32/7 66/33/7 65/34/7
f 72/30/3 67/30/3 65/8/3 70/8/3
f 71/32/8 72/31/8 70/34/8 69/33/8
f 70/8/9 65/8/9 66/35/9 69/35/9
f 71/35/9 68/35/9 67/8/9 72/8/9
f 76/36/12 74/37/12 73/38/12 75/39/12
f 79/40/13 77/41/13 78/7/13 80/6/13
f 73/42/14 74/43/14 78/44/14 77/45/14
f 76/46/15 75/47/15 79/48/15 80/49/15
f 75/34/3 73/50/3 77/17/3 79/51/3
f 80/52/1 78/47/1 74/48/1 76/53/1
