# Blender 3.6.23
# www.blender.org
mtllib antps80.mtl
o cube_3
v 0.647029 1.589611 2.775026
v 0.647029 1.589610 -0.136339
v 0.647029 1.134276 2.775026
v 0.647029 1.134276 -0.136339
v -0.644982 1.589610 -0.136339
v -0.644982 1.589611 2.775026
v -0.644982 1.134276 -0.136339
v -0.644982 1.134276 2.775026
vn -0.0000 -0.0000 -1.0000
vn 1.0000 -0.0000 -0.0000
vn -0.0000 -0.0000 1.0000
vn -1.0000 -0.0000 -0.0000
vn -0.0000 1.0000 -0.0000
vn -0.0000 -1.0000 -0.0000
vt 0.250000 0.554688
vt 0.359375 0.554688
vt 0.359375 0.593750
vt 0.250000 0.593750
vt 0.468750 0.593750
vt 0.718750 0.593750
vt 0.718750 0.632812
vt 0.468750 0.632812
vt 0.609375 0.664062
vt 0.718750 0.664062
vt 0.718750 0.703125
vt 0.609375 0.703125
vt 0.468750 0.554688
vt 0.718750 0.554688
vt 0.468750 0.804688
vt 0.359375 0.804688
vt 0.250000 0.343750
vt 0.140625 0.343750
vt 0.140625 0.593750
s 1
usemtl NATO_CARC3
f 4/1/1 7/2/1 5/3/1 2/4/1
f 3/5/2 4/6/2 2/7/2 1/8/2
f 8/9/3 3/10/3 1/11/3 6/12/3
f 7/13/4 8/14/4 6/6/4 5/5/4
f 6/15/5 1/16/5 2/2/5 5/13/5
f 7/17/6 4/18/6 3/19/6 8/4/6
o cube_4
v -0.636444 3.775215 2.228624
v -0.636444 3.775215 1.955424
v -0.636444 1.589610 2.228625
v -0.636444 1.589610 1.955424
v -0.636444 3.775215 1.955424
v -0.636444 3.775215 2.228624
v -0.636444 1.589610 1.955424
v -0.636444 1.589610 2.228625
vn -0.0000 -0.0000 -1.0000
vn 1.0000 -0.0000 -0.0000
vn -0.0000 -0.0000 1.0000
vn -1.0000 -0.0000 -0.0000
vn -0.0000 1.0000 -0.0000
vn -0.0000 -1.0000 -0.0000
vt 0.000000 0.812500
vt 0.000000 1.000000
vt 0.273438 0.195312
vt 0.250000 0.195312
vt 0.250000 0.382812
vt 0.273438 0.382812
vt 0.000000 0.976562
s 1
usemtl NATO_CARC3
f 12/20/7 15/20/7 13/21/7 10/21/7
f 11/22/8 12/23/8 10/24/8 9/25/8
f 16/20/9 11/20/9 9/21/9 14/21/9
f 15/23/10 16/22/10 14/25/10 13/24/10
f 14/21/11 9/21/11 10/26/11 13/26/11
f 15/26/12 12/26/12 11/21/12 16/21/12
o cube_5
v 0.702489 5.061190 1.662901
v 0.693898 4.946490 1.415092
v 0.633046 1.674306 3.232939
v 0.624455 1.559608 2.985130
v -0.580186 4.984858 1.441505
v -0.571595 5.099557 1.689313
v -0.649630 1.597975 3.011542
v -0.641038 1.712673 3.259351
vn -0.0314 -0.4198 -0.9071
vn 0.9993 -0.0301 -0.0207
vn 0.0314 0.4198 0.9071
vn -0.9993 0.0301 0.0207
vn 0.0186 0.9071 -0.4205
vn -0.0186 -0.9071 0.4205
vt 0.000000 0.679688
vt 0.109375 0.679688
vt 0.109375 1.000000
vt 0.000000 1.000000
vt 0.000000 0.164062
vt 0.023438 0.164062
vt 0.023438 0.484375
vt 0.000000 0.484375
vt 0.218750 0.679688
vt 0.218750 1.000000
vt 0.046875 0.164062
vt 0.046875 0.484375
vt 0.609375 0.828125
vt 0.500000 0.828125
vt 0.500000 0.804688
vt 0.609375 0.804688
vt 0.742188 0.406250
vt 0.632812 0.406250
vt 0.632812 0.429688
vt 0.742188 0.429688
s 1
usemtl NATO_CARC3
f 20/27/13 23/28/13 21/29/13 18/30/13
f 19/31/14 20/32/14 18/33/14 17/34/14
f 24/28/15 19/35/15 17/36/15 22/29/15
f 23/32/16 24/37/16 22/38/16 21/33/16
f 22/39/17 17/40/17 18/41/17 21/42/17
f 23/43/18 20/44/18 19/45/18 24/46/18
o cube_7
v 0.638492 3.762508 2.221072
v 0.638492 3.947080 2.019648
v 0.638492 1.412555 0.067737
v 0.638492 1.597126 -0.133687
v 0.638492 3.947080 2.019648
v 0.638492 3.762508 2.221072
v 0.638492 1.597126 -0.133687
v 0.638492 1.412555 0.067737
vn -0.0000 0.6756 -0.7373
vn 1.0000 -0.0000 -0.0000
vn -0.0000 -0.6756 0.7373
vn -1.0000 -0.0000 -0.0000
vn -0.0000 0.7373 0.6756
vn -0.0000 -0.7373 -0.6756
vt 0.000000 0.726562
vt 0.000000 1.000000
vt 0.093750 0.117188
vt 0.117188 0.117188
vt 0.117188 0.390625
vt 0.093750 0.390625
vt 0.000000 0.976562
s 1
usemtl NATO_CARC3
f 28/47/19 31/47/19 29/48/19 26/48/19
f 27/49/20 28/50/20 26/51/20 25/52/20
f 32/47/21 27/47/21 25/48/21 30/48/21
f 31/50/22 32/49/22 30/52/22 29/51/22
f 30/48/23 25/48/23 26/53/23 29/53/23
f 31/53/24 28/53/24 27/48/24 32/48/24
o cube_17
v -0.636444 3.762508 2.221072
v -0.636444 3.947080 2.019648
v -0.636444 1.412555 0.067737
v -0.636444 1.597126 -0.133687
v -0.636444 3.947080 2.019648
v -0.636444 3.762508 2.221072
v -0.636444 1.597126 -0.133687
v -0.636444 1.412555 0.067737
vn -0.0000 0.6756 -0.7373
vn 1.0000 -0.0000 -0.0000
vn -0.0000 -0.6756 0.7373
vn -1.0000 -0.0000 -0.0000
vn -0.0000 0.7373 0.6756
vn -0.0000 -0.7373 -0.6756
vt 0.000000 0.726562
vt 0.000000 1.000000
vt 0.093750 0.117188
vt 0.117188 0.117188
vt 0.117188 0.390625
vt 0.093750 0.390625
vt 0.000000 0.976562
s 1
usemtl NATO_CARC3
f 36/54/25 39/54/25 37/55/25 34/55/25
f 35/56/26 36/57/26 34/58/26 33/59/26
f 40/54/27 35/54/27 33/55/27 38/55/27
f 39/57/28 40/56/28 38/59/28 37/58/28
f 38/55/29 33/55/29 34/60/29 37/60/29
f 39/60/30 36/60/30 35/55/30 40/55/30
o cube_18
v 0.638492 3.775215 2.228624
v 0.638492 3.775215 1.955424
v 0.638492 1.589610 2.228625
v 0.638492 1.589610 1.955424
v 0.638492 3.775215 1.955424
v 0.638492 3.775215 2.228624
v 0.638492 1.589610 1.955424
v 0.638492 1.589610 2.228625
vn -0.0000 -0.0000 -1.0000
vn 1.0000 -0.0000 -0.0000
vn -0.0000 -0.0000 1.0000
vn -1.0000 -0.0000 -0.0000
vn -0.0000 1.0000 -0.0000
vn -0.0000 -1.0000 -0.0000
vt 0.000000 0.812500
vt 0.000000 1.000000
vt 0.273438 0.195312
vt 0.250000 0.195312
vt 0.250000 0.382812
vt 0.273438 0.382812
vt 0.000000 0.976562
s 1
usemtl NATO_CARC3
f 44/61/31 47/61/31 45/62/31 42/62/31
f 43/63/32 44/64/32 42/65/32 41/66/32
f 48/61/33 43/61/33 41/62/33 46/62/33
f 47/64/34 48/63/34 46/66/34 45/65/34
f 46/62/35 41/62/35 42/67/35 45/67/35
f 47/67/36 44/67/36 43/62/36 48/62/36
o cube
v -0.818578 0.952142 1.591156
v -0.818578 0.952142 0.862622
v -0.818578 0.861075 1.591156
v -0.818578 0.861075 0.862622
v -1.273912 0.952142 0.862622
v -1.273912 0.952142 1.591156
v -1.273912 0.861075 0.862622
v -1.273912 0.861075 1.591156
vn -0.0000 -0.0000 -1.0000
vn 1.0000 -0.0000 -0.0000
vn -0.0000 -0.0000 1.0000
vn -1.0000 -0.0000 -0.0000
vn -0.0000 1.0000 -0.0000
vn -0.0000 -1.0000 -0.0000
vt 0.718750 0.664062
vt 0.757812 0.664062
vt 0.757812 0.671875
vt 0.718750 0.671875
vt 0.710938 0.632812
vt 0.773438 0.632812
vt 0.773438 0.640625
vt 0.710938 0.640625
vt 0.718750 0.562500
vt 0.757812 0.562500
vt 0.757812 0.570312
vt 0.718750 0.570312
vt 0.710938 0.328125
vt 0.773438 0.328125
vt 0.773438 0.335938
vt 0.710938 0.335938
vt 0.179688 0.679688
vt 0.140625 0.679688
vt 0.140625 0.617188
vt 0.179688 0.617188
vt 0.218750 0.617188
vt 0.218750 0.679688
s 1
usemtl NATO_CARC3
f 52/68/37 55/69/37 53/70/37 50/71/37
f 51/72/38 52/73/38 50/74/38 49/75/38
f 56/76/39 51/77/39 49/78/39 54/79/39
f 55/80/40 56/81/40 54/82/40 53/83/40
f 54/84/41 49/85/41 50/86/41 53/87/41
f 55/88/42 52/87/42 51/84/42 56/89/42
o cube_1
v -0.818578 0.952142 0.862622
v -0.818578 0.694566 0.605046
v -0.818578 0.887748 0.927016
v -0.818578 0.630172 0.669440
v -1.273912 0.694566 0.605046
v -1.273912 0.952142 0.862622
v -1.273912 0.630172 0.669440
v -1.273912 0.887748 0.927016
vn -0.0000 -0.7071 -0.7071
vn 1.0000 -0.0000 -0.0000
vn -0.0000 0.7071 0.7071
vn -1.0000 -0.0000 -0.0000
vn -0.0000 0.7071 -0.7071
vn -0.0000 -0.7071 0.7071
vt 0.718750 0.554688
vt 0.757812 0.554688
vt 0.757812 0.562500
vt 0.718750 0.562500
vt 0.625000 0.828125
vt 0.656250 0.828125
vt 0.656250 0.835938
vt 0.625000 0.835938
vt 0.718750 0.320312
vt 0.757812 0.320312
vt 0.757812 0.328125
vt 0.718750 0.328125
vt 0.718750 0.304688
vt 0.750000 0.304688
vt 0.750000 0.312500
vt 0.718750 0.312500
vt 0.359375 0.351562
vt 0.320312 0.351562
vt 0.320312 0.320312
vt 0.359375 0.320312
vt 0.398438 0.320312
vt 0.398438 0.351562
s 1
usemtl NATO_CARC3
f 60/90/43 63/91/43 61/92/43 58/93/43
f 59/94/44 60/95/44 58/96/44 57/97/44
f 64/98/45 59/99/45 57/100/45 62/101/45
f 63/102/46 64/103/46 62/104/46 61/105/46
f 62/106/47 57/107/47 58/108/47 61/109/47
f 63/110/48 60/109/48 59/106/48 64/111/48
o cube_2
v -1.273912 0.952142 1.591156
v -1.273912 0.694566 1.848732
v -1.273912 0.887748 1.526762
v -1.273912 0.630172 1.784338
v -0.818578 0.694566 1.848732
v -0.818578 0.952142 1.591156
v -0.818578 0.630172 1.784338
v -0.818578 0.887748 1.526762
vn -0.0000 -0.7071 0.7071
vn -1.0000 -0.0000 -0.0000
vn -0.0000 0.7071 -0.7071
vn 1.0000 -0.0000 -0.0000
vn -0.0000 0.7071 0.7071
vn -0.0000 -0.7071 -0.7071
vt 0.679688 0.273438
vt 0.718750 0.273438
vt 0.718750 0.281250
vt 0.679688 0.281250
vt 0.718750 0.296875
vt 0.750000 0.296875
vt 0.750000 0.304688
vt 0.718750 0.304688
vt 0.718750 0.312500
vt 0.757812 0.312500
vt 0.757812 0.320312
vt 0.718750 0.320312
vt 0.718750 0.289062
vt 0.750000 0.289062
vt 0.695312 0.937500
vt 0.656250 0.937500
vt 0.656250 0.906250
vt 0.695312 0.906250
vt 0.695312 0.875000
vt 0.656250 0.875000
s 1
usemtl NATO_CARC3
f 68/112/49 71/113/49 69/114/49 66/115/49
f 67/116/50 68/117/50 66/118/50 65/119/50
f 72/120/51 67/121/51 65/122/51 70/123/51
f 71/124/52 72/125/52 70/117/52 69/116/52
f 70/126/53 65/127/53 66/128/53 69/129/53
f 71/130/54 68/131/54 67/128/54 72/129/54
o cube_6
v 0.820625 1.134276 2.410758
v 0.820625 1.134276 0.070340
v 0.820625 0.587875 2.410758
v 0.820625 0.587875 0.070340
v -0.818578 1.134276 0.070340
v -0.818578 1.134276 2.410758
v -0.818578 0.587875 0.070340
v -0.818578 0.587875 2.410758
vn -0.0000 -0.0000 -1.0000
vn 1.0000 -0.0000 -0.0000
vn -0.0000 -0.0000 1.0000
vn -1.0000 -0.0000 -0.0000
vn -0.0000 1.0000 -0.0000
vn -0.0000 -1.0000 -0.0000
vt 0.250000 0.382812
vt 0.390625 0.382812
vt 0.390625 0.429688
vt 0.250000 0.429688
vt 0.531250 0.507812
vt 0.734375 0.507812
vt 0.734375 0.554688
vt 0.531250 0.554688
vt 0.531250 0.382812
vt 0.531250 0.429688
vt 0.531250 0.460938
vt 0.734375 0.460938
vt 0.359375 1.000000
vt 0.218750 1.000000
vt 0.218750 0.796875
vt 0.359375 0.796875
vt 0.359375 0.593750
vt 0.218750 0.593750
s 1
usemtl NATO_CARC3
f 76/132/55 79/133/55 77/134/55 74/135/55
f 75/136/56 76/137/56 74/138/56 73/139/56
f 80/133/57 75/140/57 73/141/57 78/134/57
f 79/142/58 80/143/58 78/137/58 77/136/58
f 78/144/59 73/145/59 74/146/59 77/147/59
f 79/148/60 76/149/60 75/146/60 80/147/60
o cube_8
v 0.820625 0.952142 0.070340
v 0.820625 0.952142 -2.206331
v 0.820625 0.587875 0.070340
v 0.820625 0.587875 -2.206331
v -0.818578 0.952142 -2.206331
v -0.818578 0.952142 0.070340
v -0.818578 0.587875 -2.206331
v -0.818578 0.587875 0.070340
vn -0.0000 -0.0000 -1.0000
vn 1.0000 -0.0000 -0.0000
vn -0.0000 -0.0000 1.0000
vn -1.0000 -0.0000 -0.0000
vn -0.0000 1.0000 -0.0000
vn -0.0000 -1.0000 -0.0000
vt 0.609375 0.734375
vt 0.750000 0.734375
vt 0.750000 0.765625
vt 0.609375 0.765625
vt 0.609375 0.796875
vt 0.804688 0.796875
vt 0.804688 0.828125
vt 0.609375 0.828125
vt 0.609375 0.703125
vt 0.750000 0.703125
vt 0.804688 0.765625
vt 0.140625 0.679688
vt 0.000000 0.679688
vt 0.000000 0.484375
vt 0.140625 0.484375
vt 0.500000 0.804688
vt 0.359375 0.804688
vt 0.359375 1.000000
vt 0.500000 1.000000
s 1
usemtl NATO_CARC3
f 84/150/61 87/151/61 85/152/61 82/153/61
f 83/154/62 84/155/62 82/156/62 81/157/62
f 88/158/63 83/159/63 81/151/63 86/150/63
f 87/153/64 88/160/64 86/155/64 85/154/64
f 86/161/65 81/162/65 82/163/65 85/164/65
f 87/165/66 84/166/66 83/167/66 88/168/66
o cube_9
v 0.820625 1.953877 -0.749262
v 0.820625 1.953877 -2.206331
v 0.820625 0.952142 -0.749262
v 0.820625 0.952142 -2.206331
v -0.818578 1.953877 -2.206331
v -0.818578 1.953877 -0.749262
v -0.818578 0.952142 -2.206331
v -0.818578 0.952142 -0.749262
vn -0.0000 -0.0000 -1.0000
vn 1.0000 -0.0000 -0.0000
vn -0.0000 -0.0000 1.0000
vn -1.0000 -0.0000 -0.0000
vn -0.0000 1.0000 -0.0000
vn -0.0000 -1.0000 -0.0000
vt 0.468750 0.718750
vt 0.609375 0.718750
vt 0.609375 0.804688
vt 0.468750 0.804688
vt 0.500000 0.914062
vt 0.625000 0.914062
vt 0.625000 1.000000
vt 0.500000 1.000000
vt 0.468750 0.632812
vt 0.609375 0.632812
vt 0.500000 0.828125
vt 0.625000 0.828125
vt 0.390625 0.554688
vt 0.250000 0.554688
vt 0.250000 0.429688
vt 0.390625 0.429688
vt 0.531250 0.429688
vt 0.531250 0.554688
s 1
usemtl NATO_CARC3
f 92/169/67 95/170/67 93/171/67 90/172/67
f 91/173/68 92/174/68 90/175/68 89/176/68
f 96/177/69 91/178/69 89/170/69 94/169/69
f 95/179/70 96/180/70 94/174/70 93/173/70
f 94/181/71 89/182/71 90/183/71 93/184/71
f 95/185/72 92/184/72 91/181/72 96/186/72
o cube_10
v 0.478322 0.952853 -2.206331
v 0.478322 0.952853 -3.291981
v 0.478322 0.587875 -2.206331
v 0.478322 0.587874 -3.291981
v -0.476274 0.952853 -3.291981
v -0.476274 0.952853 -2.206331
v -0.476274 0.587874 -3.291981
v -0.476274 0.587875 -2.206331
vn -0.0000 -0.0000 -1.0000
vn 1.0000 -0.0000 -0.0000
vn -0.0000 -0.0000 1.0000
vn -1.0000 -0.0000 -0.0000
vn -0.0000 1.0000 -0.0000
vn -0.0000 -1.0000 -0.0000
vt 0.632812 0.375000
vt 0.710938 0.375000
vt 0.710938 0.406250
vt 0.632812 0.406250
vt 0.515625 0.335938
vt 0.609375 0.335938
vt 0.609375 0.367188
vt 0.515625 0.367188
vt 0.632812 0.343750
vt 0.710938 0.343750
vt 0.632812 0.429688
vt 0.726562 0.429688
vt 0.726562 0.460938
vt 0.632812 0.460938
vt 0.125000 0.484375
vt 0.046875 0.484375
vt 0.046875 0.390625
vt 0.125000 0.390625
vt 0.531250 0.367188
vt 0.531250 0.460938
vt 0.609375 0.460938
s 1
usemtl NATO_CARC3
f 100/187/73 103/188/73 101/189/73 98/190/73
f 99/191/74 100/192/74 98/193/74 97/194/74
f 104/195/75 99/196/75 97/188/75 102/187/75
f 103/197/76 104/198/76 102/199/76 101/200/76
f 102/201/77 97/202/77 98/203/77 101/204/77
f 103/193/78 100/205/78 99/206/78 104/207/78
o cube_11
v -0.818578 1.134276 0.407287
v -0.818578 1.134276 0.161407
v -0.818578 0.587875 0.407287
v -0.818578 0.587875 0.161407
v -1.064458 1.134276 0.161407
v -1.064458 1.134276 0.407287
v -1.064458 0.587875 0.161407
v -1.064458 0.587875 0.407287
vn -0.0000 -0.0000 -1.0000
vn 1.0000 -0.0000 -0.0000
vn -0.0000 -0.0000 1.0000
vn -1.0000 -0.0000 -0.0000
vn -0.0000 1.0000 -0.0000
vn -0.0000 -1.0000 -0.0000
vt 0.398438 0.304688
vt 0.421875 0.304688
vt 0.421875 0.351562
vt 0.398438 0.351562
vt 0.656250 0.828125
vt 0.679688 0.828125
vt 0.679688 0.875000
vt 0.656250 0.875000
vt 0.140625 0.296875
vt 0.164062 0.296875
vt 0.164062 0.343750
vt 0.140625 0.343750
vt 0.187500 0.296875
vt 0.187500 0.343750
vt 0.164062 0.617188
vt 0.140625 0.617188
vt 0.140625 0.593750
vt 0.164062 0.593750
vt 0.187500 0.593750
vt 0.187500 0.617188
s 1
usemtl NATO_CARC3
f 108/208/79 111/209/79 109/210/79 106/211/79
f 107/212/80 108/213/80 106/214/80 105/215/80
f 112/216/81 107/217/81 105/218/81 110/219/81
f 111/217/82 112/220/82 110/221/82 109/218/82
f 110/222/83 105/223/83 106/224/83 109/225/83
f 111/226/84 108/225/84 107/222/84 112/227/84
o cube_12
v -0.882325 0.587875 0.343541
v -0.882325 0.587875 0.225154
v -0.882325 0.041474 0.343541
v -0.882325 0.041474 0.225154
v -1.000711 0.587875 0.225154
v -1.000711 0.587875 0.343541
v -1.000711 0.041474 0.225154
v -1.000711 0.041474 0.343541
vn -0.0000 -0.0000 -1.0000
vn 1.0000 -0.0000 -0.0000
vn -0.0000 -0.0000 1.0000
vn -1.0000 -0.0000 -0.0000
vn -0.0000 1.0000 -0.0000
vn -0.0000 -1.0000 -0.0000
vt 0.125000 0.437500
vt 0.132812 0.437500
vt 0.132812 0.484375
vt 0.125000 0.484375
vt 0.140625 0.437500
vt 0.140625 0.484375
vt 0.125000 0.390625
vt 0.132812 0.390625
vt 0.140625 0.390625
vt 0.218750 0.617188
vt 0.210938 0.617188
vt 0.210938 0.609375
vt 0.218750 0.609375
vt 0.218750 0.601562
vt 0.210938 0.601562
s 1
usemtl NATO_CARC3
f 116/228/85 119/229/85 117/230/85 114/231/85
f 115/229/86 116/232/86 114/233/86 113/230/86
f 120/234/87 115/235/87 113/229/87 118/228/87
f 119/235/88 120/236/88 118/232/88 117/229/88
f 118/237/89 113/238/89 114/239/89 117/240/89
f 119/241/90 116/242/90 115/239/90 120/240/90
o cube_13
v -0.497225 0.954277 -2.105010
v -0.154921 0.954277 -3.190660
v -0.497225 0.587164 -2.105010
v -0.154921 0.587163 -3.190660
v -0.476274 0.954277 -3.291982
v -0.818578 0.954277 -2.206332
v -0.476274 0.587163 -3.291982
v -0.818578 0.587164 -2.206332
vn 0.3007 -0.0000 -0.9537
vn 0.9537 -0.0000 0.3007
vn -0.3007 -0.0000 0.9537
vn -0.9537 -0.0000 -0.3007
vn -0.0000 1.0000 -0.0000
vn -0.0000 -1.0000 -0.0000
vt 0.679688 0.312500
vt 0.710938 0.312500
vt 0.710938 0.343750
vt 0.679688 0.343750
vt 0.609375 0.632812
vt 0.710938 0.632812
vt 0.710938 0.664062
vt 0.609375 0.664062
vt 0.679688 0.281250
vt 0.710938 0.281250
vt 0.320312 0.351562
vt 0.421875 0.351562
vt 0.421875 0.382812
vt 0.320312 0.382812
vt 0.453125 0.382812
vt 0.421875 0.281250
vt 0.453125 0.281250
vt 0.484375 0.281250
vt 0.484375 0.382812
s 1
usemtl NATO_CARC3
f 124/243/91 127/244/91 125/245/91 122/246/91
f 123/247/92 124/248/92 122/249/92 121/250/92
f 128/251/93 123/252/93 121/244/93 126/243/93
f 127/253/94 128/254/94 126/255/94 125/256/94
f 126/257/95 121/255/95 122/258/95 125/259/95
f 127/260/96 124/259/96 123/257/96 128/261/96
o cube_14
v 0.820625 0.954277 -2.206332
v 0.478321 0.954277 -3.291982
v 0.820625 0.587164 -2.206332
v 0.478321 0.587163 -3.291982
v 0.156969 0.954277 -3.190660
v 0.499273 0.954277 -2.105010
v 0.156969 0.587163 -3.190660
v 0.499273 0.587164 -2.105010
vn -0.3007 -0.0000 -0.9537
vn 0.9537 -0.0000 -0.3007
vn 0.3007 -0.0000 0.9537
vn -0.9537 -0.0000 0.3007
vn -0.0000 1.0000 -0.0000
vn -0.0000 -1.0000 -0.0000
vt 0.695312 0.906250
vt 0.726562 0.906250
vt 0.726562 0.937500
vt 0.695312 0.937500
vt 0.625000 0.968750
vt 0.726562 0.968750
vt 0.726562 1.000000
vt 0.625000 1.000000
vt 0.695312 0.875000
vt 0.726562 0.875000
vt 0.625000 0.937500
vt 0.515625 0.382812
vt 0.484375 0.382812
vt 0.484375 0.281250
vt 0.515625 0.281250
vt 0.656250 0.835938
vt 0.625000 0.835938
vt 0.656250 0.937500
s 1
usemtl NATO_CARC3
f 132/262/97 135/263/97 133/264/97 130/265/97
f 131/266/98 132/267/98 130/268/98 129/269/98
f 136/270/99 131/271/99 129/263/99 134/262/99
f 135/272/100 136/264/100 134/267/100 133/266/100
f 134/273/101 129/274/101 130/275/101 133/276/101
f 135/277/102 132/278/102 131/272/102 136/279/102
o cube_15
v -0.791258 0.044319 0.434607
v -0.791258 0.044319 0.134087
v -0.791258 0.041474 0.434607
v -0.791258 0.041474 0.134087
v -1.091778 0.044319 0.134087
v -1.091778 0.044319 0.434607
v -1.091778 0.041474 0.134087
v -1.091778 0.041474 0.434607
vn -0.0000 -0.0000 -1.0000
vn 1.0000 -0.0000 -0.0000
vn -0.0000 -0.0000 1.0000
vn -1.0000 -0.0000 -0.0000
vn -0.0000 1.0000 -0.0000
vn -0.0000 -1.0000 -0.0000
vt 0.492188 0.273438
vt 0.515625 0.273438
vt 0.515625 0.281250
vt 0.492188 0.281250
vt 0.718750 0.281250
vt 0.742188 0.281250
vt 0.742188 0.289062
vt 0.718750 0.289062
vt 0.718750 0.273438
vt 0.742188 0.273438
vt 0.726562 0.992188
vt 0.750000 0.992188
vt 0.750000 1.000000
vt 0.726562 1.000000
vt 0.210938 0.617188
vt 0.187500 0.617188
vt 0.187500 0.593750
vt 0.210938 0.593750
vt 0.414062 0.281250
vt 0.390625 0.281250
vt 0.390625 0.304688
vt 0.414062 0.304688
s 1
usemtl NATO_CARC3
f 140/280/103 143/281/103 141/282/103 138/283/103
f 139/284/104 140/285/104 138/286/104 137/287/104
f 144/288/105 139/289/105 137/285/105 142/284/105
f 143/290/106 144/291/106 142/292/106 141/293/106
f 142/294/107 137/295/107 138/296/107 141/297/107
f 143/298/108 140/299/108 139/300/108 144/301/108
o cube_16
v 0.092091 0.587875 -3.053253
v 0.092091 0.587875 -3.299133
v 0.092091 0.405741 -3.053253
v 0.092091 0.405741 -3.299133
v -0.153790 0.587875 -3.299133
v -0.153790 0.587875 -3.053253
v -0.153790 0.405741 -3.299133
v -0.153790 0.405741 -3.053253
vn -0.0000 -0.0000 -1.0000
vn 1.0000 -0.0000 -0.0000
vn -0.0000 -0.0000 1.0000
vn -1.0000 -0.0000 -0.0000
vn -0.0000 1.0000 -0.0000
vn -0.0000 -1.0000 -0.0000
vt 0.718750 0.687500
vt 0.742188 0.687500
vt 0.742188 0.703125
vt 0.718750 0.703125
vt 0.718750 0.671875
vt 0.742188 0.671875
vt 0.718750 0.570312
vt 0.742188 0.570312
vt 0.742188 0.585938
vt 0.718750 0.585938
vt 0.421875 0.265625
vt 0.445312 0.265625
vt 0.445312 0.281250
vt 0.421875 0.281250
vt 0.734375 0.664062
vt 0.710938 0.664062
vt 0.710938 0.640625
vt 0.734375 0.640625
vt 0.539062 0.265625
vt 0.515625 0.265625
vt 0.515625 0.289062
vt 0.539062 0.289062
s 1
usemtl NATO_CARC3
f 148/302/109 151/303/109 149/304/109 146/305/109
f 147/306/110 148/307/110 146/303/110 145/302/110
f 152/308/111 147/309/111 145/310/111 150/311/111
f 151/312/112 152/313/112 150/314/112 149/315/112
f 150/316/113 145/317/113 146/318/113 149/319/113
f 151/320/114 148/321/114 147/322/114 152/323/114
o cube_19
v -0.791258 0.044319 2.255944
v -0.791258 0.044319 1.955424
v -0.791258 0.041474 2.255944
v -0.791258 0.041474 1.955424
v -1.091778 0.044319 1.955424
v -1.091778 0.044319 2.255944
v -1.091778 0.041474 1.955424
v -1.091778 0.041474 2.255944
vn -0.0000 -0.0000 -1.0000
vn 1.0000 -0.0000 -0.0000
vn -0.0000 -0.0000 1.0000
vn -1.0000 -0.0000 -0.0000
vn -0.0000 1.0000 -0.0000
vn -0.0000 -1.0000 -0.0000
vt 0.492188 0.273438
vt 0.515625 0.273438
vt 0.515625 0.281250
vt 0.492188 0.281250
vt 0.718750 0.281250
vt 0.742188 0.281250
vt 0.742188 0.289062
vt 0.718750 0.289062
vt 0.718750 0.273438
vt 0.742188 0.273438
vt 0.726562 0.992188
vt 0.750000 0.992188
vt 0.750000 1.000000
vt 0.726562 1.000000
vt 0.210938 0.617188
vt 0.187500 0.617188
vt 0.187500 0.593750
vt 0.210938 0.593750
vt 0.414062 0.281250
vt 0.390625 0.281250
vt 0.390625 0.304688
vt 0.414062 0.304688
s 1
usemtl NATO_CARC3
f 156/324/115 159/325/115 157/326/115 154/327/115
f 155/328/116 156/329/116 154/330/116 153/331/116
f 160/332/117 155/333/117 153/329/117 158/328/117
f 159/334/118 160/335/118 158/336/118 157/337/118
f 158/338/119 153/339/119 154/340/119 157/341/119
f 159/342/120 156/343/120 155/344/120 160/345/120
o cube_20
v -0.882325 0.587875 2.164877
v -0.882325 0.587875 2.046491
v -0.882325 0.041474 2.164878
v -0.882325 0.041474 2.046491
v -1.000711 0.587875 2.046491
v -1.000711 0.587875 2.164877
v -1.000711 0.041474 2.046491
v -1.000711 0.041474 2.164878
vn -0.0000 -0.0000 -1.0000
vn 1.0000 -0.0000 -0.0000
vn -0.0000 -0.0000 1.0000
vn -1.0000 -0.0000 -0.0000
vn -0.0000 1.0000 -0.0000
vn -0.0000 -1.0000 -0.0000
vt 0.125000 0.437500
vt 0.132812 0.437500
vt 0.132812 0.484375
vt 0.125000 0.484375
vt 0.140625 0.437500
vt 0.140625 0.484375
vt 0.125000 0.390625
vt 0.132812 0.390625
vt 0.140625 0.390625
vt 0.218750 0.617188
vt 0.210938 0.617188
vt 0.210938 0.609375
vt 0.218750 0.609375
vt 0.218750 0.601562
vt 0.210938 0.601562
s 1
usemtl NATO_CARC3
f 164/346/121 167/347/121 165/348/121 162/349/121
f 163/347/122 164/350/122 162/351/122 161/348/122
f 168/352/123 163/353/123 161/347/123 166/346/123
f 167/353/124 168/354/124 166/350/124 165/347/124
f 166/355/125 161/356/125 162/357/125 165/358/125
f 167/359/126 164/360/126 163/357/126 168/358/126
o cube_21
v -0.818578 1.134276 2.228624
v -0.818578 1.134276 1.982744
v -0.818578 0.587875 2.228624
v -0.818578 0.587875 1.982744
v -1.064458 1.134276 1.982744
v -1.064458 1.134276 2.228624
v -1.064458 0.587875 1.982744
v -1.064458 0.587875 2.228624
vn -0.0000 -0.0000 -1.0000
vn 1.0000 -0.0000 -0.0000
vn -0.0000 -0.0000 1.0000
vn -1.0000 -0.0000 -0.0000
vn -0.0000 1.0000 -0.0000
vn -0.0000 -1.0000 -0.0000
vt 0.398438 0.304688
vt 0.421875 0.304688
vt 0.421875 0.351562
vt 0.398438 0.351562
vt 0.656250 0.828125
vt 0.679688 0.828125
vt 0.679688 0.875000
vt 0.656250 0.875000
vt 0.140625 0.296875
vt 0.164062 0.296875
vt 0.164062 0.343750
vt 0.140625 0.343750
vt 0.187500 0.296875
vt 0.187500 0.343750
vt 0.164062 0.617188
vt 0.140625 0.617188
vt 0.140625 0.593750
vt 0.164062 0.593750
vt 0.187500 0.593750
vt 0.187500 0.617188
s 1
usemtl NATO_CARC3
f 172/361/127 175/362/127 173/363/127 170/364/127
f 171/365/128 172/366/128 170/367/128 169/368/128
f 176/369/129 171/370/129 169/371/129 174/372/129
f 175/370/130 176/373/130 174/374/130 173/371/130
f 174/375/131 169/376/131 170/377/131 173/378/131
f 175/379/132 172/378/132 171/375/132 176/380/132
o cube_22
v 1.066506 1.134276 0.407287
v 1.066506 1.134276 0.161407
v 1.066506 0.587875 0.407287
v 1.066506 0.587875 0.161407
v 0.820625 1.134276 0.161407
v 0.820625 1.134276 0.407287
v 0.820625 0.587875 0.161407
v 0.820625 0.587875 0.407287
vn -0.0000 -0.0000 -1.0000
vn 1.0000 -0.0000 -0.0000
vn -0.0000 -0.0000 1.0000
vn -1.0000 -0.0000 -0.0000
vn -0.0000 1.0000 -0.0000
vn -0.0000 -1.0000 -0.0000
vt 0.421875 0.304688
vt 0.398438 0.304688
vt 0.398438 0.351562
vt 0.421875 0.351562
vt 0.187500 0.296875
vt 0.164062 0.296875
vt 0.164062 0.343750
vt 0.187500 0.343750
vt 0.140625 0.296875
vt 0.140625 0.343750
vt 0.679688 0.828125
vt 0.656250 0.828125
vt 0.656250 0.875000
vt 0.679688 0.875000
vt 0.140625 0.617188
vt 0.164062 0.617188
vt 0.164062 0.593750
vt 0.140625 0.593750
vt 0.187500 0.593750
vt 0.187500 0.617188
s 1
usemtl NATO_CARC3
f 180/381/133 183/382/133 181/383/133 178/384/133
f 179/385/134 180/386/134 178/387/134 177/388/134
f 184/386/135 179/389/135 177/390/135 182/387/135
f 183/391/136 184/392/136 182/393/136 181/394/136
f 182/395/137 177/396/137 178/397/137 181/398/137
f 183/397/138 180/399/138 179/400/138 184/396/138
o cube_23
v 1.002759 0.587875 0.343541
v 1.002759 0.587875 0.225154
v 1.002759 0.041474 0.343541
v 1.002759 0.041474 0.225154
v 0.884372 0.587875 0.225154
v 0.884372 0.587875 0.343541
v 0.884372 0.041474 0.225154
v 0.884372 0.041474 0.343541
vn -0.0000 -0.0000 -1.0000
vn 1.0000 -0.0000 -0.0000
vn -0.0000 -0.0000 1.0000
vn -1.0000 -0.0000 -0.0000
vn -0.0000 1.0000 -0.0000
vn -0.0000 -1.0000 -0.0000
vt 0.132812 0.437500
vt 0.125000 0.437500
vt 0.125000 0.484375
vt 0.132812 0.484375
vt 0.140625 0.390625
vt 0.132812 0.390625
vt 0.140625 0.437500
vt 0.125000 0.390625
vt 0.140625 0.484375
vt 0.210938 0.617188
vt 0.218750 0.617188
vt 0.218750 0.609375
vt 0.210938 0.609375
vt 0.210938 0.601562
vt 0.218750 0.601562
s 1
usemtl NATO_CARC3
f 188/401/139 191/402/139 189/403/139 186/404/139
f 187/405/140 188/406/140 186/401/140 185/407/140
f 192/406/141 187/408/141 185/402/141 190/401/141
f 191/407/142 192/401/142 190/404/142 189/409/142
f 190/410/143 185/411/143 186/412/143 189/413/143
f 191/414/144 188/415/144 187/412/144 192/413/144
o cube_24
v 1.093826 0.044319 0.434607
v 1.093826 0.044319 0.134087
v 1.093826 0.041474 0.434607
v 1.093826 0.041474 0.134087
v 0.793305 0.044319 0.134087
v 0.793305 0.044319 0.434607
v 0.793305 0.041474 0.134087
v 0.793305 0.041474 0.434607
vn -0.0000 -0.0000 -1.0000
vn 1.0000 -0.0000 -0.0000
vn -0.0000 -0.0000 1.0000
vn -1.0000 -0.0000 -0.0000
vn -0.0000 1.0000 -0.0000
vn -0.0000 -1.0000 -0.0000
vt 0.515625 0.273438
vt 0.492188 0.273438
vt 0.492188 0.281250
vt 0.515625 0.281250
vt 0.750000 0.992188
vt 0.726562 0.992188
vt 0.726562 1.000000
vt 0.750000 1.000000
vt 0.742188 0.273438
vt 0.718750 0.273438
vt 0.718750 0.281250
vt 0.742188 0.281250
vt 0.718750 0.289062
vt 0.742188 0.289062
vt 0.187500 0.617188
vt 0.210938 0.617188
vt 0.210938 0.593750
vt 0.187500 0.593750
vt 0.390625 0.281250
vt 0.414062 0.281250
vt 0.414062 0.304688
vt 0.390625 0.304688
s 1
usemtl NATO_CARC3
f 196/416/145 199/417/145 197/418/145 194/419/145
f 195/420/146 196/421/146 194/422/146 193/423/146
f 200/424/147 195/425/147 193/426/147 198/427/147
f 199/427/148 200/426/148 198/428/148 197/429/148
f 198/430/149 193/431/149 194/432/149 197/433/149
f 199/434/150 196/435/150 195/436/150 200/437/150
o cube_25
v 1.066506 1.134276 2.228624
v 1.066506 1.134276 1.982744
v 1.066506 0.587875 2.228624
v 1.066506 0.587875 1.982744
v 0.820625 1.134276 1.982744
v 0.820625 1.134276 2.228624
v 0.820625 0.587875 1.982744
v 0.820625 0.587875 2.228624
vn -0.0000 -0.0000 -1.0000
vn 1.0000 -0.0000 -0.0000
vn -0.0000 -0.0000 1.0000
vn -1.0000 -0.0000 -0.0000
vn -0.0000 1.0000 -0.0000
vn -0.0000 -1.0000 -0.0000
vt 0.421875 0.304688
vt 0.398438 0.304688
vt 0.398438 0.351562
vt 0.421875 0.351562
vt 0.187500 0.296875
vt 0.164062 0.296875
vt 0.164062 0.343750
vt 0.187500 0.343750
vt 0.140625 0.296875
vt 0.140625 0.343750
vt 0.679688 0.828125
vt 0.656250 0.828125
vt 0.656250 0.875000
vt 0.679688 0.875000
vt 0.140625 0.617188
vt 0.164062 0.617188
vt 0.164062 0.593750
vt 0.140625 0.593750
vt 0.187500 0.593750
vt 0.187500 0.617188
s 1
usemtl NATO_CARC3
f 204/438/151 207/439/151 205/440/151 202/441/151
f 203/442/152 204/443/152 202/444/152 201/445/152
f 208/443/153 203/446/153 201/447/153 206/444/153
f 207/448/154 208/449/154 206/450/154 205/451/154
f 206/452/155 201/453/155 202/454/155 205/455/155
f 207/454/156 204/456/156 203/457/156 208/453/156
o cube_26
v 1.002759 0.587875 2.164877
v 1.002759 0.587875 2.046491
v 1.002759 0.041474 2.164878
v 1.002759 0.041474 2.046491
v 0.884372 0.587875 2.046491
v 0.884372 0.587875 2.164877
v 0.884372 0.041474 2.046491
v 0.884372 0.041474 2.164878
vn -0.0000 -0.0000 -1.0000
vn 1.0000 -0.0000 -0.0000
vn -0.0000 -0.0000 1.0000
vn -1.0000 -0.0000 -0.0000
vn -0.0000 1.0000 -0.0000
vn -0.0000 -1.0000 -0.0000
vt 0.132812 0.437500
vt 0.125000 0.437500
vt 0.125000 0.484375
vt 0.132812 0.484375
vt 0.140625 0.390625
vt 0.132812 0.390625
vt 0.140625 0.437500
vt 0.125000 0.390625
vt 0.140625 0.484375
vt 0.210938 0.617188
vt 0.218750 0.617188
vt 0.218750 0.609375
vt 0.210938 0.609375
vt 0.210938 0.601562
vt 0.218750 0.601562
s 1
usemtl NATO_CARC3
f 212/458/157 215/459/157 213/460/157 210/461/157
f 211/462/158 212/463/158 210/458/158 209/464/158
f 216/463/159 211/465/159 209/459/159 214/458/159
f 215/464/160 216/458/160 214/461/160 213/466/160
f 214/467/161 209/468/161 210/469/161 213/470/161
f 215/471/162 212/472/162 211/469/162 216/470/162
o cube_27
v 1.093826 0.044319 2.255944
v 1.093826 0.044319 1.955424
v 1.093826 0.041474 2.255944
v 1.093826 0.041474 1.955424
v 0.793305 0.044319 1.955424
v 0.793305 0.044319 2.255944
v 0.793305 0.041474 1.955424
v 0.793305 0.041474 2.255944
vn -0.0000 -0.0000 -1.0000
vn 1.0000 -0.0000 -0.0000
vn -0.0000 -0.0000 1.0000
vn -1.0000 -0.0000 -0.0000
vn -0.0000 1.0000 -0.0000
vn -0.0000 -1.0000 -0.0000
vt 0.515625 0.273438
vt 0.492188 0.273438
vt 0.492188 0.281250
vt 0.515625 0.281250
vt 0.750000 0.992188
vt 0.726562 0.992188
vt 0.726562 1.000000
vt 0.750000 1.000000
vt 0.742188 0.273438
vt 0.718750 0.273438
vt 0.718750 0.281250
vt 0.742188 0.281250
vt 0.718750 0.289062
vt 0.742188 0.289062
vt 0.187500 0.617188
vt 0.210938 0.617188
vt 0.210938 0.593750
vt 0.187500 0.593750
vt 0.390625 0.281250
vt 0.414062 0.281250
vt 0.414062 0.304688
vt 0.390625 0.304688
s 1
usemtl NATO_CARC3
f 220/473/163 223/474/163 221/475/163 218/476/163
f 219/477/164 220/478/164 218/479/164 217/480/164
f 224/481/165 219/482/165 217/483/165 222/484/165
f 223/484/166 224/483/166 222/485/166 221/486/166
f 222/487/167 217/488/167 218/489/167 221/490/167
f 223/491/168 220/492/168 219/493/168 224/494/168
o cube_28
v 0.119411 0.044319 -3.025933
v 0.119411 0.044319 -3.326453
v 0.119411 0.041474 -3.025933
v 0.119411 0.041474 -3.326453
v -0.181110 0.044319 -3.326453
v -0.181110 0.044319 -3.025933
v -0.181110 0.041474 -3.326453
v -0.181110 0.041474 -3.025933
vn -0.0000 -0.0000 -1.0000
vn 1.0000 -0.0000 -0.0000
vn -0.0000 -0.0000 1.0000
vn -1.0000 -0.0000 -0.0000
vn -0.0000 1.0000 -0.0000
vn -0.0000 -1.0000 -0.0000
vt 0.492188 0.273438
vt 0.515625 0.273438
vt 0.515625 0.281250
vt 0.492188 0.281250
vt 0.718750 0.281250
vt 0.742188 0.281250
vt 0.742188 0.289062
vt 0.718750 0.289062
vt 0.718750 0.273438
vt 0.742188 0.273438
vt 0.726562 0.992188
vt 0.750000 0.992188
vt 0.750000 1.000000
vt 0.726562 1.000000
vt 0.210938 0.617188
vt 0.187500 0.617188
vt 0.187500 0.593750
vt 0.210938 0.593750
vt 0.414062 0.281250
vt 0.390625 0.281250
vt 0.390625 0.304688
vt 0.414062 0.304688
s 1
usemtl NATO_CARC3
f 228/495/169 231/496/169 229/497/169 226/498/169
f 227/499/170 228/500/170 226/501/170 225/502/170
f 232/503/171 227/504/171 225/500/171 230/499/171
f 231/505/172 232/506/172 230/507/172 229/508/172
f 230/509/173 225/510/173 226/511/173 229/512/173
f 231/513/174 228/514/174 227/515/174 232/516/174
o cube_29
v 0.028344 0.587875 -3.117000
v 0.028344 0.587875 -3.235386
v 0.028344 0.041474 -3.116999
v 0.028344 0.041474 -3.235386
v -0.090043 0.587875 -3.235386
v -0.090043 0.587875 -3.117000
v -0.090043 0.041474 -3.235386
v -0.090043 0.041474 -3.116999
vn -0.0000 -0.0000 -1.0000
vn 1.0000 -0.0000 -0.0000
vn -0.0000 -0.0000 1.0000
vn -1.0000 -0.0000 -0.0000
vn -0.0000 1.0000 -0.0000
vn -0.0000 -1.0000 -0.0000
vt 0.125000 0.437500
vt 0.132812 0.437500
vt 0.132812 0.484375
vt 0.125000 0.484375
vt 0.140625 0.437500
vt 0.140625 0.484375
vt 0.125000 0.390625
vt 0.132812 0.390625
vt 0.140625 0.390625
vt 0.218750 0.617188
vt 0.210938 0.617188
vt 0.210938 0.609375
vt 0.218750 0.609375
vt 0.218750 0.601562
vt 0.210938 0.601562
s 1
usemtl NATO_CARC3
f 236/517/175 239/518/175 237/519/175 234/520/175
f 235/518/176 236/521/176 234/522/176 233/519/176
f 240/523/177 235/524/177 233/518/177 238/517/177
f 239/524/178 240/525/178 238/521/178 237/518/178
f 238/526/179 233/527/179 234/528/179 237/529/179
f 239/530/180 236/531/180 235/528/180 240/529/180
o cube_30
v 0.820625 0.952142 1.591156
v 0.820626 0.694566 1.848732
v 0.820625 0.887748 1.526762
v 0.820626 0.630172 1.784338
v 1.275960 0.694566 1.848732
v 1.275960 0.952142 1.591156
v 1.275960 0.630172 1.784338
v 1.275960 0.887748 1.526762
vn -0.0000 -0.7071 0.7071
vn -1.0000 -0.0000 -0.0000
vn -0.0000 0.7071 -0.7071
vn 1.0000 -0.0000 -0.0000
vn -0.0000 0.7071 0.7071
vn -0.0000 -0.7071 -0.7071
vt 0.718750 0.273438
vt 0.679688 0.273438
vt 0.679688 0.281250
vt 0.718750 0.281250
vt 0.750000 0.289062
vt 0.718750 0.289062
vt 0.718750 0.296875
vt 0.750000 0.296875
vt 0.757812 0.312500
vt 0.718750 0.312500
vt 0.718750 0.320312
vt 0.757812 0.320312
vt 0.718750 0.304688
vt 0.750000 0.304688
vt 0.656250 0.937500
vt 0.695312 0.937500
vt 0.695312 0.906250
vt 0.656250 0.906250
vt 0.656250 0.875000
vt 0.695312 0.875000
s 1
usemtl NATO_CARC3
f 244/532/181 247/533/181 245/534/181 242/535/181
f 243/536/182 244/537/182 242/538/182 241/539/182
f 248/540/183 243/541/183 241/542/183 246/543/183
f 247/539/184 248/538/184 246/544/184 245/545/184
f 246/546/185 241/547/185 242/548/185 245/549/185
f 247/550/186 244/551/186 243/548/186 248/549/186
o cube_31
v 1.275960 0.952142 1.591156
v 1.275960 0.952142 0.862622
v 1.275960 0.861075 1.591156
v 1.275960 0.861075 0.862622
v 0.820625 0.952142 0.862622
v 0.820625 0.952142 1.591156
v 0.820625 0.861075 0.862622
v 0.820625 0.861075 1.591156
vn -0.0000 -0.0000 -1.0000
vn 1.0000 -0.0000 -0.0000
vn -0.0000 -0.0000 1.0000
vn -1.0000 -0.0000 -0.0000
vn -0.0000 1.0000 -0.0000
vn -0.0000 -1.0000 -0.0000
vt 0.757812 0.664062
vt 0.718750 0.664062
vt 0.718750 0.671875
vt 0.757812 0.671875
vt 0.773438 0.328125
vt 0.710938 0.328125
vt 0.710938 0.335938
vt 0.773438 0.335938
vt 0.757812 0.562500
vt 0.718750 0.562500
vt 0.718750 0.570312
vt 0.757812 0.570312
vt 0.773438 0.632812
vt 0.710938 0.632812
vt 0.710938 0.640625
vt 0.773438 0.640625
vt 0.140625 0.679688
vt 0.179688 0.679688
vt 0.179688 0.617188
vt 0.140625 0.617188
vt 0.218750 0.617188
vt 0.218750 0.679688
s 1
usemtl NATO_CARC3
f 252/552/187 255/553/187 253/554/187 250/555/187
f 251/556/188 252/557/188 250/558/188 249/559/188
f 256/560/189 251/561/189 249/562/189 254/563/189
f 255/564/190 256/565/190 254/566/190 253/567/190
f 254/568/191 249/569/191 250/570/191 253/571/191
f 255/570/192 252/572/192 251/573/192 256/569/192
o cube_32
v 1.275960 0.952142 0.862622
v 1.275960 0.694566 0.605046
v 1.275960 0.887748 0.927016
v 1.275960 0.630172 0.669440
v 0.820626 0.694566 0.605046
v 0.820626 0.952142 0.862622
v 0.820626 0.630172 0.669440
v 0.820626 0.887748 0.927016
vn -0.0000 -0.7071 -0.7071
vn 1.0000 -0.0000 -0.0000
vn -0.0000 0.7071 0.7071
vn -1.0000 -0.0000 -0.0000
vn -0.0000 0.7071 -0.7071
vn -0.0000 -0.7071 0.7071
vt 0.757812 0.554688
vt 0.718750 0.554688
vt 0.718750 0.562500
vt 0.757812 0.562500
vt 0.750000 0.304688
vt 0.718750 0.304688
vt 0.718750 0.312500
vt 0.750000 0.312500
vt 0.757812 0.320312
vt 0.718750 0.320312
vt 0.718750 0.328125
vt 0.757812 0.328125
vt 0.656250 0.828125
vt 0.625000 0.828125
vt 0.625000 0.835938
vt 0.656250 0.835938
vt 0.320312 0.351562
vt 0.359375 0.351562
vt 0.359375 0.320312
vt 0.320312 0.320312
vt 0.398438 0.320312
vt 0.398438 0.351562
s 1
usemtl NATO_CARC3
f 260/574/193 263/575/193 261/576/193 258/577/193
f 259/578/194 260/579/194 258/580/194 257/581/194
f 264/582/195 259/583/195 257/584/195 262/585/195
f 263/586/196 264/587/196 262/588/196 261/589/196
f 262/590/197 257/591/197 258/592/197 261/593/197
f 263/592/198 260/594/198 259/595/198 264/591/198
