# Blender 4.5.3 LTS
# www.blender.org
mtllib asrad_turret.mtl
o gun
v 0.379559 1.783187 -1.008900
v 0.379558 1.783187 1.053593
v 0.379559 1.158187 -1.008900
v 0.379558 1.158187 1.053593
v 0.754557 1.783187 1.053593
v 0.754557 1.783187 -1.008900
v 0.754557 1.158187 1.053593
v 0.754557 1.158187 -1.008900
v -0.725938 1.783187 -1.008900
v -0.725938 1.783187 1.053593
v -0.725938 1.158187 -1.008900
v -0.725938 1.158187 1.053593
v -0.350939 1.783187 1.053593
v -0.350939 1.783187 -1.008900
v -0.350939 1.158187 1.053593
v -0.350939 1.158187 -1.008900
vn -0.0000 -0.0000 1.0000
vn -1.0000 -0.0000 -0.0000
vn -0.0000 -0.0000 -1.0000
vn 1.0000 -0.0000 -0.0000
vn -0.0000 1.0000 -0.0000
vn -0.0000 -1.0000 -0.0000
vt 0.210938 0.904297
vt 0.222656 0.904297
vt 0.222656 0.923828
vt 0.210938 0.923828
vt 0.433594 0.925781
vt 0.498047 0.925781
vt 0.498047 0.945312
vt 0.433594 0.945312
vt 0.310547 0.628906
vt 0.322266 0.628906
vt 0.322266 0.648438
vt 0.310547 0.648438
vt 0.433594 0.906250
vt 0.498047 0.906250
vt 0.306641 0.542969
vt 0.294922 0.542969
vt 0.294922 0.478516
vt 0.306641 0.478516
vt 0.275391 0.439453
vt 0.263672 0.439453
vt 0.263672 0.503906
vt 0.275391 0.503906
vt 0.402344 0.496094
vt 0.414062 0.496094
vt 0.414062 0.515625
vt 0.402344 0.515625
vt 0.437500 0.832031
vt 0.501953 0.832031
vt 0.501953 0.851562
vt 0.437500 0.851562
vt 0.615234 0.449219
vt 0.626953 0.449219
vt 0.626953 0.468750
vt 0.615234 0.468750
vt 0.437500 0.609375
vt 0.501953 0.609375
vt 0.501953 0.628906
vt 0.437500 0.628906
vt 0.056641 0.496094
vt 0.044922 0.496094
vt 0.044922 0.431641
vt 0.056641 0.431641
vt 0.162109 0.427734
vt 0.150391 0.427734
vt 0.150391 0.492188
vt 0.162109 0.492188
s 1
usemtl мая.png.001
f 4/1/1 7/2/1 5/3/1 2/4/1
f 3/5/2 4/6/2 2/7/2 1/8/2
f 8/9/3 3/10/3 1/11/3 6/12/3
f 7/13/4 8/14/4 6/6/4 5/5/4
f 6/15/5 1/16/5 2/17/5 5/18/5
f 7/19/6 4/20/6 3/21/6 8/22/6
f 12/23/1 15/24/1 13/25/1 10/26/1
f 11/27/2 12/28/2 10/29/2 9/30/2
f 16/31/3 11/32/3 9/33/3 14/34/3
f 15/35/4 16/36/4 14/37/4 13/38/4
f 14/39/5 9/40/5 10/41/5 13/42/5
f 15/43/6 12/44/6 11/45/6 16/46/6
o turret
v -0.248437 1.532904 -0.322942
v -0.248437 1.532905 0.239556
v 0.251561 1.532905 0.239555
v 0.251561 1.532904 -0.322942
v -0.248437 1.532904 -0.322942
v -0.248437 1.532905 0.239556
v 0.251561 1.532905 0.239555
v 0.251561 1.532904 -0.322942
v -0.370438 1.720687 -0.508901
v -0.370439 1.720687 0.428595
v -0.370438 0.970687 -0.508901
v -0.370439 0.970687 0.428595
v 0.379559 1.720687 0.428595
v 0.379559 1.720687 -0.508901
v 0.379559 0.970687 0.428595
v 0.379559 0.970687 -0.508901
v -0.245439 1.533187 -0.321402
v -0.245439 1.533187 0.241096
v 0.254559 1.533187 0.241096
v 0.254559 1.533187 -0.321402
v -0.248437 1.532904 -0.322942
v -0.248437 1.532905 0.239556
v 0.251561 1.532905 0.239555
v 0.251561 1.532904 -0.322942
vn -0.0000 1.0000 -0.0000
vn -0.0000 -0.0000 1.0000
vn -1.0000 -0.0000 -0.0000
vn -0.0000 -0.0000 -1.0000
vn 1.0000 -0.0000 -0.0000
vn -0.0000 -1.0000 -0.0000
vt 0.416016 0.394531
vt 0.400391 0.394531
vt 0.400391 0.376953
vt 0.416016 0.376953
vt 0.162109 0.441406
vt 0.185547 0.441406
vt 0.185547 0.464844
vt 0.162109 0.464844
vt 0.371094 0.462891
vt 0.400391 0.462891
vt 0.400391 0.486328
vt 0.371094 0.486328
vt 0.472656 0.441406
vt 0.496094 0.441406
vt 0.496094 0.464844
vt 0.472656 0.464844
vt 0.521484 0.810547
vt 0.550781 0.810547
vt 0.550781 0.833984
vt 0.521484 0.833984
vt 0.318359 0.478516
vt 0.294922 0.478516
vt 0.294922 0.449219
vt 0.318359 0.449219
vt 0.023438 0.447266
vt 0.000000 0.447266
vt 0.000000 0.476562
vt 0.023438 0.476562
s 1
usemtl мая.png.001
f 20/47/7 17/48/7 18/49/7 19/50/7
f 24/47/7 21/48/7 22/49/7 23/50/7
f 28/51/8 31/52/8 29/53/8 26/54/8
f 27/55/9 28/56/9 26/57/9 25/58/9
f 32/59/10 27/60/10 25/61/10 30/62/10
f 31/63/11 32/64/11 30/65/11 29/66/11
f 30/67/7 25/68/7 26/69/7 29/70/7
f 31/71/12 28/72/12 27/73/12 32/74/12
f 36/47/7 33/48/7 34/49/7 35/50/7
f 40/47/7 37/48/7 38/49/7 39/50/7
o stank
v -0.435937 0.720404 -0.447942
v -0.435936 0.720405 0.364555
v -0.435937 0.032905 -0.447942
v -0.435936 0.032905 0.364555
v 0.064062 0.720405 0.364555
v 0.064062 0.720404 -0.447942
v 0.064062 0.032905 0.364555
v 0.064062 0.032905 -0.447942
v -0.248437 1.532904 -0.322942
v -0.248437 1.532905 0.239556
v -0.248437 0.470405 -0.322942
v -0.248437 0.470405 0.239556
v 0.251561 1.532905 0.239555
v 0.251561 1.532904 -0.322942
v 0.251561 0.470405 0.239555
v 0.251561 0.470405 -0.322942
v -0.245439 1.533187 -0.321402
v -0.245439 1.533187 0.241096
v 0.254559 1.533187 0.241096
v 0.254559 1.533187 -0.321402
vn -0.0000 -0.0000 1.0000
vn -1.0000 -0.0000 -0.0000
vn -0.0000 -0.0000 -1.0000
vn 1.0000 -0.0000 -0.0000
vn -0.0000 1.0000 -0.0000
vn -0.0000 -1.0000 -0.0000
vt 0.392578 0.394531
vt 0.408203 0.394531
vt 0.408203 0.416016
vt 0.392578 0.416016
vt 0.496094 0.443359
vt 0.521484 0.443359
vt 0.521484 0.464844
vt 0.496094 0.464844
vt 0.423828 0.394531
vt 0.423828 0.416016
vt 0.546875 0.443359
vt 0.546875 0.464844
vt 0.220703 0.755859
vt 0.205078 0.755859
vt 0.205078 0.730469
vt 0.220703 0.730469
vt 0.351562 0.406250
vt 0.335938 0.406250
vt 0.335938 0.431641
vt 0.351562 0.431641
vt 0.185547 0.429688
vt 0.201172 0.429688
vt 0.201172 0.462891
vt 0.185547 0.462891
vt 0.119141 0.441406
vt 0.136719 0.441406
vt 0.136719 0.474609
vt 0.119141 0.474609
vt 0.216797 0.429688
vt 0.216797 0.462891
vt 0.275391 0.437500
vt 0.292969 0.437500
vt 0.292969 0.470703
vt 0.275391 0.470703
vt 0.416016 0.394531
vt 0.400391 0.394531
vt 0.400391 0.376953
vt 0.416016 0.376953
vt 0.492188 0.376953
vt 0.476562 0.376953
vt 0.476562 0.394531
vt 0.492188 0.394531
s 1
usemtl мая.png.001
f 44/75/13 47/76/13 45/77/13 42/78/13
f 43/79/14 44/80/14 42/81/14 41/82/14
f 48/76/15 43/83/15 41/84/15 46/77/15
f 47/80/16 48/85/16 46/86/16 45/81/16
f 46/87/17 41/88/17 42/89/17 45/90/17
f 47/91/18 44/92/18 43/93/18 48/94/18
f 52/95/13 55/96/13 53/97/13 50/98/13
f 51/99/14 52/100/14 50/101/14 49/102/14
f 56/96/15 51/103/15 49/104/15 54/97/15
f 55/105/16 56/106/16 54/107/16 53/108/16
f 54/109/17 49/110/17 50/111/17 53/112/17
f 55/113/18 52/114/18 51/115/18 56/116/18
f 60/109/17 57/110/17 58/111/17 59/112/17
