# Blender 3.3.21
# www.blender.org
mtllib bmp1am_turret.mtl
o turret
v -0.151387 1.993804 -0.348971
v -0.151387 1.905807 -0.433948
v -0.151387 1.599653 0.059185
v -0.151387 1.511656 -0.025792
v -0.539525 1.905807 -0.433948
v -0.539525 1.993804 -0.348971
v -0.539525 1.511656 -0.025792
v -0.539525 1.599653 0.059185
v -0.204818 1.544464 0.301936
v -0.204818 1.729912 0.301936
v -0.314459 1.544464 0.112032
v -0.314459 1.729912 0.112032
v -0.261169 1.729912 0.334471
v -0.261169 1.544464 0.334471
v -0.370811 1.729912 0.144566
v -0.370811 1.544464 0.144566
v 0.337813 1.447701 -0.742171
v 0.337813 1.170872 -0.854017
v 0.337813 1.422336 -0.679390
v 0.337813 1.145507 -0.791237
v -0.336499 1.170872 -0.854017
v -0.336499 1.447701 -0.742171
v -0.336499 1.145507 -0.791237
v -0.336499 1.422336 -0.679390
v 0.362533 1.555136 0.526264
v 0.362533 1.679034 0.526264
v 0.362533 1.555136 0.303850
v 0.362533 1.679034 0.303850
v -0.180464 1.679034 0.526264
v -0.180464 1.555136 0.526264
v -0.180464 1.679034 0.303850
v -0.180464 1.555136 0.303850
v 0.673151 1.991471 -0.354622
v 0.673151 1.716553 -0.830793
v 0.673151 1.498958 -0.070270
v 0.673151 1.224041 -0.546440
v 0.280458 1.716553 -0.830793
v 0.280459 1.991471 -0.354622
v 0.280459 1.224041 -0.546440
v 0.280459 1.498958 -0.070269
v 0.672500 1.993804 -0.348971
v 0.672500 1.905807 -0.433948
v 0.672500 1.599653 0.059185
v 0.672500 1.511656 -0.025792
v 0.284363 1.905807 -0.433948
v 0.284363 1.993804 -0.348971
v 0.284363 1.511656 -0.025792
v 0.284363 1.599653 0.059185
v 0.541964 2.156979 -0.442664
v 0.541964 1.878808 -0.924470
v 0.541964 1.993559 -0.348314
v 0.541964 1.715388 -0.830120
v 0.282338 1.878808 -0.924470
v 0.282338 2.156979 -0.442664
v 0.282338 1.715388 -0.830120
v 0.282338 1.993559 -0.348314
v 0.541876 2.156371 -0.442725
v 0.541876 1.878556 -0.923914
v 0.672655 1.994622 -0.349339
v 0.672655 1.716807 -0.830528
v 0.439822 1.816671 -0.888185
v 0.439822 2.094486 -0.406995
v 0.570601 1.654922 -0.794799
v 0.570601 1.932737 -0.313609
v 0.261023 1.618303 0.491213
v 0.261023 1.500849 0.501489
v 0.261023 1.643086 0.774484
v 0.261023 1.525632 0.784759
v 0.087939 1.500849 0.501489
v 0.087939 1.618303 0.491213
v 0.087939 1.525632 0.784760
v 0.087939 1.643086 0.774484
v 0.326023 1.632965 -0.060702
v 0.326022 1.445493 -0.736705
v 0.326023 1.573398 -0.044182
v 0.326022 1.385925 -0.720185
v -0.318813 1.445493 -0.736705
v -0.318813 1.632965 -0.060702
v -0.318813 1.385925 -0.720185
v -0.318813 1.573398 -0.044182
v -0.147483 1.991471 -0.354622
v -0.147483 1.716553 -0.830793
v -0.147483 1.498958 -0.070269
v -0.147483 1.224041 -0.546440
v -0.540176 1.716553 -0.830793
v -0.540176 1.991471 -0.354622
v -0.540176 1.224041 -0.546440
v -0.540176 1.498958 -0.070269
v -0.149362 2.156979 -0.442664
v -0.149362 1.878808 -0.924470
v -0.149362 1.993559 -0.348314
v -0.149362 1.715388 -0.830120
v -0.526890 1.878808 -0.924470
v -0.526890 2.156979 -0.442664
v -0.526890 1.715388 -0.830120
v -0.526890 1.993559 -0.348314
v 0.423781 1.544464 0.269402
v 0.423781 1.729912 0.269402
v 0.533423 1.544464 0.079497
v 0.533423 1.729912 0.079497
v 0.367430 1.729912 0.236867
v 0.367430 1.544464 0.236867
v 0.477071 1.729912 0.046962
v 0.477071 1.544464 0.046962
v 0.288941 1.272555 -0.670275
v 0.708527 1.272555 -0.257949
v 0.253755 1.272555 -0.634470
v 0.673341 1.272555 -0.222143
v 0.708527 0.996069 -0.257949
v 0.288941 0.996069 -0.670275
v 0.673341 0.996069 -0.222143
v 0.253755 0.996069 -0.634470
v 0.708527 1.272555 -0.257949
v 0.713661 1.272555 0.330303
v 0.658329 1.272555 -0.257511
v 0.663462 1.272555 0.330741
v 0.713661 0.996069 0.330303
v 0.708527 0.996069 -0.257949
v 0.663462 0.996069 0.330741
v 0.658329 0.996069 -0.257511
v 0.713661 1.272555 0.330303
v 0.301334 1.272555 0.749889
v 0.677855 1.272555 0.295117
v 0.265529 1.272555 0.714704
v 0.301334 0.996069 0.749889
v 0.713661 0.996069 0.330303
v 0.265529 0.996069 0.714704
v 0.677855 0.996069 0.295117
v 0.301334 1.272555 0.749889
v -0.286918 1.272555 0.755023
v 0.300896 1.272555 0.699691
v -0.287356 1.272555 0.704825
v -0.286918 0.996069 0.755023
v 0.301334 0.996069 0.749889
v -0.287356 0.996069 0.704825
v 0.300896 0.996069 0.699691
v -0.661440 1.244259 -0.245993
v -0.656306 1.244259 0.342258
v -0.711638 1.244259 -0.245555
v -0.706504 1.244259 0.342697
v -0.656306 0.996069 0.342259
v -0.661440 0.996069 -0.245993
v -0.706504 0.996069 0.342697
v -0.711638 0.996069 -0.245555
v -0.671318 1.244259 0.306891
v -0.251732 1.244259 0.719218
v -0.706504 1.244259 0.342697
v -0.286917 1.244259 0.755023
v -0.251732 0.996069 0.719218
v -0.671318 0.996069 0.306891
v -0.286917 0.996069 0.755023
v -0.706504 0.996069 0.342697
v -0.263506 1.244259 -0.629956
v -0.675833 1.244259 -0.210369
v -0.299311 1.244259 -0.665142
v -0.711638 1.244259 -0.245555
v -0.675833 0.996069 -0.210369
v -0.263506 0.996069 -0.629956
v -0.711638 0.996069 -0.245555
v -0.299311 0.996069 -0.665142
v 0.289378 1.272555 -0.620077
v -0.298873 1.272555 -0.614944
v 0.288940 1.272555 -0.670276
v -0.299311 1.272555 -0.665142
v -0.298873 0.996069 -0.614944
v 0.289378 0.996069 -0.620077
v -0.299311 0.996069 -0.665142
v 0.288940 0.996069 -0.670275
v -0.263835 2.004858 -0.013930
v -0.203809 2.047303 -0.056375
v -0.263835 1.794767 -0.224021
v -0.203809 1.837212 -0.266465
v -0.263835 2.089747 -0.098819
v -0.323861 2.047303 -0.056375
v -0.263835 1.879657 -0.308910
v -0.323861 1.837212 -0.266465
v -0.256828 1.895950 0.102592
v -0.196802 1.938395 0.060147
v -0.256828 1.685860 -0.107499
v -0.196802 1.728304 -0.149943
v -0.256828 1.980840 0.017703
v -0.316854 1.938395 0.060147
v -0.256828 1.770749 -0.192388
v -0.316854 1.728304 -0.149943
v -0.388979 1.940046 0.051534
v -0.328954 1.982490 0.009089
v -0.388979 1.729955 -0.158557
v -0.328954 1.772399 -0.201001
v -0.388979 2.024935 -0.033355
v -0.449005 1.982490 0.009089
v -0.388979 1.814844 -0.243446
v -0.449005 1.772399 -0.201001
v 0.581981 1.982490 0.009089
v 0.521955 2.024935 -0.033355
v 0.581981 1.772399 -0.201001
v 0.521955 1.814844 -0.243446
v 0.461929 1.982490 0.009089
v 0.521955 1.940046 0.051534
v 0.461929 1.772399 -0.201001
v 0.521955 1.729955 -0.158557
v 0.299179 0.163846 -0.456652
v 0.462637 0.163846 -0.293194
v 0.382298 0.163846 -0.539771
v 0.545756 0.163846 -0.376313
v 0.462637 1.305798 -0.293194
v 0.299179 1.305798 -0.456652
v 0.545756 1.305798 -0.376313
v 0.382298 1.305798 -0.539771
v 0.449830 1.938395 0.060147
v 0.389804 1.980840 0.017702
v 0.449830 1.728304 -0.149944
v 0.389804 1.770749 -0.192388
v 0.329778 1.938395 0.060147
v 0.389804 1.895950 0.102592
v 0.329778 1.728304 -0.149943
v 0.389804 1.685860 -0.107499
v 0.456837 2.047303 -0.056375
v 0.396811 2.089747 -0.098820
v 0.456837 1.837212 -0.266466
v 0.396811 1.879657 -0.308910
v 0.336785 2.047303 -0.056375
v 0.396811 2.004858 -0.013930
v 0.336785 1.837212 -0.266466
v 0.396811 1.794767 -0.224021
v 0.668294 1.654958 -0.315149
v 0.868514 1.228028 -0.416585
v 0.644113 1.638146 -0.292122
v 0.844334 1.211216 -0.393558
v 0.612282 1.180102 -0.720639
v 0.412062 1.607032 -0.619203
v 0.588101 1.163291 -0.697612
v 0.387881 1.590221 -0.596176
v 0.678385 1.629384 -0.194082
v 0.902967 1.151026 -0.311237
v 0.645878 1.614123 -0.194082
v 0.870461 1.135765 -0.311237
v 0.891689 1.175049 -0.430949
v 0.667106 1.653408 -0.313793
v 0.859182 1.159788 -0.430949
v 0.634600 1.638146 -0.313793
v 0.868642 1.231636 -0.415188
v 0.891420 1.174832 -0.432739
v 0.845415 1.215487 -0.393069
v 0.868193 1.158683 -0.410620
v 0.622666 1.158047 -0.727208
v 0.599888 1.214851 -0.709657
v 0.599438 1.141899 -0.705089
v 0.576660 1.198702 -0.687538
v 0.572058 1.539351 -0.571978
v 0.621588 1.155530 -0.725167
v 0.546812 1.515655 -0.520769
v 0.596342 1.131834 -0.673958
v 0.334846 1.171921 -0.858946
v 0.285317 1.555742 -0.705757
v 0.309600 1.148225 -0.807737
v 0.260071 1.532046 -0.654548
v 0.670829 1.596934 0.209450
v 0.667677 1.645453 0.214936
v 0.597891 1.599051 0.148833
v 0.594739 1.647569 0.154320
v 0.356654 1.583171 0.587006
v 0.359806 1.534653 0.581519
v 0.283717 1.585288 0.526390
v 0.286869 1.536770 0.520903
v -0.356911 1.547602 0.580937
v -0.354695 1.588900 0.585045
v -0.283973 1.549719 0.520321
v -0.281758 1.591017 0.524428
v -0.666220 1.642710 0.212075
v -0.668436 1.601413 0.207967
v -0.593283 1.644827 0.151459
v -0.595498 1.603529 0.147351
v 0.895069 1.162059 0.324104
v 0.667107 1.654221 0.215928
v 0.871646 1.146327 0.301890
v 0.643684 1.638490 0.193715
v 0.356085 1.591940 0.587998
v 0.584047 1.099778 0.696173
v 0.332662 1.576208 0.565784
v 0.560624 1.084046 0.673960
v 0.489252 1.442653 -0.657726
v 0.614198 1.172616 -0.721083
v 0.465210 1.420087 -0.608959
v 0.590156 1.150050 -0.672316
v 0.566143 1.157573 -0.751736
v 0.441197 1.427609 -0.688379
v 0.542101 1.135006 -0.702969
v 0.417154 1.405043 -0.639612
v 0.505480 1.153777 0.742681
v 0.502857 1.522432 0.484364
v 0.480519 1.137013 0.719009
v 0.477896 1.505667 0.460692
v 0.356468 1.594025 0.588023
v 0.359092 1.225370 0.846341
v 0.331507 1.577260 0.564351
v 0.334130 1.208605 0.822669
v 0.361618 1.225381 0.842913
v 0.361618 1.679306 0.525071
v 0.361618 1.191568 0.794623
v 0.361618 1.645493 0.476782
v -0.179874 1.679306 0.525071
v -0.179874 1.225381 0.842913
v -0.179874 1.645493 0.476782
v -0.179874 1.191568 0.794623
v 0.505250 1.139856 0.716922
v 0.502302 1.230904 0.717558
v 0.480570 1.139251 0.689243
v 0.477622 1.230298 0.689879
v 0.359150 1.225376 0.845321
v 0.362098 1.134329 0.844685
v 0.334470 1.224771 0.817642
v 0.337418 1.133723 0.817006
v 0.361618 1.134327 0.845695
v 0.361618 1.225381 0.842913
v 0.361618 1.133194 0.808623
v 0.361618 1.224248 0.805841
v -0.357397 1.225381 0.842913
v -0.357397 1.134327 0.845695
v -0.357397 1.224248 0.805841
v -0.357397 1.133194 0.808623
v 0.902387 1.153649 -0.314241
v 0.667341 1.654295 -0.314241
v 0.869881 1.138388 -0.314241
v 0.634834 1.639034 -0.314241
v 0.667341 1.654295 0.274090
v 0.902387 1.153649 0.274090
v 0.634835 1.639034 0.274090
v 0.869881 1.138388 0.274090
v 0.884505 1.159849 0.337761
v 0.826919 1.318819 0.285900
v 0.860313 1.143601 0.314819
v 0.802727 1.302571 0.262957
v 0.447060 1.313190 0.690434
v 0.504646 1.154221 0.742295
v 0.422868 1.296942 0.667491
v 0.480454 1.137972 0.719352
v 0.902218 1.151928 0.272382
v 0.672254 1.641748 0.152420
v 0.869979 1.136792 0.272382
v 0.640015 1.626612 0.152420
v 0.666290 1.654453 0.215729
v 0.896254 1.164633 0.335691
v 0.634050 1.639317 0.215729
v 0.864014 1.149497 0.335691
v 0.671198 1.618939 -0.033351
v 0.671198 1.677164 -0.042573
v 0.671198 1.541474 -0.522443
v 0.671198 1.599699 -0.531665
v -0.664043 1.677164 -0.042573
v -0.664043 1.618939 -0.033351
v -0.664043 1.599699 -0.531665
v -0.664043 1.541474 -0.522443
v 0.671198 1.532617 0.569702
v 0.671198 1.584101 0.577396
v 0.671198 1.625721 -0.053271
v 0.671198 1.677205 -0.045577
v -0.664043 1.584101 0.577396
v -0.664043 1.532617 0.569702
v -0.664043 1.677205 -0.045576
v -0.664043 1.625721 -0.053271
v -0.177650 1.225381 0.842913
v -0.177650 1.598492 0.581658
v -0.177650 1.204108 0.812531
v -0.177650 1.577219 0.551276
v -0.358120 1.598492 0.581658
v -0.358120 1.225381 0.842913
v -0.358120 1.577219 0.551276
v -0.358120 1.204108 0.812531
v -0.358756 1.225370 0.846341
v -0.356132 1.594025 0.588023
v -0.333794 1.208605 0.822669
v -0.331171 1.577260 0.564351
v -0.502521 1.522432 0.484364
v -0.505145 1.153777 0.742682
v -0.477560 1.505667 0.460692
v -0.480183 1.137013 0.719010
v -0.361762 1.134329 0.844685
v -0.358814 1.225376 0.845321
v -0.337082 1.133723 0.817006
v -0.334134 1.224771 0.817642
v -0.501966 1.230904 0.717558
v -0.504914 1.139856 0.716922
v -0.477286 1.230298 0.689879
v -0.480234 1.139251 0.689243
v -0.504310 1.154221 0.742295
v -0.446724 1.313190 0.690434
v -0.480118 1.137972 0.719352
v -0.422532 1.296942 0.667491
v -0.826583 1.318819 0.285900
v -0.884169 1.159849 0.337761
v -0.802391 1.302571 0.262957
v -0.859977 1.143601 0.314819
v -0.583711 1.099778 0.696174
v -0.355749 1.591940 0.587998
v -0.560288 1.084046 0.673960
v -0.332326 1.576208 0.565784
v -0.666772 1.654221 0.215928
v -0.894734 1.162059 0.324104
v -0.643348 1.638490 0.193715
v -0.871310 1.146327 0.301891
v -0.902051 1.153649 0.274091
v -0.667005 1.654295 0.274090
v -0.869545 1.138388 0.274091
v -0.634499 1.639034 0.274090
v -0.667005 1.654295 -0.314241
v -0.902051 1.153649 -0.314241
v -0.634499 1.639034 -0.314241
v -0.869545 1.138388 -0.314241
v -0.895918 1.164633 0.335692
v -0.665954 1.654453 0.215729
v -0.863678 1.149497 0.335692
v -0.633715 1.639317 0.215729
v -0.671919 1.641748 0.152420
v -0.901883 1.151928 0.272383
v -0.639679 1.626612 0.152420
v -0.869643 1.136792 0.272383
v -0.411726 1.607032 -0.619203
v -0.611946 1.180102 -0.720639
v -0.387546 1.590221 -0.596176
v -0.587766 1.163291 -0.697612
v -0.868179 1.228028 -0.416585
v -0.667958 1.654958 -0.315149
v -0.843998 1.211216 -0.393557
v -0.643778 1.638146 -0.292121
v -0.666770 1.653408 -0.313793
v -0.891353 1.175049 -0.430948
v -0.634264 1.638146 -0.313793
v -0.858847 1.159788 -0.430948
v -0.902632 1.151026 -0.311237
v -0.678049 1.629384 -0.194081
v -0.870126 1.135765 -0.311237
v -0.645543 1.614123 -0.194081
v -0.599552 1.214851 -0.709657
v -0.622330 1.158047 -0.727208
v -0.576325 1.198702 -0.687538
v -0.599103 1.141899 -0.705088
v -0.891084 1.174832 -0.432739
v -0.868306 1.231636 -0.415188
v -0.867857 1.158683 -0.410620
v -0.845079 1.215487 -0.393069
v -0.440861 1.427609 -0.688379
v -0.565807 1.157573 -0.751736
v -0.416819 1.405043 -0.639612
v -0.541765 1.135006 -0.702969
v -0.613863 1.172616 -0.721083
v -0.488917 1.442653 -0.657726
v -0.589821 1.150050 -0.672316
v -0.464875 1.420087 -0.608959
v -0.284981 1.555742 -0.705757
v -0.334511 1.171921 -0.858946
v -0.259735 1.532046 -0.654548
v -0.309265 1.148225 -0.807737
v -0.621253 1.155530 -0.725167
v -0.571723 1.539351 -0.571978
v -0.596007 1.131834 -0.673958
v -0.546477 1.515655 -0.520769
v -0.564763 0.483956 -0.249200
v -0.564763 0.483956 0.189395
v -0.564763 0.335399 -0.249200
v -0.564763 0.335400 0.189395
v -0.076648 0.483956 0.189395
v -0.076648 0.483956 -0.249200
v -0.076648 0.335400 0.189395
v -0.076648 0.335399 -0.249200
v -0.491664 0.445171 0.130996
v -0.491664 0.786825 0.222542
v -0.491664 0.429913 0.187939
v -0.491664 0.771567 0.279484
v -0.149748 0.786825 0.222542
v -0.149748 0.445171 0.130996
v -0.149748 0.771567 0.279484
v -0.149748 0.429913 0.187938
v -0.550615 0.624542 0.144881
v -0.550615 0.852311 0.205912
v -0.550615 0.609284 0.201824
v -0.550615 0.837054 0.262854
v -0.090797 0.852311 0.205912
v -0.090797 0.624542 0.144881
v -0.090797 0.837054 0.262854
v -0.090797 0.609284 0.201824
v 0.598756 0.138927 -0.122429
v 0.066450 0.138927 -0.828823
v 0.363166 0.138927 0.055101
v -0.169141 0.138927 -0.651293
v 0.066450 0.905526 -0.828823
v 0.598756 0.905526 -0.122429
v -0.169141 0.905526 -0.651293
v 0.363166 0.905526 0.055101
v 0.241822 0.077846 -0.759082
v -0.169629 0.077846 -0.762673
v 0.229819 0.077846 0.616370
v -0.181633 0.077846 0.612780
v -0.169629 0.156235 -0.762673
v 0.241822 0.156235 -0.759082
v -0.181633 0.156235 0.612780
v 0.229819 0.156235 0.616370
v -0.656320 0.077502 -0.291354
v -0.656320 0.077502 0.145081
v 0.719873 0.077502 -0.291354
v 0.719873 0.077502 0.145081
v -0.656320 0.156579 0.145081
v -0.656320 0.156579 -0.291354
v 0.719873 0.156579 0.145081
v 0.719873 0.156579 -0.291354
v -0.169930 0.078189 -0.764332
v -0.653902 0.078190 -0.292867
v 0.717455 0.078190 0.146594
v 0.233483 0.078190 0.618058
v -0.653902 0.155891 -0.292867
v -0.169930 0.155891 -0.764332
v 0.233483 0.155891 0.618058
v 0.717455 0.155891 0.146594
v -0.655990 0.078705 0.137600
v -0.178960 0.078705 0.614630
v 0.242513 0.078705 -0.760903
v 0.719543 0.078705 -0.283873
v -0.178960 0.155376 0.614630
v -0.655990 0.155376 0.137600
v 0.719543 0.155376 -0.283873
v 0.242513 0.155375 -0.760903
v 0.542308 0.155891 -0.033199
v 0.058337 0.155891 0.438266
v 0.717455 0.155891 0.146594
v 0.233483 0.155891 0.618058
v 0.058337 0.554532 0.438266
v 0.542308 0.554532 -0.033199
v 0.233483 0.554532 0.618058
v 0.717455 0.554532 0.146594
v 0.233857 0.154131 0.367210
v -0.176180 0.154131 0.363632
v 0.231672 0.154131 0.617624
v -0.178365 0.154131 0.614045
v -0.176180 0.553427 0.363632
v 0.233857 0.553427 0.367210
v -0.178365 0.553427 0.614045
v 0.231672 0.553427 0.617624
v -0.325847 0.156631 0.467743
v -0.178960 0.156631 0.614630
v -0.149250 0.156631 0.291145
v -0.002363 0.156631 0.438032
v -0.178960 0.554017 0.614630
v -0.325847 0.554017 0.467742
v -0.002363 0.554017 0.438032
v -0.149250 0.554017 0.291145
v -0.492504 0.156631 0.293691
v -0.409003 0.156631 0.377192
v 0.402301 0.156631 -0.601115
v 0.485802 0.156631 -0.517614
v -0.409003 1.347632 0.377192
v -0.492504 1.347632 0.293691
v 0.485802 1.347631 -0.517614
v 0.402301 1.347631 -0.601115
v -0.375724 0.156631 -0.564139
v -0.459225 0.156631 -0.480638
v 0.515383 0.156631 0.326969
v 0.431882 0.156631 0.410470
v -0.459225 1.347631 -0.480638
v -0.375724 1.347631 -0.564139
v 0.431882 1.347632 0.410470
v 0.515383 1.347632 0.326969
v -0.261939 0.458065 -0.309173
v -0.415347 0.458065 -0.310512
v -0.263369 0.458065 -0.145343
v -0.416777 0.458065 -0.146681
v -0.415347 0.572383 -0.310512
v -0.261939 0.572383 -0.309173
v -0.416777 0.572383 -0.146681
v -0.263369 0.572383 -0.145343
v -0.311642 0.571251 -0.281248
v -0.373090 0.571251 -0.281784
v -0.312146 0.571251 -0.223525
v -0.373593 0.571251 -0.224061
v -0.373090 0.600679 -0.281784
v -0.311642 0.600679 -0.281248
v -0.373593 0.600679 -0.224061
v -0.312146 0.600679 -0.223525
v -0.343848 0.599547 -0.253170
v -0.359127 0.599547 -0.253303
v -0.343981 0.599547 -0.237890
v -0.359261 0.599547 -0.238024
v -0.359127 0.685568 -0.253303
v -0.343848 0.685568 -0.253170
v -0.359261 0.685568 -0.238024
v -0.343981 0.685568 -0.237890
v -0.264162 0.132655 -0.054514
v -0.410496 0.132655 -0.055791
v -0.265715 0.132655 0.123464
v -0.412049 0.132655 0.122187
v -0.410496 0.447407 -0.055791
v -0.264162 0.447407 -0.054514
v -0.412049 0.447407 0.122187
v -0.265715 0.447407 0.123464
v 0.469581 0.153939 -0.295232
v 0.465745 0.153939 0.144279
v 0.721173 0.153939 -0.293037
v 0.717338 0.153939 0.146475
v 0.465745 0.554414 0.144279
v 0.469581 0.554414 -0.295232
v 0.717338 0.554414 0.146475
v 0.721173 0.554414 -0.293037
vn -0.0000 -0.7193 -0.6947
vn 1.0000 -0.0000 -0.0000
vn -0.0000 0.7193 0.6947
vn -1.0000 -0.0000 -0.0000
vn -0.0000 0.6947 -0.7193
vn -0.0000 -0.6947 0.7193
vn -0.0000 1.0000 -0.0000
vn 0.8660 -0.0000 -0.5000
vn -0.0000 -1.0000 -0.0000
vn -0.8660 -0.0000 0.5000
vn 0.5000 -0.0000 0.8660
vn -0.5000 -0.0000 -0.8660
vn -0.0000 -0.9272 -0.3746
vn -0.0000 0.9272 0.3746
vn -0.0000 0.3746 -0.9272
vn -0.0000 -0.3746 0.9272
vn -0.0000 -0.0000 1.0000
vn -0.0000 -0.0000 -1.0000
vn -0.0000 -0.5000 -0.8660
vn -0.0000 0.5000 0.8660
vn -0.0000 0.8660 -0.5000
vn -0.0000 -0.8660 0.5000
vn 0.8192 0.4967 -0.2868
vn -0.8192 -0.4967 0.2868
vn -0.5736 0.7094 -0.4096
vn 0.5736 -0.7094 0.4096
vn -0.0000 -0.9962 0.0872
vn -0.0000 0.9962 -0.0872
vn -0.0000 -0.0872 -0.9962
vn -0.0000 0.0872 0.9962
vn -0.0000 -0.2672 -0.9636
vn -0.0000 0.2672 0.9636
vn -0.0000 0.9636 -0.2672
vn -0.0000 -0.9636 0.2672
vn 0.8660 -0.0000 0.5000
vn -0.8660 -0.0000 -0.5000
vn -0.5000 -0.0000 0.8660
vn 0.5000 -0.0000 -0.8660
vn 0.7133 -0.0000 0.7009
vn -0.7132 -0.0000 -0.7009
vn 0.7009 -0.0000 -0.7133
vn -0.7009 -0.0000 0.7133
vn 0.0087 -0.0000 1.0000
vn -0.0087 -0.0000 -1.0000
vn 1.0000 -0.0000 -0.0087
vn -1.0000 -0.0000 0.0087
vn -0.7133 -0.0000 -0.7009
vn 0.7071 0.5000 -0.5000
vn 0.7071 -0.5000 0.5000
vn -0.7071 -0.5000 0.5000
vn -0.7071 0.5000 -0.5000
vn -0.0000 0.7071 0.7071
vn -0.0000 -0.7071 -0.7071
vn 0.7071 -0.0000 0.7071
vn -0.7071 -0.0000 -0.7071
vn -0.7071 -0.0000 0.7071
vn 0.7071 -0.0000 -0.7071
vn 0.4151 -0.8851 -0.2103
vn 0.6398 0.1197 0.7592
vn -0.4151 0.8851 0.2103
vn -0.6398 -0.1197 -0.7592
vn 0.6468 0.4497 -0.6160
vn -0.6468 -0.4497 0.6160
vn 0.4149 -0.8837 -0.2164
vn 0.0920 -0.1959 0.9763
vn -0.4149 0.8837 0.2164
vn -0.0920 0.1959 -0.9763
vn 0.9052 0.4250 -0.0000
vn -0.9052 -0.4250 -0.0000
vn 0.3578 -0.8922 -0.2757
vn 0.6735 0.0421 0.7380
vn -0.3578 0.8922 0.2757
vn -0.6735 -0.0421 -0.7380
vn 0.1190 -0.9222 -0.3680
vn 0.9050 -0.0517 0.4222
vn -0.1190 0.9222 0.3680
vn -0.9050 0.0517 -0.4222
vn 0.4084 0.3833 -0.8284
vn -0.4084 -0.3833 0.8284
vn -0.0644 0.9916 0.1121
vn 0.6361 0.1274 -0.7610
vn 0.0644 -0.9916 -0.1121
vn -0.6361 -0.1274 0.7610
vn 0.7689 -0.0223 0.6390
vn -0.7689 0.0223 -0.6390
vn 0.0533 0.9937 0.0988
vn 0.6372 -0.1101 0.7628
vn -0.0533 -0.9937 -0.0988
vn -0.6372 0.1101 -0.7628
vn -0.7689 -0.0223 0.6390
vn 0.7689 0.0223 -0.6390
vn -0.4122 0.8899 -0.1956
vn 0.4122 -0.8899 0.1956
vn 0.6523 0.4381 0.6186
vn -0.6523 -0.4381 -0.6186
vn 0.4107 -0.8877 -0.2083
vn 0.8152 0.2552 0.5200
vn -0.4107 0.8877 0.2083
vn -0.8152 -0.2552 -0.5200
vn -0.0058 0.8189 -0.5738
vn 0.7580 -0.3707 -0.5367
vn 0.0058 -0.8189 0.5738
vn -0.7580 0.3707 0.5367
vn -0.0000 0.8192 -0.5736
vn -0.0000 -0.8192 0.5736
vn -0.0000 0.5736 0.8192
vn -0.0000 -0.5736 -0.8192
vn -0.0324 0.9995 0.0070
vn 0.7458 0.0288 -0.6656
vn 0.0324 -0.9995 -0.0070
vn -0.7458 -0.0288 0.6656
vn 0.6654 0.0163 0.7463
vn -0.6654 -0.0163 -0.7463
vn -0.0000 0.9995 -0.0305
vn -0.0000 -0.9995 0.0305
vn -0.0000 0.0305 0.9995
vn -0.0000 -0.0305 -0.9995
vn -0.4250 0.9052 -0.0000
vn 0.4250 -0.9052 -0.0000
vn -0.3256 0.8989 -0.2932
vn 0.6845 0.0101 -0.7290
vn 0.3256 -0.8989 0.2932
vn -0.6845 -0.0101 0.7290
vn -0.4149 0.8837 -0.2164
vn 0.0920 -0.1959 -0.9763
vn 0.4149 -0.8837 0.2164
vn -0.0920 0.1959 0.9763
vn -0.0000 0.9877 -0.1564
vn -0.0000 -0.9877 0.1564
vn -0.0000 0.1564 0.9877
vn -0.0000 -0.1564 -0.9877
vn -0.0000 0.9890 0.1478
vn -0.0000 -0.9890 -0.1478
vn -0.0000 -0.1478 0.9890
vn -0.0000 0.1478 -0.9890
vn 0.0058 0.8189 -0.5738
vn 0.7580 0.3707 0.5367
vn -0.0058 -0.8189 0.5738
vn -0.7580 -0.3707 -0.5367
vn -0.6523 0.4381 0.6186
vn 0.6523 -0.4381 -0.6186
vn 0.0324 0.9995 0.0070
vn 0.7458 -0.0288 0.6656
vn -0.0324 -0.9995 -0.0070
vn -0.7458 0.0288 -0.6656
vn -0.6654 0.0163 0.7463
vn 0.6654 -0.0163 -0.7463
vn 0.3256 0.8989 -0.2932
vn 0.6845 -0.0101 0.7290
vn -0.3256 -0.8989 0.2932
vn -0.6845 0.0101 -0.7290
vn 0.4122 0.8899 -0.1956
vn 0.6361 -0.1274 0.7610
vn -0.4122 -0.8899 0.1956
vn -0.6361 0.1274 -0.7610
vn 0.4250 0.9052 -0.0000
vn -0.4250 -0.9052 -0.0000
vn -0.9052 0.4250 -0.0000
vn 0.9052 -0.4250 -0.0000
vn 0.4149 0.8837 -0.2164
vn 0.0920 0.1959 0.9763
vn -0.4149 -0.8837 0.2164
vn -0.0920 -0.1959 -0.9763
vn -0.4151 -0.8851 -0.2103
vn 0.6398 -0.1197 -0.7592
vn 0.4151 0.8851 0.2103
vn -0.6398 0.1197 0.7592
vn -0.6468 0.4497 -0.6160
vn 0.6468 -0.4497 0.6160
vn -0.4149 -0.8837 -0.2164
vn 0.0920 0.1959 -0.9763
vn 0.4149 0.8837 0.2164
vn -0.0920 -0.1959 0.9763
vn -0.3578 -0.8922 -0.2757
vn 0.6735 -0.0421 -0.7380
vn 0.3578 0.8922 0.2757
vn -0.6735 0.0421 0.7380
vn -0.4107 -0.8877 -0.2083
vn 0.8152 -0.2552 -0.5200
vn 0.4107 0.8877 0.2083
vn -0.8152 0.2552 0.5200
vn -0.4084 0.3833 -0.8284
vn 0.4084 -0.3833 0.8284
vn -0.1190 -0.9222 -0.3680
vn 0.9050 0.0517 -0.4222
vn 0.1190 0.9222 0.3680
vn -0.9050 -0.0517 0.4222
vn -0.0000 0.9659 0.2588
vn -0.0000 -0.9659 -0.2588
vn -0.0000 0.2588 -0.9659
vn -0.0000 -0.2588 0.9659
vn -0.6018 -0.0000 -0.7986
vn 0.6018 -0.0000 0.7986
vn 0.7986 -0.0000 -0.6018
vn -0.7986 -0.0000 0.6018
vn -1.0000 -0.0000 -0.0087
vn 1.0000 -0.0000 0.0087
vn 0.0087 -0.0000 -1.0000
vn -0.0087 -0.0000 1.0000
vn -0.7163 -0.0000 0.6978
vn 0.7163 -0.0000 -0.6978
vn -0.6978 -0.0000 -0.7163
vn 0.6978 -0.0000 0.7163
vt 0.337891 0.532227
vt 0.149414 0.583984
vt 0.480469 0.856445
vt 0.416016 0.915039
vt 0.339844 0.532227
vt 0.480469 0.854492
vt 0.337891 0.522461
vt 0.149414 0.574219
vt 0.480469 0.854492
vt 0.416016 0.905273
vt 0.339844 0.522461
vt 0.480469 0.852539
vt 0.422852 0.915039
vt 0.365234 0.532227
vt 0.487305 0.854492
vt 0.142578 0.583984
vt 0.367188 0.532227
vt 0.487305 0.856445
vt 0.422852 0.905273
vt 0.365234 0.522461
vt 0.487305 0.852539
vt 0.142578 0.574219
vt 0.367188 0.522461
vt 0.487305 0.854492
vt 0.317383 0.514648
vt 0.171875 0.499023
vt 0.087891 0.497070
vt 0.169922 0.499023
vt 0.320312 0.514648
vt 0.087891 0.494141
vt 0.317383 0.510742
vt 0.171875 0.495117
vt 0.088867 0.497070
vt 0.169922 0.495117
vt 0.320312 0.510742
vt 0.088867 0.494141
vt 0.170898 0.499023
vt 0.485352 0.682617
vt 0.088867 0.494141
vt 0.170898 0.499023
vt 0.488281 0.682617
vt 0.088867 0.497070
vt 0.170898 0.495117
vt 0.485352 0.678711
vt 0.089844 0.494141
vt 0.170898 0.495117
vt 0.488281 0.678711
vt 0.089844 0.497070
vt 0.498047 0.822266
vt 0.496094 0.607422
vt 0.428711 0.908203
vt 0.485352 0.608398
vt 0.502930 0.822266
vt 0.428711 0.903320
vt 0.498047 0.821289
vt 0.496094 0.606445
vt 0.428711 0.801758
vt 0.485352 0.607422
vt 0.502930 0.821289
vt 0.428711 0.796875
vt 0.496094 0.608398
vt 0.498047 0.811523
vt 0.439453 0.903320
vt 0.485352 0.607422
vt 0.502930 0.811523
vt 0.439453 0.908203
vt 0.496094 0.607422
vt 0.498047 0.810547
vt 0.439453 0.796875
vt 0.485352 0.606445
vt 0.502930 0.810547
vt 0.439453 0.801758
vt 0.346680 0.509766
vt 0.454102 0.879883
vt 0.469727 0.547852
vt 0.445312 0.900391
vt 0.348633 0.509766
vt 0.469727 0.545898
vt 0.346680 0.505859
vt 0.454102 0.875977
vt 0.470703 0.778320
vt 0.445312 0.896484
vt 0.348633 0.505859
vt 0.470703 0.776367
vt 0.454102 0.900391
vt 0.350586 0.509766
vt 0.478516 0.545898
vt 0.445312 0.879883
vt 0.352539 0.509766
vt 0.478516 0.547852
vt 0.454102 0.896484
vt 0.350586 0.505859
vt 0.479492 0.776367
vt 0.445312 0.875977
vt 0.352539 0.505859
vt 0.479492 0.778320
vt 0.402344 0.958984
vt 0.367188 0.585938
vt 0.360352 0.576172
vt 0.088867 0.616211
vt 0.411133 0.958984
vt 0.360352 0.567383
vt 0.402344 0.949219
vt 0.367188 0.576172
vt 0.005859 0.575195
vt 0.088867 0.606445
vt 0.411133 0.949219
vt 0.005859 0.566406
vt 0.095703 0.616211
vt 0.402344 0.672852
vt 0.367188 0.567383
vt 0.360352 0.585938
vt 0.411133 0.672852
vt 0.367188 0.576172
vt 0.095703 0.606445
vt 0.402344 0.663086
vt 0.012695 0.566406
vt 0.360352 0.576172
vt 0.411133 0.663086
vt 0.012695 0.575195
vt 0.311523 0.532227
vt 0.059570 0.583984
vt 0.480469 0.916016
vt 0.005859 0.584961
vt 0.313477 0.532227
vt 0.480469 0.914062
vt 0.311523 0.522461
vt 0.059570 0.574219
vt 0.480469 0.914062
vt 0.005859 0.575195
vt 0.313477 0.522461
vt 0.480469 0.912109
vt 0.012695 0.584961
vt 0.315430 0.532227
vt 0.487305 0.914062
vt 0.052734 0.583984
vt 0.317383 0.532227
vt 0.487305 0.916016
vt 0.012695 0.575195
vt 0.315430 0.522461
vt 0.487305 0.912109
vt 0.052734 0.574219
vt 0.317383 0.522461
vt 0.487305 0.914062
vt 0.458984 0.808594
vt 0.489258 0.719727
vt 0.027344 0.554688
vt 0.485352 0.722656
vt 0.467773 0.808594
vt 0.027344 0.545898
vt 0.458984 0.805664
vt 0.489258 0.716797
vt 0.120117 0.554688
vt 0.485352 0.719727
vt 0.467773 0.805664
vt 0.120117 0.545898
vt 0.489258 0.722656
vt 0.458984 0.805664
vt 0.031250 0.545898
vt 0.485352 0.719727
vt 0.467773 0.805664
vt 0.031250 0.554688
vt 0.489258 0.719727
vt 0.458984 0.802734
vt 0.124023 0.545898
vt 0.485352 0.716797
vt 0.467773 0.802734
vt 0.124023 0.554688
vt 0.168945 0.554688
vt 0.455078 0.509766
vt 0.079102 0.531250
vt 0.416992 0.509766
vt 0.177734 0.554688
vt 0.079102 0.522461
vt 0.168945 0.550781
vt 0.455078 0.505859
vt 0.219727 0.530273
vt 0.416992 0.505859
vt 0.177734 0.550781
vt 0.219727 0.521484
vt 0.418945 0.509766
vt 0.445312 0.758789
vt 0.081055 0.522461
vt 0.453125 0.509766
vt 0.454102 0.758789
vt 0.081055 0.531250
vt 0.418945 0.505859
vt 0.445312 0.754883
vt 0.221680 0.521484
vt 0.453125 0.505859
vt 0.454102 0.754883
vt 0.221680 0.530273
vt 0.487305 0.754883
vt 0.041992 0.518555
vt 0.496094 0.870117
vt 0.036133 0.518555
vt 0.489258 0.754883
vt 0.496094 0.868164
vt 0.487305 0.750000
vt 0.041992 0.513672
vt 0.496094 0.861328
vt 0.036133 0.513672
vt 0.489258 0.750000
vt 0.496094 0.859375
vt 0.039062 0.518555
vt 0.487305 0.750000
vt 0.499023 0.868164
vt 0.039062 0.518555
vt 0.489258 0.750000
vt 0.499023 0.870117
vt 0.039062 0.513672
vt 0.487305 0.745117
vt 0.499023 0.859375
vt 0.039062 0.513672
vt 0.489258 0.745117
vt 0.499023 0.861328
vt 0.483398 0.872070
vt 0.496094 0.605469
vt 0.367188 0.638672
vt 0.485352 0.606445
vt 0.495117 0.872070
vt 0.367188 0.626953
vt 0.483398 0.871094
vt 0.496094 0.604492
vt 0.247070 0.631836
vt 0.485352 0.605469
vt 0.495117 0.871094
vt 0.247070 0.620117
vt 0.496094 0.606445
vt 0.483398 0.858398
vt 0.377930 0.626953
vt 0.485352 0.605469
vt 0.495117 0.858398
vt 0.377930 0.638672
vt 0.496094 0.605469
vt 0.483398 0.857422
vt 0.257812 0.620117
vt 0.485352 0.604492
vt 0.495117 0.857422
vt 0.257812 0.631836
vt 0.404297 0.691406
vt 0.092773 0.583008
vt 0.424805 0.771484
vt 0.025391 0.583008
vt 0.413086 0.691406
vt 0.424805 0.762695
vt 0.404297 0.681641
vt 0.092773 0.573242
vt 0.258789 0.575195
vt 0.025391 0.573242
vt 0.413086 0.681641
vt 0.258789 0.566406
vt 0.032227 0.583008
vt 0.005859 0.594727
vt 0.431641 0.762695
vt 0.085938 0.583008
vt 0.014648 0.594727
vt 0.431641 0.771484
vt 0.032227 0.573242
vt 0.005859 0.584961
vt 0.265625 0.566406
vt 0.085938 0.573242
vt 0.014648 0.584961
vt 0.265625 0.575195
vt 0.458984 0.691406
vt 0.476562 0.682617
vt 0.265625 0.570312
vt 0.470703 0.769531
vt 0.467773 0.691406
vt 0.265625 0.561523
vt 0.458984 0.688477
vt 0.476562 0.679688
vt 0.308594 0.569336
vt 0.470703 0.766602
vt 0.467773 0.688477
vt 0.308594 0.560547
vt 0.476562 0.769531
vt 0.458984 0.688477
vt 0.271484 0.561523
vt 0.470703 0.682617
vt 0.467773 0.688477
vt 0.271484 0.570312
vt 0.476562 0.766602
vt 0.458984 0.685547
vt 0.314453 0.560547
vt 0.470703 0.679688
vt 0.467773 0.685547
vt 0.314453 0.569336
vt 0.281250 0.514648
vt 0.501953 0.837891
vt 0.071289 0.497070
vt 0.162109 0.499023
vt 0.284180 0.514648
vt 0.071289 0.494141
vt 0.281250 0.510742
vt 0.501953 0.833984
vt 0.086914 0.497070
vt 0.162109 0.495117
vt 0.284180 0.510742
vt 0.086914 0.494141
vt 0.163086 0.499023
vt 0.485352 0.716797
vt 0.072266 0.494141
vt 0.500977 0.837891
vt 0.488281 0.716797
vt 0.072266 0.497070
vt 0.163086 0.495117
vt 0.485352 0.712891
vt 0.087891 0.494141
vt 0.500977 0.833984
vt 0.488281 0.712891
vt 0.087891 0.497070
vt 0.486328 0.899414
vt 0.502930 0.780273
vt 0.000000 0.566406
vt 0.498047 0.796875
vt 0.496094 0.899414
vt 0.000000 0.556641
vt 0.486328 0.898438
vt 0.502930 0.779297
vt 0.005859 0.566406
vt 0.498047 0.795898
vt 0.496094 0.898438
vt 0.005859 0.556641
vt 0.502930 0.796875
vt 0.486328 0.883789
vt 0.004883 0.556641
vt 0.498047 0.780273
vt 0.496094 0.883789
vt 0.004883 0.566406
vt 0.502930 0.795898
vt 0.486328 0.882812
vt 0.010742 0.556641
vt 0.498047 0.779297
vt 0.496094 0.882812
vt 0.010742 0.566406
vt 0.486328 0.882812
vt 0.502930 0.768555
vt 0.052734 0.566406
vt 0.498047 0.779297
vt 0.496094 0.882812
vt 0.052734 0.556641
vt 0.486328 0.881836
vt 0.502930 0.767578
vt 0.086914 0.566406
vt 0.498047 0.778320
vt 0.496094 0.881836
vt 0.086914 0.556641
vt 0.502930 0.779297
vt 0.486328 0.881836
vt 0.057617 0.556641
vt 0.498047 0.768555
vt 0.496094 0.881836
vt 0.057617 0.566406
vt 0.502930 0.778320
vt 0.486328 0.880859
vt 0.091797 0.556641
vt 0.498047 0.767578
vt 0.496094 0.880859
vt 0.091797 0.566406
vt 0.486328 0.880859
vt 0.502930 0.760742
vt 0.211914 0.566406
vt 0.498047 0.767578
vt 0.496094 0.880859
vt 0.211914 0.556641
vt 0.486328 0.879883
vt 0.502930 0.759766
vt 0.258789 0.566406
vt 0.498047 0.766602
vt 0.496094 0.879883
vt 0.258789 0.556641
vt 0.502930 0.767578
vt 0.486328 0.875977
vt 0.216797 0.556641
vt 0.498047 0.760742
vt 0.496094 0.875977
vt 0.216797 0.566406
vt 0.502930 0.766602
vt 0.486328 0.875000
vt 0.263672 0.556641
vt 0.498047 0.759766
vt 0.496094 0.875000
vt 0.263672 0.566406
vt 0.486328 0.875000
vt 0.502930 0.757812
vt 0.320312 0.566406
vt 0.498047 0.759766
vt 0.496094 0.875000
vt 0.320312 0.556641
vt 0.486328 0.874023
vt 0.502930 0.756836
vt 0.389648 0.566406
vt 0.498047 0.758789
vt 0.496094 0.874023
vt 0.389648 0.556641
vt 0.502930 0.759766
vt 0.486328 0.874023
vt 0.325195 0.556641
vt 0.498047 0.757812
vt 0.496094 0.874023
vt 0.325195 0.566406
vt 0.502930 0.758789
vt 0.486328 0.873047
vt 0.394531 0.556641
vt 0.498047 0.756836
vt 0.496094 0.873047
vt 0.394531 0.566406
vt 0.486328 0.870117
vt 0.504883 0.826172
vt 0.215820 0.556641
vt 0.500977 0.827148
vt 0.496094 0.870117
vt 0.215820 0.546875
vt 0.486328 0.869141
vt 0.504883 0.825195
vt 0.258789 0.556641
vt 0.500977 0.826172
vt 0.496094 0.869141
vt 0.258789 0.546875
vt 0.504883 0.827148
vt 0.486328 0.869141
vt 0.219727 0.546875
vt 0.500977 0.826172
vt 0.496094 0.869141
vt 0.219727 0.556641
vt 0.504883 0.826172
vt 0.486328 0.868164
vt 0.262695 0.546875
vt 0.500977 0.825195
vt 0.496094 0.868164
vt 0.262695 0.556641
vt 0.486328 0.873047
vt 0.504883 0.829102
vt 0.084961 0.556641
vt 0.500977 0.830078
vt 0.496094 0.873047
vt 0.084961 0.546875
vt 0.486328 0.872070
vt 0.504883 0.828125
vt 0.211914 0.556641
vt 0.500977 0.829102
vt 0.496094 0.872070
vt 0.211914 0.546875
vt 0.504883 0.830078
vt 0.486328 0.871094
vt 0.088867 0.546875
vt 0.500977 0.829102
vt 0.496094 0.871094
vt 0.088867 0.556641
vt 0.504883 0.829102
vt 0.486328 0.870117
vt 0.215820 0.546875
vt 0.500977 0.828125
vt 0.496094 0.870117
vt 0.215820 0.556641
vt 0.486328 0.936523
vt 0.504883 0.833984
vt 0.049805 0.556641
vt 0.500977 0.841797
vt 0.496094 0.936523
vt 0.049805 0.546875
vt 0.486328 0.935547
vt 0.504883 0.833008
vt 0.053711 0.556641
vt 0.500977 0.840820
vt 0.496094 0.935547
vt 0.053711 0.546875
vt 0.504883 0.841797
vt 0.486328 0.926758
vt 0.053711 0.546875
vt 0.500977 0.833984
vt 0.496094 0.926758
vt 0.053711 0.556641
vt 0.504883 0.840820
vt 0.486328 0.925781
vt 0.057617 0.546875
vt 0.500977 0.833008
vt 0.496094 0.925781
vt 0.057617 0.556641
vt 0.486328 0.901367
vt 0.502930 0.797852
vt 0.047852 0.707031
vt 0.498047 0.810547
vt 0.496094 0.901367
vt 0.047852 0.697266
vt 0.486328 0.900391
vt 0.502930 0.796875
vt 0.304688 0.614258
vt 0.498047 0.809570
vt 0.496094 0.900391
vt 0.304688 0.604492
vt 0.502930 0.810547
vt 0.486328 0.900391
vt 0.052734 0.697266
vt 0.498047 0.797852
vt 0.496094 0.900391
vt 0.052734 0.707031
vt 0.502930 0.809570
vt 0.486328 0.899414
vt 0.309570 0.604492
vt 0.498047 0.796875
vt 0.496094 0.899414
vt 0.309570 0.614258
vt 0.304688 0.501953
vt 0.306641 0.501953
vt 0.181641 0.496094
vt 0.303711 0.501953
vt 0.305664 0.501953
vt 0.181641 0.495117
vt 0.304688 0.497070
vt 0.306641 0.497070
vt 0.182617 0.496094
vt 0.303711 0.497070
vt 0.305664 0.497070
vt 0.182617 0.495117
vt 0.304688 0.501953
vt 0.306641 0.501953
vt 0.182617 0.495117
vt 0.305664 0.501953
vt 0.307617 0.501953
vt 0.182617 0.496094
vt 0.304688 0.497070
vt 0.306641 0.497070
vt 0.183594 0.495117
vt 0.305664 0.497070
vt 0.307617 0.497070
vt 0.183594 0.496094
vt 0.308594 0.501953
vt 0.310547 0.501953
vt 0.183594 0.496094
vt 0.307617 0.501953
vt 0.309570 0.501953
vt 0.183594 0.495117
vt 0.308594 0.497070
vt 0.310547 0.497070
vt 0.184570 0.496094
vt 0.307617 0.497070
vt 0.309570 0.497070
vt 0.184570 0.495117
vt 0.308594 0.501953
vt 0.310547 0.501953
vt 0.184570 0.495117
vt 0.309570 0.501953
vt 0.311523 0.501953
vt 0.184570 0.496094
vt 0.308594 0.497070
vt 0.310547 0.497070
vt 0.185547 0.495117
vt 0.309570 0.497070
vt 0.311523 0.497070
vt 0.185547 0.496094
vt 0.312500 0.501953
vt 0.314453 0.501953
vt 0.185547 0.496094
vt 0.311523 0.501953
vt 0.313477 0.501953
vt 0.185547 0.495117
vt 0.312500 0.497070
vt 0.314453 0.497070
vt 0.188477 0.496094
vt 0.311523 0.497070
vt 0.313477 0.497070
vt 0.188477 0.495117
vt 0.312500 0.501953
vt 0.498047 0.684570
vt 0.186523 0.495117
vt 0.313477 0.501953
vt 0.499023 0.684570
vt 0.186523 0.496094
vt 0.312500 0.497070
vt 0.498047 0.679688
vt 0.189453 0.495117
vt 0.313477 0.497070
vt 0.499023 0.679688
vt 0.189453 0.496094
vt 0.275391 0.501953
vt 0.277344 0.501953
vt 0.175781 0.496094
vt 0.274414 0.501953
vt 0.276367 0.501953
vt 0.175781 0.495117
vt 0.275391 0.497070
vt 0.277344 0.497070
vt 0.176758 0.496094
vt 0.274414 0.497070
vt 0.276367 0.497070
vt 0.176758 0.495117
vt 0.275391 0.501953
vt 0.278320 0.501953
vt 0.176758 0.495117
vt 0.276367 0.501953
vt 0.279297 0.501953
vt 0.176758 0.496094
vt 0.275391 0.497070
vt 0.278320 0.497070
vt 0.177734 0.495117
vt 0.276367 0.497070
vt 0.279297 0.497070
vt 0.177734 0.496094
vt 0.492188 0.914062
vt 0.459961 0.674805
vt 0.189453 0.914062
vt 0.441406 0.676758
vt 0.496094 0.914062
vt 0.189453 0.910156
vt 0.492188 0.912109
vt 0.459961 0.672852
vt 0.407227 0.787109
vt 0.441406 0.674805
vt 0.496094 0.912109
vt 0.407227 0.783203
vt 0.459961 0.676758
vt 0.492188 0.912109
vt 0.208008 0.910156
vt 0.441406 0.674805
vt 0.496094 0.912109
vt 0.208008 0.914062
vt 0.459961 0.674805
vt 0.492188 0.910156
vt 0.425781 0.783203
vt 0.441406 0.672852
vt 0.496094 0.910156
vt 0.425781 0.787109
vt 0.280273 0.501953
vt 0.282227 0.501953
vt 0.177734 0.496094
vt 0.279297 0.501953
vt 0.281250 0.501953
vt 0.177734 0.495117
vt 0.280273 0.497070
vt 0.282227 0.497070
vt 0.178711 0.496094
vt 0.279297 0.497070
vt 0.281250 0.497070
vt 0.178711 0.495117
vt 0.280273 0.501953
vt 0.282227 0.501953
vt 0.178711 0.495117
vt 0.281250 0.501953
vt 0.283203 0.501953
vt 0.178711 0.496094
vt 0.280273 0.497070
vt 0.282227 0.497070
vt 0.179688 0.495117
vt 0.281250 0.497070
vt 0.283203 0.497070
vt 0.179688 0.496094
vt 0.296875 0.501953
vt 0.298828 0.501953
vt 0.179688 0.496094
vt 0.283203 0.501953
vt 0.297852 0.501953
vt 0.179688 0.495117
vt 0.296875 0.497070
vt 0.298828 0.497070
vt 0.180664 0.496094
vt 0.283203 0.497070
vt 0.297852 0.497070
vt 0.180664 0.495117
vt 0.284180 0.501953
vt 0.302734 0.501953
vt 0.180664 0.495117
vt 0.297852 0.501953
vt 0.303711 0.501953
vt 0.180664 0.496094
vt 0.284180 0.497070
vt 0.302734 0.497070
vt 0.181641 0.495117
vt 0.297852 0.497070
vt 0.303711 0.497070
vt 0.181641 0.496094
vt 0.491211 0.531250
vt 0.056641 0.505859
vt 0.429688 0.848633
vt 0.494141 0.958984
vt 0.499023 0.531250
vt 0.429688 0.840820
vt 0.491211 0.530273
vt 0.056641 0.504883
vt 0.429688 0.758789
vt 0.494141 0.958008
vt 0.499023 0.530273
vt 0.429688 0.750977
vt 0.500977 0.958984
vt 0.491211 0.530273
vt 0.436523 0.840820
vt 0.049805 0.505859
vt 0.499023 0.530273
vt 0.436523 0.848633
vt 0.500977 0.958008
vt 0.491211 0.529297
vt 0.436523 0.750977
vt 0.049805 0.504883
vt 0.499023 0.529297
vt 0.436523 0.758789
vt 0.488281 0.561523
vt 0.504883 0.641602
vt 0.221680 0.530273
vt 0.358398 0.497070
vt 0.497070 0.561523
vt 0.221680 0.521484
vt 0.488281 0.560547
vt 0.504883 0.640625
vt 0.021484 0.529297
vt 0.358398 0.496094
vt 0.497070 0.560547
vt 0.021484 0.520508
vt 0.360352 0.497070
vt 0.488281 0.560547
vt 0.223633 0.521484
vt 0.502930 0.641602
vt 0.497070 0.560547
vt 0.223633 0.530273
vt 0.360352 0.496094
vt 0.488281 0.559570
vt 0.023438 0.520508
vt 0.502930 0.640625
vt 0.497070 0.559570
vt 0.023438 0.529297
vt 0.172852 0.496094
vt 0.500977 0.925781
vt 0.081055 0.505859
vt 0.068359 0.505859
vt 0.173828 0.496094
vt 0.081055 0.504883
vt 0.172852 0.495117
vt 0.500977 0.924805
vt 0.494141 0.916992
vt 0.068359 0.504883
vt 0.173828 0.495117
vt 0.494141 0.916016
vt 0.075195 0.505859
vt 0.173828 0.496094
vt 0.087891 0.504883
vt 0.494141 0.925781
vt 0.174805 0.496094
vt 0.087891 0.505859
vt 0.075195 0.504883
vt 0.173828 0.495117
vt 0.500977 0.916016
vt 0.494141 0.924805
vt 0.174805 0.495117
vt 0.500977 0.916992
vt 0.494141 0.897461
vt 0.502930 0.738281
vt 0.031250 0.549805
vt 0.498047 0.756836
vt 0.500977 0.897461
vt 0.031250 0.542969
vt 0.494141 0.896484
vt 0.502930 0.737305
vt 0.090820 0.549805
vt 0.498047 0.755859
vt 0.500977 0.896484
vt 0.090820 0.542969
vt 0.502930 0.756836
vt 0.114258 0.505859
vt 0.036133 0.542969
vt 0.498047 0.738281
vt 0.121094 0.505859
vt 0.036133 0.549805
vt 0.502930 0.755859
vt 0.114258 0.504883
vt 0.095703 0.542969
vt 0.498047 0.737305
vt 0.121094 0.504883
vt 0.095703 0.549805
vt 0.355469 0.497070
vt 0.480469 0.924805
vt 0.491211 0.509766
vt 0.472656 0.933594
vt 0.356445 0.497070
vt 0.491211 0.508789
vt 0.355469 0.495117
vt 0.480469 0.922852
vt 0.491211 0.508789
vt 0.472656 0.931641
vt 0.356445 0.495117
vt 0.491211 0.507812
vt 0.480469 0.933594
vt 0.502930 0.640625
vt 0.499023 0.508789
vt 0.472656 0.924805
vt 0.503906 0.640625
vt 0.499023 0.509766
vt 0.480469 0.931641
vt 0.502930 0.638672
vt 0.499023 0.507812
vt 0.472656 0.922852
vt 0.503906 0.638672
vt 0.499023 0.508789
vt 0.360352 0.497070
vt 0.480469 0.904297
vt 0.008789 0.507812
vt 0.472656 0.915039
vt 0.361328 0.497070
vt 0.008789 0.506836
vt 0.360352 0.495117
vt 0.480469 0.902344
vt 0.492188 0.958008
vt 0.472656 0.913086
vt 0.361328 0.495117
vt 0.492188 0.957031
vt 0.480469 0.915039
vt 0.361328 0.497070
vt 0.016602 0.506836
vt 0.472656 0.904297
vt 0.362305 0.497070
vt 0.016602 0.507812
vt 0.480469 0.913086
vt 0.361328 0.495117
vt 0.500000 0.957031
vt 0.472656 0.902344
vt 0.362305 0.495117
vt 0.500000 0.958008
vt 0.488281 0.702148
vt 0.499023 0.599609
vt 0.278320 0.586914
vt 0.491211 0.611328
vt 0.497070 0.702148
vt 0.278320 0.578125
vt 0.488281 0.701172
vt 0.499023 0.598633
vt 0.413086 0.692383
vt 0.491211 0.610352
vt 0.497070 0.701172
vt 0.413086 0.683594
vt 0.499023 0.611328
vt 0.488281 0.701172
vt 0.286133 0.578125
vt 0.491211 0.599609
vt 0.497070 0.701172
vt 0.286133 0.586914
vt 0.499023 0.610352
vt 0.488281 0.700195
vt 0.420898 0.683594
vt 0.491211 0.598633
vt 0.497070 0.700195
vt 0.420898 0.692383
vt 0.498047 0.737305
vt 0.504883 0.825195
vt 0.272461 0.501953
vt 0.174805 0.496094
vt 0.502930 0.737305
vt 0.272461 0.497070
vt 0.498047 0.736328
vt 0.504883 0.824219
vt 0.273438 0.501953
vt 0.174805 0.495117
vt 0.502930 0.736328
vt 0.273438 0.497070
vt 0.175781 0.496094
vt 0.267578 0.501953
vt 0.273438 0.497070
vt 0.503906 0.825195
vt 0.272461 0.501953
vt 0.273438 0.501953
vt 0.175781 0.495117
vt 0.267578 0.500977
vt 0.274414 0.497070
vt 0.503906 0.824219
vt 0.272461 0.500977
vt 0.274414 0.501953
vt 0.491211 0.583984
vt 0.081055 0.497070
vt 0.182617 0.536133
vt 0.075195 0.497070
vt 0.499023 0.583984
vt 0.182617 0.528320
vt 0.491211 0.583008
vt 0.081055 0.496094
vt 0.263672 0.536133
vt 0.075195 0.496094
vt 0.499023 0.583008
vt 0.263672 0.528320
vt 0.078125 0.497070
vt 0.491211 0.583008
vt 0.185547 0.528320
vt 0.078125 0.497070
vt 0.499023 0.583008
vt 0.185547 0.536133
vt 0.078125 0.496094
vt 0.491211 0.582031
vt 0.266602 0.528320
vt 0.078125 0.496094
vt 0.499023 0.582031
vt 0.266602 0.536133
vt 0.488281 0.675781
vt 0.497070 0.650391
vt 0.120117 0.590820
vt 0.488281 0.676758
vt 0.497070 0.675781
vt 0.120117 0.582031
vt 0.488281 0.674805
vt 0.497070 0.649414
vt 0.315430 0.590820
vt 0.488281 0.675781
vt 0.497070 0.674805
vt 0.315430 0.582031
vt 0.497070 0.676758
vt 0.488281 0.632812
vt 0.128906 0.582031
vt 0.488281 0.650391
vt 0.497070 0.632812
vt 0.128906 0.590820
vt 0.497070 0.675781
vt 0.488281 0.631836
vt 0.324219 0.582031
vt 0.488281 0.649414
vt 0.497070 0.631836
vt 0.324219 0.590820
vt 0.353516 0.497070
vt 0.505859 0.914062
vt 0.141602 0.503906
vt 0.083984 0.497070
vt 0.355469 0.497070
vt 0.141602 0.501953
vt 0.353516 0.496094
vt 0.505859 0.913086
vt 0.144531 0.503906
vt 0.083984 0.496094
vt 0.355469 0.496094
vt 0.144531 0.501953
vt 0.086914 0.497070
vt 0.502930 0.646484
vt 0.144531 0.501953
vt 0.502930 0.914062
vt 0.504883 0.646484
vt 0.144531 0.503906
vt 0.086914 0.496094
vt 0.502930 0.645508
vt 0.147461 0.501953
vt 0.502930 0.913086
vt 0.504883 0.645508
vt 0.147461 0.503906
vt 0.502930 0.645508
vt 0.495117 0.890625
vt 0.460938 0.569336
vt 0.483398 0.921875
vt 0.504883 0.645508
vt 0.460938 0.567383
vt 0.502930 0.644531
vt 0.495117 0.889648
vt 0.461914 0.764648
vt 0.483398 0.920898
vt 0.504883 0.644531
vt 0.461914 0.762695
vt 0.495117 0.921875
vt 0.502930 0.643555
vt 0.472656 0.567383
vt 0.483398 0.890625
vt 0.504883 0.643555
vt 0.472656 0.569336
vt 0.495117 0.920898
vt 0.502930 0.642578
vt 0.473633 0.762695
vt 0.483398 0.889648
vt 0.504883 0.642578
vt 0.473633 0.764648
vt 0.488281 0.631836
vt 0.496094 0.860352
vt 0.378906 0.597656
vt 0.486328 0.861328
vt 0.497070 0.631836
vt 0.378906 0.588867
vt 0.488281 0.630859
vt 0.496094 0.859375
vt 0.388672 0.597656
vt 0.486328 0.860352
vt 0.497070 0.630859
vt 0.388672 0.588867
vt 0.496094 0.861328
vt 0.488281 0.610352
vt 0.388672 0.588867
vt 0.486328 0.860352
vt 0.497070 0.610352
vt 0.388672 0.597656
vt 0.496094 0.860352
vt 0.488281 0.609375
vt 0.398438 0.588867
vt 0.486328 0.859375
vt 0.497070 0.609375
vt 0.398438 0.597656
vt 0.502930 0.913086
vt 0.497070 0.603516
vt 0.208008 0.541016
vt 0.488281 0.604492
vt 0.505859 0.913086
vt 0.208008 0.538086
vt 0.502930 0.912109
vt 0.497070 0.602539
vt 0.458984 0.762695
vt 0.488281 0.603516
vt 0.505859 0.912109
vt 0.458984 0.759766
vt 0.497070 0.604492
vt 0.089844 0.497070
vt 0.216797 0.538086
vt 0.488281 0.603516
vt 0.092773 0.497070
vt 0.216797 0.541016
vt 0.497070 0.603516
vt 0.089844 0.496094
vt 0.467773 0.759766
vt 0.488281 0.602539
vt 0.092773 0.496094
vt 0.467773 0.762695
vt 0.488281 0.572266
vt 0.168945 0.496094
vt 0.304688 0.512695
vt 0.166992 0.496094
vt 0.497070 0.572266
vt 0.304688 0.503906
vt 0.488281 0.571289
vt 0.168945 0.495117
vt 0.323242 0.512695
vt 0.166992 0.495117
vt 0.497070 0.571289
vt 0.323242 0.503906
vt 0.167969 0.496094
vt 0.488281 0.571289
vt 0.305664 0.503906
vt 0.167969 0.496094
vt 0.497070 0.571289
vt 0.305664 0.512695
vt 0.167969 0.495117
vt 0.488281 0.570312
vt 0.324219 0.503906
vt 0.167969 0.495117
vt 0.497070 0.570312
vt 0.324219 0.512695
vt 0.236328 0.511719
vt 0.111328 0.646484
vt 0.462891 0.653320
vt 0.121094 0.908203
vt 0.237305 0.511719
vt 0.462891 0.652344
vt 0.236328 0.503906
vt 0.111328 0.638672
vt 0.462891 0.652344
vt 0.121094 0.900391
vt 0.237305 0.503906
vt 0.462891 0.651367
vt 0.143555 0.908203
vt 0.292969 0.511719
vt 0.485352 0.652344
vt 0.088867 0.646484
vt 0.293945 0.511719
vt 0.485352 0.653320
vt 0.143555 0.900391
vt 0.292969 0.503906
vt 0.485352 0.651367
vt 0.088867 0.638672
vt 0.293945 0.503906
vt 0.485352 0.652344
vt 0.298828 0.514648
vt 0.122070 0.672852
vt 0.462891 0.766602
vt 0.146484 0.818359
vt 0.299805 0.514648
vt 0.462891 0.765625
vt 0.298828 0.503906
vt 0.122070 0.662109
vt 0.462891 0.695312
vt 0.146484 0.807617
vt 0.299805 0.503906
vt 0.462891 0.694336
vt 0.168945 0.818359
vt 0.305664 0.514648
vt 0.485352 0.765625
vt 0.099609 0.672852
vt 0.306641 0.514648
vt 0.485352 0.766602
vt 0.168945 0.807617
vt 0.305664 0.503906
vt 0.485352 0.694336
vt 0.099609 0.662109
vt 0.306641 0.503906
vt 0.485352 0.695312
vt 0.491211 0.582031
vt 0.083984 0.497070
vt 0.277344 0.536133
vt 0.502930 0.920898
vt 0.499023 0.582031
vt 0.277344 0.528320
vt 0.491211 0.581055
vt 0.083984 0.496094
vt 0.295898 0.536133
vt 0.502930 0.919922
vt 0.499023 0.581055
vt 0.295898 0.528320
vt 0.505859 0.920898
vt 0.491211 0.532227
vt 0.280273 0.528320
vt 0.081055 0.497070
vt 0.499023 0.532227
vt 0.280273 0.536133
vt 0.505859 0.919922
vt 0.491211 0.531250
vt 0.298828 0.528320
vt 0.081055 0.496094
vt 0.499023 0.531250
vt 0.298828 0.536133
vt 0.492188 0.957031
vt 0.101562 0.497070
vt 0.332031 0.536133
vt 0.502930 0.907227
vt 0.500000 0.957031
vt 0.332031 0.528320
vt 0.492188 0.956055
vt 0.101562 0.496094
vt 0.334961 0.536133
vt 0.502930 0.906250
vt 0.500000 0.956055
vt 0.334961 0.528320
vt 0.505859 0.907227
vt 0.492188 0.956055
vt 0.334961 0.528320
vt 0.098633 0.497070
vt 0.500000 0.956055
vt 0.334961 0.536133
vt 0.505859 0.906250
vt 0.492188 0.955078
vt 0.337891 0.528320
vt 0.098633 0.496094
vt 0.500000 0.955078
vt 0.337891 0.536133
vt 0.502930 0.638672
vt 0.095703 0.497070
vt 0.496094 0.854492
vt 0.502930 0.908203
vt 0.504883 0.638672
vt 0.496094 0.852539
vt 0.502930 0.637695
vt 0.095703 0.496094
vt 0.496094 0.851562
vt 0.502930 0.907227
vt 0.504883 0.637695
vt 0.496094 0.849609
vt 0.505859 0.908203
vt 0.502930 0.637695
vt 0.499023 0.852539
vt 0.092773 0.497070
vt 0.504883 0.637695
vt 0.499023 0.854492
vt 0.505859 0.907227
vt 0.502930 0.636719
vt 0.499023 0.849609
vt 0.092773 0.496094
vt 0.504883 0.636719
vt 0.499023 0.851562
vt 0.502930 0.898438
vt 0.497070 0.528320
vt 0.280273 0.541016
vt 0.488281 0.529297
vt 0.505859 0.898438
vt 0.280273 0.538086
vt 0.502930 0.897461
vt 0.497070 0.527344
vt 0.458984 0.694336
vt 0.488281 0.528320
vt 0.505859 0.897461
vt 0.458984 0.691406
vt 0.497070 0.529297
vt 0.502930 0.891602
vt 0.289062 0.538086
vt 0.488281 0.528320
vt 0.505859 0.891602
vt 0.289062 0.541016
vt 0.497070 0.528320
vt 0.502930 0.890625
vt 0.467773 0.691406
vt 0.488281 0.527344
vt 0.505859 0.890625
vt 0.467773 0.694336
vt 0.489258 0.990234
vt 0.500000 0.954102
vt 0.166016 0.585938
vt 0.492188 0.955078
vt 0.498047 0.990234
vt 0.166016 0.577148
vt 0.489258 0.989258
vt 0.500000 0.953125
vt 0.173828 0.585938
vt 0.492188 0.954102
vt 0.498047 0.989258
vt 0.173828 0.577148
vt 0.500000 0.955078
vt 0.489258 0.989258
vt 0.173828 0.577148
vt 0.492188 0.954102
vt 0.498047 0.989258
vt 0.173828 0.585938
vt 0.500000 0.954102
vt 0.489258 0.988281
vt 0.181641 0.577148
vt 0.492188 0.953125
vt 0.498047 0.988281
vt 0.181641 0.585938
vt 0.489258 0.960938
vt 0.496094 0.851562
vt 0.088867 0.596680
vt 0.486328 0.859375
vt 0.498047 0.960938
vt 0.088867 0.587891
vt 0.489258 0.959961
vt 0.496094 0.850586
vt 0.278320 0.595703
vt 0.486328 0.858398
vt 0.498047 0.959961
vt 0.278320 0.586914
vt 0.496094 0.859375
vt 0.489258 0.940430
vt 0.098633 0.587891
vt 0.486328 0.851562
vt 0.498047 0.940430
vt 0.098633 0.596680
vt 0.496094 0.858398
vt 0.489258 0.939453
vt 0.288086 0.586914
vt 0.486328 0.850586
vt 0.498047 0.939453
vt 0.288086 0.595703
vt 0.489258 0.939453
vt 0.191406 0.496094
vt 0.335938 0.512695
vt 0.189453 0.496094
vt 0.498047 0.939453
vt 0.335938 0.503906
vt 0.489258 0.938477
vt 0.191406 0.495117
vt 0.336914 0.512695
vt 0.189453 0.495117
vt 0.498047 0.938477
vt 0.336914 0.503906
vt 0.190430 0.496094
vt 0.489258 0.907227
vt 0.336914 0.503906
vt 0.190430 0.496094
vt 0.498047 0.907227
vt 0.336914 0.512695
vt 0.190430 0.495117
vt 0.489258 0.906250
vt 0.337891 0.503906
vt 0.190430 0.495117
vt 0.498047 0.906250
vt 0.337891 0.512695
vt 0.492188 0.953125
vt 0.500977 0.868164
vt 0.092773 0.569336
vt 0.494141 0.876953
vt 0.500000 0.953125
vt 0.092773 0.561523
vt 0.492188 0.952148
vt 0.500977 0.867188
vt 0.149414 0.569336
vt 0.494141 0.875977
vt 0.500000 0.952148
vt 0.149414 0.561523
vt 0.500977 0.876953
vt 0.492188 0.952148
vt 0.099609 0.561523
vt 0.494141 0.868164
vt 0.500000 0.952148
vt 0.099609 0.569336
vt 0.500977 0.875977
vt 0.492188 0.951172
vt 0.156250 0.561523
vt 0.494141 0.867188
vt 0.500000 0.951172
vt 0.156250 0.569336
vt 0.489258 0.856445
vt 0.366211 0.497070
vt 0.023438 0.529297
vt 0.502930 0.636719
vt 0.498047 0.856445
vt 0.023438 0.520508
vt 0.489258 0.855469
vt 0.366211 0.496094
vt 0.046875 0.529297
vt 0.502930 0.635742
vt 0.498047 0.855469
vt 0.046875 0.520508
vt 0.504883 0.636719
vt 0.489258 0.855469
vt 0.025391 0.520508
vt 0.364258 0.497070
vt 0.498047 0.855469
vt 0.025391 0.529297
vt 0.504883 0.635742
vt 0.489258 0.854492
vt 0.048828 0.520508
vt 0.364258 0.496094
vt 0.498047 0.854492
vt 0.048828 0.529297
vt 0.193359 0.496094
vt 0.500977 0.849609
vt 0.494141 0.848633
vt 0.494141 0.867188
vt 0.194336 0.496094
vt 0.494141 0.847656
vt 0.193359 0.495117
vt 0.500977 0.848633
vt 0.494141 0.837891
vt 0.494141 0.866211
vt 0.194336 0.495117
vt 0.494141 0.836914
vt 0.500977 0.867188
vt 0.194336 0.496094
vt 0.500977 0.847656
vt 0.494141 0.849609
vt 0.195312 0.496094
vt 0.500977 0.848633
vt 0.500977 0.866211
vt 0.194336 0.495117
vt 0.500977 0.836914
vt 0.494141 0.848633
vt 0.195312 0.495117
vt 0.500977 0.837891
vt 0.498047 0.716797
vt 0.197266 0.496094
vt 0.317383 0.501953
vt 0.195312 0.496094
vt 0.502930 0.716797
vt 0.317383 0.497070
vt 0.498047 0.715820
vt 0.197266 0.495117
vt 0.318359 0.501953
vt 0.195312 0.495117
vt 0.502930 0.715820
vt 0.318359 0.497070
vt 0.196289 0.496094
vt 0.498047 0.715820
vt 0.318359 0.497070
vt 0.196289 0.496094
vt 0.502930 0.715820
vt 0.318359 0.501953
vt 0.196289 0.495117
vt 0.498047 0.714844
vt 0.319336 0.497070
vt 0.196289 0.495117
vt 0.502930 0.714844
vt 0.319336 0.501953
vt 0.494141 0.836914
vt 0.502930 0.708984
vt 0.136719 0.549805
vt 0.498047 0.709961
vt 0.500977 0.836914
vt 0.136719 0.542969
vt 0.494141 0.835938
vt 0.502930 0.708008
vt 0.148438 0.549805
vt 0.498047 0.708984
vt 0.500977 0.835938
vt 0.148438 0.542969
vt 0.502930 0.709961
vt 0.176758 0.505859
vt 0.141602 0.542969
vt 0.498047 0.708984
vt 0.183594 0.505859
vt 0.141602 0.549805
vt 0.502930 0.708984
vt 0.176758 0.504883
vt 0.153320 0.542969
vt 0.498047 0.708008
vt 0.183594 0.504883
vt 0.153320 0.549805
vt 0.466797 0.668945
vt 0.472656 0.726562
vt 0.430664 0.583008
vt 0.464844 0.759766
vt 0.473633 0.668945
vt 0.430664 0.576172
vt 0.466797 0.666016
vt 0.472656 0.723633
vt 0.431641 0.976562
vt 0.464844 0.756836
vt 0.473633 0.666016
vt 0.431641 0.969727
vt 0.472656 0.759766
vt 0.466797 0.576172
vt 0.438477 0.576172
vt 0.464844 0.726562
vt 0.473633 0.576172
vt 0.438477 0.583008
vt 0.472656 0.756836
vt 0.466797 0.573242
vt 0.439453 0.969727
vt 0.464844 0.723633
vt 0.473633 0.573242
vt 0.439453 0.976562
vt 0.496094 0.691406
vt 0.501953 0.690430
vt 0.067383 0.552734
vt 0.496094 0.692383
vt 0.501953 0.691406
vt 0.067383 0.546875
vt 0.496094 0.690430
vt 0.501953 0.689453
vt 0.073242 0.552734
vt 0.496094 0.691406
vt 0.501953 0.690430
vt 0.073242 0.546875
vt 0.501953 0.692383
vt 0.310547 0.503906
vt 0.073242 0.546875
vt 0.496094 0.690430
vt 0.316406 0.503906
vt 0.073242 0.552734
vt 0.501953 0.691406
vt 0.310547 0.502930
vt 0.079102 0.546875
vt 0.496094 0.689453
vt 0.316406 0.502930
vt 0.079102 0.552734
vt 0.372070 0.499023
vt 0.500000 0.915039
vt 0.453125 0.928711
vt 0.492188 0.916016
vt 0.375977 0.499023
vt 0.453125 0.924805
vt 0.372070 0.498047
vt 0.500000 0.914062
vt 0.075195 0.546875
vt 0.492188 0.915039
vt 0.375977 0.498047
vt 0.075195 0.542969
vt 0.500000 0.916016
vt 0.500977 0.627930
vt 0.460938 0.924805
vt 0.492188 0.915039
vt 0.504883 0.627930
vt 0.460938 0.928711
vt 0.500000 0.915039
vt 0.500977 0.626953
vt 0.083008 0.542969
vt 0.492188 0.914062
vt 0.504883 0.626953
vt 0.083008 0.546875
vt 0.412109 0.593750
vt 0.431641 0.838867
vt 0.349609 0.884766
vt 0.418945 0.853516
vt 0.426758 0.593750
vt 0.349609 0.870117
vt 0.412109 0.588867
vt 0.431641 0.833984
vt 0.349609 0.667969
vt 0.418945 0.848633
vt 0.426758 0.588867
vt 0.349609 0.653320
vt 0.431641 0.853516
vt 0.413086 0.927734
vt 0.362305 0.870117
vt 0.418945 0.838867
vt 0.427734 0.927734
vt 0.362305 0.884766
vt 0.431641 0.848633
vt 0.413086 0.922852
vt 0.362305 0.653320
vt 0.418945 0.833984
vt 0.427734 0.922852
vt 0.362305 0.667969
vt 0.158203 0.741211
vt 0.434570 0.540039
vt 0.149414 0.508789
vt 0.165039 0.741211
vt 0.149414 0.501953
vt 0.158203 0.718750
vt 0.434570 0.517578
vt 0.163086 0.508789
vt 0.165039 0.718750
vt 0.163086 0.501953
vt 0.166016 0.741211
vt 0.148438 0.641602
vt 0.150391 0.501953
vt 0.433594 0.540039
vt 0.155273 0.641602
vt 0.150391 0.508789
vt 0.166016 0.718750
vt 0.148438 0.619141
vt 0.164062 0.501953
vt 0.433594 0.517578
vt 0.155273 0.619141
vt 0.164062 0.508789
vt 0.008789 0.638672
vt 0.427734 0.539062
vt 0.184570 0.508789
vt 0.113281 0.539062
vt 0.015625 0.638672
vt 0.184570 0.501953
vt 0.008789 0.616211
vt 0.427734 0.516602
vt 0.185547 0.508789
vt 0.113281 0.516602
vt 0.015625 0.616211
vt 0.185547 0.501953
vt 0.114258 0.539062
vt 0.088867 0.638672
vt 0.185547 0.501953
vt 0.426758 0.539062
vt 0.095703 0.638672
vt 0.185547 0.508789
vt 0.114258 0.516602
vt 0.088867 0.616211
vt 0.186523 0.501953
vt 0.426758 0.516602
vt 0.095703 0.616211
vt 0.186523 0.508789
vt 0.185547 0.672852
vt 0.036133 0.536133
vt 0.160156 0.514648
vt 0.364258 0.537109
vt 0.196289 0.672852
vt 0.160156 0.503906
vt 0.185547 0.651367
vt 0.036133 0.514648
vt 0.166016 0.514648
vt 0.364258 0.515625
vt 0.196289 0.651367
vt 0.166016 0.503906
vt 0.365234 0.537109
vt 0.278320 0.671875
vt 0.161133 0.503906
vt 0.035156 0.536133
vt 0.289062 0.671875
vt 0.161133 0.514648
vt 0.365234 0.515625
vt 0.278320 0.650391
vt 0.166992 0.503906
vt 0.035156 0.514648
vt 0.289062 0.650391
vt 0.166992 0.514648
vt 0.331055 1.000000
vt 0.385742 0.536133
vt 0.198242 0.514648
vt 0.298828 0.536133
vt 0.341797 1.000000
vt 0.198242 0.503906
vt 0.331055 0.978516
vt 0.385742 0.514648
vt 0.210938 0.514648
vt 0.298828 0.514648
vt 0.341797 0.978516
vt 0.210938 0.503906
vt 0.299805 0.536133
vt 0.324219 0.666992
vt 0.199219 0.503906
vt 0.384766 0.536133
vt 0.334961 0.666992
vt 0.199219 0.514648
vt 0.299805 0.514648
vt 0.324219 0.645508
vt 0.211914 0.503906
vt 0.384766 0.514648
vt 0.334961 0.645508
vt 0.211914 0.514648
vt 0.436523 0.938477
vt 0.459961 0.924805
vt 0.410156 0.612305
vt 0.360352 0.618164
vt 0.447266 0.938477
vt 0.410156 0.601562
vt 0.436523 0.934570
vt 0.459961 0.920898
vt 0.411133 0.959961
vt 0.360352 0.614258
vt 0.447266 0.934570
vt 0.411133 0.949219
vt 0.367188 0.618164
vt 0.437500 0.928711
vt 0.416992 0.601562
vt 0.453125 0.924805
vt 0.448242 0.928711
vt 0.416992 0.612305
vt 0.367188 0.614258
vt 0.437500 0.924805
vt 0.417969 0.949219
vt 0.453125 0.920898
vt 0.448242 0.924805
vt 0.417969 0.959961
vt 0.454102 0.879883
vt 0.460938 0.801758
vt 0.435547 0.966797
vt 0.454102 0.900391
vt 0.460938 0.879883
vt 0.435547 0.959961
vt 0.454102 0.875977
vt 0.460938 0.797852
vt 0.435547 0.866211
vt 0.454102 0.896484
vt 0.460938 0.875977
vt 0.435547 0.859375
vt 0.460938 0.900391
vt 0.454102 0.743164
vt 0.442383 0.959961
vt 0.454102 0.801758
vt 0.460938 0.743164
vt 0.442383 0.966797
vt 0.460938 0.896484
vt 0.454102 0.739258
vt 0.442383 0.859375
vt 0.454102 0.797852
vt 0.460938 0.739258
vt 0.442383 0.866211
vt 0.472656 0.810547
vt 0.462891 0.874023
vt 0.456055 0.790039
vt 0.455078 0.588867
vt 0.476562 0.810547
vt 0.456055 0.786133
vt 0.472656 0.806641
vt 0.462891 0.870117
vt 0.456055 0.731445
vt 0.455078 0.584961
vt 0.476562 0.806641
vt 0.456055 0.727539
vt 0.461914 0.588867
vt 0.208008 0.527344
vt 0.462891 0.786133
vt 0.456055 0.874023
vt 0.211914 0.527344
vt 0.462891 0.790039
vt 0.461914 0.584961
vt 0.208008 0.523438
vt 0.462891 0.727539
vt 0.456055 0.870117
vt 0.211914 0.523438
vt 0.462891 0.731445
vt 0.120117 0.613281
vt 0.119141 0.712891
vt 0.439453 0.887695
vt 0.052734 0.712891
vt 0.122070 0.613281
vt 0.439453 0.885742
vt 0.120117 0.592773
vt 0.119141 0.692383
vt 0.439453 0.885742
vt 0.052734 0.692383
vt 0.122070 0.592773
vt 0.439453 0.883789
vt 0.072266 0.712891
vt 0.010742 0.566406
vt 0.458984 0.885742
vt 0.099609 0.712891
vt 0.012695 0.566406
vt 0.458984 0.887695
vt 0.072266 0.692383
vt 0.010742 0.545898
vt 0.458984 0.883789
vt 0.099609 0.692383
vt 0.012695 0.545898
vt 0.458984 0.885742
vt 0.263672 0.566406
vt 0.158203 0.712891
vt 0.439453 0.762695
vt 0.119141 0.712891
vt 0.265625 0.566406
vt 0.439453 0.760742
vt 0.263672 0.545898
vt 0.158203 0.692383
vt 0.439453 0.760742
vt 0.119141 0.692383
vt 0.265625 0.545898
vt 0.439453 0.758789
vt 0.138672 0.712891
vt 0.042969 0.565430
vt 0.458984 0.760742
vt 0.138672 0.712891
vt 0.044922 0.565430
vt 0.458984 0.762695
vt 0.138672 0.692383
vt 0.042969 0.544922
vt 0.458984 0.758789
vt 0.138672 0.692383
vt 0.044922 0.544922
vt 0.458984 0.760742
vt 0.270508 0.511719
vt 0.479492 0.852539
vt 0.477539 0.838867
vt 0.475586 0.819336
vt 0.273438 0.511719
vt 0.477539 0.835938
vt 0.270508 0.508789
vt 0.479492 0.849609
vt 0.173828 0.522461
vt 0.475586 0.816406
vt 0.273438 0.508789
vt 0.173828 0.519531
vt 0.477539 0.819336
vt 0.488281 0.726562
vt 0.479492 0.835938
vt 0.477539 0.852539
vt 0.491211 0.726562
vt 0.479492 0.838867
vt 0.477539 0.816406
vt 0.488281 0.723633
vt 0.175781 0.519531
vt 0.477539 0.849609
vt 0.491211 0.723633
vt 0.175781 0.522461
vt 0.471680 0.497070
vt 0.473633 0.497070
vt 0.474609 0.497070
vt 0.470703 0.497070
vt 0.472656 0.497070
vt 0.474609 0.496094
vt 0.471680 0.496094
vt 0.473633 0.496094
vt 0.475586 0.497070
vt 0.470703 0.496094
vt 0.472656 0.496094
vt 0.475586 0.496094
vt 0.471680 0.497070
vt 0.473633 0.497070
vt 0.475586 0.496094
vt 0.472656 0.497070
vt 0.474609 0.497070
vt 0.475586 0.497070
vt 0.471680 0.496094
vt 0.473633 0.496094
vt 0.476562 0.496094
vt 0.472656 0.496094
vt 0.474609 0.496094
vt 0.476562 0.497070
vt 0.477539 0.497070
vt 0.503906 0.522461
vt 0.502930 0.521484
vt 0.476562 0.497070
vt 0.478516 0.497070
vt 0.502930 0.520508
vt 0.477539 0.496094
vt 0.503906 0.521484
vt 0.479492 0.497070
vt 0.476562 0.496094
vt 0.478516 0.496094
vt 0.479492 0.496094
vt 0.477539 0.497070
vt 0.478516 0.497070
vt 0.503906 0.520508
vt 0.502930 0.522461
vt 0.479492 0.497070
vt 0.503906 0.521484
vt 0.477539 0.496094
vt 0.478516 0.496094
vt 0.480469 0.496094
vt 0.502930 0.521484
vt 0.479492 0.496094
vt 0.480469 0.497070
vt 0.477539 0.754883
vt 0.482422 0.901367
vt 0.486328 0.995117
vt 0.477539 0.938477
vt 0.479492 0.754883
vt 0.486328 0.993164
vt 0.477539 0.751953
vt 0.482422 0.898438
vt 0.486328 0.993164
vt 0.477539 0.935547
vt 0.479492 0.751953
vt 0.486328 0.991211
vt 0.482422 0.938477
vt 0.337891 0.522461
vt 0.491211 0.993164
vt 0.477539 0.901367
vt 0.339844 0.522461
vt 0.491211 0.995117
vt 0.482422 0.935547
vt 0.337891 0.519531
vt 0.491211 0.991211
vt 0.477539 0.898438
vt 0.339844 0.519531
vt 0.491211 0.993164
vt 0.457031 0.907227
vt 0.464844 0.844727
vt 0.435547 0.812500
vt 0.456055 0.595703
vt 0.463867 0.907227
vt 0.435547 0.805664
vt 0.457031 0.903320
vt 0.464844 0.840820
vt 0.435547 0.795898
vt 0.456055 0.591797
vt 0.463867 0.903320
vt 0.435547 0.789062
vt 0.462891 0.595703
vt 0.458008 0.838867
vt 0.442383 0.805664
vt 0.458008 0.844727
vt 0.464844 0.838867
vt 0.442383 0.812500
vt 0.462891 0.591797
vt 0.458008 0.834961
vt 0.442383 0.789062
vt 0.458008 0.840820
vt 0.464844 0.834961
vt 0.442383 0.795898
s 0
usemtl m_8808e6dc-e8b0-3a69-e512-5ca7d68f65d3
f 4/10/1 7/19/1 5/13/1 2/4/1
f 3/7/2 4/11/2 2/5/2 1/1/2
f 8/22/3 3/8/3 1/2/3 6/16/3
f 7/20/4 8/23/4 6/17/4 5/14/4
f 6/18/5 1/3/5 2/6/5 5/15/5
f 7/21/6 4/12/6 3/9/6 8/24/6
f 12/34/7 15/43/7 13/37/7 10/28/7
f 11/31/8 12/35/8 10/29/8 9/25/8
f 16/46/9 11/32/9 9/26/9 14/40/9
f 15/44/10 16/47/10 14/41/10 13/38/10
f 14/42/11 9/27/11 10/30/11 13/39/11
f 15/45/12 12/36/12 11/33/12 16/48/12
f 20/58/13 23/67/13 21/61/13 18/52/13
f 19/55/2 20/59/2 18/53/2 17/49/2
f 24/70/14 19/56/14 17/50/14 22/64/14
f 23/68/4 24/71/4 22/65/4 21/62/4
f 22/66/15 17/51/15 18/54/15 21/63/15
f 23/69/16 20/60/16 19/57/16 24/72/16
f 28/82/7 31/91/7 29/85/7 26/76/7
f 27/79/2 28/83/2 26/77/2 25/73/2
f 32/94/9 27/80/9 25/74/9 30/88/9
f 31/92/4 32/95/4 30/89/4 29/86/4
f 30/90/17 25/75/17 26/78/17 29/87/17
f 31/93/18 28/84/18 27/81/18 32/96/18
f 36/106/19 39/115/19 37/109/19 34/100/19
f 35/103/2 36/107/2 34/101/2 33/97/2
f 40/118/20 35/104/20 33/98/20 38/112/20
f 39/116/4 40/119/4 38/113/4 37/110/4
f 38/114/21 33/99/21 34/102/21 37/111/21
f 39/117/22 36/108/22 35/105/22 40/120/22
f 44/130/1 47/139/1 45/133/1 42/124/1
f 43/127/2 44/131/2 42/125/2 41/121/2
f 48/142/3 43/128/3 41/122/3 46/136/3
f 47/140/4 48/143/4 46/137/4 45/134/4
f 46/138/5 41/123/5 42/126/5 45/135/5
f 47/141/6 44/132/6 43/129/6 48/144/6
f 52/154/19 55/163/19 53/157/19 50/148/19
f 51/151/2 52/155/2 50/149/2 49/145/2
f 56/166/20 51/152/20 49/146/20 54/160/20
f 55/164/4 56/167/4 54/161/4 53/158/4
f 54/162/21 49/147/21 50/150/21 53/159/21
f 55/165/22 52/156/22 51/153/22 56/168/22
f 60/178/19 63/187/19 61/181/19 58/172/19
f 59/175/23 60/179/23 58/173/23 57/169/23
f 64/190/20 59/176/20 57/170/20 62/184/20
f 63/188/24 64/191/24 62/185/24 61/182/24
f 62/186/25 57/171/25 58/174/25 61/183/25
f 63/189/26 60/180/26 59/177/26 64/192/26
f 68/202/27 71/211/27 69/205/27 66/196/27
f 67/199/2 68/203/2 66/197/2 65/193/2
f 72/214/28 67/200/28 65/194/28 70/208/28
f 71/212/4 72/215/4 70/209/4 69/206/4
f 70/210/29 65/195/29 66/198/29 69/207/29
f 71/213/30 68/204/30 67/201/30 72/216/30
f 76/226/31 79/235/31 77/229/31 74/220/31
f 75/223/2 76/227/2 74/221/2 73/217/2
f 80/238/32 75/224/32 73/218/32 78/232/32
f 79/236/4 80/239/4 78/233/4 77/230/4
f 78/234/33 73/219/33 74/222/33 77/231/33
f 79/237/34 76/228/34 75/225/34 80/240/34
f 84/250/19 87/259/19 85/253/19 82/244/19
f 83/247/2 84/251/2 82/245/2 81/241/2
f 88/262/20 83/248/20 81/242/20 86/256/20
f 87/260/4 88/263/4 86/257/4 85/254/4
f 86/258/21 81/243/21 82/246/21 85/255/21
f 87/261/22 84/252/22 83/249/22 88/264/22
f 92/274/19 95/283/19 93/277/19 90/268/19
f 91/271/2 92/275/2 90/269/2 89/265/2
f 96/286/20 91/272/20 89/266/20 94/280/20
f 95/284/4 96/287/4 94/281/4 93/278/4
f 94/282/21 89/267/21 90/270/21 93/279/21
f 95/285/22 92/276/22 91/273/22 96/288/22
f 100/298/7 103/307/7 101/301/7 98/292/7
f 99/295/35 100/299/35 98/293/35 97/289/35
f 104/310/9 99/296/9 97/290/9 102/304/9
f 103/308/36 104/311/36 102/305/36 101/302/36
f 102/306/37 97/291/37 98/294/37 101/303/37
f 103/309/38 100/300/38 99/297/38 104/312/38
f 108/322/39 111/331/39 109/325/39 106/316/39
f 107/319/7 108/323/7 106/317/7 105/313/7
f 112/334/40 107/320/40 105/314/40 110/328/40
f 111/332/9 112/335/9 110/329/9 109/326/9
f 110/330/41 105/315/41 106/318/41 109/327/41
f 111/333/42 108/324/42 107/321/42 112/336/42
f 116/346/43 119/355/43 117/349/43 114/340/43
f 115/343/7 116/347/7 114/341/7 113/337/7
f 120/358/44 115/344/44 113/338/44 118/352/44
f 119/356/9 120/359/9 118/353/9 117/350/9
f 118/354/45 113/339/45 114/342/45 117/351/45
f 119/357/46 116/348/46 115/345/46 120/360/46
f 124/370/42 127/379/42 125/373/42 122/364/42
f 123/367/7 124/371/7 122/365/7 121/361/7
f 128/382/41 123/368/41 121/362/41 126/376/41
f 127/380/9 128/383/9 126/377/9 125/374/9
f 126/378/39 121/363/39 122/366/39 125/375/39
f 127/381/47 124/372/47 123/369/47 128/384/47
f 132/394/46 135/403/46 133/397/46 130/388/46
f 131/391/7 132/395/7 130/389/7 129/385/7
f 136/406/45 131/392/45 129/386/45 134/400/45
f 135/404/9 136/407/9 134/401/9 133/398/9
f 134/402/43 129/387/43 130/390/43 133/399/43
f 135/405/44 132/396/44 131/393/44 136/408/44
f 140/418/43 143/427/43 141/421/43 138/412/43
f 139/415/7 140/419/7 138/413/7 137/409/7
f 144/430/44 139/416/44 137/410/44 142/424/44
f 143/428/9 144/431/9 142/425/9 141/422/9
f 142/426/45 137/411/45 138/414/45 141/423/45
f 143/429/46 140/420/46 139/417/46 144/432/46
f 148/442/39 151/451/39 149/445/39 146/436/39
f 147/439/7 148/443/7 146/437/7 145/433/7
f 152/454/47 147/440/47 145/434/47 150/448/47
f 151/452/9 152/455/9 150/449/9 149/446/9
f 150/450/41 145/435/41 146/438/41 149/447/41
f 151/453/42 148/444/42 147/441/42 152/456/42
f 156/466/42 159/475/42 157/469/42 154/460/42
f 155/463/7 156/467/7 154/461/7 153/457/7
f 160/478/41 155/464/41 153/458/41 158/472/41
f 159/476/9 160/479/9 158/473/9 157/470/9
f 158/474/39 153/459/39 154/462/39 157/471/39
f 159/477/47 156/468/47 155/465/47 160/480/47
f 164/490/46 167/499/46 165/493/46 162/484/46
f 163/487/7 164/491/7 162/485/7 161/481/7
f 168/502/45 163/488/45 161/482/45 166/496/45
f 167/500/9 168/503/9 166/497/9 165/494/9
f 166/498/43 161/483/43 162/486/43 165/495/43
f 167/501/44 164/492/44 163/489/44 168/504/44
f 172/514/48 175/523/48 173/517/48 170/508/48
f 171/511/49 172/515/49 170/509/49 169/505/49
f 176/526/50 171/512/50 169/506/50 174/520/50
f 175/524/51 176/527/51 174/521/51 173/518/51
f 174/522/52 169/507/52 170/510/52 173/519/52
f 175/525/53 172/516/53 171/513/53 176/528/53
f 180/538/48 183/547/48 181/541/48 178/532/48
f 179/535/49 180/539/49 178/533/49 177/529/49
f 184/550/50 179/536/50 177/530/50 182/544/50
f 183/548/51 184/551/51 182/545/51 181/542/51
f 182/546/52 177/531/52 178/534/52 181/543/52
f 183/549/53 180/540/53 179/537/53 184/552/53
f 188/562/48 191/571/48 189/565/48 186/556/48
f 187/559/49 188/563/49 186/557/49 185/553/49
f 192/574/50 187/560/50 185/554/50 190/568/50
f 191/572/51 192/575/51 190/569/51 189/566/51
f 190/570/52 185/555/52 186/558/52 189/567/52
f 191/573/53 188/564/53 187/561/53 192/576/53
f 196/586/51 199/595/51 197/589/51 194/580/51
f 195/583/48 196/587/48 194/581/48 193/577/48
f 200/598/49 195/584/49 193/578/49 198/592/49
f 199/596/50 200/599/50 198/593/50 197/590/50
f 198/594/52 193/579/52 194/582/52 197/591/52
f 199/597/53 196/588/53 195/585/53 200/600/53
f 204/610/54 207/619/54 205/613/54 202/604/54
f 203/607/9 204/611/9 202/605/9 201/601/9
f 208/622/55 203/608/55 201/602/55 206/616/55
f 207/620/7 208/623/7 206/617/7 205/614/7
f 206/618/56 201/603/56 202/606/56 205/615/56
f 207/621/57 204/612/57 203/609/57 208/624/57
f 212/634/51 215/643/51 213/637/51 210/628/51
f 211/631/48 212/635/48 210/629/48 209/625/48
f 216/646/49 211/632/49 209/626/49 214/640/49
f 215/644/50 216/647/50 214/641/50 213/638/50
f 214/642/52 209/627/52 210/630/52 213/639/52
f 215/645/53 212/636/53 211/633/53 216/648/53
f 220/658/51 223/667/51 221/661/51 218/652/51
f 219/655/48 220/659/48 218/653/48 217/649/48
f 224/670/49 219/656/49 217/650/49 222/664/49
f 223/668/50 224/671/50 222/665/50 221/662/50
f 222/666/52 217/651/52 218/654/52 221/663/52
f 223/669/53 220/660/53 219/657/53 224/672/53
f 228/682/58 231/691/58 229/685/58 226/676/58
f 227/679/59 228/683/59 226/677/59 225/673/59
f 232/694/60 227/680/60 225/674/60 230/688/60
f 231/692/61 232/695/61 230/689/61 229/686/61
f 230/690/62 225/675/62 226/678/62 229/687/62
f 231/693/63 228/684/63 227/681/63 232/696/63
f 236/706/64 239/715/64 237/709/64 234/700/64
f 235/703/65 236/707/65 234/701/65 233/697/65
f 240/718/66 235/704/66 233/698/66 238/712/66
f 239/716/67 240/719/67 238/713/67 237/710/67
f 238/714/68 233/699/68 234/702/68 237/711/68
f 239/717/69 236/708/69 235/705/69 240/720/69
f 244/730/70 247/739/70 245/733/70 242/724/70
f 243/727/71 244/731/71 242/725/71 241/721/71
f 248/742/72 243/728/72 241/722/72 246/736/72
f 247/740/73 248/743/73 246/737/73 245/734/73
f 246/738/62 241/723/62 242/726/62 245/735/62
f 247/741/63 244/732/63 243/729/63 248/744/63
f 252/754/74 255/763/74 253/757/74 250/748/74
f 251/751/75 252/755/75 250/749/75 249/745/75
f 256/766/76 251/752/76 249/746/76 254/760/76
f 255/764/77 256/767/77 254/761/77 253/758/77
f 254/762/78 249/747/78 250/750/78 253/759/78
f 255/765/79 252/756/79 251/753/79 256/768/79
f 260/778/80 263/787/80 261/781/80 258/772/80
f 259/775/81 260/779/81 258/773/81 257/769/81
f 264/790/82 259/776/82 257/770/82 262/784/82
f 263/788/83 264/791/83 262/785/83 261/782/83
f 262/786/84 257/771/84 258/774/84 261/783/84
f 263/789/85 260/780/85 259/777/85 264/792/85
f 268/802/86 271/811/86 269/805/86 266/796/86
f 267/799/87 268/803/87 266/797/87 265/793/87
f 272/814/88 267/800/88 265/794/88 270/808/88
f 271/812/89 272/815/89 270/809/89 269/806/89
f 270/810/90 265/795/90 266/798/90 269/807/90
f 271/813/91 268/804/91 267/801/91 272/816/91
f 276/826/92 279/835/92 277/829/92 274/820/92
f 275/823/81 276/827/81 274/821/81 273/817/81
f 280/838/93 275/824/93 273/818/93 278/832/93
f 279/836/83 280/839/83 278/833/83 277/830/83
f 278/834/94 273/819/94 274/822/94 277/831/94
f 279/837/95 276/828/95 275/825/95 280/840/95
f 284/850/96 287/859/96 285/853/96 282/844/96
f 283/847/97 284/851/97 282/845/97 281/841/97
f 288/862/98 283/848/98 281/842/98 286/856/98
f 287/860/99 288/863/99 286/857/99 285/854/99
f 286/858/78 281/843/78 282/846/78 285/855/78
f 287/861/79 284/852/79 283/849/79 288/864/79
f 292/874/100 295/883/100 293/877/100 290/868/100
f 291/871/101 292/875/101 290/869/101 289/865/101
f 296/886/102 291/872/102 289/866/102 294/880/102
f 295/884/103 296/887/103 294/881/103 293/878/103
f 294/882/94 289/867/94 290/870/94 293/879/94
f 295/885/95 292/876/95 291/873/95 296/888/95
f 300/898/104 303/907/104 301/901/104 298/892/104
f 299/895/2 300/899/2 298/893/2 297/889/2
f 304/910/105 299/896/105 297/890/105 302/904/105
f 303/908/4 304/911/4 302/905/4 301/902/4
f 302/906/106 297/891/106 298/894/106 301/903/106
f 303/909/107 300/900/107 299/897/107 304/912/107
f 308/922/108 311/931/108 309/925/108 306/916/108
f 307/919/109 308/923/109 306/917/109 305/913/109
f 312/934/110 307/920/110 305/914/110 310/928/110
f 311/932/111 312/935/111 310/929/111 309/926/111
f 310/930/112 305/915/112 306/918/112 309/927/112
f 311/933/113 308/924/113 307/921/113 312/936/113
f 316/946/114 319/955/114 317/949/114 314/940/114
f 315/943/2 316/947/2 314/941/2 313/937/2
f 320/958/115 315/944/115 313/938/115 318/952/115
f 319/956/4 320/959/4 318/953/4 317/950/4
f 318/954/116 313/939/116 314/942/116 317/951/116
f 319/957/117 316/948/117 315/945/117 320/960/117
f 324/970/118 327/979/118 325/973/118 322/964/118
f 323/967/18 324/971/18 322/965/18 321/961/18
f 328/982/119 323/968/119 321/962/119 326/976/119
f 327/980/17 328/983/17 326/977/17 325/974/17
f 326/978/68 321/963/68 322/966/68 325/975/68
f 327/981/69 324/972/69 323/969/69 328/984/69
f 332/994/120 335/1003/120 333/997/120 330/988/120
f 331/991/121 332/995/121 330/989/121 329/985/121
f 336/1006/122 331/992/122 329/986/122 334/1000/122
f 335/1004/123 336/1007/123 334/1001/123 333/998/123
f 334/1002/94 329/987/94 330/990/94 333/999/94
f 335/1005/95 332/996/95 331/993/95 336/1008/95
f 340/1018/124 343/1027/124 341/1021/124 338/1012/124
f 339/1015/125 340/1019/125 338/1013/125 337/1009/125
f 344/1030/126 339/1016/126 337/1010/126 342/1024/126
f 343/1028/127 344/1031/127 342/1025/127 341/1022/127
f 342/1026/68 337/1011/68 338/1014/68 341/1023/68
f 343/1029/69 340/1020/69 339/1017/69 344/1032/69
f 348/1042/128 351/1051/128 349/1045/128 346/1036/128
f 347/1039/2 348/1043/2 346/1037/2 345/1033/2
f 352/1054/129 347/1040/129 345/1034/129 350/1048/129
f 351/1052/4 352/1055/4 350/1049/4 349/1046/4
f 350/1050/130 345/1035/130 346/1038/130 349/1047/130
f 351/1053/131 348/1044/131 347/1041/131 352/1056/131
f 356/1066/132 359/1075/132 357/1069/132 354/1060/132
f 355/1063/2 356/1067/2 354/1061/2 353/1057/2
f 360/1078/133 355/1064/133 353/1058/133 358/1072/133
f 359/1076/4 360/1079/4 358/1073/4 357/1070/4
f 358/1074/134 353/1059/134 354/1062/134 357/1071/134
f 359/1077/135 356/1068/135 355/1065/135 360/1080/135
f 364/1090/104 367/1099/104 365/1093/104 362/1084/104
f 363/1087/2 364/1091/2 362/1085/2 361/1081/2
f 368/1102/105 363/1088/105 361/1082/105 366/1096/105
f 367/1100/4 368/1103/4 366/1097/4 365/1094/4
f 366/1098/106 361/1083/106 362/1086/106 365/1095/106
f 367/1101/107 364/1092/107 363/1089/107 368/1104/107
f 372/1114/136 375/1123/136 373/1117/136 370/1108/136
f 371/1111/137 372/1115/137 370/1109/137 369/1105/137
f 376/1126/138 371/1112/138 369/1106/138 374/1120/138
f 375/1124/139 376/1127/139 374/1121/139 373/1118/139
f 374/1122/140 369/1107/140 370/1110/140 373/1119/140
f 375/1125/141 372/1116/141 371/1113/141 376/1128/141
f 380/1138/142 383/1147/142 381/1141/142 378/1132/142
f 379/1135/143 380/1139/143 378/1133/143 377/1129/143
f 384/1150/144 379/1136/144 377/1130/144 382/1144/144
f 383/1148/145 384/1151/145 382/1145/145 381/1142/145
f 382/1146/146 377/1131/146 378/1134/146 381/1143/146
f 383/1149/147 380/1140/147 379/1137/147 384/1152/147
f 388/1162/148 391/1171/148 389/1165/148 386/1156/148
f 387/1159/149 388/1163/149 386/1157/149 385/1153/149
f 392/1174/150 387/1160/150 385/1154/150 390/1168/150
f 391/1172/151 392/1175/151 390/1169/151 389/1166/151
f 390/1170/140 385/1155/140 386/1158/140 389/1167/140
f 391/1173/141 388/1164/141 387/1161/141 392/1176/141
f 396/1186/152 399/1195/152 397/1189/152 394/1180/152
f 395/1183/153 396/1187/153 394/1181/153 393/1177/153
f 400/1198/154 395/1184/154 393/1178/154 398/1192/154
f 399/1196/155 400/1199/155 398/1193/155 397/1190/155
f 398/1194/140 393/1179/140 394/1182/140 397/1191/140
f 399/1197/141 396/1188/141 395/1185/141 400/1200/141
f 404/1210/156 407/1219/156 405/1213/156 402/1204/156
f 403/1207/17 404/1211/17 402/1205/17 401/1201/17
f 408/1222/157 403/1208/157 401/1202/157 406/1216/157
f 407/1220/18 408/1223/18 406/1217/18 405/1214/18
f 406/1218/158 401/1203/158 402/1206/158 405/1215/158
f 407/1221/159 404/1212/159 403/1209/159 408/1224/159
f 412/1234/160 415/1243/160 413/1237/160 410/1228/160
f 411/1231/161 412/1235/161 410/1229/161 409/1225/161
f 416/1246/162 411/1232/162 409/1226/162 414/1240/162
f 415/1244/163 416/1247/163 414/1241/163 413/1238/163
f 414/1242/158 409/1227/158 410/1230/158 413/1239/158
f 415/1245/159 412/1236/159 411/1233/159 416/1248/159
f 420/1258/164 423/1267/164 421/1261/164 418/1252/164
f 419/1255/165 420/1259/165 418/1253/165 417/1249/165
f 424/1270/166 419/1256/166 417/1250/166 422/1264/166
f 423/1268/167 424/1271/167 422/1265/167 421/1262/167
f 422/1266/168 417/1251/168 418/1254/168 421/1263/168
f 423/1269/169 420/1260/169 419/1257/169 424/1272/169
f 428/1282/170 431/1291/170 429/1285/170 426/1276/170
f 427/1279/171 428/1283/171 426/1277/171 425/1273/171
f 432/1294/172 427/1280/172 425/1274/172 430/1288/172
f 431/1292/173 432/1295/173 430/1289/173 429/1286/173
f 430/1290/158 425/1275/158 426/1278/158 429/1287/158
f 431/1293/159 428/1284/159 427/1281/159 432/1296/159
f 436/1306/174 439/1315/174 437/1309/174 434/1300/174
f 435/1303/175 436/1307/175 434/1301/175 433/1297/175
f 440/1318/176 435/1304/176 433/1298/176 438/1312/176
f 439/1316/177 440/1319/177 438/1313/177 437/1310/177
f 438/1314/168 433/1299/168 434/1302/168 437/1311/168
f 439/1317/169 436/1308/169 435/1305/169 440/1320/169
f 444/1330/178 447/1339/178 445/1333/178 442/1324/178
f 443/1327/179 444/1331/179 442/1325/179 441/1321/179
f 448/1342/180 443/1328/180 441/1322/180 446/1336/180
f 447/1340/181 448/1343/181 446/1337/181 445/1334/181
f 446/1338/182 441/1323/182 442/1326/182 445/1335/182
f 447/1341/183 444/1332/183 443/1329/183 448/1344/183
f 452/1354/184 455/1363/184 453/1357/184 450/1348/184
f 451/1351/185 452/1355/185 450/1349/185 449/1345/185
f 456/1366/186 451/1352/186 449/1346/186 454/1360/186
f 455/1364/187 456/1367/187 454/1361/187 453/1358/187
f 454/1362/182 449/1347/182 450/1350/182 453/1359/182
f 455/1365/183 452/1356/183 451/1353/183 456/1368/183
f 460/1378/17 463/1387/17 461/1381/17 458/1372/17
f 459/1375/4 460/1379/4 458/1373/4 457/1369/4
f 464/1390/18 459/1376/18 457/1370/18 462/1384/18
f 463/1388/2 464/1391/2 462/1385/2 461/1382/2
f 462/1386/7 457/1371/7 458/1374/7 461/1383/7
f 463/1389/9 460/1380/9 459/1377/9 464/1392/9
f 468/1402/188 471/1411/188 469/1405/188 466/1396/188
f 467/1399/4 468/1403/4 466/1397/4 465/1393/4
f 472/1414/189 467/1400/189 465/1394/189 470/1408/189
f 471/1412/2 472/1415/2 470/1409/2 469/1406/2
f 470/1410/190 465/1395/190 466/1398/190 469/1407/190
f 471/1413/191 468/1404/191 467/1401/191 472/1416/191
f 476/1426/188 479/1435/188 477/1429/188 474/1420/188
f 475/1423/4 476/1427/4 474/1421/4 473/1417/4
f 480/1438/189 475/1424/189 473/1418/189 478/1432/189
f 479/1436/2 480/1439/2 478/1433/2 477/1430/2
f 478/1434/190 473/1419/190 474/1422/190 477/1431/190
f 479/1437/191 476/1428/191 475/1425/191 480/1440/191
f 484/1450/192 487/1459/192 485/1453/192 482/1444/192
f 483/1447/9 484/1451/9 482/1445/9 481/1441/9
f 488/1462/193 483/1448/193 481/1442/193 486/1456/193
f 487/1460/7 488/1463/7 486/1457/7 485/1454/7
f 486/1458/194 481/1443/194 482/1446/194 485/1455/194
f 487/1461/195 484/1452/195 483/1449/195 488/1464/195
f 492/1473/196 495/1481/196 493/1475/196 490/1468/196
f 491/1470/9 492/1473/9 490/1468/9 489/1465/9
f 496/1484/197 491/1471/197 489/1466/197 494/1478/197
f 495/1482/7 496/1485/7 494/1479/7 493/1476/7
f 494/1480/198 489/1467/198 490/1469/198 493/1477/198
f 495/1483/199 492/1474/199 491/1472/199 496/1486/199
f 500/1496/17 503/1505/17 501/1499/17 498/1490/17
f 499/1493/9 500/1497/9 498/1491/9 497/1487/9
f 504/1508/18 499/1494/18 497/1488/18 502/1502/18
f 503/1506/7 504/1509/7 502/1503/7 501/1500/7
f 502/1504/4 497/1489/4 498/1492/4 501/1501/4
f 503/1507/2 500/1498/2 499/1495/2 504/1510/2
f 508/1520/200 511/1529/200 509/1523/200 506/1514/200
f 507/1517/9 508/1521/9 506/1515/9 505/1511/9
f 512/1532/201 507/1518/201 505/1512/201 510/1526/201
f 511/1530/7 512/1533/7 510/1527/7 509/1524/7
f 510/1528/202 505/1513/202 506/1516/202 509/1525/202
f 511/1531/203 508/1522/203 507/1519/203 512/1534/203
f 516/1544/54 519/1553/54 517/1547/54 514/1538/54
f 515/1541/9 516/1545/9 514/1539/9 513/1535/9
f 520/1556/55 515/1542/55 513/1536/55 518/1550/55
f 519/1554/7 520/1557/7 518/1551/7 517/1548/7
f 518/1552/56 513/1537/56 514/1540/56 517/1549/56
f 519/1555/57 516/1546/57 515/1543/57 520/1558/57
f 524/1568/200 527/1577/200 525/1571/200 522/1562/200
f 523/1565/9 524/1569/9 522/1563/9 521/1559/9
f 528/1580/201 523/1566/201 521/1560/201 526/1574/201
f 527/1578/7 528/1581/7 526/1575/7 525/1572/7
f 526/1576/202 521/1561/202 522/1564/202 525/1573/202
f 527/1579/203 524/1570/203 523/1567/203 528/1582/203
f 532/1592/196 535/1601/196 533/1595/196 530/1586/196
f 531/1589/9 532/1593/9 530/1587/9 529/1583/9
f 536/1604/197 531/1590/197 529/1584/197 534/1598/197
f 535/1602/7 536/1605/7 534/1599/7 533/1596/7
f 534/1600/198 529/1585/198 530/1588/198 533/1597/198
f 535/1603/199 532/1594/199 531/1591/199 536/1606/199
f 540/1616/54 543/1625/54 541/1619/54 538/1610/54
f 539/1613/9 540/1617/9 538/1611/9 537/1607/9
f 544/1628/55 539/1614/55 537/1608/55 542/1622/55
f 543/1626/7 544/1629/7 542/1623/7 541/1620/7
f 542/1624/56 537/1609/56 538/1612/56 541/1621/56
f 543/1627/57 540/1618/57 539/1615/57 544/1630/57
f 548/1640/54 551/1649/54 549/1643/54 546/1634/54
f 547/1637/9 548/1641/9 546/1635/9 545/1631/9
f 552/1652/55 547/1638/55 545/1632/55 550/1646/55
f 551/1650/7 552/1653/7 550/1647/7 549/1644/7
f 550/1648/56 545/1633/56 546/1636/56 549/1645/56
f 551/1651/57 548/1642/57 547/1639/57 552/1654/57
f 556/1664/56 559/1673/56 557/1667/56 554/1658/56
f 555/1661/9 556/1665/9 554/1659/9 553/1655/9
f 560/1676/57 555/1662/57 553/1656/57 558/1670/57
f 559/1674/7 560/1677/7 558/1671/7 557/1668/7
f 558/1672/55 553/1657/55 554/1660/55 557/1669/55
f 559/1675/54 556/1666/54 555/1663/54 560/1678/54
f 564/1688/196 567/1697/196 565/1691/196 562/1682/196
f 563/1685/9 564/1689/9 562/1683/9 561/1679/9
f 568/1700/197 563/1686/197 561/1680/197 566/1694/197
f 567/1698/7 568/1701/7 566/1695/7 565/1692/7
f 566/1696/198 561/1681/198 562/1684/198 565/1693/198
f 567/1699/199 564/1690/199 563/1687/199 568/1702/199
f 572/1712/196 575/1721/196 573/1715/196 570/1706/196
f 571/1709/9 572/1713/9 570/1707/9 569/1703/9
f 576/1724/197 571/1710/197 569/1704/197 574/1718/197
f 575/1722/7 576/1725/7 574/1719/7 573/1716/7
f 574/1720/198 569/1705/198 570/1708/198 573/1717/198
f 575/1723/199 572/1714/199 571/1711/199 576/1726/199
f 580/1736/196 583/1745/196 581/1739/196 578/1730/196
f 579/1733/9 580/1737/9 578/1731/9 577/1727/9
f 584/1748/197 579/1734/197 577/1728/197 582/1742/197
f 583/1746/7 584/1749/7 582/1743/7 581/1740/7
f 582/1744/198 577/1729/198 578/1732/198 581/1741/198
f 583/1747/199 580/1738/199 579/1735/199 584/1750/199
f 588/1760/196 591/1769/196 589/1763/196 586/1754/196
f 587/1757/9 588/1761/9 586/1755/9 585/1751/9
f 592/1772/197 587/1758/197 585/1752/197 590/1766/197
f 591/1770/7 592/1773/7 590/1767/7 589/1764/7
f 590/1768/198 585/1753/198 586/1756/198 589/1765/198
f 591/1771/199 588/1762/199 587/1759/199 592/1774/199
f 596/1784/199 599/1793/199 597/1787/199 594/1778/199
f 595/1781/9 596/1785/9 594/1779/9 593/1775/9
f 600/1796/198 595/1782/198 593/1776/198 598/1790/198
f 599/1794/7 600/1797/7 598/1791/7 597/1788/7
f 598/1792/196 593/1777/196 594/1780/196 597/1789/196
f 599/1795/197 596/1786/197 595/1783/197 600/1798/197
o gun
v -0.413902 2.106651 -0.311612
v -0.413902 2.106651 -0.744322
v -0.413902 1.822298 -0.311612
v -0.413902 1.822298 -0.744322
v -0.711522 2.106651 -0.744322
v -0.711522 2.106651 -0.311612
v -0.711522 1.822298 -0.744322
v -0.711522 1.822298 -0.311612
v 0.271349 2.106651 -0.082894
v 0.271349 2.106651 -1.010130
v 0.271349 1.816569 -0.082894
v 0.271349 1.816568 -1.010130
v -0.148998 2.106651 -1.010130
v -0.148998 2.106651 -0.082894
v -0.148998 1.816568 -1.010130
v -0.148998 1.816569 -0.082893
v 0.271349 1.816568 -0.436600
v 0.271349 1.816568 -0.892228
v 0.271349 1.698666 -0.436600
v 0.271349 1.698666 -0.892228
v -0.148998 1.816568 -0.892228
v -0.148998 1.816568 -0.436600
v -0.148998 1.698666 -0.892228
v -0.148998 1.698666 -0.436600
v -0.519893 2.168466 -0.126164
v -0.519893 2.168466 -0.806138
v -0.519893 1.760483 -0.126164
v -0.519893 1.760482 -0.806138
v -0.649706 2.168466 -0.806138
v -0.649706 2.168466 -0.126164
v -0.649706 1.760482 -0.806138
v -0.649706 1.760483 -0.126164
v -0.558111 2.093668 0.098679
v -0.558111 2.093668 -0.148584
v -0.558111 1.994763 0.098679
v -0.558111 1.994763 -0.148584
v -0.644653 2.093668 -0.148584
v -0.644653 2.093668 0.098679
v -0.644653 1.994763 -0.148584
v -0.644653 1.994763 0.098679
v 0.057502 1.925415 2.651763
v 0.057502 1.925415 2.589947
v -0.003692 1.864221 2.651763
v -0.003692 1.864221 2.589947
v -0.003692 1.986610 2.589947
v -0.003692 1.986610 2.651763
v -0.064887 1.925415 2.589947
v -0.064887 1.925415 2.651763
v 0.066244 1.925415 0.506756
v 0.066244 1.925415 -0.173217
v -0.003693 1.855478 0.506757
v -0.003693 1.855478 -0.173217
v -0.003693 1.995351 -0.173217
v -0.003693 1.995351 0.506756
v -0.073629 1.925415 -0.173217
v -0.073629 1.925415 0.506757
v -0.576893 2.046280 0.431069
v -0.576893 2.046280 0.077363
v -0.601904 2.021269 0.431069
v -0.601904 2.021269 0.077363
v -0.601904 2.071290 0.077363
v -0.601904 2.071291 0.431069
v -0.626915 2.046280 0.077363
v -0.626915 2.046280 0.431069
v 0.040018 1.925415 2.695034
v 0.040018 1.925415 0.469667
v -0.003692 1.881705 2.695034
v -0.003693 1.881704 0.469667
v -0.003693 1.969125 0.469667
v -0.003692 1.969126 2.695034
v -0.047403 1.925415 0.469667
v -0.047403 1.925415 2.695034
v 0.057502 1.925415 2.163419
v 0.057502 1.925415 2.101603
v -0.003692 1.864221 2.163419
v -0.003692 1.864221 2.101603
v -0.003692 1.986609 2.101603
v -0.003692 1.986609 2.163419
v -0.064887 1.925415 2.101603
v -0.064887 1.925415 2.163419
v -0.008265 2.418124 0.041313
v -0.008265 2.418124 -0.081082
v 0.191928 2.217931 0.041313
v 0.191928 2.217931 -0.081082
v -0.204087 2.222302 -0.081082
v -0.204087 2.222302 0.041313
v -0.003894 2.022109 -0.081082
v -0.003894 2.022109 0.041313
v -0.111641 2.321947 -0.082319
v -0.111641 2.321947 -0.204714
v 0.097296 2.321947 -0.082319
v 0.097296 2.321947 -0.204714
v -0.111641 2.062971 -0.204714
v -0.111641 2.062971 -0.082318
v 0.097296 2.062971 -0.204714
v 0.097296 2.062971 -0.082319
v -0.008265 2.365672 0.096622
v -0.008265 2.365672 0.036042
v 0.139476 2.217931 0.096622
v 0.139476 2.217931 0.036042
v -0.156006 2.217931 0.036042
v -0.156006 2.217931 0.096622
v -0.008265 2.070190 0.036042
v -0.008265 2.070190 0.096622
vn -0.0000 -0.0000 -1.0000
vn 1.0000 -0.0000 -0.0000
vn -0.0000 -0.0000 1.0000
vn -1.0000 -0.0000 -0.0000
vn -0.0000 1.0000 -0.0000
vn -0.0000 -1.0000 -0.0000
vn 0.7071 -0.7071 -0.0000
vn -0.7071 0.7071 -0.0000
vn 0.7071 0.7071 -0.0000
vn -0.7071 -0.7071 -0.0000
vt 0.449219 0.733398
vt 0.433594 0.540039
vt 0.410156 0.550781
vt 0.459961 0.620117
vt 0.456055 0.733398
vt 0.410156 0.543945
vt 0.449219 0.728516
vt 0.433594 0.535156
vt 0.449219 0.551758
vt 0.459961 0.615234
vt 0.456055 0.728516
vt 0.449219 0.544922
vt 0.464844 0.620117
vt 0.449219 0.668945
vt 0.415039 0.543945
vt 0.428711 0.540039
vt 0.456055 0.668945
vt 0.415039 0.550781
vt 0.464844 0.615234
vt 0.449219 0.664062
vt 0.454102 0.544922
vt 0.428711 0.535156
vt 0.456055 0.664062
vt 0.454102 0.551758
vt 0.409180 0.884766
vt 0.455078 0.588867
vt 0.196289 0.622070
vt 0.448242 0.754883
vt 0.424805 0.884766
vt 0.196289 0.606445
vt 0.409180 0.879883
vt 0.455078 0.583984
vt 0.377930 0.668945
vt 0.448242 0.750000
vt 0.424805 0.879883
vt 0.377930 0.653320
vt 0.455078 0.754883
vt 0.410156 0.805664
vt 0.203125 0.606445
vt 0.448242 0.588867
vt 0.425781 0.805664
vt 0.203125 0.622070
vt 0.455078 0.750000
vt 0.410156 0.800781
vt 0.384766 0.653320
vt 0.448242 0.583984
vt 0.425781 0.800781
vt 0.384766 0.668945
vt 0.472656 0.972656
vt 0.487305 0.889648
vt 0.333008 0.570312
vt 0.480469 0.904297
vt 0.480469 0.972656
vt 0.333008 0.562500
vt 0.472656 0.970703
vt 0.487305 0.887695
vt 0.430664 0.927734
vt 0.480469 0.902344
vt 0.480469 0.970703
vt 0.430664 0.919922
vt 0.487305 0.904297
vt 0.472656 0.969727
vt 0.339844 0.562500
vt 0.480469 0.889648
vt 0.480469 0.969727
vt 0.339844 0.570312
vt 0.487305 0.902344
vt 0.472656 0.967773
vt 0.437500 0.919922
vt 0.480469 0.887695
vt 0.480469 0.967773
vt 0.437500 0.927734
vt 0.407227 0.733398
vt 0.458984 0.523438
vt 0.178711 0.536133
vt 0.385742 0.523438
vt 0.418945 0.733398
vt 0.178711 0.524414
vt 0.407227 0.726562
vt 0.458984 0.516602
vt 0.180664 0.536133
vt 0.385742 0.516602
vt 0.418945 0.726562
vt 0.180664 0.524414
vt 0.387695 0.523438
vt 0.408203 0.900391
vt 0.180664 0.524414
vt 0.457031 0.523438
vt 0.419922 0.900391
vt 0.180664 0.536133
vt 0.387695 0.516602
vt 0.408203 0.893555
vt 0.182617 0.524414
vt 0.457031 0.516602
vt 0.419922 0.893555
vt 0.182617 0.536133
vt 0.393555 0.508789
vt 0.353516 0.497070
vt 0.160156 0.499023
vt 0.502930 0.648438
vt 0.397461 0.508789
vt 0.160156 0.495117
vt 0.393555 0.506836
vt 0.353516 0.495117
vt 0.161133 0.499023
vt 0.502930 0.646484
vt 0.397461 0.506836
vt 0.161133 0.495117
vt 0.503906 0.648438
vt 0.491211 0.601562
vt 0.161133 0.495117
vt 0.352539 0.497070
vt 0.495117 0.601562
vt 0.161133 0.499023
vt 0.503906 0.646484
vt 0.491211 0.599609
vt 0.162109 0.495117
vt 0.352539 0.495117
vt 0.495117 0.599609
vt 0.162109 0.499023
vt 0.136719 0.496094
vt 0.138672 0.496094
vt 0.140625 0.496094
vt 0.135742 0.496094
vt 0.137695 0.496094
vt 0.140625 0.495117
vt 0.136719 0.495117
vt 0.138672 0.495117
vt 0.141602 0.496094
vt 0.135742 0.495117
vt 0.137695 0.495117
vt 0.141602 0.495117
vt 0.136719 0.496094
vt 0.139648 0.496094
vt 0.141602 0.495117
vt 0.137695 0.496094
vt 0.140625 0.496094
vt 0.141602 0.496094
vt 0.136719 0.495117
vt 0.139648 0.495117
vt 0.142578 0.495117
vt 0.137695 0.495117
vt 0.140625 0.495117
vt 0.142578 0.496094
vt 0.460938 0.846680
vt 0.502930 0.849609
vt 0.057617 0.536133
vt 0.500977 0.858398
vt 0.472656 0.846680
vt 0.057617 0.524414
vt 0.460938 0.844727
vt 0.502930 0.847656
vt 0.176758 0.536133
vt 0.500977 0.856445
vt 0.472656 0.844727
vt 0.176758 0.524414
vt 0.502930 0.858398
vt 0.460938 0.810547
vt 0.059570 0.524414
vt 0.500977 0.849609
vt 0.472656 0.810547
vt 0.059570 0.536133
vt 0.502930 0.856445
vt 0.460938 0.808594
vt 0.178711 0.524414
vt 0.500977 0.847656
vt 0.472656 0.808594
vt 0.178711 0.536133
vt 0.496094 0.873047
vt 0.166992 0.496094
vt 0.243164 0.504883
vt 0.156250 0.496094
vt 0.501953 0.873047
vt 0.243164 0.499023
vt 0.496094 0.872070
vt 0.166992 0.495117
vt 0.257812 0.504883
vt 0.156250 0.495117
vt 0.501953 0.872070
vt 0.257812 0.499023
vt 0.157227 0.496094
vt 0.496094 0.871094
vt 0.244141 0.499023
vt 0.166016 0.496094
vt 0.501953 0.871094
vt 0.244141 0.504883
vt 0.157227 0.495117
vt 0.496094 0.870117
vt 0.258789 0.499023
vt 0.166016 0.495117
vt 0.501953 0.870117
vt 0.258789 0.504883
vt 0.441406 0.916016
vt 0.156250 0.496094
vt 0.235352 0.558594
vt 0.154297 0.496094
vt 0.478516 0.916016
vt 0.235352 0.521484
vt 0.441406 0.915039
vt 0.156250 0.495117
vt 0.434570 0.558594
vt 0.154297 0.495117
vt 0.478516 0.915039
vt 0.434570 0.521484
vt 0.155273 0.496094
vt 0.441406 0.677734
vt 0.236328 0.521484
vt 0.155273 0.496094
vt 0.478516 0.677734
vt 0.236328 0.558594
vt 0.155273 0.495117
vt 0.441406 0.676758
vt 0.435547 0.521484
vt 0.155273 0.495117
vt 0.478516 0.676758
vt 0.435547 0.558594
vt 0.143555 0.496094
vt 0.145508 0.496094
vt 0.150391 0.496094
vt 0.142578 0.496094
vt 0.144531 0.496094
vt 0.150391 0.495117
vt 0.143555 0.495117
vt 0.145508 0.495117
vt 0.151367 0.496094
vt 0.142578 0.495117
vt 0.144531 0.495117
vt 0.151367 0.495117
vt 0.143555 0.496094
vt 0.149414 0.496094
vt 0.151367 0.495117
vt 0.144531 0.496094
vt 0.150391 0.496094
vt 0.151367 0.496094
vt 0.143555 0.495117
vt 0.149414 0.495117
vt 0.152344 0.495117
vt 0.144531 0.495117
vt 0.150391 0.495117
vt 0.152344 0.496094
vt 0.233398 0.512695
vt 0.464844 0.676758
vt 0.486328 0.933594
vt 0.459961 0.726562
vt 0.235352 0.512695
vt 0.486328 0.931641
vt 0.233398 0.507812
vt 0.464844 0.671875
vt 0.486328 0.931641
vt 0.459961 0.721680
vt 0.235352 0.507812
vt 0.486328 0.929688
vt 0.464844 0.726562
vt 0.245117 0.512695
vt 0.491211 0.931641
vt 0.459961 0.676758
vt 0.247070 0.512695
vt 0.491211 0.933594
vt 0.464844 0.721680
vt 0.245117 0.507812
vt 0.491211 0.929688
vt 0.459961 0.671875
vt 0.247070 0.507812
vt 0.491211 0.931641
vt 0.385742 0.510742
vt 0.477539 0.880859
vt 0.491211 0.613281
vt 0.473633 0.901367
vt 0.387695 0.510742
vt 0.491211 0.611328
vt 0.385742 0.506836
vt 0.477539 0.876953
vt 0.387695 0.508789
vt 0.473633 0.897461
vt 0.387695 0.506836
vt 0.477539 0.901367
vt 0.321289 0.509766
vt 0.495117 0.611328
vt 0.473633 0.880859
vt 0.323242 0.509766
vt 0.495117 0.613281
vt 0.477539 0.897461
vt 0.321289 0.505859
vt 0.391602 0.506836
vt 0.473633 0.876953
vt 0.323242 0.505859
vt 0.391602 0.508789
vt 0.148438 0.499023
vt 0.477539 0.945312
vt 0.500977 0.847656
vt 0.473633 0.949219
vt 0.149414 0.499023
vt 0.500977 0.846680
vt 0.148438 0.495117
vt 0.477539 0.941406
vt 0.500977 0.846680
vt 0.473633 0.945312
vt 0.149414 0.495117
vt 0.500977 0.845703
vt 0.477539 0.949219
vt 0.159180 0.499023
vt 0.504883 0.846680
vt 0.473633 0.945312
vt 0.160156 0.499023
vt 0.504883 0.847656
vt 0.477539 0.945312
vt 0.159180 0.495117
vt 0.504883 0.845703
vt 0.473633 0.941406
vt 0.160156 0.495117
vt 0.504883 0.846680
s 0
usemtl m_8808e6dc-e8b0-3a69-e512-5ca7d68f65d3
f 604/1808/204 607/1817/204 605/1811/204 602/1802/204
f 603/1805/205 604/1809/205 602/1803/205 601/1799/205
f 608/1820/206 603/1806/206 601/1800/206 606/1814/206
f 607/1818/207 608/1821/207 606/1815/207 605/1812/207
f 606/1816/208 601/1801/208 602/1804/208 605/1813/208
f 607/1819/209 604/1810/209 603/1807/209 608/1822/209
f 612/1832/204 615/1841/204 613/1835/204 610/1826/204
f 611/1829/205 612/1833/205 610/1827/205 609/1823/205
f 616/1844/206 611/1830/206 609/1824/206 614/1838/206
f 615/1842/207 616/1845/207 614/1839/207 613/1836/207
f 614/1840/208 609/1825/208 610/1828/208 613/1837/208
f 615/1843/209 612/1834/209 611/1831/209 616/1846/209
f 620/1856/204 623/1865/204 621/1859/204 618/1850/204
f 619/1853/205 620/1857/205 618/1851/205 617/1847/205
f 624/1868/206 619/1854/206 617/1848/206 622/1862/206
f 623/1866/207 624/1869/207 622/1863/207 621/1860/207
f 622/1864/208 617/1849/208 618/1852/208 621/1861/208
f 623/1867/209 620/1858/209 619/1855/209 624/1870/209
f 628/1880/204 631/1889/204 629/1883/204 626/1874/204
f 627/1877/205 628/1881/205 626/1875/205 625/1871/205
f 632/1892/206 627/1878/206 625/1872/206 630/1886/206
f 631/1890/207 632/1893/207 630/1887/207 629/1884/207
f 630/1888/208 625/1873/208 626/1876/208 629/1885/208
f 631/1891/209 628/1882/209 627/1879/209 632/1894/209
f 636/1904/204 639/1913/204 637/1907/204 634/1898/204
f 635/1901/205 636/1905/205 634/1899/205 633/1895/205
f 640/1916/206 635/1902/206 633/1896/206 638/1910/206
f 639/1914/207 640/1917/207 638/1911/207 637/1908/207
f 638/1912/208 633/1897/208 634/1900/208 637/1909/208
f 639/1915/209 636/1906/209 635/1903/209 640/1918/209
f 644/1928/204 647/1937/204 645/1931/204 642/1922/204
f 643/1925/210 644/1929/210 642/1923/210 641/1919/210
f 648/1940/206 643/1926/206 641/1920/206 646/1934/206
f 647/1938/211 648/1941/211 646/1935/211 645/1932/211
f 646/1936/212 641/1921/212 642/1924/212 645/1933/212
f 647/1939/213 644/1930/213 643/1927/213 648/1942/213
f 652/1952/204 655/1961/204 653/1955/204 650/1946/204
f 651/1949/210 652/1953/210 650/1947/210 649/1943/210
f 656/1964/206 651/1950/206 649/1944/206 654/1958/206
f 655/1962/211 656/1965/211 654/1959/211 653/1956/211
f 654/1960/212 649/1945/212 650/1948/212 653/1957/212
f 655/1963/213 652/1954/213 651/1951/213 656/1966/213
f 660/1976/204 663/1985/204 661/1979/204 658/1970/204
f 659/1973/210 660/1977/210 658/1971/210 657/1967/210
f 664/1988/206 659/1974/206 657/1968/206 662/1982/206
f 663/1986/211 664/1989/211 662/1983/211 661/1980/211
f 662/1984/212 657/1969/212 658/1972/212 661/1981/212
f 663/1987/213 660/1978/213 659/1975/213 664/1990/213
f 668/2000/204 671/2009/204 669/2003/204 666/1994/204
f 667/1997/210 668/2001/210 666/1995/210 665/1991/210
f 672/2012/206 667/1998/206 665/1992/206 670/2006/206
f 671/2010/211 672/2013/211 670/2007/211 669/2004/211
f 670/2008/212 665/1993/212 666/1996/212 669/2005/212
f 671/2011/213 668/2002/213 667/1999/213 672/2014/213
f 676/2024/204 679/2033/204 677/2027/204 674/2018/204
f 675/2021/210 676/2025/210 674/2019/210 673/2015/210
f 680/2036/206 675/2022/206 673/2016/206 678/2030/206
f 679/2034/211 680/2037/211 678/2031/211 677/2028/211
f 678/2032/212 673/2017/212 674/2020/212 677/2029/212
f 679/2035/213 676/2026/213 675/2023/213 680/2038/213
f 684/2048/204 687/2057/204 685/2051/204 682/2042/204
f 683/2045/212 684/2049/212 682/2043/212 681/2039/212
f 688/2060/206 683/2046/206 681/2040/206 686/2054/206
f 687/2058/213 688/2061/213 686/2055/213 685/2052/213
f 686/2056/211 681/2041/211 682/2044/211 685/2053/211
f 687/2059/210 684/2050/210 683/2047/210 688/2062/210
f 692/2072/204 695/2080/204 693/2074/204 690/2066/204
f 691/2069/208 692/2073/208 690/2067/208 689/2063/208
f 696/2083/206 691/2070/206 689/2064/206 694/2077/206
f 695/2081/209 696/2084/209 694/2078/209 693/2075/209
f 694/2079/207 689/2065/207 690/2068/207 693/2076/207
f 695/2082/205 692/2073/205 691/2071/205 696/2085/205
f 700/2095/204 703/2104/204 701/2098/204 698/2089/204
f 699/2092/212 700/2096/212 698/2090/212 697/2086/212
f 704/2107/206 699/2093/206 697/2087/206 702/2101/206
f 703/2105/213 704/2108/213 702/2102/213 701/2099/213
f 702/2103/211 697/2088/211 698/2091/211 701/2100/211
f 703/2106/210 700/2097/210 699/2094/210 704/2109/210
