# Blender 3.3.21
# www.blender.org
mtllib bort_t72.mtl
o cubeddd.013
v 1.148769 0.474759 -4.272972
v 1.148769 0.618342 -4.162797
v 1.148769 0.318677 -4.069563
v 1.148769 0.462261 -3.959388
v 1.959567 0.618342 -4.162797
v 1.959567 0.474759 -4.272972
v 1.959567 0.462261 -3.959388
v 1.959567 0.318677 -4.069563
v -1.962849 0.474759 -4.272972
v -1.962849 0.618342 -4.162797
v -1.962849 0.318677 -4.069562
v -1.962849 0.462261 -3.959387
v -1.152051 0.618342 -4.162797
v -1.152051 0.474759 -4.272972
v -1.152051 0.462261 -3.959387
v -1.152051 0.318677 -4.069562
v -1.962285 0.505715 -4.027519
v -1.962285 0.481477 -3.918188
v -1.962285 0.319106 -4.068890
v -1.962285 0.294868 -3.959558
v -1.931839 0.481477 -3.918188
v -1.931839 0.505715 -4.027519
v -1.931839 0.294868 -3.959558
v -1.931839 0.319106 -4.068890
v -1.961156 0.229027 2.446543
v -1.961156 0.241077 2.584269
v -1.961156 0.034833 2.463533
v -1.961156 0.046883 2.601259
v -1.932120 0.241077 2.584269
v -1.932120 0.229027 2.446543
v -1.932120 0.046883 2.601259
v -1.932120 0.034833 2.463533
v -1.961721 0.559937 -4.088158
v -1.961721 0.559937 -3.192734
v -1.961721 0.303545 -4.088158
v -1.961721 0.303545 -3.192734
v -1.931557 0.559937 -3.192734
v -1.931557 0.559937 -4.088158
v -1.931557 0.303545 -3.192734
v -1.931557 0.303545 -4.088158
v -1.962849 0.485938 -3.933886
v -1.962849 0.224719 -1.949733
v -1.962849 0.294195 -3.959130
v -1.962849 0.032977 -1.974977
v -1.930146 0.224719 -1.949733
v -1.930146 0.485938 -3.933886
v -1.930146 0.032977 -1.974977
v -1.930146 0.294195 -3.959130
v -1.961721 0.559937 -3.192735
v -1.961720 0.559938 3.082147
v -1.961721 0.229264 -3.192735
v -1.961720 0.229265 3.082147
v -1.932685 0.559938 3.082147
v -1.932686 0.559937 -3.192735
v -1.932685 0.229265 3.082147
v -1.932686 0.229264 -3.192735
v -1.962285 0.228700 -2.060108
v -1.962284 0.228701 2.462507
v -1.962285 0.033610 -2.060108
v -1.962284 0.033611 2.462507
v -1.932121 0.228701 2.462507
v -1.932121 0.228700 -2.060108
v -1.932121 0.033611 2.462507
v -1.932121 0.033610 -2.060108
v 1.928840 0.228700 -2.060108
v 1.928841 0.228701 2.462506
v 1.928840 0.033610 -2.060108
v 1.928841 0.033611 2.462506
v 1.959004 0.228701 2.462506
v 1.959004 0.228700 -2.060108
v 1.959004 0.033611 2.462506
v 1.959004 0.033610 -2.060108
v 1.929404 0.559937 -3.192735
v 1.929405 0.559938 3.082146
v 1.929404 0.229264 -3.192735
v 1.929405 0.229265 3.082146
v 1.958440 0.559938 3.082146
v 1.958439 0.559937 -3.192735
v 1.958440 0.229265 3.082146
v 1.958439 0.229264 -3.192735
v 1.926864 0.485938 -3.933887
v 1.926865 0.224719 -1.949734
v 1.926864 0.294195 -3.959130
v 1.926865 0.032977 -1.974977
v 1.959568 0.224719 -1.949734
v 1.959567 0.485938 -3.933887
v 1.959568 0.032977 -1.974977
v 1.959567 0.294195 -3.959130
v 1.928275 0.559937 -4.088158
v 1.928275 0.559937 -3.192735
v 1.928275 0.303545 -4.088158
v 1.928275 0.303545 -3.192735
v 1.958439 0.559937 -3.192735
v 1.958439 0.559937 -4.088158
v 1.958439 0.303545 -3.192735
v 1.958439 0.303545 -4.088158
v 1.928840 0.229027 2.446542
v 1.928840 0.241077 2.584268
v 1.928840 0.034833 2.463532
v 1.928840 0.046883 2.601258
v 1.957875 0.241077 2.584268
v 1.957875 0.229027 2.446542
v 1.957875 0.046883 2.601258
v 1.957875 0.034833 2.463532
v 1.928557 0.505715 -4.027520
v 1.928557 0.481477 -3.918189
v 1.928557 0.319106 -4.068890
v 1.928557 0.294868 -3.959559
v 1.959003 0.481477 -3.918189
v 1.959003 0.505715 -4.027520
v 1.959003 0.294868 -3.959559
v 1.959003 0.319106 -4.068890
vn -0.0000 0.7934 0.6088
vn -1.0000 -0.0000 -0.0000
vn -0.0000 -0.7934 -0.6088
vn 1.0000 -0.0000 -0.0000
vn -0.0000 0.6088 -0.7934
vn -0.0000 -0.6088 0.7934
vn -0.0000 -0.2164 0.9763
vn -0.0000 0.2164 -0.9763
vn -0.0000 0.9763 0.2164
vn -0.0000 -0.9763 -0.2164
vn -0.0000 0.0872 0.9962
vn -0.0000 -0.0872 -0.9962
vn -0.0000 0.9962 -0.0872
vn -0.0000 -0.9962 0.0872
vn -0.0000 -0.0000 1.0000
vn -0.0000 -0.0000 -1.0000
vn -0.0000 1.0000 -0.0000
vn -0.0000 -1.0000 -0.0000
vn -0.0000 -0.1305 0.9914
vn -0.0000 0.1305 -0.9914
vn -0.0000 0.9914 0.1305
vn -0.0000 -0.9914 -0.1305
vt 0.052734 0.357422
vt 0.523438 0.574219
vt 0.570312 0.664062
vt 0.509766 0.631836
vt 0.055664 0.357422
vt 0.570312 0.661133
vt 0.052734 0.352539
vt 0.523438 0.569336
vt 0.570312 0.660156
vt 0.509766 0.626953
vt 0.055664 0.352539
vt 0.570312 0.657227
vt 0.523438 0.631836
vt 0.056641 0.357422
vt 0.583984 0.661133
vt 0.509766 0.574219
vt 0.059570 0.357422
vt 0.583984 0.664062
vt 0.523438 0.626953
vt 0.056641 0.352539
vt 0.583984 0.657227
vt 0.509766 0.569336
vt 0.059570 0.352539
vt 0.583984 0.660156
vt 0.072266 0.357422
vt 0.523438 0.537109
vt 0.570312 0.656250
vt 0.428711 0.490234
vt 0.075195 0.357422
vt 0.570312 0.653320
vt 0.072266 0.352539
vt 0.523438 0.532227
vt 0.570312 0.652344
vt 0.428711 0.485352
vt 0.075195 0.352539
vt 0.570312 0.649414
vt 0.442383 0.490234
vt 0.076172 0.357422
vt 0.583984 0.653320
vt 0.509766 0.537109
vt 0.079102 0.357422
vt 0.583984 0.656250
vt 0.442383 0.485352
vt 0.076172 0.352539
vt 0.583984 0.649414
vt 0.509766 0.532227
vt 0.079102 0.352539
vt 0.583984 0.652344
vt 0.200195 0.311523
vt 0.187500 0.297852
vt 0.637695 0.685547
vt 0.182617 0.297852
vt 0.202148 0.311523
vt 0.637695 0.683594
vt 0.200195 0.308594
vt 0.187500 0.294922
vt 0.540039 0.362305
vt 0.182617 0.294922
vt 0.202148 0.308594
vt 0.540039 0.360352
vt 0.183594 0.297852
vt 0.688477 0.791016
vt 0.638672 0.683594
vt 0.186523 0.297852
vt 0.690430 0.791016
vt 0.638672 0.685547
vt 0.183594 0.294922
vt 0.688477 0.788086
vt 0.541016 0.360352
vt 0.186523 0.294922
vt 0.690430 0.788086
vt 0.541016 0.362305
vt 0.688477 0.883789
vt 0.703125 0.819336
vt 0.635742 0.470703
vt 0.702148 0.823242
vt 0.690430 0.883789
vt 0.635742 0.468750
vt 0.688477 0.880859
vt 0.703125 0.816406
vt 0.635742 0.389648
vt 0.702148 0.820312
vt 0.690430 0.880859
vt 0.635742 0.387695
vt 0.703125 0.823242
vt 0.688477 0.811523
vt 0.636719 0.468750
vt 0.702148 0.819336
vt 0.690430 0.811523
vt 0.636719 0.470703
vt 0.703125 0.820312
vt 0.688477 0.808594
vt 0.636719 0.387695
vt 0.702148 0.816406
vt 0.690430 0.808594
vt 0.636719 0.389648
vt 0.254883 0.504883
vt 0.224609 0.306641
vt 0.117188 0.366211
vt 0.212891 0.306641
vt 0.270508 0.504883
vt 0.117188 0.350586
vt 0.254883 0.500000
vt 0.224609 0.301758
vt 0.143555 0.366211
vt 0.212891 0.301758
vt 0.270508 0.500000
vt 0.143555 0.350586
vt 0.213867 0.306641
vt 0.495117 0.637695
vt 0.118164 0.350586
vt 0.223633 0.306641
vt 0.510742 0.637695
vt 0.118164 0.366211
vt 0.213867 0.301758
vt 0.495117 0.632812
vt 0.144531 0.350586
vt 0.223633 0.301758
vt 0.510742 0.632812
vt 0.144531 0.366211
vt 0.462891 0.673828
vt 0.703125 0.827148
vt 0.315430 0.408203
vt 0.702148 0.831055
vt 0.497070 0.673828
vt 0.315430 0.374023
vt 0.462891 0.670898
vt 0.703125 0.824219
vt 0.317383 0.408203
vt 0.702148 0.828125
vt 0.497070 0.670898
vt 0.317383 0.374023
vt 0.703125 0.831055
vt 0.462891 0.669922
vt 0.316406 0.374023
vt 0.702148 0.827148
vt 0.497070 0.669922
vt 0.316406 0.408203
vt 0.703125 0.828125
vt 0.462891 0.666992
vt 0.318359 0.374023
vt 0.702148 0.824219
vt 0.497070 0.666992
vt 0.318359 0.408203
vt 0.242188 0.986328
vt 0.121094 0.311523
vt 0.321289 0.561523
vt 0.075195 0.311523
vt 0.350586 0.986328
vt 0.321289 0.453125
vt 0.242188 0.980469
vt 0.121094 0.305664
vt 0.397461 0.560547
vt 0.075195 0.305664
vt 0.350586 0.980469
vt 0.397461 0.452148
vt 0.076172 0.311523
vt 0.242188 0.979492
vt 0.322266 0.453125
vt 0.120117 0.311523
vt 0.350586 0.979492
vt 0.322266 0.561523
vt 0.076172 0.305664
vt 0.242188 0.973633
vt 0.398438 0.452148
vt 0.120117 0.305664
vt 0.350586 0.973633
vt 0.398438 0.560547
vt 0.358398 0.821289
vt 0.703125 0.834961
vt 0.014648 0.516602
vt 0.161133 0.297852
vt 0.436523 0.821289
vt 0.014648 0.438477
vt 0.358398 0.818359
vt 0.703125 0.832031
vt 0.016602 0.516602
vt 0.161133 0.294922
vt 0.436523 0.818359
vt 0.016602 0.438477
vt 0.162109 0.297852
vt 0.362305 0.722656
vt 0.015625 0.438477
vt 0.702148 0.834961
vt 0.440430 0.722656
vt 0.015625 0.516602
vt 0.162109 0.294922
vt 0.362305 0.719727
vt 0.017578 0.438477
vt 0.702148 0.832031
vt 0.440430 0.719727
vt 0.017578 0.516602
vt 0.355469 0.931641
vt 0.703125 0.877930
vt 0.135742 0.517578
vt 0.702148 0.881836
vt 0.433594 0.931641
vt 0.135742 0.439453
vt 0.355469 0.928711
vt 0.703125 0.875000
vt 0.137695 0.517578
vt 0.702148 0.878906
vt 0.433594 0.928711
vt 0.137695 0.439453
vt 0.703125 0.881836
vt 0.358398 0.825195
vt 0.136719 0.439453
vt 0.702148 0.877930
vt 0.436523 0.825195
vt 0.136719 0.517578
vt 0.703125 0.878906
vt 0.358398 0.822266
vt 0.138672 0.439453
vt 0.702148 0.875000
vt 0.436523 0.822266
vt 0.138672 0.517578
vt 0.242188 1.000000
vt 0.059570 0.311523
vt 0.231445 0.569336
vt 0.011719 0.311523
vt 0.350586 1.000000
vt 0.231445 0.460938
vt 0.242188 0.994141
vt 0.059570 0.305664
vt 0.028320 0.568359
vt 0.011719 0.305664
vt 0.350586 0.994141
vt 0.028320 0.459961
vt 0.012695 0.311523
vt 0.242188 0.993164
vt 0.232422 0.460938
vt 0.058594 0.311523
vt 0.350586 0.993164
vt 0.232422 0.569336
vt 0.012695 0.305664
vt 0.242188 0.987305
vt 0.029297 0.459961
vt 0.058594 0.305664
vt 0.350586 0.987305
vt 0.029297 0.568359
vt 0.462891 0.734375
vt 0.138672 0.297852
vt 0.176758 0.409180
vt 0.702148 0.864258
vt 0.497070 0.734375
vt 0.176758 0.375000
vt 0.462891 0.731445
vt 0.138672 0.294922
vt 0.350586 0.409180
vt 0.702148 0.861328
vt 0.497070 0.731445
vt 0.350586 0.375000
vt 0.703125 0.864258
vt 0.462891 0.730469
vt 0.177734 0.375000
vt 0.137695 0.297852
vt 0.497070 0.730469
vt 0.177734 0.409180
vt 0.703125 0.861328
vt 0.462891 0.727539
vt 0.351562 0.375000
vt 0.137695 0.294922
vt 0.497070 0.727539
vt 0.351562 0.409180
vt 0.399414 0.505859
vt 0.113281 0.306641
vt 0.496094 0.367188
vt 0.693359 0.892578
vt 0.415039 0.505859
vt 0.496094 0.351562
vt 0.399414 0.500977
vt 0.113281 0.301758
vt 0.060547 0.366211
vt 0.693359 0.887695
vt 0.415039 0.500977
vt 0.060547 0.350586
vt 0.694336 0.892578
vt 0.495117 0.794922
vt 0.497070 0.351562
vt 0.112305 0.306641
vt 0.510742 0.794922
vt 0.497070 0.367188
vt 0.694336 0.887695
vt 0.495117 0.790039
vt 0.061523 0.350586
vt 0.112305 0.301758
vt 0.510742 0.790039
vt 0.061523 0.366211
vt 0.687500 0.504883
vt 0.142578 0.297852
vt 0.634766 0.732422
vt 0.139648 0.297852
vt 0.689453 0.504883
vt 0.634766 0.730469
vt 0.687500 0.501953
vt 0.142578 0.294922
vt 0.502930 0.365234
vt 0.139648 0.294922
vt 0.689453 0.501953
vt 0.502930 0.363281
vt 0.140625 0.297852
vt 0.687500 0.454102
vt 0.635742 0.730469
vt 0.141602 0.297852
vt 0.689453 0.454102
vt 0.635742 0.732422
vt 0.140625 0.294922
vt 0.687500 0.451172
vt 0.503906 0.363281
vt 0.141602 0.294922
vt 0.689453 0.451172
vt 0.503906 0.365234
vt 0.687500 0.350586
vt 0.146484 0.297852
vt 0.599609 0.365234
vt 0.143555 0.297852
vt 0.689453 0.350586
vt 0.599609 0.363281
vt 0.687500 0.347656
vt 0.146484 0.294922
vt 0.186523 0.364258
vt 0.143555 0.294922
vt 0.689453 0.347656
vt 0.186523 0.362305
vt 0.144531 0.297852
vt 0.060547 0.311523
vt 0.600586 0.363281
vt 0.145508 0.297852
vt 0.062500 0.311523
vt 0.600586 0.365234
vt 0.144531 0.294922
vt 0.060547 0.308594
vt 0.187500 0.362305
vt 0.145508 0.294922
vt 0.062500 0.308594
vt 0.187500 0.364258
s 0
usemtl m_c468fa65-bc7a-28d4-b1cd-3881abbe9ce4
f 4/10/1 7/19/1 5/13/1 2/4/1
f 3/7/2 4/11/2 2/5/2 1/1/2
f 8/22/3 3/8/3 1/2/3 6/16/3
f 7/20/4 8/23/4 6/17/4 5/14/4
f 6/18/5 1/3/5 2/6/5 5/15/5
f 7/21/6 4/12/6 3/9/6 8/24/6
f 12/34/1 15/43/1 13/37/1 10/28/1
f 11/31/2 12/35/2 10/29/2 9/25/2
f 16/46/3 11/32/3 9/26/3 14/40/3
f 15/44/4 16/47/4 14/41/4 13/38/4
f 14/42/5 9/27/5 10/30/5 13/39/5
f 15/45/6 12/36/6 11/33/6 16/48/6
f 20/58/7 23/67/7 21/61/7 18/52/7
f 19/55/2 20/59/2 18/53/2 17/49/2
f 24/70/8 19/56/8 17/50/8 22/64/8
f 23/68/4 24/71/4 22/65/4 21/62/4
f 22/66/9 17/51/9 18/54/9 21/63/9
f 23/69/10 20/60/10 19/57/10 24/72/10
f 28/82/11 31/91/11 29/85/11 26/76/11
f 27/79/2 28/83/2 26/77/2 25/73/2
f 32/94/12 27/80/12 25/74/12 30/88/12
f 31/92/4 32/95/4 30/89/4 29/86/4
f 30/90/13 25/75/13 26/78/13 29/87/13
f 31/93/14 28/84/14 27/81/14 32/96/14
f 36/106/15 39/115/15 37/109/15 34/100/15
f 35/103/2 36/107/2 34/101/2 33/97/2
f 40/118/16 35/104/16 33/98/16 38/112/16
f 39/116/4 40/119/4 38/113/4 37/110/4
f 38/114/17 33/99/17 34/102/17 37/111/17
f 39/117/18 36/108/18 35/105/18 40/120/18
f 44/130/19 47/139/19 45/133/19 42/124/19
f 43/127/2 44/131/2 42/125/2 41/121/2
f 48/142/20 43/128/20 41/122/20 46/136/20
f 47/140/4 48/143/4 46/137/4 45/134/4
f 46/138/21 41/123/21 42/126/21 45/135/21
f 47/141/22 44/132/22 43/129/22 48/144/22
f 52/154/15 55/163/15 53/157/15 50/148/15
f 51/151/2 52/155/2 50/149/2 49/145/2
f 56/166/16 51/152/16 49/146/16 54/160/16
f 55/164/4 56/167/4 54/161/4 53/158/4
f 54/162/17 49/147/17 50/150/17 53/159/17
f 55/165/18 52/156/18 51/153/18 56/168/18
f 60/178/15 63/187/15 61/181/15 58/172/15
f 59/175/2 60/179/2 58/173/2 57/169/2
f 64/190/16 59/176/16 57/170/16 62/184/16
f 63/188/4 64/191/4 62/185/4 61/182/4
f 62/186/17 57/171/17 58/174/17 61/183/17
f 63/189/18 60/180/18 59/177/18 64/192/18
f 68/202/15 71/211/15 69/205/15 66/196/15
f 67/199/2 68/203/2 66/197/2 65/193/2
f 72/214/16 67/200/16 65/194/16 70/208/16
f 71/212/4 72/215/4 70/209/4 69/206/4
f 70/210/17 65/195/17 66/198/17 69/207/17
f 71/213/18 68/204/18 67/201/18 72/216/18
f 76/226/15 79/235/15 77/229/15 74/220/15
f 75/223/2 76/227/2 74/221/2 73/217/2
f 80/238/16 75/224/16 73/218/16 78/232/16
f 79/236/4 80/239/4 78/233/4 77/230/4
f 78/234/17 73/219/17 74/222/17 77/231/17
f 79/237/18 76/228/18 75/225/18 80/240/18
f 84/250/19 87/259/19 85/253/19 82/244/19
f 83/247/2 84/251/2 82/245/2 81/241/2
f 88/262/20 83/248/20 81/242/20 86/256/20
f 87/260/4 88/263/4 86/257/4 85/254/4
f 86/258/21 81/243/21 82/246/21 85/255/21
f 87/261/22 84/252/22 83/249/22 88/264/22
f 92/274/15 95/283/15 93/277/15 90/268/15
f 91/271/2 92/275/2 90/269/2 89/265/2
f 96/286/16 91/272/16 89/266/16 94/280/16
f 95/284/4 96/287/4 94/281/4 93/278/4
f 94/282/17 89/267/17 90/270/17 93/279/17
f 95/285/18 92/276/18 91/273/18 96/288/18
f 100/298/11 103/307/11 101/301/11 98/292/11
f 99/295/2 100/299/2 98/293/2 97/289/2
f 104/310/12 99/296/12 97/290/12 102/304/12
f 103/308/4 104/311/4 102/305/4 101/302/4
f 102/306/13 97/291/13 98/294/13 101/303/13
f 103/309/14 100/300/14 99/297/14 104/312/14
f 108/322/7 111/331/7 109/325/7 106/316/7
f 107/319/2 108/323/2 106/317/2 105/313/2
f 112/334/8 107/320/8 105/314/8 110/328/8
f 111/332/4 112/335/4 110/329/4 109/326/4
f 110/330/9 105/315/9 106/318/9 109/327/9
f 111/333/10 108/324/10 107/321/10 112/336/10
