# Blender 3.3.21
# www.blender.org
mtllib bort_t72b3.mtl
o cubeddd.013
v 1.148769 0.474760 -4.272972
v 1.148769 0.618343 -4.162797
v 1.148769 0.318678 -4.069563
v 1.148769 0.462262 -3.959388
v 1.959567 0.618343 -4.162797
v 1.959567 0.474760 -4.272972
v 1.959567 0.462262 -3.959388
v 1.959567 0.318678 -4.069563
v -1.962849 0.474760 -4.272972
v -1.962849 0.618343 -4.162797
v -1.962849 0.318678 -4.069562
v -1.962849 0.462262 -3.959387
v -1.152051 0.618343 -4.162797
v -1.152051 0.474760 -4.272972
v -1.152051 0.462262 -3.959387
v -1.152051 0.318678 -4.069562
v -1.962285 0.505716 -4.027519
v -1.962285 0.481478 -3.918188
v -1.962285 0.319107 -4.068890
v -1.962285 0.294869 -3.959558
v -1.931839 0.481478 -3.918188
v -1.931839 0.505716 -4.027519
v -1.931839 0.294869 -3.959558
v -1.931839 0.319107 -4.068890
v -1.961156 0.229027 2.446543
v -1.961156 0.241077 2.584269
v -1.961156 0.034833 2.463533
v -1.961156 0.046883 2.601259
v -1.932120 0.241077 2.584269
v -1.932120 0.229027 2.446543
v -1.932120 0.046883 2.601259
v -1.932120 0.034833 2.463533
v -1.961721 0.559938 -4.088158
v -1.961721 0.559938 -3.192734
v -1.961721 0.303546 -4.088158
v -1.961721 0.303546 -3.192734
v -1.931557 0.559938 -3.192734
v -1.931557 0.559938 -4.088158
v -1.931557 0.303546 -3.192734
v -1.931557 0.303546 -4.088158
v -1.962849 0.485939 -3.933886
v -1.962849 0.224719 -1.949733
v -1.962849 0.294196 -3.959130
v -1.962849 0.032977 -1.974977
v -1.930146 0.224719 -1.949733
v -1.930146 0.485939 -3.933886
v -1.930146 0.032977 -1.974977
v -1.930146 0.294196 -3.959130
v -1.961721 0.559938 -3.192735
v -1.961720 0.559938 3.082147
v -1.961721 0.229265 -3.192735
v -1.961720 0.229264 3.082147
v -1.932685 0.559938 3.082147
v -1.932686 0.559938 -3.192735
v -1.932685 0.229264 3.082147
v -1.932686 0.229265 -3.192735
v -1.962285 0.228700 -2.060108
v -1.962284 0.228701 2.462507
v -1.962285 0.033610 -2.060108
v -1.962284 0.033611 2.462507
v -1.932121 0.228701 2.462507
v -1.932121 0.228700 -2.060108
v -1.932121 0.033611 2.462507
v -1.932121 0.033610 -2.060108
v 1.928840 0.228700 -2.060108
v 1.928841 0.228701 2.462506
v 1.928840 0.033610 -2.060108
v 1.928841 0.033611 2.462506
v 1.959004 0.228701 2.462506
v 1.959004 0.228700 -2.060108
v 1.959004 0.033611 2.462506
v 1.959004 0.033610 -2.060108
v 1.929404 0.559938 -3.192735
v 1.929405 0.559938 3.082146
v 1.929404 0.229265 -3.192735
v 1.929405 0.229264 3.082146
v 1.958440 0.559938 3.082146
v 1.958439 0.559938 -3.192735
v 1.958440 0.229264 3.082146
v 1.958439 0.229265 -3.192735
v 1.926864 0.485939 -3.933887
v 1.926865 0.224719 -1.949734
v 1.926864 0.294196 -3.959130
v 1.926865 0.032977 -1.974977
v 1.959568 0.224719 -1.949734
v 1.959567 0.485939 -3.933887
v 1.959568 0.032977 -1.974977
v 1.959567 0.294196 -3.959130
v 1.928275 0.559938 -4.088158
v 1.928275 0.559938 -3.192735
v 1.928275 0.303546 -4.088158
v 1.928275 0.303546 -3.192735
v 1.958439 0.559938 -3.192735
v 1.958439 0.559938 -4.088158
v 1.958439 0.303546 -3.192735
v 1.958439 0.303546 -4.088158
v 1.928840 0.229027 2.446542
v 1.928840 0.241077 2.584268
v 1.928840 0.034833 2.463532
v 1.928840 0.046883 2.601258
v 1.957875 0.241077 2.584268
v 1.957875 0.229027 2.446542
v 1.957875 0.046883 2.601258
v 1.957875 0.034833 2.463532
v 1.928557 0.505716 -4.027520
v 1.928557 0.481478 -3.918189
v 1.928557 0.319107 -4.068890
v 1.928557 0.294869 -3.959559
v 1.959003 0.481478 -3.918189
v 1.959003 0.505716 -4.027520
v 1.959003 0.294869 -3.959559
v 1.959003 0.319107 -4.068890
vn -0.0000 0.7934 0.6088
vn -1.0000 -0.0000 -0.0000
vn -0.0000 -0.7934 -0.6088
vn 1.0000 -0.0000 -0.0000
vn -0.0000 0.6088 -0.7934
vn -0.0000 -0.6088 0.7934
vn -0.0000 -0.2164 0.9763
vn -0.0000 0.2164 -0.9763
vn -0.0000 0.9763 0.2164
vn -0.0000 -0.9763 -0.2164
vn -0.0000 0.0872 0.9962
vn -0.0000 -0.0872 -0.9962
vn -0.0000 0.9962 -0.0872
vn -0.0000 -0.9962 0.0872
vn -0.0000 -0.0000 1.0000
vn -0.0000 -0.0000 -1.0000
vn -0.0000 1.0000 -0.0000
vn -0.0000 -1.0000 -0.0000
vn -0.0000 -0.1305 0.9914
vn -0.0000 0.1305 -0.9914
vn -0.0000 0.9914 0.1305
vn -0.0000 -0.9914 -0.1305
vt 0.052734 0.357422
vt 0.523438 0.574219
vt 0.570312 0.664062
vt 0.509766 0.631836
vt 0.055664 0.357422
vt 0.570312 0.661133
vt 0.052734 0.352539
vt 0.523438 0.569336
vt 0.570312 0.660156
vt 0.509766 0.626953
vt 0.055664 0.352539
vt 0.570312 0.657227
vt 0.523438 0.631836
vt 0.056641 0.357422
vt 0.583984 0.661133
vt 0.509766 0.574219
vt 0.059570 0.357422
vt 0.583984 0.664062
vt 0.523438 0.626953
vt 0.056641 0.352539
vt 0.583984 0.657227
vt 0.509766 0.569336
vt 0.059570 0.352539
vt 0.583984 0.660156
vt 0.072266 0.357422
vt 0.523438 0.537109
vt 0.570312 0.656250
vt 0.428711 0.490234
vt 0.075195 0.357422
vt 0.570312 0.653320
vt 0.072266 0.352539
vt 0.523438 0.532227
vt 0.570312 0.652344
vt 0.428711 0.485352
vt 0.075195 0.352539
vt 0.570312 0.649414
vt 0.442383 0.490234
vt 0.076172 0.357422
vt 0.583984 0.653320
vt 0.509766 0.537109
vt 0.079102 0.357422
vt 0.583984 0.656250
vt 0.442383 0.485352
vt 0.076172 0.352539
vt 0.583984 0.649414
vt 0.509766 0.532227
vt 0.079102 0.352539
vt 0.583984 0.652344
vt 0.200195 0.311523
vt 0.187500 0.297852
vt 0.637695 0.685547
vt 0.182617 0.297852
vt 0.202148 0.311523
vt 0.637695 0.683594
vt 0.200195 0.308594
vt 0.187500 0.294922
vt 0.540039 0.362305
vt 0.182617 0.294922
vt 0.202148 0.308594
vt 0.540039 0.360352
vt 0.183594 0.297852
vt 0.688477 0.791016
vt 0.638672 0.683594
vt 0.186523 0.297852
vt 0.690430 0.791016
vt 0.638672 0.685547
vt 0.183594 0.294922
vt 0.688477 0.788086
vt 0.541016 0.360352
vt 0.186523 0.294922
vt 0.690430 0.788086
vt 0.541016 0.362305
vt 0.688477 0.883789
vt 0.703125 0.819336
vt 0.635742 0.470703
vt 0.702148 0.823242
vt 0.690430 0.883789
vt 0.635742 0.468750
vt 0.688477 0.880859
vt 0.703125 0.816406
vt 0.635742 0.389648
vt 0.702148 0.820312
vt 0.690430 0.880859
vt 0.635742 0.387695
vt 0.703125 0.823242
vt 0.688477 0.811523
vt 0.636719 0.468750
vt 0.702148 0.819336
vt 0.690430 0.811523
vt 0.636719 0.470703
vt 0.703125 0.820312
vt 0.688477 0.808594
vt 0.636719 0.387695
vt 0.702148 0.816406
vt 0.690430 0.808594
vt 0.636719 0.389648
vt 0.254883 0.504883
vt 0.224609 0.306641
vt 0.117188 0.366211
vt 0.212891 0.306641
vt 0.270508 0.504883
vt 0.117188 0.350586
vt 0.254883 0.500000
vt 0.224609 0.301758
vt 0.143555 0.366211
vt 0.212891 0.301758
vt 0.270508 0.500000
vt 0.143555 0.350586
vt 0.213867 0.306641
vt 0.495117 0.637695
vt 0.118164 0.350586
vt 0.223633 0.306641
vt 0.510742 0.637695
vt 0.118164 0.366211
vt 0.213867 0.301758
vt 0.495117 0.632812
vt 0.144531 0.350586
vt 0.223633 0.301758
vt 0.510742 0.632812
vt 0.144531 0.366211
vt 0.462891 0.673828
vt 0.703125 0.827148
vt 0.315430 0.408203
vt 0.702148 0.831055
vt 0.497070 0.673828
vt 0.315430 0.374023
vt 0.462891 0.670898
vt 0.703125 0.824219
vt 0.317383 0.408203
vt 0.702148 0.828125
vt 0.497070 0.670898
vt 0.317383 0.374023
vt 0.703125 0.831055
vt 0.462891 0.669922
vt 0.316406 0.374023
vt 0.702148 0.827148
vt 0.497070 0.669922
vt 0.316406 0.408203
vt 0.703125 0.828125
vt 0.462891 0.666992
vt 0.318359 0.374023
vt 0.702148 0.824219
vt 0.497070 0.666992
vt 0.318359 0.408203
vt 0.242188 0.986328
vt 0.121094 0.311523
vt 0.321289 0.561523
vt 0.075195 0.311523
vt 0.350586 0.986328
vt 0.321289 0.453125
vt 0.242188 0.980469
vt 0.121094 0.305664
vt 0.397461 0.560547
vt 0.075195 0.305664
vt 0.350586 0.980469
vt 0.397461 0.452148
vt 0.076172 0.311523
vt 0.242188 0.979492
vt 0.322266 0.453125
vt 0.120117 0.311523
vt 0.350586 0.979492
vt 0.322266 0.561523
vt 0.076172 0.305664
vt 0.242188 0.973633
vt 0.398438 0.452148
vt 0.120117 0.305664
vt 0.350586 0.973633
vt 0.398438 0.560547
vt 0.358398 0.821289
vt 0.703125 0.834961
vt 0.014648 0.516602
vt 0.161133 0.297852
vt 0.436523 0.821289
vt 0.014648 0.438477
vt 0.358398 0.818359
vt 0.703125 0.832031
vt 0.016602 0.516602
vt 0.161133 0.294922
vt 0.436523 0.818359
vt 0.016602 0.438477
vt 0.162109 0.297852
vt 0.362305 0.722656
vt 0.015625 0.438477
vt 0.702148 0.834961
vt 0.440430 0.722656
vt 0.015625 0.516602
vt 0.162109 0.294922
vt 0.362305 0.719727
vt 0.017578 0.438477
vt 0.702148 0.832031
vt 0.440430 0.719727
vt 0.017578 0.516602
vt 0.355469 0.931641
vt 0.703125 0.877930
vt 0.135742 0.517578
vt 0.702148 0.881836
vt 0.433594 0.931641
vt 0.135742 0.439453
vt 0.355469 0.928711
vt 0.703125 0.875000
vt 0.137695 0.517578
vt 0.702148 0.878906
vt 0.433594 0.928711
vt 0.137695 0.439453
vt 0.703125 0.881836
vt 0.358398 0.825195
vt 0.136719 0.439453
vt 0.702148 0.877930
vt 0.436523 0.825195
vt 0.136719 0.517578
vt 0.703125 0.878906
vt 0.358398 0.822266
vt 0.138672 0.439453
vt 0.702148 0.875000
vt 0.436523 0.822266
vt 0.138672 0.517578
vt 0.242188 1.000000
vt 0.059570 0.311523
vt 0.231445 0.569336
vt 0.011719 0.311523
vt 0.350586 1.000000
vt 0.231445 0.460938
vt 0.242188 0.994141
vt 0.059570 0.305664
vt 0.028320 0.568359
vt 0.011719 0.305664
vt 0.350586 0.994141
vt 0.028320 0.459961
vt 0.012695 0.311523
vt 0.242188 0.993164
vt 0.232422 0.460938
vt 0.058594 0.311523
vt 0.350586 0.993164
vt 0.232422 0.569336
vt 0.012695 0.305664
vt 0.242188 0.987305
vt 0.029297 0.459961
vt 0.058594 0.305664
vt 0.350586 0.987305
vt 0.029297 0.568359
vt 0.462891 0.734375
vt 0.138672 0.297852
vt 0.176758 0.409180
vt 0.702148 0.864258
vt 0.497070 0.734375
vt 0.176758 0.375000
vt 0.462891 0.731445
vt 0.138672 0.294922
vt 0.350586 0.409180
vt 0.702148 0.861328
vt 0.497070 0.731445
vt 0.350586 0.375000
vt 0.703125 0.864258
vt 0.462891 0.730469
vt 0.177734 0.375000
vt 0.137695 0.297852
vt 0.497070 0.730469
vt 0.177734 0.409180
vt 0.703125 0.861328
vt 0.462891 0.727539
vt 0.351562 0.375000
vt 0.137695 0.294922
vt 0.497070 0.727539
vt 0.351562 0.409180
vt 0.399414 0.505859
vt 0.113281 0.306641
vt 0.496094 0.367188
vt 0.693359 0.892578
vt 0.415039 0.505859
vt 0.496094 0.351562
vt 0.399414 0.500977
vt 0.113281 0.301758
vt 0.060547 0.366211
vt 0.693359 0.887695
vt 0.415039 0.500977
vt 0.060547 0.350586
vt 0.694336 0.892578
vt 0.495117 0.794922
vt 0.497070 0.351562
vt 0.112305 0.306641
vt 0.510742 0.794922
vt 0.497070 0.367188
vt 0.694336 0.887695
vt 0.495117 0.790039
vt 0.061523 0.350586
vt 0.112305 0.301758
vt 0.510742 0.790039
vt 0.061523 0.366211
vt 0.687500 0.504883
vt 0.142578 0.297852
vt 0.634766 0.732422
vt 0.139648 0.297852
vt 0.689453 0.504883
vt 0.634766 0.730469
vt 0.687500 0.501953
vt 0.142578 0.294922
vt 0.502930 0.365234
vt 0.139648 0.294922
vt 0.689453 0.501953
vt 0.502930 0.363281
vt 0.140625 0.297852
vt 0.687500 0.454102
vt 0.635742 0.730469
vt 0.141602 0.297852
vt 0.689453 0.454102
vt 0.635742 0.732422
vt 0.140625 0.294922
vt 0.687500 0.451172
vt 0.503906 0.363281
vt 0.141602 0.294922
vt 0.689453 0.451172
vt 0.503906 0.365234
vt 0.687500 0.350586
vt 0.146484 0.297852
vt 0.599609 0.365234
vt 0.143555 0.297852
vt 0.689453 0.350586
vt 0.599609 0.363281
vt 0.687500 0.347656
vt 0.146484 0.294922
vt 0.186523 0.364258
vt 0.143555 0.294922
vt 0.689453 0.347656
vt 0.186523 0.362305
vt 0.144531 0.297852
vt 0.060547 0.311523
vt 0.600586 0.363281
vt 0.145508 0.297852
vt 0.062500 0.311523
vt 0.600586 0.365234
vt 0.144531 0.294922
vt 0.060547 0.308594
vt 0.187500 0.362305
vt 0.145508 0.294922
vt 0.062500 0.308594
vt 0.187500 0.364258
s 0
usemtl m_c468fa65-bc7a-28d4-b1cd-3881abbe9ce4
f 4/10/1 7/19/1 5/13/1 2/4/1
f 3/7/2 4/11/2 2/5/2 1/1/2
f 8/22/3 3/8/3 1/2/3 6/16/3
f 7/20/4 8/23/4 6/17/4 5/14/4
f 6/18/5 1/3/5 2/6/5 5/15/5
f 7/21/6 4/12/6 3/9/6 8/24/6
f 12/34/1 15/43/1 13/37/1 10/28/1
f 11/31/2 12/35/2 10/29/2 9/25/2
f 16/46/3 11/32/3 9/26/3 14/40/3
f 15/44/4 16/47/4 14/41/4 13/38/4
f 14/42/5 9/27/5 10/30/5 13/39/5
f 15/45/6 12/36/6 11/33/6 16/48/6
f 20/58/7 23/67/7 21/61/7 18/52/7
f 19/55/2 20/59/2 18/53/2 17/49/2
f 24/70/8 19/56/8 17/50/8 22/64/8
f 23/68/4 24/71/4 22/65/4 21/62/4
f 22/66/9 17/51/9 18/54/9 21/63/9
f 23/69/10 20/60/10 19/57/10 24/72/10
f 28/82/11 31/91/11 29/85/11 26/76/11
f 27/79/2 28/83/2 26/77/2 25/73/2
f 32/94/12 27/80/12 25/74/12 30/88/12
f 31/92/4 32/95/4 30/89/4 29/86/4
f 30/90/13 25/75/13 26/78/13 29/87/13
f 31/93/14 28/84/14 27/81/14 32/96/14
f 36/106/15 39/115/15 37/109/15 34/100/15
f 35/103/2 36/107/2 34/101/2 33/97/2
f 40/118/16 35/104/16 33/98/16 38/112/16
f 39/116/4 40/119/4 38/113/4 37/110/4
f 38/114/17 33/99/17 34/102/17 37/111/17
f 39/117/18 36/108/18 35/105/18 40/120/18
f 44/130/19 47/139/19 45/133/19 42/124/19
f 43/127/2 44/131/2 42/125/2 41/121/2
f 48/142/20 43/128/20 41/122/20 46/136/20
f 47/140/4 48/143/4 46/137/4 45/134/4
f 46/138/21 41/123/21 42/126/21 45/135/21
f 47/141/22 44/132/22 43/129/22 48/144/22
f 52/154/15 55/163/15 53/157/15 50/148/15
f 51/151/2 52/155/2 50/149/2 49/145/2
f 56/166/16 51/152/16 49/146/16 54/160/16
f 55/164/4 56/167/4 54/161/4 53/158/4
f 54/162/17 49/147/17 50/150/17 53/159/17
f 55/165/18 52/156/18 51/153/18 56/168/18
f 60/178/15 63/187/15 61/181/15 58/172/15
f 59/175/2 60/179/2 58/173/2 57/169/2
f 64/190/16 59/176/16 57/170/16 62/184/16
f 63/188/4 64/191/4 62/185/4 61/182/4
f 62/186/17 57/171/17 58/174/17 61/183/17
f 63/189/18 60/180/18 59/177/18 64/192/18
f 68/202/15 71/211/15 69/205/15 66/196/15
f 67/199/2 68/203/2 66/197/2 65/193/2
f 72/214/16 67/200/16 65/194/16 70/208/16
f 71/212/4 72/215/4 70/209/4 69/206/4
f 70/210/17 65/195/17 66/198/17 69/207/17
f 71/213/18 68/204/18 67/201/18 72/216/18
f 76/226/15 79/235/15 77/229/15 74/220/15
f 75/223/2 76/227/2 74/221/2 73/217/2
f 80/238/16 75/224/16 73/218/16 78/232/16
f 79/236/4 80/239/4 78/233/4 77/230/4
f 78/234/17 73/219/17 74/222/17 77/231/17
f 79/237/18 76/228/18 75/225/18 80/240/18
f 84/250/19 87/259/19 85/253/19 82/244/19
f 83/247/2 84/251/2 82/245/2 81/241/2
f 88/262/20 83/248/20 81/242/20 86/256/20
f 87/260/4 88/263/4 86/257/4 85/254/4
f 86/258/21 81/243/21 82/246/21 85/255/21
f 87/261/22 84/252/22 83/249/22 88/264/22
f 92/274/15 95/283/15 93/277/15 90/268/15
f 91/271/2 92/275/2 90/269/2 89/265/2
f 96/286/16 91/272/16 89/266/16 94/280/16
f 95/284/4 96/287/4 94/281/4 93/278/4
f 94/282/17 89/267/17 90/270/17 93/279/17
f 95/285/18 92/276/18 91/273/18 96/288/18
f 100/298/11 103/307/11 101/301/11 98/292/11
f 99/295/2 100/299/2 98/293/2 97/289/2
f 104/310/12 99/296/12 97/290/12 102/304/12
f 103/308/4 104/311/4 102/305/4 101/302/4
f 102/306/13 97/291/13 98/294/13 101/303/13
f 103/309/14 100/300/14 99/297/14 104/312/14
f 108/322/7 111/331/7 109/325/7 106/316/7
f 107/319/2 108/323/2 106/317/2 105/313/2
f 112/334/8 107/320/8 105/314/8 110/328/8
f 111/332/4 112/335/4 110/329/4 109/326/4
f 110/330/9 105/315/9 106/318/9 109/327/9
f 111/333/10 108/324/10 107/321/10 112/336/10
o iron
v 2.070940 0.519137 0.813843
v 2.070940 0.519137 1.520743
v 2.070940 -0.020540 0.813843
v 2.070940 -0.020539 1.520743
v 2.108946 0.519137 1.520743
v 2.108946 0.519137 0.813843
v 2.108946 -0.020539 1.520743
v 2.108946 -0.020540 0.813843
v 2.106409 0.458360 1.573950
v 2.106409 0.458361 2.280850
v 2.028970 -0.075731 1.573950
v 2.028970 -0.075731 2.280850
v 2.144021 0.452907 2.280850
v 2.144021 0.452907 1.573950
v 2.066582 -0.081184 2.280850
v 2.066581 -0.081185 1.573950
v 2.054386 0.579216 0.038533
v 2.054386 0.579216 0.745433
v 2.077926 0.040053 0.038533
v 2.077926 0.040054 0.745433
v 2.092355 0.580874 0.745433
v 2.092355 0.580874 0.038533
v 2.115896 0.041711 0.745433
v 2.115895 0.041711 0.038533
v -2.144021 0.452907 1.573951
v -2.144021 0.452907 2.280851
v -2.066581 -0.081185 1.573951
v -2.066581 -0.081184 2.280851
v -2.106409 0.458361 2.280851
v -2.106409 0.458360 1.573951
v -2.028969 -0.075731 2.280851
v -2.028970 -0.075731 1.573951
v -2.108945 0.519137 0.813843
v -2.108945 0.519137 1.520743
v -2.108945 -0.020540 0.813843
v -2.108945 -0.020540 1.520743
v -2.070940 0.519137 1.520743
v -2.070940 0.519137 0.813843
v -2.070940 -0.020540 1.520743
v -2.070940 -0.020540 0.813843
v -2.092355 0.580874 0.038534
v -2.092355 0.580874 0.745434
v -2.115896 0.041711 0.038534
v -2.115896 0.041711 0.745434
v -2.054386 0.579216 0.745434
v -2.054386 0.579216 0.038534
v -2.077926 0.040054 0.745434
v -2.077926 0.040053 0.038534
v 1.905003 0.453316 0.084140
v 1.905003 0.453316 0.730231
v 1.925551 0.279703 0.084140
v 1.925551 0.279703 0.730231
v 2.044521 0.469829 0.730231
v 2.044521 0.469829 0.084140
v 2.065069 0.296216 0.730231
v 2.065069 0.296216 0.084140
v 1.905003 0.453316 0.844247
v 1.905003 0.453316 1.490339
v 1.925551 0.279703 0.844247
v 1.925551 0.279703 1.490339
v 2.044521 0.469829 1.490339
v 2.044521 0.469829 0.844247
v 2.065069 0.296216 1.490339
v 2.065069 0.296216 0.844247
v 1.912551 0.454210 1.604355
v 1.912552 0.454210 2.250446
v 1.933100 0.280597 1.604355
v 1.933100 0.280597 2.250446
v 2.052070 0.470723 2.250446
v 2.052069 0.470723 1.604355
v 2.072618 0.297110 2.250446
v 2.072618 0.297110 1.604355
v -2.044521 0.469829 0.084140
v -2.044521 0.469829 0.730232
v -2.065070 0.296216 0.084140
v -2.065069 0.296216 0.730232
v -1.905003 0.453316 0.730232
v -1.905003 0.453316 0.084140
v -1.925551 0.279703 0.730232
v -1.925551 0.279703 0.084140
v -2.044521 0.469829 0.844248
v -2.044521 0.469829 1.490339
v -2.065069 0.296216 0.844248
v -2.065069 0.296216 1.490339
v -1.905003 0.453316 1.490339
v -1.905003 0.453316 0.844248
v -1.925551 0.279703 1.490339
v -1.925551 0.279703 0.844248
v -2.052069 0.470723 1.604355
v -2.052069 0.470723 2.250447
v -2.072618 0.297110 1.604355
v -2.072618 0.297110 2.250447
v -1.912551 0.454210 2.250447
v -1.912551 0.454210 1.604355
v -1.933100 0.280597 2.250447
v -1.933100 0.280597 1.604355
vn -0.0000 -0.0000 1.0000
vn -1.0000 -0.0000 -0.0000
vn -0.0000 -0.0000 -1.0000
vn 1.0000 -0.0000 -0.0000
vn -0.0000 1.0000 -0.0000
vn -0.0000 -1.0000 -0.0000
vn -0.9897 0.1435 -0.0000
vn 0.9897 -0.1435 -0.0000
vn 0.1435 0.9897 -0.0000
vn -0.1435 -0.9897 -0.0000
vn -0.9990 -0.0436 -0.0000
vn 0.9990 0.0436 -0.0000
vn -0.0436 0.9990 -0.0000
vn 0.0436 -0.9990 -0.0000
vn -0.9897 -0.1435 -0.0000
vn 0.9897 0.1435 -0.0000
vn -0.1435 0.9897 -0.0000
vn 0.1435 -0.9897 -0.0000
vn -0.9990 0.0436 -0.0000
vn 0.9990 -0.0436 -0.0000
vn 0.0436 0.9990 -0.0000
vn -0.0436 -0.9990 -0.0000
vn -0.9931 -0.1175 -0.0000
vn 0.9931 0.1175 -0.0000
vn -0.1175 0.9931 -0.0000
vn 0.1175 -0.9931 -0.0000
vn -0.9931 0.1175 -0.0000
vn 0.9931 -0.1175 -0.0000
vn 0.1175 0.9931 -0.0000
vn -0.1175 -0.9931 -0.0000
vt 0.090820 0.538086
vt 0.207031 0.333008
vt 0.064453 0.679688
vt 0.168945 0.333008
vt 0.102539 0.538086
vt 0.064453 0.667969
vt 0.090820 0.529297
vt 0.207031 0.324219
vt 0.528320 0.452148
vt 0.168945 0.324219
vt 0.102539 0.529297
vt 0.528320 0.440430
vt 0.169922 0.333008
vt 0.307617 0.538086
vt 0.065430 0.667969
vt 0.206055 0.333008
vt 0.319336 0.538086
vt 0.065430 0.679688
vt 0.169922 0.324219
vt 0.307617 0.529297
vt 0.529297 0.440430
vt 0.206055 0.324219
vt 0.319336 0.529297
vt 0.529297 0.452148
vt 0.090820 0.538086
vt 0.207031 0.333008
vt 0.064453 0.679688
vt 0.168945 0.333008
vt 0.102539 0.538086
vt 0.064453 0.667969
vt 0.090820 0.529297
vt 0.207031 0.324219
vt 0.528320 0.452148
vt 0.168945 0.324219
vt 0.102539 0.529297
vt 0.528320 0.440430
vt 0.169922 0.333008
vt 0.307617 0.538086
vt 0.065430 0.667969
vt 0.206055 0.333008
vt 0.319336 0.538086
vt 0.065430 0.679688
vt 0.169922 0.324219
vt 0.307617 0.529297
vt 0.529297 0.440430
vt 0.206055 0.324219
vt 0.319336 0.529297
vt 0.529297 0.452148
vt 0.090820 0.538086
vt 0.207031 0.333008
vt 0.064453 0.679688
vt 0.168945 0.333008
vt 0.102539 0.538086
vt 0.064453 0.667969
vt 0.090820 0.529297
vt 0.207031 0.324219
vt 0.528320 0.452148
vt 0.168945 0.324219
vt 0.102539 0.529297
vt 0.528320 0.440430
vt 0.169922 0.333008
vt 0.307617 0.538086
vt 0.065430 0.667969
vt 0.206055 0.333008
vt 0.319336 0.538086
vt 0.065430 0.679688
vt 0.169922 0.324219
vt 0.307617 0.529297
vt 0.529297 0.440430
vt 0.206055 0.324219
vt 0.319336 0.529297
vt 0.529297 0.452148
vt 0.090820 0.538086
vt 0.457031 0.333008
vt 0.182617 0.352539
vt 0.379883 0.333008
vt 0.102539 0.538086
vt 0.182617 0.340820
vt 0.090820 0.529297
vt 0.457031 0.324219
vt 0.242188 0.352539
vt 0.379883 0.324219
vt 0.102539 0.529297
vt 0.242188 0.340820
vt 0.380859 0.333008
vt 0.307617 0.538086
vt 0.183594 0.340820
vt 0.456055 0.333008
vt 0.319336 0.538086
vt 0.183594 0.352539
vt 0.380859 0.324219
vt 0.307617 0.529297
vt 0.243164 0.340820
vt 0.456055 0.324219
vt 0.319336 0.529297
vt 0.243164 0.352539
vt 0.090820 0.538086
vt 0.457031 0.333008
vt 0.182617 0.352539
vt 0.379883 0.333008
vt 0.102539 0.538086
vt 0.182617 0.340820
vt 0.090820 0.529297
vt 0.457031 0.324219
vt 0.242188 0.352539
vt 0.379883 0.324219
vt 0.102539 0.529297
vt 0.242188 0.340820
vt 0.380859 0.333008
vt 0.307617 0.538086
vt 0.183594 0.340820
vt 0.456055 0.333008
vt 0.319336 0.538086
vt 0.183594 0.352539
vt 0.380859 0.324219
vt 0.307617 0.529297
vt 0.243164 0.340820
vt 0.456055 0.324219
vt 0.319336 0.529297
vt 0.243164 0.352539
vt 0.090820 0.538086
vt 0.457031 0.333008
vt 0.182617 0.352539
vt 0.379883 0.333008
vt 0.102539 0.538086
vt 0.182617 0.340820
vt 0.090820 0.529297
vt 0.457031 0.324219
vt 0.242188 0.352539
vt 0.379883 0.324219
vt 0.102539 0.529297
vt 0.242188 0.340820
vt 0.380859 0.333008
vt 0.307617 0.538086
vt 0.183594 0.340820
vt 0.456055 0.333008
vt 0.319336 0.538086
vt 0.183594 0.352539
vt 0.380859 0.324219
vt 0.307617 0.529297
vt 0.243164 0.340820
vt 0.456055 0.324219
vt 0.319336 0.529297
vt 0.243164 0.352539
vt 0.598633 0.608398
vt 0.393555 0.313477
vt 0.107422 0.378906
vt 0.388672 0.313477
vt 0.609375 0.608398
vt 0.107422 0.368164
vt 0.598633 0.605469
vt 0.393555 0.310547
vt 0.505859 0.378906
vt 0.388672 0.310547
vt 0.609375 0.605469
vt 0.505859 0.368164
vt 0.390625 0.313477
vt 0.598633 0.583008
vt 0.109375 0.368164
vt 0.391602 0.313477
vt 0.609375 0.583008
vt 0.109375 0.378906
vt 0.390625 0.310547
vt 0.598633 0.580078
vt 0.507812 0.368164
vt 0.391602 0.310547
vt 0.609375 0.580078
vt 0.507812 0.378906
vt 0.598633 0.680664
vt 0.358398 0.313477
vt 0.303711 0.437500
vt 0.353516 0.313477
vt 0.609375 0.680664
vt 0.303711 0.426758
vt 0.598633 0.677734
vt 0.358398 0.310547
vt 0.018555 0.378906
vt 0.353516 0.310547
vt 0.609375 0.677734
vt 0.018555 0.368164
vt 0.355469 0.313477
vt 0.598633 0.649414
vt 0.305664 0.426758
vt 0.356445 0.313477
vt 0.609375 0.649414
vt 0.305664 0.437500
vt 0.355469 0.310547
vt 0.598633 0.646484
vt 0.020508 0.368164
vt 0.356445 0.310547
vt 0.609375 0.646484
vt 0.020508 0.378906
vt 0.598633 0.901367
vt 0.352539 0.313477
vt 0.037109 0.656250
vt 0.309570 0.313477
vt 0.609375 0.901367
vt 0.037109 0.645508
vt 0.598633 0.898438
vt 0.352539 0.310547
vt 0.030273 0.516602
vt 0.309570 0.310547
vt 0.609375 0.898438
vt 0.030273 0.505859
vt 0.311523 0.313477
vt 0.598633 0.803711
vt 0.039062 0.645508
vt 0.350586 0.313477
vt 0.609375 0.803711
vt 0.039062 0.656250
vt 0.311523 0.310547
vt 0.598633 0.800781
vt 0.032227 0.505859
vt 0.350586 0.310547
vt 0.609375 0.800781
vt 0.032227 0.516602
vt 0.598633 0.542969
vt 0.688477 0.384766
vt 0.508789 0.378906
vt 0.686523 0.397461
vt 0.609375 0.542969
vt 0.508789 0.368164
vt 0.598633 0.540039
vt 0.688477 0.381836
vt 0.511719 0.378906
vt 0.686523 0.394531
vt 0.609375 0.540039
vt 0.511719 0.368164
vt 0.688477 0.397461
vt 0.598633 0.539062
vt 0.510742 0.368164
vt 0.686523 0.384766
vt 0.609375 0.539062
vt 0.510742 0.378906
vt 0.688477 0.394531
vt 0.598633 0.536133
vt 0.513672 0.368164
vt 0.686523 0.381836
vt 0.609375 0.536133
vt 0.513672 0.378906
vt 0.598633 0.471680
vt 0.688477 0.364258
vt 0.056641 0.377930
vt 0.686523 0.368164
vt 0.609375 0.471680
vt 0.056641 0.367188
vt 0.598633 0.468750
vt 0.688477 0.361328
vt 0.059570 0.377930
vt 0.686523 0.365234
vt 0.609375 0.468750
vt 0.059570 0.367188
vt 0.688477 0.368164
vt 0.598633 0.420898
vt 0.058594 0.367188
vt 0.686523 0.364258
vt 0.609375 0.420898
vt 0.058594 0.377930
vt 0.688477 0.365234
vt 0.598633 0.417969
vt 0.061523 0.367188
vt 0.686523 0.361328
vt 0.609375 0.417969
vt 0.061523 0.377930
vt 0.598633 0.416992
vt 0.688477 0.326172
vt 0.110352 0.377930
vt 0.686523 0.346680
vt 0.609375 0.416992
vt 0.110352 0.367188
vt 0.598633 0.414062
vt 0.688477 0.323242
vt 0.113281 0.377930
vt 0.686523 0.343750
vt 0.609375 0.414062
vt 0.113281 0.367188
vt 0.688477 0.346680
vt 0.596680 0.401367
vt 0.112305 0.367188
vt 0.686523 0.326172
vt 0.607422 0.401367
vt 0.112305 0.377930
vt 0.688477 0.343750
vt 0.596680 0.398438
vt 0.115234 0.367188
vt 0.686523 0.323242
vt 0.607422 0.398438
vt 0.115234 0.377930
s 0
usemtl m_c468fa65-bc7a-28d4-b1cd-3881abbe9ce4.001
f 116/346/23 119/355/23 117/349/23 114/340/23
f 115/343/24 116/347/24 114/341/24 113/337/24
f 120/358/25 115/344/25 113/338/25 118/352/25
f 119/356/26 120/359/26 118/353/26 117/350/26
f 118/354/27 113/339/27 114/342/27 117/351/27
f 119/357/28 116/348/28 115/345/28 120/360/28
f 124/370/23 127/379/23 125/373/23 122/364/23
f 123/367/29 124/371/29 122/365/29 121/361/29
f 128/382/25 123/368/25 121/362/25 126/376/25
f 127/380/30 128/383/30 126/377/30 125/374/30
f 126/378/31 121/363/31 122/366/31 125/375/31
f 127/381/32 124/372/32 123/369/32 128/384/32
f 132/394/23 135/403/23 133/397/23 130/388/23
f 131/391/33 132/395/33 130/389/33 129/385/33
f 136/406/25 131/392/25 129/386/25 134/400/25
f 135/404/34 136/407/34 134/401/34 133/398/34
f 134/402/35 129/387/35 130/390/35 133/399/35
f 135/405/36 132/396/36 131/393/36 136/408/36
f 140/418/23 143/427/23 141/421/23 138/412/23
f 139/415/37 140/419/37 138/413/37 137/409/37
f 144/430/25 139/416/25 137/410/25 142/424/25
f 143/428/38 144/431/38 142/425/38 141/422/38
f 142/426/39 137/411/39 138/414/39 141/423/39
f 143/429/40 140/420/40 139/417/40 144/432/40
f 148/442/23 151/451/23 149/445/23 146/436/23
f 147/439/24 148/443/24 146/437/24 145/433/24
f 152/454/25 147/440/25 145/434/25 150/448/25
f 151/452/26 152/455/26 150/449/26 149/446/26
f 150/450/27 145/435/27 146/438/27 149/447/27
f 151/453/28 148/444/28 147/441/28 152/456/28
f 156/466/23 159/475/23 157/469/23 154/460/23
f 155/463/41 156/467/41 154/461/41 153/457/41
f 160/478/25 155/464/25 153/458/25 158/472/25
f 159/476/42 160/479/42 158/473/42 157/470/42
f 158/474/43 153/459/43 154/462/43 157/471/43
f 159/477/44 156/468/44 155/465/44 160/480/44
f 164/490/23 167/499/23 165/493/23 162/484/23
f 163/487/45 164/491/45 162/485/45 161/481/45
f 168/502/25 163/488/25 161/482/25 166/496/25
f 167/500/46 168/503/46 166/497/46 165/494/46
f 166/498/47 161/483/47 162/486/47 165/495/47
f 167/501/48 164/492/48 163/489/48 168/504/48
f 172/514/23 175/523/23 173/517/23 170/508/23
f 171/511/45 172/515/45 170/509/45 169/505/45
f 176/526/25 171/512/25 169/506/25 174/520/25
f 175/524/46 176/527/46 174/521/46 173/518/46
f 174/522/47 169/507/47 170/510/47 173/519/47
f 175/525/48 172/516/48 171/513/48 176/528/48
f 180/538/23 183/547/23 181/541/23 178/532/23
f 179/535/45 180/539/45 178/533/45 177/529/45
f 184/550/25 179/536/25 177/530/25 182/544/25
f 183/548/46 184/551/46 182/545/46 181/542/46
f 182/546/47 177/531/47 178/534/47 181/543/47
f 183/549/48 180/540/48 179/537/48 184/552/48
f 188/562/23 191/571/23 189/565/23 186/556/23
f 187/559/49 188/563/49 186/557/49 185/553/49
f 192/574/25 187/560/25 185/554/25 190/568/25
f 191/572/50 192/575/50 190/569/50 189/566/50
f 190/570/51 185/555/51 186/558/51 189/567/51
f 191/573/52 188/564/52 187/561/52 192/576/52
f 196/586/23 199/595/23 197/589/23 194/580/23
f 195/583/49 196/587/49 194/581/49 193/577/49
f 200/598/25 195/584/25 193/578/25 198/592/25
f 199/596/50 200/599/50 198/593/50 197/590/50
f 198/594/51 193/579/51 194/582/51 197/591/51
f 199/597/52 196/588/52 195/585/52 200/600/52
f 204/610/23 207/619/23 205/613/23 202/604/23
f 203/607/49 204/611/49 202/605/49 201/601/49
f 208/622/25 203/608/25 201/602/25 206/616/25
f 207/620/50 208/623/50 206/617/50 205/614/50
f 206/618/51 201/603/51 202/606/51 205/615/51
f 207/621/52 204/612/52 203/609/52 208/624/52
