# Blender 3.3.21
# www.blender.org
mtllib bort_t72b32016.mtl
o bort_t72b32016
v 2.022794 1.024523 2.530280
v 2.022794 1.160682 1.234820
v 2.022794 0.872082 2.514258
v 2.022794 1.008240 1.218798
v 1.968632 1.160682 1.234820
v 1.968632 1.024523 2.530280
v 1.968632 1.008240 1.218798
v 1.968632 0.872082 2.514258
v 1.190211 1.079610 1.653713
v 1.190212 0.987273 3.163423
v 1.190211 1.049093 1.651847
v 1.190212 0.956756 3.161557
v 1.862846 0.987273 3.163423
v 1.862845 1.079610 1.653713
v 1.862846 0.956756 3.161557
v 1.862845 1.049093 1.651847
v 1.190212 0.987273 3.163423
v 1.190212 0.706453 3.486469
v 1.190212 0.964198 3.143365
v 1.190212 0.683379 3.466411
v 1.862846 0.706453 3.486469
v 1.862846 0.987273 3.163423
v 1.862846 0.683379 3.466411
v 1.862846 0.964198 3.143365
v 1.862845 1.086650 1.538618
v 1.862846 0.987273 3.163423
v 1.849924 1.058992 1.536926
v 1.849924 0.959615 3.161732
v 2.001394 0.922787 3.159479
v 2.001394 1.022164 1.534674
v 1.988473 0.895129 3.157788
v 1.988473 0.994506 1.532982
v 1.862846 0.989685 3.160649
v 1.862846 0.706453 3.486469
v 1.849924 0.968772 3.142470
v 1.849924 0.685541 3.468290
v 2.001394 0.657694 3.444084
v 2.001394 0.940926 3.118263
v 1.988473 0.636782 3.425905
v 1.988473 0.920013 3.100084
v 2.000823 0.957646 2.580186
v 2.000823 0.922252 3.158875
v 1.971391 0.957646 2.580186
v 1.971391 0.922252 3.158875
v 2.000823 0.587702 3.138413
v 2.000823 0.623096 2.559724
v 1.971391 0.587702 3.138413
v 1.971391 0.623096 2.559724
v 2.001394 0.769620 2.502430
v 2.001394 0.924949 3.125418
v 1.970820 0.769620 2.502430
v 1.970820 0.924949 3.125418
v 2.001394 0.606038 3.204932
v 2.001394 0.450710 2.581944
v 1.970820 0.606038 3.204932
v 1.970820 0.450710 2.581944
v 2.001394 0.659832 3.191519
v 2.001394 0.710941 3.396507
v 1.970820 0.659832 3.191519
v 1.970820 0.710941 3.396507
v 2.001394 0.657148 3.409919
v 2.001394 0.606038 3.204932
v 1.970820 0.657148 3.409919
v 1.970820 0.606038 3.204932
v 2.000253 0.509319 3.313591
v 2.000253 0.751063 3.035497
v 1.971962 0.509319 3.313591
v 1.971962 0.751063 3.035497
v 2.000253 0.899325 3.164379
v 2.000253 0.657582 3.442473
v 1.971962 0.899325 3.164379
v 1.971962 0.657582 3.442473
v 1.863872 0.988124 3.162674
v 1.847450 0.956200 3.211071
v 1.850469 0.966430 3.143816
v 1.834046 0.934507 3.192213
v 1.980573 0.878967 3.205298
v 1.996995 0.910891 3.156901
v 1.967169 0.857273 3.186440
v 1.983592 0.889197 3.138043
v 1.049918 0.882482 1.594760
v 1.049918 0.787753 3.143563
v 1.074963 0.864978 1.593689
v 1.074963 0.770249 3.142492
v 1.190212 0.987739 3.155794
v 1.190211 1.082468 1.606991
v 1.215256 0.970235 3.154724
v 1.215256 1.064964 1.605921
v 1.041916 0.700250 1.572176
v 1.041916 0.614156 2.979788
v 1.072461 0.698918 1.572094
v 1.072461 0.612825 2.979707
v 1.049918 0.797086 2.990976
v 1.049918 0.883179 1.583364
v 1.080463 0.795755 2.990895
v 1.080463 0.881848 1.583283
v 0.809559 0.452549 2.688479
v 0.633398 0.515138 2.920795
v 1.252531 0.507620 3.009542
v 1.076370 0.570209 3.241857
v 0.635940 0.570657 2.907765
v 0.812101 0.508068 2.675449
v 1.078912 0.625728 3.228827
v 1.255073 0.563139 2.996511
v 1.063500 0.819277 2.962196
v 1.048989 0.796751 2.991026
v 1.089481 0.801120 2.961086
v 1.074969 0.778593 2.989916
v 1.177113 0.967946 3.189282
v 1.191624 0.990473 3.160453
v 1.203093 0.949788 3.188172
v 1.217604 0.972315 3.159342
v 1.056183 0.779879 2.983139
v 1.056183 0.504074 3.300416
v 1.083663 0.769763 2.974346
v 1.083663 0.493959 3.291623
v 1.190212 0.711468 3.480700
v 1.190212 0.987273 3.163423
v 1.217691 0.701353 3.471907
v 1.217691 0.977158 3.154630
v 1.050583 0.710784 2.923075
v 1.050583 0.490140 3.176897
v 1.081100 0.709375 2.921851
v 1.081100 0.488731 3.175673
v 1.056183 0.559235 3.236960
v 1.056183 0.779879 2.983139
v 1.086700 0.557826 3.235736
v 1.086700 0.778470 2.981914
v 1.067597 0.635740 3.186608
v 1.055356 0.558693 3.236984
v 1.096103 0.625247 3.177486
v 1.083862 0.548200 3.227862
v 1.174072 0.686374 3.461113
v 1.186313 0.763421 3.410737
v 1.202578 0.675881 3.451992
v 1.214819 0.752928 3.401616
v 2.023080 1.160404 1.235384
v 2.023079 1.160404 -1.617701
v 2.023080 0.815624 1.235385
v 2.023079 0.815623 -1.617701
v 1.968346 1.160404 -1.617701
v 1.968347 1.160404 1.235384
v 1.968346 0.815623 -1.617701
v 1.968347 0.815624 1.235385
v 2.023651 0.750892 2.577496
v 2.023650 0.750892 -1.675302
v 2.023651 0.405510 2.577496
v 2.023650 0.405509 -1.675302
v 2.011091 0.750892 -1.675302
v 2.011091 0.750892 2.577496
v 2.011091 0.405509 -1.675302
v 2.011091 0.405510 2.577496
v 2.023651 1.022822 2.577496
v 2.023650 1.022822 1.182708
v 2.023651 0.815053 2.577496
v 2.023650 0.815053 1.182708
v 1.967775 1.022822 1.182708
v 1.967776 1.022822 2.577496
v 1.967775 0.815053 1.182708
v 1.967776 0.815053 2.577496
v 2.011580 0.897718 2.585629
v 2.011580 0.897717 -1.680170
v 2.011580 0.319833 2.585629
v 2.011580 0.319832 -1.680170
v 1.985483 0.897717 -1.680170
v 1.985483 0.897718 2.585629
v 1.985483 0.319832 -1.680170
v 1.985483 0.319833 2.585629
v 2.011091 0.609873 2.513211
v 2.011091 0.337320 1.459325
v 2.011091 0.319789 2.588231
v 2.011091 0.047235 1.534346
v 1.986951 0.337320 1.459325
v 1.986951 0.609873 2.513211
v 1.986951 0.047235 1.534346
v 1.986951 0.319789 2.588231
v 2.010520 0.342830 1.610203
v 2.010520 0.447476 1.205566
v 2.010520 0.047931 1.533937
v 2.010520 0.152577 1.129300
v 1.986543 0.447476 1.205566
v 1.986543 0.342830 1.610203
v 1.986543 0.152577 1.129300
v 1.986543 0.047931 1.533937
v 2.010520 0.342830 0.905798
v 2.010520 0.447476 0.501162
v 2.010520 0.047931 0.829533
v 2.010520 0.152577 0.424896
v 1.986543 0.447476 0.501162
v 1.986543 0.342830 0.905798
v 1.986543 0.152577 0.424896
v 1.986543 0.047931 0.829533
v 2.010602 0.448304 1.153116
v 2.010602 0.336568 0.750211
v 2.010602 0.159573 1.233189
v 2.010602 0.047838 0.830283
v 1.986462 0.336568 0.750211
v 1.986462 0.448304 1.153116
v 1.986462 0.047838 0.830283
v 1.986462 0.159573 1.233189
v 2.010520 0.349110 0.201394
v 2.010520 0.453755 -0.203242
v 2.010520 0.054211 0.125128
v 2.010520 0.158856 -0.279508
v 1.986543 0.453755 -0.203242
v 1.986543 0.349110 0.201394
v 1.986543 0.158856 -0.279508
v 1.986543 0.054211 0.125128
v 2.010602 0.449837 0.459354
v 2.010602 0.344195 0.050868
v 2.010602 0.159753 0.534375
v 2.010602 0.054111 0.125889
v 1.986461 0.344195 0.050868
v 1.986462 0.449837 0.459354
v 1.986461 0.054111 0.125889
v 1.986462 0.159753 0.534375
v 2.010602 0.465176 -0.192016
v 2.010602 0.344195 -0.659815
v 2.010602 0.175092 -0.116995
v 2.010602 0.054111 -0.584794
v 1.986461 0.344195 -0.659815
v 1.986461 0.465176 -0.192016
v 1.986461 0.054111 -0.584794
v 1.986461 0.175092 -0.116995
v 2.010520 0.349109 -0.509289
v 2.010520 0.438445 -0.854725
v 2.010520 0.054210 -0.585555
v 2.010520 0.143546 -0.930991
v 1.986543 0.438445 -0.854725
v 1.986543 0.349109 -0.509289
v 1.986543 0.143546 -0.930991
v 1.986543 0.054210 -0.585555
v 2.010602 0.424531 -0.883738
v 2.010602 0.349597 -1.331526
v 2.010602 0.129012 -0.834285
v 2.010602 0.054078 -1.282073
v 1.986461 0.349597 -1.331526
v 1.986461 0.424531 -0.883738
v 1.986461 0.054078 -1.282073
v 1.986461 0.129012 -0.834285
v 2.010031 0.652368 -1.149001
v 2.010031 1.241035 -3.804304
v 2.010031 0.056492 -1.281103
v 2.010031 0.645158 -3.936406
v 1.986053 1.241035 -3.804304
v 1.986054 0.652368 -1.149001
v 1.986053 0.645158 -3.936406
v 1.986053 0.056492 -1.281103
v 2.011091 0.973408 -1.582637
v 2.011090 0.973408 -3.948000
v 2.011091 0.641920 -1.582637
v 2.011090 0.641920 -3.948000
v 1.985971 0.973408 -3.948000
v 1.985972 0.973408 -1.582637
v 1.985971 0.641920 -3.948000
v 1.985972 0.641920 -1.582637
v 2.165926 0.273317 -2.069757
v 2.165926 0.612335 -2.888221
v 2.165926 0.215768 -2.093595
v 2.165926 0.554787 -2.912058
v 2.050615 0.612335 -2.888221
v 2.050615 0.273317 -2.069757
v 2.050615 0.554787 -2.912058
v 2.050615 0.215768 -2.093595
v 1.967776 0.987383 2.408212
v 1.967775 1.130134 1.050019
v 1.967776 0.860659 2.394893
v 1.967775 1.003411 1.036700
v 1.851323 1.130134 1.050019
v 1.851323 0.987383 2.408212
v 1.851323 1.003411 1.036700
v 1.851323 0.860659 2.394893
v 1.967775 1.131976 1.053285
v 1.967775 1.131976 -1.748183
v 1.967775 0.809344 1.053285
v 1.967775 0.809344 -1.748182
v 1.851323 1.131976 -1.748182
v 1.851323 1.131976 1.053285
v 1.851323 0.809344 -1.748182
v 1.851323 0.809344 1.053285
v 1.146625 0.895752 -4.303203
v 1.146625 1.041000 -4.191750
v 1.146625 0.737861 -4.097435
v 1.146625 0.883109 -3.985982
v 1.966825 1.041000 -4.191750
v 1.966825 0.895752 -4.303203
v 1.966825 0.883109 -3.985982
v 1.966825 0.737861 -4.097435
v 1.935170 0.981918 -4.116246
v 1.935170 0.981918 -3.210439
v 1.935170 0.722553 -4.116246
v 1.935170 0.722553 -3.210439
v 1.965683 0.981918 -3.210439
v 1.965683 0.981918 -4.116246
v 1.965683 0.722553 -3.210439
v 1.965683 0.722553 -4.116246
v -1.986950 0.609873 2.513211
v -1.986951 0.337320 1.459326
v -1.986950 0.319789 2.588232
v -1.986951 0.047235 1.534347
v -2.011091 0.337320 1.459326
v -2.011091 0.609873 2.513211
v -2.011091 0.047235 1.534347
v -2.011091 0.319789 2.588232
v -1.862845 1.079610 1.653714
v -1.862845 0.987273 3.163424
v -1.862845 1.049093 1.651847
v -1.862845 0.956756 3.161557
v -1.190211 0.987273 3.163424
v -1.190211 1.079610 1.653714
v -1.190211 0.956756 3.161557
v -1.190211 1.049093 1.651847
v -1.862845 0.987273 3.163424
v -1.862845 0.706453 3.486470
v -1.862845 0.964198 3.143365
v -1.862845 0.683379 3.466411
v -1.190211 0.706453 3.486470
v -1.190211 0.987273 3.163424
v -1.190211 0.683379 3.466411
v -1.190211 0.964198 3.143365
v -2.001394 1.022164 1.534674
v -2.001393 0.922787 3.159480
v -1.988472 0.994506 1.532982
v -1.988472 0.895129 3.157788
v -1.862845 0.987273 3.163424
v -1.862845 1.086650 1.538618
v -1.849923 0.959615 3.161732
v -1.849924 1.058992 1.536927
v -2.001393 0.940926 3.118264
v -2.001393 0.657694 3.444084
v -1.988472 0.920013 3.100085
v -1.988472 0.636782 3.425905
v -1.862845 0.706453 3.486470
v -1.862845 0.989685 3.160649
v -1.849923 0.685541 3.468291
v -1.849923 0.968772 3.142470
v -2.000823 0.623096 2.559725
v -2.000823 0.587702 3.138413
v -1.971390 0.623096 2.559725
v -1.971390 0.587702 3.138413
v -2.000823 0.922252 3.158875
v -2.000823 0.957646 2.580187
v -1.971390 0.922252 3.158875
v -1.971390 0.957646 2.580187
v -2.001393 0.450710 2.581944
v -2.001393 0.606038 3.204932
v -1.970819 0.450710 2.581944
v -1.970819 0.606038 3.204932
v -2.001393 0.924949 3.125419
v -2.001393 0.769620 2.502430
v -1.970819 0.924949 3.125419
v -1.970819 0.769620 2.502430
v -2.001393 0.606038 3.204932
v -2.001393 0.657148 3.409920
v -1.970819 0.606038 3.204932
v -1.970819 0.657148 3.409920
v -2.001393 0.710941 3.396508
v -2.001393 0.659832 3.191520
v -1.970819 0.710941 3.396507
v -1.970819 0.659832 3.191520
v -2.000252 0.657582 3.442474
v -2.000252 0.899325 3.164380
v -1.971961 0.657582 3.442474
v -1.971961 0.899325 3.164380
v -2.000252 0.751063 3.035497
v -2.000252 0.509319 3.313591
v -1.971961 0.751063 3.035497
v -1.971961 0.509319 3.313591
v -1.996994 0.910891 3.156902
v -1.980572 0.878967 3.205298
v -1.983591 0.889197 3.138044
v -1.967168 0.857273 3.186440
v -1.847449 0.956200 3.211071
v -1.863871 0.988124 3.162675
v -1.834045 0.934507 3.192214
v -1.850468 0.966430 3.143817
v -1.190211 1.082468 1.606992
v -1.190211 0.987739 3.155795
v -1.215256 1.064964 1.605921
v -1.215255 0.970235 3.154724
v -1.049917 0.787753 3.143563
v -1.049917 0.882482 1.594760
v -1.074962 0.770249 3.142492
v -1.074962 0.864978 1.593690
v -1.049917 0.883179 1.583365
v -1.049917 0.797086 2.990977
v -1.080462 0.881848 1.583283
v -1.080462 0.795755 2.990895
v -1.041915 0.614156 2.979788
v -1.041915 0.700250 1.572176
v -1.072460 0.612825 2.979707
v -1.072461 0.698918 1.572095
v -0.812100 0.508068 2.675450
v -0.635939 0.570657 2.907765
v -1.255072 0.563139 2.996511
v -1.078911 0.625728 3.228827
v -0.633397 0.515138 2.920796
v -0.809558 0.452549 2.688480
v -1.076369 0.570209 3.241858
v -1.252530 0.507620 3.009542
v -1.191623 0.990473 3.160453
v -1.177112 0.967946 3.189283
v -1.217603 0.972315 3.159343
v -1.203092 0.949788 3.188172
v -1.048988 0.796751 2.991026
v -1.063499 0.819277 2.962197
v -1.074968 0.778593 2.989916
v -1.089480 0.801120 2.961086
v -1.190211 0.987273 3.163424
v -1.190211 0.711468 3.480701
v -1.217690 0.977158 3.154631
v -1.217690 0.701353 3.471908
v -1.056182 0.504074 3.300416
v -1.056182 0.779879 2.983139
v -1.083662 0.493959 3.291623
v -1.083662 0.769763 2.974346
v -1.056182 0.779879 2.983139
v -1.056182 0.559235 3.236961
v -1.086699 0.778470 2.981914
v -1.086699 0.557826 3.235736
v -1.050582 0.490140 3.176897
v -1.050582 0.710784 2.923075
v -1.081099 0.488731 3.175673
v -1.081099 0.709375 2.921851
v -1.186312 0.763421 3.410738
v -1.174071 0.686374 3.461113
v -1.214818 0.752928 3.401616
v -1.202577 0.675881 3.451992
v -1.055355 0.558693 3.236984
v -1.067596 0.635740 3.186608
v -1.083861 0.548200 3.227863
v -1.096102 0.625247 3.177487
v -1.968631 1.024524 2.530281
v -1.968631 1.160682 1.234821
v -1.968631 0.872082 2.514259
v -1.968631 1.008240 1.218799
v -2.022794 1.160682 1.234821
v -2.022794 1.024524 2.530281
v -2.022794 1.008240 1.218799
v -2.022794 0.872082 2.514259
v -1.985483 0.897718 2.585629
v -1.985483 0.897717 -1.680170
v -1.985483 0.319833 2.585630
v -1.985483 0.319832 -1.680169
v -2.011580 0.897717 -1.680170
v -2.011580 0.897718 2.585629
v -2.011580 0.319832 -1.680169
v -2.011580 0.319833 2.585630
v -1.968346 1.160404 1.235385
v -1.968347 1.160404 -1.617700
v -1.968346 0.815624 1.235385
v -1.968347 0.815623 -1.617700
v -2.023080 1.160404 -1.617700
v -2.023079 1.160404 1.235385
v -2.023080 0.815623 -1.617700
v -2.023079 0.815624 1.235385
v -1.986543 0.342830 1.610203
v -1.986543 0.447476 1.205567
v -1.986543 0.047931 1.533937
v -1.986543 0.152577 1.129301
v -2.010520 0.447476 1.205567
v -2.010520 0.342830 1.610203
v -2.010520 0.152577 1.129301
v -2.010520 0.047931 1.533937
v -1.986543 0.342830 0.905799
v -1.986543 0.447476 0.501163
v -1.986543 0.047931 0.829533
v -1.986543 0.152577 0.424897
v -2.010520 0.447476 0.501163
v -2.010520 0.342830 0.905799
v -2.010520 0.152577 0.424897
v -2.010520 0.047931 0.829533
v -1.986461 0.448304 1.153117
v -1.986461 0.336568 0.750211
v -1.986461 0.159573 1.233189
v -1.986461 0.047838 0.830284
v -2.010602 0.336568 0.750211
v -2.010602 0.448304 1.153117
v -2.010602 0.047838 0.830284
v -2.010602 0.159573 1.233189
v -1.986543 0.349110 0.201395
v -1.986543 0.453755 -0.203241
v -1.986543 0.054211 0.125129
v -1.986543 0.158856 -0.279507
v -2.010520 0.453755 -0.203241
v -2.010520 0.349110 0.201395
v -2.010520 0.158856 -0.279507
v -2.010520 0.054211 0.125129
v -1.986461 0.449837 0.459355
v -1.986461 0.344195 0.050869
v -1.986461 0.159753 0.534376
v -1.986461 0.054111 0.125890
v -2.010602 0.344195 0.050869
v -2.010602 0.449837 0.459355
v -2.010602 0.054111 0.125890
v -2.010602 0.159753 0.534376
v -1.986461 0.465176 -0.192015
v -1.986462 0.344195 -0.659815
v -1.986461 0.175092 -0.116995
v -1.986462 0.054111 -0.584794
v -2.010602 0.344195 -0.659815
v -2.010602 0.465176 -0.192015
v -2.010602 0.054111 -0.584794
v -2.010602 0.175092 -0.116995
v -1.986543 0.349109 -0.509289
v -1.986543 0.438445 -0.854724
v -1.986543 0.054210 -0.585555
v -1.986543 0.143546 -0.930990
v -2.010520 0.438445 -0.854724
v -2.010520 0.349109 -0.509289
v -2.010520 0.143546 -0.930990
v -2.010520 0.054210 -0.585555
v -1.986462 0.424531 -0.883737
v -1.986462 0.349597 -1.331525
v -1.986462 0.129012 -0.834284
v -1.986462 0.054078 -1.282072
v -2.010602 0.349597 -1.331525
v -2.010602 0.424531 -0.883737
v -2.010602 0.054078 -1.282072
v -2.010602 0.129012 -0.834284
v -1.986054 0.652368 -1.149000
v -1.986054 1.241035 -3.804303
v -1.986054 0.056492 -1.281103
v -1.986054 0.645158 -3.936405
v -2.010031 1.241035 -3.804303
v -2.010031 0.652368 -1.149000
v -2.010031 0.645158 -3.936405
v -2.010031 0.056492 -1.281103
v -1.985972 0.973408 -1.582637
v -1.985973 0.973408 -3.948000
v -1.985972 0.641920 -1.582637
v -1.985973 0.641920 -3.947999
v -2.011092 0.973408 -3.948000
v -2.011091 0.973408 -1.582637
v -2.011092 0.641920 -3.947999
v -2.011091 0.641920 -1.582637
v -2.050616 0.273317 -2.069757
v -2.050616 0.612335 -2.888220
v -2.050616 0.215768 -2.093594
v -2.050616 0.554787 -2.912057
v -2.165926 0.612335 -2.888220
v -2.165926 0.273317 -2.069757
v -2.165926 0.554787 -2.912057
v -2.165926 0.215768 -2.093594
v -1.851323 0.987383 2.408212
v -1.851323 1.130134 1.050019
v -1.851323 0.860659 2.394893
v -1.851323 1.003411 1.036700
v -1.967775 1.130134 1.050019
v -1.967775 0.987383 2.408212
v -1.967775 1.003411 1.036700
v -1.967775 0.860659 2.394893
v -1.851323 1.131976 1.053285
v -1.851323 1.131976 -1.748182
v -1.851323 0.809344 1.053285
v -1.851323 0.809344 -1.748182
v -1.967776 1.131976 -1.748182
v -1.967775 1.131976 1.053285
v -1.967776 0.809344 -1.748182
v -1.967775 0.809344 1.053285
v -1.965684 0.981918 -4.116245
v -1.965684 0.981918 -3.210439
v -1.965684 0.722553 -4.116245
v -1.965684 0.722553 -3.210439
v -1.935171 0.981918 -3.210439
v -1.935171 0.981918 -4.116245
v -1.935171 0.722553 -3.210439
v -1.935171 0.722553 -4.116245
v -1.966826 0.895752 -4.303202
v -1.966826 1.041000 -4.191750
v -1.966826 0.737861 -4.097434
v -1.966826 0.883109 -3.985981
v -1.146626 1.041000 -4.191750
v -1.146626 0.895752 -4.303202
v -1.146626 0.883109 -3.985981
v -1.146626 0.737861 -4.097434
v -1.967775 1.022822 2.577497
v -1.967775 1.022822 1.182709
v -1.967775 0.815053 2.577497
v -1.967775 0.815053 1.182709
v -2.023650 1.022822 1.182709
v -2.023650 1.022822 2.577497
v -2.023650 0.815053 1.182709
v -2.023650 0.815053 2.577497
v -2.011091 0.750892 2.577497
v -2.011091 0.750892 -1.675301
v -2.011091 0.405510 2.577497
v -2.011091 0.405509 -1.675301
v -2.023650 0.750892 -1.675301
v -2.023650 0.750892 2.577497
v -2.023650 0.405509 -1.675301
v -2.023650 0.405510 2.577497
v 1.935455 0.927068 -4.054904
v 1.935455 0.902549 -3.944305
v 1.935455 0.738295 -4.096754
v 1.935455 0.713776 -3.986155
v 1.966254 0.902549 -3.944305
v 1.966254 0.927068 -4.054904
v 1.966254 0.713776 -3.986155
v 1.966254 0.738295 -4.096754
vn -0.0000 0.1045 -0.9945
vn 1.0000 -0.0000 -0.0000
vn -0.0000 -0.1045 0.9945
vn -1.0000 -0.0000 -0.0000
vn -0.0000 0.9945 0.1045
vn -0.0000 -0.9945 -0.1045
vn -0.0000 -0.0610 0.9981
vn -0.0000 0.0610 -0.9981
vn -0.0000 0.9981 0.0610
vn -0.0000 -0.9981 -0.0610
vn -0.0000 -0.6561 0.7547
vn -0.0000 0.6561 -0.7547
vn -0.0000 0.7547 0.6561
vn -0.0000 -0.7547 -0.6561
vn -0.9063 0.4218 0.0258
vn 0.9063 -0.4218 -0.0258
vn 0.4226 0.9046 0.0553
vn -0.4226 -0.9046 -0.0553
vn -0.9063 0.3190 0.2773
vn 0.9063 -0.3190 -0.2773
vn 0.4226 0.6840 0.5946
vn -0.4226 -0.6840 -0.5946
vn -0.0000 0.2419 0.9703
vn -0.0000 0.9703 -0.2419
vn -0.0000 -0.2419 -0.9703
vn -0.0000 -0.9703 0.2419
vn -0.2725 -0.5298 0.8032
vn -0.8644 0.5015 0.0375
vn 0.2725 0.5298 -0.8032
vn 0.8644 -0.5015 -0.0375
vn -0.5736 -0.8176 -0.0500
vn 0.5736 0.8176 0.0500
vn -0.8192 0.5725 0.0350
vn 0.8192 -0.5725 -0.0350
vn -0.0436 -0.9972 -0.0610
vn 0.0436 0.9972 0.0610
vn -0.9990 0.0435 0.0027
vn 0.9990 -0.0435 -0.0027
vn -0.5908 0.2099 0.7791
vn -0.0445 -0.9726 0.2283
vn 0.5908 -0.2099 -0.7791
vn 0.0445 0.9726 -0.2283
vn -0.8056 -0.1002 -0.5839
vn 0.8056 0.1002 0.5839
vn -0.3687 -0.5723 0.7325
vn -0.4394 -0.5871 -0.6799
vn 0.3687 0.5723 -0.7325
vn 0.4394 0.5871 0.6799
vn -0.4384 -0.6783 -0.5897
vn 0.4384 0.6783 0.5897
vn -0.8988 0.3308 0.2876
vn 0.8988 -0.3308 -0.2876
vn -0.0610 -0.7533 -0.6548
vn 0.0611 0.7533 0.6548
vn -0.9981 0.0461 0.0401
vn 0.9981 -0.0461 -0.0401
vn -0.1318 -0.8297 0.5425
vn -0.4181 -0.4497 -0.7893
vn 0.1318 0.8297 -0.5425
vn 0.4181 0.4497 0.7893
vn -0.0000 -0.0000 -1.0000
vn -0.0000 -0.0000 1.0000
vn -0.0000 1.0000 -0.0000
vn -0.0000 -1.0000 -0.0000
vn -0.0000 -0.2504 -0.9681
vn -0.0000 0.2504 0.9681
vn -0.0000 0.9681 -0.2504
vn -0.0000 -0.9681 0.2504
vn -0.0000 0.2504 -0.9681
vn -0.0000 -0.2504 0.9681
vn -0.0000 0.9681 0.2504
vn -0.0000 -0.9681 -0.2504
vn -0.0000 -0.2672 -0.9636
vn -0.0000 0.2672 0.9636
vn -0.0000 0.9636 -0.2672
vn -0.0000 -0.9636 0.2672
vn -0.0000 -0.1650 -0.9863
vn -0.0000 0.1650 0.9863
vn -0.0000 0.9863 -0.1650
vn -0.0000 -0.9863 0.1650
vn -0.0000 0.2164 -0.9763
vn -0.0000 -0.2164 0.9763
vn -0.0000 0.9763 0.2164
vn -0.0000 -0.9763 -0.2164
vn -0.0000 0.3827 -0.9239
vn -0.0000 -0.3827 0.9239
vn -0.0000 0.9239 0.3827
vn -0.0000 -0.9239 -0.3827
vn -0.0000 0.7934 0.6088
vn -0.0000 -0.7934 -0.6088
vn -0.0000 0.6088 -0.7934
vn -0.0000 -0.6088 0.7934
vn -0.9063 -0.4218 -0.0258
vn 0.9063 0.4218 0.0258
vn -0.4226 0.9046 0.0553
vn 0.4226 -0.9046 -0.0553
vn -0.9063 -0.3190 -0.2773
vn 0.9063 0.3190 0.2773
vn -0.4226 0.6840 0.5946
vn 0.4226 -0.6840 -0.5946
vn 0.2725 -0.5298 0.8032
vn -0.8644 -0.5015 -0.0375
vn -0.2725 0.5298 -0.8032
vn 0.8644 0.5015 0.0375
vn -0.5736 0.8176 0.0500
vn 0.5736 -0.8176 -0.0500
vn 0.8192 0.5725 0.0350
vn -0.8192 -0.5725 -0.0350
vn -0.0436 0.9972 0.0610
vn 0.0436 -0.9972 -0.0610
vn 0.9990 0.0435 0.0027
vn -0.9990 -0.0435 -0.0027
vn 0.5908 0.2099 0.7791
vn -0.0445 0.9726 -0.2283
vn -0.5908 -0.2099 -0.7791
vn 0.0445 -0.9726 0.2283
vn 0.8056 -0.1002 -0.5839
vn -0.8056 0.1002 0.5839
vn 0.3687 -0.5723 0.7325
vn -0.4394 0.5871 0.6799
vn -0.3687 0.5723 -0.7325
vn 0.4394 -0.5871 -0.6799
vn -0.4384 0.6783 0.5897
vn 0.4384 -0.6783 -0.5897
vn 0.8988 0.3308 0.2876
vn -0.8988 -0.3308 -0.2876
vn -0.0611 0.7533 0.6548
vn 0.0610 -0.7533 -0.6548
vn 0.9981 0.0461 0.0401
vn -0.9981 -0.0461 -0.0401
vn 0.1318 -0.8297 0.5425
vn -0.4181 0.4497 0.7893
vn -0.1318 0.8297 -0.5425
vn 0.4181 -0.4497 -0.7893
vt 0.507812 0.767578
vt 0.026367 0.297852
vt 0.040039 0.379883
vt 0.679688 0.298828
vt 0.530273 0.767578
vt 0.040039 0.357422
vt 0.507812 0.764648
vt 0.026367 0.294922
vt 0.208984 0.379883
vt 0.679688 0.295898
vt 0.530273 0.764648
vt 0.208984 0.357422
vt 0.680664 0.298828
vt 0.509766 0.862305
vt 0.041016 0.357422
vt 0.025391 0.297852
vt 0.532227 0.862305
vt 0.041016 0.379883
vt 0.680664 0.295898
vt 0.509766 0.859375
vt 0.209961 0.357422
vt 0.025391 0.294922
vt 0.532227 0.859375
vt 0.209961 0.379883
vt 0.608398 0.912109
vt 0.659180 0.653320
vt 0.208984 0.684570
vt 0.647461 0.719727
vt 0.633789 0.912109
vt 0.208984 0.659180
vt 0.608398 0.911133
vt 0.659180 0.652344
vt 0.221680 0.684570
vt 0.647461 0.718750
vt 0.633789 0.911133
vt 0.221680 0.659180
vt 0.659180 0.719727
vt 0.608398 0.828125
vt 0.220703 0.659180
vt 0.647461 0.653320
vt 0.633789 0.828125
vt 0.220703 0.684570
vt 0.659180 0.718750
vt 0.608398 0.827148
vt 0.233398 0.659180
vt 0.647461 0.652344
vt 0.633789 0.827148
vt 0.233398 0.684570
vt 0.197266 0.317383
vt 0.659180 0.583008
vt 0.409180 0.513672
vt 0.647461 0.634766
vt 0.204102 0.317383
vt 0.409180 0.506836
vt 0.197266 0.316406
vt 0.659180 0.582031
vt 0.487305 0.772461
vt 0.647461 0.633789
vt 0.204102 0.316406
vt 0.487305 0.765625
vt 0.659180 0.634766
vt 0.682617 0.706055
vt 0.420898 0.506836
vt 0.647461 0.583008
vt 0.689453 0.706055
vt 0.420898 0.513672
vt 0.659180 0.633789
vt 0.682617 0.705078
vt 0.499023 0.765625
vt 0.647461 0.582031
vt 0.689453 0.705078
vt 0.499023 0.772461
vt 0.601562 0.848633
vt 0.705078 0.983398
vt 0.062500 0.519531
vt 0.702148 0.991211
vt 0.629883 0.848633
vt 0.062500 0.491211
vt 0.601562 0.847656
vt 0.705078 0.982422
vt 0.066406 0.519531
vt 0.702148 0.990234
vt 0.629883 0.847656
vt 0.066406 0.491211
vt 0.705078 0.991211
vt 0.601562 0.809570
vt 0.065430 0.491211
vt 0.702148 0.983398
vt 0.629883 0.809570
vt 0.065430 0.519531
vt 0.705078 0.990234
vt 0.601562 0.808594
vt 0.069336 0.491211
vt 0.702148 0.982422
vt 0.629883 0.808594
vt 0.069336 0.519531
vt 0.680664 0.865234
vt 0.705078 0.981445
vt 0.210938 0.382812
vt 0.017578 0.297852
vt 0.688477 0.865234
vt 0.210938 0.375000
vt 0.680664 0.864258
vt 0.705078 0.980469
vt 0.323242 0.382812
vt 0.017578 0.296875
vt 0.688477 0.864258
vt 0.323242 0.375000
vt 0.020508 0.297852
vt 0.680664 0.863281
vt 0.213867 0.375000
vt 0.702148 0.981445
vt 0.688477 0.863281
vt 0.213867 0.382812
vt 0.020508 0.296875
vt 0.680664 0.862305
vt 0.326172 0.375000
vt 0.702148 0.980469
vt 0.688477 0.862305
vt 0.326172 0.382812
vt 0.660156 0.653320
vt 0.692383 0.888672
vt 0.061523 0.478516
vt 0.685547 0.543945
vt 0.669922 0.653320
vt 0.061523 0.468750
vt 0.660156 0.652344
vt 0.692383 0.887695
vt 0.294922 0.478516
vt 0.685547 0.542969
vt 0.669922 0.652344
vt 0.294922 0.468750
vt 0.691406 0.543945
vt 0.660156 0.634766
vt 0.067383 0.468750
vt 0.686523 0.888672
vt 0.669922 0.634766
vt 0.067383 0.478516
vt 0.691406 0.542969
vt 0.660156 0.633789
vt 0.300781 0.468750
vt 0.686523 0.887695
vt 0.669922 0.633789
vt 0.300781 0.478516
vt 0.657227 0.604492
vt 0.692383 0.777344
vt 0.061523 0.490234
vt 0.686523 0.832031
vt 0.667969 0.604492
vt 0.061523 0.479492
vt 0.657227 0.603516
vt 0.692383 0.776367
vt 0.294922 0.490234
vt 0.686523 0.831055
vt 0.667969 0.603516
vt 0.294922 0.479492
vt 0.692383 0.832031
vt 0.657227 0.581055
vt 0.067383 0.479492
vt 0.686523 0.777344
vt 0.667969 0.581055
vt 0.067383 0.490234
vt 0.692383 0.831055
vt 0.657227 0.580078
vt 0.300781 0.479492
vt 0.686523 0.776367
vt 0.667969 0.580078
vt 0.300781 0.490234
vt 0.313477 0.300781
vt 0.711914 0.899414
vt 0.687500 0.302734
vt 0.099609 0.289062
vt 0.317383 0.300781
vt 0.687500 0.298828
vt 0.313477 0.299805
vt 0.711914 0.898438
vt 0.007812 0.301758
vt 0.099609 0.288086
vt 0.317383 0.299805
vt 0.007812 0.297852
vt 0.100586 0.289062
vt 0.699219 0.686523
vt 0.688477 0.298828
vt 0.710938 0.899414
vt 0.703125 0.686523
vt 0.688477 0.302734
vt 0.100586 0.288086
vt 0.699219 0.685547
vt 0.008789 0.297852
vt 0.710938 0.898438
vt 0.703125 0.685547
vt 0.008789 0.301758
vt 0.686523 0.763672
vt 0.024414 0.297852
vt 0.627930 0.621094
vt 0.702148 0.979492
vt 0.692383 0.763672
vt 0.627930 0.615234
vt 0.686523 0.762695
vt 0.024414 0.296875
vt 0.439453 0.372070
vt 0.702148 0.978516
vt 0.692383 0.762695
vt 0.439453 0.366211
vt 0.705078 0.979492
vt 0.686523 0.532227
vt 0.630859 0.615234
vt 0.021484 0.297852
vt 0.692383 0.532227
vt 0.630859 0.621094
vt 0.705078 0.978516
vt 0.686523 0.531250
vt 0.442383 0.366211
vt 0.021484 0.296875
vt 0.692383 0.531250
vt 0.442383 0.372070
vt 0.101562 0.289062
vt 0.705078 0.975586
vt 0.702148 0.973633
vt 0.702148 0.977539
vt 0.102539 0.289062
vt 0.702148 0.972656
vt 0.101562 0.288086
vt 0.705078 0.974609
vt 0.702148 0.971680
vt 0.702148 0.976562
vt 0.102539 0.288086
vt 0.702148 0.970703
vt 0.705078 0.977539
vt 0.710938 0.897461
vt 0.705078 0.972656
vt 0.702148 0.975586
vt 0.711914 0.897461
vt 0.705078 0.973633
vt 0.705078 0.976562
vt 0.710938 0.896484
vt 0.705078 0.970703
vt 0.702148 0.974609
vt 0.711914 0.896484
vt 0.705078 0.971680
vt 0.394531 0.995117
vt 0.703125 0.682617
vt 0.252930 0.613281
vt 0.699219 0.684570
vt 0.420898 0.995117
vt 0.252930 0.586914
vt 0.394531 0.994141
vt 0.703125 0.681641
vt 0.023438 0.551758
vt 0.699219 0.683594
vt 0.420898 0.994141
vt 0.023438 0.525391
vt 0.703125 0.684570
vt 0.603516 0.789062
vt 0.256836 0.586914
vt 0.699219 0.682617
vt 0.629883 0.789062
vt 0.256836 0.613281
vt 0.703125 0.683594
vt 0.603516 0.788086
vt 0.027344 0.525391
vt 0.699219 0.681641
vt 0.629883 0.788086
vt 0.027344 0.551758
vt 0.610352 0.678711
vt 0.042969 0.297852
vt 0.010742 0.503906
vt 0.702148 0.961914
vt 0.634766 0.678711
vt 0.010742 0.479492
vt 0.610352 0.677734
vt 0.042969 0.296875
vt 0.422852 0.502930
vt 0.702148 0.960938
vt 0.634766 0.677734
vt 0.422852 0.478516
vt 0.705078 0.961914
vt 0.610352 0.469727
vt 0.013672 0.479492
vt 0.040039 0.297852
vt 0.634766 0.469727
vt 0.013672 0.503906
vt 0.705078 0.960938
vt 0.610352 0.468750
vt 0.425781 0.478516
vt 0.040039 0.296875
vt 0.634766 0.468750
vt 0.425781 0.502930
vt 0.080078 0.553711
vt 0.172852 0.338867
vt 0.692383 0.606445
vt 0.078125 0.338867
vt 0.084961 0.553711
vt 0.692383 0.601562
vt 0.080078 0.543945
vt 0.172852 0.329102
vt 0.692383 0.600586
vt 0.078125 0.329102
vt 0.084961 0.543945
vt 0.692383 0.595703
vt 0.079102 0.338867
vt 0.545898 0.503906
vt 0.693359 0.601562
vt 0.171875 0.338867
vt 0.550781 0.503906
vt 0.693359 0.606445
vt 0.079102 0.329102
vt 0.545898 0.494141
vt 0.693359 0.595703
vt 0.171875 0.329102
vt 0.550781 0.494141
vt 0.693359 0.600586
vt 0.710938 0.895508
vt 0.695312 0.471680
vt 0.690430 0.453125
vt 0.690430 0.495117
vt 0.711914 0.895508
vt 0.690430 0.452148
vt 0.710938 0.894531
vt 0.695312 0.470703
vt 0.690430 0.416992
vt 0.690430 0.494141
vt 0.711914 0.894531
vt 0.690430 0.416016
vt 0.695312 0.495117
vt 0.710938 0.893555
vt 0.695312 0.452148
vt 0.690430 0.471680
vt 0.711914 0.893555
vt 0.695312 0.453125
vt 0.695312 0.494141
vt 0.710938 0.892578
vt 0.695312 0.416016
vt 0.690430 0.470703
vt 0.711914 0.892578
vt 0.695312 0.416992
vt 0.682617 0.699219
vt 0.695312 0.361328
vt 0.209961 0.407227
vt 0.690430 0.388672
vt 0.689453 0.699219
vt 0.209961 0.400391
vt 0.682617 0.698242
vt 0.695312 0.360352
vt 0.231445 0.407227
vt 0.690430 0.387695
vt 0.689453 0.698242
vt 0.231445 0.400391
vt 0.695312 0.388672
vt 0.351562 0.317383
vt 0.214844 0.400391
vt 0.690430 0.361328
vt 0.358398 0.317383
vt 0.214844 0.407227
vt 0.695312 0.387695
vt 0.351562 0.316406
vt 0.236328 0.400391
vt 0.690430 0.360352
vt 0.358398 0.316406
vt 0.236328 0.407227
vt 0.686523 0.522461
vt 0.710938 0.299805
vt 0.566406 0.352539
vt 0.708984 0.301758
vt 0.692383 0.522461
vt 0.566406 0.346680
vt 0.686523 0.521484
vt 0.710938 0.298828
vt 0.569336 0.352539
vt 0.708984 0.300781
vt 0.692383 0.521484
vt 0.569336 0.346680
vt 0.710938 0.301758
vt 0.686523 0.481445
vt 0.568359 0.346680
vt 0.708984 0.299805
vt 0.692383 0.481445
vt 0.568359 0.352539
vt 0.710938 0.300781
vt 0.686523 0.480469
vt 0.571289 0.346680
vt 0.708984 0.298828
vt 0.692383 0.480469
vt 0.571289 0.352539
vt 0.708984 0.297852
vt 0.695312 0.351562
vt 0.661133 0.775391
vt 0.690430 0.359375
vt 0.710938 0.297852
vt 0.661133 0.773438
vt 0.708984 0.296875
vt 0.695312 0.350586
vt 0.662109 0.935547
vt 0.690430 0.358398
vt 0.710938 0.296875
vt 0.662109 0.933594
vt 0.695312 0.359375
vt 0.708984 0.295898
vt 0.666016 0.773438
vt 0.690430 0.351562
vt 0.710938 0.295898
vt 0.666016 0.775391
vt 0.695312 0.358398
vt 0.708984 0.294922
vt 0.666992 0.933594
vt 0.690430 0.350586
vt 0.710938 0.294922
vt 0.666992 0.935547
vt 0.150391 0.787109
vt 0.117188 0.314453
vt 0.368164 0.462891
vt 0.089844 0.314453
vt 0.199219 0.787109
vt 0.368164 0.414062
vt 0.150391 0.781250
vt 0.117188 0.308594
vt 0.353516 0.461914
vt 0.089844 0.308594
vt 0.199219 0.781250
vt 0.353516 0.413086
vt 0.090820 0.314453
vt 0.308594 0.824219
vt 0.369141 0.414062
vt 0.116211 0.314453
vt 0.357422 0.824219
vt 0.369141 0.462891
vt 0.090820 0.308594
vt 0.308594 0.818359
vt 0.354492 0.413086
vt 0.116211 0.308594
vt 0.357422 0.818359
vt 0.354492 0.461914
vt 0.281250 0.931641
vt 0.138672 0.314453
vt 0.301758 0.503906
vt 0.127930 0.314453
vt 0.354492 0.931641
vt 0.301758 0.430664
vt 0.281250 0.925781
vt 0.138672 0.308594
vt 0.133789 0.502930
vt 0.127930 0.308594
vt 0.354492 0.925781
vt 0.133789 0.429688
vt 0.128906 0.314453
vt 0.288086 0.720703
vt 0.302734 0.430664
vt 0.137695 0.314453
vt 0.361328 0.720703
vt 0.302734 0.503906
vt 0.128906 0.308594
vt 0.288086 0.714844
vt 0.134766 0.429688
vt 0.137695 0.308594
vt 0.361328 0.714844
vt 0.134766 0.502930
vt 0.469727 0.918945
vt 0.128906 0.301758
vt 0.002930 0.387695
vt 0.084961 0.301758
vt 0.493164 0.918945
vt 0.002930 0.364258
vt 0.469727 0.915039
vt 0.128906 0.297852
vt 0.362305 0.387695
vt 0.084961 0.297852
vt 0.493164 0.915039
vt 0.362305 0.364258
vt 0.085938 0.301758
vt 0.470703 0.901367
vt 0.003906 0.364258
vt 0.127930 0.301758
vt 0.494141 0.901367
vt 0.003906 0.387695
vt 0.085938 0.297852
vt 0.470703 0.897461
vt 0.363281 0.364258
vt 0.127930 0.297852
vt 0.494141 0.897461
vt 0.363281 0.387695
vt 0.150391 0.766602
vt 0.259766 0.338867
vt 0.161133 0.502930
vt 0.208984 0.338867
vt 0.223633 0.766602
vt 0.161133 0.429688
vt 0.150391 0.756836
vt 0.259766 0.329102
vt 0.390625 0.502930
vt 0.208984 0.329102
vt 0.223633 0.756836
vt 0.390625 0.429688
vt 0.209961 0.338867
vt 0.224609 0.766602
vt 0.162109 0.429688
vt 0.258789 0.338867
vt 0.297852 0.766602
vt 0.162109 0.502930
vt 0.209961 0.329102
vt 0.224609 0.756836
vt 0.391602 0.429688
vt 0.258789 0.329102
vt 0.297852 0.756836
vt 0.391602 0.502930
vt 0.477539 0.649414
vt 0.693359 0.575195
vt 0.004883 0.375000
vt 0.692383 0.594727
vt 0.496094 0.649414
vt 0.004883 0.356445
vt 0.477539 0.644531
vt 0.693359 0.570312
vt 0.207031 0.375000
vt 0.692383 0.589844
vt 0.496094 0.644531
vt 0.207031 0.356445
vt 0.693359 0.594727
vt 0.477539 0.643555
vt 0.005859 0.356445
vt 0.692383 0.575195
vt 0.496094 0.643555
vt 0.005859 0.375000
vt 0.693359 0.589844
vt 0.477539 0.638672
vt 0.208008 0.356445
vt 0.692383 0.570312
vt 0.496094 0.638672
vt 0.208008 0.375000
vt 0.593750 0.819336
vt 0.459961 0.307617
vt 0.056641 0.318359
vt 0.457031 0.307617
vt 0.600586 0.819336
vt 0.056641 0.311523
vt 0.593750 0.814453
vt 0.459961 0.302734
vt 0.397461 0.318359
vt 0.457031 0.302734
vt 0.600586 0.814453
vt 0.397461 0.311523
vt 0.458008 0.307617
vt 0.593750 0.813477
vt 0.057617 0.311523
vt 0.458984 0.307617
vt 0.600586 0.813477
vt 0.057617 0.318359
vt 0.458008 0.302734
vt 0.593750 0.808594
vt 0.398438 0.311523
vt 0.458984 0.302734
vt 0.600586 0.808594
vt 0.398438 0.318359
vt 0.593750 0.686523
vt 0.463867 0.307617
vt 0.452148 0.318359
vt 0.460938 0.307617
vt 0.600586 0.686523
vt 0.452148 0.311523
vt 0.593750 0.681641
vt 0.463867 0.302734
vt 0.454102 0.318359
vt 0.460938 0.302734
vt 0.600586 0.681641
vt 0.454102 0.311523
vt 0.461914 0.307617
vt 0.593750 0.672852
vt 0.453125 0.311523
vt 0.462891 0.307617
vt 0.600586 0.672852
vt 0.453125 0.318359
vt 0.461914 0.302734
vt 0.593750 0.667969
vt 0.455078 0.311523
vt 0.462891 0.302734
vt 0.600586 0.667969
vt 0.455078 0.318359
vt 0.593750 0.666992
vt 0.467773 0.307617
vt 0.538086 0.318359
vt 0.464844 0.307617
vt 0.600586 0.666992
vt 0.538086 0.311523
vt 0.593750 0.662109
vt 0.467773 0.302734
vt 0.560547 0.318359
vt 0.464844 0.302734
vt 0.600586 0.662109
vt 0.560547 0.311523
vt 0.465820 0.307617
vt 0.593750 0.661133
vt 0.539062 0.311523
vt 0.466797 0.307617
vt 0.600586 0.661133
vt 0.539062 0.318359
vt 0.465820 0.302734
vt 0.593750 0.656250
vt 0.561523 0.311523
vt 0.466797 0.302734
vt 0.600586 0.656250
vt 0.561523 0.318359
vt 0.593750 0.655273
vt 0.693359 0.510742
vt 0.049805 0.317383
vt 0.692383 0.516602
vt 0.600586 0.655273
vt 0.049805 0.310547
vt 0.593750 0.650391
vt 0.693359 0.505859
vt 0.359375 0.317383
vt 0.692383 0.511719
vt 0.600586 0.650391
vt 0.359375 0.310547
vt 0.693359 0.516602
vt 0.593750 0.624023
vt 0.050781 0.310547
vt 0.692383 0.510742
vt 0.600586 0.624023
vt 0.050781 0.317383
vt 0.693359 0.511719
vt 0.593750 0.619141
vt 0.360352 0.310547
vt 0.692383 0.505859
vt 0.600586 0.619141
vt 0.360352 0.317383
vt 0.593750 0.618164
vt 0.693359 0.504883
vt 0.361328 0.317383
vt 0.494141 0.307617
vt 0.600586 0.618164
vt 0.361328 0.310547
vt 0.593750 0.613281
vt 0.693359 0.500000
vt 0.363281 0.317383
vt 0.494141 0.302734
vt 0.600586 0.613281
vt 0.363281 0.310547
vt 0.495117 0.307617
vt 0.593750 0.602539
vt 0.362305 0.310547
vt 0.692383 0.504883
vt 0.600586 0.602539
vt 0.362305 0.317383
vt 0.495117 0.302734
vt 0.593750 0.597656
vt 0.364258 0.310547
vt 0.692383 0.500000
vt 0.600586 0.597656
vt 0.364258 0.317383
vt 0.584961 0.686523
vt 0.515625 0.307617
vt 0.536133 0.398438
vt 0.496094 0.307617
vt 0.592773 0.686523
vt 0.536133 0.390625
vt 0.584961 0.681641
vt 0.515625 0.302734
vt 0.348633 0.363281
vt 0.496094 0.302734
vt 0.592773 0.681641
vt 0.348633 0.355469
vt 0.497070 0.307617
vt 0.584961 0.671875
vt 0.537109 0.390625
vt 0.514648 0.307617
vt 0.592773 0.671875
vt 0.537109 0.398438
vt 0.497070 0.302734
vt 0.584961 0.666992
vt 0.349609 0.355469
vt 0.514648 0.302734
vt 0.592773 0.666992
vt 0.349609 0.363281
vt 0.601562 0.710938
vt 0.541016 0.307617
vt 0.243164 0.314453
vt 0.516602 0.307617
vt 0.607422 0.710938
vt 0.243164 0.308594
vt 0.601562 0.706055
vt 0.541016 0.302734
vt 0.319336 0.314453
vt 0.516602 0.302734
vt 0.607422 0.706055
vt 0.319336 0.308594
vt 0.517578 0.307617
vt 0.601562 0.701172
vt 0.244141 0.308594
vt 0.540039 0.307617
vt 0.607422 0.701172
vt 0.244141 0.314453
vt 0.517578 0.302734
vt 0.601562 0.696289
vt 0.320312 0.308594
vt 0.540039 0.302734
vt 0.607422 0.696289
vt 0.320312 0.314453
vt 0.584961 0.666016
vt 0.546875 0.307617
vt 0.570312 0.322266
vt 0.543945 0.307617
vt 0.592773 0.666016
vt 0.570312 0.314453
vt 0.584961 0.661133
vt 0.546875 0.302734
vt 0.450195 0.321289
vt 0.543945 0.302734
vt 0.592773 0.661133
vt 0.450195 0.313477
vt 0.544922 0.307617
vt 0.584961 0.660156
vt 0.571289 0.314453
vt 0.545898 0.307617
vt 0.592773 0.660156
vt 0.571289 0.322266
vt 0.544922 0.302734
vt 0.584961 0.655273
vt 0.451172 0.313477
vt 0.545898 0.302734
vt 0.592773 0.655273
vt 0.451172 0.321289
vt 0.279297 0.780273
vt 0.127930 0.347656
vt 0.176758 0.457031
vt 0.125000 0.347656
vt 0.326172 0.780273
vt 0.176758 0.410156
vt 0.279297 0.769531
vt 0.127930 0.336914
vt 0.216797 0.457031
vt 0.125000 0.336914
vt 0.326172 0.769531
vt 0.216797 0.410156
vt 0.125977 0.347656
vt 0.240234 0.720703
vt 0.177734 0.410156
vt 0.126953 0.347656
vt 0.287109 0.720703
vt 0.177734 0.457031
vt 0.125977 0.336914
vt 0.240234 0.709961
vt 0.217773 0.410156
vt 0.126953 0.336914
vt 0.287109 0.709961
vt 0.217773 0.457031
vt 0.351562 0.984375
vt 0.541016 0.314453
vt 0.360352 0.444336
vt 0.331055 0.314453
vt 0.391602 0.984375
vt 0.360352 0.404297
vt 0.351562 0.978516
vt 0.541016 0.308594
vt 0.178711 0.440430
vt 0.331055 0.308594
vt 0.391602 0.978516
vt 0.178711 0.400391
vt 0.332031 0.314453
vt 0.351562 0.652344
vt 0.361328 0.404297
vt 0.540039 0.314453
vt 0.391602 0.652344
vt 0.361328 0.444336
vt 0.332031 0.308594
vt 0.351562 0.646484
vt 0.179688 0.400391
vt 0.540039 0.308594
vt 0.391602 0.646484
vt 0.179688 0.440430
vt 0.633789 0.574219
vt 0.710938 0.291992
vt 0.162109 0.398438
vt 0.708984 0.293945
vt 0.648438 0.574219
vt 0.162109 0.383789
vt 0.633789 0.573242
vt 0.710938 0.291016
vt 0.352539 0.398438
vt 0.708984 0.292969
vt 0.648438 0.573242
vt 0.352539 0.383789
vt 0.710938 0.293945
vt 0.633789 0.499023
vt 0.164062 0.383789
vt 0.708984 0.291992
vt 0.648438 0.499023
vt 0.164062 0.398438
vt 0.710938 0.292969
vt 0.633789 0.498047
vt 0.354492 0.383789
vt 0.708984 0.291016
vt 0.648438 0.498047
vt 0.354492 0.398438
vt 0.283203 0.851562
vt 0.701172 0.677734
vt 0.065430 0.456055
vt 0.699219 0.680664
vt 0.306641 0.851562
vt 0.065430 0.432617
vt 0.283203 0.849609
vt 0.701172 0.675781
vt 0.473633 0.451172
vt 0.699219 0.678711
vt 0.306641 0.849609
vt 0.473633 0.427734
vt 0.701172 0.680664
vt 0.509766 0.708984
vt 0.067383 0.432617
vt 0.699219 0.677734
vt 0.533203 0.708984
vt 0.067383 0.456055
vt 0.701172 0.678711
vt 0.509766 0.707031
vt 0.475586 0.427734
vt 0.699219 0.675781
vt 0.533203 0.707031
vt 0.475586 0.451172
vt 0.324219 0.944336
vt 0.590820 0.352539
vt 0.291992 0.533203
vt 0.647461 0.430664
vt 0.372070 0.944336
vt 0.291992 0.485352
vt 0.324219 0.938477
vt 0.590820 0.346680
vt 0.289062 0.531250
vt 0.647461 0.424805
vt 0.372070 0.938477
vt 0.289062 0.483398
vt 0.649414 0.430664
vt 0.327148 0.780273
vt 0.293945 0.485352
vt 0.588867 0.352539
vt 0.375000 0.780273
vt 0.293945 0.533203
vt 0.649414 0.424805
vt 0.327148 0.774414
vt 0.291016 0.483398
vt 0.588867 0.346680
vt 0.375000 0.774414
vt 0.291016 0.531250
vt 0.325195 0.358398
vt 0.523438 0.809570
vt 0.570312 0.977539
vt 0.509766 0.877930
vt 0.328125 0.358398
vt 0.570312 0.974609
vt 0.325195 0.353516
vt 0.523438 0.804688
vt 0.570312 0.923828
vt 0.509766 0.873047
vt 0.328125 0.353516
vt 0.570312 0.920898
vt 0.523438 0.877930
vt 0.509766 0.358398
vt 0.583984 0.974609
vt 0.509766 0.809570
vt 0.512695 0.358398
vt 0.583984 0.977539
vt 0.523438 0.873047
vt 0.509766 0.353516
vt 0.583984 0.920898
vt 0.509766 0.804688
vt 0.512695 0.353516
vt 0.583984 0.923828
vt 0.493164 0.535156
vt 0.550781 0.307617
vt 0.050781 0.368164
vt 0.547852 0.307617
vt 0.508789 0.535156
vt 0.050781 0.352539
vt 0.493164 0.530273
vt 0.550781 0.302734
vt 0.313477 0.368164
vt 0.547852 0.302734
vt 0.508789 0.530273
vt 0.313477 0.352539
vt 0.548828 0.307617
vt 0.493164 0.529297
vt 0.051758 0.352539
vt 0.549805 0.307617
vt 0.508789 0.529297
vt 0.051758 0.368164
vt 0.548828 0.302734
vt 0.493164 0.524414
vt 0.314453 0.352539
vt 0.549805 0.302734
vt 0.508789 0.524414
vt 0.314453 0.368164
vt 0.478516 0.987305
vt 0.577148 0.307617
vt 0.016602 0.374023
vt 0.574219 0.307617
vt 0.497070 0.987305
vt 0.016602 0.355469
vt 0.478516 0.982422
vt 0.577148 0.302734
vt 0.350586 0.374023
vt 0.574219 0.302734
vt 0.497070 0.982422
vt 0.350586 0.355469
vt 0.575195 0.307617
vt 0.478516 0.879883
vt 0.017578 0.355469
vt 0.576172 0.307617
vt 0.497070 0.879883
vt 0.017578 0.374023
vt 0.575195 0.302734
vt 0.478516 0.875000
vt 0.351562 0.355469
vt 0.576172 0.302734
vt 0.497070 0.875000
vt 0.351562 0.374023
vt 0.608398 0.741211
vt 0.659180 0.357422
vt 0.234375 0.684570
vt 0.640625 0.352539
vt 0.633789 0.741211
vt 0.234375 0.659180
vt 0.608398 0.740234
vt 0.659180 0.356445
vt 0.078125 0.681641
vt 0.640625 0.351562
vt 0.633789 0.740234
vt 0.078125 0.656250
vt 0.652344 0.352539
vt 0.608398 0.707031
vt 0.246094 0.659180
vt 0.647461 0.357422
vt 0.633789 0.707031
vt 0.246094 0.684570
vt 0.652344 0.351562
vt 0.608398 0.706055
vt 0.089844 0.656250
vt 0.647461 0.356445
vt 0.633789 0.706055
vt 0.089844 0.681641
vt 0.682617 0.608398
vt 0.660156 0.997070
vt 0.485352 0.512695
vt 0.647461 0.355469
vt 0.689453 0.608398
vt 0.485352 0.505859
vt 0.682617 0.607422
vt 0.660156 0.996094
vt 0.044922 0.511719
vt 0.647461 0.354492
vt 0.689453 0.607422
vt 0.044922 0.504883
vt 0.659180 0.355469
vt 0.427734 0.317383
vt 0.497070 0.505859
vt 0.648438 0.997070
vt 0.434570 0.317383
vt 0.497070 0.512695
vt 0.659180 0.354492
vt 0.427734 0.316406
vt 0.056641 0.504883
vt 0.648438 0.996094
vt 0.434570 0.316406
vt 0.056641 0.511719
vt 0.601562 0.739258
vt 0.048828 0.297852
vt 0.170898 0.519531
vt 0.702148 0.956055
vt 0.629883 0.739258
vt 0.170898 0.491211
vt 0.601562 0.738281
vt 0.048828 0.296875
vt 0.174805 0.519531
vt 0.702148 0.955078
vt 0.629883 0.738281
vt 0.174805 0.491211
vt 0.705078 0.956055
vt 0.601562 0.633789
vt 0.173828 0.491211
vt 0.045898 0.297852
vt 0.629883 0.633789
vt 0.173828 0.519531
vt 0.705078 0.955078
vt 0.601562 0.632812
vt 0.177734 0.491211
vt 0.045898 0.296875
vt 0.629883 0.632812
vt 0.177734 0.519531
vt 0.680664 0.861328
vt 0.705078 0.952148
vt 0.046875 0.381836
vt 0.702148 0.954102
vt 0.688477 0.861328
vt 0.046875 0.374023
vt 0.680664 0.860352
vt 0.705078 0.951172
vt 0.198242 0.381836
vt 0.702148 0.953125
vt 0.688477 0.860352
vt 0.198242 0.374023
vt 0.705078 0.954102
vt 0.680664 0.859375
vt 0.049805 0.374023
vt 0.702148 0.952148
vt 0.688477 0.859375
vt 0.049805 0.381836
vt 0.705078 0.953125
vt 0.680664 0.858398
vt 0.201172 0.374023
vt 0.702148 0.951172
vt 0.688477 0.858398
vt 0.201172 0.381836
vt 0.660156 0.614258
vt 0.693359 0.919922
vt 0.306641 0.478516
vt 0.687500 0.994141
vt 0.669922 0.614258
vt 0.306641 0.468750
vt 0.660156 0.613281
vt 0.693359 0.918945
vt 0.046875 0.476562
vt 0.687500 0.993164
vt 0.669922 0.613281
vt 0.046875 0.466797
vt 0.693359 0.994141
vt 0.661133 0.995117
vt 0.312500 0.468750
vt 0.687500 0.919922
vt 0.670898 0.995117
vt 0.312500 0.478516
vt 0.693359 0.993164
vt 0.661133 0.994141
vt 0.052734 0.466797
vt 0.687500 0.918945
vt 0.670898 0.994141
vt 0.052734 0.476562
vt 0.472656 0.342773
vt 0.693359 0.801758
vt 0.306641 0.490234
vt 0.687500 0.868164
vt 0.483398 0.342773
vt 0.306641 0.479492
vt 0.472656 0.341797
vt 0.693359 0.800781
vt 0.323242 0.490234
vt 0.687500 0.867188
vt 0.483398 0.341797
vt 0.323242 0.479492
vt 0.693359 0.868164
vt 0.657227 0.504883
vt 0.312500 0.479492
vt 0.687500 0.801758
vt 0.667969 0.504883
vt 0.312500 0.490234
vt 0.693359 0.867188
vt 0.657227 0.503906
vt 0.329102 0.479492
vt 0.687500 0.800781
vt 0.667969 0.503906
vt 0.329102 0.490234
vt 0.323242 0.300781
vt 0.711914 0.887695
vt 0.318359 0.301758
vt 0.710938 0.889648
vt 0.327148 0.300781
vt 0.318359 0.297852
vt 0.323242 0.299805
vt 0.711914 0.886719
vt 0.331055 0.301758
vt 0.710938 0.888672
vt 0.327148 0.299805
vt 0.331055 0.297852
vt 0.711914 0.889648
vt 0.699219 0.674805
vt 0.319336 0.297852
vt 0.710938 0.887695
vt 0.703125 0.674805
vt 0.319336 0.301758
vt 0.711914 0.888672
vt 0.699219 0.673828
vt 0.332031 0.297852
vt 0.710938 0.886719
vt 0.703125 0.673828
vt 0.332031 0.301758
vt 0.687500 0.799805
vt 0.705078 0.950195
vt 0.443359 0.372070
vt 0.049805 0.297852
vt 0.693359 0.799805
vt 0.443359 0.366211
vt 0.687500 0.798828
vt 0.705078 0.949219
vt 0.627930 0.544922
vt 0.049805 0.296875
vt 0.693359 0.798828
vt 0.627930 0.539062
vt 0.052734 0.297852
vt 0.687500 0.792969
vt 0.446289 0.366211
vt 0.702148 0.950195
vt 0.693359 0.792969
vt 0.446289 0.372070
vt 0.052734 0.296875
vt 0.687500 0.791992
vt 0.630859 0.539062
vt 0.702148 0.949219
vt 0.693359 0.791992
vt 0.630859 0.544922
vt 0.116211 0.289062
vt 0.705078 0.946289
vt 0.702148 0.942383
vt 0.702148 0.948242
vt 0.117188 0.289062
vt 0.702148 0.941406
vt 0.116211 0.288086
vt 0.705078 0.945312
vt 0.702148 0.940430
vt 0.702148 0.947266
vt 0.117188 0.288086
vt 0.702148 0.939453
vt 0.705078 0.948242
vt 0.118164 0.289062
vt 0.705078 0.941406
vt 0.702148 0.946289
vt 0.119141 0.289062
vt 0.705078 0.942383
vt 0.705078 0.947266
vt 0.118164 0.288086
vt 0.705078 0.939453
vt 0.702148 0.945312
vt 0.119141 0.288086
vt 0.705078 0.940430
vt 0.603516 0.592773
vt 0.703125 0.670898
vt 0.399414 0.539062
vt 0.699219 0.672852
vt 0.629883 0.592773
vt 0.399414 0.512695
vt 0.603516 0.591797
vt 0.703125 0.669922
vt 0.404297 0.539062
vt 0.699219 0.671875
vt 0.629883 0.591797
vt 0.404297 0.512695
vt 0.703125 0.672852
vt 0.603516 0.514648
vt 0.403320 0.512695
vt 0.699219 0.670898
vt 0.629883 0.514648
vt 0.403320 0.539062
vt 0.703125 0.671875
vt 0.603516 0.513672
vt 0.408203 0.512695
vt 0.699219 0.669922
vt 0.629883 0.513672
vt 0.408203 0.539062
vt 0.611328 0.546875
vt 0.065430 0.297852
vt 0.277344 0.501953
vt 0.702148 0.938477
vt 0.635742 0.546875
vt 0.277344 0.477539
vt 0.611328 0.545898
vt 0.065430 0.296875
vt 0.341797 0.501953
vt 0.702148 0.937500
vt 0.635742 0.545898
vt 0.341797 0.477539
vt 0.705078 0.938477
vt 0.611328 0.532227
vt 0.280273 0.477539
vt 0.062500 0.297852
vt 0.635742 0.532227
vt 0.280273 0.501953
vt 0.705078 0.937500
vt 0.611328 0.531250
vt 0.344727 0.477539
vt 0.062500 0.296875
vt 0.635742 0.531250
vt 0.344727 0.501953
vt 0.546875 0.733398
vt 0.533203 0.338867
vt 0.558594 0.307617
vt 0.313477 0.338867
vt 0.551758 0.733398
vt 0.558594 0.302734
vt 0.546875 0.723633
vt 0.533203 0.329102
vt 0.572266 0.307617
vt 0.313477 0.329102
vt 0.551758 0.723633
vt 0.572266 0.302734
vt 0.314453 0.338867
vt 0.547852 0.870117
vt 0.559570 0.302734
vt 0.532227 0.338867
vt 0.552734 0.870117
vt 0.559570 0.307617
vt 0.314453 0.329102
vt 0.547852 0.860352
vt 0.573242 0.302734
vt 0.532227 0.329102
vt 0.552734 0.860352
vt 0.573242 0.307617
vt 0.120117 0.289062
vt 0.696289 0.877930
vt 0.691406 0.875977
vt 0.691406 0.907227
vt 0.121094 0.289062
vt 0.691406 0.875000
vt 0.120117 0.288086
vt 0.696289 0.876953
vt 0.691406 0.811523
vt 0.691406 0.906250
vt 0.121094 0.288086
vt 0.691406 0.810547
vt 0.696289 0.907227
vt 0.122070 0.289062
vt 0.696289 0.875000
vt 0.691406 0.877930
vt 0.123047 0.289062
vt 0.696289 0.875977
vt 0.696289 0.906250
vt 0.122070 0.288086
vt 0.696289 0.810547
vt 0.691406 0.876953
vt 0.123047 0.288086
vt 0.696289 0.811523
vt 0.435547 0.317383
vt 0.696289 0.720703
vt 0.123047 0.406250
vt 0.691406 0.809570
vt 0.442383 0.317383
vt 0.123047 0.399414
vt 0.435547 0.316406
vt 0.696289 0.719727
vt 0.593750 0.462891
vt 0.691406 0.808594
vt 0.442383 0.316406
vt 0.593750 0.456055
vt 0.696289 0.809570
vt 0.521484 0.317383
vt 0.127930 0.399414
vt 0.691406 0.720703
vt 0.528320 0.317383
vt 0.127930 0.406250
vt 0.696289 0.808594
vt 0.521484 0.316406
vt 0.598633 0.456055
vt 0.691406 0.719727
vt 0.528320 0.316406
vt 0.598633 0.462891
vt 0.687500 0.783203
vt 0.711914 0.998047
vt 0.591797 0.352539
vt 0.709961 1.000000
vt 0.693359 0.783203
vt 0.591797 0.346680
vt 0.687500 0.782227
vt 0.711914 0.997070
vt 0.613281 0.352539
vt 0.709961 0.999023
vt 0.693359 0.782227
vt 0.613281 0.346680
vt 0.711914 1.000000
vt 0.687500 0.734375
vt 0.593750 0.346680
vt 0.709961 0.998047
vt 0.693359 0.734375
vt 0.593750 0.352539
vt 0.711914 0.999023
vt 0.687500 0.733398
vt 0.615234 0.346680
vt 0.709961 0.997070
vt 0.693359 0.733398
vt 0.615234 0.352539
vt 0.709961 0.996094
vt 0.696289 0.493164
vt 0.662109 0.925781
vt 0.691406 0.718750
vt 0.711914 0.996094
vt 0.662109 0.923828
vt 0.709961 0.995117
vt 0.696289 0.492188
vt 0.662109 0.645508
vt 0.691406 0.717773
vt 0.711914 0.995117
vt 0.662109 0.643555
vt 0.696289 0.718750
vt 0.709961 0.994141
vt 0.666992 0.923828
vt 0.691406 0.493164
vt 0.711914 0.994141
vt 0.666992 0.925781
vt 0.696289 0.717773
vt 0.709961 0.993164
vt 0.666992 0.643555
vt 0.691406 0.492188
vt 0.711914 0.993164
vt 0.666992 0.645508
vt 0.509766 0.732422
vt 0.067383 0.297852
vt 0.224609 0.379883
vt 0.053711 0.297852
vt 0.532227 0.732422
vt 0.224609 0.357422
vt 0.509766 0.729492
vt 0.067383 0.294922
vt 0.577148 0.379883
vt 0.053711 0.294922
vt 0.532227 0.729492
vt 0.577148 0.357422
vt 0.054688 0.297852
vt 0.510742 0.845703
vt 0.225586 0.357422
vt 0.066406 0.297852
vt 0.533203 0.845703
vt 0.225586 0.379883
vt 0.054688 0.294922
vt 0.510742 0.842773
vt 0.578125 0.357422
vt 0.066406 0.294922
vt 0.533203 0.842773
vt 0.578125 0.379883
vt 0.234375 0.837891
vt 0.083008 0.337891
vt 0.345703 0.501953
vt 0.557617 0.338867
vt 0.307617 0.837891
vt 0.345703 0.428711
vt 0.234375 0.828125
vt 0.083008 0.328125
vt 0.362305 0.501953
vt 0.557617 0.329102
vt 0.307617 0.828125
vt 0.362305 0.428711
vt 0.558594 0.338867
vt 0.234375 0.827148
vt 0.346680 0.428711
vt 0.082031 0.337891
vt 0.307617 0.827148
vt 0.346680 0.501953
vt 0.558594 0.329102
vt 0.234375 0.817383
vt 0.363281 0.428711
vt 0.082031 0.328125
vt 0.307617 0.817383
vt 0.363281 0.501953
vt 0.321289 0.835938
vt 0.631836 0.314453
vt 0.005859 0.459961
vt 0.558594 0.314453
vt 0.370117 0.835938
vt 0.005859 0.411133
vt 0.321289 0.830078
vt 0.631836 0.308594
vt 0.388672 0.458984
vt 0.558594 0.308594
vt 0.370117 0.830078
vt 0.388672 0.410156
vt 0.559570 0.314453
vt 0.321289 0.707031
vt 0.006836 0.411133
vt 0.630859 0.314453
vt 0.370117 0.707031
vt 0.006836 0.459961
vt 0.559570 0.308594
vt 0.321289 0.701172
vt 0.389648 0.410156
vt 0.630859 0.308594
vt 0.370117 0.701172
vt 0.389648 0.458984
vt 0.594727 1.000000
vt 0.579102 0.307617
vt 0.365234 0.317383
vt 0.692383 0.422852
vt 0.601562 1.000000
vt 0.365234 0.310547
vt 0.594727 0.995117
vt 0.579102 0.302734
vt 0.367188 0.317383
vt 0.692383 0.417969
vt 0.601562 0.995117
vt 0.367188 0.310547
vt 0.693359 0.422852
vt 0.594727 0.915039
vt 0.366211 0.310547
vt 0.578125 0.307617
vt 0.601562 0.915039
vt 0.366211 0.317383
vt 0.693359 0.417969
vt 0.594727 0.910156
vt 0.368164 0.310547
vt 0.578125 0.302734
vt 0.601562 0.910156
vt 0.368164 0.317383
vt 0.594727 0.578125
vt 0.693359 0.403320
vt 0.371094 0.317383
vt 0.692383 0.409180
vt 0.601562 0.578125
vt 0.371094 0.310547
vt 0.594727 0.573242
vt 0.693359 0.398438
vt 0.443359 0.317383
vt 0.692383 0.404297
vt 0.601562 0.573242
vt 0.443359 0.310547
vt 0.693359 0.409180
vt 0.594727 0.564453
vt 0.372070 0.310547
vt 0.692383 0.403320
vt 0.601562 0.564453
vt 0.372070 0.317383
vt 0.693359 0.404297
vt 0.594727 0.559570
vt 0.444336 0.310547
vt 0.692383 0.398438
vt 0.601562 0.559570
vt 0.444336 0.317383
vt 0.588867 0.405273
vt 0.693359 0.397461
vt 0.483398 0.317383
vt 0.602539 0.307617
vt 0.595703 0.405273
vt 0.483398 0.310547
vt 0.588867 0.400391
vt 0.693359 0.392578
vt 0.500977 0.317383
vt 0.602539 0.302734
vt 0.595703 0.400391
vt 0.500977 0.310547
vt 0.603516 0.307617
vt 0.595703 0.962891
vt 0.484375 0.310547
vt 0.692383 0.397461
vt 0.602539 0.962891
vt 0.484375 0.317383
vt 0.603516 0.302734
vt 0.595703 0.958008
vt 0.501953 0.310547
vt 0.692383 0.392578
vt 0.602539 0.958008
vt 0.501953 0.317383
vt 0.595703 0.957031
vt 0.607422 0.307617
vt 0.506836 0.317383
vt 0.604492 0.307617
vt 0.602539 0.957031
vt 0.506836 0.310547
vt 0.595703 0.952148
vt 0.607422 0.302734
vt 0.682617 0.458008
vt 0.604492 0.302734
vt 0.602539 0.952148
vt 0.682617 0.451172
vt 0.605469 0.307617
vt 0.595703 0.925781
vt 0.507812 0.310547
vt 0.606445 0.307617
vt 0.602539 0.925781
vt 0.507812 0.317383
vt 0.605469 0.302734
vt 0.595703 0.920898
vt 0.683594 0.451172
vt 0.606445 0.302734
vt 0.602539 0.920898
vt 0.683594 0.458008
vt 0.156250 0.404297
vt 0.631836 0.307617
vt 0.567383 0.317383
vt 0.608398 0.307617
vt 0.163086 0.404297
vt 0.567383 0.310547
vt 0.156250 0.399414
vt 0.631836 0.302734
vt 0.632812 0.317383
vt 0.608398 0.302734
vt 0.163086 0.399414
vt 0.632812 0.310547
vt 0.609375 0.307617
vt 0.595703 0.793945
vt 0.568359 0.310547
vt 0.630859 0.307617
vt 0.602539 0.793945
vt 0.568359 0.317383
vt 0.609375 0.302734
vt 0.595703 0.789062
vt 0.633789 0.310547
vt 0.630859 0.302734
vt 0.602539 0.789062
vt 0.633789 0.317383
vt 0.584961 0.654297
vt 0.661133 0.307617
vt 0.120117 0.320312
vt 0.658203 0.307617
vt 0.592773 0.654297
vt 0.120117 0.312500
vt 0.584961 0.649414
vt 0.661133 0.302734
vt 0.259766 0.320312
vt 0.658203 0.302734
vt 0.592773 0.649414
vt 0.259766 0.312500
vt 0.659180 0.307617
vt 0.584961 0.624023
vt 0.121094 0.312500
vt 0.660156 0.307617
vt 0.592773 0.624023
vt 0.121094 0.320312
vt 0.659180 0.302734
vt 0.584961 0.619141
vt 0.260742 0.312500
vt 0.660156 0.302734
vt 0.592773 0.619141
vt 0.260742 0.320312
vt 0.561523 0.398438
vt 0.665039 0.307617
vt 0.526367 0.313477
vt 0.662109 0.307617
vt 0.567383 0.398438
vt 0.526367 0.307617
vt 0.561523 0.393555
vt 0.665039 0.302734
vt 0.687500 0.624023
vt 0.662109 0.302734
vt 0.567383 0.393555
vt 0.687500 0.618164
vt 0.663086 0.307617
vt 0.568359 0.398438
vt 0.527344 0.307617
vt 0.664062 0.307617
vt 0.574219 0.398438
vt 0.527344 0.313477
vt 0.663086 0.302734
vt 0.568359 0.393555
vt 0.688477 0.618164
vt 0.664062 0.302734
vt 0.574219 0.393555
vt 0.688477 0.624023
vt 0.584961 0.618164
vt 0.694336 0.988281
vt 0.052734 0.319336
vt 0.693359 1.000000
vt 0.592773 0.618164
vt 0.052734 0.311523
vt 0.584961 0.613281
vt 0.694336 0.983398
vt 0.129883 0.319336
vt 0.693359 0.995117
vt 0.592773 0.613281
vt 0.129883 0.311523
vt 0.694336 1.000000
vt 0.584961 0.601562
vt 0.053711 0.311523
vt 0.693359 0.988281
vt 0.592773 0.601562
vt 0.053711 0.319336
vt 0.694336 0.995117
vt 0.584961 0.596680
vt 0.130859 0.311523
vt 0.693359 0.983398
vt 0.592773 0.596680
vt 0.130859 0.319336
vt 0.280273 0.809570
vt 0.159180 0.347656
vt 0.299805 0.456055
vt 0.156250 0.347656
vt 0.327148 0.809570
vt 0.299805 0.409180
vt 0.280273 0.798828
vt 0.159180 0.336914
vt 0.311523 0.456055
vt 0.156250 0.336914
vt 0.327148 0.798828
vt 0.311523 0.409180
vt 0.157227 0.347656
vt 0.280273 0.797852
vt 0.300781 0.409180
vt 0.158203 0.347656
vt 0.327148 0.797852
vt 0.300781 0.456055
vt 0.157227 0.336914
vt 0.280273 0.787109
vt 0.312500 0.409180
vt 0.158203 0.336914
vt 0.327148 0.787109
vt 0.312500 0.456055
vt 0.352539 0.900391
vt 0.617188 0.312500
vt 0.536133 0.439453
vt 0.449219 0.312500
vt 0.392578 0.900391
vt 0.536133 0.399414
vt 0.352539 0.894531
vt 0.617188 0.306641
vt 0.172852 0.438477
vt 0.449219 0.306641
vt 0.392578 0.894531
vt 0.172852 0.398438
vt 0.450195 0.312500
vt 0.354492 0.955078
vt 0.537109 0.399414
vt 0.616211 0.312500
vt 0.394531 0.955078
vt 0.537109 0.439453
vt 0.450195 0.306641
vt 0.354492 0.949219
vt 0.173828 0.398438
vt 0.616211 0.306641
vt 0.394531 0.949219
vt 0.173828 0.438477
vt 0.634766 0.741211
vt 0.711914 0.986328
vt 0.513672 0.398438
vt 0.709961 0.988281
vt 0.649414 0.741211
vt 0.513672 0.383789
vt 0.634766 0.740234
vt 0.711914 0.985352
vt 0.523438 0.398438
vt 0.709961 0.987305
vt 0.649414 0.740234
vt 0.523438 0.383789
vt 0.711914 0.988281
vt 0.634766 0.589844
vt 0.515625 0.383789
vt 0.709961 0.986328
vt 0.649414 0.589844
vt 0.515625 0.398438
vt 0.711914 0.987305
vt 0.634766 0.588867
vt 0.525391 0.383789
vt 0.709961 0.985352
vt 0.649414 0.588867
vt 0.525391 0.398438
vt 0.548828 0.582031
vt 0.701172 0.659180
vt 0.224609 0.443359
vt 0.699219 0.668945
vt 0.572266 0.582031
vt 0.224609 0.419922
vt 0.548828 0.580078
vt 0.701172 0.657227
vt 0.317383 0.441406
vt 0.699219 0.666992
vt 0.572266 0.580078
vt 0.317383 0.417969
vt 0.701172 0.668945
vt 0.549805 0.555664
vt 0.226562 0.419922
vt 0.699219 0.659180
vt 0.573242 0.555664
vt 0.226562 0.443359
vt 0.701172 0.666992
vt 0.549805 0.553711
vt 0.319336 0.417969
vt 0.699219 0.657227
vt 0.573242 0.553711
vt 0.319336 0.441406
vt 0.328125 0.795898
vt 0.013672 0.351562
vt 0.073242 0.530273
vt 0.008789 0.351562
vt 0.375977 0.795898
vt 0.073242 0.482422
vt 0.328125 0.790039
vt 0.013672 0.345703
vt 0.076172 0.530273
vt 0.008789 0.345703
vt 0.375977 0.790039
vt 0.076172 0.482422
vt 0.010742 0.351562
vt 0.327148 0.671875
vt 0.075195 0.482422
vt 0.011719 0.351562
vt 0.375000 0.671875
vt 0.075195 0.530273
vt 0.010742 0.345703
vt 0.327148 0.666016
vt 0.078125 0.482422
vt 0.011719 0.345703
vt 0.375000 0.666016
vt 0.078125 0.530273
vt 0.493164 0.523438
vt 0.694336 0.976562
vt 0.340820 0.368164
vt 0.693359 0.982422
vt 0.508789 0.523438
vt 0.340820 0.352539
vt 0.493164 0.518555
vt 0.694336 0.971680
vt 0.384766 0.368164
vt 0.693359 0.977539
vt 0.508789 0.518555
vt 0.384766 0.352539
vt 0.694336 0.982422
vt 0.494141 0.946289
vt 0.341797 0.352539
vt 0.693359 0.976562
vt 0.509766 0.946289
vt 0.341797 0.368164
vt 0.694336 0.977539
vt 0.494141 0.941406
vt 0.385742 0.352539
vt 0.693359 0.971680
vt 0.509766 0.941406
vt 0.385742 0.368164
vt 0.613281 0.358398
vt 0.523438 0.738281
vt 0.570312 0.831055
vt 0.509766 0.744141
vt 0.616211 0.358398
vt 0.570312 0.828125
vt 0.613281 0.353516
vt 0.523438 0.733398
vt 0.570312 0.684570
vt 0.509766 0.739258
vt 0.616211 0.353516
vt 0.570312 0.681641
vt 0.523438 0.744141
vt 0.641602 0.362305
vt 0.583984 0.828125
vt 0.509766 0.738281
vt 0.644531 0.362305
vt 0.583984 0.831055
vt 0.523438 0.739258
vt 0.641602 0.357422
vt 0.583984 0.681641
vt 0.509766 0.733398
vt 0.644531 0.357422
vt 0.583984 0.684570
vt 0.470703 0.636719
vt 0.550781 0.301758
vt 0.466797 0.386719
vt 0.496094 0.301758
vt 0.494141 0.636719
vt 0.466797 0.363281
vt 0.470703 0.632812
vt 0.550781 0.297852
vt 0.041992 0.385742
vt 0.496094 0.297852
vt 0.494141 0.632812
vt 0.041992 0.362305
vt 0.497070 0.301758
vt 0.473633 0.889648
vt 0.467773 0.363281
vt 0.549805 0.301758
vt 0.497070 0.889648
vt 0.467773 0.386719
vt 0.497070 0.297852
vt 0.473633 0.885742
vt 0.042969 0.362305
vt 0.549805 0.297852
vt 0.497070 0.885742
vt 0.042969 0.385742
vt 0.288086 0.713867
vt 0.440430 0.313477
vt 0.426758 0.502930
vt 0.045898 0.313477
vt 0.361328 0.713867
vt 0.426758 0.429688
vt 0.288086 0.708008
vt 0.440430 0.307617
vt 0.281250 0.501953
vt 0.045898 0.307617
vt 0.361328 0.708008
vt 0.281250 0.428711
vt 0.046875 0.313477
vt 0.197266 0.708984
vt 0.427734 0.429688
vt 0.439453 0.313477
vt 0.270508 0.708984
vt 0.427734 0.502930
vt 0.046875 0.307617
vt 0.197266 0.703125
vt 0.282227 0.428711
vt 0.439453 0.307617
vt 0.270508 0.703125
vt 0.282227 0.501953
vt 0.687500 0.822266
vt 0.044922 0.297852
vt 0.064453 0.375000
vt 0.702148 0.959961
vt 0.689453 0.822266
vt 0.064453 0.373047
vt 0.687500 0.819336
vt 0.044922 0.294922
vt 0.364258 0.371094
vt 0.702148 0.957031
vt 0.689453 0.819336
vt 0.364258 0.369141
vt 0.703125 0.959961
vt 0.687500 0.805664
vt 0.065430 0.373047
vt 0.043945 0.297852
vt 0.689453 0.805664
vt 0.065430 0.375000
vt 0.703125 0.957031
vt 0.687500 0.802734
vt 0.365234 0.369141
vt 0.043945 0.294922
vt 0.689453 0.802734
vt 0.365234 0.371094
s 0
usemtl m_8a7aecf9-bc7d-1c53-4ad7-3ee173c6c92f
f 4/10/1 7/19/1 5/13/1 2/4/1
f 3/7/2 4/11/2 2/5/2 1/1/2
f 8/22/3 3/8/3 1/2/3 6/16/3
f 7/20/4 8/23/4 6/17/4 5/14/4
f 6/18/5 1/3/5 2/6/5 5/15/5
f 7/21/6 4/12/6 3/9/6 8/24/6
f 12/34/7 15/43/7 13/37/7 10/28/7
f 11/31/4 12/35/4 10/29/4 9/25/4
f 16/46/8 11/32/8 9/26/8 14/40/8
f 15/44/2 16/47/2 14/41/2 13/38/2
f 14/42/9 9/27/9 10/30/9 13/39/9
f 15/45/10 12/36/10 11/33/10 16/48/10
f 20/58/11 23/67/11 21/61/11 18/52/11
f 19/55/4 20/59/4 18/53/4 17/49/4
f 24/70/12 19/56/12 17/50/12 22/64/12
f 23/68/2 24/71/2 22/65/2 21/62/2
f 22/66/13 17/51/13 18/54/13 21/63/13
f 23/69/14 20/60/14 19/57/14 24/72/14
f 28/82/7 31/91/7 29/85/7 26/76/7
f 27/79/15 28/83/15 26/77/15 25/73/15
f 32/94/8 27/80/8 25/74/8 30/88/8
f 31/92/16 32/95/16 30/89/16 29/86/16
f 30/90/17 25/75/17 26/78/17 29/87/17
f 31/93/18 28/84/18 27/81/18 32/96/18
f 36/106/11 39/115/11 37/109/11 34/100/11
f 35/103/19 36/107/19 34/101/19 33/97/19
f 40/118/12 35/104/12 33/98/12 38/112/12
f 39/116/20 40/119/20 38/113/20 37/110/20
f 38/114/21 33/99/21 34/102/21 37/111/21
f 39/117/22 36/108/22 35/105/22 40/120/22
f 44/130/7 47/139/7 45/133/7 42/124/7
f 43/127/9 44/131/9 42/125/9 41/121/9
f 48/142/8 43/128/8 41/122/8 46/136/8
f 47/140/10 48/143/10 46/137/10 45/134/10
f 46/138/2 41/123/2 42/126/2 45/135/2
f 47/141/4 44/132/4 43/129/4 48/144/4
f 52/154/23 55/163/23 53/157/23 50/148/23
f 51/151/24 52/155/24 50/149/24 49/145/24
f 56/166/25 51/152/25 49/146/25 54/160/25
f 55/164/26 56/167/26 54/161/26 53/158/26
f 54/162/2 49/147/2 50/150/2 53/159/2
f 55/165/4 52/156/4 51/153/4 56/168/4
f 60/178/23 63/187/23 61/181/23 58/172/23
f 59/175/24 60/179/24 58/173/24 57/169/24
f 64/190/25 59/176/25 57/170/25 62/184/25
f 63/188/26 64/191/26 62/185/26 61/182/26
f 62/186/2 57/171/2 58/174/2 61/183/2
f 63/189/4 60/180/4 59/177/4 64/192/4
f 68/202/12 71/211/12 69/205/12 66/196/12
f 67/199/14 68/203/14 66/197/14 65/193/14
f 72/214/11 67/200/11 65/194/11 70/208/11
f 71/212/13 72/215/13 70/209/13 69/206/13
f 70/210/2 65/195/2 66/198/2 69/207/2
f 71/213/4 68/204/4 67/201/4 72/216/4
f 76/226/27 79/235/27 77/229/27 74/220/27
f 75/223/28 76/227/28 74/221/28 73/217/28
f 80/238/29 75/224/29 73/218/29 78/232/29
f 79/236/30 80/239/30 78/233/30 77/230/30
f 78/234/21 73/219/21 74/222/21 77/231/21
f 79/237/22 76/228/22 75/225/22 80/240/22
f 84/250/7 87/259/7 85/253/7 82/244/7
f 83/247/31 84/251/31 82/245/31 81/241/31
f 88/262/8 83/248/8 81/242/8 86/256/8
f 87/260/32 88/263/32 86/257/32 85/254/32
f 86/258/33 81/243/33 82/246/33 85/255/33
f 87/261/34 84/252/34 83/249/34 88/264/34
f 92/274/7 95/283/7 93/277/7 90/268/7
f 91/271/35 92/275/35 90/269/35 89/265/35
f 96/286/8 91/272/8 89/266/8 94/280/8
f 95/284/36 96/287/36 94/281/36 93/278/36
f 94/282/37 89/267/37 90/270/37 93/279/37
f 95/285/38 92/276/38 91/273/38 96/288/38
f 100/298/39 103/307/39 101/301/39 98/292/39
f 99/295/40 100/299/40 98/293/40 97/289/40
f 104/310/41 99/296/41 97/290/41 102/304/41
f 103/308/42 104/311/42 102/305/42 101/302/42
f 102/306/43 97/291/43 98/294/43 101/303/43
f 103/309/44 100/300/44 99/297/44 104/312/44
f 108/322/45 111/331/45 109/325/45 106/316/45
f 107/319/46 108/323/46 106/317/46 105/313/46
f 112/334/47 107/320/47 105/314/47 110/328/47
f 111/332/48 112/335/48 110/329/48 109/326/48
f 110/330/33 105/315/33 106/318/33 109/327/33
f 111/333/34 108/324/34 107/321/34 112/336/34
f 116/346/11 119/355/11 117/349/11 114/340/11
f 115/343/49 116/347/49 114/341/49 113/337/49
f 120/358/12 115/344/12 113/338/12 118/352/12
f 119/356/50 120/359/50 118/353/50 117/350/50
f 118/354/51 113/339/51 114/342/51 117/351/51
f 119/357/52 116/348/52 115/345/52 120/360/52
f 124/370/11 127/379/11 125/373/11 122/364/11
f 123/367/53 124/371/53 122/365/53 121/361/53
f 128/382/12 123/368/12 121/362/12 126/376/12
f 127/380/54 128/383/54 126/377/54 125/374/54
f 126/378/55 121/363/55 122/366/55 125/375/55
f 127/381/56 124/372/56 123/369/56 128/384/56
f 132/394/57 135/403/57 133/397/57 130/388/57
f 131/391/58 132/395/58 130/389/58 129/385/58
f 136/406/59 131/392/59 129/386/59 134/400/59
f 135/404/60 136/407/60 134/401/60 133/398/60
f 134/402/51 129/387/51 130/390/51 133/399/51
f 135/405/52 132/396/52 131/393/52 136/408/52
f 140/418/61 143/427/61 141/421/61 138/412/61
f 139/415/2 140/419/2 138/413/2 137/409/2
f 144/430/62 139/416/62 137/410/62 142/424/62
f 143/428/4 144/431/4 142/425/4 141/422/4
f 142/426/63 137/411/63 138/414/63 141/423/63
f 143/429/64 140/420/64 139/417/64 144/432/64
f 148/442/61 151/451/61 149/445/61 146/436/61
f 147/439/2 148/443/2 146/437/2 145/433/2
f 152/454/62 147/440/62 145/434/62 150/448/62
f 151/452/4 152/455/4 150/449/4 149/446/4
f 150/450/63 145/435/63 146/438/63 149/447/63
f 151/453/64 148/444/64 147/441/64 152/456/64
f 156/466/61 159/475/61 157/469/61 154/460/61
f 155/463/2 156/467/2 154/461/2 153/457/2
f 160/478/62 155/464/62 153/458/62 158/472/62
f 159/476/4 160/479/4 158/473/4 157/470/4
f 158/474/63 153/459/63 154/462/63 157/471/63
f 159/477/64 156/468/64 155/465/64 160/480/64
f 164/490/61 167/499/61 165/493/61 162/484/61
f 163/487/2 164/491/2 162/485/2 161/481/2
f 168/502/62 163/488/62 161/482/62 166/496/62
f 167/500/4 168/503/4 166/497/4 165/494/4
f 166/498/63 161/483/63 162/486/63 165/495/63
f 167/501/64 164/492/64 163/489/64 168/504/64
f 172/514/65 175/523/65 173/517/65 170/508/65
f 171/511/2 172/515/2 170/509/2 169/505/2
f 176/526/66 171/512/66 169/506/66 174/520/66
f 175/524/4 176/527/4 174/521/4 173/518/4
f 174/522/67 169/507/67 170/510/67 173/519/67
f 175/525/68 172/516/68 171/513/68 176/528/68
f 180/538/69 183/547/69 181/541/69 178/532/69
f 179/535/2 180/539/2 178/533/2 177/529/2
f 184/550/70 179/536/70 177/530/70 182/544/70
f 183/548/4 184/551/4 182/545/4 181/542/4
f 182/546/71 177/531/71 178/534/71 181/543/71
f 183/549/72 180/540/72 179/537/72 184/552/72
f 188/562/69 191/571/69 189/565/69 186/556/69
f 187/559/2 188/563/2 186/557/2 185/553/2
f 192/574/70 187/560/70 185/554/70 190/568/70
f 191/572/4 192/575/4 190/569/4 189/566/4
f 190/570/71 185/555/71 186/558/71 189/567/71
f 191/573/72 188/564/72 187/561/72 192/576/72
f 196/586/73 199/595/73 197/589/73 194/580/73
f 195/583/2 196/587/2 194/581/2 193/577/2
f 200/598/74 195/584/74 193/578/74 198/592/74
f 199/596/4 200/599/4 198/593/4 197/590/4
f 198/594/75 193/579/75 194/582/75 197/591/75
f 199/597/76 196/588/76 195/585/76 200/600/76
f 204/610/69 207/619/69 205/613/69 202/604/69
f 203/607/2 204/611/2 202/605/2 201/601/2
f 208/622/70 203/608/70 201/602/70 206/616/70
f 207/620/4 208/623/4 206/617/4 205/614/4
f 206/618/71 201/603/71 202/606/71 205/615/71
f 207/621/72 204/612/72 203/609/72 208/624/72
f 212/634/65 215/643/65 213/637/65 210/628/65
f 211/631/2 212/635/2 210/629/2 209/625/2
f 216/646/66 211/632/66 209/626/66 214/640/66
f 215/644/4 216/647/4 214/641/4 213/638/4
f 214/642/67 209/627/67 210/630/67 213/639/67
f 215/645/68 212/636/68 211/633/68 216/648/68
f 220/658/65 223/667/65 221/661/65 218/652/65
f 219/655/2 220/659/2 218/653/2 217/649/2
f 224/670/66 219/656/66 217/650/66 222/664/66
f 223/668/4 224/671/4 222/665/4 221/662/4
f 222/666/67 217/651/67 218/654/67 221/663/67
f 223/669/68 220/660/68 219/657/68 224/672/68
f 228/682/69 231/691/69 229/685/69 226/676/69
f 227/679/2 228/683/2 226/677/2 225/673/2
f 232/694/70 227/680/70 225/674/70 230/688/70
f 231/692/4 232/695/4 230/689/4 229/686/4
f 230/690/71 225/675/71 226/678/71 229/687/71
f 231/693/72 228/684/72 227/681/72 232/696/72
f 236/706/77 239/715/77 237/709/77 234/700/77
f 235/703/2 236/707/2 234/701/2 233/697/2
f 240/718/78 235/704/78 233/698/78 238/712/78
f 239/716/4 240/719/4 238/713/4 237/710/4
f 238/714/79 233/699/79 234/702/79 237/711/79
f 239/717/80 236/708/80 235/705/80 240/720/80
f 244/730/81 247/739/81 245/733/81 242/724/81
f 243/727/2 244/731/2 242/725/2 241/721/2
f 248/742/82 243/728/82 241/722/82 246/736/82
f 247/740/4 248/743/4 246/737/4 245/734/4
f 246/738/83 241/723/83 242/726/83 245/735/83
f 247/741/84 244/732/84 243/729/84 248/744/84
f 252/754/61 255/763/61 253/757/61 250/748/61
f 251/751/2 252/755/2 250/749/2 249/745/2
f 256/766/62 251/752/62 249/746/62 254/760/62
f 255/764/4 256/767/4 254/761/4 253/758/4
f 254/762/63 249/747/63 250/750/63 253/759/63
f 255/765/64 252/756/64 251/753/64 256/768/64
f 260/778/85 263/787/85 261/781/85 258/772/85
f 259/775/2 260/779/2 258/773/2 257/769/2
f 264/790/86 259/776/86 257/770/86 262/784/86
f 263/788/4 264/791/4 262/785/4 261/782/4
f 262/786/87 257/771/87 258/774/87 261/783/87
f 263/789/88 260/780/88 259/777/88 264/792/88
f 268/802/1 271/811/1 269/805/1 266/796/1
f 267/799/2 268/803/2 266/797/2 265/793/2
f 272/814/3 267/800/3 265/794/3 270/808/3
f 271/812/4 272/815/4 270/809/4 269/806/4
f 270/810/5 265/795/5 266/798/5 269/807/5
f 271/813/6 268/804/6 267/801/6 272/816/6
f 276/826/61 279/835/61 277/829/61 274/820/61
f 275/823/2 276/827/2 274/821/2 273/817/2
f 280/838/62 275/824/62 273/818/62 278/832/62
f 279/836/4 280/839/4 278/833/4 277/830/4
f 278/834/63 273/819/63 274/822/63 277/831/63
f 279/837/64 276/828/64 275/825/64 280/840/64
f 284/850/89 287/859/89 285/853/89 282/844/89
f 283/847/4 284/851/4 282/845/4 281/841/4
f 288/862/90 283/848/90 281/842/90 286/856/90
f 287/860/2 288/863/2 286/857/2 285/854/2
f 286/858/91 281/843/91 282/846/91 285/855/91
f 287/861/92 284/852/92 283/849/92 288/864/92
f 292/874/62 295/883/62 293/877/62 290/868/62
f 291/871/4 292/875/4 290/869/4 289/865/4
f 296/886/61 291/872/61 289/866/61 294/880/61
f 295/884/2 296/887/2 294/881/2 293/878/2
f 294/882/63 289/867/63 290/870/63 293/879/63
f 295/885/64 292/876/64 291/873/64 296/888/64
f 300/898/65 303/907/65 301/901/65 298/892/65
f 299/895/2 300/899/2 298/893/2 297/889/2
f 304/910/66 299/896/66 297/890/66 302/904/66
f 303/908/4 304/911/4 302/905/4 301/902/4
f 302/906/67 297/891/67 298/894/67 301/903/67
f 303/909/68 300/900/68 299/897/68 304/912/68
f 308/922/7 311/931/7 309/925/7 306/916/7
f 307/919/4 308/923/4 306/917/4 305/913/4
f 312/934/8 307/920/8 305/914/8 310/928/8
f 311/932/2 312/935/2 310/929/2 309/926/2
f 310/930/9 305/915/9 306/918/9 309/927/9
f 311/933/10 308/924/10 307/921/10 312/936/10
f 316/946/11 319/955/11 317/949/11 314/940/11
f 315/943/4 316/947/4 314/941/4 313/937/4
f 320/958/12 315/944/12 313/938/12 318/952/12
f 319/956/2 320/959/2 318/953/2 317/950/2
f 318/954/13 313/939/13 314/942/13 317/951/13
f 319/957/14 316/948/14 315/945/14 320/960/14
f 324/970/7 327/979/7 325/973/7 322/964/7
f 323/967/93 324/971/93 322/965/93 321/961/93
f 328/982/8 323/968/8 321/962/8 326/976/8
f 327/980/94 328/983/94 326/977/94 325/974/94
f 326/978/95 321/963/95 322/966/95 325/975/95
f 327/981/96 324/972/96 323/969/96 328/984/96
f 332/994/11 335/1003/11 333/997/11 330/988/11
f 331/991/97 332/995/97 330/989/97 329/985/97
f 336/1006/12 331/992/12 329/986/12 334/1000/12
f 335/1004/98 336/1007/98 334/1001/98 333/998/98
f 334/1002/99 329/987/99 330/990/99 333/999/99
f 335/1005/100 332/996/100 331/993/100 336/1008/100
f 340/1018/7 343/1027/7 341/1021/7 338/1012/7
f 339/1015/10 340/1019/10 338/1013/10 337/1009/10
f 344/1030/8 339/1016/8 337/1010/8 342/1024/8
f 343/1028/9 344/1031/9 342/1025/9 341/1022/9
f 342/1026/4 337/1011/4 338/1014/4 341/1023/4
f 343/1029/2 340/1020/2 339/1017/2 344/1032/2
f 348/1042/23 351/1051/23 349/1045/23 346/1036/23
f 347/1039/26 348/1043/26 346/1037/26 345/1033/26
f 352/1054/25 347/1040/25 345/1034/25 350/1048/25
f 351/1052/24 352/1055/24 350/1049/24 349/1046/24
f 350/1050/4 345/1035/4 346/1038/4 349/1047/4
f 351/1053/2 348/1044/2 347/1041/2 352/1056/2
f 356/1066/23 359/1075/23 357/1069/23 354/1060/23
f 355/1063/26 356/1067/26 354/1061/26 353/1057/26
f 360/1078/25 355/1064/25 353/1058/25 358/1072/25
f 359/1076/24 360/1079/24 358/1073/24 357/1070/24
f 358/1074/4 353/1059/4 354/1062/4 357/1071/4
f 359/1077/2 356/1068/2 355/1065/2 360/1080/2
f 364/1090/12 367/1099/12 365/1093/12 362/1084/12
f 363/1087/13 364/1091/13 362/1085/13 361/1081/13
f 368/1102/11 363/1088/11 361/1082/11 366/1096/11
f 367/1100/14 368/1103/14 366/1097/14 365/1094/14
f 366/1098/4 361/1083/4 362/1086/4 365/1095/4
f 367/1101/2 364/1092/2 363/1089/2 368/1104/2
f 372/1114/101 375/1123/101 373/1117/101 370/1108/101
f 371/1111/102 372/1115/102 370/1109/102 369/1105/102
f 376/1126/103 371/1112/103 369/1106/103 374/1120/103
f 375/1124/104 376/1127/104 374/1121/104 373/1118/104
f 374/1122/99 369/1107/99 370/1110/99 373/1119/99
f 375/1125/100 372/1116/100 371/1113/100 376/1128/100
f 380/1138/7 383/1147/7 381/1141/7 378/1132/7
f 379/1135/105 380/1139/105 378/1133/105 377/1129/105
f 384/1150/8 379/1136/8 377/1130/8 382/1144/8
f 383/1148/106 384/1151/106 382/1145/106 381/1142/106
f 382/1146/107 377/1131/107 378/1134/107 381/1143/107
f 383/1149/108 380/1140/108 379/1137/108 384/1152/108
f 388/1162/7 391/1171/7 389/1165/7 386/1156/7
f 387/1159/109 388/1163/109 386/1157/109 385/1153/109
f 392/1174/8 387/1160/8 385/1154/8 390/1168/8
f 391/1172/110 392/1175/110 390/1169/110 389/1166/110
f 390/1170/111 385/1155/111 386/1158/111 389/1167/111
f 391/1173/112 388/1164/112 387/1161/112 392/1176/112
f 396/1186/113 399/1195/113 397/1189/113 394/1180/113
f 395/1183/114 396/1187/114 394/1181/114 393/1177/114
f 400/1198/115 395/1184/115 393/1178/115 398/1192/115
f 399/1196/116 400/1199/116 398/1193/116 397/1190/116
f 398/1194/117 393/1179/117 394/1182/117 397/1191/117
f 399/1197/118 396/1188/118 395/1185/118 400/1200/118
f 404/1210/119 407/1219/119 405/1213/119 402/1204/119
f 403/1207/120 404/1211/120 402/1205/120 401/1201/120
f 408/1222/121 403/1208/121 401/1202/121 406/1216/121
f 407/1220/122 408/1223/122 406/1217/122 405/1214/122
f 406/1218/107 401/1203/107 402/1206/107 405/1215/107
f 407/1221/108 404/1212/108 403/1209/108 408/1224/108
f 412/1234/11 415/1243/11 413/1237/11 410/1228/11
f 411/1231/123 412/1235/123 410/1229/123 409/1225/123
f 416/1246/12 411/1232/12 409/1226/12 414/1240/12
f 415/1244/124 416/1247/124 414/1241/124 413/1238/124
f 414/1242/125 409/1227/125 410/1230/125 413/1239/125
f 415/1245/126 412/1236/126 411/1233/126 416/1248/126
f 420/1258/11 423/1267/11 421/1261/11 418/1252/11
f 419/1255/127 420/1259/127 418/1253/127 417/1249/127
f 424/1270/12 419/1256/12 417/1250/12 422/1264/12
f 423/1268/128 424/1271/128 422/1265/128 421/1262/128
f 422/1266/129 417/1251/129 418/1254/129 421/1263/129
f 423/1269/130 420/1260/130 419/1257/130 424/1272/130
f 428/1282/131 431/1291/131 429/1285/131 426/1276/131
f 427/1279/132 428/1283/132 426/1277/132 425/1273/132
f 432/1294/133 427/1280/133 425/1274/133 430/1288/133
f 431/1292/134 432/1295/134 430/1289/134 429/1286/134
f 430/1290/125 425/1275/125 426/1278/125 429/1287/125
f 431/1293/126 428/1284/126 427/1281/126 432/1296/126
f 436/1306/1 439/1315/1 437/1309/1 434/1300/1
f 435/1303/2 436/1307/2 434/1301/2 433/1297/2
f 440/1318/3 435/1304/3 433/1298/3 438/1312/3
f 439/1316/4 440/1319/4 438/1313/4 437/1310/4
f 438/1314/5 433/1299/5 434/1302/5 437/1311/5
f 439/1317/6 436/1308/6 435/1305/6 440/1320/6
f 444/1330/61 447/1339/61 445/1333/61 442/1324/61
f 443/1327/2 444/1331/2 442/1325/2 441/1321/2
f 448/1342/62 443/1328/62 441/1322/62 446/1336/62
f 447/1340/4 448/1343/4 446/1337/4 445/1334/4
f 446/1338/63 441/1323/63 442/1326/63 445/1335/63
f 447/1341/64 444/1332/64 443/1329/64 448/1344/64
f 452/1354/61 455/1363/61 453/1357/61 450/1348/61
f 451/1351/2 452/1355/2 450/1349/2 449/1345/2
f 456/1366/62 451/1352/62 449/1346/62 454/1360/62
f 455/1364/4 456/1367/4 454/1361/4 453/1358/4
f 454/1362/63 449/1347/63 450/1350/63 453/1359/63
f 455/1365/64 452/1356/64 451/1353/64 456/1368/64
f 460/1378/69 463/1387/69 461/1381/69 458/1372/69
f 459/1375/2 460/1379/2 458/1373/2 457/1369/2
f 464/1390/70 459/1376/70 457/1370/70 462/1384/70
f 463/1388/4 464/1391/4 462/1385/4 461/1382/4
f 462/1386/71 457/1371/71 458/1374/71 461/1383/71
f 463/1389/72 460/1380/72 459/1377/72 464/1392/72
f 468/1402/69 471/1411/69 469/1405/69 466/1396/69
f 467/1399/2 468/1403/2 466/1397/2 465/1393/2
f 472/1414/70 467/1400/70 465/1394/70 470/1408/70
f 471/1412/4 472/1415/4 470/1409/4 469/1406/4
f 470/1410/71 465/1395/71 466/1398/71 469/1407/71
f 471/1413/72 468/1404/72 467/1401/72 472/1416/72
f 476/1426/73 479/1435/73 477/1429/73 474/1420/73
f 475/1423/2 476/1427/2 474/1421/2 473/1417/2
f 480/1438/74 475/1424/74 473/1418/74 478/1432/74
f 479/1436/4 480/1439/4 478/1433/4 477/1430/4
f 478/1434/75 473/1419/75 474/1422/75 477/1431/75
f 479/1437/76 476/1428/76 475/1425/76 480/1440/76
f 484/1450/69 487/1459/69 485/1453/69 482/1444/69
f 483/1447/2 484/1451/2 482/1445/2 481/1441/2
f 488/1462/70 483/1448/70 481/1442/70 486/1456/70
f 487/1460/4 488/1463/4 486/1457/4 485/1454/4
f 486/1458/71 481/1443/71 482/1446/71 485/1455/71
f 487/1461/72 484/1452/72 483/1449/72 488/1464/72
f 492/1474/65 495/1483/65 493/1477/65 490/1468/65
f 491/1471/2 492/1475/2 490/1469/2 489/1465/2
f 496/1486/66 491/1472/66 489/1466/66 494/1480/66
f 495/1484/4 496/1487/4 494/1481/4 493/1478/4
f 494/1482/67 489/1467/67 490/1470/67 493/1479/67
f 495/1485/68 492/1476/68 491/1473/68 496/1488/68
f 500/1498/65 503/1507/65 501/1501/65 498/1492/65
f 499/1495/2 500/1499/2 498/1493/2 497/1489/2
f 504/1510/66 499/1496/66 497/1490/66 502/1504/66
f 503/1508/4 504/1511/4 502/1505/4 501/1502/4
f 502/1506/67 497/1491/67 498/1494/67 501/1503/67
f 503/1509/68 500/1500/68 499/1497/68 504/1512/68
f 508/1522/69 511/1531/69 509/1525/69 506/1516/69
f 507/1519/2 508/1523/2 506/1517/2 505/1513/2
f 512/1534/70 507/1520/70 505/1514/70 510/1528/70
f 511/1532/4 512/1535/4 510/1529/4 509/1526/4
f 510/1530/71 505/1515/71 506/1518/71 509/1527/71
f 511/1533/72 508/1524/72 507/1521/72 512/1536/72
f 516/1546/77 519/1555/77 517/1549/77 514/1540/77
f 515/1543/2 516/1547/2 514/1541/2 513/1537/2
f 520/1558/78 515/1544/78 513/1538/78 518/1552/78
f 519/1556/4 520/1559/4 518/1553/4 517/1550/4
f 518/1554/79 513/1539/79 514/1542/79 517/1551/79
f 519/1557/80 516/1548/80 515/1545/80 520/1560/80
f 524/1570/81 527/1579/81 525/1573/81 522/1564/81
f 523/1567/2 524/1571/2 522/1565/2 521/1561/2
f 528/1582/82 523/1568/82 521/1562/82 526/1576/82
f 527/1580/4 528/1583/4 526/1577/4 525/1574/4
f 526/1578/83 521/1563/83 522/1566/83 525/1575/83
f 527/1581/84 524/1572/84 523/1569/84 528/1584/84
f 532/1594/61 535/1603/61 533/1597/61 530/1588/61
f 531/1591/2 532/1595/2 530/1589/2 529/1585/2
f 536/1606/62 531/1592/62 529/1586/62 534/1600/62
f 535/1604/4 536/1607/4 534/1601/4 533/1598/4
f 534/1602/63 529/1587/63 530/1590/63 533/1599/63
f 535/1605/64 532/1596/64 531/1593/64 536/1608/64
f 540/1618/85 543/1627/85 541/1621/85 538/1612/85
f 539/1615/2 540/1619/2 538/1613/2 537/1609/2
f 544/1630/86 539/1616/86 537/1610/86 542/1624/86
f 543/1628/4 544/1631/4 542/1625/4 541/1622/4
f 542/1626/87 537/1611/87 538/1614/87 541/1623/87
f 543/1629/88 540/1620/88 539/1617/88 544/1632/88
f 548/1642/1 551/1651/1 549/1645/1 546/1636/1
f 547/1639/2 548/1643/2 546/1637/2 545/1633/2
f 552/1654/3 547/1640/3 545/1634/3 550/1648/3
f 551/1652/4 552/1655/4 550/1649/4 549/1646/4
f 550/1650/5 545/1635/5 546/1638/5 549/1647/5
f 551/1653/6 548/1644/6 547/1641/6 552/1656/6
f 556/1666/61 559/1675/61 557/1669/61 554/1660/61
f 555/1663/2 556/1667/2 554/1661/2 553/1657/2
f 560/1678/62 555/1664/62 553/1658/62 558/1672/62
f 559/1676/4 560/1679/4 558/1673/4 557/1670/4
f 558/1674/63 553/1659/63 554/1662/63 557/1671/63
f 559/1677/64 556/1668/64 555/1665/64 560/1680/64
f 564/1690/62 567/1699/62 565/1693/62 562/1684/62
f 563/1687/4 564/1691/4 562/1685/4 561/1681/4
f 568/1702/61 563/1688/61 561/1682/61 566/1696/61
f 567/1700/2 568/1703/2 566/1697/2 565/1694/2
f 566/1698/63 561/1683/63 562/1686/63 565/1695/63
f 567/1701/64 564/1692/64 563/1689/64 568/1704/64
f 572/1714/89 575/1723/89 573/1717/89 570/1708/89
f 571/1711/4 572/1715/4 570/1709/4 569/1705/4
f 576/1726/90 571/1712/90 569/1706/90 574/1720/90
f 575/1724/2 576/1727/2 574/1721/2 573/1718/2
f 574/1722/91 569/1707/91 570/1710/91 573/1719/91
f 575/1725/92 572/1716/92 571/1713/92 576/1728/92
f 580/1738/61 583/1747/61 581/1741/61 578/1732/61
f 579/1735/2 580/1739/2 578/1733/2 577/1729/2
f 584/1750/62 579/1736/62 577/1730/62 582/1744/62
f 583/1748/4 584/1751/4 582/1745/4 581/1742/4
f 582/1746/63 577/1731/63 578/1734/63 581/1743/63
f 583/1749/64 580/1740/64 579/1737/64 584/1752/64
f 588/1762/61 591/1771/61 589/1765/61 586/1756/61
f 587/1759/2 588/1763/2 586/1757/2 585/1753/2
f 592/1774/62 587/1760/62 585/1754/62 590/1768/62
f 591/1772/4 592/1775/4 590/1769/4 589/1766/4
f 590/1770/63 585/1755/63 586/1758/63 589/1767/63
f 591/1773/64 588/1764/64 587/1761/64 592/1776/64
f 596/1786/82 599/1795/82 597/1789/82 594/1780/82
f 595/1783/4 596/1787/4 594/1781/4 593/1777/4
f 600/1798/81 595/1784/81 593/1778/81 598/1792/81
f 599/1796/2 600/1799/2 598/1793/2 597/1790/2
f 598/1794/83 593/1779/83 594/1782/83 597/1791/83
f 599/1797/84 596/1788/84 595/1785/84 600/1800/84
o c
v -0.449975 0.647454 3.052337
v -0.449975 1.063065 2.036448
v 0.452089 0.647454 3.052337
v 0.452089 1.063065 2.036448
v -0.449975 1.003646 2.012140
v -0.449975 0.588035 3.028028
v 0.452089 1.003646 2.012139
v 0.452089 0.588035 3.028028
v 0.787165 0.585387 3.034500
v 0.787164 1.006294 2.005667
v 0.474427 0.585387 3.034500
v 0.474427 1.006294 2.005667
v 0.787164 1.065712 2.029976
v 0.787165 0.644806 3.058809
v 0.474427 1.065712 2.029976
v 0.474427 0.644806 3.058809
v -0.787164 0.644806 3.058809
v -0.787164 1.065712 2.029977
v -0.474426 0.644806 3.058809
v -0.474426 1.065712 2.029977
v -0.787164 1.006294 2.005668
v -0.787164 0.585387 3.034501
v -0.474426 1.006294 2.005668
v -0.474426 0.585387 3.034501
v -0.086352 0.668125 3.123941
v -0.086352 0.730438 2.887261
v 0.088466 0.668125 3.123941
v 0.088466 0.730438 2.887261
v -0.086352 0.688642 2.876257
v -0.086352 0.626329 3.112937
v 0.088466 0.688642 2.876257
v 0.088466 0.626329 3.112937
v 0.743675 0.805309 2.590578
v 0.743675 0.825811 2.538529
v -0.742053 0.805309 2.590578
v -0.742053 0.825811 2.538529
v 0.743675 0.992203 2.604072
v 0.743675 0.971700 2.656121
v -0.742053 0.992203 2.604072
v -0.742053 0.971700 2.656121
v -0.871799 0.856310 2.537891
v -0.871800 1.063275 2.032001
v 0.863799 0.856310 2.537891
v 0.863799 1.063275 2.032001
v -0.871800 1.007823 2.009315
v -0.871799 0.800858 2.515205
v 0.863799 1.007823 2.009315
v 0.863799 0.800858 2.515205
v 0.835048 1.030906 2.678624
v 0.833218 1.032738 2.594763
v 0.948650 0.917197 2.673662
v 0.946820 0.919028 2.589801
v 0.719455 0.919082 2.594763
v 0.721284 0.917251 2.678624
v 0.833056 0.805373 2.589801
v 0.834886 0.803541 2.673662
v -0.731065 0.917251 2.678624
v -0.729235 0.919082 2.594763
v -0.844666 0.803541 2.673662
v -0.842837 0.805373 2.589801
v -0.842999 1.032738 2.594763
v -0.844829 1.030906 2.678624
v -0.956600 0.919028 2.589801
v -0.958430 0.917197 2.673662
v 0.893558 0.971899 2.775319
v 0.893558 0.976169 2.677528
v 0.893558 0.916019 2.772879
v 0.893558 0.920288 2.675088
v 0.767707 0.976169 2.677528
v 0.767707 0.971899 2.775319
v 0.767707 0.920288 2.675088
v 0.767707 0.916019 2.772879
v 0.940057 1.023540 2.714588
v 0.940057 1.030554 2.553931
v 0.940057 0.793032 2.704524
v 0.940057 0.800047 2.543867
v 0.730305 1.030554 2.553931
v 0.730305 1.023540 2.714588
v 0.730305 0.800047 2.543867
v 0.730305 0.793032 2.704524
v -0.735537 1.023540 2.714588
v -0.735537 1.030554 2.553931
v -0.735537 0.793032 2.704524
v -0.735537 0.800047 2.543867
v -0.945289 1.030554 2.553931
v -0.945289 1.023540 2.714588
v -0.945289 0.800047 2.543867
v -0.945289 0.793032 2.704524
v -0.608111 1.052328 2.011588
v -0.608111 1.091653 1.841250
v 0.615619 1.052328 2.011588
v 0.615619 1.091653 1.841250
v -0.608111 1.018401 1.824339
v -0.608111 0.979075 1.994676
v 0.615619 1.018401 1.824338
v 0.615619 0.979075 1.994676
v 0.980861 1.174513 1.896880
v 0.989381 1.174513 2.046908
v 0.943919 1.137512 1.898978
v 0.952439 1.137512 2.049006
v 1.026322 1.137512 2.044810
v 1.017803 1.137512 1.894782
v 0.989381 1.100510 2.046908
v 0.980861 1.100510 1.896880
v 0.953785 1.031128 1.802034
v 0.959792 1.167478 1.951763
v 0.955197 0.992425 1.837223
v 0.961204 1.128774 1.986952
v 1.012078 1.167478 1.949665
v 1.006071 1.031128 1.799937
v 1.013490 1.128774 1.984854
v 1.007483 0.992425 1.835125
v -1.017803 1.137512 1.894782
v -1.026322 1.137512 2.044811
v -0.980861 1.100510 1.896880
v -0.989380 1.100510 2.046908
v -0.989380 1.174513 2.046908
v -0.980861 1.174513 1.896880
v -0.952438 1.137512 2.049006
v -0.943919 1.137512 1.898978
v -1.006070 1.031128 1.799937
v -1.012078 1.167478 1.949666
v -1.007482 0.992425 1.835125
v -1.013489 1.128774 1.984854
v -0.959792 1.167478 1.951763
v -0.953785 1.031128 1.802035
v -0.961204 1.128774 1.986952
v -0.955196 0.992425 1.837223
v 0.835187 1.010983 2.685181
v 0.835034 1.011136 2.678192
v 0.929031 0.917049 2.681082
v 0.928879 0.917201 2.674093
v 0.741055 0.917246 2.678192
v 0.741208 0.917093 2.685181
v 0.834900 0.823312 2.674093
v 0.835053 0.823159 2.681082
v -0.750988 0.917093 2.685181
v -0.750836 0.917246 2.678193
v -0.844833 0.823159 2.681082
v -0.844681 0.823312 2.674093
v -0.844815 1.011136 2.678193
v -0.844967 1.010983 2.685181
v -0.938659 0.917201 2.674093
v -0.938812 0.917049 2.681082
vn -0.0000 0.3786 -0.9255
vn -0.0000 0.9255 0.3786
vn -0.0000 -0.3786 0.9255
vn -0.0000 -0.9255 -0.3786
vn -1.0000 -0.0000 -0.0000
vn 1.0000 -0.0000 -0.0000
vn -0.0000 0.2546 -0.9670
vn -0.0000 0.9670 0.2546
vn -0.0000 -0.2546 0.9670
vn -0.0000 -0.9670 -0.2546
vn -0.0000 0.3665 -0.9304
vn -0.0000 -0.9304 -0.3665
vn -0.0000 -0.3665 0.9304
vn -0.0000 0.9304 0.3665
vn -0.0000 0.2249 -0.9744
vn -0.0000 0.9744 0.2250
vn -0.0000 -0.2250 0.9744
vn -0.0000 -0.9744 -0.2250
vn 0.0567 -0.0000 0.9984
vn -0.7060 0.7071 0.0401
vn -0.0567 -0.0000 -0.9984
vn 0.7060 -0.7071 -0.0401
vn 0.7060 0.7071 -0.0401
vn -0.7060 -0.7071 0.0401
vn 0.0297 0.6730 0.7390
vn -0.9992 -0.0000 0.0401
vn -0.0296 -0.6730 -0.7390
vn 0.9992 -0.0000 -0.0401
vn -0.0270 0.7396 -0.6725
vn 0.0270 -0.7396 0.6725
vn -0.0567 -0.0000 0.9984
vn -0.7060 -0.7071 -0.0401
vn 0.0567 -0.0000 -0.9984
vn 0.7060 0.7071 0.0401
vn -0.7060 0.7071 -0.0401
vn 0.7060 -0.7071 0.0401
vn -0.0297 0.6730 0.7390
vn -0.9992 -0.0000 -0.0401
vn 0.0296 -0.6730 -0.7390
vn 0.9992 -0.0000 0.0401
vn 0.0270 0.7396 -0.6725
vn -0.0270 -0.7396 0.6725
vt 0.262695 0.697266
vt 0.478516 0.371094
vt 0.334961 0.376953
vt 0.494141 0.373047
vt 0.283203 0.697266
vt 0.334961 0.356445
vt 0.262695 0.680664
vt 0.478516 0.354492
vt 0.000000 0.375977
vt 0.494141 0.356445
vt 0.283203 0.680664
vt 0.000000 0.355469
vt 0.495117 0.373047
vt 0.284180 0.697266
vt 0.335938 0.356445
vt 0.477539 0.371094
vt 0.304688 0.697266
vt 0.335938 0.376953
vt 0.495117 0.356445
vt 0.284180 0.680664
vt 0.000977 0.355469
vt 0.477539 0.354492
vt 0.304688 0.680664
vt 0.000977 0.375977
vt 0.437500 0.860352
vt 0.254883 0.311523
vt 0.006836 0.375977
vt 0.688477 0.752930
vt 0.458008 0.860352
vt 0.006836 0.355469
vt 0.437500 0.854492
vt 0.254883 0.305664
vt 0.023438 0.375977
vt 0.688477 0.747070
vt 0.458008 0.854492
vt 0.023438 0.355469
vt 0.689453 0.752930
vt 0.437500 0.826172
vt 0.007812 0.355469
vt 0.253906 0.311523
vt 0.458008 0.826172
vt 0.007812 0.375977
vt 0.689453 0.747070
vt 0.437500 0.820312
vt 0.024414 0.355469
vt 0.253906 0.305664
vt 0.458008 0.820312
vt 0.024414 0.375977
vt 0.437500 0.917969
vt 0.074219 0.314453
vt 0.131836 0.376953
vt 0.441406 0.315430
vt 0.458008 0.917969
vt 0.131836 0.356445
vt 0.437500 0.912109
vt 0.074219 0.308594
vt 0.170898 0.376953
vt 0.441406 0.309570
vt 0.458008 0.912109
vt 0.170898 0.356445
vt 0.442383 0.315430
vt 0.437500 0.911133
vt 0.132812 0.356445
vt 0.073242 0.314453
vt 0.458008 0.911133
vt 0.132812 0.376953
vt 0.442383 0.309570
vt 0.437500 0.905273
vt 0.171875 0.356445
vt 0.073242 0.308594
vt 0.458008 0.905273
vt 0.171875 0.376953
vt 0.025391 0.358398
vt 0.506836 0.298828
vt 0.122070 0.307617
vt 0.493164 0.298828
vt 0.030273 0.358398
vt 0.122070 0.302734
vt 0.025391 0.355469
vt 0.506836 0.295898
vt 0.124023 0.307617
vt 0.493164 0.295898
vt 0.030273 0.355469
vt 0.124023 0.302734
vt 0.494141 0.298828
vt 0.031250 0.358398
vt 0.123047 0.302734
vt 0.505859 0.298828
vt 0.036133 0.358398
vt 0.123047 0.307617
vt 0.494141 0.295898
vt 0.031250 0.355469
vt 0.125000 0.302734
vt 0.505859 0.295898
vt 0.036133 0.355469
vt 0.125000 0.307617
vt 0.083984 0.793945
vt 0.148438 0.518555
vt 0.553711 0.298828
vt 0.141602 0.518555
vt 0.084961 0.793945
vt 0.553711 0.297852
vt 0.083984 0.766602
vt 0.148438 0.491211
vt 0.701172 0.444336
vt 0.141602 0.491211
vt 0.084961 0.766602
vt 0.701172 0.443359
vt 0.144531 0.518555
vt 0.526367 0.398438
vt 0.556641 0.297852
vt 0.145508 0.518555
vt 0.527344 0.398438
vt 0.556641 0.298828
vt 0.144531 0.491211
vt 0.526367 0.371094
vt 0.704102 0.443359
vt 0.145508 0.491211
vt 0.527344 0.371094
vt 0.704102 0.444336
vt 0.251953 0.693359
vt 0.361328 0.403320
vt 0.482422 0.340820
vt 0.437500 0.404297
vt 0.261719 0.693359
vt 0.482422 0.331055
vt 0.251953 0.661133
vt 0.361328 0.371094
vt 0.123047 0.339844
vt 0.437500 0.372070
vt 0.261719 0.661133
vt 0.123047 0.330078
vt 0.438477 0.404297
vt 0.012695 0.690430
vt 0.483398 0.331055
vt 0.360352 0.403320
vt 0.022461 0.690430
vt 0.483398 0.340820
vt 0.438477 0.372070
vt 0.012695 0.658203
vt 0.124023 0.330078
vt 0.360352 0.371094
vt 0.022461 0.658203
vt 0.124023 0.339844
vt 0.472656 0.493164
vt 0.585938 0.380859
vt 0.437500 0.298828
vt 0.464844 0.380859
vt 0.475586 0.493164
vt 0.437500 0.295898
vt 0.472656 0.470703
vt 0.585938 0.358398
vt 0.482422 0.298828
vt 0.464844 0.358398
vt 0.475586 0.470703
vt 0.482422 0.295898
vt 0.465820 0.380859
vt 0.382812 0.491211
vt 0.438477 0.295898
vt 0.584961 0.380859
vt 0.385742 0.491211
vt 0.438477 0.298828
vt 0.465820 0.358398
vt 0.382812 0.468750
vt 0.483398 0.295898
vt 0.584961 0.358398
vt 0.385742 0.468750
vt 0.483398 0.298828
vt 0.159180 0.364258
vt 0.116211 0.331055
vt 0.419922 0.346680
vt 0.109375 0.331055
vt 0.161133 0.364258
vt 0.419922 0.344727
vt 0.159180 0.361328
vt 0.116211 0.328125
vt 0.203125 0.345703
vt 0.109375 0.328125
vt 0.161133 0.361328
vt 0.203125 0.343750
vt 0.112305 0.331055
vt 0.553711 0.364258
vt 0.422852 0.344727
vt 0.113281 0.331055
vt 0.555664 0.364258
vt 0.422852 0.346680
vt 0.112305 0.328125
vt 0.553711 0.361328
vt 0.206055 0.343750
vt 0.113281 0.328125
vt 0.555664 0.361328
vt 0.206055 0.345703
vt 0.159180 0.364258
vt 0.116211 0.331055
vt 0.419922 0.346680
vt 0.109375 0.331055
vt 0.161133 0.364258
vt 0.419922 0.344727
vt 0.159180 0.361328
vt 0.116211 0.328125
vt 0.203125 0.345703
vt 0.109375 0.328125
vt 0.161133 0.361328
vt 0.203125 0.343750
vt 0.112305 0.331055
vt 0.553711 0.364258
vt 0.422852 0.344727
vt 0.113281 0.331055
vt 0.555664 0.364258
vt 0.422852 0.346680
vt 0.112305 0.328125
vt 0.553711 0.361328
vt 0.206055 0.343750
vt 0.113281 0.328125
vt 0.555664 0.361328
vt 0.206055 0.345703
vt 0.699219 0.609375
vt 0.711914 0.859375
vt 0.373047 0.300781
vt 0.710938 0.861328
vt 0.703125 0.609375
vt 0.373047 0.296875
vt 0.699219 0.608398
vt 0.711914 0.858398
vt 0.699219 0.605469
vt 0.710938 0.860352
vt 0.703125 0.608398
vt 0.699219 0.601562
vt 0.711914 0.861328
vt 0.699219 0.607422
vt 0.374023 0.296875
vt 0.710938 0.859375
vt 0.703125 0.607422
vt 0.374023 0.300781
vt 0.711914 0.860352
vt 0.699219 0.606445
vt 0.700195 0.601562
vt 0.710938 0.858398
vt 0.703125 0.606445
vt 0.700195 0.605469
vt 0.699219 0.609375
vt 0.711914 0.859375
vt 0.373047 0.300781
vt 0.710938 0.861328
vt 0.703125 0.609375
vt 0.373047 0.296875
vt 0.699219 0.608398
vt 0.711914 0.858398
vt 0.699219 0.605469
vt 0.710938 0.860352
vt 0.703125 0.608398
vt 0.699219 0.601562
vt 0.711914 0.861328
vt 0.699219 0.607422
vt 0.374023 0.296875
vt 0.710938 0.859375
vt 0.703125 0.607422
vt 0.374023 0.300781
vt 0.711914 0.860352
vt 0.699219 0.606445
vt 0.700195 0.601562
vt 0.710938 0.858398
vt 0.703125 0.606445
vt 0.700195 0.605469
s 0
usemtl m_8a7aecf9-bc7d-1c53-4ad7-3ee173c6c92f
f 604/1810/135 607/1819/135 605/1813/135 602/1804/135
f 603/1807/136 604/1811/136 602/1805/136 601/1801/136
f 608/1822/137 603/1808/137 601/1802/137 606/1816/137
f 607/1820/138 608/1823/138 606/1817/138 605/1814/138
f 606/1818/139 601/1803/139 602/1806/139 605/1815/139
f 607/1821/140 604/1812/140 603/1809/140 608/1824/140
f 612/1834/135 615/1843/135 613/1837/135 610/1828/135
f 611/1831/138 612/1835/138 610/1829/138 609/1825/138
f 616/1846/137 611/1832/137 609/1826/137 614/1840/137
f 615/1844/136 616/1847/136 614/1841/136 613/1838/136
f 614/1842/140 609/1827/140 610/1830/140 613/1839/140
f 615/1845/139 612/1836/139 611/1833/139 616/1848/139
f 620/1858/135 623/1867/135 621/1861/135 618/1852/135
f 619/1855/136 620/1859/136 618/1853/136 617/1849/136
f 624/1870/137 619/1856/137 617/1850/137 622/1864/137
f 623/1868/138 624/1871/138 622/1865/138 621/1862/138
f 622/1866/139 617/1851/139 618/1854/139 621/1863/139
f 623/1869/140 620/1860/140 619/1857/140 624/1872/140
f 628/1882/141 631/1891/141 629/1885/141 626/1876/141
f 627/1879/142 628/1883/142 626/1877/142 625/1873/142
f 632/1894/143 627/1880/143 625/1874/143 630/1888/143
f 631/1892/144 632/1895/144 630/1889/144 629/1886/144
f 630/1890/139 625/1875/139 626/1878/139 629/1887/139
f 631/1893/140 628/1884/140 627/1881/140 632/1896/140
f 636/1906/145 639/1915/145 637/1909/145 634/1900/145
f 635/1903/146 636/1907/146 634/1901/146 633/1897/146
f 640/1918/147 635/1904/147 633/1898/147 638/1912/147
f 639/1916/148 640/1919/148 638/1913/148 637/1910/148
f 638/1914/140 633/1899/140 634/1902/140 637/1911/140
f 639/1917/139 636/1908/139 635/1905/139 640/1920/139
f 644/1930/135 647/1939/135 645/1933/135 642/1924/135
f 643/1927/136 644/1931/136 642/1925/136 641/1921/136
f 648/1942/137 643/1928/137 641/1922/137 646/1936/137
f 647/1940/138 648/1943/138 646/1937/138 645/1934/138
f 646/1938/139 641/1923/139 642/1926/139 645/1935/139
f 647/1941/140 644/1932/140 643/1929/140 648/1944/140
f 692/1954/149 695/1963/149 693/1957/149 690/1948/149
f 691/1951/150 692/1955/150 690/1949/150 689/1945/150
f 696/1966/151 691/1952/151 689/1946/151 694/1960/151
f 695/1964/152 696/1967/152 694/1961/152 693/1958/152
f 694/1962/139 689/1947/139 690/1950/139 693/1959/139
f 695/1965/140 692/1956/140 691/1953/140 696/1968/140
f 700/1978/153 703/1987/153 701/1981/153 698/1972/153
f 699/1975/154 700/1979/154 698/1973/154 697/1969/154
f 704/1990/155 699/1976/155 697/1970/155 702/1984/155
f 703/1988/156 704/1991/156 702/1985/156 701/1982/156
f 702/1986/157 697/1971/157 698/1974/157 701/1983/157
f 703/1989/158 700/1980/158 699/1977/158 704/1992/158
f 708/2002/159 711/2011/159 709/2005/159 706/1996/159
f 707/1999/160 708/2003/160 706/1997/160 705/1993/160
f 712/2014/161 707/2000/161 705/1994/161 710/2008/161
f 711/2012/162 712/2015/162 710/2009/162 709/2006/162
f 710/2010/163 705/1995/163 706/1998/163 709/2007/163
f 711/2013/164 708/2004/164 707/2001/164 712/2016/164
f 716/2026/165 719/2035/165 717/2029/165 714/2020/165
f 715/2023/166 716/2027/166 714/2021/166 713/2017/166
f 720/2038/167 715/2024/167 713/2018/167 718/2032/167
f 719/2036/168 720/2039/168 718/2033/168 717/2030/168
f 718/2034/169 713/2019/169 714/2022/169 717/2031/169
f 719/2037/170 716/2028/170 715/2025/170 720/2040/170
f 724/2050/171 727/2059/171 725/2053/171 722/2044/171
f 723/2047/172 724/2051/172 722/2045/172 721/2041/172
f 728/2062/173 723/2048/173 721/2042/173 726/2056/173
f 727/2060/174 728/2063/174 726/2057/174 725/2054/174
f 726/2058/175 721/2043/175 722/2046/175 725/2055/175
f 727/2061/176 724/2052/176 723/2049/176 728/2064/176
