# Blender 3.3.21
# www.blender.org
mtllib btr4e_turret.mtl
o turret
v -1.452292 1.280820 -1.162715
v -1.452292 0.343320 -1.162715
v -1.452292 1.280820 0.899777
v -1.452292 0.343320 0.899777
v 1.246448 1.280820 -1.223965
v 1.246448 0.344570 -1.223965
v -1.275532 1.280820 -1.223966
v -1.275532 0.344570 -1.223966
v 1.246449 1.280820 0.026030
v 1.246449 0.343320 0.026030
v 1.246448 1.280820 -1.161466
v 1.246448 0.343320 -1.161466
v 1.026922 1.280820 0.403475
v 1.026922 0.343320 0.403475
v 1.245671 1.280820 0.024591
v 1.245671 0.343320 0.024591
v 1.246448 1.280820 -1.162715
v 1.246448 1.280820 -1.223965
v 1.246448 0.344570 -1.162715
v 1.246448 0.344570 -1.223965
v -1.274859 1.280820 -1.223966
v -1.274858 1.280820 -1.162715
v -1.274859 0.344570 -1.223966
v -1.274858 0.344570 -1.162715
v 1.183949 1.280820 0.026031
v 1.246449 1.280820 0.026030
v 1.183949 0.343320 0.026031
v 1.246449 0.343320 0.026030
v 1.246448 1.280820 -1.161466
v 1.183949 1.280820 -1.161466
v 1.246448 0.343320 -1.161466
v 1.183949 0.343320 -1.161466
v 0.972796 1.280820 0.372226
v 1.026922 1.280820 0.403475
v 0.972796 0.343320 0.372226
v 1.026922 0.343320 0.403475
v 1.245671 1.280820 0.024591
v 1.191545 1.280820 -0.006659
v 1.245671 0.343320 0.024591
v 1.191545 0.343320 -0.006659
v 0.808577 1.254820 -0.537634
v 1.164827 1.254820 -0.537634
v 0.808577 1.004820 -0.537634
v 1.164827 1.004820 -0.537634
v 1.164827 1.254820 -0.600135
v 0.808578 1.254820 -0.600134
v 1.164827 1.004820 -0.600135
v 0.808578 1.004820 -0.600134
v -1.217082 1.280820 -1.162715
v -1.279582 1.280820 -1.162715
v -1.217082 0.343320 -1.162715
v -1.279582 0.343320 -1.162715
v -1.279583 1.280820 0.899777
v -1.217083 1.280820 0.899777
v -1.279583 0.343320 0.899777
v -1.217083 0.343320 0.899777
v -0.837443 1.254820 -0.725134
v -1.268298 1.254820 -0.725134
v -0.837443 1.004820 -0.725134
v -1.268298 1.004820 -0.725134
v -1.268298 1.254820 -0.662634
v -0.837443 1.254820 -0.662634
v -1.268298 1.004820 -0.662634
v -0.837443 1.004820 -0.662634
v -0.881697 1.190847 -1.013654
v -0.881697 1.200037 0.039428
v -0.881697 0.325255 -1.006098
v -0.881697 0.334445 0.046982
v 0.690172 1.200037 0.039428
v 0.690172 1.190847 -1.013653
v 0.690172 0.334445 0.046982
v 0.690172 0.325255 -1.006100
v -0.881072 0.483403 -0.906541
v -0.881072 0.323433 -0.650538
v -0.881072 0.325454 -1.005238
v -0.881072 0.165484 -0.749234
v 0.689548 0.323433 -0.650537
v 0.689548 0.483403 -0.906541
v 0.689548 0.165484 -0.749235
v 0.689547 0.325454 -1.005238
v -0.881697 1.200037 0.039428
v -0.881697 1.205600 0.676902
v -0.881697 0.334445 0.046982
v -0.881697 0.340008 0.684455
v -0.353574 1.205600 0.676902
v -0.353574 1.200037 0.039429
v -0.353574 0.340008 0.684455
v -0.353574 0.334445 0.046982
v -0.881697 0.327117 -0.750453
v -0.881697 0.334125 0.052638
v -0.881697 0.164623 -0.749036
v -0.881697 0.171631 0.054056
v 0.690172 0.334125 0.052638
v 0.690173 0.327117 -0.750454
v 0.690173 0.171631 0.054056
v 0.690173 0.164623 -0.749036
v -0.882322 1.068514 0.327185
v -0.882322 1.206410 0.677254
v -0.882322 0.174732 0.679255
v -0.882322 0.312628 1.029323
v -0.352949 1.206410 0.677254
v -0.352949 1.068514 0.327186
v -0.352949 0.312628 1.029323
v -0.352949 0.174732 0.679255
v -0.354199 0.574990 0.588187
v -0.354199 0.669617 0.689661
v -0.354199 0.219827 0.919380
v -0.354199 0.314453 1.020855
v 0.690797 0.669617 0.689661
v 0.690797 0.574990 0.588187
v 0.690798 0.314453 1.020855
v 0.690797 0.219827 0.919380
v -0.634823 0.215964 0.876424
v -0.634823 0.349884 0.968464
v -0.634823 0.180564 0.927931
v -0.634823 0.314484 1.019972
v 0.683923 0.349884 0.968464
v 0.683923 0.215964 0.876424
v 0.683922 0.314484 1.019972
v 0.683922 0.180564 0.927931
v 0.417673 1.366351 -1.028310
v 0.417674 1.368571 -0.773946
v 0.417673 1.190108 -1.026772
v 0.417674 1.192327 -0.772408
v 0.678298 1.368571 -0.773946
v 0.678298 1.366351 -1.028309
v 0.678298 1.192327 -0.772407
v 0.678297 1.190108 -1.026771
v 0.418299 1.329796 -0.846304
v 0.418299 1.367940 -0.774565
v 0.418299 1.120095 -0.734805
v 0.418299 1.158240 -0.663066
v 0.677673 1.367940 -0.774565
v 0.677673 1.329796 -0.846304
v 0.677673 1.158240 -0.663066
v 0.677672 1.120095 -0.734805
v 0.418298 1.290843 -1.142996
v 0.418299 1.365731 -1.027680
v 0.418299 1.165043 -1.061301
v 0.418299 1.239931 -0.945984
v 0.677672 1.365731 -1.027680
v 0.677673 1.290843 -1.142996
v 0.677673 1.239931 -0.945984
v 0.677673 1.165043 -1.061300
v -0.353574 0.543734 0.189632
v -0.353574 0.668734 0.189632
v -0.353574 0.543734 0.689631
v -0.353574 0.668734 0.689631
v 0.683923 0.668734 0.189632
v 0.683923 0.543734 0.189632
v 0.683922 0.668734 0.689631
v 0.683922 0.543734 0.689631
v 0.777672 1.213035 -0.082565
v 0.777673 1.217112 0.384604
v 0.777672 0.708367 -0.078161
v 0.777672 0.712444 0.389007
v 1.037046 1.217112 0.384603
v 1.037046 1.213035 -0.082565
v 1.037047 0.712444 0.389007
v 1.037046 0.708367 -0.078160
v 0.778297 1.015628 -0.326261
v 0.778297 1.210521 -0.085590
v 0.778297 0.709384 -0.078271
v 0.778297 0.904277 0.162401
v 1.036422 1.210521 -0.085590
v 1.036421 1.015628 -0.326261
v 1.036421 0.904277 0.162401
v 1.036421 0.709384 -0.078270
v -1.100446 1.131890 0.108776
v -1.100446 1.136034 0.583755
v -1.100446 0.566286 0.113711
v -1.100446 0.570431 0.588691
v -0.894197 1.136034 0.583755
v -0.894197 1.131890 0.108775
v -0.894197 0.570431 0.588691
v -0.894197 0.566286 0.113711
v -0.981697 0.915889 -0.301930
v -0.981697 1.227936 0.004717
v -0.981697 0.609241 0.010116
v -0.981697 0.921288 0.316762
v -0.881697 1.227936 0.004717
v -0.881697 0.915889 -0.301930
v -0.881697 0.921288 0.316762
v -0.881697 0.609241 0.010115
v 0.652673 0.343446 -0.174979
v 0.652673 0.347305 0.267190
v 0.652673 0.145015 -0.173247
v 0.652673 0.148874 0.268922
v 0.862047 0.347305 0.267190
v 0.862047 0.343446 -0.174979
v 0.862047 0.148874 0.268921
v 0.862047 0.145015 -0.173247
v 0.657636 0.346909 0.221874
v 0.515598 0.352500 0.862542
v 0.657636 0.148479 0.223605
v 0.515598 0.154070 0.864274
v 0.720009 0.352895 0.907857
v 0.862047 0.347305 0.267190
v 0.720009 0.154465 0.909589
v 0.862047 0.148874 0.268921
v -0.353574 1.107162 0.083331
v -0.353574 1.201811 0.183069
v -0.353574 0.569932 0.593142
v -0.353574 0.664581 0.692880
v -0.266074 1.201811 0.183070
v -0.266074 1.107162 0.083331
v -0.266074 0.664581 0.692881
v -0.266074 0.569932 0.593142
v -0.353574 1.064311 0.039320
v -0.353574 1.201811 0.039320
v -0.353574 1.064311 0.183069
v -0.353574 1.201811 0.183069
v -0.266074 1.201811 0.039320
v -0.266074 1.064311 0.039320
v -0.266074 1.201811 0.183070
v -0.266074 1.064311 0.183070
v 0.683923 1.191886 -0.357389
v 0.683923 1.196617 0.184775
v 0.683923 0.468477 -0.351076
v 0.683922 0.473208 0.191089
v 0.777673 1.196617 0.184775
v 0.777673 1.191886 -0.357389
v 0.777672 0.473208 0.191088
v 0.777672 0.468477 -0.351076
v 0.683923 1.172197 0.127244
v 0.683923 1.196617 0.184775
v 0.683923 0.667358 0.341535
v 0.683923 0.691779 0.399066
v 0.777673 1.196617 0.184775
v 0.777672 1.172197 0.127245
v 0.777672 0.691779 0.399066
v 0.777672 0.667358 0.341535
v 0.684547 0.576024 0.061463
v 0.684548 0.811128 0.255267
v 0.684548 0.456758 0.206142
v 0.684548 0.691863 0.399946
v 0.778298 0.811128 0.255267
v 0.778297 0.576024 0.061463
v 0.778297 0.691863 0.399946
v 0.778297 0.456758 0.206141
v 0.483923 0.719963 -0.324690
v 0.483923 1.201811 0.183069
v 0.483923 -0.085884 0.440026
v 0.483923 0.395965 0.947786
v 0.690173 1.201811 0.183069
v 0.690173 0.719963 -0.324691
v 0.690172 0.395965 0.947785
v 0.690173 -0.085884 0.440025
v 0.483923 1.064311 0.039321
v 0.483923 1.201811 0.039321
v 0.483923 1.064311 0.183069
v 0.483923 1.201811 0.183069
v 0.690172 1.201811 0.039320
v 0.690172 1.064311 0.039320
v 0.690173 1.201811 0.183069
v 0.690173 1.064311 0.183069
v -0.278574 1.023411 -0.019956
v -0.278574 1.153332 0.033859
v -0.278574 0.933720 0.196577
v -0.278574 1.063641 0.250392
v 0.483923 1.153332 0.033859
v 0.483923 1.023411 -0.019956
v 0.483923 1.063641 0.250392
v 0.483923 0.933720 0.196577
v -0.278574 1.015544 0.118248
v -0.278574 1.063641 0.250392
v -0.278574 0.780621 0.203753
v -0.278574 0.828718 0.335896
v 0.483923 1.063641 0.250392
v 0.483923 1.015544 0.118249
v 0.483923 0.828718 0.335896
v 0.483923 0.780621 0.203752
v -0.482007 1.026086 0.711706
v -0.482007 1.271313 0.970120
v -0.558102 0.954152 0.779969
v -0.558102 1.199378 1.038383
v -0.382839 1.216115 1.022500
v -0.382839 0.970889 0.764086
v -0.458934 1.144181 1.090763
v -0.458933 0.898954 0.832350
v -0.477613 0.036955 1.002123
v 0.388674 0.036955 0.994563
v -0.495861 0.036955 -1.088928
v 0.370426 0.036955 -1.096488
v 0.388674 0.163206 0.994563
v -0.477613 0.163206 1.002123
v 0.370426 0.163206 -1.096488
v -0.495861 0.163206 -1.088928
v 0.389305 0.036330 0.995182
v 0.997393 0.036330 0.376388
v -1.107545 0.036330 -0.475767
v -0.499457 0.036330 -1.094561
v 0.997393 0.163831 0.376388
v 0.389305 0.163831 0.995182
v -0.499457 0.163831 -1.094561
v -1.107545 0.163831 -0.475767
v 0.996132 0.037580 0.375149
v 0.988583 0.037580 -0.489888
v -1.096795 0.037580 0.393414
v -1.104344 0.037580 -0.471624
v 0.988583 0.162581 -0.489888
v 0.996132 0.162581 0.375149
v -1.104344 0.162581 -0.471624
v -1.096795 0.162581 0.393414
v 0.987170 0.038205 -0.491125
v 0.371050 0.038205 -1.096585
v -0.478961 0.038205 1.000820
v -1.095081 0.038205 0.395361
v 0.371050 0.161956 -1.096585
v 0.987170 0.161956 -0.491125
v -1.095081 0.161956 0.395361
v -0.478961 0.161956 1.000820
v -1.000841 0.488262 -0.314448
v -1.000841 0.488262 0.198049
v -1.116272 0.171116 -0.314449
v -1.116272 0.171116 0.198049
v -0.789411 0.411308 0.198049
v -0.789411 0.411308 -0.314448
v -0.904842 0.094161 0.198049
v -0.904842 0.094161 -0.314448
v -1.108113 0.200278 0.179314
v -0.846285 0.313511 1.006504
v -1.105988 0.107329 0.191365
v -0.844160 0.220563 1.018555
v -0.631656 0.309678 0.939093
v -0.893484 0.196445 0.111904
v -0.629531 0.216729 0.951144
v -0.891359 0.103496 0.123955
v -1.043593 0.370801 0.135550
v -0.781765 0.484034 0.962740
v -1.108113 0.200278 0.179314
v -0.846285 0.313511 1.006504
v -0.692769 0.444519 0.939979
v -0.954596 0.331286 0.112789
v -0.757288 0.273996 0.983744
v -1.019116 0.160763 0.156554
v -0.475650 0.808026 0.798010
v -0.475650 1.053252 1.056423
v -0.551745 0.736091 0.866273
v -0.551745 0.981318 1.124686
v -0.376481 0.998055 1.108803
v -0.376481 0.752829 0.850390
v -0.452576 0.926120 1.177066
v -0.452576 0.680894 0.918653
v -0.490623 0.588998 0.893849
v -0.490623 0.834224 1.152262
v -0.566718 0.517063 0.962111
v -0.566718 0.762289 1.220525
v -0.391455 0.779026 1.204642
v -0.391455 0.533801 0.946228
v -0.467550 0.707092 1.272905
v -0.467549 0.461866 1.014492
v 0.520396 0.835990 0.487139
v 0.520396 1.081216 0.745552
v 0.596491 0.764055 0.555402
v 0.596491 1.009282 0.813815
v 0.619564 1.136414 0.693172
v 0.619564 0.891188 0.434758
v 0.695660 1.064479 0.761435
v 0.695660 0.819253 0.503021
v 0.557314 0.632579 0.680169
v 0.557314 0.877804 0.938582
v 0.633409 0.560644 0.748432
v 0.633409 0.805870 1.006845
v 0.656483 0.933002 0.886202
v 0.656483 0.687776 0.627788
v 0.732578 0.861067 0.954465
v 0.732578 0.615841 0.696051
v 0.553067 0.430633 0.863190
v 0.553067 0.675860 1.121603
v 0.629162 0.358698 0.931453
v 0.629162 0.603925 1.189866
v 0.652236 0.731058 1.069223
v 0.652236 0.485831 0.810809
v 0.728331 0.659123 1.137486
v 0.728331 0.413896 0.879073
vn -0.0000 -0.0000 1.0000
vn -1.0000 -0.0000 -0.0000
vn -0.8660 -0.0000 -0.5000
vn -0.0000 -0.0000 -1.0000
vn 1.0000 -0.0000 -0.0000
vn -0.0000 1.0000 -0.0000
vn -0.0000 -1.0000 -0.0000
vn 0.8660 -0.0000 0.5000
vn -0.5000 -0.0000 0.8660
vn 0.5000 -0.0000 -0.8660
vn -0.0000 0.0087 1.0000
vn -0.0000 -0.0087 -1.0000
vn -0.0000 1.0000 -0.0087
vn -0.0000 -1.0000 0.0087
vn -0.0000 -0.5299 0.8481
vn -0.0000 0.5299 -0.8480
vn -0.0000 0.8480 0.5299
vn -0.0000 -0.8480 -0.5299
vn -0.0000 0.3665 0.9304
vn -0.0000 -0.3665 -0.9304
vn -0.0000 0.9304 -0.3665
vn -0.0000 -0.9304 0.3665
vn -0.0000 0.6820 0.7314
vn -0.0000 -0.6820 -0.7314
vn -0.0000 0.7314 -0.6820
vn -0.0000 -0.7314 0.6820
vn -0.0000 0.8241 0.5664
vn -0.0000 -0.8241 -0.5664
vn -0.0000 0.5664 -0.8241
vn -0.0000 -0.5664 0.8241
vn -0.0000 0.4695 0.8829
vn -0.0000 -0.4695 -0.8829
vn -0.0000 0.8829 -0.4695
vn -0.0000 -0.8829 0.4695
vn -0.0000 0.5446 0.8387
vn -0.0000 -0.5446 -0.8387
vn -0.0000 0.8387 -0.5446
vn -0.0000 -0.8387 0.5446
vn -0.0000 0.6293 0.7771
vn -0.0000 -0.6293 -0.7771
vn -0.0000 0.7771 -0.6293
vn -0.0000 -0.7771 0.6293
vn -0.0000 0.7132 0.7009
vn -0.0000 -0.7132 -0.7009
vn -0.0000 0.7009 -0.7133
vn -0.0000 -0.7009 0.7133
vn -0.2164 0.0085 0.9763
vn -0.9763 -0.0019 -0.2164
vn 0.2164 -0.0085 -0.9763
vn 0.9763 0.0019 0.2164
vn -0.0000 0.6884 0.7254
vn -0.0000 -0.6884 -0.7254
vn -0.0000 0.7254 -0.6884
vn -0.0000 -0.7254 0.6884
vn -0.0000 0.3907 0.9205
vn -0.0000 -0.3907 -0.9205
vn -0.0000 0.9205 -0.3907
vn -0.0000 -0.9205 0.3907
vn -0.0000 0.7716 0.6361
vn -0.0000 -0.7716 -0.6361
vn -0.0000 0.6361 -0.7716
vn -0.0000 -0.6361 0.7716
vn -0.0000 0.9239 0.3827
vn -0.0000 -0.9239 -0.3827
vn -0.0000 0.3827 -0.9239
vn -0.0000 -0.3827 0.9239
vn -0.0000 0.3420 0.9397
vn -0.0000 -0.3420 -0.9397
vn -0.0000 0.9397 -0.3420
vn -0.0000 -0.9397 0.3420
vn -0.7934 0.4416 -0.4190
vn 0.7934 -0.4416 0.4190
vn 0.6088 0.5755 -0.5461
vn -0.6088 -0.5755 0.5461
vn 1.0000 -0.0000 -0.0087
vn -1.0000 -0.0000 0.0087
vn 0.0087 -0.0000 1.0000
vn -0.0087 -0.0000 -1.0000
vn 0.7009 -0.0000 -0.7133
vn -0.7009 -0.0000 0.7133
vn 0.7132 -0.0000 0.7009
vn -0.7132 -0.0000 -0.7009
vn -0.7133 -0.0000 -0.7009
vn 0.7133 -0.0000 0.7009
vn 0.7009 -0.0000 -0.7132
vn -0.9397 0.3420 -0.0000
vn 0.9397 -0.3420 -0.0000
vn 0.3420 0.9397 -0.0000
vn -0.3420 -0.9397 -0.0000
vn 0.2992 0.1294 0.9454
vn -0.9539 0.0170 0.2996
vn -0.2992 -0.1294 -0.9454
vn 0.9539 -0.0170 -0.2996
vn -0.0227 0.9914 -0.1285
vn 0.0227 -0.9914 0.1285
vn -0.8900 0.3951 0.2276
vn 0.8900 -0.3951 -0.2276
vn 0.3441 0.9095 -0.2334
vn -0.3441 -0.9095 0.2334
vn -0.7934 -0.4416 0.4190
vn 0.7934 0.4416 -0.4190
vn -0.6088 0.5755 -0.5461
vn 0.6088 -0.5755 0.5461
vt 0.396484 0.960938
vt 0.396484 0.931641
vt 0.480469 0.960938
vt 0.480469 0.931641
vt 0.000000 0.472656
vt 0.000000 0.443359
vt 0.037109 0.472656
vt 0.037109 0.443359
vt 0.423828 0.384766
vt 0.423828 0.355469
vt 0.437500 0.384766
vt 0.437500 0.355469
vt 0.478516 0.259766
vt 0.480469 0.931641
vt 0.695312 0.925781
vt 0.396484 0.960938
vt 0.480469 0.259766
vt 0.695312 0.923828
vt 0.478516 0.230469
vt 0.480469 0.902344
vt 0.695312 0.724609
vt 0.396484 0.931641
vt 0.480469 0.230469
vt 0.695312 0.722656
vt 0.480469 0.960938
vt 0.480469 0.259766
vt 0.779297 0.923828
vt 0.396484 0.931641
vt 0.482422 0.259766
vt 0.779297 0.925781
vt 0.480469 0.931641
vt 0.480469 0.230469
vt 0.779297 0.722656
vt 0.396484 0.902344
vt 0.482422 0.230469
vt 0.779297 0.724609
vt 0.455078 0.259766
vt 0.074219 0.472656
vt 0.738281 0.568359
vt 0.000000 0.472656
vt 0.457031 0.259766
vt 0.738281 0.566406
vt 0.455078 0.230469
vt 0.074219 0.443359
vt 0.738281 0.566406
vt 0.000000 0.443359
vt 0.457031 0.230469
vt 0.738281 0.564453
vt 0.037109 0.472656
vt 0.476562 0.259766
vt 0.775391 0.566406
vt 0.037109 0.472656
vt 0.478516 0.259766
vt 0.775391 0.568359
vt 0.037109 0.443359
vt 0.476562 0.230469
vt 0.775391 0.564453
vt 0.037109 0.443359
vt 0.478516 0.230469
vt 0.775391 0.566406
vt 0.451172 0.259766
vt 0.093750 0.382812
vt 0.308594 0.353516
vt 0.423828 0.384766
vt 0.453125 0.259766
vt 0.308594 0.351562
vt 0.451172 0.230469
vt 0.093750 0.353516
vt 0.750000 0.472656
vt 0.423828 0.355469
vt 0.453125 0.230469
vt 0.750000 0.470703
vt 0.437500 0.384766
vt 0.453125 0.259766
vt 0.322266 0.351562
vt 0.080078 0.382812
vt 0.455078 0.259766
vt 0.322266 0.353516
vt 0.437500 0.355469
vt 0.453125 0.230469
vt 0.763672 0.470703
vt 0.080078 0.353516
vt 0.455078 0.230469
vt 0.763672 0.472656
vt 0.099609 0.275391
vt 0.287109 0.285156
vt 0.054688 0.337891
vt 0.080078 0.291016
vt 0.111328 0.275391
vt 0.054688 0.326172
vt 0.099609 0.267578
vt 0.287109 0.277344
vt 0.343750 0.281250
vt 0.080078 0.283203
vt 0.111328 0.267578
vt 0.343750 0.269531
vt 0.082031 0.291016
vt 0.126953 0.275391
vt 0.056641 0.326172
vt 0.285156 0.285156
vt 0.138672 0.275391
vt 0.056641 0.337891
vt 0.082031 0.283203
vt 0.126953 0.267578
vt 0.345703 0.269531
vt 0.285156 0.277344
vt 0.138672 0.267578
vt 0.345703 0.281250
vt 0.482422 0.259766
vt 0.503906 0.750000
vt 0.699219 0.750000
vt 0.439453 0.779297
vt 0.484375 0.259766
vt 0.699219 0.748047
vt 0.482422 0.230469
vt 0.503906 0.720703
vt 0.703125 0.816406
vt 0.439453 0.750000
vt 0.484375 0.230469
vt 0.703125 0.814453
vt 0.503906 0.779297
vt 0.484375 0.259766
vt 0.763672 0.748047
vt 0.439453 0.750000
vt 0.486328 0.259766
vt 0.763672 0.750000
vt 0.503906 0.750000
vt 0.484375 0.230469
vt 0.767578 0.814453
vt 0.439453 0.720703
vt 0.486328 0.230469
vt 0.767578 0.816406
vt 0.408203 0.410156
vt 0.212891 0.292969
vt 0.710938 0.253906
vt 0.175781 0.298828
vt 0.427734 0.410156
vt 0.710938 0.234375
vt 0.408203 0.402344
vt 0.212891 0.285156
vt 0.712891 0.253906
vt 0.175781 0.291016
vt 0.427734 0.402344
vt 0.712891 0.234375
vt 0.177734 0.298828
vt 0.501953 0.302734
vt 0.712891 0.234375
vt 0.210938 0.292969
vt 0.521484 0.302734
vt 0.712891 0.253906
vt 0.177734 0.291016
vt 0.501953 0.294922
vt 0.714844 0.234375
vt 0.210938 0.285156
vt 0.521484 0.294922
vt 0.714844 0.253906
vt 0.074219 0.472656
vt 0.529297 0.500000
vt 0.242188 0.835938
vt 0.480469 0.943359
vt 0.107422 0.472656
vt 0.242188 0.802734
vt 0.074219 0.445312
vt 0.529297 0.472656
vt 0.281250 0.527344
vt 0.480469 0.916016
vt 0.107422 0.445312
vt 0.281250 0.494141
vt 0.529297 0.943359
vt 0.281250 0.470703
vt 0.291016 0.802734
vt 0.480469 0.500000
vt 0.314453 0.470703
vt 0.291016 0.835938
vt 0.529297 0.916016
vt 0.281250 0.443359
vt 0.330078 0.494141
vt 0.480469 0.472656
vt 0.314453 0.443359
vt 0.330078 0.527344
vt 0.740234 0.562500
vt 0.673828 0.402344
vt 0.552734 0.744141
vt 0.423828 0.480469
vt 0.750000 0.562500
vt 0.552734 0.734375
vt 0.740234 0.556641
vt 0.673828 0.396484
vt 0.580078 0.771484
vt 0.423828 0.474609
vt 0.750000 0.556641
vt 0.580078 0.761719
vt 0.472656 0.480469
vt 0.740234 0.531250
vt 0.601562 0.734375
vt 0.625000 0.402344
vt 0.750000 0.531250
vt 0.601562 0.744141
vt 0.472656 0.474609
vt 0.740234 0.525391
vt 0.628906 0.761719
vt 0.625000 0.396484
vt 0.750000 0.525391
vt 0.628906 0.771484
vt 0.099609 0.410156
vt 0.541016 0.392578
vt 0.421875 0.355469
vt 0.509766 0.392578
vt 0.119141 0.410156
vt 0.421875 0.335938
vt 0.099609 0.382812
vt 0.541016 0.365234
vt 0.326172 0.351562
vt 0.509766 0.365234
vt 0.119141 0.382812
vt 0.326172 0.332031
vt 0.525391 0.392578
vt 0.308594 0.410156
vt 0.437500 0.335938
vt 0.525391 0.392578
vt 0.328125 0.410156
vt 0.437500 0.355469
vt 0.525391 0.365234
vt 0.308594 0.382812
vt 0.341797 0.332031
vt 0.525391 0.365234
vt 0.328125 0.382812
vt 0.341797 0.351562
vt 0.699219 0.787109
vt 0.683594 0.953125
vt 0.503906 0.785156
vt 0.630859 0.843750
vt 0.724609 0.787109
vt 0.503906 0.759766
vt 0.699219 0.781250
vt 0.683594 0.947266
vt 0.503906 0.759766
vt 0.630859 0.837891
vt 0.724609 0.781250
vt 0.503906 0.734375
vt 0.679688 0.843750
vt 0.699219 0.781250
vt 0.552734 0.759766
vt 0.634766 0.953125
vt 0.724609 0.781250
vt 0.552734 0.785156
vt 0.679688 0.837891
vt 0.699219 0.775391
vt 0.552734 0.734375
vt 0.634766 0.947266
vt 0.724609 0.775391
vt 0.552734 0.759766
vt 0.392578 0.369141
vt 0.468750 0.396484
vt 0.582031 0.888672
vt 0.437500 0.402344
vt 0.404297 0.369141
vt 0.582031 0.876953
vt 0.392578 0.339844
vt 0.468750 0.367188
vt 0.671875 0.830078
vt 0.437500 0.373047
vt 0.404297 0.339844
vt 0.671875 0.818359
vt 0.453125 0.402344
vt 0.044922 0.367188
vt 0.597656 0.876953
vt 0.453125 0.396484
vt 0.056641 0.367188
vt 0.597656 0.888672
vt 0.453125 0.373047
vt 0.044922 0.337891
vt 0.687500 0.818359
vt 0.453125 0.367188
vt 0.056641 0.337891
vt 0.687500 0.830078
vt 0.673828 0.867188
vt 0.408203 0.410156
vt 0.707031 0.302734
vt 0.341797 0.410156
vt 0.677734 0.867188
vt 0.707031 0.298828
vt 0.673828 0.851562
vt 0.408203 0.394531
vt 0.708984 0.939453
vt 0.341797 0.394531
vt 0.677734 0.851562
vt 0.708984 0.935547
vt 0.375000 0.410156
vt 0.419922 0.300781
vt 0.740234 0.298828
vt 0.375000 0.410156
vt 0.423828 0.300781
vt 0.740234 0.302734
vt 0.375000 0.394531
vt 0.419922 0.285156
vt 0.742188 0.935547
vt 0.375000 0.394531
vt 0.423828 0.285156
vt 0.742188 0.939453
vt 0.757812 0.589844
vt 0.777344 0.361328
vt 0.650391 0.818359
vt 0.736328 0.363281
vt 0.763672 0.589844
vt 0.650391 0.812500
vt 0.757812 0.587891
vt 0.777344 0.359375
vt 0.654297 0.728516
vt 0.736328 0.361328
vt 0.763672 0.587891
vt 0.654297 0.722656
vt 0.777344 0.363281
vt 0.412109 0.242188
vt 0.691406 0.812500
vt 0.736328 0.361328
vt 0.417969 0.242188
vt 0.691406 0.818359
vt 0.777344 0.361328
vt 0.412109 0.240234
vt 0.695312 0.722656
vt 0.736328 0.359375
vt 0.417969 0.240234
vt 0.695312 0.728516
vt 0.607422 0.728516
vt 0.548828 0.392578
vt 0.472656 0.482422
vt 0.453125 0.402344
vt 0.615234 0.728516
vt 0.472656 0.474609
vt 0.607422 0.722656
vt 0.548828 0.386719
vt 0.255859 0.318359
vt 0.453125 0.396484
vt 0.615234 0.722656
vt 0.255859 0.310547
vt 0.460938 0.402344
vt 0.298828 0.322266
vt 0.480469 0.474609
vt 0.541016 0.392578
vt 0.306641 0.322266
vt 0.480469 0.482422
vt 0.460938 0.396484
vt 0.298828 0.316406
vt 0.263672 0.310547
vt 0.541016 0.386719
vt 0.306641 0.316406
vt 0.263672 0.318359
vt 0.115234 0.275391
vt 0.691406 0.326172
vt 0.099609 0.244141
vt 0.683594 0.511719
vt 0.117188 0.275391
vt 0.099609 0.242188
vt 0.115234 0.267578
vt 0.691406 0.318359
vt 0.115234 0.244141
vt 0.683594 0.503906
vt 0.117188 0.267578
vt 0.115234 0.242188
vt 0.691406 0.511719
vt 0.527344 0.246094
vt 0.107422 0.242188
vt 0.683594 0.326172
vt 0.529297 0.246094
vt 0.107422 0.244141
vt 0.691406 0.503906
vt 0.527344 0.238281
vt 0.123047 0.242188
vt 0.683594 0.318359
vt 0.529297 0.238281
vt 0.123047 0.244141
vt 0.076172 0.244141
vt 0.720703 0.859375
vt 0.351562 0.283203
vt 0.492188 0.291016
vt 0.080078 0.244141
vt 0.351562 0.279297
vt 0.076172 0.240234
vt 0.720703 0.855469
vt 0.726562 0.427734
vt 0.492188 0.287109
vt 0.080078 0.240234
vt 0.726562 0.423828
vt 0.500000 0.291016
vt 0.107422 0.244141
vt 0.359375 0.279297
vt 0.712891 0.859375
vt 0.111328 0.244141
vt 0.359375 0.283203
vt 0.500000 0.287109
vt 0.107422 0.240234
vt 0.734375 0.423828
vt 0.712891 0.855469
vt 0.111328 0.240234
vt 0.734375 0.427734
vt 0.126953 0.259766
vt 0.625000 0.412109
vt 0.708984 0.404297
vt 0.212891 0.408203
vt 0.130859 0.259766
vt 0.708984 0.400391
vt 0.126953 0.244141
vt 0.625000 0.396484
vt 0.710938 0.699219
vt 0.212891 0.392578
vt 0.130859 0.244141
vt 0.710938 0.695312
vt 0.246094 0.408203
vt 0.130859 0.259766
vt 0.742188 0.400391
vt 0.591797 0.412109
vt 0.134766 0.259766
vt 0.742188 0.404297
vt 0.246094 0.392578
vt 0.130859 0.244141
vt 0.744141 0.695312
vt 0.591797 0.396484
vt 0.134766 0.244141
vt 0.744141 0.699219
vt 0.056641 0.341797
vt 0.681641 0.917969
vt 0.544922 0.279297
vt 0.429688 0.335938
vt 0.070312 0.341797
vt 0.544922 0.265625
vt 0.056641 0.326172
vt 0.681641 0.902344
vt 0.017578 0.277344
vt 0.429688 0.320312
vt 0.070312 0.326172
vt 0.017578 0.263672
vt 0.437500 0.335938
vt 0.660156 0.917969
vt 0.552734 0.265625
vt 0.673828 0.917969
vt 0.552734 0.279297
vt 0.437500 0.320312
vt 0.660156 0.902344
vt 0.025391 0.263672
vt 0.673828 0.902344
vt 0.025391 0.277344
vt 0.720703 0.503906
vt 0.164062 0.275391
vt 0.203125 0.261719
vt 0.138672 0.275391
vt 0.730469 0.503906
vt 0.203125 0.251953
vt 0.720703 0.492188
vt 0.164062 0.263672
vt 0.285156 0.261719
vt 0.138672 0.263672
vt 0.730469 0.492188
vt 0.285156 0.251953
vt 0.146484 0.275391
vt 0.720703 0.492188
vt 0.210938 0.251953
vt 0.156250 0.275391
vt 0.730469 0.492188
vt 0.210938 0.261719
vt 0.146484 0.263672
vt 0.720703 0.480469
vt 0.292969 0.251953
vt 0.156250 0.263672
vt 0.730469 0.480469
vt 0.292969 0.261719
vt 0.376953 0.351562
vt 0.457031 0.277344
vt 0.177734 0.333984
vt 0.101562 0.445312
vt 0.392578 0.351562
vt 0.177734 0.318359
vt 0.376953 0.333984
vt 0.457031 0.259766
vt 0.082031 0.275391
vt 0.101562 0.427734
vt 0.392578 0.333984
vt 0.082031 0.259766
vt 0.107422 0.445312
vt 0.560547 0.351562
vt 0.183594 0.318359
vt 0.451172 0.277344
vt 0.576172 0.351562
vt 0.183594 0.333984
vt 0.107422 0.427734
vt 0.560547 0.333984
vt 0.087891 0.259766
vt 0.451172 0.259766
vt 0.576172 0.333984
vt 0.087891 0.275391
vt 0.587891 0.916016
vt 0.691406 0.832031
vt 0.496094 0.259766
vt 0.400391 0.339844
vt 0.601562 0.916016
vt 0.496094 0.246094
vt 0.587891 0.902344
vt 0.691406 0.818359
vt 0.501953 0.259766
vt 0.400391 0.326172
vt 0.601562 0.902344
vt 0.501953 0.246094
vt 0.404297 0.339844
vt 0.683594 0.394531
vt 0.500000 0.246094
vt 0.687500 0.832031
vt 0.697266 0.394531
vt 0.500000 0.259766
vt 0.404297 0.326172
vt 0.683594 0.380859
vt 0.505859 0.246094
vt 0.687500 0.818359
vt 0.697266 0.380859
vt 0.505859 0.259766
vt 0.738281 0.851562
vt 0.591797 0.251953
vt 0.189453 0.443359
vt 0.580078 0.251953
vt 0.751953 0.851562
vt 0.189453 0.429688
vt 0.738281 0.845703
vt 0.591797 0.246094
vt 0.535156 0.365234
vt 0.580078 0.246094
vt 0.751953 0.845703
vt 0.535156 0.351562
vt 0.585938 0.251953
vt 0.738281 0.845703
vt 0.195312 0.429688
vt 0.585938 0.251953
vt 0.751953 0.845703
vt 0.195312 0.443359
vt 0.585938 0.246094
vt 0.738281 0.839844
vt 0.541016 0.351562
vt 0.585938 0.246094
vt 0.751953 0.839844
vt 0.541016 0.365234
vt 0.720703 0.605469
vt 0.621094 0.251953
vt 0.138672 0.482422
vt 0.748047 0.386719
vt 0.742188 0.605469
vt 0.138672 0.460938
vt 0.720703 0.599609
vt 0.621094 0.246094
vt 0.068359 0.443359
vt 0.748047 0.380859
vt 0.742188 0.599609
vt 0.068359 0.421875
vt 0.753906 0.386719
vt 0.720703 0.537109
vt 0.144531 0.460938
vt 0.615234 0.251953
vt 0.742188 0.537109
vt 0.144531 0.482422
vt 0.753906 0.380859
vt 0.720703 0.531250
vt 0.074219 0.421875
vt 0.615234 0.246094
vt 0.742188 0.531250
vt 0.074219 0.443359
vt 0.269531 0.429688
vt 0.234375 0.345703
vt 0.244141 0.392578
vt 0.650391 0.892578
vt 0.273438 0.429688
vt 0.244141 0.388672
vt 0.269531 0.406250
vt 0.234375 0.322266
vt 0.646484 0.371094
vt 0.650391 0.869141
vt 0.273438 0.406250
vt 0.646484 0.367188
vt 0.652344 0.892578
vt 0.050781 0.416016
vt 0.246094 0.388672
vt 0.232422 0.345703
vt 0.054688 0.416016
vt 0.246094 0.392578
vt 0.652344 0.869141
vt 0.050781 0.392578
vt 0.648438 0.367188
vt 0.232422 0.322266
vt 0.054688 0.392578
vt 0.648438 0.371094
vt 0.123047 0.244141
vt 0.626953 0.296875
vt 0.500000 0.291016
vt 0.697266 0.787109
vt 0.126953 0.244141
vt 0.500000 0.287109
vt 0.123047 0.240234
vt 0.626953 0.292969
vt 0.144531 0.287109
vt 0.697266 0.783203
vt 0.126953 0.240234
vt 0.144531 0.283203
vt 0.699219 0.787109
vt 0.126953 0.244141
vt 0.501953 0.287109
vt 0.625000 0.296875
vt 0.130859 0.244141
vt 0.501953 0.291016
vt 0.699219 0.783203
vt 0.126953 0.240234
vt 0.146484 0.283203
vt 0.625000 0.292969
vt 0.130859 0.240234
vt 0.146484 0.287109
vt 0.611328 0.796875
vt 0.279297 0.277344
vt 0.480469 0.339844
vt 0.199219 0.277344
vt 0.628906 0.796875
vt 0.480469 0.322266
vt 0.611328 0.773438
vt 0.279297 0.253906
vt 0.119141 0.300781
vt 0.199219 0.253906
vt 0.628906 0.773438
vt 0.119141 0.283203
vt 0.203125 0.277344
vt 0.244141 0.388672
vt 0.484375 0.322266
vt 0.275391 0.277344
vt 0.261719 0.388672
vt 0.484375 0.339844
vt 0.203125 0.253906
vt 0.244141 0.365234
vt 0.123047 0.283203
vt 0.275391 0.253906
vt 0.261719 0.365234
vt 0.123047 0.300781
vt 0.277344 0.328125
vt 0.472656 0.263672
vt 0.759766 0.800781
vt 0.429688 0.263672
vt 0.279297 0.328125
vt 0.759766 0.798828
vt 0.277344 0.310547
vt 0.472656 0.246094
vt 0.759766 0.798828
vt 0.429688 0.246094
vt 0.279297 0.310547
vt 0.759766 0.796875
vt 0.433594 0.263672
vt 0.289062 0.251953
vt 0.763672 0.798828
vt 0.468750 0.263672
vt 0.291016 0.251953
vt 0.763672 0.800781
vt 0.433594 0.246094
vt 0.289062 0.234375
vt 0.763672 0.796875
vt 0.468750 0.246094
vt 0.291016 0.234375
vt 0.763672 0.798828
vt 0.740234 0.525391
vt 0.345703 0.320312
vt 0.628906 0.771484
vt 0.070312 0.341797
vt 0.750000 0.525391
vt 0.628906 0.761719
vt 0.740234 0.519531
vt 0.345703 0.314453
vt 0.251953 0.302734
vt 0.070312 0.335938
vt 0.750000 0.519531
vt 0.251953 0.292969
vt 0.074219 0.341797
vt 0.486328 0.259766
vt 0.632812 0.761719
vt 0.341797 0.320312
vt 0.496094 0.259766
vt 0.632812 0.771484
vt 0.074219 0.335938
vt 0.486328 0.253906
vt 0.255859 0.292969
vt 0.341797 0.314453
vt 0.496094 0.253906
vt 0.255859 0.302734
vt 0.269531 0.662109
vt 0.128906 0.345703
vt 0.279297 0.285156
vt 0.138672 0.517578
vt 0.291016 0.662109
vt 0.279297 0.263672
vt 0.269531 0.626953
vt 0.128906 0.310547
vt 0.412109 0.283203
vt 0.138672 0.482422
vt 0.291016 0.626953
vt 0.412109 0.261719
vt 0.144531 0.517578
vt 0.269531 0.626953
vt 0.285156 0.263672
vt 0.123047 0.345703
vt 0.291016 0.626953
vt 0.285156 0.285156
vt 0.144531 0.482422
vt 0.269531 0.591797
vt 0.417969 0.261719
vt 0.123047 0.310547
vt 0.291016 0.591797
vt 0.417969 0.283203
vt 0.130859 0.244141
vt 0.382812 0.287109
vt 0.652344 0.287109
vt 0.423828 0.289062
vt 0.134766 0.244141
vt 0.652344 0.283203
vt 0.130859 0.240234
vt 0.382812 0.283203
vt 0.394531 0.283203
vt 0.423828 0.285156
vt 0.134766 0.240234
vt 0.394531 0.279297
vt 0.429688 0.289062
vt 0.755859 0.808594
vt 0.658203 0.283203
vt 0.376953 0.287109
vt 0.759766 0.808594
vt 0.658203 0.287109
vt 0.429688 0.285156
vt 0.755859 0.804688
vt 0.400391 0.279297
vt 0.376953 0.283203
vt 0.759766 0.804688
vt 0.400391 0.283203
vt 0.380859 0.470703
vt 0.708984 0.564453
vt 0.580078 0.761719
vt 0.675781 0.423828
vt 0.384766 0.470703
vt 0.580078 0.757812
vt 0.380859 0.462891
vt 0.708984 0.556641
vt 0.662109 0.646484
vt 0.675781 0.416016
vt 0.384766 0.462891
vt 0.662109 0.642578
vt 0.699219 0.423828
vt 0.308594 0.417969
vt 0.603516 0.757812
vt 0.685547 0.564453
vt 0.312500 0.417969
vt 0.603516 0.761719
vt 0.699219 0.416016
vt 0.308594 0.410156
vt 0.685547 0.642578
vt 0.685547 0.556641
vt 0.312500 0.410156
vt 0.685547 0.646484
vt 0.417969 0.343750
vt 0.716797 0.353516
vt 0.724609 0.873047
vt 0.691406 0.593750
vt 0.421875 0.343750
vt 0.724609 0.869141
vt 0.417969 0.335938
vt 0.716797 0.345703
vt 0.724609 0.792969
vt 0.691406 0.585938
vt 0.421875 0.335938
vt 0.724609 0.789062
vt 0.714844 0.593750
vt 0.066406 0.326172
vt 0.748047 0.869141
vt 0.693359 0.353516
vt 0.070312 0.326172
vt 0.748047 0.873047
vt 0.714844 0.585938
vt 0.066406 0.318359
vt 0.748047 0.789062
vt 0.693359 0.345703
vt 0.070312 0.318359
vt 0.748047 0.792969
vt 0.744141 0.808594
vt 0.328125 0.244141
vt 0.707031 0.257812
vt 0.755859 0.679688
vt 0.755859 0.808594
vt 0.707031 0.246094
vt 0.744141 0.804688
vt 0.328125 0.240234
vt 0.214844 0.255859
vt 0.755859 0.675781
vt 0.755859 0.804688
vt 0.214844 0.244141
vt 0.759766 0.679688
vt 0.744141 0.804688
vt 0.710938 0.246094
vt 0.324219 0.244141
vt 0.755859 0.804688
vt 0.710938 0.257812
vt 0.759766 0.675781
vt 0.744141 0.800781
vt 0.218750 0.244141
vt 0.324219 0.240234
vt 0.755859 0.800781
vt 0.218750 0.255859
vt 0.453125 0.546875
vt 0.150391 0.351562
vt 0.029297 0.277344
vt 0.093750 0.382812
vt 0.480469 0.546875
vt 0.029297 0.250000
vt 0.453125 0.482422
vt 0.150391 0.287109
vt 0.033203 0.277344
vt 0.093750 0.318359
vt 0.480469 0.482422
vt 0.033203 0.250000
vt 0.097656 0.382812
vt 0.000000 0.537109
vt 0.033203 0.250000
vt 0.146484 0.351562
vt 0.027344 0.537109
vt 0.033203 0.277344
vt 0.097656 0.318359
vt 0.000000 0.472656
vt 0.037109 0.250000
vt 0.146484 0.287109
vt 0.027344 0.472656
vt 0.037109 0.277344
vt 0.109375 0.568359
vt 0.144531 0.644531
vt 0.037109 0.277344
vt 0.144531 0.767578
vt 0.136719 0.568359
vt 0.037109 0.250000
vt 0.109375 0.501953
vt 0.144531 0.578125
vt 0.041016 0.277344
vt 0.144531 0.701172
vt 0.136719 0.501953
vt 0.041016 0.250000
vt 0.148438 0.767578
vt 0.425781 0.546875
vt 0.041016 0.250000
vt 0.140625 0.644531
vt 0.453125 0.546875
vt 0.041016 0.277344
vt 0.148438 0.701172
vt 0.425781 0.480469
vt 0.044922 0.250000
vt 0.140625 0.578125
vt 0.453125 0.480469
vt 0.044922 0.277344
vt 0.027344 0.537109
vt 0.355469 0.347656
vt 0.044922 0.277344
vt 0.642578 0.351562
vt 0.054688 0.537109
vt 0.044922 0.250000
vt 0.027344 0.472656
vt 0.355469 0.283203
vt 0.048828 0.277344
vt 0.642578 0.287109
vt 0.054688 0.472656
vt 0.048828 0.250000
vt 0.646484 0.351562
vt 0.054688 0.537109
vt 0.048828 0.250000
vt 0.351562 0.347656
vt 0.082031 0.537109
vt 0.048828 0.277344
vt 0.646484 0.287109
vt 0.054688 0.472656
vt 0.052734 0.250000
vt 0.351562 0.283203
vt 0.082031 0.472656
vt 0.052734 0.277344
vt 0.082031 0.537109
vt 0.451172 0.347656
vt 0.183594 0.277344
vt 0.355469 0.347656
vt 0.109375 0.537109
vt 0.183594 0.250000
vt 0.082031 0.472656
vt 0.451172 0.283203
vt 0.187500 0.277344
vt 0.355469 0.283203
vt 0.109375 0.472656
vt 0.187500 0.250000
vt 0.359375 0.347656
vt 0.253906 0.527344
vt 0.187500 0.250000
vt 0.447266 0.347656
vt 0.281250 0.527344
vt 0.187500 0.277344
vt 0.359375 0.283203
vt 0.253906 0.462891
vt 0.191406 0.250000
vt 0.447266 0.283203
vt 0.281250 0.462891
vt 0.191406 0.277344
vt 0.066406 0.300781
vt 0.746094 0.619141
vt 0.673828 0.351562
vt 0.738281 0.628906
vt 0.082031 0.300781
vt 0.673828 0.335938
vt 0.066406 0.291016
vt 0.746094 0.609375
vt 0.527344 0.281250
vt 0.738281 0.619141
vt 0.082031 0.291016
vt 0.527344 0.265625
vt 0.746094 0.628906
vt 0.177734 0.300781
vt 0.681641 0.335938
vt 0.738281 0.619141
vt 0.193359 0.300781
vt 0.681641 0.351562
vt 0.746094 0.619141
vt 0.177734 0.291016
vt 0.535156 0.265625
vt 0.738281 0.609375
vt 0.193359 0.291016
vt 0.535156 0.281250
vt 0.720703 0.291016
vt 0.757812 0.859375
vt 0.279297 0.345703
vt 0.750000 0.888672
vt 0.748047 0.291016
vt 0.279297 0.318359
vt 0.720703 0.287109
vt 0.757812 0.855469
vt 0.660156 0.722656
vt 0.750000 0.884766
vt 0.748047 0.287109
vt 0.660156 0.695312
vt 0.757812 0.888672
vt 0.720703 0.287109
vt 0.287109 0.318359
vt 0.750000 0.859375
vt 0.748047 0.287109
vt 0.287109 0.345703
vt 0.757812 0.884766
vt 0.720703 0.283203
vt 0.667969 0.695312
vt 0.750000 0.855469
vt 0.748047 0.283203
vt 0.667969 0.722656
vt 0.474609 0.785156
vt 0.349609 0.269531
vt 0.648438 0.279297
vt 0.488281 0.275391
vt 0.501953 0.785156
vt 0.648438 0.251953
vt 0.474609 0.779297
vt 0.349609 0.263672
vt 0.025391 0.277344
vt 0.488281 0.269531
vt 0.501953 0.779297
vt 0.025391 0.250000
vt 0.492188 0.275391
vt 0.697266 0.873047
vt 0.652344 0.251953
vt 0.345703 0.269531
vt 0.724609 0.873047
vt 0.652344 0.279297
vt 0.492188 0.269531
vt 0.697266 0.867188
vt 0.029297 0.250000
vt 0.345703 0.263672
vt 0.724609 0.867188
vt 0.029297 0.277344
vt 0.000000 0.255859
vt 0.324219 0.244141
vt 0.607422 0.257812
vt 0.316406 0.244141
vt 0.011719 0.255859
vt 0.607422 0.246094
vt 0.000000 0.251953
vt 0.324219 0.240234
vt 0.611328 0.257812
vt 0.316406 0.240234
vt 0.011719 0.251953
vt 0.611328 0.246094
vt 0.320312 0.244141
vt 0.011719 0.255859
vt 0.611328 0.246094
vt 0.320312 0.244141
vt 0.023438 0.255859
vt 0.611328 0.257812
vt 0.320312 0.240234
vt 0.011719 0.251953
vt 0.615234 0.246094
vt 0.320312 0.240234
vt 0.023438 0.251953
vt 0.615234 0.257812
vt 0.128906 0.287109
vt 0.259766 0.244141
vt 0.599609 0.257812
vt 0.251953 0.244141
vt 0.140625 0.287109
vt 0.599609 0.246094
vt 0.128906 0.283203
vt 0.259766 0.240234
vt 0.603516 0.257812
vt 0.251953 0.240234
vt 0.140625 0.283203
vt 0.603516 0.246094
vt 0.255859 0.244141
vt 0.156250 0.287109
vt 0.603516 0.246094
vt 0.255859 0.244141
vt 0.167969 0.287109
vt 0.603516 0.257812
vt 0.255859 0.240234
vt 0.156250 0.283203
vt 0.607422 0.246094
vt 0.255859 0.240234
vt 0.167969 0.283203
vt 0.607422 0.257812
vt 0.646484 0.291016
vt 0.251953 0.244141
vt 0.521484 0.257812
vt 0.222656 0.244141
vt 0.658203 0.291016
vt 0.521484 0.246094
vt 0.646484 0.287109
vt 0.251953 0.240234
vt 0.525391 0.257812
vt 0.222656 0.240234
vt 0.658203 0.287109
vt 0.525391 0.246094
vt 0.226562 0.244141
vt 0.099609 0.287109
vt 0.525391 0.246094
vt 0.248047 0.244141
vt 0.111328 0.287109
vt 0.525391 0.257812
vt 0.226562 0.240234
vt 0.099609 0.283203
vt 0.529297 0.246094
vt 0.248047 0.240234
vt 0.111328 0.283203
vt 0.529297 0.257812
vt 0.703125 0.597656
vt 0.222656 0.244141
vt 0.208984 0.404297
vt 0.214844 0.244141
vt 0.714844 0.597656
vt 0.208984 0.392578
vt 0.703125 0.593750
vt 0.222656 0.240234
vt 0.597656 0.888672
vt 0.214844 0.240234
vt 0.714844 0.593750
vt 0.597656 0.876953
vt 0.218750 0.244141
vt 0.382812 0.294922
vt 0.212891 0.392578
vt 0.218750 0.244141
vt 0.394531 0.294922
vt 0.212891 0.404297
vt 0.218750 0.240234
vt 0.382812 0.291016
vt 0.601562 0.876953
vt 0.218750 0.240234
vt 0.394531 0.291016
vt 0.601562 0.888672
vt 0.673828 0.748047
vt 0.759766 0.800781
vt 0.134766 0.455078
vt 0.755859 0.804688
vt 0.685547 0.748047
vt 0.134766 0.443359
vt 0.673828 0.744141
vt 0.759766 0.796875
vt 0.583984 0.916016
vt 0.755859 0.800781
vt 0.685547 0.744141
vt 0.583984 0.904297
vt 0.759766 0.804688
vt 0.683594 0.882812
vt 0.138672 0.443359
vt 0.755859 0.800781
vt 0.695312 0.882812
vt 0.138672 0.455078
vt 0.759766 0.800781
vt 0.683594 0.878906
vt 0.587891 0.904297
vt 0.755859 0.796875
vt 0.695312 0.878906
vt 0.587891 0.916016
s 1
usemtl btr4_tex_4.png
f 5/1/1 7/3/1 8/4/1 6/2/1
f 9/5/2 11/7/2 12/8/2 10/6/2
f 13/9/3 15/11/3 16/12/3 14/10/3
f 20/22/4 23/31/4 21/25/4 18/16/4
f 19/19/5 20/23/5 18/17/5 17/13/5
f 24/34/1 19/20/1 17/14/1 22/28/1
f 23/32/2 24/35/2 22/29/2 21/26/2
f 22/30/6 17/15/6 18/18/6 21/27/6
f 23/33/7 20/24/7 19/21/7 24/36/7
f 28/46/5 31/55/5 29/49/5 26/40/5
f 27/43/1 28/47/1 26/41/1 25/37/1
f 32/58/2 27/44/2 25/38/2 30/52/2
f 31/56/4 32/59/4 30/53/4 29/50/4
f 30/54/6 25/39/6 26/42/6 29/51/6
f 31/57/7 28/48/7 27/45/7 32/60/7
f 36/70/8 39/79/8 37/73/8 34/64/8
f 35/67/9 36/71/9 34/65/9 33/61/9
f 40/82/3 35/68/3 33/62/3 38/76/3
f 39/80/10 40/83/10 38/77/10 37/74/10
f 38/78/6 33/63/6 34/66/6 37/75/6
f 39/81/7 36/72/7 35/69/7 40/84/7
f 44/94/5 47/103/5 45/97/5 42/88/5
f 43/91/1 44/95/1 42/89/1 41/85/1
f 48/106/2 43/92/2 41/86/2 46/100/2
f 47/104/4 48/107/4 46/101/4 45/98/4
f 46/102/6 41/87/6 42/90/6 45/99/6
f 47/105/7 44/96/7 43/93/7 48/108/7
f 52/118/2 55/127/2 53/121/2 50/112/2
f 51/115/4 52/119/4 50/113/4 49/109/4
f 56/130/5 51/116/5 49/110/5 54/124/5
f 55/128/1 56/131/1 54/125/1 53/122/1
f 54/126/6 49/111/6 50/114/6 53/123/6
f 55/129/7 52/120/7 51/117/7 56/132/7
f 60/142/2 63/151/2 61/145/2 58/136/2
f 59/139/4 60/143/4 58/137/4 57/133/4
f 64/154/5 59/140/5 57/134/5 62/148/5
f 63/152/1 64/155/1 62/149/1 61/146/1
f 62/150/6 57/135/6 58/138/6 61/147/6
f 63/153/7 60/144/7 59/141/7 64/156/7
f 68/166/11 71/175/11 69/169/11 66/160/11
f 67/163/2 68/167/2 66/161/2 65/157/2
f 72/178/12 67/164/12 65/158/12 70/172/12
f 71/176/5 72/179/5 70/173/5 69/170/5
f 70/174/13 65/159/13 66/162/13 69/171/13
f 71/177/14 68/168/14 67/165/14 72/180/14
f 76/190/15 79/199/15 77/193/15 74/184/15
f 75/187/2 76/191/2 74/185/2 73/181/2
f 80/202/16 75/188/16 73/182/16 78/196/16
f 79/200/5 80/203/5 78/197/5 77/194/5
f 78/198/17 73/183/17 74/186/17 77/195/17
f 79/201/18 76/192/18 75/189/18 80/204/18
f 84/214/11 87/223/11 85/217/11 82/208/11
f 83/211/2 84/215/2 82/209/2 81/205/2
f 88/226/12 83/212/12 81/206/12 86/220/12
f 87/224/5 88/227/5 86/221/5 85/218/5
f 86/222/13 81/207/13 82/210/13 85/219/13
f 87/225/14 84/216/14 83/213/14 88/228/14
f 92/238/11 95/247/11 93/241/11 90/232/11
f 91/235/2 92/239/2 90/233/2 89/229/2
f 96/250/12 91/236/12 89/230/12 94/244/12
f 95/248/5 96/251/5 94/245/5 93/242/5
f 94/246/13 89/231/13 90/234/13 93/243/13
f 95/249/14 92/240/14 91/237/14 96/252/14
f 100/262/19 103/271/19 101/265/19 98/256/19
f 99/259/2 100/263/2 98/257/2 97/253/2
f 104/274/20 99/260/20 97/254/20 102/268/20
f 103/272/5 104/275/5 102/269/5 101/266/5
f 102/270/21 97/255/21 98/258/21 101/267/21
f 103/273/22 100/264/22 99/261/22 104/276/22
f 108/286/23 111/295/23 109/289/23 106/280/23
f 107/283/2 108/287/2 106/281/2 105/277/2
f 112/298/24 107/284/24 105/278/24 110/292/24
f 111/296/5 112/299/5 110/293/5 109/290/5
f 110/294/25 105/279/25 106/282/25 109/291/25
f 111/297/26 108/288/26 107/285/26 112/300/26
f 116/310/27 119/319/27 117/313/27 114/304/27
f 115/307/2 116/311/2 114/305/2 113/301/2
f 120/322/28 115/308/28 113/302/28 118/316/28
f 119/320/5 120/323/5 118/317/5 117/314/5
f 118/318/29 113/303/29 114/306/29 117/315/29
f 119/321/30 116/312/30 115/309/30 120/324/30
f 124/334/11 127/343/11 125/337/11 122/328/11
f 123/331/2 124/335/2 122/329/2 121/325/2
f 128/346/12 123/332/12 121/326/12 126/340/12
f 127/344/5 128/347/5 126/341/5 125/338/5
f 126/342/13 121/327/13 122/330/13 125/339/13
f 127/345/14 124/336/14 123/333/14 128/348/14
f 132/358/31 135/367/31 133/361/31 130/352/31
f 131/355/2 132/359/2 130/353/2 129/349/2
f 136/370/32 131/356/32 129/350/32 134/364/32
f 135/368/5 136/371/5 134/365/5 133/362/5
f 134/366/33 129/351/33 130/354/33 133/363/33
f 135/369/34 132/360/34 131/357/34 136/372/34
f 140/382/35 143/391/35 141/385/35 138/376/35
f 139/379/2 140/383/2 138/377/2 137/373/2
f 144/394/36 139/380/36 137/374/36 142/388/36
f 143/392/5 144/395/5 142/389/5 141/386/5
f 142/390/37 137/375/37 138/378/37 141/387/37
f 143/393/38 140/384/38 139/381/38 144/396/38
f 148/406/6 151/415/6 149/409/6 146/400/6
f 147/403/2 148/407/2 146/401/2 145/397/2
f 152/418/7 147/404/7 145/398/7 150/412/7
f 151/416/5 152/419/5 150/413/5 149/410/5
f 150/414/4 145/399/4 146/402/4 149/411/4
f 151/417/1 148/408/1 147/405/1 152/420/1
f 156/430/11 159/438/11 157/433/11 154/424/11
f 155/427/2 156/431/2 154/425/2 153/421/2
f 160/441/12 155/428/12 153/422/12 158/436/12
f 159/439/5 160/441/5 158/436/5 157/434/5
f 158/437/13 153/423/13 154/426/13 157/435/13
f 159/440/14 156/432/14 155/429/14 160/442/14
f 164/452/39 167/461/39 165/455/39 162/446/39
f 163/449/2 164/453/2 162/447/2 161/443/2
f 168/464/40 163/450/40 161/444/40 166/458/40
f 167/462/5 168/465/5 166/459/5 165/456/5
f 166/460/41 161/445/41 162/448/41 165/457/41
f 167/463/42 164/454/42 163/451/42 168/466/42
f 172/476/11 175/485/11 173/479/11 170/470/11
f 171/473/2 172/477/2 170/471/2 169/467/2
f 176/488/12 171/474/12 169/468/12 174/482/12
f 175/486/5 176/489/5 174/483/5 173/480/5
f 174/484/13 169/469/13 170/472/13 173/481/13
f 175/487/14 172/478/14 171/475/14 176/490/14
f 180/500/43 183/509/43 181/503/43 178/494/43
f 179/497/2 180/501/2 178/495/2 177/491/2
f 184/512/44 179/498/44 177/492/44 182/506/44
f 183/510/5 184/513/5 182/507/5 181/504/5
f 182/508/45 177/493/45 178/496/45 181/505/45
f 183/511/46 180/502/46 179/499/46 184/514/46
f 188/524/11 191/533/11 189/527/11 186/518/11
f 187/521/2 188/525/2 186/519/2 185/515/2
f 192/536/12 187/522/12 185/516/12 190/530/12
f 191/534/5 192/537/5 190/531/5 189/528/5
f 190/532/13 185/517/13 186/520/13 189/529/13
f 191/535/14 188/526/14 187/523/14 192/538/14
f 196/548/47 199/557/47 197/551/47 194/542/47
f 195/545/48 196/549/48 194/543/48 193/539/48
f 200/560/49 195/546/49 193/540/49 198/554/49
f 199/558/50 200/561/50 198/555/50 197/552/50
f 198/556/13 193/541/13 194/544/13 197/553/13
f 199/559/14 196/550/14 195/547/14 200/562/14
f 204/572/51 207/581/51 205/575/51 202/566/51
f 203/569/2 204/573/2 202/567/2 201/563/2
f 208/584/52 203/570/52 201/564/52 206/578/52
f 207/582/5 208/585/5 206/579/5 205/576/5
f 206/580/53 201/565/53 202/568/53 205/577/53
f 207/583/54 204/574/54 203/571/54 208/586/54
f 212/596/6 215/605/6 213/599/6 210/590/6
f 211/593/2 212/597/2 210/591/2 209/587/2
f 216/608/7 211/594/7 209/588/7 214/602/7
f 215/606/5 216/609/5 214/603/5 213/600/5
f 214/604/4 209/589/4 210/592/4 213/601/4
f 215/607/1 212/598/1 211/595/1 216/610/1
f 220/620/11 223/629/11 221/623/11 218/614/11
f 219/617/2 220/621/2 218/615/2 217/611/2
f 224/632/12 219/618/12 217/612/12 222/626/12
f 223/630/5 224/633/5 222/627/5 221/624/5
f 222/628/13 217/613/13 218/616/13 221/625/13
f 223/631/14 220/622/14 219/619/14 224/634/14
f 228/644/55 231/653/55 229/647/55 226/638/55
f 227/641/2 228/645/2 226/639/2 225/635/2
f 232/656/56 227/642/56 225/636/56 230/650/56
f 231/654/5 232/657/5 230/651/5 229/648/5
f 230/652/57 225/637/57 226/640/57 229/649/57
f 231/655/58 228/646/58 227/643/58 232/658/58
f 236/668/59 239/677/59 237/671/59 234/662/59
f 235/665/2 236/669/2 234/663/2 233/659/2
f 240/680/60 235/666/60 233/660/60 238/674/60
f 239/678/5 240/681/5 238/675/5 237/672/5
f 238/676/61 233/661/61 234/664/61 237/673/61
f 239/679/62 236/670/62 235/667/62 240/682/62
f 244/692/51 247/701/51 245/695/51 242/686/51
f 243/689/2 244/693/2 242/687/2 241/683/2
f 248/704/52 243/690/52 241/684/52 246/698/52
f 247/702/5 248/705/5 246/699/5 245/696/5
f 246/700/53 241/685/53 242/688/53 245/697/53
f 247/703/54 244/694/54 243/691/54 248/706/54
f 252/716/6 255/725/6 253/719/6 250/710/6
f 251/713/2 252/717/2 250/711/2 249/707/2
f 256/728/7 251/714/7 249/708/7 254/722/7
f 255/726/5 256/729/5 254/723/5 253/720/5
f 254/724/4 249/709/4 250/712/4 253/721/4
f 255/727/1 252/718/1 251/715/1 256/730/1
f 260/740/63 263/749/63 261/743/63 258/734/63
f 259/737/2 260/741/2 258/735/2 257/731/2
f 264/752/64 259/738/64 257/732/64 262/746/64
f 263/750/5 264/753/5 262/747/5 261/744/5
f 262/748/65 257/733/65 258/736/65 261/745/65
f 263/751/66 260/742/66 259/739/66 264/754/66
f 268/764/67 271/773/67 269/767/67 266/758/67
f 267/761/2 268/765/2 266/759/2 265/755/2
f 272/776/68 267/762/68 265/756/68 270/770/68
f 271/774/5 272/777/5 270/771/5 269/768/5
f 270/772/69 265/757/69 266/760/69 269/769/69
f 271/775/70 268/766/70 267/763/70 272/778/70
f 276/788/51 279/797/51 277/791/51 274/782/51
f 275/785/71 276/789/71 274/783/71 273/779/71
f 280/800/52 275/786/52 273/780/52 278/794/52
f 279/798/72 280/801/72 278/795/72 277/792/72
f 278/796/73 273/781/73 274/784/73 277/793/73
f 279/799/74 276/790/74 275/787/74 280/802/74
f 284/812/75 287/821/75 285/815/75 282/806/75
f 283/809/7 284/813/7 282/807/7 281/803/7
f 288/824/76 283/810/76 281/804/76 286/818/76
f 287/822/6 288/825/6 286/819/6 285/816/6
f 286/820/77 281/805/77 282/808/77 285/817/77
f 287/823/78 284/814/78 283/811/78 288/826/78
f 292/836/79 295/845/79 293/839/79 290/830/79
f 291/833/7 292/837/7 290/831/7 289/827/7
f 296/848/80 291/834/80 289/828/80 294/842/80
f 295/846/6 296/849/6 294/843/6 293/840/6
f 294/844/81 289/829/81 290/832/81 293/841/81
f 295/847/82 292/838/82 291/835/82 296/850/82
f 300/860/78 303/869/78 301/863/78 298/854/78
f 299/857/7 300/861/7 298/855/7 297/851/7
f 304/872/77 299/858/77 297/852/77 302/866/77
f 303/870/6 304/873/6 302/867/6 301/864/6
f 302/868/75 297/853/75 298/856/75 301/865/75
f 303/871/76 300/862/76 299/859/76 304/874/76
f 308/884/83 311/893/83 309/887/83 306/878/83
f 307/881/7 308/885/7 306/879/7 305/875/7
f 312/896/84 307/882/84 305/876/84 310/890/84
f 311/894/6 312/897/6 310/891/6 309/888/6
f 310/892/85 305/877/85 306/880/85 309/889/85
f 311/895/80 308/886/80 307/883/80 312/898/80
f 316/908/1 319/917/1 317/911/1 314/902/1
f 315/905/86 316/909/86 314/903/86 313/899/86
f 320/920/4 315/906/4 313/900/4 318/914/4
f 319/918/87 320/921/87 318/915/87 317/912/87
f 318/916/88 313/901/88 314/904/88 317/913/88
f 319/919/89 316/910/89 315/907/89 320/922/89
f 324/932/90 327/941/90 325/935/90 322/926/90
f 323/929/91 324/933/91 322/927/91 321/923/91
f 328/944/92 323/930/92 321/924/92 326/938/92
f 327/942/93 328/945/93 326/939/93 325/936/93
f 326/940/94 321/925/94 322/928/94 325/937/94
f 327/943/95 324/934/95 323/931/95 328/946/95
f 332/956/90 335/965/90 333/959/90 330/950/90
f 331/953/96 332/957/96 330/951/96 329/947/96
f 336/968/92 331/954/92 329/948/92 334/962/92
f 335/966/97 336/969/97 334/963/97 333/960/97
f 334/964/98 329/949/98 330/952/98 333/961/98
f 335/967/99 332/958/99 331/955/99 336/970/99
f 340/980/51 343/989/51 341/983/51 338/974/51
f 339/977/71 340/981/71 338/975/71 337/971/71
f 344/992/52 339/978/52 337/972/52 342/986/52
f 343/990/72 344/993/72 342/987/72 341/984/72
f 342/988/73 337/973/73 338/976/73 341/985/73
f 343/991/74 340/982/74 339/979/74 344/994/74
f 348/1004/51 351/1013/51 349/1007/51 346/998/51
f 347/1001/71 348/1005/71 346/999/71 345/995/71
f 352/1016/52 347/1002/52 345/996/52 350/1010/52
f 351/1014/72 352/1017/72 350/1011/72 349/1008/72
f 350/1012/73 345/997/73 346/1000/73 349/1009/73
f 351/1015/74 348/1006/74 347/1003/74 352/1018/74
f 356/1028/51 359/1037/51 357/1031/51 354/1022/51
f 355/1025/100 356/1029/100 354/1023/100 353/1019/100
f 360/1040/52 355/1026/52 353/1020/52 358/1034/52
f 359/1038/101 360/1041/101 358/1035/101 357/1032/101
f 358/1036/102 353/1021/102 354/1024/102 357/1033/102
f 359/1039/103 356/1030/103 355/1027/103 360/1042/103
f 364/1052/51 367/1061/51 365/1055/51 362/1046/51
f 363/1049/100 364/1053/100 362/1047/100 361/1043/100
f 368/1064/52 363/1050/52 361/1044/52 366/1058/52
f 367/1062/101 368/1065/101 366/1059/101 365/1056/101
f 366/1060/102 361/1045/102 362/1048/102 365/1057/102
f 367/1063/103 364/1054/103 363/1051/103 368/1066/103
f 372/1076/51 375/1085/51 373/1079/51 370/1070/51
f 371/1073/100 372/1077/100 370/1071/100 369/1067/100
f 376/1088/52 371/1074/52 369/1068/52 374/1082/52
f 375/1086/101 376/1089/101 374/1083/101 373/1080/101
f 374/1084/102 369/1069/102 370/1072/102 373/1081/102
f 375/1087/103 372/1078/103 371/1075/103 376/1090/103
o gun
v -0.233025 0.972498 0.185654
v -0.233025 0.972498 0.349716
v -0.233025 0.628748 0.185654
v -0.233025 0.628748 0.349716
v 0.154473 0.972498 0.349716
v 0.154474 0.972498 0.185654
v 0.154473 0.628748 0.349716
v 0.154474 0.628748 0.185654
v 0.154474 0.934998 0.185654
v 0.154473 0.934998 0.324716
v 0.154474 0.653748 0.185654
v 0.154473 0.653748 0.324716
v 0.454472 0.934998 0.324716
v 0.454472 0.934998 0.185654
v 0.454472 0.653748 0.324716
v 0.454472 0.653748 0.185654
v -0.024885 0.933385 0.350293
v -0.064931 0.887583 1.661377
v -0.024808 0.883416 0.348550
v -0.064855 0.837614 1.659634
v -0.027449 0.887601 1.662523
v 0.012598 0.933403 0.351439
v -0.027373 0.837631 1.660780
v 0.012674 0.883433 0.349696
v -0.064940 0.887578 1.661705
v -0.090567 0.867080 2.836234
v -0.064890 0.837585 1.660833
v -0.090517 0.817088 2.835362
v -0.053076 0.867103 2.837053
v -0.027449 0.887601 1.662523
v -0.053026 0.817110 2.836181
v -0.027400 0.837608 1.661651
v -0.121513 0.847703 1.422886
v -0.093748 0.875467 2.922357
v -0.172319 0.796897 1.424767
v -0.144554 0.824661 2.924238
v -0.042925 0.824644 2.922357
v -0.070690 0.796880 1.422886
v -0.093731 0.773838 2.924238
v -0.121496 0.746073 1.424767
v -0.154474 0.887601 1.662523
v -0.128848 0.867103 2.837053
v -0.154524 0.837608 1.661651
v -0.128897 0.817110 2.836181
v -0.091357 0.867080 2.836234
v -0.116983 0.887578 1.661705
v -0.091406 0.817088 2.835362
v -0.117033 0.837585 1.660833
v -0.194521 0.933403 0.351439
v -0.154474 0.887601 1.662523
v -0.194597 0.883433 0.349696
v -0.154550 0.837631 1.660780
v -0.116992 0.887583 1.661377
v -0.157039 0.933385 0.350293
v -0.117068 0.837614 1.659634
v -0.157115 0.883416 0.348550
v -0.092788 0.918033 2.804001
v -0.092788 0.918033 2.847750
v -0.187805 0.823015 2.804000
v -0.187805 0.823015 2.847750
v 0.002229 0.823015 2.847750
v 0.002229 0.823015 2.804000
v -0.092788 0.727998 2.847750
v -0.092788 0.727998 2.804001
v -0.064890 0.778011 1.660275
v -0.090517 0.819004 2.834268
v -0.064940 0.728042 1.662019
v -0.090567 0.769035 2.836012
v -0.053026 0.818996 2.835087
v -0.027400 0.778003 1.661094
v -0.053076 0.769026 2.836830
v -0.027449 0.728033 1.662838
v -0.024809 0.709286 0.348992
v -0.064855 0.777962 1.659077
v -0.024885 0.659354 0.351607
v -0.064931 0.728030 1.661692
v -0.027373 0.777965 1.660223
v 0.012674 0.709289 0.350138
v -0.027449 0.728033 1.662838
v 0.012598 0.659357 0.352753
v -0.194597 0.709289 0.350137
v -0.154550 0.777965 1.660223
v -0.194521 0.659357 0.352753
v -0.154474 0.728033 1.662838
v -0.117068 0.777962 1.659077
v -0.157115 0.709286 0.348992
v -0.116992 0.728030 1.661692
v -0.157039 0.659354 0.351607
v -0.154524 0.778003 1.661094
v -0.128897 0.818996 2.835087
v -0.154474 0.728033 1.662838
v -0.128848 0.769026 2.836831
v -0.091406 0.819004 2.834268
v -0.117033 0.778011 1.660275
v -0.091356 0.769035 2.836012
v -0.116983 0.728042 1.662019
v -0.191225 0.924042 1.554013
v -0.191225 0.924042 1.597762
v -0.191225 0.702167 1.554013
v -0.191225 0.702167 1.597762
v 0.005649 0.924042 1.597763
v 0.005649 0.924042 1.554013
v 0.005649 0.702167 1.597763
v 0.005649 0.702167 1.554013
v -0.149279 0.828776 -0.076757
v -0.121514 0.856540 1.422722
v -0.208921 0.769134 -0.074549
v -0.181156 0.796899 1.424931
v -0.061852 0.796878 1.422722
v -0.089617 0.769113 -0.076758
v -0.121494 0.737236 1.424931
v -0.149259 0.709472 -0.074549
v 0.210723 0.925530 0.324716
v 0.210724 0.925530 0.512215
v 0.157691 0.872498 0.324716
v 0.157690 0.872498 0.512215
v 0.263756 0.872498 0.512215
v 0.263756 0.872498 0.324716
v 0.210724 0.819464 0.512215
v 0.210723 0.819464 0.324716
v 0.210724 0.899014 0.512215
v 0.210723 0.899014 0.780964
v 0.184207 0.872498 0.512215
v 0.184207 0.872497 0.780964
v 0.237240 0.872497 0.780964
v 0.237240 0.872498 0.512216
v 0.210723 0.845981 0.780964
v 0.210724 0.845981 0.512215
v 0.347725 0.823884 0.162217
v 0.347725 0.823884 0.430966
v 0.312370 0.788529 0.162216
v 0.312370 0.788528 0.430966
v 0.383080 0.788528 0.430966
v 0.383080 0.788529 0.162216
v 0.347725 0.753173 0.430966
v 0.347725 0.753173 0.162217
v -1.329557 1.122720 -0.641189
v -1.330180 1.136996 0.996243
v -1.426786 1.025499 -0.640379
v -1.427409 1.039775 0.997053
v -1.232955 1.039771 0.997127
v -1.232332 1.025495 -0.640304
v -1.330184 0.942549 0.997938
v -1.329561 0.928273 -0.639494
v -1.330153 1.171751 0.927187
v -1.330178 1.172337 0.994372
v -1.462738 1.039176 0.928293
v -1.462763 1.039761 0.995477
v -1.197599 1.039757 0.995579
v -1.197573 1.039171 0.928394
v -1.330184 0.907182 0.996684
v -1.330159 0.906596 0.929498
v -1.329557 1.158088 -0.639935
v -1.329582 1.158674 -0.572750
v -1.462141 1.025513 -0.638829
v -1.462167 1.026099 -0.571645
v -1.197003 1.026094 -0.571544
v -1.196977 1.025509 -0.638728
v -1.329588 0.893519 -0.570438
v -1.329562 0.892933 -0.637623
v -1.398646 0.971898 0.022650
v -1.398646 0.974952 0.372635
v -1.398646 0.887526 0.023386
v -1.398646 0.890580 0.373370
v -1.098648 0.974952 0.372635
v -1.098647 0.971898 0.022649
v -1.098647 0.890580 0.373371
v -1.098648 0.887526 0.023386
v -1.398647 0.970916 -0.089846
v -1.398646 0.971898 0.022650
v -1.398647 0.861546 -0.088891
v -1.398646 0.862528 0.023604
v -1.261147 0.971898 0.022649
v -1.261147 0.970916 -0.089846
v -1.261147 0.862528 0.023604
v -1.261147 0.861546 -0.088891
v -1.395521 0.698818 0.243790
v -1.395521 0.701872 0.593775
v -1.395521 0.614446 0.244526
v -1.395521 0.617500 0.594512
v -1.095523 0.701872 0.593775
v -1.095522 0.698818 0.243790
v -1.095522 0.617500 0.594512
v -1.095522 0.614446 0.244526
v -1.395521 0.697836 0.131294
v -1.395521 0.698818 0.243790
v -1.395521 0.588465 0.132249
v -1.395521 0.589446 0.244744
v -1.258022 0.698818 0.243789
v -1.258022 0.697836 0.131295
v -1.258022 0.589446 0.244744
v -1.258022 0.588465 0.132249
v -1.329641 0.894731 -0.431381
v -1.329666 0.895317 -0.364197
v -1.462226 0.762156 -0.430276
v -1.462251 0.762742 -0.363091
v -1.197087 0.762737 -0.362991
v -1.197061 0.762152 -0.430174
v -1.329672 0.630162 -0.361885
v -1.329646 0.629577 -0.429070
v -1.329641 0.859364 -0.432635
v -1.330264 0.873639 1.204797
v -1.426870 0.762142 -0.431826
v -1.427492 0.776418 1.205607
v -1.233039 0.776414 1.205681
v -1.232416 0.762138 -0.431751
v -1.330268 0.679192 1.206491
v -1.329645 0.664917 -0.430940
v -1.330237 0.908394 1.135740
v -1.330262 0.908980 1.202925
v -1.462822 0.775819 1.136846
v -1.462847 0.776405 1.204031
v -1.197683 0.776400 1.204132
v -1.197658 0.775814 1.136946
v -1.330268 0.643825 1.205238
v -1.330242 0.643239 1.138052
vn -0.0000 -0.0000 1.0000
vn -1.0000 -0.0000 -0.0000
vn -0.0000 -0.0000 -1.0000
vn 1.0000 -0.0000 -0.0000
vn -0.0000 1.0000 -0.0000
vn -0.0000 -1.0000 -0.0000
vn -0.0305 -0.0349 0.9989
vn -0.9995 -0.0005 -0.0305
vn 0.0305 0.0349 -0.9989
vn 0.9995 0.0005 0.0305
vn -0.0015 0.9994 0.0349
vn 0.0015 -0.9994 -0.0349
vn -0.0218 -0.0174 0.9996
vn -0.9998 -0.0006 -0.0218
vn 0.0218 0.0174 -0.9996
vn 0.9998 0.0006 0.0218
vn -0.0010 0.9998 0.0174
vn 0.0010 -0.9998 -0.0174
vn 0.0185 0.0185 0.9997
vn -0.7071 0.7071 -0.0000
vn -0.0185 -0.0185 -0.9997
vn 0.7071 -0.7071 -0.0000
vn 0.7069 0.7069 -0.0262
vn -0.7069 -0.7069 0.0262
vn 0.0218 -0.0174 0.9996
vn -0.9998 0.0006 0.0218
vn -0.0218 0.0174 -0.9996
vn 0.9998 -0.0006 -0.0218
vn 0.0010 0.9998 0.0174
vn -0.0010 -0.9998 -0.0174
vn 0.0305 -0.0349 0.9989
vn -0.9995 0.0005 0.0305
vn -0.0305 0.0349 -0.9989
vn 0.9995 -0.0005 -0.0305
vn 0.0015 0.9994 0.0349
vn -0.0015 -0.9994 -0.0349
vn 0.7071 0.7071 -0.0000
vn -0.7071 -0.7071 -0.0000
vn -0.0218 0.0349 0.9992
vn -0.9998 0.0002 -0.0218
vn 0.0218 -0.0349 -0.9992
vn 0.9998 -0.0002 0.0218
vn 0.0010 0.9994 -0.0349
vn -0.0010 -0.9994 0.0349
vn -0.0305 0.0523 0.9982
vn -0.9995 -0.0001 -0.0305
vn 0.0305 -0.0523 -0.9982
vn 0.9995 0.0001 0.0305
vn 0.0015 0.9986 -0.0523
vn -0.0015 -0.9986 0.0523
vn 0.0305 0.0523 0.9982
vn -0.9995 0.0001 0.0305
vn -0.0305 -0.0523 -0.9982
vn 0.9995 -0.0001 -0.0305
vn -0.0015 0.9986 -0.0523
vn 0.0015 -0.9986 0.0523
vn 0.0218 0.0349 0.9992
vn -0.9998 -0.0002 0.0218
vn -0.0218 -0.0349 -0.9992
vn 0.9998 0.0002 -0.0218
vn -0.0010 0.9994 -0.0349
vn 0.0010 -0.9994 0.0349
vt 0.113281 0.382812
vt 0.371094 0.365234
vt 0.673828 0.289062
vt 0.261719 0.388672
vt 0.119141 0.382812
vt 0.673828 0.283203
vt 0.113281 0.371094
vt 0.371094 0.353516
vt 0.298828 0.287109
vt 0.261719 0.376953
vt 0.119141 0.371094
vt 0.298828 0.281250
vt 0.273438 0.388672
vt 0.322266 0.382812
vt 0.685547 0.283203
vt 0.359375 0.365234
vt 0.328125 0.382812
vt 0.685547 0.289062
vt 0.273438 0.376953
vt 0.322266 0.371094
vt 0.310547 0.281250
vt 0.359375 0.353516
vt 0.328125 0.371094
vt 0.310547 0.287109
vt 0.144531 0.671875
vt 0.509766 0.375000
vt 0.414062 0.478516
vt 0.595703 0.812500
vt 0.148438 0.671875
vt 0.414062 0.474609
vt 0.144531 0.662109
vt 0.509766 0.365234
vt 0.212891 0.412109
vt 0.595703 0.802734
vt 0.148438 0.662109
vt 0.212891 0.408203
vt 0.605469 0.812500
vt 0.140625 0.578125
vt 0.423828 0.474609
vt 0.500000 0.375000
vt 0.144531 0.578125
vt 0.423828 0.478516
vt 0.605469 0.802734
vt 0.140625 0.568359
vt 0.222656 0.408203
vt 0.500000 0.365234
vt 0.144531 0.568359
vt 0.222656 0.412109
vt 0.730469 0.484375
vt 0.753906 0.240234
vt 0.423828 0.521484
vt 0.759766 0.250000
vt 0.771484 0.484375
vt 0.423828 0.480469
vt 0.730469 0.482422
vt 0.753906 0.238281
vt 0.349609 0.320312
vt 0.759766 0.248047
vt 0.771484 0.482422
vt 0.349609 0.279297
vt 0.761719 0.250000
vt 0.730469 0.482422
vt 0.425781 0.480469
vt 0.751953 0.240234
vt 0.771484 0.482422
vt 0.425781 0.521484
vt 0.761719 0.248047
vt 0.730469 0.480469
vt 0.351562 0.279297
vt 0.751953 0.238281
vt 0.771484 0.480469
vt 0.351562 0.320312
vt 0.253906 0.570312
vt 0.757812 0.240234
vt 0.445312 0.320312
vt 0.753906 0.240234
vt 0.291016 0.570312
vt 0.445312 0.283203
vt 0.253906 0.568359
vt 0.757812 0.238281
vt 0.531250 0.265625
vt 0.753906 0.238281
vt 0.291016 0.568359
vt 0.531250 0.228516
vt 0.755859 0.240234
vt 0.738281 0.710938
vt 0.447266 0.283203
vt 0.755859 0.240234
vt 0.775391 0.710938
vt 0.447266 0.320312
vt 0.755859 0.238281
vt 0.738281 0.708984
vt 0.533203 0.228516
vt 0.755859 0.238281
vt 0.775391 0.708984
vt 0.533203 0.265625
vt 0.314453 0.837891
vt 0.761719 0.240234
vt 0.251953 0.513672
vt 0.757812 0.240234
vt 0.361328 0.837891
vt 0.251953 0.466797
vt 0.314453 0.835938
vt 0.761719 0.238281
vt 0.144531 0.333984
vt 0.757812 0.238281
vt 0.361328 0.835938
vt 0.144531 0.287109
vt 0.759766 0.240234
vt 0.724609 1.000000
vt 0.253906 0.466797
vt 0.759766 0.240234
vt 0.771484 1.000000
vt 0.253906 0.513672
vt 0.759766 0.238281
vt 0.724609 0.998047
vt 0.146484 0.287109
vt 0.759766 0.238281
vt 0.771484 0.998047
vt 0.146484 0.333984
vt 0.738281 0.708984
vt 0.003906 0.238281
vt 0.533203 0.265625
vt 0.000000 0.238281
vt 0.775391 0.708984
vt 0.533203 0.228516
vt 0.738281 0.707031
vt 0.003906 0.236328
vt 0.023438 0.263672
vt 0.000000 0.236328
vt 0.775391 0.707031
vt 0.023438 0.226562
vt 0.001953 0.238281
vt 0.738281 0.609375
vt 0.535156 0.228516
vt 0.001953 0.238281
vt 0.775391 0.609375
vt 0.535156 0.265625
vt 0.001953 0.236328
vt 0.738281 0.607422
vt 0.025391 0.226562
vt 0.001953 0.236328
vt 0.775391 0.607422
vt 0.025391 0.263672
vt 0.734375 0.453125
vt 0.007812 0.238281
vt 0.410156 0.271484
vt 0.003906 0.238281
vt 0.775391 0.453125
vt 0.410156 0.230469
vt 0.734375 0.451172
vt 0.007812 0.236328
vt 0.646484 0.271484
vt 0.003906 0.236328
vt 0.775391 0.451172
vt 0.646484 0.230469
vt 0.005859 0.238281
vt 0.734375 0.419922
vt 0.412109 0.230469
vt 0.005859 0.238281
vt 0.775391 0.419922
vt 0.412109 0.271484
vt 0.005859 0.236328
vt 0.734375 0.417969
vt 0.648438 0.230469
vt 0.005859 0.236328
vt 0.775391 0.417969
vt 0.648438 0.271484
vt 0.246094 0.433594
vt 0.603516 0.947266
vt 0.759766 0.804688
vt 0.441406 0.695312
vt 0.248047 0.433594
vt 0.759766 0.802734
vt 0.246094 0.429688
vt 0.603516 0.943359
vt 0.759766 0.802734
vt 0.441406 0.691406
vt 0.248047 0.429688
vt 0.759766 0.800781
vt 0.445312 0.695312
vt 0.156250 0.394531
vt 0.763672 0.802734
vt 0.599609 0.947266
vt 0.158203 0.394531
vt 0.763672 0.804688
vt 0.445312 0.691406
vt 0.156250 0.390625
vt 0.763672 0.800781
vt 0.599609 0.943359
vt 0.158203 0.390625
vt 0.763672 0.802734
vt 0.738281 0.607422
vt 0.011719 0.238281
vt 0.144531 0.263672
vt 0.007812 0.238281
vt 0.775391 0.607422
vt 0.144531 0.226562
vt 0.738281 0.605469
vt 0.011719 0.236328
vt 0.162109 0.263672
vt 0.007812 0.236328
vt 0.775391 0.605469
vt 0.162109 0.226562
vt 0.009766 0.238281
vt 0.738281 0.585938
vt 0.146484 0.226562
vt 0.009766 0.238281
vt 0.775391 0.585938
vt 0.146484 0.263672
vt 0.009766 0.236328
vt 0.738281 0.583984
vt 0.164062 0.226562
vt 0.009766 0.236328
vt 0.775391 0.583984
vt 0.164062 0.263672
vt 0.734375 0.417969
vt 0.015625 0.238281
vt 0.273438 0.269531
vt 0.011719 0.238281
vt 0.775391 0.417969
vt 0.273438 0.228516
vt 0.734375 0.416016
vt 0.015625 0.236328
vt 0.500000 0.267578
vt 0.011719 0.236328
vt 0.775391 0.416016
vt 0.500000 0.226562
vt 0.013672 0.238281
vt 0.736328 0.994141
vt 0.275391 0.228516
vt 0.013672 0.238281
vt 0.777344 0.994141
vt 0.275391 0.269531
vt 0.013672 0.236328
vt 0.736328 0.992188
vt 0.501953 0.226562
vt 0.013672 0.236328
vt 0.777344 0.992188
vt 0.501953 0.267578
vt 0.736328 0.992188
vt 0.048828 0.238281
vt 0.080078 0.265625
vt 0.044922 0.238281
vt 0.777344 0.992188
vt 0.080078 0.224609
vt 0.736328 0.990234
vt 0.048828 0.236328
vt 0.332031 0.265625
vt 0.044922 0.236328
vt 0.777344 0.990234
vt 0.332031 0.224609
vt 0.046875 0.238281
vt 0.736328 0.552734
vt 0.082031 0.224609
vt 0.046875 0.238281
vt 0.777344 0.552734
vt 0.082031 0.265625
vt 0.046875 0.236328
vt 0.736328 0.550781
vt 0.333984 0.224609
vt 0.046875 0.236328
vt 0.777344 0.550781
vt 0.333984 0.265625
vt 0.738281 0.583984
vt 0.056641 0.238281
vt 0.197266 0.263672
vt 0.052734 0.238281
vt 0.775391 0.583984
vt 0.197266 0.226562
vt 0.738281 0.582031
vt 0.056641 0.236328
vt 0.226562 0.263672
vt 0.052734 0.236328
vt 0.775391 0.582031
vt 0.226562 0.226562
vt 0.054688 0.238281
vt 0.738281 0.570312
vt 0.199219 0.226562
vt 0.054688 0.238281
vt 0.775391 0.570312
vt 0.199219 0.263672
vt 0.054688 0.236328
vt 0.738281 0.568359
vt 0.228516 0.226562
vt 0.054688 0.236328
vt 0.775391 0.568359
vt 0.228516 0.263672
vt 0.681641 0.900391
vt 0.685547 0.582031
vt 0.757812 0.687500
vt 0.412109 0.326172
vt 0.683594 0.900391
vt 0.757812 0.685547
vt 0.681641 0.892578
vt 0.685547 0.574219
vt 0.335938 0.242188
vt 0.412109 0.318359
vt 0.683594 0.892578
vt 0.335938 0.240234
vt 0.417969 0.326172
vt 0.263672 0.318359
vt 0.763672 0.685547
vt 0.679688 0.582031
vt 0.265625 0.318359
vt 0.763672 0.687500
vt 0.417969 0.318359
vt 0.263672 0.310547
vt 0.341797 0.240234
vt 0.679688 0.574219
vt 0.265625 0.310547
vt 0.341797 0.242188
vt 0.724609 0.998047
vt 0.060547 0.238281
vt 0.439453 0.302734
vt 0.056641 0.238281
vt 0.771484 0.998047
vt 0.439453 0.255859
vt 0.724609 0.996094
vt 0.060547 0.236328
vt 0.087891 0.283203
vt 0.056641 0.236328
vt 0.771484 0.996094
vt 0.087891 0.236328
vt 0.058594 0.238281
vt 0.724609 0.996094
vt 0.441406 0.255859
vt 0.058594 0.238281
vt 0.771484 0.996094
vt 0.441406 0.302734
vt 0.058594 0.236328
vt 0.724609 0.994141
vt 0.089844 0.236328
vt 0.058594 0.236328
vt 0.771484 0.994141
vt 0.089844 0.283203
vt 0.757812 0.644531
vt 0.064453 0.238281
vt 0.673828 0.753906
vt 0.060547 0.238281
vt 0.763672 0.644531
vt 0.673828 0.748047
vt 0.757812 0.642578
vt 0.064453 0.236328
vt 0.677734 0.849609
vt 0.060547 0.236328
vt 0.763672 0.642578
vt 0.677734 0.843750
vt 0.062500 0.238281
vt 0.357422 0.242188
vt 0.675781 0.748047
vt 0.062500 0.238281
vt 0.363281 0.242188
vt 0.675781 0.753906
vt 0.062500 0.236328
vt 0.357422 0.240234
vt 0.679688 0.843750
vt 0.062500 0.236328
vt 0.363281 0.240234
vt 0.679688 0.849609
vt 0.753906 0.246094
vt 0.068359 0.238281
vt 0.681641 0.343750
vt 0.064453 0.238281
vt 0.761719 0.246094
vt 0.681641 0.335938
vt 0.753906 0.244141
vt 0.068359 0.236328
vt 0.683594 0.642578
vt 0.064453 0.236328
vt 0.761719 0.244141
vt 0.683594 0.634766
vt 0.066406 0.238281
vt 0.000000 0.244141
vt 0.683594 0.335938
vt 0.066406 0.238281
vt 0.007812 0.244141
vt 0.683594 0.343750
vt 0.066406 0.236328
vt 0.000000 0.242188
vt 0.685547 0.634766
vt 0.066406 0.236328
vt 0.007812 0.242188
vt 0.685547 0.642578
vt 0.007812 0.244141
vt 0.103516 0.238281
vt 0.046875 0.310547
vt 0.099609 0.238281
vt 0.015625 0.244141
vt 0.046875 0.302734
vt 0.007812 0.242188
vt 0.103516 0.236328
vt 0.691406 0.326172
vt 0.099609 0.236328
vt 0.015625 0.242188
vt 0.691406 0.318359
vt 0.101562 0.238281
vt 0.755859 0.974609
vt 0.048828 0.302734
vt 0.101562 0.238281
vt 0.763672 0.974609
vt 0.048828 0.310547
vt 0.101562 0.236328
vt 0.755859 0.972656
vt 0.693359 0.318359
vt 0.101562 0.236328
vt 0.763672 0.972656
vt 0.693359 0.326172
s 1
usemtl btr4_tex_4.png
f 380/1100/104 383/1109/104 381/1103/104 378/1094/104
f 379/1097/105 380/1101/105 378/1095/105 377/1091/105
f 384/1112/106 379/1098/106 377/1092/106 382/1106/106
f 383/1110/107 384/1113/107 382/1107/107 381/1104/107
f 382/1108/108 377/1093/108 378/1096/108 381/1105/108
f 383/1111/109 380/1102/109 379/1099/109 384/1114/109
f 388/1124/104 391/1133/104 389/1127/104 386/1118/104
f 387/1121/105 388/1125/105 386/1119/105 385/1115/105
f 392/1136/106 387/1122/106 385/1116/106 390/1130/106
f 391/1134/107 392/1137/107 390/1131/107 389/1128/107
f 390/1132/108 385/1117/108 386/1120/108 389/1129/108
f 391/1135/109 388/1126/109 387/1123/109 392/1138/109
f 396/1148/110 399/1157/110 397/1151/110 394/1142/110
f 395/1145/111 396/1149/111 394/1143/111 393/1139/111
f 400/1160/112 395/1146/112 393/1140/112 398/1154/112
f 399/1158/113 400/1161/113 398/1155/113 397/1152/113
f 398/1156/114 393/1141/114 394/1144/114 397/1153/114
f 399/1159/115 396/1150/115 395/1147/115 400/1162/115
f 404/1172/116 407/1181/116 405/1175/116 402/1166/116
f 403/1169/117 404/1173/117 402/1167/117 401/1163/117
f 408/1184/118 403/1170/118 401/1164/118 406/1178/118
f 407/1182/119 408/1185/119 406/1179/119 405/1176/119
f 406/1180/120 401/1165/120 402/1168/120 405/1177/120
f 407/1183/121 404/1174/121 403/1171/121 408/1186/121
f 412/1196/122 415/1205/122 413/1199/122 410/1190/122
f 411/1193/123 412/1197/123 410/1191/123 409/1187/123
f 416/1208/124 411/1194/124 409/1188/124 414/1202/124
f 415/1206/125 416/1209/125 414/1203/125 413/1200/125
f 414/1204/126 409/1189/126 410/1192/126 413/1201/126
f 415/1207/127 412/1198/127 411/1195/127 416/1210/127
f 420/1220/128 423/1229/128 421/1223/128 418/1214/128
f 419/1217/129 420/1221/129 418/1215/129 417/1211/129
f 424/1232/130 419/1218/130 417/1212/130 422/1226/130
f 423/1230/131 424/1233/131 422/1227/131 421/1224/131
f 422/1228/132 417/1213/132 418/1216/132 421/1225/132
f 423/1231/133 420/1222/133 419/1219/133 424/1234/133
f 428/1244/134 431/1253/134 429/1247/134 426/1238/134
f 427/1241/135 428/1245/135 426/1239/135 425/1235/135
f 432/1256/136 427/1242/136 425/1236/136 430/1250/136
f 431/1254/137 432/1257/137 430/1251/137 429/1248/137
f 430/1252/138 425/1237/138 426/1240/138 429/1249/138
f 431/1255/139 428/1246/139 427/1243/139 432/1258/139
f 436/1268/104 439/1277/104 437/1271/104 434/1262/104
f 435/1265/123 436/1269/123 434/1263/123 433/1259/123
f 440/1280/106 435/1266/106 433/1260/106 438/1274/106
f 439/1278/125 440/1281/125 438/1275/125 437/1272/125
f 438/1276/140 433/1261/140 434/1264/140 437/1273/140
f 439/1279/141 436/1270/141 435/1267/141 440/1282/141
f 444/1292/142 447/1301/142 445/1295/142 442/1286/142
f 443/1289/143 444/1293/143 442/1287/143 441/1283/143
f 448/1304/144 443/1290/144 441/1284/144 446/1298/144
f 447/1302/145 448/1305/145 446/1299/145 445/1296/145
f 446/1300/146 441/1285/146 442/1288/146 445/1297/146
f 447/1303/147 444/1294/147 443/1291/147 448/1306/147
f 452/1316/148 455/1325/148 453/1319/148 450/1310/148
f 451/1313/149 452/1317/149 450/1311/149 449/1307/149
f 456/1328/150 451/1314/150 449/1308/150 454/1322/150
f 455/1326/151 456/1329/151 454/1323/151 453/1320/151
f 454/1324/152 449/1309/152 450/1312/152 453/1321/152
f 455/1327/153 452/1318/153 451/1315/153 456/1330/153
f 460/1340/154 463/1349/154 461/1343/154 458/1334/154
f 459/1337/155 460/1341/155 458/1335/155 457/1331/155
f 464/1352/156 459/1338/156 457/1332/156 462/1346/156
f 463/1350/157 464/1353/157 462/1347/157 461/1344/157
f 462/1348/158 457/1333/158 458/1336/158 461/1345/158
f 463/1351/159 460/1342/159 459/1339/159 464/1354/159
f 468/1364/160 471/1373/160 469/1367/160 466/1358/160
f 467/1361/161 468/1365/161 466/1359/161 465/1355/161
f 472/1376/162 467/1362/162 465/1356/162 470/1370/162
f 471/1374/163 472/1377/163 470/1371/163 469/1368/163
f 470/1372/164 465/1357/164 466/1360/164 469/1369/164
f 471/1375/165 468/1366/165 467/1363/165 472/1378/165
f 476/1388/104 479/1397/104 477/1391/104 474/1382/104
f 475/1385/105 476/1389/105 474/1383/105 473/1379/105
f 480/1400/106 475/1386/106 473/1380/106 478/1394/106
f 479/1398/107 480/1401/107 478/1395/107 477/1392/107
f 478/1396/108 473/1381/108 474/1384/108 477/1393/108
f 479/1399/109 476/1390/109 475/1387/109 480/1402/109
f 484/1412/122 487/1421/122 485/1415/122 482/1406/122
f 483/1409/123 484/1413/123 482/1407/123 481/1403/123
f 488/1424/124 483/1410/124 481/1404/124 486/1418/124
f 487/1422/125 488/1425/125 486/1419/125 485/1416/125
f 486/1420/126 481/1405/126 482/1408/126 485/1417/126
f 487/1423/127 484/1414/127 483/1411/127 488/1426/127
f 492/1436/104 495/1445/104 493/1439/104 490/1430/104
f 491/1433/123 492/1437/123 490/1431/123 489/1427/123
f 496/1448/106 491/1434/106 489/1428/106 494/1442/106
f 495/1446/125 496/1449/125 494/1443/125 493/1440/125
f 494/1444/140 489/1429/140 490/1432/140 493/1441/140
f 495/1447/141 492/1438/141 491/1435/141 496/1450/141
f 500/1460/104 503/1469/104 501/1463/104 498/1454/104
f 499/1457/123 500/1461/123 498/1455/123 497/1451/123
f 504/1472/106 499/1458/106 497/1452/106 502/1466/106
f 503/1470/125 504/1473/125 502/1467/125 501/1464/125
f 502/1468/140 497/1453/140 498/1456/140 501/1465/140
f 503/1471/141 500/1462/141 499/1459/141 504/1474/141
f 508/1484/104 511/1493/104 509/1487/104 506/1478/104
f 507/1481/123 508/1485/123 506/1479/123 505/1475/123
f 512/1496/106 507/1482/106 505/1476/106 510/1490/106
f 511/1494/125 512/1497/125 510/1491/125 509/1488/125
f 510/1492/140 505/1477/140 506/1480/140 509/1489/140
f 511/1495/141 508/1486/141 507/1483/141 512/1498/141
