# Blender 3.3.21
# www.blender.org
mtllib chest.mtl
o chest
v -0.433056 -0.423360 -0.402429
v 0.433056 -0.423360 -0.402429
v 0.433056 -0.423360 0.463683
v -0.433056 0.182919 -0.402429
v 0.433056 0.182918 -0.402428
v 0.433056 0.182918 0.463683
v -0.433056 -0.423360 0.463683
v -0.433056 0.182919 0.463683
v -0.433056 0.122385 -0.402429
v 0.433056 0.122384 -0.402429
v 0.433056 0.122384 0.463684
v -0.433056 0.122385 0.463683
v -0.433055 0.423360 -0.402429
v 0.433056 0.423360 -0.402428
v 0.433056 0.423360 0.463684
v -0.433056 0.423360 0.463683
v 0.060056 0.242901 -0.463683
v -0.062454 0.242901 -0.463683
v 0.060056 0.242901 -0.401147
v 0.060056 0.001323 -0.401147
v -0.062454 0.242901 -0.401147
v 0.060056 0.001323 -0.463683
v -0.062454 0.001323 -0.463683
v -0.062454 0.001323 -0.401147
vn -0.0000 -1.0000 -0.0000
vn -0.0000 1.0000 -0.0000
vn -0.0000 -0.0000 -1.0000
vn -0.0000 -0.0000 1.0000
vn 1.0000 -0.0000 -0.0000
vn -1.0000 -0.0000 -0.0000
vt 0.655790 0.484857
vt 0.436732 0.328677
vt 0.438000 0.328586
vt 0.437960 0.484898
vt 0.219517 0.328677
vt 0.218079 0.328604
vt 0.437960 0.702605
vt 0.874450 0.328568
vt 0.000875 0.328604
vt 0.436693 0.485184
vt 0.436732 0.483825
vt 0.438000 0.484023
vt 0.219560 0.485185
vt 0.219517 0.483825
vt 0.218080 0.483891
vt 0.219560 0.702321
vt 0.874450 0.483673
vt 0.000875 0.483891
vt 0.655790 0.702564
vt 0.656709 0.328568
vt 0.655755 0.328586
vt 0.436693 0.702321
vt 0.656709 0.483673
vt 0.655756 0.484023
vt 0.655773 0.781958
vt 0.437103 0.703272
vt 0.437748 0.703321
vt 0.437715 0.781958
vt 0.219151 0.703272
vt 0.218143 0.703601
vt 0.437715 0.999382
vt 0.000483 0.703601
vt 0.874339 0.703584
vt 0.655773 0.999382
vt 0.656916 0.703583
vt 0.655853 0.703321
vt 0.437285 0.781258
vt 0.437103 0.781106
vt 0.437748 0.781059
vt 0.219297 0.781258
vt 0.219151 0.781106
vt 0.218143 0.780762
vt 0.219298 0.999501
vt 0.000483 0.780762
vt 0.874339 0.780758
vt 0.437285 0.999501
vt 0.656916 0.780757
vt 0.655853 0.781059
vt 0.015902 0.983806
vt 0.000399 0.983713
vt 0.016144 0.984412
vt 0.046581 0.983806
vt 0.047042 0.983713
vt 0.046352 0.984412
vt 0.015221 0.983713
vt 0.016144 0.999947
vt 0.093467 0.983806
vt 0.015221 0.922538
vt 0.047394 0.999802
vt 0.093467 0.922446
vt 0.062335 0.983713
vt 0.046352 0.999947
vt 0.062788 0.983806
vt 0.015902 0.922446
vt 0.000399 0.922538
vt 0.047394 0.984558
vt 0.046581 0.922446
vt 0.047042 0.922538
vt 0.077602 0.984558
vt 0.062335 0.922538
vt 0.077602 0.999802
vt 0.062788 0.922446
s 0
usemtl Material.001
f 1/1/1 2/4/1 3/7/1 7/19/1
f 4/10/2 8/22/2 6/16/2 5/13/2
f 1/2/3 4/11/3 5/14/3 2/5/3
f 8/23/4 7/20/4 3/8/4 6/17/4
f 6/18/5 3/9/5 2/6/5 5/15/5
f 4/12/6 1/3/6 7/21/6 8/24/6
f 9/25/1 10/28/1 11/31/1 12/34/1
f 13/37/2 16/46/2 15/43/2 14/40/2
f 9/26/3 13/38/3 14/41/3 10/29/3
f 10/30/5 14/42/5 15/44/5 11/32/5
f 11/33/4 15/45/4 16/47/4 12/35/4
f 13/39/6 9/27/6 12/36/6 16/48/6
f 23/67/3 18/52/3 17/49/3 22/64/3
f 24/70/6 21/61/6 18/53/6 23/68/6
f 20/58/5 22/65/5 17/50/5 19/55/5
f 23/69/1 22/66/1 20/59/1 24/71/1
f 18/54/2 21/62/2 19/56/2 17/51/2
f 20/60/4 19/57/4 21/63/4 24/72/4
