# Blender 3.3.21
# www.blender.org
mtllib d30.mtl
o body
v -0.066678 0.623384 3.381390
v -0.067768 0.623384 3.443879
v -0.066678 0.498384 3.381390
v -0.067768 0.498384 3.443879
v -0.005278 0.623384 3.444971
v -0.004188 0.623384 3.382480
v -0.005278 0.498384 3.444971
v -0.004188 0.498384 3.382480
v -0.443318 0.045780 3.705874
v -0.009697 0.045780 4.064167
v -0.443318 -0.004220 3.705874
v -0.009697 -0.004220 4.064167
v 0.348594 0.045780 3.630544
v -0.085027 0.045780 3.272253
v 0.348594 -0.004220 3.630544
v -0.085027 -0.004220 3.272253
v -0.225350 0.709111 -0.248842
v -0.192022 0.217975 3.531712
v -0.225001 0.479789 -0.278636
v -0.191674 -0.011348 3.501918
v 0.120462 0.218794 3.529064
v 0.087135 0.709930 -0.251490
v 0.120811 -0.010529 3.499270
v 0.087484 0.480608 -0.281284
v -2.773927 0.748385 -2.127519
v -2.873096 0.748385 -2.203614
v -2.773927 0.248385 -2.127519
v -2.873096 0.248385 -2.203615
v -2.949190 0.748385 -2.104445
v -2.850023 0.748385 -2.028351
v -2.949190 0.248385 -2.104445
v -2.850023 0.248385 -2.028351
v -2.819425 0.299424 -2.196296
v -3.041093 0.167843 -2.372943
v -2.763597 0.146363 -2.152340
v -2.985264 0.014781 -2.328988
v -3.251150 0.167084 -2.108785
v -3.029482 0.298665 -1.932137
v -3.195322 0.014022 -2.064830
v -2.973655 0.145604 -1.888182
v -2.696477 0.145781 -1.843730
v -2.711201 0.145781 -2.406032
v -2.696477 0.095781 -1.843730
v -2.711201 0.095781 -2.406032
v -3.273504 0.145781 -2.391308
v -3.258779 0.145781 -1.829006
v -3.273504 0.095781 -2.391308
v -3.258779 0.095781 -1.829006
v 0.069908 0.679884 0.120364
v -2.902734 0.354124 -2.244414
v 0.085696 0.449481 0.132256
v -2.886947 0.123720 -2.232523
v -3.097233 0.353421 -1.999825
v -0.124590 0.679182 0.364954
v -3.081444 0.123017 -1.987932
v -0.108802 0.448778 0.376847
v 2.850024 0.748385 -2.028351
v 2.949192 0.748385 -2.104445
v 2.850024 0.248385 -2.028351
v 2.949192 0.248385 -2.104445
v 2.873097 0.748385 -2.203614
v 2.773928 0.748385 -2.127519
v 2.873096 0.248385 -2.203614
v 2.773928 0.248385 -2.127519
v 3.029483 0.298665 -1.932137
v 3.251151 0.167084 -2.108784
v 2.973655 0.145604 -1.888181
v 3.195323 0.014022 -2.064831
v 3.041093 0.167843 -2.372942
v 2.819423 0.299424 -2.196294
v 2.985265 0.014781 -2.328987
v 2.763597 0.146363 -2.152339
v 3.258780 0.145781 -1.829006
v 3.273504 0.145781 -2.391308
v 3.258780 0.095781 -1.829006
v 3.273504 0.095781 -2.391308
v 2.711202 0.145781 -2.406031
v 2.696476 0.145781 -1.843728
v 2.711202 0.095781 -2.406031
v 2.696476 0.095781 -1.843728
v 0.124590 0.679182 0.364954
v 3.097233 0.353421 -1.999823
v 0.108802 0.448778 0.376847
v 3.081445 0.123017 -1.987932
v 2.902734 0.354124 -2.244413
v -0.069907 0.679884 0.120364
v 2.886947 0.123720 -2.232520
v -0.085696 0.449481 0.132256
v -0.192034 0.218794 3.529064
v -0.192035 -0.002177 3.750032
v -0.192035 0.099469 3.409740
v -0.192034 -0.121502 3.630709
v 0.114213 -0.002177 3.750032
v 0.114213 0.218794 3.529064
v 0.114212 -0.121502 3.630708
v 0.114213 0.099469 3.409740
v -0.150596 0.748384 2.817344
v -0.151686 0.748384 2.879834
v -0.150596 0.185884 2.817344
v -0.151686 0.185884 2.879834
v 0.098273 0.748384 2.884197
v 0.099364 0.748384 2.821707
v 0.098273 0.185884 2.884197
v 0.099364 0.185884 2.821707
v -0.097377 0.560884 3.349600
v -0.099559 0.560884 3.474579
v -0.097377 0.185884 3.349600
v -0.099559 0.185884 3.474579
v 0.025421 0.560884 3.476761
v 0.027603 0.560884 3.351781
v 0.025421 0.185884 3.476761
v 0.027603 0.185884 3.351781
v -0.537495 0.679364 -0.413763
v -0.537495 0.649376 0.273077
v -0.537495 0.329697 -0.429030
v -0.537495 0.299709 0.257810
v 0.462496 0.649376 0.273077
v 0.462496 0.679364 -0.413764
v 0.462496 0.299709 0.257810
v 0.462496 0.329697 -0.429030
vn -0.0175 -0.0000 0.9998
vn -0.9998 -0.0000 -0.0175
vn 0.0174 -0.0000 -0.9998
vn 0.9998 -0.0000 0.0174
vn -0.0000 1.0000 -0.0000
vn -0.0000 -1.0000 -0.0000
vn 0.7709 -0.0000 0.6370
vn -0.6370 -0.0000 0.7709
vn -0.7709 -0.0000 -0.6370
vn 0.6370 -0.0000 -0.7709
vn 0.0087 -0.1288 0.9916
vn -1.0000 -0.0026 0.0085
vn -0.0087 0.1288 -0.9916
vn 1.0000 0.0026 -0.0085
vn -0.0015 0.9917 0.1288
vn 0.0015 -0.9917 -0.1288
vn -0.7934 -0.0000 -0.6088
vn 0.6088 -0.0000 -0.7934
vn 0.7934 -0.0000 0.6088
vn -0.6088 -0.0000 0.7934
vn -0.7093 -0.4211 -0.5653
vn 0.6224 0.0022 -0.7827
vn 0.7093 0.4211 0.5653
vn -0.6224 -0.0022 0.7827
vn -0.3308 0.9070 -0.2605
vn 0.3308 -0.9070 0.2605
vn -0.0262 -0.0000 -0.9997
vn 0.9997 -0.0000 -0.0262
vn 0.0262 -0.0000 0.9997
vn -0.9997 -0.0000 0.0262
vn -0.7797 -0.0854 -0.6203
vn 0.7797 0.0854 0.6203
vn -0.0683 0.9963 -0.0514
vn 0.0683 -0.9963 0.0514
vn 0.7934 -0.0000 -0.6088
vn 0.6088 -0.0000 0.7934
vn -0.7933 -0.0000 0.6088
vn -0.6088 -0.0000 -0.7934
vn 0.7093 -0.4211 -0.5653
vn 0.6224 -0.0022 0.7827
vn -0.7093 0.4211 0.5653
vn -0.6224 0.0022 -0.7827
vn 0.3308 0.9070 -0.2605
vn -0.3308 -0.9070 0.2605
vn 0.0262 -0.0000 -0.9997
vn 0.9997 -0.0000 0.0262
vn -0.0262 -0.0000 0.9997
vn -0.9997 -0.0000 -0.0262
vn 0.7797 -0.0854 -0.6203
vn 0.6224 -0.0023 0.7827
vn -0.7797 0.0854 0.6203
vn 0.0683 0.9963 -0.0514
vn -0.0683 -0.9963 0.0514
vn -0.0000 -0.7071 0.7071
vn -1.0000 -0.0000 -0.0000
vn -0.0000 0.7071 -0.7071
vn 1.0000 -0.0000 -0.0000
vn -0.0000 0.7071 0.7071
vn -0.0000 -0.7071 -0.7071
vn -0.9998 -0.0000 -0.0174
vn 0.0175 -0.0000 -0.9998
vn 0.9998 -0.0000 0.0175
vn -0.0000 -0.0436 0.9990
vn -0.0000 0.0436 -0.9990
vn -0.0000 0.9990 0.0436
vn -0.0000 -0.9990 -0.0436
vt 0.144531 0.511719
vt 0.066406 0.488281
vt 0.183594 0.484375
vt 0.476562 0.593750
vt 0.148438 0.511719
vt 0.183594 0.480469
vt 0.144531 0.503906
vt 0.066406 0.480469
vt 0.218750 0.484375
vt 0.476562 0.585938
vt 0.148438 0.503906
vt 0.218750 0.480469
vt 0.480469 0.593750
vt 0.136719 0.488281
vt 0.187500 0.480469
vt 0.062500 0.488281
vt 0.140625 0.488281
vt 0.187500 0.484375
vt 0.480469 0.585938
vt 0.136719 0.480469
vt 0.222656 0.480469
vt 0.062500 0.480469
vt 0.140625 0.480469
vt 0.222656 0.484375
vt 0.496094 0.667969
vt 0.535156 0.855469
vt 0.246094 0.699219
vt 0.363281 0.750000
vt 0.531250 0.667969
vt 0.246094 0.664062
vt 0.496094 0.664062
vt 0.535156 0.851562
vt 0.085938 0.695312
vt 0.363281 0.746094
vt 0.531250 0.664062
vt 0.085938 0.660156
vt 0.398438 0.750000
vt 0.500000 0.851562
vt 0.281250 0.664062
vt 0.500000 0.855469
vt 0.535156 0.851562
vt 0.281250 0.699219
vt 0.398438 0.746094
vt 0.500000 0.847656
vt 0.121094 0.660156
vt 0.500000 0.851562
vt 0.535156 0.847656
vt 0.121094 0.695312
vt 0.117188 1.000000
vt 0.339844 0.531250
vt 0.000000 1.000000
vt 0.300781 0.531250
vt 0.355469 1.000000
vt 0.000000 0.761719
vt 0.117188 0.984375
vt 0.339844 0.515625
vt 0.019531 1.000000
vt 0.300781 0.515625
vt 0.355469 0.984375
vt 0.019531 0.761719
vt 0.320312 0.531250
vt 0.117188 0.984375
vt 0.019531 0.761719
vt 0.320312 0.531250
vt 0.355469 0.984375
vt 0.019531 1.000000
vt 0.320312 0.515625
vt 0.117188 0.968750
vt 0.039062 0.761719
vt 0.320312 0.515625
vt 0.355469 0.968750
vt 0.039062 1.000000
vt 0.238281 0.523438
vt 0.253906 0.523438
vt 0.511719 0.875000
vt 0.230469 0.523438
vt 0.246094 0.523438
vt 0.511719 0.867188
vt 0.238281 0.492188
vt 0.253906 0.492188
vt 0.128906 0.488281
vt 0.230469 0.492188
vt 0.246094 0.492188
vt 0.128906 0.480469
vt 0.238281 0.523438
vt 0.253906 0.523438
vt 0.519531 0.867188
vt 0.246094 0.523438
vt 0.261719 0.523438
vt 0.519531 0.875000
vt 0.238281 0.492188
vt 0.253906 0.492188
vt 0.136719 0.480469
vt 0.246094 0.492188
vt 0.261719 0.492188
vt 0.136719 0.488281
vt 0.488281 0.640625
vt 0.507812 0.628906
vt 0.019531 0.558594
vt 0.347656 0.511719
vt 0.507812 0.640625
vt 0.019531 0.539062
vt 0.488281 0.628906
vt 0.507812 0.617188
vt 0.039062 0.558594
vt 0.347656 0.500000
vt 0.507812 0.628906
vt 0.039062 0.539062
vt 0.367188 0.511719
vt 0.402344 0.511719
vt 0.039062 0.539062
vt 0.488281 0.628906
vt 0.421875 0.511719
vt 0.039062 0.558594
vt 0.367188 0.500000
vt 0.402344 0.500000
vt 0.058594 0.539062
vt 0.488281 0.617188
vt 0.421875 0.500000
vt 0.058594 0.558594
vt 0.500000 0.816406
vt 0.535156 0.812500
vt 0.156250 0.675781
vt 0.500000 0.820312
vt 0.535156 0.816406
vt 0.156250 0.640625
vt 0.500000 0.812500
vt 0.535156 0.808594
vt 0.191406 0.675781
vt 0.500000 0.816406
vt 0.535156 0.812500
vt 0.191406 0.640625
vt 0.535156 0.820312
vt 0.500000 0.753906
vt 0.191406 0.640625
vt 0.500000 0.812500
vt 0.535156 0.753906
vt 0.191406 0.675781
vt 0.535156 0.816406
vt 0.500000 0.750000
vt 0.226562 0.640625
vt 0.500000 0.808594
vt 0.535156 0.750000
vt 0.226562 0.675781
vt 0.117188 0.937500
vt 0.148438 0.527344
vt 0.078125 1.000000
vt 0.109375 0.527344
vt 0.355469 0.937500
vt 0.078125 0.761719
vt 0.117188 0.921875
vt 0.148438 0.511719
vt 0.097656 1.000000
vt 0.109375 0.511719
vt 0.355469 0.921875
vt 0.097656 0.761719
vt 0.128906 0.527344
vt 0.117188 0.921875
vt 0.097656 0.761719
vt 0.128906 0.527344
vt 0.355469 0.921875
vt 0.097656 1.000000
vt 0.128906 0.511719
vt 0.117188 0.906250
vt 0.117188 0.761719
vt 0.128906 0.511719
vt 0.355469 0.906250
vt 0.117188 1.000000
vt 0.433594 0.527344
vt 0.054688 0.523438
vt 0.511719 0.882812
vt 0.070312 0.527344
vt 0.441406 0.527344
vt 0.511719 0.875000
vt 0.433594 0.496094
vt 0.054688 0.492188
vt 0.121094 0.488281
vt 0.070312 0.496094
vt 0.441406 0.496094
vt 0.121094 0.480469
vt 0.078125 0.527344
vt 0.097656 0.523438
vt 0.519531 0.875000
vt 0.046875 0.523438
vt 0.105469 0.523438
vt 0.519531 0.882812
vt 0.078125 0.496094
vt 0.097656 0.492188
vt 0.128906 0.480469
vt 0.046875 0.492188
vt 0.105469 0.492188
vt 0.128906 0.488281
vt 0.488281 0.792969
vt 0.507812 0.781250
vt 0.437500 0.605469
vt 0.199219 0.511719
vt 0.507812 0.792969
vt 0.437500 0.585938
vt 0.488281 0.781250
vt 0.507812 0.769531
vt 0.000000 0.558594
vt 0.199219 0.500000
vt 0.507812 0.781250
vt 0.000000 0.539062
vt 0.218750 0.511719
vt 0.488281 0.726562
vt 0.457031 0.585938
vt 0.488281 0.781250
vt 0.507812 0.726562
vt 0.457031 0.605469
vt 0.218750 0.500000
vt 0.488281 0.714844
vt 0.019531 0.539062
vt 0.488281 0.769531
vt 0.507812 0.714844
vt 0.019531 0.558594
vt 0.500000 0.832031
vt 0.535156 0.828125
vt 0.121094 0.695312
vt 0.500000 0.847656
vt 0.535156 0.832031
vt 0.121094 0.660156
vt 0.500000 0.828125
vt 0.535156 0.824219
vt 0.308594 0.882812
vt 0.500000 0.843750
vt 0.535156 0.828125
vt 0.308594 0.847656
vt 0.535156 0.847656
vt 0.500000 0.824219
vt 0.156250 0.660156
vt 0.500000 0.828125
vt 0.535156 0.824219
vt 0.156250 0.695312
vt 0.535156 0.843750
vt 0.500000 0.820312
vt 0.343750 0.847656
vt 0.500000 0.824219
vt 0.535156 0.820312
vt 0.343750 0.882812
vt 0.117188 0.968750
vt 0.488281 0.632812
vt 0.039062 1.000000
vt 0.339844 0.531250
vt 0.355469 0.968750
vt 0.039062 0.761719
vt 0.117188 0.953125
vt 0.488281 0.617188
vt 0.058594 1.000000
vt 0.339844 0.515625
vt 0.355469 0.953125
vt 0.058594 0.761719
vt 0.359375 0.531250
vt 0.117188 0.953125
vt 0.058594 0.761719
vt 0.468750 0.632812
vt 0.355469 0.953125
vt 0.058594 1.000000
vt 0.359375 0.515625
vt 0.117188 0.937500
vt 0.078125 0.761719
vt 0.468750 0.617188
vt 0.355469 0.937500
vt 0.078125 1.000000
vt 0.484375 0.535156
vt 0.125000 0.511719
vt 0.324219 0.562500
vt 0.328125 0.515625
vt 0.503906 0.535156
vt 0.324219 0.542969
vt 0.484375 0.523438
vt 0.125000 0.500000
vt 0.343750 0.562500
vt 0.328125 0.503906
vt 0.503906 0.523438
vt 0.343750 0.542969
vt 0.347656 0.515625
vt 0.125000 0.511719
vt 0.343750 0.542969
vt 0.105469 0.511719
vt 0.144531 0.511719
vt 0.343750 0.562500
vt 0.347656 0.503906
vt 0.125000 0.500000
vt 0.363281 0.542969
vt 0.105469 0.500000
vt 0.144531 0.500000
vt 0.363281 0.562500
vt 0.242188 0.585938
vt 0.398438 1.000000
vt 0.507812 0.671875
vt 0.160156 0.796875
vt 0.246094 0.585938
vt 0.507812 0.667969
vt 0.242188 0.550781
vt 0.398438 0.964844
vt 0.507812 0.539062
vt 0.160156 0.761719
vt 0.246094 0.550781
vt 0.507812 0.535156
vt 0.175781 0.796875
vt 0.222656 0.562500
vt 0.523438 0.667969
vt 0.382812 1.000000
vt 0.226562 0.562500
vt 0.523438 0.671875
vt 0.175781 0.761719
vt 0.222656 0.527344
vt 0.523438 0.535156
vt 0.382812 0.964844
vt 0.226562 0.527344
vt 0.523438 0.539062
vt 0.144531 0.503906
vt 0.160156 0.503906
vt 0.511719 0.890625
vt 0.261719 0.507812
vt 0.152344 0.503906
vt 0.511719 0.882812
vt 0.144531 0.480469
vt 0.160156 0.480469
vt 0.113281 0.488281
vt 0.261719 0.484375
vt 0.152344 0.480469
vt 0.113281 0.480469
vt 0.269531 0.507812
vt 0.160156 0.503906
vt 0.519531 0.882812
vt 0.152344 0.503906
vt 0.167969 0.503906
vt 0.519531 0.890625
vt 0.269531 0.484375
vt 0.160156 0.480469
vt 0.121094 0.480469
vt 0.152344 0.480469
vt 0.167969 0.480469
vt 0.121094 0.488281
vt 0.289062 0.656250
vt 0.363281 0.769531
vt 0.203125 0.906250
vt 0.171875 0.699219
vt 0.332031 0.656250
vt 0.203125 0.863281
vt 0.289062 0.632812
vt 0.363281 0.746094
vt 0.203125 0.863281
vt 0.171875 0.675781
vt 0.332031 0.632812
vt 0.203125 0.820312
vt 0.234375 0.699219
vt 0.332031 0.656250
vt 0.265625 0.863281
vt 0.300781 0.769531
vt 0.375000 0.656250
vt 0.265625 0.906250
vt 0.234375 0.675781
vt 0.332031 0.632812
vt 0.265625 0.820312
vt 0.300781 0.746094
vt 0.375000 0.632812
vt 0.265625 0.863281
s 1
usemtl m_a3a1b16e-335e-0761-a197-096eef4148fd
f 4/10/1 7/19/1 5/13/1 2/4/1
f 3/7/2 4/11/2 2/5/2 1/1/2
f 8/22/3 3/8/3 1/2/3 6/16/3
f 7/20/4 8/23/4 6/17/4 5/14/4
f 6/18/5 1/3/5 2/6/5 5/15/5
f 7/21/6 4/12/6 3/9/6 8/24/6
f 12/34/7 15/43/7 13/37/7 10/28/7
f 11/31/8 12/35/8 10/29/8 9/25/8
f 16/46/9 11/32/9 9/26/9 14/40/9
f 15/44/10 16/47/10 14/41/10 13/38/10
f 14/42/5 9/27/5 10/30/5 13/39/5
f 15/45/6 12/36/6 11/33/6 16/48/6
f 20/58/11 23/67/11 21/61/11 18/52/11
f 19/55/12 20/59/12 18/53/12 17/49/12
f 24/70/13 19/56/13 17/50/13 22/64/13
f 23/68/14 24/71/14 22/65/14 21/62/14
f 22/66/15 17/51/15 18/54/15 21/63/15
f 23/69/16 20/60/16 19/57/16 24/72/16
f 28/82/17 31/91/17 29/85/17 26/76/17
f 27/79/18 28/83/18 26/77/18 25/73/18
f 32/94/19 27/80/19 25/74/19 30/88/19
f 31/92/20 32/95/20 30/89/20 29/86/20
f 30/90/5 25/75/5 26/78/5 29/87/5
f 31/93/6 28/84/6 27/81/6 32/96/6
f 36/106/21 39/115/21 37/109/21 34/100/21
f 35/103/22 36/107/22 34/101/22 33/97/22
f 40/118/23 35/104/23 33/98/23 38/112/23
f 39/116/24 40/119/24 38/113/24 37/110/24
f 38/114/25 33/99/25 34/102/25 37/111/25
f 39/117/26 36/108/26 35/105/26 40/120/26
f 44/130/27 47/139/27 45/133/27 42/124/27
f 43/127/28 44/131/28 42/125/28 41/121/28
f 48/142/29 43/128/29 41/122/29 46/136/29
f 47/140/30 48/143/30 46/137/30 45/134/30
f 46/138/5 41/123/5 42/126/5 45/135/5
f 47/141/6 44/132/6 43/129/6 48/144/6
f 52/154/31 55/163/31 53/157/31 50/148/31
f 51/151/22 52/155/22 50/149/22 49/145/22
f 56/166/32 51/152/32 49/146/32 54/160/32
f 55/164/24 56/167/24 54/161/24 53/158/24
f 54/162/33 49/147/33 50/150/33 53/159/33
f 55/165/34 52/156/34 51/153/34 56/168/34
f 60/178/35 63/187/35 61/181/35 58/172/35
f 59/175/36 60/179/36 58/173/36 57/169/36
f 64/190/37 59/176/37 57/170/37 62/184/37
f 63/188/38 64/191/38 62/185/38 61/182/38
f 62/186/5 57/171/5 58/174/5 61/183/5
f 63/189/6 60/180/6 59/177/6 64/192/6
f 68/202/39 71/211/39 69/205/39 66/196/39
f 67/199/40 68/203/40 66/197/40 65/193/40
f 72/214/41 67/200/41 65/194/41 70/208/41
f 71/212/42 72/215/42 70/209/42 69/206/42
f 70/210/43 65/195/43 66/198/43 69/207/43
f 71/213/44 68/204/44 67/201/44 72/216/44
f 76/226/45 79/235/45 77/229/45 74/220/45
f 75/223/46 76/227/46 74/221/46 73/217/46
f 80/238/47 75/224/47 73/218/47 78/232/47
f 79/236/48 80/239/48 78/233/48 77/230/48
f 78/234/5 73/219/5 74/222/5 77/231/5
f 79/237/6 76/228/6 75/225/6 80/240/6
f 84/250/49 87/259/49 85/253/49 82/244/49
f 83/247/50 84/251/50 82/245/50 81/241/50
f 88/262/51 83/248/51 81/242/51 86/256/51
f 87/260/42 88/263/42 86/257/42 85/254/42
f 86/258/52 81/243/52 82/246/52 85/255/52
f 87/261/53 84/252/53 83/249/53 88/264/53
f 92/274/54 95/283/54 93/277/54 90/268/54
f 91/271/55 92/275/55 90/269/55 89/265/55
f 96/286/56 91/272/56 89/266/56 94/280/56
f 95/284/57 96/287/57 94/281/57 93/278/57
f 94/282/58 89/267/58 90/270/58 93/279/58
f 95/285/59 92/276/59 91/273/59 96/288/59
f 100/298/1 103/307/1 101/301/1 98/292/1
f 99/295/60 100/299/60 98/293/60 97/289/60
f 104/310/61 99/296/61 97/290/61 102/304/61
f 103/308/62 104/311/62 102/305/62 101/302/62
f 102/306/5 97/291/5 98/294/5 101/303/5
f 103/309/6 100/300/6 99/297/6 104/312/6
f 108/322/1 111/331/1 109/325/1 106/316/1
f 107/319/2 108/323/2 106/317/2 105/313/2
f 112/334/61 107/320/61 105/314/61 110/328/61
f 111/332/62 112/335/62 110/329/62 109/326/62
f 110/330/5 105/315/5 106/318/5 109/327/5
f 111/333/6 108/324/6 107/321/6 112/336/6
f 116/346/63 119/355/63 117/349/63 114/340/63
f 115/343/55 116/347/55 114/341/55 113/337/55
f 120/358/64 115/344/64 113/338/64 118/352/64
f 119/356/57 120/359/57 118/353/57 117/350/57
f 118/354/65 113/339/65 114/342/65 117/351/65
f 119/357/66 116/348/66 115/345/66 120/360/66
