# Blender 3.3.21
# www.blender.org
mtllib detal.mtl
o detal1
v 1.187902 0.655351 -0.417996
v 1.187902 0.599401 0.221515
v 1.187902 0.566880 -0.425736
v 1.187902 0.510930 0.213775
v 1.886714 0.599401 0.221515
v 1.886714 0.655351 -0.417996
v 1.886714 0.510930 0.213775
v 1.886714 0.566880 -0.425736
v -1.052114 0.374003 0.243495
v -1.052114 0.158023 0.452064
v -1.083032 0.372690 0.242135
v -1.083032 0.156710 0.450704
v -1.039380 0.013392 0.302294
v -1.039380 0.229372 0.093725
v -1.070298 0.012079 0.300934
v -1.070298 0.228058 0.092365
v -1.886714 0.655351 -0.417996
v -1.886714 0.599401 0.221516
v -1.886714 0.566880 -0.425736
v -1.886714 0.510930 0.213775
v -1.187902 0.599401 0.221515
v -1.187902 0.655351 -0.417996
v -1.187902 0.510930 0.213775
v -1.187902 0.566880 -0.425736
v -2.031888 0.588372 -0.414878
v -2.026723 0.533232 0.213071
v -2.007655 0.536079 -0.419669
v -2.002491 0.480938 0.208280
v -1.886103 0.597980 0.217601
v -1.891267 0.653120 -0.410349
v -1.861870 0.545687 0.212809
v -1.867035 0.600827 -0.415140
v -1.886714 0.598984 0.219031
v -1.886714 0.538279 0.471886
v -1.886714 0.568864 0.211800
v -1.886714 0.508159 0.464655
v -1.187902 0.538279 0.471886
v -1.187902 0.598984 0.219031
v -1.187902 0.508159 0.464655
v -1.187902 0.568864 0.211800
v -1.187751 0.420098 0.587415
v -1.174434 0.331825 0.634703
v -1.217671 0.409961 0.576918
v -1.204354 0.321688 0.624206
v -1.039169 0.209156 0.367623
v -1.052486 0.297430 0.320335
v -1.069089 0.199019 0.357125
v -1.082406 0.287293 0.309837
v -1.187902 0.538279 0.471886
v -1.187902 0.348388 0.655261
v -1.215743 0.528846 0.462118
v -1.215743 0.338956 0.645493
v -1.052114 0.154991 0.454992
v -1.052114 0.344882 0.271617
v -1.079955 0.145559 0.445225
v -1.079955 0.335449 0.261849
v -1.187887 0.546425 0.467001
v -1.173185 0.522846 0.495602
v -1.214208 0.528065 0.465395
v -1.199507 0.504486 0.493996
v -1.043381 0.354721 0.290273
v -1.058082 0.378300 0.261672
v -1.069702 0.336361 0.288666
v -1.084404 0.359940 0.260066
v -0.804830 0.122676 -0.008560
v -0.626356 0.206359 0.220383
v -1.253615 0.206608 0.310615
v -1.075142 0.290290 0.539557
v -0.623781 0.151476 0.238436
v -0.802255 0.067793 0.009493
v -1.072567 0.235407 0.557611
v -1.251040 0.151724 0.328668
v -1.044322 0.479585 -1.133082
v -1.044322 0.355062 0.290231
v -1.075268 0.478239 -1.133200
v -1.075268 0.353716 0.290113
v -1.036215 0.170092 0.274048
v -1.036215 0.294615 -1.149265
v -1.067161 0.168746 0.273930
v -1.067161 0.293269 -1.149382
v -1.186456 0.680794 -1.103868
v -1.186456 0.543780 0.462211
v -1.211830 0.663095 -1.105416
v -1.211830 0.526081 0.460662
v -1.044322 0.341563 0.444519
v -1.044322 0.478577 -1.121559
v -1.069695 0.323864 0.442971
v -1.069695 0.460878 -1.123108
v -2.027081 0.491330 0.426232
v -2.027081 0.305670 0.605522
v -1.990418 0.436714 0.369676
v -1.990418 0.251054 0.548965
v -1.886714 0.351138 0.652606
v -1.886714 0.536798 0.473316
v -1.850051 0.296522 0.596049
v -1.850051 0.482182 0.416759
v -2.026469 0.534334 0.202321
v -2.026469 0.473359 0.456300
v -1.989807 0.457884 0.183966
v -1.989807 0.396909 0.437946
v -1.886103 0.537005 0.471580
v -1.886103 0.597980 0.217601
v -1.849440 0.460555 0.453226
v -1.849440 0.521529 0.199246
v -1.886714 0.538279 0.471886
v -1.886714 0.351138 0.652606
v -1.886714 0.516762 0.449604
v -1.886714 0.329621 0.630324
v -1.187902 0.351138 0.652606
v -1.187902 0.538279 0.471886
v -1.187902 0.329621 0.630324
v -1.187902 0.516762 0.449604
v 1.187902 0.538279 0.471885
v 1.187902 0.351138 0.652605
v 1.187902 0.516762 0.449603
v 1.187902 0.329621 0.630323
v 1.886714 0.351138 0.652605
v 1.886714 0.538279 0.471885
v 1.886714 0.329621 0.630323
v 1.886714 0.516762 0.449603
v 1.886103 0.597980 0.217600
v 1.886103 0.537005 0.471579
v 1.849440 0.521529 0.199246
v 1.849441 0.460555 0.453225
v 2.026469 0.473359 0.456299
v 2.026469 0.534334 0.202320
v 1.989807 0.396909 0.437945
v 1.989807 0.457884 0.183966
v 1.891267 0.653120 -0.410350
v 1.886103 0.597980 0.217600
v 1.867035 0.600827 -0.415141
v 1.861870 0.545687 0.212809
v 2.026723 0.533232 0.213071
v 2.031888 0.588372 -0.414879
v 2.002491 0.480938 0.208280
v 2.007655 0.536079 -0.419670
v 1.886714 0.536798 0.473315
v 1.886714 0.351138 0.652605
v 1.850052 0.482182 0.416759
v 1.850052 0.296522 0.596049
v 2.027081 0.305670 0.605521
v 2.027081 0.491330 0.426232
v 1.990418 0.251054 0.548965
v 1.990418 0.436714 0.369675
v 1.044322 0.478577 -1.121560
v 1.044322 0.341563 0.444519
v 1.069695 0.460878 -1.123108
v 1.069695 0.323864 0.442970
v 1.186456 0.543780 0.462210
v 1.186456 0.680794 -1.103868
v 1.211830 0.526081 0.460662
v 1.211830 0.663095 -1.105416
v 1.036215 0.294615 -1.149265
v 1.036215 0.170092 0.274048
v 1.067161 0.293269 -1.149383
v 1.067161 0.168746 0.273930
v 1.044322 0.355062 0.290231
v 1.044322 0.479585 -1.133082
v 1.075268 0.353716 0.290113
v 1.075268 0.478239 -1.133200
v 1.058082 0.378300 0.261672
v 1.043381 0.354721 0.290272
v 1.084404 0.359940 0.260065
v 1.069702 0.336361 0.288666
v 1.173186 0.522846 0.495602
v 1.187887 0.546425 0.467001
v 1.199507 0.504486 0.493995
v 1.214209 0.528065 0.465395
v 1.052114 0.344882 0.271617
v 1.052114 0.154991 0.454992
v 1.079955 0.335449 0.261849
v 1.079955 0.145559 0.445224
v 1.187902 0.348388 0.655261
v 1.187902 0.538279 0.471885
v 1.215743 0.338956 0.645493
v 1.215743 0.528846 0.462118
v 1.039380 0.229372 0.093724
v 1.039380 0.013392 0.302294
v 1.070298 0.228058 0.092364
v 1.070298 0.012079 0.300933
v 1.052114 0.158023 0.452064
v 1.052114 0.374003 0.243495
v 1.083032 0.156710 0.450703
v 1.083032 0.372690 0.242134
v 1.052486 0.297430 0.320334
v 1.039169 0.209156 0.367622
v 1.082406 0.287293 0.309837
v 1.069089 0.199019 0.357125
v 1.174434 0.331825 0.634703
v 1.187751 0.420098 0.587415
v 1.204354 0.321688 0.624206
v 1.217671 0.409961 0.576918
v 1.187902 0.598984 0.219031
v 1.187902 0.538279 0.471885
v 1.187902 0.568864 0.211800
v 1.187902 0.508159 0.464654
v 1.886714 0.538279 0.471885
v 1.886714 0.598984 0.219031
v 1.886714 0.508159 0.464654
v 1.886714 0.568864 0.211799
v 0.802255 0.067793 0.009493
v 0.623781 0.151476 0.238436
v 1.251040 0.151724 0.328668
v 1.072567 0.235407 0.557610
v 0.626357 0.206359 0.220382
v 0.804830 0.122676 -0.008560
v 1.075142 0.290290 0.539557
v 1.253615 0.206608 0.310615
vn -0.0000 -0.0872 0.9962
vn -1.0000 -0.0000 -0.0000
vn -0.0000 0.0872 -0.9962
vn 1.0000 -0.0000 -0.0000
vn -0.0000 0.9962 0.0872
vn -0.0000 -0.9962 -0.0872
vn -0.0000 -0.7193 0.6947
vn -0.0610 0.6934 0.7180
vn -0.0000 0.7193 -0.6947
vn 0.0610 -0.6934 -0.7180
vn 0.9981 0.0424 0.0439
vn -0.9981 -0.0424 -0.0439
vn 0.0082 -0.0875 0.9961
vn -0.9079 -0.4181 -0.0292
vn -0.0082 0.0875 -0.9961
vn 0.9079 0.4181 0.0292
vn -0.4190 0.9042 0.0828
vn 0.4190 -0.9042 -0.0828
vn -0.0000 -0.2334 0.9724
vn -0.0000 0.2334 -0.9724
vn -0.0000 0.9724 0.2334
vn -0.0000 -0.9724 -0.2334
vn 0.1318 -0.8738 0.4681
vn -0.4181 0.3791 0.8255
vn -0.1318 0.8738 -0.4681
vn 0.4181 -0.3791 -0.8255
vn 0.8988 0.3045 0.3153
vn -0.8988 -0.3045 -0.3153
vn -0.4384 0.6244 0.6465
vn 0.4384 -0.6244 -0.6465
vn 0.3687 -0.5913 0.7172
vn -0.4394 0.5691 0.6950
vn -0.3687 0.5913 -0.7172
vn 0.4394 -0.5691 -0.6950
vn 0.8192 0.5714 0.0500
vn -0.8192 -0.5714 -0.0500
vn 0.5908 0.2770 0.7578
vn -0.0445 0.9490 -0.3122
vn -0.5908 -0.2770 -0.7578
vn 0.0445 -0.9490 0.3122
vn 0.8056 -0.1507 -0.5730
vn -0.8056 0.1507 0.5730
vn -0.0436 0.9952 0.0871
vn 0.0436 -0.9952 -0.0871
vn 0.9990 0.0435 0.0038
vn -0.9990 -0.0435 -0.0038
vn -0.5736 0.8160 0.0714
vn 0.5736 -0.8160 -0.0714
vn -0.9063 -0.2936 -0.3040
vn 0.9063 0.2936 0.3040
vn -0.4226 0.6296 0.6519
vn 0.4226 -0.6296 -0.6519
vn -0.9063 -0.4109 -0.0987
vn 0.9063 0.4109 0.0987
vn -0.4226 0.8813 0.2116
vn 0.4226 -0.8813 -0.2116
vn -0.0000 0.6947 0.7193
vn -0.0000 -0.6947 -0.7193
vn -0.9063 0.4109 0.0987
vn 0.9063 -0.4109 -0.0987
vn 0.4226 0.8813 0.2116
vn -0.4226 -0.8813 -0.2116
vn -0.0082 -0.0875 0.9961
vn -0.9079 0.4181 0.0292
vn 0.0082 0.0875 -0.9961
vn 0.9079 -0.4181 -0.0292
vn 0.4190 0.9042 0.0828
vn -0.4190 -0.9042 -0.0828
vn -0.9063 0.2936 0.3040
vn 0.9063 -0.2936 -0.3040
vn 0.4226 0.6296 0.6519
vn -0.4226 -0.6296 -0.6519
vn -0.5736 -0.8160 -0.0714
vn 0.5736 0.8160 0.0714
vn -0.8192 0.5714 0.0500
vn 0.8192 -0.5714 -0.0500
vn -0.0436 -0.9952 -0.0871
vn 0.0436 0.9952 0.0871
vn -0.9990 0.0435 0.0038
vn 0.9990 -0.0435 -0.0038
vn -0.3687 -0.5913 0.7172
vn -0.4394 -0.5691 -0.6950
vn 0.3687 0.5913 -0.7172
vn 0.4394 0.5691 0.6950
vn -0.4384 -0.6244 -0.6465
vn 0.4384 0.6244 0.6465
vn -0.8988 0.3045 0.3153
vn 0.8988 -0.3045 -0.3153
vn -0.0610 -0.6934 -0.7180
vn 0.0610 0.6934 0.7180
vn -0.9981 0.0424 0.0439
vn 0.9981 -0.0424 -0.0439
vn -0.1318 -0.8738 0.4681
vn -0.4181 -0.3791 -0.8255
vn 0.1318 0.8738 -0.4681
vn 0.4181 0.3791 0.8255
vn -0.5908 0.2770 0.7578
vn -0.0445 -0.9490 0.3122
vn 0.5908 -0.2770 -0.7578
vn 0.0445 0.9490 -0.3122
vn -0.8056 -0.1507 -0.5730
vn 0.8056 0.1507 0.5730
vt 0.621094 0.433594
vt 0.628906 0.494141
vt 0.362305 0.572266
vt 0.617188 0.553711
vt 0.631836 0.433594
vt 0.362305 0.561523
vt 0.621094 0.431641
vt 0.628906 0.492188
vt 0.375000 0.572266
vt 0.617188 0.551758
vt 0.631836 0.431641
vt 0.375000 0.561523
vt 0.628906 0.553711
vt 0.622070 0.946289
vt 0.374023 0.561523
vt 0.617188 0.494141
vt 0.632812 0.946289
vt 0.374023 0.572266
vt 0.628906 0.551758
vt 0.622070 0.944336
vt 0.386719 0.561523
vt 0.617188 0.492188
vt 0.632812 0.944336
vt 0.386719 0.572266
vt 0.692383 0.540039
vt 0.394531 0.300781
vt 0.625000 0.397461
vt 0.699219 0.611328
vt 0.697266 0.540039
vt 0.625000 0.392578
vt 0.692383 0.539062
vt 0.394531 0.299805
vt 0.011719 0.374023
vt 0.699219 0.610352
vt 0.697266 0.539062
vt 0.011719 0.369141
vt 0.703125 0.611328
vt 0.692383 0.499023
vt 0.628906 0.392578
vt 0.390625 0.300781
vt 0.697266 0.499023
vt 0.628906 0.397461
vt 0.703125 0.610352
vt 0.692383 0.498047
vt 0.015625 0.369141
vt 0.390625 0.299805
vt 0.697266 0.498047
vt 0.015625 0.374023
vt 0.622070 0.887695
vt 0.431641 0.380859
vt 0.387695 0.572266
vt 0.386719 0.380859
vt 0.632812 0.887695
vt 0.387695 0.561523
vt 0.622070 0.885742
vt 0.431641 0.378906
vt 0.326172 0.571289
vt 0.386719 0.378906
vt 0.632812 0.885742
vt 0.326172 0.560547
vt 0.398438 0.380859
vt 0.622070 0.797852
vt 0.399414 0.561523
vt 0.419922 0.380859
vt 0.632812 0.797852
vt 0.399414 0.572266
vt 0.398438 0.378906
vt 0.622070 0.795898
vt 0.337891 0.560547
vt 0.419922 0.378906
vt 0.632812 0.795898
vt 0.337891 0.571289
vt 0.529297 0.342773
vt 0.705078 0.793945
vt 0.305664 0.400391
vt 0.702148 0.795898
vt 0.540039 0.342773
vt 0.305664 0.389648
vt 0.529297 0.341797
vt 0.705078 0.792969
vt 0.309570 0.400391
vt 0.702148 0.794922
vt 0.540039 0.341797
vt 0.309570 0.389648
vt 0.705078 0.795898
vt 0.551758 0.342773
vt 0.308594 0.389648
vt 0.702148 0.793945
vt 0.562500 0.342773
vt 0.308594 0.400391
vt 0.705078 0.794922
vt 0.551758 0.341797
vt 0.312500 0.389648
vt 0.702148 0.792969
vt 0.562500 0.341797
vt 0.312500 0.400391
vt 0.699219 0.617188
vt 0.660156 0.811523
vt 0.552734 0.440430
vt 0.648438 0.816406
vt 0.703125 0.617188
vt 0.552734 0.436523
vt 0.699219 0.616211
vt 0.660156 0.810547
vt 0.191406 0.439453
vt 0.648438 0.815430
vt 0.703125 0.616211
vt 0.191406 0.435547
vt 0.660156 0.816406
vt 0.385742 0.300781
vt 0.564453 0.436523
vt 0.648438 0.811523
vt 0.389648 0.300781
vt 0.564453 0.440430
vt 0.660156 0.815430
vt 0.385742 0.299805
vt 0.203125 0.435547
vt 0.648438 0.810547
vt 0.389648 0.299805
vt 0.203125 0.439453
vt 0.709961 0.980469
vt 0.693359 0.659180
vt 0.133789 0.351562
vt 0.687500 0.676758
vt 0.711914 0.980469
vt 0.133789 0.349609
vt 0.709961 0.979492
vt 0.693359 0.658203
vt 0.166992 0.351562
vt 0.687500 0.675781
vt 0.711914 0.979492
vt 0.166992 0.349609
vt 0.693359 0.676758
vt 0.709961 0.978516
vt 0.139648 0.349609
vt 0.687500 0.659180
vt 0.711914 0.978516
vt 0.139648 0.351562
vt 0.693359 0.675781
vt 0.709961 0.977539
vt 0.172852 0.349609
vt 0.687500 0.658203
vt 0.711914 0.977539
vt 0.172852 0.351562
vt 0.692383 0.549805
vt 0.697266 0.547852
vt 0.528320 0.388672
vt 0.692383 0.563477
vt 0.697266 0.549805
vt 0.528320 0.383789
vt 0.692383 0.548828
vt 0.697266 0.546875
vt 0.110352 0.387695
vt 0.692383 0.562500
vt 0.697266 0.548828
vt 0.110352 0.382812
vt 0.697266 0.563477
vt 0.692383 0.543945
vt 0.533203 0.383789
vt 0.692383 0.547852
vt 0.697266 0.543945
vt 0.533203 0.388672
vt 0.697266 0.562500
vt 0.692383 0.542969
vt 0.115234 0.382812
vt 0.692383 0.546875
vt 0.697266 0.542969
vt 0.115234 0.387695
vt 0.710938 0.871094
vt 0.697266 0.620117
vt 0.692383 0.588867
vt 0.692383 0.708984
vt 0.711914 0.871094
vt 0.692383 0.587891
vt 0.710938 0.870117
vt 0.697266 0.619141
vt 0.692383 0.586914
vt 0.692383 0.708008
vt 0.711914 0.870117
vt 0.692383 0.585938
vt 0.697266 0.708984
vt 0.710938 0.863281
vt 0.697266 0.587891
vt 0.692383 0.620117
vt 0.711914 0.863281
vt 0.697266 0.588867
vt 0.697266 0.708008
vt 0.710938 0.862305
vt 0.697266 0.585938
vt 0.692383 0.619141
vt 0.711914 0.862305
vt 0.697266 0.586914
vt 0.247070 0.450195
vt 0.125977 0.335938
vt 0.236328 0.306641
vt 0.663086 0.338867
vt 0.251953 0.450195
vt 0.236328 0.301758
vt 0.247070 0.440430
vt 0.125977 0.326172
vt 0.238281 0.306641
vt 0.663086 0.329102
vt 0.251953 0.440430
vt 0.238281 0.301758
vt 0.664062 0.338867
vt 0.347656 0.450195
vt 0.237305 0.301758
vt 0.125000 0.335938
vt 0.352539 0.450195
vt 0.237305 0.306641
vt 0.664062 0.329102
vt 0.347656 0.440430
vt 0.239258 0.301758
vt 0.125000 0.326172
vt 0.352539 0.440430
vt 0.239258 0.306641
vt 0.612305 0.627930
vt 0.705078 0.809570
vt 0.478516 0.500977
vt 0.188477 0.297852
vt 0.636719 0.627930
vt 0.478516 0.476562
vt 0.612305 0.626953
vt 0.705078 0.808594
vt 0.411133 0.500000
vt 0.188477 0.296875
vt 0.636719 0.626953
vt 0.411133 0.475586
vt 0.191406 0.297852
vt 0.613281 0.955078
vt 0.481445 0.476562
vt 0.702148 0.809570
vt 0.637695 0.955078
vt 0.481445 0.500977
vt 0.191406 0.296875
vt 0.613281 0.954102
vt 0.414062 0.475586
vt 0.702148 0.808594
vt 0.637695 0.954102
vt 0.414062 0.500000
vt 0.607422 0.811523
vt 0.703125 0.619141
vt 0.439453 0.538086
vt 0.699219 0.624023
vt 0.633789 0.811523
vt 0.439453 0.511719
vt 0.607422 0.810547
vt 0.703125 0.618164
vt 0.117188 0.537109
vt 0.699219 0.623047
vt 0.633789 0.810547
vt 0.117188 0.510742
vt 0.703125 0.624023
vt 0.607422 0.731445
vt 0.443359 0.511719
vt 0.699219 0.619141
vt 0.633789 0.731445
vt 0.443359 0.538086
vt 0.703125 0.623047
vt 0.607422 0.730469
vt 0.121094 0.510742
vt 0.699219 0.618164
vt 0.633789 0.730469
vt 0.121094 0.537109
vt 0.671875 0.458008
vt 0.691406 0.755859
vt 0.083984 0.351562
vt 0.688477 0.758789
vt 0.675781 0.458008
vt 0.083984 0.347656
vt 0.671875 0.456055
vt 0.691406 0.753906
vt 0.113281 0.351562
vt 0.688477 0.756836
vt 0.675781 0.456055
vt 0.113281 0.347656
vt 0.691406 0.758789
vt 0.153320 0.319336
vt 0.086914 0.347656
vt 0.688477 0.755859
vt 0.157227 0.319336
vt 0.086914 0.351562
vt 0.691406 0.756836
vt 0.153320 0.317383
vt 0.116211 0.347656
vt 0.688477 0.753906
vt 0.157227 0.317383
vt 0.116211 0.351562
vt 0.662109 0.366211
vt 0.691406 0.761719
vt 0.080078 0.357422
vt 0.688477 0.773438
vt 0.666992 0.366211
vt 0.080078 0.352539
vt 0.662109 0.364258
vt 0.691406 0.759766
vt 0.083984 0.357422
vt 0.688477 0.771484
vt 0.666992 0.364258
vt 0.083984 0.352539
vt 0.691406 0.773438
vt 0.663086 0.769531
vt 0.083008 0.352539
vt 0.688477 0.761719
vt 0.667969 0.769531
vt 0.083008 0.357422
vt 0.691406 0.771484
vt 0.663086 0.767578
vt 0.086914 0.352539
vt 0.688477 0.759766
vt 0.667969 0.767578
vt 0.086914 0.357422
vt 0.365234 0.300781
vt 0.660156 0.833008
vt 0.482422 0.440430
vt 0.648438 0.894531
vt 0.369141 0.300781
vt 0.482422 0.436523
vt 0.365234 0.299805
vt 0.660156 0.832031
vt 0.559570 0.503906
vt 0.648438 0.893555
vt 0.369141 0.299805
vt 0.559570 0.500000
vt 0.660156 0.894531
vt 0.699219 0.634766
vt 0.494141 0.436523
vt 0.648438 0.833008
vt 0.703125 0.634766
vt 0.494141 0.440430
vt 0.660156 0.893555
vt 0.699219 0.633789
vt 0.571289 0.500000
vt 0.648438 0.832031
vt 0.703125 0.633789
vt 0.571289 0.503906
vt 0.350586 0.300781
vt 0.660156 0.988281
vt 0.558594 0.603516
vt 0.648438 0.995117
vt 0.354492 0.300781
vt 0.558594 0.599609
vt 0.350586 0.299805
vt 0.660156 0.987305
vt 0.559570 0.892578
vt 0.648438 0.994141
vt 0.354492 0.299805
vt 0.559570 0.888672
vt 0.660156 0.995117
vt 0.699219 0.648438
vt 0.570312 0.599609
vt 0.648438 0.988281
vt 0.703125 0.648438
vt 0.570312 0.603516
vt 0.660156 0.994141
vt 0.699219 0.647461
vt 0.571289 0.888672
vt 0.648438 0.987305
vt 0.703125 0.647461
vt 0.571289 0.892578
vt 0.662109 0.420898
vt 0.690430 0.634766
vt 0.064453 0.357422
vt 0.687500 0.697266
vt 0.666992 0.420898
vt 0.064453 0.352539
vt 0.662109 0.418945
vt 0.690430 0.632812
vt 0.068359 0.357422
vt 0.687500 0.695312
vt 0.666992 0.418945
vt 0.068359 0.352539
vt 0.690430 0.697266
vt 0.662109 0.415039
vt 0.067383 0.352539
vt 0.687500 0.634766
vt 0.666992 0.415039
vt 0.067383 0.357422
vt 0.690430 0.695312
vt 0.662109 0.413086
vt 0.071289 0.352539
vt 0.687500 0.632812
vt 0.666992 0.413086
vt 0.071289 0.357422
vt 0.657227 0.491211
vt 0.153320 0.297852
vt 0.297852 0.400391
vt 0.702148 0.870117
vt 0.667969 0.491211
vt 0.297852 0.389648
vt 0.657227 0.490234
vt 0.153320 0.296875
vt 0.301758 0.400391
vt 0.702148 0.869141
vt 0.667969 0.490234
vt 0.301758 0.389648
vt 0.705078 0.870117
vt 0.517578 0.342773
vt 0.300781 0.389648
vt 0.150391 0.297852
vt 0.528320 0.342773
vt 0.300781 0.400391
vt 0.705078 0.869141
vt 0.517578 0.341797
vt 0.304688 0.389648
vt 0.150391 0.296875
vt 0.528320 0.341797
vt 0.304688 0.400391
vt 0.670898 0.478516
vt 0.691406 0.886719
vt 0.049805 0.351562
vt 0.687500 0.606445
vt 0.674805 0.478516
vt 0.049805 0.347656
vt 0.670898 0.476562
vt 0.691406 0.884766
vt 0.053711 0.351562
vt 0.687500 0.604492
vt 0.674805 0.476562
vt 0.053711 0.347656
vt 0.690430 0.606445
vt 0.670898 0.435547
vt 0.052734 0.347656
vt 0.688477 0.886719
vt 0.674805 0.435547
vt 0.052734 0.351562
vt 0.690430 0.604492
vt 0.670898 0.433594
vt 0.056641 0.347656
vt 0.688477 0.884766
vt 0.674805 0.433594
vt 0.056641 0.351562
vt 0.605469 0.799805
vt 0.703125 0.642578
vt 0.429688 0.538086
vt 0.699219 0.644531
vt 0.631836 0.799805
vt 0.429688 0.511719
vt 0.605469 0.798828
vt 0.703125 0.641602
vt 0.434570 0.538086
vt 0.699219 0.643555
vt 0.631836 0.798828
vt 0.434570 0.511719
vt 0.703125 0.644531
vt 0.606445 0.978516
vt 0.433594 0.511719
vt 0.699219 0.642578
vt 0.632812 0.978516
vt 0.433594 0.538086
vt 0.703125 0.643555
vt 0.606445 0.977539
vt 0.438477 0.511719
vt 0.699219 0.641602
vt 0.632812 0.977539
vt 0.438477 0.538086
vt 0.611328 0.479492
vt 0.705078 0.928711
vt 0.364258 0.501953
vt 0.702148 0.936523
vt 0.635742 0.479492
vt 0.364258 0.477539
vt 0.611328 0.478516
vt 0.705078 0.927734
vt 0.090820 0.500977
vt 0.702148 0.935547
vt 0.635742 0.478516
vt 0.090820 0.476562
vt 0.705078 0.936523
vt 0.612305 0.689453
vt 0.367188 0.477539
vt 0.702148 0.928711
vt 0.636719 0.689453
vt 0.367188 0.501953
vt 0.705078 0.935547
vt 0.612305 0.688477
vt 0.093750 0.476562
vt 0.702148 0.927734
vt 0.636719 0.688477
vt 0.093750 0.500977
vt 0.710938 0.875000
vt 0.696289 0.373047
vt 0.691406 0.333008
vt 0.691406 0.375000
vt 0.711914 0.875000
vt 0.691406 0.332031
vt 0.710938 0.874023
vt 0.696289 0.372070
vt 0.692383 0.836914
vt 0.691406 0.374023
vt 0.711914 0.874023
vt 0.692383 0.835938
vt 0.696289 0.375000
vt 0.125977 0.289062
vt 0.696289 0.332031
vt 0.691406 0.373047
vt 0.126953 0.289062
vt 0.696289 0.333008
vt 0.696289 0.374023
vt 0.125977 0.288086
vt 0.697266 0.835938
vt 0.691406 0.372070
vt 0.126953 0.288086
vt 0.697266 0.836914
vt 0.692383 0.795898
vt 0.697266 0.785156
vt 0.250000 0.388672
vt 0.692383 0.797852
vt 0.697266 0.795898
vt 0.250000 0.383789
vt 0.692383 0.794922
vt 0.697266 0.784180
vt 0.307617 0.388672
vt 0.692383 0.796875
vt 0.697266 0.794922
vt 0.307617 0.383789
vt 0.697266 0.797852
vt 0.692383 0.744141
vt 0.254883 0.383789
vt 0.692383 0.785156
vt 0.697266 0.744141
vt 0.254883 0.388672
vt 0.697266 0.796875
vt 0.692383 0.743164
vt 0.312500 0.383789
vt 0.692383 0.784180
vt 0.697266 0.743164
vt 0.312500 0.388672
vt 0.692383 0.738281
vt 0.703125 0.636719
vt 0.569336 0.375000
vt 0.699219 0.638672
vt 0.697266 0.738281
vt 0.569336 0.370117
vt 0.692383 0.737305
vt 0.703125 0.635742
vt 0.625000 0.403320
vt 0.699219 0.637695
vt 0.697266 0.737305
vt 0.625000 0.398438
vt 0.703125 0.638672
vt 0.692383 0.736328
vt 0.573242 0.370117
vt 0.699219 0.636719
vt 0.697266 0.736328
vt 0.573242 0.375000
vt 0.703125 0.637695
vt 0.692383 0.735352
vt 0.628906 0.398438
vt 0.699219 0.635742
vt 0.697266 0.735352
vt 0.628906 0.403320
vt 0.709961 0.984375
vt 0.693359 0.704102
vt 0.648438 0.976562
vt 0.687500 0.716797
vt 0.711914 0.984375
vt 0.648438 0.974609
vt 0.709961 0.983398
vt 0.693359 0.703125
vt 0.064453 0.351562
vt 0.687500 0.715820
vt 0.711914 0.983398
vt 0.064453 0.349609
vt 0.693359 0.716797
vt 0.709961 0.982422
vt 0.654297 0.974609
vt 0.687500 0.704102
vt 0.711914 0.982422
vt 0.654297 0.976562
vt 0.693359 0.715820
vt 0.709961 0.981445
vt 0.070312 0.349609
vt 0.687500 0.703125
vt 0.711914 0.981445
vt 0.070312 0.351562
vt 0.699219 0.640625
vt 0.083008 0.351562
vt 0.559570 0.754883
vt 0.648438 0.986328
vt 0.703125 0.640625
vt 0.559570 0.750977
vt 0.699219 0.639648
vt 0.083008 0.350586
vt 0.559570 0.587891
vt 0.648438 0.985352
vt 0.703125 0.639648
vt 0.559570 0.583984
vt 0.660156 0.986328
vt 0.360352 0.300781
vt 0.571289 0.750977
vt 0.071289 0.351562
vt 0.364258 0.300781
vt 0.571289 0.754883
vt 0.660156 0.985352
vt 0.360352 0.299805
vt 0.571289 0.583984
vt 0.071289 0.350586
vt 0.364258 0.299805
vt 0.571289 0.587891
vt 0.547852 0.658203
vt 0.563477 0.336914
vt 0.693359 0.886719
vt 0.100586 0.337891
vt 0.552734 0.658203
vt 0.693359 0.881836
vt 0.547852 0.648438
vt 0.563477 0.327148
vt 0.114258 0.306641
vt 0.100586 0.328125
vt 0.552734 0.648438
vt 0.114258 0.301758
vt 0.101562 0.337891
vt 0.547852 0.623047
vt 0.694336 0.881836
vt 0.562500 0.336914
vt 0.552734 0.623047
vt 0.694336 0.886719
vt 0.101562 0.328125
vt 0.547852 0.613281
vt 0.115234 0.301758
vt 0.562500 0.327148
vt 0.552734 0.613281
vt 0.115234 0.306641
s 0
usemtl m_c468fa65-bc7a-28d4-b1cd-3881abbe9ce4.001
f 4/10/1 7/19/1 5/13/1 2/4/1
f 3/7/2 4/11/2 2/5/2 1/1/2
f 8/22/3 3/8/3 1/2/3 6/16/3
f 7/20/4 8/23/4 6/17/4 5/14/4
f 6/18/5 1/3/5 2/6/5 5/15/5
f 7/21/6 4/12/6 3/9/6 8/24/6
f 12/34/7 15/43/7 13/37/7 10/28/7
f 11/31/8 12/35/8 10/29/8 9/25/8
f 16/46/9 11/32/9 9/26/9 14/40/9
f 15/44/10 16/47/10 14/41/10 13/38/10
f 14/42/11 9/27/11 10/30/11 13/39/11
f 15/45/12 12/36/12 11/33/12 16/48/12
f 20/58/1 23/67/1 21/61/1 18/52/1
f 19/55/2 20/59/2 18/53/2 17/49/2
f 24/70/3 19/56/3 17/50/3 22/64/3
f 23/68/4 24/71/4 22/65/4 21/62/4
f 22/66/5 17/51/5 18/54/5 21/63/5
f 23/69/6 20/60/6 19/57/6 24/72/6
f 28/82/13 31/91/13 29/85/13 26/76/13
f 27/79/14 28/83/14 26/77/14 25/73/14
f 32/94/15 27/80/15 25/74/15 30/88/15
f 31/92/16 32/95/16 30/89/16 29/86/16
f 30/90/17 25/75/17 26/78/17 29/87/17
f 31/93/18 28/84/18 27/81/18 32/96/18
f 36/106/19 39/115/19 37/109/19 34/100/19
f 35/103/2 36/107/2 34/101/2 33/97/2
f 40/118/20 35/104/20 33/98/20 38/112/20
f 39/116/4 40/119/4 38/113/4 37/110/4
f 38/114/21 33/99/21 34/102/21 37/111/21
f 39/117/22 36/108/22 35/105/22 40/120/22
f 44/130/23 47/139/23 45/133/23 42/124/23
f 43/127/24 44/131/24 42/125/24 41/121/24
f 48/142/25 43/128/25 41/122/25 46/136/25
f 47/140/26 48/143/26 46/137/26 45/134/26
f 46/138/27 41/123/27 42/126/27 45/135/27
f 47/141/28 44/132/28 43/129/28 48/144/28
f 52/154/7 55/163/7 53/157/7 50/148/7
f 51/151/29 52/155/29 50/149/29 49/145/29
f 56/166/9 51/152/9 49/146/9 54/160/9
f 55/164/30 56/167/30 54/161/30 53/158/30
f 54/162/27 49/147/27 50/150/27 53/159/27
f 55/165/28 52/156/28 51/153/28 56/168/28
f 60/178/31 63/187/31 61/181/31 58/172/31
f 59/175/32 60/179/32 58/173/32 57/169/32
f 64/190/33 59/176/33 57/170/33 62/184/33
f 63/188/34 64/191/34 62/185/34 61/182/34
f 62/186/35 57/171/35 58/174/35 61/183/35
f 63/189/36 60/180/36 59/177/36 64/192/36
f 68/202/37 71/211/37 69/205/37 66/196/37
f 67/199/38 68/203/38 66/197/38 65/193/38
f 72/214/39 67/200/39 65/194/39 70/208/39
f 71/212/40 72/215/40 70/209/40 69/206/40
f 70/210/41 65/195/41 66/198/41 69/207/41
f 71/213/42 68/204/42 67/201/42 72/216/42
f 76/226/1 79/235/1 77/229/1 74/220/1
f 75/223/43 76/227/43 74/221/43 73/217/43
f 80/238/3 75/224/3 73/218/3 78/232/3
f 79/236/44 80/239/44 78/233/44 77/230/44
f 78/234/45 73/219/45 74/222/45 77/231/45
f 79/237/46 76/228/46 75/225/46 80/240/46
f 84/250/1 87/259/1 85/253/1 82/244/1
f 83/247/47 84/251/47 82/245/47 81/241/47
f 88/262/3 83/248/3 81/242/3 86/256/3
f 87/260/48 88/263/48 86/257/48 85/254/48
f 86/258/35 81/243/35 82/246/35 85/255/35
f 87/261/36 84/252/36 83/249/36 88/264/36
f 92/274/7 95/283/7 93/277/7 90/268/7
f 91/271/49 92/275/49 90/269/49 89/265/49
f 96/286/9 91/272/9 89/266/9 94/280/9
f 95/284/50 96/287/50 94/281/50 93/278/50
f 94/282/51 89/267/51 90/270/51 93/279/51
f 95/285/52 92/276/52 91/273/52 96/288/52
f 100/298/19 103/307/19 101/301/19 98/292/19
f 99/295/53 100/299/53 98/293/53 97/289/53
f 104/310/20 99/296/20 97/290/20 102/304/20
f 103/308/54 104/311/54 102/305/54 101/302/54
f 102/306/55 97/291/55 98/294/55 101/303/55
f 103/309/56 100/300/56 99/297/56 104/312/56
f 108/322/7 111/331/7 109/325/7 106/316/7
f 107/319/2 108/323/2 106/317/2 105/313/2
f 112/334/9 107/320/9 105/314/9 110/328/9
f 111/332/4 112/335/4 110/329/4 109/326/4
f 110/330/57 105/315/57 106/318/57 109/327/57
f 111/333/58 108/324/58 107/321/58 112/336/58
f 116/346/7 119/355/7 117/349/7 114/340/7
f 115/343/2 116/347/2 114/341/2 113/337/2
f 120/358/9 115/344/9 113/338/9 118/352/9
f 119/356/4 120/359/4 118/353/4 117/350/4
f 118/354/57 113/339/57 114/342/57 117/351/57
f 119/357/58 116/348/58 115/345/58 120/360/58
f 124/370/19 127/379/19 125/373/19 122/364/19
f 123/367/59 124/371/59 122/365/59 121/361/59
f 128/382/20 123/368/20 121/362/20 126/376/20
f 127/380/60 128/383/60 126/377/60 125/374/60
f 126/378/61 121/363/61 122/366/61 125/375/61
f 127/381/62 124/372/62 123/369/62 128/384/62
f 132/394/63 135/403/63 133/397/63 130/388/63
f 131/391/64 132/395/64 130/389/64 129/385/64
f 136/406/65 131/392/65 129/386/65 134/400/65
f 135/404/66 136/407/66 134/401/66 133/398/66
f 134/402/67 129/387/67 130/390/67 133/399/67
f 135/405/68 132/396/68 131/393/68 136/408/68
f 140/418/7 143/427/7 141/421/7 138/412/7
f 139/415/69 140/419/69 138/413/69 137/409/69
f 144/430/9 139/416/9 137/410/9 142/424/9
f 143/428/70 144/431/70 142/425/70 141/422/70
f 142/426/71 137/411/71 138/414/71 141/423/71
f 143/429/72 140/420/72 139/417/72 144/432/72
f 148/442/1 151/451/1 149/445/1 146/436/1
f 147/439/73 148/443/73 146/437/73 145/433/73
f 152/454/3 147/440/3 145/434/3 150/448/3
f 151/452/74 152/455/74 150/449/74 149/446/74
f 150/450/75 145/435/75 146/438/75 149/447/75
f 151/453/76 148/444/76 147/441/76 152/456/76
f 156/466/1 159/475/1 157/469/1 154/460/1
f 155/463/77 156/467/77 154/461/77 153/457/77
f 160/478/3 155/464/3 153/458/3 158/472/3
f 159/476/78 160/479/78 158/473/78 157/470/78
f 158/474/79 153/459/79 154/462/79 157/471/79
f 159/477/80 156/468/80 155/465/80 160/480/80
f 164/490/81 167/499/81 165/493/81 162/484/81
f 163/487/82 164/491/82 162/485/82 161/481/82
f 168/502/83 163/488/83 161/482/83 166/496/83
f 167/500/84 168/503/84 166/497/84 165/494/84
f 166/498/75 161/483/75 162/486/75 165/495/75
f 167/501/76 164/492/76 163/489/76 168/504/76
f 172/514/7 175/523/7 173/517/7 170/508/7
f 171/511/85 172/515/85 170/509/85 169/505/85
f 176/526/9 171/512/9 169/506/9 174/520/9
f 175/524/86 176/527/86 174/521/86 173/518/86
f 174/522/87 169/507/87 170/510/87 173/519/87
f 175/525/88 172/516/88 171/513/88 176/528/88
f 180/538/7 183/547/7 181/541/7 178/532/7
f 179/535/89 180/539/89 178/533/89 177/529/89
f 184/550/9 179/536/9 177/530/9 182/544/9
f 183/548/90 184/551/90 182/545/90 181/542/90
f 182/546/91 177/531/91 178/534/91 181/543/91
f 183/549/92 180/540/92 179/537/92 184/552/92
f 188/562/93 191/571/93 189/565/93 186/556/93
f 187/559/94 188/563/94 186/557/94 185/553/94
f 192/574/95 187/560/95 185/554/95 190/568/95
f 191/572/96 192/575/96 190/569/96 189/566/96
f 190/570/87 185/555/87 186/558/87 189/567/87
f 191/573/88 188/564/88 187/561/88 192/576/88
f 196/586/19 199/595/19 197/589/19 194/580/19
f 195/583/2 196/587/2 194/581/2 193/577/2
f 200/598/20 195/584/20 193/578/20 198/592/20
f 199/596/4 200/599/4 198/593/4 197/590/4
f 198/594/21 193/579/21 194/582/21 197/591/21
f 199/597/22 196/588/22 195/585/22 200/600/22
f 204/610/97 207/619/97 205/613/97 202/604/97
f 203/607/98 204/611/98 202/605/98 201/601/98
f 208/622/99 203/608/99 201/602/99 206/616/99
f 207/620/100 208/623/100 206/617/100 205/614/100
f 206/618/101 201/603/101 202/606/101 205/615/101
f 207/621/102 204/612/102 203/609/102 208/624/102
