# Blender 3.6.23
# www.blender.org
mtllib fab500.mtl
o fab500
v -0.000001 0.397015 0.709623
v -0.000000 0.397015 1.109621
v -0.056568 0.340447 0.709623
v -0.056569 0.340447 1.109621
v 0.056569 0.340447 1.109620
v 0.056569 0.340447 0.709623
v -0.000000 0.283878 1.109621
v -0.000001 0.283878 0.709623
v 0.000000 0.616219 -0.567873
v -0.000001 0.616218 1.060871
v -0.275770 0.340447 -0.567874
v -0.275772 0.340447 1.060871
v 0.275770 0.340447 1.060871
v 0.275770 0.340447 -0.567872
v -0.000000 0.064675 1.060871
v 0.000000 0.064675 -0.567873
v 0.000000 0.685161 -0.324124
v -0.000000 0.685161 0.949621
v -0.344713 0.340447 -0.324124
v -0.344713 0.340447 0.949621
v 0.344714 0.340447 0.949621
v 0.344713 0.340447 -0.324123
v -0.000000 -0.004268 0.949621
v 0.000000 -0.004268 -0.324124
v 0.302287 0.298020 -1.055371
v 0.302288 0.298020 -0.324124
v 0.042426 0.038159 -1.055371
v 0.042426 0.038159 -0.324125
v 0.302288 0.298020 -0.324124
v 0.302287 0.298020 -1.055371
v 0.042426 0.038159 -0.324125
v 0.042426 0.038159 -1.055371
v -0.046846 0.638316 -1.055372
v -0.046846 0.638316 -0.324125
v -0.297868 0.387293 -1.055371
v -0.297868 0.387293 -0.324124
v -0.046846 0.638316 -0.324125
v -0.046846 0.638316 -1.055372
v -0.297868 0.387293 -0.324124
v -0.297868 0.387293 -1.055371
v 0.044194 0.640967 -1.055372
v 0.044193 0.640967 -0.324124
v 0.044194 0.640967 -1.055372
v 0.044193 0.640967 -0.324124
v 0.300518 0.384641 -0.324123
v 0.300519 0.384641 -1.055372
v 0.300518 0.384641 -0.324123
v 0.300519 0.384641 -1.055372
v 0.000001 0.478333 -1.104121
v 0.000001 0.478333 -0.436624
v -0.137885 0.340447 -1.104122
v -0.137885 0.340447 -0.436623
v 0.137886 0.340447 -0.436625
v 0.137886 0.340447 -1.104121
v 0.000001 0.202561 -0.436624
v 0.000001 0.202561 -1.104121
v -0.124185 0.499104 -1.108997
v -0.124185 0.499104 -0.082875
v -0.158656 0.464633 -1.108997
v -0.158658 0.464632 -0.082874
v 0.158656 0.216261 -0.082874
v 0.158656 0.216261 -1.108995
v 0.124186 0.181790 -0.082874
v 0.124185 0.181790 -1.108997
v -0.300519 0.296253 -1.055371
v -0.300520 0.296253 -0.324124
v -0.300519 0.296253 -1.055371
v -0.300520 0.296253 -0.324124
v -0.044194 0.039927 -0.324125
v -0.044194 0.039927 -1.055371
v -0.044194 0.039927 -0.324125
v -0.044194 0.039927 -1.055371
v -0.000000 0.685161 -1.055371
v -0.000000 0.685161 -1.055371
v -0.344713 0.340447 -1.055371
v -0.344713 0.340447 -1.055371
v 0.034471 0.650690 -1.055371
v 0.034471 0.650690 -1.055371
v -0.310243 0.305975 -1.055371
v -0.310243 0.305975 -1.055371
v -0.310243 0.305975 -1.055371
v -0.310243 0.305975 -1.055371
v -0.034471 0.030204 -1.055371
v -0.034471 0.030204 -1.055371
v -0.275771 0.340447 -1.055372
v -0.275771 0.340447 -1.055372
v -0.000000 0.064675 -1.055371
v -0.000000 0.064675 -1.055371
v 0.310241 0.374918 -1.055371
v 0.310241 0.374918 -1.055371
v -0.034471 0.030204 -1.055371
v -0.034471 0.030204 -1.055371
v 0.344713 0.340447 -1.055371
v 0.344713 0.340447 -1.055371
v -0.000000 -0.004268 -1.055371
v -0.000000 -0.004268 -1.055371
v -0.000000 0.616219 -1.055371
v -0.000000 0.616219 -1.055371
v 0.275771 0.340447 -1.055371
v 0.275771 0.340447 -1.055371
v 0.034471 0.650690 -1.055371
v 0.034471 0.650690 -1.055371
v 0.310241 0.374918 -1.055371
v 0.310241 0.374918 -1.055371
v -0.159541 0.216261 -1.109621
v -0.159540 0.216261 -0.269749
v -0.124185 0.180906 -1.109621
v -0.124185 0.180906 -0.269749
v 0.124185 0.499988 -0.269749
v 0.124184 0.499988 -1.109621
v 0.159541 0.464632 -0.269750
v 0.159540 0.464633 -1.109620
vn -0.0000 -0.0000 1.0000
vn -0.7071 0.7071 -0.0000
vn -0.0000 -0.0000 -1.0000
vn 0.7071 -0.7071 -0.0000
vn 0.7071 0.7071 -0.0000
vn -0.7071 -0.7071 -0.0000
vn -0.0000 -0.0000 -0.0000
vt 0.564453 0.922852
vt 0.565430 0.922852
vt 0.565430 0.923828
vt 0.564453 0.923828
vt 0.560547 0.633789
vt 0.566406 0.633789
vt 0.566406 0.634766
vt 0.560547 0.634766
vt 0.077148 0.434570
vt 0.078125 0.434570
vt 0.078125 0.435547
vt 0.077148 0.435547
vt 0.369141 0.438477
vt 0.375000 0.438477
vt 0.375000 0.439453
vt 0.369141 0.439453
vt 0.053711 0.440430
vt 0.052734 0.440430
vt 0.052734 0.434570
vt 0.053711 0.434570
vt 0.054688 0.434570
vt 0.054688 0.440430
vt 0.096680 0.455078
vt 0.102539 0.455078
vt 0.102539 0.460938
vt 0.096680 0.460938
vt 0.441406 0.784180
vt 0.466797 0.784180
vt 0.466797 0.790039
vt 0.441406 0.790039
vt 0.539062 0.872070
vt 0.544922 0.872070
vt 0.544922 0.877930
vt 0.539062 0.877930
vt 0.441406 0.627930
vt 0.466797 0.627930
vt 0.466797 0.633789
vt 0.441406 0.633789
vt 0.128906 0.555664
vt 0.123047 0.555664
vt 0.123047 0.530273
vt 0.128906 0.530273
vt 0.375000 0.528320
vt 0.369141 0.528320
vt 0.369141 0.553711
vt 0.375000 0.553711
vt 0.507812 0.730469
vt 0.515625 0.730469
vt 0.515625 0.738281
vt 0.507812 0.738281
vt 0.267578 0.778320
vt 0.287109 0.778320
vt 0.287109 0.786133
vt 0.267578 0.786133
vt 0.507812 0.710938
vt 0.515625 0.710938
vt 0.515625 0.718750
vt 0.507812 0.718750
vt 0.441406 0.870117
vt 0.460938 0.870117
vt 0.460938 0.877930
vt 0.441406 0.877930
vt 0.383789 0.555664
vt 0.375977 0.555664
vt 0.375977 0.536133
vt 0.383789 0.536133
vt 0.453125 0.545898
vt 0.445312 0.545898
vt 0.445312 0.565430
vt 0.453125 0.565430
vt 0.000000 0.994141
vt 0.000000 1.000000
vt 0.498047 0.814453
vt 0.509766 0.814453
vt 0.509766 0.820312
vt 0.498047 0.820312
vt 0.498047 0.657227
vt 0.509766 0.657227
vt 0.509766 0.663086
vt 0.498047 0.663086
vt 0.000000 0.988281
vt 0.499023 0.797852
vt 0.510742 0.797852
vt 0.510742 0.803711
vt 0.499023 0.803711
vt 0.499023 0.787109
vt 0.510742 0.787109
vt 0.510742 0.792969
vt 0.499023 0.792969
vt 0.005859 1.000000
vt 0.011719 1.000000
vt 0.489258 0.500977
vt 0.483398 0.500977
vt 0.483398 0.489258
vt 0.489258 0.489258
vt 0.019531 0.488281
vt 0.013672 0.488281
vt 0.013672 0.500000
vt 0.019531 0.500000
vt 0.231445 0.443359
vt 0.234375 0.443359
vt 0.234375 0.446289
vt 0.231445 0.446289
vt 0.515625 0.694336
vt 0.526367 0.694336
vt 0.526367 0.697266
vt 0.515625 0.697266
vt 0.335938 0.443359
vt 0.338867 0.443359
vt 0.338867 0.446289
vt 0.335938 0.446289
vt 0.539062 0.716797
vt 0.549805 0.716797
vt 0.549805 0.719727
vt 0.539062 0.719727
vt 0.346680 0.586914
vt 0.343750 0.586914
vt 0.343750 0.576172
vt 0.346680 0.576172
vt 0.210938 0.558594
vt 0.208008 0.558594
vt 0.208008 0.569336
vt 0.210938 0.569336
vt 0.380859 0.438477
vt 0.380859 0.439453
vt 0.549805 0.993164
vt 0.565430 0.993164
vt 0.565430 0.994141
vt 0.549805 0.994141
vt 0.396484 0.438477
vt 0.402344 0.438477
vt 0.402344 0.439453
vt 0.396484 0.439453
vt 0.549805 0.992188
vt 0.565430 0.992188
vt 0.334961 0.513672
vt 0.329102 0.513672
vt 0.329102 0.498047
vt 0.334961 0.498047
vt 0.369141 0.498047
vt 0.363281 0.498047
vt 0.363281 0.513672
vt 0.369141 0.513672
vt 0.081055 0.500000
vt 0.075195 0.500000
vt 0.075195 0.488281
vt 0.081055 0.488281
vt 0.097656 0.488281
vt 0.091797 0.488281
vt 0.091797 0.500000
vt 0.097656 0.500000
vt 0.085938 0.437500
vt 0.086914 0.437500
vt 0.086914 0.445312
vt 0.085938 0.445312
vt 0.000000 0.992188
vt 0.174805 0.437500
vt 0.175781 0.437500
vt 0.175781 0.445312
vt 0.174805 0.445312
vt 0.000977 1.000000
vt 0.064453 0.434570
vt 0.065430 0.434570
vt 0.065430 0.440430
vt 0.064453 0.440430
vt 0.141602 0.434570
vt 0.142578 0.434570
vt 0.142578 0.440430
vt 0.141602 0.440430
vt 0.288086 0.437500
vt 0.289062 0.437500
vt 0.289062 0.445312
vt 0.288086 0.445312
vt 0.302734 0.437500
vt 0.303711 0.437500
vt 0.303711 0.445312
vt 0.302734 0.445312
vt 0.166992 0.434570
vt 0.167969 0.434570
vt 0.167969 0.440430
vt 0.166992 0.440430
vt 0.282227 0.434570
vt 0.283203 0.434570
vt 0.283203 0.440430
vt 0.282227 0.440430
vt 0.408203 0.438477
vt 0.408203 0.439453
vt 0.550781 0.676758
vt 0.563477 0.676758
vt 0.563477 0.677734
vt 0.550781 0.677734
vt 0.414062 0.438477
vt 0.414062 0.439453
vt 0.550781 0.675781
vt 0.563477 0.675781
vt 0.116211 0.502930
vt 0.110352 0.502930
vt 0.110352 0.490234
vt 0.116211 0.490234
vt 0.122070 0.490234
vt 0.122070 0.502930
s 1
usemtl MI_8_REW_TEX_1_RF.png
f 4/1/1 7/2/1 5/3/1 2/4/1
f 3/5/2 4/6/2 2/7/2 1/8/2
f 8/9/3 3/10/3 1/11/3 6/12/3
f 7/13/4 8/14/4 6/15/4 5/16/4
f 6/17/5 1/18/5 2/19/5 5/20/5
f 7/21/6 4/20/6 3/17/6 8/22/6
f 12/23/1 15/24/1 13/25/1 10/26/1
f 11/27/2 12/28/2 10/29/2 9/30/2
f 16/31/3 11/32/3 9/33/3 14/34/3
f 15/35/4 16/36/4 14/37/4 13/38/4
f 14/39/5 9/40/5 10/41/5 13/42/5
f 15/43/6 12/44/6 11/45/6 16/46/6
f 20/47/1 23/48/1 21/49/1 18/50/1
f 19/51/2 20/52/2 18/53/2 17/54/2
f 24/55/3 19/56/3 17/57/3 22/58/3
f 23/59/4 24/60/4 22/61/4 21/62/4
f 22/63/5 17/64/5 18/65/5 21/66/5
f 23/67/6 20/68/6 19/69/6 24/70/6
f 28/71/7 31/71/7 29/72/7 26/72/7
f 27/73/2 28/74/2 26/75/2 25/76/2
f 32/71/7 27/71/7 25/72/7 30/72/7
f 31/77/4 32/78/4 30/79/4 29/80/4
f 30/72/7 25/72/7 26/81/7 29/81/7
f 31/81/7 28/81/7 27/72/7 32/72/7
f 36/71/7 39/71/7 37/72/7 34/72/7
f 35/82/2 36/83/2 34/84/2 33/85/2
f 40/71/7 35/71/7 33/72/7 38/72/7
f 39/86/4 40/87/4 38/88/4 37/89/4
f 38/72/7 33/72/7 34/81/7 37/81/7
f 39/81/7 36/81/7 35/72/7 40/72/7
f 44/72/7 47/90/7 45/90/7 42/72/7
f 43/72/7 44/91/7 42/91/7 41/72/7
f 48/72/7 43/90/7 41/90/7 46/72/7
f 47/72/7 48/91/7 46/91/7 45/72/7
f 46/92/5 41/93/5 42/94/5 45/95/5
f 47/96/6 44/97/6 43/98/6 48/99/6
f 52/100/1 55/101/1 53/102/1 50/103/1
f 51/104/2 52/105/2 50/106/2 49/107/2
f 56/108/3 51/109/3 49/110/3 54/111/3
f 55/112/4 56/113/4 54/114/4 53/115/4
f 54/116/5 49/117/5 50/118/5 53/119/5
f 55/120/6 52/121/6 51/122/6 56/123/6
f 60/14/1 63/124/1 61/125/1 58/15/1
f 59/126/2 60/127/2 58/128/2 57/129/2
f 64/130/3 59/131/3 57/132/3 62/133/3
f 63/134/4 64/135/4 62/127/4 61/126/4
f 62/136/5 57/137/5 58/138/5 61/139/5
f 63/140/6 60/141/6 59/142/6 64/143/6
f 68/72/7 71/90/7 69/90/7 66/72/7
f 67/72/7 68/91/7 66/91/7 65/72/7
f 72/72/7 67/90/7 65/90/7 70/72/7
f 71/72/7 72/91/7 70/91/7 69/72/7
f 70/144/5 65/145/5 66/146/5 69/147/5
f 71/148/6 68/149/6 67/150/6 72/151/6
f 76/152/1 79/153/1 77/154/1 74/155/1
f 75/156/3 76/156/3 74/72/3 73/72/3
f 80/157/3 75/158/3 73/159/3 78/160/3
f 79/156/3 80/156/3 78/72/3 77/72/3
f 78/161/3 73/72/3 74/72/3 77/161/3
f 79/161/3 76/72/3 75/72/3 80/161/3
f 84/162/1 87/163/1 85/164/1 82/165/1
f 83/71/3 84/71/3 82/72/3 81/72/3
f 88/166/3 83/167/3 81/168/3 86/169/3
f 87/71/3 88/71/3 86/72/3 85/72/3
f 86/161/3 81/72/3 82/72/3 85/161/3
f 87/161/3 84/72/3 83/72/3 88/161/3
f 92/170/1 95/171/1 93/172/1 90/173/1
f 91/156/3 92/156/3 90/72/3 89/72/3
f 96/174/3 91/175/3 89/176/3 94/177/3
f 95/156/3 96/156/3 94/72/3 93/72/3
f 94/161/3 89/72/3 90/72/3 93/161/3
f 95/161/3 92/72/3 91/72/3 96/161/3
f 100/178/1 103/179/1 101/180/1 98/181/1
f 99/71/3 100/71/3 98/72/3 97/72/3
f 104/182/3 99/183/3 97/184/3 102/185/3
f 103/71/3 104/71/3 102/72/3 101/72/3
f 102/161/3 97/72/3 98/72/3 101/161/3
f 103/161/3 100/72/3 99/72/3 104/161/3
f 108/131/1 111/186/1 109/187/1 106/132/1
f 107/188/6 108/189/6 106/190/6 105/191/6
f 112/186/3 107/192/3 105/193/3 110/187/3
f 111/194/5 112/195/5 110/189/5 109/188/5
f 110/196/2 105/197/2 106/198/2 109/199/2
f 111/200/4 108/199/4 107/196/4 112/201/4
