# Blender 3.6.23
# www.blender.org
mtllib fagot_turret.mtl
o pu_ustanovka
v 0.086413 0.325650 0.593495
v 0.086413 0.426648 0.137924
v 0.086413 0.021937 0.526163
v 0.086413 0.122934 0.070592
v -0.086413 0.325650 0.593495
v -0.086413 0.426648 0.137924
v -0.086413 0.021937 0.526163
v -0.086413 0.122934 0.070592
v 0.120171 0.346815 0.123958
v 0.120761 0.367685 -0.101132
v 0.125494 0.087359 0.099914
v 0.126084 0.108229 -0.125176
v -0.123117 0.341924 0.122866
v -0.122527 0.362795 -0.102224
v -0.117793 0.082468 0.098823
v -0.117203 0.103338 -0.126268
v 0.116769 0.495214 0.063316
v 0.116882 0.519926 -0.072718
v 0.119969 0.342206 0.035523
v 0.120083 0.366919 -0.100512
v -0.125137 0.490351 0.062231
v -0.125022 0.515064 -0.073803
v -0.121936 0.337344 0.034437
v -0.121822 0.362057 -0.101597
v 0.245413 0.620443 0.109443
v 0.245413 0.620443 0.004019
v 0.245413 0.430335 0.109443
v 0.245413 0.430335 0.004019
v 0.148631 0.620443 0.109443
v 0.148631 0.620443 0.004019
v 0.148631 0.430335 0.109443
v 0.148631 0.430335 0.004019
v 0.233315 0.430335 0.097345
v 0.233315 0.430335 0.016117
v 0.233315 0.343921 0.097345
v 0.233315 0.343921 0.016117
v 0.160728 0.430335 0.097345
v 0.160728 0.430335 0.016117
v 0.160728 0.343921 0.097345
v 0.160728 0.343921 0.016117
v 0.262696 0.343921 0.126726
v 0.262696 0.343921 -0.030546
v 0.262696 0.257508 0.126726
v 0.262696 0.257508 -0.030546
v 0.131348 0.343921 0.126726
v 0.131348 0.343921 -0.030546
v 0.131348 0.257508 0.126726
v 0.131348 0.257508 -0.030546
v 0.233315 0.339601 -0.195595
v 0.233315 0.267014 -0.195595
v 0.233315 0.339601 -0.021041
v 0.233315 0.267014 -0.021041
v 0.160728 0.339601 -0.195595
v 0.160728 0.267014 -0.195595
v 0.160728 0.339601 -0.021041
v 0.160728 0.267014 -0.021041
v 0.267881 0.374166 -0.193867
v 0.267881 0.232449 -0.193867
v 0.267881 0.374166 -0.124736
v 0.267881 0.232449 -0.124736
v 0.126163 0.374166 -0.193867
v 0.126163 0.232449 -0.193867
v 0.126163 0.374166 -0.124736
v 0.126163 0.232449 -0.124736
v -0.086413 0.545005 -0.177459
v -0.138261 0.545005 -0.177459
v -0.086413 0.447606 -0.217803
v -0.138261 0.447606 -0.217803
v -0.086413 0.504661 -0.080061
v -0.138261 0.504661 -0.080061
v -0.086413 0.407262 -0.120405
v -0.138261 0.407262 -0.120405
v 0.086413 0.514136 -0.016953
v 0.086413 0.447059 -0.033678
v -0.086413 0.514136 -0.016953
v -0.086413 0.447059 -0.033678
v 0.138261 0.247188 0.353509
v 0.138261 0.252465 0.232646
v 0.138261 0.143591 0.348986
v 0.138261 0.148868 0.228123
v 0.086413 0.247188 0.353509
v 0.086413 0.252465 0.232646
v 0.086413 0.143591 0.348986
v 0.086413 0.148868 0.228123
v 0.162457 0.432539 0.233503
v 0.162457 0.452588 0.185689
v 0.162457 0.209405 0.139936
v 0.162457 0.229456 0.092122
v 0.110609 0.432539 0.233503
v 0.110609 0.452588 0.185689
v 0.110609 0.209405 0.139936
v 0.110609 0.229456 0.092122
v 0.153815 0.499632 0.252267
v 0.153815 0.512999 0.220391
v 0.153815 0.148995 0.105233
v 0.153815 0.162362 0.073357
v 0.119250 0.499632 0.252267
v 0.119250 0.512999 0.220391
v 0.119250 0.148995 0.105233
v 0.119250 0.162362 0.073357
v 0.198750 0.171206 0.159525
v 0.198750 0.216653 0.051146
v 0.198750 0.062827 0.114078
v 0.198750 0.108274 0.005699
v 0.155544 0.171206 0.159525
v 0.155544 0.216653 0.051146
v 0.155544 0.062827 0.114078
v 0.155544 0.108274 0.005699
v 0.104090 0.250463 -0.177078
v -0.004486 0.295395 -0.175116
v 0.059117 0.141991 -0.181813
v -0.049459 0.186922 -0.179852
v 0.104090 0.247825 -0.116646
v -0.004486 0.292756 -0.114684
v 0.059117 0.139353 -0.121382
v -0.049459 0.184283 -0.119420
v 0.077636 0.190049 -0.257561
v 0.032928 0.208550 -0.256753
v 0.059117 0.145384 -0.259511
v 0.014409 0.163884 -0.258704
v 0.077636 0.186656 -0.179864
v 0.032928 0.205157 -0.179056
v 0.059117 0.141991 -0.181813
v 0.014409 0.160492 -0.181006
v 0.222946 0.644889 -0.085942
v 0.222946 0.641874 -0.155007
v 0.222946 0.368630 -0.073881
v 0.222946 0.365615 -0.142945
v 0.015554 0.644889 -0.085942
v 0.015554 0.641874 -0.155007
v 0.015554 0.368630 -0.073881
v 0.015554 0.365615 -0.142945
v 0.118759 0.415635 0.130335
v 0.118943 0.422146 0.060123
v 0.120199 0.345438 0.123830
v 0.120383 0.351948 0.053618
v -0.124529 0.410745 0.129243
v -0.124345 0.417255 0.059032
v -0.123089 0.340547 0.122739
v -0.122904 0.347058 0.052527
v 0.273065 0.810552 0.121541
v 0.273065 0.810552 -0.008079
v 0.273065 0.620443 0.121541
v 0.273065 0.620443 -0.008079
v 0.131348 0.810552 0.121541
v 0.131348 0.810552 -0.008079
v 0.131348 0.620443 0.121541
v 0.131348 0.620443 -0.008079
v 0.254054 0.983786 0.127559
v 0.254054 0.962699 -0.113476
v 0.254054 0.656666 0.156179
v 0.254054 0.635578 -0.084857
v 0.139989 0.983786 0.127559
v 0.139989 0.962699 -0.113476
v 0.139989 0.656666 0.156179
v 0.139989 0.635578 -0.084857
v 0.240228 0.955680 -0.099512
v 0.240228 0.952664 -0.168577
v 0.240228 0.644889 -0.085942
v 0.240228 0.641874 -0.155007
v 0.153815 0.955680 -0.099512
v 0.153815 0.952664 -0.168577
v 0.153815 0.644889 -0.085942
v 0.153815 0.641874 -0.155007
v 0.266844 1.191461 0.225928
v 0.266844 1.191461 -0.138390
v 0.266844 0.878991 0.225928
v 0.266844 0.878991 -0.138390
v 0.127200 1.191461 0.225928
v 0.127200 1.191461 -0.138390
v 0.127200 0.878991 0.225928
v 0.127200 0.878991 -0.138390
v 0.266152 1.175764 0.310337
v 0.266152 1.190770 0.225237
v 0.266152 0.874510 0.257218
v 0.266152 0.889515 0.172117
v 0.127891 1.175764 0.310337
v 0.127891 1.190770 0.225237
v 0.127891 0.874510 0.257218
v 0.127891 0.889515 0.172117
v 0.240228 1.190770 -0.137698
v 0.240228 1.190770 -0.275959
v 0.240228 0.948813 -0.137698
v 0.240228 0.948813 -0.275959
v 0.153815 1.190770 -0.137698
v 0.153815 1.190770 -0.275959
v 0.153815 0.948813 -0.137698
v 0.153815 0.948813 -0.275959
v 0.251289 1.037646 0.260493
v 0.251289 1.037646 0.189980
v 0.251289 0.929111 0.260493
v 0.251289 0.929111 0.189980
v 0.142754 1.037646 0.260493
v 0.142754 1.037646 0.189980
v 0.142754 0.929111 0.260493
v 0.142754 0.929111 0.189980
v 0.197022 0.531508 0.265634
v 0.197022 0.544875 0.233758
v 0.197022 0.499632 0.252267
v 0.197022 0.512999 0.220391
v 0.084685 0.531508 0.265634
v 0.084685 0.544875 0.233758
v 0.084685 0.499632 0.252267
v 0.084685 0.512999 0.220391
v 0.267881 0.107454 0.132791
v 0.267881 0.126167 0.088165
v 0.267881 0.062827 0.114078
v 0.267881 0.081540 0.069452
v 0.198750 0.107454 0.132791
v 0.198750 0.126167 0.088165
v 0.198750 0.062827 0.114078
v 0.198750 0.081540 0.069452
v 0.197022 0.148995 0.105233
v 0.197022 0.162362 0.073357
v 0.197022 0.117119 0.091867
v 0.197022 0.130486 0.059991
v 0.084685 0.148995 0.105233
v 0.084685 0.162362 0.073357
v 0.084685 0.117119 0.091867
v 0.084685 0.130486 0.059991
v 0.051848 0.095915 0.007180
v 0.051848 0.109450 -0.095628
v 0.051848 0.061646 0.002669
v 0.051848 0.075181 -0.100140
v -0.051848 0.095915 0.007180
v -0.051848 0.109450 -0.095628
v -0.051848 0.061646 0.002669
v -0.051848 0.075181 -0.100140
v 0.249561 1.139613 0.260493
v 0.249561 1.139613 0.189980
v 0.249561 1.086383 0.260493
v 0.249561 1.086383 0.189980
v 0.144483 1.139613 0.260493
v 0.144483 1.139613 0.189980
v 0.144483 1.086383 0.260493
v 0.144483 1.086383 0.189980
v 0.266152 1.175764 0.310337
v 0.266152 1.190770 0.225237
v 0.266152 0.874510 0.257218
v 0.266152 0.889515 0.172117
v 0.127891 1.175764 0.310337
v 0.127891 1.190770 0.225237
v 0.127891 0.874510 0.257218
v 0.127891 0.889515 0.172117
v 0.087104 0.586570 0.519732
v 0.087104 0.586569 -0.311216
v 0.087104 0.446926 0.519732
v 0.087104 0.446926 -0.311216
v -0.087104 0.586570 0.519732
v -0.087104 0.586569 -0.311216
v -0.087104 0.446926 0.519732
v -0.087104 0.446926 -0.311216
v 0.041478 0.558226 -0.172264
v 0.041478 0.558226 -0.500633
v 0.041478 0.475269 -0.172264
v 0.041478 0.475269 -0.500633
v -0.041478 0.558226 -0.172264
v -0.041478 0.558226 -0.500633
v -0.041478 0.475269 -0.172264
v -0.041478 0.475269 -0.500633
v 0.058761 0.575509 -0.500633
v 0.058761 0.575509 -0.569764
v 0.058761 0.457987 -0.500633
v 0.058761 0.457987 -0.569764
v -0.058761 0.575509 -0.500633
v -0.058761 0.575509 -0.569764
v -0.058761 0.457987 -0.500633
v -0.058761 0.457987 -0.569764
v 0.086413 0.584666 0.502610
v 0.086413 0.513761 0.201486
v 0.086413 0.517377 0.518454
v 0.086413 0.446471 0.217331
v -0.086413 0.584666 0.502610
v -0.086413 0.513761 0.201486
v -0.086413 0.517377 0.518454
v -0.086413 0.446471 0.217331
v 0.086413 0.514136 -0.016953
v 0.086413 0.583123 -0.293646
v 0.086413 0.447059 -0.033678
v 0.086413 0.516046 -0.310370
v -0.086413 0.514136 -0.016953
v -0.086413 0.583123 -0.293646
v -0.086413 0.447059 -0.033678
v -0.086413 0.516046 -0.310370
v -0.072057 0.920404 1.213802
v -0.072057 0.920404 1.144672
v -0.038988 0.840569 1.213802
v -0.038988 0.840569 1.144673
v -0.174246 0.878076 1.213802
v -0.174246 0.878076 1.144672
v -0.141177 0.798241 1.213802
v -0.141177 0.798241 1.144673
v 0.124435 0.848574 1.215531
v 0.124435 0.848574 -0.656177
v 0.124435 0.599704 1.215531
v 0.124435 0.599704 -0.656177
v -0.124435 0.848574 1.215531
v -0.124435 0.848574 -0.656177
v -0.124435 0.599704 1.215531
v -0.124435 0.599704 -0.656177
v 0.130823 0.673716 1.213802
v 0.130823 0.673716 1.144673
v 0.167342 0.595399 1.213802
v 0.167342 0.595399 1.144673
v -0.063403 0.583147 1.213802
v -0.063403 0.583147 1.144673
v -0.026884 0.504830 1.213802
v -0.026884 0.504830 1.144673
v 0.055305 0.779444 1.298488
v 0.055305 0.779444 1.229357
v 0.055304 0.668835 1.298488
v 0.055304 0.668835 1.229357
v -0.055304 0.779443 1.298488
v -0.055304 0.779443 1.229357
v -0.055304 0.668835 1.298488
v -0.055304 0.668835 1.229357
v 0.124435 0.848574 1.248369
v 0.124435 0.848574 1.213802
v 0.124435 0.599704 1.248369
v 0.124435 0.599704 1.213802
v -0.124435 0.848574 1.248369
v -0.124435 0.848574 1.213802
v -0.124435 0.599704 1.248369
v -0.124435 0.599704 1.213802
v 0.124435 0.848574 1.300215
v 0.124435 0.848574 1.248369
v 0.124435 0.599704 1.300215
v 0.124435 0.599704 1.248369
v -0.124435 0.848574 1.300215
v -0.124435 0.848574 1.248369
v -0.124435 0.599704 1.300215
v -0.124435 0.599704 1.248369
v 0.141717 0.865857 -0.656177
v 0.141717 0.865857 -1.001829
v 0.141718 0.582422 -0.656177
v 0.141718 0.582422 -1.001829
v -0.141718 0.865857 -0.656177
v -0.141718 0.865857 -1.001829
v -0.141718 0.582421 -0.656177
v -0.141718 0.582421 -1.001829
v 0.141717 0.865857 1.212074
v 0.141717 0.865857 -0.379655
v 0.141718 0.582422 1.212075
v 0.141718 0.582422 -0.379655
v -0.141718 0.865857 1.212074
v -0.141718 0.865857 -0.379655
v -0.141718 0.582422 1.212075
v -0.141718 0.582421 -0.379655
v 0.160728 0.884867 -1.001829
v 0.160728 0.884867 -1.070960
v 0.160729 0.563410 -1.001829
v 0.160729 0.563410 -1.070959
v -0.160729 0.884867 -1.001829
v -0.160729 0.884867 -1.070960
v -0.160728 0.563411 -1.001829
v -0.160728 0.563411 -1.070959
v 0.141717 0.865857 1.212074
v 0.141717 0.865857 -0.379655
v 0.141718 0.582422 1.212075
v 0.141718 0.582422 -0.379655
v -0.141718 0.865857 1.212074
v -0.141718 0.865857 -0.379655
v -0.141718 0.582422 1.212075
v -0.141718 0.582421 -0.379655
vn 1.0000 -0.0000 -0.0000
vn -1.0000 -0.0000 -0.0000
vn -0.0000 0.9763 0.2164
vn -0.0000 -0.9763 -0.2164
vn -0.0000 -0.2164 0.9763
vn -0.0000 0.2164 -0.9763
vn 0.9998 0.0201 0.0045
vn -0.9998 -0.0201 -0.0045
vn -0.0204 0.9955 0.0923
vn 0.0204 -0.9955 -0.0922
vn -0.0026 -0.0923 0.9957
vn 0.0026 0.0923 -0.9957
vn -0.0206 0.9837 0.1787
vn 0.0206 -0.9837 -0.1787
vn -0.0008 -0.1787 0.9839
vn 0.0008 0.1787 -0.9839
vn -0.0000 1.0000 -0.0000
vn -0.0000 -1.0000 -0.0000
vn -0.0000 -0.0000 1.0000
vn -0.0000 -0.0000 -1.0000
vn -0.0000 0.3827 -0.9239
vn -0.0000 -0.3827 0.9239
vn -0.0000 0.9239 0.3827
vn -0.0000 -0.9239 -0.3827
vn -0.0000 -0.2419 0.9703
vn -0.0000 0.9990 0.0436
vn -0.0000 -0.9990 -0.0436
vn -0.0000 -0.0436 0.9990
vn -0.0000 0.0436 -0.9990
vn -0.0000 0.9222 0.3867
vn -0.0000 -0.9222 -0.3867
vn -0.0000 -0.3867 0.9222
vn -0.0000 0.3867 -0.9222
vn 0.3827 0.9230 0.0403
vn -0.3827 -0.9230 -0.0403
vn 0.9239 -0.3823 -0.0167
vn -0.9239 0.3823 0.0167
vn -0.0000 0.9990 -0.0436
vn -0.0000 -0.9990 0.0436
vn -0.0000 0.0436 0.9990
vn -0.0000 -0.0436 -0.9990
vn 0.0204 -0.9955 -0.0923
vn -0.0000 0.9962 -0.0872
vn -0.0000 -0.9962 0.0872
vn -0.0000 0.0872 0.9962
vn -0.0000 -0.0872 -0.9962
vn -0.0000 0.9848 0.1737
vn -0.0000 -0.9848 -0.1736
vn -0.0000 -0.1736 0.9848
vn -0.0000 0.1737 -0.9848
vn -0.0000 0.9914 0.1305
vn -0.0000 -0.9914 -0.1305
vn -0.0000 -0.1305 0.9914
vn -0.0000 0.1305 -0.9914
vn -0.0000 -0.9848 -0.1737
vn -0.0000 0.9848 0.1736
vn -0.0000 0.1736 -0.9848
vn -0.0000 -0.1737 0.9848
vn -0.0000 0.9734 -0.2292
vn -0.0000 -0.9734 0.2292
vn -0.0000 0.2292 0.9734
vn -0.0000 -0.2292 -0.9734
vn -0.0000 0.9703 0.2419
vn -0.0000 -0.9703 -0.2419
vn -0.0000 0.2419 -0.9703
vn 0.9239 0.3827 -0.0000
vn -0.9239 -0.3827 -0.0000
vn -0.3827 0.9239 -0.0000
vn 0.3827 -0.9239 -0.0000
vn 0.9063 0.4226 -0.0000
vn -0.9063 -0.4226 -0.0000
vn -0.4226 0.9063 -0.0000
vn 0.4226 -0.9063 -0.0000
vt 0.276923 0.969231
vt 0.276923 0.994872
vt 0.223077 0.994872
vt 0.223077 0.969231
vt 0.276923 0.820513
vt 0.276923 0.846154
vt 0.223077 0.846154
vt 0.223077 0.820513
vt 0.307692 0.800000
vt 0.307692 0.764103
vt 0.330769 0.764103
vt 0.330769 0.800000
vt 0.315385 0.958974
vt 0.315385 0.994872
vt 0.338462 0.994872
vt 0.338462 0.958974
vt 0.223077 0.728205
vt 0.223077 0.753846
vt 0.200000 0.753846
vt 0.200000 0.728205
vt 0.307692 0.969231
vt 0.307692 0.994872
vt 0.284615 0.994872
vt 0.284615 0.969231
vt 0.400000 0.923077
vt 0.400000 0.943590
vt 0.376923 0.943590
vt 0.376923 0.923077
vt 0.400000 0.897436
vt 0.400000 0.917949
vt 0.376923 0.917949
vt 0.376923 0.897436
vt 0.223077 0.964103
vt 0.223077 0.948718
vt 0.253846 0.948718
vt 0.253846 0.964103
vt 0.161538 0.733333
vt 0.161538 0.748718
vt 0.192308 0.748718
vt 0.192308 0.733333
vt 0.330769 0.738462
vt 0.330769 0.758974
vt 0.300000 0.758974
vt 0.300000 0.738462
vt 0.392308 0.948718
vt 0.392308 0.969231
vt 0.361538 0.969231
vt 0.361538 0.948718
vt 0.469231 0.733333
vt 0.469231 0.743590
vt 0.453846 0.743590
vt 0.453846 0.733333
vt 0.084615 0.682051
vt 0.084615 0.692308
vt 0.069231 0.692308
vt 0.069231 0.682051
vt 0.407692 0.948718
vt 0.407692 0.938462
vt 0.438462 0.938462
vt 0.438462 0.948718
vt 0.407692 0.923077
vt 0.407692 0.933333
vt 0.438462 0.933333
vt 0.438462 0.923077
vt 0.430769 0.728205
vt 0.430769 0.738462
vt 0.400000 0.738462
vt 0.400000 0.728205
vt 0.430769 0.743590
vt 0.430769 0.753846
vt 0.400000 0.753846
vt 0.400000 0.743590
vt 0.246154 0.697436
vt 0.246154 0.712821
vt 0.230769 0.712821
vt 0.230769 0.697436
vt 0.446154 0.794872
vt 0.446154 0.810256
vt 0.430769 0.810256
vt 0.430769 0.794872
vt 0.400000 0.666667
vt 0.400000 0.656410
vt 0.407692 0.656410
vt 0.407692 0.666667
vt 0.415385 0.656410
vt 0.415385 0.666667
vt 0.423077 0.666667
vt 0.423077 0.656410
vt 0.438462 0.661538
vt 0.438462 0.676923
vt 0.430769 0.676923
vt 0.430769 0.661538
vt 0.384615 0.876923
vt 0.384615 0.892308
vt 0.376923 0.892308
vt 0.376923 0.876923
vt 0.530769 0.702564
vt 0.530769 0.707692
vt 0.523077 0.707692
vt 0.523077 0.702564
vt 0.530769 0.692308
vt 0.530769 0.697436
vt 0.523077 0.697436
vt 0.523077 0.692308
vt 0.469231 0.651282
vt 0.469231 0.646154
vt 0.476923 0.646154
vt 0.476923 0.651282
vt 0.523077 0.682051
vt 0.523077 0.687180
vt 0.530769 0.687180
vt 0.530769 0.682051
vt 0.461538 0.646154
vt 0.461538 0.651282
vt 0.453846 0.651282
vt 0.453846 0.646154
vt 0.423077 0.646154
vt 0.423077 0.651282
vt 0.415385 0.651282
vt 0.415385 0.646154
vt 0.515385 0.702564
vt 0.515385 0.707692
vt 0.500000 0.707692
vt 0.500000 0.702564
vt 0.515385 0.682051
vt 0.515385 0.687180
vt 0.500000 0.687180
vt 0.500000 0.682051
vt 0.138462 0.687180
vt 0.138462 0.676923
vt 0.153846 0.676923
vt 0.153846 0.687180
vt 0.469231 0.866667
vt 0.469231 0.876923
vt 0.484615 0.876923
vt 0.484615 0.866667
vt 0.515385 0.692308
vt 0.515385 0.697436
vt 0.500000 0.697436
vt 0.500000 0.692308
vt 0.515385 0.733333
vt 0.515385 0.738462
vt 0.500000 0.738462
vt 0.500000 0.733333
vt 0.453846 0.661538
vt 0.453846 0.676923
vt 0.446154 0.676923
vt 0.446154 0.661538
vt 0.015385 0.656410
vt 0.015385 0.671795
vt 0.007692 0.671795
vt 0.007692 0.656410
vt 0.523077 0.676923
vt 0.523077 0.671795
vt 0.530769 0.671795
vt 0.530769 0.676923
vt 0.530769 0.989744
vt 0.530769 0.994872
vt 0.538462 0.994872
vt 0.538462 0.989744
vt 0.492308 0.671795
vt 0.492308 0.687180
vt 0.484615 0.687180
vt 0.484615 0.671795
vt 0.492308 0.692308
vt 0.492308 0.707692
vt 0.484615 0.707692
vt 0.484615 0.692308
vt 0.515385 0.671795
vt 0.515385 0.676923
vt 0.500000 0.676923
vt 0.500000 0.671795
vt 0.523077 0.979487
vt 0.523077 0.984615
vt 0.507692 0.984615
vt 0.507692 0.979487
vt 0.207692 0.687180
vt 0.207692 0.676923
vt 0.223077 0.676923
vt 0.223077 0.687180
vt 0.469231 0.820513
vt 0.469231 0.830769
vt 0.484615 0.830769
vt 0.484615 0.820513
vt 0.523077 0.989744
vt 0.523077 0.994872
vt 0.507692 0.994872
vt 0.507692 0.989744
vt 0.500000 0.661538
vt 0.500000 0.666667
vt 0.484615 0.666667
vt 0.484615 0.661538
vt 0.076923 0.651282
vt 0.076923 0.661538
vt 0.069231 0.661538
vt 0.069231 0.651282
vt 0.161538 0.651282
vt 0.161538 0.661538
vt 0.153846 0.661538
vt 0.153846 0.651282
vt 0.507692 0.897436
vt 0.507692 0.892308
vt 0.523077 0.892308
vt 0.523077 0.897436
vt 0.169231 0.656410
vt 0.169231 0.661538
vt 0.184615 0.661538
vt 0.184615 0.656410
vt 0.476923 0.676923
vt 0.476923 0.687180
vt 0.461538 0.687180
vt 0.461538 0.676923
vt 0.284615 0.676923
vt 0.284615 0.687180
vt 0.269231 0.687180
vt 0.269231 0.676923
vt 0.515385 0.902564
vt 0.515385 0.907692
vt 0.492308 0.907692
vt 0.492308 0.902564
vt 0.330769 0.671795
vt 0.330769 0.682051
vt 0.315385 0.682051
vt 0.315385 0.671795
vt 0.492308 0.748718
vt 0.492308 0.758974
vt 0.476923 0.758974
vt 0.476923 0.748718
vt 0.115385 0.656410
vt 0.115385 0.646154
vt 0.123077 0.646154
vt 0.123077 0.656410
vt 0.515385 0.830769
vt 0.515385 0.841026
vt 0.523077 0.841026
vt 0.523077 0.830769
vt 0.107692 0.646154
vt 0.107692 0.656410
vt 0.100000 0.656410
vt 0.100000 0.646154
vt 0.092308 0.646154
vt 0.092308 0.656410
vt 0.084615 0.656410
vt 0.084615 0.646154
vt 0.030769 0.656410
vt 0.030769 0.676923
vt 0.023077 0.676923
vt 0.023077 0.656410
vt 0.061538 0.656410
vt 0.061538 0.676923
vt 0.053846 0.676923
vt 0.053846 0.656410
vt 0.153846 0.646154
vt 0.153846 0.641026
vt 0.161538 0.641026
vt 0.161538 0.646154
vt 0.530769 0.892308
vt 0.530769 0.897436
vt 0.538462 0.897436
vt 0.538462 0.892308
vt 0.046154 0.656410
vt 0.046154 0.676923
vt 0.038462 0.676923
vt 0.038462 0.656410
vt 0.169231 0.666667
vt 0.169231 0.687180
vt 0.161538 0.687180
vt 0.161538 0.666667
vt 0.346154 0.682051
vt 0.346154 0.712821
vt 0.338462 0.712821
vt 0.338462 0.682051
vt 0.376923 0.682051
vt 0.376923 0.712821
vt 0.369231 0.712821
vt 0.369231 0.682051
vt 0.192308 0.646154
vt 0.192308 0.641026
vt 0.200000 0.641026
vt 0.200000 0.646154
vt 0.530769 0.861538
vt 0.530769 0.866667
vt 0.538462 0.866667
vt 0.538462 0.861538
vt 0.361538 0.682051
vt 0.361538 0.712821
vt 0.353846 0.712821
vt 0.353846 0.682051
vt 0.438462 0.758974
vt 0.438462 0.789744
vt 0.430769 0.789744
vt 0.430769 0.758974
vt 0.492308 0.733333
vt 0.492308 0.743590
vt 0.476923 0.743590
vt 0.476923 0.733333
vt 0.500000 0.984615
vt 0.500000 0.994872
vt 0.484615 0.994872
vt 0.484615 0.984615
vt 0.515385 0.656410
vt 0.515385 0.646154
vt 0.523077 0.646154
vt 0.523077 0.656410
vt 0.007692 0.641026
vt 0.007692 0.651282
vt 0.015385 0.651282
vt 0.015385 0.641026
vt 0.507692 0.646154
vt 0.507692 0.656410
vt 0.500000 0.656410
vt 0.500000 0.646154
vt 0.492308 0.646154
vt 0.492308 0.656410
vt 0.484615 0.656410
vt 0.484615 0.646154
vt 0.084615 0.666667
vt 0.084615 0.676923
vt 0.069231 0.676923
vt 0.069231 0.666667
vt 0.500000 0.887179
vt 0.500000 0.897436
vt 0.484615 0.897436
vt 0.484615 0.887179
vt 0.053846 0.651282
vt 0.053846 0.641026
vt 0.061538 0.641026
vt 0.061538 0.651282
vt 0.523077 0.943590
vt 0.523077 0.953846
vt 0.530769 0.953846
vt 0.530769 0.943590
vt 0.046154 0.641026
vt 0.046154 0.651282
vt 0.038462 0.651282
vt 0.038462 0.641026
vt 0.030769 0.641026
vt 0.030769 0.651282
vt 0.023077 0.651282
vt 0.023077 0.641026
vt 0.546154 0.969231
vt 0.546154 0.974359
vt 0.538462 0.974359
vt 0.538462 0.969231
vt 0.546154 0.948718
vt 0.546154 0.953846
vt 0.538462 0.953846
vt 0.538462 0.948718
vt 0.084615 0.641026
vt 0.084615 0.635897
vt 0.092308 0.635897
vt 0.092308 0.641026
vt 0.100000 0.635897
vt 0.100000 0.641026
vt 0.107692 0.641026
vt 0.107692 0.635897
vt 0.546154 0.958974
vt 0.546154 0.964103
vt 0.538462 0.964103
vt 0.538462 0.958974
vt 0.538462 0.641026
vt 0.538462 0.646154
vt 0.530769 0.646154
vt 0.530769 0.641026
vt 0.238462 0.656410
vt 0.238462 0.676923
vt 0.230769 0.676923
vt 0.230769 0.656410
vt 0.253846 0.656410
vt 0.253846 0.676923
vt 0.246154 0.676923
vt 0.246154 0.656410
vt 0.176923 0.671795
vt 0.176923 0.666667
vt 0.200000 0.666667
vt 0.200000 0.671795
vt 0.492308 0.876923
vt 0.492308 0.882051
vt 0.515385 0.882051
vt 0.515385 0.876923
vt 0.107692 0.723077
vt 0.107692 0.743590
vt 0.084615 0.743590
vt 0.084615 0.723077
vt 0.407692 0.974359
vt 0.407692 0.994872
vt 0.384615 0.994872
vt 0.384615 0.974359
vt 0.346154 0.866667
vt 0.346154 0.871795
vt 0.338462 0.871795
vt 0.338462 0.866667
vt 0.284615 0.646154
vt 0.284615 0.651282
vt 0.276923 0.651282
vt 0.276923 0.646154
vt 0.446154 0.789744
vt 0.446154 0.784615
vt 0.476923 0.784615
vt 0.476923 0.789744
vt 0.446154 0.774359
vt 0.446154 0.779487
vt 0.476923 0.779487
vt 0.476923 0.774359
vt 0.476923 0.923077
vt 0.476923 0.928205
vt 0.446154 0.928205
vt 0.446154 0.923077
vt 0.100000 0.697436
vt 0.100000 0.702564
vt 0.069231 0.702564
vt 0.069231 0.697436
vt 0.123077 0.697436
vt 0.123077 0.712821
vt 0.107692 0.712821
vt 0.107692 0.697436
vt 0.146154 0.697436
vt 0.146154 0.712821
vt 0.130769 0.712821
vt 0.130769 0.697436
vt 0.230769 0.692308
vt 0.230769 0.682051
vt 0.246154 0.682051
vt 0.246154 0.692308
vt 0.461538 0.692308
vt 0.461538 0.702564
vt 0.476923 0.702564
vt 0.476923 0.692308
vt 0.446154 0.902564
vt 0.446154 0.917949
vt 0.430769 0.917949
vt 0.430769 0.902564
vt 0.223077 0.707692
vt 0.223077 0.723077
vt 0.207692 0.723077
vt 0.207692 0.707692
vt 0.361538 0.820513
vt 0.361538 0.846154
vt 0.330769 0.846154
vt 0.330769 0.820513
vt 0.369231 0.902564
vt 0.369231 0.928205
vt 0.338462 0.928205
vt 0.338462 0.902564
vt 0.407692 0.810256
vt 0.407692 0.789744
vt 0.423077 0.789744
vt 0.423077 0.810256
vt 0.407692 0.764103
vt 0.407692 0.784615
vt 0.423077 0.784615
vt 0.423077 0.764103
vt 0.407692 0.866667
vt 0.407692 0.892308
vt 0.392308 0.892308
vt 0.392308 0.866667
vt 0.069231 0.712821
vt 0.069231 0.738462
vt 0.053846 0.738462
vt 0.053846 0.712821
vt 0.446154 0.728205
vt 0.446154 0.753846
vt 0.438462 0.753846
vt 0.438462 0.728205
vt 0.423077 0.682051
vt 0.423077 0.707692
vt 0.415385 0.707692
vt 0.415385 0.682051
vt 0.523077 0.743590
vt 0.523077 0.738462
vt 0.530769 0.738462
vt 0.530769 0.743590
vt 0.400000 0.646154
vt 0.400000 0.651282
vt 0.407692 0.651282
vt 0.407692 0.646154
vt 0.407692 0.682051
vt 0.407692 0.707692
vt 0.400000 0.707692
vt 0.400000 0.682051
vt 0.261538 0.682051
vt 0.261538 0.707692
vt 0.253846 0.707692
vt 0.253846 0.682051
vt 0.307692 0.907692
vt 0.307692 0.933333
vt 0.269231 0.933333
vt 0.269231 0.907692
vt 0.261538 0.789744
vt 0.261538 0.815385
vt 0.223077 0.815385
vt 0.223077 0.789744
vt 0.007692 0.738462
vt 0.007692 0.712821
vt 0.023077 0.712821
vt 0.023077 0.738462
vt 0.030769 0.712821
vt 0.030769 0.738462
vt 0.046154 0.738462
vt 0.046154 0.712821
vt 0.153846 0.717949
vt 0.153846 0.743590
vt 0.138462 0.743590
vt 0.138462 0.717949
vt 0.130769 0.717949
vt 0.130769 0.743590
vt 0.115385 0.743590
vt 0.115385 0.717949
vt 0.200000 0.676923
vt 0.200000 0.697436
vt 0.192308 0.697436
vt 0.192308 0.676923
vt 0.100000 0.671795
vt 0.100000 0.692308
vt 0.092308 0.692308
vt 0.092308 0.671795
vt 0.500000 0.764103
vt 0.500000 0.758974
vt 0.515385 0.758974
vt 0.515385 0.764103
vt 0.361538 0.661538
vt 0.361538 0.666667
vt 0.376923 0.666667
vt 0.376923 0.661538
vt 0.215385 0.758974
vt 0.215385 0.779487
vt 0.200000 0.779487
vt 0.200000 0.758974
vt 0.330769 0.907692
vt 0.330769 0.928205
vt 0.315385 0.928205
vt 0.315385 0.907692
vt 0.423077 0.897436
vt 0.423077 0.917949
vt 0.407692 0.917949
vt 0.407692 0.897436
vt 0.176923 0.707692
vt 0.176923 0.728205
vt 0.161538 0.728205
vt 0.161538 0.707692
vt 0.500000 0.753846
vt 0.500000 0.743590
vt 0.507692 0.743590
vt 0.507692 0.753846
vt 0.384615 0.656410
vt 0.384615 0.666667
vt 0.392308 0.666667
vt 0.392308 0.656410
vt 0.130769 0.671795
vt 0.130769 0.692308
vt 0.123077 0.692308
vt 0.123077 0.671795
vt 0.115385 0.671795
vt 0.115385 0.692308
vt 0.107692 0.692308
vt 0.107692 0.671795
vt 0.200000 0.651282
vt 0.200000 0.661538
vt 0.192308 0.661538
vt 0.192308 0.651282
vt 0.269231 0.651282
vt 0.269231 0.661538
vt 0.261538 0.661538
vt 0.261538 0.651282
vt 0.507692 0.861538
vt 0.507692 0.856410
vt 0.523077 0.856410
vt 0.523077 0.861538
vt 0.507692 0.784615
vt 0.507692 0.789744
vt 0.523077 0.789744
vt 0.523077 0.784615
vt 0.307692 0.671795
vt 0.307692 0.682051
vt 0.292308 0.682051
vt 0.292308 0.671795
vt 0.492308 0.805128
vt 0.492308 0.815385
vt 0.476923 0.815385
vt 0.476923 0.805128
vt 0.538462 0.835897
vt 0.538462 0.841026
vt 0.530769 0.841026
vt 0.530769 0.835897
vt 0.261538 0.641026
vt 0.261538 0.646154
vt 0.253846 0.646154
vt 0.253846 0.641026
vt 0.315385 0.656410
vt 0.315385 0.651282
vt 0.330769 0.651282
vt 0.330769 0.656410
vt 0.361538 0.651282
vt 0.361538 0.656410
vt 0.376923 0.656410
vt 0.376923 0.651282
vt 0.530769 0.794872
vt 0.530769 0.800000
vt 0.515385 0.800000
vt 0.515385 0.794872
vt 0.530769 0.958974
vt 0.530769 0.964103
vt 0.515385 0.964103
vt 0.515385 0.958974
vt 0.361538 0.641026
vt 0.361538 0.646154
vt 0.353846 0.646154
vt 0.353846 0.641026
vt 0.438462 0.641026
vt 0.438462 0.646154
vt 0.430769 0.646154
vt 0.430769 0.641026
vt 0.530769 0.666667
vt 0.530769 0.661538
vt 0.538462 0.661538
vt 0.538462 0.666667
vt 0.530769 0.651282
vt 0.530769 0.656410
vt 0.538462 0.656410
vt 0.538462 0.651282
vt 0.376923 0.641026
vt 0.376923 0.646154
vt 0.369231 0.646154
vt 0.369231 0.641026
vt 0.330769 0.641026
vt 0.330769 0.646154
vt 0.323077 0.646154
vt 0.323077 0.641026
vt 0.315385 0.641026
vt 0.315385 0.646154
vt 0.307692 0.646154
vt 0.307692 0.641026
vt 0.538462 0.784615
vt 0.538462 0.789744
vt 0.530769 0.789744
vt 0.530769 0.784615
vt 0.515385 0.717949
vt 0.515385 0.712821
vt 0.530769 0.712821
vt 0.530769 0.717949
vt 0.430769 0.651282
vt 0.430769 0.656410
vt 0.446154 0.656410
vt 0.446154 0.651282
vt 0.530769 0.723077
vt 0.530769 0.728205
vt 0.515385 0.728205
vt 0.515385 0.723077
vt 0.530769 0.748718
vt 0.530769 0.753846
vt 0.515385 0.753846
vt 0.515385 0.748718
vt 0.184615 0.646154
vt 0.184615 0.651282
vt 0.169231 0.651282
vt 0.169231 0.646154
vt 0.538462 0.871795
vt 0.538462 0.876923
vt 0.523077 0.876923
vt 0.523077 0.871795
vt 0.484615 0.789744
vt 0.484615 0.779487
vt 0.500000 0.779487
vt 0.500000 0.789744
vt 0.338462 0.666667
vt 0.338462 0.676923
vt 0.353846 0.676923
vt 0.353846 0.666667
vt 0.538462 0.882051
vt 0.538462 0.887179
vt 0.523077 0.887179
vt 0.523077 0.882051
vt 0.538462 0.902564
vt 0.538462 0.907692
vt 0.523077 0.907692
vt 0.523077 0.902564
vt 0.538462 0.979487
vt 0.538462 0.984615
vt 0.530769 0.984615
vt 0.530769 0.979487
vt 0.076923 0.641026
vt 0.076923 0.646154
vt 0.069231 0.646154
vt 0.069231 0.641026
vt 0.507692 0.666667
vt 0.507692 0.661538
vt 0.523077 0.661538
vt 0.523077 0.666667
vt 0.515385 0.969231
vt 0.515385 0.974359
vt 0.530769 0.974359
vt 0.530769 0.969231
vt 0.476923 0.656410
vt 0.476923 0.661538
vt 0.461538 0.661538
vt 0.461538 0.656410
vt 0.353846 0.656410
vt 0.353846 0.661538
vt 0.338462 0.661538
vt 0.338462 0.656410
vt 0.192310 0.676920
vt 0.192310 0.697440
vt 0.200000 0.697440
vt 0.200000 0.676920
vt 0.092310 0.671800
vt 0.092310 0.692310
vt 0.100000 0.692310
vt 0.100000 0.671800
vt 0.515380 0.764100
vt 0.515380 0.758970
vt 0.500000 0.758970
vt 0.500000 0.764100
vt 0.376920 0.661540
vt 0.376920 0.666670
vt 0.361540 0.666670
vt 0.361540 0.661540
vt 0.200000 0.758970
vt 0.200000 0.779490
vt 0.215390 0.779490
vt 0.215390 0.758970
vt 0.315390 0.907690
vt 0.315390 0.928210
vt 0.330770 0.928210
vt 0.330770 0.907690
vt 0.346154 0.851282
vt 0.346154 0.861538
vt 0.253846 0.861538
vt 0.253846 0.851282
vt 0.361538 0.805128
vt 0.361538 0.815385
vt 0.269231 0.815385
vt 0.269231 0.805128
vt 0.161538 0.846154
vt 0.161538 0.784615
vt 0.184615 0.784615
vt 0.184615 0.846154
vt 0.192308 0.784615
vt 0.192308 0.846154
vt 0.215385 0.846154
vt 0.215385 0.784615
vt 0.100000 0.707692
vt 0.100000 0.717949
vt 0.076923 0.717949
vt 0.076923 0.707692
vt 0.423077 0.712821
vt 0.423077 0.723077
vt 0.400000 0.723077
vt 0.400000 0.712821
vt 0.476923 0.892308
vt 0.476923 0.897436
vt 0.438462 0.897436
vt 0.438462 0.892308
vt 0.476923 0.882051
vt 0.476923 0.887179
vt 0.438462 0.887179
vt 0.438462 0.882051
vt 0.053846 0.707692
vt 0.053846 0.682051
vt 0.061538 0.682051
vt 0.061538 0.707692
vt 0.438462 0.851282
vt 0.438462 0.876923
vt 0.446154 0.876923
vt 0.446154 0.851282
vt 0.392308 0.646154
vt 0.392308 0.651282
vt 0.384615 0.651282
vt 0.384615 0.646154
vt 0.530769 0.764103
vt 0.530769 0.769231
vt 0.523077 0.769231
vt 0.523077 0.764103
vt 0.292308 0.656410
vt 0.292308 0.666667
vt 0.284615 0.666667
vt 0.284615 0.656410
vt 0.307692 0.656410
vt 0.307692 0.666667
vt 0.300000 0.666667
vt 0.300000 0.656410
vt 0.500000 0.810256
vt 0.500000 0.805128
vt 0.515385 0.805128
vt 0.515385 0.810256
vt 0.315385 0.661538
vt 0.315385 0.666667
vt 0.330769 0.666667
vt 0.330769 0.661538
vt 0.469231 0.748718
vt 0.469231 0.758974
vt 0.453846 0.758974
vt 0.453846 0.748718
vt 0.469231 0.800000
vt 0.469231 0.810256
vt 0.453846 0.810256
vt 0.453846 0.800000
vt 0.500000 0.856410
vt 0.500000 0.861538
vt 0.469231 0.861538
vt 0.469231 0.856410
vt 0.507692 0.969231
vt 0.507692 0.974359
vt 0.476923 0.974359
vt 0.476923 0.969231
vt 0.376923 0.805128
vt 0.376923 0.784615
vt 0.400000 0.784615
vt 0.400000 0.805128
vt 0.376923 0.758974
vt 0.376923 0.779487
vt 0.400000 0.779487
vt 0.400000 0.758974
vt 0.515385 0.938462
vt 0.515385 0.943590
vt 0.492308 0.943590
vt 0.492308 0.938462
vt 0.515385 0.948718
vt 0.515385 0.953846
vt 0.492308 0.953846
vt 0.492308 0.948718
vt 0.507692 0.958974
vt 0.507692 0.964103
vt 0.476923 0.964103
vt 0.476923 0.958974
vt 0.507692 0.835897
vt 0.507692 0.841026
vt 0.476923 0.841026
vt 0.476923 0.835897
vt 0.338462 0.748718
vt 0.338462 0.728205
vt 0.361538 0.728205
vt 0.361538 0.748718
vt 0.369231 0.728205
vt 0.369231 0.748718
vt 0.392308 0.748718
vt 0.392308 0.728205
vt 0.515385 0.912821
vt 0.515385 0.917949
vt 0.492308 0.917949
vt 0.492308 0.912821
vt 0.530769 0.810256
vt 0.530769 0.815385
vt 0.523077 0.815385
vt 0.523077 0.810256
vt 0.300000 0.646154
vt 0.300000 0.651282
vt 0.292308 0.651282
vt 0.292308 0.646154
vt 0.461538 0.671795
vt 0.461538 0.666667
vt 0.476923 0.666667
vt 0.476923 0.671795
vt 0.092308 0.661538
vt 0.092308 0.666667
vt 0.107692 0.666667
vt 0.107692 0.661538
vt 0.276923 0.666667
vt 0.276923 0.671795
vt 0.261538 0.671795
vt 0.261538 0.666667
vt 0.507692 0.825641
vt 0.507692 0.830769
vt 0.492308 0.830769
vt 0.492308 0.825641
vt 0.215385 0.974359
vt 0.215385 0.994872
vt 0.007692 0.994872
vt 0.007692 0.974359
vt 0.215385 0.948718
vt 0.215385 0.969231
vt 0.007692 0.969231
vt 0.007692 0.948718
vt 0.007692 0.943590
vt 0.007692 0.805128
vt 0.038462 0.805128
vt 0.038462 0.943590
vt 0.046154 0.805128
vt 0.046154 0.943590
vt 0.076923 0.943590
vt 0.076923 0.805128
vt 0.369231 0.779487
vt 0.369231 0.800000
vt 0.338462 0.800000
vt 0.338462 0.779487
vt 0.369231 0.876923
vt 0.369231 0.897436
vt 0.338462 0.897436
vt 0.338462 0.876923
vt 0.530769 0.774359
vt 0.530769 0.779487
vt 0.523077 0.779487
vt 0.523077 0.774359
vt 0.346154 0.646154
vt 0.346154 0.651282
vt 0.338462 0.651282
vt 0.338462 0.646154
vt 0.484615 0.728205
vt 0.484615 0.723077
vt 0.507692 0.723077
vt 0.507692 0.728205
vt 0.484615 0.712821
vt 0.484615 0.717949
vt 0.507692 0.717949
vt 0.507692 0.712821
vt 0.423077 0.671795
vt 0.423077 0.676923
vt 0.400000 0.676923
vt 0.400000 0.671795
vt 0.292308 0.897436
vt 0.292308 0.902564
vt 0.269231 0.902564
vt 0.269231 0.897436
vt 0.353846 0.958974
vt 0.353846 0.969231
vt 0.346154 0.969231
vt 0.346154 0.958974
vt 0.369231 0.933333
vt 0.369231 0.943590
vt 0.361538 0.943590
vt 0.361538 0.933333
vt 0.115385 0.666667
vt 0.115385 0.661538
vt 0.130769 0.661538
vt 0.130769 0.666667
vt 0.500000 0.815385
vt 0.500000 0.820513
vt 0.515385 0.820513
vt 0.515385 0.815385
vt 0.223077 0.692308
vt 0.223077 0.702564
vt 0.207692 0.702564
vt 0.207692 0.692308
vt 0.169231 0.692308
vt 0.169231 0.702564
vt 0.153846 0.702564
vt 0.153846 0.692308
vt 0.438462 0.682051
vt 0.438462 0.702564
vt 0.430769 0.702564
vt 0.430769 0.682051
vt 0.453846 0.682051
vt 0.453846 0.702564
vt 0.446154 0.702564
vt 0.446154 0.682051
vt 0.446154 0.769231
vt 0.446154 0.764103
vt 0.476923 0.764103
vt 0.476923 0.769231
vt 0.453846 0.912821
vt 0.453846 0.917949
vt 0.484615 0.917949
vt 0.484615 0.912821
vt 0.376923 0.974359
vt 0.376923 0.994872
vt 0.346154 0.994872
vt 0.346154 0.974359
vt 0.369231 0.753846
vt 0.369231 0.774359
vt 0.338462 0.774359
vt 0.338462 0.753846
vt 0.184615 0.676923
vt 0.184615 0.697436
vt 0.176923 0.697436
vt 0.176923 0.676923
vt 0.461538 0.856410
vt 0.461538 0.876923
vt 0.453846 0.876923
vt 0.453846 0.856410
vt 0.453846 0.907692
vt 0.453846 0.902564
vt 0.484615 0.902564
vt 0.484615 0.907692
vt 0.453846 0.846154
vt 0.453846 0.851282
vt 0.484615 0.851282
vt 0.484615 0.846154
vt 0.153846 0.748718
vt 0.153846 0.769231
vt 0.123077 0.769231
vt 0.123077 0.748718
vt 0.115385 0.748718
vt 0.115385 0.769231
vt 0.084615 0.769231
vt 0.084615 0.748718
vt 0.323077 0.825641
vt 0.323077 0.846154
vt 0.284615 0.846154
vt 0.284615 0.825641
vt 0.353846 0.933333
vt 0.353846 0.953846
vt 0.315385 0.953846
vt 0.315385 0.933333
vt 0.223077 0.784615
vt 0.223077 0.758974
vt 0.253846 0.758974
vt 0.253846 0.784615
vt 0.161538 0.753846
vt 0.161538 0.779487
vt 0.192308 0.779487
vt 0.192308 0.753846
vt 0.076923 0.743590
vt 0.076923 0.764103
vt 0.046154 0.764103
vt 0.046154 0.743590
vt 0.038462 0.743590
vt 0.038462 0.764103
vt 0.007692 0.764103
vt 0.007692 0.743590
vt 0.261538 0.923077
vt 0.261538 0.943590
vt 0.084615 0.943590
vt 0.084615 0.923077
vt 0.261538 0.897436
vt 0.261538 0.917949
vt 0.084615 0.917949
vt 0.084615 0.897436
vt 0.084615 0.892308
vt 0.084615 0.774359
vt 0.115385 0.774359
vt 0.115385 0.892308
vt 0.123077 0.774359
vt 0.123077 0.892308
vt 0.153846 0.892308
vt 0.153846 0.774359
vt 0.292308 0.743590
vt 0.292308 0.764103
vt 0.261538 0.764103
vt 0.261538 0.743590
vt 0.384615 0.851282
vt 0.384615 0.871795
vt 0.353846 0.871795
vt 0.353846 0.851282
vt 0.030769 0.682051
vt 0.030769 0.707692
vt 0.023077 0.707692
vt 0.023077 0.682051
vt 0.046154 0.682051
vt 0.046154 0.707692
vt 0.038462 0.707692
vt 0.038462 0.682051
vt 0.438462 0.994872
vt 0.438462 0.989744
vt 0.476923 0.989744
vt 0.476923 0.994872
vt 0.438462 0.979487
vt 0.438462 0.984615
vt 0.476923 0.984615
vt 0.476923 0.979487
vt 0.307692 0.938462
vt 0.307692 0.964103
vt 0.269231 0.964103
vt 0.269231 0.938462
vt 0.292308 0.866667
vt 0.292308 0.892308
vt 0.253846 0.892308
vt 0.253846 0.866667
vt 0.084610 0.923080
vt 0.084610 0.943590
vt 0.261540 0.943590
vt 0.261540 0.923080
vt 0.084610 0.897440
vt 0.084610 0.917950
vt 0.261540 0.917950
vt 0.261540 0.897440
vt 0.115390 0.892310
vt 0.115390 0.774360
vt 0.084610 0.774360
vt 0.084610 0.892310
vt 0.153850 0.774360
vt 0.153850 0.892310
vt 0.123080 0.892310
vt 0.123080 0.774360
vt 0.261540 0.743590
vt 0.261540 0.764100
vt 0.292310 0.764100
vt 0.292310 0.743590
vt 0.353850 0.851280
vt 0.353850 0.871790
vt 0.384620 0.871790
vt 0.384620 0.851280
s 1
usemtl m_71d0b3dc-bc02-ada6-9bf4-670548237994
f 4/1/1 2/2/1 1/3/1 3/4/1
f 7/5/2 5/6/2 6/7/2 8/8/2
f 1/9/3 2/10/3 6/11/3 5/12/3
f 4/13/4 3/14/4 7/15/4 8/16/4
f 3/17/5 1/18/5 5/19/5 7/20/5
f 8/21/6 6/22/6 2/23/6 4/24/6
f 12/25/7 10/26/7 9/27/7 11/28/7
f 15/29/8 13/30/8 14/31/8 16/32/8
f 9/33/9 10/34/9 14/35/9 13/36/9
f 12/37/10 11/38/10 15/39/10 16/40/10
f 11/41/11 9/42/11 13/43/11 15/44/11
f 16/45/12 14/46/12 10/47/12 12/48/12
f 20/49/7 18/50/7 17/51/7 19/52/7
f 23/53/8 21/54/8 22/55/8 24/56/8
f 17/57/13 18/58/13 22/59/13 21/60/13
f 20/61/14 19/62/14 23/63/14 24/64/14
f 19/65/15 17/66/15 21/67/15 23/68/15
f 24/69/16 22/70/16 18/71/16 20/72/16
f 28/73/1 26/74/1 25/75/1 27/76/1
f 31/77/2 29/78/2 30/79/2 32/80/2
f 25/81/17 26/82/17 30/83/17 29/84/17
f 28/85/18 27/86/18 31/87/18 32/88/18
f 27/89/19 25/90/19 29/91/19 31/92/19
f 32/93/20 30/94/20 26/95/20 28/96/20
f 36/97/1 34/98/1 33/99/1 35/100/1
f 39/101/2 37/102/2 38/103/2 40/104/2
f 33/105/17 34/106/17 38/107/17 37/108/17
f 36/109/18 35/110/18 39/111/18 40/112/18
f 35/113/19 33/114/19 37/115/19 39/116/19
f 40/117/20 38/118/20 34/119/20 36/120/20
f 44/121/1 42/122/1 41/123/1 43/124/1
f 47/125/2 45/126/2 46/127/2 48/128/2
f 41/129/17 42/130/17 46/131/17 45/132/17
f 44/133/18 43/134/18 47/135/18 48/136/18
f 43/137/19 41/138/19 45/139/19 47/140/19
f 48/141/20 46/142/20 42/143/20 44/144/20
f 52/145/1 50/146/1 49/147/1 51/148/1
f 55/149/2 53/150/2 54/151/2 56/152/2
f 49/153/20 50/154/20 54/155/20 53/156/20
f 52/157/19 51/158/19 55/159/19 56/160/19
f 51/161/17 49/162/17 53/163/17 55/164/17
f 56/165/18 54/166/18 50/167/18 52/168/18
f 60/169/1 58/170/1 57/171/1 59/172/1
f 63/173/2 61/174/2 62/175/2 64/176/2
f 57/177/20 58/178/20 62/179/20 61/180/20
f 60/181/19 59/182/19 63/183/19 64/184/19
f 59/185/17 57/186/17 61/187/17 63/188/17
f 64/189/18 62/190/18 58/191/18 60/192/18
f 68/193/21 66/194/21 65/195/21 67/196/21
f 71/197/22 69/198/22 70/199/22 72/200/22
f 65/201/23 66/202/23 70/203/23 69/204/23
f 68/205/24 67/206/24 71/207/24 72/208/24
f 67/209/1 65/210/1 69/211/1 71/212/1
f 72/213/2 70/214/2 66/215/2 68/216/2
f 74/217/25 73/218/25 75/219/25 76/220/25
f 80/221/1 78/222/1 77/223/1 79/224/1
f 83/225/2 81/226/2 82/227/2 84/228/2
f 77/229/26 78/230/26 82/231/26 81/232/26
f 80/233/27 79/234/27 83/235/27 84/236/27
f 79/237/28 77/238/28 81/239/28 83/240/28
f 84/241/29 82/242/29 78/243/29 80/244/29
f 88/245/1 86/246/1 85/247/1 87/248/1
f 91/249/2 89/250/2 90/251/2 92/252/2
f 85/253/30 86/254/30 90/255/30 89/256/30
f 88/257/31 87/258/31 91/259/31 92/260/31
f 87/261/32 85/262/32 89/263/32 91/264/32
f 92/265/33 90/266/33 86/267/33 88/268/33
f 96/269/1 94/270/1 93/271/1 95/272/1
f 99/273/2 97/274/2 98/275/2 100/276/2
f 93/277/30 94/278/30 98/279/30 97/280/30
f 96/281/31 95/282/31 99/283/31 100/284/31
f 95/285/32 93/286/32 97/287/32 99/288/32
f 100/289/33 98/290/33 94/291/33 96/292/33
f 104/293/1 102/294/1 101/295/1 103/296/1
f 107/297/2 105/298/2 106/299/2 108/300/2
f 101/301/30 102/302/30 106/303/30 105/304/30
f 104/305/31 103/306/31 107/307/31 108/308/31
f 103/309/32 101/310/32 105/311/32 107/312/32
f 108/313/33 106/314/33 102/315/33 104/316/33
f 112/317/29 110/318/29 109/319/29 111/320/29
f 115/321/28 113/322/28 114/323/28 116/324/28
f 109/325/34 110/326/34 114/327/34 113/328/34
f 112/329/35 111/330/35 115/331/35 116/332/35
f 111/333/36 109/334/36 113/335/36 115/336/36
f 116/337/37 114/338/37 110/339/37 112/340/37
f 120/341/29 118/342/29 117/343/29 119/344/29
f 123/345/28 121/346/28 122/347/28 124/348/28
f 117/349/34 118/350/34 122/351/34 121/352/34
f 120/353/35 119/354/35 123/355/35 124/356/35
f 119/357/36 117/358/36 121/359/36 123/360/36
f 124/361/37 122/362/37 118/363/37 120/364/37
f 128/365/1 126/366/1 125/367/1 127/368/1
f 131/369/2 129/370/2 130/371/2 132/372/2
f 125/373/38 126/374/38 130/375/38 129/376/38
f 128/377/39 127/378/39 131/379/39 132/380/39
f 127/381/40 125/382/40 129/383/40 131/384/40
f 132/385/41 130/386/41 126/387/41 128/388/41
f 136/389/7 134/390/7 133/391/7 135/392/7
f 139/393/8 137/394/8 138/395/8 140/396/8
f 133/397/9 134/398/9 138/399/9 137/400/9
f 136/401/42 135/402/42 139/403/42 140/404/42
f 135/405/11 133/406/11 137/407/11 139/408/11
f 140/409/12 138/410/12 134/411/12 136/412/12
f 144/413/1 142/414/1 141/415/1 143/416/1
f 147/417/2 145/418/2 146/419/2 148/420/2
f 141/421/17 142/422/17 146/423/17 145/424/17
f 144/425/18 143/426/18 147/427/18 148/428/18
f 143/429/19 141/430/19 145/431/19 147/432/19
f 148/433/20 146/434/20 142/435/20 144/436/20
f 152/437/1 150/438/1 149/439/1 151/440/1
f 155/441/2 153/442/2 154/443/2 156/444/2
f 149/445/43 150/446/43 154/447/43 153/448/43
f 152/449/44 151/450/44 155/451/44 156/452/44
f 151/453/45 149/454/45 153/455/45 155/456/45
f 156/457/46 154/458/46 150/459/46 152/460/46
f 160/461/1 158/462/1 157/463/1 159/464/1
f 163/465/2 161/466/2 162/467/2 164/468/2
f 157/469/38 158/470/38 162/471/38 161/472/38
f 160/473/39 159/474/39 163/475/39 164/476/39
f 159/477/40 157/478/40 161/479/40 163/480/40
f 164/481/41 162/482/41 158/483/41 160/484/41
f 168/485/1 166/486/1 165/487/1 167/488/1
f 171/489/2 169/490/2 170/491/2 172/492/2
f 165/493/17 166/494/17 170/495/17 169/496/17
f 168/497/18 167/498/18 171/499/18 172/500/18
f 167/501/19 165/502/19 169/503/19 171/504/19
f 172/505/20 170/506/20 166/507/20 168/508/20
f 176/509/1 174/510/1 173/511/1 175/512/1
f 179/513/2 177/514/2 178/515/2 180/516/2
f 173/517/47 174/518/47 178/519/47 177/520/47
f 176/521/48 175/522/48 179/523/48 180/524/48
f 175/525/49 173/526/49 177/527/49 179/528/49
f 180/529/50 178/530/50 174/531/50 176/532/50
f 184/533/1 182/534/1 181/535/1 183/536/1
f 187/537/2 185/538/2 186/539/2 188/540/2
f 181/541/17 182/542/17 186/543/17 185/544/17
f 184/545/18 183/546/18 187/547/18 188/548/18
f 183/549/19 181/550/19 185/551/19 187/552/19
f 188/553/20 186/554/20 182/555/20 184/556/20
f 192/557/1 190/558/1 189/559/1 191/560/1
f 195/561/2 193/562/2 194/563/2 196/564/2
f 189/565/17 190/566/17 194/567/17 193/568/17
f 192/569/18 191/570/18 195/571/18 196/572/18
f 191/573/19 189/574/19 193/575/19 195/576/19
f 196/577/20 194/578/20 190/579/20 192/580/20
f 200/581/1 198/582/1 197/583/1 199/584/1
f 203/585/2 201/586/2 202/587/2 204/588/2
f 197/589/30 198/590/30 202/591/30 201/592/30
f 200/593/31 199/594/31 203/595/31 204/596/31
f 199/597/32 197/598/32 201/599/32 203/600/32
f 204/601/33 202/602/33 198/603/33 200/604/33
f 208/605/1 206/606/1 205/607/1 207/608/1
f 211/609/2 209/610/2 210/611/2 212/612/2
f 205/613/30 206/614/30 210/615/30 209/616/30
f 208/617/31 207/618/31 211/619/31 212/620/31
f 207/621/32 205/622/32 209/623/32 211/624/32
f 212/625/33 210/626/33 206/627/33 208/628/33
f 216/629/1 214/630/1 213/631/1 215/632/1
f 219/633/2 217/634/2 218/635/2 220/636/2
f 213/637/30 214/638/30 218/639/30 217/640/30
f 216/641/31 215/642/31 219/643/31 220/644/31
f 215/645/32 213/646/32 217/647/32 219/648/32
f 220/649/33 218/650/33 214/651/33 216/652/33
f 224/653/1 222/654/1 221/655/1 223/656/1
f 227/657/2 225/658/2 226/659/2 228/660/2
f 221/661/51 222/662/51 226/663/51 225/664/51
f 224/665/52 223/666/52 227/667/52 228/668/52
f 223/669/53 221/670/53 225/671/53 227/672/53
f 228/673/54 226/674/54 222/675/54 224/676/54
f 232/677/1 230/678/1 229/679/1 231/680/1
f 235/681/2 233/682/2 234/683/2 236/684/2
f 229/685/17 230/686/17 234/687/17 233/688/17
f 232/689/18 231/690/18 235/691/18 236/692/18
f 231/693/19 229/694/19 233/695/19 235/696/19
f 236/697/20 234/698/20 230/699/20 232/700/20
s 0
f 239/701/2 237/702/2 238/703/2 240/704/2
f 244/705/1 242/706/1 241/707/1 243/708/1
f 241/709/55 242/710/55 238/711/55 237/712/55
f 244/713/56 243/714/56 239/715/56 240/716/56
f 243/717/57 241/718/57 237/719/57 239/720/57
f 240/721/58 238/722/58 242/723/58 244/724/58
s 1
f 248/725/1 246/726/1 245/727/1 247/728/1
f 251/729/2 249/730/2 250/731/2 252/732/2
f 245/733/17 246/734/17 250/735/17 249/736/17
f 248/737/18 247/738/18 251/739/18 252/740/18
f 247/741/19 245/742/19 249/743/19 251/744/19
f 252/745/20 250/746/20 246/747/20 248/748/20
f 256/749/1 254/750/1 253/751/1 255/752/1
f 259/753/2 257/754/2 258/755/2 260/756/2
f 253/757/17 254/758/17 258/759/17 257/760/17
f 256/761/18 255/762/18 259/763/18 260/764/18
f 255/765/19 253/766/19 257/767/19 259/768/19
f 260/769/20 258/770/20 254/771/20 256/772/20
f 264/773/1 262/774/1 261/775/1 263/776/1
f 267/777/2 265/778/2 266/779/2 268/780/2
f 261/781/17 262/782/17 266/783/17 265/784/17
f 264/785/18 263/786/18 267/787/18 268/788/18
f 263/789/19 261/790/19 265/791/19 267/792/19
f 268/793/20 266/794/20 262/795/20 264/796/20
f 272/797/1 270/798/1 269/799/1 271/800/1
f 275/801/2 273/802/2 274/803/2 276/804/2
f 269/805/59 270/806/59 274/807/59 273/808/59
f 272/809/60 271/810/60 275/811/60 276/812/60
f 271/813/61 269/814/61 273/815/61 275/816/61
f 276/817/62 274/818/62 270/819/62 272/820/62
f 280/821/1 278/822/1 277/823/1 279/824/1
f 283/825/2 281/826/2 282/827/2 284/828/2
f 277/829/63 278/830/63 282/831/63 281/832/63
f 280/833/64 279/834/64 283/835/64 284/836/64
f 279/217/25 277/218/25 281/219/25 283/220/25
f 284/837/65 282/838/65 278/839/65 280/840/65
f 288/841/66 286/842/66 285/843/66 287/844/66
f 291/845/67 289/846/67 290/847/67 292/848/67
f 285/849/68 286/850/68 290/851/68 289/852/68
f 288/853/69 287/854/69 291/855/69 292/856/69
f 287/857/19 285/858/19 289/859/19 291/860/19
f 292/861/20 290/862/20 286/863/20 288/864/20
f 296/865/1 294/866/1 293/867/1 295/868/1
f 299/869/2 297/870/2 298/871/2 300/872/2
f 293/873/17 294/874/17 298/875/17 297/876/17
f 296/877/18 295/878/18 299/879/18 300/880/18
f 295/881/19 293/882/19 297/883/19 299/884/19
f 300/885/20 298/886/20 294/887/20 296/888/20
f 304/889/70 302/890/70 301/891/70 303/892/70
f 307/893/71 305/894/71 306/895/71 308/896/71
f 301/897/72 302/898/72 306/899/72 305/900/72
f 304/901/73 303/902/73 307/903/73 308/904/73
f 303/905/19 301/906/19 305/907/19 307/908/19
f 308/909/20 306/910/20 302/911/20 304/912/20
f 312/913/1 310/914/1 309/915/1 311/916/1
f 315/917/2 313/918/2 314/919/2 316/920/2
f 309/921/17 310/922/17 314/923/17 313/924/17
f 312/925/18 311/926/18 315/927/18 316/928/18
f 311/929/19 309/930/19 313/931/19 315/932/19
f 316/933/20 314/934/20 310/935/20 312/936/20
f 320/937/1 318/938/1 317/939/1 319/940/1
f 323/941/2 321/942/2 322/943/2 324/944/2
f 317/945/17 318/946/17 322/947/17 321/948/17
f 320/949/18 319/950/18 323/951/18 324/952/18
f 319/953/19 317/954/19 321/955/19 323/956/19
f 324/957/20 322/958/20 318/959/20 320/960/20
f 328/961/1 326/962/1 325/963/1 327/964/1
f 331/965/2 329/966/2 330/967/2 332/968/2
f 325/969/17 326/970/17 330/971/17 329/972/17
f 328/973/18 327/974/18 331/975/18 332/976/18
f 327/977/19 325/978/19 329/979/19 331/980/19
f 332/981/20 330/982/20 326/983/20 328/984/20
f 336/985/1 334/986/1 333/987/1 335/988/1
f 339/989/2 337/990/2 338/991/2 340/992/2
f 333/993/17 334/994/17 338/995/17 337/996/17
f 336/997/18 335/998/18 339/999/18 340/1000/18
f 335/1001/19 333/1002/19 337/1003/19 339/1004/19
f 340/1005/20 338/1006/20 334/1007/20 336/1008/20
f 344/1009/1 342/1010/1 341/1011/1 343/1012/1
f 347/1013/2 345/1014/2 346/1015/2 348/1016/2
f 341/1017/17 342/1018/17 346/1019/17 345/1020/17
f 344/1021/18 343/1022/18 347/1023/18 348/1024/18
f 343/1025/19 341/1026/19 345/1027/19 347/1028/19
f 348/1029/20 346/1030/20 342/1031/20 344/1032/20
f 352/1033/1 350/1034/1 349/1035/1 351/1036/1
f 355/1037/2 353/1038/2 354/1039/2 356/1040/2
f 349/1041/17 350/1042/17 354/1043/17 353/1044/17
f 352/1045/18 351/1046/18 355/1047/18 356/1048/18
f 351/1049/19 349/1050/19 353/1051/19 355/1052/19
f 356/1053/20 354/1054/20 350/1055/20 352/1056/20
s 0
f 359/1057/2 357/1058/2 358/1059/2 360/1060/2
f 364/1061/1 362/1062/1 361/1063/1 363/1064/1
f 361/1065/18 362/1066/18 358/1067/18 357/1068/18
f 364/1069/17 363/1070/17 359/1071/17 360/1072/17
f 363/1073/20 361/1074/20 357/1075/20 359/1076/20
f 360/1077/19 358/1078/19 362/1079/19 364/1080/19
