# Blender 3.6.23
# www.blender.org
mtllib fagot.mtl
o base
v 0.185148 0.375251 -0.333258
v 0.462041 0.055522 -0.812851
v 0.163545 0.300415 -0.295840
v 0.440438 -0.019314 -0.775433
v 0.125279 0.375251 -0.367823
v 0.402172 0.055522 -0.847416
v 0.103676 0.300415 -0.330405
v 0.380569 -0.019314 -0.809998
v 0.380217 0.029494 1.043770
v 0.380218 0.263220 0.542543
v 0.380217 0.029494 1.043770
v 0.380218 0.263220 0.542543
v 0.051848 0.029494 1.043770
v 0.051848 0.263220 0.542542
v 0.051848 0.029494 1.043770
v 0.051848 0.263220 0.542542
v 0.034565 0.208735 1.141640
v 0.034566 0.088018 0.952152
v 0.034565 0.150431 1.178784
v 0.034566 0.029714 0.989296
v -0.034566 0.208735 1.141640
v -0.034565 0.088018 0.952152
v -0.034565 0.150431 1.178783
v -0.034565 0.029714 0.989295
v 0.051848 0.093582 1.015750
v 0.051848 0.285382 0.552705
v 0.051848 0.029714 0.989295
v 0.051848 0.221513 0.526250
v -0.051848 0.093582 1.015750
v -0.051848 0.285382 0.552705
v -0.051848 0.029713 0.989295
v -0.051848 0.221513 0.526250
v 0.034565 0.270031 0.601512
v 0.034565 0.321915 0.207412
v 0.034565 0.184357 0.590233
v 0.034566 0.236241 0.196134
v -0.034565 0.270031 0.601512
v -0.034565 0.321916 0.207413
v -0.034566 0.184357 0.590233
v -0.034565 0.236241 0.196134
v 0.069131 0.321916 0.207413
v 0.069131 0.367032 -0.135282
v 0.069130 0.236241 0.196134
v 0.069130 0.281358 -0.146561
v -0.069130 0.321915 0.207412
v -0.069130 0.367031 -0.135283
v -0.069130 0.236241 0.196134
v -0.069130 0.281358 -0.146562
v 0.073553 0.367032 -0.105405
v 0.220456 0.367032 -0.359847
v 0.073553 0.280619 -0.105405
v 0.220456 0.280619 -0.359847
v -0.016250 0.367032 -0.157253
v 0.130653 0.367032 -0.411695
v -0.016250 0.280619 -0.157253
v 0.130653 0.280619 -0.411695
v 0.016249 0.367032 -0.157253
v -0.130652 0.367032 -0.411695
v 0.016249 0.280619 -0.157253
v -0.130652 0.280619 -0.411695
v -0.073554 0.367032 -0.105405
v -0.220455 0.367032 -0.359847
v -0.073554 0.280619 -0.105405
v -0.220455 0.280619 -0.359847
v -0.125279 0.375251 -0.367824
v -0.402172 0.055522 -0.847416
v -0.103676 0.300415 -0.330405
v -0.380569 -0.019314 -0.809998
v -0.185148 0.375251 -0.333258
v -0.462041 0.055522 -0.812851
v -0.163545 0.300415 -0.295840
v -0.440437 -0.019314 -0.775432
v -0.176507 0.207055 -0.594813
v -0.363596 -0.008977 -0.918862
v -0.176507 0.207055 -0.594813
v -0.363596 -0.008977 -0.918862
v -0.415981 0.207056 -0.456552
v -0.603071 -0.008977 -0.780601
v -0.415981 0.207056 -0.456552
v -0.603071 -0.008977 -0.780601
v 0.415982 0.207056 -0.456552
v 0.603072 -0.008977 -0.780601
v 0.415982 0.207056 -0.456552
v 0.603072 -0.008977 -0.780601
v 0.176507 0.207055 -0.594813
v 0.363597 -0.008977 -0.918862
v 0.176507 0.207055 -0.594813
v 0.363597 -0.008977 -0.918862
v 0.034565 0.367032 -0.135282
v 0.034565 0.367032 -0.204413
v 0.034565 0.280619 -0.135282
v 0.034566 0.280619 -0.204413
v -0.034565 0.367032 -0.135282
v -0.034565 0.367032 -0.204413
v -0.034565 0.280619 -0.135282
v -0.034565 0.280619 -0.204413
v 0.185148 0.375251 -0.333258
v 0.462041 0.055522 -0.812851
v 0.163545 0.300415 -0.295840
v 0.440438 -0.019314 -0.775433
v 0.125279 0.375251 -0.367823
v 0.402172 0.055522 -0.847416
v 0.103676 0.300415 -0.330405
v 0.380569 -0.019314 -0.809998
v 0.380217 0.029494 1.043770
v 0.380218 0.263220 0.542543
v 0.380217 0.029494 1.043770
v 0.380218 0.263220 0.542543
v 0.051848 0.029494 1.043770
v 0.051848 0.263220 0.542542
v 0.051848 0.029494 1.043770
v 0.051848 0.263220 0.542542
v 0.034565 0.208735 1.141640
v 0.034566 0.088018 0.952152
v 0.034565 0.150431 1.178784
v 0.034566 0.029714 0.989296
v -0.034566 0.208735 1.141640
v -0.034565 0.088018 0.952152
v -0.034565 0.150431 1.178783
v -0.034565 0.029714 0.989295
v 0.051848 0.093582 1.015750
v 0.051848 0.285382 0.552705
v 0.051848 0.029714 0.989295
v 0.051848 0.221513 0.526250
v -0.051848 0.093582 1.015750
v -0.051848 0.285382 0.552705
v -0.051848 0.029713 0.989295
v -0.051848 0.221513 0.526250
v 0.034565 0.270031 0.601512
v 0.034565 0.321915 0.207412
v 0.034565 0.184357 0.590233
v 0.034566 0.236241 0.196134
v -0.034565 0.270031 0.601512
v -0.034565 0.321916 0.207413
v -0.034566 0.184357 0.590233
v -0.034565 0.236241 0.196134
v 0.069131 0.321916 0.207413
v 0.069131 0.367032 -0.135282
v 0.069130 0.236241 0.196134
v 0.069130 0.281358 -0.146561
v -0.069130 0.321915 0.207412
v -0.069130 0.367031 -0.135283
v -0.069130 0.236241 0.196134
v -0.069130 0.281358 -0.146562
v 0.073553 0.367032 -0.105405
v 0.220456 0.367032 -0.359847
v 0.073553 0.280619 -0.105405
v 0.220456 0.280619 -0.359847
v -0.016250 0.367032 -0.157253
v 0.130653 0.367032 -0.411695
v -0.016250 0.280619 -0.157253
v 0.130653 0.280619 -0.411695
v 0.016249 0.367032 -0.157253
v -0.130652 0.367032 -0.411695
v 0.016249 0.280619 -0.157253
v -0.130652 0.280619 -0.411695
v -0.073554 0.367032 -0.105405
v -0.220455 0.367032 -0.359847
v -0.073554 0.280619 -0.105405
v -0.220455 0.280619 -0.359847
v -0.125279 0.375251 -0.367824
v -0.402172 0.055522 -0.847416
v -0.103676 0.300415 -0.330405
v -0.380569 -0.019314 -0.809998
v -0.185148 0.375251 -0.333258
v -0.462041 0.055522 -0.812851
v -0.163545 0.300415 -0.295840
v -0.440437 -0.019314 -0.775432
v -0.176507 0.207055 -0.594813
v -0.363596 -0.008977 -0.918862
v -0.176507 0.207055 -0.594813
v -0.363596 -0.008977 -0.918862
v -0.415981 0.207056 -0.456552
v -0.603071 -0.008977 -0.780601
v -0.415981 0.207056 -0.456552
v -0.603071 -0.008977 -0.780601
v 0.415982 0.207056 -0.456552
v 0.603072 -0.008977 -0.780601
v 0.415982 0.207056 -0.456552
v 0.603072 -0.008977 -0.780601
v 0.176507 0.207055 -0.594813
v 0.363597 -0.008977 -0.918862
v 0.176507 0.207055 -0.594813
v 0.363597 -0.008977 -0.918862
v 0.034565 0.367032 -0.135282
v 0.034565 0.367032 -0.204413
v 0.034565 0.280619 -0.135282
v 0.034566 0.280619 -0.204413
v -0.034565 0.367032 -0.135282
v -0.034565 0.367032 -0.204413
v -0.034565 0.280619 -0.135282
v -0.034565 0.280619 -0.204413
vn 0.8660 -0.0000 0.5000
vn -0.8660 -0.0000 -0.5000
vn 0.2500 0.8660 -0.4330
vn -0.2500 -0.8660 0.4330
vn -0.4330 0.5000 0.7500
vn 0.4330 -0.5000 -0.7500
vn -0.0000 -0.0000 1.0000
vn -0.0000 0.9063 0.4226
vn -0.0000 -0.9063 -0.4226
vn 1.0000 -0.0000 -0.0000
vn -1.0000 -0.0000 -0.0000
vn -0.0000 0.8434 -0.5373
vn -0.0000 -0.8434 0.5373
vn -0.0000 0.5373 0.8434
vn -0.0000 -0.5373 -0.8434
vn -0.0000 0.9239 0.3827
vn -0.0000 -0.9239 -0.3827
vn -0.0000 -0.3827 0.9239
vn -0.0000 0.3827 -0.9239
vn -0.0000 0.9914 0.1305
vn -0.0000 -0.9914 -0.1305
vn -0.0000 -0.1305 0.9914
vn -0.0000 0.1305 -0.9914
vn -0.0000 1.0000 -0.0000
vn -0.0000 -1.0000 -0.0000
vn -0.5000 -0.0000 0.8660
vn 0.5000 -0.0000 -0.8660
vn 0.8660 -0.0000 -0.5000
vn -0.8660 -0.0000 0.5000
vn 0.5000 -0.0000 0.8660
vn -0.5000 -0.0000 -0.8660
vn -0.2500 0.8660 -0.4330
vn 0.2500 -0.8660 0.4330
vn 0.4330 0.5000 0.7500
vn -0.4330 -0.5000 -0.7500
vn -0.0000 -0.0000 -1.0000
vt 0.469231 0.964103
vt 0.469231 0.969231
vt 0.400000 0.969231
vt 0.400000 0.964103
vt 0.469231 0.953846
vt 0.469231 0.958974
vt 0.400000 0.958974
vt 0.400000 0.953846
vt 0.307692 0.733333
vt 0.307692 0.687180
vt 0.315385 0.687180
vt 0.315385 0.733333
vt 0.323077 0.687180
vt 0.323077 0.733333
vt 0.330769 0.733333
vt 0.330769 0.687180
vt 0.546154 0.753846
vt 0.546154 0.758974
vt 0.538462 0.758974
vt 0.538462 0.753846
vt 0.546154 0.764103
vt 0.546154 0.769231
vt 0.538462 0.769231
vt 0.538462 0.764103
vt 0.584615 0.733333
vt 0.523077 0.733333
vt 0.592308 0.830769
vt 0.530769 0.830769
vt 0.161538 0.892308
vt 0.161538 0.851282
vt 0.200000 0.851282
vt 0.200000 0.892308
vt 0.207692 0.851282
vt 0.207692 0.892308
vt 0.246154 0.892308
vt 0.246154 0.851282
vt 0.569231 0.856410
vt 0.530769 0.856410
vt 0.323077 0.820513
vt 0.284615 0.820513
vt 0.515385 0.866667
vt 0.515385 0.871795
vt 0.492308 0.871795
vt 0.492308 0.866667
vt 0.515385 0.846154
vt 0.515385 0.851282
vt 0.492308 0.851282
vt 0.492308 0.846154
vt 0.138462 0.671795
vt 0.138462 0.656410
vt 0.146154 0.656410
vt 0.146154 0.671795
vt 0.207692 0.656410
vt 0.207692 0.671795
vt 0.215385 0.671795
vt 0.215385 0.656410
vt 0.346154 0.635897
vt 0.346154 0.641026
vt 0.338462 0.641026
vt 0.338462 0.635897
vt 0.546154 0.774359
vt 0.546154 0.779487
vt 0.538462 0.779487
vt 0.538462 0.774359
vt 0.469231 0.835897
vt 0.469231 0.841026
vt 0.415385 0.841026
vt 0.415385 0.835897
vt 0.392308 0.717949
vt 0.392308 0.723077
vt 0.338462 0.723077
vt 0.338462 0.717949
vt 0.230769 0.753846
vt 0.230769 0.717949
vt 0.246154 0.717949
vt 0.246154 0.753846
vt 0.369231 0.810256
vt 0.369231 0.846154
vt 0.384615 0.846154
vt 0.384615 0.810256
vt 0.538462 0.923077
vt 0.538462 0.928205
vt 0.523077 0.928205
vt 0.523077 0.923077
vt 0.538462 0.933333
vt 0.538462 0.938462
vt 0.523077 0.938462
vt 0.523077 0.933333
vt 0.476923 0.717949
vt 0.476923 0.723077
vt 0.430769 0.723077
vt 0.430769 0.717949
vt 0.476923 0.707692
vt 0.476923 0.712821
vt 0.430769 0.712821
vt 0.430769 0.707692
vt 0.384615 0.712821
vt 0.384615 0.682051
vt 0.392308 0.682051
vt 0.392308 0.712821
vt 0.007692 0.676923
vt 0.007692 0.707692
vt 0.015385 0.707692
vt 0.015385 0.676923
vt 0.138462 0.635897
vt 0.138462 0.641026
vt 0.130769 0.641026
vt 0.130769 0.635897
vt 0.123077 0.635897
vt 0.123077 0.641026
vt 0.115385 0.641026
vt 0.115385 0.635897
vt 0.484615 0.943590
vt 0.484615 0.948718
vt 0.446154 0.948718
vt 0.446154 0.943590
vt 0.484615 0.933333
vt 0.484615 0.938462
vt 0.446154 0.938462
vt 0.446154 0.933333
vt 0.392308 0.861538
vt 0.392308 0.835897
vt 0.407692 0.835897
vt 0.407692 0.861538
vt 0.253846 0.712821
vt 0.253846 0.738462
vt 0.269231 0.738462
vt 0.269231 0.712821
vt 0.538462 0.846154
vt 0.538462 0.851282
vt 0.523077 0.851282
vt 0.523077 0.846154
vt 0.223077 0.646154
vt 0.223077 0.651282
vt 0.207692 0.651282
vt 0.207692 0.646154
vt 0.515385 0.769231
vt 0.515385 0.774359
vt 0.484615 0.774359
vt 0.484615 0.769231
vt 0.392308 0.671795
vt 0.392308 0.676923
vt 0.361538 0.676923
vt 0.361538 0.671795
vt 0.184615 0.723077
vt 0.184615 0.702564
vt 0.200000 0.702564
vt 0.200000 0.723077
vt 0.415385 0.846154
vt 0.415385 0.866667
vt 0.430769 0.866667
vt 0.430769 0.846154
vt 0.538462 0.820513
vt 0.538462 0.825641
vt 0.523077 0.825641
vt 0.523077 0.820513
vt 0.246154 0.646154
vt 0.246154 0.651282
vt 0.230769 0.651282
vt 0.230769 0.646154
vt 0.507692 0.794872
vt 0.507692 0.800000
vt 0.476923 0.800000
vt 0.476923 0.794872
vt 0.515385 0.923077
vt 0.515385 0.928205
vt 0.484615 0.928205
vt 0.484615 0.923077
vt 0.415385 0.994872
vt 0.415385 0.974359
vt 0.430769 0.974359
vt 0.430769 0.994872
vt 0.415385 0.871795
vt 0.415385 0.892308
vt 0.430769 0.892308
vt 0.430769 0.871795
vt 0.146154 0.646154
vt 0.146154 0.651282
vt 0.130769 0.651282
vt 0.130769 0.646154
vt 0.538462 0.912821
vt 0.538462 0.917949
vt 0.523077 0.917949
vt 0.523077 0.912821
vt 0.461538 0.825641
vt 0.461538 0.830769
vt 0.392308 0.830769
vt 0.392308 0.825641
vt 0.461538 0.815385
vt 0.461538 0.820513
vt 0.392308 0.820513
vt 0.392308 0.815385
vt 0.276923 0.738462
vt 0.276923 0.692308
vt 0.284615 0.692308
vt 0.284615 0.738462
vt 0.292308 0.687180
vt 0.292308 0.733333
vt 0.300000 0.733333
vt 0.300000 0.687180
vt 0.546154 0.800000
vt 0.546154 0.805128
vt 0.538462 0.805128
vt 0.538462 0.800000
vt 0.292308 0.635897
vt 0.292308 0.641026
vt 0.284615 0.641026
vt 0.284615 0.635897
vt 0.584615 0.943590
vt 0.538462 0.943590
vt 0.584615 0.794872
vt 0.538462 0.794872
vt 0.007692 0.800000
vt 0.007692 0.769231
vt 0.038462 0.769231
vt 0.038462 0.800000
vt 0.046154 0.769231
vt 0.046154 0.800000
vt 0.076923 0.800000
vt 0.076923 0.769231
vt 0.469231 0.974359
vt 0.438462 0.974359
vt 0.330769 0.866667
vt 0.300000 0.866667
vt 0.584615 0.743590
vt 0.538462 0.743590
vt 0.584615 0.738462
vt 0.538462 0.738462
vt 0.300000 0.902564
vt 0.300000 0.871795
vt 0.330769 0.871795
vt 0.330769 0.902564
vt 0.269231 0.769231
vt 0.269231 0.800000
vt 0.300000 0.800000
vt 0.300000 0.769231
vt 0.415385 0.641026
vt 0.384615 0.641026
vt 0.569231 0.748718
vt 0.538462 0.748718
vt 0.215385 0.635897
vt 0.215385 0.641026
vt 0.207692 0.641026
vt 0.207692 0.635897
vt 0.246154 0.635897
vt 0.246154 0.641026
vt 0.238462 0.641026
vt 0.238462 0.635897
vt 0.269231 0.641026
vt 0.269231 0.635897
vt 0.276923 0.635897
vt 0.276923 0.641026
vt 0.538462 0.810256
vt 0.538462 0.815385
vt 0.546154 0.815385
vt 0.546154 0.810256
vt 0.230769 0.635897
vt 0.230769 0.641026
vt 0.223077 0.641026
vt 0.223077 0.635897
vt 0.176923 0.635897
vt 0.176923 0.641026
vt 0.169231 0.641026
vt 0.169231 0.635897
s 1
usemtl m_71d0b3dc-bc02-ada6-9bf4-670548237994
f 4/1/1 2/2/1 1/3/1 3/4/1
f 7/5/2 5/6/2 6/7/2 8/8/2
f 1/9/3 2/10/3 6/11/3 5/12/3
f 4/13/4 3/14/4 7/15/4 8/16/4
f 3/17/5 1/18/5 5/19/5 7/20/5
f 8/21/6 6/22/6 2/23/6 4/24/6
s 0
f 10/25/7 9/26/7 12/25/7 11/26/7
f 13/27/7 14/28/7 15/27/7 16/28/7
s 1
f 9/29/8 10/30/8 14/31/8 13/32/8
f 12/33/9 11/34/9 15/35/9 16/36/9
s 0
f 9/37/7 13/38/7 11/37/7 15/38/7
f 14/39/7 10/40/7 16/39/7 12/40/7
s 1
f 20/41/10 18/42/10 17/43/10 19/44/10
f 23/45/11 21/46/11 22/47/11 24/48/11
f 17/49/12 18/50/12 22/51/12 21/52/12
f 20/53/13 19/54/13 23/55/13 24/56/13
f 19/57/14 17/58/14 21/59/14 23/60/14
f 24/61/15 22/62/15 18/63/15 20/64/15
f 28/65/10 26/66/10 25/67/10 27/68/10
f 31/69/11 29/70/11 30/71/11 32/72/11
f 25/73/16 26/74/16 30/75/16 29/76/16
f 28/77/17 27/78/17 31/79/17 32/80/17
f 27/81/18 25/82/18 29/83/18 31/84/18
f 32/85/19 30/86/19 26/87/19 28/88/19
f 36/89/10 34/90/10 33/91/10 35/92/10
f 39/93/11 37/94/11 38/95/11 40/96/11
f 33/97/20 34/98/20 38/99/20 37/100/20
f 36/101/21 35/102/21 39/103/21 40/104/21
f 35/105/22 33/106/22 37/107/22 39/108/22
f 40/109/23 38/110/23 34/111/23 36/112/23
f 44/113/10 42/114/10 41/115/10 43/116/10
f 47/117/11 45/118/11 46/119/11 48/120/11
f 41/121/20 42/122/20 46/123/20 45/124/20
f 44/125/21 43/126/21 47/127/21 48/128/21
f 43/129/22 41/130/22 45/131/22 47/132/22
f 48/133/23 46/134/23 42/135/23 44/136/23
f 52/137/1 50/138/1 49/139/1 51/140/1
f 55/141/2 53/142/2 54/143/2 56/144/2
f 49/145/24 50/146/24 54/147/24 53/148/24
f 52/149/25 51/150/25 55/151/25 56/152/25
f 51/153/26 49/154/26 53/155/26 55/156/26
f 56/157/27 54/158/27 50/159/27 52/160/27
f 60/161/28 58/162/28 57/163/28 59/164/28
f 63/165/29 61/166/29 62/167/29 64/168/29
f 57/169/24 58/170/24 62/171/24 61/172/24
f 60/173/25 59/174/25 63/175/25 64/176/25
f 59/177/30 57/178/30 61/179/30 63/180/30
f 64/181/31 62/182/31 58/183/31 60/184/31
f 68/185/28 66/186/28 65/187/28 67/188/28
f 71/189/29 69/190/29 70/191/29 72/192/29
f 65/193/32 66/194/32 70/195/32 69/196/32
f 68/197/33 67/198/33 71/199/33 72/200/33
f 67/201/34 65/202/34 69/203/34 71/204/34
f 72/205/35 70/206/35 66/207/35 68/208/35
s 0
f 74/209/7 73/210/7 76/209/7 75/210/7
f 77/211/7 78/212/7 79/211/7 80/212/7
s 1
f 73/213/32 74/214/32 78/215/32 77/216/32
f 76/217/33 75/218/33 79/219/33 80/220/33
s 0
f 73/221/7 77/222/7 75/221/7 79/222/7
f 78/223/7 74/224/7 80/223/7 76/224/7
f 82/225/7 81/226/7 84/225/7 83/226/7
f 85/227/7 86/228/7 87/227/7 88/228/7
s 1
f 81/229/3 82/230/3 86/231/3 85/232/3
f 84/233/4 83/234/4 87/235/4 88/236/4
s 0
f 81/237/7 85/238/7 83/237/7 87/238/7
f 86/239/7 82/240/7 88/239/7 84/240/7
s 1
f 92/241/10 90/242/10 89/243/10 91/244/10
f 95/245/11 93/246/11 94/247/11 96/248/11
f 89/249/24 90/250/24 94/251/24 93/252/24
f 92/253/25 91/254/25 95/255/25 96/256/25
f 91/257/7 89/258/7 93/259/7 95/260/7
f 96/261/36 94/262/36 90/263/36 92/264/36
f 100/1/1 98/2/1 97/3/1 99/4/1
f 103/5/2 101/6/2 102/7/2 104/8/2
f 97/9/3 98/10/3 102/11/3 101/12/3
f 100/13/4 99/14/4 103/15/4 104/16/4
f 99/17/5 97/18/5 101/19/5 103/20/5
f 104/21/6 102/22/6 98/23/6 100/24/6
s 0
f 106/25/7 105/26/7 108/25/7 107/26/7
f 109/27/7 110/28/7 111/27/7 112/28/7
s 1
f 105/29/8 106/30/8 110/31/8 109/32/8
f 108/33/9 107/34/9 111/35/9 112/36/9
s 0
f 105/37/7 109/38/7 107/37/7 111/38/7
f 110/39/7 106/40/7 112/39/7 108/40/7
s 1
f 116/41/10 114/42/10 113/43/10 115/44/10
f 119/45/11 117/46/11 118/47/11 120/48/11
f 113/49/12 114/50/12 118/51/12 117/52/12
f 116/53/13 115/54/13 119/55/13 120/56/13
f 115/57/14 113/58/14 117/59/14 119/60/14
f 120/61/15 118/62/15 114/63/15 116/64/15
f 124/65/10 122/66/10 121/67/10 123/68/10
f 127/69/11 125/70/11 126/71/11 128/72/11
f 121/73/16 122/74/16 126/75/16 125/76/16
f 124/77/17 123/78/17 127/79/17 128/80/17
f 123/81/18 121/82/18 125/83/18 127/84/18
f 128/85/19 126/86/19 122/87/19 124/88/19
f 132/89/10 130/90/10 129/91/10 131/92/10
f 135/93/11 133/94/11 134/95/11 136/96/11
f 129/97/20 130/98/20 134/99/20 133/100/20
f 132/101/21 131/102/21 135/103/21 136/104/21
f 131/105/22 129/106/22 133/107/22 135/108/22
f 136/109/23 134/110/23 130/111/23 132/112/23
f 140/113/10 138/114/10 137/115/10 139/116/10
f 143/117/11 141/118/11 142/119/11 144/120/11
f 137/121/20 138/122/20 142/123/20 141/124/20
f 140/125/21 139/126/21 143/127/21 144/128/21
f 139/129/22 137/130/22 141/131/22 143/132/22
f 144/133/23 142/134/23 138/135/23 140/136/23
f 148/137/1 146/138/1 145/139/1 147/140/1
f 151/141/2 149/142/2 150/143/2 152/144/2
f 145/145/24 146/146/24 150/147/24 149/148/24
f 148/149/25 147/150/25 151/151/25 152/152/25
f 147/153/26 145/154/26 149/155/26 151/156/26
f 152/157/27 150/158/27 146/159/27 148/160/27
f 156/161/28 154/162/28 153/163/28 155/164/28
f 159/165/29 157/166/29 158/167/29 160/168/29
f 153/169/24 154/170/24 158/171/24 157/172/24
f 156/173/25 155/174/25 159/175/25 160/176/25
f 155/177/30 153/178/30 157/179/30 159/180/30
f 160/181/31 158/182/31 154/183/31 156/184/31
f 164/185/28 162/186/28 161/187/28 163/188/28
f 167/189/29 165/190/29 166/191/29 168/192/29
f 161/193/32 162/194/32 166/195/32 165/196/32
f 164/197/33 163/198/33 167/199/33 168/200/33
f 163/201/34 161/202/34 165/203/34 167/204/34
f 168/205/35 166/206/35 162/207/35 164/208/35
s 0
f 170/209/7 169/210/7 172/209/7 171/210/7
f 173/211/7 174/212/7 175/211/7 176/212/7
s 1
f 169/213/32 170/214/32 174/215/32 173/216/32
f 172/217/33 171/218/33 175/219/33 176/220/33
s 0
f 169/221/7 173/222/7 171/221/7 175/222/7
f 174/223/7 170/224/7 176/223/7 172/224/7
f 178/225/7 177/226/7 180/225/7 179/226/7
f 181/227/7 182/228/7 183/227/7 184/228/7
s 1
f 177/229/3 178/230/3 182/231/3 181/232/3
f 180/233/4 179/234/4 183/235/4 184/236/4
s 0
f 177/237/7 181/238/7 179/237/7 183/238/7
f 182/239/7 178/240/7 184/239/7 180/240/7
s 1
f 188/241/10 186/242/10 185/243/10 187/244/10
f 191/245/11 189/246/11 190/247/11 192/248/11
f 185/249/24 186/250/24 190/251/24 189/252/24
f 188/253/25 187/254/25 191/255/25 192/256/25
f 187/257/7 185/258/7 189/259/7 191/260/7
f 192/261/36 190/262/36 186/263/36 188/264/36
