# Blender 4.5.3 LTS
# www.blender.org
mtllib hmmwv_m2_turret.mtl
o gun
v 0.004353 0.583947 1.488254
v 0.004353 0.583947 1.566100
v -0.035565 0.555996 1.488254
v -0.035564 0.555996 1.566100
v 0.012339 0.572542 1.566100
v 0.012339 0.572542 1.488254
v -0.027579 0.544590 1.566100
v -0.027578 0.544590 1.488254
v -0.085577 0.538611 1.327136
v -0.085577 0.538611 2.077132
v -0.050222 0.503256 1.327136
v -0.050222 0.503256 2.077132
v -0.050222 0.573967 2.077132
v -0.050222 0.573967 1.327136
v -0.014867 0.538611 2.077132
v -0.014867 0.538611 1.327136
v -0.215896 0.594061 0.332589
v -0.215896 0.594061 0.361827
v -0.215896 0.564822 0.332589
v -0.215896 0.564822 0.361827
v -0.083628 0.594061 0.361827
v -0.083628 0.594061 0.332589
v -0.083628 0.564822 0.361827
v -0.083628 0.564822 0.332589
v 0.031440 0.512196 0.641838
v 0.259746 0.512196 0.641838
v 0.031440 0.277641 0.641838
v 0.259746 0.277641 0.641838
v 0.259746 0.512196 0.308454
v 0.031440 0.512196 0.308454
v 0.259746 0.277641 0.308454
v 0.031440 0.277641 0.308454
v 0.013506 0.591069 0.579338
v 0.216015 0.485649 0.579338
v -0.015353 0.535630 0.579338
v 0.187156 0.430211 0.579338
v 0.216015 0.485649 0.370954
v 0.013506 0.591069 0.370954
v 0.187156 0.430211 0.370954
v -0.015353 0.535630 0.370954
v -0.132359 0.577929 0.332937
v -0.132359 0.583956 0.360123
v -0.132359 0.496371 0.351018
v -0.132359 0.502397 0.378204
v -0.083628 0.583956 0.360123
v -0.083628 0.577929 0.332937
v -0.083628 0.502397 0.378204
v -0.083628 0.496371 0.351018
v -0.104513 0.589883 0.942413
v -0.104513 0.589884 1.374025
v -0.104513 0.478500 0.942413
v -0.104513 0.478500 1.374025
v 0.006871 0.589884 1.374025
v 0.006871 0.589883 0.942413
v 0.006871 0.478500 1.374025
v 0.006871 0.478500 0.942413
v -0.007052 0.596846 1.471485
v -0.007052 0.596846 1.589830
v -0.007052 0.568999 1.471485
v -0.007052 0.568999 1.589830
v 0.027755 0.596846 1.589830
v 0.027755 0.596846 1.471485
v 0.027755 0.568999 1.589830
v 0.027755 0.568999 1.471485
v -0.007052 0.624691 -0.032193
v -0.007052 0.624691 0.002614
v -0.007052 0.422809 -0.032193
v -0.007052 0.422809 0.002614
v 0.020794 0.624691 0.002614
v 0.020794 0.624691 -0.032193
v 0.020794 0.422809 0.002614
v 0.020794 0.422809 -0.032193
v -0.062744 0.710921 0.169690
v -0.062744 0.710921 0.176651
v -0.062744 0.624691 0.169690
v -0.062744 0.624691 0.176651
v -0.034898 0.710921 0.176651
v -0.034898 0.710921 0.169690
v -0.034898 0.624691 0.176651
v -0.034898 0.624691 0.169690
v -0.076667 0.666460 0.900645
v -0.076667 0.666460 0.942413
v -0.076667 0.624691 0.900645
v -0.076667 0.624691 0.942413
v -0.007206 0.666460 0.942413
v -0.007206 0.666460 0.900645
v -0.007206 0.624691 0.942413
v -0.007206 0.624691 0.900645
v -0.007052 0.600654 0.002614
v -0.007052 0.600654 0.030460
v -0.007052 0.436732 0.002614
v -0.007052 0.436732 0.030460
v 0.013832 0.600654 0.030460
v 0.013832 0.600654 0.002614
v 0.013832 0.436732 0.030460
v 0.013832 0.436732 0.002614
v -0.076667 0.666460 0.169690
v -0.076667 0.666460 0.246266
v -0.076667 0.624691 0.169690
v -0.076667 0.624691 0.246266
v -0.069706 0.666460 0.246266
v -0.069706 0.666460 0.169690
v -0.069706 0.624691 0.246266
v -0.069706 0.624691 0.169690
v -0.111474 0.600654 0.002614
v -0.111474 0.600654 0.030460
v -0.111474 0.436732 0.002614
v -0.111474 0.436732 0.030460
v -0.090590 0.600654 0.030460
v -0.090590 0.600654 0.002614
v -0.090590 0.436732 0.030460
v -0.090590 0.436732 0.002614
v -0.027937 0.666460 0.169690
v -0.027936 0.666460 0.246266
v -0.027937 0.624691 0.169690
v -0.027936 0.624691 0.246266
v -0.020975 0.666460 0.246266
v -0.020975 0.666460 0.169690
v -0.020975 0.624691 0.246266
v -0.020975 0.624691 0.169690
v -0.118436 0.624691 0.017305
v -0.118436 0.624691 0.942413
v -0.118436 0.427385 0.017305
v -0.118436 0.427385 0.942413
v 0.020794 0.624691 0.942413
v 0.020794 0.624691 0.017305
v 0.020794 0.427385 0.942413
v 0.020794 0.427385 0.017305
v -0.062744 0.534192 -0.039154
v -0.062744 0.534192 0.065268
v -0.062744 0.492423 -0.039154
v -0.062744 0.492423 0.065268
v -0.027936 0.534192 0.065268
v -0.027936 0.534192 -0.039154
v -0.027936 0.492423 0.065268
v -0.027936 0.492423 -0.039154
v -0.111474 0.624691 -0.032193
v -0.111474 0.624691 0.002614
v -0.111474 0.422809 -0.032193
v -0.111474 0.422809 0.002614
v -0.083628 0.624691 0.002614
v -0.083628 0.624691 -0.032193
v -0.083628 0.422809 0.002614
v -0.083628 0.422809 -0.032193
v -0.068283 0.607870 0.033219
v -0.068283 0.576547 0.070548
v -0.068283 0.575873 0.006370
v -0.068283 0.544549 0.043700
v -0.022398 0.576547 0.070548
v -0.022398 0.607870 0.033219
v -0.022398 0.544549 0.043700
v -0.022398 0.575873 0.006370
vn -0.0000 -0.0000 1.0000
vn -0.5736 0.8191 -0.0000
vn -0.0000 -0.0000 -1.0000
vn 0.5736 -0.8191 -0.0000
vn 0.8191 0.5736 -0.0000
vn -0.8192 -0.5735 -0.0000
vn -0.7071 -0.7071 -0.0000
vn 0.7071 0.7071 -0.0000
vn -0.7071 0.7071 -0.0000
vn 0.7071 -0.7071 -0.0000
vn -1.0000 -0.0000 -0.0000
vn 1.0000 -0.0000 -0.0000
vn -0.0000 1.0000 -0.0000
vn -0.0000 -1.0000 -0.0000
vn 0.8870 -0.4617 -0.0000
vn -0.8870 0.4617 -0.0000
vn 0.4618 0.8870 -0.0000
vn -0.4617 -0.8870 -0.0000
vn -0.0000 0.2164 0.9763
vn -0.0000 -0.2164 -0.9763
vn -0.0000 0.9763 -0.2164
vn -0.0000 -0.9763 0.2164
vn -0.0000 -0.6428 0.7661
vn -0.0000 0.6428 -0.7660
vn -0.0000 0.7660 0.6428
vn -0.0000 -0.7660 -0.6428
vt 0.001953 0.291016
vt 0.003906 0.291016
vt 0.003906 0.292969
vt 0.001953 0.292969
vt 0.707031 0.996094
vt 0.708984 0.996094
vt 0.708984 0.998047
vt 0.707031 0.998047
vt 0.005859 0.291016
vt 0.005859 0.292969
vt 0.707031 0.994141
vt 0.708984 0.994141
vt 0.007812 0.292969
vt 0.007812 0.291016
vt 0.708984 0.992188
vt 0.707031 0.992188
vt 0.009766 0.291016
vt 0.009766 0.292969
vt 0.683594 0.755859
vt 0.707031 0.755859
vt 0.707031 0.757812
vt 0.683594 0.757812
vt 0.011719 0.291016
vt 0.013672 0.291016
vt 0.013672 0.292969
vt 0.011719 0.292969
vt 0.683594 0.732422
vt 0.707031 0.732422
vt 0.707031 0.734375
vt 0.683594 0.734375
vt 0.630859 0.316406
vt 0.628906 0.316406
vt 0.628906 0.292969
vt 0.630859 0.292969
vt 0.632812 0.292969
vt 0.632812 0.316406
vt 0.705078 0.746094
vt 0.708984 0.746094
vt 0.708984 0.748047
vt 0.705078 0.748047
vt 0.015625 0.291016
vt 0.015625 0.292969
vt 0.705078 0.742188
vt 0.708984 0.742188
vt 0.708984 0.744141
vt 0.705078 0.744141
vt 0.017578 0.291016
vt 0.017578 0.292969
vt 0.705078 0.740234
vt 0.708984 0.740234
vt 0.708984 0.738281
vt 0.705078 0.738281
vt 0.679688 0.916016
vt 0.689453 0.916016
vt 0.689453 0.923828
vt 0.679688 0.923828
vt 0.681641 0.541016
vt 0.689453 0.541016
vt 0.689453 0.548828
vt 0.681641 0.548828
vt 0.679688 0.896484
vt 0.689453 0.896484
vt 0.689453 0.904297
vt 0.679688 0.904297
vt 0.498047 0.310547
vt 0.505859 0.310547
vt 0.505859 0.318359
vt 0.498047 0.318359
vt 0.107422 0.320312
vt 0.097656 0.320312
vt 0.097656 0.312500
vt 0.107422 0.312500
vt 0.117188 0.312500
vt 0.117188 0.320312
vt 0.703125 0.986328
vt 0.708984 0.986328
vt 0.708984 0.988281
vt 0.703125 0.988281
vt 0.701172 0.666016
vt 0.708984 0.666016
vt 0.708984 0.667969
vt 0.701172 0.667969
vt 0.703125 0.984375
vt 0.708984 0.984375
vt 0.701172 0.664062
vt 0.708984 0.664062
vt 0.689453 0.701172
vt 0.683594 0.701172
vt 0.683594 0.693359
vt 0.689453 0.693359
vt 0.689453 0.529297
vt 0.683594 0.529297
vt 0.683594 0.537109
vt 0.689453 0.537109
vt 0.019531 0.291016
vt 0.019531 0.292969
vt 0.029297 0.291016
vt 0.031250 0.291016
vt 0.031250 0.292969
vt 0.029297 0.292969
vt 0.707031 0.968750
vt 0.708984 0.968750
vt 0.708984 0.970703
vt 0.707031 0.970703
vt 0.033203 0.291016
vt 0.033203 0.292969
vt 0.707031 0.966797
vt 0.708984 0.966797
vt 0.708984 0.957031
vt 0.707031 0.957031
vt 0.707031 0.958984
vt 0.708984 0.958984
vt 0.701172 0.650391
vt 0.705078 0.650391
vt 0.705078 0.654297
vt 0.701172 0.654297
vt 0.681641 0.357422
vt 0.695312 0.357422
vt 0.695312 0.361328
vt 0.681641 0.361328
vt 0.701172 0.632812
vt 0.705078 0.632812
vt 0.705078 0.636719
vt 0.701172 0.636719
vt 0.681641 0.353516
vt 0.695312 0.353516
vt 0.269531 0.316406
vt 0.265625 0.316406
vt 0.265625 0.302734
vt 0.269531 0.302734
vt 0.273438 0.302734
vt 0.273438 0.316406
vt 0.707031 0.955078
vt 0.708984 0.955078
vt 0.705078 0.736328
vt 0.708984 0.736328
vt 0.707031 0.947266
vt 0.708984 0.947266
vt 0.708984 0.949219
vt 0.707031 0.949219
vt 0.265625 0.292969
vt 0.269531 0.292969
vt 0.269531 0.294922
vt 0.265625 0.294922
vt 0.271484 0.294922
vt 0.269531 0.291016
vt 0.271484 0.291016
vt 0.273438 0.291016
vt 0.273438 0.294922
vt 0.341797 0.291016
vt 0.343750 0.291016
vt 0.343750 0.296875
vt 0.341797 0.296875
vt 0.345703 0.291016
vt 0.345703 0.296875
vt 0.347656 0.291016
vt 0.347656 0.296875
vt 0.349609 0.291016
vt 0.349609 0.296875
vt 0.708984 0.945312
vt 0.707031 0.945312
vt 0.707031 0.943359
vt 0.708984 0.943359
vt 0.058594 0.291016
vt 0.056641 0.291016
vt 0.056641 0.292969
vt 0.058594 0.292969
vt 0.707031 0.941406
vt 0.708984 0.941406
vt 0.060547 0.291016
vt 0.060547 0.292969
vt 0.707031 0.939453
vt 0.708984 0.939453
vt 0.062500 0.291016
vt 0.062500 0.292969
vt 0.707031 0.937500
vt 0.708984 0.937500
vt 0.064453 0.291016
vt 0.064453 0.292969
vt 0.707031 0.935547
vt 0.708984 0.935547
vt 0.066406 0.291016
vt 0.066406 0.292969
vt 0.707031 0.933594
vt 0.708984 0.933594
vt 0.068359 0.291016
vt 0.068359 0.292969
vt 0.707031 0.931641
vt 0.708984 0.931641
vt 0.070312 0.291016
vt 0.070312 0.292969
vt 0.351562 0.291016
vt 0.351562 0.296875
vt 0.353516 0.291016
vt 0.353516 0.296875
vt 0.703125 0.640625
vt 0.705078 0.640625
vt 0.705078 0.646484
vt 0.703125 0.646484
vt 0.361328 0.291016
vt 0.363281 0.291016
vt 0.363281 0.296875
vt 0.361328 0.296875
vt 0.708984 0.927734
vt 0.707031 0.927734
vt 0.707031 0.925781
vt 0.708984 0.925781
vt 0.708984 0.921875
vt 0.707031 0.921875
vt 0.707031 0.923828
vt 0.708984 0.923828
vt 0.707031 0.919922
vt 0.708984 0.919922
vt 0.707031 0.912109
vt 0.708984 0.912109
vt 0.708984 0.914062
vt 0.707031 0.914062
vt 0.707031 0.910156
vt 0.708984 0.910156
vt 0.089844 0.291016
vt 0.091797 0.291016
vt 0.091797 0.292969
vt 0.089844 0.292969
vt 0.707031 0.908203
vt 0.708984 0.908203
vt 0.093750 0.291016
vt 0.093750 0.292969
vt 0.365234 0.291016
vt 0.365234 0.296875
vt 0.703125 0.621094
vt 0.705078 0.621094
vt 0.705078 0.626953
vt 0.703125 0.626953
vt 0.703125 0.615234
vt 0.705078 0.615234
vt 0.703125 0.593750
vt 0.705078 0.593750
vt 0.705078 0.599609
vt 0.703125 0.599609
vt 0.095703 0.292969
vt 0.095703 0.291016
vt 0.097656 0.291016
vt 0.097656 0.292969
vt 0.707031 0.902344
vt 0.708984 0.902344
vt 0.708984 0.904297
vt 0.707031 0.904297
vt 0.099609 0.291016
vt 0.099609 0.292969
vt 0.707031 0.900391
vt 0.708984 0.900391
vt 0.101562 0.291016
vt 0.101562 0.292969
vt 0.103516 0.292969
vt 0.103516 0.291016
vt 0.105469 0.291016
vt 0.105469 0.292969
vt 0.593750 0.302734
vt 0.597656 0.302734
vt 0.597656 0.308594
vt 0.593750 0.308594
vt 0.468750 0.980469
vt 0.498047 0.980469
vt 0.498047 0.986328
vt 0.468750 0.986328
vt 0.601562 0.302734
vt 0.605469 0.302734
vt 0.605469 0.308594
vt 0.601562 0.308594
vt 0.513672 0.552734
vt 0.542969 0.552734
vt 0.542969 0.558594
vt 0.513672 0.558594
vt 0.279297 0.503906
vt 0.275391 0.503906
vt 0.275391 0.474609
vt 0.279297 0.474609
vt 0.015625 0.322266
vt 0.011719 0.322266
vt 0.011719 0.351562
vt 0.015625 0.351562
vt 0.107422 0.291016
vt 0.107422 0.292969
vt 0.705078 0.726562
vt 0.708984 0.726562
vt 0.708984 0.728516
vt 0.705078 0.728516
vt 0.707031 0.892578
vt 0.708984 0.892578
vt 0.708984 0.894531
vt 0.707031 0.894531
vt 0.273438 0.292969
vt 0.277344 0.292969
vt 0.277344 0.294922
vt 0.707031 0.722656
vt 0.705078 0.722656
vt 0.705078 0.718750
vt 0.707031 0.718750
vt 0.707031 0.710938
vt 0.705078 0.710938
vt 0.705078 0.714844
vt 0.707031 0.714844
vt 0.703125 0.587891
vt 0.705078 0.587891
vt 0.703125 0.572266
vt 0.705078 0.572266
vt 0.705078 0.578125
vt 0.703125 0.578125
vt 0.703125 0.566406
vt 0.705078 0.566406
vt 0.703125 0.560547
vt 0.705078 0.560547
vt 0.109375 0.292969
vt 0.109375 0.291016
vt 0.708984 0.890625
vt 0.707031 0.890625
vt 0.111328 0.291016
vt 0.111328 0.292969
vt 0.707031 0.888672
vt 0.708984 0.888672
vt 0.113281 0.291016
vt 0.113281 0.292969
vt 0.707031 0.886719
vt 0.708984 0.886719
vt 0.115234 0.292969
vt 0.115234 0.291016
vt 0.708984 0.884766
vt 0.707031 0.884766
s 1
usemtl мая.png.007
f 4/1/1 7/2/1 5/3/1 2/4/1
f 3/5/2 4/6/2 2/7/2 1/8/2
f 8/2/3 3/9/3 1/10/3 6/3/3
f 7/11/4 8/12/4 6/6/4 5/5/4
f 6/13/5 1/10/5 2/9/5 5/14/5
f 7/15/6 4/16/6 3/11/6 8/12/6
f 12/14/1 15/17/1 13/18/1 10/13/1
f 11/19/7 12/20/7 10/21/7 9/22/7
f 16/23/3 11/24/3 9/25/3 14/26/3
f 15/27/8 16/28/8 14/29/8 13/30/8
f 14/31/9 9/32/9 10/33/9 13/34/9
f 15/35/10 12/34/10 11/31/10 16/36/10
f 20/37/1 23/38/1 21/39/1 18/40/1
f 19/24/11 20/41/11 18/42/11 17/25/11
f 24/43/3 19/44/3 17/45/3 22/46/3
f 23/41/12 24/47/12 22/48/12 21/42/12
f 22/44/13 17/43/13 18/49/13 21/50/13
f 23/51/14 20/52/14 19/49/14 24/50/14
f 28/53/12 31/54/12 29/55/12 26/56/12
f 27/57/1 28/58/1 26/59/1 25/60/1
f 32/61/11 27/62/11 25/63/11 30/64/11
f 31/65/3 32/66/3 30/67/3 29/68/3
f 30/69/13 25/70/13 26/71/13 29/72/13
f 31/73/14 28/72/14 27/69/14 32/74/14
f 36/75/15 39/76/15 37/77/15 34/78/15
f 35/79/1 36/80/1 34/81/1 33/82/1
f 40/83/16 35/84/16 33/76/16 38/75/16
f 39/85/3 40/86/3 38/80/3 37/79/3
f 38/87/17 33/88/17 34/89/17 37/90/17
f 39/91/18 36/92/18 35/93/18 40/94/18
f 44/47/19 47/95/19 45/96/19 42/48/19
f 43/97/11 44/98/11 42/99/11 41/100/11
f 48/101/20 43/102/20 41/103/20 46/104/20
f 47/98/12 48/105/12 46/106/12 45/99/12
f 46/102/21 41/101/21 42/107/21 45/108/21
f 47/109/22 44/110/22 43/111/22 48/112/22
f 52/113/1 55/114/1 53/115/1 50/116/1
f 51/117/11 52/118/11 50/119/11 49/120/11
f 56/121/3 51/122/3 49/123/3 54/124/3
f 55/125/12 56/126/12 54/118/12 53/117/12
f 54/127/13 49/128/13 50/129/13 53/130/13
f 55/131/14 52/130/14 51/127/14 56/132/14
f 60/133/1 63/134/1 61/109/1 58/110/1
f 59/135/11 60/136/11 58/51/11 57/52/11
f 64/137/3 59/138/3 57/139/3 62/140/3
f 63/141/12 64/142/12 62/143/12 61/144/12
f 62/145/13 57/143/13 58/146/13 61/147/13
f 63/148/14 60/147/14 59/145/14 64/149/14
f 68/150/1 71/151/1 69/152/1 66/153/1
f 67/151/11 68/154/11 66/155/11 65/152/11
f 72/154/3 67/156/3 65/157/3 70/155/3
f 71/156/12 72/158/12 70/159/12 69/157/12
f 70/160/13 65/161/13 66/162/13 69/163/13
f 71/164/14 68/165/14 67/166/14 72/167/14
f 76/168/1 79/169/1 77/163/1 74/162/1
f 75/164/11 76/170/11 74/171/11 73/167/11
f 80/172/3 75/173/3 73/169/3 78/168/3
f 79/170/12 80/174/12 78/175/12 77/171/12
f 78/173/13 73/172/13 74/176/13 77/177/13
f 79/178/14 76/174/14 75/175/14 80/179/14
f 84/180/1 87/181/1 85/177/1 82/176/1
f 83/178/11 84/182/11 82/183/11 81/179/11
f 88/184/3 83/185/3 81/181/3 86/180/3
f 87/182/12 88/186/12 86/187/12 85/183/12
f 86/185/13 81/184/13 82/188/13 85/189/13
f 87/190/14 84/186/14 83/187/14 88/191/14
f 92/158/1 95/192/1 93/193/1 90/159/1
f 91/192/11 92/194/11 90/195/11 89/193/11
f 96/196/3 91/197/3 89/198/3 94/199/3
f 95/200/12 96/201/12 94/202/12 93/203/12
f 94/204/13 89/205/13 90/206/13 93/207/13
f 95/208/14 92/209/14 91/210/14 96/211/14
f 100/212/1 103/213/1 101/208/1 98/209/1
f 99/214/11 100/215/11 98/216/11 97/217/11
f 104/218/3 99/219/3 97/215/3 102/214/3
f 103/220/12 104/221/12 102/222/12 101/223/12
f 102/219/13 97/218/13 98/224/13 101/225/13
f 103/226/14 100/221/14 99/222/14 104/227/14
f 108/201/1 111/228/1 109/229/1 106/202/1
f 107/230/11 108/231/11 106/232/11 105/233/11
f 112/234/3 107/235/3 105/231/3 110/230/3
f 111/236/12 112/237/12 110/238/12 109/239/12
f 110/240/13 105/227/13 106/226/13 109/241/13
f 111/242/14 108/241/14 107/240/14 112/243/14
f 116/244/1 119/245/1 117/246/1 114/247/1
f 115/242/11 116/248/11 114/249/11 113/243/11
f 120/250/3 115/251/3 113/245/3 118/244/3
f 119/248/12 120/252/12 118/253/12 117/249/12
f 118/254/13 113/253/13 114/252/13 117/255/13
f 119/256/14 116/255/14 115/254/14 120/257/14
f 124/258/1 127/259/1 125/260/1 122/261/1
f 123/262/11 124/263/11 122/264/11 121/265/11
f 128/266/3 123/267/3 121/268/3 126/269/3
f 127/270/12 128/271/12 126/272/12 125/273/12
f 126/274/13 121/275/13 122/276/13 125/277/13
f 127/278/14 124/279/14 123/280/14 128/281/14
f 132/256/1 135/282/1 133/283/1 130/257/1
f 131/284/11 132/285/11 130/286/11 129/287/11
f 136/288/3 131/289/3 129/290/3 134/291/3
f 135/292/12 136/293/12 134/294/12 133/149/12
f 134/295/13 129/296/13 130/297/13 133/298/13
f 135/299/14 132/300/14 131/301/14 136/302/14
f 140/303/1 143/304/1 141/237/1 138/236/1
f 139/305/11 140/306/11 138/307/11 137/308/11
f 144/309/3 139/310/3 137/306/3 142/305/3
f 143/311/12 144/312/12 142/310/12 141/309/12
f 142/313/13 137/283/13 138/282/13 141/314/13
f 143/315/14 140/316/14 139/288/14 144/289/14
f 148/314/23 151/317/23 149/318/23 146/313/23
f 147/319/11 148/320/11 146/315/11 145/316/11
f 152/317/24 147/321/24 145/322/24 150/318/24
f 151/323/12 152/324/12 150/320/12 149/319/12
f 150/325/25 145/322/25 146/321/25 149/326/25
f 151/327/26 148/328/26 147/323/26 152/324/26
o turret
v -0.370328 0.129652 0.452716
v -0.370328 0.129652 0.584139
v -0.370328 0.013900 0.452717
v -0.370328 0.013900 0.584139
v 0.414432 0.129652 0.584139
v 0.414432 0.129652 0.452717
v 0.414432 0.013900 0.584139
v 0.414432 0.013900 0.452717
v -0.597386 0.421383 1.056035
v -0.597386 0.436362 1.111939
v -0.597386 0.044031 1.157146
v -0.597386 0.059011 1.213050
v 0.502254 0.436362 1.111939
v 0.502254 0.421383 1.056035
v 0.502254 0.059011 1.213050
v 0.502254 0.044031 1.157146
v 0.039247 0.782857 0.929220
v 0.039247 0.790347 0.957172
v 0.039247 0.025360 1.132191
v 0.039247 0.032850 1.160143
v 0.502254 0.790347 0.957172
v 0.502253 0.782857 0.929220
v 0.502253 0.032850 1.160143
v 0.502254 0.025360 1.132191
v -0.597386 0.782857 0.929220
v -0.597386 0.790347 0.957172
v -0.597386 0.025360 1.132191
v -0.597386 0.032850 1.160142
v -0.134380 0.790347 0.957172
v -0.134380 0.782857 0.929220
v -0.134380 0.032850 1.160143
v -0.134380 0.025360 1.132191
v 0.631980 0.521072 0.192182
v 0.364739 0.521072 0.705547
v 0.631980 0.159347 0.192182
v 0.364739 0.159347 0.705547
v 0.416076 0.521072 0.732271
v 0.683316 0.521072 0.218906
v 0.416076 0.159347 0.732271
v 0.683316 0.159347 0.218906
v -0.633854 0.637401 -0.626979
v -0.633854 0.637401 0.086051
v -0.633854 0.043016 -0.626979
v -0.633854 0.043016 0.086051
v -0.574821 0.637401 0.086051
v -0.574821 0.637401 -0.626979
v -0.574821 0.043016 0.086051
v -0.574821 0.043016 -0.626979
v -0.638198 0.636822 0.089509
v -0.264061 0.636822 0.808219
v -0.638198 0.043595 0.089509
v -0.264061 0.043595 0.808219
v -0.212724 0.636822 0.781495
v -0.586861 0.636822 0.062785
v -0.212724 0.043595 0.781495
v -0.586861 0.043595 0.062785
v -0.636086 0.521072 0.218906
v -0.368846 0.521072 0.732271
v -0.636086 0.159347 0.218906
v -0.368846 0.159347 0.732271
v -0.317509 0.521072 0.705546
v -0.584750 0.521072 0.192182
v -0.317509 0.159347 0.705546
v -0.584750 0.159347 0.192182
v 0.622051 0.637401 -0.626979
v 0.622051 0.637401 0.086051
v 0.622051 0.043016 -0.626979
v 0.622051 0.043016 0.086051
v 0.686872 0.637401 0.086051
v 0.686872 0.637401 -0.626979
v 0.686872 0.043016 0.086051
v 0.686872 0.043016 -0.626979
v 0.634091 0.636822 0.062785
v 0.259954 0.636822 0.781495
v 0.634091 0.043595 0.062785
v 0.259954 0.043595 0.781495
v 0.311291 0.636822 0.808220
v 0.685428 0.636822 0.089509
v 0.311291 0.043595 0.808220
v 0.685428 0.043595 0.089509
v -0.581187 0.023428 -0.680568
v -0.581187 0.544299 -0.875313
v -0.581187 0.041669 -0.631779
v -0.581187 0.562540 -0.826524
v 0.634205 0.544299 -0.875313
v 0.634205 0.023428 -0.680568
v 0.634205 0.562540 -0.826524
v 0.634205 0.041669 -0.631779
v 0.634204 0.039642 -0.637200
v 0.634204 0.560513 -0.831946
v 0.634205 0.114636 -0.436621
v 0.634204 0.635507 -0.631366
v 0.686292 0.560513 -0.831946
v 0.686292 0.039642 -0.637200
v 0.686292 0.635507 -0.631366
v 0.686292 0.114636 -0.436621
v -0.187632 0.347444 0.722106
v -0.187632 0.347444 1.069361
v -0.187632 0.269311 0.722106
v -0.187632 0.269311 1.069361
v 0.217498 0.347444 1.069361
v 0.217498 0.347444 0.722106
v 0.217498 0.269311 1.069361
v 0.217498 0.269311 0.722106
v -0.633276 0.039642 -0.637200
v -0.633275 0.560513 -0.831946
v -0.633276 0.114636 -0.436621
v -0.633276 0.635507 -0.631366
v -0.581187 0.560513 -0.831946
v -0.581188 0.039642 -0.637200
v -0.581188 0.635507 -0.631366
v -0.581187 0.114636 -0.436621
v -0.048073 0.400119 0.470079
v -0.048073 0.400119 0.566776
v -0.048073 0.129653 0.470080
v -0.048073 0.129653 0.566776
v 0.042178 0.400119 0.566776
v 0.042178 0.400119 0.470080
v 0.042178 0.129653 0.566776
v 0.042178 0.129653 0.470080
vn -0.0000 -0.0000 1.0000
vn -1.0000 -0.0000 -0.0000
vn -0.0000 -0.0000 -1.0000
vn 1.0000 -0.0000 -0.0000
vn -0.0000 1.0000 -0.0000
vn -0.0000 -1.0000 -0.0000
vn -0.0000 0.2588 0.9659
vn -0.0000 -0.2588 -0.9659
vn -0.0000 0.9659 -0.2588
vn -0.0000 -0.9659 0.2588
vn -0.4617 -0.0000 0.8870
vn -0.8870 -0.0000 -0.4617
vn 0.4618 -0.0000 -0.8870
vn 0.8870 -0.0000 0.4617
vn 0.4617 -0.0000 0.8870
vn -0.8870 -0.0000 0.4617
vn -0.4617 -0.0000 -0.8870
vn 0.8870 -0.0000 -0.4617
vn 0.4618 -0.0000 0.8870
vn -0.4618 -0.0000 -0.8870
vn -0.4618 -0.0000 0.8870
vn 0.4617 -0.0000 -0.8870
vn -0.0000 0.9367 -0.3502
vn -0.0000 -0.9367 0.3502
vn -0.0000 -0.3502 -0.9367
vn -0.0000 0.3502 0.9367
vt 0.648438 0.492188
vt 0.673828 0.492188
vt 0.673828 0.496094
vt 0.648438 0.496094
vt 0.380859 0.294922
vt 0.384766 0.294922
vt 0.384766 0.298828
vt 0.380859 0.298828
vt 0.648438 0.427734
vt 0.673828 0.427734
vt 0.673828 0.431641
vt 0.648438 0.431641
vt 0.402344 0.294922
vt 0.406250 0.294922
vt 0.406250 0.298828
vt 0.402344 0.298828
vt 0.677734 0.646484
vt 0.652344 0.646484
vt 0.652344 0.642578
vt 0.677734 0.642578
vt 0.681641 0.484375
vt 0.656250 0.484375
vt 0.656250 0.488281
vt 0.681641 0.488281
vt 0.181641 0.417969
vt 0.216797 0.417969
vt 0.216797 0.429688
vt 0.181641 0.429688
vt 0.515625 0.296875
vt 0.517578 0.296875
vt 0.517578 0.308594
vt 0.515625 0.308594
vt 0.279297 0.416016
vt 0.314453 0.416016
vt 0.314453 0.427734
vt 0.279297 0.427734
vt 0.597656 0.296875
vt 0.599609 0.296875
vt 0.599609 0.308594
vt 0.597656 0.308594
vt 0.714844 0.412109
vt 0.679688 0.412109
vt 0.679688 0.410156
vt 0.714844 0.410156
vt 0.714844 0.408203
vt 0.679688 0.408203
vt 0.242188 0.408203
vt 0.255859 0.408203
vt 0.255859 0.433594
vt 0.242188 0.433594
vt 0.103516 0.429688
vt 0.105469 0.429688
vt 0.105469 0.455078
vt 0.103516 0.455078
vt 0.103516 0.402344
vt 0.117188 0.402344
vt 0.117188 0.427734
vt 0.103516 0.427734
vt 0.373047 0.291016
vt 0.375000 0.291016
vt 0.375000 0.316406
vt 0.373047 0.316406
vt 0.703125 0.830078
vt 0.689453 0.830078
vt 0.689453 0.828125
vt 0.703125 0.828125
vt 0.703125 0.826172
vt 0.689453 0.826172
vt 0.144531 0.402344
vt 0.158203 0.402344
vt 0.158203 0.427734
vt 0.144531 0.427734
vt 0.376953 0.291016
vt 0.376953 0.316406
vt 0.066406 0.396484
vt 0.080078 0.396484
vt 0.080078 0.421875
vt 0.066406 0.421875
vt 0.378906 0.291016
vt 0.378906 0.316406
vt 0.703125 0.794922
vt 0.689453 0.794922
vt 0.689453 0.792969
vt 0.703125 0.792969
vt 0.703125 0.750000
vt 0.689453 0.750000
vt 0.689453 0.751953
vt 0.703125 0.751953
vt 0.605469 0.296875
vt 0.607422 0.296875
vt 0.607422 0.308594
vt 0.605469 0.308594
vt 0.617188 0.722656
vt 0.634766 0.722656
vt 0.634766 0.734375
vt 0.617188 0.734375
vt 0.632812 0.296875
vt 0.634766 0.296875
vt 0.634766 0.308594
vt 0.632812 0.308594
vt 0.619141 0.765625
vt 0.636719 0.765625
vt 0.636719 0.777344
vt 0.619141 0.777344
vt 0.238281 0.312500
vt 0.236328 0.312500
vt 0.236328 0.294922
vt 0.238281 0.294922
vt 0.240234 0.294922
vt 0.240234 0.312500
vt 0.242188 0.294922
vt 0.242188 0.312500
vt 0.574219 0.466797
vt 0.595703 0.466797
vt 0.595703 0.484375
vt 0.574219 0.484375
vt 0.244141 0.294922
vt 0.244141 0.312500
vt 0.576172 0.955078
vt 0.597656 0.955078
vt 0.597656 0.972656
vt 0.576172 0.972656
vt 0.656250 0.314453
vt 0.654297 0.314453
vt 0.654297 0.292969
vt 0.656250 0.292969
vt 0.658203 0.292969
vt 0.658203 0.314453
vt 0.246094 0.294922
vt 0.246094 0.312500
vt 0.119141 0.416016
vt 0.144531 0.416016
vt 0.144531 0.433594
vt 0.119141 0.433594
vt 0.423828 0.294922
vt 0.425781 0.294922
vt 0.425781 0.312500
vt 0.423828 0.312500
vt 0.216797 0.416016
vt 0.242188 0.416016
vt 0.216797 0.433594
vt 0.380859 0.316406
vt 0.380859 0.291016
vt 0.521484 0.291016
vt 0.519531 0.291016
vt 0.519531 0.316406
vt 0.521484 0.316406
vt 0.636719 0.296875
vt 0.636719 0.308594
vt 0.619141 0.523438
vt 0.636719 0.523438
vt 0.636719 0.535156
vt 0.619141 0.535156
vt 0.638672 0.296875
vt 0.638672 0.308594
vt 0.621094 0.929688
vt 0.638672 0.929688
vt 0.638672 0.941406
vt 0.621094 0.941406
vt 0.427734 0.312500
vt 0.427734 0.294922
vt 0.429688 0.294922
vt 0.429688 0.312500
vt 0.431641 0.294922
vt 0.431641 0.312500
vt 0.576172 0.937500
vt 0.597656 0.937500
vt 0.433594 0.294922
vt 0.433594 0.312500
vt 0.576172 0.894531
vt 0.597656 0.894531
vt 0.597656 0.912109
vt 0.576172 0.912109
vt 0.660156 0.314453
vt 0.660156 0.292969
vt 0.662109 0.292969
vt 0.662109 0.314453
vt 0.449219 0.294922
vt 0.451172 0.294922
vt 0.451172 0.312500
vt 0.449219 0.312500
vt 0.378906 0.416016
vt 0.404297 0.416016
vt 0.404297 0.433594
vt 0.378906 0.433594
vt 0.453125 0.294922
vt 0.453125 0.312500
vt 0.429688 0.416016
vt 0.429688 0.433594
vt 0.523438 0.316406
vt 0.523438 0.291016
vt 0.525391 0.291016
vt 0.525391 0.316406
vt 0.679688 0.767578
vt 0.716797 0.767578
vt 0.716797 0.769531
vt 0.679688 0.769531
vt 0.685547 0.554688
vt 0.703125 0.554688
vt 0.703125 0.556641
vt 0.685547 0.556641
vt 0.679688 0.421875
vt 0.716797 0.421875
vt 0.716797 0.423828
vt 0.679688 0.423828
vt 0.685547 0.494141
vt 0.703125 0.494141
vt 0.703125 0.496094
vt 0.685547 0.496094
vt 0.556641 0.501953
vt 0.519531 0.501953
vt 0.519531 0.484375
vt 0.556641 0.484375
vt 0.558594 0.792969
vt 0.521484 0.792969
vt 0.521484 0.810547
vt 0.558594 0.810547
vt 0.705078 0.554688
vt 0.705078 0.560547
vt 0.703125 0.560547
vt 0.662109 0.767578
vt 0.679688 0.773438
vt 0.662109 0.773438
vt 0.703125 0.542969
vt 0.705078 0.542969
vt 0.705078 0.548828
vt 0.703125 0.548828
vt 0.667969 0.593750
vt 0.685547 0.593750
vt 0.685547 0.599609
vt 0.667969 0.599609
vt 0.455078 0.312500
vt 0.455078 0.294922
vt 0.457031 0.294922
vt 0.457031 0.312500
vt 0.693359 0.917969
vt 0.705078 0.917969
vt 0.705078 0.919922
vt 0.693359 0.919922
vt 0.693359 0.916016
vt 0.705078 0.916016
vt 0.693359 0.902344
vt 0.705078 0.902344
vt 0.705078 0.904297
vt 0.693359 0.904297
vt 0.693359 0.900391
vt 0.705078 0.900391
vt 0.658203 0.669922
vt 0.646484 0.669922
vt 0.646484 0.658203
vt 0.658203 0.658203
vt 0.658203 0.378906
vt 0.646484 0.378906
vt 0.646484 0.390625
vt 0.658203 0.390625
vt 0.703125 0.537109
vt 0.705078 0.537109
vt 0.667969 0.345703
vt 0.685547 0.345703
vt 0.685547 0.351562
vt 0.667969 0.351562
vt 0.703125 0.531250
vt 0.705078 0.531250
vt 0.669922 0.865234
vt 0.687500 0.865234
vt 0.687500 0.871094
vt 0.669922 0.871094
vt 0.458984 0.312500
vt 0.458984 0.294922
vt 0.460938 0.294922
vt 0.460938 0.312500
vt 0.359375 0.291016
vt 0.361328 0.291016
vt 0.361328 0.298828
vt 0.359375 0.298828
vt 0.689453 0.916016
vt 0.693359 0.923828
vt 0.689453 0.923828
vt 0.369141 0.291016
vt 0.371094 0.291016
vt 0.371094 0.298828
vt 0.369141 0.298828
vt 0.689453 0.896484
vt 0.693359 0.896484
vt 0.689453 0.904297
vt 0.707031 0.707031
vt 0.705078 0.707031
vt 0.705078 0.703125
vt 0.707031 0.703125
vt 0.707031 0.699219
vt 0.705078 0.699219
s 1
usemtl мая.png.007
f 156/329/27 159/330/27 157/331/27 154/332/27
f 155/333/28 156/334/28 154/335/28 153/336/28
f 160/337/29 155/338/29 153/339/29 158/340/29
f 159/341/30 160/342/30 158/343/30 157/344/30
f 158/345/31 153/346/31 154/347/31 157/348/31
f 159/349/32 156/350/32 155/351/32 160/352/32
f 164/353/33 167/354/33 165/355/33 162/356/33
f 163/357/28 164/358/28 162/359/28 161/360/28
f 168/361/34 163/362/34 161/363/34 166/364/34
f 167/365/30 168/366/30 166/367/30 165/368/30
f 166/369/35 161/370/35 162/371/35 165/372/35
f 167/373/36 164/374/36 163/371/36 168/372/36
f 172/375/33 175/376/33 173/377/33 170/378/33
f 171/379/28 172/380/28 170/381/28 169/382/28
f 176/383/34 171/384/34 169/385/34 174/386/34
f 175/387/30 176/388/30 174/389/30 173/390/30
f 174/391/35 169/392/35 170/393/35 173/394/35
f 175/395/36 172/396/36 171/393/36 176/394/36
f 180/397/33 183/398/33 181/399/33 178/400/33
f 179/388/28 180/401/28 178/402/28 177/389/28
f 184/403/34 179/404/34 177/405/34 182/406/34
f 183/401/30 184/407/30 182/408/30 181/402/30
f 182/409/35 177/410/35 178/411/35 181/412/35
f 183/413/36 180/414/36 179/415/36 184/416/36
f 188/417/37 191/418/37 189/419/37 186/420/37
f 187/421/38 188/422/38 186/423/38 185/424/38
f 192/425/39 187/426/39 185/427/39 190/428/39
f 191/429/40 192/430/40 190/431/40 189/432/40
f 190/433/31 185/434/31 186/435/31 189/436/31
f 191/437/32 188/436/32 187/433/32 192/438/32
f 196/437/27 199/439/27 197/440/27 194/438/27
f 195/441/28 196/442/28 194/443/28 193/444/28
f 200/439/29 195/445/29 193/446/29 198/440/29
f 199/447/30 200/448/30 198/449/30 197/450/30
f 198/451/31 193/452/31 194/453/31 197/454/31
f 199/455/32 196/454/32 195/451/32 200/456/32
f 204/445/41 207/457/41 205/458/41 202/446/41
f 203/459/42 204/460/42 202/461/42 201/462/42
f 208/463/43 203/464/43 201/465/43 206/466/43
f 207/467/44 208/468/44 206/378/44 205/469/44
f 206/470/31 201/408/31 202/407/31 205/471/31
f 207/472/32 204/473/32 203/474/32 208/475/32
f 212/426/45 215/476/45 213/477/45 210/427/45
f 211/478/42 212/479/42 210/480/42 209/481/42
f 216/476/46 211/482/46 209/483/46 214/477/46
f 215/484/44 216/485/44 214/486/44 213/487/44
f 214/488/31 209/465/31 210/464/31 213/489/31
f 215/490/32 212/489/32 211/488/32 216/491/32
f 220/490/27 223/492/27 221/493/27 218/491/27
f 219/494/28 220/495/28 218/448/28 217/447/28
f 224/492/29 219/496/29 217/497/29 222/493/29
f 223/498/30 224/499/30 222/500/30 221/501/30
f 222/502/31 217/456/31 218/455/31 221/503/31
f 223/504/32 220/503/32 219/502/32 224/505/32
f 228/506/47 231/507/47 229/508/47 226/509/47
f 227/510/38 228/511/38 226/512/38 225/513/38
f 232/507/48 227/514/48 225/515/48 230/508/48
f 231/511/40 232/516/40 230/517/40 229/512/40
f 230/518/31 225/475/31 226/472/31 229/519/31
f 231/520/32 228/519/32 227/518/32 232/521/32
f 236/522/49 239/523/49 237/524/49 234/525/49
f 235/526/28 236/527/28 234/528/28 233/529/28
f 240/530/50 235/531/50 233/532/50 238/533/50
f 239/534/30 240/535/30 238/536/30 237/537/30
f 238/538/51 233/539/51 234/540/51 237/541/51
f 239/542/52 236/543/52 235/544/52 240/545/52
f 244/527/49 247/546/49 245/547/49 242/548/49
f 243/549/28 244/522/28 242/550/28 241/551/28
f 248/552/50 243/553/50 241/554/50 246/555/50
f 247/556/30 248/557/30 246/558/30 245/559/30
f 246/560/51 241/515/51 242/514/51 245/561/51
f 247/562/52 244/561/52 243/560/52 248/563/52
f 252/564/27 255/565/27 253/566/27 250/567/27
f 251/568/28 252/569/28 250/565/28 249/564/28
f 256/570/29 251/571/29 249/572/29 254/573/29
f 255/574/30 256/575/30 254/571/30 253/570/30
f 254/576/31 249/577/31 250/578/31 253/579/31
f 255/580/32 252/581/32 251/582/32 256/583/32
f 260/584/49 263/585/49 261/553/49 258/552/49
f 259/586/28 260/587/28 258/588/28 257/589/28
f 264/590/50 259/591/50 257/585/50 262/584/50
f 263/592/30 264/593/30 262/594/30 261/595/30
f 262/596/51 257/563/51 258/562/51 261/597/51
f 263/598/52 260/597/52 259/596/52 264/599/52
f 268/600/27 271/601/27 269/602/27 266/603/27
f 267/604/28 268/568/28 266/605/28 265/606/28
f 272/607/29 267/608/29 265/609/29 270/610/29
f 271/611/30 272/612/30 270/573/30 269/613/30
f 270/614/31 265/615/31 266/616/31 269/617/31
f 271/618/32 268/619/32 267/616/32 272/617/32
