# Blender 3.3.21
# www.blender.org
mtllib m1097_turret.mtl
o gun
v 0.767746 1.701879 -1.279245
v 0.767746 1.701879 1.039493
v 0.767746 1.076879 -1.279245
v 0.767746 1.076879 1.039493
v 1.267743 1.701879 1.039493
v 1.267743 1.701879 -1.279245
v 1.267743 1.076879 1.039492
v 1.267743 1.076879 -1.279245
v -1.329618 1.638754 -1.278621
v -1.329618 1.638754 1.038868
v -1.329618 1.140004 -1.278621
v -1.329618 1.140003 1.038868
v -0.705871 1.638754 1.038867
v -0.705871 1.638754 -1.278621
v -0.705871 1.140003 1.038867
v -0.705871 1.140004 -1.278621
v -1.267744 1.639379 -1.285496
v -1.267744 1.639379 1.045743
v -1.267744 1.139379 -1.285496
v -1.267744 1.139378 1.045743
v -0.767746 1.639379 1.045743
v -0.767746 1.639379 -1.285495
v -0.767746 1.139378 1.045743
v -0.767746 1.139379 -1.285495
v -1.267744 1.701879 -1.279245
v -1.267743 1.701879 1.039493
v -1.267744 1.076879 -1.279245
v -1.267743 1.076879 1.039493
v -0.767746 1.701879 1.039493
v -0.767746 1.701879 -1.279245
v -0.767746 1.076879 1.039492
v -0.767746 1.076879 -1.279245
v 0.767746 1.639379 -1.285496
v 0.767746 1.639379 1.045743
v 0.767746 1.139379 -1.285496
v 0.767746 1.139378 1.045743
v 1.267744 1.639379 1.045743
v 1.267743 1.639379 -1.285495
v 1.267744 1.139378 1.045743
v 1.267743 1.139379 -1.285495
v 0.705872 1.638754 -1.278620
v 0.705872 1.638754 1.038867
v 0.705872 1.140004 -1.278620
v 0.705872 1.140003 1.038867
v 1.329618 1.638754 1.038867
v 1.329618 1.638754 -1.278620
v 1.329618 1.140003 1.038867
v 1.329618 1.140004 -1.278620
v 0.705247 0.951879 -0.341750
v 0.705246 0.951879 0.226997
v 0.705247 0.514379 -0.341750
v 0.705246 0.514379 0.226996
v 1.142744 0.951879 0.226997
v 1.142744 0.951879 -0.341750
v 1.142744 0.514379 0.226996
v 1.142744 0.514379 -0.341750
vn -0.0000 -0.0000 1.0000
vn -1.0000 -0.0000 -0.0000
vn -0.0000 -0.0000 -1.0000
vn 1.0000 -0.0000 -0.0000
vn -0.0000 1.0000 -0.0000
vn -0.0000 -1.0000 -0.0000
vt 0.357422 0.605469
vt 0.593750 0.406250
vt 0.263672 0.576172
vt 0.562500 0.406250
vt 0.429688 0.605469
vt 0.263672 0.503906
vt 0.357422 0.585938
vt 0.593750 0.386719
vt 0.042969 0.568359
vt 0.562500 0.386719
vt 0.429688 0.585938
vt 0.042969 0.496094
vt 0.578125 0.406250
vt 0.396484 1.000000
vt 0.279297 0.503906
vt 0.578125 0.406250
vt 0.468750 1.000000
vt 0.279297 0.576172
vt 0.578125 0.386719
vt 0.396484 0.980469
vt 0.058594 0.496094
vt 0.578125 0.386719
vt 0.468750 0.980469
vt 0.058594 0.568359
vt 0.441406 0.568359
vt 0.019531 0.404297
vt 0.289062 0.615234
vt 0.593750 0.406250
vt 0.513672 0.568359
vt 0.289062 0.542969
vt 0.441406 0.552734
vt 0.019531 0.388672
vt 0.119141 0.591797
vt 0.593750 0.390625
vt 0.513672 0.552734
vt 0.119141 0.519531
vt 0.613281 0.406250
vt 0.443359 0.906250
vt 0.308594 0.542969
vt 0.000000 0.404297
vt 0.515625 0.906250
vt 0.308594 0.615234
vt 0.613281 0.390625
vt 0.443359 0.890625
vt 0.138672 0.519531
vt 0.000000 0.388672
vt 0.515625 0.890625
vt 0.138672 0.591797
vt 0.443359 0.890625
vt 0.609375 0.390625
vt 0.441406 0.552734
vt 0.458984 0.390625
vt 0.515625 0.890625
vt 0.441406 0.480469
vt 0.443359 0.875000
vt 0.609375 0.375000
vt 0.308594 0.550781
vt 0.458984 0.375000
vt 0.515625 0.875000
vt 0.308594 0.478516
vt 0.474609 0.390625
vt 0.443359 0.875000
vt 0.457031 0.480469
vt 0.593750 0.390625
vt 0.515625 0.875000
vt 0.457031 0.552734
vt 0.474609 0.375000
vt 0.443359 0.859375
vt 0.324219 0.478516
vt 0.593750 0.375000
vt 0.515625 0.859375
vt 0.324219 0.550781
vt 0.396484 0.740234
vt 0.611328 0.484375
vt 0.324219 0.550781
vt 0.019531 0.404297
vt 0.468750 0.740234
vt 0.324219 0.478516
vt 0.396484 0.720703
vt 0.611328 0.464844
vt 0.279297 0.542969
vt 0.019531 0.384766
vt 0.468750 0.720703
vt 0.279297 0.470703
vt 0.035156 0.404297
vt 0.396484 0.720703
vt 0.339844 0.478516
vt 0.595703 0.484375
vt 0.468750 0.720703
vt 0.339844 0.550781
vt 0.035156 0.384766
vt 0.396484 0.701172
vt 0.294922 0.470703
vt 0.595703 0.464844
vt 0.468750 0.701172
vt 0.294922 0.542969
vt 0.449219 0.832031
vt 0.015625 0.388672
vt 0.457031 0.552734
vt 0.609375 0.390625
vt 0.521484 0.832031
vt 0.457031 0.480469
vt 0.449219 0.816406
vt 0.015625 0.373047
vt 0.058594 0.541016
vt 0.609375 0.375000
vt 0.521484 0.816406
vt 0.058594 0.468750
vt 0.625000 0.390625
vt 0.449219 0.816406
vt 0.472656 0.480469
vt 0.000000 0.388672
vt 0.521484 0.816406
vt 0.472656 0.552734
vt 0.625000 0.375000
vt 0.449219 0.800781
vt 0.074219 0.468750
vt 0.000000 0.373047
vt 0.521484 0.800781
vt 0.074219 0.541016
vt 0.449219 0.800781
vt 0.617188 0.972656
vt 0.138672 0.591797
vt 0.595703 0.548828
vt 0.521484 0.800781
vt 0.138672 0.519531
vt 0.449219 0.785156
vt 0.617188 0.957031
vt 0.158203 0.591797
vt 0.595703 0.533203
vt 0.521484 0.785156
vt 0.158203 0.519531
vt 0.615234 0.548828
vt 0.458984 0.666016
vt 0.158203 0.519531
vt 0.597656 0.972656
vt 0.531250 0.666016
vt 0.158203 0.591797
vt 0.615234 0.533203
vt 0.458984 0.650391
vt 0.177734 0.519531
vt 0.597656 0.957031
vt 0.531250 0.650391
vt 0.177734 0.591797
vt 0.570312 0.386719
vt 0.636719 0.914062
vt 0.015625 0.384766
vt 0.621094 0.666016
vt 0.587891 0.386719
vt 0.015625 0.367188
vt 0.570312 0.373047
vt 0.636719 0.900391
vt 0.029297 0.384766
vt 0.621094 0.652344
vt 0.587891 0.373047
vt 0.029297 0.367188
vt 0.634766 0.666016
vt 0.613281 0.408203
vt 0.029297 0.367188
vt 0.623047 0.914062
vt 0.630859 0.408203
vt 0.029297 0.384766
vt 0.634766 0.652344
vt 0.613281 0.394531
vt 0.042969 0.367188
vt 0.623047 0.900391
vt 0.630859 0.394531
vt 0.042969 0.384766
s 1
usemtl HUMVEE_ARMY_US_TEX_5).png
f 4/10/1 7/19/1 5/13/1 2/4/1
f 3/7/2 4/11/2 2/5/2 1/1/2
f 8/22/3 3/8/3 1/2/3 6/16/3
f 7/20/4 8/23/4 6/17/4 5/14/4
f 6/18/5 1/3/5 2/6/5 5/15/5
f 7/21/6 4/12/6 3/9/6 8/24/6
f 12/34/1 15/43/1 13/37/1 10/28/1
f 11/31/2 12/35/2 10/29/2 9/25/2
f 16/46/3 11/32/3 9/26/3 14/40/3
f 15/44/4 16/47/4 14/41/4 13/38/4
f 14/42/5 9/27/5 10/30/5 13/39/5
f 15/45/6 12/36/6 11/33/6 16/48/6
f 20/58/1 23/67/1 21/61/1 18/52/1
f 19/55/2 20/59/2 18/53/2 17/49/2
f 24/70/3 19/56/3 17/50/3 22/64/3
f 23/68/4 24/71/4 22/65/4 21/62/4
f 22/66/5 17/51/5 18/54/5 21/63/5
f 23/69/6 20/60/6 19/57/6 24/72/6
f 28/82/1 31/91/1 29/85/1 26/76/1
f 27/79/2 28/83/2 26/77/2 25/73/2
f 32/94/3 27/80/3 25/74/3 30/88/3
f 31/92/4 32/95/4 30/89/4 29/86/4
f 30/90/5 25/75/5 26/78/5 29/87/5
f 31/93/6 28/84/6 27/81/6 32/96/6
f 36/106/1 39/115/1 37/109/1 34/100/1
f 35/103/2 36/107/2 34/101/2 33/97/2
f 40/118/3 35/104/3 33/98/3 38/112/3
f 39/116/4 40/119/4 38/113/4 37/110/4
f 38/114/5 33/99/5 34/102/5 37/111/5
f 39/117/6 36/108/6 35/105/6 40/120/6
f 44/130/1 47/139/1 45/133/1 42/124/1
f 43/127/2 44/131/2 42/125/2 41/121/2
f 48/142/3 43/128/3 41/122/3 46/136/3
f 47/140/4 48/143/4 46/137/4 45/134/4
f 46/138/5 41/123/5 42/126/5 45/135/5
f 47/141/6 44/132/6 43/129/6 48/144/6
f 52/154/1 55/163/1 53/157/1 50/148/1
f 51/151/2 52/155/2 50/149/2 49/145/2
f 56/166/3 51/152/3 49/146/3 54/160/3
f 55/164/4 56/167/4 54/161/4 53/158/4
f 54/162/5 49/147/5 50/150/5 53/159/5
f 55/165/6 52/156/6 51/153/6 56/168/6
o turret
v -0.606622 1.625201 0.024917
v -0.606622 1.673793 0.062204
v -0.606622 0.743257 1.174282
v -0.606622 0.791850 1.211568
v 0.642122 1.673793 0.062204
v 0.642122 1.625201 0.024917
v 0.642122 0.791850 1.211568
v 0.642122 0.743257 1.174282
v -0.697246 1.676879 -0.904248
v -0.697247 1.676879 0.064497
v -0.697246 0.801878 -0.904247
v -0.697247 0.801878 0.064497
v 0.705246 1.676878 0.064498
v 0.705246 1.676879 -0.904248
v 0.705246 0.801878 0.064498
v 0.705246 0.801878 -0.904248
v 0.615872 1.129354 -0.355557
v 0.615872 1.673793 0.062204
v 0.615872 0.247411 0.793808
v 0.615872 0.791850 1.211568
v 0.704622 1.673793 0.062204
v 0.704622 1.129354 -0.355557
v 0.704621 0.791850 1.211569
v 0.704621 0.247411 0.793808
v -0.696621 1.129354 -0.355557
v -0.696621 1.673793 0.062204
v -0.696621 0.247411 0.793808
v -0.696621 0.791850 1.211568
v -0.607872 1.673793 0.062204
v -0.607872 1.129355 -0.355556
v -0.607872 0.791850 1.211568
v -0.607872 0.247411 0.793808
v -0.634747 0.926878 -0.841748
v -0.634747 0.364379 -0.841748
v 0.642747 0.926879 -0.841747
v 0.642747 0.364379 -0.841748
v -0.259749 1.614379 -1.341747
v -0.259749 1.614379 -0.841748
v -0.259749 1.114378 -1.341747
v -0.259749 1.114378 -0.841748
v 0.267749 1.614379 -0.841748
v 0.267749 1.614379 -1.341746
v 0.267749 1.114378 -0.841748
v 0.267749 1.114378 -1.341746
v -0.697246 0.801879 -0.966747
v -0.697246 0.801878 1.220742
v -0.697246 0.006879 -0.966747
v -0.697246 0.006878 1.220742
v 0.705246 0.801878 1.220742
v 0.705246 0.801878 -0.966747
v 0.705246 0.006878 1.220742
v 0.705246 0.006878 -0.966747
vn -0.0000 0.7934 0.6088
vn -1.0000 -0.0000 -0.0000
vn -0.0000 -0.7934 -0.6088
vn 1.0000 -0.0000 -0.0000
vn -0.0000 0.6088 -0.7933
vn -0.0000 -0.6088 0.7934
vn -0.0000 -0.0000 1.0000
vn -0.0000 -0.0000 -1.0000
vn -0.0000 1.0000 -0.0000
vn -0.0000 -1.0000 -0.0000
vn -0.0000 0.6088 -0.7934
vt 0.134766 0.328125
vt 0.433594 0.964844
vt 0.673828 0.494141
vt 0.390625 0.699219
vt 0.136719 0.328125
vt 0.673828 0.492188
vt 0.134766 0.283203
vt 0.433594 0.919922
vt 0.677734 0.451172
vt 0.390625 0.654297
vt 0.136719 0.283203
vt 0.677734 0.449219
vt 0.429688 0.699219
vt 0.435547 0.328125
vt 0.712891 0.492188
vt 0.394531 0.964844
vt 0.437500 0.328125
vt 0.712891 0.494141
vt 0.429688 0.654297
vt 0.435547 0.283203
vt 0.716797 0.449219
vt 0.394531 0.919922
vt 0.437500 0.283203
vt 0.716797 0.451172
vt 0.167969 0.707031
vt 0.263672 0.558594
vt 0.062500 0.572266
vt 0.177734 0.558594
vt 0.199219 0.707031
vt 0.062500 0.541016
vt 0.167969 0.679688
vt 0.263672 0.531250
vt 0.000000 0.568359
vt 0.177734 0.531250
vt 0.199219 0.679688
vt 0.000000 0.537109
vt 0.220703 0.558594
vt 0.402344 0.496094
vt 0.105469 0.541016
vt 0.220703 0.558594
vt 0.433594 0.496094
vt 0.105469 0.572266
vt 0.220703 0.531250
vt 0.402344 0.468750
vt 0.042969 0.537109
vt 0.220703 0.531250
vt 0.433594 0.468750
vt 0.042969 0.568359
vt 0.125000 0.818359
vt 0.072266 0.328125
vt 0.685547 0.324219
vt 0.027344 0.328125
vt 0.146484 0.818359
vt 0.685547 0.302734
vt 0.125000 0.773438
vt 0.072266 0.283203
vt 0.037109 0.312500
vt 0.027344 0.283203
vt 0.146484 0.773438
vt 0.037109 0.291016
vt 0.029297 0.328125
vt 0.414062 0.541016
vt 0.687500 0.302734
vt 0.070312 0.328125
vt 0.435547 0.541016
vt 0.687500 0.324219
vt 0.029297 0.283203
vt 0.414062 0.496094
vt 0.039062 0.291016
vt 0.070312 0.283203
vt 0.435547 0.496094
vt 0.039062 0.312500
vt 0.220703 0.531250
vt 0.134766 0.328125
vt 0.039062 0.312500
vt 0.072266 0.328125
vt 0.242188 0.531250
vt 0.039062 0.291016
vt 0.220703 0.486328
vt 0.134766 0.283203
vt 0.041016 0.312500
vt 0.072266 0.283203
vt 0.242188 0.486328
vt 0.041016 0.291016
vt 0.074219 0.328125
vt 0.242188 0.531250
vt 0.041016 0.291016
vt 0.132812 0.328125
vt 0.263672 0.531250
vt 0.041016 0.312500
vt 0.074219 0.283203
vt 0.242188 0.486328
vt 0.042969 0.291016
vt 0.132812 0.283203
vt 0.263672 0.486328
vt 0.042969 0.312500
vt 0.000000 0.513672
vt 0.000000 0.496094
vt 0.039062 0.513672
vt 0.039062 0.496094
vt 0.162109 0.388672
vt 0.193359 0.388672
vt 0.326172 0.388672
vt 0.146484 0.388672
vt 0.177734 0.388672
vt 0.326172 0.373047
vt 0.162109 0.373047
vt 0.193359 0.373047
vt 0.611328 0.484375
vt 0.146484 0.373047
vt 0.177734 0.373047
vt 0.611328 0.468750
vt 0.162109 0.388672
vt 0.242188 0.388672
vt 0.341797 0.373047
vt 0.177734 0.388672
vt 0.257812 0.388672
vt 0.341797 0.388672
vt 0.162109 0.373047
vt 0.242188 0.373047
vt 0.626953 0.468750
vt 0.177734 0.373047
vt 0.257812 0.373047
vt 0.626953 0.484375
vt 0.242188 0.951172
vt 0.414062 0.541016
vt 0.320312 0.906250
vt 0.167969 0.923828
vt 0.310547 0.951172
vt 0.320312 0.837891
vt 0.242188 0.925781
vt 0.414062 0.515625
vt 0.320312 0.837891
vt 0.167969 0.898438
vt 0.310547 0.925781
vt 0.320312 0.769531
vt 0.210938 0.923828
vt 0.390625 0.654297
vt 0.363281 0.837891
vt 0.371094 0.541016
vt 0.458984 0.654297
vt 0.363281 0.906250
vt 0.210938 0.898438
vt 0.390625 0.628906
vt 0.363281 0.769531
vt 0.371094 0.515625
vt 0.458984 0.628906
vt 0.363281 0.837891
s 1
usemtl HUMVEE_ARMY_US_TEX_5).png
f 60/178/7 63/187/7 61/181/7 58/172/7
f 59/175/8 60/179/8 58/173/8 57/169/8
f 64/190/9 59/176/9 57/170/9 62/184/9
f 63/188/10 64/191/10 62/185/10 61/182/10
f 62/186/11 57/171/11 58/174/11 61/183/11
f 63/189/12 60/180/12 59/177/12 64/192/12
f 68/202/13 71/211/13 69/205/13 66/196/13
f 67/199/8 68/203/8 66/197/8 65/193/8
f 72/214/14 67/200/14 65/194/14 70/208/14
f 71/212/10 72/215/10 70/209/10 69/206/10
f 70/210/15 65/195/15 66/198/15 69/207/15
f 71/213/16 68/204/16 67/201/16 72/216/16
f 76/226/7 79/235/7 77/229/7 74/220/7
f 75/223/8 76/227/8 74/221/8 73/217/8
f 80/238/9 75/224/9 73/218/9 78/232/9
f 79/236/10 80/239/10 78/233/10 77/230/10
f 78/234/17 73/219/17 74/222/17 77/231/17
f 79/237/12 76/228/12 75/225/12 80/240/12
f 84/250/7 87/259/7 85/253/7 82/244/7
f 83/247/8 84/251/8 82/245/8 81/241/8
f 88/262/9 83/248/9 81/242/9 86/256/9
f 87/260/10 88/263/10 86/257/10 85/254/10
f 86/258/17 81/243/17 82/246/17 85/255/17
f 87/261/12 84/252/12 83/249/12 88/264/12
f 90/266/13 92/268/13 91/267/13 89/265/13
f 96/278/13 99/287/13 97/281/13 94/272/13
f 95/275/8 96/279/8 94/273/8 93/269/8
f 100/290/14 95/276/14 93/270/14 98/284/14
f 99/288/10 100/291/10 98/285/10 97/282/10
f 98/286/15 93/271/15 94/274/15 97/283/15
f 99/289/16 96/280/16 95/277/16 100/292/16
f 104/302/13 107/311/13 105/305/13 102/296/13
f 103/299/8 104/303/8 102/297/8 101/293/8
f 108/314/14 103/300/14 101/294/14 106/308/14
f 107/312/10 108/315/10 106/309/10 105/306/10
f 106/310/15 101/295/15 102/298/15 105/307/15
f 107/313/16 104/304/16 103/301/16 108/316/16
