# Blender 3.3.21
# www.blender.org
mtllib m777_turret.mtl
o turret
v 0.367745 0.685089 -0.546511
v 0.367746 1.042589 0.072696
v 0.367745 -0.126809 -0.077763
v 0.367745 0.230690 0.541443
v 0.655244 1.042589 0.072693
v 0.655245 0.685089 -0.546511
v 0.655245 0.230690 0.541441
v 0.655244 -0.126809 -0.077763
v -0.521477 0.685089 -0.546512
v -0.521477 1.042589 0.072695
v -0.521478 -0.126809 -0.077765
v -0.521477 0.230690 0.541443
v -0.233979 1.042589 0.072693
v -0.233978 0.685089 -0.546512
v -0.233978 0.230690 0.541443
v -0.233979 -0.126809 -0.077762
v 0.088335 0.224094 -0.743741
v -0.652002 0.224094 -0.003403
v 0.088335 0.032094 -0.743741
v -0.652002 0.032094 -0.003403
v 0.088336 0.224094 0.736933
v 0.828673 0.224094 -0.003403
v 0.088336 0.032094 0.736933
v 0.828673 0.032094 -0.003403
v 0.067530 0.678114 -0.694747
v 0.396185 0.678114 -0.504997
v 0.067530 0.313614 -0.694747
v 0.396185 0.313614 -0.504997
v 0.424684 0.678114 -0.554361
v 0.096029 0.678114 -0.744108
v 0.424684 0.313614 -0.554361
v 0.096029 0.313614 -0.744109
v 0.191663 0.570594 -0.620252
v 0.169163 0.570594 -0.581281
v 0.191663 0.075594 -0.620252
v 0.169163 0.075594 -0.581281
v 0.247105 0.570594 -0.536281
v 0.269606 0.570594 -0.575255
v 0.247105 0.075594 -0.536281
v 0.269606 0.075594 -0.575255
vn -0.0000 0.5000 0.8660
vn -1.0000 -0.0000 -0.0000
vn -0.0000 -0.5000 -0.8660
vn 1.0000 -0.0000 -0.0000
vn -0.0000 0.8660 -0.5000
vn -0.0000 -0.8660 0.5000
vn -0.7071 -0.0000 0.7071
vn -0.7071 -0.0000 -0.7071
vn 0.7071 -0.0000 -0.7071
vn 0.7071 -0.0000 0.7071
vn -0.0000 1.0000 -0.0000
vn -0.0000 -1.0000 -0.0000
vn 0.8660 -0.0000 0.5000
vn -0.5000 -0.0000 0.8660
vn -0.8660 -0.0000 -0.5000
vn 0.5000 -0.0000 -0.8660
vt 0.062500 0.648438
vt 0.398438 0.460938
vt 0.296875 0.421875
vt 0.359375 0.460938
vt 0.105469 0.648438
vt 0.296875 0.378906
vt 0.062500 0.589844
vt 0.398438 0.402344
vt 0.585938 0.527344
vt 0.359375 0.402344
vt 0.105469 0.589844
vt 0.585938 0.484375
vt 0.378906 0.460938
vt 0.359375 0.679688
vt 0.316406 0.378906
vt 0.378906 0.460938
vt 0.402344 0.679688
vt 0.316406 0.421875
vt 0.378906 0.402344
vt 0.359375 0.621094
vt 0.605469 0.484375
vt 0.378906 0.402344
vt 0.402344 0.621094
vt 0.605469 0.527344
vt 0.375000 0.968750
vt 0.554688 0.460938
vt 0.195312 0.410156
vt 0.515625 0.460938
vt 0.417969 0.968750
vt 0.195312 0.367188
vt 0.375000 0.910156
vt 0.554688 0.402344
vt 0.214844 0.410156
vt 0.515625 0.402344
vt 0.417969 0.910156
vt 0.214844 0.367188
vt 0.535156 0.460938
vt 0.218750 0.625000
vt 0.214844 0.367188
vt 0.535156 0.460938
vt 0.261719 0.625000
vt 0.214844 0.410156
vt 0.535156 0.402344
vt 0.218750 0.566406
vt 0.234375 0.367188
vt 0.535156 0.402344
vt 0.261719 0.566406
vt 0.234375 0.410156
vt 0.578125 0.691406
vt 0.648438 0.800781
vt 0.242188 0.968750
vt 0.578125 0.734375
vt 0.644531 0.691406
vt 0.242188 0.902344
vt 0.578125 0.679688
vt 0.648438 0.789062
vt 0.250000 0.902344
vt 0.578125 0.722656
vt 0.644531 0.679688
vt 0.250000 0.835938
vt 0.644531 0.734375
vt 0.589844 0.972656
vt 0.308594 0.902344
vt 0.582031 0.800781
vt 0.656250 0.972656
vt 0.308594 0.968750
vt 0.644531 0.722656
vt 0.589844 0.960938
vt 0.316406 0.835938
vt 0.582031 0.789062
vt 0.656250 0.960938
vt 0.316406 0.902344
vt 0.171875 0.394531
vt 0.050781 0.476562
vt 0.296875 0.464844
vt 0.203125 0.492188
vt 0.195312 0.394531
vt 0.296875 0.441406
vt 0.171875 0.371094
vt 0.050781 0.453125
vt 0.046875 0.453125
vt 0.203125 0.468750
vt 0.195312 0.371094
vt 0.046875 0.429688
vt 0.207031 0.492188
vt 0.394531 0.394531
vt 0.300781 0.441406
vt 0.046875 0.476562
vt 0.417969 0.394531
vt 0.300781 0.464844
vt 0.207031 0.468750
vt 0.394531 0.371094
vt 0.050781 0.429688
vt 0.046875 0.453125
vt 0.417969 0.371094
vt 0.050781 0.453125
vt 0.320312 0.582031
vt 0.308594 0.578125
vt 0.304688 0.535156
vt 0.402344 0.656250
vt 0.324219 0.582031
vt 0.304688 0.531250
vt 0.320312 0.550781
vt 0.308594 0.546875
vt 0.511719 0.496094
vt 0.402344 0.625000
vt 0.324219 0.550781
vt 0.511719 0.492188
vt 0.406250 0.656250
vt 0.257812 0.566406
vt 0.308594 0.531250
vt 0.304688 0.578125
vt 0.261719 0.566406
vt 0.308594 0.535156
vt 0.406250 0.625000
vt 0.257812 0.535156
vt 0.515625 0.492188
vt 0.304688 0.546875
vt 0.261719 0.535156
vt 0.515625 0.496094
s 1
usemtl m777_tex_1.png.001
f 4/10/1 7/19/1 5/13/1 2/4/1
f 3/7/2 4/11/2 2/5/2 1/1/2
f 8/22/3 3/8/3 1/2/3 6/16/3
f 7/20/4 8/23/4 6/17/4 5/14/4
f 6/18/5 1/3/5 2/6/5 5/15/5
f 7/21/6 4/12/6 3/9/6 8/24/6
f 12/34/1 15/43/1 13/37/1 10/28/1
f 11/31/2 12/35/2 10/29/2 9/25/2
f 16/46/3 11/32/3 9/26/3 14/40/3
f 15/44/4 16/47/4 14/41/4 13/38/4
f 14/42/5 9/27/5 10/30/5 13/39/5
f 15/45/6 12/36/6 11/33/6 16/48/6
f 20/58/7 23/67/7 21/61/7 18/52/7
f 19/55/8 20/59/8 18/53/8 17/49/8
f 24/70/9 19/56/9 17/50/9 22/64/9
f 23/68/10 24/71/10 22/65/10 21/62/10
f 22/66/11 17/51/11 18/54/11 21/63/11
f 23/69/12 20/60/12 19/57/12 24/72/12
f 28/82/13 31/91/13 29/85/13 26/76/13
f 27/79/14 28/83/14 26/77/14 25/73/14
f 32/94/15 27/80/15 25/74/15 30/88/15
f 31/92/16 32/95/16 30/89/16 29/86/16
f 30/90/11 25/75/11 26/78/11 29/87/11
f 31/93/12 28/84/12 27/81/12 32/96/12
f 36/106/14 39/115/14 37/109/14 34/100/14
f 35/103/15 36/107/15 34/101/15 33/97/15
f 40/118/16 35/104/16 33/98/16 38/112/16
f 39/116/13 40/119/13 38/113/13 37/110/13
f 38/114/11 33/99/11 34/102/11 37/111/11
f 39/117/12 36/108/12 35/105/12 40/120/12
o gun
v 0.011875 0.712409 9.092479
v 0.011877 0.712409 9.784977
v 0.011875 0.651159 9.092479
v 0.011877 0.651159 9.784977
v 0.085627 0.712409 9.784977
v 0.085625 0.712409 9.092477
v 0.085627 0.651159 9.784977
v 0.085625 0.651159 9.092477
v -0.051248 0.713034 9.716850
v -0.051248 0.713034 9.929353
v -0.051248 0.650534 9.716850
v -0.051248 0.650534 9.929353
v 0.148751 0.713034 9.929353
v 0.148750 0.713034 9.716850
v 0.148751 0.650534 9.929353
v 0.148750 0.650534 9.716850
v 0.061533 1.186660 1.607803
v 0.061533 1.186659 8.657778
v -0.129386 0.995741 1.607803
v -0.129386 0.995740 8.657779
v 0.252451 0.995740 8.657779
v 0.252451 0.995741 1.607802
v 0.061533 0.804821 8.657778
v 0.061533 0.804822 1.607803
v 0.061533 1.202569 8.320280
v 0.061533 1.202569 8.657778
v -0.145295 0.995740 8.320279
v -0.145295 0.995740 8.657778
v 0.268361 0.995740 8.657779
v 0.268361 0.995740 8.320279
v 0.061533 0.788911 8.657778
v 0.061533 0.788911 8.320280
v -0.247253 1.200593 8.657779
v -0.247252 1.200593 9.287774
v -0.247253 0.780593 8.657779
v -0.247252 0.780593 9.287774
v 0.322746 1.200593 9.287771
v 0.322745 1.200593 8.657778
v 0.322746 0.780593 9.287771
v 0.322745 0.780593 8.657778
v 0.187746 1.200593 9.287774
v 0.187745 1.200593 9.317775
v 0.187746 0.780593 9.287774
v 0.187745 0.780593 9.317775
v 0.322746 1.200593 9.317775
v 0.322746 1.200593 9.287771
v 0.322746 0.780593 9.317775
v 0.322746 0.780593 9.287771
v -0.059753 0.780593 9.095275
v -0.059753 0.780593 9.162774
v -0.059753 0.655593 9.095275
v -0.059753 0.655593 9.162774
v 0.135246 0.780593 9.162774
v 0.135246 0.780593 9.095278
v 0.135246 0.655593 9.162774
v 0.135246 0.655593 9.095278
v -0.247252 1.200593 9.287774
v -0.247252 1.200593 9.317775
v -0.247252 0.780593 9.287774
v -0.247252 0.780593 9.317775
v -0.112253 1.200593 9.317775
v -0.112253 1.200593 9.287774
v -0.112253 0.780593 9.317775
v -0.112253 0.780593 9.287774
v -0.127253 0.990594 2.867798
v -0.127253 0.990594 4.247794
v -0.127253 0.645594 2.867798
v -0.127253 0.645594 4.247794
v 0.247745 0.990594 4.247794
v 0.247746 0.990594 2.867798
v 0.247745 0.645594 4.247794
v 0.247746 0.645594 2.867798
v -0.202252 1.395594 2.267800
v -0.202253 1.395594 2.867798
v -0.202252 0.690594 2.267800
v -0.202253 0.690594 2.867798
v 0.322745 1.395594 2.867799
v 0.322746 1.395594 2.267800
v 0.322745 0.690594 2.867798
v 0.322746 0.690594 2.267800
v -0.127253 0.690594 1.202804
v -0.127253 0.690594 3.347796
v -0.127253 0.570594 1.202804
v -0.127253 0.570594 3.347796
v 0.247746 0.690594 3.347796
v 0.247746 0.690594 1.202805
v 0.247746 0.570594 3.347796
v 0.247746 0.570594 1.202805
v -0.232252 1.230594 1.127805
v -0.232253 1.230594 2.417800
v -0.232252 1.050594 1.127805
v -0.232253 1.050594 2.417800
v 0.352745 1.230594 2.417799
v 0.352745 1.230594 1.127806
v 0.352745 1.050594 2.417799
v 0.352745 1.050594 1.127806
v 0.078041 1.278168 1.232804
v 0.078040 1.278167 2.312800
v 0.184107 1.172102 1.232804
v 0.184106 1.172101 2.312800
v 0.184106 1.384234 2.312800
v 0.184107 1.384234 1.232804
v 0.290172 1.278167 2.312800
v 0.290172 1.278168 1.232804
v -0.176517 1.278168 1.232805
v -0.176517 1.278167 2.312800
v -0.070451 1.172102 1.232804
v -0.070451 1.172101 2.312800
v -0.070451 1.384234 2.312800
v -0.070451 1.384234 1.232804
v 0.035614 1.278167 2.312800
v 0.035614 1.278168 1.232804
v -0.217253 1.350594 1.262804
v -0.217253 1.350594 1.562803
v -0.217253 1.170594 1.262804
v -0.217253 1.170594 1.562803
v 0.217746 1.350594 1.562803
v 0.217746 1.350594 1.262805
v 0.217746 1.170594 1.562803
v 0.217746 1.170594 1.262805
v -0.457252 1.410594 1.337803
v -0.457252 1.410594 1.442803
v -0.457252 1.350594 1.337803
v -0.457252 1.350594 1.442803
v -0.007253 1.410594 1.442803
v -0.007253 1.410594 1.337804
v -0.007253 1.350594 1.442803
v -0.007253 1.350594 1.337804
v -0.232252 0.870594 1.127805
v -0.232253 0.870594 2.417800
v -0.232252 0.645594 1.127805
v -0.232253 0.645594 2.417800
v 0.352745 0.870594 2.417799
v 0.352745 0.870594 1.127806
v 0.352745 0.645594 2.417799
v 0.352745 0.645594 1.127806
v -0.232252 1.050594 1.502803
v -0.232253 1.050594 2.417800
v -0.232252 0.870594 1.502803
v -0.232253 0.870594 2.417800
v 0.352745 1.050594 2.417799
v 0.352745 1.050594 1.502803
v 0.352745 0.870594 2.417799
v 0.352745 0.870594 1.502803
v -0.232252 1.050594 1.127805
v -0.232253 1.050594 1.337804
v -0.232252 0.870594 1.127805
v -0.232253 0.870594 1.337804
v -0.041004 1.050594 1.337803
v -0.041003 1.050594 1.127806
v -0.041004 0.870594 1.337803
v -0.041003 0.870594 1.127806
v -0.052253 1.080594 1.322804
v -0.052253 1.080594 1.502802
v -0.052253 0.855594 1.322804
v -0.052253 0.855594 1.502802
v 0.307745 1.080594 1.502803
v 0.307745 1.080594 1.322805
v 0.307745 0.855594 1.502803
v 0.307745 0.855594 1.322805
v 0.355137 0.733462 -0.591562
v 0.355137 0.733461 5.057166
v 0.502745 0.585854 -0.591563
v 0.502745 0.585853 5.057166
v 0.502745 0.881070 5.057166
v 0.502745 0.881071 -0.591563
v 0.650353 0.733461 5.057166
v 0.650354 0.733462 -0.591563
v 0.354253 0.945594 -0.592188
v 0.354253 0.945594 3.092798
v 0.502745 0.797102 -0.592188
v 0.502745 0.797101 3.092797
v 0.502745 1.094086 3.092798
v 0.502745 1.094087 -0.592188
v 0.651237 0.945594 3.092798
v 0.651236 0.945594 -0.592188
v 0.671875 0.996864 -0.059637
v 0.690064 0.996864 0.356965
v 0.671875 0.594864 -0.059637
v 0.690064 0.594864 0.356965
v 0.747010 0.996864 0.354476
v 0.728820 0.996864 -0.062122
v 0.747010 0.594864 0.354476
v 0.728820 0.594864 -0.062122
v 0.676562 0.840594 0.103813
v 0.481749 0.840594 0.112320
v 0.676562 0.765594 0.103813
v 0.481749 0.765594 0.112320
v 0.485674 0.840594 0.202233
v 0.680488 0.840594 0.193727
v 0.485674 0.765594 0.202233
v 0.680488 0.765594 0.193727
v -0.367252 1.094087 -0.592188
v -0.367252 1.094086 3.092798
v -0.515744 0.945594 -0.592188
v -0.515744 0.945594 3.092798
v -0.218760 0.945594 3.092798
v -0.218760 0.945594 -0.592188
v -0.367252 0.797101 3.092797
v -0.367252 0.797102 -0.592188
v -0.367251 0.881071 -0.591563
v -0.367252 0.881070 5.057166
v -0.514860 0.733462 -0.591562
v -0.514860 0.733461 5.057166
v -0.219644 0.733461 5.057166
v -0.219643 0.733462 -0.591563
v -0.367252 0.585853 5.057166
v -0.367251 0.585854 -0.591563
v -0.292252 0.660594 1.157805
v -0.292253 0.660594 1.922802
v -0.292252 0.480594 1.157805
v -0.292253 0.480594 1.922801
v 0.412745 0.660594 1.922802
v 0.412745 0.660594 1.157805
v 0.412745 0.480594 1.922801
v 0.412745 0.480594 1.157805
v -0.367252 1.301954 2.762799
v -0.367252 1.301954 5.057790
v -0.515744 1.153462 2.762799
v -0.515744 1.153461 5.057790
v -0.218761 1.153461 5.057790
v -0.218760 1.153462 2.762799
v -0.367252 1.004969 5.057790
v -0.367252 1.004969 2.762799
v 0.354253 1.153462 2.762798
v 0.354253 1.153461 5.057790
v 0.502744 1.004969 2.762799
v 0.502745 1.004969 5.057790
v 0.502745 1.301954 5.057790
v 0.502744 1.301954 2.762799
v 0.651236 1.153461 5.057790
v 0.651237 1.153462 2.762798
v -0.562251 1.215594 1.862802
v -0.562252 1.215594 2.777798
v -0.562251 0.960594 1.862802
v -0.562252 0.960594 2.777798
v -0.232252 1.215594 2.777798
v -0.232253 1.215594 1.862802
v -0.232252 0.960594 2.777798
v -0.232253 0.960594 1.862802
v 0.372269 1.215594 1.862802
v 0.372269 1.215594 2.777799
v 0.372269 0.960594 1.862802
v 0.372269 0.960594 2.777799
v 0.702268 1.215594 2.777798
v 0.702268 1.215594 1.862802
v 0.702268 0.960594 2.777798
v 0.702268 0.960594 1.862802
v -0.237252 0.740594 -0.042190
v -0.237253 0.740594 0.572807
v -0.237252 0.678094 -0.042190
v -0.237253 0.678094 0.572807
v 0.373995 0.740594 0.572807
v 0.373995 0.740594 -0.042190
v 0.373995 0.678094 0.572807
v 0.373995 0.678094 -0.042190
v -0.320752 1.244094 2.944298
v -0.320753 1.244094 5.056291
v -0.320752 1.142094 2.944298
v -0.320753 1.142093 5.056291
v 0.456245 1.244094 5.056291
v 0.456245 1.244094 2.944298
v 0.456245 1.142093 5.056291
v 0.456245 1.142094 2.944298
v 0.202746 1.515594 3.692796
v 0.202746 1.515594 4.217793
v 0.202746 1.245594 3.692796
v 0.202746 1.245594 4.217793
v 0.592745 1.515594 4.217793
v 0.592744 1.515594 3.692795
v 0.592745 1.245594 4.217793
v 0.592744 1.245594 3.692795
v -0.397252 1.455594 4.007794
v -0.397252 1.455594 4.442793
v -0.397252 1.245594 4.007794
v -0.397252 1.245594 4.442793
v -0.127253 1.455594 4.442793
v -0.127253 1.455594 4.007794
v -0.127253 1.245594 4.442793
v -0.127253 1.245594 4.007794
v -0.247253 1.243549 3.143972
v -0.247252 1.458442 3.846853
v -0.247252 1.157481 3.170285
v -0.247252 1.372375 3.873167
v -0.127253 1.458442 3.846853
v -0.127253 1.243549 3.143971
v -0.127253 1.372375 3.873167
v -0.127253 1.157481 3.170284
v -0.247253 1.458442 3.846853
v 0.354822 1.458442 4.268430
v -0.247253 1.368442 3.846853
v 0.354822 1.368442 4.268430
v 0.423651 1.458442 4.170132
v -0.178424 1.458442 3.748555
v 0.423651 1.368442 4.170132
v -0.178424 1.368442 3.748555
v -0.473502 1.140594 2.792798
v -0.473502 1.140593 5.042790
v -0.473502 0.735594 2.792798
v -0.473502 0.735593 5.042790
v 0.615245 1.140593 5.042790
v 0.615244 1.140594 2.792799
v 0.615245 0.735593 5.042790
v 0.615244 0.735594 2.792798
vn -0.0000 -0.0000 1.0000
vn -1.0000 -0.0000 -0.0000
vn -0.0000 -0.0000 -1.0000
vn 1.0000 -0.0000 -0.0000
vn -0.0000 1.0000 -0.0000
vn -0.0000 -1.0000 -0.0000
vn -0.7071 0.7071 -0.0000
vn 0.7071 -0.7071 -0.0000
vn 0.7071 0.7071 -0.0000
vn -0.7071 -0.7071 -0.0000
vn 0.0437 -0.0000 0.9990
vn -0.9990 -0.0000 0.0436
vn -0.0436 -0.0000 -0.9990
vn 0.9990 -0.0000 -0.0436
vn 0.0436 -0.0000 0.9990
vn -0.0000 0.2924 0.9563
vn -0.0000 -0.2924 -0.9563
vn -0.0000 0.9563 -0.2924
vn -0.0000 -0.9563 0.2924
vn 0.8192 -0.0000 0.5736
vn -0.5736 -0.0000 0.8192
vn -0.8192 -0.0000 -0.5736
vn 0.5736 -0.0000 -0.8192
vt 0.363281 0.839844
vt 0.109375 0.593750
vt 0.105469 0.648438
vt 0.402344 0.625000
vt 0.406250 0.839844
vt 0.105469 0.605469
vt 0.363281 0.835938
vt 0.109375 0.589844
vt 0.320312 0.625000
vt 0.402344 0.621094
vt 0.406250 0.835938
vt 0.320312 0.582031
vt 0.406250 0.625000
vt 0.390625 0.753906
vt 0.109375 0.605469
vt 0.105469 0.593750
vt 0.433594 0.753906
vt 0.109375 0.648438
vt 0.406250 0.621094
vt 0.390625 0.750000
vt 0.324219 0.582031
vt 0.105469 0.589844
vt 0.433594 0.750000
vt 0.324219 0.625000
vt 0.500000 0.710938
vt 0.519531 0.695312
vt 0.312500 0.718750
vt 0.496094 0.695312
vt 0.511719 0.710938
vt 0.312500 0.707031
vt 0.500000 0.707031
vt 0.519531 0.691406
vt 0.488281 0.718750
vt 0.496094 0.691406
vt 0.511719 0.707031
vt 0.488281 0.707031
vt 0.507812 0.695312
vt 0.511719 0.839844
vt 0.324219 0.707031
vt 0.507812 0.695312
vt 0.523438 0.839844
vt 0.324219 0.718750
vt 0.507812 0.691406
vt 0.511719 0.835938
vt 0.500000 0.707031
vt 0.507812 0.691406
vt 0.523438 0.835938
vt 0.500000 0.718750
vt 0.132812 1.000000
vt 0.328125 0.335938
vt 0.132812 0.968750
vt 0.191406 0.339844
vt 0.574219 1.000000
vt 0.132812 0.527344
vt 0.132812 0.984375
vt 0.328125 0.320312
vt 0.000000 0.859375
vt 0.191406 0.324219
vt 0.574219 0.984375
vt 0.000000 0.417969
vt 0.207031 0.339844
vt 0.132812 0.984375
vt 0.148438 0.527344
vt 0.312500 0.335938
vt 0.574219 0.984375
vt 0.148438 0.968750
vt 0.207031 0.324219
vt 0.132812 0.968750
vt 0.015625 0.417969
vt 0.312500 0.320312
vt 0.574219 0.968750
vt 0.015625 0.859375
vt 0.207031 0.367188
vt 0.449219 0.367188
vt 0.468750 0.367188
vt 0.527344 0.894531
vt 0.226562 0.367188
vt 0.468750 0.347656
vt 0.207031 0.347656
vt 0.449219 0.347656
vt 0.503906 0.367188
vt 0.527344 0.875000
vt 0.226562 0.347656
vt 0.503906 0.347656
vt 0.546875 0.894531
vt 0.449219 0.367188
vt 0.488281 0.347656
vt 0.429688 0.367188
vt 0.468750 0.367188
vt 0.488281 0.367188
vt 0.546875 0.875000
vt 0.449219 0.347656
vt 0.523438 0.347656
vt 0.429688 0.347656
vt 0.468750 0.347656
vt 0.523438 0.367188
vt 0.531250 0.949219
vt 0.589844 0.429688
vt 0.445312 0.492188
vt 0.570312 0.878906
vt 0.570312 0.949219
vt 0.445312 0.453125
vt 0.531250 0.921875
vt 0.589844 0.402344
vt 0.480469 0.492188
vt 0.570312 0.851562
vt 0.570312 0.921875
vt 0.480469 0.453125
vt 0.605469 0.878906
vt 0.539062 0.750000
vt 0.480469 0.453125
vt 0.554688 0.429688
vt 0.578125 0.750000
vt 0.480469 0.492188
vt 0.605469 0.851562
vt 0.539062 0.722656
vt 0.515625 0.453125
vt 0.554688 0.402344
vt 0.578125 0.722656
vt 0.515625 0.492188
vt 0.046875 0.554688
vt 0.085938 0.324219
vt 0.242188 0.855469
vt 0.132812 0.332031
vt 0.050781 0.554688
vt 0.242188 0.851562
vt 0.046875 0.527344
vt 0.085938 0.296875
vt 0.308594 0.906250
vt 0.132812 0.304688
vt 0.050781 0.527344
vt 0.308594 0.902344
vt 0.140625 0.332031
vt 0.320312 0.550781
vt 0.250000 0.851562
vt 0.078125 0.324219
vt 0.324219 0.550781
vt 0.250000 0.855469
vt 0.140625 0.304688
vt 0.320312 0.523438
vt 0.316406 0.902344
vt 0.078125 0.296875
vt 0.324219 0.523438
vt 0.316406 0.906250
vt 0.273438 0.531250
vt 0.531250 0.949219
vt 0.511719 0.710938
vt 0.492188 0.550781
vt 0.277344 0.531250
vt 0.511719 0.707031
vt 0.273438 0.523438
vt 0.531250 0.941406
vt 0.519531 0.695312
vt 0.492188 0.542969
vt 0.277344 0.523438
vt 0.519531 0.691406
vt 0.503906 0.550781
vt 0.320312 0.472656
vt 0.523438 0.707031
vt 0.519531 0.949219
vt 0.324219 0.472656
vt 0.523438 0.710938
vt 0.503906 0.542969
vt 0.320312 0.464844
vt 0.531250 0.691406
vt 0.519531 0.941406
vt 0.324219 0.464844
vt 0.531250 0.695312
vt 0.203125 0.546875
vt 0.167969 0.320312
vt 0.398438 0.574219
vt 0.648438 0.324219
vt 0.207031 0.546875
vt 0.398438 0.570312
vt 0.203125 0.519531
vt 0.167969 0.292969
vt 0.496094 0.574219
vt 0.648438 0.296875
vt 0.207031 0.519531
vt 0.496094 0.570312
vt 0.656250 0.324219
vt 0.046875 0.527344
vt 0.406250 0.570312
vt 0.160156 0.320312
vt 0.050781 0.527344
vt 0.406250 0.574219
vt 0.656250 0.296875
vt 0.046875 0.500000
vt 0.503906 0.570312
vt 0.160156 0.292969
vt 0.050781 0.500000
vt 0.503906 0.574219
vt 0.375000 0.910156
vt 0.273438 0.398438
vt 0.406250 0.656250
vt 0.062500 0.398438
vt 0.460938 0.910156
vt 0.406250 0.570312
vt 0.375000 0.886719
vt 0.273438 0.375000
vt 0.062500 0.589844
vt 0.062500 0.375000
vt 0.460938 0.886719
vt 0.062500 0.503906
vt 0.085938 0.398438
vt 0.402344 0.679688
vt 0.429688 0.570312
vt 0.250000 0.398438
vt 0.488281 0.679688
vt 0.429688 0.656250
vt 0.085938 0.375000
vt 0.402344 0.656250
vt 0.085938 0.503906
vt 0.250000 0.375000
vt 0.488281 0.656250
vt 0.085938 0.589844
vt 0.218750 0.566406
vt 0.203125 0.476562
vt 0.398438 0.472656
vt 0.015625 0.484375
vt 0.257812 0.566406
vt 0.398438 0.433594
vt 0.218750 0.523438
vt 0.203125 0.433594
vt 0.535156 0.789062
vt 0.015625 0.441406
vt 0.257812 0.523438
vt 0.535156 0.750000
vt 0.046875 0.484375
vt 0.359375 0.542969
vt 0.429688 0.433594
vt 0.171875 0.476562
vt 0.398438 0.542969
vt 0.429688 0.472656
vt 0.046875 0.441406
vt 0.359375 0.500000
vt 0.566406 0.750000
vt 0.171875 0.433594
vt 0.398438 0.500000
vt 0.566406 0.789062
vt 0.539062 0.722656
vt 0.699219 0.855469
vt 0.171875 0.738281
vt 0.671875 0.714844
vt 0.671875 0.722656
vt 0.171875 0.605469
vt 0.539062 0.714844
vt 0.699219 0.847656
vt 0.195312 0.738281
vt 0.671875 0.707031
vt 0.671875 0.714844
vt 0.195312 0.605469
vt 0.695312 0.714844
vt 0.539062 0.714844
vt 0.195312 0.605469
vt 0.675781 0.855469
vt 0.671875 0.714844
vt 0.195312 0.738281
vt 0.695312 0.707031
vt 0.539062 0.707031
vt 0.218750 0.605469
vt 0.675781 0.847656
vt 0.671875 0.707031
vt 0.218750 0.738281
vt 0.570312 0.933594
vt 0.667969 0.949219
vt 0.218750 0.707031
vt 0.632812 0.988281
vt 0.652344 0.933594
vt 0.218750 0.625000
vt 0.570312 0.921875
vt 0.667969 0.937500
vt 0.253906 0.707031
vt 0.632812 0.976562
vt 0.652344 0.921875
vt 0.253906 0.625000
vt 0.667969 0.988281
vt 0.574219 1.000000
vt 0.253906 0.625000
vt 0.632812 0.949219
vt 0.656250 1.000000
vt 0.253906 0.707031
vt 0.667969 0.976562
vt 0.574219 0.988281
vt 0.289062 0.625000
vt 0.632812 0.937500
vt 0.656250 0.988281
vt 0.289062 0.707031
vt 0.613281 0.660156
vt 0.203125 0.417969
vt 0.039062 0.554688
vt 0.566406 0.757812
vt 0.679688 0.660156
vt 0.039062 0.488281
vt 0.613281 0.652344
vt 0.203125 0.410156
vt 0.195312 0.546875
vt 0.566406 0.750000
vt 0.679688 0.652344
vt 0.195312 0.480469
vt 0.574219 0.757812
vt 0.613281 0.410156
vt 0.046875 0.488281
vt 0.195312 0.417969
vt 0.679688 0.410156
vt 0.046875 0.554688
vt 0.574219 0.750000
vt 0.613281 0.402344
vt 0.203125 0.480469
vt 0.195312 0.410156
vt 0.679688 0.402344
vt 0.203125 0.546875
vt 0.429688 0.382812
vt 0.652344 0.503906
vt 0.152344 0.386719
vt 0.585938 0.484375
vt 0.496094 0.382812
vt 0.152344 0.320312
vt 0.429688 0.375000
vt 0.652344 0.496094
vt 0.160156 0.386719
vt 0.585938 0.476562
vt 0.496094 0.375000
vt 0.160156 0.320312
vt 0.593750 0.484375
vt 0.609375 0.382812
vt 0.160156 0.320312
vt 0.644531 0.503906
vt 0.675781 0.382812
vt 0.160156 0.386719
vt 0.593750 0.476562
vt 0.609375 0.375000
vt 0.167969 0.320312
vt 0.644531 0.496094
vt 0.675781 0.375000
vt 0.167969 0.386719
vt 0.355469 0.335938
vt 0.687500 0.683594
vt 0.507812 0.386719
vt 0.660156 0.867188
vt 0.375000 0.335938
vt 0.507812 0.367188
vt 0.355469 0.324219
vt 0.687500 0.671875
vt 0.613281 0.429688
vt 0.660156 0.855469
vt 0.375000 0.324219
vt 0.613281 0.410156
vt 0.687500 0.867188
vt 0.664062 0.402344
vt 0.535156 0.367188
vt 0.660156 0.683594
vt 0.683594 0.402344
vt 0.535156 0.386719
vt 0.687500 0.855469
vt 0.664062 0.390625
vt 0.640625 0.410156
vt 0.660156 0.671875
vt 0.683594 0.390625
vt 0.640625 0.429688
vt 0.039062 0.488281
vt 0.511719 0.839844
vt 0.542969 0.542969
vt 0.468750 0.695312
vt 0.046875 0.488281
vt 0.542969 0.535156
vt 0.039062 0.484375
vt 0.511719 0.835938
vt 0.667969 0.910156
vt 0.468750 0.691406
vt 0.046875 0.484375
vt 0.667969 0.902344
vt 0.496094 0.695312
vt 0.300781 0.484375
vt 0.570312 0.535156
vt 0.484375 0.839844
vt 0.308594 0.484375
vt 0.570312 0.542969
vt 0.496094 0.691406
vt 0.300781 0.480469
vt 0.695312 0.902344
vt 0.484375 0.835938
vt 0.308594 0.480469
vt 0.695312 0.910156
vt 0.515625 0.476562
vt 0.152344 0.386719
vt 0.289062 0.707031
vt 0.609375 0.398438
vt 0.597656 0.476562
vt 0.289062 0.625000
vt 0.515625 0.460938
vt 0.152344 0.371094
vt 0.015625 0.695312
vt 0.609375 0.382812
vt 0.597656 0.460938
vt 0.015625 0.613281
vt 0.644531 0.398438
vt 0.527344 0.910156
vt 0.324219 0.625000
vt 0.117188 0.386719
vt 0.609375 0.910156
vt 0.324219 0.707031
vt 0.644531 0.382812
vt 0.527344 0.894531
vt 0.050781 0.613281
vt 0.117188 0.371094
vt 0.609375 0.894531
vt 0.050781 0.695312
vt 0.437500 0.761719
vt 0.667969 0.847656
vt 0.015625 0.613281
vt 0.632812 0.894531
vt 0.496094 0.761719
vt 0.015625 0.554688
vt 0.437500 0.750000
vt 0.667969 0.835938
vt 0.171875 0.605469
vt 0.632812 0.882812
vt 0.496094 0.750000
vt 0.171875 0.546875
vt 0.667969 0.894531
vt 0.589844 0.960938
vt 0.050781 0.554688
vt 0.632812 0.847656
vt 0.648438 0.960938
vt 0.050781 0.613281
vt 0.667969 0.882812
vt 0.589844 0.949219
vt 0.207031 0.546875
vt 0.632812 0.835938
vt 0.648438 0.949219
vt 0.207031 0.605469
vt 0.601562 0.320312
vt 0.625000 0.320312
vt 0.679688 0.367188
vt 0.574219 0.527344
vt 0.613281 0.320312
vt 0.679688 0.355469
vt 0.601562 0.308594
vt 0.625000 0.308594
vt 0.679688 0.355469
vt 0.574219 0.515625
vt 0.613281 0.308594
vt 0.679688 0.343750
vt 0.585938 0.527344
vt 0.679688 0.378906
vt 0.691406 0.355469
vt 0.613281 0.320312
vt 0.691406 0.378906
vt 0.691406 0.367188
vt 0.585938 0.515625
vt 0.679688 0.367188
vt 0.691406 0.343750
vt 0.613281 0.308594
vt 0.691406 0.367188
vt 0.691406 0.355469
vt 0.632812 0.542969
vt 0.667969 0.484375
vt 0.058594 0.335938
vt 0.636719 0.757812
vt 0.644531 0.542969
vt 0.058594 0.324219
vt 0.632812 0.527344
vt 0.667969 0.468750
vt 0.664062 0.460938
vt 0.636719 0.742188
vt 0.644531 0.527344
vt 0.664062 0.449219
vt 0.660156 0.757812
vt 0.035156 0.359375
vt 0.082031 0.324219
vt 0.644531 0.484375
vt 0.046875 0.359375
vt 0.082031 0.335938
vt 0.660156 0.742188
vt 0.035156 0.343750
vt 0.687500 0.449219
vt 0.644531 0.468750
vt 0.046875 0.343750
vt 0.687500 0.460938
vt 0.148438 0.750000
vt 0.691406 0.332031
vt 0.109375 0.859375
vt 0.679688 0.343750
vt 0.500000 0.750000
vt 0.109375 0.507812
vt 0.148438 0.738281
vt 0.691406 0.320312
vt 0.121094 0.859375
vt 0.679688 0.332031
vt 0.500000 0.738281
vt 0.121094 0.507812
vt 0.691406 0.343750
vt 0.250000 0.835938
vt 0.121094 0.507812
vt 0.679688 0.332031
vt 0.601562 0.835938
vt 0.121094 0.859375
vt 0.691406 0.332031
vt 0.250000 0.824219
vt 0.132812 0.507812
vt 0.679688 0.320312
vt 0.601562 0.824219
vt 0.132812 0.859375
vt 0.316406 0.875000
vt 0.097656 0.316406
vt 0.324219 0.691406
vt 0.679688 0.320312
vt 0.546875 0.875000
vt 0.324219 0.460938
vt 0.316406 0.863281
vt 0.097656 0.304688
vt 0.335938 0.691406
vt 0.679688 0.308594
vt 0.546875 0.863281
vt 0.335938 0.460938
vt 0.691406 0.320312
vt 0.316406 0.863281
vt 0.335938 0.460938
vt 0.085938 0.316406
vt 0.546875 0.863281
vt 0.335938 0.691406
vt 0.691406 0.308594
vt 0.316406 0.851562
vt 0.347656 0.460938
vt 0.085938 0.304688
vt 0.546875 0.851562
vt 0.347656 0.691406
vt 0.554688 0.402344
vt 0.324219 0.496094
vt 0.320312 0.523438
vt 0.046875 0.500000
vt 0.582031 0.402344
vt 0.320312 0.496094
vt 0.554688 0.378906
vt 0.324219 0.472656
vt 0.203125 0.519531
vt 0.046875 0.476562
vt 0.582031 0.378906
vt 0.203125 0.492188
vt 0.050781 0.500000
vt 0.582031 0.398438
vt 0.324219 0.496094
vt 0.320312 0.496094
vt 0.609375 0.398438
vt 0.324219 0.523438
vt 0.050781 0.476562
vt 0.582031 0.375000
vt 0.207031 0.492188
vt 0.320312 0.472656
vt 0.609375 0.375000
vt 0.207031 0.519531
vt 0.523438 0.839844
vt 0.261719 0.535156
vt 0.105469 0.605469
vt 0.433594 0.753906
vt 0.535156 0.839844
vt 0.105469 0.593750
vt 0.523438 0.835938
vt 0.261719 0.531250
vt 0.304688 0.546875
vt 0.433594 0.750000
vt 0.535156 0.835938
vt 0.304688 0.535156
vt 0.437500 0.753906
vt 0.523438 0.710938
vt 0.109375 0.593750
vt 0.257812 0.535156
vt 0.535156 0.710938
vt 0.109375 0.605469
vt 0.437500 0.750000
vt 0.523438 0.707031
vt 0.308594 0.535156
vt 0.257812 0.531250
vt 0.535156 0.707031
vt 0.308594 0.546875
vt 0.316406 0.851562
vt 0.191406 0.316406
vt 0.347656 0.679688
vt 0.683594 0.882812
vt 0.546875 0.851562
vt 0.347656 0.449219
vt 0.316406 0.839844
vt 0.191406 0.304688
vt 0.050781 0.648438
vt 0.683594 0.871094
vt 0.546875 0.839844
vt 0.050781 0.417969
vt 0.695312 0.882812
vt 0.347656 0.691406
vt 0.359375 0.449219
vt 0.179688 0.316406
vt 0.578125 0.691406
vt 0.359375 0.679688
vt 0.695312 0.871094
vt 0.347656 0.679688
vt 0.062500 0.417969
vt 0.179688 0.304688
vt 0.578125 0.679688
vt 0.062500 0.648438
vt 0.250000 0.824219
vt 0.242188 0.316406
vt 0.148438 0.738281
vt 0.218750 0.316406
vt 0.601562 0.824219
vt 0.148438 0.386719
vt 0.250000 0.812500
vt 0.242188 0.304688
vt 0.160156 0.738281
vt 0.218750 0.304688
vt 0.601562 0.812500
vt 0.160156 0.386719
vt 0.230469 0.316406
vt 0.250000 0.812500
vt 0.160156 0.386719
vt 0.230469 0.316406
vt 0.601562 0.812500
vt 0.160156 0.738281
vt 0.230469 0.304688
vt 0.250000 0.800781
vt 0.171875 0.386719
vt 0.230469 0.304688
vt 0.601562 0.800781
vt 0.171875 0.738281
vt 0.605469 0.496094
vt 0.664062 0.460938
vt 0.417969 0.968750
vt 0.535156 0.378906
vt 0.652344 0.496094
vt 0.417969 0.921875
vt 0.605469 0.484375
vt 0.664062 0.449219
vt 0.261719 0.578125
vt 0.535156 0.367188
vt 0.652344 0.484375
vt 0.261719 0.531250
vt 0.578125 0.378906
vt 0.613281 0.679688
vt 0.460938 0.921875
vt 0.621094 0.460938
vt 0.660156 0.679688
vt 0.460938 0.968750
vt 0.578125 0.367188
vt 0.613281 0.667969
vt 0.304688 0.531250
vt 0.621094 0.449219
vt 0.660156 0.667969
vt 0.304688 0.578125
vt 0.375000 0.886719
vt 0.695312 0.757812
vt 0.308594 0.625000
vt 0.242188 0.316406
vt 0.519531 0.886719
vt 0.308594 0.480469
vt 0.375000 0.875000
vt 0.695312 0.746094
vt 0.207031 0.605469
vt 0.242188 0.304688
vt 0.519531 0.875000
vt 0.207031 0.460938
vt 0.253906 0.316406
vt 0.417969 0.921875
vt 0.320312 0.480469
vt 0.683594 0.757812
vt 0.562500 0.921875
vt 0.320312 0.625000
vt 0.253906 0.304688
vt 0.417969 0.910156
vt 0.218750 0.460938
vt 0.683594 0.746094
vt 0.562500 0.910156
vt 0.218750 0.605469
vt 0.429688 0.707031
vt 0.304688 0.316406
vt 0.085938 0.589844
vt 0.683594 0.746094
vt 0.574219 0.707031
vt 0.085938 0.445312
vt 0.429688 0.695312
vt 0.304688 0.304688
vt 0.097656 0.589844
vt 0.683594 0.734375
vt 0.574219 0.695312
vt 0.097656 0.445312
vt 0.695312 0.746094
vt 0.437500 0.800781
vt 0.097656 0.445312
vt 0.292969 0.316406
vt 0.582031 0.800781
vt 0.097656 0.589844
vt 0.695312 0.734375
vt 0.437500 0.789062
vt 0.109375 0.445312
vt 0.292969 0.304688
vt 0.582031 0.789062
vt 0.109375 0.589844
vt 0.574219 0.988281
vt 0.679688 0.375000
vt 0.257812 0.496094
vt 0.226562 0.343750
vt 0.632812 0.988281
vt 0.257812 0.437500
vt 0.574219 0.972656
vt 0.679688 0.359375
vt 0.300781 0.480469
vt 0.226562 0.328125
vt 0.632812 0.972656
vt 0.300781 0.421875
vt 0.246094 0.343750
vt 0.574219 0.707031
vt 0.277344 0.437500
vt 0.660156 0.375000
vt 0.632812 0.707031
vt 0.277344 0.496094
vt 0.246094 0.328125
vt 0.574219 0.691406
vt 0.320312 0.421875
vt 0.660156 0.359375
vt 0.632812 0.691406
vt 0.320312 0.480469
vt 0.574219 0.542969
vt 0.679688 0.343750
vt 0.277344 0.464844
vt 0.660156 0.359375
vt 0.632812 0.542969
vt 0.277344 0.406250
vt 0.574219 0.527344
vt 0.679688 0.328125
vt 0.320312 0.460938
vt 0.660156 0.343750
vt 0.632812 0.527344
vt 0.320312 0.402344
vt 0.679688 0.359375
vt 0.578125 0.757812
vt 0.296875 0.406250
vt 0.660156 0.343750
vt 0.636719 0.757812
vt 0.296875 0.464844
vt 0.679688 0.343750
vt 0.578125 0.742188
vt 0.339844 0.402344
vt 0.660156 0.328125
vt 0.636719 0.742188
vt 0.339844 0.460938
vt 0.359375 0.574219
vt 0.468750 0.695312
vt 0.496094 0.789062
vt 0.406250 0.839844
vt 0.398438 0.574219
vt 0.496094 0.750000
vt 0.359375 0.570312
vt 0.468750 0.691406
vt 0.496094 0.613281
vt 0.406250 0.835938
vt 0.398438 0.570312
vt 0.496094 0.574219
vt 0.445312 0.839844
vt 0.535156 0.750000
vt 0.429688 0.695312
vt 0.484375 0.839844
vt 0.535156 0.789062
vt 0.445312 0.835938
vt 0.535156 0.574219
vt 0.429688 0.691406
vt 0.484375 0.835938
vt 0.535156 0.613281
vt 0.542969 0.574219
vt 0.691406 0.691406
vt 0.015625 0.859375
vt 0.644531 0.734375
vt 0.675781 0.574219
vt 0.015625 0.726562
vt 0.542969 0.566406
vt 0.691406 0.683594
vt 0.062500 0.859375
vt 0.644531 0.726562
vt 0.675781 0.566406
vt 0.062500 0.726562
vt 0.691406 0.734375
vt 0.542969 0.566406
vt 0.062500 0.726562
vt 0.644531 0.691406
vt 0.675781 0.566406
vt 0.062500 0.859375
vt 0.691406 0.726562
vt 0.542969 0.558594
vt 0.109375 0.726562
vt 0.644531 0.683594
vt 0.675781 0.558594
vt 0.109375 0.859375
vt 0.621094 0.449219
vt 0.671875 0.558594
vt 0.589844 0.679688
vt 0.648438 0.835938
vt 0.652344 0.449219
vt 0.589844 0.648438
vt 0.621094 0.433594
vt 0.671875 0.542969
vt 0.589844 0.429688
vt 0.648438 0.820312
vt 0.652344 0.433594
vt 0.589844 0.398438
vt 0.671875 0.835938
vt 0.015625 0.375000
vt 0.613281 0.648438
vt 0.648438 0.558594
vt 0.046875 0.375000
vt 0.613281 0.679688
vt 0.671875 0.820312
vt 0.015625 0.359375
vt 0.613281 0.398438
vt 0.648438 0.542969
vt 0.046875 0.359375
vt 0.613281 0.429688
vt 0.660156 0.585938
vt 0.695312 0.414062
vt 0.339844 0.378906
vt 0.585938 0.320312
vt 0.687500 0.585938
vt 0.339844 0.351562
vt 0.660156 0.574219
vt 0.695312 0.402344
vt 0.000000 0.371094
vt 0.585938 0.308594
vt 0.687500 0.574219
vt 0.000000 0.343750
vt 0.601562 0.320312
vt 0.660156 0.433594
vt 0.355469 0.351562
vt 0.679688 0.414062
vt 0.687500 0.433594
vt 0.355469 0.378906
vt 0.601562 0.308594
vt 0.660156 0.421875
vt 0.015625 0.343750
vt 0.679688 0.402344
vt 0.687500 0.421875
vt 0.015625 0.371094
vt 0.250000 0.753906
vt 0.539062 0.695312
vt 0.242188 0.902344
vt 0.195312 0.480469
vt 0.296875 0.753906
vt 0.242188 0.855469
vt 0.250000 0.750000
vt 0.539062 0.691406
vt 0.367188 0.968750
vt 0.195312 0.476562
vt 0.296875 0.750000
vt 0.367188 0.921875
vt 0.203125 0.480469
vt 0.296875 0.753906
vt 0.250000 0.855469
vt 0.531250 0.695312
vt 0.343750 0.753906
vt 0.250000 0.902344
vt 0.203125 0.476562
vt 0.296875 0.750000
vt 0.375000 0.921875
vt 0.531250 0.691406
vt 0.343750 0.750000
vt 0.375000 0.968750
vt 0.316406 0.839844
vt 0.210938 0.460938
vt 0.300781 0.531250
vt 0.535156 0.839844
vt 0.363281 0.839844
vt 0.300781 0.484375
vt 0.316406 0.835938
vt 0.210938 0.457031
vt 0.507812 0.453125
vt 0.535156 0.835938
vt 0.363281 0.835938
vt 0.507812 0.406250
vt 0.542969 0.839844
vt 0.343750 0.753906
vt 0.308594 0.484375
vt 0.203125 0.460938
vt 0.390625 0.753906
vt 0.308594 0.531250
vt 0.542969 0.835938
vt 0.343750 0.750000
vt 0.515625 0.406250
vt 0.203125 0.457031
vt 0.390625 0.750000
vt 0.515625 0.453125
vt 0.250000 0.800781
vt 0.511719 0.515625
vt 0.000000 1.000000
vt 0.460938 0.910156
vt 0.390625 0.800781
vt 0.000000 0.859375
vt 0.250000 0.777344
vt 0.511719 0.492188
vt 0.066406 1.000000
vt 0.460938 0.886719
vt 0.390625 0.777344
vt 0.066406 0.859375
vt 0.527344 0.910156
vt 0.250000 0.777344
vt 0.066406 0.859375
vt 0.445312 0.515625
vt 0.390625 0.777344
vt 0.066406 1.000000
vt 0.527344 0.886719
vt 0.250000 0.753906
vt 0.132812 0.859375
vt 0.445312 0.492188
vt 0.390625 0.753906
vt 0.132812 1.000000
s 1
usemtl m777_tex_1.png.001
f 44/130/17 47/139/17 45/133/17 42/124/17
f 43/127/18 44/131/18 42/125/18 41/121/18
f 48/142/19 43/128/19 41/122/19 46/136/19
f 47/140/20 48/143/20 46/137/20 45/134/20
f 46/138/21 41/123/21 42/126/21 45/135/21
f 47/141/22 44/132/22 43/129/22 48/144/22
f 52/154/17 55/163/17 53/157/17 50/148/17
f 51/151/18 52/155/18 50/149/18 49/145/18
f 56/166/19 51/152/19 49/146/19 54/160/19
f 55/164/20 56/167/20 54/161/20 53/158/20
f 54/162/21 49/147/21 50/150/21 53/159/21
f 55/165/22 52/156/22 51/153/22 56/168/22
f 60/178/17 63/187/17 61/181/17 58/172/17
f 59/175/23 60/179/23 58/173/23 57/169/23
f 64/190/19 59/176/19 57/170/19 62/184/19
f 63/188/24 64/191/24 62/185/24 61/182/24
f 62/186/25 57/171/25 58/174/25 61/183/25
f 63/189/26 60/180/26 59/177/26 64/192/26
f 68/202/17 71/211/17 69/205/17 66/196/17
f 67/199/23 68/203/23 66/197/23 65/193/23
f 72/214/19 67/200/19 65/194/19 70/208/19
f 71/212/24 72/215/24 70/209/24 69/206/24
f 70/210/25 65/195/25 66/198/25 69/207/25
f 71/213/26 68/204/26 67/201/26 72/216/26
f 76/226/17 79/235/17 77/229/17 74/220/17
f 75/223/18 76/227/18 74/221/18 73/217/18
f 80/238/19 75/224/19 73/218/19 78/232/19
f 79/236/20 80/239/20 78/233/20 77/230/20
f 78/234/21 73/219/21 74/222/21 77/231/21
f 79/237/22 76/228/22 75/225/22 80/240/22
f 84/250/17 87/259/17 85/253/17 82/244/17
f 83/247/18 84/251/18 82/245/18 81/241/18
f 88/262/19 83/248/19 81/242/19 86/256/19
f 87/260/20 88/263/20 86/257/20 85/254/20
f 86/258/21 81/243/21 82/246/21 85/255/21
f 87/261/22 84/252/22 83/249/22 88/264/22
f 92/274/17 95/283/17 93/277/17 90/268/17
f 91/271/18 92/275/18 90/269/18 89/265/18
f 96/286/19 91/272/19 89/266/19 94/280/19
f 95/284/20 96/287/20 94/281/20 93/278/20
f 94/282/21 89/267/21 90/270/21 93/279/21
f 95/285/22 92/276/22 91/273/22 96/288/22
f 100/298/17 103/307/17 101/301/17 98/292/17
f 99/295/18 100/299/18 98/293/18 97/289/18
f 104/310/19 99/296/19 97/290/19 102/304/19
f 103/308/20 104/311/20 102/305/20 101/302/20
f 102/306/21 97/291/21 98/294/21 101/303/21
f 103/309/22 100/300/22 99/297/22 104/312/22
f 108/322/17 111/331/17 109/325/17 106/316/17
f 107/319/18 108/323/18 106/317/18 105/313/18
f 112/334/19 107/320/19 105/314/19 110/328/19
f 111/332/20 112/335/20 110/329/20 109/326/20
f 110/330/21 105/315/21 106/318/21 109/327/21
f 111/333/22 108/324/22 107/321/22 112/336/22
f 116/346/17 119/355/17 117/349/17 114/340/17
f 115/343/18 116/347/18 114/341/18 113/337/18
f 120/358/19 115/344/19 113/338/19 118/352/19
f 119/356/20 120/359/20 118/353/20 117/350/20
f 118/354/21 113/339/21 114/342/21 117/351/21
f 119/357/22 116/348/22 115/345/22 120/360/22
f 124/370/17 127/379/17 125/373/17 122/364/17
f 123/367/18 124/371/18 122/365/18 121/361/18
f 128/382/19 123/368/19 121/362/19 126/376/19
f 127/380/20 128/383/20 126/377/20 125/374/20
f 126/378/21 121/363/21 122/366/21 125/375/21
f 127/381/22 124/372/22 123/369/22 128/384/22
f 132/394/17 135/403/17 133/397/17 130/388/17
f 131/391/18 132/395/18 130/389/18 129/385/18
f 136/406/19 131/392/19 129/386/19 134/400/19
f 135/404/20 136/407/20 134/401/20 133/398/20
f 134/402/21 129/387/21 130/390/21 133/399/21
f 135/405/22 132/396/22 131/393/22 136/408/22
f 140/418/17 143/427/17 141/421/17 138/412/17
f 139/415/26 140/419/26 138/413/26 137/409/26
f 144/430/19 139/416/19 137/410/19 142/424/19
f 143/428/25 144/431/25 142/425/25 141/422/25
f 142/426/23 137/411/23 138/414/23 141/423/23
f 143/429/24 140/420/24 139/417/24 144/432/24
f 148/442/17 151/451/17 149/445/17 146/436/17
f 147/439/26 148/443/26 146/437/26 145/433/26
f 152/454/19 147/440/19 145/434/19 150/448/19
f 151/452/25 152/455/25 150/449/25 149/446/25
f 150/450/23 145/435/23 146/438/23 149/447/23
f 151/453/24 148/444/24 147/441/24 152/456/24
f 156/466/17 159/475/17 157/469/17 154/460/17
f 155/463/18 156/467/18 154/461/18 153/457/18
f 160/478/19 155/464/19 153/458/19 158/472/19
f 159/476/20 160/479/20 158/473/20 157/470/20
f 158/474/21 153/459/21 154/462/21 157/471/21
f 159/477/22 156/468/22 155/465/22 160/480/22
f 164/490/17 167/499/17 165/493/17 162/484/17
f 163/487/18 164/491/18 162/485/18 161/481/18
f 168/502/19 163/488/19 161/482/19 166/496/19
f 167/500/20 168/503/20 166/497/20 165/494/20
f 166/498/21 161/483/21 162/486/21 165/495/21
f 167/501/22 164/492/22 163/489/22 168/504/22
f 172/514/17 175/523/17 173/517/17 170/508/17
f 171/511/18 172/515/18 170/509/18 169/505/18
f 176/526/19 171/512/19 169/506/19 174/520/19
f 175/524/20 176/527/20 174/521/20 173/518/20
f 174/522/21 169/507/21 170/510/21 173/519/21
f 175/525/22 172/516/22 171/513/22 176/528/22
f 180/538/17 183/547/17 181/541/17 178/532/17
f 179/535/18 180/539/18 178/533/18 177/529/18
f 184/550/19 179/536/19 177/530/19 182/544/19
f 183/548/20 184/551/20 182/545/20 181/542/20
f 182/546/21 177/531/21 178/534/21 181/543/21
f 183/549/22 180/540/22 179/537/22 184/552/22
f 188/562/17 191/571/17 189/565/17 186/556/17
f 187/559/18 188/563/18 186/557/18 185/553/18
f 192/574/19 187/560/19 185/554/19 190/568/19
f 191/572/20 192/575/20 190/569/20 189/566/20
f 190/570/21 185/555/21 186/558/21 189/567/21
f 191/573/22 188/564/22 187/561/22 192/576/22
f 196/586/17 199/595/17 197/589/17 194/580/17
f 195/583/18 196/587/18 194/581/18 193/577/18
f 200/598/19 195/584/19 193/578/19 198/592/19
f 199/596/20 200/599/20 198/593/20 197/590/20
f 198/594/21 193/579/21 194/582/21 197/591/21
f 199/597/22 196/588/22 195/585/22 200/600/22
f 204/610/17 207/619/17 205/613/17 202/604/17
f 203/607/26 204/611/26 202/605/26 201/601/26
f 208/622/19 203/608/19 201/602/19 206/616/19
f 207/620/25 208/623/25 206/617/25 205/614/25
f 206/618/23 201/603/23 202/606/23 205/615/23
f 207/621/24 204/612/24 203/609/24 208/624/24
f 212/634/17 215/643/17 213/637/17 210/628/17
f 211/631/26 212/635/26 210/629/26 209/625/26
f 216/646/19 211/632/19 209/626/19 214/640/19
f 215/644/25 216/647/25 214/641/25 213/638/25
f 214/642/23 209/627/23 210/630/23 213/639/23
f 215/645/24 212/636/24 211/633/24 216/648/24
f 220/658/27 223/667/27 221/661/27 218/652/27
f 219/655/28 220/659/28 218/653/28 217/649/28
f 224/670/29 219/656/29 217/650/29 222/664/29
f 223/668/30 224/671/30 222/665/30 221/662/30
f 222/666/21 217/651/21 218/654/21 221/663/21
f 223/669/22 220/660/22 219/657/22 224/672/22
f 228/682/28 231/691/28 229/685/28 226/676/28
f 227/679/29 228/683/29 226/677/29 225/673/29
f 232/694/30 227/680/30 225/674/30 230/688/30
f 231/692/31 232/695/31 230/689/31 229/686/31
f 230/690/21 225/675/21 226/678/21 229/687/21
f 231/693/22 228/684/22 227/681/22 232/696/22
f 236/706/17 239/715/17 237/709/17 234/700/17
f 235/703/23 236/707/23 234/701/23 233/697/23
f 240/718/19 235/704/19 233/698/19 238/712/19
f 239/716/24 240/719/24 238/713/24 237/710/24
f 238/714/25 233/699/25 234/702/25 237/711/25
f 239/717/26 236/708/26 235/705/26 240/720/26
f 244/730/17 247/739/17 245/733/17 242/724/17
f 243/727/23 244/731/23 242/725/23 241/721/23
f 248/742/19 243/728/19 241/722/19 246/736/19
f 247/740/24 248/743/24 246/737/24 245/734/24
f 246/738/25 241/723/25 242/726/25 245/735/25
f 247/741/26 244/732/26 243/729/26 248/744/26
f 252/754/17 255/763/17 253/757/17 250/748/17
f 251/751/18 252/755/18 250/749/18 249/745/18
f 256/766/19 251/752/19 249/746/19 254/760/19
f 255/764/20 256/767/20 254/761/20 253/758/20
f 254/762/21 249/747/21 250/750/21 253/759/21
f 255/765/22 252/756/22 251/753/22 256/768/22
f 260/778/17 263/787/17 261/781/17 258/772/17
f 259/775/23 260/779/23 258/773/23 257/769/23
f 264/790/19 259/776/19 257/770/19 262/784/19
f 263/788/24 264/791/24 262/785/24 261/782/24
f 262/786/25 257/771/25 258/774/25 261/783/25
f 263/789/26 260/780/26 259/777/26 264/792/26
f 268/802/17 271/811/17 269/805/17 266/796/17
f 267/799/26 268/803/26 266/797/26 265/793/26
f 272/814/19 267/800/19 265/794/19 270/808/19
f 271/812/25 272/815/25 270/809/25 269/806/25
f 270/810/23 265/795/23 266/798/23 269/807/23
f 271/813/24 268/804/24 267/801/24 272/816/24
f 276/826/17 279/835/17 277/829/17 274/820/17
f 275/823/18 276/827/18 274/821/18 273/817/18
f 280/838/19 275/824/19 273/818/19 278/832/19
f 279/836/20 280/839/20 278/833/20 277/830/20
f 278/834/21 273/819/21 274/822/21 277/831/21
f 279/837/22 276/828/22 275/825/22 280/840/22
f 284/850/17 287/859/17 285/853/17 282/844/17
f 283/847/18 284/851/18 282/845/18 281/841/18
f 288/862/19 283/848/19 281/842/19 286/856/19
f 287/860/20 288/863/20 286/857/20 285/854/20
f 286/858/21 281/843/21 282/846/21 285/855/21
f 287/861/22 284/852/22 283/849/22 288/864/22
f 292/874/17 295/882/17 293/877/17 290/868/17
f 291/871/18 292/875/18 290/869/18 289/865/18
f 296/884/19 291/872/19 289/866/19 294/879/19
f 295/882/20 296/885/20 294/880/20 293/877/20
f 294/881/21 289/867/21 290/870/21 293/878/21
f 295/883/22 292/876/22 291/873/22 296/886/22
f 300/896/17 303/905/17 301/899/17 298/890/17
f 299/893/18 300/897/18 298/891/18 297/887/18
f 304/908/19 299/894/19 297/888/19 302/902/19
f 303/906/20 304/909/20 302/903/20 301/900/20
f 302/904/21 297/889/21 298/892/21 301/901/21
f 303/907/22 300/898/22 299/895/22 304/910/22
f 308/920/17 311/929/17 309/923/17 306/914/17
f 307/917/18 308/921/18 306/915/18 305/911/18
f 312/932/19 307/918/19 305/912/19 310/926/19
f 311/930/20 312/933/20 310/927/20 309/924/20
f 310/928/21 305/913/21 306/916/21 309/925/21
f 311/931/22 308/922/22 307/919/22 312/934/22
f 316/944/17 319/953/17 317/947/17 314/938/17
f 315/941/18 316/945/18 314/939/18 313/935/18
f 320/956/19 315/942/19 313/936/19 318/950/19
f 319/954/20 320/957/20 318/951/20 317/948/20
f 318/952/21 313/937/21 314/940/21 317/949/21
f 319/955/22 316/946/22 315/943/22 320/958/22
f 324/968/32 327/977/32 325/971/32 322/962/32
f 323/965/18 324/969/18 322/963/18 321/959/18
f 328/980/33 323/966/33 321/960/33 326/974/33
f 327/978/20 328/981/20 326/975/20 325/972/20
f 326/976/34 321/961/34 322/964/34 325/973/34
f 327/979/35 324/970/35 323/967/35 328/982/35
f 332/992/36 335/1001/36 333/995/36 330/986/36
f 331/989/37 332/993/37 330/987/37 329/983/37
f 336/1004/38 331/990/38 329/984/38 334/998/38
f 335/1002/39 336/1005/39 334/999/39 333/996/39
f 334/1000/21 329/985/21 330/988/21 333/997/21
f 335/1003/22 332/994/22 331/991/22 336/1006/22
f 340/1016/17 343/1025/17 341/1019/17 338/1010/17
f 339/1013/18 340/1017/18 338/1011/18 337/1007/18
f 344/1028/19 339/1014/19 337/1008/19 342/1022/19
f 343/1026/20 344/1029/20 342/1023/20 341/1020/20
f 342/1024/21 337/1009/21 338/1012/21 341/1021/21
f 343/1027/22 340/1018/22 339/1015/22 344/1030/22
