# Blender 3.3.21
# www.blender.org
mtllib m777.mtl
o body
v -1.401384 0.699715 -1.473980
v -1.206190 0.425998 -0.980638
v -1.456996 0.476116 -1.576035
v -1.261800 0.202400 -1.082693
v -0.878140 0.408166 -1.120328
v -1.073334 0.681883 -1.613669
v -0.933750 0.184567 -1.222382
v -1.128944 0.458284 -1.715722
v -1.698667 0.634264 -2.159935
v -1.402922 0.701809 -1.474025
v -1.701327 0.380620 -2.133807
v -1.405585 0.448165 -1.447900
v -1.072115 0.683827 -1.614890
v -1.367858 0.616282 -2.300796
v -1.074777 0.430183 -1.588762
v -1.370521 0.362638 -2.274671
v -2.022815 0.976617 -2.202015
v -1.969631 1.050410 -2.086536
v -1.952554 0.590664 -1.987744
v -1.899369 0.664457 -1.872264
v -1.090235 1.002607 -2.460999
v -1.143418 0.928814 -2.576475
v -1.019973 0.616655 -2.246726
v -1.073157 0.542862 -2.362203
v -2.155345 0.184668 -2.408326
v -1.940687 0.759940 -1.977650
v -2.114630 0.088718 -2.300457
v -1.899969 0.663990 -1.869780
v -1.058534 0.711988 -2.353285
v -1.273193 0.136716 -2.783961
v -1.017817 0.616038 -2.245416
v -1.232478 0.040766 -2.676093
v -1.260129 0.457427 -1.086801
v -0.735130 0.457427 -0.177478
v -1.260129 0.202427 -1.086801
v -0.735130 0.202427 -0.177478
v -0.423363 0.457427 -0.357478
v -0.948360 0.457427 -1.266801
v -0.423363 0.202427 -0.357478
v -0.948360 0.202427 -1.266801
v 1.225850 0.681883 -1.613669
v 1.030656 0.408166 -1.120328
v 1.281462 0.458284 -1.715724
v 1.086268 0.184567 -1.222381
v 1.358707 0.425998 -0.980639
v 1.553901 0.699715 -1.473979
v 1.414317 0.202400 -1.082693
v 1.609511 0.476116 -1.576034
v 1.520375 0.616282 -2.300797
v 1.224631 0.683827 -1.614887
v 1.523038 0.362638 -2.274670
v 1.227294 0.430183 -1.588762
v 1.555440 0.701809 -1.474024
v 1.851182 0.634264 -2.159934
v 1.558101 0.448165 -1.447899
v 1.853844 0.380620 -2.133808
v 1.295936 0.928814 -2.576474
v 1.242753 1.002607 -2.460999
v 1.225674 0.542862 -2.362203
v 1.172490 0.616655 -2.246725
v 2.122148 1.050410 -2.086538
v 2.175332 0.976617 -2.202015
v 2.051887 0.664457 -1.872264
v 2.105069 0.590664 -1.987741
v 1.425710 0.136716 -2.783961
v 1.211051 0.711988 -2.353286
v 1.384993 0.040766 -2.676091
v 1.170335 0.616038 -2.245417
v 2.093202 0.759940 -1.977650
v 2.307863 0.184668 -2.408326
v 2.052486 0.663990 -1.869780
v 2.267146 0.088718 -2.300456
v 1.100877 0.457427 -1.266801
v 0.575879 0.457427 -0.357478
v 1.100877 0.202427 -1.266801
v 0.575879 0.202427 -0.357478
v 0.887647 0.457427 -0.177476
v 1.412645 0.457427 -1.086800
v 0.887647 0.202427 -0.177477
v 1.412645 0.202427 -1.086800
v -1.335160 0.125678 1.802318
v -1.335160 0.325732 1.802318
v -1.335160 0.125678 2.138925
v -1.335160 0.325732 2.138925
v -1.019553 0.325732 1.802317
v -1.019553 0.125678 1.802317
v -1.019552 0.325732 2.138925
v -1.019552 0.125678 2.138925
v -1.323554 0.866843 2.303840
v -1.323554 0.136016 2.303840
v -1.323554 0.866843 1.573017
v -1.323554 0.136016 1.573017
v -1.080173 0.136016 2.303840
v -1.080173 0.866843 2.303840
v -1.080173 0.136016 1.573017
v -1.080173 0.866843 1.573017
v -1.334518 0.363431 1.565847
v -1.334518 0.503983 1.706400
v -1.334518 0.126320 1.802959
v -1.334519 0.266872 1.943509
v -1.020194 0.503983 1.706399
v -1.020193 0.363431 1.565847
v -1.020194 0.266872 1.943509
v -1.020194 0.126320 1.802958
v -1.334518 0.935868 1.802960
v -1.334518 0.795316 1.943511
v -1.334518 0.698757 1.565849
v -1.334518 0.558204 1.706400
v -1.020194 0.795316 1.943511
v -1.020193 0.935868 1.802960
v -1.020193 0.558204 1.706400
v -1.020194 0.698757 1.565849
v -1.334518 0.698756 2.375395
v -1.334518 0.558204 2.234842
v -1.334518 0.935868 2.138284
v -1.334518 0.795315 1.997732
v -1.020194 0.558204 2.234843
v -1.020194 0.698756 2.375394
v -1.020194 0.795315 1.997732
v -1.020193 0.935868 2.138284
v -1.334518 0.126319 2.138284
v -1.334518 0.266871 1.997732
v -1.334519 0.363430 2.375394
v -1.334518 0.503983 2.234843
v -1.020194 0.266871 1.997731
v -1.020193 0.126319 2.138284
v -1.020194 0.503983 2.234843
v -1.020194 0.363430 2.375394
v -1.335160 0.936509 2.138925
v -1.335160 0.736455 2.138925
v -1.335160 0.936509 1.802318
v -1.335160 0.736455 1.802318
v -1.019552 0.736455 2.138925
v -1.019552 0.936509 2.138925
v -1.019553 0.736455 1.802317
v -1.019553 0.936509 1.802317
v -1.333878 0.364072 2.374752
v -1.333878 0.364072 2.177265
v -1.333878 0.698115 2.374752
v -1.333878 0.698115 2.177265
v -1.020836 0.364072 2.177264
v -1.020836 0.364072 2.374751
v -1.020836 0.698115 2.177264
v -1.020836 0.698115 2.374751
v -1.333877 0.698114 1.566491
v -1.333878 0.698114 1.763977
v -1.333877 0.364072 1.566491
v -1.333878 0.364072 1.763977
v -1.020836 0.698114 1.763977
v -1.020835 0.698114 1.566490
v -1.020836 0.364072 1.763977
v -1.020835 0.364072 1.566490
v -0.765498 0.577426 0.247677
v -1.648131 0.577426 0.865702
v -0.765498 0.157426 0.247677
v -1.648131 0.157426 0.865701
v -1.501870 0.577426 1.074585
v -0.619237 0.577426 0.456559
v -1.501870 0.157426 1.074585
v -0.619237 0.157426 0.456558
v -1.651442 0.280328 0.869017
v -2.288109 0.280327 1.778272
v -1.651442 0.160328 0.869017
v -2.288109 0.160327 1.778272
v -2.079227 0.280327 1.924533
v -1.442558 0.280328 1.015278
v -2.079227 0.160327 1.924533
v -1.442558 0.160328 1.015278
v -1.648131 0.577426 0.865702
v -2.286374 0.279266 1.777208
v -1.599588 0.261568 0.796374
v -2.237831 -0.036591 1.707880
v -2.079949 0.279266 1.921747
v -1.441706 0.577426 1.010243
v -2.031406 -0.036591 1.852419
v -1.393162 0.261568 0.940915
v -2.058850 0.205327 1.635630
v -2.644626 0.205327 1.765492
v -2.058850 0.085327 1.635630
v -2.644626 0.085327 1.765492
v -2.514762 0.205327 2.351268
v -1.928987 0.205327 2.221404
v -2.514762 0.085327 2.351268
v -1.928987 0.085327 2.221404
v -1.089600 0.493631 0.677828
v -1.089600 0.612708 2.038874
v -1.089600 0.300619 0.694715
v -1.089601 0.419695 2.055760
v -0.985851 0.612708 2.038874
v -0.985851 0.493631 0.677828
v -0.985851 0.419695 2.055760
v -0.985851 0.300619 0.694714
v -1.244141 0.490445 0.651445
v -1.088379 0.567436 1.531452
v -1.244141 0.299176 0.668180
v -1.088379 0.376166 1.548186
v -0.941151 0.565173 1.505591
v -1.096912 0.488182 0.625584
v -0.941152 0.373904 1.522324
v -1.096912 0.296913 0.642318
v 1.172069 0.125678 1.802318
v 1.172069 0.325732 1.802318
v 1.172070 0.125678 2.138925
v 1.172070 0.325732 2.138925
v 1.487677 0.325732 1.802318
v 1.487677 0.125678 1.802318
v 1.487677 0.325732 2.138925
v 1.487677 0.125678 2.138925
v 1.232690 0.866843 2.303840
v 1.232690 0.136016 2.303840
v 1.232689 0.866843 1.573017
v 1.232689 0.136016 1.573017
v 1.476071 0.136016 2.303840
v 1.476071 0.866843 2.303840
v 1.476070 0.136016 1.573017
v 1.476070 0.866843 1.573017
v 1.172711 0.363431 1.565847
v 1.172711 0.503983 1.706399
v 1.172711 0.126320 1.802958
v 1.172711 0.266872 1.943509
v 1.487035 0.503983 1.706399
v 1.487036 0.363431 1.565847
v 1.487036 0.266872 1.943510
v 1.487036 0.126320 1.802958
v 1.172711 0.935868 1.802960
v 1.172711 0.795316 1.943511
v 1.172711 0.698757 1.565849
v 1.172711 0.558204 1.706400
v 1.487036 0.795316 1.943511
v 1.487036 0.935868 1.802960
v 1.487035 0.558204 1.706401
v 1.487036 0.698757 1.565848
v 1.172711 0.698756 2.375394
v 1.172711 0.558204 2.234843
v 1.172711 0.935868 2.138284
v 1.172711 0.795315 1.997732
v 1.487036 0.558204 2.234843
v 1.487036 0.698756 2.375395
v 1.487036 0.795315 1.997731
v 1.487036 0.935868 2.138284
v 1.172711 0.126319 2.138284
v 1.172711 0.266871 1.997732
v 1.172711 0.363430 2.375394
v 1.172711 0.503983 2.234843
v 1.487036 0.266871 1.997731
v 1.487036 0.126319 2.138284
v 1.487036 0.503983 2.234843
v 1.487036 0.363430 2.375394
v 1.172070 0.936509 2.138925
v 1.172070 0.736455 2.138925
v 1.172069 0.936509 1.802318
v 1.172069 0.736455 1.802318
v 1.487677 0.736455 2.138925
v 1.487677 0.936509 2.138925
v 1.487677 0.736455 1.802318
v 1.487677 0.936509 1.802318
v 1.173353 0.364072 2.374752
v 1.173352 0.364072 2.177265
v 1.173353 0.698115 2.374752
v 1.173352 0.698115 2.177265
v 1.486393 0.364072 2.177265
v 1.486393 0.364072 2.374751
v 1.486393 0.698115 2.177265
v 1.486393 0.698115 2.374751
v 1.173352 0.698114 1.566491
v 1.173353 0.698114 1.763976
v 1.173352 0.364072 1.566491
v 1.173353 0.364072 1.763976
v 1.486393 0.698114 1.763977
v 1.486393 0.698114 1.566490
v 1.486393 0.364072 1.763977
v 1.486393 0.364072 1.566490
v 0.771753 0.577426 0.456559
v 1.654387 0.577426 1.074586
v 0.771753 0.157426 0.456558
v 1.654387 0.157426 1.074586
v 1.800648 0.577426 0.865702
v 0.918016 0.577426 0.247676
v 1.800648 0.157426 0.865701
v 0.918016 0.157426 0.247676
v 1.595076 0.280328 1.015277
v 2.231743 0.280327 1.924532
v 1.595076 0.160328 1.015277
v 2.231743 0.160327 1.924532
v 2.440626 0.280327 1.778271
v 1.803957 0.280328 0.869017
v 2.440626 0.160327 1.778271
v 1.803957 0.160328 0.869017
v 1.594223 0.577426 1.010243
v 2.232466 0.279266 1.921747
v 1.545679 0.261568 0.940915
v 2.183923 -0.036591 1.852419
v 2.438891 0.279266 1.777207
v 1.800648 0.577426 0.865702
v 2.390347 -0.036591 1.707879
v 1.752104 0.261568 0.796375
v 2.081503 0.205327 2.221404
v 2.667280 0.205327 2.351266
v 2.081503 0.085327 2.221404
v 2.667280 0.085327 2.351266
v 2.797142 0.205327 1.765492
v 2.211367 0.205327 1.635629
v 2.797142 0.085327 1.765492
v 2.211367 0.085327 1.635629
v 1.138367 0.493631 0.677829
v 1.138368 0.612708 2.038874
v 1.138368 0.300619 0.694715
v 1.138368 0.419695 2.055760
v 1.242117 0.612708 2.038874
v 1.242117 0.493631 0.677828
v 1.242117 0.419695 2.055760
v 1.242117 0.300619 0.694715
v 1.249430 0.488182 0.625584
v 1.093668 0.565173 1.505591
v 1.249429 0.296913 0.642318
v 1.093668 0.373904 1.522324
v 1.240896 0.567436 1.531453
v 1.396658 0.490445 0.651444
v 1.240896 0.376166 1.548186
v 1.396658 0.299176 0.668178
v 0.577745 0.502427 -0.597188
v 0.577745 0.502426 0.542807
v 0.577745 0.202427 -0.597188
v 0.577745 0.202426 0.542807
v 0.952743 0.502426 0.542807
v 0.952743 0.502427 -0.597187
v 0.952743 0.202426 0.542807
v 0.952743 0.202427 -0.597187
v -0.817250 0.502427 -0.597188
v -0.817250 0.502426 0.542807
v -0.817250 0.202427 -0.597188
v -0.817250 0.202426 0.542807
v -0.442251 0.502426 0.542807
v -0.442253 0.502427 -0.597187
v -0.442251 0.202426 0.542807
v -0.442253 0.202427 -0.597187
vn 0.3270 -0.4585 0.8264
vn -0.9189 0.0500 0.3913
vn -0.3270 0.4585 -0.8264
vn 0.9189 -0.0499 -0.3913
vn 0.2207 0.8873 0.4050
vn -0.2207 -0.8873 -0.4050
vn 0.3943 0.0901 0.9145
vn -0.9189 0.0499 0.3913
vn -0.3943 -0.0901 -0.9145
vn 0.9189 -0.0500 -0.3913
vn 0.0104 0.9947 -0.1025
vn -0.0104 -0.9947 0.1025
vn 0.3618 0.5020 0.7856
vn -0.3618 -0.5020 -0.7856
vn -0.1572 0.8634 -0.4794
vn 0.1572 -0.8634 0.4794
vn 0.2862 0.7670 0.5742
vn -0.2862 -0.7670 -0.5742
vn -0.2714 0.6397 -0.7191
vn 0.2714 -0.6397 0.7191
vn 0.5000 -0.0000 0.8660
vn -0.8660 -0.0000 0.5000
vn -0.5000 -0.0000 -0.8660
vn 0.8660 -0.0000 -0.5000
vn -0.0000 1.0000 -0.0000
vn -0.0000 -1.0000 -0.0000
vn -0.3270 -0.4585 0.8264
vn -0.9189 -0.0500 -0.3913
vn 0.3270 0.4585 -0.8264
vn 0.9189 0.0499 0.3913
vn -0.2207 0.8873 0.4050
vn 0.2207 -0.8873 -0.4050
vn -0.3943 0.0901 0.9145
vn 0.3943 -0.0901 -0.9145
vn -0.0104 0.9947 -0.1025
vn 0.0104 -0.9947 0.1025
vn -0.3618 0.5020 0.7856
vn 0.3618 -0.5020 -0.7856
vn 0.1572 0.8634 -0.4794
vn -0.1572 -0.8634 0.4794
vn -0.2862 0.7670 0.5742
vn 0.2862 -0.7670 -0.5742
vn 0.9189 0.0500 0.3913
vn 0.2714 0.6397 -0.7191
vn -0.2714 -0.6397 0.7191
vn -0.5000 -0.0000 0.8660
vn -0.8660 -0.0000 -0.5000
vn 0.5000 -0.0000 -0.8660
vn 0.8660 -0.0000 0.5000
vn -1.0000 -0.0000 -0.0000
vn 1.0000 -0.0000 -0.0000
vn -0.0000 -0.0000 -1.0000
vn -0.0000 -0.0000 1.0000
vn -0.0000 0.7071 0.7071
vn -0.0000 -0.7071 -0.7071
vn -0.0000 0.7071 -0.7071
vn -0.0000 -0.7071 0.7071
vn -0.8192 -0.0000 0.5736
vn -0.5736 -0.0000 -0.8192
vn 0.8191 -0.0000 -0.5736
vn 0.5736 -0.0000 0.8192
vn -0.5736 -0.0000 0.8192
vn -0.8192 -0.0000 -0.5736
vn 0.5736 -0.0000 -0.8192
vn 0.8192 -0.0000 0.5736
vn -0.5540 -0.2588 0.7912
vn 0.5540 0.2588 -0.7912
vn -0.1485 0.9659 0.2120
vn 0.1485 -0.9659 -0.2120
vn -0.9763 -0.0000 0.2164
vn -0.2164 -0.0000 -0.9763
vn 0.9763 -0.0000 -0.2164
vn 0.2164 -0.0000 0.9763
vn -0.0000 0.0872 0.9962
vn -0.0000 -0.0872 -0.9962
vn -0.0000 0.9962 -0.0872
vn -0.0000 -0.9962 0.0872
vn 0.1736 0.0858 0.9811
vn -0.9848 0.0151 0.1730
vn -0.1736 -0.0858 -0.9811
vn 0.9848 -0.0151 -0.1730
vn 0.8192 -0.0000 -0.5736
vn 0.5540 -0.2588 0.7912
vn -0.5540 0.2588 -0.7912
vn 0.1485 0.9659 0.2120
vn -0.1485 -0.9659 -0.2120
vn 0.9763 -0.0000 0.2164
vn -0.2164 -0.0000 0.9763
vn -0.9763 -0.0000 -0.2164
vn 0.2164 -0.0000 -0.9763
vn -0.1736 0.0858 0.9811
vn -0.9848 -0.0151 -0.1730
vn 0.1736 -0.0858 -0.9811
vn 0.9848 0.0151 0.1730
vt 0.605469 0.527344
vt 0.589844 0.347656
vt 0.062500 0.437500
vt 0.652344 0.449219
vt 0.644531 0.527344
vt 0.062500 0.398438
vt 0.605469 0.511719
vt 0.589844 0.332031
vt 0.250000 0.437500
vt 0.652344 0.433594
vt 0.644531 0.511719
vt 0.250000 0.398438
vt 0.675781 0.449219
vt 0.605469 0.511719
vt 0.085938 0.398438
vt 0.566406 0.347656
vt 0.644531 0.511719
vt 0.085938 0.437500
vt 0.675781 0.433594
vt 0.605469 0.496094
vt 0.273438 0.398438
vt 0.566406 0.332031
vt 0.644531 0.496094
vt 0.273438 0.437500
vt 0.589844 0.648438
vt 0.636719 0.347656
vt 0.535156 0.621094
vt 0.589844 0.347656
vt 0.636719 0.648438
vt 0.535156 0.574219
vt 0.589844 0.632812
vt 0.636719 0.332031
vt 0.203125 0.457031
vt 0.589844 0.332031
vt 0.636719 0.632812
vt 0.203125 0.410156
vt 0.613281 0.347656
vt 0.507812 0.402344
vt 0.558594 0.574219
vt 0.613281 0.347656
vt 0.554688 0.402344
vt 0.558594 0.621094
vt 0.613281 0.332031
vt 0.507812 0.386719
vt 0.226562 0.410156
vt 0.613281 0.332031
vt 0.554688 0.386719
vt 0.226562 0.457031
vt 0.324219 0.320312
vt 0.503906 0.542969
vt 0.429688 0.375000
vt 0.437500 0.789062
vt 0.332031 0.320312
vt 0.429688 0.367188
vt 0.324219 0.292969
vt 0.503906 0.515625
vt 0.578125 0.375000
vt 0.437500 0.761719
vt 0.332031 0.292969
vt 0.578125 0.367188
vt 0.496094 0.789062
vt 0.496094 0.320312
vt 0.488281 0.367188
vt 0.445312 0.542969
vt 0.503906 0.320312
vt 0.488281 0.375000
vt 0.496094 0.761719
vt 0.496094 0.292969
vt 0.636719 0.367188
vt 0.445312 0.515625
vt 0.503906 0.292969
vt 0.636719 0.375000
vt 0.644531 0.632812
vt 0.683594 0.613281
vt 0.050781 0.695312
vt 0.625000 0.621094
vt 0.691406 0.632812
vt 0.050781 0.648438
vt 0.644531 0.625000
vt 0.683594 0.605469
vt 0.308594 0.968750
vt 0.625000 0.613281
vt 0.691406 0.625000
vt 0.308594 0.921875
vt 0.683594 0.621094
vt 0.648438 0.960938
vt 0.109375 0.648438
vt 0.625000 0.613281
vt 0.695312 0.960938
vt 0.109375 0.695312
vt 0.683594 0.613281
vt 0.648438 0.953125
vt 0.367188 0.921875
vt 0.625000 0.605469
vt 0.695312 0.953125
vt 0.367188 0.968750
vt 0.542969 0.558594
vt 0.566406 0.347656
vt 0.277344 0.531250
vt 0.652344 0.937500
vt 0.609375 0.558594
vt 0.277344 0.464844
vt 0.542969 0.542969
vt 0.566406 0.332031
vt 0.109375 0.507812
vt 0.652344 0.921875
vt 0.609375 0.542969
vt 0.109375 0.441406
vt 0.675781 0.937500
vt 0.554688 0.460938
vt 0.300781 0.464844
vt 0.542969 0.347656
vt 0.621094 0.460938
vt 0.300781 0.531250
vt 0.675781 0.921875
vt 0.554688 0.445312
vt 0.132812 0.441406
vt 0.542969 0.332031
vt 0.621094 0.445312
vt 0.132812 0.507812
vt 0.609375 0.910156
vt 0.023438 0.339844
vt 0.171875 0.433594
vt 0.656250 0.652344
vt 0.648438 0.910156
vt 0.171875 0.394531
vt 0.609375 0.894531
vt 0.023438 0.324219
vt 0.398438 0.433594
vt 0.656250 0.636719
vt 0.648438 0.894531
vt 0.398438 0.394531
vt 0.679688 0.652344
vt 0.609375 0.558594
vt 0.195312 0.394531
vt 0.000000 0.339844
vt 0.648438 0.558594
vt 0.195312 0.433594
vt 0.679688 0.636719
vt 0.609375 0.542969
vt 0.421875 0.394531
vt 0.000000 0.324219
vt 0.648438 0.542969
vt 0.421875 0.433594
vt 0.597656 0.484375
vt 0.683594 0.757812
vt 0.226562 0.457031
vt 0.660156 0.882812
vt 0.644531 0.484375
vt 0.226562 0.410156
vt 0.597656 0.468750
vt 0.683594 0.742188
vt 0.546875 0.894531
vt 0.660156 0.867188
vt 0.644531 0.468750
vt 0.546875 0.847656
vt 0.683594 0.882812
vt 0.601562 0.835938
vt 0.250000 0.410156
vt 0.660156 0.757812
vt 0.648438 0.835938
vt 0.250000 0.457031
vt 0.683594 0.867188
vt 0.601562 0.820312
vt 0.570312 0.847656
vt 0.660156 0.742188
vt 0.648438 0.820312
vt 0.570312 0.894531
vt 0.542969 0.320312
vt 0.277344 0.523438
vt 0.628906 0.773438
vt 0.460938 0.968750
vt 0.550781 0.320312
vt 0.628906 0.765625
vt 0.542969 0.292969
vt 0.277344 0.496094
vt 0.628906 0.765625
vt 0.460938 0.941406
vt 0.550781 0.292969
vt 0.628906 0.757812
vt 0.519531 0.968750
vt 0.550781 0.320312
vt 0.687500 0.765625
vt 0.218750 0.523438
vt 0.558594 0.320312
vt 0.687500 0.773438
vt 0.519531 0.941406
vt 0.550781 0.292969
vt 0.687500 0.757812
vt 0.218750 0.496094
vt 0.558594 0.292969
vt 0.687500 0.765625
vt 0.648438 0.902344
vt 0.687500 0.781250
vt 0.316406 0.921875
vt 0.628906 0.789062
vt 0.695312 0.902344
vt 0.316406 0.875000
vt 0.648438 0.894531
vt 0.687500 0.773438
vt 0.324219 0.738281
vt 0.628906 0.781250
vt 0.695312 0.894531
vt 0.324219 0.691406
vt 0.687500 0.789062
vt 0.648438 0.800781
vt 0.375000 0.875000
vt 0.628906 0.781250
vt 0.695312 0.800781
vt 0.375000 0.921875
vt 0.687500 0.781250
vt 0.648438 0.792969
vt 0.382812 0.691406
vt 0.628906 0.773438
vt 0.695312 0.792969
vt 0.382812 0.738281
vt 0.554688 0.445312
vt 0.058594 0.343750
vt 0.062500 0.503906
vt 0.656250 0.976562
vt 0.621094 0.445312
vt 0.062500 0.437500
vt 0.554688 0.429688
vt 0.058594 0.328125
vt 0.496094 0.679688
vt 0.656250 0.960938
vt 0.621094 0.429688
vt 0.496094 0.613281
vt 0.679688 0.976562
vt 0.558594 0.621094
vt 0.085938 0.437500
vt 0.035156 0.343750
vt 0.625000 0.621094
vt 0.085938 0.503906
vt 0.679688 0.960938
vt 0.558594 0.605469
vt 0.519531 0.613281
vt 0.035156 0.328125
vt 0.625000 0.605469
vt 0.519531 0.679688
vt 0.312500 0.738281
vt 0.562500 0.367188
vt 0.636719 0.335938
vt 0.523438 0.367188
vt 0.324219 0.738281
vt 0.636719 0.324219
vt 0.312500 0.718750
vt 0.562500 0.347656
vt 0.667969 0.992188
vt 0.523438 0.347656
vt 0.324219 0.718750
vt 0.667969 0.980469
vt 0.542969 0.367188
vt 0.488281 0.738281
vt 0.656250 0.324219
vt 0.542969 0.367188
vt 0.500000 0.738281
vt 0.656250 0.335938
vt 0.542969 0.347656
vt 0.488281 0.718750
vt 0.687500 0.980469
vt 0.542969 0.347656
vt 0.500000 0.718750
vt 0.687500 0.992188
vt 0.261719 0.625000
vt 0.015625 0.417969
vt 0.046875 0.417969
vt 0.117188 0.441406
vt 0.308594 0.625000
vt 0.046875 0.371094
vt 0.261719 0.578125
vt 0.015625 0.371094
vt 0.234375 0.410156
vt 0.117188 0.394531
vt 0.308594 0.578125
vt 0.234375 0.363281
vt 0.132812 0.441406
vt 0.359375 0.621094
vt 0.062500 0.371094
vt 0.000000 0.417969
vt 0.406250 0.621094
vt 0.062500 0.417969
vt 0.132812 0.394531
vt 0.359375 0.574219
vt 0.250000 0.363281
vt 0.000000 0.371094
vt 0.406250 0.574219
vt 0.250000 0.410156
vt 0.492188 0.570312
vt 0.601562 0.367188
vt 0.667969 0.953125
vt 0.562500 0.367188
vt 0.503906 0.570312
vt 0.667969 0.941406
vt 0.492188 0.550781
vt 0.601562 0.347656
vt 0.667969 0.921875
vt 0.562500 0.347656
vt 0.503906 0.550781
vt 0.667969 0.910156
vt 0.582031 0.367188
vt 0.410156 0.371094
vt 0.687500 0.941406
vt 0.582031 0.367188
vt 0.421875 0.371094
vt 0.687500 0.953125
vt 0.582031 0.347656
vt 0.410156 0.351562
vt 0.687500 0.910156
vt 0.582031 0.347656
vt 0.421875 0.351562
vt 0.687500 0.921875
vt 0.023438 0.339844
vt 0.640625 0.367188
vt 0.667969 0.894531
vt 0.601562 0.367188
vt 0.035156 0.339844
vt 0.667969 0.882812
vt 0.023438 0.320312
vt 0.640625 0.347656
vt 0.113281 0.332031
vt 0.601562 0.347656
vt 0.035156 0.320312
vt 0.113281 0.320312
vt 0.621094 0.367188
vt 0.101562 0.332031
vt 0.687500 0.882812
vt 0.621094 0.367188
vt 0.113281 0.332031
vt 0.687500 0.894531
vt 0.621094 0.347656
vt 0.101562 0.312500
vt 0.132812 0.320312
vt 0.621094 0.347656
vt 0.113281 0.312500
vt 0.132812 0.332031
vt 0.339844 0.332031
vt 0.656250 0.652344
vt 0.667969 0.847656
vt 0.226562 0.363281
vt 0.351562 0.332031
vt 0.667969 0.835938
vt 0.339844 0.312500
vt 0.656250 0.632812
vt 0.542969 0.332031
vt 0.226562 0.343750
vt 0.351562 0.312500
vt 0.542969 0.320312
vt 0.246094 0.363281
vt 0.667969 0.484375
vt 0.687500 0.835938
vt 0.636719 0.652344
vt 0.679688 0.484375
vt 0.687500 0.847656
vt 0.246094 0.343750
vt 0.667969 0.464844
vt 0.562500 0.320312
vt 0.636719 0.632812
vt 0.679688 0.464844
vt 0.562500 0.332031
vt 0.562500 0.332031
vt 0.660156 0.433594
vt 0.585938 0.332031
vt 0.015625 0.359375
vt 0.574219 0.332031
vt 0.585938 0.320312
vt 0.562500 0.312500
vt 0.660156 0.414062
vt 0.605469 0.332031
vt 0.015625 0.339844
vt 0.574219 0.312500
vt 0.605469 0.320312
vt 0.035156 0.359375
vt 0.574219 0.332031
vt 0.605469 0.320312
vt 0.640625 0.433594
vt 0.585938 0.332031
vt 0.605469 0.332031
vt 0.035156 0.339844
vt 0.574219 0.312500
vt 0.625000 0.320312
vt 0.640625 0.414062
vt 0.585938 0.312500
vt 0.625000 0.332031
vt 0.625000 0.332031
vt 0.082031 0.355469
vt 0.671875 0.835938
vt 0.640625 0.375000
vt 0.636719 0.332031
vt 0.671875 0.824219
vt 0.625000 0.312500
vt 0.082031 0.335938
vt 0.671875 0.812500
vt 0.640625 0.355469
vt 0.636719 0.312500
vt 0.671875 0.800781
vt 0.660156 0.375000
vt 0.035156 0.328125
vt 0.691406 0.824219
vt 0.062500 0.355469
vt 0.046875 0.328125
vt 0.691406 0.835938
vt 0.660156 0.355469
vt 0.035156 0.308594
vt 0.691406 0.800781
vt 0.062500 0.335938
vt 0.046875 0.308594
vt 0.691406 0.812500
vt 0.046875 0.328125
vt 0.285156 0.355469
vt 0.218750 0.328125
vt 0.246094 0.355469
vt 0.058594 0.328125
vt 0.218750 0.316406
vt 0.046875 0.308594
vt 0.285156 0.335938
vt 0.238281 0.328125
vt 0.246094 0.335938
vt 0.058594 0.308594
vt 0.238281 0.316406
vt 0.265625 0.355469
vt 0.207031 0.328125
vt 0.238281 0.316406
vt 0.265625 0.355469
vt 0.218750 0.328125
vt 0.238281 0.328125
vt 0.265625 0.335938
vt 0.207031 0.308594
vt 0.257812 0.316406
vt 0.265625 0.335938
vt 0.218750 0.308594
vt 0.257812 0.328125
vt 0.257812 0.328125
vt 0.375000 0.355469
vt 0.671875 0.726562
vt 0.312500 0.355469
vt 0.269531 0.328125
vt 0.671875 0.714844
vt 0.257812 0.308594
vt 0.375000 0.335938
vt 0.410156 0.328125
vt 0.312500 0.335938
vt 0.269531 0.308594
vt 0.410156 0.316406
vt 0.332031 0.355469
vt 0.269531 0.328125
vt 0.691406 0.714844
vt 0.355469 0.355469
vt 0.281250 0.328125
vt 0.691406 0.726562
vt 0.332031 0.335938
vt 0.269531 0.308594
vt 0.429688 0.316406
vt 0.355469 0.335938
vt 0.281250 0.308594
vt 0.429688 0.328125
vt 0.359375 0.570312
vt 0.183594 0.371094
vt 0.085938 0.445312
vt 0.046875 0.371094
vt 0.425781 0.570312
vt 0.085938 0.378906
vt 0.359375 0.542969
vt 0.183594 0.343750
vt 0.015625 0.441406
vt 0.046875 0.343750
vt 0.425781 0.542969
vt 0.015625 0.375000
vt 0.062500 0.371094
vt 0.429688 0.625000
vt 0.101562 0.378906
vt 0.167969 0.371094
vt 0.496094 0.625000
vt 0.101562 0.445312
vt 0.062500 0.343750
vt 0.429688 0.597656
vt 0.031250 0.375000
vt 0.167969 0.343750
vt 0.496094 0.597656
vt 0.031250 0.441406
vt 0.597656 0.468750
vt 0.535156 0.621094
vt 0.132812 0.527344
vt 0.257812 0.531250
vt 0.667969 0.468750
vt 0.132812 0.457031
vt 0.597656 0.460938
vt 0.535156 0.613281
vt 0.429688 0.472656
vt 0.257812 0.523438
vt 0.667969 0.460938
vt 0.429688 0.402344
vt 0.273438 0.531250
vt 0.601562 0.808594
vt 0.148438 0.457031
vt 0.519531 0.621094
vt 0.671875 0.808594
vt 0.148438 0.527344
vt 0.273438 0.523438
vt 0.601562 0.800781
vt 0.445312 0.402344
vt 0.519531 0.613281
vt 0.671875 0.800781
vt 0.445312 0.472656
vt 0.460938 0.941406
vt 0.355469 0.351562
vt 0.132812 0.457031
vt 0.429688 0.402344
vt 0.531250 0.941406
vt 0.132812 0.386719
vt 0.460938 0.921875
vt 0.355469 0.332031
vt 0.445312 0.453125
vt 0.429688 0.382812
vt 0.531250 0.921875
vt 0.445312 0.382812
vt 0.445312 0.402344
vt 0.503906 0.535156
vt 0.148438 0.386719
vt 0.339844 0.351562
vt 0.574219 0.535156
vt 0.148438 0.457031
vt 0.445312 0.382812
vt 0.503906 0.515625
vt 0.460938 0.382812
vt 0.339844 0.332031
vt 0.574219 0.515625
vt 0.460938 0.453125
vt 0.246094 0.335938
vt 0.703125 0.605469
vt 0.500000 0.750000
vt 0.660156 0.421875
vt 0.285156 0.335938
vt 0.500000 0.710938
vt 0.246094 0.328125
vt 0.703125 0.597656
vt 0.359375 0.500000
vt 0.660156 0.414062
vt 0.285156 0.328125
vt 0.359375 0.460938
vt 0.699219 0.421875
vt 0.664062 0.597656
vt 0.539062 0.710938
vt 0.664062 0.605469
vt 0.703125 0.597656
vt 0.539062 0.750000
vt 0.699219 0.414062
vt 0.664062 0.589844
vt 0.398438 0.460938
vt 0.664062 0.597656
vt 0.703125 0.589844
vt 0.398438 0.500000
vt 0.546875 0.847656
vt 0.347656 0.460938
vt 0.421875 0.433594
vt 0.519531 0.886719
vt 0.632812 0.847656
vt 0.421875 0.347656
vt 0.546875 0.835938
vt 0.347656 0.449219
vt 0.289062 0.406250
vt 0.519531 0.875000
vt 0.632812 0.835938
vt 0.289062 0.320312
vt 0.527344 0.886719
vt 0.558594 0.605469
vt 0.429688 0.347656
vt 0.339844 0.460938
vt 0.644531 0.605469
vt 0.429688 0.433594
vt 0.527344 0.875000
vt 0.558594 0.593750
vt 0.296875 0.320312
vt 0.339844 0.449219
vt 0.644531 0.593750
vt 0.296875 0.406250
vt 0.589844 0.632812
vt 0.339844 0.316406
vt 0.488281 0.679688
vt 0.683594 0.671875
vt 0.644531 0.632812
vt 0.488281 0.625000
vt 0.589844 0.621094
vt 0.339844 0.304688
vt 0.304688 0.378906
vt 0.683594 0.660156
vt 0.644531 0.621094
vt 0.304688 0.324219
vt 0.691406 0.671875
vt 0.601562 0.820312
vt 0.496094 0.625000
vt 0.332031 0.316406
vt 0.656250 0.820312
vt 0.496094 0.679688
vt 0.691406 0.660156
vt 0.601562 0.808594
vt 0.312500 0.324219
vt 0.332031 0.304688
vt 0.656250 0.808594
vt 0.312500 0.378906
vt 0.429688 0.328125
vt 0.664062 0.542969
vt 0.671875 0.558594
vt 0.644531 0.605469
vt 0.441406 0.328125
vt 0.671875 0.546875
vt 0.429688 0.308594
vt 0.664062 0.523438
vt 0.453125 0.328125
vt 0.644531 0.585938
vt 0.441406 0.308594
vt 0.453125 0.316406
vt 0.664062 0.605469
vt 0.441406 0.328125
vt 0.691406 0.546875
vt 0.644531 0.542969
vt 0.453125 0.328125
vt 0.691406 0.558594
vt 0.664062 0.585938
vt 0.441406 0.308594
vt 0.472656 0.316406
vt 0.644531 0.523438
vt 0.453125 0.308594
vt 0.472656 0.328125
vt 0.382812 0.738281
vt 0.332031 0.402344
vt 0.355469 0.402344
vt 0.273438 0.406250
vt 0.429688 0.738281
vt 0.355469 0.355469
vt 0.382812 0.691406
vt 0.332031 0.355469
vt 0.371094 0.402344
vt 0.273438 0.359375
vt 0.429688 0.691406
vt 0.371094 0.355469
vt 0.289062 0.406250
vt 0.390625 0.800781
vt 0.371094 0.355469
vt 0.316406 0.402344
vt 0.437500 0.800781
vt 0.371094 0.402344
vt 0.289062 0.359375
vt 0.390625 0.753906
vt 0.386719 0.355469
vt 0.316406 0.355469
vt 0.437500 0.753906
vt 0.386719 0.402344
vt 0.472656 0.328125
vt 0.664062 0.402344
vt 0.503906 0.328125
vt 0.644531 0.523438
vt 0.484375 0.328125
vt 0.503906 0.316406
vt 0.472656 0.308594
vt 0.664062 0.382812
vt 0.523438 0.328125
vt 0.644531 0.503906
vt 0.484375 0.308594
vt 0.523438 0.316406
vt 0.664062 0.523438
vt 0.671875 0.511719
vt 0.523438 0.316406
vt 0.644531 0.402344
vt 0.683594 0.511719
vt 0.523438 0.328125
vt 0.664062 0.503906
vt 0.671875 0.492188
vt 0.542969 0.316406
vt 0.644531 0.382812
vt 0.683594 0.492188
vt 0.542969 0.328125
vt 0.656250 0.328125
vt 0.667969 0.921875
vt 0.000000 0.324219
vt 0.640625 0.355469
vt 0.667969 0.328125
vt 0.000000 0.312500
vt 0.656250 0.308594
vt 0.667969 0.902344
vt 0.058594 0.324219
vt 0.640625 0.335938
vt 0.667969 0.308594
vt 0.058594 0.312500
vt 0.660156 0.355469
vt 0.667969 0.328125
vt 0.019531 0.312500
vt 0.648438 0.921875
vt 0.679688 0.328125
vt 0.019531 0.324219
vt 0.660156 0.335938
vt 0.667969 0.308594
vt 0.078125 0.312500
vt 0.648438 0.902344
vt 0.679688 0.308594
vt 0.078125 0.324219
vt 0.675781 0.941406
vt 0.140625 0.351562
vt 0.351562 0.324219
vt 0.101562 0.351562
vt 0.687500 0.941406
vt 0.351562 0.312500
vt 0.675781 0.921875
vt 0.140625 0.332031
vt 0.675781 0.574219
vt 0.101562 0.332031
vt 0.687500 0.921875
vt 0.675781 0.562500
vt 0.121094 0.351562
vt 0.167969 0.324219
vt 0.371094 0.312500
vt 0.121094 0.351562
vt 0.179688 0.324219
vt 0.371094 0.324219
vt 0.121094 0.332031
vt 0.167969 0.304688
vt 0.695312 0.562500
vt 0.121094 0.332031
vt 0.179688 0.304688
vt 0.695312 0.574219
vt 0.191406 0.324219
vt 0.429688 0.347656
vt 0.675781 0.449219
vt 0.207031 0.347656
vt 0.203125 0.324219
vt 0.675781 0.437500
vt 0.191406 0.304688
vt 0.429688 0.328125
vt 0.675781 0.390625
vt 0.207031 0.328125
vt 0.203125 0.304688
vt 0.675781 0.378906
vt 0.226562 0.347656
vt 0.394531 0.324219
vt 0.695312 0.437500
vt 0.410156 0.347656
vt 0.406250 0.324219
vt 0.695312 0.449219
vt 0.226562 0.328125
vt 0.394531 0.304688
vt 0.695312 0.378906
vt 0.410156 0.328125
vt 0.406250 0.304688
vt 0.695312 0.390625
vt 0.636719 0.324219
vt 0.468750 0.347656
vt 0.679688 0.980469
vt 0.429688 0.347656
vt 0.648438 0.324219
vt 0.679688 0.968750
vt 0.636719 0.304688
vt 0.468750 0.328125
vt 0.113281 0.320312
vt 0.429688 0.328125
vt 0.648438 0.304688
vt 0.113281 0.308594
vt 0.449219 0.347656
vt 0.019531 0.320312
vt 0.699219 0.968750
vt 0.449219 0.347656
vt 0.031250 0.320312
vt 0.699219 0.980469
vt 0.449219 0.328125
vt 0.019531 0.300781
vt 0.132812 0.308594
vt 0.449219 0.328125
vt 0.031250 0.300781
vt 0.132812 0.320312
vt 0.148438 0.320312
vt 0.671875 0.503906
vt 0.304688 0.320312
vt 0.468750 0.347656
vt 0.160156 0.320312
vt 0.304688 0.308594
vt 0.148438 0.300781
vt 0.671875 0.484375
vt 0.679688 0.660156
vt 0.468750 0.328125
vt 0.160156 0.300781
vt 0.679688 0.648438
vt 0.488281 0.347656
vt 0.281250 0.320312
vt 0.324219 0.308594
vt 0.652344 0.503906
vt 0.292969 0.320312
vt 0.324219 0.320312
vt 0.488281 0.328125
vt 0.281250 0.300781
vt 0.699219 0.648438
vt 0.652344 0.484375
vt 0.292969 0.300781
vt 0.699219 0.660156
vt 0.484375 0.320312
vt 0.542969 0.347656
vt 0.679688 0.648438
vt 0.503906 0.347656
vt 0.496094 0.320312
vt 0.679688 0.636719
vt 0.484375 0.300781
vt 0.542969 0.328125
vt 0.679688 0.472656
vt 0.503906 0.328125
vt 0.496094 0.300781
vt 0.679688 0.460938
vt 0.523438 0.347656
vt 0.679688 0.492188
vt 0.699219 0.636719
vt 0.523438 0.347656
vt 0.691406 0.492188
vt 0.699219 0.648438
vt 0.523438 0.328125
vt 0.679688 0.472656
vt 0.699219 0.460938
vt 0.523438 0.328125
vt 0.691406 0.472656
vt 0.699219 0.472656
vt 0.429688 0.597656
vt 0.207031 0.367188
vt 0.031250 0.441406
vt 0.394531 0.371094
vt 0.496094 0.597656
vt 0.031250 0.375000
vt 0.429688 0.570312
vt 0.207031 0.339844
vt 0.101562 0.441406
vt 0.394531 0.343750
vt 0.496094 0.570312
vt 0.101562 0.375000
vt 0.410156 0.371094
vt 0.425781 0.570312
vt 0.046875 0.375000
vt 0.191406 0.367188
vt 0.492188 0.570312
vt 0.046875 0.441406
vt 0.410156 0.343750
vt 0.425781 0.542969
vt 0.117188 0.375000
vt 0.191406 0.339844
vt 0.492188 0.542969
vt 0.117188 0.441406
vt 0.605469 0.855469
vt 0.550781 0.386719
vt 0.460938 0.453125
vt 0.117188 0.394531
vt 0.675781 0.855469
vt 0.460938 0.382812
vt 0.605469 0.847656
vt 0.550781 0.378906
vt 0.476562 0.453125
vt 0.117188 0.386719
vt 0.675781 0.847656
vt 0.476562 0.382812
vt 0.132812 0.394531
vt 0.613281 0.667969
vt 0.476562 0.382812
vt 0.535156 0.386719
vt 0.683594 0.667969
vt 0.476562 0.453125
vt 0.132812 0.386719
vt 0.613281 0.660156
vt 0.492188 0.382812
vt 0.535156 0.378906
vt 0.683594 0.660156
vt 0.492188 0.453125
vt 0.511719 0.515625
vt 0.410156 0.343750
vt 0.492188 0.453125
vt 0.167969 0.343750
vt 0.582031 0.515625
vt 0.492188 0.382812
vt 0.511719 0.496094
vt 0.410156 0.324219
vt 0.339844 0.449219
vt 0.167969 0.324219
vt 0.582031 0.496094
vt 0.339844 0.378906
vt 0.183594 0.343750
vt 0.515625 0.496094
vt 0.507812 0.382812
vt 0.394531 0.343750
vt 0.585938 0.496094
vt 0.507812 0.453125
vt 0.183594 0.324219
vt 0.515625 0.476562
vt 0.355469 0.378906
vt 0.394531 0.324219
vt 0.585938 0.476562
vt 0.355469 0.449219
vt 0.664062 0.535156
vt 0.703125 0.527344
vt 0.218750 0.496094
vt 0.664062 0.542969
vt 0.703125 0.535156
vt 0.218750 0.457031
vt 0.664062 0.527344
vt 0.703125 0.519531
vt 0.503906 0.574219
vt 0.664062 0.535156
vt 0.703125 0.527344
vt 0.503906 0.535156
vt 0.703125 0.542969
vt 0.664062 0.519531
vt 0.257812 0.457031
vt 0.664062 0.527344
vt 0.703125 0.519531
vt 0.257812 0.496094
vt 0.703125 0.535156
vt 0.664062 0.511719
vt 0.542969 0.535156
vt 0.664062 0.519531
vt 0.703125 0.511719
vt 0.542969 0.574219
vt 0.558594 0.593750
vt 0.390625 0.316406
vt 0.332031 0.402344
vt 0.683594 0.625000
vt 0.644531 0.593750
vt 0.332031 0.316406
vt 0.558594 0.582031
vt 0.390625 0.304688
vt 0.386719 0.402344
vt 0.683594 0.613281
vt 0.644531 0.582031
vt 0.386719 0.316406
vt 0.691406 0.625000
vt 0.562500 0.921875
vt 0.339844 0.316406
vt 0.382812 0.316406
vt 0.648438 0.921875
vt 0.339844 0.402344
vt 0.691406 0.613281
vt 0.562500 0.910156
vt 0.394531 0.316406
vt 0.382812 0.304688
vt 0.648438 0.910156
vt 0.394531 0.402344
vt 0.605469 0.878906
vt 0.421875 0.316406
vt 0.488281 0.375000
vt 0.406250 0.316406
vt 0.660156 0.878906
vt 0.488281 0.320312
vt 0.605469 0.867188
vt 0.421875 0.304688
vt 0.183594 0.371094
vt 0.406250 0.304688
vt 0.660156 0.867188
vt 0.183594 0.316406
vt 0.414062 0.316406
vt 0.605469 0.867188
vt 0.496094 0.320312
vt 0.414062 0.316406
vt 0.660156 0.867188
vt 0.496094 0.375000
vt 0.414062 0.304688
vt 0.605469 0.855469
vt 0.191406 0.316406
vt 0.414062 0.304688
vt 0.660156 0.855469
vt 0.191406 0.371094
vt 0.519531 0.968750
vt 0.273438 0.375000
vt 0.015625 0.554688
vt 0.062500 0.375000
vt 0.589844 0.968750
vt 0.015625 0.484375
vt 0.519531 0.949219
vt 0.273438 0.355469
vt 0.171875 0.546875
vt 0.062500 0.355469
vt 0.589844 0.949219
vt 0.171875 0.476562
vt 0.085938 0.375000
vt 0.519531 0.679688
vt 0.039062 0.484375
vt 0.250000 0.375000
vt 0.589844 0.679688
vt 0.039062 0.554688
vt 0.085938 0.355469
vt 0.519531 0.660156
vt 0.195312 0.476562
vt 0.250000 0.355469
vt 0.589844 0.660156
vt 0.195312 0.546875
vt 0.519531 0.660156
vt 0.148438 0.371094
vt 0.398438 0.542969
vt 0.101562 0.371094
vt 0.589844 0.660156
vt 0.398438 0.472656
vt 0.519531 0.640625
vt 0.148438 0.351562
vt 0.421875 0.542969
vt 0.101562 0.351562
vt 0.589844 0.640625
vt 0.421875 0.472656
vt 0.125000 0.371094
vt 0.519531 0.640625
vt 0.421875 0.472656
vt 0.125000 0.371094
vt 0.589844 0.640625
vt 0.421875 0.542969
vt 0.125000 0.351562
vt 0.519531 0.621094
vt 0.445312 0.472656
vt 0.125000 0.351562
vt 0.589844 0.621094
vt 0.445312 0.542969
s 1
usemtl m777_tex_1.png.001
f 4/10/1 7/19/1 5/13/1 2/4/1
f 3/7/2 4/11/2 2/5/2 1/1/2
f 8/22/3 3/8/3 1/2/3 6/16/3
f 7/20/4 8/23/4 6/17/4 5/14/4
f 6/18/5 1/3/5 2/6/5 5/15/5
f 7/21/6 4/12/6 3/9/6 8/24/6
f 12/34/7 15/43/7 13/37/7 10/28/7
f 11/31/8 12/35/8 10/29/8 9/25/8
f 16/46/9 11/32/9 9/26/9 14/40/9
f 15/44/10 16/47/10 14/41/10 13/38/10
f 14/42/11 9/27/11 10/30/11 13/39/11
f 15/45/12 12/36/12 11/33/12 16/48/12
f 20/58/13 23/67/13 21/61/13 18/52/13
f 19/55/2 20/59/2 18/53/2 17/49/2
f 24/70/14 19/56/14 17/50/14 22/64/14
f 23/68/10 24/71/10 22/65/10 21/62/10
f 22/66/15 17/51/15 18/54/15 21/63/15
f 23/69/16 20/60/16 19/57/16 24/72/16
f 28/82/17 31/91/17 29/85/17 26/76/17
f 27/79/8 28/83/8 26/77/8 25/73/8
f 32/94/18 27/80/18 25/74/18 30/88/18
f 31/92/10 32/95/10 30/89/10 29/86/10
f 30/90/19 25/75/19 26/78/19 29/87/19
f 31/93/20 28/84/20 27/81/20 32/96/20
f 36/106/21 39/115/21 37/109/21 34/100/21
f 35/103/22 36/107/22 34/101/22 33/97/22
f 40/118/23 35/104/23 33/98/23 38/112/23
f 39/116/24 40/119/24 38/113/24 37/110/24
f 38/114/25 33/99/25 34/102/25 37/111/25
f 39/117/26 36/108/26 35/105/26 40/120/26
f 44/130/27 47/139/27 45/133/27 42/124/27
f 43/127/28 44/131/28 42/125/28 41/121/28
f 48/142/29 43/128/29 41/122/29 46/136/29
f 47/140/30 48/143/30 46/137/30 45/134/30
f 46/138/31 41/123/31 42/126/31 45/135/31
f 47/141/32 44/132/32 43/129/32 48/144/32
f 52/154/33 55/163/33 53/157/33 50/148/33
f 51/151/28 52/155/28 50/149/28 49/145/28
f 56/166/34 51/152/34 49/146/34 54/160/34
f 55/164/30 56/167/30 54/161/30 53/158/30
f 54/162/35 49/147/35 50/150/35 53/159/35
f 55/165/36 52/156/36 51/153/36 56/168/36
f 60/178/37 63/187/37 61/181/37 58/172/37
f 59/175/28 60/179/28 58/173/28 57/169/28
f 64/190/38 59/176/38 57/170/38 62/184/38
f 63/188/30 64/191/30 62/185/30 61/182/30
f 62/186/39 57/171/39 58/174/39 61/183/39
f 63/189/40 60/180/40 59/177/40 64/192/40
f 68/202/41 71/211/41 69/205/41 66/196/41
f 67/199/28 68/203/28 66/197/28 65/193/28
f 72/214/42 67/200/42 65/194/42 70/208/42
f 71/212/43 72/215/43 70/209/43 69/206/43
f 70/210/44 65/195/44 66/198/44 69/207/44
f 71/213/45 68/204/45 67/201/45 72/216/45
f 76/226/46 79/235/46 77/229/46 74/220/46
f 75/223/47 76/227/47 74/221/47 73/217/47
f 80/238/48 75/224/48 73/218/48 78/232/48
f 79/236/49 80/239/49 78/233/49 77/230/49
f 78/234/25 73/219/25 74/222/25 77/231/25
f 79/237/26 76/228/26 75/225/26 80/240/26
f 84/250/25 87/259/25 85/253/25 82/244/25
f 83/247/50 84/251/50 82/245/50 81/241/50
f 88/262/26 83/248/26 81/242/26 86/256/26
f 87/260/51 88/263/51 86/257/51 85/254/51
f 86/258/52 81/243/52 82/246/52 85/255/52
f 87/261/53 84/252/53 83/249/53 88/264/53
f 92/274/26 95/283/26 93/277/26 90/268/26
f 91/271/50 92/275/50 90/269/50 89/265/50
f 96/286/25 91/272/25 89/266/25 94/280/25
f 95/284/51 96/287/51 94/281/51 93/278/51
f 94/282/53 89/267/53 90/270/53 93/279/53
f 95/285/52 92/276/52 91/273/52 96/288/52
f 100/298/54 103/307/54 101/301/54 98/292/54
f 99/295/50 100/299/50 98/293/50 97/289/50
f 104/310/55 99/296/55 97/290/55 102/304/55
f 103/308/51 104/311/51 102/305/51 101/302/51
f 102/306/56 97/291/56 98/294/56 101/303/56
f 103/309/57 100/300/57 99/297/57 104/312/57
f 108/322/57 111/331/57 109/325/57 106/316/57
f 107/319/50 108/323/50 106/317/50 105/313/50
f 112/334/56 107/320/56 105/314/56 110/328/56
f 111/332/51 112/335/51 110/329/51 109/326/51
f 110/330/54 105/315/54 106/318/54 109/327/54
f 111/333/55 108/324/55 107/321/55 112/336/55
f 116/346/55 119/355/55 117/349/55 114/340/55
f 115/343/50 116/347/50 114/341/50 113/337/50
f 120/358/54 115/344/54 113/338/54 118/352/54
f 119/356/51 120/359/51 118/353/51 117/350/51
f 118/354/57 113/339/57 114/342/57 117/351/57
f 119/357/56 116/348/56 115/345/56 120/360/56
f 124/370/56 127/379/56 125/373/56 122/364/56
f 123/367/50 124/371/50 122/365/50 121/361/50
f 128/382/57 123/368/57 121/362/57 126/376/57
f 127/380/51 128/383/51 126/377/51 125/374/51
f 126/378/55 121/363/55 122/366/55 125/375/55
f 127/381/54 124/372/54 123/369/54 128/384/54
f 132/394/26 135/403/26 133/397/26 130/388/26
f 131/391/50 132/395/50 130/389/50 129/385/50
f 136/406/25 131/392/25 129/386/25 134/400/25
f 135/404/51 136/407/51 134/401/51 133/398/51
f 134/402/53 129/387/53 130/390/53 133/399/53
f 135/405/52 132/396/52 131/393/52 136/408/52
f 140/418/52 143/427/52 141/421/52 138/412/52
f 139/415/50 140/419/50 138/413/50 137/409/50
f 144/430/53 139/416/53 137/410/53 142/424/53
f 143/428/51 144/431/51 142/425/51 141/422/51
f 142/426/26 137/411/26 138/414/26 141/423/26
f 143/429/25 140/420/25 139/417/25 144/432/25
f 148/442/53 151/451/53 149/445/53 146/436/53
f 147/439/50 148/443/50 146/437/50 145/433/50
f 152/454/52 147/440/52 145/434/52 150/448/52
f 151/452/51 152/455/51 150/449/51 149/446/51
f 150/450/25 145/435/25 146/438/25 149/447/25
f 151/453/26 148/444/26 147/441/26 152/456/26
f 156/466/58 159/475/58 157/469/58 154/460/58
f 155/463/59 156/467/59 154/461/59 153/457/59
f 160/478/60 155/464/60 153/458/60 158/472/60
f 159/476/61 160/479/61 158/473/61 157/470/61
f 158/474/25 153/459/25 154/462/25 157/471/25
f 159/477/26 156/468/26 155/465/26 160/480/26
f 164/490/62 167/499/62 165/493/62 162/484/62
f 163/487/63 164/491/63 162/485/63 161/481/63
f 168/502/64 163/488/64 161/482/64 166/496/64
f 167/500/65 168/503/65 166/497/65 165/494/65
f 166/498/25 161/483/25 162/486/25 165/495/25
f 167/501/26 164/492/26 163/489/26 168/504/26
f 172/514/66 175/523/66 173/517/66 170/508/66
f 171/511/63 172/515/63 170/509/63 169/505/63
f 176/526/67 171/512/67 169/506/67 174/520/67
f 175/524/65 176/527/65 174/521/65 173/518/65
f 174/522/68 169/507/68 170/510/68 173/519/68
f 175/525/69 172/516/69 171/513/69 176/528/69
f 180/538/70 183/547/70 181/541/70 178/532/70
f 179/535/71 180/539/71 178/533/71 177/529/71
f 184/550/72 179/536/72 177/530/72 182/544/72
f 183/548/73 184/551/73 182/545/73 181/542/73
f 182/546/25 177/531/25 178/534/25 181/543/25
f 183/549/26 180/540/26 179/537/26 184/552/26
f 188/562/74 191/571/74 189/565/74 186/556/74
f 187/559/50 188/563/50 186/557/50 185/553/50
f 192/574/75 187/560/75 185/554/75 190/568/75
f 191/572/51 192/575/51 190/569/51 189/566/51
f 190/570/76 185/555/76 186/558/76 189/567/76
f 191/573/77 188/564/77 187/561/77 192/576/77
f 196/586/78 199/595/78 197/589/78 194/580/78
f 195/583/79 196/587/79 194/581/79 193/577/79
f 200/598/80 195/584/80 193/578/80 198/592/80
f 199/596/81 200/599/81 198/593/81 197/590/81
f 198/594/76 193/579/76 194/582/76 197/591/76
f 199/597/77 196/588/77 195/585/77 200/600/77
f 204/610/25 207/619/25 205/613/25 202/604/25
f 203/607/50 204/611/50 202/605/50 201/601/50
f 208/622/26 203/608/26 201/602/26 206/616/26
f 207/620/51 208/623/51 206/617/51 205/614/51
f 206/618/52 201/603/52 202/606/52 205/615/52
f 207/621/53 204/612/53 203/609/53 208/624/53
f 212/634/26 215/643/26 213/637/26 210/628/26
f 211/631/50 212/635/50 210/629/50 209/625/50
f 216/646/25 211/632/25 209/626/25 214/640/25
f 215/644/51 216/647/51 214/641/51 213/638/51
f 214/642/53 209/627/53 210/630/53 213/639/53
f 215/645/52 212/636/52 211/633/52 216/648/52
f 220/658/54 223/667/54 221/661/54 218/652/54
f 219/655/50 220/659/50 218/653/50 217/649/50
f 224/670/55 219/656/55 217/650/55 222/664/55
f 223/668/51 224/671/51 222/665/51 221/662/51
f 222/666/56 217/651/56 218/654/56 221/663/56
f 223/669/57 220/660/57 219/657/57 224/672/57
f 228/682/57 231/691/57 229/685/57 226/676/57
f 227/679/50 228/683/50 226/677/50 225/673/50
f 232/694/56 227/680/56 225/674/56 230/688/56
f 231/692/51 232/695/51 230/689/51 229/686/51
f 230/690/54 225/675/54 226/678/54 229/687/54
f 231/693/55 228/684/55 227/681/55 232/696/55
f 236/706/55 239/715/55 237/709/55 234/700/55
f 235/703/50 236/707/50 234/701/50 233/697/50
f 240/718/54 235/704/54 233/698/54 238/712/54
f 239/716/51 240/719/51 238/713/51 237/710/51
f 238/714/57 233/699/57 234/702/57 237/711/57
f 239/717/56 236/708/56 235/705/56 240/720/56
f 244/730/56 247/739/56 245/733/56 242/724/56
f 243/727/50 244/731/50 242/725/50 241/721/50
f 248/742/57 243/728/57 241/722/57 246/736/57
f 247/740/51 248/743/51 246/737/51 245/734/51
f 246/738/55 241/723/55 242/726/55 245/735/55
f 247/741/54 244/732/54 243/729/54 248/744/54
f 252/754/26 255/763/26 253/757/26 250/748/26
f 251/751/50 252/755/50 250/749/50 249/745/50
f 256/766/25 251/752/25 249/746/25 254/760/25
f 255/764/51 256/767/51 254/761/51 253/758/51
f 254/762/53 249/747/53 250/750/53 253/759/53
f 255/765/52 252/756/52 251/753/52 256/768/52
f 260/778/52 263/787/52 261/781/52 258/772/52
f 259/775/50 260/779/50 258/773/50 257/769/50
f 264/790/53 259/776/53 257/770/53 262/784/53
f 263/788/51 264/791/51 262/785/51 261/782/51
f 262/786/26 257/771/26 258/774/26 261/783/26
f 263/789/25 260/780/25 259/777/25 264/792/25
f 268/802/53 271/811/53 269/805/53 266/796/53
f 267/799/50 268/803/50 266/797/50 265/793/50
f 272/814/52 267/800/52 265/794/52 270/808/52
f 271/812/51 272/815/51 270/809/51 269/806/51
f 270/810/25 265/795/25 266/798/25 269/807/25
f 271/813/26 268/804/26 267/801/26 272/816/26
f 276/826/65 279/835/65 277/829/65 274/820/65
f 275/823/62 276/827/62 274/821/62 273/817/62
f 280/838/63 275/824/63 273/818/63 278/832/63
f 279/836/64 280/839/64 278/833/64 277/830/64
f 278/834/25 273/819/25 274/822/25 277/831/25
f 279/837/26 276/828/26 275/825/26 280/840/26
f 284/850/61 287/859/61 285/853/61 282/844/61
f 283/847/58 284/851/58 282/845/58 281/841/58
f 288/862/59 283/848/59 281/842/59 286/856/59
f 287/860/82 288/863/82 286/857/82 285/854/82
f 286/858/25 281/843/25 282/846/25 285/855/25
f 287/861/26 284/852/26 283/849/26 288/864/26
f 292/874/83 295/883/83 293/877/83 290/868/83
f 291/871/58 292/875/58 290/869/58 289/865/58
f 296/886/84 291/872/84 289/866/84 294/880/84
f 295/884/82 296/887/82 294/881/82 293/878/82
f 294/882/85 289/867/85 290/870/85 293/879/85
f 295/885/86 292/876/86 291/873/86 296/888/86
f 300/898/87 303/907/87 301/901/87 298/892/87
f 299/895/88 300/899/88 298/893/88 297/889/88
f 304/910/89 299/896/89 297/890/89 302/904/89
f 303/908/90 304/911/90 302/905/90 301/902/90
f 302/906/25 297/891/25 298/894/25 301/903/25
f 303/909/26 300/900/26 299/897/26 304/912/26
f 308/922/74 311/931/74 309/925/74 306/916/74
f 307/919/50 308/923/50 306/917/50 305/913/50
f 312/934/75 307/920/75 305/914/75 310/928/75
f 311/932/51 312/935/51 310/929/51 309/926/51
f 310/930/76 305/915/76 306/918/76 309/927/76
f 311/933/77 308/924/77 307/921/77 312/936/77
f 316/946/91 319/955/91 317/949/91 314/940/91
f 315/943/92 316/947/92 314/941/92 313/937/92
f 320/958/93 315/944/93 313/938/93 318/952/93
f 319/956/94 320/959/94 318/953/94 317/950/94
f 318/954/76 313/939/76 314/942/76 317/951/76
f 319/957/77 316/948/77 315/945/77 320/960/77
f 324/970/53 327/979/53 325/973/53 322/964/53
f 323/967/50 324/971/50 322/965/50 321/961/50
f 328/982/52 323/968/52 321/962/52 326/976/52
f 327/980/51 328/983/51 326/977/51 325/974/51
f 326/978/25 321/963/25 322/966/25 325/975/25
f 327/981/26 324/972/26 323/969/26 328/984/26
f 332/994/53 335/1003/53 333/997/53 330/988/53
f 331/991/50 332/995/50 330/989/50 329/985/50
f 336/1006/52 331/992/52 329/986/52 334/1000/52
f 335/1004/51 336/1007/51 334/1001/51 333/998/51
f 334/1002/25 329/987/25 330/990/25 333/999/25
f 335/1005/26 332/996/26 331/993/26 336/1008/26
