# Blender 3.6.23
# www.blender.org
mtllib mgm172.mtl
o cube.033
v 0.252802 0.329065 3.593622
v 0.252802 0.329065 3.345577
v 0.033560 0.109823 3.593622
v 0.033560 0.109823 3.345577
v 0.033560 0.548307 3.345577
v 0.033560 0.548307 3.593622
v -0.185682 0.329065 3.345577
v -0.185682 0.329065 3.593622
vn -0.0000 -0.0000 -1.0000
vn 0.7071 -0.7071 -0.0000
vn -0.0000 -0.0000 1.0000
vn -0.7071 0.7071 -0.0000
vn 0.7071 0.7071 -0.0000
vn -0.7071 -0.7071 -0.0000
vt 0.468750 0.359375
vt 0.515625 0.359375
vt 0.515625 0.406250
vt 0.468750 0.406250
vt 0.187500 0.500000
vt 0.218750 0.500000
vt 0.218750 0.546875
vt 0.187500 0.546875
vt 0.562500 0.359375
vt 0.562500 0.406250
vt 0.125000 0.343750
vt 0.156250 0.343750
vt 0.156250 0.390625
vt 0.125000 0.390625
vt 0.656250 0.875000
vt 0.609375 0.875000
vt 0.609375 0.843750
vt 0.656250 0.843750
vt 0.656250 0.812500
vt 0.609375 0.812500
s 0
usemtl m_3d129c8e-99b8-87f8-f19d-fdabdadc8bf4
f 4/1/1 7/2/1 5/3/1 2/4/1
f 3/5/2 4/6/2 2/7/2 1/8/2
f 8/2/3 3/9/3 1/10/3 6/3/3
f 7/11/4 8/12/4 6/13/4 5/14/4
f 6/15/5 1/16/5 2/17/5 5/18/5
f 7/19/6 4/20/6 3/17/6 8/18/6
o cube.034
v 0.208954 0.329065 3.717644
v 0.208954 0.329065 3.593622
v 0.033560 0.153672 3.717644
v 0.033560 0.153672 3.593622
v 0.033560 0.504459 3.593622
v 0.033560 0.504459 3.717644
v -0.141833 0.329065 3.593622
v -0.141833 0.329065 3.717644
vn -0.0000 -0.0000 -1.0000
vn 0.7071 -0.7071 -0.0000
vn -0.0000 -0.0000 1.0000
vn -0.7071 0.7071 -0.0000
vn 0.7071 0.7071 -0.0000
vn -0.7071 -0.7071 -0.0000
vt 0.359375 0.328125
vt 0.390625 0.328125
vt 0.390625 0.359375
vt 0.359375 0.359375
vt 0.218750 0.328125
vt 0.234375 0.328125
vt 0.234375 0.359375
vt 0.218750 0.359375
vt 0.468750 0.328125
vt 0.500000 0.328125
vt 0.500000 0.359375
vt 0.468750 0.359375
vt 0.062500 0.296875
vt 0.078125 0.296875
vt 0.078125 0.328125
vt 0.062500 0.328125
vt 0.406250 0.328125
vt 0.375000 0.328125
vt 0.375000 0.312500
vt 0.406250 0.312500
vt 0.500000 0.312500
vt 0.468750 0.312500
s 0
usemtl m_3d129c8e-99b8-87f8-f19d-fdabdadc8bf4
f 12/21/7 15/22/7 13/23/7 10/24/7
f 11/25/8 12/26/8 10/27/8 9/28/8
f 16/29/9 11/30/9 9/31/9 14/32/9
f 15/33/10 16/34/10 14/35/10 13/36/10
f 14/37/11 9/38/11 10/39/11 13/40/11
f 15/41/12 12/42/12 11/29/12 16/30/12
o cube.036
v -0.036822 0.390670 1.965286
v -2.094191 0.390669 0.080054
v -0.036822 0.328659 1.965286
v -2.094191 0.328658 0.080054
v -2.240821 0.390669 0.240072
v -0.183451 0.390670 2.125304
v -2.240821 0.328658 0.240072
v -0.183451 0.328659 2.125304
vn -0.7373 -0.0000 -0.6756
vn 0.6756 -0.0000 -0.7373
vn 0.7373 -0.0000 0.6756
vn -0.6756 -0.0000 0.7373
vn -0.0000 1.0000 -0.0000
vn -0.0000 -1.0000 -0.0000
vt 0.671875 0.968750
vt 0.703125 0.968750
vt 0.703125 0.984375
vt 0.671875 0.984375
vt 0.421875 0.906250
vt 0.781250 0.906250
vt 0.781250 0.921875
vt 0.421875 0.921875
vt 0.671875 0.953125
vt 0.703125 0.953125
vt 0.515625 0.687500
vt 0.875000 0.687500
vt 0.875000 0.703125
vt 0.515625 0.703125
vt 0.187500 0.906250
vt 0.156250 0.906250
vt 0.156250 0.546875
vt 0.187500 0.546875
vt 0.218750 0.546875
vt 0.218750 0.906250
s 0
usemtl m_3d129c8e-99b8-87f8-f19d-fdabdadc8bf4
f 20/43/13 23/44/13 21/45/13 18/46/13
f 19/47/14 20/48/14 18/49/14 17/50/14
f 24/51/15 19/52/15 17/44/15 22/43/15
f 23/53/16 24/54/16 22/55/16 21/56/16
f 22/57/17 17/58/17 18/59/17 21/60/17
f 23/61/18 20/60/18 19/57/18 24/62/18
o cube.037
v -0.186033 0.390669 0.245026
v -0.186033 0.390669 -0.003018
v -0.186033 0.328658 0.245026
v -0.186033 0.328658 -0.003018
v -2.232397 0.390669 -0.003018
v -2.232397 0.390669 0.245026
v -2.232397 0.328658 -0.003018
v -2.232397 0.328658 0.245026
vn -0.0000 -0.0000 -1.0000
vn 1.0000 -0.0000 -0.0000
vn -0.0000 -0.0000 1.0000
vn -1.0000 -0.0000 -0.0000
vn -0.0000 1.0000 -0.0000
vn -0.0000 -1.0000 -0.0000
vt 0.468750 0.437500
vt 0.734375 0.437500
vt 0.734375 0.453125
vt 0.468750 0.453125
vt 0.671875 0.937500
vt 0.703125 0.937500
vt 0.703125 0.953125
vt 0.671875 0.953125
vt 0.562500 0.734375
vt 0.828125 0.734375
vt 0.828125 0.750000
vt 0.562500 0.750000
vt 0.125000 0.312500
vt 0.156250 0.312500
vt 0.156250 0.328125
vt 0.125000 0.328125
vt 0.578125 0.812500
vt 0.312500 0.812500
vt 0.312500 0.781250
vt 0.578125 0.781250
vt 0.578125 0.750000
vt 0.312500 0.750000
s 0
usemtl m_3d129c8e-99b8-87f8-f19d-fdabdadc8bf4
f 28/63/19 31/64/19 29/65/19 26/66/19
f 27/67/20 28/68/20 26/69/20 25/70/20
f 32/71/21 27/72/21 25/73/21 30/74/21
f 31/75/22 32/76/22 30/77/22 29/78/22
f 30/79/23 25/80/23 26/81/23 29/82/23
f 31/83/24 28/84/24 27/81/24 32/82/24
o cube.042
v -0.271816 0.390670 1.913759
v -0.078883 0.390669 1.720826
v -0.271816 0.328659 1.913759
v -0.078883 0.328658 1.720826
v -1.745123 0.390669 0.054586
v -1.938056 0.390669 0.247519
v -1.745123 0.328658 0.054586
v -1.938056 0.328658 0.247519
vn 0.7071 -0.0000 -0.7071
vn 0.7071 -0.0000 0.7071
vn -0.7071 -0.0000 0.7071
vn -0.7071 -0.0000 -0.7071
vn -0.0000 1.0000 -0.0000
vn -0.0000 -1.0000 -0.0000
vt 0.515625 0.468750
vt 0.812500 0.468750
vt 0.812500 0.484375
vt 0.515625 0.484375
vt 0.156250 0.312500
vt 0.187500 0.312500
vt 0.187500 0.328125
vt 0.156250 0.328125
vt 0.515625 0.453125
vt 0.812500 0.453125
vt 0.218750 0.312500
vt 0.218750 0.328125
vt 0.609375 0.875000
vt 0.312500 0.875000
vt 0.312500 0.843750
vt 0.609375 0.843750
vt 0.609375 0.812500
vt 0.312500 0.812500
s 0
usemtl m_3d129c8e-99b8-87f8-f19d-fdabdadc8bf4
f 36/85/25 39/86/25 37/87/25 34/88/25
f 35/89/26 36/90/26 34/91/26 33/92/26
f 40/93/27 35/94/27 33/86/27 38/85/27
f 39/90/28 40/95/28 38/96/28 37/91/28
f 38/97/29 33/98/29 34/99/29 37/100/29
f 39/101/30 36/102/30 35/99/30 40/100/30
o cube.043
v -0.124022 0.390670 1.888318
v -0.124022 0.390669 0.245026
v -0.124022 0.328659 1.888318
v -0.124022 0.328658 0.245026
v -0.372066 0.390669 0.245026
v -0.372066 0.390670 1.888318
v -0.372066 0.328658 0.245026
v -0.372066 0.328659 1.888318
vn -0.0000 -0.0000 -1.0000
vn 1.0000 -0.0000 -0.0000
vn -0.0000 -0.0000 1.0000
vn -1.0000 -0.0000 -0.0000
vn -0.0000 1.0000 -0.0000
vn -0.0000 -1.0000 -0.0000
vt 0.218750 0.312500
vt 0.250000 0.312500
vt 0.250000 0.328125
vt 0.218750 0.328125
vt 0.578125 0.531250
vt 0.781250 0.531250
vt 0.781250 0.546875
vt 0.578125 0.546875
vt 0.281250 0.312500
vt 0.281250 0.328125
vt 0.468750 0.406250
vt 0.671875 0.406250
vt 0.671875 0.421875
vt 0.468750 0.421875
vt 0.437500 0.578125
vt 0.406250 0.578125
vt 0.406250 0.375000
vt 0.437500 0.375000
vt 0.468750 0.375000
vt 0.468750 0.578125
s 0
usemtl m_3d129c8e-99b8-87f8-f19d-fdabdadc8bf4
f 44/103/31 47/104/31 45/105/31 42/106/31
f 43/107/32 44/108/32 42/109/32 41/110/32
f 48/104/33 43/111/33 41/112/33 46/105/33
f 47/113/34 48/114/34 46/115/34 45/116/34
f 46/117/35 41/118/35 42/119/35 45/120/35
f 47/121/36 44/120/36 43/117/36 48/122/36
o cube.044
v -0.744132 0.390669 1.237203
v -0.744132 0.390669 0.245026
v -0.744132 0.328658 1.237203
v -0.744132 0.328658 0.245026
v -1.116198 0.390669 0.245026
v -1.116198 0.390669 1.237203
v -1.116198 0.328658 0.245026
v -1.116198 0.328658 1.237203
vn -0.0000 -0.0000 -1.0000
vn 1.0000 -0.0000 -0.0000
vn -0.0000 -0.0000 1.0000
vn -1.0000 -0.0000 -0.0000
vn -0.0000 1.0000 -0.0000
vn -0.0000 -1.0000 -0.0000
vt 0.656250 0.812500
vt 0.703125 0.812500
vt 0.703125 0.828125
vt 0.656250 0.828125
vt 0.609375 0.890625
vt 0.734375 0.890625
vt 0.734375 0.906250
vt 0.609375 0.906250
vt 0.296875 0.328125
vt 0.343750 0.328125
vt 0.343750 0.343750
vt 0.296875 0.343750
vt 0.609375 0.875000
vt 0.734375 0.875000
vt 0.515625 0.578125
vt 0.468750 0.578125
vt 0.468750 0.453125
vt 0.515625 0.453125
vt 0.234375 0.375000
vt 0.187500 0.375000
vt 0.187500 0.500000
vt 0.234375 0.500000
s 0
usemtl m_3d129c8e-99b8-87f8-f19d-fdabdadc8bf4
f 52/123/37 55/124/37 53/125/37 50/126/37
f 51/127/38 52/128/38 50/129/38 49/130/38
f 56/131/39 51/132/39 49/133/39 54/134/39
f 55/135/40 56/136/40 54/128/40 53/127/40
f 54/137/41 49/138/41 50/139/41 53/140/41
f 55/141/42 52/142/42 51/143/42 56/144/42
o cube.045
v -0.372066 0.390669 1.609269
v -0.372066 0.390669 0.245026
v -0.372066 0.328658 1.609269
v -0.372066 0.328658 0.245026
v -0.744132 0.390669 0.245026
v -0.744132 0.390669 1.609269
v -0.744132 0.328658 0.245026
v -0.744132 0.328658 1.609269
vn -0.0000 -0.0000 -1.0000
vn 1.0000 -0.0000 -0.0000
vn -0.0000 -0.0000 1.0000
vn -1.0000 -0.0000 -0.0000
vn -0.0000 1.0000 -0.0000
vn -0.0000 -1.0000 -0.0000
vt 0.656250 0.656250
vt 0.703125 0.656250
vt 0.703125 0.671875
vt 0.656250 0.671875
vt 0.578125 0.500000
vt 0.750000 0.500000
vt 0.750000 0.515625
vt 0.578125 0.515625
vt 0.656250 0.640625
vt 0.703125 0.640625
vt 0.000000 0.390625
vt 0.171875 0.390625
vt 0.171875 0.406250
vt 0.000000 0.406250
vt 0.359375 0.671875
vt 0.312500 0.671875
vt 0.312500 0.500000
vt 0.359375 0.500000
vt 0.406250 0.500000
vt 0.406250 0.671875
s 0
usemtl m_3d129c8e-99b8-87f8-f19d-fdabdadc8bf4
f 60/145/43 63/146/43 61/147/43 58/148/43
f 59/149/44 60/150/44 58/151/44 57/152/44
f 64/153/45 59/154/45 57/146/45 62/145/45
f 63/155/46 64/156/46 62/157/46 61/158/46
f 62/159/47 57/160/47 58/161/47 61/162/47
f 63/163/48 60/162/48 59/159/48 64/164/48
o cube.046
v -1.116198 0.390669 0.865136
v -1.116198 0.390669 0.245026
v -1.116198 0.328658 0.865136
v -1.116198 0.328658 0.245026
v -1.550276 0.390669 0.245026
v -1.550276 0.390669 0.865136
v -1.550276 0.328658 0.245026
v -1.550276 0.328658 0.865136
vn -0.0000 -0.0000 -1.0000
vn 1.0000 -0.0000 -0.0000
vn -0.0000 -0.0000 1.0000
vn -1.0000 -0.0000 -0.0000
vn -0.0000 1.0000 -0.0000
vn -0.0000 -1.0000 -0.0000
vt 0.156250 0.343750
vt 0.218750 0.343750
vt 0.218750 0.359375
vt 0.156250 0.359375
vt 0.000000 0.359375
vt 0.078125 0.359375
vt 0.078125 0.375000
vt 0.000000 0.375000
vt 0.296875 0.343750
vt 0.359375 0.343750
vt 0.359375 0.359375
vt 0.296875 0.359375
vt 0.234375 0.359375
vt 0.234375 0.375000
vt 0.156250 0.375000
vt 0.062500 0.484375
vt 0.000000 0.484375
vt 0.000000 0.406250
vt 0.062500 0.406250
vt 0.578125 0.500000
vt 0.515625 0.500000
vt 0.515625 0.578125
vt 0.578125 0.578125
s 0
usemtl m_3d129c8e-99b8-87f8-f19d-fdabdadc8bf4
f 68/165/49 71/166/49 69/167/49 66/168/49
f 67/169/50 68/170/50 66/171/50 65/172/50
f 72/173/51 67/174/51 65/175/51 70/176/51
f 71/168/52 72/177/52 70/178/52 69/179/52
f 70/180/53 65/181/53 66/182/53 69/183/53
f 71/184/54 68/185/54 67/186/54 72/187/54
o cube.047
v -2.195190 0.963526 -0.043045
v -2.195190 0.938564 -0.302292
v -2.195190 0.358616 0.015202
v -2.195190 0.333653 -0.244045
v -2.226196 0.938564 -0.302292
v -2.226196 0.963526 -0.043045
v -2.226196 0.333653 -0.244045
v -2.226196 0.358616 0.015202
vn -0.0000 -0.0958 -0.9954
vn 1.0000 -0.0000 -0.0000
vn -0.0000 0.0958 0.9954
vn -1.0000 -0.0000 -0.0000
vn -0.0000 0.9954 -0.0958
vn -0.0000 -0.9954 0.0958
vt 0.390625 0.421875
vt 0.406250 0.421875
vt 0.406250 0.500000
vt 0.390625 0.500000
vt 0.359375 0.421875
vt 0.359375 0.500000
vt 0.390625 0.328125
vt 0.406250 0.328125
vt 0.406250 0.406250
vt 0.390625 0.406250
vt 0.062500 0.406250
vt 0.093750 0.406250
vt 0.093750 0.484375
vt 0.062500 0.484375
vt 0.187500 0.421875
vt 0.171875 0.421875
vt 0.171875 0.390625
vt 0.187500 0.390625
vt 0.078125 0.328125
vt 0.062500 0.328125
vt 0.062500 0.359375
vt 0.078125 0.359375
s 0
usemtl m_3d129c8e-99b8-87f8-f19d-fdabdadc8bf4
f 76/188/55 79/189/55 77/190/55 74/191/55
f 75/192/56 76/188/56 74/191/56 73/193/56
f 80/194/57 75/195/57 73/196/57 78/197/57
f 79/198/58 80/199/58 78/200/58 77/201/58
f 78/202/59 73/203/59 74/204/59 77/205/59
f 79/206/60 76/207/60 75/208/60 80/209/60
o cube.048
v -0.192234 0.390669 -0.003018
v -0.192234 0.390669 -0.251062
v -0.192234 0.328658 -0.003018
v -0.192234 0.328658 -0.251062
v -2.232397 0.390669 -0.251062
v -2.232397 0.390669 -0.003018
v -2.232397 0.328658 -0.251062
v -2.232397 0.328658 -0.003018
vn -0.0000 -0.0000 -1.0000
vn 1.0000 -0.0000 -0.0000
vn -0.0000 -0.0000 1.0000
vn -1.0000 -0.0000 -0.0000
vn -0.0000 1.0000 -0.0000
vn -0.0000 -1.0000 -0.0000
vt 0.578125 0.796875
vt 0.828125 0.796875
vt 0.828125 0.812500
vt 0.578125 0.812500
vt 0.281250 0.312500
vt 0.312500 0.312500
vt 0.312500 0.328125
vt 0.281250 0.328125
vt 0.578125 0.781250
vt 0.828125 0.781250
vt 0.671875 0.703125
vt 0.703125 0.703125
vt 0.703125 0.718750
vt 0.671875 0.718750
vt 0.656250 0.640625
vt 0.406250 0.640625
vt 0.406250 0.609375
vt 0.656250 0.609375
vt 0.656250 0.578125
vt 0.406250 0.578125
s 0
usemtl m_3d129c8e-99b8-87f8-f19d-fdabdadc8bf4
f 84/210/61 87/211/61 85/212/61 82/213/61
f 83/214/62 84/215/62 82/216/62 81/217/62
f 88/218/63 83/219/63 81/211/63 86/210/63
f 87/220/64 88/221/64 86/222/64 85/223/64
f 86/224/65 81/225/65 82/226/65 85/227/65
f 87/228/66 84/229/66 83/226/66 88/227/66
o cube.049
v -2.195190 0.962296 -0.040771
v -2.195190 0.895850 -0.201185
v -2.195190 0.389388 0.196535
v -2.195190 0.322943 0.036121
v -2.226196 0.895850 -0.201185
v -2.226196 0.962296 -0.040771
v -2.226196 0.322943 0.036121
v -2.226196 0.389388 0.196535
vn -0.0000 -0.3827 -0.9239
vn 1.0000 -0.0000 -0.0000
vn -0.0000 0.3827 0.9239
vn -1.0000 -0.0000 -0.0000
vn -0.0000 0.9239 -0.3827
vn -0.0000 -0.9239 0.3827
vt 0.078125 0.296875
vt 0.093750 0.296875
vt 0.093750 0.375000
vt 0.078125 0.375000
vt 0.109375 0.296875
vt 0.109375 0.375000
vt 0.125000 0.296875
vt 0.125000 0.375000
vt 0.406250 0.296875
vt 0.421875 0.296875
vt 0.421875 0.375000
vt 0.406250 0.375000
vt 0.359375 0.343750
vt 0.343750 0.343750
vt 0.343750 0.328125
vt 0.359375 0.328125
vt 0.546875 0.312500
vt 0.531250 0.312500
vt 0.531250 0.328125
vt 0.546875 0.328125
s 0
usemtl m_3d129c8e-99b8-87f8-f19d-fdabdadc8bf4
f 92/230/67 95/231/67 93/232/67 90/233/67
f 91/231/68 92/234/68 90/235/68 89/232/68
f 96/234/69 91/236/69 89/237/69 94/235/69
f 95/238/70 96/239/70 94/240/70 93/241/70
f 94/242/71 89/243/71 90/244/71 93/245/71
f 95/246/72 92/247/72 91/248/72 96/249/72
o cube.050
v 0.245462 0.390670 2.125304
v 2.302832 0.390669 0.240072
v 0.245462 0.328659 2.125304
v 2.302832 0.328658 0.240072
v 2.156202 0.390669 0.080054
v 0.098833 0.390670 1.965286
v 2.156202 0.328658 0.080054
v 0.098833 0.328659 1.965286
vn 0.7373 -0.0000 -0.6756
vn 0.6756 -0.0000 0.7373
vn -0.7373 -0.0000 0.6756
vn -0.6756 -0.0000 -0.7373
vn -0.0000 1.0000 -0.0000
vn -0.0000 -1.0000 -0.0000
vt 0.156250 0.375000
vt 0.187500 0.375000
vt 0.187500 0.390625
vt 0.156250 0.390625
vt 0.312500 0.703125
vt 0.671875 0.703125
vt 0.671875 0.718750
vt 0.312500 0.718750
vt 0.656250 0.625000
vt 0.687500 0.625000
vt 0.687500 0.640625
vt 0.656250 0.640625
vt 0.421875 0.921875
vt 0.781250 0.921875
vt 0.781250 0.937500
vt 0.421875 0.937500
vt 0.125000 0.906250
vt 0.093750 0.906250
vt 0.093750 0.546875
vt 0.125000 0.546875
vt 0.156250 0.546875
vt 0.156250 0.906250
s 0
usemtl m_3d129c8e-99b8-87f8-f19d-fdabdadc8bf4
f 100/250/73 103/251/73 101/252/73 98/253/73
f 99/254/74 100/255/74 98/256/74 97/257/74
f 104/258/75 99/259/75 97/260/75 102/261/75
f 103/262/76 104/263/76 102/264/76 101/265/76
f 102/266/77 97/267/77 98/268/77 101/269/77
f 103/270/78 100/269/78 99/266/78 104/271/78
o cube.051
v 2.294408 0.390669 0.245026
v 2.294408 0.390669 -0.003018
v 2.294408 0.328658 0.245026
v 2.294408 0.328658 -0.003018
v 0.260446 0.390669 -0.003018
v 0.260446 0.390669 0.245026
v 0.260446 0.328658 -0.003018
v 0.260446 0.328658 0.245026
vn -0.0000 -0.0000 -1.0000
vn 1.0000 -0.0000 -0.0000
vn -0.0000 -0.0000 1.0000
vn -1.0000 -0.0000 -0.0000
vn -0.0000 1.0000 -0.0000
vn -0.0000 -1.0000 -0.0000
vt 0.562500 0.718750
vt 0.812500 0.718750
vt 0.812500 0.734375
vt 0.562500 0.734375
vt 0.656250 0.609375
vt 0.687500 0.609375
vt 0.687500 0.625000
vt 0.656250 0.625000
vt 0.468750 0.421875
vt 0.718750 0.421875
vt 0.718750 0.437500
vt 0.468750 0.437500
vt 0.656250 0.593750
vt 0.687500 0.593750
vt 0.562500 0.750000
vt 0.312500 0.750000
vt 0.312500 0.718750
vt 0.656250 0.640625
vt 0.406250 0.640625
vt 0.406250 0.671875
vt 0.656250 0.671875
s 0
usemtl m_3d129c8e-99b8-87f8-f19d-fdabdadc8bf4
f 108/272/79 111/273/79 109/274/79 106/275/79
f 107/276/80 108/277/80 106/278/80 105/279/80
f 112/280/81 107/281/81 105/282/81 110/283/81
f 111/284/82 112/285/82 110/277/82 109/276/82
f 110/286/83 105/287/83 106/288/83 109/272/83
f 111/289/84 108/290/84 107/291/84 112/292/84
o cube.052
v 1.991297 0.390669 0.238749
v 1.807134 0.390669 0.054586
v 1.991297 0.328658 0.238749
v 1.807134 0.328658 0.054586
v 0.140894 0.390669 1.720826
v 0.325057 0.390670 1.904989
v 0.140894 0.328658 1.720826
v 0.325057 0.328659 1.904989
vn -0.7071 -0.0000 -0.7071
vn 0.7071 -0.0000 -0.7071
vn 0.7071 -0.0000 0.7071
vn -0.7071 -0.0000 0.7071
vn -0.0000 1.0000 -0.0000
vn -0.0000 -1.0000 -0.0000
vt 0.515625 0.671875
vt 0.812500 0.671875
vt 0.812500 0.687500
vt 0.515625 0.687500
vt 0.656250 0.578125
vt 0.687500 0.578125
vt 0.687500 0.593750
vt 0.656250 0.593750
vt 0.515625 0.484375
vt 0.812500 0.484375
vt 0.812500 0.500000
vt 0.515625 0.500000
vt 0.671875 0.984375
vt 0.703125 0.984375
vt 0.703125 1.000000
vt 0.671875 1.000000
vt 0.515625 0.703125
vt 0.218750 0.703125
vt 0.218750 0.671875
vt 0.609375 0.875000
vt 0.312500 0.875000
vt 0.312500 0.906250
vt 0.609375 0.906250
s 0
usemtl m_3d129c8e-99b8-87f8-f19d-fdabdadc8bf4
f 116/293/85 119/294/85 117/295/85 114/296/85
f 115/297/86 116/298/86 114/299/86 113/300/86
f 120/301/87 115/302/87 113/303/87 118/304/87
f 119/305/88 120/306/88 118/307/88 117/308/88
f 118/309/89 113/310/89 114/311/89 117/293/89
f 119/312/90 116/313/90 115/314/90 120/315/90
o cube.053
v 0.434077 0.390670 1.888318
v 0.434077 0.390669 0.245026
v 0.434077 0.328659 1.888318
v 0.434077 0.328658 0.245026
v 0.062011 0.390669 0.245026
v 0.062011 0.390670 1.888318
v 0.062011 0.328658 0.245026
v 0.062011 0.328659 1.888318
vn -0.0000 -0.0000 -1.0000
vn 1.0000 -0.0000 -0.0000
vn -0.0000 -0.0000 1.0000
vn -1.0000 -0.0000 -0.0000
vn -0.0000 1.0000 -0.0000
vn -0.0000 -1.0000 -0.0000
vt 0.640625 0.375000
vt 0.687500 0.375000
vt 0.687500 0.390625
vt 0.640625 0.390625
vt 0.578125 0.562500
vt 0.781250 0.562500
vt 0.781250 0.578125
vt 0.578125 0.578125
vt 0.125000 0.328125
vt 0.171875 0.328125
vt 0.171875 0.343750
vt 0.125000 0.343750
vt 0.578125 0.546875
vt 0.781250 0.546875
vt 0.265625 0.906250
vt 0.218750 0.906250
vt 0.218750 0.703125
vt 0.265625 0.703125
vt 0.312500 0.703125
vt 0.312500 0.906250
s 0
usemtl m_3d129c8e-99b8-87f8-f19d-fdabdadc8bf4
f 124/316/91 127/317/91 125/318/91 122/319/91
f 123/320/92 124/321/92 122/322/92 121/323/92
f 128/324/93 123/325/93 121/326/93 126/327/93
f 127/328/94 128/329/94 126/321/94 125/320/94
f 126/330/95 121/331/95 122/332/95 125/333/95
f 127/334/96 124/333/96 123/330/96 128/335/96
o cube.054
v 1.178210 0.390669 1.237203
v 1.178210 0.390669 0.245026
v 1.178210 0.328658 1.237203
v 1.178210 0.328658 0.245026
v 0.806143 0.390669 0.245026
v 0.806143 0.390669 1.237203
v 0.806143 0.328658 0.245026
v 0.806143 0.328658 1.237203
vn -0.0000 -0.0000 -1.0000
vn 1.0000 -0.0000 -0.0000
vn -0.0000 -0.0000 1.0000
vn -1.0000 -0.0000 -0.0000
vn -0.0000 1.0000 -0.0000
vn -0.0000 -1.0000 -0.0000
vt 0.656250 0.859375
vt 0.703125 0.859375
vt 0.703125 0.875000
vt 0.656250 0.875000
vt 0.562500 0.390625
vt 0.687500 0.390625
vt 0.687500 0.406250
vt 0.562500 0.406250
vt 0.656250 0.843750
vt 0.703125 0.843750
vt 0.000000 0.375000
vt 0.125000 0.375000
vt 0.125000 0.390625
vt 0.000000 0.390625
vt 0.140625 0.546875
vt 0.093750 0.546875
vt 0.093750 0.421875
vt 0.140625 0.421875
vt 0.187500 0.421875
vt 0.187500 0.546875
s 0
usemtl m_3d129c8e-99b8-87f8-f19d-fdabdadc8bf4
f 132/336/97 135/337/97 133/338/97 130/339/97
f 131/340/98 132/341/98 130/342/98 129/343/98
f 136/344/99 131/345/99 129/337/99 134/336/99
f 135/346/100 136/347/100 134/348/100 133/349/100
f 134/350/101 129/351/101 130/352/101 133/353/101
f 135/354/102 132/353/102 131/350/102 136/355/102
o cube.055
v 0.806143 0.390669 1.609269
v 0.806143 0.390669 0.245026
v 0.806143 0.328658 1.609269
v 0.806143 0.328658 0.245026
v 0.434077 0.390669 0.245026
v 0.434077 0.390669 1.609269
v 0.434077 0.328658 0.245026
v 0.434077 0.328658 1.609269
vn -0.0000 -0.0000 -1.0000
vn 1.0000 -0.0000 -0.0000
vn -0.0000 -0.0000 1.0000
vn -1.0000 -0.0000 -0.0000
vn -0.0000 1.0000 -0.0000
vn -0.0000 -1.0000 -0.0000
vt 0.656250 0.828125
vt 0.703125 0.828125
vt 0.703125 0.843750
vt 0.656250 0.843750
vt 0.234375 0.406250
vt 0.406250 0.406250
vt 0.406250 0.421875
vt 0.234375 0.421875
vt 0.171875 0.328125
vt 0.218750 0.328125
vt 0.218750 0.343750
vt 0.171875 0.343750
vt 0.578125 0.515625
vt 0.750000 0.515625
vt 0.750000 0.531250
vt 0.578125 0.531250
vt 0.265625 0.671875
vt 0.218750 0.671875
vt 0.218750 0.500000
vt 0.265625 0.500000
vt 0.312500 0.500000
vt 0.312500 0.671875
s 0
usemtl m_3d129c8e-99b8-87f8-f19d-fdabdadc8bf4
f 140/356/103 143/357/103 141/358/103 138/359/103
f 139/360/104 140/361/104 138/362/104 137/363/104
f 144/364/105 139/365/105 137/366/105 142/367/105
f 143/368/106 144/369/106 142/370/106 141/371/106
f 142/372/107 137/373/107 138/374/107 141/375/107
f 143/376/108 140/375/108 139/372/108 144/377/108
o cube.056
v 1.612287 0.390669 0.865136
v 1.612287 0.390669 0.245026
v 1.612287 0.328658 0.865136
v 1.612287 0.328658 0.245026
v 1.178210 0.390669 0.245026
v 1.178210 0.390669 0.865136
v 1.178210 0.328658 0.245026
v 1.178210 0.328658 0.865136
vn -0.0000 -0.0000 -1.0000
vn 1.0000 -0.0000 -0.0000
vn -0.0000 -0.0000 1.0000
vn -1.0000 -0.0000 -0.0000
vn -0.0000 1.0000 -0.0000
vn -0.0000 -1.0000 -0.0000
vt 0.609375 0.359375
vt 0.671875 0.359375
vt 0.671875 0.375000
vt 0.609375 0.375000
vt 0.093750 0.406250
vt 0.171875 0.406250
vt 0.171875 0.421875
vt 0.093750 0.421875
vt 0.000000 0.343750
vt 0.062500 0.343750
vt 0.062500 0.359375
vt 0.000000 0.359375
vt 0.562500 0.375000
vt 0.640625 0.375000
vt 0.640625 0.390625
vt 0.562500 0.390625
vt 0.296875 0.500000
vt 0.234375 0.500000
vt 0.234375 0.421875
vt 0.296875 0.421875
vt 0.359375 0.421875
vt 0.359375 0.500000
s 0
usemtl m_3d129c8e-99b8-87f8-f19d-fdabdadc8bf4
f 148/378/109 151/379/109 149/380/109 146/381/109
f 147/382/110 148/383/110 146/384/110 145/385/110
f 152/386/111 147/387/111 145/388/111 150/389/111
f 151/390/112 152/391/112 150/392/112 149/393/112
f 150/394/113 145/395/113 146/396/113 149/397/113
f 151/398/114 148/397/114 147/394/114 152/399/114
o cube.057
v 2.294408 0.390669 -0.003018
v 2.294408 0.390669 -0.251062
v 2.294408 0.328658 -0.003018
v 2.294408 0.328658 -0.251062
v 0.266647 0.390669 -0.251062
v 0.266647 0.390669 -0.003018
v 0.266647 0.328658 -0.251062
v 0.266647 0.328658 -0.003018
vn -0.0000 -0.0000 -1.0000
vn 1.0000 -0.0000 -0.0000
vn -0.0000 -0.0000 1.0000
vn -1.0000 -0.0000 -0.0000
vn -0.0000 1.0000 -0.0000
vn -0.0000 -1.0000 -0.0000
vt 0.578125 0.765625
vt 0.828125 0.765625
vt 0.828125 0.781250
vt 0.578125 0.781250
vt 0.312500 0.312500
vt 0.343750 0.312500
vt 0.343750 0.328125
vt 0.312500 0.328125
vt 0.578125 0.750000
vt 0.828125 0.750000
vt 0.375000 0.312500
vt 0.375000 0.328125
vt 0.671875 1.000000
vt 0.421875 1.000000
vt 0.421875 0.968750
vt 0.671875 0.968750
vt 0.671875 0.937500
vt 0.421875 0.937500
s 0
usemtl m_3d129c8e-99b8-87f8-f19d-fdabdadc8bf4
f 156/400/115 159/401/115 157/402/115 154/403/115
f 155/404/116 156/405/116 154/406/116 153/407/116
f 160/408/117 155/409/117 153/401/117 158/400/117
f 159/405/118 160/410/118 158/411/118 157/406/118
f 158/412/119 153/413/119 154/414/119 157/415/119
f 159/416/120 156/417/120 155/414/120 160/415/120
o cube.058
v 2.294408 0.962296 -0.040771
v 2.294408 0.895850 -0.201185
v 2.294408 0.389388 0.196535
v 2.294408 0.322943 0.036121
v 2.263402 0.895850 -0.201185
v 2.263402 0.962296 -0.040771
v 2.263402 0.322943 0.036121
v 2.263402 0.389388 0.196535
vn -0.0000 -0.3827 -0.9239
vn 1.0000 -0.0000 -0.0000
vn -0.0000 0.3827 0.9239
vn -1.0000 -0.0000 -0.0000
vn -0.0000 0.9239 -0.3827
vn -0.0000 -0.9239 0.3827
vt 0.453125 0.296875
vt 0.468750 0.296875
vt 0.468750 0.375000
vt 0.453125 0.375000
vt 0.562500 0.296875
vt 0.578125 0.296875
vt 0.578125 0.375000
vt 0.562500 0.375000
vt 0.593750 0.296875
vt 0.593750 0.375000
vt 0.609375 0.296875
vt 0.609375 0.375000
vt 0.562500 0.328125
vt 0.546875 0.328125
vt 0.546875 0.312500
vt 0.562500 0.312500
vt 0.687500 0.406250
vt 0.671875 0.406250
vt 0.671875 0.421875
vt 0.687500 0.421875
s 0
usemtl m_3d129c8e-99b8-87f8-f19d-fdabdadc8bf4
f 164/418/121 167/419/121 165/420/121 162/421/121
f 163/422/122 164/423/122 162/424/122 161/425/122
f 168/423/123 163/426/123 161/427/123 166/424/123
f 167/426/124 168/428/124 166/429/124 165/427/124
f 166/430/125 161/431/125 162/432/125 165/433/125
f 167/434/126 164/435/126 163/436/126 168/437/126
o cube.059
v 0.031006 0.516454 -0.003018
v 0.031006 0.516454 -0.251062
v 0.206399 0.341061 -0.003018
v 0.206399 0.341061 -0.251062
v -0.144388 0.341061 -0.251062
v -0.144388 0.341061 -0.003018
v 0.031006 0.165667 -0.251062
v 0.031006 0.165667 -0.003018
vn -0.0000 -0.0000 -1.0000
vn 0.7071 0.7071 -0.0000
vn -0.0000 -0.0000 1.0000
vn -0.7071 -0.7071 -0.0000
vn -0.7071 0.7071 -0.0000
vn 0.7071 -0.7071 -0.0000
vt 0.500000 0.328125
vt 0.531250 0.328125
vt 0.531250 0.359375
vt 0.500000 0.359375
vt 0.562500 0.328125
vt 0.562500 0.359375
vt 0.609375 0.328125
vt 0.640625 0.328125
vt 0.640625 0.359375
vt 0.609375 0.359375
vt 0.671875 0.328125
vt 0.671875 0.359375
vt 0.031250 0.343750
vt 0.000000 0.343750
vt 0.000000 0.312500
vt 0.031250 0.312500
vt 0.062500 0.312500
vt 0.062500 0.343750
s 0
usemtl m_3d129c8e-99b8-87f8-f19d-fdabdadc8bf4
f 172/438/127 175/439/127 173/440/127 170/441/127
f 171/439/128 172/442/128 170/443/128 169/440/128
f 176/444/129 171/445/129 169/446/129 174/447/129
f 175/445/130 176/448/130 174/449/130 173/446/130
f 174/450/131 169/451/131 170/452/131 173/453/131
f 175/454/132 172/453/132 171/450/132 176/455/132
o cube.060
v 2.294408 0.963526 -0.043045
v 2.294408 0.938564 -0.302292
v 2.294408 0.358616 0.015202
v 2.294408 0.333653 -0.244045
v 2.263402 0.938564 -0.302292
v 2.263402 0.963526 -0.043045
v 2.263402 0.333653 -0.244045
v 2.263402 0.358616 0.015202
vn -0.0000 -0.0958 -0.9954
vn 1.0000 -0.0000 -0.0000
vn -0.0000 0.0958 0.9954
vn -1.0000 -0.0000 -0.0000
vn -0.0000 0.9954 -0.0958
vn -0.0000 -0.9954 0.0958
vt 0.421875 0.296875
vt 0.437500 0.296875
vt 0.437500 0.375000
vt 0.421875 0.375000
vt 0.234375 0.328125
vt 0.265625 0.328125
vt 0.265625 0.406250
vt 0.234375 0.406250
vt 0.453125 0.296875
vt 0.453125 0.375000
vt 0.296875 0.328125
vt 0.296875 0.406250
vt 0.515625 0.328125
vt 0.500000 0.328125
vt 0.500000 0.296875
vt 0.515625 0.296875
vt 0.531250 0.296875
vt 0.531250 0.328125
s 0
usemtl m_3d129c8e-99b8-87f8-f19d-fdabdadc8bf4
f 180/456/133 183/457/133 181/458/133 178/459/133
f 179/460/134 180/461/134 178/462/134 177/463/134
f 184/457/135 179/464/135 177/465/135 182/458/135
f 183/461/136 184/466/136 182/467/136 181/462/136
f 182/468/137 177/469/137 178/470/137 181/471/137
f 183/472/138 180/471/138 179/468/138 184/473/138
o cube.061
v 0.296651 0.329065 3.345577
v 0.296651 0.329065 -0.003018
v 0.033560 0.065975 3.345577
v 0.033560 0.065975 -0.003018
v 0.033560 0.592156 -0.003018
v 0.033560 0.592156 3.345577
v -0.229530 0.329065 -0.003018
v -0.229530 0.329065 3.345577
vn -0.0000 -0.0000 -1.0000
vn 0.7071 -0.7071 -0.0000
vn -0.0000 -0.0000 1.0000
vn -0.7071 0.7071 -0.0000
vn 0.7071 0.7071 -0.0000
vn -0.7071 -0.7071 -0.0000
vt 0.296875 0.359375
vt 0.343750 0.359375
vt 0.343750 0.406250
vt 0.296875 0.406250
vt 0.000000 0.953125
vt 0.421875 0.953125
vt 0.421875 1.000000
vt 0.000000 1.000000
vt 0.390625 0.359375
vt 0.390625 0.406250
vt 0.000000 0.906250
vt 0.421875 0.906250
vt 0.046875 0.906250
vt 0.000000 0.484375
vt 0.046875 0.484375
vt 0.093750 0.484375
vt 0.093750 0.906250
s 0
usemtl m_3d129c8e-99b8-87f8-f19d-fdabdadc8bf4
f 188/474/139 191/475/139 189/476/139 186/477/139
f 187/478/140 188/479/140 186/480/140 185/481/140
f 192/475/141 187/482/141 185/483/141 190/476/141
f 191/484/142 192/485/142 190/479/142 189/478/142
f 190/486/143 185/484/143 186/487/143 189/488/143
f 191/489/144 188/488/144 187/486/144 192/490/144
