# Blender 3.6.23
# www.blender.org
mtllib mgm31.mtl
o mesh.007
v -0.000000 -0.894448 7.636702
v 0.894449 0.000001 7.636702
v -0.000000 -0.894449 -0.269188
v 0.894449 -0.000000 -0.269188
v -0.894449 0.000001 7.636702
v 0.000000 0.894450 7.636702
v -0.894449 0.000000 -0.269188
v 0.000000 0.894449 -0.269188
vn 0.7071 -0.7071 -0.0000
vn -0.7071 0.7071 -0.0000
vn -0.0000 -0.0000 1.0000
vn -0.0000 -0.0000 -1.0000
vn -0.7071 -0.7071 -0.0000
vn 0.7071 0.7071 -0.0000
vt 0.062500 1.000000
vt 0.000000 1.000000
vt 0.000000 0.609375
vt 0.062500 0.609375
vt 0.128906 0.609375
vt 0.128906 1.000000
vt 0.066406 1.000000
vt 0.066406 0.609375
vt 0.367188 0.640625
vt 0.429688 0.640625
vt 0.429688 0.703125
vt 0.367188 0.703125
vt 0.433594 0.574219
vt 0.433594 0.636719
vt 0.371094 0.636719
vt 0.371094 0.574219
vt 0.195312 0.609375
vt 0.195312 1.000000
vt 0.132812 1.000000
vt 0.132812 0.609375
vt 0.261719 1.000000
vt 0.199219 1.000000
vt 0.199219 0.609375
vt 0.261719 0.609375
s 0
usemtl m_5b5e01c6-c424-68de-a3d4-60afe0164988
f 2/1/1 1/2/1 3/3/1 4/4/1
f 7/5/2 5/6/2 6/7/2 8/8/2
f 5/9/3 1/10/3 2/11/3 6/12/3
f 4/13/4 3/14/4 7/15/4 8/16/4
f 3/17/5 1/18/5 5/19/5 7/20/5
f 6/21/6 2/22/6 4/23/6 8/24/6
o mesh.008
v -0.000000 -0.614933 8.190114
v 0.614934 0.000001 8.190114
v -0.000000 -0.894448 7.636702
v 0.894449 0.000001 7.636702
v -0.614934 0.000001 8.190114
v 0.000000 0.614935 8.190114
v -0.894449 0.000001 7.636702
v 0.000000 0.894450 7.636702
v -0.503128 0.000002 11.036234
v -0.000000 -0.503126 11.036234
v 0.503128 0.000002 11.036234
v 0.000000 0.503129 11.036234
v -0.055903 0.000002 12.854589
v -0.000000 -0.055901 12.854589
v 0.055903 0.000002 12.854589
v 0.000000 0.055905 12.854589
vn 0.6659 -0.6659 0.3363
vn -0.6659 0.6659 0.3363
vn -0.0000 -0.0000 1.0000
vn -0.0000 -0.0000 -1.0000
vn -0.6659 -0.6659 0.3363
vn 0.6659 0.6659 0.3363
vn -0.7068 -0.7068 0.0278
vn 0.7068 -0.7068 0.0278
vn 0.7068 0.7068 0.0278
vn -0.7068 0.7068 0.0278
vn -0.6966 -0.6967 0.1713
vn 0.6966 -0.6967 0.1713
vn 0.6966 0.6967 0.1713
vn -0.6966 0.6967 0.1713
vt 0.365234 0.502504
vt 0.322266 0.502504
vt 0.312500 0.473468
vt 0.375000 0.473468
vt 0.417969 0.707843
vt 0.408203 0.736879
vt 0.365234 0.736879
vt 0.355469 0.707843
vt 0.265625 0.726562
vt 0.269531 0.726562
vt 0.269531 0.730469
vt 0.265625 0.730469
vt 0.062500 0.542969
vt 0.062500 0.605469
vt 0.000000 0.605469
vt 0.000000 0.542969
vt 0.316406 0.504718
vt 0.306641 0.533754
vt 0.263672 0.533754
vt 0.253906 0.504718
vt 0.349609 0.768129
vt 0.306641 0.768129
vt 0.296875 0.739093
vt 0.359375 0.739093
vt 0.302734 0.674433
vt 0.267578 0.674433
vt 0.361328 0.643183
vt 0.326172 0.643183
vt 0.345703 0.908808
vt 0.310547 0.908808
vt 0.404297 0.877558
vt 0.369141 0.877558
vt 0.287109 0.765625
vt 0.283203 0.765625
vt 0.345703 0.734375
vt 0.341797 0.734375
vt 0.330078 1.000000
vt 0.326172 1.000000
vt 0.388672 0.968750
vt 0.384766 0.968750
s 0
usemtl m_5b5e01c6-c424-68de-a3d4-60afe0164988
f 10/25/7 9/26/7 11/27/7 12/28/7
f 15/29/8 13/30/8 14/31/8 16/32/8
f 21/33/9 22/34/9 23/35/9 24/36/9
f 12/37/10 11/38/10 15/39/10 16/40/10
f 11/41/11 9/42/11 13/43/11 15/44/11
f 14/45/12 10/46/12 12/47/12 16/48/12
f 18/49/13 17/50/13 13/43/13 9/42/13
f 19/51/14 18/52/14 9/26/14 10/25/14
f 20/53/15 19/54/15 10/46/15 14/45/15
f 17/55/16 20/56/16 14/31/16 13/30/16
f 22/57/17 21/58/17 17/50/17 18/49/17
f 23/59/18 22/60/18 18/52/18 19/51/18
f 24/61/19 23/62/19 19/54/19 20/53/19
f 21/63/20 24/64/20 20/56/20 17/55/20
o mesh.009
v -0.447225 -0.447224 1.232931
v -0.447225 -0.447225 -0.269188
v -0.447225 -0.447225 -0.269188
v -1.173965 -1.173965 0.303048
v -1.173965 -1.173965 -0.269188
v -1.125515 -1.125515 -0.269188
v -0.834819 -0.834819 -0.269188
v -0.834819 -0.834819 1.232931
vn -0.0000 -1.0000 -0.0000
vn 0.7071 -0.7071 -0.0000
vn -0.7071 0.7071 -0.0000
vt 0.000000 1.000000
vt 0.265885 0.765625
vt 0.265885 0.737351
vt 0.269271 0.737351
vt 0.050781 1.000000
vt 0.023698 1.000000
vt 0.347656 0.925781
vt 0.371094 0.925781
vt 0.371094 1.000000
vt 0.347656 0.954055
vt 0.248177 0.559524
vt 0.224479 0.605469
vt 0.224479 0.531250
vt 0.244792 0.531250
vt 0.265625 0.925781
vt 0.292969 0.925781
vt 0.292969 1.000000
vt 0.265625 1.000000
vt 0.292969 0.921875
vt 0.265625 0.921875
vt 0.265625 0.847656
vt 0.292969 0.847656
s 0
usemtl m_5b5e01c6-c424-68de-a3d4-60afe0164988
f 25/65/21 26/65/21 27/65/21
f 28/66/22 29/67/22 30/68/22
f 27/69/21 31/70/21 29/65/21
f 29/71/22 31/72/22 32/73/22 28/74/22
f 28/75/23 32/76/23 31/77/23 30/78/23
f 27/79/23 31/80/23 32/81/23 25/82/23
f 25/83/22 32/84/22 31/85/22 26/86/22
o mesh.010
v 0.447225 -0.447224 1.232931
v 0.447225 -0.447225 -0.269188
v 0.447225 -0.447225 -0.269188
v 1.173965 -1.173965 0.303048
v 1.173965 -1.173965 -0.269188
v 1.125515 -1.125515 -0.269188
v 0.834819 -0.834819 -0.269188
v 0.834819 -0.834819 1.232931
vn -0.0000 -1.0000 -0.0000
vn -0.7071 -0.7071 -0.0000
vn 0.7071 0.7071 -0.0000
vt 0.000000 1.000000
vt 0.300521 0.917039
vt 0.300521 0.945312
vt 0.297135 0.917039
vt 0.027083 1.000000
vt 0.050781 1.000000
vt 0.410156 0.921875
vt 0.410156 0.847656
vt 0.433594 0.847656
vt 0.433594 0.875930
vt 0.437500 0.769531
vt 0.437500 0.843750
vt 0.414062 0.797805
vt 0.417448 0.769531
vt 0.265625 0.843750
vt 0.265625 0.769531
vt 0.292969 0.769531
vt 0.292969 0.843750
vt 0.093750 0.531250
vt 0.093750 0.605469
vt 0.066406 0.605469
vt 0.066406 0.531250
s 0
usemtl m_5b5e01c6-c424-68de-a3d4-60afe0164988
f 34/87/24 33/87/24 35/87/24
f 37/88/25 36/89/25 38/90/25
f 39/91/24 35/87/24 37/92/24
f 40/93/25 39/94/25 37/95/25 36/96/25
f 39/97/26 40/98/26 36/99/26 38/100/26
f 40/101/26 39/102/26 35/103/26 33/104/26
f 39/105/25 40/106/25 33/107/25 34/108/25
o mesh.011
v 0.447225 0.447225 1.232931
v 0.447225 0.447225 -0.269188
v 0.447225 0.447225 -0.269188
v 1.173965 1.173965 0.303048
v 1.173965 1.173965 -0.269188
v 1.125515 1.125515 -0.269188
v 0.834819 0.834819 -0.269188
v 0.834819 0.834820 1.232931
vn -0.0000 -1.0000 -0.0000
vn -0.7071 0.7071 -0.0000
vn 0.7071 -0.7071 -0.0000
vt 0.000000 1.000000
vt 0.297135 0.910156
vt 0.297135 0.881882
vt 0.300521 0.881882
vt 0.027083 1.000000
vt 0.050781 1.000000
vt 0.421875 0.507812
vt 0.445312 0.507812
vt 0.445312 0.582031
vt 0.421875 0.536086
vt 0.427865 0.954055
vt 0.404167 1.000000
vt 0.404167 0.925781
vt 0.424479 0.925781
vt 0.097656 0.531250
vt 0.125000 0.531250
vt 0.125000 0.605469
vt 0.097656 0.605469
vt 0.156250 0.605469
vt 0.128906 0.605469
vt 0.128906 0.531250
vt 0.156250 0.531250
s 0
usemtl m_5b5e01c6-c424-68de-a3d4-60afe0164988
f 41/109/27 42/109/27 43/109/27
f 44/110/28 45/111/28 46/112/28
f 43/109/27 47/113/27 45/114/27
f 45/115/28 47/116/28 48/117/28 44/118/28
f 44/119/29 48/120/29 47/121/29 46/122/29
f 43/123/29 47/124/29 48/125/29 41/126/29
f 41/127/28 48/128/28 47/129/28 42/130/28
o mesh.012
v -0.447225 0.447225 1.232931
v -0.447225 0.447225 -0.269188
v -0.447225 0.447225 -0.269188
v -1.173965 1.173965 0.303048
v -1.173965 1.173965 -0.269188
v -1.125515 1.125515 -0.269188
v -0.834819 0.834819 -0.269188
v -0.834819 0.834820 1.232931
vn -0.0000 -1.0000 -0.0000
vn 0.7071 0.7071 -0.0000
vn -0.7071 -0.7071 -0.0000
vt 0.000000 1.000000
vt 0.300521 0.846726
vt 0.300521 0.875000
vt 0.297135 0.846726
vt 0.023698 1.000000
vt 0.050781 1.000000
vt 0.375000 0.570312
vt 0.375000 0.496094
vt 0.398438 0.496094
vt 0.398438 0.524368
vt 0.453125 0.710938
vt 0.453125 0.785156
vt 0.429688 0.739211
vt 0.433073 0.710938
vt 0.160156 0.605469
vt 0.160156 0.531250
vt 0.187500 0.531250
vt 0.187500 0.605469
vt 0.218750 0.531250
vt 0.218750 0.605469
vt 0.191406 0.605469
vt 0.191406 0.531250
s 0
usemtl m_5b5e01c6-c424-68de-a3d4-60afe0164988
f 50/131/30 49/131/30 51/131/30
f 53/132/31 52/133/31 54/134/31
f 55/135/30 51/136/30 53/131/30
f 56/137/31 55/138/31 53/139/31 52/140/31
f 55/141/32 56/142/32 52/143/32 54/144/32
f 56/145/32 55/146/32 51/147/32 49/148/32
f 55/149/31 56/150/31 49/151/31 50/152/31
o mesh.013
v -0.279515 -0.279514 9.198114
v -0.279515 -0.279514 8.170349
v -0.279515 -0.279514 8.170349
v -0.670837 -0.670836 8.561878
v -0.670837 -0.670836 8.170349
v -0.644749 -0.644748 8.170349
v -0.488220 -0.488219 8.170349
v -0.488220 -0.488219 9.198114
vn -0.0000 -1.0000 -0.0000
vn 0.7071 -0.7071 -0.0000
vn -0.0000 -0.0000 1.0000
vn -0.7071 0.7071 -0.0000
vt 0.000000 1.000000
vt 0.297917 0.839844
vt 0.297917 0.820498
vt 0.299740 0.820498
vt 0.027344 1.000000
vt 0.012761 1.000000
vt 0.308594 0.628906
vt 0.320312 0.628906
vt 0.320312 0.679688
vt 0.308594 0.648252
vt 0.463412 0.566220
vt 0.450651 0.597656
vt 0.450651 0.546875
vt 0.461588 0.546875
vt 0.296875 0.949219
vt 0.312500 0.949219
vt 0.312500 1.000000
vt 0.296875 1.000000
vt 0.324219 0.734375
vt 0.308594 0.734375
vt 0.308594 0.683594
vt 0.324219 0.683594
s 0
usemtl m_5b5e01c6-c424-68de-a3d4-60afe0164988
f 57/153/33 58/153/33 59/153/33
f 60/154/34 61/155/34 62/156/34
f 59/157/35 63/158/35 61/153/35
f 61/159/34 63/160/34 64/161/34 60/162/34
f 60/163/36 64/164/36 63/165/36 62/166/36
f 59/167/36 63/168/36 64/169/36 57/170/36
f 57/171/34 64/172/34 63/173/34 58/174/34
o mesh.014
v -0.279515 0.279517 9.198114
v -0.279515 0.279517 8.170349
v -0.279515 0.279517 8.170349
v -0.670837 0.670838 8.561878
v -0.670837 0.670838 8.170349
v -0.644749 0.644750 8.170349
v -0.488220 0.488222 8.170349
v -0.488220 0.488222 9.198114
vn -0.0000 -1.0000 -0.0000
vn 0.7071 0.7071 -0.0000
vn -0.7071 -0.7071 -0.0000
vt 0.000000 1.000000
vt 0.299740 0.797061
vt 0.299740 0.816406
vt 0.297917 0.797061
vt 0.012761 1.000000
vt 0.027344 1.000000
vt 0.351562 0.921875
vt 0.351562 0.871094
vt 0.363281 0.871094
vt 0.363281 0.890439
vt 0.464844 0.894531
vt 0.464844 0.945312
vt 0.453125 0.913877
vt 0.454948 0.894531
vt 0.402344 0.570312
vt 0.402344 0.519531
vt 0.417969 0.519531
vt 0.417969 0.570312
vt 0.449219 0.949219
vt 0.449219 1.000000
vt 0.433594 1.000000
vt 0.433594 0.949219
s 0
usemtl m_5b5e01c6-c424-68de-a3d4-60afe0164988
f 66/175/37 65/175/37 67/175/37
f 69/176/38 68/177/38 70/178/38
f 71/179/37 67/180/37 69/175/37
f 72/181/38 71/182/38 69/183/38 68/184/38
f 71/185/39 72/186/39 68/187/39 70/188/39
f 72/189/39 71/190/39 67/191/39 65/192/39
f 71/193/38 72/194/38 65/195/38 66/196/38
o mesh.015
v 0.279515 0.279517 9.198114
v 0.279515 0.279517 8.170349
v 0.279515 0.279517 8.170349
v 0.670837 0.670838 8.561878
v 0.670837 0.670838 8.170349
v 0.644749 0.644750 8.170349
v 0.488220 0.488222 8.170349
v 0.488220 0.488222 9.198114
vn -0.0000 -1.0000 -0.0000
vn -0.7071 0.7071 -0.0000
vn -0.0000 -0.0000 1.0000
vn 0.7071 -0.7071 -0.0000
vt 0.000000 1.000000
vt 0.297917 0.792969
vt 0.297917 0.773623
vt 0.299740 0.773623
vt 0.014583 1.000000
vt 0.027344 1.000000
vt 0.453125 0.792969
vt 0.464844 0.792969
vt 0.464844 0.843750
vt 0.453125 0.812314
vt 0.467318 0.968564
vt 0.454557 1.000000
vt 0.454557 0.949219
vt 0.465495 0.949219
vt 0.433594 0.894531
vt 0.449219 0.894531
vt 0.449219 0.945312
vt 0.433594 0.945312
vt 0.449219 0.707031
vt 0.433594 0.707031
vt 0.433594 0.656250
vt 0.449219 0.656250
s 0
usemtl m_5b5e01c6-c424-68de-a3d4-60afe0164988
f 73/197/40 74/197/40 75/197/40
f 76/198/41 77/199/41 78/200/41
f 75/197/42 79/201/42 77/202/42
f 77/203/41 79/204/41 80/205/41 76/206/41
f 76/207/43 80/208/43 79/209/43 78/210/43
f 75/211/43 79/212/43 80/213/43 73/214/43
f 73/215/41 80/216/41 79/217/41 74/218/41
o mesh.016
v 0.279515 -0.279514 9.198114
v 0.279515 -0.279514 8.170349
v 0.279515 -0.279514 8.170349
v 0.670837 -0.670836 8.561878
v 0.670837 -0.670836 8.170349
v 0.644749 -0.644748 8.170349
v 0.488220 -0.488219 8.170349
v 0.488220 -0.488219 9.198114
vn -0.0000 -1.0000 -0.0000
vn -0.7071 -0.7071 -0.0000
vn 0.7071 0.7071 -0.0000
vt 0.000000 1.000000
vt 0.303646 0.715030
vt 0.303646 0.734375
vt 0.301823 0.715030
vt 0.014583 1.000000
vt 0.027344 1.000000
vt 0.453125 0.707031
vt 0.453125 0.656250
vt 0.464844 0.656250
vt 0.464844 0.675595
vt 0.468750 0.738281
vt 0.468750 0.789062
vt 0.457031 0.757627
vt 0.458854 0.738281
vt 0.437500 0.652344
vt 0.437500 0.601562
vt 0.453125 0.601562
vt 0.453125 0.652344
vt 0.457031 0.839844
vt 0.457031 0.890625
vt 0.441406 0.890625
vt 0.441406 0.839844
s 0
usemtl m_5b5e01c6-c424-68de-a3d4-60afe0164988
f 82/219/44 81/219/44 83/219/44
f 85/220/45 84/221/45 86/222/45
f 87/223/44 83/219/44 85/224/44
f 88/225/45 87/226/45 85/227/45 84/228/45
f 87/229/46 88/230/46 84/231/46 86/232/46
f 88/233/46 87/234/46 83/235/46 81/236/46
f 87/237/45 88/238/45 81/239/45 82/240/45
