# Blender 3.3.21
# www.blender.org
mtllib 9m113.mtl
o Ptur
v 0.086348 0.649642 0.292512
v 0.086348 0.601049 -0.262916
v 0.086348 0.593159 0.297454
v 0.086348 0.544565 -0.257975
v -0.093201 0.601049 -0.262916
v -0.093201 0.649642 0.292512
v -0.093201 0.544565 -0.257975
v -0.093201 0.593159 0.297454
v 0.228099 0.798848 0.312166
v 0.228099 0.782438 0.219102
v 0.228099 0.622026 0.343344
v 0.228099 0.605616 0.250280
v 0.067449 0.782438 0.219102
v 0.067449 0.798848 0.312166
v 0.067449 0.605616 0.250280
v 0.067449 0.622026 0.343344
v 0.237549 0.997731 0.323819
v 0.237549 0.997732 -0.054181
v 0.237549 0.818181 0.323819
v 0.237549 0.818182 -0.054181
v 0.057999 0.997732 -0.054181
v 0.057999 0.997731 0.323819
v 0.057999 0.818182 -0.054181
v 0.057999 0.818181 0.323819
v 0.047484 0.374879 -0.316545
v 0.047691 0.591709 -0.331575
v -0.047016 0.374969 -0.316554
v -0.046809 0.591799 -0.331583
v 0.047688 0.598244 -0.237301
v 0.047481 0.381414 -0.222272
v -0.046812 0.598333 -0.237310
v -0.047019 0.381504 -0.222281
v 0.209199 0.810182 0.188454
v 0.209199 0.836437 0.039551
v 0.209198 0.624052 0.155634
v 0.209199 0.650309 0.006732
v 0.095799 0.836437 0.039551
v 0.095799 0.810182 0.188454
v 0.095798 0.650309 0.006732
v 0.095798 0.624052 0.155634
v 0.311773 0.440614 -0.049679
v 0.267732 0.501214 -0.059848
v 0.259286 0.397009 -0.082221
v 0.215245 0.457608 -0.092389
v 0.203831 0.477418 0.075104
v 0.247873 0.416820 0.085273
v 0.151345 0.433811 0.042562
v 0.195386 0.373213 0.052731
v 0.246655 0.816371 0.153349
v 0.192452 0.829814 0.077115
v 0.246655 0.378970 0.076223
v 0.192452 0.392411 -0.000011
v 0.115042 0.820401 0.130495
v 0.169245 0.806959 0.206728
v 0.115042 0.382999 0.053369
v 0.169245 0.369557 0.129603
v 0.057999 0.336232 0.049768
v 0.057999 0.336232 -0.073082
v 0.057999 -0.003968 0.049768
v 0.057999 -0.003968 -0.073082
v -0.064851 0.336232 -0.073082
v -0.064851 0.336232 0.049768
v -0.064851 -0.003968 -0.073082
v -0.064851 -0.003968 0.049768
v 0.095799 0.563031 0.427769
v 0.095798 0.563032 -0.091982
v 0.095799 0.279532 0.427768
v 0.095799 0.279532 -0.091982
v -0.093201 0.563032 -0.091981
v -0.093201 0.563031 0.427768
v -0.093201 0.279532 -0.091982
v -0.093201 0.279532 0.427768
v 0.075949 0.389018 -0.091982
v 0.075949 0.389018 -0.177032
v -0.017602 0.295468 -0.091982
v -0.017601 0.295468 -0.177031
v -0.017602 0.482568 -0.177031
v -0.017602 0.482568 -0.091981
v -0.111152 0.389018 -0.177032
v -0.111152 0.389018 -0.091982
vn -0.0000 -0.0871 -0.9962
vn 1.0000 -0.0000 -0.0000
vn -0.0000 0.0872 0.9962
vn -1.0000 -0.0000 -0.0000
vn -0.0000 0.9962 -0.0872
vn -0.0000 -0.9962 0.0872
vn -0.0000 -0.1736 -0.9848
vn -0.0000 0.1736 0.9848
vn -0.0000 0.9848 -0.1737
vn -0.0000 -0.9848 0.1737
vn -0.0000 -0.0000 -1.0000
vn -0.0000 -0.0000 1.0000
vn -0.0000 1.0000 -0.0000
vn -0.0000 -1.0000 -0.0000
vn 0.0010 0.9976 -0.0691
vn -0.0000 -0.0691 -0.9976
vn -0.0010 -0.9976 0.0692
vn -0.0000 0.0691 0.9976
vn 1.0000 -0.0009 0.0001
vn -1.0000 0.0009 -0.0001
vn -0.0000 0.1736 -0.9848
vn -0.0000 -0.1736 0.9848
vn -0.0000 0.9848 0.1736
vn -0.0000 -0.9848 -0.1737
vn 0.4226 0.1574 -0.8925
vn 0.5826 -0.8016 0.1345
vn -0.4226 -0.1574 0.8925
vn 0.6943 0.5768 0.4304
vn -0.6943 -0.5768 -0.4304
vn -0.5736 0.1422 -0.8067
vn 0.8192 0.0996 -0.5649
vn 0.5736 -0.1422 0.8067
vn -0.8192 -0.0996 0.5649
vn -0.0000 0.9848 0.1737
vn -0.0000 -0.9848 -0.1736
vn 0.7071 -0.7071 -0.0000
vn -0.7071 0.7071 -0.0000
vn 0.7071 0.7071 -0.0000
vn -0.7071 -0.7071 -0.0000
vt 0.373047 0.679688
vt 0.443359 0.451172
vt 0.140625 0.556641
vt 0.097656 0.451172
vt 0.390625 0.679688
vt 0.140625 0.539062
vt 0.373047 0.677734
vt 0.443359 0.449219
vt 0.281250 0.546875
vt 0.097656 0.449219
vt 0.390625 0.677734
vt 0.281250 0.529297
vt 0.103516 0.451172
vt 0.427734 0.830078
vt 0.146484 0.539062
vt 0.437500 0.451172
vt 0.445312 0.830078
vt 0.146484 0.556641
vt 0.103516 0.449219
vt 0.427734 0.828125
vt 0.287109 0.529297
vt 0.437500 0.449219
vt 0.445312 0.828125
vt 0.287109 0.546875
vt 0.113281 0.455078
vt 0.046875 0.435547
vt 0.466797 0.587891
vt 0.328125 0.437500
vt 0.117188 0.455078
vt 0.466797 0.583984
vt 0.113281 0.449219
vt 0.046875 0.429688
vt 0.091797 0.511719
vt 0.328125 0.431641
vt 0.117188 0.449219
vt 0.091797 0.507812
vt 0.333984 0.437500
vt 0.468750 0.449219
vt 0.472656 0.583984
vt 0.041016 0.435547
vt 0.472656 0.449219
vt 0.472656 0.587891
vt 0.333984 0.431641
vt 0.468750 0.443359
vt 0.097656 0.507812
vt 0.041016 0.429688
vt 0.472656 0.443359
vt 0.097656 0.511719
vt 0.185547 0.466797
vt 0.570312 0.658203
vt 0.365234 0.513672
vt 0.126953 0.435547
vt 0.197266 0.466797
vt 0.365234 0.501953
vt 0.185547 0.460938
vt 0.570312 0.652344
vt 0.111328 0.466797
vt 0.126953 0.429688
vt 0.197266 0.460938
vt 0.111328 0.455078
vt 0.132812 0.435547
vt 0.533203 0.750000
vt 0.371094 0.501953
vt 0.564453 0.658203
vt 0.544922 0.750000
vt 0.371094 0.513672
vt 0.132812 0.429688
vt 0.533203 0.744141
vt 0.117188 0.455078
vt 0.564453 0.652344
vt 0.544922 0.744141
vt 0.117188 0.466797
vt 0.146484 0.490234
vt 0.146484 0.455078
vt 0.072266 0.447266
vt 0.337891 0.457031
vt 0.152344 0.490234
vt 0.072266 0.441406
vt 0.146484 0.486328
vt 0.146484 0.451172
vt 0.248047 0.447266
vt 0.337891 0.453125
vt 0.152344 0.486328
vt 0.248047 0.441406
vt 0.341797 0.457031
vt 0.134766 0.480469
vt 0.076172 0.441406
vt 0.142578 0.455078
vt 0.140625 0.480469
vt 0.076172 0.447266
vt 0.341797 0.453125
vt 0.134766 0.476562
vt 0.251953 0.441406
vt 0.142578 0.451172
vt 0.140625 0.476562
vt 0.251953 0.447266
vt 0.177734 0.462891
vt 0.197266 0.460938
vt 0.375000 0.480469
vt 0.419922 0.466797
vt 0.181641 0.462891
vt 0.375000 0.476562
vt 0.177734 0.457031
vt 0.197266 0.455078
vt 0.078125 0.478516
vt 0.419922 0.460938
vt 0.181641 0.457031
vt 0.078125 0.474609
vt 0.423828 0.466797
vt 0.279297 0.460938
vt 0.378906 0.476562
vt 0.193359 0.460938
vt 0.283203 0.460938
vt 0.378906 0.480469
vt 0.423828 0.460938
vt 0.279297 0.455078
vt 0.082031 0.474609
vt 0.193359 0.455078
vt 0.283203 0.455078
vt 0.082031 0.478516
vt 0.539062 0.486328
vt 0.548828 0.458984
vt 0.550781 0.640625
vt 0.541016 0.486328
vt 0.550781 0.638672
vt 0.539062 0.484375
vt 0.548828 0.457031
vt 0.550781 0.595703
vt 0.541016 0.484375
vt 0.550781 0.593750
vt 0.048828 0.458984
vt 0.554688 0.638672
vt 0.544922 0.458984
vt 0.050781 0.458984
vt 0.554688 0.640625
vt 0.048828 0.457031
vt 0.554688 0.593750
vt 0.544922 0.457031
vt 0.050781 0.457031
vt 0.554688 0.595703
vt 0.406250 0.585938
vt 0.455078 0.701172
vt 0.517578 0.724609
vt 0.378906 0.599609
vt 0.410156 0.585938
vt 0.517578 0.720703
vt 0.406250 0.572266
vt 0.455078 0.687500
vt 0.517578 0.638672
vt 0.378906 0.585938
vt 0.410156 0.572266
vt 0.517578 0.634766
vt 0.382812 0.599609
vt 0.304688 0.513672
vt 0.521484 0.720703
vt 0.451172 0.701172
vt 0.308594 0.513672
vt 0.521484 0.724609
vt 0.382812 0.585938
vt 0.304688 0.500000
vt 0.521484 0.634766
vt 0.451172 0.687500
vt 0.308594 0.500000
vt 0.521484 0.638672
vt 0.283203 0.509766
vt 0.132812 0.500000
vt 0.417969 0.648438
vt 0.287109 0.509766
vt 0.283203 0.500000
vt 0.132812 0.490234
vt 0.333984 0.451172
vt 0.417969 0.638672
vt 0.287109 0.500000
vt 0.333984 0.447266
vt 0.421875 0.648438
vt 0.230469 0.466797
vt 0.128906 0.500000
vt 0.234375 0.466797
vt 0.421875 0.638672
vt 0.230469 0.457031
vt 0.337891 0.447266
vt 0.128906 0.490234
vt 0.234375 0.457031
vt 0.337891 0.451172
vt 0.492188 0.804688
vt 0.187500 0.490234
vt 0.146484 0.476562
vt 0.351562 0.492188
vt 0.507812 0.804688
vt 0.146484 0.460938
vt 0.492188 0.794922
vt 0.187500 0.480469
vt 0.384766 0.476562
vt 0.351562 0.482422
vt 0.507812 0.794922
vt 0.384766 0.460938
vt 0.357422 0.492188
vt 0.494141 1.000000
vt 0.152344 0.460938
vt 0.181641 0.490234
vt 0.509766 1.000000
vt 0.152344 0.476562
vt 0.357422 0.482422
vt 0.494141 0.990234
vt 0.390625 0.460938
vt 0.181641 0.480469
vt 0.509766 0.990234
vt 0.390625 0.476562
vt 0.140625 0.490234
vt 0.273438 0.447266
vt 0.478516 0.445312
vt 0.208984 0.449219
vt 0.142578 0.490234
vt 0.478516 0.443359
vt 0.140625 0.486328
vt 0.273438 0.443359
vt 0.132812 0.443359
vt 0.208984 0.445312
vt 0.142578 0.486328
vt 0.132812 0.441406
vt 0.212891 0.449219
vt 0.234375 0.476562
vt 0.482422 0.443359
vt 0.269531 0.447266
vt 0.236328 0.476562
vt 0.482422 0.445312
vt 0.212891 0.445312
vt 0.234375 0.472656
vt 0.136719 0.441406
vt 0.269531 0.443359
vt 0.236328 0.472656
vt 0.136719 0.443359
s 1
usemtl BMD_@_TRE_1.png.002
f 4/10/1 7/19/1 5/13/1 2/4/1
f 3/7/2 4/11/2 2/5/2 1/1/2
f 8/22/3 3/8/3 1/2/3 6/16/3
f 7/20/4 8/23/4 6/17/4 5/14/4
f 6/18/5 1/3/5 2/6/5 5/15/5
f 7/21/6 4/12/6 3/9/6 8/24/6
f 12/34/7 15/43/7 13/37/7 10/28/7
f 11/31/2 12/35/2 10/29/2 9/25/2
f 16/46/8 11/32/8 9/26/8 14/40/8
f 15/44/4 16/47/4 14/41/4 13/38/4
f 14/42/9 9/27/9 10/30/9 13/39/9
f 15/45/10 12/36/10 11/33/10 16/48/10
f 20/58/11 23/67/11 21/61/11 18/52/11
f 19/55/2 20/59/2 18/53/2 17/49/2
f 24/70/12 19/56/12 17/50/12 22/64/12
f 23/68/4 24/71/4 22/65/4 21/62/4
f 22/66/13 17/51/13 18/54/13 21/63/13
f 23/69/14 20/60/14 19/57/14 24/72/14
f 28/82/15 31/91/15 29/85/15 26/76/15
f 27/79/16 28/83/16 26/77/16 25/73/16
f 32/94/17 27/80/17 25/74/17 30/88/17
f 31/92/18 32/95/18 30/89/18 29/86/18
f 30/90/19 25/75/19 26/78/19 29/87/19
f 31/93/20 28/84/20 27/81/20 32/96/20
f 36/106/21 39/115/21 37/109/21 34/100/21
f 35/103/2 36/107/2 34/101/2 33/97/2
f 40/118/22 35/104/22 33/98/22 38/112/22
f 39/116/4 40/119/4 38/113/4 37/110/4
f 38/114/23 33/99/23 34/102/23 37/111/23
f 39/117/24 36/108/24 35/105/24 40/120/24
f 43/126/25 44/129/25 42/124/25 41/121/25
f 48/138/26 43/127/26 41/122/26 46/133/26
f 47/136/27 48/139/27 46/134/27 45/131/27
f 46/135/28 41/123/28 42/125/28 45/132/28
f 47/137/29 44/130/29 43/128/29 48/140/29
f 52/150/30 55/159/30 53/153/30 50/144/30
f 51/147/31 52/151/31 50/145/31 49/141/31
f 56/162/32 51/148/32 49/142/32 54/156/32
f 55/160/33 56/163/33 54/157/33 53/154/33
f 54/158/34 49/143/34 50/146/34 53/155/34
f 55/161/35 52/152/35 51/149/35 56/164/35
f 60/172/11 63/179/11 61/175/11 58/167/11
f 59/169/2 60/173/2 58/168/2 57/165/2
f 64/182/12 59/170/12 57/166/12 62/177/12
f 63/180/4 64/183/4 62/178/4 61/176/4
f 63/181/14 60/174/14 59/171/14 64/184/14
f 68/194/11 71/203/11 69/197/11 66/188/11
f 67/191/2 68/195/2 66/189/2 65/185/2
f 72/206/12 67/192/12 65/186/12 70/200/12
f 71/204/4 72/207/4 70/201/4 69/198/4
f 70/202/13 65/187/13 66/190/13 69/199/13
f 71/205/14 68/196/14 67/193/14 72/208/14
f 76/218/11 79/227/11 77/221/11 74/212/11
f 75/215/36 76/219/36 74/213/36 73/209/36
f 80/230/12 75/216/12 73/210/12 78/224/12
f 79/228/37 80/231/37 78/225/37 77/222/37
f 78/226/38 73/211/38 74/214/38 77/223/38
f 79/229/39 76/220/39 75/217/39 80/232/39
o 9m113
v 0.072500 0.732804 0.658013
v 0.072539 0.640670 -0.671247
v -0.015973 0.644712 0.664117
v -0.015933 0.552576 -0.665144
v -0.015765 0.728930 -0.677367
v -0.015804 0.821064 0.651893
v -0.104238 0.640837 -0.671264
v -0.104277 0.732971 0.657997
v -0.030704 0.807537 0.671776
v -0.030699 0.797081 0.520938
v -0.070835 0.767579 0.674544
v -0.070830 0.757122 0.523706
v -0.070754 0.837117 0.518162
v -0.070758 0.847572 0.669000
v -0.110885 0.797157 0.520930
v -0.110890 0.807612 0.671768
vn -0.0000 -0.0691 -0.9976
vn 0.7064 -0.7061 0.0490
vn -0.0000 0.0692 0.9976
vn -0.7064 0.7061 -0.0490
vn 0.7078 0.7047 -0.0488
vn -0.7078 -0.7047 0.0488
vn -0.0000 0.0691 0.9976
vn -0.7078 -0.7048 0.0488
vt 0.488281 0.601562
vt 0.539062 0.896484
vt 0.142578 0.527344
vt 0.095703 0.474609
vt 0.529297 0.601562
vt 0.142578 0.486328
vt 0.488281 0.597656
vt 0.539062 0.892578
vt 0.300781 0.513672
vt 0.095703 0.470703
vt 0.529297 0.597656
vt 0.300781 0.472656
vt 0.099609 0.474609
vt 0.488281 0.597656
vt 0.146484 0.486328
vt 0.535156 0.896484
vt 0.529297 0.597656
vt 0.146484 0.527344
vt 0.099609 0.470703
vt 0.488281 0.593750
vt 0.304688 0.472656
vt 0.535156 0.892578
vt 0.529297 0.593750
vt 0.304688 0.513672
vt 0.554688 0.822266
vt 0.550781 0.453125
vt 0.308594 0.523438
vt 0.222656 0.457031
vt 0.558594 0.822266
vt 0.308594 0.519531
vt 0.554688 0.820312
vt 0.550781 0.451172
vt 0.005859 0.507812
vt 0.222656 0.455078
vt 0.558594 0.820312
vt 0.005859 0.503906
vt 0.224609 0.457031
vt 0.357422 0.445312
vt 0.310547 0.519531
vt 0.548828 0.453125
vt 0.361328 0.445312
vt 0.310547 0.523438
vt 0.224609 0.455078
vt 0.357422 0.443359
vt 0.007812 0.503906
vt 0.548828 0.451172
vt 0.361328 0.443359
vt 0.007812 0.507812
s 1
usemtl BMD_@_TRE_1.png.002
f 84/242/40 87/251/40 85/245/40 82/236/40
f 83/239/41 84/243/41 82/237/41 81/233/41
f 88/254/42 83/240/42 81/234/42 86/248/42
f 87/252/43 88/255/43 86/249/43 85/246/43
f 86/250/44 81/235/44 82/238/44 85/247/44
f 87/253/45 84/244/45 83/241/45 88/256/45
f 92/266/40 95/275/40 93/269/40 90/260/40
f 91/263/41 92/267/41 90/261/41 89/257/41
f 96/278/46 91/264/46 89/258/46 94/272/46
f 95/276/43 96/279/43 94/273/43 93/270/43
f 94/274/44 89/259/44 90/262/44 93/271/44
f 95/277/47 92/268/47 91/265/47 96/280/47
