# Made in Blockbench 5.1.3
mtllib rpg29.mtl

o body
v -0.02202 0.021631 0.457655
v -0.02202 0.127098 0.457655
v -0.02202 0.127098 -0.214698
v -0.02202 0.02163 -0.214698
v 0.01753 0.02163 -0.214698
v 0.01753 0.127098 -0.214698
v 0.01753 0.127098 0.457655
v 0.01753 0.021631 0.457655
v -0.091892 0.121824 1.68371
v -0.091892 0.301118 1.68371
v -0.091893 0.301118 -1.743971
v -0.091893 0.121824 -1.743971
v 0.087401 0.121824 -1.743971
v 0.087401 0.301118 -1.743971
v 0.087402 0.301118 1.68371
v 0.087402 0.121824 1.68371
v -0.107713 0.106004 -1.743971
v -0.107713 0.316938 -1.743971
v -0.107713 0.316938 -1.954906
v -0.107713 0.106004 -1.954906
v 0.103222 0.106004 -1.954906
v 0.103222 0.316938 -1.954906
v 0.103222 0.316938 -1.743971
v 0.103222 0.106004 -1.743971
v -0.107713 0.106004 -0.873868
v -0.107713 0.316938 -0.873868
v -0.107713 0.316938 -0.952968
v -0.107713 0.106004 -0.952968
v 0.103222 0.106004 -0.952968
v 0.103222 0.316938 -0.952968
v 0.103222 0.316938 -0.873868
v 0.103222 0.106004 -0.873868
v -0.107712 0.106004 0.602672
v -0.107712 0.316938 0.602672
v -0.107712 0.316938 0.484021
v -0.107712 0.106004 0.484022
v 0.103222 0.106004 0.484022
v 0.103222 0.316938 0.484021
v 0.103222 0.316938 0.602672
v 0.103222 0.106004 0.602672
v -0.107712 0.106004 1.68371
v -0.107712 0.316939 1.68371
v -0.107712 0.316939 1.472776
v -0.107712 0.106004 1.472776
v 0.103222 0.106004 1.472776
v 0.103222 0.316939 1.472776
v 0.103222 0.316939 1.68371
v 0.103222 0.106004 1.68371
v -0.120896 0.092821 -0.293798
v -0.120896 0.330122 -0.293799
v -0.120896 0.330122 -0.386082
v -0.120896 0.092821 -0.386082
v 0.116405 0.092821 -0.386082
v 0.116405 0.330122 -0.386082
v 0.116405 0.330122 -0.293799
v 0.116405 0.092821 -0.293798
v -0.035204 0.311665 -1.730788
v -0.035204 0.351215 -1.730788
v -0.035204 0.351215 -1.888989
v -0.035204 0.311665 -1.888989
v 0.030713 0.311665 -1.888989
v 0.030713 0.351215 -1.888989
v 0.030713 0.351215 -1.730788
v 0.030713 0.311665 -1.730788
v -0.127487 0.140281 -0.412449
v -0.127487 0.298482 -0.412449
v -0.127487 0.298482 -1.678054
v -0.127487 0.140281 -1.678054
v -0.074754 0.140281 -1.678054
v -0.074754 0.298482 -1.678054
v -0.074754 0.298482 -0.412449
v -0.074754 0.140281 -0.412449
v -0.127487 0.074364 -0.412449
v -0.127487 0.140281 -0.412449
v -0.127487 0.140281 -0.465183
v -0.127487 0.074364 -0.465183
v 0.030713 0.074364 -0.465183
v 0.030713 0.140281 -0.465183
v 0.030713 0.140281 -0.412449
v 0.030713 0.074364 -0.412449
v -0.028612 0.064256 -0.875718
v -0.028612 0.11694 -0.878019
v -0.028612 0.103713 -1.180948
v -0.028612 0.05103 -1.178647
v 0.024121 0.05103 -1.178647
v 0.024121 0.103713 -1.180948
v 0.024121 0.11694 -0.878019
v 0.024121 0.064256 -0.875718
v -0.036522 0.049453 -1.033424
v -0.036522 0.117942 -1.036414
v -0.036522 0.111041 -1.194464
v -0.036522 0.042553 -1.191474
v 0.032031 0.042553 -1.191474
v 0.032031 0.111041 -1.194464
v 0.032031 0.117942 -1.036414
v 0.032031 0.049453 -1.033424
v -0.02202 0.057616 -1.178935
v -0.02202 0.097128 -1.18066
v -0.02202 0.089078 -1.365052
v -0.02202 0.049566 -1.363327
v 0.01753 0.049566 -1.363327
v 0.01753 0.089078 -1.365052
v 0.01753 0.097128 -1.18066
v 0.01753 0.057616 -1.178935
v -0.048387 0.015038 0.075336
v -0.048387 0.127098 0.075336
v -0.048387 0.127098 -0.109231
v -0.048387 0.015038 -0.109231
v 0.043897 0.015038 -0.109231
v 0.043897 0.127098 -0.109231
v 0.043897 0.127098 0.075336
v 0.043897 0.015038 0.075336
v -0.035204 0.015038 0.418105
v -0.035204 0.127098 0.418105
v -0.035204 0.127098 0.075336
v -0.035204 0.015038 0.075336
v 0.030713 0.015038 0.075336
v 0.030713 0.127098 0.075336
v 0.030713 0.127098 0.418105
v 0.030713 0.015038 0.418105
v -0.035204 0.061181 0.510388
v -0.035204 0.127098 0.510388
v -0.035204 0.127098 0.418105
v -0.035204 0.061181 0.418105
v 0.030713 0.061181 0.418105
v 0.030713 0.127098 0.418105
v 0.030713 0.127098 0.510388
v 0.030713 0.061181 0.510388
v -0.048387 0.008447 0.391738
v -0.048387 0.061181 0.391738
v -0.048387 0.061181 0.220354
v -0.048387 0.008447 0.220354
v 0.043897 0.008447 0.220354
v 0.043897 0.061181 0.220354
v 0.043897 0.061181 0.391738
v 0.043897 0.008447 0.391738
v -0.035204 -0.193803 0.017595
v -0.035204 0.013927 0.054224
v -0.035204 0.032242 -0.04964
v -0.035204 -0.175488 -0.08627
v 0.030713 -0.175488 -0.08627
v 0.030713 0.032242 -0.04964
v 0.030713 0.013927 0.054224
v 0.030713 -0.193803 0.017595
v -0.035204 -0.198398 0.070128
v -0.035204 -0.145866 0.074725
v -0.035204 -0.14127 0.022191
v -0.035204 -0.193803 0.017595
v 0.030713 -0.193803 0.017595
v 0.030713 -0.14127 0.022191
v 0.030713 -0.145866 0.074725
v 0.030713 -0.198398 0.070128
v -0.06157 0.030858 -0.201515
v -0.06157 0.096775 -0.201515
v -0.06157 0.096775 -0.320165
v -0.06157 0.030858 -0.320165
v 0.05708 0.030858 -0.320165
v 0.05708 0.096775 -0.320165
v 0.05708 0.096775 -0.201515
v 0.05708 0.030858 -0.201515
v -0.048387 0.030858 -0.320165
v -0.048387 0.083592 -0.320165
v -0.048387 0.083592 -0.425632
v -0.048387 0.030858 -0.425632
v 0.043897 0.030858 -0.425632
v 0.043897 0.083592 -0.425632
v 0.043897 0.083592 -0.320165
v 0.043897 0.030858 -0.320165
v -0.127487 0.298482 -1.625321
v -0.127487 0.351215 -1.625321
v -0.127487 0.351215 -1.730788
v -0.127487 0.298482 -1.730788
v 0.030713 0.298482 -1.730788
v 0.030713 0.351215 -1.730788
v 0.030713 0.351215 -1.625321
v 0.030713 0.298482 -1.625321
v -0.099802 0.113914 1.68371
v -0.099802 0.309029 1.68371
v -0.099803 0.309028 -1.743971
v -0.099803 0.113914 -1.743971
v 0.095312 0.113914 -1.743971
v 0.095312 0.309028 -1.743971
v 0.095312 0.309029 1.68371
v 0.095312 0.113914 1.68371
v 0.063672 0.324848 -0.161965
v 0.063672 0.469866 -0.161965
v 0.063672 0.469866 -0.188331
v 0.063672 0.324848 -0.188331
v 0.129588 0.324848 -0.188331
v 0.129588 0.469866 -0.188331
v 0.129588 0.469866 -0.161965
v 0.129588 0.324848 -0.161965
v 0.05708 0.272115 -0.069681
v 0.05708 0.364399 -0.069681
v 0.05708 0.364399 -0.241065
v 0.05708 0.272115 -0.241065
v 0.13618 0.272115 -0.241065
v 0.13618 0.364399 -0.241065
v 0.13618 0.364399 -0.069681
v 0.13618 0.272115 -0.069681
v 0.121679 0.166648 0.16762
v 0.121679 0.232565 0.16762
v 0.121679 0.232565 -0.227882
v 0.121679 0.166648 -0.227882
v 0.161228 0.166648 -0.227882
v 0.161228 0.232565 -0.227882
v 0.161229 0.232565 0.16762
v 0.161229 0.166648 0.16762
v -0.02202 -0.068802 0.176649
v -0.02202 0.036665 0.176649
v -0.02202 0.036665 0.018448
v -0.02202 -0.068802 0.018448
v 0.01753 -0.068802 0.018448
v 0.01753 0.036665 0.018448
v 0.01753 0.036665 0.176649
v 0.01753 -0.068802 0.176649
v 0.083447 0.179831 0.154437
v 0.083447 0.219381 0.154437
v 0.083447 0.219381 -0.122414
v 0.083447 0.179831 -0.122414
v 0.122997 0.179831 -0.122414
v 0.122997 0.219381 -0.122414
v 0.122997 0.219381 0.154437
v 0.122997 0.179831 0.154437
v -0.015428 -0.046997 0.136665
v -0.015428 0.054876 0.109369
v -0.015428 0.041228 0.058432
v -0.015428 -0.060647 0.085729
v 0.010939 -0.060647 0.085729
v 0.010939 0.041228 0.058432
v 0.010939 0.054876 0.109369
v 0.010939 -0.046997 0.136665
v 0.037305 0.272115 1.670527
v 0.037305 0.364399 1.670527
v 0.037305 0.364399 1.499143
v 0.037305 0.272115 1.499143
v 0.129589 0.272115 1.499143
v 0.129589 0.364399 1.499143
v 0.129589 0.364399 1.670527
v 0.129589 0.272115 1.670527
v 0.054443 0.424499 1.60416
v 0.054443 0.417675 1.578692
v 0.054443 0.424499 1.60416
v 0.054443 0.417675 1.578692
v 0.12036 0.417675 1.578692
v 0.12036 0.424499 1.60416
v 0.12036 0.417675 1.578692
v 0.12036 0.424499 1.60416
v 0.054443 0.411316 1.60416
v 0.054443 0.404491 1.578692
v 0.054443 0.411316 1.60416
v 0.054443 0.404491 1.578692
v 0.12036 0.404491 1.578692
v 0.12036 0.411316 1.60416
v 0.12036 0.404491 1.578692
v 0.12036 0.411316 1.60416
v 0.054443 0.398132 1.60416
v 0.054443 0.391308 1.578692
v 0.054443 0.398132 1.60416
v 0.054443 0.391308 1.578692
v 0.12036 0.391308 1.578692
v 0.12036 0.398132 1.60416
v 0.12036 0.391308 1.578692
v 0.12036 0.398132 1.60416
v 0.054443 0.324849 1.60461
v 0.054443 0.469866 1.60461
v 0.054443 0.469866 1.578243
v 0.054443 0.324849 1.578243
v 0.12036 0.324849 1.578243
v 0.12036 0.469866 1.578243
v 0.12036 0.469866 1.60461
v 0.12036 0.324849 1.60461
v -0.180221 0.049566 -1.363327
v -0.180221 0.089078 -1.365052
v -0.180221 0.084477 -1.470419
v -0.180221 0.044965 -1.468694
v 0.175731 0.044965 -1.468694
v 0.175731 0.084477 -1.470419
v 0.175731 0.089078 -1.365052
v 0.175731 0.049566 -1.363327
v -0.127487 0.298482 -1.730788
v -0.127487 0.351215 -1.730788
v -0.127487 0.351215 -1.625321
v -0.127487 0.298482 -1.625321
v 0.030713 0.298482 -1.625321
v 0.030713 0.351215 -1.625321
v 0.030713 0.351215 -1.730788
v 0.030713 0.298482 -1.730788
v -0.099803 0.113914 -1.743971
v -0.099803 0.309028 -1.743971
v -0.099802 0.309029 1.68371
v -0.099802 0.113914 1.68371
v 0.095312 0.113914 1.68371
v 0.095312 0.309029 1.68371
v 0.095312 0.309028 -1.743971
v 0.095312 0.113914 -1.743971
v 0.063672 0.324848 -0.188331
v 0.063672 0.469866 -0.188331
v 0.063672 0.469866 -0.161965
v 0.063672 0.324848 -0.161965
v 0.129588 0.324848 -0.161965
v 0.129588 0.469866 -0.161965
v 0.129588 0.469866 -0.188331
v 0.129588 0.324848 -0.188331
v 0.05708 0.272115 -0.241065
v 0.05708 0.364399 -0.241065
v 0.05708 0.364399 -0.069681
v 0.05708 0.272115 -0.069681
v 0.13618 0.272115 -0.069681
v 0.13618 0.364399 -0.069681
v 0.13618 0.364399 -0.241065
v 0.13618 0.272115 -0.241065
v 0.121679 0.166648 -0.227882
v 0.121679 0.232565 -0.227882
v 0.121679 0.232565 0.16762
v 0.121679 0.166648 0.16762
v 0.161229 0.166648 0.16762
v 0.161229 0.232565 0.16762
v 0.161228 0.232565 -0.227882
v 0.161228 0.166648 -0.227882
v -0.02202 -0.068802 0.176649
v -0.02202 0.036665 0.176649
v -0.02202 0.036665 0.018448
v -0.02202 -0.068802 0.018448
v 0.01753 -0.068802 0.018448
v 0.01753 0.036665 0.018448
v 0.01753 0.036665 0.176649
v 0.01753 -0.068802 0.176649
v 0.083447 0.179831 0.154437
v 0.083447 0.219381 0.154437
v 0.083447 0.219381 -0.122414
v 0.083447 0.179831 -0.122414
v 0.122997 0.179831 -0.122414
v 0.122997 0.219381 -0.122414
v 0.122997 0.219381 0.154437
v 0.122997 0.179831 0.154437
v -0.015428 -0.046997 0.136665
v -0.015428 0.054876 0.109369
v -0.015428 0.041228 0.058432
v -0.015428 -0.060647 0.085729
v 0.010939 -0.060647 0.085729
v 0.010939 0.041228 0.058432
v 0.010939 0.054876 0.109369
v 0.010939 -0.046997 0.136665
v 0.037305 0.272115 1.499143
v 0.037305 0.364399 1.499143
v 0.037305 0.364399 1.670527
v 0.037305 0.272115 1.670527
v 0.129589 0.272115 1.670527
v 0.129589 0.364399 1.670527
v 0.129589 0.364399 1.499143
v 0.129589 0.272115 1.499143
v 0.054443 0.417675 1.578692
v 0.054443 0.424499 1.60416
v 0.12036 0.424499 1.60416
v 0.12036 0.417675 1.578692
v 0.054443 0.404491 1.578692
v 0.054443 0.411316 1.60416
v 0.12036 0.411316 1.60416
v 0.12036 0.404491 1.578692
v 0.054443 0.391308 1.578692
v 0.054443 0.398132 1.60416
v 0.12036 0.398132 1.60416
v 0.12036 0.391308 1.578692
v 0.054443 0.324849 1.578243
v 0.054443 0.469866 1.578243
v 0.054443 0.469866 1.60461
v 0.054443 0.324849 1.60461
v 0.12036 0.324849 1.60461
v 0.12036 0.469866 1.60461
v 0.12036 0.469866 1.578243
v 0.12036 0.324849 1.578243
v -0.180221 0.044965 -1.468694
v -0.180221 0.084477 -1.470419
v -0.180221 0.089078 -1.365052
v -0.180221 0.049566 -1.363327
v 0.175731 0.049566 -1.363327
v 0.175731 0.089078 -1.365052
v 0.175731 0.084477 -1.470419
v 0.175731 0.044965 -1.468694
vt 0.214844 0.835938
vt 0.214844 0.84375
vt 0.164062 0.84375
vt 0.164062 0.835938
vt 0.214844 0.824219
vt 0.214844 0.832031
vt 0.164062 0.832031
vt 0.164062 0.824219
vt 0.128906 0.796875
vt 0.128906 0.746094
vt 0.132812 0.746094
vt 0.132812 0.796875
vt 0.203125 0.710938
vt 0.203125 0.761719
vt 0.207031 0.761719
vt 0.207031 0.710938
vt 0.222656 0.691406
vt 0.222656 0.699219
vt 0.21875 0.699219
vt 0.21875 0.691406
vt 0.167969 0.691406
vt 0.167969 0.699219
vt 0.164062 0.699219
vt 0.164062 0.691406
vt 0.332031 0.949219
vt 0.332031 0.960938
vt 0.078125 0.960938
vt 0.078125 0.949219
vt 0.332031 0.933594
vt 0.332031 0.945312
vt 0.078125 0.945312
vt 0.078125 0.933594
vt 0.078125 0.929688
vt 0.078125 0.675781
vt 0.089844 0.675781
vt 0.089844 0.929688
vt 0.09375 0.675781
vt 0.09375 0.929688
vt 0.105469 0.929688
vt 0.105469 0.675781
vt 0.253906 0.765625
vt 0.253906 0.777344
vt 0.242188 0.777344
vt 0.242188 0.765625
vt 0.253906 0.78125
vt 0.253906 0.792969
vt 0.242188 0.792969
vt 0.242188 0.78125
vt 0.125 0.78125
vt 0.125 0.796875
vt 0.109375 0.796875
vt 0.109375 0.78125
vt 0.21875 0.804688
vt 0.21875 0.820312
vt 0.203125 0.820312
vt 0.203125 0.804688
vt 0.203125 0.800781
vt 0.203125 0.785156
vt 0.21875 0.785156
vt 0.21875 0.800781
vt 0.207031 0.914062
vt 0.207031 0.929688
vt 0.222656 0.929688
vt 0.222656 0.914062
vt 0.179688 0.78125
vt 0.179688 0.796875
vt 0.164062 0.796875
vt 0.164062 0.78125
vt 0.21875 0.882812
vt 0.21875 0.898438
vt 0.203125 0.898438
vt 0.203125 0.882812
vt 0.261719 0.8125
vt 0.261719 0.828125
vt 0.253906 0.828125
vt 0.253906 0.8125
vt 0.230469 0.730469
vt 0.230469 0.746094
vt 0.222656 0.746094
vt 0.222656 0.730469
vt 0.234375 0.746094
vt 0.234375 0.738281
vt 0.25 0.738281
vt 0.25 0.746094
vt 0.253906 0.738281
vt 0.253906 0.746094
vt 0.269531 0.746094
vt 0.269531 0.738281
vt 0.125 0.761719
vt 0.125 0.777344
vt 0.109375 0.777344
vt 0.109375 0.761719
vt 0.238281 0.894531
vt 0.238281 0.910156
vt 0.222656 0.910156
vt 0.222656 0.894531
vt 0.132812 0.726562
vt 0.132812 0.742188
vt 0.125 0.742188
vt 0.125 0.726562
vt 0.265625 0.777344
vt 0.265625 0.792969
vt 0.257812 0.792969
vt 0.257812 0.777344
vt 0.257812 0.773438
vt 0.257812 0.765625
vt 0.273438 0.765625
vt 0.273438 0.773438
vt 0.257812 0.753906
vt 0.257812 0.761719
vt 0.273438 0.761719
vt 0.273438 0.753906
vt 0.179688 0.761719
vt 0.179688 0.777344
vt 0.164062 0.777344
vt 0.164062 0.761719
vt 0.238281 0.875
vt 0.238281 0.890625
vt 0.222656 0.890625
vt 0.222656 0.875
vt 0.238281 0.789062
vt 0.238281 0.804688
vt 0.222656 0.804688
vt 0.222656 0.789062
vt 0.242188 0.914062
vt 0.242188 0.929688
vt 0.226562 0.929688
vt 0.226562 0.914062
vt 0.234375 0.871094
vt 0.234375 0.855469
vt 0.25 0.855469
vt 0.25 0.871094
vt 0.222656 0.75
vt 0.222656 0.765625
vt 0.238281 0.765625
vt 0.238281 0.75
vt 0.238281 0.769531
vt 0.238281 0.785156
vt 0.222656 0.785156
vt 0.222656 0.769531
vt 0.238281 0.808594
vt 0.238281 0.824219
vt 0.222656 0.824219
vt 0.222656 0.808594
vt 0.21875 0.742188
vt 0.21875 0.761719
vt 0.210938 0.761719
vt 0.210938 0.742188
vt 0.25 0.808594
vt 0.25 0.828125
vt 0.242188 0.828125
vt 0.242188 0.808594
vt 0.242188 0.886719
vt 0.242188 0.878906
vt 0.261719 0.878906
vt 0.261719 0.886719
vt 0.242188 0.796875
vt 0.242188 0.804688
vt 0.261719 0.804688
vt 0.261719 0.796875
vt 0.183594 0.800781
vt 0.183594 0.820312
vt 0.164062 0.820312
vt 0.164062 0.800781
vt 0.199219 0.878906
vt 0.199219 0.898438
vt 0.179688 0.898438
vt 0.179688 0.878906
vt 0.035156 0.699219
vt 0.035156 0.703125
vt 0.023438 0.703125
vt 0.023438 0.699219
vt 0.308594 0.964844
vt 0.308594 0.96875
vt 0.296875 0.96875
vt 0.296875 0.964844
vt 0.039062 0.703125
vt 0.039062 0.691406
vt 0.042969 0.691406
vt 0.042969 0.703125
vt 0.046875 0.691406
vt 0.046875 0.703125
vt 0.050781 0.703125
vt 0.050781 0.691406
vt 0.289062 0.6875
vt 0.289062 0.691406
vt 0.285156 0.691406
vt 0.285156 0.6875
vt 0.28125 0.6875
vt 0.28125 0.691406
vt 0.277344 0.691406
vt 0.277344 0.6875
vt 0.203125 0.917969
vt 0.203125 0.929688
vt 0.109375 0.929688
vt 0.109375 0.917969
vt 0.203125 0.902344
vt 0.203125 0.914062
vt 0.109375 0.914062
vt 0.109375 0.902344
vt 0.1875 0.820312
vt 0.1875 0.726562
vt 0.191406 0.726562
vt 0.191406 0.820312
vt 0.195312 0.726562
vt 0.195312 0.820312
vt 0.199219 0.820312
vt 0.199219 0.726562
vt 0.113281 0.691406
vt 0.113281 0.703125
vt 0.109375 0.703125
vt 0.109375 0.691406
vt 0.074219 0.691406
vt 0.074219 0.703125
vt 0.070312 0.703125
vt 0.070312 0.691406
vt 0.296875 0.6875
vt 0.296875 0.691406
vt 0.292969 0.691406
vt 0.292969 0.6875
vt 0.003906 0.683594
vt 0.003906 0.6875
vt 0 0.6875
vt 0 0.683594
vt 0.296875 0.8125
vt 0.296875 0.808594
vt 0.308594 0.808594
vt 0.308594 0.8125
vt 0.296875 0.800781
vt 0.296875 0.804688
vt 0.308594 0.804688
vt 0.308594 0.800781
vt 0.308594 0.863281
vt 0.308594 0.867188
vt 0.296875 0.867188
vt 0.296875 0.863281
vt 0.308594 0.917969
vt 0.308594 0.921875
vt 0.296875 0.921875
vt 0.296875 0.917969
vt 0.300781 0.816406
vt 0.300781 0.820312
vt 0.277344 0.820312
vt 0.277344 0.816406
vt 0.300781 0.769531
vt 0.300781 0.773438
vt 0.277344 0.773438
vt 0.277344 0.769531
vt 0.167969 0.726562
vt 0.167969 0.703125
vt 0.171875 0.703125
vt 0.171875 0.726562
vt 0.222656 0.703125
vt 0.222656 0.726562
vt 0.226562 0.726562
vt 0.226562 0.703125
vt 0.011719 0.683594
vt 0.011719 0.6875
vt 0.007812 0.6875
vt 0.007812 0.683594
vt 0.316406 0.996094
vt 0.316406 1
vt 0.3125 1
vt 0.3125 0.996094
vt 0.308594 0.792969
vt 0.308594 0.796875
vt 0.296875 0.796875
vt 0.296875 0.792969
vt 0.308594 0.785156
vt 0.308594 0.789062
vt 0.296875 0.789062
vt 0.296875 0.785156
vt 0.117188 0.703125
vt 0.117188 0.691406
vt 0.121094 0.691406
vt 0.121094 0.703125
vt 0.144531 0.691406
vt 0.144531 0.703125
vt 0.148438 0.703125
vt 0.148438 0.691406
vt 0.019531 0.683594
vt 0.019531 0.6875
vt 0.015625 0.6875
vt 0.015625 0.683594
vt 0.316406 0.988281
vt 0.316406 0.992188
vt 0.3125 0.992188
vt 0.3125 0.988281
vt 0.300781 0.878906
vt 0.300781 0.882812
vt 0.285156 0.882812
vt 0.285156 0.878906
vt 0.03125 0.707031
vt 0.03125 0.710938
vt 0.015625 0.710938
vt 0.015625 0.707031
vt 0.230469 0.714844
vt 0.230469 0.699219
vt 0.234375 0.699219
vt 0.234375 0.714844
vt 0.238281 0.699219
vt 0.238281 0.714844
vt 0.242188 0.714844
vt 0.242188 0.699219
vt 0.027344 0.683594
vt 0.027344 0.6875
vt 0.023438 0.6875
vt 0.023438 0.683594
vt 0.316406 0.980469
vt 0.316406 0.984375
vt 0.3125 0.984375
vt 0.3125 0.980469
vt 0.175781 0.730469
vt 0.175781 0.738281
vt 0.160156 0.738281
vt 0.160156 0.730469
vt 0.28125 0.878906
vt 0.28125 0.886719
vt 0.265625 0.886719
vt 0.265625 0.878906
vt 0.210938 0.738281
vt 0.210938 0.722656
vt 0.21875 0.722656
vt 0.21875 0.738281
vt 0.144531 0.71875
vt 0.144531 0.734375
vt 0.152344 0.734375
vt 0.152344 0.71875
vt 0.296875 0.90625
vt 0.296875 0.914062
vt 0.289062 0.914062
vt 0.289062 0.90625
vt 0.269531 0.707031
vt 0.269531 0.714844
vt 0.261719 0.714844
vt 0.261719 0.707031
vt 0.269531 0.902344
vt 0.269531 0.910156
vt 0.242188 0.910156
vt 0.242188 0.902344
vt 0.269531 0.890625
vt 0.269531 0.898438
vt 0.242188 0.898438
vt 0.242188 0.890625
vt 0 0.726562
vt 0 0.699219
vt 0.003906 0.699219
vt 0.003906 0.726562
vt 0.007812 0.699219
vt 0.007812 0.726562
vt 0.011719 0.726562
vt 0.011719 0.699219
vt 0.304688 0.722656
vt 0.304688 0.730469
vt 0.300781 0.730469
vt 0.300781 0.722656
vt 0.304688 0.734375
vt 0.304688 0.742188
vt 0.300781 0.742188
vt 0.300781 0.734375
vt 0.308594 0.714844
vt 0.308594 0.71875
vt 0.300781 0.71875
vt 0.300781 0.714844
vt 0.007812 0.691406
vt 0.007812 0.695312
vt 0 0.695312
vt 0 0.691406
vt 0.304688 1
vt 0.304688 0.992188
vt 0.308594 0.992188
vt 0.308594 1
vt 0.304688 0.980469
vt 0.304688 0.988281
vt 0.308594 0.988281
vt 0.308594 0.980469
vt 0.316406 0.964844
vt 0.316406 0.96875
vt 0.3125 0.96875
vt 0.3125 0.964844
vt 0.035156 0.683594
vt 0.035156 0.6875
vt 0.03125 0.6875
vt 0.03125 0.683594
vt 0.308594 0.777344
vt 0.308594 0.78125
vt 0.296875 0.78125
vt 0.296875 0.777344
vt 0.269531 0.699219
vt 0.269531 0.703125
vt 0.257812 0.703125
vt 0.257812 0.699219
vt 0.125 0.722656
vt 0.125 0.710938
vt 0.132812 0.710938
vt 0.132812 0.722656
vt 0.1875 0.710938
vt 0.1875 0.722656
vt 0.195312 0.722656
vt 0.195312 0.710938
vt 0.3125 0.972656
vt 0.3125 0.976562
vt 0.304688 0.976562
vt 0.304688 0.972656
vt 0.03125 0.691406
vt 0.03125 0.695312
vt 0.023438 0.695312
vt 0.023438 0.691406
vt 0.273438 0.8125
vt 0.273438 0.828125
vt 0.265625 0.828125
vt 0.265625 0.8125
vt 0.242188 0.71875
vt 0.242188 0.734375
vt 0.234375 0.734375
vt 0.234375 0.71875
vt 0.054688 0.695312
vt 0.054688 0.6875
vt 0.058594 0.6875
vt 0.058594 0.695312
vt 0.0625 0.6875
vt 0.0625 0.695312
vt 0.066406 0.695312
vt 0.066406 0.6875
vt 0.160156 0.695312
vt 0.160156 0.710938
vt 0.15625 0.710938
vt 0.15625 0.695312
vt 0.140625 0.695312
vt 0.140625 0.710938
vt 0.136719 0.710938
vt 0.136719 0.695312
vt 0.050781 0.683594
vt 0.050781 0.6875
vt 0.046875 0.6875
vt 0.046875 0.683594
vt 0.316406 0.925781
vt 0.316406 0.929688
vt 0.3125 0.929688
vt 0.3125 0.925781
vt 0.3125 0.921875
vt 0.3125 0.917969
vt 0.316406 0.917969
vt 0.316406 0.921875
vt 0.109375 0.683594
vt 0.109375 0.6875
vt 0.113281 0.6875
vt 0.113281 0.683594
vt 0.074219 0.683594
vt 0.074219 0.6875
vt 0.070312 0.6875
vt 0.070312 0.683594
vt 0.042969 0.683594
vt 0.042969 0.6875
vt 0.039062 0.6875
vt 0.039062 0.683594
vt 0.3125 0.816406
vt 0.3125 0.820312
vt 0.304688 0.820312
vt 0.304688 0.816406
vt 0.3125 0.769531
vt 0.3125 0.773438
vt 0.304688 0.773438
vt 0.304688 0.769531
vt 0.246094 0.710938
vt 0.246094 0.703125
vt 0.253906 0.703125
vt 0.253906 0.710938
vt 0.289062 0.746094
vt 0.289062 0.753906
vt 0.296875 0.753906
vt 0.296875 0.746094
vt 0.234375 0.691406
vt 0.234375 0.695312
vt 0.226562 0.695312
vt 0.226562 0.691406
vt 0.3125 0.878906
vt 0.3125 0.882812
vt 0.304688 0.882812
vt 0.304688 0.878906
vt 0.3125 0.707031
vt 0.3125 0.710938
vt 0.304688 0.710938
vt 0.304688 0.707031
vt 0.3125 0.691406
vt 0.3125 0.695312
vt 0.304688 0.695312
vt 0.304688 0.691406
vt 0.289062 0.742188
vt 0.289062 0.734375
vt 0.296875 0.734375
vt 0.296875 0.742188
vt 0.289062 0.722656
vt 0.289062 0.730469
vt 0.296875 0.730469
vt 0.296875 0.722656
vt 0.3125 0.699219
vt 0.3125 0.703125
vt 0.304688 0.703125
vt 0.304688 0.699219
vt 0.265625 0.691406
vt 0.265625 0.695312
vt 0.257812 0.695312
vt 0.257812 0.691406
vt 0.308594 0.835938
vt 0.308594 0.839844
vt 0.300781 0.839844
vt 0.300781 0.835938
vt 0.308594 0.753906
vt 0.308594 0.757812
vt 0.300781 0.757812
vt 0.300781 0.753906
vt 0.273438 0.75
vt 0.273438 0.742188
vt 0.285156 0.742188
vt 0.285156 0.75
vt 0.277344 0.824219
vt 0.277344 0.832031
vt 0.289062 0.832031
vt 0.289062 0.824219
vt 0.308594 0.925781
vt 0.308594 0.929688
vt 0.296875 0.929688
vt 0.296875 0.925781
vt 0.066406 0.699219
vt 0.066406 0.703125
vt 0.054688 0.703125
vt 0.054688 0.699219
vt 0.292969 0.984375
vt 0.292969 1
vt 0.039062 1
vt 0.039062 0.984375
vt 0.292969 0.964844
vt 0.292969 0.980469
vt 0.039062 0.980469
vt 0.039062 0.964844
vt 0.039062 0.960938
vt 0.039062 0.707031
vt 0.054688 0.707031
vt 0.054688 0.960938
vt 0.058594 0.707031
vt 0.058594 0.960938
vt 0.074219 0.960938
vt 0.074219 0.707031
vt 0.21875 0.765625
vt 0.21875 0.78125
vt 0.203125 0.78125
vt 0.203125 0.765625
vt 0.234375 0.828125
vt 0.234375 0.84375
vt 0.21875 0.84375
vt 0.21875 0.828125
vt 0.207031 0.695312
vt 0.207031 0.707031
vt 0.203125 0.707031
vt 0.203125 0.695312
vt 0.285156 0.695312
vt 0.285156 0.707031
vt 0.28125 0.707031
vt 0.28125 0.695312
vt 0.210938 0.695312
vt 0.210938 0.691406
vt 0.214844 0.691406
vt 0.214844 0.695312
vt 0.238281 0.691406
vt 0.238281 0.695312
vt 0.242188 0.695312
vt 0.242188 0.691406
vt 0.277344 0.695312
vt 0.277344 0.707031
vt 0.273438 0.707031
vt 0.273438 0.695312
vt 0.199219 0.695312
vt 0.199219 0.707031
vt 0.195312 0.707031
vt 0.195312 0.695312
vt 0.21875 0.902344
vt 0.21875 0.910156
vt 0.207031 0.910156
vt 0.207031 0.902344
vt 0.28125 0.789062
vt 0.28125 0.796875
vt 0.269531 0.796875
vt 0.269531 0.789062
vt 0.015625 0.726562
vt 0.015625 0.714844
vt 0.023438 0.714844
vt 0.023438 0.726562
vt 0.027344 0.714844
vt 0.027344 0.726562
vt 0.035156 0.726562
vt 0.035156 0.714844
vt 0.292969 0.804688
vt 0.292969 0.8125
vt 0.285156 0.8125
vt 0.285156 0.804688
vt 0.152344 0.707031
vt 0.152344 0.714844
vt 0.144531 0.714844
vt 0.144531 0.707031
vt 0.292969 0.925781
vt 0.292969 0.929688
vt 0.261719 0.929688
vt 0.261719 0.925781
vt 0.292969 0.917969
vt 0.292969 0.921875
vt 0.261719 0.921875
vt 0.261719 0.917969
vt 0.109375 0.738281
vt 0.109375 0.707031
vt 0.113281 0.707031
vt 0.113281 0.738281
vt 0.117188 0.707031
vt 0.117188 0.738281
vt 0.121094 0.738281
vt 0.121094 0.707031
vt 0.3125 0.902344
vt 0.3125 0.90625
vt 0.308594 0.90625
vt 0.308594 0.902344
vt 0.3125 0.910156
vt 0.3125 0.914062
vt 0.308594 0.914062
vt 0.308594 0.910156
vt 0.289062 0.757812
vt 0.289062 0.765625
vt 0.277344 0.765625
vt 0.277344 0.757812
vt 0.257812 0.714844
vt 0.257812 0.722656
vt 0.246094 0.722656
vt 0.246094 0.714844
vt 0.296875 0.707031
vt 0.296875 0.695312
vt 0.300781 0.695312
vt 0.300781 0.707031
vt 0.300781 0.902344
vt 0.300781 0.914062
vt 0.304688 0.914062
vt 0.304688 0.902344
vt 0.308594 0.851562
vt 0.308594 0.859375
vt 0.304688 0.859375
vt 0.304688 0.851562
vt 0.128906 0.6875
vt 0.128906 0.695312
vt 0.125 0.695312
vt 0.125 0.6875
vt 0.300781 0.851562
vt 0.300781 0.855469
vt 0.28125 0.855469
vt 0.28125 0.851562
vt 0.304688 0.886719
vt 0.304688 0.890625
vt 0.285156 0.890625
vt 0.285156 0.886719
vt 0.175781 0.71875
vt 0.175781 0.699219
vt 0.179688 0.699219
vt 0.179688 0.71875
vt 0.210938 0.699219
vt 0.210938 0.71875
vt 0.214844 0.71875
vt 0.214844 0.699219
vt 0.136719 0.6875
vt 0.136719 0.691406
vt 0.132812 0.691406
vt 0.132812 0.6875
vt 0.3125 0.886719
vt 0.3125 0.890625
vt 0.308594 0.890625
vt 0.308594 0.886719
vt 0.175781 0.6875
vt 0.175781 0.695312
vt 0.171875 0.695312
vt 0.171875 0.6875
vt 0.191406 0.6875
vt 0.191406 0.695312
vt 0.1875 0.695312
vt 0.1875 0.6875
vt 0.117188 0.6875
vt 0.117188 0.683594
vt 0.121094 0.683594
vt 0.121094 0.6875
vt 0.3125 0.871094
vt 0.3125 0.875
vt 0.316406 0.875
vt 0.316406 0.871094
vt 0.183594 0.6875
vt 0.183594 0.695312
vt 0.179688 0.695312
vt 0.179688 0.6875
vt 0.308594 0.824219
vt 0.308594 0.832031
vt 0.304688 0.832031
vt 0.304688 0.824219
vt 0.28125 0.777344
vt 0.28125 0.785156
vt 0.269531 0.785156
vt 0.269531 0.777344
vt 0.285156 0.90625
vt 0.285156 0.914062
vt 0.273438 0.914062
vt 0.273438 0.90625
vt 0.273438 0.902344
vt 0.273438 0.890625
vt 0.28125 0.890625
vt 0.28125 0.902344
vt 0.15625 0.714844
vt 0.15625 0.726562
vt 0.164062 0.726562
vt 0.164062 0.714844
vt 0.292969 0.78125
vt 0.292969 0.789062
vt 0.285156 0.789062
vt 0.285156 0.78125
vt 0.292969 0.792969
vt 0.292969 0.800781
vt 0.285156 0.800781
vt 0.285156 0.792969
vt 0.214844 0.878906
vt 0.210938 0.878906
vt 0.214844 0.878906
vt 0.210938 0.878906
vt 0.230469 0.871094
vt 0.226562 0.871094
vt 0.230469 0.871094
vt 0.226562 0.871094
vt 0.203125 0.691406
vt 0.203125 0.6875
vt 0.207031 0.6875
vt 0.207031 0.691406
vt 0.246094 0.6875
vt 0.246094 0.691406
vt 0.25 0.691406
vt 0.25 0.6875
vt 0.222656 0.871094
vt 0.21875 0.871094
vt 0.222656 0.871094
vt 0.21875 0.871094
vt 0.207031 0.878906
vt 0.203125 0.878906
vt 0.207031 0.878906
vt 0.203125 0.878906
vt 0.25 0.914062
vt 0.246094 0.914062
vt 0.25 0.914062
vt 0.246094 0.914062
vt 0.257812 0.808594
vt 0.253906 0.808594
vt 0.257812 0.808594
vt 0.253906 0.808594
vt 0.308594 0.742188
vt 0.308594 0.738281
vt 0.3125 0.738281
vt 0.3125 0.742188
vt 0.308594 0.730469
vt 0.308594 0.734375
vt 0.3125 0.734375
vt 0.3125 0.730469
vt 0.257812 0.914062
vt 0.253906 0.914062
vt 0.257812 0.914062
vt 0.253906 0.914062
vt 0.246094 0.875
vt 0.242188 0.875
vt 0.246094 0.875
vt 0.242188 0.875
vt 0.265625 0.914062
vt 0.261719 0.914062
vt 0.265625 0.914062
vt 0.261719 0.914062
vt 0.273438 0.832031
vt 0.269531 0.832031
vt 0.273438 0.832031
vt 0.269531 0.832031
vt 0.269531 0.691406
vt 0.269531 0.6875
vt 0.273438 0.6875
vt 0.273438 0.691406
vt 0.308594 0.722656
vt 0.308594 0.726562
vt 0.3125 0.726562
vt 0.3125 0.722656
vt 0.269531 0.75
vt 0.265625 0.75
vt 0.269531 0.75
vt 0.265625 0.75
vt 0.261719 0.75
vt 0.257812 0.75
vt 0.261719 0.75
vt 0.257812 0.75
vt 0.300781 0.988281
vt 0.300781 1
vt 0.296875 1
vt 0.296875 0.988281
vt 0.300781 0.972656
vt 0.300781 0.984375
vt 0.296875 0.984375
vt 0.296875 0.972656
vt 0.152344 0.691406
vt 0.152344 0.6875
vt 0.15625 0.6875
vt 0.15625 0.691406
vt 0.195312 0.6875
vt 0.195312 0.691406
vt 0.199219 0.691406
vt 0.199219 0.6875
vt 0.019531 0.691406
vt 0.019531 0.703125
vt 0.015625 0.703125
vt 0.015625 0.691406
vt 0.292969 0.695312
vt 0.292969 0.707031
vt 0.289062 0.707031
vt 0.289062 0.695312
vt 0.253906 0.695312
vt 0.253906 0.699219
vt 0.246094 0.699219
vt 0.246094 0.695312
vt 0.308594 0.746094
vt 0.308594 0.75
vt 0.300781 0.75
vt 0.300781 0.746094
vt 0.238281 0.851562
vt 0.238281 0.84375
vt 0.265625 0.84375
vt 0.265625 0.851562
vt 0.238281 0.832031
vt 0.238281 0.839844
vt 0.265625 0.839844
vt 0.265625 0.832031
vt 0.296875 0.835938
vt 0.296875 0.839844
vt 0.269531 0.839844
vt 0.269531 0.835938
vt 0.296875 0.84375
vt 0.296875 0.847656
vt 0.269531 0.847656
vt 0.269531 0.84375
vt 0.30078 0.83594
vt 0.30078 0.83984
vt 0.30859 0.83984
vt 0.30859 0.83594
vt 0.30078 0.75391
vt 0.30078 0.75781
vt 0.30859 0.75781
vt 0.30859 0.75391
vt 0.28516 0.75
vt 0.28516 0.74219
vt 0.27344 0.74219
vt 0.27344 0.75
vt 0.28906 0.82422
vt 0.28906 0.83203
vt 0.27734 0.83203
vt 0.27734 0.82422
vt 0.29688 0.92578
vt 0.29688 0.92969
vt 0.30859 0.92969
vt 0.30859 0.92578
vt 0.05469 0.69922
vt 0.05469 0.70312
vt 0.06641 0.70312
vt 0.06641 0.69922
vt 0.03906 0.98438
vt 0.03906 1
vt 0.29297 1
vt 0.29297 0.98438
vt 0.03906 0.96484
vt 0.03906 0.98047
vt 0.29297 0.98047
vt 0.29297 0.96484
vt 0.05469 0.96094
vt 0.05469 0.70703
vt 0.03906 0.70703
vt 0.03906 0.96094
vt 0.07422 0.70703
vt 0.07422 0.96094
vt 0.05859 0.96094
vt 0.05859 0.70703
vt 0.20312 0.76562
vt 0.20312 0.78125
vt 0.21875 0.78125
vt 0.21875 0.76562
vt 0.21875 0.82812
vt 0.21875 0.84375
vt 0.23438 0.84375
vt 0.23438 0.82812
vt 0.20312 0.69531
vt 0.20312 0.70703
vt 0.20703 0.70703
vt 0.20703 0.69531
vt 0.28125 0.69531
vt 0.28125 0.70703
vt 0.28516 0.70703
vt 0.28516 0.69531
vt 0.21484 0.69531
vt 0.21484 0.69141
vt 0.21094 0.69141
vt 0.21094 0.69531
vt 0.24219 0.69141
vt 0.24219 0.69531
vt 0.23828 0.69531
vt 0.23828 0.69141
vt 0.27344 0.69531
vt 0.27344 0.70703
vt 0.27734 0.70703
vt 0.27734 0.69531
vt 0.19531 0.69531
vt 0.19531 0.70703
vt 0.19922 0.70703
vt 0.19922 0.69531
vt 0.20703 0.90234
vt 0.20703 0.91016
vt 0.21875 0.91016
vt 0.21875 0.90234
vt 0.26953 0.78906
vt 0.26953 0.79688
vt 0.28125 0.79688
vt 0.28125 0.78906
vt 0.02344 0.72656
vt 0.02344 0.71484
vt 0.01562 0.71484
vt 0.01562 0.72656
vt 0.03516 0.71484
vt 0.03516 0.72656
vt 0.02734 0.72656
vt 0.02734 0.71484
vt 0.28516 0.80469
vt 0.28516 0.8125
vt 0.29297 0.8125
vt 0.29297 0.80469
vt 0.14453 0.70703
vt 0.14453 0.71484
vt 0.15234 0.71484
vt 0.15234 0.70703
vt 0.26172 0.92578
vt 0.26172 0.92969
vt 0.29297 0.92969
vt 0.29297 0.92578
vt 0.26172 0.91797
vt 0.26172 0.92188
vt 0.29297 0.92188
vt 0.29297 0.91797
vt 0.11328 0.73828
vt 0.11328 0.70703
vt 0.10938 0.70703
vt 0.10938 0.73828
vt 0.12109 0.70703
vt 0.12109 0.73828
vt 0.11719 0.73828
vt 0.11719 0.70703
vt 0.30859 0.90234
vt 0.30859 0.90625
vt 0.3125 0.90625
vt 0.3125 0.90234
vt 0.30859 0.91016
vt 0.30859 0.91406
vt 0.3125 0.91406
vt 0.3125 0.91016
vt 0.28906 0.75781
vt 0.28906 0.76562
vt 0.27734 0.76562
vt 0.27734 0.75781
vt 0.25781 0.71484
vt 0.25781 0.72266
vt 0.24609 0.72266
vt 0.24609 0.71484
vt 0.29688 0.70703
vt 0.29688 0.69531
vt 0.30078 0.69531
vt 0.30078 0.70703
vt 0.30078 0.90234
vt 0.30078 0.91406
vt 0.30469 0.91406
vt 0.30469 0.90234
vt 0.30859 0.85156
vt 0.30859 0.85938
vt 0.30469 0.85938
vt 0.30469 0.85156
vt 0.12891 0.6875
vt 0.12891 0.69531
vt 0.125 0.69531
vt 0.125 0.6875
vt 0.30078 0.85156
vt 0.30078 0.85547
vt 0.28125 0.85547
vt 0.28125 0.85156
vt 0.30469 0.88672
vt 0.30469 0.89062
vt 0.28516 0.89062
vt 0.28516 0.88672
vt 0.17578 0.71875
vt 0.17578 0.69922
vt 0.17969 0.69922
vt 0.17969 0.71875
vt 0.21094 0.69922
vt 0.21094 0.71875
vt 0.21484 0.71875
vt 0.21484 0.69922
vt 0.13672 0.6875
vt 0.13672 0.69141
vt 0.13281 0.69141
vt 0.13281 0.6875
vt 0.3125 0.88672
vt 0.3125 0.89062
vt 0.30859 0.89062
vt 0.30859 0.88672
vt 0.17578 0.6875
vt 0.17578 0.69531
vt 0.17188 0.69531
vt 0.17188 0.6875
vt 0.19141 0.6875
vt 0.19141 0.69531
vt 0.1875 0.69531
vt 0.1875 0.6875
vt 0.11719 0.6875
vt 0.11719 0.68359
vt 0.12109 0.68359
vt 0.12109 0.6875
vt 0.3125 0.87109
vt 0.3125 0.875
vt 0.31641 0.875
vt 0.31641 0.87109
vt 0.18359 0.6875
vt 0.18359 0.69531
vt 0.17969 0.69531
vt 0.17969 0.6875
vt 0.30859 0.82422
vt 0.30859 0.83203
vt 0.30469 0.83203
vt 0.30469 0.82422
vt 0.26953 0.77734
vt 0.26953 0.78516
vt 0.28125 0.78516
vt 0.28125 0.77734
vt 0.27344 0.90625
vt 0.27344 0.91406
vt 0.28516 0.91406
vt 0.28516 0.90625
vt 0.28125 0.90234
vt 0.28125 0.89062
vt 0.27344 0.89062
vt 0.27344 0.90234
vt 0.16406 0.71484
vt 0.16406 0.72656
vt 0.15625 0.72656
vt 0.15625 0.71484
vt 0.28516 0.78125
vt 0.28516 0.78906
vt 0.29297 0.78906
vt 0.29297 0.78125
vt 0.28516 0.79297
vt 0.28516 0.80078
vt 0.29297 0.80078
vt 0.29297 0.79297
vt 0.20312 0.69141
vt 0.20312 0.6875
vt 0.20703 0.6875
vt 0.20703 0.69141
vt 0.30859 0.74219
vt 0.30859 0.73828
vt 0.3125 0.73828
vt 0.3125 0.74219
vt 0.26953 0.69141
vt 0.26953 0.6875
vt 0.27344 0.6875
vt 0.27344 0.69141
vt 0.29688 0.98828
vt 0.29688 1
vt 0.30078 1
vt 0.30078 0.98828
vt 0.29688 0.97266
vt 0.29688 0.98438
vt 0.30078 0.98438
vt 0.30078 0.97266
vt 0.15625 0.69141
vt 0.15625 0.6875
vt 0.15234 0.6875
vt 0.15234 0.69141
vt 0.19922 0.6875
vt 0.19922 0.69141
vt 0.19531 0.69141
vt 0.19531 0.6875
vt 0.01562 0.69141
vt 0.01562 0.70312
vt 0.01953 0.70312
vt 0.01953 0.69141
vt 0.28906 0.69531
vt 0.28906 0.70703
vt 0.29297 0.70703
vt 0.29297 0.69531
vt 0.24609 0.69531
vt 0.24609 0.69922
vt 0.25391 0.69922
vt 0.25391 0.69531
vt 0.30078 0.74609
vt 0.30078 0.75
vt 0.30859 0.75
vt 0.30859 0.74609
vt 0.26562 0.85156
vt 0.26562 0.84375
vt 0.23828 0.84375
vt 0.23828 0.85156
vt 0.26562 0.83203
vt 0.26562 0.83984
vt 0.23828 0.83984
vt 0.23828 0.83203
vt 0.26953 0.83594
vt 0.26953 0.83984
vt 0.29688 0.83984
vt 0.29688 0.83594
vt 0.26953 0.84375
vt 0.26953 0.84766
vt 0.29688 0.84766
vt 0.29688 0.84375
vn -1 0 0
vn 1 0 0
vn 0 1 0
vn 0 -0.999999999998894 0.0000014873139556154192
vn 0 0 -1
vn 0 0 1
vn -0.9999999999999576 0 2.9174243460840077e-7
vn 0.9999999999999576 0 -2.91742434604352e-7
vn 0 1 0
vn 0 -1 0
vn 0 0 -1
vn 0 0 1
vn -1 0 0
vn 1 0 0
vn 0 1 0
vn 0 -1 0
vn 0 0 -1
vn 0 0 1
vn -1 0 0
vn 1 0 0
vn 0 1 0
vn 0 -1 0
vn 0 0 -1
vn 0 0 1
vn -1 0 0
vn 1 0 0
vn 0 1 0
vn 0 -1 0
vn 0 -0.0000047408194033087035 -0.9999999999887624
vn 0 0 1
vn -1 0 0
vn 1 0 0
vn 0 1 0
vn 0 -1 0
vn 0 0 -1
vn 0 0 1
vn -1 0 0
vn 1 0 0
vn 0 1 0
vn 0 -1 0
vn 0 0 -1
vn 0 0.000004214057252031662 0.999999999991121
vn -1 0 0
vn 1 0 0
vn 0 1 0
vn 0 -1 0
vn 0 0 -1
vn 0 0 1
vn -1 0 0
vn 1 0 0
vn 0 1 0
vn 0 -1 0
vn 0 0 -1
vn 0 0 1
vn -1 0 0
vn 1 0 0
vn 0 1 0
vn 0 -1 0
vn 0 0 -1
vn 0 0 1
vn -1 0 0
vn 1 0 0
vn 0 0.9990481016847303 -0.043622133374434026
vn 0 -0.9990482454064894 0.043618841688138885
vn 0 -0.04363472878027279 -0.9990475516431998
vn 0 0.043633902122251676 0.9990475877482443
vn -1 0 0
vn 1 0 0
vn 0 0.9990481147078855 -0.04362183511293338
vn 0 -0.9990483901630713 0.043615526049510835
vn 0 -0.043615737923878926 -0.9990483809132347
vn 0 0.04361510230694631 0.9990484086623405
vn -1 0 0
vn 1 0 0
vn 0 0.9990483935986907 -0.04361544735384109
vn 0 -0.9990483935986907 0.04361544735384109
vn 0 -0.04361607692714298 -0.9990483661132157
vn 0 0.04361607692714298 0.9990483661132157
vn -1 0 0
vn 1 0 0
vn 0 1 0
vn 0 -1 0
vn 0 0 -1
vn 0 0 1
vn -1 0 0
vn 1 0 0
vn 0 1 0
vn 0 -1 0
vn 0 0 -1
vn 0 0 1
vn -1 0 0
vn 1 0 0
vn 0 1 0
vn 0 -1 0
vn 0 0 -1
vn 0 0 1
vn -1 0 0
vn 1 0 0
vn 0 1 0
vn 0 -1 0
vn 0 0 -1
vn 0 0 1
vn -1 0 0
vn 1 0 0
vn 0 0.9848061728938284 0.1736571387251643
vn 0 -0.9848064588272474 -0.1736555171946376
vn 0 0.17365551719463765 -0.9848064588272474
vn 0 -0.17365091935330665 0.9848072695749922
vn -1 0 0
vn 1 0 0
vn 0 0.9961949112189874 0.08715330665783028
vn 0 -0.9961964134530716 -0.08713613385523104
vn 0 0.08715495307622705 -0.9961947671787285
vn 0 -0.08717541903435387 0.9961929764439141
vn -1 0 0
vn 1 0 0
vn 0 1 0
vn 0 -1 0
vn 0 0 -1
vn 0 0 1
vn -1 0 0
vn 1 0 0
vn 0 1 0
vn 0 -1 0
vn 0 0 -1
vn 0 0 1
vn -1 0 0
vn 1 0 0
vn 0 1 0
vn 0 -1 0
vn 0 0 -1
vn 0 0 1
vn -0.9999999999999575 0 2.917424346084007e-7
vn 1 0 0
vn 0 0.9999999999999575 -2.9174243460030324e-7
vn 0 -1 0
vn 0 0 -1
vn 0 0 1
vn -1 0 0
vn 1 0 0
vn 0 1 0
vn 0 -1 0
vn 0 0 -1
vn 0 0 1
vn -1 0 0
vn 1 0 0
vn 0 1 0
vn 0 -1 0
vn 0 0 -1
vn 0 0 1
vn -1 0 0
vn 0.9999999999968036 0 -0.0000025284322203119167
vn 0 1 0
vn 0 -1 0
vn 0 0 -1
vn 0 0 1
vn -1 0 0
vn 1 0 0
vn 0 1 0
vn 0 -1 0
vn 0 0 -1
vn 0 0 1
vn -1 0 0
vn 1 0 0
vn 0 1 0
vn 0 -1 0
vn 0 0 -1
vn 0 0 1
vn -1 0 0
vn 1 0 0
vn 0 0.9659283294562694 -0.25880970297463857
vn 0 -0.9659175770493336 0.2588498297220709
vn 0 -0.2588161790708537 -0.9659265942353819
vn 0 0.25881207331568723 0.9659276943467536
vn -1 0 0
vn 1 0 0
vn 0 1 0
vn 0 -1 0
vn 0 0 -1
vn 0 0 1
vn 0 0 0
vn 0 0 0
vn 0 0.9659270592197875 -0.2588144436985949
vn 0 -0.9659270592197875 0.2588144436985949
vn 0 0 0
vn 0 0 0
vn 0 0 0
vn 0 0 0
vn 0 0.9659175770493333 -0.2588498297220713
vn 0 -0.9659175770493333 0.2588498297220713
vn 0 0 0
vn 0 0 0
vn 0 0 0
vn 0 0 0
vn 0 0.9659270592197875 -0.2588144436985949
vn 0 -0.9659270592197875 0.2588144436985949
vn 0 0 0
vn 0 0 0
vn -1 0 0
vn 1 0 0
vn 0 1 0
vn 0 -1 0
vn 0 0 -1
vn 0 0 1
vn -1 0 0
vn 1 0 0
vn 0 0.999047982980337 -0.04362485189568403
vn 0 -0.999047982980337 0.043624851895683964
vn 0 -0.043616076927142984 -0.9990483661132157
vn 0 0.04361607692714298 0.9990483661132157
vn 1 0 0
vn -1 0 0
vn 0 -1 0
vn 0 1 0
vn 0 0 1
vn 0 0 -1
vn 0.9999999999999575 0 -2.917424346084007e-7
vn -1 0 0
vn 0 -0.9999999999999575 2.9174243460030324e-7
vn 0 1 0
vn 0 0 1
vn 0 0 -1
vn 1 0 0
vn -1 0 0
vn 0 -1 0
vn 0 1 0
vn 0 0 1
vn 0 0 -1
vn 1 0 0
vn -1 0 0
vn 0 -1 0
vn 0 1 0
vn 0 0 1
vn 0 0 -1
vn 1 0 0
vn -0.9999999999968036 0 0.0000025284322203119167
vn 0 -1 0
vn 0 1 0
vn 0 0 1
vn 0 0 -1
vn -1 0 0
vn 1 0 0
vn 0 1 0
vn 0 -1 0
vn 0 0 -1
vn 0 0 1
vn -1 0 0
vn 1 0 0
vn 0 1 0
vn 0 -1 0
vn 0 0 -1
vn 0 0 1
vn -1 0 0
vn 1 0 0
vn 0 0.9659283294562694 -0.25880970297463857
vn 0 -0.9659175770493336 0.2588498297220709
vn 0 -0.2588161790708537 -0.9659265942353819
vn 0 0.25881207331568723 0.9659276943467536
vn 1 0 0
vn -1 0 0
vn 0 -1 0
vn 0 1 0
vn 0 0 1
vn 0 0 -1
vn 0 0.9659270592197875 -0.2588144436985949
vn 0 0.9659175770493333 -0.2588498297220713
vn 0 0.9659270592197875 -0.2588144436985949
vn 1 0 0
vn -1 0 0
vn 0 -1 0
vn 0 1 0
vn 0 0 1
vn 0 0 -1
vn 1 0 0
vn -1 0 0
vn 0 -0.999047982980337 0.04362485189568403
vn 0 0.999047982980337 -0.043624851895683964
vn 0 0.043616076927142984 0.9990483661132157
vn 0 -0.04361607692714298 -0.9990483661132157
usemtl none
f 1/1/1 2/2/1 3/3/1 4/4/1
f 5/5/2 6/6/2 7/7/2 8/8/2
f 3/9/3 2/10/3 7/11/3 6/12/3
f 1/13/4 4/14/4 5/15/4 8/16/4
f 4/17/5 3/18/5 6/19/5 5/20/5
f 8/21/6 7/22/6 2/23/6 1/24/6
f 9/25/7 10/26/7 11/27/7 12/28/7
f 13/29/8 14/30/8 15/31/8 16/32/8
f 11/33/9 10/34/9 15/35/9 14/36/9
f 9/37/10 12/38/10 13/39/10 16/40/10
f 12/41/11 11/42/11 14/43/11 13/44/11
f 16/45/12 15/46/12 10/47/12 9/48/12
f 17/49/13 18/50/13 19/51/13 20/52/13
f 21/53/14 22/54/14 23/55/14 24/56/14
f 19/57/15 18/58/15 23/59/15 22/60/15
f 17/61/16 20/62/16 21/63/16 24/64/16
f 20/65/17 19/66/17 22/67/17 21/68/17
f 24/69/18 23/70/18 18/71/18 17/72/18
f 25/73/19 26/74/19 27/75/19 28/76/19
f 29/77/20 30/78/20 31/79/20 32/80/20
f 27/81/21 26/82/21 31/83/21 30/84/21
f 25/85/22 28/86/22 29/87/22 32/88/22
f 28/89/23 27/90/23 30/91/23 29/92/23
f 32/93/24 31/94/24 26/95/24 25/96/24
f 33/97/25 34/98/25 35/99/25 36/100/25
f 37/101/26 38/102/26 39/103/26 40/104/26
f 35/105/27 34/106/27 39/107/27 38/108/27
f 33/109/28 36/110/28 37/111/28 40/112/28
f 36/113/29 35/114/29 38/115/29 37/116/29
f 40/117/30 39/118/30 34/119/30 33/120/30
f 41/121/31 42/122/31 43/123/31 44/124/31
f 45/125/32 46/126/32 47/127/32 48/128/32
f 43/129/33 42/130/33 47/131/33 46/132/33
f 41/133/34 44/134/34 45/135/34 48/136/34
f 44/137/35 43/138/35 46/139/35 45/140/35
f 48/141/36 47/142/36 42/143/36 41/144/36
f 49/145/37 50/146/37 51/147/37 52/148/37
f 53/149/38 54/150/38 55/151/38 56/152/38
f 51/153/39 50/154/39 55/155/39 54/156/39
f 49/157/40 52/158/40 53/159/40 56/160/40
f 52/161/41 51/162/41 54/163/41 53/164/41
f 56/165/42 55/166/42 50/167/42 49/168/42
f 57/169/43 58/170/43 59/171/43 60/172/43
f 61/173/44 62/174/44 63/175/44 64/176/44
f 59/177/45 58/178/45 63/179/45 62/180/45
f 57/181/46 60/182/46 61/183/46 64/184/46
f 60/185/47 59/186/47 62/187/47 61/188/47
f 64/189/48 63/190/48 58/191/48 57/192/48
f 65/193/49 66/194/49 67/195/49 68/196/49
f 69/197/50 70/198/50 71/199/50 72/200/50
f 67/201/51 66/202/51 71/203/51 70/204/51
f 65/205/52 68/206/52 69/207/52 72/208/52
f 68/209/53 67/210/53 70/211/53 69/212/53
f 72/213/54 71/214/54 66/215/54 65/216/54
f 73/217/55 74/218/55 75/219/55 76/220/55
f 77/221/56 78/222/56 79/223/56 80/224/56
f 75/225/57 74/226/57 79/227/57 78/228/57
f 73/229/58 76/230/58 77/231/58 80/232/58
f 76/233/59 75/234/59 78/235/59 77/236/59
f 80/237/60 79/238/60 74/239/60 73/240/60
f 81/241/61 82/242/61 83/243/61 84/244/61
f 85/245/62 86/246/62 87/247/62 88/248/62
f 83/249/63 82/250/63 87/251/63 86/252/63
f 81/253/64 84/254/64 85/255/64 88/256/64
f 84/257/65 83/258/65 86/259/65 85/260/65
f 88/261/66 87/262/66 82/263/66 81/264/66
f 89/265/67 90/266/67 91/267/67 92/268/67
f 93/269/68 94/270/68 95/271/68 96/272/68
f 91/273/69 90/274/69 95/275/69 94/276/69
f 89/277/70 92/278/70 93/279/70 96/280/70
f 92/281/71 91/282/71 94/283/71 93/284/71
f 96/285/72 95/286/72 90/287/72 89/288/72
f 97/289/73 98/290/73 99/291/73 100/292/73
f 101/293/74 102/294/74 103/295/74 104/296/74
f 99/297/75 98/298/75 103/299/75 102/300/75
f 97/301/76 100/302/76 101/303/76 104/304/76
f 100/305/77 99/306/77 102/307/77 101/308/77
f 104/309/78 103/310/78 98/311/78 97/312/78
f 105/313/79 106/314/79 107/315/79 108/316/79
f 109/317/80 110/318/80 111/319/80 112/320/80
f 107/321/81 106/322/81 111/323/81 110/324/81
f 105/325/82 108/326/82 109/327/82 112/328/82
f 108/329/83 107/330/83 110/331/83 109/332/83
f 112/333/84 111/334/84 106/335/84 105/336/84
f 113/337/85 114/338/85 115/339/85 116/340/85
f 117/341/86 118/342/86 119/343/86 120/344/86
f 115/345/87 114/346/87 119/347/87 118/348/87
f 113/349/88 116/350/88 117/351/88 120/352/88
f 116/353/89 115/354/89 118/355/89 117/356/89
f 120/357/90 119/358/90 114/359/90 113/360/90
f 121/361/91 122/362/91 123/363/91 124/364/91
f 125/365/92 126/366/92 127/367/92 128/368/92
f 123/369/93 122/370/93 127/371/93 126/372/93
f 121/373/94 124/374/94 125/375/94 128/376/94
f 124/377/95 123/378/95 126/379/95 125/380/95
f 128/381/96 127/382/96 122/383/96 121/384/96
f 129/385/97 130/386/97 131/387/97 132/388/97
f 133/389/98 134/390/98 135/391/98 136/392/98
f 131/393/99 130/394/99 135/395/99 134/396/99
f 129/397/100 132/398/100 133/399/100 136/400/100
f 132/401/101 131/402/101 134/403/101 133/404/101
f 136/405/102 135/406/102 130/407/102 129/408/102
f 137/409/103 138/410/103 139/411/103 140/412/103
f 141/413/104 142/414/104 143/415/104 144/416/104
f 139/417/105 138/418/105 143/419/105 142/420/105
f 137/421/106 140/422/106 141/423/106 144/424/106
f 140/425/107 139/426/107 142/427/107 141/428/107
f 144/429/108 143/430/108 138/431/108 137/432/108
f 145/433/109 146/434/109 147/435/109 148/436/109
f 149/437/110 150/438/110 151/439/110 152/440/110
f 147/441/111 146/442/111 151/443/111 150/444/111
f 145/445/112 148/446/112 149/447/112 152/448/112
f 148/449/113 147/450/113 150/451/113 149/452/113
f 152/453/114 151/454/114 146/455/114 145/456/114
f 153/457/115 154/458/115 155/459/115 156/460/115
f 157/461/116 158/462/116 159/463/116 160/464/116
f 155/465/117 154/466/117 159/467/117 158/468/117
f 153/469/118 156/470/118 157/471/118 160/472/118
f 156/473/119 155/474/119 158/475/119 157/476/119
f 160/477/120 159/478/120 154/479/120 153/480/120
f 161/481/121 162/482/121 163/483/121 164/484/121
f 165/485/122 166/486/122 167/487/122 168/488/122
f 163/489/123 162/490/123 167/491/123 166/492/123
f 161/493/124 164/494/124 165/495/124 168/496/124
f 164/497/125 163/498/125 166/499/125 165/500/125
f 168/501/126 167/502/126 162/503/126 161/504/126
f 169/505/127 170/506/127 171/507/127 172/508/127
f 173/509/128 174/510/128 175/511/128 176/512/128
f 171/513/129 170/514/129 175/515/129 174/516/129
f 169/517/130 172/518/130 173/519/130 176/520/130
f 172/521/131 171/522/131 174/523/131 173/524/131
f 176/525/132 175/526/132 170/527/132 169/528/132
f 177/529/133 178/530/133 179/531/133 180/532/133
f 181/533/134 182/534/134 183/535/134 184/536/134
f 179/537/135 178/538/135 183/539/135 182/540/135
f 177/541/136 180/542/136 181/543/136 184/544/136
f 180/545/137 179/546/137 182/547/137 181/548/137
f 184/549/138 183/550/138 178/551/138 177/552/138
f 185/553/139 186/554/139 187/555/139 188/556/139
f 189/557/140 190/558/140 191/559/140 192/560/140
f 187/561/141 186/562/141 191/563/141 190/564/141
f 185/565/142 188/566/142 189/567/142 192/568/142
f 188/569/143 187/570/143 190/571/143 189/572/143
f 192/573/144 191/574/144 186/575/144 185/576/144
f 193/577/145 194/578/145 195/579/145 196/580/145
f 197/581/146 198/582/146 199/583/146 200/584/146
f 195/585/147 194/586/147 199/587/147 198/588/147
f 193/589/148 196/590/148 197/591/148 200/592/148
f 196/593/149 195/594/149 198/595/149 197/596/149
f 200/597/150 199/598/150 194/599/150 193/600/150
f 201/601/151 202/602/151 203/603/151 204/604/151
f 205/605/152 206/606/152 207/607/152 208/608/152
f 203/609/153 202/610/153 207/611/153 206/612/153
f 201/613/154 204/614/154 205/615/154 208/616/154
f 204/617/155 203/618/155 206/619/155 205/620/155
f 208/621/156 207/622/156 202/623/156 201/624/156
f 209/625/157 210/626/157 211/627/157 212/628/157
f 213/629/158 214/630/158 215/631/158 216/632/158
f 211/633/159 210/634/159 215/635/159 214/636/159
f 209/637/160 212/638/160 213/639/160 216/640/160
f 212/641/161 211/642/161 214/643/161 213/644/161
f 216/645/162 215/646/162 210/647/162 209/648/162
f 217/649/163 218/650/163 219/651/163 220/652/163
f 221/653/164 222/654/164 223/655/164 224/656/164
f 219/657/165 218/658/165 223/659/165 222/660/165
f 217/661/166 220/662/166 221/663/166 224/664/166
f 220/665/167 219/666/167 222/667/167 221/668/167
f 224/669/168 223/670/168 218/671/168 217/672/168
f 225/673/169 226/674/169 227/675/169 228/676/169
f 229/677/170 230/678/170 231/679/170 232/680/170
f 227/681/171 226/682/171 231/683/171 230/684/171
f 225/685/172 228/686/172 229/687/172 232/688/172
f 228/689/173 227/690/173 230/691/173 229/692/173
f 232/693/174 231/694/174 226/695/174 225/696/174
f 233/697/175 234/698/175 235/699/175 236/700/175
f 237/701/176 238/702/176 239/703/176 240/704/176
f 235/705/177 234/706/177 239/707/177 238/708/177
f 233/709/178 236/710/178 237/711/178 240/712/178
f 236/713/179 235/714/179 238/715/179 237/716/179
f 240/717/180 239/718/180 234/719/180 233/720/180
f 241/721/181 242/722/181 243/723/181 244/724/181
f 245/725/182 246/726/182 247/727/182 248/728/182
f 242/729/183 241/730/183 246/731/183 245/732/183
f 243/733/184 244/734/184 247/735/184 248/736/184
f 242/737/185 245/738/185 244/739/185 247/740/185
f 246/741/186 241/742/186 248/743/186 243/744/186
f 249/745/187 250/746/187 251/747/187 252/748/187
f 253/749/188 254/750/188 255/751/188 256/752/188
f 250/753/189 249/754/189 254/755/189 253/756/189
f 251/757/190 252/758/190 255/759/190 256/760/190
f 250/761/191 253/762/191 252/763/191 255/764/191
f 254/765/192 249/766/192 256/767/192 251/768/192
f 257/769/193 258/770/193 259/771/193 260/772/193
f 261/773/194 262/774/194 263/775/194 264/776/194
f 258/777/195 257/778/195 262/779/195 261/780/195
f 259/781/196 260/782/196 263/783/196 264/784/196
f 258/785/197 261/786/197 260/787/197 263/788/197
f 262/789/198 257/790/198 264/791/198 259/792/198
f 265/793/199 266/794/199 267/795/199 268/796/199
f 269/797/200 270/798/200 271/799/200 272/800/200
f 267/801/201 266/802/201 271/803/201 270/804/201
f 265/805/202 268/806/202 269/807/202 272/808/202
f 268/809/203 267/810/203 270/811/203 269/812/203
f 272/813/204 271/814/204 266/815/204 265/816/204
f 273/817/205 274/818/205 275/819/205 276/820/205
f 277/821/206 278/822/206 279/823/206 280/824/206
f 275/825/207 274/826/207 279/827/207 278/828/207
f 273/829/208 276/830/208 277/831/208 280/832/208
f 276/833/209 275/834/209 278/835/209 277/836/209
f 280/837/210 279/838/210 274/839/210 273/840/210
f 281/841/211 282/842/211 283/843/211 284/844/211
f 285/845/212 286/846/212 287/847/212 288/848/212
f 287/849/213 286/850/213 283/851/213 282/852/213
f 285/853/214 288/854/214 281/855/214 284/856/214
f 288/857/215 287/858/215 282/859/215 281/860/215
f 284/861/216 283/862/216 286/863/216 285/864/216
f 289/865/217 290/866/217 291/867/217 292/868/217
f 293/869/218 294/870/218 295/871/218 296/872/218
f 295/873/219 294/874/219 291/875/219 290/876/219
f 293/877/220 296/878/220 289/879/220 292/880/220
f 296/881/221 295/882/221 290/883/221 289/884/221
f 292/885/222 291/886/222 294/887/222 293/888/222
f 297/889/223 298/890/223 299/891/223 300/892/223
f 301/893/224 302/894/224 303/895/224 304/896/224
f 303/897/225 302/898/225 299/899/225 298/900/225
f 301/901/226 304/902/226 297/903/226 300/904/226
f 304/905/227 303/906/227 298/907/227 297/908/227
f 300/909/228 299/910/228 302/911/228 301/912/228
f 305/913/229 306/914/229 307/915/229 308/916/229
f 309/917/230 310/918/230 311/919/230 312/920/230
f 311/921/231 310/922/231 307/923/231 306/924/231
f 309/925/232 312/926/232 305/927/232 308/928/232
f 312/929/233 311/930/233 306/931/233 305/932/233
f 308/933/234 307/934/234 310/935/234 309/936/234
f 313/937/235 314/938/235 315/939/235 316/940/235
f 317/941/236 318/942/236 319/943/236 320/944/236
f 319/945/237 318/946/237 315/947/237 314/948/237
f 317/949/238 320/950/238 313/951/238 316/952/238
f 320/953/239 319/954/239 314/955/239 313/956/239
f 316/957/240 315/958/240 318/959/240 317/960/240
f 321/961/241 322/962/241 323/963/241 324/964/241
f 325/965/242 326/966/242 327/967/242 328/968/242
f 323/969/243 322/970/243 327/971/243 326/972/243
f 321/973/244 324/974/244 325/975/244 328/976/244
f 324/977/245 323/978/245 326/979/245 325/980/245
f 328/981/246 327/982/246 322/983/246 321/984/246
f 329/985/247 330/986/247 331/987/247 332/988/247
f 333/989/248 334/990/248 335/991/248 336/992/248
f 331/993/249 330/994/249 335/995/249 334/996/249
f 329/997/250 332/998/250 333/999/250 336/1000/250
f 332/1001/251 331/1002/251 334/1003/251 333/1004/251
f 336/1005/252 335/1006/252 330/1007/252 329/1008/252
f 337/1009/253 338/1010/253 339/1011/253 340/1012/253
f 341/1013/254 342/1014/254 343/1015/254 344/1016/254
f 339/1017/255 338/1018/255 343/1019/255 342/1020/255
f 337/1021/256 340/1022/256 341/1023/256 344/1024/256
f 340/1025/257 339/1026/257 342/1027/257 341/1028/257
f 344/1029/258 343/1030/258 338/1031/258 337/1032/258
f 345/1033/259 346/1034/259 347/1035/259 348/1036/259
f 349/1037/260 350/1038/260 351/1039/260 352/1040/260
f 351/1041/261 350/1042/261 347/1043/261 346/1044/261
f 349/1045/262 352/1046/262 345/1047/262 348/1048/262
f 352/1049/263 351/1050/263 346/1051/263 345/1052/263
f 348/1053/264 347/1054/264 350/1055/264 349/1056/264
f 353/1057/265 354/1058/265 355/1059/265 356/1060/265
f 357/1061/266 358/1062/266 359/1063/266 360/1064/266
f 361/1065/267 362/1066/267 363/1067/267 364/1068/267
f 365/1069/268 366/1070/268 367/1071/268 368/1072/268
f 369/1073/269 370/1074/269 371/1075/269 372/1076/269
f 371/1077/270 370/1078/270 367/1079/270 366/1080/270
f 369/1081/271 372/1082/271 365/1083/271 368/1084/271
f 372/1085/272 371/1086/272 366/1087/272 365/1088/272
f 368/1089/273 367/1090/273 370/1091/273 369/1092/273
f 373/1093/274 374/1094/274 375/1095/274 376/1096/274
f 377/1097/275 378/1098/275 379/1099/275 380/1100/275
f 379/1101/276 378/1102/276 375/1103/276 374/1104/276
f 377/1105/277 380/1106/277 373/1107/277 376/1108/277
f 380/1109/278 379/1110/278 374/1111/278 373/1112/278
f 376/1113/279 375/1114/279 378/1115/279 377/1116/279