# Blender 3.6.23
# www.blender.org
mtllib shahed136.mtl
o cube
v 0.274893 0.304931 3.062654
v 0.274893 0.304930 -0.040342
v 0.031098 0.061137 3.062654
v 0.031098 0.061135 -0.040342
v 0.031098 0.548724 -0.040342
v 0.031098 0.548726 3.062654
v -0.212695 0.304930 -0.040342
v -0.212695 0.304931 3.062654
vn -0.0000 -0.0000 -1.0000
vn 0.7071 -0.7071 -0.0000
vn -0.0000 -0.0000 1.0000
vn -0.7071 0.7071 -0.0000
vn 0.7071 0.7071 -0.0000
vn -0.7071 -0.7071 -0.0000
vt 0.000000 0.421875
vt 0.046875 0.421875
vt 0.046875 0.468750
vt 0.000000 0.468750
vt 0.000000 0.953125
vt 0.437500 0.953125
vt 0.437500 1.000000
vt 0.000000 1.000000
vt 0.093750 0.421875
vt 0.093750 0.468750
vt 0.000000 0.906250
vt 0.437500 0.906250
vt 0.046875 0.906250
vt 0.093750 0.906250
s 0
usemtl m_e4394358-a593-7451-82f0-9366c87a21be.002
f 4/1/1 7/2/1 5/3/1 2/4/1
f 3/5/2 4/6/2 2/7/2 1/8/2
f 8/2/3 3/9/3 1/10/3 6/3/3
f 7/11/4 8/12/4 6/6/4 5/5/4
f 6/13/5 1/11/5 2/4/5 5/3/5
f 7/10/6 4/3/6 3/13/6 8/14/6
o cube.001
v 0.227459 0.333285 1.931880
v 2.133933 0.333285 0.184920
v 0.227459 0.275822 1.931880
v 2.133933 0.275822 0.184920
v 1.998057 0.333285 0.036638
v 0.091584 0.333285 1.783600
v 1.998057 0.275822 0.036638
v 0.091584 0.275822 1.783600
vn 0.7373 -0.0000 -0.6756
vn 0.6756 -0.0000 0.7373
vn -0.7373 -0.0000 0.6756
vn -0.6756 -0.0000 -0.7373
vn -0.0000 1.0000 -0.0000
vn -0.0000 -1.0000 -0.0000
vt 0.156250 0.289062
vt 0.187500 0.289062
vt 0.187500 0.296875
vt 0.156250 0.296875
vt 0.437500 0.960938
vt 0.789062 0.960938
vt 0.789062 0.968750
vt 0.437500 0.968750
vt 0.703125 0.648438
vt 0.734375 0.648438
vt 0.734375 0.656250
vt 0.703125 0.656250
vt 0.437500 0.945312
vt 0.789062 0.945312
vt 0.789062 0.953125
vt 0.437500 0.953125
vt 0.125000 0.906250
vt 0.093750 0.906250
vt 0.093750 0.554688
vt 0.125000 0.554688
vt 0.156250 0.554688
vt 0.156250 0.906250
s 0
usemtl m_e4394358-a593-7451-82f0-9366c87a21be.002
f 12/15/7 15/16/7 13/17/7 10/18/7
f 11/19/8 12/20/8 10/21/8 9/22/8
f 16/23/9 11/24/9 9/25/9 14/26/9
f 15/27/10 16/28/10 14/29/10 13/30/10
f 14/31/11 9/32/11 10/33/11 13/34/11
f 15/35/12 12/34/12 11/31/12 16/36/12
o cube.002
v 2.126127 0.333285 0.189510
v 2.126127 0.333285 -0.040342
v 2.126127 0.275822 0.189510
v 2.126127 0.275822 -0.040342
v 0.241344 0.333285 -0.040342
v 0.241344 0.333285 0.189510
v 0.241344 0.275822 -0.040342
v 0.241344 0.275822 0.189510
vn -0.0000 -0.0000 -1.0000
vn 1.0000 -0.0000 -0.0000
vn -0.0000 -0.0000 1.0000
vn -1.0000 -0.0000 -0.0000
vn -0.0000 1.0000 -0.0000
vn -0.0000 -1.0000 -0.0000
vt 0.546875 0.460938
vt 0.804688 0.460938
vt 0.804688 0.468750
vt 0.546875 0.468750
vt 0.718750 0.585938
vt 0.750000 0.585938
vt 0.750000 0.593750
vt 0.718750 0.593750
vt 0.546875 0.445312
vt 0.804688 0.445312
vt 0.804688 0.453125
vt 0.546875 0.453125
vt 0.718750 0.570312
vt 0.750000 0.570312
vt 0.750000 0.578125
vt 0.718750 0.578125
vt 0.617188 0.718750
vt 0.359375 0.718750
vt 0.359375 0.687500
vt 0.617188 0.687500
vt 0.617188 0.656250
vt 0.359375 0.656250
s 0
usemtl m_e4394358-a593-7451-82f0-9366c87a21be.002
f 20/37/13 23/38/13 21/39/13 18/40/13
f 19/41/14 20/42/14 18/43/14 17/44/14
f 24/45/15 19/46/15 17/47/15 22/48/15
f 23/49/16 24/50/16 22/51/16 21/52/16
f 22/53/17 17/54/17 18/55/17 21/56/17
f 23/57/18 20/58/18 19/55/18 24/56/18
o cube.003
v 1.845248 0.333285 0.183694
v 1.674592 0.333285 0.013039
v 1.845248 0.275822 0.183694
v 1.674592 0.275822 0.013039
v 0.130559 0.333285 1.557070
v 0.301216 0.333285 1.727726
v 0.130559 0.275822 1.557070
v 0.301216 0.275822 1.727726
vn -0.7071 -0.0000 -0.7071
vn 0.7071 -0.0000 -0.7071
vn 0.7071 -0.0000 0.7071
vn -0.7071 -0.0000 0.7071
vn -0.0000 1.0000 -0.0000
vn -0.0000 -1.0000 -0.0000
vt 0.546875 0.523438
vt 0.843750 0.523438
vt 0.843750 0.531250
vt 0.546875 0.531250
vt 0.468750 0.273438
vt 0.500000 0.273438
vt 0.500000 0.281250
vt 0.468750 0.281250
vt 0.546875 0.507812
vt 0.843750 0.507812
vt 0.843750 0.515625
vt 0.546875 0.515625
vt 0.531250 0.273438
vt 0.531250 0.281250
vt 0.609375 0.843750
vt 0.312500 0.843750
vt 0.312500 0.812500
vt 0.609375 0.812500
vt 0.609375 0.781250
vt 0.312500 0.781250
s 0
usemtl m_e4394358-a593-7451-82f0-9366c87a21be.002
f 28/59/19 31/60/19 29/61/19 26/62/19
f 27/63/20 28/64/20 26/65/20 25/66/20
f 32/67/21 27/68/21 25/69/21 30/70/21
f 31/64/22 32/71/22 30/72/22 29/65/22
f 30/73/23 25/74/23 26/75/23 29/76/23
f 31/77/24 28/78/24 27/75/24 32/76/24
o cube.004
v 0.402240 0.333285 1.712277
v 0.402240 0.333285 0.189510
v 0.402240 0.275822 1.712277
v 0.402240 0.275822 0.189510
v 0.057463 0.333285 0.189510
v 0.057463 0.333285 1.712277
v 0.057463 0.275822 0.189510
v 0.057463 0.275822 1.712277
vn -0.0000 -0.0000 -1.0000
vn 1.0000 -0.0000 -0.0000
vn -0.0000 -0.0000 1.0000
vn -1.0000 -0.0000 -0.0000
vn -0.0000 1.0000 -0.0000
vn -0.0000 -1.0000 -0.0000
vt 0.328125 0.320312
vt 0.375000 0.320312
vt 0.375000 0.328125
vt 0.328125 0.328125
vt 0.000000 0.367188
vt 0.210938 0.367188
vt 0.210938 0.375000
vt 0.000000 0.375000
vt 0.671875 0.632812
vt 0.718750 0.632812
vt 0.718750 0.640625
vt 0.671875 0.640625
vt 0.625000 0.773438
vt 0.835938 0.773438
vt 0.835938 0.781250
vt 0.625000 0.781250
vt 0.265625 0.906250
vt 0.218750 0.906250
vt 0.218750 0.695312
vt 0.265625 0.695312
vt 0.312500 0.695312
vt 0.312500 0.906250
s 0
usemtl m_e4394358-a593-7451-82f0-9366c87a21be.002
f 36/79/25 39/80/25 37/81/25 34/82/25
f 35/83/26 36/84/26 34/85/26 33/86/26
f 40/87/27 35/88/27 33/89/27 38/90/27
f 39/91/28 40/92/28 38/93/28 37/94/28
f 38/95/29 33/96/29 34/97/29 37/98/29
f 39/99/30 36/98/30 35/95/30 40/100/30
o cube.005
v 1.091795 0.333285 1.108916
v 1.091795 0.333285 0.189510
v 1.091795 0.275822 1.108916
v 1.091795 0.275822 0.189510
v 0.747018 0.333285 0.189510
v 0.747018 0.333285 1.108916
v 0.747018 0.275822 0.189510
v 0.747018 0.275822 1.108916
vn -0.0000 -0.0000 -1.0000
vn 1.0000 -0.0000 -0.0000
vn -0.0000 -0.0000 1.0000
vn -1.0000 -0.0000 -0.0000
vn -0.0000 1.0000 -0.0000
vn -0.0000 -1.0000 -0.0000
vt 0.375000 0.320312
vt 0.421875 0.320312
vt 0.421875 0.328125
vt 0.375000 0.328125
vt 0.656250 0.898438
vt 0.781250 0.898438
vt 0.781250 0.906250
vt 0.656250 0.906250
vt 0.671875 0.617188
vt 0.718750 0.617188
vt 0.718750 0.625000
vt 0.671875 0.625000
vt 0.656250 0.882812
vt 0.781250 0.882812
vt 0.781250 0.890625
vt 0.656250 0.890625
vt 0.187500 0.546875
vt 0.140625 0.546875
vt 0.140625 0.421875
vt 0.187500 0.421875
vt 0.234375 0.390625
vt 0.187500 0.390625
vt 0.187500 0.515625
vt 0.234375 0.515625
s 0
usemtl m_e4394358-a593-7451-82f0-9366c87a21be.002
f 44/101/31 47/102/31 45/103/31 42/104/31
f 43/105/32 44/106/32 42/107/32 41/108/32
f 48/109/33 43/110/33 41/111/33 46/112/33
f 47/113/34 48/114/34 46/115/34 45/116/34
f 46/117/35 41/118/35 42/119/35 45/120/35
f 47/121/36 44/122/36 43/123/36 48/124/36
o cube.006
v 0.747018 0.333285 1.453694
v 0.747018 0.333285 0.189510
v 0.747018 0.275822 1.453694
v 0.747018 0.275822 0.189510
v 0.402240 0.333285 0.189510
v 0.402240 0.333285 1.453694
v 0.402240 0.275822 0.189510
v 0.402240 0.275822 1.453694
vn -0.0000 -0.0000 -1.0000
vn 1.0000 -0.0000 -0.0000
vn -0.0000 -0.0000 1.0000
vn -1.0000 -0.0000 -0.0000
vn -0.0000 1.0000 -0.0000
vn -0.0000 -1.0000 -0.0000
vt 0.421875 0.320312
vt 0.468750 0.320312
vt 0.468750 0.328125
vt 0.421875 0.328125
vt 0.625000 0.664062
vt 0.796875 0.664062
vt 0.796875 0.671875
vt 0.625000 0.671875
vt 0.562500 0.320312
vt 0.609375 0.320312
vt 0.609375 0.328125
vt 0.562500 0.328125
vt 0.625000 0.382812
vt 0.796875 0.382812
vt 0.796875 0.390625
vt 0.625000 0.390625
vt 0.312500 0.687500
vt 0.265625 0.687500
vt 0.265625 0.515625
vt 0.312500 0.515625
vt 0.406250 0.484375
vt 0.359375 0.484375
vt 0.359375 0.656250
vt 0.406250 0.656250
s 0
usemtl m_e4394358-a593-7451-82f0-9366c87a21be.002
f 52/125/37 55/126/37 53/127/37 50/128/37
f 51/129/38 52/130/38 50/131/38 49/132/38
f 56/133/39 51/134/39 49/135/39 54/136/39
f 55/137/40 56/138/40 54/139/40 53/140/40
f 54/141/41 49/142/41 50/143/41 53/144/41
f 55/145/42 52/146/42 51/147/42 56/148/42
o cube.007
v 1.494035 0.333285 0.764139
v 1.494035 0.333285 0.189510
v 1.494035 0.275822 0.764139
v 1.494035 0.275822 0.189510
v 1.091795 0.333285 0.189510
v 1.091795 0.333285 0.764139
v 1.091795 0.275822 0.189510
v 1.091795 0.275822 0.764139
vn -0.0000 -0.0000 -1.0000
vn 1.0000 -0.0000 -0.0000
vn -0.0000 -0.0000 1.0000
vn -1.0000 -0.0000 -0.0000
vn -0.0000 1.0000 -0.0000
vn -0.0000 -1.0000 -0.0000
vt 0.656250 0.570312
vt 0.710938 0.570312
vt 0.710938 0.578125
vt 0.656250 0.578125
vt 0.656250 0.820312
vt 0.734375 0.820312
vt 0.734375 0.828125
vt 0.656250 0.828125
vt 0.562500 0.335938
vt 0.617188 0.335938
vt 0.617188 0.343750
vt 0.562500 0.343750
vt 0.250000 0.335938
vt 0.328125 0.335938
vt 0.328125 0.343750
vt 0.250000 0.343750
vt 0.398438 0.484375
vt 0.343750 0.484375
vt 0.343750 0.406250
vt 0.398438 0.406250
vt 0.539062 0.406250
vt 0.484375 0.406250
vt 0.484375 0.484375
vt 0.539062 0.484375
s 0
usemtl m_e4394358-a593-7451-82f0-9366c87a21be.002
f 60/149/43 63/150/43 61/151/43 58/152/43
f 59/153/44 60/154/44 58/155/44 57/156/44
f 64/157/45 59/158/45 57/159/45 62/160/45
f 63/161/46 64/162/46 62/163/46 61/164/46
f 62/165/47 57/166/47 58/167/47 61/168/47
f 63/169/48 60/170/48 59/171/48 64/172/48
o cube.008
v -0.034121 0.333285 1.783600
v -1.940594 0.333285 0.036638
v -0.034121 0.275822 1.783600
v -1.940594 0.275822 0.036638
v -2.076470 0.333285 0.184920
v -0.169996 0.333285 1.931880
v -2.076470 0.275822 0.184920
v -0.169996 0.275822 1.931880
vn -0.7373 -0.0000 -0.6756
vn 0.6756 -0.0000 -0.7373
vn 0.7373 -0.0000 0.6756
vn -0.6756 -0.0000 0.7373
vn -0.0000 1.0000 -0.0000
vn -0.0000 -1.0000 -0.0000
vt 0.718750 0.632812
vt 0.750000 0.632812
vt 0.750000 0.640625
vt 0.718750 0.640625
vt 0.437500 0.929688
vt 0.789062 0.929688
vt 0.789062 0.937500
vt 0.437500 0.937500
vt 0.718750 0.617188
vt 0.750000 0.617188
vt 0.750000 0.625000
vt 0.718750 0.625000
vt 0.437500 0.914062
vt 0.789062 0.914062
vt 0.789062 0.921875
vt 0.437500 0.921875
vt 0.187500 0.906250
vt 0.156250 0.906250
vt 0.156250 0.554688
vt 0.187500 0.554688
vt 0.218750 0.554688
vt 0.218750 0.906250
s 0
usemtl m_e4394358-a593-7451-82f0-9366c87a21be.002
f 68/173/49 71/174/49 69/175/49 66/176/49
f 67/177/50 68/178/50 66/179/50 65/180/50
f 72/181/51 67/182/51 65/183/51 70/184/51
f 71/185/52 72/186/52 70/187/52 69/188/52
f 70/189/53 65/190/53 66/191/53 69/192/53
f 71/193/54 68/192/54 67/189/54 72/194/54
o cube.009
v -0.172389 0.333285 0.189510
v -0.172389 0.333285 -0.040342
v -0.172389 0.275822 0.189510
v -0.172389 0.275822 -0.040342
v -2.068664 0.333285 -0.040342
v -2.068664 0.333285 0.189510
v -2.068664 0.275822 -0.040342
v -2.068664 0.275822 0.189510
vn -0.0000 -0.0000 -1.0000
vn 1.0000 -0.0000 -0.0000
vn -0.0000 -0.0000 1.0000
vn -1.0000 -0.0000 -0.0000
vn -0.0000 1.0000 -0.0000
vn -0.0000 -1.0000 -0.0000
vt 0.546875 0.492188
vt 0.804688 0.492188
vt 0.804688 0.500000
vt 0.546875 0.500000
vt 0.703125 0.289062
vt 0.734375 0.289062
vt 0.734375 0.296875
vt 0.703125 0.296875
vt 0.546875 0.476562
vt 0.804688 0.476562
vt 0.804688 0.484375
vt 0.546875 0.484375
vt 0.000000 0.273438
vt 0.031250 0.273438
vt 0.031250 0.281250
vt 0.000000 0.281250
vt 0.617188 0.781250
vt 0.359375 0.781250
vt 0.359375 0.750000
vt 0.617188 0.750000
vt 0.617188 0.718750
vt 0.359375 0.718750
s 0
usemtl m_e4394358-a593-7451-82f0-9366c87a21be.002
f 76/195/55 79/196/55 77/197/55 74/198/55
f 75/199/56 76/200/56 74/201/56 73/202/56
f 80/203/57 75/204/57 73/205/57 78/206/57
f 79/207/58 80/208/58 78/209/58 77/210/58
f 78/211/59 73/212/59 74/213/59 77/214/59
f 79/215/60 76/216/60 75/213/60 80/214/60
o cube.010
v -0.251881 0.333285 1.735852
v -0.073096 0.333285 1.557070
v -0.251881 0.275822 1.735852
v -0.073096 0.275822 1.557070
v -1.617129 0.333285 0.013039
v -1.795911 0.333285 0.191821
v -1.617129 0.275822 0.013039
v -1.795911 0.275822 0.191821
vn 0.7071 -0.0000 -0.7071
vn 0.7071 -0.0000 0.7071
vn -0.7071 -0.0000 0.7071
vn -0.7071 -0.0000 -0.7071
vn -0.0000 1.0000 -0.0000
vn -0.0000 -1.0000 -0.0000
vt 0.546875 0.554688
vt 0.843750 0.554688
vt 0.843750 0.562500
vt 0.546875 0.562500
vt 0.671875 0.289062
vt 0.703125 0.289062
vt 0.703125 0.296875
vt 0.671875 0.296875
vt 0.546875 0.539062
vt 0.843750 0.539062
vt 0.843750 0.546875
vt 0.546875 0.546875
vt 0.703125 0.320312
vt 0.734375 0.320312
vt 0.734375 0.328125
vt 0.703125 0.328125
vt 0.609375 0.906250
vt 0.312500 0.906250
vt 0.312500 0.875000
vt 0.609375 0.875000
vt 0.609375 0.843750
vt 0.312500 0.843750
s 0
usemtl m_e4394358-a593-7451-82f0-9366c87a21be.002
f 84/217/61 87/218/61 85/219/61 82/220/61
f 83/221/62 84/222/62 82/223/62 81/224/62
f 88/225/63 83/226/63 81/227/63 86/228/63
f 87/229/64 88/230/64 86/231/64 85/232/64
f 86/233/65 81/234/65 82/235/65 85/236/65
f 87/237/66 84/238/66 83/235/66 88/236/66
o cube.011
v -0.114926 0.333285 1.712277
v -0.114926 0.333285 0.189510
v -0.114926 0.275822 1.712277
v -0.114926 0.275822 0.189510
v -0.344777 0.333285 0.189510
v -0.344777 0.333285 1.712277
v -0.344777 0.275822 0.189510
v -0.344777 0.275822 1.712277
vn -0.0000 -0.0000 -1.0000
vn 1.0000 -0.0000 -0.0000
vn -0.0000 -0.0000 1.0000
vn -1.0000 -0.0000 -0.0000
vn -0.0000 1.0000 -0.0000
vn -0.0000 -1.0000 -0.0000
vt 0.703125 0.351562
vt 0.734375 0.351562
vt 0.734375 0.359375
vt 0.703125 0.359375
vt 0.609375 0.804688
vt 0.820312 0.804688
vt 0.820312 0.812500
vt 0.609375 0.812500
vt 0.703125 0.335938
vt 0.734375 0.335938
vt 0.734375 0.343750
vt 0.703125 0.343750
vt 0.609375 0.789062
vt 0.820312 0.789062
vt 0.820312 0.796875
vt 0.609375 0.796875
vt 0.343750 0.609375
vt 0.312500 0.609375
vt 0.312500 0.398438
vt 0.343750 0.398438
vt 0.437500 0.351562
vt 0.406250 0.351562
vt 0.406250 0.562500
vt 0.437500 0.562500
s 0
usemtl m_e4394358-a593-7451-82f0-9366c87a21be.002
f 92/239/67 95/240/67 93/241/67 90/242/67
f 91/243/68 92/244/68 90/245/68 89/246/68
f 96/247/69 91/248/69 89/249/69 94/250/69
f 95/251/70 96/252/70 94/253/70 93/254/70
f 94/255/71 89/256/71 90/257/71 93/258/71
f 95/259/72 92/260/72 91/261/72 96/262/72
o cube.012
v -0.689555 0.333285 1.108916
v -0.689555 0.333285 0.189510
v -0.689555 0.275822 1.108916
v -0.689555 0.275822 0.189510
v -1.034332 0.333285 0.189510
v -1.034332 0.333285 1.108916
v -1.034332 0.275822 0.189510
v -1.034332 0.275822 1.108916
vn -0.0000 -0.0000 -1.0000
vn 1.0000 -0.0000 -0.0000
vn -0.0000 -0.0000 1.0000
vn -1.0000 -0.0000 -0.0000
vn -0.0000 1.0000 -0.0000
vn -0.0000 -1.0000 -0.0000
vt 0.046875 0.320312
vt 0.093750 0.320312
vt 0.093750 0.328125
vt 0.046875 0.328125
vt 0.031250 0.351562
vt 0.156250 0.351562
vt 0.156250 0.359375
vt 0.031250 0.359375
vt 0.140625 0.320312
vt 0.140625 0.328125
vt 0.031250 0.335938
vt 0.156250 0.335938
vt 0.156250 0.343750
vt 0.031250 0.343750
vt 0.484375 0.562500
vt 0.437500 0.562500
vt 0.437500 0.437500
vt 0.484375 0.437500
vt 0.140625 0.421875
vt 0.093750 0.421875
vt 0.093750 0.546875
vt 0.140625 0.546875
s 0
usemtl m_e4394358-a593-7451-82f0-9366c87a21be.002
f 100/263/73 103/264/73 101/265/73 98/266/73
f 99/267/74 100/268/74 98/269/74 97/270/74
f 104/264/75 99/271/75 97/272/75 102/265/75
f 103/273/76 104/274/76 102/275/76 101/276/76
f 102/277/77 97/278/77 98/279/77 101/280/77
f 103/281/78 100/282/78 99/283/78 104/284/78
o cube.013
v -0.344777 0.333285 1.453694
v -0.344777 0.333285 0.189510
v -0.344777 0.275822 1.453694
v -0.344777 0.275822 0.189510
v -0.689555 0.333285 0.189510
v -0.689555 0.333285 1.453694
v -0.689555 0.275822 0.189510
v -0.689555 0.275822 1.453694
vn -0.0000 -0.0000 -1.0000
vn 1.0000 -0.0000 -0.0000
vn -0.0000 -0.0000 1.0000
vn -1.0000 -0.0000 -0.0000
vn -0.0000 1.0000 -0.0000
vn -0.0000 -1.0000 -0.0000
vt 0.625000 0.335938
vt 0.671875 0.335938
vt 0.671875 0.343750
vt 0.625000 0.343750
vt 0.000000 0.414062
vt 0.171875 0.414062
vt 0.171875 0.421875
vt 0.000000 0.421875
vt 0.000000 0.320312
vt 0.046875 0.320312
vt 0.046875 0.328125
vt 0.000000 0.328125
vt 0.000000 0.398438
vt 0.171875 0.398438
vt 0.171875 0.406250
vt 0.000000 0.406250
vt 0.265625 0.687500
vt 0.218750 0.687500
vt 0.218750 0.515625
vt 0.265625 0.515625
vt 0.359375 0.609375
vt 0.312500 0.609375
vt 0.312500 0.781250
vt 0.359375 0.781250
s 0
usemtl m_e4394358-a593-7451-82f0-9366c87a21be.002
f 108/285/79 111/286/79 109/287/79 106/288/79
f 107/289/80 108/290/80 106/291/80 105/292/80
f 112/293/81 107/294/81 105/295/81 110/296/81
f 111/297/82 112/298/82 110/299/82 109/300/82
f 110/301/83 105/302/83 106/303/83 109/304/83
f 111/305/84 108/306/84 107/307/84 112/308/84
o cube.014
v -1.034332 0.333285 0.764139
v -1.034332 0.333285 0.189510
v -1.034332 0.275822 0.764139
v -1.034332 0.275822 0.189510
v -1.436572 0.333285 0.189510
v -1.436572 0.333285 0.764139
v -1.436572 0.275822 0.189510
v -1.436572 0.275822 0.764139
vn -0.0000 -0.0000 -1.0000
vn 1.0000 -0.0000 -0.0000
vn -0.0000 -0.0000 1.0000
vn -1.0000 -0.0000 -0.0000
vn -0.0000 1.0000 -0.0000
vn -0.0000 -1.0000 -0.0000
vt 0.406250 0.335938
vt 0.460938 0.335938
vt 0.460938 0.343750
vt 0.406250 0.343750
vt 0.656250 0.851562
vt 0.734375 0.851562
vt 0.734375 0.859375
vt 0.656250 0.859375
vt 0.656250 0.585938
vt 0.710938 0.585938
vt 0.710938 0.593750
vt 0.656250 0.593750
vt 0.656250 0.835938
vt 0.734375 0.835938
vt 0.734375 0.843750
vt 0.656250 0.843750
vt 0.289062 0.515625
vt 0.234375 0.515625
vt 0.234375 0.437500
vt 0.289062 0.437500
vt 0.539062 0.484375
vt 0.484375 0.484375
vt 0.484375 0.562500
vt 0.539062 0.562500
s 0
usemtl m_e4394358-a593-7451-82f0-9366c87a21be.002
f 116/309/85 119/310/85 117/311/85 114/312/85
f 115/313/86 116/314/86 114/315/86 113/316/86
f 120/317/87 115/318/87 113/319/87 118/320/87
f 119/321/88 120/322/88 118/323/88 117/324/88
f 118/325/89 113/326/89 114/327/89 117/328/89
f 119/329/90 116/330/90 115/331/90 120/332/90
o cube.015
v 2.097396 0.655077 0.005629
v 2.097396 0.655077 -0.270193
v 2.097396 0.287314 0.005629
v 2.097396 0.287314 -0.270193
v 2.068664 0.655077 -0.270193
v 2.068664 0.655077 0.005629
v 2.068664 0.287314 -0.270193
v 2.068664 0.287314 0.005629
vn -0.0000 -0.0000 -1.0000
vn 1.0000 -0.0000 -0.0000
vn -0.0000 -0.0000 1.0000
vn -1.0000 -0.0000 -0.0000
vn -0.0000 1.0000 -0.0000
vn -0.0000 -1.0000 -0.0000
vt 0.296875 0.281250
vt 0.304688 0.281250
vt 0.304688 0.328125
vt 0.296875 0.328125
vt 0.437500 0.343750
vt 0.476562 0.343750
vt 0.476562 0.390625
vt 0.437500 0.390625
vt 0.312500 0.281250
vt 0.320312 0.281250
vt 0.320312 0.328125
vt 0.312500 0.328125
vt 0.484375 0.343750
vt 0.523438 0.343750
vt 0.523438 0.390625
vt 0.484375 0.390625
vt 0.695312 0.765625
vt 0.687500 0.765625
vt 0.687500 0.726562
vt 0.695312 0.726562
vt 0.695312 0.679688
vt 0.687500 0.679688
vt 0.687500 0.718750
vt 0.695312 0.718750
s 0
usemtl m_e4394358-a593-7451-82f0-9366c87a21be.002
f 124/333/91 127/334/91 125/335/91 122/336/91
f 123/337/92 124/338/92 122/339/92 121/340/92
f 128/341/93 123/342/93 121/343/93 126/344/93
f 127/345/94 128/346/94 126/347/94 125/348/94
f 126/349/95 121/350/95 122/351/95 125/352/95
f 127/353/96 124/354/96 123/355/96 128/356/96
o cube.016
v 2.097396 0.652453 0.004240
v 2.097396 0.599675 -0.123173
v 2.097396 0.333919 0.136181
v 2.097396 0.281143 0.008767
v 2.068664 0.599675 -0.123173
v 2.068664 0.652453 0.004240
v 2.068664 0.281143 0.008767
v 2.068664 0.333919 0.136181
vn -0.0000 -0.3827 -0.9239
vn 1.0000 -0.0000 -0.0000
vn -0.0000 0.3827 0.9239
vn -1.0000 -0.0000 -0.0000
vn -0.0000 0.9239 -0.3827
vn -0.0000 -0.9239 0.3827
vt 0.281250 0.281250
vt 0.289062 0.281250
vt 0.289062 0.328125
vt 0.281250 0.328125
vt 0.187500 0.312500
vt 0.203125 0.312500
vt 0.203125 0.359375
vt 0.187500 0.359375
vt 0.671875 0.671875
vt 0.679688 0.671875
vt 0.679688 0.718750
vt 0.671875 0.718750
vt 0.218750 0.312500
vt 0.218750 0.359375
vt 0.679688 0.281250
vt 0.671875 0.281250
vt 0.671875 0.265625
vt 0.679688 0.265625
vt 0.695312 0.265625
vt 0.687500 0.265625
vt 0.687500 0.281250
vt 0.695312 0.281250
s 0
usemtl m_e4394358-a593-7451-82f0-9366c87a21be.002
f 132/357/97 135/358/97 133/359/97 130/360/97
f 131/361/98 132/362/98 130/363/98 129/364/98
f 136/365/99 131/366/99 129/367/99 134/368/99
f 135/362/100 136/369/100 134/370/100 133/363/100
f 134/371/101 129/372/101 130/373/101 133/374/101
f 135/375/102 132/376/102 131/377/102 136/378/102
o cube.017
v 2.097396 0.287314 0.005629
v 2.097396 0.287314 -0.270193
v 2.097396 -0.080448 0.005629
v 2.097396 -0.080448 -0.270193
v 2.068664 0.287314 -0.270193
v 2.068664 0.287314 0.005629
v 2.068664 -0.080448 -0.270193
v 2.068664 -0.080448 0.005629
vn -0.0000 -0.0000 -1.0000
vn 1.0000 -0.0000 -0.0000
vn -0.0000 -0.0000 1.0000
vn -1.0000 -0.0000 -0.0000
vn -0.0000 1.0000 -0.0000
vn -0.0000 -1.0000 -0.0000
vt 0.250000 0.281250
vt 0.257812 0.281250
vt 0.257812 0.328125
vt 0.250000 0.328125
vt 0.250000 0.343750
vt 0.289062 0.343750
vt 0.289062 0.390625
vt 0.250000 0.390625
vt 0.265625 0.281250
vt 0.273438 0.281250
vt 0.273438 0.328125
vt 0.265625 0.328125
vt 0.296875 0.343750
vt 0.335938 0.343750
vt 0.335938 0.390625
vt 0.296875 0.390625
vt 0.195312 0.312500
vt 0.187500 0.312500
vt 0.187500 0.273438
vt 0.195312 0.273438
vt 0.210938 0.273438
vt 0.203125 0.273438
vt 0.203125 0.312500
vt 0.210938 0.312500
s 0
usemtl m_e4394358-a593-7451-82f0-9366c87a21be.002
f 140/379/103 143/380/103 141/381/103 138/382/103
f 139/383/104 140/384/104 138/385/104 137/386/104
f 144/387/105 139/388/105 137/389/105 142/390/105
f 143/391/106 144/392/106 142/393/106 141/394/106
f 142/395/107 137/396/107 138/397/107 141/398/107
f 143/399/108 140/400/108 139/401/108 144/402/108
o cube.018
v 2.097396 0.291143 0.157071
v 2.097396 0.343920 0.029658
v 2.097396 -0.077824 0.004240
v 2.097396 -0.025046 -0.123173
v 2.068664 0.343920 0.029658
v 2.068664 0.291143 0.157071
v 2.068664 -0.025046 -0.123173
v 2.068664 -0.077824 0.004240
vn -0.0000 0.3827 -0.9239
vn 1.0000 -0.0000 -0.0000
vn -0.0000 -0.3827 0.9239
vn -1.0000 -0.0000 -0.0000
vn -0.0000 0.9239 0.3827
vn -0.0000 -0.9239 -0.3827
vt 0.531250 0.289062
vt 0.539062 0.289062
vt 0.539062 0.343750
vt 0.531250 0.343750
vt 0.156250 0.304688
vt 0.171875 0.304688
vt 0.171875 0.359375
vt 0.156250 0.359375
vt 0.546875 0.289062
vt 0.554688 0.289062
vt 0.554688 0.343750
vt 0.546875 0.343750
vt 0.187500 0.304688
vt 0.187500 0.359375
vt 0.726562 0.375000
vt 0.718750 0.375000
vt 0.718750 0.359375
vt 0.726562 0.359375
vt 0.664062 0.265625
vt 0.656250 0.265625
vt 0.656250 0.281250
vt 0.664062 0.281250
s 0
usemtl m_e4394358-a593-7451-82f0-9366c87a21be.002
f 148/403/109 151/404/109 149/405/109 146/406/109
f 147/407/110 148/408/110 146/409/110 145/410/110
f 152/411/111 147/412/111 145/413/111 150/414/111
f 151/408/112 152/415/112 150/416/112 149/409/112
f 150/417/113 145/418/113 146/419/113 149/420/113
f 151/421/114 148/422/114 147/423/114 152/424/114
o cube.019
v -2.011201 0.655077 0.005629
v -2.011201 0.655077 -0.270193
v -2.011201 0.287314 0.005629
v -2.011201 0.287314 -0.270193
v -2.039933 0.655077 -0.270193
v -2.039933 0.655077 0.005629
v -2.039933 0.287314 -0.270193
v -2.039933 0.287314 0.005629
vn -0.0000 -0.0000 -1.0000
vn 1.0000 -0.0000 -0.0000
vn -0.0000 -0.0000 1.0000
vn -1.0000 -0.0000 -0.0000
vn -0.0000 1.0000 -0.0000
vn -0.0000 -1.0000 -0.0000
vt 0.234375 0.281250
vt 0.242188 0.281250
vt 0.242188 0.328125
vt 0.234375 0.328125
vt 0.609375 0.859375
vt 0.648438 0.859375
vt 0.648438 0.906250
vt 0.609375 0.906250
vt 0.671875 0.718750
vt 0.679688 0.718750
vt 0.679688 0.765625
vt 0.671875 0.765625
vt 0.609375 0.812500
vt 0.648438 0.812500
vt 0.117188 0.312500
vt 0.109375 0.312500
vt 0.109375 0.273438
vt 0.117188 0.273438
vt 0.132812 0.273438
vt 0.125000 0.273438
vt 0.125000 0.312500
vt 0.132812 0.312500
s 0
usemtl m_e4394358-a593-7451-82f0-9366c87a21be.002
f 156/425/115 159/426/115 157/427/115 154/428/115
f 155/429/116 156/430/116 154/431/116 153/432/116
f 160/433/117 155/434/117 153/435/117 158/436/117
f 159/437/118 160/438/118 158/430/118 157/429/118
f 158/439/119 153/440/119 154/441/119 157/442/119
f 159/443/120 156/444/120 155/445/120 160/446/120
o cube.020
v -2.011201 0.287314 0.005629
v -2.011201 0.287314 -0.270193
v -2.011201 -0.080448 0.005629
v -2.011201 -0.080448 -0.270193
v -2.039933 0.287314 -0.270193
v -2.039933 0.287314 0.005629
v -2.039933 -0.080448 -0.270193
v -2.039933 -0.080448 0.005629
vn -0.0000 -0.0000 -1.0000
vn 1.0000 -0.0000 -0.0000
vn -0.0000 -0.0000 1.0000
vn -1.0000 -0.0000 -0.0000
vn -0.0000 1.0000 -0.0000
vn -0.0000 -1.0000 -0.0000
vt 0.140625 0.281250
vt 0.148438 0.281250
vt 0.148438 0.328125
vt 0.140625 0.328125
vt 0.234375 0.390625
vt 0.273438 0.390625
vt 0.273438 0.437500
vt 0.234375 0.437500
vt 0.218750 0.281250
vt 0.226562 0.281250
vt 0.226562 0.328125
vt 0.218750 0.328125
vt 0.343750 0.359375
vt 0.382812 0.359375
vt 0.382812 0.406250
vt 0.343750 0.406250
vt 0.085938 0.312500
vt 0.078125 0.312500
vt 0.078125 0.273438
vt 0.085938 0.273438
vt 0.101562 0.273438
vt 0.093750 0.273438
vt 0.093750 0.312500
vt 0.101562 0.312500
s 0
usemtl m_e4394358-a593-7451-82f0-9366c87a21be.002
f 164/447/121 167/448/121 165/449/121 162/450/121
f 163/451/122 164/452/122 162/453/122 161/454/122
f 168/455/123 163/456/123 161/457/123 166/458/123
f 167/459/124 168/460/124 166/461/124 165/462/124
f 166/463/125 161/464/125 162/465/125 165/466/125
f 167/467/126 164/468/126 163/469/126 168/470/126
o cube.021
v -2.011201 0.291143 0.157071
v -2.011201 0.343920 0.029658
v -2.011201 -0.077824 0.004240
v -2.011201 -0.025046 -0.123173
v -2.039933 0.343920 0.029658
v -2.039933 0.291143 0.157071
v -2.039933 -0.025046 -0.123173
v -2.039933 -0.077824 0.004240
vn -0.0000 0.3827 -0.9239
vn 1.0000 -0.0000 -0.0000
vn -0.0000 -0.3827 0.9239
vn -1.0000 -0.0000 -0.0000
vn -0.0000 0.9239 0.3827
vn -0.0000 -0.9239 -0.3827
vt 0.500000 0.289062
vt 0.507812 0.289062
vt 0.507812 0.343750
vt 0.500000 0.343750
vt 0.296875 0.460938
vt 0.312500 0.460938
vt 0.312500 0.515625
vt 0.296875 0.515625
vt 0.515625 0.289062
vt 0.523438 0.289062
vt 0.523438 0.343750
vt 0.515625 0.343750
vt 0.390625 0.351562
vt 0.406250 0.351562
vt 0.406250 0.406250
vt 0.390625 0.406250
vt 0.539062 0.281250
vt 0.531250 0.281250
vt 0.531250 0.265625
vt 0.539062 0.265625
vt 0.554688 0.265625
vt 0.546875 0.265625
vt 0.546875 0.281250
vt 0.554688 0.281250
s 0
usemtl m_e4394358-a593-7451-82f0-9366c87a21be.002
f 172/471/127 175/472/127 173/473/127 170/474/127
f 171/475/128 172/476/128 170/477/128 169/478/128
f 176/479/129 171/480/129 169/481/129 174/482/129
f 175/483/130 176/484/130 174/485/130 173/486/130
f 174/487/131 169/488/131 170/489/131 173/490/131
f 175/491/132 172/492/132 171/493/132 176/494/132
o cube.022
v -2.011201 0.652453 0.004240
v -2.011201 0.599675 -0.123173
v -2.011201 0.291448 0.153773
v -2.011201 0.238672 0.026359
v -2.039933 0.599675 -0.123173
v -2.039933 0.652453 0.004240
v -2.039933 0.238672 0.026359
v -2.039933 0.291448 0.153773
vn -0.0000 -0.3827 -0.9239
vn 1.0000 -0.0000 -0.0000
vn -0.0000 0.3827 0.9239
vn -1.0000 -0.0000 -0.0000
vn -0.0000 0.9239 -0.3827
vn -0.0000 -0.9239 0.3827
vt 0.468750 0.289062
vt 0.476562 0.289062
vt 0.476562 0.343750
vt 0.468750 0.343750
vt 0.343750 0.554688
vt 0.359375 0.554688
vt 0.359375 0.609375
vt 0.343750 0.609375
vt 0.484375 0.289062
vt 0.492188 0.289062
vt 0.492188 0.343750
vt 0.484375 0.343750
vt 0.343750 0.492188
vt 0.359375 0.492188
vt 0.359375 0.546875
vt 0.343750 0.546875
vt 0.179688 0.281250
vt 0.171875 0.281250
vt 0.171875 0.265625
vt 0.179688 0.265625
vt 0.320312 0.265625
vt 0.312500 0.265625
vt 0.312500 0.281250
vt 0.320312 0.281250
s 0
usemtl m_e4394358-a593-7451-82f0-9366c87a21be.002
f 180/495/133 183/496/133 181/497/133 178/498/133
f 179/499/134 180/500/134 178/501/134 177/502/134
f 184/503/135 179/504/135 177/505/135 182/506/135
f 183/507/136 184/508/136 182/509/136 181/510/136
f 182/511/137 177/512/137 178/513/137 181/514/137
f 183/515/138 180/516/138 179/517/138 184/518/138
o cube.023
v 0.229852 0.344777 -0.040342
v 0.229852 0.344777 -0.298925
v 0.229852 0.229852 -0.040342
v 0.229852 0.229852 -0.298925
v -0.114926 0.344777 -0.298925
v -0.114926 0.344777 -0.040342
v -0.114926 0.229852 -0.298925
v -0.114926 0.229852 -0.040342
vn -0.0000 -0.0000 -1.0000
vn 1.0000 -0.0000 -0.0000
vn -0.0000 -0.0000 1.0000
vn -1.0000 -0.0000 -0.0000
vn -0.0000 1.0000 -0.0000
vn -0.0000 -1.0000 -0.0000
vt 0.343750 0.343750
vt 0.390625 0.343750
vt 0.390625 0.359375
vt 0.343750 0.359375
vt 0.328125 0.328125
vt 0.367188 0.328125
vt 0.367188 0.343750
vt 0.328125 0.343750
vt 0.656250 0.859375
vt 0.703125 0.859375
vt 0.703125 0.875000
vt 0.656250 0.875000
vt 0.656250 0.640625
vt 0.695312 0.640625
vt 0.695312 0.656250
vt 0.656250 0.656250
vt 0.578125 0.390625
vt 0.531250 0.390625
vt 0.531250 0.351562
vt 0.578125 0.351562
vt 0.625000 0.351562
vt 0.625000 0.390625
s 0
usemtl m_e4394358-a593-7451-82f0-9366c87a21be.002
f 188/519/139 191/520/139 189/521/139 186/522/139
f 187/523/140 188/524/140 186/525/140 185/526/140
f 192/527/141 187/528/141 185/529/141 190/530/141
f 191/531/142 192/532/142 190/533/142 189/534/142
f 190/535/143 185/536/143 186/537/143 189/538/143
f 191/539/144 188/538/144 187/535/144 192/540/144
o cube.024
v -0.281568 0.333285 -0.040342
v -0.281568 0.333285 -0.270193
v -0.281568 0.275822 -0.040342
v -0.281568 0.275822 -0.270193
v -2.068664 0.333285 -0.270193
v -2.068664 0.333285 -0.040342
v -2.068664 0.275822 -0.270193
v -2.068664 0.275822 -0.040342
vn -0.0000 -0.0000 -1.0000
vn 1.0000 -0.0000 -0.0000
vn -0.0000 -0.0000 1.0000
vn -1.0000 -0.0000 -0.0000
vn -0.0000 1.0000 -0.0000
vn -0.0000 -1.0000 -0.0000
vt 0.437500 0.398438
vt 0.679688 0.398438
vt 0.679688 0.406250
vt 0.437500 0.406250
vt 0.250000 0.273438
vt 0.281250 0.273438
vt 0.281250 0.281250
vt 0.250000 0.281250
vt 0.000000 0.382812
vt 0.242188 0.382812
vt 0.242188 0.390625
vt 0.000000 0.390625
vt 0.312500 0.273438
vt 0.312500 0.281250
vt 0.648438 0.593750
vt 0.406250 0.593750
vt 0.406250 0.562500
vt 0.648438 0.562500
vt 0.679688 0.968750
vt 0.437500 0.968750
vt 0.437500 1.000000
vt 0.679688 1.000000
s 0
usemtl m_e4394358-a593-7451-82f0-9366c87a21be.002
f 196/541/145 199/542/145 197/543/145 194/544/145
f 195/545/146 196/546/146 194/547/146 193/548/146
f 200/549/147 195/550/147 193/551/147 198/552/147
f 199/546/148 200/553/148 198/554/148 197/547/148
f 198/555/149 193/556/149 194/557/149 197/558/149
f 199/559/150 196/560/150 195/561/150 200/562/150
o cube.025
v 2.126127 0.333285 -0.040342
v 2.126127 0.333285 -0.270193
v 2.126127 0.275822 -0.040342
v 2.126127 0.275822 -0.270193
v 0.350524 0.333285 -0.270193
v 0.350524 0.333285 -0.040342
v 0.350524 0.275822 -0.270193
v 0.350524 0.275822 -0.040342
vn -0.0000 -0.0000 -1.0000
vn 1.0000 -0.0000 -0.0000
vn -0.0000 -0.0000 1.0000
vn -1.0000 -0.0000 -0.0000
vn -0.0000 1.0000 -0.0000
vn -0.0000 -1.0000 -0.0000
vt 0.546875 0.429688
vt 0.789062 0.429688
vt 0.789062 0.437500
vt 0.546875 0.437500
vt 0.140625 0.273438
vt 0.171875 0.273438
vt 0.171875 0.281250
vt 0.140625 0.281250
vt 0.546875 0.414062
vt 0.789062 0.414062
vt 0.789062 0.421875
vt 0.546875 0.421875
vt 0.218750 0.273438
vt 0.250000 0.273438
vt 0.250000 0.281250
vt 0.218750 0.281250
vt 0.648438 0.656250
vt 0.406250 0.656250
vt 0.406250 0.625000
vt 0.648438 0.625000
vt 0.648438 0.593750
vt 0.406250 0.593750
s 0
usemtl m_e4394358-a593-7451-82f0-9366c87a21be.002
f 204/563/151 207/564/151 205/565/151 202/566/151
f 203/567/152 204/568/152 202/569/152 201/570/152
f 208/571/153 203/572/153 201/573/153 206/574/153
f 207/575/154 208/576/154 206/577/154 205/578/154
f 206/579/155 201/580/155 202/581/155 205/582/155
f 207/583/156 204/584/156 203/581/156 208/582/156
o cube.026
v 0.201120 0.459703 -0.069073
v 0.201120 0.459703 -0.126536
v 0.201120 0.344777 -0.069073
v 0.201120 0.344777 -0.126536
v 0.143657 0.459703 -0.126536
v 0.143657 0.459703 -0.069073
v 0.143657 0.344777 -0.126536
v 0.143657 0.344777 -0.069073
vn -0.0000 -0.0000 -1.0000
vn 1.0000 -0.0000 -0.0000
vn -0.0000 -0.0000 1.0000
vn -1.0000 -0.0000 -0.0000
vn -0.0000 1.0000 -0.0000
vn -0.0000 -1.0000 -0.0000
vt 0.734375 0.984375
vt 0.742188 0.984375
vt 0.742188 1.000000
vt 0.734375 1.000000
vt 0.015625 0.250000
vt 0.023438 0.250000
vt 0.023438 0.265625
vt 0.015625 0.265625
vt 0.734375 0.968750
vt 0.742188 0.968750
vt 0.031250 0.250000
vt 0.039062 0.250000
vt 0.039062 0.265625
vt 0.031250 0.265625
vt 0.398438 0.265625
vt 0.390625 0.265625
vt 0.390625 0.257812
vt 0.398438 0.257812
vt 0.742188 0.601562
vt 0.734375 0.601562
vt 0.734375 0.609375
vt 0.742188 0.609375
s 0
usemtl m_e4394358-a593-7451-82f0-9366c87a21be.002
f 212/585/157 215/586/157 213/587/157 210/588/157
f 211/589/158 212/590/158 210/591/158 209/592/158
f 216/593/159 211/594/159 209/586/159 214/585/159
f 215/595/160 216/596/160 214/597/160 213/598/160
f 214/599/161 209/600/161 210/601/161 213/602/161
f 215/603/162 212/604/162 211/605/162 216/606/162
o cube.027
v -0.028731 0.459703 -0.069073
v -0.028731 0.459703 -0.126536
v -0.028731 0.344777 -0.069073
v -0.028731 0.344777 -0.126536
v -0.086194 0.459703 -0.126536
v -0.086194 0.459703 -0.069073
v -0.086194 0.344777 -0.126536
v -0.086194 0.344777 -0.069073
vn -0.0000 -0.0000 -1.0000
vn 1.0000 -0.0000 -0.0000
vn -0.0000 -0.0000 1.0000
vn -1.0000 -0.0000 -0.0000
vn -0.0000 1.0000 -0.0000
vn -0.0000 -1.0000 -0.0000
vt 0.156250 0.250000
vt 0.164062 0.250000
vt 0.164062 0.265625
vt 0.156250 0.265625
vt 0.734375 0.828125
vt 0.742188 0.828125
vt 0.742188 0.843750
vt 0.734375 0.843750
vt 0.171875 0.250000
vt 0.179688 0.250000
vt 0.179688 0.265625
vt 0.171875 0.265625
vt 0.734375 0.812500
vt 0.742188 0.812500
vt 0.570312 0.265625
vt 0.562500 0.265625
vt 0.562500 0.257812
vt 0.570312 0.257812
vt 0.585938 0.257812
vt 0.578125 0.257812
vt 0.578125 0.265625
vt 0.585938 0.265625
s 0
usemtl m_e4394358-a593-7451-82f0-9366c87a21be.002
f 220/607/163 223/608/163 221/609/163 218/610/163
f 219/611/164 220/612/164 218/613/164 217/614/164
f 224/615/165 219/616/165 217/617/165 222/618/165
f 223/619/166 224/620/166 222/612/166 221/611/166
f 222/621/167 217/622/167 218/623/167 221/624/167
f 223/625/168 220/626/168 219/627/168 224/628/168
o cube.028
v 0.201120 0.459703 -0.218477
v 0.201120 0.459703 -0.275940
v 0.201120 0.344777 -0.218477
v 0.201120 0.344777 -0.275940
v 0.143657 0.459703 -0.275940
v 0.143657 0.459703 -0.218477
v 0.143657 0.344777 -0.275940
v 0.143657 0.344777 -0.218477
vn -0.0000 -0.0000 -1.0000
vn 1.0000 -0.0000 -0.0000
vn -0.0000 -0.0000 1.0000
vn -1.0000 -0.0000 -0.0000
vn -0.0000 1.0000 -0.0000
vn -0.0000 -1.0000 -0.0000
vt 0.109375 0.250000
vt 0.117188 0.250000
vt 0.117188 0.265625
vt 0.109375 0.265625
vt 0.125000 0.250000
vt 0.132812 0.250000
vt 0.132812 0.265625
vt 0.125000 0.265625
vt 0.140625 0.250000
vt 0.148438 0.250000
vt 0.148438 0.265625
vt 0.140625 0.265625
vt 0.734375 0.843750
vt 0.742188 0.843750
vt 0.742188 0.859375
vt 0.734375 0.859375
vt 0.445312 0.265625
vt 0.437500 0.265625
vt 0.437500 0.257812
vt 0.445312 0.257812
vt 0.460938 0.257812
vt 0.453125 0.257812
vt 0.453125 0.265625
vt 0.460938 0.265625
s 0
usemtl m_e4394358-a593-7451-82f0-9366c87a21be.002
f 228/629/169 231/630/169 229/631/169 226/632/169
f 227/633/170 228/634/170 226/635/170 225/636/170
f 232/637/171 227/638/171 225/639/171 230/640/171
f 231/641/172 232/642/172 230/643/172 229/644/172
f 230/645/173 225/646/173 226/647/173 229/648/173
f 231/649/174 228/650/174 227/651/174 232/652/174
o cube.029
v -0.028731 0.459703 -0.218477
v -0.028731 0.459703 -0.275940
v -0.028731 0.344777 -0.218477
v -0.028731 0.344777 -0.275940
v -0.086194 0.459703 -0.275940
v -0.086194 0.459703 -0.218477
v -0.086194 0.344777 -0.275940
v -0.086194 0.344777 -0.218477
vn -0.0000 -0.0000 -1.0000
vn 1.0000 -0.0000 -0.0000
vn -0.0000 -0.0000 1.0000
vn -1.0000 -0.0000 -0.0000
vn -0.0000 1.0000 -0.0000
vn -0.0000 -1.0000 -0.0000
vt 0.046875 0.250000
vt 0.054688 0.250000
vt 0.054688 0.265625
vt 0.046875 0.265625
vt 0.062500 0.250000
vt 0.070312 0.250000
vt 0.070312 0.265625
vt 0.062500 0.265625
vt 0.078125 0.250000
vt 0.085938 0.250000
vt 0.085938 0.265625
vt 0.078125 0.265625
vt 0.093750 0.250000
vt 0.101562 0.250000
vt 0.101562 0.265625
vt 0.093750 0.265625
vt 0.414062 0.265625
vt 0.406250 0.265625
vt 0.406250 0.257812
vt 0.414062 0.257812
vt 0.429688 0.257812
vt 0.421875 0.257812
vt 0.421875 0.265625
vt 0.429688 0.265625
s 0
usemtl m_e4394358-a593-7451-82f0-9366c87a21be.002
f 236/653/175 239/654/175 237/655/175 234/656/175
f 235/657/176 236/658/176 234/659/176 233/660/176
f 240/661/177 235/662/177 233/663/177 238/664/177
f 239/665/178 240/666/178 238/667/178 237/668/178
f 238/669/179 233/670/179 234/671/179 237/672/179
f 239/673/180 236/674/180 235/675/180 240/676/180
o cube.030
v 0.057463 0.368579 -0.298925
v 0.057463 0.368579 -0.356388
v 0.138727 0.287314 -0.298925
v 0.138727 0.287314 -0.356388
v -0.023802 0.287314 -0.356388
v -0.023802 0.287314 -0.298925
v 0.057463 0.206050 -0.356388
v 0.057463 0.206050 -0.298925
vn -0.0000 -0.0000 -1.0000
vn 0.7071 0.7071 -0.0000
vn -0.0000 -0.0000 1.0000
vn -0.7071 -0.7071 -0.0000
vn -0.7071 0.7071 -0.0000
vn 0.7071 -0.7071 -0.0000
vt 0.296875 0.437500
vt 0.312500 0.437500
vt 0.312500 0.453125
vt 0.296875 0.453125
vt 0.718750 0.296875
vt 0.726562 0.296875
vt 0.726562 0.312500
vt 0.718750 0.312500
vt 0.031250 0.265625
vt 0.046875 0.265625
vt 0.046875 0.281250
vt 0.031250 0.281250
vt 0.703125 0.265625
vt 0.710938 0.265625
vt 0.710938 0.281250
vt 0.703125 0.281250
vt 0.734375 0.281250
vt 0.718750 0.281250
vt 0.718750 0.273438
vt 0.734375 0.273438
vt 0.015625 0.257812
vt 0.000000 0.257812
vt 0.000000 0.265625
vt 0.015625 0.265625
s 0
usemtl m_e4394358-a593-7451-82f0-9366c87a21be.002
f 244/677/181 247/678/181 245/679/181 242/680/181
f 243/681/182 244/682/182 242/683/182 241/684/182
f 248/685/183 243/686/183 241/687/183 246/688/183
f 247/689/184 248/690/184 246/691/184 245/692/184
f 246/693/185 241/694/185 242/695/185 245/696/185
f 247/697/186 244/698/186 243/699/186 248/700/186
o cube.031
v 0.201120 0.471196 -0.218477
v 0.201120 0.471196 -0.275940
v 0.201120 0.413733 -0.218477
v 0.201120 0.413733 -0.275940
v -0.086194 0.471196 -0.275940
v -0.086194 0.471196 -0.218477
v -0.086194 0.413733 -0.275940
v -0.086194 0.413733 -0.218477
vn -0.0000 -0.0000 -1.0000
vn 1.0000 -0.0000 -0.0000
vn -0.0000 -0.0000 1.0000
vn -1.0000 -0.0000 -0.0000
vn -0.0000 1.0000 -0.0000
vn -0.0000 -1.0000 -0.0000
vt 0.703125 0.726562
vt 0.742188 0.726562
vt 0.742188 0.734375
vt 0.703125 0.734375
vt 0.531250 0.257812
vt 0.539062 0.257812
vt 0.539062 0.265625
vt 0.531250 0.265625
vt 0.703125 0.710938
vt 0.742188 0.710938
vt 0.742188 0.718750
vt 0.703125 0.718750
vt 0.546875 0.257812
vt 0.554688 0.257812
vt 0.554688 0.265625
vt 0.546875 0.265625
vt 0.742188 0.703125
vt 0.703125 0.703125
vt 0.703125 0.695312
vt 0.742188 0.695312
vt 0.742188 0.679688
vt 0.703125 0.679688
vt 0.703125 0.687500
vt 0.742188 0.687500
s 0
usemtl m_e4394358-a593-7451-82f0-9366c87a21be.002
f 252/701/187 255/702/187 253/703/187 250/704/187
f 251/705/188 252/706/188 250/707/188 249/708/188
f 256/709/189 251/710/189 249/711/189 254/712/189
f 255/713/190 256/714/190 254/715/190 253/716/190
f 254/717/191 249/718/191 250/719/191 253/720/191
f 255/721/192 252/722/192 251/723/192 256/724/192
o cube.032
v 0.201120 0.471196 -0.069073
v 0.201120 0.471196 -0.126536
v 0.201120 0.413733 -0.069073
v 0.201120 0.413733 -0.126536
v -0.086194 0.471196 -0.126536
v -0.086194 0.471196 -0.069073
v -0.086194 0.413733 -0.126536
v -0.086194 0.413733 -0.069073
vn -0.0000 -0.0000 -1.0000
vn 1.0000 -0.0000 -0.0000
vn -0.0000 -0.0000 1.0000
vn -1.0000 -0.0000 -0.0000
vn -0.0000 1.0000 -0.0000
vn -0.0000 -1.0000 -0.0000
vt 0.000000 0.289062
vt 0.039062 0.289062
vt 0.039062 0.296875
vt 0.000000 0.296875
vt 0.500000 0.257812
vt 0.507812 0.257812
vt 0.507812 0.265625
vt 0.500000 0.265625
vt 0.703125 0.867188
vt 0.742188 0.867188
vt 0.742188 0.875000
vt 0.703125 0.875000
vt 0.515625 0.257812
vt 0.523438 0.257812
vt 0.523438 0.265625
vt 0.515625 0.265625
vt 0.742188 0.765625
vt 0.703125 0.765625
vt 0.703125 0.757812
vt 0.742188 0.757812
vt 0.742188 0.742188
vt 0.703125 0.742188
vt 0.703125 0.750000
vt 0.742188 0.750000
s 0
usemtl m_e4394358-a593-7451-82f0-9366c87a21be.002
f 260/725/193 263/726/193 261/727/193 258/728/193
f 259/729/194 260/730/194 258/731/194 257/732/194
f 264/733/195 259/734/195 257/735/195 262/736/195
f 263/737/196 264/738/196 262/739/196 261/740/196
f 262/741/197 257/742/197 258/743/197 261/744/197
f 263/745/198 260/746/198 259/747/198 264/748/198
o cube.035
v -0.147706 0.511499 -0.385119
v -0.147706 0.511499 -0.396612
v 0.072390 0.326816 -0.385119
v 0.072390 0.326816 -0.396612
v -0.184643 0.467479 -0.396612
v -0.184643 0.467479 -0.385119
v 0.035454 0.282797 -0.396612
v 0.035454 0.282797 -0.385119
v 0.057463 0.327947 -0.356388
v 0.057463 0.327947 -0.413851
v 0.098095 0.287314 -0.356388
v 0.098095 0.287314 -0.413851
v 0.016831 0.287314 -0.413851
v 0.016831 0.287314 -0.356388
v 0.057463 0.246682 -0.413851
v 0.057463 0.246682 -0.356388
v -0.145698 0.508123 -0.385119
v -0.145698 0.508123 -0.396612
v 0.057463 0.304962 -0.385119
v 0.057463 0.304962 -0.396612
v -0.186332 0.467490 -0.396612
v -0.186332 0.467490 -0.385119
v 0.016831 0.264329 -0.396612
v 0.016831 0.264329 -0.385119
v 0.101171 0.301883 -0.385119
v 0.101171 0.301883 -0.396612
v 0.304335 0.098722 -0.385119
v 0.304335 0.098722 -0.396612
v 0.060539 0.261251 -0.396612
v 0.060539 0.261251 -0.385119
v 0.263702 0.058090 -0.396612
v 0.263702 0.058090 -0.385119
v 0.080652 0.285639 -0.385119
v 0.080652 0.285639 -0.396612
v 0.280897 0.122031 -0.385119
v 0.280897 0.122031 -0.396612
v 0.044295 0.241140 -0.396612
v 0.044295 0.241140 -0.385119
v 0.244540 0.077534 -0.396612
v 0.244540 0.077534 -0.385119
vn -0.0000 -0.0000 -1.0000
vn 0.6428 0.7660 -0.0000
vn -0.0000 -0.0000 1.0000
vn -0.6428 -0.7660 -0.0000
vn -0.7660 0.6428 -0.0000
vn 0.7660 -0.6428 -0.0000
vn 0.7071 0.7071 -0.0000
vn -0.7071 -0.7071 -0.0000
vn -0.7071 0.7071 -0.0000
vn 0.7071 -0.7071 -0.0000
vn 0.6327 0.7744 -0.0000
vn -0.6327 -0.7744 -0.0000
vn -0.7744 0.6327 -0.0000
vn 0.7744 -0.6327 -0.0000
vt 0.609375 0.273438
vt 0.617188 0.273438
vt 0.617188 0.312500
vt 0.609375 0.312500
vt 0.625000 0.273438
vt 0.632812 0.273438
vt 0.632812 0.312500
vt 0.625000 0.312500
vt 0.640625 0.273438
vt 0.648438 0.273438
vt 0.648438 0.312500
vt 0.640625 0.312500
vt 0.687500 0.320312
vt 0.695312 0.320312
vt 0.695312 0.359375
vt 0.687500 0.359375
vt 0.367188 0.265625
vt 0.359375 0.265625
vt 0.359375 0.257812
vt 0.367188 0.257812
vt 0.382812 0.257812
vt 0.375000 0.257812
vt 0.375000 0.265625
vt 0.382812 0.265625
vt 0.187500 0.257812
vt 0.195312 0.257812
vt 0.195312 0.265625
vt 0.187500 0.265625
vt 0.203125 0.257812
vt 0.210938 0.257812
vt 0.210938 0.265625
vt 0.203125 0.265625
vt 0.218750 0.257812
vt 0.226562 0.257812
vt 0.226562 0.265625
vt 0.218750 0.265625
vt 0.234375 0.257812
vt 0.242188 0.257812
vt 0.242188 0.265625
vt 0.234375 0.265625
vt 0.257812 0.265625
vt 0.250000 0.265625
vt 0.250000 0.257812
vt 0.257812 0.257812
vt 0.273438 0.257812
vt 0.265625 0.257812
vt 0.265625 0.265625
vt 0.273438 0.265625
vt 0.328125 0.273438
vt 0.335938 0.273438
vt 0.335938 0.312500
vt 0.328125 0.312500
vt 0.343750 0.273438
vt 0.351562 0.273438
vt 0.351562 0.312500
vt 0.343750 0.312500
vt 0.359375 0.273438
vt 0.367188 0.273438
vt 0.367188 0.312500
vt 0.359375 0.312500
vt 0.375000 0.273438
vt 0.382812 0.273438
vt 0.382812 0.312500
vt 0.375000 0.312500
vt 0.289062 0.265625
vt 0.281250 0.265625
vt 0.281250 0.257812
vt 0.289062 0.257812
vt 0.304688 0.257812
vt 0.296875 0.257812
vt 0.296875 0.265625
vt 0.304688 0.265625
vt 0.453125 0.273438
vt 0.460938 0.273438
vt 0.460938 0.312500
vt 0.453125 0.312500
vt 0.562500 0.273438
vt 0.570312 0.273438
vt 0.570312 0.312500
vt 0.562500 0.312500
vt 0.578125 0.273438
vt 0.585938 0.273438
vt 0.585938 0.312500
vt 0.578125 0.312500
vt 0.593750 0.273438
vt 0.601562 0.273438
vt 0.601562 0.312500
vt 0.593750 0.312500
vt 0.351562 0.265625
vt 0.343750 0.265625
vt 0.343750 0.257812
vt 0.351562 0.257812
vt 0.742188 0.648438
vt 0.734375 0.648438
vt 0.734375 0.656250
vt 0.742188 0.656250
vt 0.390625 0.273438
vt 0.398438 0.273438
vt 0.398438 0.312500
vt 0.390625 0.312500
vt 0.406250 0.273438
vt 0.414062 0.273438
vt 0.414062 0.312500
vt 0.406250 0.312500
vt 0.421875 0.273438
vt 0.429688 0.273438
vt 0.429688 0.312500
vt 0.421875 0.312500
vt 0.437500 0.273438
vt 0.445312 0.273438
vt 0.445312 0.312500
vt 0.437500 0.312500
vt 0.320312 0.265625
vt 0.312500 0.265625
vt 0.312500 0.257812
vt 0.320312 0.257812
vt 0.335938 0.257812
vt 0.328125 0.257812
vt 0.328125 0.265625
vt 0.335938 0.265625
s 0
usemtl m_e4394358-a593-7451-82f0-9366c87a21be.002
f 268/749/199 271/750/199 269/751/199 266/752/199
f 267/753/200 268/754/200 266/755/200 265/756/200
f 272/757/201 267/758/201 265/759/201 270/760/201
f 271/761/202 272/762/202 270/763/202 269/764/202
f 270/765/203 265/766/203 266/767/203 269/768/203
f 271/769/204 268/770/204 267/771/204 272/772/204
f 276/773/199 279/774/199 277/775/199 274/776/199
f 275/777/205 276/778/205 274/779/205 273/780/205
f 280/781/201 275/782/201 273/783/201 278/784/201
f 279/785/206 280/786/206 278/787/206 277/788/206
f 278/789/207 273/790/207 274/791/207 277/792/207
f 279/793/208 276/794/208 275/795/208 280/796/208
f 284/797/199 287/798/199 285/799/199 282/800/199
f 283/801/205 284/802/205 282/803/205 281/804/205
f 288/805/201 283/806/201 281/807/201 286/808/201
f 287/809/206 288/810/206 286/811/206 285/812/206
f 286/813/207 281/814/207 282/815/207 285/816/207
f 287/817/208 284/818/208 283/819/208 288/820/208
f 292/821/199 295/822/199 293/823/199 290/824/199
f 291/825/205 292/826/205 290/827/205 289/828/205
f 296/829/201 291/830/201 289/831/201 294/832/201
f 295/833/206 296/834/206 294/835/206 293/836/206
f 294/837/207 289/838/207 290/839/207 293/840/207
f 295/841/208 292/842/208 291/843/208 296/844/208
f 300/845/199 303/846/199 301/847/199 298/848/199
f 299/849/209 300/850/209 298/851/209 297/852/209
f 304/853/201 299/854/201 297/855/201 302/856/201
f 303/857/210 304/858/210 302/859/210 301/860/210
f 302/861/211 297/862/211 298/863/211 301/864/211
f 303/865/212 300/866/212 299/867/212 304/868/212
o cube.038
v 0.234261 0.304931 3.292506
v 0.234261 0.304931 3.062654
v 0.031098 0.101769 3.292506
v 0.031098 0.101769 3.062654
v 0.031098 0.508094 3.062654
v 0.031098 0.508094 3.292506
v -0.172063 0.304931 3.062654
v -0.172063 0.304931 3.292506
vn -0.0000 -0.0000 -1.0000
vn 0.7071 -0.7071 -0.0000
vn -0.0000 -0.0000 1.0000
vn -0.7071 0.7071 -0.0000
vn 0.7071 0.7071 -0.0000
vn -0.7071 -0.7071 -0.0000
vt 0.625000 0.726562
vt 0.664062 0.726562
vt 0.664062 0.765625
vt 0.625000 0.765625
vt 0.281250 0.398438
vt 0.312500 0.398438
vt 0.312500 0.437500
vt 0.281250 0.437500
vt 0.625000 0.679688
vt 0.664062 0.679688
vt 0.664062 0.718750
vt 0.625000 0.718750
vt 0.218750 0.335938
vt 0.250000 0.335938
vt 0.250000 0.375000
vt 0.218750 0.375000
vt 0.476562 0.437500
vt 0.437500 0.437500
vt 0.437500 0.406250
vt 0.476562 0.406250
vt 0.664062 0.343750
vt 0.625000 0.343750
vt 0.625000 0.375000
vt 0.664062 0.375000
s 0
usemtl m_e4394358-a593-7451-82f0-9366c87a21be.002
f 308/869/213 311/870/213 309/871/213 306/872/213
f 307/873/214 308/874/214 306/875/214 305/876/214
f 312/877/215 307/878/215 305/879/215 310/880/215
f 311/881/216 312/882/216 310/883/216 309/884/216
f 310/885/217 305/886/217 306/887/217 309/888/217
f 311/889/218 308/890/218 307/891/218 312/892/218
o cube.039
v 0.193629 0.304931 3.407432
v 0.193629 0.304931 3.292506
v 0.031098 0.142402 3.407432
v 0.031098 0.142402 3.292506
v 0.031098 0.467460 3.292506
v 0.031098 0.467460 3.407432
v -0.131431 0.304931 3.292506
v -0.131431 0.304931 3.407432
vn -0.0000 -0.0000 -1.0000
vn 0.7071 -0.7071 -0.0000
vn -0.0000 -0.0000 1.0000
vn -0.7071 0.7071 -0.0000
vn 0.7071 0.7071 -0.0000
vn -0.7071 -0.7071 -0.0000
vt 0.187500 0.515625
vt 0.218750 0.515625
vt 0.218750 0.546875
vt 0.187500 0.546875
vt 0.171875 0.390625
vt 0.187500 0.390625
vt 0.187500 0.421875
vt 0.171875 0.421875
vt 0.000000 0.328125
vt 0.031250 0.328125
vt 0.031250 0.359375
vt 0.000000 0.359375
vt 0.656250 0.609375
vt 0.671875 0.609375
vt 0.671875 0.640625
vt 0.656250 0.640625
vt 0.406250 0.343750
vt 0.375000 0.343750
vt 0.375000 0.328125
vt 0.406250 0.328125
vt 0.687500 0.593750
vt 0.656250 0.593750
vt 0.687500 0.609375
s 0
usemtl m_e4394358-a593-7451-82f0-9366c87a21be.002
f 316/893/219 319/894/219 317/895/219 314/896/219
f 315/897/220 316/898/220 314/899/220 313/900/220
f 320/901/221 315/902/221 313/903/221 318/904/221
f 319/905/222 320/906/222 318/907/222 317/908/222
f 318/909/223 313/910/223 314/911/223 317/912/223
f 319/913/224 316/914/224 315/905/224 320/915/224
o cube.040
v -0.902167 0.321792 1.568619
v -0.902167 0.321792 1.223842
v -0.902167 0.293061 1.568619
v -0.902167 0.293061 1.223842
v -0.930899 0.321792 1.223842
v -0.930899 0.321792 1.568619
v -0.930899 0.293061 1.223842
v -0.930899 0.293061 1.568619
vn -0.0000 -0.0000 -1.0000
vn 1.0000 -0.0000 -0.0000
vn -0.0000 -0.0000 1.0000
vn -1.0000 -0.0000 -0.0000
vn -0.0000 1.0000 -0.0000
vn -0.0000 -1.0000 -0.0000
vt 0.593750 0.257812
vt 0.601562 0.257812
vt 0.601562 0.265625
vt 0.593750 0.265625
vt 0.609375 0.320312
vt 0.656250 0.320312
vt 0.656250 0.328125
vt 0.609375 0.328125
vt 0.734375 0.398438
vt 0.742188 0.398438
vt 0.742188 0.406250
vt 0.734375 0.406250
vt 0.671875 0.367188
vt 0.718750 0.367188
vt 0.718750 0.375000
vt 0.671875 0.375000
vt 0.679688 0.359375
vt 0.671875 0.359375
vt 0.671875 0.312500
vt 0.679688 0.312500
vt 0.664062 0.281250
vt 0.656250 0.281250
vt 0.664062 0.328125
s 0
usemtl m_e4394358-a593-7451-82f0-9366c87a21be.002
f 324/916/225 327/917/225 325/918/225 322/919/225
f 323/920/226 324/921/226 322/922/226 321/923/226
f 328/924/227 323/925/227 321/926/227 326/927/227
f 327/928/228 328/929/228 326/930/228 325/931/228
f 326/932/229 321/933/229 322/934/229 325/935/229
f 327/936/230 324/937/230 323/922/230 328/938/230
o cube.041
v 0.936645 0.321792 1.568619
v 0.936645 0.321792 1.223842
v 0.936645 0.293061 1.568619
v 0.936645 0.293061 1.223842
v 0.907914 0.321792 1.223842
v 0.907914 0.321792 1.568619
v 0.907914 0.293061 1.223842
v 0.907914 0.293061 1.568619
vn -0.0000 -0.0000 -1.0000
vn 1.0000 -0.0000 -0.0000
vn -0.0000 -0.0000 1.0000
vn -1.0000 -0.0000 -0.0000
vn -0.0000 1.0000 -0.0000
vn -0.0000 -1.0000 -0.0000
vt 0.609375 0.257812
vt 0.617188 0.257812
vt 0.617188 0.265625
vt 0.609375 0.265625
vt 0.000000 0.304688
vt 0.046875 0.304688
vt 0.046875 0.312500
vt 0.000000 0.312500
vt 0.625000 0.257812
vt 0.632812 0.257812
vt 0.632812 0.265625
vt 0.625000 0.265625
vt 0.687500 0.992188
vt 0.734375 0.992188
vt 0.734375 1.000000
vt 0.687500 1.000000
vt 0.054688 0.312500
vt 0.046875 0.265625
vt 0.054688 0.265625
vt 0.070312 0.265625
vt 0.062500 0.265625
vt 0.062500 0.312500
vt 0.070312 0.312500
s 0
usemtl m_e4394358-a593-7451-82f0-9366c87a21be.002
f 332/939/231 335/940/231 333/941/231 330/942/231
f 331/943/232 332/944/232 330/945/232 329/946/232
f 336/947/233 331/948/233 329/949/233 334/950/233
f 335/951/234 336/952/234 334/953/234 333/954/234
f 334/955/235 329/945/235 330/956/235 333/957/235
f 335/958/236 332/959/236 331/960/236 336/961/236
