# Made in Blockbench 5.0.7
mtllib shahab3.mtl

o mesh
v 0.707107 0.000001 6.935346
v 0 -0.707105 6.935346
v 0 -0.707107 -1.752154
v 0.707107 0 -1.752154
v -0.707107 0 -1.752154
v -0.707107 0.000001 6.935346
v 0 0.707108 6.935346
v 0 0.707107 -1.752155
vt 0 0.8671875
vt 0 0.8046875
vt 0.54296875 0.8046875
vt 0.54296875 0.8671875
vt 0 0.9375
vt 0.54296875 0.9375
vt 0.54296875 1
vt 0 1
vt 0.23046875 0.56640625
vt 0.23046875 0.50390625
vt 0.29296875 0.50390625
vt 0.29296875 0.56640625
vt 0 0.5546875
vt 0 0.4921875
vt 0.0625 0.4921875
vt 0.0625 0.5546875
vt 0 0.73828125
vt 0.54296875 0.73828125
vt 0.54296875 0.80078125
vt 0 0.80078125
vt 0 0.93359375
vt 0 0.87109375
vt 0.54296875 0.87109375
vt 0.54296875 0.93359375
vn 0.7071062811861626 -0.7071072811865603 1.627872877571694e-7
vn -0.7071067811865451 0.7071067811865452 -8.139358632363112e-8
vn 0 0 1
vn 0 0 -1
vn -0.7071062811861626 -0.7071072811865603 1.6278728775986042e-7
vn 0.7071067811865451 0.7071067811865452 -8.139358633101591e-8
usemtl m_ddc033b1-ef4a-8e3c-f008-2a37cd34d80f
f 1/1/1 2/2/1 3/3/1 4/4/1
f 5/5/2 6/6/2 7/7/2 8/8/2
f 6/9/3 2/10/3 1/11/3 7/12/3
f 4/13/4 3/14/4 5/15/4 8/16/4
f 3/17/5 2/18/5 6/19/5 5/20/5
f 7/21/6 1/22/6 4/23/6 8/24/6
o mesh.001
v 0.353553 0.000002 9.122846
v 0 -0.353552 9.122846
v 0 -0.707105 6.935346
v 0.707107 0.000001 6.935346
v -0.707107 0.000001 6.935346
v -0.353553 0.000002 9.122846
v 0 0.353555 9.122846
v 0 0.707108 6.935346
vt 0.31072617187499996 0.6910070312500001
vt 0.30720039062500004 0.6599566406249999
vt 0.442167578125 0.62890625
vt 0.44921875 0.6910070312500001
vt 0 0.671875
vt 0.13849296875055095 0.671875
vt 0.1420188375794149 0.7033242286947317
vt 0.0070517376588300484 0.734375
vt 0.1015625 0.66796875
vt 0.1015625 0.63671875
vt 0.1328125 0.63671875
vt 0.1328125 0.66796875
vt 0.4453125 0.55078125
vt 0.4453125 0.48828125
vt 0.5078125 0.48828125
vt 0.5078125 0.55078125
vt 0.20236367187499998 0.671875
vt 0.33733085937499996 0.7029253906249999
vt 0.33380507812500004 0.7339757812500001
vt 0.1953125 0.7339757812500001
vt 0.17988672869473168 0.734375
vt 0.14883634801446324 0.730849131171136
vt 0.14883634801446324 0.5923561624205851
vt 0.2109375 0.5994079000794151
vn 0.7025347065134092 -0.7025327194486144 0.11354630882707017
vn -0.7025337001722995 0.7025337001722995 0.11354646733577928
vn 0 0 1
vn 0 0 -1
vn -0.7025347065134092 -0.7025327194486145 0.1135463088270702
vn 0.7025337001722995 0.7025337001722995 0.11354646733577925
usemtl m_ddc033b1-ef4a-8e3c-f008-2a37cd34d80f
f 9/25/7 10/26/7 11/27/7 12/28/7
f 13/29/8 14/30/8 15/31/8 16/32/8
f 14/33/9 10/34/9 9/35/9 15/36/9
f 12/37/10 11/38/10 13/39/10 16/40/10
f 11/41/11 10/42/11 14/43/11 13/44/11
f 15/45/12 9/46/12 12/47/12 16/48/12
o mesh.002
v 0.176777 0.000002 10.247846
v 0 -0.176775 10.247846
v 0 -0.353552 8.997846
v 0.353553 0.000002 8.997846
v -0.353553 0.000002 8.997846
v -0.176777 0.000002 10.247846
v 0 0.176779 10.247846
v 0 0.353555 8.997846
v -0.176777 0.000002 10.372846
v 0 -0.176775 10.372846
v 0.176777 0.000002 10.372846
v 0 0.176779 10.372846
vt 0.4783206769369742 0.6093743531983543
vt 0.4783206769369742 0.5937491191327247
vt 0.5568355730630258 0.5859375
vt 0.5568352617200336 0.6171871520399689
vt 0.06816482531385432 0.5117187092558788
vt 0.14667935207318789 0.5195320911741692
vt 0.14667935207318789 0.5351569365347321
vt 0.06816439792681211 0.54296875
vt 0.27734375 0.68359375
vt 0.27734375 0.66796875
vt 0.29296875 0.66796875
vt 0.29296875 0.68359375
vt 0.2109375 0.66796875
vt 0.2109375 0.63671875
vt 0.2421875 0.63671875
vt 0.2421875 0.66796875
vt 0.2986331769369742 0.5
vt 0.3771480730630258 0.5078116191327247
vt 0.3771480730630258 0.5234368531983542
vt 0.2986334882799664 0.5312496520399689
vt 0.4587893979268121 0.6484381865347321
vt 0.4587893979268121 0.6328133411741692
vt 0.5373039246861457 0.6249999592558788
vt 0.5373043520731879 0.65625
vt 0.3849605730630258 0.5078118531983542
vt 0.3849605730630258 0.5234368531983542
vt 0.3771480730630258 0.5234368531983542
vt 0.3771480730630258 0.5078118531983542
vt 0.4705081769369742 0.6093741191327247
vt 0.4705081769369742 0.5937491191327247
vt 0.4783206769369742 0.5937491191327247
vt 0.4783206769369742 0.6093741191327247
vt 0.4509768979268121 0.6484383411741692
vt 0.4509768979268121 0.6328133411741692
vt 0.4587893979268121 0.6328133411741692
vt 0.4587893979268121 0.6484383411741692
vt 0.15449185207318789 0.5195319365347321
vt 0.15449185207318789 0.5351569365347321
vt 0.14667935207318789 0.5351569365347321
vt 0.14667935207318789 0.5195319365347321
vn 0.7035975327227104 -0.7035975327227104 0.09950388883369808
vn -0.7035975721300817 0.7035975721300817 0.09950333152869388
vn 0 0 1
vn 0 0 -1
vn -0.7035975327227104 -0.7035975327227104 0.09950388883369808
vn 0.7035975721300817 0.7035975721300817 0.09950333152869388
vn -0.7071067811865476 -0.7071067811865476 0
vn 0.7071067811865476 -0.7071067811865476 0
vn 0.7071067811865476 0.7071067811865476 0
vn -0.7071067811865476 0.7071067811865476 0
usemtl m_ddc033b1-ef4a-8e3c-f008-2a37cd34d80f
f 17/49/13 18/50/13 19/51/13 20/52/13
f 21/53/14 22/54/14 23/55/14 24/56/14
f 25/57/15 26/58/15 27/59/15 28/60/15
f 20/61/16 19/62/16 21/63/16 24/64/16
f 19/65/17 18/66/17 22/67/17 21/68/17
f 23/69/18 17/70/18 20/71/18 24/72/18
f 26/73/19 25/74/19 22/75/19 18/76/19
f 27/77/20 26/78/20 18/79/20 17/80/20
f 28/81/21 27/82/21 17/83/21 23/84/21
f 25/85/22 28/86/22 23/87/22 22/88/22
o mesh.003
v 1.3125 0.0625 -0.939654
v 1.3125 -0.0625 -0.939654
v 1.3125 -0.0625 -1.752154
v 1.3125 0.0625 -1.752154
v 0.5625 -0.0625 -1.752154
v 0.5625 -0.0625 -0.002154
v 0.5625 0.0625 -0.002154
v 0.5625 0.0625 -1.752154
vt 0.33984375 0.734375
vt 0.33984375 0.7265625
vt 0.390625 0.7265625
vt 0.390625 0.734375
vt 0.453125 0.67578125
vt 0.5625 0.67578125
vt 0.5625 0.68359375
vt 0.453125 0.68359375
vt 0.0625 0.7265625
vt 0.13671875 0.7265625
vt 0.13671875 0.734375
vt 0.0625 0.734375
vt 0.43359375 0.625
vt 0.43359375 0.6171875
vt 0.48046875 0.6171875
vt 0.48046875 0.625
vt 0.3046875 0.5703125
vt 0.3046875 0.62109375
vt 0.2578125 0.6796875
vt 0.2578125 0.5703125
vt 0 0.55859375
vt 0.046875 0.6171875
vt 0.046875 0.66796875
vt 0 0.66796875
vn 1 0 0
vn -1 0 0
vn 0.7808688094430304 0 0.6246950475544243
vn 0 0 -1
vn 0 -1 0
vn 0 1 0
usemtl m_ddc033b1-ef4a-8e3c-f008-2a37cd34d80f
f 29/89/23 30/90/23 31/91/23 32/92/23
f 33/93/24 34/94/24 35/95/24 36/96/24
f 34/97/25 30/98/25 29/99/25 35/100/25
f 32/101/26 31/102/26 33/103/26 36/104/26
f 31/105/27 30/106/27 34/107/27 33/108/27
f 35/109/28 29/110/28 32/111/28 36/112/28
o mesh.004
v -1.375 -0.0625 -1.752154
v -1.375 -0.0625 -0.939654
v -1.375 0.0625 -0.939654
v -1.375 0.0625 -1.752154
v -0.625 0.0625 -0.002154
v -0.625 -0.0625 -0.002154
v -0.625 -0.0625 -1.752154
v -0.625 0.0625 -1.752154
vt 0.34375 0.6953125
vt 0.39453125 0.6953125
vt 0.39453125 0.703125
vt 0.34375 0.703125
vt 0.453125 0.671875
vt 0.453125 0.6640625
vt 0.5625 0.6640625
vt 0.5625 0.671875
vt 0.34375 0.71484375
vt 0.34375 0.70703125
vt 0.41796875 0.70703125
vt 0.41796875 0.71484375
vt 0.06640625 0.546875
vt 0.11328125 0.546875
vt 0.11328125 0.5546875
vt 0.06640625 0.5546875
vt 0.09765625 0.66796875
vt 0.05078125 0.609375
vt 0.05078125 0.55859375
vt 0.09765625 0.55859375
vt 0.30859375 0.640625
vt 0.30859375 0.58984375
vt 0.35546875 0.53125
vt 0.35546875 0.640625
vn -1 0 0
vn 1 0 0
vn -0.7808688094430304 0 0.6246950475544243
vn 0 0 -1
vn 0 -1 0
vn 0 1 0
usemtl m_ddc033b1-ef4a-8e3c-f008-2a37cd34d80f
f 37/113/29 38/114/29 39/115/29 40/116/29
f 41/117/30 42/118/30 43/119/30 44/120/30
f 39/121/31 38/122/31 42/123/31 41/124/31
f 43/125/32 37/126/32 40/127/32 44/128/32
f 42/129/33 38/130/33 37/131/33 43/132/33
f 40/133/34 39/134/34 41/135/34 44/136/34
o mesh.005
v -0.0625 1.375 -1.752155
v -0.0625 1.375 -0.939655
v 0.0625 1.375 -0.939655
v 0.0625 1.375 -1.752155
v 0.0625 0.625 -0.002155
v -0.0625 0.625 -0.002155
v -0.0625 0.625 -1.752155
v 0.0625 0.625 -1.752155
vt 0.1015625 0.6328125
vt 0.1015625 0.58203125
vt 0.109375 0.58203125
vt 0.109375 0.6328125
vt 0.16796875 0.5390625
vt 0.16015625 0.5390625
vt 0.16015625 0.4296875
vt 0.16796875 0.4296875
vt 0.25390625 0.67578125
vt 0.24609375 0.67578125
vt 0.24609375 0.6015625
vt 0.25390625 0.6015625
vt 0.1328125 0.5859375
vt 0.1328125 0.6328125
vt 0.125 0.6328125
vt 0.125 0.5859375
vt 0.46875 0.58203125
vt 0.41015625 0.62890625
vt 0.359375 0.62890625
vt 0.359375 0.58203125
vt 0.2265625 0.58984375
vt 0.17578125 0.58984375
vt 0.1171875 0.54296875
vt 0.2265625 0.54296875
vn 0 1 0
vn 0 -1 0
vn 0 0.7808688094430304 0.6246950475544243
vn 0 0 -1
vn -1 0 0
vn 1 0 0
usemtl m_ddc033b1-ef4a-8e3c-f008-2a37cd34d80f
f 45/137/35 46/138/35 47/139/35 48/140/35
f 49/141/36 50/142/36 51/143/36 52/144/36
f 47/145/37 46/146/37 50/147/37 49/148/37
f 51/149/38 45/150/38 48/151/38 52/152/38
f 50/153/39 46/154/39 45/155/39 51/156/39
f 48/157/40 47/158/40 49/159/40 52/160/40
o mesh.006
v 0.0625 -1.3125 -0.939654
v -0.0625 -1.3125 -0.939654
v -0.0625 -1.3125 -1.752154
v 0.0625 -1.3125 -1.752154
v -0.0625 -0.5625 -1.752154
v -0.0625 -0.5625 -0.002154
v 0.0625 -0.5625 -0.002154
v 0.0625 -0.5625 -1.752154
vt 0.12109375 0.6328125
vt 0.11328125 0.6328125
vt 0.11328125 0.58203125
vt 0.12109375 0.58203125
vt 0.171875 0.5390625
vt 0.171875 0.4296875
vt 0.1796875 0.4296875
vt 0.1796875 0.5390625
vt 0.13671875 0.66796875
vt 0.13671875 0.59375
vt 0.14453125 0.59375
vt 0.14453125 0.66796875
vt 0.23046875 0.5859375
vt 0.23828125 0.5859375
vt 0.23828125 0.6328125
vt 0.23046875 0.6328125
vt 0.359375 0.53125
vt 0.41015625 0.53125
vt 0.46875 0.578125
vt 0.359375 0.578125
vt 0.40625 0.734375
vt 0.46484375 0.6875
vt 0.515625 0.6875
vt 0.515625 0.734375
vn 0 -1 0
vn 0 1 0
vn 0 -0.7808688094430304 0.6246950475544243
vn 0 0 -1
vn -1 0 0
vn 1 0 0
usemtl m_ddc033b1-ef4a-8e3c-f008-2a37cd34d80f
f 53/161/41 54/162/41 55/163/41 56/164/41
f 57/165/42 58/166/42 59/167/42 60/168/42
f 58/169/43 54/170/43 53/171/43 59/172/43
f 56/173/44 55/174/44 57/175/44 60/176/44
f 55/177/45 54/178/45 58/179/45 57/180/45
f 59/181/46 53/182/46 56/183/46 60/184/46