# Blender 3.6.23
# www.blender.org
mtllib t15_turret.mtl
o turret
v -1.242987 0.014596 -1.133290
v -1.242987 0.014596 1.391710
v -1.242987 -0.016654 -1.133290
v -1.242987 -0.016654 1.391710
v 1.219513 0.014596 1.391710
v 1.219513 0.014596 -1.133291
v 1.219513 -0.016654 1.391710
v 1.219513 -0.016654 -1.133291
v -0.936737 0.383346 0.654210
v -0.936737 0.383346 1.635460
v -0.936737 0.014596 0.654210
v -0.936737 0.014596 1.635460
v -0.555487 0.383346 1.635460
v -0.555487 0.383346 0.654210
v -0.555487 0.014596 1.635460
v -0.555487 0.014596 0.654210
v -1.371055 0.383346 1.126938
v -0.936737 0.383346 1.635459
v -1.371055 0.014596 1.126938
v -0.936737 0.014596 1.635459
v -0.613564 0.383346 1.359444
v -1.047883 0.383346 0.850923
v -0.613564 0.014596 1.359444
v -1.047883 0.014596 0.850923
v -1.568054 0.383346 0.520640
v -1.371055 0.383346 1.126938
v -1.568054 0.014596 0.520640
v -1.371055 0.014596 1.126938
v -0.842030 0.383346 0.955047
v -1.039028 0.383346 0.348749
v -0.842030 0.014596 0.955047
v -1.039028 0.014596 0.348749
v -0.553607 0.383346 1.629499
v -0.555487 0.383346 1.635460
v -0.553607 0.014596 1.629499
v -0.555487 0.014596 1.635460
v -0.340900 0.383346 1.703119
v -0.339021 0.383346 1.697158
v -0.340900 0.014596 1.703119
v -0.339021 0.014596 1.697158
v -0.561737 0.383346 0.654210
v -0.561737 0.383346 1.704210
v -0.561737 0.014596 0.654210
v -0.561737 0.014596 1.704210
v -0.342987 0.383346 1.704210
v -0.342987 0.383346 0.654210
v -0.342987 0.014596 1.704210
v -0.342987 0.014596 0.654210
v -0.322954 0.532940 0.368671
v -0.576972 1.080346 1.227927
v -0.322954 -0.178672 0.822018
v -0.576972 0.368734 1.681274
v -0.352591 1.110404 1.275110
v -0.098573 0.562998 0.415854
v -0.352591 0.398793 1.728457
v -0.098573 -0.148613 0.869201
v -0.574237 1.089596 0.510460
v -0.574237 1.089596 1.635460
v -0.574237 0.383346 0.510460
v -0.574237 0.383346 1.635460
v -0.342987 1.089596 1.635460
v -0.342987 1.089596 0.510460
v -0.342987 0.383346 1.635460
v -0.342987 0.383346 0.510460
v 0.012599 0.562998 0.415854
v 0.266618 1.110404 1.275110
v 0.012600 -0.148613 0.869201
v 0.266618 0.398793 1.728457
v 0.569835 1.069785 1.211349
v 0.315817 0.522378 0.352093
v 0.569835 0.358173 1.664696
v 0.315817 -0.189233 0.805440
v 0.257013 1.089596 0.510460
v 0.257013 1.089596 1.635460
v 0.257013 0.383346 0.510460
v 0.257013 0.383346 1.635460
v 0.569513 1.089596 1.635460
v 0.569513 1.089596 0.510460
v 0.569513 0.383346 1.635460
v 0.569513 0.383346 0.510459
v -0.342987 1.089596 0.510460
v -0.342987 1.089596 0.929210
v -0.342987 0.383346 0.510460
v -0.342987 0.383346 0.929210
v 0.257013 1.089596 0.929210
v 0.257013 1.089596 0.510460
v 0.257013 0.383346 0.929210
v 0.257013 0.383346 0.510460
v 0.262769 0.383346 1.719711
v 0.264648 0.383346 1.725672
v 0.262769 0.014596 1.719711
v 0.264648 0.014596 1.725672
v 0.550763 0.383346 1.635460
v 0.548884 0.383346 1.629499
v 0.550763 0.014596 1.635460
v 0.548884 0.014596 1.629499
v 1.034305 0.383346 0.348749
v 0.837307 0.383346 0.955047
v 1.034305 0.014596 0.348749
v 0.837307 0.014596 0.955047
v 1.366332 0.383346 1.126938
v 1.563330 0.383346 0.520639
v 1.366332 0.014596 1.126938
v 1.563330 0.014596 0.520639
v 1.043159 0.383346 0.850922
v 0.608841 0.383346 1.359444
v 1.043159 0.014596 0.850922
v 0.608841 0.014596 1.359444
v 0.932014 0.383346 1.635459
v 1.366332 0.383346 1.126938
v 0.932014 0.014596 1.635459
v 1.366332 0.014596 1.126938
v 0.550763 0.383346 0.654210
v 0.550763 0.383346 1.635460
v 0.550763 0.014596 0.654210
v 0.550763 0.014596 1.635460
v 0.932013 0.383346 1.635459
v 0.932013 0.383346 0.654210
v 0.932013 0.014596 1.635459
v 0.932013 0.014596 0.654210
v 0.263263 0.383346 0.654210
v 0.263263 0.383346 1.704210
v 0.263263 0.014596 0.654210
v 0.263263 0.014596 1.704210
v 0.557013 0.383346 1.704210
v 0.557013 0.383346 0.654210
v 0.557013 0.014596 1.704210
v 0.557013 0.014596 0.654210
v -1.567987 0.383346 -0.877040
v -1.567987 0.383346 0.522960
v -1.567987 0.014596 -0.877040
v -1.567987 0.014596 0.522960
v 1.563263 0.383346 0.522959
v 1.563263 0.383346 -0.877040
v 1.563263 0.014596 0.522959
v 1.563263 0.014596 -0.877041
v -0.624237 1.083346 0.285460
v -0.624237 1.083346 0.510460
v -0.624237 0.014596 0.285460
v -0.624237 0.014596 0.510460
v 0.600763 1.083346 0.510460
v 0.600763 1.083346 0.285460
v 0.600763 0.014596 0.510459
v 0.600763 0.014596 0.285460
v -1.567987 1.083346 -0.877040
v -1.567987 1.083346 0.285460
v -1.567987 0.383346 -0.877040
v -1.567987 0.383346 0.285460
v 1.569513 1.083346 0.285459
v 1.569513 1.083346 -0.877040
v 1.569513 0.383346 0.285459
v 1.569513 0.383346 -0.877040
v -0.624237 1.083346 -1.495790
v -0.624237 1.083346 -0.877040
v -0.624237 0.014597 -1.495790
v -0.624237 0.014596 -0.877040
v 0.600763 1.083346 -0.877040
v 0.600763 1.083346 -1.495790
v 0.600763 0.014596 -0.877040
v 0.600763 0.014597 -1.495790
v -1.308584 0.708663 -0.838141
v -1.567987 1.083346 0.285460
v -1.359850 0.007259 -0.616082
v -1.619253 0.381942 0.507519
v -0.520539 1.083346 0.527282
v -0.261136 0.708663 -0.596319
v -0.571806 0.381942 0.749341
v -0.312402 0.007259 -0.374260
v -1.520641 1.083346 0.071895
v -1.567987 1.083346 0.285460
v -1.520641 0.383346 0.071895
v -1.567987 0.383346 0.285460
v -0.622200 1.083346 0.495136
v -0.574854 1.083346 0.281571
v -0.622200 0.383346 0.495136
v -0.574854 0.383346 0.281571
v 0.538880 1.083346 0.281571
v 0.586227 1.083346 0.495135
v 0.538880 0.383346 0.281571
v 0.586227 0.383346 0.495135
v 1.532013 1.083346 0.285460
v 1.484667 1.083346 0.071895
v 1.532013 0.383346 0.285459
v 1.484667 0.383346 0.071895
v 0.225162 0.708663 -0.596319
v 0.484566 1.083346 0.527282
v 0.276428 0.007259 -0.374260
v 0.535832 0.381942 0.749341
v 1.568552 1.083346 0.277024
v 1.309148 0.708663 -0.846577
v 1.619819 0.381942 0.499083
v 1.360415 0.007259 -0.624518
v 0.600763 1.083346 -1.495790
v 0.318681 1.083346 -1.053010
v 0.600763 0.014597 -1.495790
v 0.318681 0.014597 -1.053010
v 1.288581 1.083346 -0.435116
v 1.570664 1.083346 -0.877896
v 1.288581 0.014596 -0.435116
v 1.570664 0.014596 -0.877896
v -1.578324 1.083346 -0.887970
v -1.296242 1.083346 -0.445190
v -1.578324 0.014596 -0.887970
v -1.296242 0.014596 -0.445190
v -0.342155 1.083346 -1.053010
v -0.624237 1.083346 -1.495790
v -0.342155 0.014597 -1.053010
v -0.624237 0.014597 -1.495790
v -0.624237 1.308346 -1.445790
v -0.624237 1.308346 -0.933290
v -0.624237 1.102097 -1.445790
v -0.624237 1.102097 -0.933290
v -0.136737 1.308346 -0.933290
v -0.136737 1.308346 -1.445790
v -0.136737 1.102097 -0.933290
v -0.136737 1.102097 -1.445790
v -0.624237 1.639597 -1.452040
v -0.624237 1.639596 -0.827040
v -0.624237 1.308346 -1.452040
v -0.624237 1.308346 -0.827040
v -0.136737 1.639596 -0.827040
v -0.136737 1.639597 -1.452040
v -0.136737 1.308346 -0.827040
v -0.136737 1.308346 -1.452040
v -0.617657 1.614596 -1.361103
v -0.724237 1.614596 -1.295790
v -0.617657 1.102097 -1.361103
v -0.724237 1.102097 -1.295790
v -0.671987 1.614596 -1.210526
v -0.565407 1.614596 -1.275839
v -0.671987 1.102097 -1.210526
v -0.565407 1.102097 -1.275839
v -0.724237 1.614596 -1.295790
v -0.724237 1.614596 -0.989540
v -0.724237 1.102097 -1.295790
v -0.724237 1.102097 -0.989540
v -0.624237 1.614596 -0.989540
v -0.624237 1.614596 -1.295790
v -0.624237 1.102097 -0.989540
v -0.624237 1.102097 -1.295790
v -0.724237 1.614596 -0.989540
v -0.618904 1.614596 -0.934708
v -0.724237 1.102097 -0.989540
v -0.618904 1.102097 -0.934708
v -0.572730 1.614596 -1.023409
v -0.678062 1.614596 -1.078241
v -0.572730 1.102097 -1.023409
v -0.678062 1.102097 -1.078241
v -0.220567 1.614596 -1.275839
v -0.113987 1.614596 -1.210526
v -0.220567 1.102097 -1.275839
v -0.113987 1.102097 -1.210526
v -0.061737 1.614596 -1.295790
v -0.168317 1.614596 -1.361103
v -0.061737 1.102097 -1.295790
v -0.168317 1.102097 -1.361103
v -0.161737 1.614596 -1.295790
v -0.161737 1.614596 -0.989540
v -0.161737 1.102097 -1.295790
v -0.161737 1.102097 -0.989540
v -0.061737 1.614596 -0.989540
v -0.061737 1.614596 -1.295790
v -0.061737 1.102097 -0.989540
v -0.061737 1.102097 -1.295790
v -0.107912 1.614596 -1.078241
v -0.213244 1.614596 -1.023409
v -0.107912 1.102097 -1.078241
v -0.213244 1.102097 -1.023409
v -0.167070 1.614596 -0.934708
v -0.061737 1.614596 -0.989540
v -0.167070 1.102097 -0.934708
v -0.061737 1.102097 -0.989540
v 0.970827 0.570846 0.689794
v 0.648210 0.570846 1.012411
v 0.970827 0.227096 0.689794
v 0.648210 0.227096 1.012411
v 0.970827 0.570846 1.335028
v 1.293445 0.570846 1.012411
v 0.970827 0.227096 1.335028
v 1.293445 0.227096 1.012411
v 1.094513 0.933346 0.822960
v 1.094513 0.933346 1.197960
v 1.094513 0.570846 0.822960
v 1.094513 0.570846 1.197960
v 1.257013 0.933346 1.197960
v 1.257013 0.933346 0.822960
v 1.257013 0.570846 1.197959
v 1.257013 0.570846 0.822959
v 0.688263 0.933346 0.822960
v 0.688263 0.933346 1.197960
v 0.688263 0.570846 0.822960
v 0.688263 0.570846 1.197960
v 0.850763 0.933346 1.197960
v 0.850763 0.933346 0.822960
v 0.850763 0.570846 1.197960
v 0.850763 0.570846 0.822960
v 0.838263 0.929559 1.106475
v 0.838263 0.743943 1.292091
v 0.838263 0.677652 0.854568
v 0.838263 0.492036 1.040184
v 1.113263 0.743943 1.292090
v 1.113263 0.929559 1.106475
v 1.113263 0.492036 1.040184
v 1.113263 0.677652 0.854568
v 0.838263 0.929558 0.756475
v 0.838263 0.929558 1.106475
v 0.838263 0.567059 0.756475
v 0.838263 0.567059 1.106475
v 1.113263 0.929558 1.106475
v 1.113263 0.929558 0.756475
v 1.113263 0.567059 1.106475
v 1.113263 0.567059 0.756475
v 0.926633 1.458346 -1.456653
v 0.824986 1.458346 -1.355007
v 0.926633 0.764596 -1.456653
v 0.824986 0.764596 -1.355007
v 0.926633 1.458346 -1.253360
v 1.028279 1.458346 -1.355007
v 0.926633 0.764596 -1.253360
v 1.028279 0.764596 -1.355007
v 0.295383 1.333346 -1.281653
v 0.193736 1.333346 -1.180006
v 0.295383 1.083346 -1.281653
v 0.193736 1.083346 -1.180006
v 0.295383 1.333346 -1.078360
v 0.397029 1.333346 -1.180006
v 0.295383 1.083346 -1.078360
v 0.397029 1.083346 -1.180006
v 0.295383 3.770847 -1.192820
v 0.282125 3.770847 -1.179562
v 0.295383 1.333346 -1.192820
v 0.282125 1.333346 -1.179562
v 0.295383 3.770847 -1.166304
v 0.308641 3.770847 -1.179562
v 0.295383 1.333346 -1.166304
v 0.308641 1.333346 -1.179562
v -0.342987 0.139596 1.179209
v -0.342987 0.139596 1.704210
v -0.342987 0.014596 1.179209
v -0.342987 0.014596 1.704210
v 0.263263 0.139596 1.704209
v 0.263263 0.139596 1.179209
v 0.263263 0.014596 1.704209
v 0.263263 0.014596 1.179209
v -1.022069 0.762039 1.217724
v -1.022069 0.743289 1.217724
v -1.022069 0.762039 0.930224
v -1.022069 0.743289 0.930224
v -0.753319 0.743289 1.217724
v -0.753319 0.762039 1.217724
v -0.753319 0.743289 0.930224
v -0.753319 0.762039 0.930224
v -0.725065 0.788603 1.217724
v -0.764733 0.758165 1.217724
v -0.725065 0.788603 0.930224
v -0.764733 0.758165 0.930224
v -0.753319 0.743290 1.217724
v -0.713651 0.773727 1.217724
v -0.753319 0.743290 0.930224
v -0.713651 0.773727 0.930224
v -0.719901 0.892477 1.217724
v -0.719901 0.773727 1.217724
v -0.719901 0.892477 0.930224
v -0.719901 0.773727 0.930224
v -0.651151 0.773727 1.217724
v -0.651151 0.892477 1.217724
v -0.651151 0.773727 0.930224
v -0.651151 0.892477 0.930224
v -0.662565 0.788603 1.173974
v -0.741901 0.727727 1.173974
v -0.662565 0.788603 0.973974
v -0.741901 0.727727 0.973974
v -0.730486 0.712851 1.173974
v -0.651151 0.773727 1.173974
v -0.730486 0.712851 0.973974
v -0.651151 0.773727 0.973974
v -0.749237 0.728476 1.173974
v -0.749237 0.675351 1.173974
v -0.749237 0.728476 0.973974
v -0.749237 0.675351 0.973974
v -0.730487 0.675351 1.173974
v -0.730487 0.728476 1.173974
v -0.730487 0.675351 0.973974
v -0.730487 0.728476 0.973974
v -0.905487 0.675351 1.173974
v -0.905487 0.575351 1.173974
v -0.905487 0.675351 0.973974
v -0.905487 0.575351 0.973974
v -0.730487 0.575351 1.173974
v -0.730487 0.675351 1.173974
v -0.730487 0.575351 0.973974
v -0.730487 0.675351 0.973974
v -0.917987 0.680501 1.074911
v -0.917987 0.534660 1.220752
v -0.917987 0.534660 0.929071
v -0.917987 0.388819 1.074911
v -0.574237 0.534660 1.220752
v -0.574237 0.680501 1.074911
v -0.574237 0.388819 1.074911
v -0.574237 0.534660 0.929070
v -1.703297 1.042804 1.230224
v -1.840299 0.905802 1.230224
v -1.703297 1.042804 -1.532276
v -1.840299 0.905802 -1.532276
v -1.703297 0.768800 1.230224
v -1.566295 0.905802 1.230224
v -1.703297 0.768800 -1.532276
v -1.566295 0.905802 -1.532276
v -1.703297 0.730304 1.230224
v -1.840299 0.593302 1.230224
v -1.703297 0.730304 -1.532276
v -1.840299 0.593302 -1.532276
v -1.703297 0.456300 1.230224
v -1.566295 0.593302 1.230224
v -1.703297 0.456300 -1.532276
v -1.566295 0.593302 -1.532276
vn -0.0000 -0.0000 1.0000
vn -1.0000 -0.0000 -0.0000
vn -0.0000 -0.0000 -1.0000
vn 1.0000 -0.0000 -0.0000
vn -0.0000 1.0000 -0.0000
vn -0.0000 -1.0000 -0.0000
vn 0.6494 -0.0000 0.7604
vn -0.7604 -0.0000 0.6494
vn -0.6494 -0.0000 -0.7604
vn 0.7604 -0.0000 -0.6494
vn 0.3090 -0.0000 0.9511
vn -0.9511 -0.0000 0.3090
vn -0.3090 -0.0000 -0.9511
vn 0.9511 -0.0000 -0.3090
vn -0.3007 -0.0000 0.9537
vn -0.9537 -0.0000 -0.3007
vn 0.3007 -0.0000 -0.9537
vn 0.9537 -0.0000 0.3007
vn -0.2419 0.5213 0.8183
vn -0.9703 -0.1300 -0.2040
vn 0.2419 -0.5213 -0.8183
vn 0.9703 0.1300 0.2040
vn -0.0000 0.8434 -0.5373
vn -0.0000 -0.8434 0.5373
vn 0.2419 0.5213 0.8183
vn -0.9703 0.1300 0.2040
vn -0.2419 -0.5213 -0.8183
vn 0.9703 -0.1300 -0.2040
vn 0.3007 -0.0000 0.9537
vn -0.9537 -0.0000 0.3007
vn -0.3007 -0.0000 -0.9537
vn 0.9537 -0.0000 -0.3007
vn -0.3090 -0.0000 0.9511
vn -0.9511 -0.0000 -0.3090
vn 0.3090 -0.0000 -0.9511
vn 0.9511 -0.0000 0.3090
vn -0.6494 -0.0000 0.7604
vn -0.7604 -0.0000 -0.6494
vn 0.6494 -0.0000 -0.7604
vn 0.7604 -0.0000 0.6494
vn -0.2139 0.3090 0.9267
vn -0.9744 -0.0000 -0.2250
vn 0.2139 -0.3090 -0.9267
vn 0.9744 -0.0000 0.2250
vn 0.0695 0.9511 -0.3011
vn -0.0695 -0.9511 0.3011
vn -0.2164 -0.0000 0.9763
vn -0.9763 -0.0000 -0.2164
vn 0.2164 -0.0000 -0.9763
vn 0.9763 -0.0000 0.2164
vn 0.2164 -0.0000 0.9763
vn -0.9763 -0.0000 0.2164
vn -0.2164 -0.0000 -0.9763
vn 0.9763 -0.0000 -0.2164
vn 0.2139 0.3090 0.9267
vn -0.9744 -0.0000 0.2250
vn -0.2139 -0.3090 -0.9267
vn 0.9744 -0.0000 -0.2250
vn -0.0695 0.9511 -0.3011
vn 0.0695 -0.9511 0.3011
vn -0.5373 -0.0000 0.8434
vn -0.8434 -0.0000 -0.5373
vn 0.5373 -0.0000 -0.8434
vn 0.8434 -0.0000 0.5373
vn 0.5373 -0.0000 0.8434
vn -0.8434 -0.0000 0.5373
vn -0.5373 -0.0000 -0.8434
vn 0.8434 -0.0000 -0.5373
vn -0.8526 -0.0000 0.5225
vn -0.5225 -0.0000 -0.8526
vn 0.8526 -0.0000 -0.5225
vn 0.5225 -0.0000 0.8526
vn 0.8870 -0.0000 0.4617
vn -0.4617 -0.0000 0.8870
vn -0.8870 -0.0000 -0.4617
vn 0.4617 -0.0000 -0.8870
vn 0.8526 -0.0000 0.5225
vn -0.5225 -0.0000 0.8526
vn -0.8526 -0.0000 -0.5225
vn 0.5225 -0.0000 -0.8526
vn -0.8870 -0.0000 0.4617
vn -0.4617 -0.0000 -0.8870
vn 0.8870 -0.0000 -0.4617
vn 0.4617 -0.0000 0.8870
vn -0.7071 -0.0000 0.7071
vn -0.7071 -0.0000 -0.7071
vn 0.7071 -0.0000 -0.7071
vn 0.7071 -0.0000 0.7071
vn -0.0000 -0.7071 0.7071
vn -0.0000 0.7071 -0.7071
vn -0.0000 0.7071 0.7071
vn -0.0000 -0.7071 -0.7071
vn -0.7934 -0.6088 -0.0000
vn -0.6088 0.7934 -0.0000
vn 0.7934 0.6088 -0.0000
vn 0.6088 -0.7934 -0.0000
vn -0.7071 -0.7071 -0.0000
vn -0.7071 0.7071 -0.0000
vn 0.7071 0.7071 -0.0000
vn 0.7071 -0.7071 -0.0000
vt 0.475586 0.871094
vt 0.513672 0.871094
vt 0.513672 0.872070
vt 0.475586 0.872070
vt 0.454102 0.655273
vt 0.493164 0.655273
vt 0.493164 0.656250
vt 0.454102 0.656250
vt 0.477539 0.931641
vt 0.515625 0.931641
vt 0.515625 0.932617
vt 0.477539 0.932617
vt 0.474609 0.657227
vt 0.513672 0.657227
vt 0.513672 0.658203
vt 0.474609 0.658203
vt 0.310547 0.867188
vt 0.272461 0.867188
vt 0.272461 0.828125
vt 0.310547 0.828125
vt 0.167969 0.686523
vt 0.129883 0.686523
vt 0.129883 0.725586
vt 0.167969 0.725586
vt 0.402344 0.579102
vt 0.408203 0.579102
vt 0.408203 0.584961
vt 0.402344 0.584961
vt 0.351562 0.723633
vt 0.367188 0.723633
vt 0.367188 0.729492
vt 0.351562 0.729492
vt 0.357422 0.509766
vt 0.363281 0.509766
vt 0.363281 0.515625
vt 0.357422 0.515625
vt 0.449219 0.760742
vt 0.464844 0.760742
vt 0.464844 0.766602
vt 0.449219 0.766602
vt 0.084961 0.702148
vt 0.079102 0.702148
vt 0.079102 0.686523
vt 0.084961 0.686523
vt 0.208984 0.607422
vt 0.203125 0.607422
vt 0.203125 0.623047
vt 0.208984 0.623047
vt 0.359375 0.845703
vt 0.366211 0.845703
vt 0.366211 0.851562
vt 0.359375 0.851562
vt 0.014648 0.530273
vt 0.025391 0.530273
vt 0.025391 0.536133
vt 0.014648 0.536133
vt 0.114258 0.581055
vt 0.121094 0.581055
vt 0.121094 0.586914
vt 0.114258 0.586914
vt 0.178711 0.530273
vt 0.189453 0.530273
vt 0.189453 0.536133
vt 0.178711 0.536133
vt 0.465820 0.688477
vt 0.458984 0.688477
vt 0.458984 0.677734
vt 0.465820 0.677734
vt 0.458984 0.530273
vt 0.452148 0.530273
vt 0.452148 0.541016
vt 0.458984 0.541016
vt 0.428711 0.519531
vt 0.437500 0.519531
vt 0.437500 0.525391
vt 0.428711 0.525391
vt 0.045898 0.526367
vt 0.055664 0.526367
vt 0.055664 0.532227
vt 0.045898 0.532227
vt 0.010742 0.518555
vt 0.019531 0.518555
vt 0.019531 0.524414
vt 0.010742 0.524414
vt 0.467773 0.931641
vt 0.477539 0.937500
vt 0.467773 0.937500
vt 0.458984 0.706055
vt 0.450195 0.706055
vt 0.450195 0.696289
vt 0.458984 0.696289
vt 0.458984 0.678711
vt 0.450195 0.678711
vt 0.450195 0.688477
vt 0.488281 0.717773
vt 0.492188 0.717773
vt 0.492188 0.723633
vt 0.488281 0.723633
vt 0.367188 0.845703
vt 0.367188 0.851562
vt 0.488281 0.711914
vt 0.492188 0.711914
vt 0.246094 0.538086
vt 0.247070 0.538086
vt 0.247070 0.543945
vt 0.246094 0.543945
vt 0.178711 0.531250
vt 0.174805 0.531250
vt 0.174805 0.530273
vt 0.476562 0.882812
vt 0.472656 0.882812
vt 0.472656 0.883789
vt 0.476562 0.883789
vt 0.492188 0.743164
vt 0.495117 0.743164
vt 0.495117 0.749023
vt 0.492188 0.749023
vt 0.189453 0.684570
vt 0.206055 0.684570
vt 0.206055 0.690430
vt 0.189453 0.690430
vt 0.272461 0.501953
vt 0.275391 0.501953
vt 0.275391 0.507812
vt 0.272461 0.507812
vt 0.443359 0.843750
vt 0.459961 0.843750
vt 0.459961 0.849609
vt 0.443359 0.849609
vt 0.348633 0.573242
vt 0.345703 0.573242
vt 0.345703 0.556641
vt 0.348633 0.556641
vt 0.413086 0.548828
vt 0.410156 0.548828
vt 0.410156 0.565430
vt 0.413086 0.565430
vt 0.227539 0.555664
vt 0.231445 0.555664
vt 0.231445 0.569336
vt 0.227539 0.569336
vt 0.398438 0.972656
vt 0.415039 0.972656
vt 0.415039 0.986328
vt 0.398438 0.986328
vt 0.424805 0.519531
vt 0.428711 0.533203
vt 0.424805 0.533203
vt 0.022461 0.587891
vt 0.039062 0.587891
vt 0.039062 0.601562
vt 0.022461 0.601562
vt 0.095703 0.540039
vt 0.091797 0.540039
vt 0.091797 0.523438
vt 0.095703 0.523438
vt 0.137695 0.521484
vt 0.133789 0.521484
vt 0.133789 0.538086
vt 0.137695 0.538086
vt 0.067383 0.511719
vt 0.071289 0.511719
vt 0.071289 0.522461
vt 0.067383 0.522461
vt 0.184570 0.578125
vt 0.202148 0.578125
vt 0.202148 0.588867
vt 0.184570 0.588867
vt 0.095703 0.510742
vt 0.099609 0.510742
vt 0.099609 0.521484
vt 0.095703 0.521484
vt 0.233398 0.578125
vt 0.250977 0.578125
vt 0.250977 0.588867
vt 0.233398 0.588867
vt 0.113281 0.541992
vt 0.109375 0.541992
vt 0.109375 0.524414
vt 0.113281 0.524414
vt 0.194336 0.524414
vt 0.190430 0.524414
vt 0.190430 0.541992
vt 0.194336 0.541992
vt 0.283203 0.690430
vt 0.288086 0.690430
vt 0.288086 0.704102
vt 0.283203 0.704102
vt 0.055664 0.587891
vt 0.055664 0.601562
vt 0.022461 0.629883
vt 0.027344 0.629883
vt 0.027344 0.643555
vt 0.022461 0.643555
vt 0.398438 0.922852
vt 0.415039 0.922852
vt 0.415039 0.936523
vt 0.398438 0.936523
vt 0.200195 0.550781
vt 0.195312 0.550781
vt 0.195312 0.534180
vt 0.200195 0.534180
vt 0.447266 0.532227
vt 0.442383 0.532227
vt 0.442383 0.548828
vt 0.447266 0.548828
vt 0.100586 0.521484
vt 0.100586 0.532227
vt 0.095703 0.532227
vt 0.411133 0.718750
vt 0.428711 0.718750
vt 0.428711 0.729492
vt 0.411133 0.729492
vt 0.245117 0.521484
vt 0.250000 0.521484
vt 0.250000 0.532227
vt 0.245117 0.532227
vt 0.411133 0.708008
vt 0.428711 0.708008
vt 0.022461 0.625000
vt 0.017578 0.625000
vt 0.017578 0.607422
vt 0.022461 0.607422
vt 0.231445 0.538086
vt 0.226562 0.538086
vt 0.226562 0.555664
vt 0.298828 0.542969
vt 0.308594 0.542969
vt 0.308594 0.553711
vt 0.298828 0.553711
vt 0.465820 0.530273
vt 0.465820 0.541016
vt 0.446289 0.574219
vt 0.456055 0.574219
vt 0.456055 0.584961
vt 0.446289 0.584961
vt 0.137695 0.529297
vt 0.144531 0.529297
vt 0.144531 0.540039
vt 0.137695 0.540039
vt 0.067383 0.538086
vt 0.057617 0.538086
vt 0.057617 0.531250
vt 0.067383 0.531250
vt 0.439453 0.531250
vt 0.429688 0.531250
vt 0.429688 0.538086
vt 0.439453 0.538086
vt 0.428711 0.986328
vt 0.433594 0.986328
vt 0.433594 0.992188
vt 0.428711 0.992188
vt 0.225586 0.537109
vt 0.226562 0.537109
vt 0.226562 0.542969
vt 0.225586 0.542969
vt 0.424805 0.507812
vt 0.429688 0.507812
vt 0.429688 0.513672
vt 0.424805 0.513672
vt 0.294922 0.536133
vt 0.295898 0.536133
vt 0.295898 0.541992
vt 0.294922 0.541992
vt 0.371094 0.536133
vt 0.366211 0.536133
vt 0.366211 0.535156
vt 0.371094 0.535156
vt 0.482422 0.943359
vt 0.477539 0.943359
vt 0.477539 0.944336
vt 0.482422 0.944336
vt 0.475586 0.973633
vt 0.484375 0.973633
vt 0.484375 0.979492
vt 0.475586 0.979492
vt 0.113281 0.526367
vt 0.123047 0.526367
vt 0.123047 0.532227
vt 0.113281 0.532227
vt 0.475586 0.967773
vt 0.484375 0.967773
vt 0.200195 0.526367
vt 0.209961 0.526367
vt 0.209961 0.532227
vt 0.200195 0.532227
vt 0.450195 0.668945
vt 0.458984 0.668945
vt 0.458984 0.625000
vt 0.450195 0.625000
vt 0.450195 0.634766
vt 0.458984 0.634766
vt 0.431641 0.513672
vt 0.431641 0.519531
vt 0.464844 0.752930
vt 0.475586 0.752930
vt 0.475586 0.758789
vt 0.464844 0.758789
vt 0.450195 0.513672
vt 0.457031 0.513672
vt 0.457031 0.519531
vt 0.450195 0.519531
vt 0.363281 0.529297
vt 0.374023 0.529297
vt 0.374023 0.535156
vt 0.363281 0.535156
vt 0.466797 0.859375
vt 0.459961 0.859375
vt 0.459961 0.848633
vt 0.466797 0.848633
vt 0.466797 0.802734
vt 0.459961 0.802734
vt 0.459961 0.813477
vt 0.466797 0.813477
vt 0.441406 0.509766
vt 0.447266 0.509766
vt 0.447266 0.515625
vt 0.441406 0.515625
vt 0.449219 0.754883
vt 0.464844 0.754883
vt 0.121094 0.508789
vt 0.126953 0.508789
vt 0.126953 0.514648
vt 0.121094 0.514648
vt 0.449219 0.749023
vt 0.464844 0.749023
vt 0.376953 0.550781
vt 0.371094 0.550781
vt 0.376953 0.535156
vt 0.382812 0.535156
vt 0.382812 0.550781
vt 0.449219 0.507812
vt 0.454102 0.507812
vt 0.454102 0.513672
vt 0.449219 0.513672
vt 0.447266 0.603516
vt 0.463867 0.603516
vt 0.463867 0.609375
vt 0.447266 0.609375
vt 0.009766 0.506836
vt 0.014648 0.506836
vt 0.014648 0.512695
vt 0.009766 0.512695
vt 0.447266 0.597656
vt 0.463867 0.597656
vt 0.452148 0.548828
vt 0.452148 0.532227
vt 0.080078 0.531250
vt 0.075195 0.531250
vt 0.075195 0.547852
vt 0.080078 0.547852
vt 0.131836 0.875000
vt 0.180664 0.875000
vt 0.180664 0.880859
vt 0.131836 0.880859
vt 0.167969 0.684570
vt 0.167969 0.690430
vt 0.367188 0.828125
vt 0.416016 0.828125
vt 0.416016 0.833984
vt 0.367188 0.833984
vt 0.330078 0.723633
vt 0.330078 0.729492
vt 0.356445 0.935547
vt 0.307617 0.935547
vt 0.307617 0.914062
vt 0.356445 0.914062
vt 0.310547 0.845703
vt 0.359375 0.867188
vt 0.339844 0.608398
vt 0.359375 0.608398
vt 0.359375 0.625000
vt 0.339844 0.625000
vt 0.227539 0.521484
vt 0.231445 0.521484
vt 0.227539 0.538086
vt 0.378906 0.608398
vt 0.378906 0.625000
vt 0.126953 0.520508
vt 0.130859 0.520508
vt 0.130859 0.537109
vt 0.126953 0.537109
vt 0.276367 0.693359
vt 0.256836 0.693359
vt 0.256836 0.689453
vt 0.276367 0.689453
vt 0.467773 0.733398
vt 0.448242 0.733398
vt 0.448242 0.737305
vt 0.467773 0.737305
vt 0.298828 0.633789
vt 0.347656 0.633789
vt 0.347656 0.644531
vt 0.298828 0.644531
vt 0.403320 0.733398
vt 0.421875 0.733398
vt 0.421875 0.744141
vt 0.403320 0.744141
vt 0.396484 0.633789
vt 0.396484 0.644531
vt 0.284180 0.584961
vt 0.302734 0.584961
vt 0.302734 0.595703
vt 0.284180 0.595703
vt 0.365234 0.885742
vt 0.316406 0.885742
vt 0.316406 0.867188
vt 0.365234 0.867188
vt 0.362305 0.662109
vt 0.313477 0.662109
vt 0.313477 0.680664
vt 0.362305 0.680664
vt 0.183594 0.606445
vt 0.203125 0.606445
vt 0.183594 0.623047
vt 0.220703 0.569336
vt 0.230469 0.569336
vt 0.230469 0.585938
vt 0.220703 0.585938
vt 0.256836 0.605469
vt 0.276367 0.605469
vt 0.276367 0.622070
vt 0.256836 0.622070
vt 0.284180 0.568359
vt 0.293945 0.568359
vt 0.293945 0.584961
vt 0.425781 0.634766
vt 0.406250 0.634766
vt 0.406250 0.625000
vt 0.425781 0.625000
vt 0.184570 0.579102
vt 0.165039 0.579102
vt 0.165039 0.588867
vt 0.410156 0.595703
vt 0.426758 0.595703
vt 0.426758 0.607422
vt 0.410156 0.607422
vt 0.069336 0.588867
vt 0.087891 0.588867
vt 0.087891 0.600586
vt 0.069336 0.600586
vt 0.081055 0.577148
vt 0.097656 0.577148
vt 0.097656 0.588867
vt 0.081055 0.588867
vt 0.106445 0.588867
vt 0.106445 0.600586
vt 0.395508 0.625000
vt 0.378906 0.606445
vt 0.395508 0.606445
vt 0.398438 0.963867
vt 0.381836 0.963867
vt 0.381836 0.982422
vt 0.398438 0.982422
vt 0.418945 0.824219
vt 0.433594 0.824219
vt 0.433594 0.834961
vt 0.418945 0.834961
vt 0.133789 0.510742
vt 0.137695 0.510742
vt 0.418945 0.767578
vt 0.433594 0.767578
vt 0.433594 0.778320
vt 0.418945 0.778320
vt 0.226562 0.510742
vt 0.230469 0.510742
vt 0.230469 0.521484
vt 0.226562 0.521484
vt 0.481445 0.721680
vt 0.466797 0.721680
vt 0.466797 0.717773
vt 0.481445 0.717773
vt 0.224609 0.528320
vt 0.209961 0.528320
vt 0.224609 0.532227
vt 0.267578 0.570312
vt 0.282227 0.570312
vt 0.282227 0.581055
vt 0.267578 0.581055
vt 0.346680 0.510742
vt 0.350586 0.510742
vt 0.350586 0.521484
vt 0.346680 0.521484
vt 0.419922 0.840820
vt 0.434570 0.840820
vt 0.434570 0.851562
vt 0.419922 0.851562
vt 0.005859 0.509766
vt 0.009766 0.509766
vt 0.009766 0.520508
vt 0.005859 0.520508
vt 0.482422 0.737305
vt 0.482422 0.733398
vt 0.482422 0.674805
vt 0.467773 0.674805
vt 0.467773 0.678711
vt 0.482422 0.678711
vt 0.322266 0.588867
vt 0.339844 0.588867
vt 0.339844 0.600586
vt 0.322266 0.600586
vt 0.183594 0.588867
vt 0.183594 0.600586
vt 0.165039 0.600586
vt 0.357422 0.588867
vt 0.357422 0.600586
vt 0.202148 0.600586
vt 0.000000 0.625000
vt 0.000000 0.606445
vt 0.017578 0.606445
vt 0.339844 0.606445
vt 0.322266 0.606445
vt 0.322266 0.625000
vt 0.381836 0.947266
vt 0.399414 0.947266
vt 0.399414 0.963867
vt 0.301758 0.568359
vt 0.301758 0.584961
vt 0.086914 0.600586
vt 0.086914 0.617188
vt 0.069336 0.617188
vt 0.081055 0.560547
vt 0.088867 0.560547
vt 0.088867 0.577148
vt 0.438477 0.653320
vt 0.420898 0.653320
vt 0.420898 0.645508
vt 0.438477 0.645508
vt 0.439453 0.956055
vt 0.421875 0.956055
vt 0.421875 0.963867
vt 0.439453 0.963867
vt 0.104492 0.600586
vt 0.104492 0.617188
vt 0.096680 0.560547
vt 0.096680 0.577148
vt 0.122070 0.600586
vt 0.122070 0.617188
vt 0.422852 0.691406
vt 0.430664 0.691406
vt 0.430664 0.708008
vt 0.422852 0.708008
vt 0.439453 0.746094
vt 0.421875 0.746094
vt 0.421875 0.738281
vt 0.439453 0.738281
vt 0.218750 0.569336
vt 0.201172 0.569336
vt 0.201172 0.577148
vt 0.218750 0.577148
vt 0.264648 0.907227
vt 0.272461 0.907227
vt 0.272461 0.910156
vt 0.264648 0.910156
vt 0.421875 0.664062
vt 0.429688 0.664062
vt 0.429688 0.666992
vt 0.421875 0.666992
vt 0.488281 0.928711
vt 0.496094 0.928711
vt 0.496094 0.931641
vt 0.488281 0.931641
vt 0.488281 0.835938
vt 0.496094 0.835938
vt 0.496094 0.838867
vt 0.488281 0.838867
vt 0.433594 0.786133
vt 0.425781 0.786133
vt 0.425781 0.778320
vt 0.474609 0.721680
vt 0.466797 0.729492
vt 0.474609 0.729492
vt 0.113281 0.510742
vt 0.121094 0.510742
vt 0.121094 0.515625
vt 0.113281 0.515625
vt 0.476562 0.695312
vt 0.486328 0.695312
vt 0.486328 0.700195
vt 0.476562 0.700195
vt 0.484375 0.874023
vt 0.492188 0.874023
vt 0.492188 0.878906
vt 0.484375 0.878906
vt 0.476562 0.690430
vt 0.486328 0.690430
vt 0.460938 0.625000
vt 0.453125 0.625000
vt 0.453125 0.615234
vt 0.460938 0.615234
vt 0.461914 0.961914
vt 0.454102 0.961914
vt 0.454102 0.971680
vt 0.461914 0.971680
vt 0.235352 0.499023
vt 0.237305 0.499023
vt 0.237305 0.506836
vt 0.235352 0.506836
vt 0.493164 0.700195
vt 0.495117 0.700195
vt 0.495117 0.708008
vt 0.493164 0.708008
vt 0.297852 0.499023
vt 0.299805 0.499023
vt 0.299805 0.506836
vt 0.297852 0.506836
vt 0.301758 0.499023
vt 0.301758 0.506836
vt 0.187500 0.500977
vt 0.185547 0.500977
vt 0.185547 0.499023
vt 0.187500 0.499023
vt 0.500977 0.811523
vt 0.499023 0.811523
vt 0.499023 0.813477
vt 0.500977 0.813477
vt 0.303711 0.499023
vt 0.303711 0.506836
vt 0.151367 0.507812
vt 0.156250 0.507812
vt 0.156250 0.515625
vt 0.151367 0.515625
vt 0.305664 0.499023
vt 0.305664 0.506836
vt 0.165039 0.507812
vt 0.169922 0.507812
vt 0.169922 0.515625
vt 0.165039 0.515625
vt 0.116211 0.502930
vt 0.114258 0.502930
vt 0.114258 0.498047
vt 0.116211 0.498047
vt 0.118164 0.498047
vt 0.118164 0.502930
vt 0.307617 0.499023
vt 0.307617 0.506836
vt 0.309570 0.499023
vt 0.309570 0.506836
vt 0.311523 0.499023
vt 0.311523 0.506836
vt 0.470703 0.499023
vt 0.472656 0.499023
vt 0.472656 0.506836
vt 0.470703 0.506836
vt 0.499023 0.809570
vt 0.500977 0.809570
vt 0.224609 0.499023
vt 0.222656 0.499023
vt 0.222656 0.500977
vt 0.224609 0.500977
vt 0.474609 0.499023
vt 0.474609 0.506836
vt 0.476562 0.499023
vt 0.476562 0.506836
vt 0.478516 0.499023
vt 0.478516 0.506836
vt 0.480469 0.499023
vt 0.480469 0.506836
vt 0.226562 0.500977
vt 0.226562 0.499023
vt 0.500977 0.771484
vt 0.499023 0.771484
vt 0.499023 0.773438
vt 0.500977 0.773438
vt 0.482422 0.499023
vt 0.482422 0.506836
vt 0.174805 0.507812
vt 0.174805 0.515625
vt 0.484375 0.499023
vt 0.484375 0.506836
vt 0.191406 0.507812
vt 0.196289 0.507812
vt 0.196289 0.515625
vt 0.191406 0.515625
vt 0.499023 0.871094
vt 0.497070 0.871094
vt 0.497070 0.866211
vt 0.499023 0.866211
vt 0.499023 0.808594
vt 0.497070 0.808594
vt 0.497070 0.813477
vt 0.486328 0.499023
vt 0.486328 0.506836
vt 0.488281 0.499023
vt 0.488281 0.506836
vt 0.493164 0.504883
vt 0.495117 0.504883
vt 0.495117 0.512695
vt 0.493164 0.512695
vt 0.490234 0.499023
vt 0.490234 0.506836
vt 0.499023 0.769531
vt 0.500977 0.769531
vt 0.500977 0.767578
vt 0.499023 0.767578
vt 0.480469 0.518555
vt 0.487305 0.518555
vt 0.487305 0.524414
vt 0.480469 0.524414
vt 0.016602 0.512695
vt 0.016602 0.518555
vt 0.009766 0.518555
vt 0.037109 0.512695
vt 0.043945 0.512695
vt 0.043945 0.518555
vt 0.037109 0.518555
vt 0.071289 0.512695
vt 0.078125 0.512695
vt 0.078125 0.518555
vt 0.071289 0.518555
vt 0.079102 0.683594
vt 0.072266 0.683594
vt 0.072266 0.676758
vt 0.079102 0.676758
vt 0.095703 0.516602
vt 0.088867 0.516602
vt 0.088867 0.523438
vt 0.278320 0.501953
vt 0.278320 0.507812
vt 0.249023 0.508789
vt 0.254883 0.508789
vt 0.254883 0.514648
vt 0.249023 0.514648
vt 0.495117 0.717773
vt 0.495117 0.723633
vt 0.260742 0.508789
vt 0.260742 0.514648
vt 0.495117 0.711914
vt 0.495117 0.682617
vt 0.492188 0.682617
vt 0.492188 0.688477
vt 0.495117 0.688477
vt 0.312500 0.501953
vt 0.315430 0.501953
vt 0.315430 0.507812
vt 0.312500 0.507812
vt 0.266602 0.508789
vt 0.266602 0.514648
vt 0.318359 0.501953
vt 0.318359 0.507812
vt 0.272461 0.508789
vt 0.272461 0.514648
vt 0.321289 0.507812
vt 0.321289 0.501953
vt 0.324219 0.501953
vt 0.324219 0.507812
vt 0.290039 0.505859
vt 0.293945 0.505859
vt 0.293945 0.511719
vt 0.290039 0.511719
vt 0.297852 0.505859
vt 0.297852 0.511719
vt 0.363281 0.505859
vt 0.367188 0.505859
vt 0.367188 0.511719
vt 0.363281 0.511719
vt 0.488281 0.628906
vt 0.492188 0.628906
vt 0.492188 0.634766
vt 0.488281 0.634766
vt 0.462891 0.700195
vt 0.458984 0.700195
vt 0.462891 0.696289
vt 0.346680 0.515625
vt 0.342773 0.515625
vt 0.342773 0.519531
vt 0.346680 0.519531
vt 0.371094 0.505859
vt 0.371094 0.511719
vt 0.278320 0.508789
vt 0.284180 0.508789
vt 0.284180 0.514648
vt 0.278320 0.514648
vt 0.373047 0.505859
vt 0.376953 0.505859
vt 0.376953 0.511719
vt 0.373047 0.511719
vt 0.290039 0.508789
vt 0.290039 0.514648
vt 0.492188 0.576172
vt 0.488281 0.576172
vt 0.488281 0.570312
vt 0.492188 0.570312
vt 0.492188 0.564453
vt 0.488281 0.564453
vt 0.012695 0.571289
vt 0.014648 0.571289
vt 0.014648 0.582031
vt 0.012695 0.582031
vt 0.033203 0.531250
vt 0.035156 0.531250
vt 0.035156 0.541992
vt 0.033203 0.541992
vt 0.051758 0.500977
vt 0.053711 0.500977
vt 0.053711 0.511719
vt 0.051758 0.511719
vt 0.069336 0.500977
vt 0.071289 0.500977
vt 0.069336 0.511719
vt 0.499023 0.765625
vt 0.500977 0.765625
vt 0.500977 0.763672
vt 0.499023 0.763672
vt 0.436523 0.933594
vt 0.438477 0.933594
vt 0.438477 0.937500
vt 0.436523 0.937500
vt 0.461914 0.922852
vt 0.463867 0.922852
vt 0.463867 0.926758
vt 0.461914 0.926758
vt 0.472656 0.625000
vt 0.474609 0.625000
vt 0.474609 0.628906
vt 0.472656 0.628906
vt 0.073242 0.518555
vt 0.073242 0.522461
vt 0.500977 0.754883
vt 0.499023 0.754883
vt 0.499023 0.752930
vt 0.500977 0.752930
vt 0.500977 0.750977
vt 0.499023 0.750977
vt 0.377930 0.486328
vt 0.378906 0.486328
vt 0.378906 0.524414
vt 0.377930 0.524414
vt 0.379883 0.486328
vt 0.379883 0.524414
vt 0.333984 0.484375
vt 0.334961 0.484375
vt 0.334961 0.522461
vt 0.333984 0.522461
vt 0.230469 0.483398
vt 0.231445 0.483398
vt 0.482422 0.552734
vt 0.481445 0.552734
vt 0.481445 0.551758
vt 0.482422 0.551758
vt 0.483398 0.943359
vt 0.483398 0.944336
vt 0.490234 0.673828
vt 0.500000 0.673828
vt 0.500000 0.675781
vt 0.490234 0.675781
vt 0.434570 0.595703
vt 0.434570 0.597656
vt 0.426758 0.597656
vt 0.490234 0.590820
vt 0.500000 0.590820
vt 0.500000 0.592773
vt 0.490234 0.592773
vt 0.473633 0.843750
vt 0.481445 0.843750
vt 0.481445 0.845703
vt 0.473633 0.845703
vt 0.463867 0.961914
vt 0.454102 0.954102
vt 0.463867 0.954102
vt 0.057617 0.545898
vt 0.067383 0.545898
vt 0.490234 0.798828
vt 0.494141 0.798828
vt 0.494141 0.803711
vt 0.490234 0.803711
vt 0.431641 0.868164
vt 0.432617 0.868164
vt 0.432617 0.873047
vt 0.431641 0.873047
vt 0.490234 0.734375
vt 0.494141 0.734375
vt 0.494141 0.739258
vt 0.490234 0.739258
vt 0.146484 0.561523
vt 0.147461 0.561523
vt 0.147461 0.566406
vt 0.146484 0.566406
vt 0.462891 0.669922
vt 0.458984 0.669922
vt 0.462891 0.668945
vt 0.010742 0.530273
vt 0.010742 0.531250
vt 0.014648 0.531250
vt 0.382812 0.558594
vt 0.383789 0.558594
vt 0.383789 0.563477
vt 0.382812 0.563477
vt 0.451172 0.917969
vt 0.452148 0.917969
vt 0.452148 0.922852
vt 0.451172 0.922852
vt 0.113281 0.537109
vt 0.114258 0.537109
vt 0.114258 0.541992
vt 0.333008 0.517578
vt 0.333984 0.517578
vt 0.333008 0.522461
vt 0.477539 0.992188
vt 0.476562 0.992188
vt 0.476562 0.991211
vt 0.477539 0.991211
vt 0.226562 0.522461
vt 0.227539 0.522461
vt 0.066406 0.515625
vt 0.067383 0.515625
vt 0.067383 0.520508
vt 0.066406 0.520508
vt 0.497070 0.883789
vt 0.499023 0.883789
vt 0.499023 0.888672
vt 0.497070 0.888672
vt 0.173828 0.515625
vt 0.174805 0.520508
vt 0.173828 0.520508
vt 0.112305 0.498047
vt 0.112305 0.502930
vt 0.347656 0.534180
vt 0.346680 0.534180
vt 0.346680 0.532227
vt 0.347656 0.532227
vt 0.441406 0.532227
vt 0.441406 0.534180
vt 0.442383 0.534180
vt 0.483398 0.979492
vt 0.484375 0.982422
vt 0.483398 0.982422
vt 0.353516 0.499023
vt 0.355469 0.499023
vt 0.355469 0.501953
vt 0.353516 0.501953
vt 0.208008 0.512695
vt 0.208984 0.512695
vt 0.208984 0.515625
vt 0.208008 0.515625
vt 0.498047 0.631836
vt 0.500000 0.631836
vt 0.500000 0.634766
vt 0.498047 0.634766
vt 0.429688 0.533203
vt 0.428711 0.531250
vt 0.451172 0.530273
vt 0.451172 0.532227
vt 0.470703 0.512695
vt 0.471680 0.512695
vt 0.471680 0.515625
vt 0.470703 0.515625
vt 0.328125 0.509766
vt 0.329102 0.509766
vt 0.329102 0.512695
vt 0.328125 0.512695
vt 0.008789 0.506836
vt 0.008789 0.509766
vt 0.491211 0.964844
vt 0.492188 0.964844
vt 0.492188 0.967773
vt 0.491211 0.967773
vt 0.079102 0.518555
vt 0.078125 0.517578
vt 0.079102 0.517578
vt 0.481445 0.678711
vt 0.481445 0.679688
vt 0.482422 0.679688
vt 0.461914 0.778320
vt 0.464844 0.778320
vt 0.464844 0.781250
vt 0.461914 0.781250
vt 0.498047 0.628906
vt 0.500000 0.628906
vt 0.100586 0.529297
vt 0.103516 0.529297
vt 0.103516 0.532227
vt 0.498047 0.625977
vt 0.500000 0.625977
vt 0.500977 0.651367
vt 0.498047 0.651367
vt 0.498047 0.649414
vt 0.500977 0.649414
vt 0.382812 0.500000
vt 0.379883 0.500000
vt 0.379883 0.501953
vt 0.382812 0.501953
vt 0.472656 0.848633
vt 0.472656 0.851562
vt 0.466797 0.851562
vt 0.409180 0.526367
vt 0.412109 0.526367
vt 0.412109 0.529297
vt 0.409180 0.529297
vt 0.476562 0.665039
vt 0.482422 0.665039
vt 0.482422 0.667969
vt 0.476562 0.667969
vt 0.406250 0.520508
vt 0.409180 0.520508
vt 0.409180 0.523438
vt 0.406250 0.523438
vt 0.477539 0.982422
vt 0.477539 0.979492
vt 0.497070 0.620117
vt 0.491211 0.620117
vt 0.491211 0.623047
vt 0.497070 0.623047
vt 0.207031 0.647461
vt 0.209961 0.647461
vt 0.209961 0.690430
vt 0.207031 0.690430
vt 0.069336 0.627930
vt 0.072266 0.627930
vt 0.072266 0.670898
vt 0.069336 0.670898
vt 0.352539 0.545898
vt 0.355469 0.545898
vt 0.355469 0.588867
vt 0.352539 0.588867
vt 0.049805 0.544922
vt 0.052734 0.544922
vt 0.052734 0.587891
vt 0.049805 0.587891
vt 0.498047 0.541016
vt 0.495117 0.541016
vt 0.495117 0.538086
vt 0.498047 0.538086
vt 0.499023 0.928711
vt 0.499023 0.931641
vt 0.055664 0.544922
vt 0.134766 0.538086
vt 0.137695 0.581055
vt 0.134766 0.581055
vt 0.037109 0.536133
vt 0.040039 0.536133
vt 0.040039 0.579102
vt 0.037109 0.579102
vt 0.413086 0.536133
vt 0.416016 0.536133
vt 0.416016 0.579102
vt 0.413086 0.579102
vt 0.499023 0.838867
vt 0.499023 0.835938
vt 0.499023 0.725586
vt 0.496094 0.725586
vt 0.496094 0.728516
vt 0.499023 0.728516
s 0
usemtl m_4fd79f4b-b545-3c09-9257-824d9016715c
f 4/1/1 7/2/1 5/3/1 2/4/1
f 3/5/2 4/6/2 2/7/2 1/8/2
f 8/9/3 3/10/3 1/11/3 6/12/3
f 7/13/4 8/14/4 6/15/4 5/16/4
f 6/17/5 1/18/5 2/19/5 5/20/5
f 7/21/6 4/22/6 3/23/6 8/24/6
f 12/25/1 15/26/1 13/27/1 10/28/1
f 11/29/2 12/30/2 10/31/2 9/32/2
f 16/33/3 11/34/3 9/35/3 14/36/3
f 15/37/4 16/38/4 14/39/4 13/40/4
f 14/41/5 9/42/5 10/43/5 13/44/5
f 15/45/6 12/46/6 11/47/6 16/48/6
f 20/49/7 23/50/7 21/51/7 18/52/7
f 19/53/8 20/54/8 18/55/8 17/56/8
f 24/57/9 19/58/9 17/59/9 22/60/9
f 23/61/10 24/62/10 22/63/10 21/64/10
f 22/65/5 17/66/5 18/67/5 21/68/5
f 23/69/6 20/70/6 19/71/6 24/72/6
f 28/73/11 31/74/11 29/75/11 26/76/11
f 27/77/12 28/78/12 26/79/12 25/80/12
f 32/81/13 27/82/13 25/83/13 30/84/13
f 31/85/14 32/9/14 30/86/14 29/87/14
f 30/88/5 25/89/5 26/90/5 29/91/5
f 31/92/6 28/93/6 27/94/6 32/66/6
f 36/95/15 39/96/15 37/97/15 34/98/15
f 35/50/16 36/99/16 34/100/16 33/51/16
f 40/101/17 35/102/17 33/96/17 38/95/17
f 39/103/18 40/104/18 38/105/18 37/106/18
f 38/107/5 33/108/5 34/109/5 37/61/5
f 39/110/6 36/111/6 35/112/6 40/113/6
f 44/114/1 47/115/1 45/116/1 42/117/1
f 43/118/2 44/119/2 42/120/2 41/121/2
f 48/122/3 43/123/3 41/124/3 46/125/3
f 47/126/4 48/127/4 46/128/4 45/129/4
f 46/130/5 41/131/5 42/132/5 45/133/5
f 47/134/6 44/135/6 43/136/6 48/137/6
f 52/138/19 55/139/19 53/140/19 50/141/19
f 51/142/20 52/143/20 50/144/20 49/145/20
f 56/146/21 51/73/21 49/147/21 54/148/21
f 55/149/22 56/150/22 54/151/22 53/152/22
f 54/153/23 49/154/23 50/155/23 53/156/23
f 55/157/24 52/158/24 51/159/24 56/160/24
f 60/161/1 63/162/1 61/163/1 58/164/1
f 59/165/2 60/166/2 58/167/2 57/168/2
f 64/169/3 59/170/3 57/171/3 62/172/3
f 63/173/4 64/174/4 62/175/4 61/176/4
f 62/177/5 57/178/5 58/179/5 61/180/5
f 63/181/6 60/182/6 59/183/6 64/184/6
f 68/185/25 71/186/25 69/187/25 66/188/25
f 67/150/26 68/189/26 66/190/26 65/151/26
f 72/191/27 67/192/27 65/193/27 70/194/27
f 71/195/28 72/196/28 70/197/28 69/198/28
f 70/199/23 65/200/23 66/201/23 69/202/23
f 71/203/24 68/204/24 67/205/24 72/206/24
f 76/172/1 79/207/1 77/208/1 74/209/1
f 75/210/2 76/211/2 74/212/2 73/213/2
f 80/214/3 75/215/3 73/216/3 78/217/3
f 79/218/4 80/219/4 78/211/4 77/210/4
f 78/220/5 73/221/5 74/222/5 77/223/5
f 79/224/6 76/225/6 75/226/6 80/139/6
f 84/227/1 87/228/1 85/229/1 82/230/1
f 83/69/2 84/231/2 82/232/2 81/72/2
f 88/233/3 83/234/3 81/235/3 86/236/3
f 87/237/4 88/238/4 86/239/4 85/240/4
f 86/241/5 81/242/5 82/243/5 85/244/5
f 87/245/6 84/246/6 83/247/6 88/248/6
f 92/249/29 95/250/29 93/251/29 90/252/29
f 91/253/30 92/254/30 90/255/30 89/256/30
f 96/257/31 91/258/31 89/259/31 94/260/31
f 95/261/32 96/262/32 94/263/32 93/264/32
f 94/265/5 89/266/5 90/267/5 93/268/5
f 95/269/6 92/270/6 91/271/6 96/272/6
f 100/273/33 103/274/33 101/275/33 98/276/33
f 99/277/34 100/278/34 98/279/34 97/280/34
f 104/281/35 99/282/35 97/274/35 102/273/35
f 103/283/36 104/284/36 102/285/36 101/286/36
f 102/92/5 97/93/5 98/287/5 101/288/5
f 103/289/6 100/290/6 99/291/6 104/292/6
f 108/260/37 111/293/37 109/294/37 106/146/37
f 107/295/38 108/296/38 106/297/38 105/298/38
f 112/299/39 107/300/39 105/301/39 110/302/39
f 111/303/40 112/304/40 110/305/40 109/306/40
f 110/307/5 105/308/5 106/309/5 109/310/5
f 111/311/6 108/312/6 107/313/6 112/314/6
f 116/315/1 119/316/1 117/317/1 114/318/1
f 115/319/2 116/320/2 114/38/2 113/37/2
f 120/321/3 115/322/3 113/323/3 118/324/3
f 119/325/4 120/326/4 118/320/4 117/319/4
f 118/327/5 113/328/5 114/268/5 117/329/5
f 119/330/6 116/329/6 115/327/6 120/331/6
f 124/332/1 127/333/1 125/334/1 122/335/1
f 123/336/2 124/337/2 122/338/2 121/339/2
f 128/340/3 123/341/3 121/342/3 126/343/3
f 127/344/4 128/345/4 126/337/4 125/336/4
f 126/346/5 121/206/5 122/203/5 125/347/5
f 127/348/6 124/349/6 123/350/6 128/351/6
f 132/352/1 135/353/1 133/354/1 130/355/1
f 131/356/2 132/118/2 130/121/2 129/357/2
f 136/358/3 131/359/3 129/360/3 134/361/3
f 135/362/4 136/29/4 134/32/4 133/363/4
f 134/364/5 129/365/5 130/366/5 133/367/5
f 135/49/6 132/368/6 131/17/6 136/369/6
f 140/370/1 143/371/1 141/372/1 138/373/1
f 139/374/2 140/375/2 138/224/2 137/376/2
f 144/371/3 139/377/3 137/378/3 142/372/3
f 143/379/4 144/380/4 142/381/4 141/382/4
f 142/383/5 137/384/5 138/385/5 141/386/5
f 143/387/6 140/388/6 139/389/6 144/390/6
f 148/391/1 151/392/1 149/393/1 146/394/1
f 147/395/2 148/396/2 146/397/2 145/398/2
f 152/392/3 147/399/3 145/400/3 150/393/3
f 151/401/4 152/402/4 150/403/4 149/404/4
f 150/405/5 145/406/5 146/407/5 149/408/5
f 151/409/6 148/410/6 147/411/6 152/412/6
f 156/413/1 159/414/1 157/47/1 154/415/1
f 155/416/2 156/417/2 154/418/2 153/419/2
f 160/420/3 155/421/3 153/422/3 158/423/3
f 159/424/4 160/425/4 158/426/4 157/401/4
f 158/427/5 153/428/5 154/429/5 157/430/5
f 159/431/6 156/432/6 155/433/6 160/168/6
f 164/434/41 167/435/41 165/436/41 162/437/41
f 163/438/42 164/439/42 162/440/42 161/441/42
f 168/442/43 163/443/43 161/444/43 166/445/43
f 167/439/44 168/446/44 166/447/44 165/440/44
f 166/448/45 161/378/45 162/449/45 165/450/45
f 167/451/46 164/452/46 163/453/46 168/454/46
f 172/455/47 175/456/47 173/457/47 170/458/47
f 171/459/48 172/460/48 170/157/48 169/158/48
f 176/461/49 171/462/49 169/463/49 174/464/49
f 175/465/50 176/466/50 174/467/50 173/468/50
f 174/469/5 169/470/5 170/471/5 173/472/5
f 175/473/6 172/474/6 171/285/6 176/475/6
f 180/476/51 183/477/51 181/478/51 178/479/51
f 179/480/52 180/481/52 178/482/52 177/483/52
f 184/484/53 179/485/53 177/486/53 182/487/53
f 183/488/54 184/489/54 182/490/54 181/491/54
f 182/492/5 177/390/5 178/387/5 181/493/5
f 183/494/6 180/495/6 179/496/6 184/497/6
f 188/498/55 191/499/55 189/500/55 186/501/55
f 187/433/56 188/502/56 186/503/56 185/504/56
f 192/499/57 187/505/57 185/506/57 190/500/57
f 191/502/58 192/167/58 190/507/58 189/503/58
f 190/221/59 185/508/59 186/509/59 189/510/59
f 191/511/60 188/512/60 187/513/60 192/373/60
f 196/514/61 199/515/61 197/516/61 194/452/61
f 195/425/62 196/517/62 194/518/62 193/426/62
f 200/441/63 195/519/63 193/520/63 198/521/63
f 199/522/64 200/523/64 198/524/64 197/442/64
f 198/525/5 193/526/5 194/527/5 197/528/5
f 199/529/6 196/530/6 195/531/6 200/532/6
f 204/519/65 207/533/65 205/534/65 202/520/65
f 203/523/66 204/535/66 202/536/66 201/524/66
f 208/533/67 203/537/67 201/538/67 206/534/67
f 207/539/68 208/540/68 206/541/68 205/542/68
f 206/543/5 201/544/5 202/545/5 205/546/5
f 207/547/6 204/548/6 203/549/6 208/550/6
f 212/551/1 215/552/1 213/553/1 210/554/1
f 211/555/2 212/556/2 210/557/2 209/558/2
f 216/559/3 211/560/3 209/561/3 214/562/3
f 215/563/4 216/564/4 214/565/4 213/566/4
f 214/567/5 209/568/5 210/569/5 213/463/5
f 215/570/6 212/470/6 211/571/6 216/572/6
f 220/573/1 223/574/1 221/575/1 218/576/1
f 219/577/2 220/578/2 218/579/2 217/580/2
f 224/581/3 219/582/3 217/583/3 222/584/3
f 223/585/4 224/586/4 222/578/4 221/577/4
f 222/587/5 217/588/5 218/589/5 221/590/5
f 223/591/6 220/592/6 219/593/6 224/594/6
f 228/595/69 231/596/69 229/597/69 226/598/69
f 227/599/70 228/600/70 226/601/70 225/602/70
f 232/603/71 227/604/71 225/605/71 230/606/71
f 231/604/72 232/607/72 230/608/72 229/605/72
f 230/609/5 225/610/5 226/611/5 229/612/5
f 231/613/6 228/614/6 227/615/6 232/616/6
f 236/607/1 239/617/1 237/618/1 234/608/1
f 235/619/2 236/620/2 234/621/2 233/622/2
f 240/617/3 235/623/3 233/624/3 238/618/3
f 239/625/4 240/626/4 238/627/4 237/628/4
f 238/629/5 233/630/5 234/631/5 237/632/5
f 239/633/6 236/632/6 235/629/6 240/634/6
f 244/623/73 247/635/73 245/636/73 242/624/73
f 243/635/74 244/637/74 242/638/74 241/636/74
f 248/637/75 243/639/75 241/640/75 246/638/75
f 247/641/76 248/642/76 246/643/76 245/644/76
f 246/613/5 241/614/5 242/645/5 245/646/5
f 247/647/6 244/648/6 243/649/6 248/650/6
f 252/642/77 255/651/77 253/652/77 250/643/77
f 251/651/78 252/653/78 250/654/78 249/652/78
f 256/653/79 251/655/79 249/656/79 254/654/79
f 255/655/80 256/657/80 254/658/80 253/656/80
f 254/659/5 249/650/5 250/647/5 253/660/5
f 255/661/6 252/662/6 251/663/6 256/664/6
f 260/657/1 263/665/1 261/666/1 258/658/1
f 259/626/2 260/667/2 258/668/2 257/627/2
f 264/665/3 259/669/3 257/670/3 262/666/3
f 263/671/4 264/672/4 262/673/4 261/674/4
f 262/675/5 257/676/5 258/677/5 261/678/5
f 263/679/6 260/680/6 259/681/6 264/615/6
f 268/669/81 271/682/81 269/683/81 266/670/81
f 267/682/82 268/684/82 266/685/82 265/683/82
f 272/686/83 267/687/83 265/688/83 270/689/83
f 271/684/84 272/690/84 270/691/84 269/685/84
f 270/661/5 265/662/5 266/692/5 269/693/5
f 271/694/6 268/695/6 267/692/6 272/693/6
f 276/696/85 279/697/85 277/698/85 274/699/85
f 275/343/86 276/700/86 274/701/86 273/702/86
f 280/703/87 275/704/87 273/705/87 278/706/87
f 279/707/88 280/708/88 278/709/88 277/710/88
f 278/711/5 273/712/5 274/713/5 277/714/5
f 279/715/6 276/716/6 275/717/6 280/156/6
f 284/123/1 287/718/1 285/719/1 282/124/1
f 283/720/2 284/721/2 282/722/2 281/723/2
f 288/96/3 283/724/3 281/725/3 286/97/3
f 287/721/4 288/726/4 286/727/4 285/722/4
f 286/724/5 281/96/5 282/102/5 285/728/5
f 287/729/6 284/730/6 283/731/6 288/732/6
f 292/733/1 295/734/1 293/735/1 290/736/1
f 291/726/2 292/737/2 290/738/2 289/727/2
f 296/734/3 291/739/3 289/740/3 294/735/3
f 295/737/4 296/741/4 294/742/4 293/738/4
f 294/743/5 289/740/5 290/739/5 293/744/5
f 295/745/6 292/744/6 291/743/6 296/746/6
f 300/747/89 303/748/89 301/749/89 298/750/89
f 299/748/2 300/751/2 298/752/2 297/749/2
f 304/753/90 299/754/90 297/755/90 302/756/90
f 303/757/4 304/758/4 302/759/4 301/760/4
f 302/761/91 297/762/91 298/91/91 301/763/91
f 303/764/92 300/765/92 299/766/92 304/767/92
f 308/754/1 311/768/1 309/769/1 306/755/1
f 307/770/2 308/771/2 306/772/2 305/773/2
f 312/774/3 307/775/3 305/776/3 310/777/3
f 311/771/4 312/778/4 310/779/4 309/772/4
f 310/780/5 305/781/5 306/782/5 309/783/5
f 311/784/6 308/785/6 307/782/6 312/783/6
f 316/786/85 319/787/85 317/788/85 314/789/85
f 315/790/86 316/791/86 314/792/86 313/793/86
f 320/794/87 315/795/87 313/796/87 318/797/87
f 319/798/88 320/799/88 318/162/88 317/800/88
f 318/694/5 313/695/5 314/801/5 317/802/5
f 319/803/6 316/804/6 315/801/6 320/802/6
f 324/805/85 327/806/85 325/807/85 322/808/85
f 323/809/86 324/810/86 322/811/86 321/812/86
f 328/813/87 323/814/87 321/815/87 326/816/87
f 327/710/88 328/817/88 326/818/88 325/163/88
f 326/819/5 321/820/5 322/821/5 325/822/5
f 327/823/6 324/824/6 323/821/6 328/822/6
f 332/825/85 335/826/85 333/827/85 330/828/85
f 331/826/86 332/829/86 330/830/86 329/827/86
f 336/831/87 331/832/87 329/833/87 334/834/87
f 335/835/88 336/836/88 334/375/88 333/467/88
f 334/837/5 329/838/5 330/839/5 333/840/5
f 335/841/6 332/269/6 331/272/6 336/842/6
f 340/843/1 343/844/1 341/845/1 338/846/1
f 339/435/2 340/847/2 338/848/2 337/849/2
f 344/850/3 339/851/3 337/852/3 342/853/3
f 343/854/4 344/855/4 342/856/4 341/857/4
f 342/858/5 337/592/5 338/859/5 341/860/5
f 343/241/6 340/242/6 339/861/6 344/862/6
f 348/863/6 351/864/6 349/865/6 346/866/6
f 347/867/2 348/868/2 346/869/2 345/870/2
f 352/871/5 347/872/5 345/873/5 350/874/5
f 351/875/4 352/876/4 350/877/4 349/878/4
f 350/879/1 345/880/1 346/288/1 349/881/1
f 351/53/3 348/882/3 347/883/3 352/884/3
f 356/885/93 359/886/93 357/887/93 354/888/93
f 355/889/94 356/890/94 354/891/94 353/892/94
f 360/893/95 355/894/95 353/895/95 358/177/95
f 359/896/96 360/897/96 358/834/96 357/898/96
f 358/899/1 353/900/1 354/901/1 357/902/1
f 359/374/3 356/468/3 355/903/3 360/904/3
f 364/905/6 367/906/6 365/907/6 362/908/6
f 363/909/2 364/910/2 362/911/2 361/912/2
f 368/913/5 363/668/5 361/914/5 366/915/5
f 367/916/4 368/631/4 366/630/4 365/917/4
f 366/918/1 361/919/1 362/920/1 365/921/1
f 367/204/3 364/922/3 363/923/3 368/924/3
f 372/925/93 375/275/93 373/926/93 370/927/93
f 371/928/94 372/929/94 370/930/94 369/931/94
f 376/932/95 371/933/95 369/934/95 374/935/95
f 375/936/96 376/937/96 374/938/96 373/939/96
f 374/940/1 369/147/1 370/941/1 373/246/1
f 375/70/3 372/942/3 371/943/3 376/347/3
f 380/944/6 383/945/6 381/946/6 378/947/6
f 379/948/2 380/949/2 378/950/2 377/951/2
f 384/952/5 379/340/5 377/489/5 382/953/5
f 383/954/4 384/955/4 382/956/4 381/957/4
f 382/958/1 377/709/1 378/959/1 381/960/1
f 383/497/3 380/961/3 379/962/3 384/963/3
f 388/964/6 391/965/6 389/966/6 386/967/6
f 387/968/2 388/969/2 386/937/2 385/936/2
f 392/970/5 387/971/5 385/972/5 390/208/5
f 391/973/4 392/974/4 390/969/4 389/968/4
f 390/975/1 385/976/1 386/977/1 389/978/1
f 391/979/3 388/980/3 387/981/3 392/982/3
f 396/310/89 399/983/89 397/984/89 394/985/89
f 395/986/2 396/987/2 394/988/2 393/989/2
f 400/990/90 395/991/90 393/992/90 398/993/90
f 399/994/4 400/995/4 398/996/4 397/997/4
f 398/927/91 393/998/91 394/999/91 397/925/91
f 399/1000/92 396/1001/92 395/1002/92 400/1003/92
f 404/1004/97 407/1005/97 405/1006/97 402/1007/97
f 403/1008/98 404/1009/98 402/1010/98 401/1011/98
f 408/1012/99 403/1013/99 401/1014/99 406/1015/99
f 407/1016/100 408/1017/100 406/1018/100 405/1019/100
f 406/1020/1 401/1021/1 402/1022/1 405/1023/1
f 407/1024/3 404/560/3 403/561/3 408/1025/3
f 412/1017/97 415/1026/97 413/189/97 410/1018/97
f 411/1027/98 412/160/98 410/1028/98 409/1029/98
f 416/1030/99 411/1031/99 409/1032/99 414/1033/99
f 415/1034/100 416/1035/100 414/1036/100 413/1037/100
f 414/1038/1 409/565/1 410/564/1 413/1039/1
f 415/1040/3 412/1041/3 411/1042/3 416/1043/3
o gun
v -0.130487 0.864210 1.192979
v -0.130487 0.864210 1.511729
v -0.130487 0.795460 1.192979
v -0.130487 0.795460 1.511729
v 0.188263 0.864210 1.511729
v 0.188263 0.864210 1.192979
v 0.188263 0.795460 1.511729
v 0.188263 0.795460 1.192979
v -0.130487 0.808346 1.460459
v -0.130486 0.808346 2.791709
v -0.130487 0.314596 1.460459
v -0.130486 0.314596 2.791709
v 0.188264 0.808346 2.791709
v 0.188263 0.808346 1.460459
v 0.188264 0.314596 2.791709
v 0.188263 0.314596 1.460459
v -0.342987 1.001709 1.317979
v -0.342987 0.807255 1.512433
v -0.342987 0.767480 1.083750
v -0.342987 0.573026 1.278204
v 0.250763 0.807255 1.512433
v 0.250763 1.001709 1.317979
v 0.250763 0.573026 1.278204
v 0.250763 0.767480 1.083750
v -0.342987 1.001710 0.924229
v -0.342987 1.001710 1.317979
v -0.342987 0.507960 0.924229
v -0.342987 0.507960 1.317979
v 0.269513 1.001710 1.317979
v 0.269513 1.001710 0.924229
v 0.269513 0.507960 1.317979
v 0.269513 0.507960 0.924229
v -0.342987 0.807255 1.368683
v -0.342987 0.807255 1.512433
v -0.342987 0.282255 1.368683
v -0.342987 0.282255 1.512433
v 0.250763 0.807255 1.512433
v 0.250763 0.807255 1.368683
v 0.250763 0.282255 1.512433
v 0.250763 0.282255 1.368683
v -0.342987 0.322030 1.083750
v -0.342987 0.516484 1.278204
v -0.342987 0.087801 1.317979
v -0.342987 0.282255 1.512433
v 0.250763 0.516484 1.278204
v 0.250763 0.322030 1.083750
v 0.250763 0.282255 1.512433
v 0.250763 0.087801 1.317979
v 0.026881 0.741547 3.742724
v -0.154315 0.560352 3.742724
v 0.026881 0.741548 2.792724
v -0.154315 0.560352 2.792724
v 0.026881 0.379156 3.742724
v 0.208077 0.560352 3.742724
v 0.026881 0.379156 2.792724
v 0.208077 0.560352 2.792724
v 0.026882 0.641288 5.867724
v -0.048248 0.566157 5.867724
v 0.026881 0.641288 3.417724
v -0.048249 0.566157 3.417724
v 0.026882 0.491027 5.867724
v 0.102012 0.566157 5.867724
v 0.026881 0.491027 3.417724
v 0.102011 0.566157 3.417724
v 0.026882 0.632448 5.942724
v -0.039410 0.566157 5.942724
v 0.026882 0.632448 5.867724
v -0.039410 0.566157 5.867724
v 0.026882 0.499866 5.942724
v 0.093173 0.566157 5.942724
v 0.026882 0.499866 5.867724
v 0.093173 0.566157 5.867724
vn -0.0000 -0.0000 1.0000
vn -1.0000 -0.0000 -0.0000
vn -0.0000 -0.0000 -1.0000
vn 1.0000 -0.0000 -0.0000
vn -0.0000 1.0000 -0.0000
vn -0.0000 -1.0000 -0.0000
vn -0.0000 -0.7071 0.7071
vn -0.0000 0.7071 -0.7071
vn -0.0000 0.7071 0.7071
vn -0.0000 -0.7071 -0.7071
vn -0.7071 -0.7071 -0.0000
vn -0.7071 0.7071 -0.0000
vn 0.7071 0.7071 -0.0000
vn 0.7071 -0.7071 -0.0000
vt 0.017578 0.606445
vt 0.022461 0.606445
vt 0.022461 0.607422
vt 0.017578 0.607422
vt 0.179688 0.578125
vt 0.184570 0.578125
vt 0.184570 0.579102
vt 0.179688 0.579102
vt 0.030273 0.554688
vt 0.035156 0.554688
vt 0.035156 0.555664
vt 0.030273 0.555664
vt 0.463867 0.954102
vt 0.468750 0.954102
vt 0.468750 0.955078
vt 0.463867 0.955078
vt 0.448242 0.952148
vt 0.443359 0.952148
vt 0.443359 0.947266
vt 0.448242 0.947266
vt 0.468750 0.507812
vt 0.463867 0.507812
vt 0.463867 0.512695
vt 0.468750 0.512695
vt 0.431641 0.511719
vt 0.436523 0.511719
vt 0.436523 0.519531
vt 0.431641 0.519531
vt 0.414062 0.851562
vt 0.434570 0.851562
vt 0.434570 0.859375
vt 0.414062 0.859375
vt 0.329102 0.509766
vt 0.333984 0.509766
vt 0.333984 0.517578
vt 0.329102 0.517578
vt 0.114258 0.573242
vt 0.134766 0.573242
vt 0.134766 0.581055
vt 0.114258 0.581055
vt 0.097656 0.560547
vt 0.092773 0.560547
vt 0.092773 0.540039
vt 0.097656 0.540039
vt 0.371094 0.536133
vt 0.366211 0.536133
vt 0.366211 0.556641
vt 0.371094 0.556641
vt 0.450195 0.519531
vt 0.459961 0.519531
vt 0.459961 0.524414
vt 0.450195 0.524414
vt 0.416016 0.574219
vt 0.419922 0.574219
vt 0.419922 0.579102
vt 0.416016 0.579102
vt 0.476562 0.893555
vt 0.486328 0.893555
vt 0.486328 0.898438
vt 0.476562 0.898438
vt 0.435547 0.733398
vt 0.439453 0.733398
vt 0.439453 0.738281
vt 0.435547 0.738281
vt 0.489258 0.834961
vt 0.479492 0.834961
vt 0.479492 0.831055
vt 0.489258 0.831055
vt 0.492188 0.773438
vt 0.482422 0.773438
vt 0.482422 0.777344
vt 0.492188 0.777344
vt 0.308594 0.539062
vt 0.318359 0.539062
vt 0.318359 0.546875
vt 0.308594 0.546875
vt 0.100586 0.515625
vt 0.106445 0.515625
vt 0.106445 0.523438
vt 0.100586 0.523438
vt 0.328125 0.539062
vt 0.328125 0.546875
vt 0.191406 0.515625
vt 0.197266 0.515625
vt 0.197266 0.523438
vt 0.191406 0.523438
vt 0.477539 0.991211
vt 0.467773 0.991211
vt 0.467773 0.985352
vt 0.477539 0.985352
vt 0.477539 0.979492
vt 0.467773 0.979492
vt 0.337891 0.539062
vt 0.337891 0.546875
vt 0.493164 0.848633
vt 0.495117 0.848633
vt 0.495117 0.856445
vt 0.493164 0.856445
vt 0.347656 0.539062
vt 0.347656 0.546875
vt 0.233398 0.499023
vt 0.235352 0.499023
vt 0.235352 0.506836
vt 0.233398 0.506836
vt 0.499023 0.754883
vt 0.489258 0.754883
vt 0.489258 0.752930
vt 0.499023 0.752930
vt 0.499023 0.750977
vt 0.489258 0.750977
vt 0.476562 0.878906
vt 0.486328 0.878906
vt 0.486328 0.883789
vt 0.476562 0.883789
vt 0.268555 0.514648
vt 0.272461 0.514648
vt 0.272461 0.519531
vt 0.268555 0.519531
vt 0.476562 0.768555
vt 0.486328 0.768555
vt 0.486328 0.773438
vt 0.476562 0.773438
vt 0.489258 0.703125
vt 0.493164 0.703125
vt 0.493164 0.708008
vt 0.489258 0.708008
vt 0.053711 0.515625
vt 0.043945 0.515625
vt 0.043945 0.511719
vt 0.053711 0.511719
vt 0.067383 0.511719
vt 0.057617 0.511719
vt 0.057617 0.515625
vt 0.067383 0.515625
vt 0.293945 0.607422
vt 0.297852 0.607422
vt 0.297852 0.622070
vt 0.293945 0.622070
vt 0.342773 0.519531
vt 0.346680 0.519531
vt 0.346680 0.534180
vt 0.342773 0.534180
vt 0.396484 0.518555
vt 0.400391 0.518555
vt 0.400391 0.533203
vt 0.396484 0.533203
vt 0.420898 0.518555
vt 0.424805 0.518555
vt 0.424805 0.533203
vt 0.420898 0.533203
vt 0.455078 0.991211
vt 0.451172 0.991211
vt 0.451172 0.987305
vt 0.455078 0.987305
vt 0.304688 0.539062
vt 0.304688 0.542969
vt 0.308594 0.542969
vt 0.157227 0.537109
vt 0.159180 0.537109
vt 0.159180 0.575195
vt 0.157227 0.575195
vt 0.131836 0.535156
vt 0.133789 0.535156
vt 0.133789 0.573242
vt 0.131836 0.573242
vt 0.035156 0.517578
vt 0.037109 0.517578
vt 0.037109 0.555664
vt 0.439453 0.509766
vt 0.441406 0.509766
vt 0.441406 0.547852
vt 0.439453 0.547852
vt 0.500977 0.888672
vt 0.499023 0.888672
vt 0.499023 0.886719
vt 0.500977 0.886719
vt 0.500977 0.884766
vt 0.499023 0.884766
vt 0.198242 0.758789
vt 0.200195 0.758789
vt 0.200195 0.759766
vt 0.198242 0.759766
vt 0.163086 0.725586
vt 0.165039 0.725586
vt 0.165039 0.726562
vt 0.163086 0.726562
vt 0.305664 0.953125
vt 0.307617 0.953125
vt 0.307617 0.954102
vt 0.305664 0.954102
vt 0.012695 0.570312
vt 0.014648 0.570312
vt 0.014648 0.571289
vt 0.012695 0.571289
vt 0.500977 0.871094
vt 0.499023 0.871094
vt 0.499023 0.869141
vt 0.500977 0.869141
vt 0.132812 0.499023
vt 0.130859 0.499023
vt 0.130859 0.500977
vt 0.132812 0.500977
s 0
usemtl m_4fd79f4b-b545-3c09-9257-824d9016715c
f 420/1044/101 423/1045/101 421/1046/101 418/1047/101
f 419/1048/102 420/1049/102 418/1050/102 417/1051/102
f 424/1052/103 419/1053/103 417/1054/103 422/1055/103
f 423/1056/104 424/1057/104 422/1058/104 421/1059/104
f 422/1060/105 417/1061/105 418/1062/105 421/1063/105
f 423/1064/106 420/1065/106 419/1066/106 424/1067/106
f 428/1068/101 431/1069/101 429/1070/101 426/1071/101
f 427/1072/102 428/1073/102 426/1074/102 425/1075/102
f 432/1076/103 427/1077/103 425/1078/103 430/1079/103
f 431/1080/104 432/1081/104 430/1082/104 429/1083/104
f 430/1084/105 425/1085/105 426/1086/105 429/1087/105
f 431/1088/106 428/1089/106 427/1090/106 432/1091/106
f 436/1092/107 439/1093/107 437/1094/107 434/1095/107
f 435/1096/102 436/1097/102 434/1098/102 433/1099/102
f 440/1100/108 435/1101/108 433/1102/108 438/1103/108
f 439/1104/104 440/1105/104 438/1106/104 437/1107/104
f 438/1108/109 433/1109/109 434/1110/109 437/1111/109
f 439/1112/110 436/1113/110 435/1114/110 440/1115/110
f 444/1116/101 447/1117/101 445/1118/101 442/1119/101
f 443/1120/102 444/1121/102 442/1122/102 441/1123/102
f 448/1117/103 443/1124/103 441/1125/103 446/1118/103
f 447/1126/104 448/1127/104 446/1128/104 445/1129/104
f 446/1130/105 441/1131/105 442/1132/105 445/1133/105
f 447/1134/106 444/1135/106 443/1132/106 448/1133/106
f 452/1124/101 455/1136/101 453/1137/101 450/1125/101
f 451/1138/102 452/1139/102 450/1140/102 449/1141/102
f 456/1136/103 451/1142/103 449/1143/103 454/1137/103
f 455/1144/104 456/1145/104 454/1146/104 453/1147/104
f 454/1148/105 449/1149/105 450/1150/105 453/1151/105
f 455/1152/106 452/1153/106 451/1150/106 456/1151/106
f 460/1154/109 463/1155/109 461/1156/109 458/1157/109
f 459/1158/102 460/1159/102 458/1160/102 457/1161/102
f 464/1162/110 459/1163/110 457/1164/110 462/1165/110
f 463/1166/104 464/1167/104 462/1168/104 461/1169/104
f 462/1170/108 457/1171/108 458/1172/108 461/1173/108
f 463/1174/107 460/1175/107 459/1176/107 464/1177/107
f 468/1178/111 471/1179/111 469/1180/111 466/1181/111
f 467/1182/112 468/1183/112 466/1184/112 465/1185/112
f 472/1186/113 467/1187/113 465/1188/113 470/1189/113
f 471/1190/114 472/1191/114 470/1192/114 469/1193/114
f 470/1194/101 465/1195/101 466/1196/101 469/1197/101
f 471/1116/103 468/1198/103 467/1199/103 472/1200/103
f 476/1201/111 479/1202/111 477/1203/111 474/1204/111
f 475/1205/112 476/1206/112 474/1207/112 473/1208/112
f 480/1209/113 475/1210/113 473/1211/113 478/1054/113
f 479/1212/114 480/1213/114 478/1214/114 477/1215/114
f 478/1216/101 473/1217/101 474/1218/101 477/1219/101
f 479/1220/103 476/1221/103 475/1218/103 480/1219/103
f 484/1222/111 487/1223/111 485/1224/111 482/1225/111
f 483/1226/112 484/1227/112 482/1228/112 481/1229/112
f 488/1230/113 483/1231/113 481/1232/113 486/1233/113
f 487/1234/114 488/1235/114 486/1236/114 485/1237/114
f 486/1238/101 481/1239/101 482/1240/101 485/1241/101
f 487/1242/103 484/1243/103 483/1244/103 488/1245/103
o mgun
v -1.022069 0.762039 1.217724
v -1.101404 0.701163 1.217724
v -1.022069 0.762039 1.017724
v -1.101404 0.701163 1.017724
v -1.089990 0.686287 1.217724
v -1.010655 0.747164 1.217724
v -1.089990 0.686287 1.017724
v -1.010655 0.747164 1.017724
v -1.265819 1.024539 1.280224
v -1.265819 0.974539 1.280224
v -1.265819 1.024539 1.205224
v -1.265819 0.974539 1.205224
v -1.190819 0.974539 1.280224
v -1.190819 1.024539 1.280224
v -1.190819 0.974539 1.205224
v -1.190819 1.024539 1.205224
v -1.022069 0.963665 1.335398
v -1.022069 1.013811 1.148250
v -1.022069 1.042146 1.356427
v -1.022069 1.092292 1.169279
v -0.834569 1.013811 1.148250
v -0.834569 0.963665 1.335398
v -0.834569 1.092292 1.169279
v -0.834569 1.042146 1.356427
v -1.022069 1.012969 1.186865
v -1.022069 0.933157 0.826856
v -1.022069 1.092293 1.169279
v -1.022069 1.012481 0.809270
v -0.834569 0.933157 0.826856
v -0.834569 1.012969 1.186865
v -0.834569 1.012481 0.809270
v -0.834569 1.092293 1.169279
v -1.022069 1.018289 1.348974
v -1.022069 0.905789 1.348974
v -1.022069 1.018289 0.742724
v -1.022069 0.905789 0.742724
v -0.834569 0.905789 1.348974
v -0.834569 1.018289 1.348974
v -0.834569 0.905789 0.742724
v -0.834569 1.018289 0.742724
v -1.172069 1.024539 1.198974
v -1.172069 0.999539 1.198974
v -1.172069 1.024539 1.098974
v -1.172069 0.999539 1.098974
v -1.015819 0.999539 1.198974
v -1.015819 1.024539 1.198974
v -1.015819 0.999539 1.098974
v -1.015819 1.024539 1.098974
v -1.195458 1.024539 1.272517
v -1.195458 0.999539 1.272517
v -1.269185 1.024539 1.204958
v -1.269185 0.999539 1.204958
v -1.098342 0.999539 1.166533
v -1.098342 1.024539 1.166533
v -1.172069 0.999539 1.098974
v -1.172069 1.024539 1.098974
v -0.972069 1.024539 1.448974
v -0.972069 0.905789 1.448974
v -0.972069 1.024539 1.348974
v -0.972069 0.905789 1.348974
v -0.884569 0.905789 1.448974
v -0.884569 1.024539 1.448974
v -0.884569 0.905789 1.348974
v -0.884569 1.024539 1.348974
v -0.953319 1.024539 1.555224
v -0.953319 0.918289 1.555224
v -0.953319 1.024539 1.505224
v -0.953319 0.918289 1.505224
v -0.909569 0.918289 1.555224
v -0.909569 1.024539 1.555224
v -0.909569 0.918289 1.505224
v -0.909569 1.024539 1.505224
v -0.929369 1.017988 2.080224
v -0.960305 0.987052 2.080224
v -0.929369 1.017988 1.348974
v -0.960305 0.987052 1.348974
v -0.929369 0.956116 2.080224
v -0.898433 0.987052 2.080224
v -0.929369 0.956116 1.348974
v -0.898433 0.987052 1.348974
v -0.929369 0.959149 1.542724
v -0.951466 0.937052 1.542724
v -0.929369 0.959149 1.348974
v -0.951466 0.937052 1.348974
v -0.929369 0.914955 1.542724
v -0.907272 0.937052 1.542724
v -0.929369 0.914955 1.348974
v -0.907272 0.937052 1.348974
v -0.929369 1.035666 2.242724
v -0.977982 0.987052 2.242724
v -0.929369 1.035666 2.080224
v -0.977982 0.987052 2.080224
v -0.929369 0.938438 2.242724
v -0.880755 0.987052 2.242724
v -0.929369 0.938438 2.080224
v -0.880755 0.987052 2.080224
v -1.015819 0.905789 1.342724
v -1.015819 0.762039 1.342724
v -1.015819 0.905789 0.748974
v -1.015819 0.762039 0.748974
v -0.840819 0.762039 1.342724
v -0.840819 0.905789 1.342724
v -0.840819 0.762039 0.748974
v -0.840819 0.905789 0.748974
v -1.259569 0.705789 1.217724
v -1.259569 0.668289 1.217724
v -1.259569 0.705789 0.930224
v -1.259569 0.668289 0.930224
v -1.084569 0.668289 1.217724
v -1.084569 0.705789 1.217724
v -1.084569 0.668289 0.930224
v -1.084569 0.705789 0.930224
v -1.265819 0.974539 1.392724
v -1.265819 0.680789 1.392724
v -1.265819 0.974539 0.886474
v -1.265819 0.680789 0.886474
v -1.040819 0.680789 1.392724
v -1.040819 0.974539 1.392724
v -1.040819 0.680789 0.886474
v -1.040819 0.974539 0.886474
vn -0.7934 -0.6088 -0.0000
vn -0.6088 0.7934 -0.0000
vn 0.7934 0.6088 -0.0000
vn 0.6088 -0.7934 -0.0000
vn -0.0000 -0.0000 1.0000
vn -0.0000 -0.0000 -1.0000
vn -0.0000 -1.0000 -0.0000
vn -1.0000 -0.0000 -0.0000
vn -0.0000 1.0000 -0.0000
vn 1.0000 -0.0000 -0.0000
vn -0.0000 0.2588 -0.9659
vn -0.0000 -0.2588 0.9659
vn -0.0000 -0.9659 -0.2588
vn -0.0000 0.9659 0.2588
vn -0.0000 -0.2164 -0.9763
vn -0.0000 0.2164 0.9763
vn -0.0000 -0.9763 0.2164
vn -0.0000 0.9763 -0.2164
vn -0.6756 -0.0000 0.7373
vn 0.6756 -0.0000 -0.7373
vn 0.7373 -0.0000 0.6756
vn -0.7373 -0.0000 -0.6756
vn -0.7071 -0.7071 -0.0000
vn -0.7071 0.7071 -0.0000
vn 0.7071 0.7071 -0.0000
vn 0.7071 -0.7071 -0.0000
vt 0.492188 0.700195
vt 0.493164 0.700195
vt 0.493164 0.703125
vt 0.492188 0.703125
vt 0.382812 0.499023
vt 0.384766 0.499023
vt 0.384766 0.501953
vt 0.382812 0.501953
vt 0.052734 0.498047
vt 0.053711 0.498047
vt 0.053711 0.500977
vt 0.052734 0.500977
vt 0.498047 0.614258
vt 0.500000 0.614258
vt 0.500000 0.617188
vt 0.498047 0.617188
vt 0.304688 0.530273
vt 0.303711 0.530273
vt 0.303711 0.528320
vt 0.304688 0.528320
vt 0.451172 0.524414
vt 0.450195 0.524414
vt 0.450195 0.526367
vt 0.451172 0.526367
vt 0.263672 0.909180
vt 0.264648 0.909180
vt 0.264648 0.910156
vt 0.263672 0.910156
vt 0.275391 0.688477
vt 0.276367 0.688477
vt 0.276367 0.689453
vt 0.275391 0.689453
vt 0.084961 0.686523
vt 0.085938 0.686523
vt 0.085938 0.687500
vt 0.084961 0.687500
vt 0.365234 0.812500
vt 0.366211 0.812500
vt 0.366211 0.813477
vt 0.365234 0.813477
vt 0.375977 0.663086
vt 0.375000 0.663086
vt 0.375000 0.662109
vt 0.375977 0.662109
vt 0.411133 0.663086
vt 0.410156 0.663086
vt 0.410156 0.664062
vt 0.411133 0.664062
vt 0.473633 0.541016
vt 0.476562 0.541016
vt 0.476562 0.541992
vt 0.473633 0.541992
vt 0.191406 0.523438
vt 0.194336 0.523438
vt 0.194336 0.524414
vt 0.191406 0.524414
vt 0.475586 0.781250
vt 0.478516 0.781250
vt 0.478516 0.782227
vt 0.475586 0.782227
vt 0.242188 0.521484
vt 0.245117 0.521484
vt 0.245117 0.522461
vt 0.242188 0.522461
vt 0.303711 0.656250
vt 0.300781 0.656250
vt 0.300781 0.653320
vt 0.303711 0.653320
vt 0.453125 0.622070
vt 0.450195 0.622070
vt 0.450195 0.625000
vt 0.453125 0.625000
vt 0.477539 0.523438
vt 0.480469 0.523438
vt 0.480469 0.524414
vt 0.477539 0.524414
vt 0.203125 0.606445
vt 0.208984 0.606445
vt 0.208984 0.607422
vt 0.203125 0.607422
vt 0.483398 0.863281
vt 0.486328 0.863281
vt 0.486328 0.864258
vt 0.483398 0.864258
vt 0.244141 0.564453
vt 0.250000 0.564453
vt 0.250000 0.565430
vt 0.244141 0.565430
vt 0.200195 0.507812
vt 0.197266 0.507812
vt 0.197266 0.501953
vt 0.200195 0.501953
vt 0.495117 0.763672
vt 0.492188 0.763672
vt 0.492188 0.769531
vt 0.495117 0.769531
vt 0.069336 0.618164
vt 0.072266 0.618164
vt 0.072266 0.627930
vt 0.069336 0.627930
vt 0.030273 0.499023
vt 0.032227 0.499023
vt 0.032227 0.508789
vt 0.030273 0.508789
vt 0.432617 0.611328
vt 0.435547 0.611328
vt 0.435547 0.621094
vt 0.432617 0.621094
vt 0.270508 0.499023
vt 0.272461 0.499023
vt 0.272461 0.508789
vt 0.270508 0.508789
vt 0.482422 0.739258
vt 0.479492 0.739258
vt 0.479492 0.737305
vt 0.482422 0.737305
vt 0.500977 0.728516
vt 0.498047 0.728516
vt 0.498047 0.730469
vt 0.500977 0.730469
vt 0.499023 0.867188
vt 0.500977 0.867188
vt 0.500977 0.869141
vt 0.499023 0.869141
vt 0.166992 0.684570
vt 0.167969 0.684570
vt 0.167969 0.686523
vt 0.166992 0.686523
vt 0.499023 0.836914
vt 0.500977 0.836914
vt 0.500977 0.838867
vt 0.499023 0.838867
vt 0.105469 0.586914
vt 0.106445 0.586914
vt 0.106445 0.588867
vt 0.105469 0.588867
vt 0.431641 0.886719
vt 0.429688 0.886719
vt 0.429688 0.885742
vt 0.431641 0.885742
vt 0.441406 0.702148
vt 0.439453 0.702148
vt 0.439453 0.703125
vt 0.441406 0.703125
vt 0.499023 0.834961
vt 0.500977 0.834961
vt 0.230469 0.569336
vt 0.231445 0.569336
vt 0.231445 0.571289
vt 0.230469 0.571289
vt 0.499023 0.833008
vt 0.500977 0.833008
vt 0.021484 0.568359
vt 0.022461 0.568359
vt 0.022461 0.570312
vt 0.021484 0.570312
vt 0.254883 0.544922
vt 0.252930 0.544922
vt 0.252930 0.543945
vt 0.254883 0.543945
vt 0.467773 0.677734
vt 0.465820 0.677734
vt 0.465820 0.678711
vt 0.467773 0.678711
vt 0.281250 0.568359
vt 0.282227 0.568359
vt 0.282227 0.570312
vt 0.281250 0.570312
vt 0.499023 0.820312
vt 0.500977 0.820312
vt 0.500977 0.822266
vt 0.499023 0.822266
vt 0.096680 0.560547
vt 0.097656 0.560547
vt 0.097656 0.562500
vt 0.096680 0.562500
vt 0.183594 0.499023
vt 0.185547 0.499023
vt 0.185547 0.500977
vt 0.183594 0.500977
vt 0.441406 0.875000
vt 0.440430 0.875000
vt 0.440430 0.873047
vt 0.441406 0.873047
vt 0.452148 0.548828
vt 0.451172 0.548828
vt 0.451172 0.550781
vt 0.452148 0.550781
vt 0.417969 0.777344
vt 0.418945 0.777344
vt 0.418945 0.778320
vt 0.417969 0.778320
vt 0.245117 0.532227
vt 0.247070 0.532227
vt 0.247070 0.533203
vt 0.245117 0.533203
vt 0.420898 0.745117
vt 0.421875 0.745117
vt 0.421875 0.746094
vt 0.420898 0.746094
vt 0.157227 0.528320
vt 0.159180 0.528320
vt 0.159180 0.529297
vt 0.157227 0.529297
vt 0.348633 0.546875
vt 0.347656 0.546875
vt 0.347656 0.544922
vt 0.348633 0.544922
vt 0.131836 0.535156
vt 0.130859 0.535156
vt 0.130859 0.537109
vt 0.131836 0.537109
vt 0.144531 0.528320
vt 0.145508 0.528320
vt 0.145508 0.540039
vt 0.144531 0.540039
vt 0.453125 0.496094
vt 0.454102 0.496094
vt 0.454102 0.507812
vt 0.453125 0.507812
vt 0.467773 0.496094
vt 0.468750 0.496094
vt 0.468750 0.507812
vt 0.467773 0.507812
vt 0.036133 0.495117
vt 0.037109 0.495117
vt 0.037109 0.506836
vt 0.036133 0.506836
vt 0.202148 0.578125
vt 0.201172 0.578125
vt 0.201172 0.577148
vt 0.202148 0.577148
vt 0.450195 0.875000
vt 0.449219 0.875000
vt 0.449219 0.875977
vt 0.450195 0.875977
vt 0.165039 0.600586
vt 0.166016 0.600586
vt 0.166016 0.603516
vt 0.165039 0.603516
vt 0.429688 0.664062
vt 0.430664 0.664062
vt 0.430664 0.666992
vt 0.429688 0.666992
vt 0.048828 0.544922
vt 0.049805 0.544922
vt 0.049805 0.547852
vt 0.048828 0.547852
vt 0.456055 0.788086
vt 0.457031 0.788086
vt 0.457031 0.791016
vt 0.456055 0.791016
vt 0.353516 0.545898
vt 0.352539 0.545898
vt 0.352539 0.544922
vt 0.353516 0.544922
vt 0.227539 0.537109
vt 0.226562 0.537109
vt 0.226562 0.538086
vt 0.227539 0.538086
vt 0.472656 0.848633
vt 0.473633 0.848633
vt 0.473633 0.851562
vt 0.472656 0.851562
vt 0.079102 0.517578
vt 0.080078 0.517578
vt 0.080078 0.520508
vt 0.079102 0.520508
vt 0.481445 0.679688
vt 0.482422 0.679688
vt 0.482422 0.682617
vt 0.481445 0.682617
vt 0.482422 0.665039
vt 0.483398 0.665039
vt 0.483398 0.667969
vt 0.482422 0.667969
vt 0.144531 0.529297
vt 0.143555 0.529297
vt 0.143555 0.528320
vt 0.291016 0.524414
vt 0.290039 0.524414
vt 0.290039 0.525391
vt 0.291016 0.525391
vt 0.345703 0.546875
vt 0.348633 0.556641
vt 0.345703 0.556641
vt 0.278320 0.499023
vt 0.280273 0.499023
vt 0.280273 0.508789
vt 0.278320 0.508789
vt 0.005859 0.533203
vt 0.008789 0.533203
vt 0.008789 0.542969
vt 0.005859 0.542969
vt 0.282227 0.499023
vt 0.282227 0.508789
vt 0.500977 0.692383
vt 0.498047 0.692383
vt 0.498047 0.690430
vt 0.500977 0.690430
vt 0.500977 0.663086
vt 0.498047 0.663086
vt 0.498047 0.665039
vt 0.500977 0.665039
vt 0.207031 0.623047
vt 0.209961 0.623047
vt 0.209961 0.627930
vt 0.207031 0.627930
vt 0.373047 0.511719
vt 0.374023 0.511719
vt 0.374023 0.516602
vt 0.373047 0.516602
vt 0.298828 0.563477
vt 0.301758 0.563477
vt 0.301758 0.568359
vt 0.298828 0.568359
vt 0.492188 0.497070
vt 0.493164 0.497070
vt 0.493164 0.501953
vt 0.492188 0.501953
vt 0.489258 0.854492
vt 0.486328 0.854492
vt 0.486328 0.853516
vt 0.489258 0.853516
vt 0.489258 0.808594
vt 0.486328 0.808594
vt 0.486328 0.809570
vt 0.489258 0.809570
vt 0.438477 0.922852
vt 0.442383 0.922852
vt 0.442383 0.930664
vt 0.438477 0.930664
vt 0.027344 0.508789
vt 0.032227 0.516602
vt 0.027344 0.516602
vt 0.411133 0.507812
vt 0.415039 0.507812
vt 0.415039 0.515625
vt 0.411133 0.515625
vt 0.099609 0.507812
vt 0.104492 0.507812
vt 0.104492 0.515625
vt 0.099609 0.515625
vt 0.494141 0.617188
vt 0.490234 0.617188
vt 0.490234 0.612305
vt 0.494141 0.612305
vt 0.494141 0.547852
vt 0.490234 0.547852
vt 0.490234 0.552734
vt 0.494141 0.552734
s 0
usemtl m_4fd79f4b-b545-3c09-9257-824d9016715c
f 492/1246/115 495/1247/115 493/1248/115 490/1249/115
f 491/1250/116 492/1251/116 490/1252/116 489/1253/116
f 496/1254/117 491/1255/117 489/1256/117 494/1257/117
f 495/1258/118 496/1259/118 494/1260/118 493/1261/118
f 494/1262/119 489/1263/119 490/1264/119 493/1265/119
f 495/1266/120 492/1267/120 491/1268/120 496/1269/120
f 500/1270/121 503/1271/121 501/1272/121 498/1273/121
f 499/1274/122 500/1275/122 498/1276/122 497/1277/122
f 504/1278/123 499/1279/123 497/1280/123 502/1281/123
f 503/1282/124 504/1283/124 502/1284/124 501/1285/124
f 502/1286/119 497/1287/119 498/1288/119 501/1289/119
f 503/1290/120 500/1291/120 499/1292/120 504/1293/120
f 508/1294/125 511/1295/125 509/1296/125 506/1297/125
f 507/1298/122 508/1299/122 506/1300/122 505/1301/122
f 512/1302/126 507/1303/126 505/1304/126 510/1305/126
f 511/1306/124 512/1307/124 510/1308/124 509/1309/124
f 510/1310/127 505/1311/127 506/1312/127 509/1313/127
f 511/1314/128 508/1315/128 507/1316/128 512/1317/128
f 516/1318/129 519/1319/129 517/1320/129 514/1321/129
f 515/1322/122 516/1323/122 514/1324/122 513/1325/122
f 520/1326/130 515/1327/130 513/1328/130 518/1329/130
f 519/1330/124 520/1331/124 518/1332/124 517/1333/124
f 518/1334/131 513/1335/131 514/1336/131 517/1337/131
f 519/1338/132 516/1339/132 515/1340/132 520/1341/132
f 524/1342/121 527/1343/121 525/1344/121 522/1345/121
f 523/1346/122 524/1347/122 522/1348/122 521/1349/122
f 528/1350/123 523/1351/123 521/1352/123 526/1353/123
f 527/1354/124 528/1355/124 526/1356/124 525/1357/124
f 526/1358/119 521/1359/119 522/1360/119 525/1361/119
f 527/1362/120 524/1363/120 523/1364/120 528/1365/120
f 532/1366/121 535/1367/121 533/1368/121 530/1369/121
f 531/1370/122 532/1371/122 530/1372/122 529/1373/122
f 536/1374/123 531/1375/123 529/1376/123 534/1377/123
f 535/1378/124 536/1379/124 534/1380/124 533/1381/124
f 534/1382/119 529/1383/119 530/1384/119 533/1385/119
f 535/1386/120 532/1387/120 531/1388/120 536/1389/120
f 540/1390/121 543/1391/121 541/1375/121 538/1374/121
f 539/1392/133 540/1393/133 538/1394/133 537/1395/133
f 544/1396/123 539/1397/123 537/1391/123 542/1390/123
f 543/1398/134 544/1399/134 542/1400/134 541/1401/134
f 542/1402/135 537/1403/135 538/1404/135 541/1405/135
f 543/1406/136 540/1407/136 539/1408/136 544/1409/136
f 548/1410/121 551/1411/121 549/1412/121 546/1413/121
f 547/1414/122 548/1415/122 546/1416/122 545/1417/122
f 552/1418/123 547/1419/123 545/1420/123 550/1421/123
f 551/1422/124 552/1423/124 550/1424/124 549/1425/124
f 550/1426/119 545/1427/119 546/1428/119 549/1429/119
f 551/1430/120 548/1431/120 547/1432/120 552/1433/120
f 556/1434/121 559/1435/121 557/1436/121 554/1437/121
f 555/1438/122 556/1439/122 554/1440/122 553/1441/122
f 560/1442/123 555/1443/123 553/1444/123 558/1445/123
f 559/1446/124 560/1447/124 558/1448/124 557/1449/124
f 558/1450/119 553/1451/119 554/1452/119 557/1453/119
f 559/1454/120 556/1455/120 555/1456/120 560/1457/120
f 564/1458/137 567/1459/137 565/1460/137 562/1461/137
f 563/1462/138 564/1463/138 562/1464/138 561/1465/138
f 568/1466/139 563/1467/139 561/1468/139 566/1469/139
f 567/1470/140 568/1471/140 566/1472/140 565/1473/140
f 566/1474/119 561/1475/119 562/1476/119 565/1477/119
f 567/1478/120 564/1479/120 563/1480/120 568/1481/120
f 572/1482/137 575/1483/137 573/1484/137 570/1485/137
f 571/1486/138 572/1487/138 570/1488/138 569/1489/138
f 576/1490/139 571/1491/139 569/1492/139 574/1493/139
f 575/1494/140 576/1495/140 574/1496/140 573/1497/140
f 574/1498/119 569/1499/119 570/1500/119 573/1501/119
f 575/1502/120 572/1503/120 571/1504/120 576/1505/120
f 580/1506/137 583/1507/137 581/1508/137 578/1509/137
f 579/1510/138 580/1511/138 578/1512/138 577/1513/138
f 584/1514/139 579/1515/139 577/1516/139 582/1517/139
f 583/1518/140 584/1519/140 582/1520/140 581/1521/140
f 582/1522/119 577/1523/119 578/1524/119 581/1458/119
f 583/1525/120 580/1526/120 579/1527/120 584/1528/120
f 588/1529/121 591/1450/121 589/1530/121 586/1531/121
f 587/1532/122 588/1533/122 586/1534/122 585/1535/122
f 592/1536/123 587/1537/123 585/1538/123 590/1539/123
f 591/1533/124 592/1540/124 590/1541/124 589/1534/124
f 590/1542/119 585/1543/119 586/1544/119 589/1545/119
f 591/1546/120 588/1547/120 587/1548/120 592/1549/120
f 596/1550/121 599/1551/121 597/1552/121 594/1553/121
f 595/1554/122 596/1555/122 594/1556/122 593/1557/122
f 600/1558/123 595/1559/123 593/1560/123 598/1561/123
f 599/1562/124 600/1563/124 598/1564/124 597/1565/124
f 598/1566/119 593/1567/119 594/1568/119 597/1569/119
f 599/1570/120 596/1571/120 595/1572/120 600/1573/120
f 604/1574/121 607/1575/121 605/1576/121 602/1577/121
f 603/1578/122 604/1348/122 602/1579/122 601/1580/122
f 608/1581/123 603/1582/123 601/1583/123 606/1584/123
f 607/1585/124 608/1586/124 606/1587/124 605/1588/124
f 606/1589/119 601/1590/119 602/1591/119 605/1592/119
f 607/1593/120 604/1594/120 603/1595/120 608/1596/120
