# Blender 3.3.21
# www.blender.org
mtllib t64_turret.mtl
o turret
v 1.207276 0.916590 0.585456
v 1.400712 0.375504 0.849774
v 0.779306 0.653961 0.361028
v 0.972742 0.112874 0.625347
v 1.476148 0.347951 0.738165
v 1.282712 0.889038 0.473847
v 1.048178 0.085321 0.513738
v 0.854742 0.626408 0.249419
v -0.497411 0.928973 0.970079
v -0.497411 0.356199 1.281320
v -0.497411 0.666970 0.487917
v -0.497411 0.094195 0.799157
v 0.642589 0.356199 1.281320
v 0.642589 0.928973 0.970079
v 0.642589 0.094195 0.799157
v 0.642589 0.666970 0.487917
v 0.439221 1.032963 -1.900332
v 0.439221 0.445668 -2.112296
v 0.439221 0.823333 -1.319504
v 0.439221 0.236038 -1.531467
v -0.302029 0.445668 -2.112296
v -0.302029 1.032963 -1.900332
v -0.302029 0.236038 -1.531467
v -0.302029 0.823333 -1.319504
v 0.508828 1.263142 -1.180067
v 0.508828 1.033787 -1.900699
v 0.508828 1.001094 -1.096665
v 0.508828 0.771739 -1.817297
v -0.371172 1.033787 -1.900699
v -0.371172 1.263142 -1.180067
v -0.371172 0.771739 -1.817297
v -0.371172 1.001094 -1.096665
v -0.223036 1.303743 -0.472435
v -0.223036 0.963042 0.717241
v -0.223036 0.973278 -0.567074
v -0.223036 0.632577 0.622602
v 0.436964 0.963042 0.717241
v 0.436964 1.303743 -0.472435
v 0.436964 0.632577 0.622602
v 0.436964 0.973278 -0.567074
v 0.436964 1.303743 -0.472434
v 0.436964 0.963042 0.717242
v 0.383582 1.112220 -0.527283
v 0.383583 0.771519 0.662393
v 1.233853 0.757769 0.658455
v 1.233853 1.098470 -0.531221
v 1.180471 0.566246 0.603606
v 1.180471 0.906947 -0.586070
v 0.526339 1.203787 0.070019
v 0.526339 1.203787 0.413769
v 0.526339 0.860037 0.070019
v 0.526339 0.860037 0.413769
v 0.870089 1.203787 0.413769
v 0.870089 1.203787 0.070019
v 0.870089 0.860037 0.413769
v 0.870089 0.860037 0.070019
v 0.890714 1.272537 -0.479981
v 0.890714 1.272537 -0.204981
v 0.890714 0.860037 -0.479981
v 0.890714 0.860037 -0.204981
v 1.165714 1.272537 -0.204981
v 1.165714 1.272537 -0.479981
v 1.165714 0.860037 -0.204981
v 1.165714 0.860037 -0.479981
v -1.019925 1.041687 -0.332941
v -1.019925 0.757769 0.658456
v -0.966544 0.850163 -0.387790
v -0.966543 0.566246 0.603607
v -0.223036 0.963043 0.717242
v -0.223036 1.246960 -0.274155
v -0.169655 0.771520 0.662393
v -0.169655 1.055437 -0.329003
v 0.368214 1.346425 -0.917267
v 0.368214 1.263023 -1.179315
v 0.368214 1.018865 -0.813014
v 0.368214 0.935463 -1.075062
v -0.223036 1.263023 -1.179315
v -0.223036 1.346425 -0.917267
v -0.223036 0.935463 -1.075062
v -0.223036 1.018865 -0.813014
v -0.223036 1.346425 -0.917267
v -0.223036 1.303744 -0.472435
v -0.223036 1.004247 -0.950098
v -0.223036 0.961565 -0.505266
v 0.368214 1.303744 -0.472435
v 0.368214 1.346425 -0.917267
v 0.368214 0.961565 -0.505266
v 0.368214 1.004247 -0.950099
v 0.366109 1.282811 -1.259482
v 0.366109 1.282811 -0.434482
v 0.259346 0.884367 -1.259482
v 0.259346 0.884367 -0.434482
v 1.096591 1.087080 -0.434482
v 1.096590 1.087079 -1.259482
v 0.989828 0.688635 -0.434482
v 0.989827 0.688635 -1.259482
v -0.488666 1.235319 -0.492030
v -0.488666 1.178535 -0.293750
v -0.435285 1.043796 -0.546878
v -0.435284 0.987012 -0.348599
v -0.223036 1.246960 -0.274155
v -0.223036 1.303744 -0.472434
v -0.169655 1.055437 -0.329003
v -0.169655 1.112221 -0.527283
v -0.498036 1.018433 0.295498
v -0.498036 0.929821 0.970330
v -0.498036 0.882103 0.277597
v -0.498036 0.793491 0.952429
v 0.643214 0.929821 0.970330
v 0.643214 1.018433 0.295498
v 0.643214 0.793491 0.952429
v 0.643214 0.882103 0.277596
v 0.629610 1.131261 -0.947105
v 1.015858 0.997854 -1.411720
v 0.581462 0.863047 -0.910119
v 0.967709 0.729640 -1.374734
v 0.440078 1.033787 -1.900699
v 0.053830 1.167193 -1.436084
v 0.391929 0.765573 -1.863713
v 0.005682 0.898979 -1.399098
v 1.553289 1.053362 -1.456454
v 1.716135 0.550517 -1.608534
v 1.354252 0.942357 -1.302548
v 1.517098 0.439512 -1.454628
v 1.459028 0.564717 -1.930793
v 1.296182 1.067561 -1.778713
v 1.259991 0.453711 -1.776887
v 1.097145 0.956556 -1.624807
v -1.238315 0.954971 -1.836966
v -1.187558 0.476799 -1.817540
v -0.946275 0.993171 -1.659717
v -0.895517 0.515000 -1.640291
v -1.613934 0.460225 -1.111456
v -1.664691 0.938396 -1.130882
v -1.321893 0.498425 -0.934208
v -1.372651 0.976597 -0.953634
v 0.560714 1.236436 0.393659
v 0.560714 1.254412 0.599124
v 0.560714 0.893994 0.423619
v 0.560714 0.911970 0.629084
v 0.835714 1.254412 0.599124
v 0.835714 1.236436 0.393659
v 0.835714 0.911970 0.629084
v 0.835714 0.893994 0.423619
v 0.070703 1.086190 -1.569307
v 0.070703 1.086190 -1.496807
v 0.070703 1.348690 -1.569307
v 0.070703 1.348690 -1.496807
v -0.001797 1.086190 -1.496807
v -0.001797 1.086190 -1.569307
v -0.001797 1.348690 -1.496807
v -0.001797 1.348690 -1.569307
v 0.402578 1.086190 -1.656807
v 0.402578 1.086190 -1.584307
v 0.402578 1.704941 -1.656807
v 0.402578 1.704941 -1.584307
v 0.330078 1.086190 -1.584307
v 0.330078 1.086190 -1.656807
v 0.330078 1.704941 -1.584307
v 0.330078 1.704941 -1.656807
v 1.238439 0.790464 -0.967996
v 1.884526 0.993707 -1.085980
v 1.374858 0.518490 -0.689471
v 2.020945 0.721733 -0.807454
v 1.896415 0.898653 -1.184620
v 1.250328 0.695410 -1.066637
v 2.032834 0.626680 -0.906095
v 1.386747 0.423437 -0.788111
v 1.724775 1.150703 -0.772978
v 1.828466 1.179874 -0.795280
v 1.761153 1.078177 -0.698704
v 1.864844 1.107348 -0.721006
v 1.844067 0.938035 -1.039071
v 1.740377 0.908864 -1.016770
v 1.880446 0.865508 -0.964798
v 1.776755 0.836337 -0.942496
v 1.999775 0.951328 -0.147353
v 2.103466 0.980499 -0.169655
v 2.036154 0.878802 -0.073080
v 2.139844 0.907973 -0.095381
v 2.119067 0.738660 -0.413446
v 2.015377 0.709489 -0.391145
v 2.155446 0.666134 -0.339173
v 2.051755 0.636963 -0.316871
v 1.513439 0.591088 -0.342372
v 2.159526 0.794331 -0.460356
v 1.649858 0.319115 -0.063846
v 2.295945 0.522358 -0.181830
v 2.171414 0.699278 -0.558996
v 1.525327 0.496035 -0.441012
v 2.307833 0.427304 -0.280470
v 1.661746 0.224061 -0.162486
v -0.456786 0.613624 0.932251
v -0.456786 0.613624 1.344751
v -0.456786 0.544874 0.932251
v -0.456786 0.544874 1.344751
v -0.388036 0.613624 1.344751
v -0.388036 0.613624 0.932251
v -0.388036 0.544874 1.344751
v -0.388036 0.544874 0.932251
v 0.508828 1.417977 -1.373643
v 0.508828 1.334575 -1.635690
v 0.508828 1.221441 -1.311091
v 0.508828 1.138039 -1.573139
v 0.178828 1.334575 -1.635690
v 0.178828 1.417977 -1.373643
v 0.178828 1.138039 -1.573139
v 0.178828 1.221441 -1.311091
v 0.529453 1.533066 -1.787432
v 0.529453 1.533066 -1.656807
v 0.529453 1.739315 -1.787432
v 0.529453 1.739315 -1.656807
v 0.323203 1.533066 -1.656807
v 0.323203 1.533066 -1.787432
v 0.323203 1.739315 -1.656807
v 0.323203 1.739315 -1.787432
v 0.529453 1.670565 -1.924932
v 0.529453 1.670565 -1.787432
v 0.529453 1.739315 -1.924932
v 0.529453 1.739315 -1.787432
v 0.323203 1.670565 -1.787432
v 0.323203 1.670565 -1.924932
v 0.323203 1.739315 -1.787432
v 0.323203 1.739315 -1.924932
v -1.458572 1.193745 -0.819739
v -0.715423 1.179592 -0.008858
v -1.458572 0.712569 -0.828138
v -0.715423 0.698415 -0.017257
v 0.095582 1.192562 -0.751894
v -0.647567 1.206715 -1.562776
v 0.095582 0.711385 -0.760293
v -0.647567 0.725538 -1.571175
v -1.300245 1.193191 -0.102517
v -1.300245 1.193191 0.378733
v -1.300245 0.711941 -0.102517
v -1.300245 0.711941 0.378733
v -0.750245 1.193191 0.378733
v -0.750245 1.193191 -0.102517
v -0.750245 0.711941 0.378733
v -0.750245 0.711941 -0.102517
v -1.689327 0.997498 -0.758202
v -1.769394 0.593262 -0.776604
v -1.416573 0.941659 -0.718343
v -1.496640 0.537423 -0.736745
v -1.860808 0.583513 -0.164722
v -1.780741 0.987750 -0.146319
v -1.588054 0.527675 -0.124862
v -1.507987 0.931911 -0.106460
v 2.056617 0.838006 -0.031300
v 2.160307 0.867177 -0.053602
v 2.092995 0.765480 0.042973
v 2.196685 0.794651 0.020672
v 2.175909 0.625338 -0.297394
v 2.072218 0.596167 -0.275092
v 2.212287 0.552811 -0.223120
v 2.108597 0.523640 -0.200819
v 1.894600 0.792426 0.003545
v 1.998291 0.821597 -0.018756
v 1.930979 0.719900 0.077819
v 2.034669 0.749071 0.055517
v 2.013893 0.579758 -0.262548
v 1.910202 0.550587 -0.240247
v 2.050271 0.507232 -0.188275
v 1.946581 0.478061 -0.165973
v 1.837759 0.905748 -0.112507
v 1.941449 0.934919 -0.134808
v 1.874137 0.833222 -0.038233
v 1.977828 0.862393 -0.060535
v 1.957051 0.693080 -0.378600
v 1.853361 0.663909 -0.356299
v 1.993430 0.620554 -0.304327
v 1.889739 0.591383 -0.282025
v 1.781616 1.037381 -0.656925
v 1.885307 1.066552 -0.679227
v 1.817995 0.964854 -0.582652
v 1.921685 0.994025 -0.604954
v 1.900909 0.824713 -0.923019
v 1.797218 0.795542 -0.900717
v 1.937287 0.752186 -0.848745
v 1.833597 0.723015 -0.826444
v 1.619600 0.991801 -0.622080
v 1.723291 1.020972 -0.644381
v 1.655978 0.919275 -0.547806
v 1.759669 0.948446 -0.570108
v 1.738892 0.779133 -0.888173
v 1.635202 0.749962 -0.865872
v 1.775271 0.706607 -0.813900
v 1.671580 0.677436 -0.791598
v 1.562759 1.105123 -0.738132
v 1.666449 1.134294 -0.760433
v 1.599137 1.032597 -0.663858
v 1.702828 1.061768 -0.686160
v 1.682051 0.892455 -1.004225
v 1.578361 0.863284 -0.981924
v 1.718430 0.819929 -0.929952
v 1.614739 0.790758 -0.907650
v 0.051328 1.347056 -1.554861
v 0.051328 1.350324 -1.517503
v 0.051328 4.460165 -1.827223
v 0.051328 4.463433 -1.789865
v 0.013828 1.350324 -1.517503
v 0.013828 1.347056 -1.554861
v 0.013828 4.463433 -1.789865
v 0.013828 4.460165 -1.827223
v 1.415319 0.753790 -1.359578
v 1.496742 0.502367 -1.435618
v 1.266042 0.670536 -1.244149
v 1.347464 0.419113 -1.320189
v 1.239635 0.516567 -1.757877
v 1.158212 0.767989 -1.681837
v 1.090357 0.433313 -1.642447
v 1.008934 0.684736 -1.566407
v 0.260579 1.030027 0.420617
v 0.640464 0.923847 0.975292
v 0.247256 0.894218 0.403745
v 0.627141 0.788038 0.958419
v 1.207012 0.916646 0.585896
v 0.827126 1.022826 0.031222
v 1.193688 0.780837 0.569023
v 0.813803 0.887017 0.014349
v 0.640099 0.924700 0.975848
v 0.806714 0.367910 1.228559
v 0.363487 0.661474 0.578262
v 0.530102 0.104684 0.830973
v 1.374291 0.360696 0.838455
v 1.207676 0.917486 0.585744
v 1.097679 0.097469 0.440870
v 0.931064 0.654260 0.188158
v 1.204075 0.923539 0.584961
v 1.471422 0.360709 0.733781
v 0.775132 0.660313 0.360023
v 1.042480 0.097482 0.508844
v 1.859285 0.352055 0.004277
v 1.591938 0.914885 -0.144543
v 1.430343 0.088828 -0.220660
v 1.162996 0.651659 -0.369481
v 0.677727 1.022107 0.148207
v 1.271899 0.915731 0.465379
v 0.657940 0.885063 0.139313
v 1.252112 0.778688 0.456484
v 1.595216 0.908517 -0.142725
v 1.001044 1.014892 -0.459897
v 1.575429 0.771474 -0.151620
v 0.981257 0.877849 -0.468791
v 1.372359 1.002889 -0.785419
v 1.587309 0.429291 -0.912656
v 0.945922 0.783373 -0.516227
v 1.160871 0.209776 -0.643464
v 1.150134 0.420650 -1.612248
v 0.935184 0.994247 -1.485011
v 0.723696 0.201134 -1.343056
v 0.508747 0.774732 -1.215819
v 1.641107 0.893127 -0.013501
v 1.847360 0.322618 -0.166427
v 1.214685 0.706291 0.108393
v 1.420938 0.135782 -0.044532
v 1.578517 0.432414 -0.938627
v 1.372264 1.002922 -0.785702
v 1.152095 0.245578 -0.816733
v 0.945842 0.816087 -0.663807
v 1.597441 0.912689 -0.138744
v 1.875081 0.367108 -0.003727
v 1.169911 0.725368 -0.016533
v 1.447551 0.179787 0.118483
v 1.851393 0.314647 -0.167004
v 1.573753 0.860228 -0.302020
v 1.423864 0.127326 -0.044793
v 1.146224 0.672907 -0.179809
v 1.015857 0.997855 -1.411721
v 1.150134 0.420650 -1.612248
v 0.679384 0.787310 -1.030990
v 0.813660 0.210105 -1.231517
v 0.574354 0.456582 -2.101227
v 0.440078 1.033787 -1.900700
v 0.237880 0.246038 -1.720496
v 0.103604 0.823242 -1.519968
v 0.640465 0.923846 0.975292
v 0.737295 0.373773 1.272107
v 0.364480 0.661217 0.578608
v 0.461310 0.111143 0.875423
v 0.807530 0.363455 1.230073
v 0.710700 0.913529 0.933258
v 0.531545 0.100826 0.833389
v 0.434715 0.650900 0.536574
v 0.504747 0.904288 0.985513
v 0.606248 0.355888 1.283859
v 0.506202 0.641658 0.502270
v 0.607703 0.093258 0.800617
v 0.741965 0.375446 1.273638
v 0.640464 0.923847 0.975292
v 0.743421 0.112817 0.790396
v 0.641920 0.661217 0.492049
v 0.440077 1.033787 -1.900700
v 0.575487 0.459264 -2.108053
v 0.440077 0.940429 -1.642031
v 0.575487 0.365907 -1.849385
v 0.441246 0.431272 -2.118156
v 0.305836 1.005793 -1.910803
v 0.441246 0.337914 -1.859488
v 0.305836 0.912436 -1.652134
v 0.939218 0.969652 0.364939
v 1.181278 0.921170 0.573425
v 0.919609 0.833843 0.356125
v 1.161669 0.785361 0.564611
v 1.270226 0.915122 0.468746
v 1.028167 0.963603 0.260260
v 1.250618 0.779313 0.459931
v 1.008558 0.827794 0.251445
v 1.029082 1.084951 -0.571919
v 1.372360 1.002889 -0.785419
v 0.984181 0.815463 -0.540531
v 1.327459 0.733401 -0.754032
v 0.935185 0.994248 -1.485011
v 0.591907 1.076310 -1.271510
v 0.890284 0.724760 -1.453624
v 0.547006 0.806822 -1.240123
v 1.596300 0.911427 -0.142201
v 1.586590 0.843654 -0.148456
v 1.210692 0.953726 -0.001936
v 1.200983 0.885953 -0.008192
v 1.362554 0.935150 -0.791957
v 1.372264 1.002922 -0.785701
v 0.976947 0.977450 -0.651692
v 0.986656 1.045223 -0.645437
v -0.568807 0.913529 0.933258
v -0.665637 0.363455 1.230074
v -0.292823 0.650900 0.536574
v -0.389653 0.100826 0.833389
v -0.595402 0.373773 1.272107
v -0.498572 0.923846 0.975292
v -0.319418 0.111143 0.875423
v -0.222588 0.661217 0.578608
v -0.498572 0.923847 0.975292
v -0.600073 0.375446 1.273639
v -0.500028 0.661217 0.492049
v -0.601528 0.112817 0.790396
v -0.464355 0.355888 1.283859
v -0.362855 0.904288 0.985513
v -0.465811 0.093258 0.800617
v -0.364310 0.641658 0.502270
v -1.065784 0.917486 0.585744
v -1.232399 0.360696 0.838456
v -0.789172 0.654260 0.188159
v -0.955787 0.097469 0.440870
v -0.664821 0.367910 1.228559
v -0.498207 0.924700 0.975848
v -0.388210 0.104684 0.830973
v -0.221595 0.661474 0.578262
v -1.140820 0.889038 0.473847
v -1.334255 0.347951 0.738166
v -0.712850 0.626408 0.249419
v -0.906286 0.085321 0.513738
v -1.258820 0.375504 0.849775
v -1.065384 0.916590 0.585456
v -0.830850 0.112874 0.625347
v -0.637414 0.653961 0.361028
v -1.450046 0.914885 -0.144543
v -1.717394 0.352055 0.004278
v -1.021104 0.651659 -0.369481
v -1.288451 0.088828 -0.220660
v -1.329530 0.360709 0.733782
v -1.062182 0.923539 0.584961
v -0.900587 0.097482 0.508844
v -0.633240 0.660313 0.360023
v -1.431861 0.860228 -0.302019
v -1.709502 0.314647 -0.167003
v -1.004332 0.672907 -0.179808
v -1.281972 0.127326 -0.044792
v -1.733189 0.367108 -0.003727
v -1.455549 0.912689 -0.138743
v -1.305659 0.179787 0.118484
v -1.028019 0.725368 -0.016532
v -1.230372 1.002922 -0.785701
v -1.436625 0.432414 -0.938627
v -0.803950 0.816087 -0.663807
v -1.010203 0.245578 -0.816732
v -1.705468 0.322618 -0.166426
v -1.499215 0.893127 -0.013501
v -1.279046 0.135782 -0.044532
v -1.072793 0.706291 0.108393
v -0.793292 0.994247 -1.485011
v -1.008242 0.420650 -1.612247
v -0.366855 0.774732 -1.215819
v -0.581805 0.201134 -1.343055
v -1.445417 0.429291 -0.912656
v -1.230467 1.002889 -0.785419
v -1.018979 0.209776 -0.643464
v -0.804030 0.783373 -0.516227
v -0.298186 1.033787 -1.900700
v -0.432462 0.456582 -2.101227
v 0.038288 0.823242 -1.519968
v -0.095988 0.246038 -1.720496
v -1.008242 0.420650 -1.612248
v -0.873966 0.997855 -1.411721
v -0.671768 0.210105 -1.231517
v -0.537492 0.787310 -1.030989
v 0.088061 1.167193 -1.436084
v -0.298186 1.033787 -1.900699
v 0.136209 0.898979 -1.399098
v -0.250038 0.765573 -1.863713
v -0.873966 0.997854 -1.411720
v -0.487719 1.131261 -0.947105
v -0.825818 0.729640 -1.374734
v -0.439570 0.863047 -0.910119
v -0.450015 1.076310 -1.271510
v -0.793293 0.994248 -1.485011
v -0.405115 0.806822 -1.240123
v -0.748392 0.724760 -1.453623
v -1.230468 1.002889 -0.785419
v -0.887190 1.084951 -0.571918
v -1.185567 0.733401 -0.754032
v -0.842289 0.815463 -0.540531
v -1.230372 1.002922 -0.785701
v -1.220662 0.935150 -0.791956
v -0.844765 1.045223 -0.645436
v -0.835055 0.977450 -0.651692
v -1.444697 0.843654 -0.148456
v -1.454407 0.911427 -0.142200
v -1.059090 0.885953 -0.008192
v -1.068800 0.953726 -0.001936
v -0.859152 1.014892 -0.459896
v -1.453324 0.908517 -0.142725
v -0.839365 0.877849 -0.468791
v -1.433537 0.771474 -0.151619
v -1.130006 0.915731 0.465379
v -0.535835 1.022107 0.148207
v -1.110219 0.778688 0.456485
v -0.516048 0.885063 0.139313
v -0.886274 0.963603 0.260260
v -1.128334 0.915122 0.468746
v -0.866666 0.827794 0.251446
v -1.108725 0.779313 0.459932
v -1.039385 0.921170 0.573426
v -0.797326 0.969652 0.364940
v -1.019777 0.785361 0.564611
v -0.777717 0.833843 0.356125
v -0.685234 1.022826 0.031222
v -1.065119 0.916646 0.585896
v -0.671911 0.887017 0.014349
v -1.051796 0.780837 0.569024
v -0.498572 0.923847 0.975292
v -0.118687 1.030027 0.420617
v -0.485249 0.788038 0.958419
v -0.105364 0.894218 0.403745
v -0.163945 1.005793 -1.910803
v -0.299355 0.431272 -2.118156
v -0.163945 0.912436 -1.652134
v -0.299355 0.337914 -1.859488
v -0.433595 0.459264 -2.108053
v -0.298185 1.033787 -1.900699
v -0.433595 0.365907 -1.849384
v -0.298185 0.940429 -1.642031
v -1.061740 1.398540 -0.426082
v -0.305490 1.398540 -0.426082
v -1.061740 1.192291 -0.426082
v -0.305490 1.192291 -0.426082
v -0.305490 1.398540 -0.769832
v -1.061740 1.398540 -0.769832
v -0.305490 1.192291 -0.769832
v -1.061740 1.192291 -0.769832
v -1.061740 1.398540 -0.769832
v -0.305490 1.398540 -0.769832
v -1.061740 1.192291 -0.769832
v -0.305490 1.192291 -0.769832
v -0.305490 1.398540 -1.113582
v -1.061740 1.398540 -1.113582
v -0.305490 1.192291 -1.113582
v -1.061740 1.192291 -1.113582
v 0.516718 1.313631 -0.709482
v 0.516718 1.313631 -0.571982
v 0.498924 1.247223 -0.709482
v 0.498924 1.247223 -0.571982
v 0.981570 1.189074 -0.571982
v 0.981570 1.189074 -0.709482
v 0.963776 1.122667 -0.571982
v 0.963776 1.122667 -0.709482
v 0.441413 1.298221 -1.190732
v 0.441413 1.298221 -0.640732
v 0.423620 1.231813 -1.190732
v 0.423620 1.231813 -0.640732
v 1.039080 1.138077 -0.640732
v 1.039080 1.138077 -1.190732
v 1.021286 1.071669 -0.640732
v 1.021286 1.071669 -1.190732
v -1.003672 1.514386 -2.397478
v -1.003672 1.260424 -1.909622
v -1.003672 1.270458 -2.524459
v -1.003672 1.016496 -2.036603
v 1.127578 1.260424 -1.909622
v 1.127578 1.514386 -2.397479
v 1.127578 1.016496 -2.036603
v 1.127578 1.270458 -2.524459
v -1.072422 1.218929 -2.399354
v -1.072422 0.943929 -1.923040
v -1.072422 0.861694 -2.605604
v -1.072422 0.586694 -2.129290
v 1.196328 0.943929 -1.923040
v 1.196327 1.218929 -2.399354
v 1.196327 0.586694 -2.129290
v 1.196327 0.861694 -2.605604
v -0.797422 1.281726 -2.521870
v -0.797422 0.869225 -1.807399
v -0.797423 0.924490 -2.728120
v -0.797422 0.511990 -2.013649
v 0.921328 0.869225 -1.807399
v 0.921327 1.281726 -2.521870
v 0.921328 0.511990 -2.013649
v 0.921327 0.924490 -2.728120
v 1.030703 1.257072 -1.908483
v 1.030703 1.257072 -1.728483
v 1.030703 1.077071 -1.908483
v 1.030703 1.077071 -1.728483
v 1.656953 1.257072 -1.728483
v 1.656953 1.257072 -1.908483
v 1.656953 1.077071 -1.728483
v 1.656953 1.077071 -1.908483
v -1.649922 1.304572 -1.955982
v -1.649922 1.304572 -1.680982
v -1.649922 1.029572 -1.955982
v -1.649922 1.029572 -1.680982
v 1.031328 1.304572 -1.680983
v 1.031328 1.304572 -1.955983
v 1.031328 1.029572 -1.680983
v 1.031328 1.029572 -1.955983
v -1.374923 1.222071 -2.918482
v -1.374923 1.222071 -2.643482
v -1.374923 0.947072 -2.918482
v -1.374923 0.947072 -2.643482
v 1.512578 1.222071 -2.643483
v 1.512578 1.222071 -2.918483
v 1.512578 0.947072 -2.643483
v 1.512578 0.947072 -2.918483
v 1.478203 1.482082 -1.949666
v 1.478203 1.513121 -1.773631
v 1.478203 1.226032 -1.904517
v 1.478203 1.257072 -1.728482
v 1.656953 1.513121 -1.773631
v 1.656953 1.482082 -1.949666
v 1.656953 1.257072 -1.728482
v 1.656953 1.226032 -1.904517
v -0.797422 1.162647 -1.903120
v -0.797422 0.887646 -1.903120
v -0.797422 1.162646 -2.590620
v -0.797422 0.887646 -2.590620
v 0.921328 0.887646 -1.903120
v 0.921328 1.162647 -1.903120
v 0.921327 0.887646 -2.590620
v 0.921327 1.162646 -2.590620
v 1.450413 1.507195 -1.947422
v 1.477719 1.525186 -1.739983
v 1.449055 1.388289 -1.936930
v 1.476361 1.406281 -1.729491
v 1.685923 1.520427 -1.766978
v 1.658616 1.502435 -1.974416
v 1.684565 1.401521 -1.756485
v 1.657258 1.383529 -1.963924
vn 0.3058 -0.8555 0.4179
vn -0.5486 0.2004 0.8117
vn -0.3058 0.8555 -0.4179
vn 0.5486 -0.2004 -0.8117
vn 0.7781 0.4775 0.4081
vn -0.7781 -0.4775 -0.4081
vn -0.0000 -0.8787 0.4775
vn -1.0000 -0.0000 -0.0000
vn -0.0000 0.8787 -0.4775
vn 1.0000 -0.0000 -0.0000
vn -0.0000 0.4775 0.8787
vn -0.0000 -0.4775 -0.8787
vn -0.0000 -0.9406 -0.3395
vn -0.0000 0.9406 0.3395
vn -0.0000 0.3395 -0.9406
vn -0.0000 -0.3395 0.9406
vn -0.0000 -0.3033 -0.9529
vn -0.0000 0.3033 0.9529
vn -0.0000 0.9529 -0.3033
vn -0.0000 -0.9529 0.3033
vn -0.0000 -0.2753 0.9614
vn -0.0000 0.2753 -0.9614
vn -0.0000 0.9614 0.2753
vn -0.0000 -0.9614 -0.2753
vn -0.9659 0.2488 0.0713
vn 0.9659 -0.2488 -0.0713
vn 0.2588 0.9286 0.2659
vn -0.2588 -0.9286 -0.2659
vn -0.0000 -0.0000 1.0000
vn -0.0000 -0.0000 -1.0000
vn -0.0000 1.0000 -0.0000
vn -0.0000 -1.0000 -0.0000
vn -0.9659 -0.2488 -0.0713
vn 0.9659 0.2488 0.0713
vn -0.2588 0.9286 0.2659
vn 0.2588 -0.9286 -0.2659
vn -0.0000 -0.0955 0.9954
vn -0.0000 0.0955 -0.9954
vn -0.0000 0.9954 0.0955
vn -0.0000 -0.9954 -0.0955
vn -0.9659 0.2588 -0.0000
vn 0.9659 -0.2588 -0.0000
vn 0.2588 0.9659 -0.0000
vn -0.2588 -0.9659 -0.0000
vn -0.0000 -0.1302 0.9915
vn -0.0000 0.1302 -0.9915
vn -0.0000 0.9915 0.1302
vn -0.0000 -0.9915 -0.1302
vn 0.6242 -0.2156 -0.7509
vn 0.7614 -0.0475 0.6466
vn -0.6242 0.2156 0.7509
vn -0.7614 0.0475 -0.6466
vn 0.1751 0.9753 -0.1345
vn -0.1751 -0.9753 0.1345
vn 0.2961 -0.9143 -0.2765
vn 0.6233 -0.0344 0.7812
vn -0.2961 0.9143 0.2765
vn -0.6233 0.0344 -0.7812
vn 0.7238 0.4037 -0.5597
vn -0.7238 -0.4037 0.5597
vn 0.1055 -0.9936 0.0404
vn 0.5168 0.0201 -0.8559
vn -0.1055 0.9936 -0.0404
vn -0.5168 -0.0201 0.8559
vn -0.8496 -0.1111 -0.5156
vn 0.8496 0.1111 0.5156
vn -0.0000 0.0872 0.9962
vn -0.0000 -0.0872 -0.9962
vn -0.0000 0.9962 -0.0872
vn -0.0000 -0.9962 0.0872
vn 0.9398 0.2956 -0.1716
vn -0.0865 0.6913 0.7174
vn -0.9398 -0.2956 0.1716
vn 0.0865 -0.6913 -0.7174
vn -0.3307 0.6593 -0.6752
vn 0.3307 -0.6593 0.6752
vn 0.9426 0.2652 -0.2027
vn -0.0454 0.7035 0.7092
vn -0.9426 -0.2652 0.2027
vn 0.0454 -0.7035 -0.7092
vn 0.6756 -0.0129 0.7372
vn -0.7373 -0.0118 0.6755
vn -0.6756 0.0129 -0.7372
vn 0.7373 0.0118 -0.6755
vn -0.0000 0.9998 0.0175
vn -0.0000 -0.9998 -0.0175
vn -0.1941 -0.9800 -0.0446
vn 0.1477 0.0158 -0.9889
vn 0.1941 0.9800 0.0446
vn -0.1477 -0.0158 0.9889
vn -0.9698 0.1985 -0.1417
vn 0.9698 -0.1985 0.1417
vn 0.5581 -0.1560 0.8149
vn -0.8241 0.0105 0.5664
vn -0.5581 0.1560 -0.8149
vn 0.8241 -0.0105 -0.5664
vn 0.0969 0.9877 0.1227
vn -0.0969 -0.9877 -0.1227
vn 0.2629 -0.8786 0.3988
vn -0.2629 0.8786 -0.3988
vn 0.5018 0.4775 0.7212
vn -0.5018 -0.4775 -0.7212
vn 0.4173 -0.8786 0.2323
vn -0.4694 0.0105 0.8829
vn -0.4173 0.8786 -0.2323
vn 0.4694 -0.0105 -0.8829
vn 0.8714 -0.1560 0.4651
vn -0.8714 0.1560 -0.4651
vn 0.1426 0.9877 0.0641
vn -0.1426 -0.9877 -0.0641
vn 0.3436 -0.9168 -0.2034
vn 0.5299 0.0105 0.8480
vn -0.3436 0.9168 0.2034
vn -0.5299 -0.0105 -0.8480
vn 0.7753 0.3991 -0.4894
vn -0.7753 -0.3991 0.4894
vn 0.3297 -0.9119 -0.2444
vn 0.3259 -0.1331 0.9360
vn -0.3297 0.9119 0.2444
vn -0.3259 0.1331 -0.9360
vn 0.8861 0.3882 -0.2533
vn -0.8861 -0.3882 0.2533
vn 0.4429 -0.8703 0.2154
vn 0.1368 0.3030 0.9431
vn -0.4429 0.8703 -0.2154
vn -0.1368 -0.3030 -0.9431
vn 0.2146 -0.9226 -0.3205
vn -0.2146 0.9226 0.3205
vn 0.6118 0.3828 -0.6922
vn -0.6118 -0.3828 0.6922
vn 0.1531 -0.8697 0.4693
vn -0.8513 0.1251 0.5095
vn -0.1531 0.8697 -0.4693
vn 0.8513 -0.1251 -0.5095
vn 0.1605 -0.8670 0.4717
vn -0.9870 -0.1422 0.0743
vn -0.1605 0.8670 -0.4717
vn 0.9870 0.1422 -0.0743
vn -0.0026 0.4775 0.8786
vn 0.0026 -0.4775 -0.8786
vn 0.2164 -0.9183 -0.3314
vn 0.9763 0.2036 0.0735
vn -0.2164 0.9183 0.3314
vn -0.9763 -0.2036 -0.0735
vn 0.7491 -0.1500 0.6452
vn -0.6469 0.0440 0.7613
vn -0.7491 0.1500 -0.6452
vn 0.6469 -0.0440 -0.7613
vn 0.8322 -0.1989 -0.5176
vn -0.8322 0.1989 0.5176
vn 0.1633 0.9800 -0.1141
vn -0.1633 -0.9800 0.1141
vn -0.1412 -0.9858 -0.0910
vn 0.1412 0.9858 0.0910
vn 0.9348 -0.1025 -0.3400
vn -0.9348 0.1025 0.3400
vn -0.1531 -0.8697 0.4693
vn -0.8513 -0.1251 -0.5095
vn 0.1531 0.8697 -0.4693
vn 0.8513 0.1251 0.5095
vn -0.5018 0.4775 0.7212
vn 0.5018 -0.4775 -0.7212
vn -0.1605 -0.8670 0.4717
vn -0.9870 0.1422 -0.0743
vn 0.1605 0.8670 -0.4717
vn 0.9870 -0.1422 0.0743
vn 0.0026 0.4775 0.8786
vn -0.0026 -0.4775 -0.8786
vn -0.2629 -0.8786 0.3988
vn -0.8241 -0.0105 -0.5664
vn 0.2629 0.8786 -0.3988
vn 0.8241 0.0105 0.5664
vn -0.3058 -0.8555 0.4179
vn -0.5486 -0.2004 -0.8117
vn 0.3058 0.8555 -0.4179
vn 0.5486 0.2004 0.8117
vn -0.7781 0.4775 0.4081
vn 0.7781 -0.4775 -0.4081
vn -0.4173 -0.8786 0.2323
vn -0.4694 -0.0105 -0.8829
vn 0.4173 0.8786 -0.2323
vn 0.4694 0.0105 0.8829
vn -0.4429 -0.8703 0.2154
vn 0.1368 -0.3030 -0.9431
vn 0.4429 0.8703 -0.2154
vn -0.1368 0.3030 0.9431
vn -0.8861 0.3882 -0.2533
vn 0.8861 -0.3882 0.2533
vn -0.3297 -0.9119 -0.2444
vn 0.3259 0.1331 -0.9360
vn 0.3297 0.9119 0.2444
vn -0.3259 -0.1331 0.9360
vn -0.3436 -0.9168 -0.2034
vn 0.5299 -0.0105 -0.8480
vn 0.3436 0.9168 0.2034
vn -0.5299 0.0105 0.8480
vn -0.7753 0.3991 -0.4894
vn 0.7753 -0.3991 0.4894
vn -0.2146 -0.9226 -0.3205
vn 0.7614 0.0475 -0.6466
vn 0.2146 0.9226 0.3205
vn -0.7614 -0.0475 0.6466
vn -0.6118 0.3828 -0.6922
vn 0.6118 -0.3828 0.6922
vn -0.6242 -0.2156 -0.7509
vn 0.6242 0.2156 0.7509
vn -0.1751 0.9753 -0.1345
vn 0.1751 -0.9753 0.1345
vn -0.8322 -0.1989 -0.5176
vn 0.8322 0.1989 0.5176
vn -0.1633 0.9800 -0.1141
vn 0.1633 -0.9800 0.1141
vn 0.1412 -0.9858 -0.0910
vn -0.1412 0.9858 0.0910
vn -0.9348 -0.1025 -0.3400
vn 0.9348 0.1025 0.3400
vn -0.8714 -0.1560 0.4651
vn 0.8714 0.1560 -0.4651
vn -0.1426 0.9877 0.0641
vn 0.1426 -0.9877 -0.0641
vn -0.7491 -0.1500 0.6452
vn -0.6469 -0.0440 -0.7613
vn 0.7491 0.1500 -0.6452
vn 0.6469 0.0440 0.7613
vn -0.5581 -0.1560 0.8149
vn 0.5581 0.1560 -0.8149
vn -0.0969 0.9877 0.1227
vn 0.0969 -0.9877 -0.1227
vn -0.2164 -0.9183 -0.3314
vn 0.9763 -0.2036 -0.0735
vn 0.2164 0.9183 0.3314
vn -0.9763 0.2036 0.0735
vn -0.0000 -0.4617 0.8870
vn -0.0000 0.4617 -0.8870
vn -0.0000 0.8870 0.4617
vn -0.0000 -0.8870 -0.4617
vn -0.0000 -0.5000 0.8660
vn -0.0000 0.5000 -0.8660
vn -0.0000 0.8660 0.5000
vn -0.0000 -0.8660 -0.5000
vn -0.0000 0.1736 0.9848
vn -0.0000 -0.1736 -0.9848
vn -0.0000 0.9848 -0.1736
vn -0.0000 -0.9848 0.1736
vn 0.1300 0.0857 0.9878
vn -0.9914 0.0227 0.1285
vn -0.1300 -0.0857 -0.9878
vn 0.9914 -0.0227 -0.1285
vn 0.0114 0.9961 -0.0879
vn -0.0114 -0.9961 0.0879
vt 0.422917 0.200000
vt 0.429167 0.120833
vt 0.056250 0.125000
vt 0.418750 0.120833
vt 0.443750 0.200000
vt 0.056250 0.104167
vt 0.422917 0.181250
vt 0.429167 0.102083
vt 0.062500 0.125000
vt 0.418750 0.102083
vt 0.443750 0.181250
vt 0.062500 0.104167
vt 0.422917 0.120833
vt 0.493750 0.200000
vt 0.060417 0.104167
vt 0.425000 0.120833
vt 0.514583 0.200000
vt 0.060417 0.125000
vt 0.422917 0.102083
vt 0.493750 0.181250
vt 0.066667 0.104167
vt 0.425000 0.102083
vt 0.514583 0.181250
vt 0.066667 0.125000
vt 0.802083 0.458333
vt 0.695833 0.281250
vt 0.029167 0.297917
vt 0.125000 0.281250
vt 0.822917 0.458333
vt 0.029167 0.277083
vt 0.802083 0.439583
vt 0.695833 0.262500
vt 0.587500 0.293750
vt 0.125000 0.262500
vt 0.822917 0.439583
vt 0.587500 0.272917
vt 0.162500 0.281250
vt 0.664583 0.197917
vt 0.066667 0.277083
vt 0.658333 0.281250
vt 0.685417 0.197917
vt 0.066667 0.297917
vt 0.162500 0.262500
vt 0.664583 0.179167
vt 0.625000 0.272917
vt 0.658333 0.262500
vt 0.685417 0.179167
vt 0.625000 0.293750
vt 0.000000 0.218750
vt 0.781250 0.254167
vt 0.000000 0.241667
vt 0.756250 0.277083
vt 0.020833 0.218750
vt 0.000000 0.220833
vt 0.000000 0.197917
vt 0.781250 0.233333
vt 0.758333 0.972917
vt 0.756250 0.256250
vt 0.020833 0.197917
vt 0.758333 0.952083
vt 0.781250 0.277083
vt 0.529167 0.218750
vt 0.025000 0.220833
vt 0.756250 0.254167
vt 0.550000 0.218750
vt 0.025000 0.241667
vt 0.781250 0.256250
vt 0.529167 0.197917
vt 0.783333 0.952083
vt 0.756250 0.233333
vt 0.550000 0.197917
vt 0.783333 0.972917
vt 0.839583 0.654167
vt 0.279167 0.168750
vt 0.627083 0.293750
vt 0.218750 0.168750
vt 0.864583 0.654167
vt 0.627083 0.268750
vt 0.839583 0.645833
vt 0.279167 0.160417
vt 0.068750 0.289583
vt 0.218750 0.160417
vt 0.864583 0.645833
vt 0.068750 0.264583
vt 0.247917 0.168750
vt 0.354167 0.160417
vt 0.656250 0.268750
vt 0.250000 0.168750
vt 0.379167 0.160417
vt 0.656250 0.293750
vt 0.247917 0.160417
vt 0.354167 0.152083
vt 0.097917 0.264583
vt 0.250000 0.160417
vt 0.379167 0.152083
vt 0.097917 0.289583
vt 0.758333 0.872917
vt 0.847917 0.954167
vt 0.435417 0.320833
vt 0.822917 0.181250
vt 0.800000 0.872917
vt 0.435417 0.279167
vt 0.758333 0.860417
vt 0.847917 0.941667
vt 0.562500 0.316667
vt 0.822917 0.168750
vt 0.800000 0.860417
vt 0.562500 0.275000
vt 0.845833 0.181250
vt 0.027083 0.239583
vt 0.458333 0.279167
vt 0.825000 0.954167
vt 0.068750 0.239583
vt 0.458333 0.320833
vt 0.845833 0.168750
vt 0.027083 0.227083
vt 0.585417 0.275000
vt 0.825000 0.941667
vt 0.068750 0.227083
vt 0.585417 0.316667
vt 0.825000 0.939583
vt 0.279167 0.400000
vt 0.229167 0.327083
vt 0.093750 0.435417
vt 0.866667 0.939583
vt 0.229167 0.285417
vt 0.825000 0.933333
vt 0.279167 0.393750
vt 0.258333 0.327083
vt 0.093750 0.429167
vt 0.866667 0.933333
vt 0.258333 0.285417
vt 0.120833 0.435417
vt 0.829167 0.556250
vt 0.256250 0.285417
vt 0.252083 0.400000
vt 0.870833 0.556250
vt 0.256250 0.327083
vt 0.120833 0.429167
vt 0.829167 0.550000
vt 0.285417 0.285417
vt 0.252083 0.393750
vt 0.870833 0.550000
vt 0.285417 0.327083
vt 0.441667 0.154167
vt 0.875000 0.254167
vt 0.031250 0.133333
vt 0.697917 0.135417
vt 0.454167 0.154167
vt 0.031250 0.120833
vt 0.441667 0.141667
vt 0.875000 0.241667
vt 0.043750 0.133333
vt 0.697917 0.122917
vt 0.454167 0.141667
vt 0.043750 0.120833
vt 0.708333 0.135417
vt 0.687500 0.154167
vt 0.041667 0.120833
vt 0.864583 0.254167
vt 0.700000 0.154167
vt 0.041667 0.133333
vt 0.708333 0.122917
vt 0.687500 0.141667
vt 0.054167 0.120833
vt 0.864583 0.241667
vt 0.700000 0.141667
vt 0.054167 0.133333
vt 0.866667 0.664583
vt 0.875000 0.443750
vt 0.575000 0.118750
vt 0.866667 0.729167
vt 0.875000 0.664583
vt 0.575000 0.110417
vt 0.866667 0.650000
vt 0.875000 0.429167
vt 0.739583 0.118750
vt 0.866667 0.714583
vt 0.875000 0.650000
vt 0.739583 0.110417
vt 0.875000 0.729167
vt 0.866667 0.387500
vt 0.583333 0.110417
vt 0.866667 0.443750
vt 0.875000 0.387500
vt 0.583333 0.118750
vt 0.875000 0.714583
vt 0.866667 0.372917
vt 0.747917 0.110417
vt 0.866667 0.429167
vt 0.875000 0.372917
vt 0.747917 0.118750
vt 0.564583 0.502083
vt 0.639583 0.827083
vt 0.504167 0.316667
vt 0.612500 0.950000
vt 0.600000 0.502083
vt 0.504167 0.281250
vt 0.564583 0.495833
vt 0.639583 0.820833
vt 0.533333 0.316667
vt 0.612500 0.943750
vt 0.600000 0.495833
vt 0.533333 0.281250
vt 0.639583 0.950000
vt 0.835417 0.835417
vt 0.531250 0.281250
vt 0.612500 0.827083
vt 0.870833 0.835417
vt 0.531250 0.316667
vt 0.639583 0.943750
vt 0.835417 0.829167
vt 0.560417 0.281250
vt 0.612500 0.820833
vt 0.870833 0.829167
vt 0.560417 0.316667
vt 0.366667 0.131250
vt 0.197917 0.166667
vt 0.127083 0.347917
vt 0.158333 0.166667
vt 0.375000 0.131250
vt 0.127083 0.339583
vt 0.366667 0.118750
vt 0.197917 0.154167
vt 0.766667 0.154167
vt 0.158333 0.154167
vt 0.375000 0.118750
vt 0.766667 0.145833
vt 0.177083 0.166667
vt 0.793750 0.131250
vt 0.145833 0.339583
vt 0.179167 0.166667
vt 0.802083 0.131250
vt 0.145833 0.347917
vt 0.177083 0.154167
vt 0.793750 0.118750
vt 0.785417 0.145833
vt 0.179167 0.154167
vt 0.802083 0.118750
vt 0.785417 0.154167
vt 0.572917 0.158333
vt 0.156250 0.166667
vt 0.825000 0.197917
vt 0.014583 0.166667
vt 0.587500 0.158333
vt 0.825000 0.183333
vt 0.572917 0.145833
vt 0.156250 0.154167
vt 0.827083 0.808333
vt 0.014583 0.154167
vt 0.587500 0.145833
vt 0.827083 0.793750
vt 0.033333 0.166667
vt 0.589583 0.158333
vt 0.843750 0.183333
vt 0.137500 0.166667
vt 0.604167 0.158333
vt 0.843750 0.197917
vt 0.033333 0.154167
vt 0.589583 0.145833
vt 0.845833 0.793750
vt 0.137500 0.154167
vt 0.604167 0.145833
vt 0.845833 0.808333
vt 0.552083 0.204167
vt 0.827083 0.233333
vt 0.470833 0.283333
vt 0.687500 0.197917
vt 0.579167 0.204167
vt 0.470833 0.256250
vt 0.552083 0.189583
vt 0.827083 0.218750
vt 0.497917 0.279167
vt 0.687500 0.183333
vt 0.579167 0.189583
vt 0.497917 0.252083
vt 0.712500 0.197917
vt 0.581250 0.204167
vt 0.495833 0.256250
vt 0.802083 0.233333
vt 0.608333 0.204167
vt 0.495833 0.283333
vt 0.712500 0.183333
vt 0.581250 0.189583
vt 0.522917 0.252083
vt 0.802083 0.218750
vt 0.608333 0.189583
vt 0.522917 0.279167
vt 0.793750 0.104167
vt 0.897917 0.672917
vt 0.889583 0.427083
vt 0.045833 0.206250
vt 0.800000 0.104167
vt 0.889583 0.420833
vt 0.793750 0.097917
vt 0.897917 0.666667
vt 0.889583 0.212500
vt 0.045833 0.200000
vt 0.800000 0.097917
vt 0.889583 0.206250
vt 0.054167 0.206250
vt 0.802083 0.104167
vt 0.897917 0.420833
vt 0.889583 0.672917
vt 0.808333 0.104167
vt 0.897917 0.427083
vt 0.054167 0.200000
vt 0.802083 0.097917
vt 0.897917 0.206250
vt 0.889583 0.666667
vt 0.808333 0.097917
vt 0.897917 0.212500
vt 0.872917 0.556250
vt 0.883333 0.189583
vt 0.125000 0.306250
vt 0.845833 0.629167
vt 0.895833 0.556250
vt 0.125000 0.283333
vt 0.872917 0.552083
vt 0.883333 0.185417
vt 0.675000 0.306250
vt 0.845833 0.625000
vt 0.895833 0.552083
vt 0.675000 0.283333
vt 0.883333 0.629167
vt 0.872917 0.502083
vt 0.162500 0.283333
vt 0.845833 0.189583
vt 0.895833 0.502083
vt 0.162500 0.306250
vt 0.883333 0.625000
vt 0.872917 0.497917
vt 0.712500 0.283333
vt 0.845833 0.185417
vt 0.895833 0.497917
vt 0.712500 0.306250
vt 0.843750 0.308333
vt 0.864583 0.664583
vt 0.564583 0.245833
vt 0.664583 0.235417
vt 0.864583 0.308333
vt 0.564583 0.225000
vt 0.843750 0.300000
vt 0.864583 0.656250
vt 0.591667 0.245833
vt 0.664583 0.227083
vt 0.864583 0.300000
vt 0.591667 0.225000
vt 0.689583 0.235417
vt 0.843750 0.297917
vt 0.589583 0.225000
vt 0.839583 0.664583
vt 0.864583 0.297917
vt 0.589583 0.245833
vt 0.689583 0.227083
vt 0.843750 0.289583
vt 0.616667 0.225000
vt 0.839583 0.656250
vt 0.864583 0.289583
vt 0.616667 0.245833
vt 0.135417 0.152083
vt 0.881250 0.297917
vt 0.445833 0.175000
vt 0.866667 0.308333
vt 0.154167 0.152083
vt 0.445833 0.156250
vt 0.135417 0.143750
vt 0.881250 0.289583
vt 0.616667 0.172917
vt 0.866667 0.300000
vt 0.154167 0.143750
vt 0.616667 0.154167
vt 0.881250 0.308333
vt 0.156250 0.152083
vt 0.460417 0.156250
vt 0.866667 0.297917
vt 0.175000 0.152083
vt 0.460417 0.175000
vt 0.881250 0.300000
vt 0.156250 0.143750
vt 0.631250 0.154167
vt 0.866667 0.289583
vt 0.175000 0.143750
vt 0.631250 0.172917
vt 0.281250 0.168750
vt 0.841667 0.972917
vt 0.770833 0.781250
vt 0.812500 0.262500
vt 0.297917 0.168750
vt 0.770833 0.764583
vt 0.281250 0.156250
vt 0.841667 0.960417
vt 0.770833 0.762500
vt 0.812500 0.250000
vt 0.297917 0.156250
vt 0.770833 0.745833
vt 0.839583 0.262500
vt 0.839583 0.479167
vt 0.797917 0.764583
vt 0.814583 0.972917
vt 0.856250 0.479167
vt 0.797917 0.781250
vt 0.839583 0.250000
vt 0.839583 0.466667
vt 0.797917 0.745833
vt 0.814583 0.960417
vt 0.856250 0.466667
vt 0.797917 0.762500
vt 0.470833 0.120833
vt 0.222917 0.129167
vt 0.735417 0.108333
vt 0.837500 0.131250
vt 0.477083 0.120833
vt 0.735417 0.102083
vt 0.470833 0.108333
vt 0.222917 0.116667
vt 0.891667 0.262500
vt 0.837500 0.118750
vt 0.477083 0.108333
vt 0.891667 0.256250
vt 0.845833 0.131250
vt 0.697917 0.120833
vt 0.743750 0.102083
vt 0.214583 0.129167
vt 0.704167 0.120833
vt 0.743750 0.108333
vt 0.845833 0.118750
vt 0.697917 0.108333
vt 0.900000 0.256250
vt 0.214583 0.116667
vt 0.704167 0.108333
vt 0.900000 0.262500
vt 0.200000 0.166667
vt 0.527083 0.152083
vt 0.908333 0.427083
vt 0.195833 0.235417
vt 0.202083 0.166667
vt 0.908333 0.425000
vt 0.200000 0.158333
vt 0.527083 0.143750
vt 0.908333 0.422917
vt 0.195833 0.227083
vt 0.202083 0.158333
vt 0.908333 0.420833
vt 0.197917 0.235417
vt 0.837500 0.141667
vt 0.910417 0.425000
vt 0.525000 0.152083
vt 0.839583 0.141667
vt 0.910417 0.427083
vt 0.197917 0.227083
vt 0.837500 0.133333
vt 0.910417 0.420833
vt 0.525000 0.143750
vt 0.839583 0.133333
vt 0.910417 0.422917
vt 0.516667 0.112500
vt 0.458333 0.110417
vt 0.908333 0.354167
vt 0.089583 0.114583
vt 0.518750 0.112500
vt 0.908333 0.352083
vt 0.516667 0.091667
vt 0.458333 0.089583
vt 0.908333 0.350000
vt 0.089583 0.093750
vt 0.518750 0.091667
vt 0.908333 0.347917
vt 0.091667 0.114583
vt 0.604167 0.110417
vt 0.910417 0.352083
vt 0.456250 0.110417
vt 0.606250 0.110417
vt 0.910417 0.354167
vt 0.091667 0.093750
vt 0.604167 0.089583
vt 0.910417 0.347917
vt 0.456250 0.089583
vt 0.606250 0.089583
vt 0.910417 0.350000
vt 0.179167 0.183333
vt 0.352083 0.114583
vt 0.200000 0.127083
vt 0.291667 0.114583
vt 0.202083 0.183333
vt 0.200000 0.104167
vt 0.179167 0.168750
vt 0.352083 0.100000
vt 0.279167 0.127083
vt 0.291667 0.100000
vt 0.202083 0.168750
vt 0.279167 0.104167
vt 0.295833 0.114583
vt 0.818750 0.545833
vt 0.204167 0.104167
vt 0.347917 0.114583
vt 0.841667 0.545833
vt 0.204167 0.127083
vt 0.295833 0.100000
vt 0.818750 0.531250
vt 0.283333 0.104167
vt 0.347917 0.100000
vt 0.841667 0.531250
vt 0.283333 0.127083
vt 0.906250 0.172917
vt 0.906250 0.897917
vt 0.893750 0.891667
vt 0.893750 0.927083
vt 0.910417 0.172917
vt 0.893750 0.887500
vt 0.906250 0.168750
vt 0.906250 0.893750
vt 0.893750 0.781250
vt 0.893750 0.922917
vt 0.910417 0.168750
vt 0.893750 0.777083
vt 0.906250 0.927083
vt 0.906250 0.166667
vt 0.906250 0.887500
vt 0.893750 0.897917
vt 0.910417 0.166667
vt 0.906250 0.891667
vt 0.906250 0.922917
vt 0.906250 0.162500
vt 0.906250 0.777083
vt 0.893750 0.893750
vt 0.910417 0.162500
vt 0.906250 0.781250
vt 0.906250 0.716667
vt 0.904167 0.739583
vt 0.891667 0.185417
vt 0.889583 0.535417
vt 0.910417 0.716667
vt 0.891667 0.181250
vt 0.906250 0.712500
vt 0.904167 0.735417
vt 0.891667 0.179167
vt 0.889583 0.531250
vt 0.910417 0.712500
vt 0.891667 0.175000
vt 0.902083 0.535417
vt 0.906250 0.543750
vt 0.904167 0.181250
vt 0.891667 0.739583
vt 0.910417 0.543750
vt 0.904167 0.185417
vt 0.902083 0.531250
vt 0.906250 0.539583
vt 0.904167 0.175000
vt 0.891667 0.735417
vt 0.910417 0.539583
vt 0.904167 0.179167
vt 0.275000 0.185417
vt 0.764583 0.116667
vt 0.804167 0.129167
vt 0.170833 0.116667
vt 0.297917 0.185417
vt 0.804167 0.106250
vt 0.275000 0.170833
vt 0.764583 0.102083
vt 0.810417 0.129167
vt 0.170833 0.102083
vt 0.297917 0.170833
vt 0.810417 0.106250
vt 0.175000 0.116667
vt 0.020833 0.183333
vt 0.808333 0.106250
vt 0.760417 0.116667
vt 0.043750 0.183333
vt 0.808333 0.129167
vt 0.175000 0.102083
vt 0.020833 0.168750
vt 0.814583 0.106250
vt 0.760417 0.102083
vt 0.043750 0.168750
vt 0.814583 0.129167
vt 0.697917 0.281250
vt 0.910417 0.479167
vt 0.508333 0.097917
vt 0.908333 0.483333
vt 0.712500 0.281250
vt 0.508333 0.083333
vt 0.697917 0.279167
vt 0.910417 0.477083
vt 0.512500 0.097917
vt 0.908333 0.481250
vt 0.712500 0.279167
vt 0.512500 0.083333
vt 0.910417 0.483333
vt 0.785417 0.954167
vt 0.510417 0.083333
vt 0.908333 0.479167
vt 0.800000 0.954167
vt 0.510417 0.097917
vt 0.910417 0.481250
vt 0.785417 0.952083
vt 0.514583 0.083333
vt 0.908333 0.477083
vt 0.800000 0.952083
vt 0.514583 0.097917
vt 0.147917 0.385417
vt 0.675000 0.206250
vt 0.285417 0.350000
vt 0.743750 0.239583
vt 0.156250 0.385417
vt 0.285417 0.341667
vt 0.147917 0.379167
vt 0.675000 0.200000
vt 0.081250 0.125000
vt 0.743750 0.233333
vt 0.156250 0.379167
vt 0.081250 0.116667
vt 0.754167 0.239583
vt 0.527083 0.362500
vt 0.295833 0.341667
vt 0.664583 0.206250
vt 0.535417 0.362500
vt 0.295833 0.350000
vt 0.754167 0.233333
vt 0.527083 0.356250
vt 0.091667 0.116667
vt 0.664583 0.200000
vt 0.535417 0.356250
vt 0.091667 0.125000
vt 0.122917 0.095833
vt 0.195833 0.102083
vt 0.904167 0.816667
vt 0.077083 0.102083
vt 0.127083 0.095833
vt 0.904167 0.812500
vt 0.122917 0.089583
vt 0.195833 0.095833
vt 0.229167 0.095833
vt 0.077083 0.095833
vt 0.127083 0.089583
vt 0.229167 0.091667
vt 0.083333 0.102083
vt 0.183333 0.095833
vt 0.910417 0.812500
vt 0.189583 0.102083
vt 0.187500 0.095833
vt 0.910417 0.816667
vt 0.083333 0.095833
vt 0.183333 0.089583
vt 0.235417 0.091667
vt 0.189583 0.095833
vt 0.187500 0.089583
vt 0.235417 0.095833
vt 0.352083 0.091667
vt 0.914583 0.979167
vt 0.237500 0.095833
vt 0.012500 0.091667
vt 0.356250 0.091667
vt 0.237500 0.091667
vt 0.352083 0.089583
vt 0.914583 0.977083
vt 0.245833 0.095833
vt 0.012500 0.089583
vt 0.356250 0.089583
vt 0.245833 0.091667
vt 0.018750 0.091667
vt 0.908333 0.639583
vt 0.243750 0.091667
vt 0.908333 0.979167
vt 0.912500 0.639583
vt 0.243750 0.095833
vt 0.018750 0.089583
vt 0.908333 0.637500
vt 0.252083 0.091667
vt 0.908333 0.977083
vt 0.912500 0.637500
vt 0.252083 0.095833
vt 0.029167 0.275000
vt 0.762500 0.347917
vt 0.297917 0.379167
vt 0.418750 0.277083
vt 0.066667 0.275000
vt 0.297917 0.341667
vt 0.029167 0.258333
vt 0.762500 0.331250
vt 0.147917 0.377083
vt 0.418750 0.260417
vt 0.066667 0.258333
vt 0.147917 0.339583
vt 0.456250 0.277083
vt 0.525000 0.272917
vt 0.335417 0.341667
vt 0.725000 0.347917
vt 0.562500 0.272917
vt 0.335417 0.379167
vt 0.456250 0.260417
vt 0.525000 0.256250
vt 0.185417 0.339583
vt 0.725000 0.331250
vt 0.562500 0.256250
vt 0.185417 0.377083
vt 0.825000 0.827083
vt 0.839583 0.858333
vt 0.354167 0.179167
vt 0.818750 0.479167
vt 0.841667 0.827083
vt 0.354167 0.162500
vt 0.825000 0.810417
vt 0.839583 0.841667
vt 0.375000 0.179167
vt 0.818750 0.462500
vt 0.841667 0.810417
vt 0.375000 0.162500
vt 0.837500 0.479167
vt 0.825000 0.460417
vt 0.372917 0.162500
vt 0.820833 0.858333
vt 0.841667 0.460417
vt 0.372917 0.179167
vt 0.837500 0.462500
vt 0.825000 0.443750
vt 0.393750 0.162500
vt 0.820833 0.841667
vt 0.841667 0.443750
vt 0.393750 0.179167
vt 0.262500 0.143750
vt 0.722917 0.162500
vt 0.068750 0.177083
vt 0.418750 0.162500
vt 0.277083 0.143750
vt 0.068750 0.162500
vt 0.262500 0.133333
vt 0.722917 0.152083
vt 0.091667 0.177083
vt 0.418750 0.152083
vt 0.277083 0.133333
vt 0.091667 0.162500
vt 0.439583 0.162500
vt 0.368750 0.143750
vt 0.089583 0.162500
vt 0.702083 0.162500
vt 0.383333 0.143750
vt 0.089583 0.177083
vt 0.439583 0.152083
vt 0.368750 0.133333
vt 0.112500 0.162500
vt 0.702083 0.152083
vt 0.383333 0.133333
vt 0.112500 0.177083
vt 0.906250 0.318750
vt 0.904167 0.166667
vt 0.891667 0.160417
vt 0.891667 0.172917
vt 0.910417 0.318750
vt 0.891667 0.156250
vt 0.906250 0.314583
vt 0.904167 0.162500
vt 0.891667 0.154167
vt 0.891667 0.168750
vt 0.910417 0.314583
vt 0.891667 0.150000
vt 0.904167 0.172917
vt 0.768750 0.093750
vt 0.904167 0.156250
vt 0.891667 0.166667
vt 0.772917 0.093750
vt 0.904167 0.160417
vt 0.904167 0.168750
vt 0.768750 0.089583
vt 0.904167 0.150000
vt 0.891667 0.162500
vt 0.772917 0.089583
vt 0.904167 0.154167
vt 0.775000 0.093750
vt 0.866667 0.108333
vt 0.891667 0.141667
vt 0.891667 0.147917
vt 0.779167 0.093750
vt 0.891667 0.137500
vt 0.775000 0.089583
vt 0.866667 0.104167
vt 0.868750 0.108333
vt 0.891667 0.143750
vt 0.779167 0.089583
vt 0.868750 0.104167
vt 0.904167 0.147917
vt 0.781250 0.093750
vt 0.904167 0.137500
vt 0.854167 0.108333
vt 0.785417 0.093750
vt 0.904167 0.141667
vt 0.904167 0.143750
vt 0.781250 0.089583
vt 0.881250 0.104167
vt 0.854167 0.104167
vt 0.785417 0.089583
vt 0.881250 0.108333
vt 0.906250 0.185417
vt 0.906250 0.979167
vt 0.893750 0.972917
vt 0.891667 0.112500
vt 0.910417 0.185417
vt 0.893750 0.968750
vt 0.906250 0.181250
vt 0.906250 0.975000
vt 0.893750 0.933333
vt 0.891667 0.108333
vt 0.910417 0.181250
vt 0.893750 0.929167
vt 0.904167 0.112500
vt 0.906250 0.179167
vt 0.906250 0.968750
vt 0.893750 0.979167
vt 0.910417 0.179167
vt 0.906250 0.972917
vt 0.904167 0.108333
vt 0.906250 0.175000
vt 0.906250 0.929167
vt 0.893750 0.975000
vt 0.910417 0.175000
vt 0.906250 0.933333
vt 0.906250 0.160417
vt 0.906250 0.697917
vt 0.893750 0.679167
vt 0.893750 0.775000
vt 0.910417 0.160417
vt 0.893750 0.675000
vt 0.906250 0.156250
vt 0.906250 0.693750
vt 0.366667 0.106250
vt 0.893750 0.770833
vt 0.910417 0.156250
vt 0.366667 0.102083
vt 0.906250 0.775000
vt 0.845833 0.093750
vt 0.906250 0.675000
vt 0.893750 0.697917
vt 0.850000 0.093750
vt 0.906250 0.679167
vt 0.906250 0.770833
vt 0.845833 0.089583
vt 0.379167 0.102083
vt 0.893750 0.693750
vt 0.850000 0.089583
vt 0.379167 0.106250
vt 0.906250 0.154167
vt 0.906250 0.529167
vt 0.614583 0.106250
vt 0.391667 0.106250
vt 0.910417 0.154167
vt 0.614583 0.102083
vt 0.906250 0.150000
vt 0.906250 0.525000
vt 0.893750 0.335417
vt 0.391667 0.102083
vt 0.910417 0.150000
vt 0.893750 0.331250
vt 0.404167 0.106250
vt 0.852083 0.093750
vt 0.627083 0.102083
vt 0.893750 0.529167
vt 0.856250 0.093750
vt 0.627083 0.106250
vt 0.404167 0.102083
vt 0.852083 0.089583
vt 0.906250 0.331250
vt 0.893750 0.525000
vt 0.856250 0.089583
vt 0.906250 0.335417
vt 0.906250 0.147917
vt 0.906250 0.308333
vt 0.893750 0.302083
vt 0.893750 0.329167
vt 0.910417 0.147917
vt 0.893750 0.297917
vt 0.906250 0.143750
vt 0.906250 0.304167
vt 0.893750 0.295833
vt 0.893750 0.325000
vt 0.910417 0.143750
vt 0.893750 0.291667
vt 0.906250 0.329167
vt 0.858333 0.093750
vt 0.906250 0.297917
vt 0.893750 0.308333
vt 0.862500 0.093750
vt 0.906250 0.302083
vt 0.906250 0.325000
vt 0.858333 0.089583
vt 0.906250 0.291667
vt 0.893750 0.304167
vt 0.862500 0.089583
vt 0.906250 0.295833
vt 0.641667 0.172917
vt 0.310417 0.170833
vt 0.614583 0.091667
vt 0.418750 1.000000
vt 0.643750 0.172917
vt 0.614583 0.089583
vt 0.641667 0.068750
vt 0.310417 0.066667
vt 0.618750 0.091667
vt 0.418750 0.895833
vt 0.643750 0.068750
vt 0.618750 0.089583
vt 0.420833 1.000000
vt 0.312500 0.170833
vt 0.616667 0.089583
vt 0.308333 0.170833
vt 0.314583 0.170833
vt 0.616667 0.091667
vt 0.420833 0.895833
vt 0.312500 0.066667
vt 0.620833 0.089583
vt 0.308333 0.066667
vt 0.314583 0.066667
vt 0.620833 0.091667
vt 0.891667 0.279167
vt 0.633333 0.245833
vt 0.866667 0.166667
vt 0.075000 0.408333
vt 0.900000 0.279167
vt 0.866667 0.158333
vt 0.891667 0.272917
vt 0.633333 0.239583
vt 0.866667 0.156250
vt 0.075000 0.402083
vt 0.900000 0.272917
vt 0.866667 0.147917
vt 0.089583 0.408333
vt 0.891667 0.270833
vt 0.881250 0.158333
vt 0.618750 0.245833
vt 0.900000 0.270833
vt 0.881250 0.166667
vt 0.089583 0.402083
vt 0.891667 0.264583
vt 0.881250 0.147917
vt 0.618750 0.239583
vt 0.900000 0.264583
vt 0.881250 0.156250
vt 0.872917 0.768750
vt 0.895833 0.762500
vt 0.470833 0.254167
vt 0.872917 0.835417
vt 0.895833 0.768750
vt 0.470833 0.231250
vt 0.872917 0.764583
vt 0.895833 0.758333
vt 0.200000 0.250000
vt 0.872917 0.831250
vt 0.895833 0.764583
vt 0.200000 0.227083
vt 0.895833 0.835417
vt 0.393750 0.127083
vt 0.493750 0.231250
vt 0.872917 0.762500
vt 0.416667 0.127083
vt 0.493750 0.254167
vt 0.895833 0.831250
vt 0.393750 0.122917
vt 0.222917 0.227083
vt 0.872917 0.758333
vt 0.416667 0.122917
vt 0.222917 0.250000
vt 0.377083 0.200000
vt 0.816667 0.479167
vt 0.070833 0.239583
vt 0.225000 0.206250
vt 0.397917 0.200000
vt 0.070833 0.218750
vt 0.377083 0.181250
vt 0.816667 0.460417
vt 0.691667 0.239583
vt 0.225000 0.187500
vt 0.397917 0.181250
vt 0.691667 0.218750
vt 0.247917 0.206250
vt 0.400000 0.200000
vt 0.093750 0.218750
vt 0.793750 0.479167
vt 0.420833 0.200000
vt 0.093750 0.239583
vt 0.247917 0.187500
vt 0.400000 0.181250
vt 0.714583 0.218750
vt 0.793750 0.460417
vt 0.420833 0.181250
vt 0.714583 0.239583
vt 0.045833 0.197917
vt 0.425000 0.239583
vt 0.068750 0.262500
vt 0.368750 0.239583
vt 0.066667 0.197917
vt 0.068750 0.241667
vt 0.045833 0.179167
vt 0.425000 0.220833
vt 0.697917 0.262500
vt 0.368750 0.220833
vt 0.066667 0.179167
vt 0.697917 0.241667
vt 0.395833 0.239583
vt 0.802083 0.954167
vt 0.095833 0.241667
vt 0.397917 0.239583
vt 0.822917 0.954167
vt 0.095833 0.262500
vt 0.395833 0.220833
vt 0.802083 0.935417
vt 0.725000 0.241667
vt 0.397917 0.220833
vt 0.822917 0.935417
vt 0.725000 0.262500
vt 0.870833 0.410417
vt 0.687500 0.129167
vt 0.666667 0.260417
vt 0.772917 0.608333
vt 0.893750 0.410417
vt 0.666667 0.237500
vt 0.870833 0.406250
vt 0.687500 0.125000
vt 0.097917 0.256250
vt 0.772917 0.604167
vt 0.893750 0.406250
vt 0.097917 0.233333
vt 0.795833 0.608333
vt 0.854167 0.129167
vt 0.689583 0.237500
vt 0.664583 0.129167
vt 0.877083 0.129167
vt 0.689583 0.260417
vt 0.795833 0.604167
vt 0.854167 0.125000
vt 0.120833 0.233333
vt 0.664583 0.125000
vt 0.877083 0.125000
vt 0.120833 0.256250
vt 0.068750 0.197917
vt 0.787500 0.545833
vt 0.739583 0.697917
vt 0.427083 0.239583
vt 0.089583 0.197917
vt 0.739583 0.677083
vt 0.068750 0.179167
vt 0.787500 0.527083
vt 0.637500 0.260417
vt 0.427083 0.220833
vt 0.089583 0.179167
vt 0.637500 0.239583
vt 0.454167 0.239583
vt 0.091667 0.197917
vt 0.766667 0.677083
vt 0.760417 0.545833
vt 0.112500 0.197917
vt 0.766667 0.697917
vt 0.454167 0.220833
vt 0.091667 0.179167
vt 0.664583 0.239583
vt 0.760417 0.527083
vt 0.112500 0.179167
vt 0.664583 0.260417
vt 0.570833 0.187500
vt 0.770833 0.231250
vt 0.727083 0.262500
vt 0.522917 0.237500
vt 0.591667 0.187500
vt 0.727083 0.241667
vt 0.570833 0.170833
vt 0.770833 0.214583
vt 0.125000 0.260417
vt 0.522917 0.220833
vt 0.591667 0.170833
vt 0.125000 0.239583
vt 0.550000 0.237500
vt 0.593750 0.187500
vt 0.754167 0.241667
vt 0.743750 0.231250
vt 0.614583 0.187500
vt 0.754167 0.262500
vt 0.550000 0.220833
vt 0.593750 0.170833
vt 0.152083 0.239583
vt 0.743750 0.214583
vt 0.614583 0.170833
vt 0.152083 0.260417
vt 0.806250 0.437500
vt 0.277083 0.131250
vt 0.725000 0.137500
vt 0.262500 0.131250
vt 0.827083 0.437500
vt 0.725000 0.116667
vt 0.806250 0.420833
vt 0.277083 0.114583
vt 0.000000 0.135417
vt 0.262500 0.114583
vt 0.827083 0.420833
vt 0.000000 0.114583
vt 0.268750 0.131250
vt 0.547917 0.187500
vt 0.731250 0.116667
vt 0.270833 0.131250
vt 0.568750 0.187500
vt 0.731250 0.137500
vt 0.268750 0.114583
vt 0.547917 0.170833
vt 0.006250 0.114583
vt 0.270833 0.114583
vt 0.568750 0.170833
vt 0.006250 0.135417
vt 0.114583 0.197917
vt 0.147917 0.237500
vt 0.275000 0.250000
vt 0.716667 0.239583
vt 0.135417 0.197917
vt 0.275000 0.229167
vt 0.114583 0.179167
vt 0.147917 0.218750
vt 0.495833 0.250000
vt 0.716667 0.220833
vt 0.135417 0.179167
vt 0.495833 0.229167
vt 0.741667 0.239583
vt 0.802083 0.827083
vt 0.300000 0.229167
vt 0.122917 0.237500
vt 0.822917 0.827083
vt 0.300000 0.250000
vt 0.741667 0.220833
vt 0.802083 0.808333
vt 0.520833 0.229167
vt 0.122917 0.218750
vt 0.822917 0.808333
vt 0.520833 0.250000
vt 0.800000 1.000000
vt 0.252083 0.206250
vt 0.247917 0.377083
vt 0.458333 0.341667
vt 0.820833 1.000000
vt 0.247917 0.356250
vt 0.800000 0.981250
vt 0.252083 0.187500
vt 0.458333 0.277083
vt 0.458333 0.322917
vt 0.820833 0.981250
vt 0.458333 0.256250
vt 0.460417 0.341667
vt 0.800000 0.781250
vt 0.250000 0.356250
vt 0.250000 0.206250
vt 0.820833 0.781250
vt 0.250000 0.377083
vt 0.460417 0.322917
vt 0.800000 0.762500
vt 0.460417 0.256250
vt 0.250000 0.187500
vt 0.820833 0.762500
vt 0.460417 0.277083
vt 0.800000 0.760417
vt 0.329167 0.120833
vt 0.872917 0.335417
vt 0.691667 0.260417
vt 0.820833 0.760417
vt 0.872917 0.314583
vt 0.800000 0.741667
vt 0.329167 0.102083
vt 0.783333 0.127083
vt 0.691667 0.241667
vt 0.820833 0.741667
vt 0.783333 0.106250
vt 0.695833 0.260417
vt 0.354167 0.200000
vt 0.877083 0.314583
vt 0.325000 0.120833
vt 0.375000 0.200000
vt 0.877083 0.335417
vt 0.695833 0.241667
vt 0.354167 0.181250
vt 0.787500 0.106250
vt 0.325000 0.102083
vt 0.375000 0.181250
vt 0.787500 0.127083
vt 0.843750 0.166667
vt 0.141667 0.197917
vt 0.068750 0.125000
vt 0.418750 0.893750
vt 0.864583 0.166667
vt 0.068750 0.104167
vt 0.843750 0.158333
vt 0.141667 0.189583
vt 0.075000 0.125000
vt 0.418750 0.885417
vt 0.864583 0.158333
vt 0.075000 0.104167
vt 0.422917 0.893750
vt 0.843750 0.156250
vt 0.072917 0.104167
vt 0.137500 0.197917
vt 0.864583 0.156250
vt 0.072917 0.125000
vt 0.422917 0.885417
vt 0.843750 0.147917
vt 0.079167 0.104167
vt 0.137500 0.189583
vt 0.864583 0.147917
vt 0.079167 0.125000
vt 0.481250 0.185417
vt 0.614583 0.143750
vt 0.206250 0.104167
vt 0.606250 0.545833
vt 0.491667 0.185417
vt 0.206250 0.093750
vt 0.481250 0.181250
vt 0.614583 0.139583
vt 0.895833 0.610417
vt 0.606250 0.541667
vt 0.491667 0.181250
vt 0.895833 0.600000
vt 0.610417 0.545833
vt 0.368750 0.150000
vt 0.210417 0.093750
vt 0.610417 0.143750
vt 0.379167 0.150000
vt 0.210417 0.104167
vt 0.610417 0.541667
vt 0.368750 0.145833
vt 0.900000 0.600000
vt 0.610417 0.139583
vt 0.379167 0.145833
vt 0.900000 0.610417
vt 0.375000 0.656250
vt 0.864583 0.718750
vt 0.793750 0.212500
vt 0.837500 0.729167
vt 0.389583 0.656250
vt 0.793750 0.197917
vt 0.375000 0.647917
vt 0.864583 0.710417
vt 0.143750 0.204167
vt 0.837500 0.720833
vt 0.389583 0.647917
vt 0.143750 0.189583
vt 0.864583 0.729167
vt 0.418750 0.287500
vt 0.820833 0.197917
vt 0.837500 0.718750
vt 0.433333 0.287500
vt 0.820833 0.212500
vt 0.864583 0.720833
vt 0.418750 0.279167
vt 0.170833 0.189583
vt 0.837500 0.710417
vt 0.433333 0.279167
vt 0.170833 0.204167
vt 0.783333 0.143750
vt 0.272917 0.185417
vt 0.735417 0.856250
vt 0.225000 0.185417
vt 0.785417 0.143750
vt 0.735417 0.854167
vt 0.783333 0.129167
vt 0.272917 0.170833
vt 0.895833 0.743750
vt 0.225000 0.170833
vt 0.785417 0.129167
vt 0.895833 0.741667
vt 0.247917 0.185417
vt 0.504167 0.097917
vt 0.758333 0.854167
vt 0.250000 0.185417
vt 0.506250 0.097917
vt 0.758333 0.856250
vt 0.247917 0.170833
vt 0.504167 0.083333
vt 0.918750 0.741667
vt 0.250000 0.170833
vt 0.506250 0.083333
vt 0.918750 0.743750
vt 0.820833 0.781250
vt 0.250000 0.206250
vt 0.250000 0.377083
vt 0.460417 0.341667
vt 0.800000 0.781250
vt 0.250000 0.356250
vt 0.820833 0.762500
vt 0.250000 0.187500
vt 0.460417 0.277083
vt 0.460417 0.322917
vt 0.800000 0.762500
vt 0.460417 0.256250
vt 0.458333 0.341667
vt 0.820833 1.000000
vt 0.247917 0.356250
vt 0.252083 0.206250
vt 0.800000 1.000000
vt 0.247917 0.377083
vt 0.458333 0.322917
vt 0.820833 0.981250
vt 0.458333 0.256250
vt 0.252083 0.187500
vt 0.800000 0.981250
vt 0.458333 0.277083
vt 0.375000 0.200000
vt 0.325000 0.120833
vt 0.877083 0.335417
vt 0.695833 0.260417
vt 0.354167 0.200000
vt 0.877083 0.314583
vt 0.375000 0.181250
vt 0.325000 0.102083
vt 0.787500 0.127083
vt 0.695833 0.241667
vt 0.354167 0.181250
vt 0.787500 0.106250
vt 0.691667 0.260417
vt 0.820833 0.760417
vt 0.872917 0.314583
vt 0.329167 0.120833
vt 0.800000 0.760417
vt 0.872917 0.335417
vt 0.691667 0.241667
vt 0.820833 0.741667
vt 0.783333 0.106250
vt 0.329167 0.102083
vt 0.800000 0.741667
vt 0.783333 0.127083
vt 0.420833 0.200000
vt 0.793750 0.479167
vt 0.093750 0.239583
vt 0.247917 0.206250
vt 0.400000 0.200000
vt 0.093750 0.218750
vt 0.420833 0.181250
vt 0.793750 0.460417
vt 0.714583 0.239583
vt 0.247917 0.187500
vt 0.400000 0.181250
vt 0.714583 0.218750
vt 0.225000 0.206250
vt 0.397917 0.200000
vt 0.070833 0.218750
vt 0.816667 0.479167
vt 0.377083 0.200000
vt 0.070833 0.239583
vt 0.225000 0.187500
vt 0.397917 0.181250
vt 0.691667 0.218750
vt 0.816667 0.460417
vt 0.377083 0.181250
vt 0.691667 0.239583
vt 0.514583 0.200000
vt 0.425000 0.120833
vt 0.060417 0.125000
vt 0.422917 0.120833
vt 0.493750 0.200000
vt 0.060417 0.104167
vt 0.514583 0.181250
vt 0.425000 0.102083
vt 0.066667 0.125000
vt 0.422917 0.102083
vt 0.493750 0.181250
vt 0.066667 0.104167
vt 0.418750 0.120833
vt 0.443750 0.200000
vt 0.056250 0.104167
vt 0.429167 0.120833
vt 0.422917 0.200000
vt 0.056250 0.125000
vt 0.418750 0.102083
vt 0.443750 0.181250
vt 0.062500 0.104167
vt 0.429167 0.102083
vt 0.422917 0.181250
vt 0.062500 0.125000
vt 0.822917 0.954167
vt 0.397917 0.239583
vt 0.095833 0.262500
vt 0.395833 0.239583
vt 0.802083 0.954167
vt 0.095833 0.241667
vt 0.822917 0.935417
vt 0.397917 0.220833
vt 0.725000 0.262500
vt 0.395833 0.220833
vt 0.802083 0.935417
vt 0.725000 0.241667
vt 0.368750 0.239583
vt 0.066667 0.197917
vt 0.068750 0.241667
vt 0.425000 0.239583
vt 0.045833 0.197917
vt 0.068750 0.262500
vt 0.368750 0.220833
vt 0.066667 0.179167
vt 0.697917 0.241667
vt 0.425000 0.220833
vt 0.045833 0.179167
vt 0.697917 0.262500
vt 0.568750 0.187500
vt 0.270833 0.131250
vt 0.731250 0.137500
vt 0.268750 0.131250
vt 0.547917 0.187500
vt 0.731250 0.116667
vt 0.568750 0.170833
vt 0.270833 0.114583
vt 0.006250 0.135417
vt 0.268750 0.114583
vt 0.547917 0.170833
vt 0.006250 0.114583
vt 0.262500 0.131250
vt 0.827083 0.437500
vt 0.725000 0.116667
vt 0.277083 0.131250
vt 0.806250 0.437500
vt 0.725000 0.137500
vt 0.262500 0.114583
vt 0.827083 0.420833
vt 0.000000 0.114583
vt 0.277083 0.114583
vt 0.806250 0.420833
vt 0.000000 0.135417
vt 0.614583 0.187500
vt 0.743750 0.231250
vt 0.754167 0.262500
vt 0.550000 0.237500
vt 0.593750 0.187500
vt 0.754167 0.241667
vt 0.614583 0.170833
vt 0.743750 0.214583
vt 0.152083 0.260417
vt 0.550000 0.220833
vt 0.593750 0.170833
vt 0.152083 0.239583
vt 0.522917 0.237500
vt 0.591667 0.187500
vt 0.727083 0.241667
vt 0.770833 0.231250
vt 0.570833 0.187500
vt 0.727083 0.262500
vt 0.522917 0.220833
vt 0.591667 0.170833
vt 0.125000 0.239583
vt 0.770833 0.214583
vt 0.570833 0.170833
vt 0.125000 0.260417
vt 0.112500 0.197917
vt 0.760417 0.545833
vt 0.766667 0.697917
vt 0.454167 0.239583
vt 0.091667 0.197917
vt 0.766667 0.677083
vt 0.112500 0.179167
vt 0.760417 0.527083
vt 0.664583 0.260417
vt 0.454167 0.220833
vt 0.091667 0.179167
vt 0.664583 0.239583
vt 0.427083 0.239583
vt 0.089583 0.197917
vt 0.739583 0.677083
vt 0.787500 0.545833
vt 0.068750 0.197917
vt 0.739583 0.697917
vt 0.427083 0.220833
vt 0.089583 0.179167
vt 0.637500 0.239583
vt 0.787500 0.527083
vt 0.068750 0.179167
vt 0.637500 0.260417
vt 0.822917 0.827083
vt 0.122917 0.237500
vt 0.300000 0.250000
vt 0.741667 0.239583
vt 0.802083 0.827083
vt 0.300000 0.229167
vt 0.822917 0.808333
vt 0.122917 0.218750
vt 0.520833 0.250000
vt 0.741667 0.220833
vt 0.802083 0.808333
vt 0.520833 0.229167
vt 0.716667 0.239583
vt 0.135417 0.197917
vt 0.275000 0.229167
vt 0.147917 0.237500
vt 0.114583 0.197917
vt 0.275000 0.250000
vt 0.716667 0.220833
vt 0.135417 0.179167
vt 0.495833 0.229167
vt 0.147917 0.218750
vt 0.114583 0.179167
vt 0.495833 0.250000
vt 0.864583 0.297917
vt 0.839583 0.664583
vt 0.589583 0.245833
vt 0.689583 0.235417
vt 0.843750 0.297917
vt 0.589583 0.225000
vt 0.864583 0.289583
vt 0.839583 0.656250
vt 0.616667 0.245833
vt 0.689583 0.227083
vt 0.843750 0.289583
vt 0.616667 0.225000
vt 0.664583 0.235417
vt 0.864583 0.308333
vt 0.564583 0.225000
vt 0.864583 0.664583
vt 0.843750 0.308333
vt 0.564583 0.245833
vt 0.664583 0.227083
vt 0.864583 0.300000
vt 0.591667 0.225000
vt 0.864583 0.656250
vt 0.843750 0.300000
vt 0.591667 0.245833
vt 0.433333 0.287500
vt 0.837500 0.718750
vt 0.820833 0.212500
vt 0.864583 0.729167
vt 0.418750 0.287500
vt 0.820833 0.197917
vt 0.433333 0.279167
vt 0.837500 0.710417
vt 0.170833 0.204167
vt 0.864583 0.720833
vt 0.418750 0.279167
vt 0.170833 0.189583
vt 0.837500 0.729167
vt 0.389583 0.656250
vt 0.793750 0.197917
vt 0.864583 0.718750
vt 0.375000 0.656250
vt 0.793750 0.212500
vt 0.837500 0.720833
vt 0.389583 0.647917
vt 0.143750 0.189583
vt 0.864583 0.710417
vt 0.375000 0.647917
vt 0.143750 0.204167
vt 0.506250 0.097917
vt 0.250000 0.185417
vt 0.758333 0.856250
vt 0.247917 0.185417
vt 0.504167 0.097917
vt 0.758333 0.854167
vt 0.506250 0.083333
vt 0.250000 0.170833
vt 0.918750 0.743750
vt 0.247917 0.170833
vt 0.504167 0.083333
vt 0.918750 0.741667
vt 0.225000 0.185417
vt 0.785417 0.143750
vt 0.735417 0.854167
vt 0.272917 0.185417
vt 0.783333 0.143750
vt 0.735417 0.856250
vt 0.225000 0.170833
vt 0.785417 0.129167
vt 0.895833 0.741667
vt 0.272917 0.170833
vt 0.783333 0.129167
vt 0.895833 0.743750
vt 0.877083 0.129167
vt 0.664583 0.129167
vt 0.689583 0.260417
vt 0.795833 0.608333
vt 0.854167 0.129167
vt 0.689583 0.237500
vt 0.877083 0.125000
vt 0.664583 0.125000
vt 0.120833 0.256250
vt 0.795833 0.604167
vt 0.854167 0.125000
vt 0.120833 0.233333
vt 0.772917 0.608333
vt 0.893750 0.410417
vt 0.666667 0.237500
vt 0.687500 0.129167
vt 0.870833 0.410417
vt 0.666667 0.260417
vt 0.772917 0.604167
vt 0.893750 0.406250
vt 0.097917 0.233333
vt 0.687500 0.125000
vt 0.870833 0.406250
vt 0.097917 0.256250
vt 0.379167 0.150000
vt 0.610417 0.143750
vt 0.210417 0.104167
vt 0.610417 0.545833
vt 0.368750 0.150000
vt 0.210417 0.093750
vt 0.379167 0.145833
vt 0.610417 0.139583
vt 0.900000 0.610417
vt 0.610417 0.541667
vt 0.368750 0.145833
vt 0.900000 0.600000
vt 0.606250 0.545833
vt 0.491667 0.185417
vt 0.206250 0.093750
vt 0.614583 0.143750
vt 0.481250 0.185417
vt 0.206250 0.104167
vt 0.606250 0.541667
vt 0.491667 0.181250
vt 0.895833 0.600000
vt 0.614583 0.139583
vt 0.481250 0.181250
vt 0.895833 0.610417
vt 0.416667 0.127083
vt 0.872917 0.762500
vt 0.493750 0.254167
vt 0.895833 0.835417
vt 0.393750 0.127083
vt 0.493750 0.231250
vt 0.416667 0.122917
vt 0.872917 0.758333
vt 0.222917 0.250000
vt 0.895833 0.831250
vt 0.393750 0.122917
vt 0.222917 0.227083
vt 0.872917 0.835417
vt 0.895833 0.768750
vt 0.470833 0.231250
vt 0.895833 0.762500
vt 0.872917 0.768750
vt 0.470833 0.254167
vt 0.872917 0.831250
vt 0.895833 0.764583
vt 0.200000 0.227083
vt 0.895833 0.758333
vt 0.872917 0.764583
vt 0.200000 0.250000
vt 0.864583 0.156250
vt 0.137500 0.197917
vt 0.072917 0.125000
vt 0.422917 0.893750
vt 0.843750 0.156250
vt 0.072917 0.104167
vt 0.864583 0.147917
vt 0.137500 0.189583
vt 0.079167 0.125000
vt 0.422917 0.885417
vt 0.843750 0.147917
vt 0.079167 0.104167
vt 0.418750 0.893750
vt 0.864583 0.166667
vt 0.068750 0.104167
vt 0.141667 0.197917
vt 0.843750 0.166667
vt 0.068750 0.125000
vt 0.418750 0.885417
vt 0.864583 0.158333
vt 0.075000 0.104167
vt 0.141667 0.189583
vt 0.843750 0.158333
vt 0.075000 0.125000
vt 0.845833 0.329167
vt 0.891667 0.529167
vt 0.204167 0.183333
vt 0.875000 0.212500
vt 0.870833 0.329167
vt 0.204167 0.158333
vt 0.845833 0.322917
vt 0.891667 0.522917
vt 0.687500 0.181250
vt 0.875000 0.206250
vt 0.870833 0.322917
vt 0.687500 0.156250
vt 0.887500 0.212500
vt 0.845833 0.320833
vt 0.216667 0.158333
vt 0.879167 0.529167
vt 0.870833 0.320833
vt 0.216667 0.183333
vt 0.887500 0.206250
vt 0.845833 0.314583
vt 0.700000 0.156250
vt 0.879167 0.522917
vt 0.870833 0.314583
vt 0.700000 0.181250
vt 0.793750 0.154167
vt 0.891667 0.327083
vt 0.793750 0.181250
vt 0.879167 0.335417
vt 0.818750 0.154167
vt 0.793750 0.156250
vt 0.793750 0.147917
vt 0.891667 0.320833
vt 0.808333 0.181250
vt 0.879167 0.329167
vt 0.818750 0.147917
vt 0.808333 0.156250
vt 0.891667 0.335417
vt 0.845833 0.197917
vt 0.806250 0.156250
vt 0.879167 0.327083
vt 0.870833 0.197917
vt 0.806250 0.181250
vt 0.891667 0.329167
vt 0.845833 0.191667
vt 0.820833 0.156250
vt 0.879167 0.320833
vt 0.870833 0.191667
vt 0.820833 0.181250
vt 0.908333 0.664583
vt 0.866667 0.943750
vt 0.877083 0.650000
vt 0.752083 0.781250
vt 0.912500 0.664583
vt 0.877083 0.645833
vt 0.908333 0.662500
vt 0.866667 0.941667
vt 0.877083 0.372917
vt 0.752083 0.779167
vt 0.912500 0.662500
vt 0.877083 0.368750
vt 0.768750 0.781250
vt 0.908333 0.660417
vt 0.893750 0.645833
vt 0.850000 0.943750
vt 0.912500 0.660417
vt 0.893750 0.650000
vt 0.768750 0.779167
vt 0.908333 0.658333
vt 0.893750 0.368750
vt 0.850000 0.941667
vt 0.912500 0.658333
vt 0.893750 0.372917
vt 0.668750 0.739583
vt 0.916667 0.652083
vt 0.802083 0.664583
vt 0.735417 0.954167
vt 0.687500 0.739583
vt 0.802083 0.645833
vt 0.668750 0.737500
vt 0.916667 0.650000
vt 0.802083 0.643750
vt 0.735417 0.952083
vt 0.687500 0.737500
vt 0.802083 0.625000
vt 0.756250 0.954167
vt 0.895833 0.647917
vt 0.822917 0.645833
vt 0.895833 0.652083
vt 0.914583 0.647917
vt 0.822917 0.664583
vt 0.756250 0.952083
vt 0.895833 0.645833
vt 0.822917 0.625000
vt 0.895833 0.650000
vt 0.914583 0.645833
vt 0.822917 0.643750
vt 0.014583 0.152083
vt 0.635417 0.266667
vt 0.635417 0.454167
vt 0.725000 0.329167
vt 0.033333 0.152083
vt 0.635417 0.435417
vt 0.014583 0.143750
vt 0.635417 0.258333
vt 0.389583 0.362500
vt 0.725000 0.320833
vt 0.033333 0.143750
vt 0.389583 0.343750
vt 0.795833 0.329167
vt 0.847917 0.918750
vt 0.706250 0.435417
vt 0.564583 0.266667
vt 0.866667 0.918750
vt 0.706250 0.454167
vt 0.795833 0.320833
vt 0.847917 0.910417
vt 0.460417 0.343750
vt 0.564583 0.258333
vt 0.866667 0.910417
vt 0.460417 0.362500
vt 0.827083 0.608333
vt 0.750000 0.897917
vt 0.537500 0.375000
vt 0.672917 0.987500
vt 0.845833 0.608333
vt 0.537500 0.356250
vt 0.827083 0.593750
vt 0.750000 0.883333
vt 0.614583 0.375000
vt 0.672917 0.972917
vt 0.845833 0.593750
vt 0.614583 0.356250
vt 0.747917 0.987500
vt 0.827083 0.591667
vt 0.612500 0.356250
vt 0.675000 0.897917
vt 0.845833 0.591667
vt 0.612500 0.375000
vt 0.747917 0.972917
vt 0.827083 0.577083
vt 0.689583 0.356250
vt 0.675000 0.883333
vt 0.845833 0.577083
vt 0.689583 0.375000
vt 0.797917 0.608333
vt 0.756250 0.872917
vt 0.214583 0.458333
vt 0.697917 0.970833
vt 0.825000 0.608333
vt 0.214583 0.431250
vt 0.797917 0.593750
vt 0.756250 0.858333
vt 0.612500 1.000000
vt 0.697917 0.956250
vt 0.825000 0.593750
vt 0.612500 0.972917
vt 0.756250 0.970833
vt 0.797917 0.591667
vt 0.272917 0.431250
vt 0.697917 0.872917
vt 0.825000 0.591667
vt 0.272917 0.458333
vt 0.756250 0.956250
vt 0.797917 0.577083
vt 0.670833 0.972917
vt 0.697917 0.858333
vt 0.825000 0.577083
vt 0.670833 1.000000
vt 0.820833 0.104167
vt 0.520833 0.227083
vt 0.056250 0.133333
vt 0.068750 0.297917
vt 0.827083 0.104167
vt 0.056250 0.127083
vt 0.820833 0.097917
vt 0.520833 0.220833
vt 0.079167 0.133333
vt 0.068750 0.291667
vt 0.827083 0.097917
vt 0.079167 0.127083
vt 0.089583 0.297917
vt 0.829167 0.104167
vt 0.077083 0.127083
vt 0.500000 0.227083
vt 0.835417 0.104167
vt 0.077083 0.133333
vt 0.089583 0.291667
vt 0.829167 0.097917
vt 0.100000 0.127083
vt 0.500000 0.220833
vt 0.835417 0.097917
vt 0.100000 0.133333
vt 0.014583 0.116667
vt 0.804167 0.791667
vt 0.714583 0.306250
vt 0.714583 0.802083
vt 0.022917 0.116667
vt 0.714583 0.297917
vt 0.014583 0.108333
vt 0.804167 0.783333
vt 0.714583 0.295833
vt 0.714583 0.793750
vt 0.022917 0.108333
vt 0.714583 0.287500
vt 0.804167 0.802083
vt 0.160417 0.116667
vt 0.804167 0.297917
vt 0.714583 0.791667
vt 0.168750 0.116667
vt 0.804167 0.306250
vt 0.804167 0.793750
vt 0.160417 0.108333
vt 0.804167 0.287500
vt 0.714583 0.783333
vt 0.168750 0.108333
vt 0.804167 0.295833
vt 0.766667 0.118750
vt 0.795833 0.602083
vt 0.700000 0.591667
vt 0.187500 0.350000
vt 0.775000 0.118750
vt 0.700000 0.583333
vt 0.766667 0.110417
vt 0.795833 0.593750
vt 0.700000 0.581250
vt 0.187500 0.341667
vt 0.775000 0.110417
vt 0.700000 0.572917
vt 0.283333 0.350000
vt 0.881250 0.145833
vt 0.795833 0.583333
vt 0.700000 0.602083
vt 0.889583 0.145833
vt 0.795833 0.591667
vt 0.283333 0.341667
vt 0.881250 0.137500
vt 0.795833 0.572917
vt 0.700000 0.593750
vt 0.889583 0.137500
vt 0.795833 0.581250
vt 0.664583 0.108333
vt 0.679167 0.108333
vt 0.837500 0.104167
vt 0.570833 0.108333
vt 0.670833 0.108333
vt 0.837500 0.097917
vt 0.664583 0.100000
vt 0.679167 0.100000
vt 0.052083 0.102083
vt 0.570833 0.100000
vt 0.670833 0.100000
vt 0.052083 0.095833
vt 0.577083 0.108333
vt 0.681250 0.108333
vt 0.843750 0.097917
vt 0.672917 0.108333
vt 0.687500 0.108333
vt 0.843750 0.104167
vt 0.577083 0.100000
vt 0.681250 0.100000
vt 0.058333 0.095833
vt 0.672917 0.100000
vt 0.687500 0.100000
vt 0.058333 0.102083
vt 0.606250 0.168750
vt 0.143750 0.372917
vt 0.127083 0.337500
vt 0.187500 0.377083
vt 0.614583 0.168750
vt 0.127083 0.329167
vt 0.606250 0.145833
vt 0.143750 0.350000
vt 0.760417 0.845833
vt 0.187500 0.354167
vt 0.614583 0.145833
vt 0.760417 0.837500
vt 0.245833 0.377083
vt 0.529167 0.166667
vt 0.185417 0.329167
vt 0.085417 0.372917
vt 0.537500 0.166667
vt 0.185417 0.337500
vt 0.245833 0.354167
vt 0.529167 0.143750
vt 0.818750 0.837500
vt 0.085417 0.350000
vt 0.537500 0.143750
vt 0.818750 0.845833
vt 0.902083 0.195833
vt 0.910417 1.000000
vt 0.060417 0.102083
vt 0.902083 0.345833
vt 0.908333 0.195833
vt 0.060417 0.095833
vt 0.902083 0.191667
vt 0.910417 0.995833
vt 0.068750 0.102083
vt 0.902083 0.341667
vt 0.908333 0.191667
vt 0.068750 0.095833
vt 0.908333 0.345833
vt 0.904167 0.966667
vt 0.066667 0.095833
vt 0.904167 1.000000
vt 0.910417 0.966667
vt 0.066667 0.102083
vt 0.908333 0.341667
vt 0.904167 0.962500
vt 0.075000 0.095833
vt 0.904167 0.995833
vt 0.910417 0.962500
vt 0.075000 0.102083
s 0
usemtl m_743f5945-9f63-395c-d7a7-c45c370e1748
f 4/10/1 7/19/1 5/13/1 2/4/1
f 3/7/2 4/11/2 2/5/2 1/1/2
f 8/22/3 3/8/3 1/2/3 6/16/3
f 7/20/4 8/23/4 6/17/4 5/14/4
f 6/18/5 1/3/5 2/6/5 5/15/5
f 7/21/6 4/12/6 3/9/6 8/24/6
f 12/34/7 15/43/7 13/37/7 10/28/7
f 11/31/8 12/35/8 10/29/8 9/25/8
f 16/46/9 11/32/9 9/26/9 14/40/9
f 15/44/10 16/47/10 14/41/10 13/38/10
f 14/42/11 9/27/11 10/30/11 13/39/11
f 15/45/12 12/36/12 11/33/12 16/48/12
f 20/58/13 23/67/13 21/61/13 18/52/13
f 19/55/10 20/59/10 18/53/10 17/49/10
f 24/70/14 19/56/14 17/50/14 22/64/14
f 23/68/8 24/71/8 22/65/8 21/62/8
f 22/66/15 17/51/15 18/54/15 21/63/15
f 23/69/16 20/60/16 19/57/16 24/72/16
f 28/82/17 31/91/17 29/85/17 26/76/17
f 27/79/10 28/83/10 26/77/10 25/73/10
f 32/94/18 27/80/18 25/74/18 30/88/18
f 31/92/8 32/95/8 30/89/8 29/86/8
f 30/90/19 25/75/19 26/78/19 29/87/19
f 31/93/20 28/84/20 27/81/20 32/96/20
f 36/106/21 39/115/21 37/109/21 34/100/21
f 35/103/8 36/107/8 34/101/8 33/97/8
f 40/118/22 35/104/22 33/98/22 38/112/22
f 39/116/10 40/119/10 38/113/10 37/110/10
f 38/114/23 33/99/23 34/102/23 37/111/23
f 39/117/24 36/108/24 35/105/24 40/120/24
f 44/130/21 47/139/21 45/133/21 42/124/21
f 43/127/25 44/131/25 42/125/25 41/121/25
f 48/142/22 43/128/22 41/122/22 46/136/22
f 47/140/26 48/143/26 46/137/26 45/134/26
f 46/138/27 41/123/27 42/126/27 45/135/27
f 47/141/28 44/132/28 43/129/28 48/144/28
f 52/154/29 55/163/29 53/157/29 50/148/29
f 51/151/8 52/155/8 50/149/8 49/145/8
f 56/166/30 51/152/30 49/146/30 54/160/30
f 55/164/10 56/167/10 54/161/10 53/158/10
f 54/162/31 49/147/31 50/150/31 53/159/31
f 55/165/32 52/156/32 51/153/32 56/168/32
f 60/178/29 63/187/29 61/181/29 58/172/29
f 59/175/8 60/179/8 58/173/8 57/169/8
f 64/190/30 59/176/30 57/170/30 62/184/30
f 63/188/10 64/191/10 62/185/10 61/182/10
f 62/186/31 57/171/31 58/174/31 61/183/31
f 63/189/32 60/180/32 59/177/32 64/192/32
f 68/202/21 71/211/21 69/205/21 66/196/21
f 67/199/33 68/203/33 66/197/33 65/193/33
f 72/214/22 67/200/22 65/194/22 70/208/22
f 71/212/34 72/215/34 70/209/34 69/206/34
f 70/210/35 65/195/35 66/198/35 69/207/35
f 71/213/36 68/204/36 67/201/36 72/216/36
f 76/226/17 79/235/17 77/229/17 74/220/17
f 75/223/10 76/227/10 74/221/10 73/217/10
f 80/238/18 75/224/18 73/218/18 78/232/18
f 79/236/8 80/239/8 78/233/8 77/230/8
f 78/234/19 73/219/19 74/222/19 77/231/19
f 79/237/20 76/228/20 75/225/20 80/240/20
f 84/250/37 87/259/37 85/253/37 82/244/37
f 83/247/8 84/251/8 82/245/8 81/241/8
f 88/262/38 83/248/38 81/242/38 86/256/38
f 87/260/10 88/263/10 86/257/10 85/254/10
f 86/258/39 81/243/39 82/246/39 85/255/39
f 87/261/40 84/252/40 83/249/40 88/264/40
f 92/274/29 95/283/29 93/277/29 90/268/29
f 91/271/41 92/275/41 90/269/41 89/265/41
f 96/286/30 91/272/30 89/266/30 94/280/30
f 95/284/42 96/287/42 94/281/42 93/278/42
f 94/282/43 89/267/43 90/270/43 93/279/43
f 95/285/44 92/276/44 91/273/44 96/288/44
f 100/298/21 103/307/21 101/301/21 98/292/21
f 99/295/33 100/299/33 98/293/33 97/289/33
f 104/310/22 99/296/22 97/290/22 102/304/22
f 103/308/34 104/311/34 102/305/34 101/302/34
f 102/306/35 97/291/35 98/294/35 101/303/35
f 103/309/36 100/300/36 99/297/36 104/312/36
f 108/322/45 111/331/45 109/325/45 106/316/45
f 107/319/8 108/323/8 106/317/8 105/313/8
f 112/334/46 107/320/46 105/314/46 110/328/46
f 111/332/10 112/335/10 110/329/10 109/326/10
f 110/330/47 105/315/47 106/318/47 109/327/47
f 111/333/48 108/324/48 107/321/48 112/336/48
f 116/346/49 119/355/49 117/349/49 114/340/49
f 115/343/50 116/347/50 114/341/50 113/337/50
f 120/358/51 115/344/51 113/338/51 118/352/51
f 119/356/52 120/359/52 118/353/52 117/350/52
f 118/354/53 113/339/53 114/342/53 117/351/53
f 119/357/54 116/348/54 115/345/54 120/360/54
f 124/370/55 127/379/55 125/373/55 122/364/55
f 123/367/56 124/371/56 122/365/56 121/361/56
f 128/382/57 123/368/57 121/362/57 126/376/57
f 127/380/58 128/383/58 126/377/58 125/374/58
f 126/378/59 121/363/59 122/366/59 125/375/59
f 127/381/60 124/372/60 123/369/60 128/384/60
f 132/394/61 135/403/61 133/397/61 130/388/61
f 131/391/62 132/395/62 130/389/62 129/385/62
f 136/406/63 131/392/63 129/386/63 134/400/63
f 135/404/64 136/407/64 134/401/64 133/398/64
f 134/402/65 129/387/65 130/390/65 133/399/65
f 135/405/66 132/396/66 131/393/66 136/408/66
f 140/418/67 143/427/67 141/421/67 138/412/67
f 139/415/8 140/419/8 138/413/8 137/409/8
f 144/430/68 139/416/68 137/410/68 142/424/68
f 143/428/10 144/431/10 142/425/10 141/422/10
f 142/426/69 137/411/69 138/414/69 141/423/69
f 143/429/70 140/420/70 139/417/70 144/432/70
f 148/442/29 151/451/29 149/445/29 146/436/29
f 147/439/10 148/443/10 146/437/10 145/433/10
f 152/454/30 147/440/30 145/434/30 150/448/30
f 151/452/8 152/455/8 150/449/8 149/446/8
f 150/450/32 145/435/32 146/438/32 149/447/32
f 151/453/31 148/444/31 147/441/31 152/456/31
f 156/466/29 159/475/29 157/469/29 154/460/29
f 155/463/10 156/467/10 154/461/10 153/457/10
f 160/478/30 155/464/30 153/458/30 158/472/30
f 159/476/8 160/479/8 158/473/8 157/470/8
f 158/474/32 153/459/32 154/462/32 157/471/32
f 159/477/31 156/468/31 155/465/31 160/480/31
f 164/490/71 167/499/71 165/493/71 162/484/71
f 163/487/72 164/491/72 162/485/72 161/481/72
f 168/502/73 163/488/73 161/482/73 166/496/73
f 167/500/74 168/503/74 166/497/74 165/494/74
f 166/498/75 161/483/75 162/486/75 165/495/75
f 167/501/76 164/492/76 163/489/76 168/504/76
f 172/514/77 175/523/77 173/517/77 170/508/77
f 171/511/78 172/515/78 170/509/78 169/505/78
f 176/526/79 171/512/79 169/506/79 174/520/79
f 175/524/80 176/527/80 174/521/80 173/518/80
f 174/522/75 169/507/75 170/510/75 173/519/75
f 175/525/76 172/516/76 171/513/76 176/528/76
f 180/538/77 183/547/77 181/541/77 178/532/77
f 179/535/78 180/539/78 178/533/78 177/529/78
f 184/550/79 179/536/79 177/530/79 182/544/79
f 183/548/80 184/551/80 182/545/80 181/542/80
f 182/546/75 177/531/75 178/534/75 181/543/75
f 183/549/76 180/540/76 179/537/76 184/552/76
f 188/562/71 191/571/71 189/565/71 186/556/71
f 187/559/72 188/563/72 186/557/72 185/553/72
f 192/574/73 187/560/73 185/554/73 190/568/73
f 191/572/74 192/575/74 190/569/74 189/566/74
f 190/570/75 185/555/75 186/558/75 189/567/75
f 191/573/76 188/564/76 187/561/76 192/576/76
f 196/586/29 199/595/29 197/589/29 194/580/29
f 195/583/8 196/587/8 194/581/8 193/577/8
f 200/598/30 195/584/30 193/578/30 198/592/30
f 199/596/10 200/599/10 198/593/10 197/590/10
f 198/594/31 193/579/31 194/582/31 197/591/31
f 199/597/32 196/588/32 195/585/32 200/600/32
f 204/610/17 207/619/17 205/613/17 202/604/17
f 203/607/10 204/611/10 202/605/10 201/601/10
f 208/622/18 203/608/18 201/602/18 206/616/18
f 207/620/8 208/623/8 206/617/8 205/614/8
f 206/618/19 201/603/19 202/606/19 205/615/19
f 207/621/20 204/612/20 203/609/20 208/624/20
f 212/634/29 215/643/29 213/637/29 210/628/29
f 211/631/10 212/635/10 210/629/10 209/625/10
f 216/646/30 211/632/30 209/626/30 214/640/30
f 215/644/8 216/647/8 214/641/8 213/638/8
f 214/642/32 209/627/32 210/630/32 213/639/32
f 215/645/31 212/636/31 211/633/31 216/648/31
f 220/658/29 223/667/29 221/661/29 218/652/29
f 219/655/10 220/659/10 218/653/10 217/649/10
f 224/670/30 219/656/30 217/650/30 222/664/30
f 223/668/8 224/671/8 222/665/8 221/662/8
f 222/666/32 217/651/32 218/654/32 221/663/32
f 223/669/31 220/660/31 219/657/31 224/672/31
f 228/682/81 231/691/81 229/685/81 226/676/81
f 227/679/82 228/683/82 226/677/82 225/673/82
f 232/694/83 227/680/83 225/674/83 230/688/83
f 231/692/84 232/695/84 230/689/84 229/686/84
f 230/690/85 225/675/85 226/678/85 229/687/85
f 231/693/86 228/684/86 227/681/86 232/696/86
f 236/706/29 239/715/29 237/709/29 234/700/29
f 235/703/8 236/707/8 234/701/8 233/697/8
f 240/718/30 235/704/30 233/698/30 238/712/30
f 239/716/10 240/719/10 238/713/10 237/710/10
f 238/714/31 233/699/31 234/702/31 237/711/31
f 239/717/32 236/708/32 235/705/32 240/720/32
f 244/730/87 247/739/87 245/733/87 242/724/87
f 243/727/88 244/731/88 242/725/88 241/721/88
f 248/742/89 243/728/89 241/722/89 246/736/89
f 247/740/90 248/743/90 246/737/90 245/734/90
f 246/738/91 241/723/91 242/726/91 245/735/91
f 247/741/92 244/732/92 243/729/92 248/744/92
f 252/754/77 255/763/77 253/757/77 250/748/77
f 251/751/78 252/755/78 250/749/78 249/745/78
f 256/766/79 251/752/79 249/746/79 254/760/79
f 255/764/80 256/767/80 254/761/80 253/758/80
f 254/762/75 249/747/75 250/750/75 253/759/75
f 255/765/76 252/756/76 251/753/76 256/768/76
f 260/778/77 263/787/77 261/781/77 258/772/77
f 259/775/78 260/779/78 258/773/78 257/769/78
f 264/790/79 259/776/79 257/770/79 262/784/79
f 263/788/80 264/791/80 262/785/80 261/782/80
f 262/786/75 257/771/75 258/774/75 261/783/75
f 263/789/76 260/780/76 259/777/76 264/792/76
f 268/802/77 271/811/77 269/805/77 266/796/77
f 267/799/78 268/803/78 266/797/78 265/793/78
f 272/814/79 267/800/79 265/794/79 270/808/79
f 271/812/80 272/815/80 270/809/80 269/806/80
f 270/810/75 265/795/75 266/798/75 269/807/75
f 271/813/76 268/804/76 267/801/76 272/816/76
f 276/826/77 279/835/77 277/829/77 274/820/77
f 275/823/78 276/827/78 274/821/78 273/817/78
f 280/838/79 275/824/79 273/818/79 278/832/79
f 279/836/80 280/839/80 278/833/80 277/830/80
f 278/834/75 273/819/75 274/822/75 277/831/75
f 279/837/76 276/828/76 275/825/76 280/840/76
f 284/850/77 287/859/77 285/853/77 282/844/77
f 283/847/78 284/851/78 282/845/78 281/841/78
f 288/862/79 283/848/79 281/842/79 286/856/79
f 287/860/80 288/863/80 286/857/80 285/854/80
f 286/858/75 281/843/75 282/846/75 285/855/75
f 287/861/76 284/852/76 283/849/76 288/864/76
f 292/874/77 295/883/77 293/877/77 290/868/77
f 291/871/78 292/875/78 290/869/78 289/865/78
f 296/886/79 291/872/79 289/866/79 294/880/79
f 295/884/80 296/887/80 294/881/80 293/878/80
f 294/882/75 289/867/75 290/870/75 293/879/75
f 295/885/76 292/876/76 291/873/76 296/888/76
f 300/898/67 303/907/67 301/901/67 298/892/67
f 299/895/10 300/899/10 298/893/10 297/889/10
f 304/910/68 299/896/68 297/890/68 302/904/68
f 303/908/8 304/911/8 302/905/8 301/902/8
f 302/906/70 297/891/70 298/894/70 301/903/70
f 303/909/69 300/900/69 299/897/69 304/912/69
f 308/922/55 311/931/55 309/925/55 306/916/55
f 307/919/56 308/923/56 306/917/56 305/913/56
f 312/934/57 307/920/57 305/914/57 310/928/57
f 311/932/58 312/935/58 310/929/58 309/926/58
f 310/930/59 305/915/59 306/918/59 309/927/59
f 311/933/60 308/924/60 307/921/60 312/936/60
f 316/946/93 319/955/93 317/949/93 314/940/93
f 315/943/94 316/947/94 314/941/94 313/937/94
f 320/958/95 315/944/95 313/938/95 318/952/95
f 319/956/96 320/959/96 318/953/96 317/950/96
f 318/954/97 313/939/97 314/942/97 317/951/97
f 319/957/98 316/948/98 315/945/98 320/960/98
f 324/970/99 327/979/99 325/973/99 322/964/99
f 323/967/94 324/971/94 322/965/94 321/961/94
f 328/982/100 323/968/100 321/962/100 326/976/100
f 327/980/96 328/983/96 326/977/96 325/974/96
f 326/978/101 321/963/101 322/966/101 325/975/101
f 327/981/102 324/972/102 323/969/102 328/984/102
f 332/994/103 335/1003/103 333/997/103 330/988/103
f 331/991/104 332/995/104 330/989/104 329/985/104
f 336/1006/105 331/992/105 329/986/105 334/1000/105
f 335/1004/106 336/1007/106 334/1001/106 333/998/106
f 334/1002/5 329/987/5 330/990/5 333/999/5
f 335/1005/6 332/996/6 331/993/6 336/1008/6
f 340/1018/107 343/1027/107 341/1021/107 338/1012/107
f 339/1015/104 340/1019/104 338/1013/104 337/1009/104
f 344/1030/108 339/1016/108 337/1010/108 342/1024/108
f 343/1028/106 344/1031/106 342/1025/106 341/1022/106
f 342/1026/109 337/1011/109 338/1014/109 341/1023/109
f 343/1029/110 340/1020/110 339/1017/110 344/1032/110
f 348/1042/111 351/1051/111 349/1045/111 346/1036/111
f 347/1039/112 348/1043/112 346/1037/112 345/1033/112
f 352/1054/113 347/1040/113 345/1034/113 350/1048/113
f 351/1052/114 352/1055/114 350/1049/114 349/1046/114
f 350/1050/115 345/1035/115 346/1038/115 349/1047/115
f 351/1053/116 348/1044/116 347/1041/116 352/1056/116
f 356/1066/117 359/1075/117 357/1069/117 354/1060/117
f 355/1063/118 356/1067/118 354/1061/118 353/1057/118
f 360/1078/119 355/1064/119 353/1058/119 358/1072/119
f 359/1076/120 360/1079/120 358/1073/120 357/1070/120
f 358/1074/121 353/1059/121 354/1062/121 357/1071/121
f 359/1077/122 356/1068/122 355/1065/122 360/1080/122
f 364/1090/123 367/1099/123 365/1093/123 362/1084/123
f 363/1087/124 364/1091/124 362/1085/124 361/1081/124
f 368/1102/125 363/1088/125 361/1082/125 366/1096/125
f 367/1100/126 368/1103/126 366/1097/126 365/1094/126
f 366/1098/121 361/1083/121 362/1086/121 365/1095/121
f 367/1101/122 364/1092/122 363/1089/122 368/1104/122
f 372/1114/127 375/1123/127 373/1117/127 370/1108/127
f 371/1111/50 372/1115/50 370/1109/50 369/1105/50
f 376/1126/128 371/1112/128 369/1106/128 374/1120/128
f 375/1124/52 376/1127/52 374/1121/52 373/1118/52
f 374/1122/129 369/1107/129 370/1110/129 373/1119/129
f 375/1125/130 372/1116/130 371/1113/130 376/1128/130
f 380/1138/131 383/1147/131 381/1141/131 378/1132/131
f 379/1135/132 380/1139/132 378/1133/132 377/1129/132
f 384/1150/133 379/1136/133 377/1130/133 382/1144/133
f 383/1148/134 384/1151/134 382/1145/134 381/1142/134
f 382/1146/101 377/1131/101 378/1134/101 381/1143/101
f 383/1149/102 380/1140/102 379/1137/102 384/1152/102
f 388/1162/135 391/1171/135 389/1165/135 386/1156/135
f 387/1159/136 388/1163/136 386/1157/136 385/1153/136
f 392/1174/137 387/1160/137 385/1154/137 390/1168/137
f 391/1172/138 392/1175/138 390/1169/138 389/1166/138
f 390/1170/139 385/1155/139 386/1158/139 389/1167/139
f 391/1173/140 388/1164/140 387/1161/140 392/1176/140
f 396/1186/141 399/1195/141 397/1189/141 394/1180/141
f 395/1183/142 396/1187/142 394/1181/142 393/1177/142
f 400/1198/143 395/1184/143 393/1178/143 398/1192/143
f 399/1196/144 400/1199/144 398/1193/144 397/1190/144
f 398/1194/15 393/1179/15 394/1182/15 397/1191/15
f 399/1197/16 396/1188/16 395/1185/16 400/1200/16
f 404/1210/145 407/1219/145 405/1213/145 402/1204/145
f 403/1207/146 404/1211/146 402/1205/146 401/1201/146
f 408/1222/147 403/1208/147 401/1202/147 406/1216/147
f 407/1220/148 408/1223/148 406/1217/148 405/1214/148
f 406/1218/109 401/1203/109 402/1206/109 405/1215/109
f 407/1221/110 404/1212/110 403/1209/110 408/1224/110
f 412/1234/149 415/1243/149 413/1237/149 410/1228/149
f 411/1231/112 412/1235/112 410/1229/112 409/1225/112
f 416/1246/150 411/1232/150 409/1226/150 414/1240/150
f 415/1244/114 416/1247/114 414/1241/114 413/1238/114
f 414/1242/151 409/1227/151 410/1230/151 413/1239/151
f 415/1245/152 412/1236/152 411/1233/152 416/1248/152
f 420/1258/153 423/1267/153 421/1261/153 418/1252/153
f 419/1255/118 420/1259/118 418/1253/118 417/1249/118
f 424/1270/154 419/1256/154 417/1250/154 422/1264/154
f 423/1268/120 424/1271/120 422/1265/120 421/1262/120
f 422/1266/155 417/1251/155 418/1254/155 421/1263/155
f 423/1269/156 420/1260/156 419/1257/156 424/1272/156
f 428/1282/157 431/1291/157 429/1285/157 426/1276/157
f 427/1279/158 428/1283/158 426/1277/158 425/1273/158
f 432/1294/159 427/1280/159 425/1274/159 430/1288/159
f 431/1292/160 432/1295/160 430/1289/160 429/1286/160
f 430/1290/161 425/1275/161 426/1278/161 429/1287/161
f 431/1293/162 428/1284/162 427/1281/162 432/1296/162
f 436/1306/163 439/1315/163 437/1309/163 434/1300/163
f 435/1303/164 436/1307/164 434/1301/164 433/1297/164
f 440/1318/165 435/1304/165 433/1298/165 438/1312/165
f 439/1316/166 440/1319/166 438/1313/166 437/1310/166
f 438/1314/167 433/1299/167 434/1302/167 437/1311/167
f 439/1317/168 436/1308/168 435/1305/168 440/1320/168
f 444/1330/169 447/1339/169 445/1333/169 442/1324/169
f 443/1327/170 444/1331/170 442/1325/170 441/1321/170
f 448/1342/171 443/1328/171 441/1322/171 446/1336/171
f 447/1340/172 448/1343/172 446/1337/172 445/1334/172
f 446/1338/161 441/1323/161 442/1326/161 445/1335/161
f 447/1341/162 444/1332/162 443/1329/162 448/1344/162
f 452/1354/173 455/1363/173 453/1357/173 450/1348/173
f 451/1351/174 452/1355/174 450/1349/174 449/1345/174
f 456/1366/175 451/1352/175 449/1346/175 454/1360/175
f 455/1364/176 456/1367/176 454/1361/176 453/1358/176
f 454/1362/177 449/1347/177 450/1350/177 453/1359/177
f 455/1365/178 452/1356/178 451/1353/178 456/1368/178
f 460/1378/179 463/1387/179 461/1381/179 458/1372/179
f 459/1375/180 460/1379/180 458/1373/180 457/1369/180
f 464/1390/181 459/1376/181 457/1370/181 462/1384/181
f 463/1388/182 464/1391/182 462/1385/182 461/1382/182
f 462/1386/177 457/1371/177 458/1374/177 461/1383/177
f 463/1389/178 460/1380/178 459/1377/178 464/1392/178
f 468/1402/183 471/1411/183 469/1405/183 466/1396/183
f 467/1399/184 468/1403/184 466/1397/184 465/1393/184
f 472/1414/185 467/1400/185 465/1394/185 470/1408/185
f 471/1412/186 472/1415/186 470/1409/186 469/1406/186
f 470/1410/187 465/1395/187 466/1398/187 469/1407/187
f 471/1413/188 468/1404/188 467/1401/188 472/1416/188
f 476/1426/189 479/1435/189 477/1429/189 474/1420/189
f 475/1423/190 476/1427/190 474/1421/190 473/1417/190
f 480/1438/191 475/1424/191 473/1418/191 478/1432/191
f 479/1436/192 480/1439/192 478/1433/192 477/1430/192
f 478/1434/187 473/1419/187 474/1422/187 477/1431/187
f 479/1437/188 476/1428/188 475/1425/188 480/1440/188
f 484/1450/193 487/1459/193 485/1453/193 482/1444/193
f 483/1447/194 484/1451/194 482/1445/194 481/1441/194
f 488/1462/195 483/1448/195 481/1442/195 486/1456/195
f 487/1460/196 488/1463/196 486/1457/196 485/1454/196
f 486/1458/197 481/1443/197 482/1446/197 485/1455/197
f 487/1461/198 484/1452/198 483/1449/198 488/1464/198
f 492/1474/199 495/1483/199 493/1477/199 490/1468/199
f 491/1471/200 492/1475/200 490/1469/200 489/1465/200
f 496/1486/201 491/1472/201 489/1466/201 494/1480/201
f 495/1484/202 496/1487/202 494/1481/202 493/1478/202
f 494/1482/203 489/1467/203 490/1470/203 493/1479/203
f 495/1485/204 492/1476/204 491/1473/204 496/1488/204
f 500/1498/205 503/1507/205 501/1501/205 498/1492/205
f 499/1495/200 500/1499/200 498/1493/200 497/1489/200
f 504/1510/206 499/1496/206 497/1490/206 502/1504/206
f 503/1508/202 504/1511/202 502/1505/202 501/1502/202
f 502/1506/207 497/1491/207 498/1494/207 501/1503/207
f 503/1509/208 500/1500/208 499/1497/208 504/1512/208
f 508/1522/209 511/1531/209 509/1525/209 506/1516/209
f 507/1519/194 508/1523/194 506/1517/194 505/1513/194
f 512/1534/210 507/1520/210 505/1514/210 510/1528/210
f 511/1532/196 512/1535/196 510/1529/196 509/1526/196
f 510/1530/211 505/1515/211 506/1518/211 509/1527/211
f 511/1533/212 508/1524/212 507/1521/212 512/1536/212
f 516/1546/213 519/1555/213 517/1549/213 514/1540/213
f 515/1543/190 516/1547/190 514/1541/190 513/1537/190
f 520/1558/214 515/1544/214 513/1538/214 518/1552/214
f 519/1556/192 520/1559/192 518/1553/192 517/1550/192
f 518/1554/215 513/1539/215 514/1542/215 517/1551/215
f 519/1557/216 516/1548/216 515/1545/216 520/1560/216
f 524/1570/217 527/1579/217 525/1573/217 522/1564/217
f 523/1567/180 524/1571/180 522/1565/180 521/1561/180
f 528/1582/218 523/1568/218 521/1562/218 526/1576/218
f 527/1580/182 528/1583/182 526/1577/182 525/1574/182
f 526/1578/219 521/1563/219 522/1566/219 525/1575/219
f 527/1581/220 524/1572/220 523/1569/220 528/1584/220
f 532/1594/221 535/1603/221 533/1597/221 530/1588/221
f 531/1591/222 532/1595/222 530/1589/222 529/1585/222
f 536/1606/223 531/1592/223 529/1586/223 534/1600/223
f 535/1604/224 536/1607/224 534/1601/224 533/1598/224
f 534/1602/219 529/1587/219 530/1590/219 533/1599/219
f 535/1605/220 532/1596/220 531/1593/220 536/1608/220
f 540/1618/225 543/1627/225 541/1621/225 538/1612/225
f 539/1615/170 540/1619/170 538/1613/170 537/1609/170
f 544/1630/226 539/1616/226 537/1610/226 542/1624/226
f 543/1628/172 544/1631/172 542/1625/172 541/1622/172
f 542/1626/227 537/1611/227 538/1614/227 541/1623/227
f 543/1629/228 540/1620/228 539/1617/228 544/1632/228
f 548/1642/229 551/1651/229 549/1645/229 546/1636/229
f 547/1639/230 548/1643/230 546/1637/230 545/1633/230
f 552/1654/231 547/1640/231 545/1634/231 550/1648/231
f 551/1652/232 552/1655/232 550/1649/232 549/1646/232
f 550/1650/15 545/1635/15 546/1638/15 549/1647/15
f 551/1653/16 548/1644/16 547/1641/16 552/1656/16
f 556/1666/10 559/1675/10 557/1669/10 554/1660/10
f 555/1663/29 556/1667/29 554/1661/29 553/1657/29
f 560/1678/8 555/1664/8 553/1658/8 558/1672/8
f 559/1676/30 560/1679/30 558/1673/30 557/1670/30
f 558/1674/31 553/1659/31 554/1662/31 557/1671/31
f 559/1677/32 556/1668/32 555/1665/32 560/1680/32
f 564/1690/10 567/1699/10 565/1693/10 562/1684/10
f 563/1687/29 564/1691/29 562/1685/29 561/1681/29
f 568/1702/8 563/1688/8 561/1682/8 566/1696/8
f 567/1700/30 568/1703/30 566/1697/30 565/1694/30
f 566/1698/31 561/1683/31 562/1686/31 565/1695/31
f 567/1701/32 564/1692/32 563/1689/32 568/1704/32
f 572/1714/29 575/1723/29 573/1717/29 570/1708/29
f 571/1711/41 572/1715/41 570/1709/41 569/1705/41
f 576/1726/30 571/1712/30 569/1706/30 574/1720/30
f 575/1724/42 576/1727/42 574/1721/42 573/1718/42
f 574/1722/43 569/1707/43 570/1710/43 573/1719/43
f 575/1725/44 572/1716/44 571/1713/44 576/1728/44
f 580/1738/29 583/1747/29 581/1741/29 578/1732/29
f 579/1735/41 580/1739/41 578/1733/41 577/1729/41
f 584/1750/30 579/1736/30 577/1730/30 582/1744/30
f 583/1748/42 584/1751/42 582/1745/42 581/1742/42
f 582/1746/43 577/1731/43 578/1734/43 581/1743/43
f 583/1749/44 580/1740/44 579/1737/44 584/1752/44
f 588/1762/233 591/1771/233 589/1765/233 586/1756/233
f 587/1759/8 588/1763/8 586/1757/8 585/1753/8
f 592/1774/234 587/1760/234 585/1754/234 590/1768/234
f 591/1772/10 592/1775/10 590/1769/10 589/1766/10
f 590/1770/235 585/1755/235 586/1758/235 589/1767/235
f 591/1773/236 588/1764/236 587/1761/236 592/1776/236
f 596/1786/237 599/1795/237 597/1789/237 594/1780/237
f 595/1783/8 596/1787/8 594/1781/8 593/1777/8
f 600/1798/238 595/1784/238 593/1778/238 598/1792/238
f 599/1796/10 600/1799/10 598/1793/10 597/1790/10
f 598/1794/239 593/1779/239 594/1782/239 597/1791/239
f 599/1797/240 596/1788/240 595/1785/240 600/1800/240
f 604/1810/237 607/1819/237 605/1813/237 602/1804/237
f 603/1807/8 604/1811/8 602/1805/8 601/1801/8
f 608/1822/238 603/1808/238 601/1802/238 606/1816/238
f 607/1820/10 608/1823/10 606/1817/10 605/1814/10
f 606/1818/239 601/1803/239 602/1806/239 605/1815/239
f 607/1821/240 604/1812/240 603/1809/240 608/1824/240
f 612/1834/29 615/1843/29 613/1837/29 610/1828/29
f 611/1831/8 612/1835/8 610/1829/8 609/1825/8
f 616/1846/30 611/1832/30 609/1826/30 614/1840/30
f 615/1844/10 616/1847/10 614/1841/10 613/1838/10
f 614/1842/31 609/1827/31 610/1830/31 613/1839/31
f 615/1845/32 612/1836/32 611/1833/32 616/1848/32
f 620/1858/29 623/1867/29 621/1861/29 618/1852/29
f 619/1855/8 620/1859/8 618/1853/8 617/1849/8
f 624/1870/30 619/1856/30 617/1850/30 622/1864/30
f 623/1868/10 624/1871/10 622/1865/10 621/1862/10
f 622/1866/31 617/1851/31 618/1854/31 621/1863/31
f 623/1869/32 620/1860/32 619/1857/32 624/1872/32
f 628/1882/29 631/1891/29 629/1885/29 626/1876/29
f 627/1879/8 628/1883/8 626/1877/8 625/1873/8
f 632/1894/30 627/1880/30 625/1874/30 630/1888/30
f 631/1892/10 632/1895/10 630/1889/10 629/1886/10
f 630/1890/31 625/1875/31 626/1878/31 629/1887/31
f 631/1893/32 628/1884/32 627/1881/32 632/1896/32
f 636/1906/241 639/1915/241 637/1909/241 634/1900/241
f 635/1903/8 636/1907/8 634/1901/8 633/1897/8
f 640/1918/242 635/1904/242 633/1898/242 638/1912/242
f 639/1916/10 640/1919/10 638/1913/10 637/1910/10
f 638/1914/243 633/1899/243 634/1902/243 637/1911/243
f 639/1917/244 636/1908/244 635/1905/244 640/1920/244
f 644/1930/32 647/1939/32 645/1933/32 642/1924/32
f 643/1927/8 644/1931/8 642/1925/8 641/1921/8
f 648/1942/31 643/1928/31 641/1922/31 646/1936/31
f 647/1940/10 648/1943/10 646/1937/10 645/1934/10
f 646/1938/29 641/1923/29 642/1926/29 645/1935/29
f 647/1941/30 644/1932/30 643/1929/30 648/1944/30
f 652/1954/245 655/1963/245 653/1957/245 650/1948/245
f 651/1951/246 652/1955/246 650/1949/246 649/1945/246
f 656/1966/247 651/1952/247 649/1946/247 654/1960/247
f 655/1964/248 656/1967/248 654/1961/248 653/1958/248
f 654/1962/249 649/1947/249 650/1950/249 653/1959/249
f 655/1965/250 652/1956/250 651/1953/250 656/1968/250
o gun
v -0.137828 0.555868 7.644990
v -0.001710 0.419750 7.644990
v -0.060622 0.633074 1.389692
v 0.075496 0.496956 1.389692
v 0.134387 0.555848 7.648349
v -0.001731 0.691966 7.648349
v 0.211593 0.633053 1.393052
v 0.075475 0.769171 1.393052
v -0.177247 1.030601 0.860678
v -0.177247 1.030601 1.204427
v -0.177247 0.893101 0.860678
v -0.177247 0.893101 1.204427
v 0.276503 1.030601 1.204427
v 0.276503 1.030601 0.860677
v 0.276503 0.893101 1.204427
v 0.276503 0.893101 0.860677
v -0.152960 0.579627 5.719803
v 0.022049 0.404618 5.719803
v -0.139386 0.593202 4.619970
v 0.035623 0.418193 4.619970
v 0.197031 0.579600 5.724122
v 0.022022 0.754609 5.724122
v 0.210605 0.593175 4.624290
v 0.035597 0.768184 4.624290
v -0.152478 0.630087 1.741689
v 0.071144 0.406464 1.741689
v -0.148236 0.634328 1.397991
v 0.075386 0.410706 1.397991
v 0.294733 0.630052 1.747208
v 0.071110 0.853675 1.747208
v 0.298975 0.634294 1.403510
v 0.075352 0.857917 1.403510
v -0.245997 0.893101 0.860678
v -0.245997 0.893101 1.410677
v -0.245997 0.343101 0.860678
v -0.245997 0.343101 1.410677
v 0.345253 0.893101 1.410677
v 0.345253 0.893101 0.860677
v 0.345253 0.343101 1.410677
v 0.345253 0.343101 0.860678
vn 0.7071 -0.7071 -0.0000
vn -0.7070 -0.7070 -0.0175
vn -0.7071 0.7071 -0.0000
vn 0.7070 0.7070 0.0175
vn -0.0123 -0.0123 0.9998
vn 0.0123 0.0123 -0.9998
vn -0.0000 -0.0000 1.0000
vn -1.0000 -0.0000 -0.0000
vn -0.0000 -0.0000 -1.0000
vn 1.0000 -0.0000 -0.0000
vn -0.0000 1.0000 -0.0000
vn -0.0000 -1.0000 -0.0000
vt 0.337500 0.379167
vt 0.352083 0.379167
vt 0.495833 0.104167
vt 0.360417 0.420833
vt 0.343750 0.379167
vt 0.495833 0.097917
vt 0.337500 0.170833
vt 0.352083 0.170833
vt 0.525000 0.104167
vt 0.360417 0.212500
vt 0.343750 0.170833
vt 0.525000 0.097917
vt 0.366667 0.420833
vt 0.462500 0.362500
vt 0.502083 0.097917
vt 0.345833 0.379167
vt 0.468750 0.362500
vt 0.502083 0.104167
vt 0.366667 0.212500
vt 0.462500 0.154167
vt 0.531250 0.097917
vt 0.345833 0.170833
vt 0.468750 0.154167
vt 0.531250 0.104167
vt 0.895833 0.639583
vt 0.900000 0.729167
vt 0.229167 0.143750
vt 0.883333 0.354167
vt 0.906250 0.639583
vt 0.229167 0.133333
vt 0.895833 0.635417
vt 0.900000 0.725000
vt 0.245833 0.143750
vt 0.883333 0.350000
vt 0.906250 0.635417
vt 0.245833 0.133333
vt 0.897917 0.354167
vt 0.895833 0.597917
vt 0.243750 0.133333
vt 0.885417 0.729167
vt 0.906250 0.597917
vt 0.243750 0.143750
vt 0.897917 0.350000
vt 0.895833 0.593750
vt 0.260417 0.133333
vt 0.885417 0.725000
vt 0.906250 0.593750
vt 0.260417 0.143750
vt 0.308333 0.250000
vt 0.316667 0.210417
vt 0.154167 0.260417
vt 0.275000 0.466667
vt 0.316667 0.250000
vt 0.154167 0.252083
vt 0.308333 0.212500
vt 0.316667 0.172917
vt 0.383333 0.118750
vt 0.275000 0.429167
vt 0.316667 0.212500
vt 0.383333 0.110417
vt 0.283333 0.466667
vt 0.470833 0.185417
vt 0.162500 0.252083
vt 0.308333 0.210417
vt 0.479167 0.185417
vt 0.162500 0.260417
vt 0.283333 0.429167
vt 0.470833 0.147917
vt 0.391667 0.110417
vt 0.308333 0.172917
vt 0.479167 0.147917
vt 0.391667 0.118750
vt 0.316667 0.135417
vt 0.364583 0.135417
vt 0.868750 0.943750
vt 0.552083 0.237500
vt 0.327083 0.135417
vt 0.868750 0.933333
vt 0.316667 0.122917
vt 0.364583 0.122917
vt 0.868750 0.918750
vt 0.552083 0.225000
vt 0.327083 0.122917
vt 0.868750 0.908333
vt 0.562500 0.237500
vt 0.418750 0.135417
vt 0.879167 0.933333
vt 0.354167 0.135417
vt 0.429167 0.135417
vt 0.879167 0.943750
vt 0.562500 0.225000
vt 0.418750 0.122917
vt 0.879167 0.908333
vt 0.354167 0.122917
vt 0.429167 0.122917
vt 0.879167 0.918750
vt 0.000000 0.195833
vt 0.825000 0.806250
vt 0.735417 0.193750
vt 0.714583 0.197917
vt 0.018750 0.195833
vt 0.735417 0.175000
vt 0.000000 0.177083
vt 0.825000 0.787500
vt 0.756250 0.193750
vt 0.714583 0.179167
vt 0.018750 0.177083
vt 0.756250 0.175000
vt 0.733333 0.197917
vt 0.806250 0.308333
vt 0.754167 0.175000
vt 0.806250 0.806250
vt 0.825000 0.308333
vt 0.754167 0.193750
vt 0.733333 0.179167
vt 0.806250 0.289583
vt 0.775000 0.175000
vt 0.806250 0.787500
vt 0.825000 0.289583
vt 0.775000 0.193750
s 0
usemtl m_743f5945-9f63-395c-d7a7-c45c370e1748
f 660/1978/251 663/1987/251 661/1981/251 658/1972/251
f 659/1975/252 660/1979/252 658/1973/252 657/1969/252
f 664/1990/253 659/1976/253 657/1970/253 662/1984/253
f 663/1988/254 664/1991/254 662/1985/254 661/1982/254
f 662/1986/255 657/1971/255 658/1974/255 661/1983/255
f 663/1989/256 660/1980/256 659/1977/256 664/1992/256
f 668/2002/257 671/2011/257 669/2005/257 666/1996/257
f 667/1999/258 668/2003/258 666/1997/258 665/1993/258
f 672/2014/259 667/2000/259 665/1994/259 670/2008/259
f 671/2012/260 672/2015/260 670/2009/260 669/2006/260
f 670/2010/261 665/1995/261 666/1998/261 669/2007/261
f 671/2013/262 668/2004/262 667/2001/262 672/2016/262
f 676/2026/251 679/2035/251 677/2029/251 674/2020/251
f 675/2023/252 676/2027/252 674/2021/252 673/2017/252
f 680/2038/253 675/2024/253 673/2018/253 678/2032/253
f 679/2036/254 680/2039/254 678/2033/254 677/2030/254
f 678/2034/255 673/2019/255 674/2022/255 677/2031/255
f 679/2037/256 676/2028/256 675/2025/256 680/2040/256
f 684/2050/251 687/2059/251 685/2053/251 682/2044/251
f 683/2047/252 684/2051/252 682/2045/252 681/2041/252
f 688/2062/253 683/2048/253 681/2042/253 686/2056/253
f 687/2060/254 688/2063/254 686/2057/254 685/2054/254
f 686/2058/255 681/2043/255 682/2046/255 685/2055/255
f 687/2061/256 684/2052/256 683/2049/256 688/2064/256
f 692/2074/257 695/2083/257 693/2077/257 690/2068/257
f 691/2071/258 692/2075/258 690/2069/258 689/2065/258
f 696/2086/259 691/2072/259 689/2066/259 694/2080/259
f 695/2084/260 696/2087/260 694/2081/260 693/2078/260
f 694/2082/261 689/2067/261 690/2070/261 693/2079/261
f 695/2085/262 692/2076/262 691/2073/262 696/2088/262
