# Blender 3.6.23
# www.blender.org
mtllib tow.mtl
o tripod
v 0.233208 0.783684 -0.000000
v 0.000000 0.783684 -0.233209
v 0.233208 0.519838 -0.000000
v 0.000000 0.519838 -0.233209
v 0.000000 0.783684 0.233208
v -0.233208 0.783684 -0.000000
v 0.000000 0.519838 0.233208
v -0.233208 0.519838 -0.000000
v -0.008729 0.611597 -0.101485
v -0.292666 0.088290 -0.385423
v 0.028274 0.571442 -0.064482
v -0.255662 0.048135 -0.348419
v -0.102012 0.611597 -0.008202
v -0.385950 0.088290 -0.292139
v -0.065010 0.571442 0.028801
v -0.348946 0.048135 -0.255135
v -0.065962 0.665586 -0.026849
v -0.065962 0.060244 0.837669
v -0.065962 0.611552 -0.064682
v -0.065962 0.006211 0.799836
v 0.065962 0.665586 -0.026849
v 0.065962 0.060244 0.837669
v 0.065962 0.611552 -0.064682
v 0.065962 0.006211 0.799836
v 0.102012 0.611597 -0.008202
v 0.385950 0.088290 -0.292139
v 0.065010 0.571442 0.028801
v 0.348946 0.048135 -0.255135
v 0.008729 0.611597 -0.101485
v 0.292666 0.088290 -0.385423
v -0.028274 0.571442 -0.064482
v 0.255662 0.048135 -0.348419
vn 0.7071 -0.0000 -0.7071
vn -0.7071 -0.0000 0.7071
vn -0.0000 1.0000 -0.0000
vn -0.0000 -1.0000 -0.0000
vn 0.7071 -0.0000 0.7071
vn -0.7071 -0.0000 -0.7071
vn -0.5610 0.6088 -0.5610
vn 0.5610 -0.6088 0.5610
vn 0.4305 0.7933 0.4305
vn -0.4305 -0.7934 -0.4305
vn -1.0000 -0.0000 -0.0000
vn 1.0000 -0.0000 -0.0000
vn -0.0000 0.8192 0.5736
vn -0.0000 -0.8192 -0.5736
vn -0.0000 0.5736 -0.8192
vn -0.0000 -0.5736 0.8192
vn 0.5610 0.6088 -0.5610
vn -0.5610 -0.6088 0.5610
vn -0.4305 0.7933 0.4305
vn 0.4305 -0.7934 -0.4305
vt 0.406250 0.835938
vt 0.406250 0.867188
vt 0.367188 0.867188
vt 0.367188 0.835938
vt 0.406250 0.593750
vt 0.406250 0.625000
vt 0.367188 0.625000
vt 0.367188 0.593750
vt 0.273438 0.664062
vt 0.273438 0.625000
vt 0.312500 0.625000
vt 0.312500 0.664062
vt 0.320312 0.625000
vt 0.320312 0.664062
vt 0.359375 0.664062
vt 0.359375 0.625000
vt 0.406250 0.632812
vt 0.406250 0.664062
vt 0.367188 0.664062
vt 0.367188 0.632812
vt 0.390625 0.703125
vt 0.390625 0.734375
vt 0.351562 0.734375
vt 0.351562 0.703125
vt 0.484375 0.750000
vt 0.484375 0.757812
vt 0.406250 0.757812
vt 0.406250 0.750000
vt 0.492188 0.992188
vt 0.492188 1.000000
vt 0.414062 1.000000
vt 0.414062 0.992188
vt 0.132812 0.617188
vt 0.132812 0.539062
vt 0.148438 0.539062
vt 0.148438 0.617188
vt 0.382812 0.750000
vt 0.382812 0.828125
vt 0.398438 0.828125
vt 0.398438 0.750000
vt 0.359375 0.523438
vt 0.359375 0.531250
vt 0.343750 0.531250
vt 0.343750 0.523438
vt 0.484375 0.656250
vt 0.484375 0.664062
vt 0.468750 0.664062
vt 0.468750 0.656250
vt 0.523438 0.734375
vt 0.523438 0.742188
vt 0.398438 0.742188
vt 0.398438 0.734375
vt 0.523438 0.718750
vt 0.523438 0.726562
vt 0.398438 0.726562
vt 0.398438 0.718750
vt 0.226562 0.671875
vt 0.226562 0.546875
vt 0.242188 0.546875
vt 0.242188 0.671875
vt 0.250000 0.546875
vt 0.250000 0.671875
vt 0.265625 0.671875
vt 0.265625 0.546875
vt 0.335938 0.523438
vt 0.335938 0.531250
vt 0.320312 0.531250
vt 0.320312 0.523438
vt 0.312500 0.523438
vt 0.312500 0.531250
vt 0.296875 0.531250
vt 0.296875 0.523438
vt 0.476562 0.703125
vt 0.476562 0.710938
vt 0.398438 0.710938
vt 0.398438 0.703125
vt 0.484375 0.765625
vt 0.484375 0.773438
vt 0.406250 0.773438
vt 0.406250 0.765625
vt 0.203125 0.648438
vt 0.203125 0.570312
vt 0.218750 0.570312
vt 0.218750 0.648438
vt 0.109375 0.539062
vt 0.109375 0.617188
vt 0.125000 0.617188
vt 0.125000 0.539062
vt 0.289062 0.523438
vt 0.289062 0.531250
vt 0.273438 0.531250
vt 0.273438 0.523438
vt 0.195312 0.523438
vt 0.195312 0.531250
vt 0.179688 0.531250
vt 0.179688 0.523438
s 0
usemtl m_cc8512ad-8eb2-3770-c2fb-18dd77d428eb.001
f 4/1/1 2/2/1 1/3/1 3/4/1
f 7/5/2 5/6/2 6/7/2 8/8/2
f 1/9/3 2/10/3 6/11/3 5/12/3
f 4/13/4 3/14/4 7/15/4 8/16/4
f 3/17/5 1/18/5 5/19/5 7/20/5
f 8/21/6 6/22/6 2/23/6 4/24/6
f 12/25/1 10/26/1 9/27/1 11/28/1
f 15/29/2 13/30/2 14/31/2 16/32/2
f 9/33/7 10/34/7 14/35/7 13/36/7
f 12/37/8 11/38/8 15/39/8 16/40/8
f 11/41/9 9/42/9 13/43/9 15/44/9
f 16/45/10 14/46/10 10/47/10 12/48/10
f 20/49/11 18/50/11 17/51/11 19/52/11
f 23/53/12 21/54/12 22/55/12 24/56/12
f 17/57/13 18/58/13 22/59/13 21/60/13
f 20/61/14 19/62/14 23/63/14 24/64/14
f 19/65/15 17/66/15 21/67/15 23/68/15
f 24/69/16 22/70/16 18/71/16 20/72/16
f 28/73/5 26/74/5 25/75/5 27/76/5
f 31/77/6 29/78/6 30/79/6 32/80/6
f 25/81/17 26/82/17 30/83/17 29/84/17
f 28/85/18 27/86/18 31/87/18 32/88/18
f 27/89/19 25/90/19 29/91/19 31/92/19
f 32/93/20 30/94/20 26/95/20 28/96/20
