# Blender 3.6.23
# www.blender.org
mtllib tow_turret.mtl
o ttt
v 0.031250 0.466173 1.312500
v 0.062500 0.497423 -0.375000
v 0.031250 0.278673 1.312500
v 0.062500 0.247423 -0.375000
v -0.031250 0.466173 1.312500
v -0.062500 0.497423 -0.375000
v -0.031250 0.278673 1.312500
v -0.062500 0.247423 -0.375000
v 0.062500 0.497423 0.750000
v -0.062500 0.497423 0.750000
v -0.062500 0.247423 0.750000
v 0.062500 0.247423 0.750000
v 0.031250 0.466173 0.875000
v -0.031250 0.466173 0.875000
v -0.031250 0.278673 0.875000
v 0.031250 0.278673 0.875000
v -0.125000 0.434923 0.750000
v -0.125000 0.434923 -0.375000
v 0.125000 0.434923 -0.375000
v 0.125000 0.434923 0.750000
v 0.093750 0.403673 0.875000
v 0.093750 0.403673 1.312500
v -0.093750 0.403673 1.312500
v -0.093750 0.403673 0.875000
v -0.125000 0.309923 -0.375000
v -0.125000 0.309923 0.750000
v -0.093750 0.341173 0.875000
v -0.093750 0.341173 1.312500
v 0.093750 0.341173 1.312500
v 0.093750 0.341173 0.875000
v 0.125000 0.309923 0.750000
v 0.125000 0.309923 -0.375000
v 0.062500 0.434923 -0.375000
v 0.062500 0.309923 -0.375000
v 0.031250 0.341173 1.312500
v 0.031250 0.403673 1.312500
v -0.031250 0.403673 1.312500
v -0.031250 0.341173 1.312500
v -0.062500 0.309923 -0.375000
v -0.062500 0.434923 -0.375000
v 0.087500 0.459923 0.687500
v 0.087500 0.459923 -0.875000
v 0.087500 0.284923 0.687500
v 0.087500 0.284923 -0.875000
v -0.087500 0.459923 0.687500
v -0.087500 0.459923 -0.875000
v -0.087500 0.284923 0.687500
v -0.087500 0.284923 -0.875000
v 0.750000 0.809923 -0.250000
v 0.750000 0.809923 -0.312500
v 0.750000 0.559923 -0.250000
v 0.750000 0.559923 -0.312500
v 0.500000 0.809923 -0.250000
v 0.500000 0.809923 -0.312500
v 0.375000 0.559923 -0.250000
v 0.375000 0.559923 -0.312500
v 0.375000 0.591173 -0.312500
v 0.750000 0.591173 -0.312500
v 0.750000 0.591173 -0.250000
v 0.375000 0.591173 -0.250000
v 0.750000 0.809923 0.250000
v 0.750000 0.809923 -0.250000
v 0.750000 0.372423 0.250000
v 0.750000 0.372423 -0.250000
v 0.500000 0.809923 0.250000
v 0.500000 0.809923 -0.250000
v 0.375000 0.372423 0.250000
v 0.375000 0.372423 -0.250000
v 0.750000 0.591173 0.250000
v 0.375000 0.591173 0.250000
v 0.375000 0.591173 -0.250000
v 0.750000 0.591173 -0.250000
v 0.187500 0.247423 0.187500
v 0.187500 0.247423 -0.250000
v 0.187500 0.059923 0.187500
v 0.187500 0.059923 -0.250000
v -0.187500 0.247423 0.187500
v -0.187500 0.247423 -0.250000
v -0.187500 0.059923 0.187500
v -0.187500 0.059923 -0.250000
v -0.125000 0.622423 0.187500
v -0.125000 0.622423 -0.250000
v -0.125000 0.247423 0.187500
v -0.125000 0.247423 -0.250000
v -0.250000 0.622423 0.187500
v -0.250000 0.622423 -0.250000
v -0.250000 0.247423 0.187500
v -0.250000 0.247423 -0.250000
v 0.375000 0.216173 0.137944
v 0.375000 0.304562 0.049556
v 0.375000 0.127785 0.049556
v 0.375000 0.216173 -0.038833
v 0.187500 0.216173 0.137944
v 0.187500 0.304562 0.049556
v 0.187500 0.127785 0.049556
v 0.187500 0.216173 -0.038833
v -0.187500 0.216173 0.137944
v -0.187500 0.304562 0.049556
v -0.187500 0.127785 0.049556
v -0.187500 0.216173 -0.038833
v -0.375000 0.216173 0.137944
v -0.375000 0.304562 0.049556
v -0.375000 0.127785 0.049556
v -0.375000 0.216173 -0.038833
v -0.187500 0.216173 -0.049556
v -0.187500 0.304562 -0.137944
v -0.187500 0.127785 -0.137944
v -0.187500 0.216173 -0.226333
v -0.375000 0.216173 -0.049556
v -0.375000 0.304562 -0.137944
v -0.375000 0.127785 -0.137944
v -0.375000 0.216173 -0.226333
v 0.748438 0.466173 0.038833
v 0.748438 0.598756 -0.093750
v 0.748438 0.333591 -0.093750
v 0.748438 0.466173 -0.226333
v -0.375000 0.466173 0.038833
v -0.375000 0.598756 -0.093750
v -0.375000 0.333591 -0.093750
v -0.375000 0.466173 -0.226333
v 0.531250 0.528673 -0.250000
v 0.531250 0.528673 -0.312500
v 0.531250 0.466173 -0.250000
v 0.531250 0.466173 -0.312500
v 0.406250 0.528673 -0.250000
v 0.406250 0.528673 -0.312500
v 0.406250 0.466173 -0.250000
v 0.406250 0.466173 -0.312500
v 0.531250 0.528673 -0.312500
v 0.531250 0.528673 -0.375000
v 0.531250 0.528673 -0.312500
v 0.531250 0.528673 -0.375000
v 0.406250 0.528673 -0.312500
v 0.406250 0.528673 -0.375000
v 0.406250 0.528673 -0.312500
v 0.406250 0.528673 -0.375000
v 0.718750 0.528673 -0.312500
v 0.718750 0.528673 -0.375000
v 0.718750 0.528673 -0.312500
v 0.718750 0.528673 -0.375000
v 0.593750 0.528673 -0.312500
v 0.593750 0.528673 -0.375000
v 0.593750 0.528673 -0.312500
v 0.593750 0.528673 -0.375000
v 0.593750 0.528673 -0.312500
v 0.593750 0.528673 -0.375000
v 0.593750 0.403673 -0.312500
v 0.593750 0.403673 -0.375000
v 0.593750 0.528673 -0.312500
v 0.593750 0.528673 -0.375000
v 0.593750 0.403673 -0.312500
v 0.593750 0.403673 -0.375000
v 0.718750 0.528673 -0.312500
v 0.718750 0.528673 -0.375000
v 0.718750 0.403673 -0.312500
v 0.718750 0.403673 -0.375000
v 0.718750 0.528673 -0.312500
v 0.718750 0.528673 -0.375000
v 0.718750 0.403673 -0.312500
v 0.718750 0.403673 -0.375000
v 0.718750 0.841173 0.187500
v 0.718750 0.841173 -0.250000
v 0.718750 0.778673 0.187500
v 0.718750 0.778673 -0.250000
v 0.531250 0.841173 0.187500
v 0.531250 0.841173 -0.250000
v 0.531250 0.778673 0.187500
v 0.531250 0.778673 -0.250000
v 0.718750 0.528673 -0.250000
v 0.718750 0.528673 -0.312500
v 0.718750 0.403673 -0.250000
v 0.718750 0.403673 -0.312500
v 0.593750 0.528673 -0.250000
v 0.593750 0.528673 -0.312500
v 0.593750 0.403673 -0.250000
v 0.593750 0.403673 -0.312500
v 0.593750 0.804561 0.312500
v 0.593750 0.804561 0.250000
v 0.682138 0.716173 0.312500
v 0.682138 0.716173 0.250000
v 0.505361 0.716173 0.312500
v 0.505361 0.716173 0.250000
v 0.593750 0.627785 0.312500
v 0.593750 0.627785 0.250000
v 0.531250 0.617061 0.312500
v 0.531250 0.617061 0.250000
v 0.619638 0.528673 0.312500
v 0.619638 0.528673 0.250000
v 0.442861 0.528673 0.312500
v 0.442861 0.528673 0.250000
v 0.531250 0.440285 0.312500
v 0.531250 0.440285 0.250000
v 0.250000 0.622423 0.187500
v 0.250000 0.622423 -0.250000
v 0.250000 0.247423 0.187500
v 0.250000 0.247423 -0.250000
v 0.125000 0.622423 0.187500
v 0.125000 0.622423 -0.250000
v 0.125000 0.247423 0.187500
v 0.125000 0.247423 -0.250000
vn 0.7071 0.7071 -0.0000
vn -0.7071 0.7071 -0.0000
vn -0.0000 -0.0000 1.0000
vn -0.0000 -0.0000 -1.0000
vn -0.6667 0.6667 0.3333
vn 0.6667 0.6667 0.3333
vn -0.7071 -0.7071 -0.0000
vn 0.7071 -0.7071 -0.0000
vn 0.6667 -0.6667 0.3333
vn -0.6667 -0.6667 0.3333
vn -1.0000 -0.0000 -0.0000
vn -0.9701 -0.0000 0.2425
vn 1.0000 -0.0000 -0.0000
vn 0.9701 -0.0000 0.2425
vn -0.0000 1.0000 -0.0000
vn -0.0000 0.9701 0.2425
vn -0.0000 -1.0000 -0.0000
vn -0.0000 -0.9701 0.2425
vn -0.8682 0.4961 -0.0000
vn -0.0000 0.7071 0.7071
vn -0.0000 -0.7071 -0.7071
vn -0.0000 -0.7071 0.7071
vn -0.0000 0.7071 -0.7071
vn -0.0000 -0.0000 -0.0000
vt 0.074693 0.671874
vt 0.074693 0.660825
vt 0.215318 0.660825
vt 0.215318 0.671874
vt 0.206557 0.968750
vt 0.206557 0.957702
vt 0.347182 0.957702
vt 0.347182 0.968750
vt 0.429688 0.664062
vt 0.429688 0.656250
vt 0.437500 0.656250
vt 0.328125 0.609375
vt 0.335938 0.609375
vt 0.335938 0.617188
vt 0.347182 0.968750
vt 0.363755 0.957702
vt 0.363755 0.968750
vt 0.058120 0.671874
vt 0.058120 0.660825
vt 0.074693 0.660825
vt 0.418442 0.957698
vt 0.418443 0.968746
vt 0.003432 0.671875
vt 0.003432 0.660827
vt 0.058120 0.660825
vt 0.433120 0.671875
vt 0.433120 0.682924
vt 0.292495 0.682924
vt 0.292495 0.671875
vt 0.335938 0.585938
vt 0.335938 0.593750
vt 0.328125 0.593750
vt 0.543443 0.875001
vt 0.543443 0.886049
vt 0.402818 0.886049
vt 0.402818 0.875001
vt 0.402818 0.875001
vt 0.386245 0.886050
vt 0.386245 0.875001
vt 0.386245 0.875001
vt 0.331557 0.886048
vt 0.331557 0.875000
vt 0.437500 0.648438
vt 0.429688 0.648438
vt 0.429688 0.640625
vt 0.504380 0.671879
vt 0.504380 0.682927
vt 0.449692 0.682923
vt 0.449693 0.671875
vt 0.433120 0.682923
vt 0.136478 0.937500
vt 0.136478 0.921875
vt 0.277103 0.921875
vt 0.277103 0.937500
vt 0.293209 0.925781
vt 0.293209 0.933594
vt 0.347897 0.925781
vt 0.347897 0.933594
vt 0.183354 0.910156
vt 0.183354 0.902344
vt 0.238041 0.902344
vt 0.238041 0.910156
vt 0.254146 0.898438
vt 0.254146 0.914062
vt 0.394771 0.898438
vt 0.394771 0.914062
vt 0.351562 0.617188
vt 0.351562 0.609375
vt 0.359375 0.609375
vt 0.351562 0.593750
vt 0.359375 0.593750
vt 0.351562 0.585938
vt 0.421875 0.640625
vt 0.421875 0.648438
vt 0.414062 0.648438
vt 0.421875 0.656250
vt 0.414062 0.656250
vt 0.421875 0.664062
vt 0.148438 0.914062
vt 0.132812 0.914062
vt 0.132812 0.773438
vt 0.148438 0.773438
vt 0.136719 0.757331
vt 0.144531 0.757331
vt 0.136719 0.702644
vt 0.144531 0.702644
vt 0.167969 0.906730
vt 0.160156 0.906730
vt 0.160156 0.852043
vt 0.167969 0.852043
vt 0.156250 0.835938
vt 0.171875 0.835938
vt 0.156250 0.695312
vt 0.171875 0.695312
vt 0.195312 0.976562
vt 0.195312 1.000000
vt 0.000000 1.000000
vt 0.000000 0.976562
vt 0.195312 0.945312
vt 0.195312 0.968750
vt 0.000000 0.968750
vt 0.000000 0.945312
vt 0.000000 0.937500
vt 0.000000 0.742188
vt 0.023438 0.742188
vt 0.023438 0.937500
vt 0.031250 0.742188
vt 0.031250 0.937500
vt 0.054688 0.937500
vt 0.054688 0.742188
vt 0.437500 0.609375
vt 0.437500 0.632812
vt 0.414062 0.632812
vt 0.414062 0.609375
vt 0.390625 0.562500
vt 0.390625 0.585938
vt 0.367188 0.585938
vt 0.367188 0.562500
vt 0.093750 0.609375
vt 0.093750 0.582031
vt 0.101562 0.582031
vt 0.101562 0.609375
vt 0.117188 0.804688
vt 0.117188 0.773195
vt 0.125000 0.773195
vt 0.125000 0.804688
vt 0.445312 0.593750
vt 0.445312 0.601562
vt 0.414062 0.601562
vt 0.414062 0.593750
vt 0.171875 0.679688
vt 0.171875 0.687500
vt 0.125000 0.687500
vt 0.125000 0.679688
vt 0.015625 0.648438
vt 0.000000 0.621094
vt 0.046875 0.621094
vt 0.046875 0.648438
vt 0.054688 0.648438
vt 0.054688 0.621094
vt 0.101562 0.621094
vt 0.085938 0.648438
vt 0.101562 0.617188
vt 0.054688 0.617188
vt 0.101562 0.578125
vt 0.093750 0.578125
vt 0.046875 0.617188
vt 0.000000 0.617188
vt 0.125000 0.769288
vt 0.117188 0.769288
vt 0.062500 0.867188
vt 0.062500 0.839844
vt 0.125000 0.839844
vt 0.125000 0.867188
vt 0.062500 0.937500
vt 0.062500 0.906007
vt 0.125000 0.906007
vt 0.125000 0.937500
vt 0.359375 0.804688
vt 0.359375 0.867188
vt 0.328125 0.867188
vt 0.328125 0.804688
vt 0.109375 0.742188
vt 0.109375 0.804688
vt 0.062500 0.804688
vt 0.062500 0.742188
vt 0.195312 0.734375
vt 0.179688 0.707031
vt 0.226562 0.707031
vt 0.226562 0.734375
vt 0.234375 0.734375
vt 0.234375 0.707031
vt 0.281250 0.707031
vt 0.265625 0.734375
vt 0.226562 0.679688
vt 0.179688 0.679688
vt 0.125000 0.878663
vt 0.062500 0.878663
vt 0.281250 0.679688
vt 0.234375 0.679688
vt 0.125000 0.812500
vt 0.062500 0.812500
vt 0.406250 0.976562
vt 0.406250 1.000000
vt 0.351562 1.000000
vt 0.351562 0.976562
vt 0.164062 0.625000
vt 0.164062 0.648438
vt 0.109375 0.648438
vt 0.109375 0.625000
vt 0.179688 0.796875
vt 0.179688 0.742188
vt 0.226562 0.742188
vt 0.226562 0.796875
vt 0.234375 0.742188
vt 0.234375 0.796875
vt 0.281250 0.796875
vt 0.281250 0.742188
vt 0.320312 0.593750
vt 0.320312 0.617188
vt 0.273438 0.617188
vt 0.273438 0.593750
vt 0.406250 0.921875
vt 0.406250 0.945312
vt 0.359375 0.945312
vt 0.359375 0.921875
vt 0.343750 0.750000
vt 0.343750 0.796875
vt 0.289062 0.796875
vt 0.289062 0.750000
vt 0.343750 0.695312
vt 0.343750 0.742188
vt 0.289062 0.742188
vt 0.289062 0.695312
vt 0.046875 0.609375
vt 0.046875 0.554688
vt 0.062500 0.554688
vt 0.062500 0.609375
vt 0.070312 0.554688
vt 0.070312 0.609375
vt 0.085938 0.609375
vt 0.085938 0.554688
vt 0.195312 0.539062
vt 0.195312 0.585938
vt 0.179688 0.585938
vt 0.179688 0.539062
vt 0.171875 0.539062
vt 0.171875 0.585938
vt 0.156250 0.585938
vt 0.156250 0.539062
vt 0.468750 0.601562
vt 0.468750 0.617188
vt 0.453125 0.617188
vt 0.453125 0.601562
vt 0.421875 0.531250
vt 0.421875 0.546875
vt 0.406250 0.546875
vt 0.406250 0.531250
vt 0.273438 0.554688
vt 0.273438 0.539062
vt 0.296875 0.539062
vt 0.296875 0.554688
vt 0.304688 0.539062
vt 0.304688 0.554688
vt 0.328125 0.554688
vt 0.328125 0.539062
vt 0.468750 0.851562
vt 0.468750 0.867188
vt 0.445312 0.867188
vt 0.445312 0.851562
vt 0.460938 0.906250
vt 0.460938 0.921875
vt 0.437500 0.921875
vt 0.437500 0.906250
vt 0.085938 0.531250
vt 0.085938 0.546875
vt 0.070312 0.546875
vt 0.070312 0.531250
vt 0.398438 0.531250
vt 0.398438 0.546875
vt 0.382812 0.546875
vt 0.382812 0.531250
vt 0.429688 0.570312
vt 0.429688 0.554688
vt 0.453125 0.554688
vt 0.453125 0.570312
vt 0.437500 0.929688
vt 0.437500 0.945312
vt 0.460938 0.945312
vt 0.460938 0.929688
vt 0.421875 0.554688
vt 0.421875 0.570312
vt 0.398438 0.570312
vt 0.398438 0.554688
vt 0.453125 0.796875
vt 0.453125 0.812500
vt 0.429688 0.812500
vt 0.429688 0.796875
vt 0.039062 0.531250
vt 0.039062 0.546875
vt 0.023438 0.546875
vt 0.023438 0.531250
vt 0.062500 0.531250
vt 0.062500 0.546875
vt 0.046875 0.546875
vt 0.046875 0.531250
vt 0.429688 0.968750
vt 0.429688 0.953125
vt 0.453125 0.953125
vt 0.453125 0.968750
vt 0.429688 0.820312
vt 0.429688 0.835938
vt 0.453125 0.835938
vt 0.453125 0.820312
vt 0.359375 0.562500
vt 0.359375 0.578125
vt 0.335938 0.578125
vt 0.335938 0.562500
vt 0.328125 0.562500
vt 0.328125 0.578125
vt 0.304688 0.578125
vt 0.304688 0.562500
vt 0.437500 0.843750
vt 0.437500 0.867188
vt 0.414062 0.867188
vt 0.414062 0.843750
vt 0.296875 0.562500
vt 0.296875 0.585938
vt 0.273438 0.585938
vt 0.273438 0.562500
vt 0.179688 0.828125
vt 0.179688 0.804688
vt 0.320312 0.804688
vt 0.320312 0.828125
vt 0.203125 0.976562
vt 0.203125 1.000000
vt 0.343750 1.000000
vt 0.343750 0.976562
vt 0.320312 0.835938
vt 0.320312 0.859375
vt 0.179688 0.859375
vt 0.179688 0.835938
vt 0.320312 0.867188
vt 0.320312 0.890625
vt 0.179688 0.890625
vt 0.179688 0.867188
vt 0.476562 0.640625
vt 0.476562 0.648438
vt 0.468750 0.648438
vt 0.468750 0.640625
vt 0.375000 0.523438
vt 0.375000 0.531250
vt 0.367188 0.531250
vt 0.367188 0.523438
vt 0.132812 0.531250
vt 0.132812 0.523438
vt 0.148438 0.523438
vt 0.148438 0.531250
vt 0.156250 0.523438
vt 0.156250 0.531250
vt 0.171875 0.531250
vt 0.171875 0.523438
vt 0.125000 0.523438
vt 0.125000 0.531250
vt 0.109375 0.531250
vt 0.109375 0.523438
vt 0.484375 0.898438
vt 0.484375 0.906250
vt 0.468750 0.906250
vt 0.468750 0.898438
vt 0.312500 0.945312
vt 0.304688 0.945312
vt 0.031250 0.679688
vt 0.023438 0.679688
vt 0.468750 0.937500
vt 0.468750 0.929688
vt 0.484375 0.929688
vt 0.484375 0.937500
vt 0.468750 0.914062
vt 0.468750 0.921875
vt 0.484375 0.921875
vt 0.484375 0.914062
vt 0.015625 0.679688
vt 0.000000 0.679688
vt 0.296875 0.945312
vt 0.281250 0.945312
vt 0.234375 0.945312
vt 0.226562 0.945312
vt 0.273438 0.945312
vt 0.265625 0.945312
vt 0.460938 0.546875
vt 0.460938 0.539062
vt 0.476562 0.539062
vt 0.476562 0.546875
vt 0.468750 0.945312
vt 0.468750 0.953125
vt 0.484375 0.953125
vt 0.484375 0.945312
vt 0.257812 0.945312
vt 0.242188 0.945312
vt 0.218750 0.945312
vt 0.203125 0.945312
vt 0.468750 0.578125
vt 0.468750 0.593750
vt 0.460938 0.593750
vt 0.460938 0.578125
vt 0.468750 0.554688
vt 0.468750 0.570312
vt 0.460938 0.570312
vt 0.460938 0.554688
vt 0.468750 0.625000
vt 0.468750 0.632812
vt 0.445312 0.531250
vt 0.445312 0.523438
vt 0.437500 0.531250
vt 0.437500 0.515625
vt 0.429688 0.531250
vt 0.429688 0.515625
vt 0.250000 0.523438
vt 0.250000 0.539062
vt 0.242188 0.539062
vt 0.242188 0.523438
vt 0.265625 0.523438
vt 0.265625 0.539062
vt 0.257812 0.539062
vt 0.257812 0.523438
vt 0.406250 0.906250
vt 0.406250 0.914062
vt 0.445312 0.617188
vt 0.445312 0.609375
vt 0.125000 0.710938
vt 0.125000 0.695312
vt 0.125000 0.734375
vt 0.125000 0.718750
vt 0.468750 0.976562
vt 0.468750 0.984375
vt 0.414062 0.984375
vt 0.414062 0.976562
vt 0.453125 0.578125
vt 0.453125 0.585938
vt 0.398438 0.585938
vt 0.398438 0.578125
vt 0.171875 0.648438
vt 0.171875 0.593750
vt 0.195312 0.593750
vt 0.195312 0.648438
vt 0.351562 0.742188
vt 0.351562 0.796875
vt 0.375000 0.796875
vt 0.375000 0.742188
vt 0.453125 0.539062
vt 0.453125 0.546875
vt 0.429688 0.546875
vt 0.429688 0.539062
vt 0.453125 0.781250
vt 0.453125 0.789062
vt 0.429688 0.789062
vt 0.429688 0.781250
vt 0.101562 0.531250
vt 0.101562 0.546875
vt 0.093750 0.546875
vt 0.093750 0.531250
vt 0.210938 0.523438
vt 0.210938 0.539062
vt 0.203125 0.539062
vt 0.203125 0.523438
vt 0.460938 0.796875
vt 0.460938 0.789062
vt 0.476562 0.789062
vt 0.476562 0.796875
vt 0.218750 0.531250
vt 0.218750 0.539062
vt 0.234375 0.539062
vt 0.234375 0.531250
vt 0.015625 0.531250
vt 0.015625 0.546875
vt 0.000000 0.546875
vt 0.000000 0.531250
vt 0.460938 0.625000
vt 0.460938 0.640625
vt 0.445312 0.640625
vt 0.445312 0.625000
vt 0.164062 0.601562
vt 0.164062 0.617188
vt 0.156250 0.617188
vt 0.156250 0.601562
vt 0.101562 0.554688
vt 0.101562 0.570312
vt 0.093750 0.570312
vt 0.093750 0.554688
vt 0.460938 0.828125
vt 0.460938 0.820312
vt 0.476562 0.820312
vt 0.476562 0.828125
vt 0.460938 0.804688
vt 0.460938 0.812500
vt 0.476562 0.812500
vt 0.476562 0.804688
vt 0.375000 0.539062
vt 0.375000 0.554688
vt 0.359375 0.554688
vt 0.359375 0.539062
vt 0.460938 0.648438
vt 0.460938 0.664062
vt 0.445312 0.664062
vt 0.445312 0.648438
vt 0.125000 0.742188
vt 0.125000 0.757812
vt 0.117188 0.757812
vt 0.117188 0.742188
vt 0.375000 0.812500
vt 0.375000 0.828125
vt 0.367188 0.828125
vt 0.367188 0.812500
vt 0.460938 0.968750
vt 0.460938 0.960938
vt 0.476562 0.960938
vt 0.476562 0.968750
vt 0.460938 0.835938
vt 0.460938 0.843750
vt 0.476562 0.843750
vt 0.476562 0.835938
vt 0.351562 0.539062
vt 0.351562 0.554688
vt 0.335938 0.554688
vt 0.335938 0.539062
vt 0.218750 0.546875
vt 0.218750 0.562500
vt 0.203125 0.562500
vt 0.203125 0.546875
vt 0.054688 0.687500
vt 0.054688 0.734375
vt 0.000000 0.734375
vt 0.000000 0.687500
vt 0.117188 0.687500
vt 0.117188 0.734375
vt 0.062500 0.734375
vt 0.062500 0.687500
vt 0.000000 0.609375
vt 0.000000 0.554688
vt 0.015625 0.554688
vt 0.015625 0.609375
vt 0.023438 0.554688
vt 0.023438 0.609375
vt 0.039062 0.609375
vt 0.039062 0.554688
vt 0.429688 0.898438
vt 0.429688 0.945312
vt 0.414062 0.945312
vt 0.414062 0.898438
vt 0.421875 0.781250
vt 0.421875 0.828125
vt 0.406250 0.828125
vt 0.406250 0.781250
s 0
usemtl m_cc8512ad-8eb2-3770-c2fb-18dd77d428eb
f 9/1/1 20/2/1 19/3/1 2/4/1
f 6/5/2 18/6/2 17/7/2 10/8/2
f 1/9/3 36/10/3 22/11/3
f 19/12/4 33/13/4 2/14/4
f 10/15/5 17/7/5 24/16/5 14/17/5
f 13/18/6 21/19/6 20/20/6 9/1/6
f 14/17/2 24/16/2 23/21/2 5/22/2
f 1/23/1 22/24/1 21/25/1 13/18/1
f 11/26/7 26/27/7 25/28/7 8/29/7
f 4/30/4 34/31/4 32/32/4
f 4/33/8 32/34/8 31/35/8 12/36/8
f 12/37/9 31/35/9 30/38/9 16/39/9
f 16/40/8 30/38/8 29/41/8 3/42/8
f 29/43/3 35/44/3 3/45/3
f 7/46/7 28/47/7 27/48/7 15/49/7
f 15/49/10 27/48/10 26/50/10 11/26/10
f 18/51/11 25/52/11 26/53/11 17/54/11
f 17/54/12 26/53/12 27/55/12 24/56/12
f 24/56/11 27/55/11 28/57/11 23/58/11
f 22/11/3 36/10/3 35/44/3 29/43/3
f 22/59/13 29/60/13 30/61/13 21/62/13
f 21/62/14 30/61/14 31/63/14 20/64/14
f 20/64/13 31/63/13 32/65/13 19/66/13
f 32/32/4 34/31/4 33/13/4 19/12/4
f 6/67/4 40/68/4 18/69/4
f 18/69/4 40/68/4 39/70/4 25/71/4
f 25/71/4 39/70/4 8/72/4
f 7/73/3 38/74/3 28/75/3
f 28/75/3 38/74/3 37/76/3 23/77/3
f 23/77/3 37/76/3 5/78/3
f 2/79/15 6/80/15 10/81/15 9/82/15
f 9/82/16 10/81/16 14/83/16 13/84/16
f 13/84/15 14/83/15 5/85/15 1/86/15
f 1/9/3 5/78/3 37/76/3 36/10/3
f 36/10/3 37/76/3 38/74/3 35/44/3
f 35/44/3 38/74/3 7/73/3 3/45/3
f 3/87/17 7/88/17 15/89/17 16/90/17
f 16/90/18 15/89/18 11/91/18 12/92/18
f 12/92/17 11/91/17 8/93/17 4/94/17
f 4/30/4 8/72/4 39/70/4 34/31/4
f 34/31/4 39/70/4 40/68/4 33/13/4
f 33/13/4 40/68/4 6/67/4 2/14/4
f 44/95/13 42/96/13 41/97/13 43/98/13
f 47/99/11 45/100/11 46/101/11 48/102/11
f 41/103/15 42/104/15 46/105/15 45/106/15
f 44/107/17 43/108/17 47/109/17 48/110/17
f 43/111/3 41/112/3 45/113/3 47/114/3
f 48/115/4 46/116/4 42/117/4 44/118/4
f 49/119/13 59/120/13 58/121/13 50/122/13
f 54/123/19 57/124/19 60/125/19 53/126/19
f 49/127/15 50/128/15 54/129/15 53/130/15
f 52/131/17 51/132/17 55/133/17 56/134/17
f 53/135/3 60/136/3 59/137/3 49/138/3
f 50/139/4 58/140/4 57/141/4 54/142/4
f 56/143/4 57/141/4 58/140/4 52/144/4
f 52/145/13 58/121/13 59/120/13 51/146/13
f 51/147/3 59/137/3 60/136/3 55/148/3
f 55/149/11 60/125/11 57/124/11 56/150/11
f 61/151/13 69/152/13 72/153/13 62/154/13
f 66/155/19 71/156/19 70/157/19 65/158/19
f 61/159/15 62/160/15 66/161/15 65/162/15
f 64/163/17 63/164/17 67/165/17 68/166/17
f 65/167/3 70/168/3 69/169/3 61/170/3
f 62/171/4 72/172/4 71/173/4 66/174/4
f 63/175/3 69/169/3 70/168/3 67/176/3
f 67/177/11 70/157/11 71/156/11 68/178/11
f 68/179/4 71/173/4 72/172/4 64/180/4
f 64/181/13 72/153/13 69/152/13 63/182/13
f 76/183/13 74/184/13 73/185/13 75/186/13
f 79/187/11 77/188/11 78/189/11 80/190/11
f 73/191/15 74/192/15 78/193/15 77/194/15
f 76/195/17 75/196/17 79/197/17 80/198/17
f 75/199/3 73/200/3 77/201/3 79/202/3
f 80/203/4 78/204/4 74/205/4 76/206/4
f 84/207/13 82/208/13 81/209/13 83/210/13
f 87/211/11 85/212/11 86/213/11 88/214/11
f 81/215/15 82/216/15 86/217/15 85/218/15
f 84/219/17 83/220/17 87/221/17 88/222/17
f 83/223/3 81/224/3 85/225/3 87/226/3
f 88/227/4 86/228/4 82/229/4 84/230/4
f 92/231/13 90/232/13 89/233/13 91/234/13
f 95/235/11 93/236/11 94/237/11 96/238/11
f 89/239/20 90/240/20 94/241/20 93/242/20
f 92/243/21 91/244/21 95/245/21 96/246/21
f 91/247/22 89/248/22 93/249/22 95/250/22
f 96/251/23 94/252/23 90/253/23 92/254/23
f 100/255/13 98/256/13 97/257/13 99/258/13
f 103/259/11 101/260/11 102/261/11 104/262/11
f 97/263/20 98/264/20 102/265/20 101/266/20
f 100/267/21 99/268/21 103/269/21 104/270/21
f 99/271/22 97/272/22 101/273/22 103/274/22
f 104/275/23 102/276/23 98/277/23 100/278/23
f 108/279/13 106/280/13 105/281/13 107/282/13
f 111/283/11 109/284/11 110/285/11 112/286/11
f 105/287/20 106/288/20 110/289/20 109/290/20
f 108/291/21 107/292/21 111/293/21 112/294/21
f 107/295/22 105/296/22 109/297/22 111/298/22
f 112/299/23 110/300/23 106/301/23 108/302/23
f 116/303/13 114/304/13 113/305/13 115/306/13
f 119/307/11 117/308/11 118/309/11 120/310/11
f 113/311/20 114/312/20 118/313/20 117/314/20
f 116/315/21 115/316/21 119/317/21 120/318/21
f 115/319/22 113/320/22 117/321/22 119/322/22
f 120/323/23 118/324/23 114/325/23 116/326/23
f 124/327/13 122/328/13 121/329/13 123/330/13
f 127/331/11 125/332/11 126/333/11 128/334/11
f 121/335/15 122/336/15 126/337/15 125/338/15
f 124/339/17 123/340/17 127/341/17 128/342/17
f 123/343/3 121/344/3 125/345/3 127/346/3
f 128/347/4 126/348/4 122/349/4 124/350/4
f 130/351/13 129/352/3 132/351/17 131/352/15
f 133/353/17 134/354/15 135/353/15 136/354/17
f 129/355/15 130/356/15 134/357/15 133/358/15
f 132/359/17 131/360/17 135/361/17 136/362/17
f 129/363/3 133/364/3 131/363/3 135/364/3
f 134/365/3 130/366/3 136/365/3 132/366/3
f 138/367/13 137/368/3 140/367/17 139/368/15
f 141/369/17 142/370/15 143/369/15 144/370/17
f 137/371/15 138/372/15 142/373/15 141/374/15
f 140/375/17 139/376/17 143/377/17 144/378/17
f 137/379/3 141/380/3 139/379/3 143/380/3
f 142/381/3 138/382/3 144/381/3 140/382/3
f 148/383/13 146/384/13 145/385/13 147/386/13
f 151/387/11 149/388/11 150/389/11 152/390/11
f 146/391/24 150/391/11 145/392/3 149/392/17
f 147/393/4 151/393/15 148/394/4 152/394/17
f 145/395/3 149/395/3 147/396/3 151/396/3
f 150/397/3 146/397/3 152/398/3 148/398/3
f 156/399/13 154/400/13 153/401/13 155/402/13
f 159/403/11 157/404/11 158/405/11 160/406/11
f 154/407/24 158/407/11 153/408/3 157/408/17
f 155/409/4 159/409/15 156/410/4 160/410/17
f 153/411/3 157/411/3 155/412/3 159/412/3
f 158/413/3 154/413/3 160/414/3 156/414/3
f 164/415/13 162/416/13 161/417/13 163/418/13
f 167/419/11 165/420/11 166/421/11 168/422/11
f 161/423/15 162/424/15 166/425/15 165/426/15
f 164/427/17 163/428/17 167/429/17 168/430/17
f 163/431/3 161/432/3 165/433/3 167/434/3
f 168/435/4 166/436/4 162/437/4 164/438/4
f 172/439/13 170/440/13 169/441/13 171/442/13
f 175/443/11 173/444/11 174/445/11 176/446/11
f 169/447/15 170/448/15 174/449/15 173/450/15
f 172/451/17 171/452/17 175/453/17 176/454/17
f 171/455/3 169/456/3 173/457/3 175/458/3
f 176/459/4 174/460/4 170/461/4 172/462/4
f 180/463/1 178/464/1 177/465/1 179/466/1
f 183/467/7 181/468/7 182/469/7 184/470/7
f 177/471/2 178/472/2 182/473/2 181/474/2
f 180/475/8 179/476/8 183/477/8 184/478/8
f 179/479/3 177/480/3 181/481/3 183/482/3
f 184/483/4 182/484/4 178/485/4 180/486/4
f 188/487/1 186/488/1 185/489/1 187/490/1
f 191/491/7 189/492/7 190/493/7 192/494/7
f 185/495/2 186/496/2 190/497/2 189/498/2
f 188/499/8 187/500/8 191/501/8 192/502/8
f 187/503/3 185/504/3 189/505/3 191/506/3
f 192/507/4 190/508/4 186/509/4 188/510/4
f 196/511/13 194/512/13 193/513/13 195/514/13
f 199/515/11 197/516/11 198/517/11 200/518/11
f 193/519/15 194/520/15 198/521/15 197/522/15
f 196/523/17 195/524/17 199/525/17 200/526/17
f 195/527/3 193/528/3 197/529/3 199/530/3
f 200/531/4 198/532/4 194/533/4 196/534/4
