# Blender 3.3.21
# www.blender.org
mtllib turret_btr80a.mtl
o turret
v 0.849378 0.694688 0.837800
v 0.849378 0.757188 0.837800
v 0.849378 0.694688 -0.704075
v 0.849378 0.757188 -0.704075
v -0.830309 0.757188 0.837800
v -0.830309 0.694688 0.837800
v -0.830309 0.757188 -0.704075
v -0.830309 0.694688 -0.704075
v 0.568484 1.500788 0.038670
v 0.584816 1.291738 -0.171487
v 0.517458 1.452325 0.082912
v 0.533790 1.243275 -0.127245
v 0.519356 1.325426 -0.210085
v 0.503024 1.534476 0.000072
v 0.468329 1.276963 -0.165842
v 0.451997 1.486013 0.044314
v 0.441919 1.451189 0.094947
v 0.458252 1.242138 -0.115210
v 0.390893 1.402726 0.139189
v 0.407225 1.193676 -0.070968
v 0.392791 1.275826 -0.153807
v 0.376459 1.484877 0.056349
v 0.341764 1.227363 -0.109565
v 0.325432 1.436414 0.100592
v 0.448650 1.555797 -0.016974
v 0.464982 1.346746 -0.227131
v 0.397623 1.507334 0.027268
v 0.413955 1.298283 -0.182889
v 0.399521 1.380433 -0.265729
v 0.383189 1.589484 -0.055572
v 0.348494 1.331971 -0.221486
v 0.332162 1.541022 -0.011330
v 0.566783 0.764515 0.639315
v 0.566783 0.764515 -0.548185
v -0.558217 0.764515 -0.548185
v -0.558217 0.764515 0.639315
v -0.353106 1.542725 0.008695
v -0.369438 1.333674 -0.201461
v -0.302080 1.494262 0.052938
v -0.318412 1.285211 -0.157219
v -0.434899 1.299986 -0.162864
v -0.418567 1.509037 0.047293
v -0.383872 1.251523 -0.118621
v -0.367540 1.460574 0.091535
v -0.226541 1.493125 0.064973
v -0.242873 1.284075 -0.145184
v -0.175515 1.444663 0.109215
v -0.191847 1.235612 -0.100942
v -0.308334 1.250387 -0.106586
v -0.292002 1.459438 0.103570
v -0.257308 1.201924 -0.062344
v -0.240975 1.410975 0.147813
v -0.233272 1.597733 -0.046949
v -0.249604 1.388682 -0.257105
v -0.182245 1.549270 -0.002706
v -0.198577 1.340219 -0.212863
v -0.315064 1.354994 -0.218508
v -0.298732 1.564045 -0.008351
v -0.264038 1.306531 -0.174265
v -0.247706 1.515582 0.035891
v -0.138356 1.124644 0.114864
v -0.138356 1.645271 -0.453300
v -0.138356 0.836645 -0.149038
v -0.138356 1.357272 -0.717203
v -0.469606 1.645271 -0.453300
v -0.469606 1.124644 0.114864
v -0.469606 1.357272 -0.717203
v -0.469606 0.836645 -0.149038
v -0.137731 1.002161 -0.267695
v -0.137731 1.540829 -0.372402
v -0.137731 0.927388 -0.652370
v -0.137731 1.466056 -0.757077
v -0.470231 1.540829 -0.372402
v -0.470231 1.002161 -0.267695
v -0.470231 1.466056 -0.757077
v -0.470231 0.927388 -0.652370
v -0.137731 1.594009 -0.423069
v -0.137731 1.645429 -0.452757
v -0.137731 1.415884 -0.731591
v -0.137731 1.467304 -0.761278
v -0.470231 1.645429 -0.452757
v -0.470231 1.594009 -0.423069
v -0.470231 1.467304 -0.761278
v -0.470231 1.415884 -0.731591
v 0.390003 0.766328 0.846805
v 0.390003 1.204062 0.540300
v 0.390003 0.745894 0.817623
v 0.390003 1.183629 0.511118
v -0.145934 1.204062 0.540300
v -0.145934 0.766328 0.846805
v -0.145934 1.183629 0.511118
v -0.145934 0.745894 0.817623
v 0.784703 0.766328 0.565713
v 0.600640 1.155425 0.364843
v 0.751845 0.732272 0.529854
v 0.567781 1.121369 0.328984
v 0.294209 1.155425 0.645635
v 0.478273 0.766328 0.846506
v 0.261350 1.121369 0.609776
v 0.445414 0.732272 0.810647
v 0.925016 0.766328 0.022478
v 0.661851 1.155426 -0.048037
v 0.896828 0.745895 0.014925
v 0.633663 1.134992 -0.055590
v 0.517074 1.155425 0.492278
v 0.780239 0.766328 0.562793
v 0.488886 1.134992 0.484725
v 0.752051 0.745895 0.555240
v -0.791382 0.766328 0.562793
v -0.528216 1.155425 0.492278
v -0.744402 0.732272 0.550205
v -0.481236 1.121369 0.479690
v -0.669758 1.155426 -0.035963
v -0.932923 0.766328 0.034552
v -0.622778 1.121369 -0.048551
v -0.885943 0.732272 0.021964
v -0.489415 0.766328 0.846506
v -0.305351 1.155425 0.645635
v -0.456556 0.732272 0.810647
v -0.272493 1.121369 0.609776
v -0.611782 1.155425 0.364843
v -0.795846 0.766328 0.565713
v -0.578923 1.121369 0.328984
v -0.762987 0.732272 0.529854
v -0.305351 1.155426 -0.573879
v -0.486993 0.771448 -0.772107
v -0.266613 1.115275 -0.531603
v -0.448254 0.731298 -0.729831
v -0.793424 0.771448 -0.491314
v -0.611782 1.155426 -0.293087
v -0.754685 0.731298 -0.449039
v -0.573043 1.115275 -0.250811
v 0.472191 1.155425 -0.502600
v 0.472191 0.766328 -0.775049
v 0.472191 1.121369 -0.453963
v 0.472191 0.732272 -0.726412
v -0.478434 0.766328 -0.775049
v -0.478434 1.155425 -0.502600
v -0.478434 0.732272 -0.726412
v -0.478434 1.121369 -0.453963
v 0.599948 1.154709 -0.292332
v 0.784012 0.765611 -0.493202
v 0.565360 1.118860 -0.254586
v 0.749423 0.729763 -0.455456
v 0.472973 0.765611 -0.778217
v 0.288909 1.154709 -0.577347
v 0.438385 0.729763 -0.740471
v 0.254321 1.118860 -0.539600
v 0.658615 1.155426 0.107719
v 0.921781 0.766328 0.037204
v 0.611636 1.121369 0.120307
v 0.874801 0.732272 0.049792
v 0.778621 0.766328 -0.497074
v 0.515456 1.155426 -0.426559
v 0.731642 0.732272 -0.484486
v 0.468476 1.121369 -0.413971
v -0.528216 1.155426 -0.420522
v -0.791382 0.766328 -0.491037
v -0.481236 1.121369 -0.407934
v -0.744402 0.732272 -0.478449
v -0.932923 0.766328 0.037204
v -0.669758 1.155426 0.107719
v -0.885943 0.732272 0.049792
v -0.622778 1.121369 0.120307
v 0.358128 1.142187 0.539675
v 0.358128 1.203437 0.539675
v 0.358128 1.142187 0.327175
v 0.358128 1.203438 0.327175
v -0.145309 1.203437 0.539675
v -0.145309 1.142187 0.539675
v -0.145309 1.203438 0.327175
v -0.145309 1.142187 0.327175
v -0.145934 0.766328 0.846805
v -0.145934 1.155425 0.574356
v -0.145934 0.745894 0.817623
v -0.145934 1.134991 0.545174
v -0.489684 1.155425 0.574356
v -0.489684 0.766328 0.846805
v -0.489684 1.134991 0.545174
v -0.489684 0.745894 0.817623
v 0.477503 0.766328 0.846805
v 0.477503 1.009514 0.676525
v 0.477503 0.745894 0.817623
v 0.477503 0.989080 0.647342
v 0.358753 1.009514 0.676525
v 0.358753 0.766328 0.846805
v 0.358753 0.989080 0.647342
v 0.358753 0.745894 0.817623
v 0.191783 1.139515 0.451815
v 0.191783 1.139515 0.326816
v 0.191783 0.639515 0.451815
v 0.191783 0.639515 0.326815
v -0.058217 1.139515 0.326816
v -0.058217 1.139515 0.451815
v -0.058217 0.639515 0.326815
v -0.058217 0.639515 0.451815
v 0.655628 1.082188 0.587800
v 0.655628 1.144688 0.587800
v 0.655628 1.082188 -0.516575
v 0.655628 1.144688 -0.516575
v -0.680309 1.144688 0.587800
v -0.680309 1.082188 0.587800
v -0.680309 1.144688 -0.516575
v -0.680309 1.082188 -0.516575
v 0.656423 1.502170 -0.303446
v 0.656423 1.238107 -0.760815
v 0.656423 1.029103 -0.030321
v 0.656423 0.765041 -0.487691
v 0.279236 1.238107 -0.760815
v 0.279236 1.502170 -0.303446
v 0.279236 0.765041 -0.487691
v 0.279236 1.029103 -0.030321
v 0.655798 1.504411 -0.298018
v 0.655798 1.419889 -0.379640
v 0.655798 1.125822 0.094022
v 0.655798 1.041300 0.012400
v 0.282986 1.419889 -0.379640
v 0.282986 1.504411 -0.298018
v 0.282986 1.041300 0.012400
v 0.282986 1.125822 0.094022
v 0.530416 1.661142 -0.388012
v 0.530416 1.393955 -0.850794
v 0.530416 1.504175 -0.297387
v 0.530416 1.236988 -0.760169
v 0.281041 1.393955 -0.850794
v 0.281041 1.661142 -0.388012
v 0.281041 1.236988 -0.760169
v 0.281041 1.504175 -0.297387
v 0.530262 1.660076 -0.388118
v 0.530262 1.393513 -0.849818
v 0.655552 1.505115 -0.298651
v 0.655552 1.238552 -0.760351
v 0.437339 1.337165 -0.817285
v 0.437339 1.603728 -0.355585
v 0.562630 1.182204 -0.727818
v 0.562630 1.448767 -0.266119
v 0.317191 1.085312 0.599675
v 0.317191 1.263438 0.599675
v 0.317191 1.085312 0.326550
v 0.317191 1.263438 0.326550
v 0.150941 1.263438 0.599675
v 0.150941 1.085312 0.599675
v 0.150941 1.263438 0.326550
v 0.150941 1.085312 0.326550
vn -0.0000 1.0000 -0.0000
vn 1.0000 -0.0000 -0.0000
vn -0.0000 -1.0000 -0.0000
vn -1.0000 -0.0000 -0.0000
vn -0.0000 -0.0000 1.0000
vn -0.0000 -0.0000 -1.0000
vn 0.0550 -0.7042 -0.7079
vn 0.7875 -0.4053 0.4643
vn -0.0550 0.7042 0.7079
vn -0.7875 0.4053 -0.4643
vn 0.6139 0.5830 -0.5322
vn -0.6139 -0.5830 0.5322
vn -0.0550 -0.7042 -0.7079
vn 0.7875 0.4053 -0.4643
vn 0.0550 0.7042 0.7079
vn -0.7875 -0.4053 0.4643
vn -0.6139 0.5830 -0.5322
vn 0.6139 -0.5830 0.5322
vn -0.0000 0.6756 -0.7373
vn -0.0000 -0.6756 0.7373
vn -0.0000 0.7373 0.6756
vn -0.0000 -0.7373 -0.6756
vn -0.0000 0.9816 -0.1908
vn -0.0000 -0.9816 0.1908
vn -0.0000 0.1908 0.9816
vn -0.0000 -0.1908 -0.9816
vn -0.0000 0.8660 -0.5000
vn -0.0000 -0.8660 0.5000
vn -0.0000 0.5000 0.8660
vn -0.0000 -0.5000 -0.8660
vn -0.0000 0.8192 -0.5736
vn -0.0000 -0.8191 0.5736
vn -0.0000 0.5736 0.8192
vn -0.0000 -0.5736 -0.8192
vn -0.3875 0.8192 -0.4229
vn 0.7373 -0.0000 -0.6756
vn 0.3875 -0.8192 0.4229
vn -0.7373 -0.0000 0.6756
vn 0.5534 0.5736 0.6039
vn -0.5534 -0.5736 -0.6039
vn -0.5540 0.8192 -0.1485
vn 0.2588 -0.0000 -0.9659
vn 0.5540 -0.8192 0.1484
vn -0.2588 -0.0000 0.9659
vn 0.7912 0.5736 0.2120
vn -0.7912 -0.5736 -0.2120
vn 0.5540 0.8191 -0.1485
vn 0.2588 -0.0000 0.9659
vn -0.5540 -0.8192 0.1485
vn -0.2588 -0.0000 -0.9659
vn -0.7912 0.5736 0.2120
vn 0.7912 -0.5736 -0.2120
vn 0.3875 0.8192 -0.4229
vn 0.7373 -0.0000 0.6756
vn -0.3875 -0.8192 0.4229
vn -0.7373 -0.0000 -0.6756
vn -0.5534 0.5736 0.6039
vn 0.5534 -0.5736 -0.6039
vn -0.3875 -0.8192 -0.4229
vn 0.3875 0.8191 0.4229
vn -0.5534 0.5736 -0.6039
vn 0.5534 -0.5736 0.6039
vn -0.0000 -0.8192 -0.5736
vn -0.0000 0.8192 0.5736
vn -0.0000 0.5736 -0.8192
vn -0.0000 -0.5736 0.8192
vn 0.3875 -0.8192 -0.4229
vn -0.3875 0.8191 0.4229
vn 0.5534 0.5736 -0.6039
vn -0.5534 -0.5736 0.6039
vn 0.5540 -0.8192 -0.1485
vn -0.5540 0.8191 0.1485
vn 0.7912 0.5736 -0.2120
vn -0.7912 -0.5736 0.2120
vn -0.5540 -0.8192 -0.1485
vn 0.5540 0.8191 0.1485
vn -0.7912 0.5736 -0.2120
vn 0.7912 -0.5736 0.2120
vn -0.0000 0.8191 -0.5736
vn -0.0000 -0.7193 -0.6947
vn -0.0000 0.7193 0.6947
vn -0.0000 0.6947 -0.7193
vn -0.0000 -0.6947 0.7193
vn 0.8192 0.4967 -0.2868
vn -0.8192 -0.4967 0.2868
vn -0.5736 0.7094 -0.4096
vn 0.5736 -0.7094 0.4096
vt 0.205078 0.320312
vt 0.390625 0.673828
vt 0.658203 0.443359
vt 0.337891 0.722656
vt 0.207031 0.320312
vt 0.658203 0.441406
vt 0.205078 0.271484
vt 0.390625 0.625000
vt 0.662109 0.935547
vt 0.337891 0.673828
vt 0.207031 0.271484
vt 0.662109 0.933594
vt 0.390625 0.722656
vt 0.207031 0.320312
vt 0.710938 0.441406
vt 0.337891 0.673828
vt 0.208984 0.320312
vt 0.710938 0.443359
vt 0.390625 0.673828
vt 0.207031 0.271484
vt 0.714844 0.933594
vt 0.337891 0.625000
vt 0.208984 0.271484
vt 0.714844 0.935547
vt 0.712891 0.802734
vt 0.718750 0.351562
vt 0.035156 0.345703
vt 0.716797 0.353516
vt 0.722656 0.802734
vt 0.035156 0.335938
vt 0.712891 0.800781
vt 0.718750 0.349609
vt 0.503906 0.333984
vt 0.716797 0.351562
vt 0.722656 0.800781
vt 0.503906 0.324219
vt 0.718750 0.353516
vt 0.712891 0.748047
vt 0.037109 0.335938
vt 0.716797 0.351562
vt 0.722656 0.748047
vt 0.037109 0.345703
vt 0.718750 0.351562
vt 0.712891 0.746094
vt 0.505859 0.324219
vt 0.716797 0.349609
vt 0.722656 0.746094
vt 0.505859 0.333984
vt 0.712891 0.728516
vt 0.718750 0.347656
vt 0.156250 0.287109
vt 0.716797 0.349609
vt 0.722656 0.728516
vt 0.156250 0.277344
vt 0.712891 0.726562
vt 0.718750 0.345703
vt 0.158203 0.287109
vt 0.716797 0.347656
vt 0.722656 0.726562
vt 0.158203 0.277344
vt 0.718750 0.349609
vt 0.712891 0.726562
vt 0.158203 0.277344
vt 0.716797 0.347656
vt 0.722656 0.726562
vt 0.158203 0.287109
vt 0.718750 0.347656
vt 0.712891 0.724609
vt 0.160156 0.277344
vt 0.716797 0.345703
vt 0.722656 0.724609
vt 0.160156 0.287109
vt 0.712891 0.697266
vt 0.718750 0.343750
vt 0.208984 0.287109
vt 0.716797 0.345703
vt 0.722656 0.697266
vt 0.208984 0.277344
vt 0.712891 0.695312
vt 0.718750 0.341797
vt 0.210938 0.287109
vt 0.716797 0.343750
vt 0.722656 0.695312
vt 0.210938 0.277344
vt 0.718750 0.345703
vt 0.712891 0.603516
vt 0.210938 0.277344
vt 0.716797 0.343750
vt 0.722656 0.603516
vt 0.210938 0.287109
vt 0.718750 0.343750
vt 0.712891 0.601562
vt 0.212891 0.277344
vt 0.716797 0.341797
vt 0.722656 0.601562
vt 0.212891 0.287109
vt 0.712891 0.601562
vt 0.718750 0.339844
vt 0.244141 0.287109
vt 0.716797 0.341797
vt 0.722656 0.601562
vt 0.244141 0.277344
vt 0.712891 0.599609
vt 0.718750 0.337891
vt 0.246094 0.287109
vt 0.716797 0.339844
vt 0.722656 0.599609
vt 0.246094 0.277344
vt 0.718750 0.341797
vt 0.712891 0.597656
vt 0.246094 0.277344
vt 0.716797 0.339844
vt 0.722656 0.597656
vt 0.246094 0.287109
vt 0.718750 0.339844
vt 0.712891 0.595703
vt 0.248047 0.277344
vt 0.716797 0.337891
vt 0.722656 0.595703
vt 0.248047 0.287109
vt 0.712891 0.595703
vt 0.718750 0.335938
vt 0.248047 0.287109
vt 0.716797 0.337891
vt 0.722656 0.595703
vt 0.248047 0.277344
vt 0.712891 0.593750
vt 0.718750 0.333984
vt 0.271484 0.287109
vt 0.716797 0.335938
vt 0.722656 0.593750
vt 0.271484 0.277344
vt 0.718750 0.337891
vt 0.712891 0.593750
vt 0.250000 0.277344
vt 0.716797 0.335938
vt 0.722656 0.593750
vt 0.250000 0.287109
vt 0.718750 0.335938
vt 0.712891 0.591797
vt 0.273438 0.277344
vt 0.716797 0.333984
vt 0.722656 0.591797
vt 0.273438 0.287109
vt 0.712891 0.568359
vt 0.718750 0.332031
vt 0.273438 0.287109
vt 0.716797 0.333984
vt 0.722656 0.568359
vt 0.273438 0.277344
vt 0.712891 0.566406
vt 0.718750 0.330078
vt 0.275391 0.287109
vt 0.716797 0.332031
vt 0.722656 0.566406
vt 0.275391 0.277344
vt 0.718750 0.333984
vt 0.712891 0.566406
vt 0.275391 0.277344
vt 0.716797 0.332031
vt 0.722656 0.566406
vt 0.275391 0.287109
vt 0.718750 0.332031
vt 0.712891 0.564453
vt 0.277344 0.277344
vt 0.716797 0.330078
vt 0.722656 0.564453
vt 0.277344 0.287109
vt 0.521484 0.560547
vt 0.535156 0.453125
vt 0.164062 0.369141
vt 0.289062 0.457031
vt 0.544922 0.560547
vt 0.164062 0.345703
vt 0.521484 0.548828
vt 0.535156 0.441406
vt 0.072266 0.363281
vt 0.289062 0.445312
vt 0.544922 0.548828
vt 0.072266 0.339844
vt 0.298828 0.457031
vt 0.490234 0.414062
vt 0.173828 0.345703
vt 0.525391 0.453125
vt 0.513672 0.414062
vt 0.173828 0.369141
vt 0.298828 0.445312
vt 0.490234 0.402344
vt 0.082031 0.339844
vt 0.525391 0.441406
vt 0.513672 0.402344
vt 0.082031 0.363281
vt 0.638672 0.511719
vt 0.490234 0.398438
vt 0.318359 0.357422
vt 0.400391 0.429688
vt 0.656250 0.511719
vt 0.318359 0.339844
vt 0.638672 0.500000
vt 0.490234 0.386719
vt 0.357422 0.357422
vt 0.400391 0.417969
vt 0.656250 0.500000
vt 0.357422 0.339844
vt 0.410156 0.429688
vt 0.095703 0.359375
vt 0.328125 0.339844
vt 0.480469 0.398438
vt 0.113281 0.359375
vt 0.328125 0.357422
vt 0.410156 0.417969
vt 0.095703 0.347656
vt 0.367188 0.339844
vt 0.480469 0.386719
vt 0.113281 0.347656
vt 0.367188 0.357422
vt 0.150391 0.287109
vt 0.228516 0.330078
vt 0.439453 0.287109
vt 0.609375 0.818359
vt 0.152344 0.287109
vt 0.439453 0.285156
vt 0.150391 0.275391
vt 0.228516 0.318359
vt 0.712891 0.544922
vt 0.609375 0.806641
vt 0.152344 0.275391
vt 0.712891 0.542969
vt 0.619141 0.818359
vt 0.152344 0.287109
vt 0.449219 0.285156
vt 0.218750 0.330078
vt 0.154297 0.287109
vt 0.449219 0.287109
vt 0.619141 0.806641
vt 0.152344 0.275391
vt 0.722656 0.542969
vt 0.218750 0.318359
vt 0.154297 0.275391
vt 0.722656 0.544922
vt 0.707031 0.507812
vt 0.724609 0.488281
vt 0.572266 0.917969
vt 0.707031 0.539062
vt 0.724609 0.507812
vt 0.572266 0.900391
vt 0.707031 0.505859
vt 0.724609 0.486328
vt 0.142578 0.427734
vt 0.707031 0.537109
vt 0.724609 0.505859
vt 0.142578 0.410156
vt 0.724609 0.539062
vt 0.707031 0.486328
vt 0.589844 0.900391
vt 0.707031 0.488281
vt 0.724609 0.486328
vt 0.589844 0.917969
vt 0.724609 0.537109
vt 0.707031 0.484375
vt 0.160156 0.410156
vt 0.707031 0.486328
vt 0.724609 0.484375
vt 0.160156 0.427734
vt 0.708984 0.648438
vt 0.724609 0.988281
vt 0.625000 0.892578
vt 0.710938 0.990234
vt 0.724609 0.648438
vt 0.625000 0.876953
vt 0.708984 0.646484
vt 0.724609 0.986328
vt 0.634766 0.580078
vt 0.710938 0.988281
vt 0.724609 0.646484
vt 0.634766 0.564453
vt 0.724609 0.990234
vt 0.708984 0.607422
vt 0.638672 0.876953
vt 0.710938 0.988281
vt 0.724609 0.607422
vt 0.638672 0.892578
vt 0.724609 0.988281
vt 0.708984 0.605469
vt 0.648438 0.564453
vt 0.710938 0.986328
vt 0.724609 0.605469
vt 0.648438 0.580078
vt 0.708984 0.537109
vt 0.724609 0.449219
vt 0.587891 0.712891
vt 0.707031 0.451172
vt 0.724609 0.537109
vt 0.587891 0.697266
vt 0.708984 0.535156
vt 0.724609 0.447266
vt 0.289062 0.412109
vt 0.707031 0.449219
vt 0.724609 0.535156
vt 0.289062 0.396484
vt 0.724609 0.451172
vt 0.708984 0.533203
vt 0.605469 0.697266
vt 0.707031 0.449219
vt 0.724609 0.533203
vt 0.605469 0.712891
vt 0.724609 0.449219
vt 0.708984 0.531250
vt 0.306641 0.396484
vt 0.707031 0.447266
vt 0.724609 0.531250
vt 0.306641 0.412109
vt 0.708984 0.531250
vt 0.724609 0.292969
vt 0.000000 0.410156
vt 0.707031 0.294922
vt 0.724609 0.531250
vt 0.000000 0.394531
vt 0.708984 0.529297
vt 0.724609 0.291016
vt 0.589844 0.917969
vt 0.707031 0.292969
vt 0.724609 0.529297
vt 0.589844 0.902344
vt 0.724609 0.294922
vt 0.708984 0.529297
vt 0.017578 0.394531
vt 0.707031 0.292969
vt 0.724609 0.529297
vt 0.017578 0.410156
vt 0.724609 0.292969
vt 0.708984 0.527344
vt 0.607422 0.902344
vt 0.707031 0.291016
vt 0.724609 0.527344
vt 0.607422 0.917969
vt 0.708984 0.527344
vt 0.724609 0.974609
vt 0.636719 0.744141
vt 0.710938 0.976562
vt 0.724609 0.527344
vt 0.636719 0.728516
vt 0.708984 0.525391
vt 0.724609 0.972656
vt 0.638672 0.892578
vt 0.710938 0.974609
vt 0.724609 0.525391
vt 0.638672 0.876953
vt 0.724609 0.976562
vt 0.708984 0.505859
vt 0.650391 0.728516
vt 0.710938 0.974609
vt 0.724609 0.505859
vt 0.650391 0.744141
vt 0.724609 0.974609
vt 0.708984 0.503906
vt 0.652344 0.876953
vt 0.710938 0.972656
vt 0.724609 0.503906
vt 0.652344 0.892578
vt 0.708984 0.503906
vt 0.724609 0.966797
vt 0.638672 0.460938
vt 0.710938 0.972656
vt 0.724609 0.503906
vt 0.638672 0.445312
vt 0.708984 0.501953
vt 0.724609 0.964844
vt 0.638672 0.439453
vt 0.710938 0.970703
vt 0.724609 0.501953
vt 0.638672 0.423828
vt 0.724609 0.972656
vt 0.708984 0.458984
vt 0.652344 0.445312
vt 0.710938 0.966797
vt 0.724609 0.458984
vt 0.652344 0.460938
vt 0.724609 0.970703
vt 0.708984 0.457031
vt 0.652344 0.423828
vt 0.710938 0.964844
vt 0.724609 0.457031
vt 0.652344 0.439453
vt 0.708984 0.457031
vt 0.724609 0.576172
vt 0.142578 0.443359
vt 0.695312 0.578125
vt 0.724609 0.457031
vt 0.142578 0.427734
vt 0.708984 0.455078
vt 0.724609 0.574219
vt 0.289062 0.443359
vt 0.695312 0.576172
vt 0.724609 0.455078
vt 0.289062 0.427734
vt 0.724609 0.578125
vt 0.708984 0.455078
vt 0.171875 0.427734
vt 0.695312 0.576172
vt 0.724609 0.455078
vt 0.171875 0.443359
vt 0.724609 0.576172
vt 0.708984 0.453125
vt 0.318359 0.427734
vt 0.695312 0.574219
vt 0.724609 0.453125
vt 0.318359 0.443359
vt 0.708984 0.453125
vt 0.724609 0.871094
vt 0.000000 0.359375
vt 0.710938 0.964844
vt 0.724609 0.453125
vt 0.000000 0.343750
vt 0.708984 0.451172
vt 0.724609 0.869141
vt 0.640625 0.949219
vt 0.710938 0.962891
vt 0.724609 0.451172
vt 0.640625 0.933594
vt 0.724609 0.964844
vt 0.708984 0.439453
vt 0.013672 0.343750
vt 0.710938 0.871094
vt 0.724609 0.439453
vt 0.013672 0.359375
vt 0.724609 0.962891
vt 0.708984 0.437500
vt 0.654297 0.933594
vt 0.710938 0.869141
vt 0.724609 0.437500
vt 0.654297 0.949219
vt 0.708984 0.437500
vt 0.726562 0.998047
vt 0.142578 0.410156
vt 0.708984 1.000000
vt 0.724609 0.437500
vt 0.142578 0.394531
vt 0.708984 0.435547
vt 0.726562 0.996094
vt 0.179688 0.410156
vt 0.708984 0.998047
vt 0.724609 0.435547
vt 0.179688 0.394531
vt 0.726562 1.000000
vt 0.708984 0.435547
vt 0.160156 0.394531
vt 0.708984 0.998047
vt 0.724609 0.435547
vt 0.160156 0.410156
vt 0.726562 0.998047
vt 0.708984 0.433594
vt 0.197266 0.394531
vt 0.708984 0.996094
vt 0.724609 0.433594
vt 0.197266 0.410156
vt 0.708984 0.433594
vt 0.726562 0.994141
vt 0.197266 0.410156
vt 0.708984 0.996094
vt 0.724609 0.433594
vt 0.197266 0.394531
vt 0.708984 0.431641
vt 0.726562 0.992188
vt 0.378906 0.410156
vt 0.708984 0.994141
vt 0.724609 0.431641
vt 0.378906 0.394531
vt 0.726562 0.996094
vt 0.708984 0.431641
vt 0.214844 0.394531
vt 0.708984 0.994141
vt 0.724609 0.431641
vt 0.214844 0.410156
vt 0.726562 0.994141
vt 0.708984 0.429688
vt 0.396484 0.394531
vt 0.708984 0.992188
vt 0.724609 0.429688
vt 0.396484 0.410156
vt 0.132812 0.283203
vt 0.701172 0.556641
vt 0.708984 0.429688
vt 0.443359 0.314453
vt 0.134766 0.283203
vt 0.708984 0.427734
vt 0.132812 0.277344
vt 0.701172 0.550781
vt 0.708984 0.427734
vt 0.443359 0.308594
vt 0.134766 0.277344
vt 0.708984 0.425781
vt 0.458984 0.314453
vt 0.134766 0.283203
vt 0.724609 0.427734
vt 0.685547 0.556641
vt 0.136719 0.283203
vt 0.724609 0.429688
vt 0.458984 0.308594
vt 0.134766 0.277344
vt 0.724609 0.425781
vt 0.685547 0.550781
vt 0.136719 0.277344
vt 0.724609 0.427734
vt 0.708984 0.425781
vt 0.722656 0.541016
vt 0.648438 0.529297
vt 0.712891 0.542969
vt 0.724609 0.425781
vt 0.648438 0.513672
vt 0.708984 0.423828
vt 0.722656 0.539062
vt 0.478516 0.351562
vt 0.712891 0.541016
vt 0.724609 0.423828
vt 0.478516 0.335938
vt 0.722656 0.542969
vt 0.708984 0.400391
vt 0.658203 0.513672
vt 0.712891 0.541016
vt 0.724609 0.400391
vt 0.658203 0.529297
vt 0.722656 0.541016
vt 0.708984 0.398438
vt 0.488281 0.335938
vt 0.712891 0.539062
vt 0.724609 0.398438
vt 0.488281 0.351562
vt 0.712891 0.525391
vt 0.720703 0.511719
vt 0.156250 0.296875
vt 0.716797 0.513672
vt 0.722656 0.525391
vt 0.156250 0.287109
vt 0.712891 0.523438
vt 0.720703 0.509766
vt 0.208984 0.296875
vt 0.716797 0.511719
vt 0.722656 0.523438
vt 0.208984 0.287109
vt 0.720703 0.513672
vt 0.712891 0.523438
vt 0.160156 0.287109
vt 0.716797 0.511719
vt 0.722656 0.523438
vt 0.160156 0.296875
vt 0.720703 0.511719
vt 0.712891 0.521484
vt 0.212891 0.287109
vt 0.716797 0.509766
vt 0.722656 0.521484
vt 0.212891 0.296875
vt 0.406250 0.306641
vt 0.677734 0.896484
vt 0.554688 0.291016
vt 0.669922 0.966797
vt 0.410156 0.306641
vt 0.554688 0.287109
vt 0.406250 0.291016
vt 0.677734 0.880859
vt 0.572266 0.291016
vt 0.669922 0.951172
vt 0.410156 0.291016
vt 0.572266 0.287109
vt 0.677734 0.966797
vt 0.425781 0.306641
vt 0.562500 0.287109
vt 0.669922 0.896484
vt 0.429688 0.306641
vt 0.562500 0.291016
vt 0.677734 0.951172
vt 0.425781 0.291016
vt 0.580078 0.287109
vt 0.669922 0.880859
vt 0.429688 0.291016
vt 0.580078 0.291016
vt 0.185547 0.308594
vt 0.314453 0.554688
vt 0.595703 0.730469
vt 0.000000 0.554688
vt 0.187500 0.308594
vt 0.595703 0.728516
vt 0.185547 0.273438
vt 0.314453 0.519531
vt 0.687500 0.818359
vt 0.000000 0.519531
vt 0.187500 0.273438
vt 0.687500 0.816406
vt 0.041016 0.554688
vt 0.187500 0.308594
vt 0.636719 0.728516
vt 0.273438 0.554688
vt 0.189453 0.308594
vt 0.636719 0.730469
vt 0.041016 0.519531
vt 0.187500 0.273438
vt 0.728516 0.816406
vt 0.273438 0.519531
vt 0.189453 0.273438
vt 0.728516 0.818359
vt 0.589844 0.421875
vt 0.185547 0.359375
vt 0.367188 0.392578
vt 0.136719 0.359375
vt 0.605469 0.421875
vt 0.367188 0.376953
vt 0.589844 0.404297
vt 0.185547 0.341797
vt 0.640625 0.482422
vt 0.136719 0.341797
vt 0.605469 0.404297
vt 0.640625 0.466797
vt 0.148438 0.359375
vt 0.591797 0.585938
vt 0.378906 0.376953
vt 0.173828 0.359375
vt 0.607422 0.585938
vt 0.378906 0.392578
vt 0.148438 0.341797
vt 0.591797 0.568359
vt 0.652344 0.466797
vt 0.173828 0.341797
vt 0.607422 0.568359
vt 0.652344 0.482422
vt 0.523438 0.681641
vt 0.228516 0.359375
vt 0.699219 0.761719
vt 0.185547 0.359375
vt 0.527344 0.681641
vt 0.699219 0.757812
vt 0.523438 0.664062
vt 0.228516 0.341797
vt 0.699219 0.744141
vt 0.185547 0.341797
vt 0.527344 0.664062
vt 0.699219 0.740234
vt 0.197266 0.359375
vt 0.529297 0.496094
vt 0.710938 0.757812
vt 0.216797 0.359375
vt 0.533203 0.496094
vt 0.710938 0.761719
vt 0.197266 0.341797
vt 0.529297 0.478516
vt 0.710938 0.740234
vt 0.216797 0.341797
vt 0.533203 0.478516
vt 0.710938 0.744141
vt 0.675781 0.505859
vt 0.707031 0.525391
vt 0.244141 0.332031
vt 0.699219 0.597656
vt 0.693359 0.505859
vt 0.244141 0.314453
vt 0.675781 0.500000
vt 0.707031 0.519531
vt 0.316406 0.332031
vt 0.699219 0.591797
vt 0.693359 0.500000
vt 0.316406 0.314453
vt 0.707031 0.597656
vt 0.677734 0.871094
vt 0.251953 0.314453
vt 0.699219 0.525391
vt 0.695312 0.871094
vt 0.251953 0.332031
vt 0.707031 0.591797
vt 0.677734 0.865234
vt 0.324219 0.314453
vt 0.699219 0.519531
vt 0.695312 0.865234
vt 0.324219 0.332031
vt 0.339844 0.332031
vt 0.417969 0.291016
vt 0.292969 0.333984
vt 0.406250 0.291016
vt 0.357422 0.332031
vt 0.292969 0.316406
vt 0.339844 0.324219
vt 0.417969 0.283203
vt 0.339844 0.308594
vt 0.406250 0.283203
vt 0.357422 0.324219
vt 0.339844 0.291016
vt 0.410156 0.291016
vt 0.669922 1.000000
vt 0.296875 0.316406
vt 0.414062 0.291016
vt 0.687500 1.000000
vt 0.296875 0.333984
vt 0.410156 0.283203
vt 0.669922 0.992188
vt 0.343750 0.291016
vt 0.414062 0.283203
vt 0.687500 0.992188
vt 0.343750 0.308594
vt 0.699219 0.474609
vt 0.533203 0.300781
vt 0.708984 0.984375
vt 0.699219 0.482422
vt 0.705078 0.474609
vt 0.708984 0.978516
vt 0.699219 0.466797
vt 0.533203 0.292969
vt 0.708984 0.962891
vt 0.699219 0.474609
vt 0.705078 0.466797
vt 0.708984 0.957031
vt 0.705078 0.482422
vt 0.533203 0.300781
vt 0.714844 0.978516
vt 0.527344 0.300781
vt 0.539062 0.300781
vt 0.714844 0.984375
vt 0.705078 0.474609
vt 0.533203 0.292969
vt 0.714844 0.957031
vt 0.527344 0.292969
vt 0.539062 0.292969
vt 0.714844 0.962891
s 1
usemtl BTR_80_TEX_1.png.001
f 4/10/1 7/19/1 5/13/1 2/4/1
f 3/7/2 4/11/2 2/5/2 1/1/2
f 8/22/3 3/8/3 1/2/3 6/16/3
f 7/20/4 8/23/4 6/17/4 5/14/4
f 6/18/5 1/3/5 2/6/5 5/15/5
f 7/21/6 4/12/6 3/9/6 8/24/6
f 12/34/7 15/43/7 13/37/7 10/28/7
f 11/31/8 12/35/8 10/29/8 9/25/8
f 16/46/9 11/32/9 9/26/9 14/40/9
f 15/44/10 16/47/10 14/41/10 13/38/10
f 14/42/11 9/27/11 10/30/11 13/39/11
f 15/45/12 12/36/12 11/33/12 16/48/12
f 20/58/7 23/67/7 21/61/7 18/52/7
f 19/55/8 20/59/8 18/53/8 17/49/8
f 24/70/9 19/56/9 17/50/9 22/64/9
f 23/68/10 24/71/10 22/65/10 21/62/10
f 22/66/11 17/51/11 18/54/11 21/63/11
f 23/69/12 20/60/12 19/57/12 24/72/12
f 28/82/7 31/91/7 29/85/7 26/76/7
f 27/79/8 28/83/8 26/77/8 25/73/8
f 32/94/9 27/80/9 25/74/9 30/88/9
f 31/92/10 32/95/10 30/89/10 29/86/10
f 30/90/11 25/75/11 26/78/11 29/87/11
f 31/93/12 28/84/12 27/81/12 32/96/12
f 40/106/13 43/115/13 41/109/13 38/100/13
f 39/103/14 40/107/14 38/101/14 37/97/14
f 44/118/15 39/104/15 37/98/15 42/112/15
f 43/116/16 44/119/16 42/113/16 41/110/16
f 42/114/17 37/99/17 38/102/17 41/111/17
f 43/117/18 40/108/18 39/105/18 44/120/18
f 48/130/13 51/139/13 49/133/13 46/124/13
f 47/127/14 48/131/14 46/125/14 45/121/14
f 52/142/15 47/128/15 45/122/15 50/136/15
f 51/140/16 52/143/16 50/137/16 49/134/16
f 50/138/17 45/123/17 46/126/17 49/135/17
f 51/141/18 48/132/18 47/129/18 52/144/18
f 56/154/13 59/163/13 57/157/13 54/148/13
f 55/151/14 56/155/14 54/149/14 53/145/14
f 60/166/15 55/152/15 53/146/15 58/160/15
f 59/164/16 60/167/16 58/161/16 57/158/16
f 58/162/17 53/147/17 54/150/17 57/159/17
f 59/165/18 56/156/18 55/153/18 60/168/18
f 64/178/19 67/187/19 65/181/19 62/172/19
f 63/175/2 64/179/2 62/173/2 61/169/2
f 68/190/20 63/176/20 61/170/20 66/184/20
f 67/188/4 68/191/4 66/185/4 65/182/4
f 66/186/21 61/171/21 62/174/21 65/183/21
f 67/189/22 64/180/22 63/177/22 68/192/22
f 72/202/23 75/211/23 73/205/23 70/196/23
f 71/199/2 72/203/2 70/197/2 69/193/2
f 76/214/24 71/200/24 69/194/24 74/208/24
f 75/212/4 76/215/4 74/209/4 73/206/4
f 74/210/25 69/195/25 70/198/25 73/207/25
f 75/213/26 72/204/26 71/201/26 76/216/26
f 80/226/27 83/235/27 81/229/27 78/220/27
f 79/223/2 80/227/2 78/221/2 77/217/2
f 84/238/28 79/224/28 77/218/28 82/232/28
f 83/236/4 84/239/4 82/233/4 81/230/4
f 82/234/29 77/219/29 78/222/29 81/231/29
f 83/237/30 80/228/30 79/225/30 84/240/30
f 88/250/31 91/259/31 89/253/31 86/244/31
f 87/247/2 88/251/2 86/245/2 85/241/2
f 92/262/32 87/248/32 85/242/32 90/256/32
f 91/260/4 92/263/4 90/257/4 89/254/4
f 90/258/33 85/243/33 86/246/33 89/255/33
f 91/261/34 88/252/34 87/249/34 92/264/34
f 96/274/35 99/283/35 97/277/35 94/268/35
f 95/271/36 96/275/36 94/269/36 93/265/36
f 100/286/37 95/272/37 93/266/37 98/280/37
f 99/284/38 100/287/38 98/281/38 97/278/38
f 98/282/39 93/267/39 94/270/39 97/279/39
f 99/285/40 96/276/40 95/273/40 100/288/40
f 104/298/41 107/307/41 105/301/41 102/292/41
f 103/295/42 104/299/42 102/293/42 101/289/42
f 108/310/43 103/296/43 101/290/43 106/304/43
f 107/308/44 108/311/44 106/305/44 105/302/44
f 106/306/45 101/291/45 102/294/45 105/303/45
f 107/309/46 104/300/46 103/297/46 108/312/46
f 112/322/47 115/331/47 113/325/47 110/316/47
f 111/319/48 112/323/48 110/317/48 109/313/48
f 116/334/49 111/320/49 109/314/49 114/328/49
f 115/332/50 116/335/50 114/329/50 113/326/50
f 114/330/51 109/315/51 110/318/51 113/327/51
f 115/333/52 112/324/52 111/321/52 116/336/52
f 120/346/53 123/355/53 121/349/53 118/340/53
f 119/343/54 120/347/54 118/341/54 117/337/54
f 124/358/55 119/344/55 117/338/55 122/352/55
f 123/356/56 124/359/56 122/353/56 121/350/56
f 122/354/57 117/339/57 118/342/57 121/351/57
f 123/357/58 120/348/58 119/345/58 124/360/58
f 128/370/59 131/379/59 129/373/59 126/364/59
f 127/367/36 128/371/36 126/365/36 125/361/36
f 132/382/60 127/368/60 125/362/60 130/376/60
f 131/380/38 132/383/38 130/377/38 129/374/38
f 130/378/61 125/363/61 126/366/61 129/375/61
f 131/381/62 128/372/62 127/369/62 132/384/62
f 136/394/63 139/403/63 137/397/63 134/388/63
f 135/391/2 136/395/2 134/389/2 133/385/2
f 140/406/64 135/392/64 133/386/64 138/400/64
f 139/404/4 140/407/4 138/401/4 137/398/4
f 138/402/65 133/387/65 134/390/65 137/399/65
f 139/405/66 136/396/66 135/393/66 140/408/66
f 144/418/67 147/427/67 145/421/67 142/412/67
f 143/415/54 144/419/54 142/413/54 141/409/54
f 148/430/68 143/416/68 141/410/68 146/424/68
f 147/428/56 148/431/56 146/425/56 145/422/56
f 146/426/69 141/411/69 142/414/69 145/423/69
f 147/429/70 144/420/70 143/417/70 148/432/70
f 152/442/71 155/451/71 153/445/71 150/436/71
f 151/439/48 152/443/48 150/437/48 149/433/48
f 156/454/72 151/440/72 149/434/72 154/448/72
f 155/452/50 156/455/50 154/449/50 153/446/50
f 154/450/73 149/435/73 150/438/73 153/447/73
f 155/453/74 152/444/74 151/441/74 156/456/74
f 160/466/75 163/475/75 161/469/75 158/460/75
f 159/463/42 160/467/42 158/461/42 157/457/42
f 164/478/76 159/464/76 157/458/76 162/472/76
f 163/476/44 164/479/44 162/473/44 161/470/44
f 162/474/77 157/459/77 158/462/77 161/471/77
f 163/477/78 160/468/78 159/465/78 164/480/78
f 168/490/1 171/499/1 169/493/1 166/484/1
f 167/487/2 168/491/2 166/485/2 165/481/2
f 172/502/3 167/488/3 165/482/3 170/496/3
f 171/500/4 172/503/4 170/497/4 169/494/4
f 170/498/5 165/483/5 166/486/5 169/495/5
f 171/501/6 168/492/6 167/489/6 172/504/6
f 176/514/79 179/523/79 177/517/79 174/508/79
f 175/511/2 176/515/2 174/509/2 173/505/2
f 180/526/32 175/512/32 173/506/32 178/520/32
f 179/524/4 180/527/4 178/521/4 177/518/4
f 178/522/33 173/507/33 174/510/33 177/519/33
f 179/525/34 176/516/34 175/513/34 180/528/34
f 184/538/31 187/547/31 185/541/31 182/532/31
f 183/535/2 184/539/2 182/533/2 181/529/2
f 188/550/32 183/536/32 181/530/32 186/544/32
f 187/548/4 188/551/4 186/545/4 185/542/4
f 186/546/33 181/531/33 182/534/33 185/543/33
f 187/549/34 184/540/34 183/537/34 188/552/34
f 192/562/6 195/571/6 193/565/6 190/556/6
f 191/559/2 192/563/2 190/557/2 189/553/2
f 196/574/5 191/560/5 189/554/5 194/568/5
f 195/572/4 196/575/4 194/569/4 193/566/4
f 194/570/1 189/555/1 190/558/1 193/567/1
f 195/573/3 192/564/3 191/561/3 196/576/3
f 200/586/1 203/595/1 201/589/1 198/580/1
f 199/583/2 200/587/2 198/581/2 197/577/2
f 204/598/3 199/584/3 197/578/3 202/592/3
f 203/596/4 204/599/4 202/593/4 201/590/4
f 202/594/5 197/579/5 198/582/5 201/591/5
f 203/597/6 200/588/6 199/585/6 204/600/6
f 208/610/30 211/619/30 209/613/30 206/604/30
f 207/607/2 208/611/2 206/605/2 205/601/2
f 212/622/29 207/608/29 205/602/29 210/616/29
f 211/620/4 212/623/4 210/617/4 209/614/4
f 210/618/27 205/603/27 206/606/27 209/615/27
f 211/621/28 208/612/28 207/609/28 212/624/28
f 216/634/80 219/643/80 217/637/80 214/628/80
f 215/631/2 216/635/2 214/629/2 213/625/2
f 220/646/81 215/632/81 213/626/81 218/640/81
f 219/644/4 220/647/4 218/641/4 217/638/4
f 218/642/82 213/627/82 214/630/82 217/639/82
f 219/645/83 216/636/83 215/633/83 220/648/83
f 224/658/30 227/667/30 225/661/30 222/652/30
f 223/655/2 224/659/2 222/653/2 221/649/2
f 228/670/29 223/656/29 221/650/29 226/664/29
f 227/668/4 228/671/4 226/665/4 225/662/4
f 226/666/27 221/651/27 222/654/27 225/663/27
f 227/669/28 224/660/28 223/657/28 228/672/28
f 232/682/30 235/691/30 233/685/30 230/676/30
f 231/679/84 232/683/84 230/677/84 229/673/84
f 236/694/29 231/680/29 229/674/29 234/688/29
f 235/692/85 236/695/85 234/689/85 233/686/85
f 234/690/86 229/675/86 230/678/86 233/687/86
f 235/693/87 232/684/87 231/681/87 236/696/87
f 240/706/1 243/715/1 241/709/1 238/700/1
f 239/703/2 240/707/2 238/701/2 237/697/2
f 244/718/3 239/704/3 237/698/3 242/712/3
f 243/716/4 244/719/4 242/713/4 241/710/4
f 242/714/5 237/699/5 238/702/5 241/711/5
f 243/717/6 240/708/6 239/705/6 244/720/6
l 33 36
l 34 35
o gun
v -0.133007 1.814036 -0.025250
v -0.133007 1.814036 -0.142812
v 0.138930 1.814036 -0.025250
v 0.138930 1.814036 -0.142812
v -0.133007 1.548036 -0.142813
v -0.133007 1.548036 -0.025250
v 0.138930 1.548036 -0.142813
v 0.138930 1.548036 -0.025250
v -0.097382 1.778411 0.034125
v -0.097382 1.778411 -0.024062
v 0.103305 1.778411 0.034125
v 0.103305 1.778411 -0.024062
v -0.097382 1.577724 -0.024062
v -0.097382 1.577724 0.034125
v 0.103305 1.577724 -0.024062
v 0.103305 1.577724 0.034125
v 0.073479 1.397536 0.421816
v 0.073479 1.397536 -0.231309
v 0.006304 1.330360 0.421816
v 0.006304 1.330361 -0.231309
v 0.006304 1.464711 -0.231309
v 0.006304 1.464711 0.421816
v -0.060871 1.397536 -0.231309
v -0.060871 1.397536 0.421816
v 0.270486 1.571616 -0.144552
v 0.270486 1.571616 -1.035178
v 0.270486 1.179741 -0.144553
v 0.270486 1.179741 -1.035178
v -0.133264 1.571616 -1.035178
v -0.133264 1.571616 -0.144552
v -0.133264 1.179741 -1.035178
v -0.133264 1.179741 -0.144553
v -0.097382 1.778411 -0.144000
v -0.097382 1.778411 -0.261562
v 0.103305 1.778411 -0.144000
v 0.103305 1.778411 -0.261562
v -0.097382 1.583661 -0.261562
v -0.097382 1.583661 -0.144000
v 0.103305 1.583661 -0.261562
v 0.103305 1.583661 -0.144000
v -0.552090 1.519291 0.368378
v -0.552090 1.519291 -0.047247
v -0.568883 1.502497 0.368378
v -0.568883 1.502497 -0.047247
v -0.568883 1.536084 -0.047247
v -0.568883 1.536084 0.368378
v -0.585677 1.519291 -0.047247
v -0.585677 1.519291 0.368378
v -0.489514 1.630991 -0.186115
v -0.489514 1.630991 -0.839240
v -0.489514 1.239116 -0.186115
v -0.489514 1.239116 -0.839240
v -0.614202 1.630991 -0.839240
v -0.614202 1.630991 -0.186115
v -0.614202 1.239116 -0.839240
v -0.614202 1.239116 -0.186115
v -0.526223 1.559146 0.029851
v -0.526223 1.559146 -0.207649
v -0.526223 1.464146 0.029851
v -0.526223 1.464146 -0.207649
v -0.609348 1.559146 -0.207649
v -0.609348 1.559146 0.029851
v -0.609348 1.464146 -0.207649
v -0.609348 1.464146 0.029851
v -0.614202 1.571616 -0.364240
v -0.614202 1.571616 -0.779865
v -0.614202 1.298491 -0.364240
v -0.614202 1.298491 -0.779865
v -0.673577 1.571616 -0.779865
v -0.673577 1.571616 -0.364240
v -0.673577 1.298491 -0.779865
v -0.673577 1.298491 -0.364240
v 0.048288 1.397535 2.523691
v 0.048288 1.397535 0.386191
v 0.006304 1.355550 2.523691
v 0.006304 1.355551 0.386191
v 0.006304 1.439520 0.386191
v 0.006304 1.439519 2.523691
v -0.035681 1.397535 0.386191
v -0.035681 1.397535 2.523691
v 0.065082 1.397535 2.013065
v 0.065082 1.397535 1.953690
v 0.006304 1.338757 2.013065
v 0.006304 1.338757 1.953690
v 0.006304 1.456313 1.953690
v 0.006304 1.456313 2.013065
v -0.052475 1.397535 1.953690
v -0.052475 1.397535 2.013065
v 0.065082 1.397535 2.482128
v 0.065082 1.397535 2.422753
v 0.006304 1.338757 2.482128
v 0.006304 1.338757 2.422753
v 0.006304 1.456313 2.422753
v 0.006304 1.456313 2.482128
v -0.052475 1.397535 2.422753
v -0.052475 1.397535 2.482128
vn -0.0000 -0.0000 -1.0000
vn -0.0000 1.0000 -0.0000
vn -0.0000 -0.0000 1.0000
vn -0.0000 -1.0000 -0.0000
vn -1.0000 -0.0000 -0.0000
vn 1.0000 -0.0000 -0.0000
vn 0.7071 -0.7071 -0.0000
vn -0.7071 0.7071 -0.0000
vn 0.7071 0.7071 -0.0000
vn -0.7071 -0.7071 -0.0000
vt 0.339844 0.291016
vt 0.673828 0.306641
vt 0.398438 0.291016
vt 0.417969 0.306641
vt 0.343750 0.291016
vt 0.398438 0.287109
vt 0.339844 0.283203
vt 0.673828 0.298828
vt 0.439453 0.291016
vt 0.417969 0.298828
vt 0.343750 0.283203
vt 0.439453 0.287109
vt 0.425781 0.306641
vt 0.373047 0.291016
vt 0.406250 0.287109
vt 0.666016 0.306641
vt 0.376953 0.291016
vt 0.406250 0.291016
vt 0.425781 0.298828
vt 0.373047 0.283203
vt 0.447266 0.287109
vt 0.666016 0.298828
vt 0.376953 0.283203
vt 0.447266 0.291016
vt 0.716797 0.890625
vt 0.712891 0.347656
vt 0.716797 0.884766
vt 0.707031 0.353516
vt 0.718750 0.890625
vt 0.716797 0.882812
vt 0.716797 0.884766
vt 0.712891 0.341797
vt 0.716797 0.882812
vt 0.707031 0.347656
vt 0.718750 0.884766
vt 0.716797 0.880859
vt 0.712891 0.353516
vt 0.115234 0.283203
vt 0.722656 0.882812
vt 0.707031 0.347656
vt 0.117188 0.283203
vt 0.722656 0.884766
vt 0.712891 0.347656
vt 0.115234 0.277344
vt 0.722656 0.880859
vt 0.707031 0.341797
vt 0.117188 0.277344
vt 0.722656 0.882812
vt 0.689453 0.310547
vt 0.478516 0.285156
vt 0.439453 0.310547
vt 0.443359 0.285156
vt 0.708984 0.310547
vt 0.439453 0.291016
vt 0.689453 0.306641
vt 0.478516 0.281250
vt 0.488281 0.310547
vt 0.443359 0.281250
vt 0.708984 0.306641
vt 0.488281 0.291016
vt 0.447266 0.285156
vt 0.691406 0.966797
vt 0.443359 0.291016
vt 0.474609 0.285156
vt 0.710938 0.966797
vt 0.443359 0.310547
vt 0.447266 0.281250
vt 0.691406 0.962891
vt 0.492188 0.291016
vt 0.474609 0.281250
vt 0.710938 0.962891
vt 0.492188 0.310547
vt 0.572266 0.958984
vt 0.679688 0.685547
vt 0.253906 0.656250
vt 0.201172 0.332031
vt 0.599609 0.958984
vt 0.253906 0.628906
vt 0.572266 0.947266
vt 0.679688 0.673828
vt 0.273438 0.583984
vt 0.201172 0.320312
vt 0.599609 0.947266
vt 0.273438 0.556641
vt 0.212891 0.332031
vt 0.572266 0.929688
vt 0.265625 0.628906
vt 0.667969 0.685547
vt 0.599609 0.929688
vt 0.265625 0.656250
vt 0.212891 0.320312
vt 0.572266 0.917969
vt 0.285156 0.556641
vt 0.667969 0.673828
vt 0.599609 0.917969
vt 0.285156 0.583984
vt 0.136719 0.287109
vt 0.712891 0.335938
vt 0.144531 0.287109
vt 0.707031 0.341797
vt 0.140625 0.287109
vt 0.144531 0.283203
vt 0.136719 0.281250
vt 0.712891 0.330078
vt 0.712891 0.843750
vt 0.707031 0.335938
vt 0.140625 0.281250
vt 0.712891 0.839844
vt 0.712891 0.341797
vt 0.140625 0.287109
vt 0.150391 0.283203
vt 0.707031 0.335938
vt 0.144531 0.287109
vt 0.150391 0.287109
vt 0.712891 0.335938
vt 0.140625 0.281250
vt 0.718750 0.839844
vt 0.707031 0.330078
vt 0.144531 0.281250
vt 0.718750 0.843750
vt 0.707031 0.291016
vt 0.718750 0.320312
vt 0.687500 0.291016
vt 0.716797 0.322266
vt 0.720703 0.291016
vt 0.687500 0.277344
vt 0.707031 0.289062
vt 0.718750 0.318359
vt 0.689453 0.291016
vt 0.716797 0.320312
vt 0.720703 0.289062
vt 0.689453 0.277344
vt 0.718750 0.322266
vt 0.710938 0.992188
vt 0.689453 0.277344
vt 0.716797 0.320312
vt 0.724609 0.992188
vt 0.689453 0.291016
vt 0.718750 0.320312
vt 0.710938 0.990234
vt 0.691406 0.277344
vt 0.716797 0.318359
vt 0.724609 0.990234
vt 0.691406 0.291016
vt 0.603516 0.654297
vt 0.500000 0.300781
vt 0.572266 0.310547
vt 0.492188 0.300781
vt 0.623047 0.654297
vt 0.572266 0.291016
vt 0.603516 0.642578
vt 0.500000 0.289062
vt 0.576172 0.310547
vt 0.492188 0.289062
vt 0.623047 0.642578
vt 0.576172 0.291016
vt 0.496094 0.300781
vt 0.607422 0.912109
vt 0.576172 0.291016
vt 0.496094 0.300781
vt 0.626953 0.912109
vt 0.576172 0.310547
vt 0.496094 0.289062
vt 0.607422 0.900391
vt 0.580078 0.291016
vt 0.496094 0.289062
vt 0.626953 0.900391
vt 0.580078 0.310547
vt 0.708984 0.560547
vt 0.462891 0.283203
vt 0.421875 0.285156
vt 0.458984 0.283203
vt 0.716797 0.560547
vt 0.421875 0.277344
vt 0.708984 0.556641
vt 0.462891 0.279297
vt 0.447266 0.285156
vt 0.458984 0.279297
vt 0.716797 0.556641
vt 0.447266 0.277344
vt 0.460938 0.283203
vt 0.447266 0.291016
vt 0.423828 0.277344
vt 0.460938 0.283203
vt 0.455078 0.291016
vt 0.423828 0.285156
vt 0.460938 0.279297
vt 0.447266 0.287109
vt 0.449219 0.277344
vt 0.460938 0.279297
vt 0.455078 0.287109
vt 0.449219 0.285156
vt 0.685547 0.765625
vt 0.496094 0.285156
vt 0.691406 0.291016
vt 0.492188 0.285156
vt 0.699219 0.765625
vt 0.691406 0.277344
vt 0.685547 0.757812
vt 0.496094 0.277344
vt 0.693359 0.291016
vt 0.492188 0.277344
vt 0.699219 0.757812
vt 0.693359 0.277344
vt 0.494141 0.285156
vt 0.685547 0.744141
vt 0.693359 0.277344
vt 0.494141 0.285156
vt 0.699219 0.744141
vt 0.693359 0.291016
vt 0.494141 0.277344
vt 0.685547 0.736328
vt 0.695312 0.277344
vt 0.494141 0.277344
vt 0.699219 0.736328
vt 0.695312 0.291016
vt 0.646484 0.802734
vt 0.718750 0.359375
vt 0.251953 0.349609
vt 0.716797 0.361328
vt 0.712891 0.802734
vt 0.251953 0.283203
vt 0.646484 0.800781
vt 0.718750 0.357422
vt 0.472656 0.345703
vt 0.716797 0.359375
vt 0.712891 0.800781
vt 0.472656 0.279297
vt 0.718750 0.361328
vt 0.646484 0.697266
vt 0.253906 0.283203
vt 0.716797 0.359375
vt 0.712891 0.697266
vt 0.253906 0.349609
vt 0.718750 0.359375
vt 0.646484 0.695312
vt 0.474609 0.279297
vt 0.716797 0.357422
vt 0.712891 0.695312
vt 0.474609 0.345703
vt 0.716797 0.412109
vt 0.718750 0.369141
vt 0.716797 0.365234
vt 0.716797 0.414062
vt 0.718750 0.412109
vt 0.716797 0.363281
vt 0.716797 0.410156
vt 0.718750 0.367188
vt 0.716797 0.363281
vt 0.716797 0.412109
vt 0.718750 0.410156
vt 0.716797 0.361328
vt 0.718750 0.414062
vt 0.716797 0.367188
vt 0.718750 0.363281
vt 0.716797 0.369141
vt 0.718750 0.367188
vt 0.718750 0.365234
vt 0.718750 0.412109
vt 0.716797 0.365234
vt 0.718750 0.361328
vt 0.716797 0.367188
vt 0.718750 0.365234
vt 0.718750 0.363281
vt 0.572266 0.283203
vt 0.576172 0.283203
vt 0.578125 0.283203
vt 0.560547 0.283203
vt 0.574219 0.283203
vt 0.578125 0.281250
vt 0.572266 0.281250
vt 0.576172 0.281250
vt 0.716797 0.416016
vt 0.560547 0.281250
vt 0.574219 0.281250
vt 0.716797 0.414062
vt 0.562500 0.283203
vt 0.576172 0.283203
vt 0.580078 0.281250
vt 0.574219 0.283203
vt 0.578125 0.283203
vt 0.580078 0.283203
vt 0.562500 0.281250
vt 0.576172 0.281250
vt 0.718750 0.414062
vt 0.574219 0.281250
vt 0.578125 0.281250
vt 0.718750 0.416016
s 1
usemtl BTR_80_TEX_1.png.001
f 248/730/88 251/739/88 249/733/88 246/724/88
f 247/727/89 248/731/89 246/725/89 245/721/89
f 252/742/90 247/728/90 245/722/90 250/736/90
f 251/740/91 252/743/91 250/737/91 249/734/91
f 250/738/92 245/723/92 246/726/92 249/735/92
f 251/741/93 248/732/93 247/729/93 252/744/93
f 256/754/88 259/763/88 257/757/88 254/748/88
f 255/751/89 256/755/89 254/749/89 253/745/89
f 260/766/90 255/752/90 253/746/90 258/760/90
f 259/764/91 260/767/91 258/761/91 257/758/91
f 258/762/92 253/747/92 254/750/92 257/759/92
f 259/765/93 256/756/93 255/753/93 260/768/93
f 264/778/88 267/787/88 265/781/88 262/772/88
f 263/775/94 264/779/94 262/773/94 261/769/94
f 268/790/90 263/776/90 261/770/90 266/784/90
f 267/788/95 268/791/95 266/785/95 265/782/95
f 266/786/96 261/771/96 262/774/96 265/783/96
f 267/789/97 264/780/97 263/777/97 268/792/97
f 272/802/88 275/811/88 273/805/88 270/796/88
f 271/799/93 272/803/93 270/797/93 269/793/93
f 276/814/90 271/800/90 269/794/90 274/808/90
f 275/812/92 276/815/92 274/809/92 273/806/92
f 274/810/89 269/795/89 270/798/89 273/807/89
f 275/813/91 272/804/91 271/801/91 276/816/91
f 280/826/88 283/835/88 281/829/88 278/820/88
f 279/823/89 280/827/89 278/821/89 277/817/89
f 284/838/90 279/824/90 277/818/90 282/832/90
f 283/836/91 284/839/91 282/833/91 281/830/91
f 282/834/92 277/819/92 278/822/92 281/831/92
f 283/837/93 280/828/93 279/825/93 284/840/93
f 288/850/88 291/859/88 289/853/88 286/844/88
f 287/847/94 288/851/94 286/845/94 285/841/94
f 292/862/90 287/848/90 285/842/90 290/856/90
f 291/860/95 292/863/95 290/857/95 289/854/95
f 290/858/96 285/843/96 286/846/96 289/855/96
f 291/861/97 288/852/97 287/849/97 292/864/97
f 296/874/88 299/883/88 297/877/88 294/868/88
f 295/871/93 296/875/93 294/869/93 293/865/93
f 300/886/90 295/872/90 293/866/90 298/880/90
f 299/884/92 300/887/92 298/881/92 297/878/92
f 298/882/89 293/867/89 294/870/89 297/879/89
f 299/885/91 296/876/91 295/873/91 300/888/91
f 304/898/88 307/907/88 305/901/88 302/892/88
f 303/895/93 304/899/93 302/893/93 301/889/93
f 308/910/90 303/896/90 301/890/90 306/904/90
f 307/908/92 308/911/92 306/905/92 305/902/92
f 306/906/89 301/891/89 302/894/89 305/903/89
f 307/909/91 304/900/91 303/897/91 308/912/91
f 312/922/88 315/931/88 313/925/88 310/916/88
f 311/919/93 312/923/93 310/917/93 309/913/93
f 316/934/90 311/920/90 309/914/90 314/928/90
f 315/932/92 316/935/92 314/929/92 313/926/92
f 314/930/89 309/915/89 310/918/89 313/927/89
f 315/933/91 312/924/91 311/921/91 316/936/91
f 320/946/88 323/955/88 321/949/88 318/940/88
f 319/943/94 320/947/94 318/941/94 317/937/94
f 324/958/90 319/944/90 317/938/90 322/952/90
f 323/956/95 324/959/95 322/953/95 321/950/95
f 322/954/96 317/939/96 318/942/96 321/951/96
f 323/957/97 320/948/97 319/945/97 324/960/97
f 328/970/88 331/979/88 329/973/88 326/964/88
f 327/967/94 328/971/94 326/965/94 325/961/94
f 332/982/90 327/968/90 325/962/90 330/976/90
f 331/980/95 332/983/95 330/977/95 329/974/95
f 330/978/96 325/963/96 326/966/96 329/975/96
f 331/981/97 328/972/97 327/969/97 332/984/97
f 336/994/88 339/1003/88 337/997/88 334/988/88
f 335/991/94 336/995/94 334/989/94 333/985/94
f 340/1006/90 335/992/90 333/986/90 338/1000/90
f 339/1004/95 340/1007/95 338/1001/95 337/998/95
f 338/1002/96 333/987/96 334/990/96 337/999/96
f 339/1005/97 336/996/97 335/993/97 340/1008/97
