# Blender 3.3.21
# www.blender.org
mtllib turret_btr80.mtl
o turret
v 0.853130 0.706165 0.832532
v 0.853130 0.768665 0.832532
v 0.853130 0.706166 -0.709343
v 0.853130 0.768666 -0.709343
v -0.826558 0.768665 0.832532
v -0.826558 0.706165 0.832532
v -0.826558 0.768666 -0.709343
v -0.826558 0.706166 -0.709343
v 0.570535 0.782242 0.634048
v 0.570535 0.782243 -0.553452
v -0.533750 0.777442 -0.553452
v -0.533750 0.777441 0.634048
v 0.021222 1.370583 -0.568526
v 0.021222 1.005229 -0.779463
v 0.021222 1.310271 -0.464061
v 0.021222 0.944917 -0.674999
v -0.099403 1.005229 -0.779463
v -0.099403 1.370583 -0.568526
v -0.099403 0.944917 -0.674999
v -0.099403 1.310271 -0.464061
v -0.135028 1.424709 -0.537276
v -0.135028 1.059356 -0.748213
v -0.135028 1.364397 -0.432811
v -0.135028 0.999043 -0.643749
v -0.255653 1.059356 -0.748213
v -0.255653 1.424709 -0.537276
v -0.255653 0.999043 -0.643749
v -0.255653 1.364397 -0.432811
v -0.285028 1.316456 -0.599776
v -0.285028 0.951103 -0.810713
v -0.285028 1.256144 -0.495311
v -0.285028 0.890790 -0.706249
v -0.405653 0.951103 -0.810713
v -0.405653 1.316456 -0.599776
v -0.405653 0.890790 -0.706249
v -0.405653 1.256144 -0.495311
v 0.177472 1.424709 -0.537276
v 0.177472 1.059356 -0.748213
v 0.177472 1.364397 -0.432811
v 0.177472 0.999043 -0.643749
v 0.056847 1.059356 -0.748213
v 0.056847 1.424709 -0.537276
v 0.056847 0.999043 -0.643749
v 0.056847 1.364397 -0.432811
v 0.333722 1.370583 -0.568526
v 0.333722 1.005229 -0.779463
v 0.333722 1.310271 -0.464061
v 0.333722 0.944917 -0.674999
v 0.213097 1.005229 -0.779463
v 0.213097 1.370583 -0.568526
v 0.213097 0.944917 -0.674999
v 0.213097 1.310271 -0.464061
v 0.481255 0.777805 0.841537
v 0.481255 1.061949 0.642578
v 0.481255 0.757372 0.812355
v 0.481255 1.041515 0.613396
v -0.485933 1.061949 0.642578
v -0.485933 0.777805 0.841537
v -0.485933 1.041515 0.613396
v -0.485933 0.757372 0.812355
v 0.788455 0.777805 0.560446
v 0.628610 1.115706 0.386006
v 0.755596 0.743749 0.524587
v 0.595751 1.081651 0.350147
v 0.322179 1.115706 0.666798
v 0.482024 0.777805 0.841238
v 0.289320 1.081650 0.630939
v 0.449165 0.743749 0.805379
v 0.928767 0.777807 0.017210
v 0.561721 1.320493 -0.081139
v 0.900579 0.757373 0.009657
v 0.533533 1.300061 -0.088692
v 0.416944 1.320493 0.459175
v 0.783991 0.777805 0.557525
v 0.388756 1.300060 0.451623
v 0.755803 0.757372 0.549972
v -0.787630 0.777805 0.557525
v -0.420584 1.320493 0.459175
v -0.740650 0.743749 0.544937
v -0.373604 1.286437 0.446587
v -0.562125 1.320493 -0.069065
v -0.929172 0.777807 0.029284
v -0.515146 1.286438 -0.081653
v -0.882192 0.743750 0.016696
v -0.485664 0.777805 0.841238
v -0.350038 1.064509 0.693228
v -0.452805 0.743749 0.805379
v -0.317179 1.030453 0.657369
v -0.656469 1.064509 0.412436
v -0.792094 0.777805 0.560446
v -0.623610 1.030453 0.376577
v -0.759236 0.743749 0.524587
v -0.228943 1.320494 -0.499856
v -0.483242 0.782926 -0.777374
v -0.190204 1.280344 -0.457580
v -0.444503 0.742776 -0.735098
v -0.789673 0.782926 -0.496582
v -0.535374 1.320493 -0.219064
v -0.750934 0.742776 -0.454306
v -0.496635 1.280344 -0.176788
v 0.475942 1.320494 -0.400322
v 0.475942 0.777806 -0.780317
v 0.475942 1.286438 -0.351685
v 0.475942 0.743750 -0.731680
v -0.474683 0.777806 -0.780317
v -0.474683 1.320494 -0.400322
v -0.474683 0.743750 -0.731680
v -0.474683 1.286438 -0.351685
v 0.531043 1.319777 -0.218309
v 0.787763 0.777090 -0.498470
v 0.496454 1.283929 -0.180563
v 0.753175 0.741241 -0.460724
v 0.476724 0.777090 -0.783485
v 0.220004 1.319777 -0.503324
v 0.442136 0.741241 -0.745739
v 0.185416 1.283929 -0.465577
v 0.558486 1.320493 0.130286
v 0.925532 0.777807 0.031936
v 0.511506 1.286438 0.142874
v 0.878552 0.743750 0.044524
v 0.782373 0.777807 -0.502342
v 0.415327 1.320494 -0.403992
v 0.735393 0.743751 -0.489753
v 0.368347 1.286438 -0.391403
v -0.420584 1.320494 -0.397955
v -0.787630 0.777807 -0.496305
v -0.373604 1.286438 -0.385366
v -0.740650 0.743751 -0.483716
v -0.929172 0.777807 0.031936
v -0.562125 1.320493 0.130286
v -0.882192 0.743750 0.044524
v -0.515146 1.286438 0.142874
v 0.195535 1.150992 0.446548
v 0.195535 1.150993 0.321548
v 0.195535 0.650992 0.446548
v 0.195535 0.650993 0.321548
v -0.054465 1.150993 0.321548
v -0.054465 1.150992 0.446548
v -0.054465 0.650993 0.321548
v -0.054465 0.650992 0.446548
v 0.596880 1.249915 0.395032
v 0.596880 1.312415 0.395032
v 0.596880 1.249916 -0.396843
v 0.596880 1.312416 -0.396843
v -0.614058 1.312415 0.395032
v -0.614058 1.249915 0.395032
v -0.614058 1.312416 -0.396843
v -0.614058 1.249916 -0.396843
v 0.534380 0.999915 0.457532
v 0.534380 1.312415 0.457532
v 0.534380 0.999915 0.395032
v 0.534380 1.312415 0.395032
v -0.551558 1.312415 0.457532
v -0.551558 0.999915 0.457532
v -0.551558 1.312415 0.395032
v -0.551558 0.999915 0.395032
v 0.534380 0.999915 0.645032
v 0.534380 1.062415 0.645032
v 0.534380 0.999915 0.395032
v 0.534380 1.062415 0.395032
v -0.551558 1.062415 0.645032
v -0.551558 0.999915 0.645032
v -0.551558 1.062415 0.395032
v -0.551558 0.999915 0.395032
vn -0.0000 1.0000 -0.0000
vn 1.0000 -0.0000 -0.0000
vn -0.0000 -1.0000 -0.0000
vn -1.0000 -0.0000 -0.0000
vn -0.0000 -0.0000 1.0000
vn -0.0000 -0.0000 -1.0000
vn -0.0000 -0.8660 -0.5000
vn -0.0000 0.8660 0.5000
vn -0.0000 0.5000 -0.8660
vn -0.0000 -0.5000 0.8660
vn -0.0000 0.8191 -0.5736
vn -0.0000 -0.8192 0.5736
vn -0.0000 0.5736 0.8192
vn -0.0000 -0.5736 -0.8192
vn -0.3875 0.8192 -0.4229
vn 0.7373 -0.0000 -0.6756
vn 0.3875 -0.8192 0.4229
vn -0.7373 -0.0000 0.6756
vn 0.5534 0.5736 0.6039
vn -0.5534 -0.5736 -0.6039
vn -0.5540 0.8192 -0.1484
vn 0.2588 -0.0000 -0.9659
vn 0.5540 -0.8192 0.1484
vn -0.2588 -0.0000 0.9659
vn 0.7912 0.5736 0.2120
vn -0.7912 -0.5736 -0.2120
vn 0.5540 0.8192 -0.1485
vn 0.2588 -0.0000 0.9659
vn -0.5540 -0.8191 0.1485
vn -0.2588 -0.0000 -0.9659
vn -0.7912 0.5736 0.2120
vn 0.7912 -0.5736 -0.2120
vn 0.3875 0.8192 -0.4229
vn 0.7373 -0.0000 0.6756
vn -0.3875 -0.8192 0.4229
vn -0.7373 -0.0000 -0.6756
vn -0.5534 0.5736 0.6039
vn 0.5534 -0.5736 -0.6039
vn -0.3875 -0.8192 -0.4229
vn 0.3875 0.8192 0.4229
vn -0.5534 0.5736 -0.6039
vn 0.5534 -0.5736 0.6039
vn -0.0000 -0.8192 -0.5736
vn -0.0000 0.8192 0.5736
vn -0.0000 0.5736 -0.8192
vn -0.0000 -0.5736 0.8192
vn 0.3875 -0.8191 -0.4229
vn -0.3875 0.8192 0.4229
vn 0.5534 0.5736 -0.6039
vn -0.5534 -0.5736 0.6039
vn 0.5540 -0.8191 -0.1485
vn -0.5540 0.8192 0.1485
vn 0.7912 0.5736 -0.2120
vn -0.7912 -0.5736 0.2120
vn -0.5540 -0.8191 -0.1485
vn 0.5540 0.8192 0.1485
vn -0.7912 0.5736 -0.2120
vn 0.7912 -0.5736 0.2120
vt 0.201172 0.320312
vt 0.337891 0.673828
vt 0.656250 0.826172
vt 0.285156 0.722656
vt 0.203125 0.320312
vt 0.656250 0.824219
vt 0.201172 0.271484
vt 0.337891 0.625000
vt 0.656250 0.537109
vt 0.285156 0.673828
vt 0.203125 0.271484
vt 0.656250 0.535156
vt 0.337891 0.722656
vt 0.203125 0.320312
vt 0.708984 0.824219
vt 0.285156 0.673828
vt 0.205078 0.320312
vt 0.708984 0.826172
vt 0.337891 0.673828
vt 0.203125 0.271484
vt 0.708984 0.535156
vt 0.285156 0.625000
vt 0.205078 0.271484
vt 0.708984 0.537109
vt 0.087891 0.417969
vt 0.558594 0.283203
vt 0.648438 0.291016
vt 0.716797 0.445312
vt 0.101562 0.417969
vt 0.648438 0.277344
vt 0.087891 0.416016
vt 0.558594 0.281250
vt 0.650391 0.291016
vt 0.716797 0.443359
vt 0.101562 0.416016
vt 0.650391 0.277344
vt 0.718750 0.445312
vt 0.609375 0.615234
vt 0.650391 0.277344
vt 0.556641 0.283203
vt 0.623047 0.615234
vt 0.650391 0.291016
vt 0.718750 0.443359
vt 0.609375 0.613281
vt 0.652344 0.277344
vt 0.556641 0.281250
vt 0.623047 0.613281
vt 0.652344 0.291016
vt 0.087891 0.417969
vt 0.558594 0.283203
vt 0.648438 0.291016
vt 0.716797 0.445312
vt 0.101562 0.417969
vt 0.648438 0.277344
vt 0.087891 0.416016
vt 0.558594 0.281250
vt 0.650391 0.291016
vt 0.716797 0.443359
vt 0.101562 0.416016
vt 0.650391 0.277344
vt 0.718750 0.445312
vt 0.609375 0.615234
vt 0.650391 0.277344
vt 0.556641 0.283203
vt 0.623047 0.615234
vt 0.650391 0.291016
vt 0.718750 0.443359
vt 0.609375 0.613281
vt 0.652344 0.277344
vt 0.556641 0.281250
vt 0.623047 0.613281
vt 0.652344 0.291016
vt 0.087891 0.417969
vt 0.558594 0.283203
vt 0.648438 0.291016
vt 0.716797 0.445312
vt 0.101562 0.417969
vt 0.648438 0.277344
vt 0.087891 0.416016
vt 0.558594 0.281250
vt 0.650391 0.291016
vt 0.716797 0.443359
vt 0.101562 0.416016
vt 0.650391 0.277344
vt 0.718750 0.445312
vt 0.609375 0.615234
vt 0.650391 0.277344
vt 0.556641 0.283203
vt 0.623047 0.615234
vt 0.650391 0.291016
vt 0.718750 0.443359
vt 0.609375 0.613281
vt 0.652344 0.277344
vt 0.556641 0.281250
vt 0.623047 0.613281
vt 0.652344 0.291016
vt 0.087891 0.417969
vt 0.558594 0.283203
vt 0.648438 0.291016
vt 0.716797 0.445312
vt 0.101562 0.417969
vt 0.648438 0.277344
vt 0.087891 0.416016
vt 0.558594 0.281250
vt 0.650391 0.291016
vt 0.716797 0.443359
vt 0.101562 0.416016
vt 0.650391 0.277344
vt 0.718750 0.445312
vt 0.609375 0.615234
vt 0.650391 0.277344
vt 0.556641 0.283203
vt 0.623047 0.615234
vt 0.650391 0.291016
vt 0.718750 0.443359
vt 0.609375 0.613281
vt 0.652344 0.277344
vt 0.556641 0.281250
vt 0.623047 0.613281
vt 0.652344 0.291016
vt 0.087891 0.417969
vt 0.558594 0.283203
vt 0.648438 0.291016
vt 0.716797 0.445312
vt 0.101562 0.417969
vt 0.648438 0.277344
vt 0.087891 0.416016
vt 0.558594 0.281250
vt 0.650391 0.291016
vt 0.716797 0.443359
vt 0.101562 0.416016
vt 0.650391 0.277344
vt 0.718750 0.445312
vt 0.609375 0.615234
vt 0.650391 0.277344
vt 0.556641 0.283203
vt 0.623047 0.615234
vt 0.650391 0.291016
vt 0.718750 0.443359
vt 0.609375 0.613281
vt 0.652344 0.277344
vt 0.556641 0.281250
vt 0.623047 0.613281
vt 0.652344 0.291016
vt 0.710938 0.570312
vt 0.724609 0.751953
vt 0.353516 0.433594
vt 0.695312 0.775391
vt 0.722656 0.570312
vt 0.353516 0.421875
vt 0.710938 0.568359
vt 0.724609 0.750000
vt 0.568359 0.597656
vt 0.695312 0.773438
vt 0.722656 0.568359
vt 0.568359 0.585938
vt 0.724609 0.775391
vt 0.710938 0.406250
vt 0.382812 0.421875
vt 0.695312 0.751953
vt 0.722656 0.406250
vt 0.382812 0.433594
vt 0.724609 0.773438
vt 0.710938 0.404297
vt 0.597656 0.585938
vt 0.695312 0.750000
vt 0.722656 0.404297
vt 0.597656 0.597656
vt 0.708984 0.392578
vt 0.722656 0.390625
vt 0.408203 0.359375
vt 0.708984 0.394531
vt 0.722656 0.392578
vt 0.408203 0.345703
vt 0.708984 0.390625
vt 0.722656 0.388672
vt 0.640625 0.496094
vt 0.708984 0.392578
vt 0.722656 0.390625
vt 0.640625 0.482422
vt 0.722656 0.394531
vt 0.708984 0.357422
vt 0.421875 0.345703
vt 0.708984 0.390625
vt 0.722656 0.357422
vt 0.421875 0.359375
vt 0.722656 0.392578
vt 0.708984 0.355469
vt 0.654297 0.482422
vt 0.708984 0.388672
vt 0.722656 0.355469
vt 0.654297 0.496094
vt 0.701172 0.939453
vt 0.722656 0.628906
vt 0.441406 0.447266
vt 0.705078 0.630859
vt 0.722656 0.939453
vt 0.441406 0.425781
vt 0.701172 0.937500
vt 0.722656 0.626953
vt 0.318359 0.443359
vt 0.705078 0.628906
vt 0.722656 0.937500
vt 0.318359 0.421875
vt 0.722656 0.630859
vt 0.136719 0.298828
vt 0.458984 0.425781
vt 0.705078 0.628906
vt 0.158203 0.298828
vt 0.458984 0.447266
vt 0.722656 0.628906
vt 0.136719 0.296875
vt 0.335938 0.421875
vt 0.705078 0.626953
vt 0.158203 0.296875
vt 0.335938 0.443359
vt 0.701172 0.851562
vt 0.722656 0.468750
vt 0.335938 0.443359
vt 0.705078 0.470703
vt 0.722656 0.851562
vt 0.335938 0.421875
vt 0.701172 0.849609
vt 0.722656 0.466797
vt 0.558594 0.744141
vt 0.705078 0.468750
vt 0.722656 0.849609
vt 0.558594 0.722656
vt 0.722656 0.470703
vt 0.701172 0.849609
vt 0.353516 0.421875
vt 0.705078 0.468750
vt 0.722656 0.849609
vt 0.353516 0.443359
vt 0.722656 0.468750
vt 0.701172 0.847656
vt 0.576172 0.722656
vt 0.705078 0.466797
vt 0.722656 0.847656
vt 0.576172 0.744141
vt 0.712891 0.902344
vt 0.687500 0.291016
vt 0.568359 0.357422
vt 0.708984 0.355469
vt 0.724609 0.902344
vt 0.568359 0.345703
vt 0.712891 0.900391
vt 0.687500 0.289062
vt 0.644531 0.912109
vt 0.708984 0.353516
vt 0.724609 0.900391
vt 0.644531 0.900391
vt 0.722656 0.355469
vt 0.712891 0.900391
vt 0.582031 0.345703
vt 0.673828 0.291016
vt 0.724609 0.900391
vt 0.582031 0.357422
vt 0.722656 0.353516
vt 0.712891 0.898438
vt 0.658203 0.900391
vt 0.673828 0.289062
vt 0.724609 0.898438
vt 0.658203 0.912109
vt 0.701172 0.847656
vt 0.722656 0.312500
vt 0.414062 0.416016
vt 0.708984 0.314453
vt 0.722656 0.847656
vt 0.414062 0.394531
vt 0.701172 0.845703
vt 0.722656 0.310547
vt 0.427734 0.416016
vt 0.708984 0.312500
vt 0.722656 0.845703
vt 0.427734 0.394531
vt 0.722656 0.314453
vt 0.701172 0.845703
vt 0.427734 0.394531
vt 0.708984 0.312500
vt 0.722656 0.845703
vt 0.427734 0.416016
vt 0.722656 0.312500
vt 0.701172 0.843750
vt 0.441406 0.394531
vt 0.708984 0.310547
vt 0.722656 0.843750
vt 0.441406 0.416016
vt 0.701172 0.712891
vt 0.724609 0.605469
vt 0.490234 0.625000
vt 0.695312 0.626953
vt 0.722656 0.712891
vt 0.490234 0.603516
vt 0.701172 0.710938
vt 0.724609 0.603516
vt 0.535156 0.839844
vt 0.695312 0.625000
vt 0.722656 0.710938
vt 0.535156 0.818359
vt 0.724609 0.626953
vt 0.701172 0.710938
vt 0.519531 0.603516
vt 0.695312 0.605469
vt 0.722656 0.710938
vt 0.519531 0.625000
vt 0.724609 0.625000
vt 0.701172 0.708984
vt 0.564453 0.818359
vt 0.695312 0.603516
vt 0.722656 0.708984
vt 0.564453 0.839844
vt 0.701172 0.708984
vt 0.722656 0.308594
vt 0.539062 0.416016
vt 0.708984 0.310547
vt 0.722656 0.708984
vt 0.539062 0.394531
vt 0.701172 0.707031
vt 0.722656 0.306641
vt 0.552734 0.416016
vt 0.708984 0.308594
vt 0.722656 0.707031
vt 0.552734 0.394531
vt 0.722656 0.310547
vt 0.701172 0.707031
vt 0.552734 0.394531
vt 0.708984 0.308594
vt 0.722656 0.707031
vt 0.552734 0.416016
vt 0.722656 0.308594
vt 0.701172 0.705078
vt 0.566406 0.394531
vt 0.708984 0.306641
vt 0.722656 0.705078
vt 0.566406 0.416016
vt 0.701172 0.705078
vt 0.722656 0.304688
vt 0.558594 0.585938
vt 0.705078 0.306641
vt 0.722656 0.705078
vt 0.558594 0.564453
vt 0.701172 0.703125
vt 0.722656 0.302734
vt 0.458984 0.441406
vt 0.705078 0.304688
vt 0.722656 0.703125
vt 0.458984 0.419922
vt 0.722656 0.306641
vt 0.701172 0.703125
vt 0.576172 0.564453
vt 0.705078 0.304688
vt 0.722656 0.703125
vt 0.576172 0.585938
vt 0.722656 0.304688
vt 0.701172 0.701172
vt 0.476562 0.419922
vt 0.705078 0.302734
vt 0.722656 0.701172
vt 0.476562 0.441406
vt 0.703125 0.298828
vt 0.724609 0.572266
vt 0.570312 0.712891
vt 0.707031 0.574219
vt 0.722656 0.298828
vt 0.570312 0.693359
vt 0.703125 0.296875
vt 0.724609 0.570312
vt 0.382812 0.429688
vt 0.707031 0.572266
vt 0.722656 0.296875
vt 0.382812 0.410156
vt 0.724609 0.574219
vt 0.703125 0.296875
vt 0.587891 0.693359
vt 0.707031 0.572266
vt 0.722656 0.296875
vt 0.587891 0.712891
vt 0.724609 0.572266
vt 0.703125 0.294922
vt 0.400391 0.410156
vt 0.707031 0.570312
vt 0.722656 0.294922
vt 0.400391 0.429688
vt 0.398438 0.306641
vt 0.455078 0.332031
vt 0.708984 0.642578
vt 0.324219 0.332031
vt 0.402344 0.306641
vt 0.708984 0.638672
vt 0.398438 0.291016
vt 0.455078 0.316406
vt 0.708984 0.638672
vt 0.324219 0.316406
vt 0.402344 0.291016
vt 0.708984 0.634766
vt 0.332031 0.332031
vt 0.402344 0.306641
vt 0.716797 0.638672
vt 0.447266 0.332031
vt 0.406250 0.306641
vt 0.716797 0.642578
vt 0.332031 0.316406
vt 0.402344 0.291016
vt 0.716797 0.634766
vt 0.447266 0.316406
vt 0.406250 0.291016
vt 0.716797 0.638672
vt 0.544922 0.302734
vt 0.535156 0.478516
vt 0.572266 0.892578
vt 0.521484 0.585938
vt 0.546875 0.302734
vt 0.572266 0.890625
vt 0.544922 0.277344
vt 0.535156 0.453125
vt 0.687500 0.808594
vt 0.521484 0.560547
vt 0.546875 0.277344
vt 0.687500 0.806641
vt 0.558594 0.585938
vt 0.546875 0.302734
vt 0.609375 0.890625
vt 0.498047 0.478516
vt 0.548828 0.302734
vt 0.609375 0.892578
vt 0.558594 0.560547
vt 0.546875 0.277344
vt 0.724609 0.806641
vt 0.498047 0.453125
vt 0.548828 0.277344
vt 0.724609 0.808594
vt 0.671875 0.757812
vt 0.724609 0.388672
vt 0.570312 0.654297
vt 0.691406 0.535156
vt 0.681641 0.757812
vt 0.570312 0.644531
vt 0.671875 0.755859
vt 0.724609 0.386719
vt 0.570312 0.439453
vt 0.691406 0.533203
vt 0.681641 0.755859
vt 0.570312 0.429688
vt 0.724609 0.535156
vt 0.712891 0.875000
vt 0.603516 0.644531
vt 0.691406 0.388672
vt 0.722656 0.875000
vt 0.603516 0.654297
vt 0.724609 0.533203
vt 0.712891 0.873047
vt 0.603516 0.429688
vt 0.691406 0.386719
vt 0.722656 0.873047
vt 0.603516 0.439453
vt 0.382812 0.285156
vt 0.628906 0.744141
vt 0.691406 0.386719
vt 0.591797 0.984375
vt 0.384766 0.285156
vt 0.691406 0.384766
vt 0.382812 0.277344
vt 0.628906 0.736328
vt 0.691406 0.384766
vt 0.591797 0.976562
vt 0.384766 0.277344
vt 0.691406 0.382812
vt 0.625000 0.984375
vt 0.384766 0.285156
vt 0.724609 0.384766
vt 0.595703 0.744141
vt 0.386719 0.285156
vt 0.724609 0.386719
vt 0.625000 0.976562
vt 0.384766 0.277344
vt 0.724609 0.382812
vt 0.595703 0.736328
vt 0.386719 0.277344
vt 0.724609 0.384766
s 1
usemtl BTR_80_TEX_1.png.003
f 4/10/1 7/19/1 5/13/1 2/4/1
f 3/7/2 4/11/2 2/5/2 1/1/2
f 8/22/3 3/8/3 1/2/3 6/16/3
f 7/20/4 8/23/4 6/17/4 5/14/4
f 6/18/5 1/3/5 2/6/5 5/15/5
f 7/21/6 4/12/6 3/9/6 8/24/6
f 16/34/7 19/43/7 17/37/7 14/28/7
f 15/31/2 16/35/2 14/29/2 13/25/2
f 20/46/8 15/32/8 13/26/8 18/40/8
f 19/44/4 20/47/4 18/41/4 17/38/4
f 18/42/9 13/27/9 14/30/9 17/39/9
f 19/45/10 16/36/10 15/33/10 20/48/10
f 24/58/7 27/67/7 25/61/7 22/52/7
f 23/55/2 24/59/2 22/53/2 21/49/2
f 28/70/8 23/56/8 21/50/8 26/64/8
f 27/68/4 28/71/4 26/65/4 25/62/4
f 26/66/9 21/51/9 22/54/9 25/63/9
f 27/69/10 24/60/10 23/57/10 28/72/10
f 32/82/7 35/91/7 33/85/7 30/76/7
f 31/79/2 32/83/2 30/77/2 29/73/2
f 36/94/8 31/80/8 29/74/8 34/88/8
f 35/92/4 36/95/4 34/89/4 33/86/4
f 34/90/9 29/75/9 30/78/9 33/87/9
f 35/93/10 32/84/10 31/81/10 36/96/10
f 40/106/7 43/115/7 41/109/7 38/100/7
f 39/103/2 40/107/2 38/101/2 37/97/2
f 44/118/8 39/104/8 37/98/8 42/112/8
f 43/116/4 44/119/4 42/113/4 41/110/4
f 42/114/9 37/99/9 38/102/9 41/111/9
f 43/117/10 40/108/10 39/105/10 44/120/10
f 48/130/7 51/139/7 49/133/7 46/124/7
f 47/127/2 48/131/2 46/125/2 45/121/2
f 52/142/8 47/128/8 45/122/8 50/136/8
f 51/140/4 52/143/4 50/137/4 49/134/4
f 50/138/9 45/123/9 46/126/9 49/135/9
f 51/141/10 48/132/10 47/129/10 52/144/10
f 56/154/11 59/163/11 57/157/11 54/148/11
f 55/151/2 56/155/2 54/149/2 53/145/2
f 60/166/12 55/152/12 53/146/12 58/160/12
f 59/164/4 60/167/4 58/161/4 57/158/4
f 58/162/13 53/147/13 54/150/13 57/159/13
f 59/165/14 56/156/14 55/153/14 60/168/14
f 64/178/15 67/187/15 65/181/15 62/172/15
f 63/175/16 64/179/16 62/173/16 61/169/16
f 68/190/17 63/176/17 61/170/17 66/184/17
f 67/188/18 68/191/18 66/185/18 65/182/18
f 66/186/19 61/171/19 62/174/19 65/183/19
f 67/189/20 64/180/20 63/177/20 68/192/20
f 72/202/21 75/211/21 73/205/21 70/196/21
f 71/199/22 72/203/22 70/197/22 69/193/22
f 76/214/23 71/200/23 69/194/23 74/208/23
f 75/212/24 76/215/24 74/209/24 73/206/24
f 74/210/25 69/195/25 70/198/25 73/207/25
f 75/213/26 72/204/26 71/201/26 76/216/26
f 80/226/27 83/235/27 81/229/27 78/220/27
f 79/223/28 80/227/28 78/221/28 77/217/28
f 84/238/29 79/224/29 77/218/29 82/232/29
f 83/236/30 84/239/30 82/233/30 81/230/30
f 82/234/31 77/219/31 78/222/31 81/231/31
f 83/237/32 80/228/32 79/225/32 84/240/32
f 88/250/33 91/259/33 89/253/33 86/244/33
f 87/247/34 88/251/34 86/245/34 85/241/34
f 92/262/35 87/248/35 85/242/35 90/256/35
f 91/260/36 92/263/36 90/257/36 89/254/36
f 90/258/37 85/243/37 86/246/37 89/255/37
f 91/261/38 88/252/38 87/249/38 92/264/38
f 96/274/39 99/283/39 97/277/39 94/268/39
f 95/271/16 96/275/16 94/269/16 93/265/16
f 100/286/40 95/272/40 93/266/40 98/280/40
f 99/284/18 100/287/18 98/281/18 97/278/18
f 98/282/41 93/267/41 94/270/41 97/279/41
f 99/285/42 96/276/42 95/273/42 100/288/42
f 104/298/43 107/307/43 105/301/43 102/292/43
f 103/295/2 104/299/2 102/293/2 101/289/2
f 108/310/44 103/296/44 101/290/44 106/304/44
f 107/308/4 108/311/4 106/305/4 105/302/4
f 106/306/45 101/291/45 102/294/45 105/303/45
f 107/309/46 104/300/46 103/297/46 108/312/46
f 112/322/47 115/331/47 113/325/47 110/316/47
f 111/319/34 112/323/34 110/317/34 109/313/34
f 116/334/48 111/320/48 109/314/48 114/328/48
f 115/332/36 116/335/36 114/329/36 113/326/36
f 114/330/49 109/315/49 110/318/49 113/327/49
f 115/333/50 112/324/50 111/321/50 116/336/50
f 120/346/51 123/355/51 121/349/51 118/340/51
f 119/343/28 120/347/28 118/341/28 117/337/28
f 124/358/52 119/344/52 117/338/52 122/352/52
f 123/356/30 124/359/30 122/353/30 121/350/30
f 122/354/53 117/339/53 118/342/53 121/351/53
f 123/357/54 120/348/54 119/345/54 124/360/54
f 128/370/55 131/379/55 129/373/55 126/364/55
f 127/367/22 128/371/22 126/365/22 125/361/22
f 132/382/56 127/368/56 125/362/56 130/376/56
f 131/380/24 132/383/24 130/377/24 129/374/24
f 130/378/57 125/363/57 126/366/57 129/375/57
f 131/381/58 128/372/58 127/369/58 132/384/58
f 136/394/6 139/403/6 137/397/6 134/388/6
f 135/391/2 136/395/2 134/389/2 133/385/2
f 140/406/5 135/392/5 133/386/5 138/400/5
f 139/404/4 140/407/4 138/401/4 137/398/4
f 138/402/1 133/387/1 134/390/1 137/399/1
f 139/405/3 136/396/3 135/393/3 140/408/3
f 144/418/1 147/427/1 145/421/1 142/412/1
f 143/415/2 144/419/2 142/413/2 141/409/2
f 148/430/3 143/416/3 141/410/3 146/424/3
f 147/428/4 148/431/4 146/425/4 145/422/4
f 146/426/5 141/411/5 142/414/5 145/423/5
f 147/429/6 144/420/6 143/417/6 148/432/6
f 152/442/1 155/451/1 153/445/1 150/436/1
f 151/439/2 152/443/2 150/437/2 149/433/2
f 156/454/3 151/440/3 149/434/3 154/448/3
f 155/452/4 156/455/4 154/449/4 153/446/4
f 154/450/5 149/435/5 150/438/5 153/447/5
f 155/453/6 152/444/6 151/441/6 156/456/6
f 160/466/1 163/475/1 161/469/1 158/460/1
f 159/463/2 160/467/2 158/461/2 157/457/2
f 164/478/3 159/464/3 157/458/3 162/472/3
f 163/476/4 164/479/4 162/473/4 161/470/4
f 162/474/5 157/459/5 158/462/5 161/471/5
f 163/477/6 160/468/6 159/465/6 164/480/6
l 9 10
l 11 12
o gun
v 0.293755 0.940593 0.773886
v 0.293755 1.327130 0.503230
v 0.293755 0.797199 0.569098
v 0.293755 1.183736 0.298441
v -0.298433 1.327130 0.503230
v -0.298433 0.940593 0.773886
v -0.298433 1.183736 0.298441
v -0.298433 0.797199 0.569098
v -0.155661 1.093268 1.050610
v -0.155661 1.093268 0.634985
v -0.190132 1.058796 1.050610
v -0.190132 1.058797 0.634985
v -0.190132 1.127740 0.634985
v -0.190132 1.127739 1.050610
v -0.224603 1.093268 0.634985
v -0.224603 1.093268 1.050610
v -0.093630 1.539888 0.591357
v -0.093630 1.539888 0.533170
v 0.107057 1.539888 0.591357
v 0.107057 1.539888 0.533170
v -0.093630 1.339200 0.533170
v -0.093630 1.339200 0.591357
v 0.107057 1.339200 0.533170
v 0.107057 1.339200 0.591357
v -0.129255 1.575513 0.531982
v -0.129255 1.575513 0.414420
v 0.142682 1.575513 0.531982
v 0.142682 1.575513 0.414420
v -0.129255 1.184513 0.414420
v -0.129255 1.184513 0.531982
v 0.142682 1.184513 0.414420
v 0.142682 1.184513 0.531982
v -0.093630 1.539888 0.413232
v -0.093630 1.539889 0.295670
v 0.107057 1.539888 0.413232
v 0.107057 1.539889 0.295670
v -0.093630 1.345138 0.295670
v -0.093630 1.345138 0.413232
v 0.107057 1.345138 0.295670
v 0.107057 1.345138 0.413232
v 0.069717 1.096513 1.674673
v 0.069717 1.096513 0.568423
v 0.010055 1.036851 1.674673
v 0.010055 1.036851 0.568423
v 0.010055 1.156175 0.568423
v 0.010055 1.156175 1.674673
v -0.049607 1.096513 0.568423
v -0.049607 1.096513 1.674673
v 0.086511 1.096513 2.001861
v 0.086511 1.096513 1.901861
v 0.010055 1.020057 2.001861
v 0.010055 1.020057 1.901861
v 0.010055 1.172969 1.901861
v 0.010055 1.172969 2.001861
v -0.066401 1.096513 1.901861
v -0.066401 1.096513 2.001861
v 0.068833 1.096513 1.939361
v 0.068833 1.096513 1.823736
v 0.010055 1.037734 1.939361
v 0.010055 1.037734 1.823736
v 0.010055 1.155291 1.823736
v 0.010055 1.155291 1.939361
v -0.048723 1.096513 1.823736
v -0.048723 1.096513 1.939361
v 0.059995 1.096513 1.876861
v 0.059995 1.096513 1.604986
v 0.010055 1.046574 1.876861
v 0.010055 1.046574 1.604986
v 0.010055 1.146452 1.604986
v 0.010055 1.146452 1.876861
v -0.039884 1.096513 1.604986
v -0.039884 1.096513 1.876861
vn -0.0000 0.8192 -0.5736
vn 1.0000 -0.0000 -0.0000
vn -0.0000 -0.8192 0.5736
vn -1.0000 -0.0000 -0.0000
vn -0.0000 0.5736 0.8192
vn -0.0000 -0.5736 -0.8192
vn -0.0000 -0.0000 -1.0000
vn 0.7071 -0.7071 -0.0000
vn -0.0000 -0.0000 1.0000
vn -0.7071 0.7071 -0.0000
vn 0.7071 0.7071 -0.0000
vn -0.7071 -0.7071 -0.0000
vn -0.0000 1.0000 -0.0000
vn -0.0000 -1.0000 -0.0000
vt 0.669922 0.992188
vt 0.685547 0.693359
vt 0.585938 0.779297
vt 0.667969 0.736328
vt 0.685547 0.992188
vt 0.585938 0.763672
vt 0.669922 0.984375
vt 0.685547 0.685547
vt 0.472656 0.414062
vt 0.667969 0.728516
vt 0.685547 0.984375
vt 0.472656 0.398438
vt 0.685547 0.736328
vt 0.669922 0.974609
vt 0.603516 0.763672
vt 0.667969 0.693359
vt 0.685547 0.974609
vt 0.603516 0.779297
vt 0.685547 0.728516
vt 0.669922 0.966797
vt 0.490234 0.398438
vt 0.667969 0.685547
vt 0.685547 0.966797
vt 0.490234 0.414062
vt 0.708984 0.398438
vt 0.560547 0.283203
vt 0.652344 0.291016
vt 0.716797 0.443359
vt 0.722656 0.398438
vt 0.652344 0.277344
vt 0.708984 0.396484
vt 0.560547 0.281250
vt 0.654297 0.291016
vt 0.716797 0.441406
vt 0.722656 0.396484
vt 0.654297 0.277344
vt 0.718750 0.443359
vt 0.708984 0.396484
vt 0.654297 0.277344
vt 0.558594 0.283203
vt 0.722656 0.396484
vt 0.654297 0.291016
vt 0.718750 0.441406
vt 0.708984 0.394531
vt 0.656250 0.277344
vt 0.558594 0.281250
vt 0.722656 0.394531
vt 0.656250 0.291016
vt 0.091797 0.283203
vt 0.712891 0.494141
vt 0.716797 0.908203
vt 0.707031 0.500000
vt 0.093750 0.283203
vt 0.716797 0.906250
vt 0.091797 0.277344
vt 0.712891 0.488281
vt 0.109375 0.283203
vt 0.707031 0.494141
vt 0.093750 0.277344
vt 0.109375 0.281250
vt 0.712891 0.500000
vt 0.716797 0.896484
vt 0.722656 0.906250
vt 0.707031 0.494141
vt 0.718750 0.896484
vt 0.722656 0.908203
vt 0.712891 0.494141
vt 0.716797 0.890625
vt 0.115234 0.281250
vt 0.707031 0.488281
vt 0.718750 0.890625
vt 0.115234 0.283203
vt 0.212891 0.291016
vt 0.429688 0.314453
vt 0.699219 0.769531
vt 0.398438 0.314453
vt 0.216797 0.291016
vt 0.699219 0.765625
vt 0.212891 0.283203
vt 0.429688 0.306641
vt 0.699219 0.765625
vt 0.398438 0.306641
vt 0.216797 0.283203
vt 0.699219 0.761719
vt 0.410156 0.314453
vt 0.255859 0.291016
vt 0.710938 0.765625
vt 0.417969 0.314453
vt 0.259766 0.291016
vt 0.710938 0.769531
vt 0.410156 0.306641
vt 0.255859 0.283203
vt 0.710938 0.761719
vt 0.417969 0.306641
vt 0.259766 0.283203
vt 0.710938 0.765625
vt 0.710938 0.363281
vt 0.539062 0.292969
vt 0.710938 0.445312
vt 0.527344 0.292969
vt 0.714844 0.363281
vt 0.710938 0.441406
vt 0.710938 0.357422
vt 0.539062 0.287109
vt 0.712891 0.906250
vt 0.527344 0.287109
vt 0.714844 0.357422
vt 0.712891 0.902344
vt 0.533203 0.292969
vt 0.710938 0.322266
vt 0.716797 0.441406
vt 0.533203 0.292969
vt 0.714844 0.322266
vt 0.716797 0.445312
vt 0.533203 0.287109
vt 0.710938 0.316406
vt 0.718750 0.902344
vt 0.533203 0.287109
vt 0.714844 0.316406
vt 0.718750 0.906250
vt 0.689453 0.876953
vt 0.537109 0.283203
vt 0.181641 0.308594
vt 0.533203 0.283203
vt 0.724609 0.876953
vt 0.181641 0.273438
vt 0.689453 0.875000
vt 0.537109 0.281250
vt 0.183594 0.308594
vt 0.533203 0.281250
vt 0.724609 0.875000
vt 0.183594 0.273438
vt 0.535156 0.283203
vt 0.689453 0.794922
vt 0.183594 0.273438
vt 0.535156 0.283203
vt 0.724609 0.794922
vt 0.183594 0.308594
vt 0.535156 0.281250
vt 0.689453 0.792969
vt 0.185547 0.273438
vt 0.535156 0.281250
vt 0.724609 0.792969
vt 0.185547 0.308594
vt 0.714844 0.589844
vt 0.718750 0.585938
vt 0.714844 0.582031
vt 0.410156 0.285156
vt 0.718750 0.589844
vt 0.714844 0.578125
vt 0.714844 0.585938
vt 0.718750 0.582031
vt 0.439453 0.285156
vt 0.410156 0.281250
vt 0.718750 0.585938
vt 0.439453 0.281250
vt 0.414062 0.285156
vt 0.417969 0.285156
vt 0.718750 0.578125
vt 0.714844 0.585938
vt 0.421875 0.285156
vt 0.718750 0.582031
vt 0.414062 0.281250
vt 0.417969 0.281250
vt 0.443359 0.281250
vt 0.714844 0.582031
vt 0.421875 0.281250
vt 0.443359 0.285156
vt 0.716797 0.558594
vt 0.533203 0.283203
vt 0.148438 0.283203
vt 0.529297 0.283203
vt 0.720703 0.558594
vt 0.148438 0.279297
vt 0.716797 0.556641
vt 0.533203 0.281250
vt 0.251953 0.283203
vt 0.529297 0.281250
vt 0.720703 0.556641
vt 0.251953 0.279297
vt 0.531250 0.283203
vt 0.449219 0.283203
vt 0.150391 0.279297
vt 0.531250 0.283203
vt 0.453125 0.283203
vt 0.150391 0.283203
vt 0.531250 0.281250
vt 0.449219 0.281250
vt 0.253906 0.279297
vt 0.531250 0.281250
vt 0.453125 0.281250
vt 0.253906 0.283203
vt 0.714844 0.935547
vt 0.718750 0.472656
vt 0.378906 0.285156
vt 0.527344 0.283203
vt 0.722656 0.935547
vt 0.378906 0.277344
vt 0.714844 0.933594
vt 0.718750 0.470703
vt 0.380859 0.285156
vt 0.527344 0.281250
vt 0.722656 0.933594
vt 0.380859 0.277344
vt 0.529297 0.283203
vt 0.714844 0.828125
vt 0.380859 0.277344
vt 0.716797 0.472656
vt 0.722656 0.828125
vt 0.380859 0.285156
vt 0.529297 0.281250
vt 0.714844 0.826172
vt 0.382812 0.277344
vt 0.716797 0.470703
vt 0.722656 0.826172
vt 0.382812 0.285156
s 1
usemtl BTR_80_TEX_1.png.003
f 168/490/59 171/499/59 169/493/59 166/484/59
f 167/487/60 168/491/60 166/485/60 165/481/60
f 172/502/61 167/488/61 165/482/61 170/496/61
f 171/500/62 172/503/62 170/497/62 169/494/62
f 170/498/63 165/483/63 166/486/63 169/495/63
f 171/501/64 168/492/64 167/489/64 172/504/64
f 176/514/65 179/523/65 177/517/65 174/508/65
f 175/511/66 176/515/66 174/509/66 173/505/66
f 180/526/67 175/512/67 173/506/67 178/520/67
f 179/524/68 180/527/68 178/521/68 177/518/68
f 178/522/69 173/507/69 174/510/69 177/519/69
f 179/525/70 176/516/70 175/513/70 180/528/70
f 184/538/65 187/547/65 185/541/65 182/532/65
f 183/535/71 184/539/71 182/533/71 181/529/71
f 188/550/67 183/536/67 181/530/67 186/544/67
f 187/548/72 188/551/72 186/545/72 185/542/72
f 186/546/62 181/531/62 182/534/62 185/543/62
f 187/549/60 184/540/60 183/537/60 188/552/60
f 192/562/65 195/571/65 193/565/65 190/556/65
f 191/559/71 192/563/71 190/557/71 189/553/71
f 196/574/67 191/560/67 189/554/67 194/568/67
f 195/572/72 196/575/72 194/569/72 193/566/72
f 194/570/62 189/555/62 190/558/62 193/567/62
f 195/573/60 192/564/60 191/561/60 196/576/60
f 200/586/65 203/595/65 201/589/65 198/580/65
f 199/583/71 200/587/71 198/581/71 197/577/71
f 204/598/67 199/584/67 197/578/67 202/592/67
f 203/596/72 204/599/72 202/593/72 201/590/72
f 202/594/62 197/579/62 198/582/62 201/591/62
f 203/597/60 200/588/60 199/585/60 204/600/60
f 208/610/65 211/619/65 209/613/65 206/604/65
f 207/607/66 208/611/66 206/605/66 205/601/66
f 212/622/67 207/608/67 205/602/67 210/616/67
f 211/620/68 212/623/68 210/617/68 209/614/68
f 210/618/69 205/603/69 206/606/69 209/615/69
f 211/621/70 208/612/70 207/609/70 212/624/70
f 216/634/65 219/643/65 217/637/65 214/628/65
f 215/631/66 216/635/66 214/629/66 213/625/66
f 220/646/67 215/632/67 213/626/67 218/640/67
f 219/644/68 220/647/68 218/641/68 217/638/68
f 218/642/69 213/627/69 214/630/69 217/639/69
f 219/645/70 216/636/70 215/633/70 220/648/70
f 224/658/65 227/667/65 225/661/65 222/652/65
f 223/655/66 224/659/66 222/653/66 221/649/66
f 228/670/67 223/656/67 221/650/67 226/664/67
f 227/668/68 228/671/68 226/665/68 225/662/68
f 226/666/69 221/651/69 222/654/69 225/663/69
f 227/669/70 224/660/70 223/657/70 228/672/70
f 232/682/65 235/691/65 233/685/65 230/676/65
f 231/679/66 232/683/66 230/677/66 229/673/66
f 236/694/67 231/680/67 229/674/67 234/688/67
f 235/692/68 236/695/68 234/689/68 233/686/68
f 234/690/69 229/675/69 230/678/69 233/687/69
f 235/693/70 232/684/70 231/681/70 236/696/70
