# Blender 3.3.21
# www.blender.org
mtllib turret_bmd2.mtl
o gun
v 0.408227 0.789974 0.739070
v 0.408227 0.762018 0.679118
v 0.408227 0.498777 0.874857
v 0.408227 0.470821 0.814905
v -0.442273 0.762018 0.679118
v -0.442273 0.789974 0.739070
v -0.442273 0.470821 0.814905
v -0.442273 0.498777 0.874857
v 0.153077 0.720510 1.711951
v 0.153077 0.720510 0.889800
v 0.153077 0.588210 1.711951
v 0.153077 0.588210 0.889800
v 0.030227 0.720510 0.889800
v 0.030227 0.720510 1.711951
v 0.030227 0.588210 0.889800
v 0.030227 0.588210 1.711951
v 0.162527 0.748860 0.937050
v 0.162527 0.748860 0.700800
v 0.162527 0.569310 0.937050
v 0.162527 0.569310 0.700800
v -0.130423 0.748860 0.700800
v -0.130423 0.748860 0.937050
v -0.130423 0.569310 0.700800
v -0.130423 0.569310 0.937050
vn -0.0000 -0.4226 -0.9063
vn 1.0000 -0.0000 -0.0000
vn -0.0000 0.4226 0.9063
vn -1.0000 -0.0000 -0.0000
vn -0.0000 0.9063 -0.4226
vn -0.0000 -0.9063 0.4226
vn -0.0000 -0.0000 -1.0000
vn -0.0000 -0.0000 1.0000
vn -0.0000 1.0000 -0.0000
vn -0.0000 -1.0000 -0.0000
vt 0.476562 0.517578
vt 0.490234 0.794922
vt 0.359375 0.796875
vt 0.437500 0.804688
vt 0.478516 0.517578
vt 0.359375 0.794922
vt 0.476562 0.507812
vt 0.490234 0.785156
vt 0.402344 0.925781
vt 0.437500 0.794922
vt 0.478516 0.507812
vt 0.402344 0.923828
vt 0.464844 0.804688
vt 0.052734 0.503906
vt 0.386719 0.794922
vt 0.462891 0.794922
vt 0.054688 0.503906
vt 0.386719 0.796875
vt 0.464844 0.794922
vt 0.052734 0.494141
vt 0.429688 0.923828
vt 0.462891 0.785156
vt 0.054688 0.494141
vt 0.429688 0.925781
vt 0.519531 0.667969
vt 0.220703 0.503906
vt 0.287109 0.654297
vt 0.406250 0.572266
vt 0.544922 0.667969
vt 0.287109 0.628906
vt 0.519531 0.664062
vt 0.220703 0.500000
vt 0.236328 0.498047
vt 0.406250 0.568359
vt 0.544922 0.664062
vt 0.236328 0.472656
vt 0.410156 0.572266
vt 0.521484 0.714844
vt 0.291016 0.628906
vt 0.216797 0.503906
vt 0.546875 0.714844
vt 0.291016 0.654297
vt 0.410156 0.568359
vt 0.521484 0.710938
vt 0.240234 0.472656
vt 0.216797 0.500000
vt 0.546875 0.710938
vt 0.240234 0.498047
vt 0.171875 0.523438
vt 0.390625 0.460938
vt 0.113281 0.535156
vt 0.539062 0.697266
vt 0.179688 0.523438
vt 0.113281 0.527344
vt 0.171875 0.517578
vt 0.390625 0.455078
vt 0.476562 0.490234
vt 0.539062 0.691406
vt 0.179688 0.517578
vt 0.476562 0.482422
vt 0.548828 0.697266
vt 0.416016 0.523438
vt 0.123047 0.527344
vt 0.380859 0.460938
vt 0.423828 0.523438
vt 0.123047 0.535156
vt 0.548828 0.691406
vt 0.416016 0.517578
vt 0.486328 0.482422
vt 0.380859 0.455078
vt 0.423828 0.517578
vt 0.486328 0.490234
s 1
usemtl BMD_@_TRE_1.png.001
f 4/10/1 7/19/1 5/13/1 2/4/1
f 3/7/2 4/11/2 2/5/2 1/1/2
f 8/22/3 3/8/3 1/2/3 6/16/3
f 7/20/4 8/23/4 6/17/4 5/14/4
f 6/18/5 1/3/5 2/6/5 5/15/5
f 7/21/6 4/12/6 3/9/6 8/24/6
f 12/34/7 15/43/7 13/37/7 10/28/7
f 11/31/2 12/35/2 10/29/2 9/25/2
f 16/46/8 11/32/8 9/26/8 14/40/8
f 15/44/4 16/47/4 14/41/4 13/38/4
f 14/42/9 9/27/9 10/30/9 13/39/9
f 15/45/10 12/36/10 11/33/10 16/48/10
f 20/58/7 23/67/7 21/61/7 18/52/7
f 19/55/2 20/59/2 18/53/2 17/49/2
f 24/70/8 19/56/8 17/50/8 22/64/8
f 23/68/4 24/71/4 22/65/4 21/62/4
f 22/66/9 17/51/9 18/54/9 21/63/9
f 23/69/10 20/60/10 19/57/10 24/72/10
o gun2
v 0.030227 0.692159 3.280647
v 0.030227 0.692160 0.889800
v 0.030227 0.616559 3.280647
v 0.030227 0.616560 0.889800
v -0.054823 0.692160 0.889800
v -0.054823 0.692159 3.280647
v -0.054823 0.616560 0.889800
v -0.054823 0.616559 3.280647
v 0.049127 0.692159 3.545248
v 0.049127 0.692159 3.337348
v 0.049127 0.616559 3.545248
v 0.049127 0.616559 3.337348
v -0.073723 0.692159 3.337348
v -0.073723 0.692159 3.545248
v -0.073723 0.616559 3.337348
v -0.073723 0.616559 3.545248
v 0.020777 0.682709 3.337348
v 0.020777 0.682709 3.280647
v 0.020777 0.626009 3.337348
v 0.020777 0.626009 3.280647
v -0.045373 0.682709 3.280647
v -0.045373 0.682709 3.337348
v -0.045373 0.626009 3.280647
v -0.045373 0.626009 3.337348
vn -0.0000 -0.0000 -1.0000
vn 1.0000 -0.0000 -0.0000
vn -0.0000 -0.0000 1.0000
vn -1.0000 -0.0000 -0.0000
vn -0.0000 1.0000 -0.0000
vn -0.0000 -1.0000 -0.0000
vt 0.101562 0.736328
vt 0.447266 0.830078
vt 0.152344 0.529297
vt 0.175781 0.736328
vt 0.152344 0.455078
vt 0.101562 0.734375
vt 0.447266 0.828125
vt 0.064453 0.513672
vt 0.175781 0.734375
vt 0.064453 0.439453
vt 0.177734 0.736328
vt 0.492188 0.660156
vt 0.154297 0.455078
vt 0.445312 0.830078
vt 0.566406 0.660156
vt 0.154297 0.529297
vt 0.177734 0.734375
vt 0.492188 0.658203
vt 0.066406 0.439453
vt 0.445312 0.828125
vt 0.566406 0.658203
vt 0.066406 0.513672
vt 0.457031 0.529297
vt 0.216797 0.484375
vt 0.390625 0.486328
vt 0.388672 0.923828
vt 0.462891 0.529297
vt 0.390625 0.480469
vt 0.457031 0.527344
vt 0.216797 0.482422
vt 0.380859 0.466797
vt 0.388672 0.921875
vt 0.462891 0.527344
vt 0.380859 0.460938
vt 0.392578 0.923828
vt 0.224609 0.500000
vt 0.394531 0.480469
vt 0.212891 0.484375
vt 0.230469 0.500000
vt 0.394531 0.486328
vt 0.392578 0.921875
vt 0.224609 0.498047
vt 0.384766 0.460938
vt 0.212891 0.482422
vt 0.230469 0.498047
vt 0.384766 0.466797
vt 0.250000 0.509766
vt 0.511719 0.710938
vt 0.298828 0.474609
vt 0.230469 0.519531
vt 0.251953 0.509766
vt 0.298828 0.472656
vt 0.250000 0.507812
vt 0.511719 0.708984
vt 0.085938 0.464844
vt 0.230469 0.517578
vt 0.251953 0.507812
vt 0.085938 0.462891
vt 0.232422 0.519531
vt 0.050781 0.474609
vt 0.300781 0.472656
vt 0.509766 0.710938
vt 0.052734 0.474609
vt 0.300781 0.474609
vt 0.232422 0.517578
vt 0.050781 0.472656
vt 0.087891 0.462891
vt 0.509766 0.708984
vt 0.052734 0.472656
vt 0.087891 0.464844
s 1
usemtl BMD_@_TRE_1.png.001
f 28/81/11 31/89/11 29/83/11 26/76/11
f 27/78/12 28/81/12 26/76/12 25/73/12
f 32/92/13 27/79/13 25/74/13 30/86/13
f 31/90/14 32/93/14 30/87/14 29/84/14
f 30/88/15 25/75/15 26/77/15 29/85/15
f 31/91/16 28/82/16 27/80/16 32/94/16
f 36/104/11 39/113/11 37/107/11 34/98/11
f 35/101/12 36/105/12 34/99/12 33/95/12
f 40/116/13 35/102/13 33/96/13 38/110/13
f 39/114/14 40/117/14 38/111/14 37/108/14
f 38/112/15 33/97/15 34/100/15 37/109/15
f 39/115/16 36/106/16 35/103/16 40/118/16
f 44/128/11 47/137/11 45/131/11 42/122/11
f 43/125/12 44/129/12 42/123/12 41/119/12
f 48/140/13 43/126/13 41/120/13 46/134/13
f 47/138/14 48/141/14 46/135/14 45/132/14
f 46/136/15 41/121/15 42/124/15 45/133/15
f 47/139/16 44/130/16 43/127/16 48/142/16
o turret
v 0.501272 0.692277 0.425148
v 0.733085 0.814456 0.461863
v 0.772789 0.164195 0.468152
v 1.004603 0.286374 0.504867
v 0.786304 0.814456 0.125852
v 0.554491 0.692277 0.089136
v 1.057822 0.286374 0.168856
v 0.826008 0.164195 0.132140
v -0.338324 1.468621 -0.020356
v -0.338324 1.420028 -0.575784
v -0.338324 1.412138 -0.015414
v -0.338324 1.363544 -0.570843
v -0.517873 1.420028 -0.575784
v -0.517873 1.468621 -0.020356
v -0.517873 1.363544 -0.570843
v -0.517873 1.412138 -0.015414
v -0.196573 1.617827 -0.000702
v -0.196573 1.601417 -0.093766
v -0.196573 1.441005 0.030476
v -0.196573 1.424595 -0.062588
v -0.357223 1.601417 -0.093766
v -0.357223 1.617827 -0.000702
v -0.357223 1.424595 -0.062588
v -0.357223 1.441005 0.030476
v -0.352172 1.551783 0.345145
v -0.352133 1.459649 -0.984115
v -0.440645 1.463691 0.351249
v -0.440605 1.371555 -0.978012
v -0.440437 1.547909 -0.990235
v -0.440476 1.640043 0.339025
v -0.528910 1.459816 -0.984132
v -0.528949 1.551950 0.345129
v -0.187123 1.816710 0.010951
v -0.187123 1.816711 -0.367049
v -0.187123 1.637160 0.010951
v -0.187123 1.637161 -0.367049
v -0.366673 1.816711 -0.367049
v -0.366673 1.816710 0.010951
v -0.366673 1.637161 -0.367049
v -0.366673 1.637160 0.010951
v -0.377188 1.193858 -0.629413
v -0.376981 1.410688 -0.644443
v -0.471688 1.193948 -0.629422
v -0.471481 1.410778 -0.644451
v -0.376984 1.417223 -0.550169
v -0.377191 1.200393 -0.535140
v -0.471484 1.417312 -0.550178
v -0.471691 1.200483 -0.535149
v -0.455376 1.626516 0.358908
v -0.455371 1.616060 0.208070
v -0.495507 1.586558 0.361676
v -0.495502 1.576101 0.210838
v -0.495426 1.656096 0.205294
v -0.495430 1.666551 0.356132
v -0.535557 1.616136 0.208062
v -0.535562 1.626591 0.358900
v -0.215473 1.629161 -0.124414
v -0.215473 1.655416 -0.273317
v -0.215474 1.443031 -0.157234
v -0.215473 1.469288 -0.306136
v -0.328873 1.655416 -0.273317
v -0.328873 1.629161 -0.124414
v -0.328874 1.469288 -0.306136
v -0.328874 1.443031 -0.157234
v -0.112899 1.259593 -0.362547
v -0.156940 1.320193 -0.372716
v -0.165386 1.215988 -0.395089
v -0.209427 1.276587 -0.405257
v -0.220841 1.296397 -0.237764
v -0.176799 1.235799 -0.227595
v -0.273327 1.252790 -0.270306
v -0.229286 1.192192 -0.260137
v -0.178017 1.635350 -0.159519
v -0.232220 1.648793 -0.235753
v -0.178017 1.197949 -0.236645
v -0.232220 1.211390 -0.312879
v -0.309630 1.639380 -0.182373
v -0.255427 1.625938 -0.106140
v -0.309630 1.201978 -0.259499
v -0.255427 1.188536 -0.183265
v -0.366673 1.155211 -0.263100
v -0.366673 1.155211 -0.385950
v -0.366673 0.815011 -0.263100
v -0.366673 0.815011 -0.385950
v -0.489523 1.155211 -0.385950
v -0.489523 1.155211 -0.263100
v -0.489523 0.815011 -0.385950
v -0.489523 0.815011 -0.263100
v -0.328873 1.382010 0.114901
v -0.328874 1.382011 -0.404850
v -0.328873 1.098511 0.114900
v -0.328873 1.098511 -0.404850
v -0.517873 1.382011 -0.404849
v -0.517873 1.382010 0.114900
v -0.517873 1.098511 -0.404850
v -0.517873 1.098511 0.114900
v -0.348723 1.207997 -0.404850
v -0.348723 1.207997 -0.489900
v -0.442274 1.114447 -0.404850
v -0.442273 1.114447 -0.489899
v -0.442274 1.301547 -0.489899
v -0.442274 1.301547 -0.404849
v -0.535824 1.207997 -0.489900
v -0.535824 1.207997 -0.404850
v -0.065071 1.083930 0.325522
v -0.065071 1.083930 0.306622
v -0.171985 0.977015 0.325522
v -0.171985 0.977015 0.306622
v -0.171985 1.190844 0.306622
v -0.171985 1.190844 0.325522
v -0.278900 1.083930 0.306622
v -0.278900 1.083930 0.325522
v -0.518401 1.054511 0.714524
v -0.518401 1.054511 0.624749
v -0.652044 0.920868 0.714524
v -0.652044 0.920868 0.624749
v -0.652044 1.188154 0.624750
v -0.652044 1.188154 0.714524
v -0.785687 1.054511 0.624749
v -0.785687 1.054511 0.714524
v 0.682007 0.845035 -0.223552
v 0.660213 0.834277 -0.716262
v 0.680481 0.784504 -0.222163
v 0.658687 0.773746 -0.714873
v -0.067643 0.853355 -0.684483
v -0.045848 0.864113 -0.191773
v -0.069169 0.792824 -0.683094
v -0.047374 0.803582 -0.190384
v 0.497588 0.815011 -0.541996
v 0.676000 0.815011 -0.762316
v 0.497588 0.217299 -0.541996
v 0.676000 0.217299 -0.762316
v 0.382239 0.815011 -1.000200
v 0.203827 0.815011 -0.779879
v 0.382239 0.217299 -1.000200
v 0.203827 0.217299 -0.779879
v 0.382239 0.815011 -0.716699
v 0.382239 0.815011 -1.000199
v 0.382239 0.217299 -0.716700
v 0.382239 0.217299 -1.000200
v -0.404473 0.815011 -1.000199
v -0.404473 0.815011 -0.716699
v -0.404473 0.217299 -1.000200
v -0.404474 0.217299 -0.716700
v 0.648226 0.815011 -0.290633
v 0.884632 0.815011 -0.447108
v 0.648226 0.217298 -0.290634
v 0.884632 0.217298 -0.447108
v 0.676000 0.815011 -0.762316
v 0.439594 0.815011 -0.605842
v 0.676000 0.217298 -0.762316
v 0.439594 0.217298 -0.605842
v 0.642404 0.815011 -0.207486
v 0.920695 0.815011 -0.261580
v 0.642404 0.217298 -0.207486
v 0.920695 0.217298 -0.261580
v 0.884632 0.815011 -0.447108
v 0.606341 0.815011 -0.393013
v 0.884632 0.217298 -0.447108
v 0.606341 0.217298 -0.393013
v 0.247937 0.692987 0.589152
v 0.427935 0.829391 0.727022
v 0.502380 0.148028 0.796125
v 0.682378 0.284431 0.933995
v 0.764566 0.822308 0.294536
v 0.584568 0.685905 0.156667
v 1.019008 0.277349 0.501510
v 0.839010 0.140945 0.363640
v 0.332496 0.700060 0.430176
v 0.413010 0.842602 0.638052
v 0.348716 0.190733 0.773142
v 0.429230 0.333275 0.981018
v 0.682963 0.800317 0.562490
v 0.602449 0.657775 0.354614
v 0.699183 0.290990 0.905456
v 0.618669 0.148448 0.697580
v 0.588635 0.742257 0.094544
v 0.837882 0.821823 0.134021
v 0.765456 0.174460 0.122549
v 1.014703 0.254027 0.162026
v 0.873361 0.821823 -0.089987
v 0.624114 0.742257 -0.129464
v 1.050182 0.254028 -0.061981
v 0.800935 0.174461 -0.101458
v 0.629034 0.792889 -0.012350
v 0.903098 0.842119 -0.065622
v 0.732127 0.197278 -0.032389
v 1.006191 0.246507 -0.085661
v 0.867035 0.842119 -0.251150
v 0.592971 0.792889 -0.197877
v 0.970128 0.246507 -0.271189
v 0.696064 0.197278 -0.217916
v -0.222727 0.817374 -0.779879
v -0.401139 0.817374 -1.000200
v -0.222727 0.217299 -0.779879
v -0.401139 0.217299 -1.000200
v -0.694900 0.817374 -0.762316
v -0.516488 0.817374 -0.541996
v -0.694900 0.217299 -0.762317
v -0.516488 0.217299 -0.541996
v -0.458494 0.817374 -0.605842
v -0.694900 0.817374 -0.762316
v -0.458494 0.217298 -0.605842
v -0.694900 0.217299 -0.762317
v -0.903533 0.817374 -0.447108
v -0.667126 0.817373 -0.290633
v -0.903533 0.217298 -0.447108
v -0.667126 0.217298 -0.290634
v -0.614691 0.776603 -0.198425
v -0.888754 0.825833 -0.251697
v -0.714965 0.197278 -0.217916
v -0.989028 0.246507 -0.271189
v -0.924817 0.825832 -0.066170
v -0.650754 0.776603 -0.012897
v -1.025091 0.246507 -0.085661
v -0.751028 0.197278 -0.032389
v -0.625241 0.817374 -0.393013
v -0.903533 0.817374 -0.447108
v -0.625241 0.217299 -0.393013
v -0.903533 0.217299 -0.447108
v -0.939595 0.817374 -0.261580
v -0.661304 0.817374 -0.207486
v -0.939595 0.217299 -0.261580
v -0.661304 0.217299 -0.207486
v -0.643014 0.742255 -0.129464
v -0.892261 0.821823 -0.089987
v -0.819836 0.174461 -0.101458
v -1.069082 0.254028 -0.061981
v -0.856782 0.821823 0.134021
v -0.607535 0.742257 0.094544
v -1.033603 0.254027 0.162026
v -0.784356 0.174460 0.122550
v 0.835839 0.812647 0.606300
v 0.835839 0.812649 -0.905699
v 0.835839 0.755947 0.606300
v 0.835839 0.755949 -0.905699
v -0.848623 0.812649 -0.905699
v -0.848623 0.812647 0.606300
v -0.848623 0.755949 -0.905699
v -0.848623 0.755947 0.606300
v 0.408227 0.824268 0.562763
v 0.408227 0.754365 0.551065
v 0.408227 0.794634 0.739850
v 0.408227 0.724731 0.728152
v -0.442273 0.754366 0.551065
v -0.442273 0.824268 0.562763
v -0.442274 0.724731 0.728152
v -0.442273 0.794634 0.739850
v -0.011337 0.356826 0.797910
v 0.069557 0.500040 1.006769
v 0.040542 0.128416 0.934438
v 0.121436 0.271631 1.143296
v 0.604237 0.498379 0.800818
v 0.523342 0.355164 0.591960
v 0.656115 0.269970 0.937345
v 0.575221 0.126755 0.728487
v -0.139206 0.357047 0.763462
v -0.150947 0.497372 0.987480
v -0.143441 0.130279 0.905287
v -0.155183 0.270603 1.129305
v 0.137107 0.500291 1.000749
v 0.148849 0.359966 0.776731
v 0.132872 0.273522 1.142575
v 0.144613 0.133197 0.918556
v 1.174975 0.812647 0.070372
v 1.174975 0.812647 -0.071378
v 1.174975 0.661448 0.070372
v 1.174975 0.661448 -0.071378
v 0.853675 0.812647 -0.071378
v 0.853675 0.812647 0.070372
v 0.853675 0.661448 -0.071378
v 0.853675 0.661448 0.070372
v 1.174975 0.812647 0.117622
v 1.174975 0.812647 0.070372
v 1.174975 0.661447 0.117622
v 1.174975 0.661448 0.070372
v 1.042675 0.812647 0.070372
v 1.042675 0.812647 0.117622
v 1.042675 0.661448 0.070372
v 1.042675 0.661448 0.117622
v 0.697750 0.992198 0.259372
v 0.697750 0.992198 0.023122
v 0.697750 0.793747 0.259372
v 0.697751 0.793748 0.023122
v 0.400075 0.992198 0.023122
v 0.400075 0.992198 0.259372
v 0.400075 0.793748 0.023122
v 0.400075 0.793747 0.259372
v 0.697750 1.058347 0.353872
v 0.697750 1.058347 0.108172
v 0.697750 0.982748 0.353872
v 0.697750 0.982749 0.108172
v 0.400075 1.058347 0.108172
v 0.400075 1.058348 0.353872
v 0.400075 0.982749 0.108172
v 0.400075 0.982748 0.353872
v -0.038342 1.083930 0.306622
v -0.038342 1.083930 0.174322
v -0.171985 0.950287 0.306622
v -0.171985 0.950287 0.174322
v -0.171985 1.217574 0.174322
v -0.171985 1.217573 0.306622
v -0.305629 1.083930 0.174322
v -0.305629 1.083930 0.306622
v -0.129125 1.058348 0.268822
v -0.129125 1.058348 0.193222
v -0.129125 0.840998 0.268822
v -0.129125 0.840998 0.193222
v -0.204725 1.058348 0.193222
v -0.204725 1.058348 0.268822
v -0.204725 0.840998 0.193222
v -0.204724 0.840998 0.268822
v -0.484990 1.054511 0.690899
v -0.484990 1.054511 0.459374
v -0.652044 0.887457 0.690899
v -0.652044 0.887457 0.459374
v -0.652044 1.221565 0.459374
v -0.652044 1.221565 0.690899
v -0.819098 1.054511 0.459374
v -0.819098 1.054511 0.690899
v -0.475618 1.060393 0.625567
v -0.475618 1.035079 0.564452
v -0.475618 0.809387 0.729537
v -0.475618 0.784072 0.668423
v -0.522868 1.035079 0.564452
v -0.522868 1.060393 0.625567
v -0.522868 0.784072 0.668423
v -0.522868 0.809387 0.729537
v -0.778018 1.098827 0.622452
v -0.778018 1.129372 0.563776
v -0.778018 0.690192 0.409730
v -0.778018 0.720737 0.351054
v -0.825268 1.129372 0.563776
v -0.825268 1.098827 0.622452
v -0.825268 0.720737 0.351054
v -0.825268 0.690192 0.409730
v 0.849613 0.817372 -0.149141
v 0.997387 0.817373 -0.205866
v 0.849613 0.500798 -0.149141
v 0.997387 0.500798 -0.205866
v 0.851764 0.817373 -0.585227
v 0.703990 0.817373 -0.528502
v 0.851764 0.500798 -0.585227
v 0.703990 0.500798 -0.528502
v 0.269547 0.754004 -0.948538
v 0.238856 0.749925 -1.308574
v 0.269993 0.449413 -0.945125
v 0.239301 0.445333 -1.305160
v -0.441119 0.749580 -1.250606
v -0.410428 0.753660 -0.890570
v -0.440673 0.444988 -1.247192
v -0.409982 0.449068 -0.887157
v -0.221578 0.752540 -0.959290
v -0.427472 0.748928 -1.254717
v -0.221135 0.449199 -0.955891
v -0.427028 0.445587 -1.251318
v -0.986341 0.752476 -0.865264
v -0.780448 0.756087 -0.569837
v -0.985898 0.449134 -0.861864
v -0.780004 0.452746 -0.566438
v 0.916504 1.018773 -0.237956
v 0.805969 1.016444 -0.504800
v 0.916504 0.500592 -0.233434
v 0.805969 0.498263 -0.500278
v 0.251656 1.018448 -0.275204
v 0.362190 1.020776 -0.008360
v 0.251656 0.500267 -0.270682
v 0.362190 0.502595 -0.003838
v 0.297189 0.871711 -0.811199
v 0.297189 0.871711 -0.962399
v 0.297189 0.815011 -0.811199
v 0.297189 0.815011 -0.962399
v 0.153077 0.871711 -0.962399
v 0.153077 0.871711 -0.811200
v 0.153077 0.815011 -0.962399
v 0.153077 0.815011 -0.811200
v -0.572415 0.871711 -0.397517
v -0.648015 0.871711 -0.528460
v -0.572415 0.815011 -0.397517
v -0.648015 0.815011 -0.528460
v -0.772820 0.871711 -0.456404
v -0.697220 0.871711 -0.325461
v -0.772820 0.815011 -0.456404
v -0.697220 0.815011 -0.325461
v -0.405679 0.460293 0.684822
v -0.411873 0.534327 0.803012
v -0.407658 0.354327 0.751096
v -0.413852 0.428361 0.869285
v 0.394355 0.542497 0.840150
v 0.400550 0.468463 0.721960
v 0.392376 0.436531 0.906424
v 0.398571 0.362497 0.788234
v -0.584568 0.685905 0.156667
v -0.764566 0.822308 0.294536
v -0.839011 0.140945 0.363640
v -1.019008 0.277349 0.501510
v -0.427935 0.829391 0.727021
v -0.247938 0.692987 0.589152
v -0.682378 0.284431 0.933995
v -0.502380 0.148028 0.796125
v -0.554491 0.692277 0.089136
v -0.786304 0.814456 0.125852
v -0.826008 0.164195 0.132140
v -1.057822 0.286374 0.168856
v -0.733085 0.814456 0.461863
v -0.501272 0.692277 0.425147
v -1.004602 0.286374 0.504867
v -0.772789 0.164195 0.468151
v -0.523343 0.355164 0.591960
v -0.604237 0.498379 0.800818
v -0.575221 0.126755 0.728487
v -0.656116 0.269970 0.937346
v -0.104551 0.499932 0.993290
v -0.023657 0.356717 0.784431
v -0.156430 0.271522 1.129817
v -0.075536 0.128307 0.920959
v -0.602449 0.657775 0.354614
v -0.682963 0.800317 0.562490
v -0.618669 0.148448 0.697580
v -0.699183 0.290990 0.905456
v -0.413010 0.842602 0.638052
v -0.332496 0.700060 0.430176
v -0.429230 0.333275 0.981018
v -0.348716 0.190733 0.773142
v -1.000000 0.000000 1.000000
v 1.000000 0.000000 1.000000
v -1.000000 0.000000 -1.000000
v 1.000000 0.000000 -1.000000
vn 0.8761 0.4617 0.1388
vn -0.1564 -0.0000 0.9877
vn -0.8761 -0.4617 -0.1388
vn 0.1564 -0.0000 -0.9877
vn -0.4561 0.8870 -0.0722
vn 0.4561 -0.8870 0.0722
vn -0.0000 -0.0000 -1.0000
vn 0.7071 -0.7071 -0.0000
vn -0.0000 -0.0000 1.0000
vn -0.7071 0.7071 -0.0000
vn 0.7071 0.7071 -0.0000
vn -0.7071 -0.7071 -0.0000
vn -0.0442 -0.0218 -0.9988
vn 0.9987 -0.0262 -0.0436
vn 0.0442 0.0218 0.9988
vn -0.9987 0.0262 0.0436
vn 0.0252 0.9994 -0.0229
vn -0.0252 -0.9994 0.0229
vn 0.6293 -0.0000 -0.7771
vn 0.7771 -0.0000 0.6293
vn -0.6293 -0.0000 0.7771
vn -0.7771 -0.0000 -0.6293
vn -0.0000 1.0000 -0.0000
vn -0.0000 -1.0000 -0.0000
vn 1.0000 -0.0000 -0.0000
vn -1.0000 -0.0000 -0.0000
vn 0.8339 -0.0000 -0.5519
vn 0.5519 -0.0000 0.8339
vn -0.8339 -0.0000 0.5519
vn -0.5519 -0.0000 -0.8339
vn 0.9816 -0.0000 -0.1908
vn 0.1908 -0.0000 0.9816
vn -0.9816 -0.0000 0.1908
vn -0.1908 -0.0000 -0.9816
vn 0.6803 0.5155 0.5210
vn -0.6142 0.0129 0.7891
vn -0.6803 -0.5155 -0.5211
vn 0.6142 -0.0129 -0.7891
vn -0.4000 0.8568 -0.3254
vn 0.4000 -0.8568 0.3254
vn 0.3043 0.5387 0.7856
vn -0.9522 0.1492 0.2665
vn -0.3043 -0.5387 -0.7856
vn 0.9522 -0.1492 -0.2665
vn -0.0264 0.8292 -0.5584
vn 0.0264 -0.8292 0.5584
vn 0.9420 0.3007 0.1492
vn -0.9420 -0.3007 -0.1492
vn -0.2970 0.9537 -0.0470
vn 0.2970 -0.9537 0.0470
vn 0.9667 0.1736 -0.1879
vn -0.9667 -0.1736 0.1879
vn -0.1705 0.9848 0.0331
vn 0.1705 -0.9848 -0.0331
vn -0.6293 -0.0000 -0.7771
vn 0.7771 -0.0000 -0.6293
vn 0.6293 -0.0000 0.7771
vn -0.7771 -0.0000 0.6293
vn -0.8339 -0.0000 -0.5519
vn 0.5519 -0.0000 -0.8339
vn 0.8339 -0.0000 0.5519
vn -0.5519 -0.0000 0.8339
vn -0.9667 0.1736 -0.1879
vn 0.1908 -0.0000 -0.9816
vn 0.9667 -0.1736 0.1879
vn -0.1908 -0.0000 0.9816
vn 0.1705 0.9848 0.0331
vn -0.1705 -0.9848 -0.0331
vn -0.9816 -0.0000 -0.1908
vn 0.9816 -0.0000 0.1908
vn -0.9420 0.3007 0.1492
vn -0.1564 -0.0000 -0.9877
vn 0.9420 -0.3007 -0.1492
vn 0.1564 -0.0000 0.9877
vn 0.2970 0.9537 -0.0470
vn -0.2970 -0.9537 0.0470
vn -0.0000 -0.9863 -0.1650
vn -0.0000 0.9863 0.1650
vn -0.0000 0.1651 -0.9863
vn -0.0000 -0.1651 0.9863
vn -0.9332 0.0029 0.3594
vn 0.9332 -0.0029 -0.3594
vn -0.1914 0.8425 -0.5036
vn 0.1914 -0.8425 0.5036
vn -0.0444 0.5303 0.8466
vn -0.9989 -0.0101 -0.0460
vn 0.0444 -0.5303 -0.8466
vn 0.9989 0.0101 0.0460
vn 0.0158 0.8477 -0.5302
vn -0.0158 -0.8477 0.5302
vn -0.0000 -0.3827 -0.9239
vn -0.0000 0.3827 0.9239
vn -0.0000 0.9239 -0.3827
vn -0.0000 -0.9239 0.3827
vn -0.0000 0.4617 -0.8870
vn -0.0000 -0.4617 0.8870
vn -0.0000 0.8870 0.4618
vn -0.0000 -0.8870 -0.4618
vn 0.9336 -0.0000 -0.3584
vn 0.3584 -0.0000 0.9336
vn -0.9336 -0.0000 0.3584
vn -0.3584 -0.0000 -0.9336
vn -0.0849 -0.0113 -0.9963
vn 0.9964 0.0005 -0.0849
vn 0.0849 0.0113 0.9963
vn -0.9964 -0.0005 0.0849
vn -0.0015 0.9999 -0.0112
vn 0.0015 -0.9999 0.0112
vn -0.5717 -0.0100 -0.8204
vn 0.8204 -0.0052 -0.5717
vn 0.5717 0.0100 0.8204
vn -0.8204 0.0052 0.5717
vn -0.3827 -0.0081 -0.9238
vn 0.9239 -0.0033 -0.3827
vn 0.3827 0.0081 0.9238
vn -0.9239 0.0033 0.3827
vn -0.0000 1.0000 -0.0087
vn -0.0000 -1.0000 0.0087
vn -0.5000 -0.0000 -0.8660
vn 0.8660 -0.0000 -0.5000
vn 0.5000 -0.0000 0.8660
vn -0.8660 -0.0000 0.5000
vn -0.6803 0.5155 0.5210
vn -0.6142 -0.0129 -0.7891
vn 0.6803 -0.5155 -0.5211
vn 0.6142 0.0129 0.7891
vn 0.4000 0.8568 -0.3254
vn -0.4000 -0.8568 0.3254
vn -0.8761 0.4617 0.1388
vn 0.8761 -0.4617 -0.1388
vn 0.4561 0.8870 -0.0722
vn -0.4561 -0.8870 0.0722
vn -0.3043 0.5387 0.7856
vn -0.9332 -0.0029 -0.3594
vn 0.3043 -0.5387 -0.7856
vn 0.9332 0.0029 0.3594
vn 0.1914 0.8425 -0.5036
vn -0.1914 -0.8425 0.5036
vn -0.9522 -0.1492 -0.2665
vn 0.9522 0.1492 0.2665
vn 0.0264 0.8292 -0.5584
vn -0.0264 -0.8292 0.5584
vt 0.378906 0.505859
vt 0.328125 0.519531
vt 0.529297 0.519531
vt 0.308594 0.519531
vt 0.386719 0.505859
vt 0.529297 0.511719
vt 0.378906 0.486328
vt 0.328125 0.500000
vt 0.529297 0.476562
vt 0.308594 0.500000
vt 0.386719 0.486328
vt 0.529297 0.468750
vt 0.318359 0.519531
vt 0.386719 0.505859
vt 0.539062 0.511719
vt 0.318359 0.519531
vt 0.394531 0.505859
vt 0.539062 0.519531
vt 0.318359 0.500000
vt 0.386719 0.486328
vt 0.539062 0.468750
vt 0.318359 0.500000
vt 0.394531 0.486328
vt 0.539062 0.476562
vt 0.072266 0.576172
vt 0.398438 0.494141
vt 0.197266 0.476562
vt 0.087891 0.494141
vt 0.074219 0.576172
vt 0.197266 0.474609
vt 0.072266 0.572266
vt 0.398438 0.490234
vt 0.283203 0.468750
vt 0.087891 0.490234
vt 0.074219 0.572266
vt 0.283203 0.466797
vt 0.091797 0.494141
vt 0.201172 0.527344
vt 0.201172 0.474609
vt 0.394531 0.494141
vt 0.203125 0.527344
vt 0.201172 0.476562
vt 0.091797 0.490234
vt 0.201172 0.523438
vt 0.287109 0.466797
vt 0.394531 0.490234
vt 0.203125 0.523438
vt 0.287109 0.468750
vt 0.175781 0.839844
vt 0.560547 0.554688
vt 0.511719 0.871094
vt 0.488281 0.593750
vt 0.177734 0.839844
vt 0.511719 0.869141
vt 0.175781 0.833984
vt 0.560547 0.548828
vt 0.488281 0.464844
vt 0.488281 0.587891
vt 0.177734 0.833984
vt 0.488281 0.462891
vt 0.494141 0.593750
vt 0.097656 0.617188
vt 0.517578 0.869141
vt 0.554688 0.554688
vt 0.099609 0.617188
vt 0.517578 0.871094
vt 0.494141 0.587891
vt 0.097656 0.611328
vt 0.494141 0.462891
vt 0.554688 0.548828
vt 0.099609 0.611328
vt 0.494141 0.464844
vt 0.494141 0.937500
vt 0.566406 0.875000
vt 0.123047 0.572266
vt 0.242188 0.681641
vt 0.509766 0.937500
vt 0.123047 0.556641
vt 0.494141 0.935547
vt 0.566406 0.873047
vt 0.427734 0.869141
vt 0.242188 0.679688
vt 0.509766 0.935547
vt 0.427734 0.853516
vt 0.265625 0.681641
vt 0.562500 0.539062
vt 0.146484 0.556641
vt 0.542969 0.875000
vt 0.578125 0.539062
vt 0.146484 0.572266
vt 0.265625 0.679688
vt 0.562500 0.537109
vt 0.451172 0.853516
vt 0.542969 0.873047
vt 0.578125 0.537109
vt 0.451172 0.869141
vt 0.132812 0.527344
vt 0.066406 0.533203
vt 0.505859 0.869141
vt 0.220703 0.539062
vt 0.142578 0.527344
vt 0.505859 0.859375
vt 0.132812 0.507812
vt 0.066406 0.513672
vt 0.505859 0.859375
vt 0.220703 0.519531
vt 0.142578 0.507812
vt 0.505859 0.849609
vt 0.232422 0.539062
vt 0.378906 0.525391
vt 0.517578 0.859375
vt 0.054688 0.533203
vt 0.388672 0.525391
vt 0.517578 0.869141
vt 0.232422 0.519531
vt 0.378906 0.505859
vt 0.517578 0.849609
vt 0.054688 0.513672
vt 0.388672 0.505859
vt 0.517578 0.859375
vt 0.388672 0.525391
vt 0.435547 0.587891
vt 0.466797 0.677734
vt 0.410156 0.607422
vt 0.398438 0.525391
vt 0.466797 0.667969
vt 0.388672 0.505859
vt 0.435547 0.568359
vt 0.466797 0.667969
vt 0.410156 0.587891
vt 0.398438 0.505859
vt 0.466797 0.658203
vt 0.435547 0.607422
vt 0.162109 0.523438
vt 0.492188 0.667969
vt 0.410156 0.587891
vt 0.171875 0.523438
vt 0.492188 0.677734
vt 0.435547 0.587891
vt 0.162109 0.503906
vt 0.492188 0.658203
vt 0.410156 0.568359
vt 0.171875 0.503906
vt 0.492188 0.667969
vt 0.201172 0.523438
vt 0.275391 0.529297
vt 0.505859 0.767578
vt 0.466797 0.607422
vt 0.210938 0.523438
vt 0.505859 0.757812
vt 0.201172 0.503906
vt 0.275391 0.509766
vt 0.505859 0.757812
vt 0.466797 0.587891
vt 0.210938 0.503906
vt 0.505859 0.748047
vt 0.478516 0.607422
vt 0.210938 0.523438
vt 0.517578 0.757812
vt 0.263672 0.529297
vt 0.220703 0.523438
vt 0.517578 0.767578
vt 0.478516 0.587891
vt 0.210938 0.503906
vt 0.517578 0.748047
vt 0.263672 0.509766
vt 0.220703 0.503906
vt 0.517578 0.757812
vt 0.478516 0.527344
vt 0.287109 0.492188
vt 0.146484 0.460938
vt 0.275391 0.492188
vt 0.488281 0.527344
vt 0.146484 0.451172
vt 0.478516 0.507812
vt 0.287109 0.472656
vt 0.419922 0.460938
vt 0.275391 0.472656
vt 0.488281 0.507812
vt 0.419922 0.451172
vt 0.281250 0.492188
vt 0.220703 0.519531
vt 0.152344 0.451172
vt 0.281250 0.492188
vt 0.230469 0.519531
vt 0.152344 0.460938
vt 0.281250 0.472656
vt 0.220703 0.500000
vt 0.425781 0.451172
vt 0.281250 0.472656
vt 0.230469 0.500000
vt 0.425781 0.460938
vt 0.152344 0.611328
vt 0.455078 0.720703
vt 0.400391 0.687500
vt 0.353516 0.572266
vt 0.160156 0.611328
vt 0.400391 0.679688
vt 0.152344 0.591797
vt 0.455078 0.701172
vt 0.283203 0.500000
vt 0.353516 0.552734
vt 0.160156 0.591797
vt 0.283203 0.492188
vt 0.371094 0.572266
vt 0.398438 0.509766
vt 0.417969 0.679688
vt 0.437500 0.720703
vt 0.406250 0.509766
vt 0.417969 0.687500
vt 0.371094 0.552734
vt 0.398438 0.490234
vt 0.300781 0.492188
vt 0.437500 0.701172
vt 0.406250 0.490234
vt 0.300781 0.500000
vt 0.494141 0.593750
vt 0.181641 0.517578
vt 0.531250 0.990234
vt 0.328125 0.519531
vt 0.501953 0.593750
vt 0.531250 0.982422
vt 0.494141 0.574219
vt 0.181641 0.498047
vt 0.531250 0.937500
vt 0.328125 0.500000
vt 0.501953 0.574219
vt 0.531250 0.929688
vt 0.337891 0.519531
vt 0.005859 0.503906
vt 0.541016 0.982422
vt 0.171875 0.517578
vt 0.013672 0.503906
vt 0.541016 0.990234
vt 0.337891 0.500000
vt 0.005859 0.484375
vt 0.541016 0.929688
vt 0.171875 0.498047
vt 0.013672 0.484375
vt 0.541016 0.937500
vt 0.021484 0.503906
vt 0.037109 0.503906
vt 0.078125 0.464844
vt 0.013672 0.503906
vt 0.029297 0.503906
vt 0.078125 0.457031
vt 0.021484 0.484375
vt 0.037109 0.484375
vt 0.535156 0.914062
vt 0.013672 0.484375
vt 0.029297 0.484375
vt 0.535156 0.906250
vt 0.021484 0.503906
vt 0.037109 0.503906
vt 0.085938 0.457031
vt 0.029297 0.503906
vt 0.044922 0.503906
vt 0.085938 0.464844
vt 0.021484 0.484375
vt 0.037109 0.484375
vt 0.542969 0.906250
vt 0.029297 0.484375
vt 0.044922 0.484375
vt 0.542969 0.914062
vt 0.406250 0.523438
vt 0.005859 0.492188
vt 0.457031 0.462891
vt 0.082031 0.494141
vt 0.416016 0.523438
vt 0.457031 0.453125
vt 0.406250 0.503906
vt 0.005859 0.472656
vt 0.496094 0.462891
vt 0.082031 0.474609
vt 0.416016 0.503906
vt 0.496094 0.453125
vt 0.087891 0.494141
vt 0.478516 0.607422
vt 0.462891 0.453125
vt 0.000000 0.492188
vt 0.488281 0.607422
vt 0.462891 0.462891
vt 0.087891 0.474609
vt 0.478516 0.587891
vt 0.501953 0.453125
vt 0.000000 0.472656
vt 0.488281 0.587891
vt 0.501953 0.462891
vt 0.425781 0.517578
vt 0.457031 0.529297
vt 0.287109 0.492188
vt 0.275391 0.529297
vt 0.435547 0.517578
vt 0.287109 0.482422
vt 0.425781 0.498047
vt 0.457031 0.509766
vt 0.304688 0.492188
vt 0.275391 0.509766
vt 0.435547 0.498047
vt 0.304688 0.482422
vt 0.287109 0.529297
vt 0.435547 0.517578
vt 0.298828 0.482422
vt 0.445312 0.529297
vt 0.445312 0.517578
vt 0.298828 0.492188
vt 0.287109 0.509766
vt 0.435547 0.498047
vt 0.316406 0.482422
vt 0.445312 0.509766
vt 0.445312 0.498047
vt 0.316406 0.492188
vt 0.457031 0.517578
vt 0.125000 0.527344
vt 0.316406 0.492188
vt 0.472656 0.955078
vt 0.466797 0.517578
vt 0.316406 0.482422
vt 0.457031 0.498047
vt 0.125000 0.507812
vt 0.328125 0.492188
vt 0.472656 0.935547
vt 0.466797 0.498047
vt 0.328125 0.482422
vt 0.484375 0.955078
vt 0.466797 0.517578
vt 0.328125 0.482422
vt 0.113281 0.527344
vt 0.476562 0.517578
vt 0.328125 0.492188
vt 0.484375 0.935547
vt 0.466797 0.498047
vt 0.339844 0.482422
vt 0.113281 0.507812
vt 0.476562 0.498047
vt 0.339844 0.492188
vt 0.072266 0.511719
vt 0.462891 0.480469
vt 0.437500 0.460938
vt 0.488281 0.482422
vt 0.082031 0.511719
vt 0.437500 0.451172
vt 0.072266 0.494141
vt 0.462891 0.462891
vt 0.472656 0.460938
vt 0.488281 0.464844
vt 0.082031 0.494141
vt 0.472656 0.451172
vt 0.494141 0.482422
vt 0.082031 0.511719
vt 0.443359 0.451172
vt 0.457031 0.480469
vt 0.091797 0.511719
vt 0.443359 0.460938
vt 0.494141 0.464844
vt 0.082031 0.494141
vt 0.478516 0.451172
vt 0.457031 0.462891
vt 0.091797 0.494141
vt 0.478516 0.460938
vt 0.484375 0.955078
vt 0.351562 0.492188
vt 0.539062 0.496094
vt 0.339844 0.492188
vt 0.494141 0.955078
vt 0.539062 0.486328
vt 0.484375 0.935547
vt 0.351562 0.472656
vt 0.539062 0.476562
vt 0.339844 0.472656
vt 0.494141 0.935547
vt 0.539062 0.466797
vt 0.345703 0.492188
vt 0.054688 0.513672
vt 0.544922 0.486328
vt 0.345703 0.492188
vt 0.064453 0.513672
vt 0.544922 0.496094
vt 0.345703 0.472656
vt 0.054688 0.494141
vt 0.544922 0.466797
vt 0.345703 0.472656
vt 0.064453 0.494141
vt 0.544922 0.476562
vt 0.498047 0.767578
vt 0.373047 0.501953
vt 0.326172 0.464844
vt 0.498047 0.869141
vt 0.505859 0.767578
vt 0.326172 0.457031
vt 0.498047 0.748047
vt 0.373047 0.482422
vt 0.333984 0.464844
vt 0.498047 0.849609
vt 0.505859 0.748047
vt 0.333984 0.457031
vt 0.505859 0.869141
vt 0.498047 0.531250
vt 0.333984 0.457031
vt 0.365234 0.501953
vt 0.505859 0.531250
vt 0.333984 0.464844
vt 0.505859 0.849609
vt 0.498047 0.511719
vt 0.341797 0.457031
vt 0.365234 0.482422
vt 0.505859 0.511719
vt 0.341797 0.464844
vt 0.519531 0.927734
vt 0.552734 0.892578
vt 0.251953 1.000000
vt 0.494141 0.570312
vt 0.566406 0.927734
vt 0.251953 0.953125
vt 0.519531 0.925781
vt 0.552734 0.890625
vt 0.251953 0.953125
vt 0.494141 0.568359
vt 0.566406 0.925781
vt 0.251953 0.906250
vt 0.546875 0.570312
vt 0.519531 0.664062
vt 0.304688 0.953125
vt 0.500000 0.892578
vt 0.566406 0.664062
vt 0.304688 1.000000
vt 0.546875 0.568359
vt 0.519531 0.662109
vt 0.304688 0.906250
vt 0.500000 0.890625
vt 0.566406 0.662109
vt 0.304688 0.953125
vt 0.453125 0.628906
vt 0.404297 0.851562
vt 0.410156 0.720703
vt 0.363281 0.654297
vt 0.455078 0.628906
vt 0.410156 0.718750
vt 0.453125 0.623047
vt 0.404297 0.845703
vt 0.541016 0.986328
vt 0.363281 0.648438
vt 0.455078 0.623047
vt 0.541016 0.984375
vt 0.390625 0.654297
vt 0.396484 0.546875
vt 0.437500 0.718750
vt 0.376953 0.851562
vt 0.398438 0.546875
vt 0.437500 0.720703
vt 0.390625 0.648438
vt 0.396484 0.541016
vt 0.568359 0.984375
vt 0.376953 0.845703
vt 0.398438 0.541016
vt 0.568359 0.986328
vt 0.511719 0.841797
vt 0.339844 0.500000
vt 0.304688 0.500000
vt 0.519531 0.841797
vt 0.339844 0.492188
vt 0.511719 0.833984
vt 0.339844 0.492188
vt 0.500000 0.658203
vt 0.304688 0.492188
vt 0.519531 0.833984
vt 0.500000 0.650391
vt 0.322266 0.500000
vt 0.533203 0.484375
vt 0.357422 0.492188
vt 0.322266 0.500000
vt 0.541016 0.484375
vt 0.357422 0.500000
vt 0.322266 0.492188
vt 0.533203 0.476562
vt 0.517578 0.650391
vt 0.322266 0.492188
vt 0.541016 0.476562
vt 0.517578 0.658203
vt 0.035156 0.464844
vt 0.541016 0.841797
vt 0.531250 0.808594
vt 0.066406 0.468750
vt 0.042969 0.464844
vt 0.531250 0.800781
vt 0.035156 0.457031
vt 0.541016 0.833984
vt 0.242188 0.468750
vt 0.066406 0.460938
vt 0.042969 0.457031
vt 0.242188 0.460938
vt 0.076172 0.468750
vt 0.535156 0.955078
vt 0.541016 0.800781
vt 0.531250 0.841797
vt 0.542969 0.955078
vt 0.541016 0.808594
vt 0.076172 0.460938
vt 0.535156 0.947266
vt 0.251953 0.460938
vt 0.531250 0.833984
vt 0.542969 0.947266
vt 0.251953 0.468750
vt 0.386719 0.439453
vt 0.195312 0.480469
vt 0.552734 0.763672
vt 0.507812 0.771484
vt 0.390625 0.439453
vt 0.552734 0.759766
vt 0.386719 0.435547
vt 0.195312 0.476562
vt 0.558594 0.628906
vt 0.507812 0.767578
vt 0.390625 0.435547
vt 0.558594 0.625000
vt 0.517578 0.771484
vt 0.398438 0.427734
vt 0.562500 0.759766
vt 0.185547 0.480469
vt 0.402344 0.427734
vt 0.562500 0.763672
vt 0.517578 0.767578
vt 0.398438 0.423828
vt 0.568359 0.625000
vt 0.185547 0.476562
vt 0.402344 0.423828
vt 0.568359 0.628906
vt 0.132812 0.470703
vt 0.492188 0.427734
vt 0.181641 0.421875
vt 0.484375 0.427734
vt 0.134766 0.470703
vt 0.181641 0.419922
vt 0.132812 0.466797
vt 0.492188 0.423828
vt 0.199219 0.421875
vt 0.484375 0.423828
vt 0.134766 0.466797
vt 0.199219 0.419922
vt 0.488281 0.427734
vt 0.537109 0.978516
vt 0.185547 0.419922
vt 0.488281 0.427734
vt 0.539062 0.978516
vt 0.185547 0.421875
vt 0.488281 0.423828
vt 0.537109 0.974609
vt 0.203125 0.419922
vt 0.488281 0.423828
vt 0.539062 0.974609
vt 0.203125 0.421875
vt 0.509766 0.748047
vt 0.548828 0.519531
vt 0.531250 0.511719
vt 0.462891 0.460938
vt 0.517578 0.748047
vt 0.531250 0.503906
vt 0.509766 0.742188
vt 0.548828 0.513672
vt 0.529297 0.468750
vt 0.462891 0.455078
vt 0.517578 0.742188
vt 0.529297 0.460938
vt 0.472656 0.460938
vt 0.519531 0.455078
vt 0.541016 0.503906
vt 0.539062 0.519531
vt 0.527344 0.455078
vt 0.541016 0.511719
vt 0.472656 0.455078
vt 0.519531 0.449219
vt 0.539062 0.460938
vt 0.539062 0.513672
vt 0.527344 0.449219
vt 0.539062 0.468750
vt 0.152344 0.591797
vt 0.189453 0.558594
vt 0.533203 1.000000
vt 0.429688 0.910156
vt 0.160156 0.591797
vt 0.533203 0.992188
vt 0.152344 0.589844
vt 0.189453 0.556641
vt 0.533203 0.925781
vt 0.429688 0.908203
vt 0.160156 0.589844
vt 0.533203 0.917969
vt 0.439453 0.910156
vt 0.123047 0.574219
vt 0.542969 0.992188
vt 0.179688 0.558594
vt 0.130859 0.574219
vt 0.542969 1.000000
vt 0.439453 0.908203
vt 0.123047 0.572266
vt 0.542969 0.917969
vt 0.179688 0.556641
vt 0.130859 0.572266
vt 0.542969 0.925781
vt 0.494141 0.447266
vt 0.363281 0.435547
vt 0.087891 0.455078
vt 0.564453 0.652344
vt 0.498047 0.447266
vt 0.087891 0.451172
vt 0.494141 0.441406
vt 0.363281 0.429688
vt 0.414062 0.455078
vt 0.564453 0.646484
vt 0.498047 0.441406
vt 0.414062 0.451172
vt 0.570312 0.652344
vt 0.554688 0.724609
vt 0.093750 0.451172
vt 0.357422 0.435547
vt 0.558594 0.724609
vt 0.093750 0.455078
vt 0.570312 0.646484
vt 0.554688 0.718750
vt 0.419922 0.451172
vt 0.357422 0.429688
vt 0.558594 0.718750
vt 0.419922 0.455078
vt 0.169922 0.503906
vt 0.416016 0.503906
vt 0.560547 0.546875
vt 0.472656 0.708984
vt 0.171875 0.503906
vt 0.560547 0.544922
vt 0.169922 0.498047
vt 0.416016 0.498047
vt 0.095703 0.437500
vt 0.472656 0.703125
vt 0.171875 0.498047
vt 0.095703 0.435547
vt 0.474609 0.708984
vt 0.443359 0.476562
vt 0.562500 0.544922
vt 0.414062 0.503906
vt 0.445312 0.476562
vt 0.562500 0.546875
vt 0.474609 0.703125
vt 0.443359 0.470703
vt 0.097656 0.435547
vt 0.414062 0.498047
vt 0.445312 0.470703
vt 0.097656 0.437500
vt 0.537109 0.849609
vt 0.169922 0.462891
vt 0.197266 0.462891
vt 0.085938 0.462891
vt 0.544922 0.849609
vt 0.197266 0.455078
vt 0.537109 0.841797
vt 0.169922 0.455078
vt 0.205078 0.462891
vt 0.085938 0.455078
vt 0.544922 0.841797
vt 0.205078 0.455078
vt 0.093750 0.462891
vt 0.169922 0.462891
vt 0.205078 0.455078
vt 0.162109 0.462891
vt 0.177734 0.462891
vt 0.205078 0.462891
vt 0.093750 0.455078
vt 0.169922 0.455078
vt 0.212891 0.455078
vt 0.162109 0.455078
vt 0.177734 0.455078
vt 0.212891 0.462891
vt 0.462891 0.480469
vt 0.425781 0.476562
vt 0.507812 0.435547
vt 0.119141 0.490234
vt 0.464844 0.480469
vt 0.507812 0.433594
vt 0.462891 0.472656
vt 0.425781 0.468750
vt 0.062500 0.433594
vt 0.119141 0.482422
vt 0.464844 0.472656
vt 0.062500 0.431641
vt 0.121094 0.490234
vt 0.074219 0.460938
vt 0.509766 0.433594
vt 0.423828 0.476562
vt 0.076172 0.460938
vt 0.509766 0.435547
vt 0.121094 0.482422
vt 0.074219 0.453125
vt 0.064453 0.431641
vt 0.423828 0.468750
vt 0.076172 0.453125
vt 0.064453 0.433594
vt 0.429688 0.451172
vt 0.341797 0.431641
vt 0.554688 0.460938
vt 0.099609 0.625000
vt 0.431641 0.451172
vt 0.554688 0.458984
vt 0.429688 0.437500
vt 0.341797 0.417969
vt 0.558594 0.642578
vt 0.099609 0.611328
vt 0.431641 0.437500
vt 0.558594 0.640625
vt 0.101562 0.625000
vt 0.341797 0.431641
vt 0.556641 0.458984
vt 0.339844 0.431641
vt 0.343750 0.431641
vt 0.556641 0.460938
vt 0.101562 0.611328
vt 0.341797 0.417969
vt 0.560547 0.640625
vt 0.339844 0.417969
vt 0.343750 0.417969
vt 0.560547 0.642578
vt 0.425781 0.460938
vt 0.439453 0.498047
vt 0.529297 0.531250
vt 0.441406 0.658203
vt 0.431641 0.460938
vt 0.529297 0.525391
vt 0.425781 0.451172
vt 0.439453 0.488281
vt 0.529297 0.525391
vt 0.441406 0.648438
vt 0.431641 0.451172
vt 0.529297 0.519531
vt 0.455078 0.658203
vt 0.539062 0.566406
vt 0.542969 0.525391
vt 0.425781 0.498047
vt 0.544922 0.566406
vt 0.542969 0.531250
vt 0.455078 0.648438
vt 0.539062 0.556641
vt 0.542969 0.519531
vt 0.425781 0.488281
vt 0.544922 0.556641
vt 0.542969 0.525391
vt 0.505859 0.531250
vt 0.494141 0.634766
vt 0.337891 0.535156
vt 0.179688 0.527344
vt 0.517578 0.531250
vt 0.337891 0.523438
vt 0.505859 0.521484
vt 0.494141 0.625000
vt 0.466797 0.990234
vt 0.179688 0.517578
vt 0.517578 0.521484
vt 0.466797 0.978516
vt 0.201172 0.527344
vt 0.505859 0.521484
vt 0.359375 0.523438
vt 0.472656 0.634766
vt 0.517578 0.521484
vt 0.359375 0.535156
vt 0.201172 0.517578
vt 0.505859 0.511719
vt 0.488281 0.978516
vt 0.472656 0.625000
vt 0.517578 0.511719
vt 0.488281 0.990234
vt 0.507812 0.804688
vt 0.494141 0.578125
vt 0.466797 0.978516
vt 0.472656 0.587891
vt 0.519531 0.804688
vt 0.466797 0.966797
vt 0.507812 0.794922
vt 0.494141 0.568359
vt 0.466797 0.966797
vt 0.472656 0.578125
vt 0.519531 0.794922
vt 0.466797 0.955078
vt 0.494141 0.587891
vt 0.263672 0.492188
vt 0.488281 0.966797
vt 0.472656 0.578125
vt 0.275391 0.492188
vt 0.488281 0.978516
vt 0.494141 0.578125
vt 0.263672 0.482422
vt 0.488281 0.955078
vt 0.472656 0.568359
vt 0.275391 0.482422
vt 0.488281 0.966797
vt 0.498047 0.511719
vt 0.458984 0.740234
vt 0.271484 0.767578
vt 0.439453 0.892578
vt 0.507812 0.511719
vt 0.271484 0.757812
vt 0.498047 0.496094
vt 0.458984 0.724609
vt 0.482422 0.833984
vt 0.439453 0.876953
vt 0.507812 0.496094
vt 0.482422 0.824219
vt 0.458984 0.892578
vt 0.500000 0.990234
vt 0.291016 0.757812
vt 0.439453 0.740234
vt 0.509766 0.990234
vt 0.291016 0.767578
vt 0.458984 0.876953
vt 0.500000 0.974609
vt 0.501953 0.824219
vt 0.439453 0.724609
vt 0.509766 0.974609
vt 0.501953 0.833984
vt 0.072266 0.441406
vt 0.562500 0.708984
vt 0.556641 0.900391
vt 0.402344 0.443359
vt 0.076172 0.441406
vt 0.556641 0.896484
vt 0.072266 0.439453
vt 0.562500 0.707031
vt 0.556641 0.699219
vt 0.402344 0.441406
vt 0.076172 0.439453
vt 0.556641 0.695312
vt 0.406250 0.443359
vt 0.560547 0.634766
vt 0.560547 0.896484
vt 0.558594 0.708984
vt 0.564453 0.634766
vt 0.560547 0.900391
vt 0.406250 0.441406
vt 0.560547 0.632812
vt 0.560547 0.695312
vt 0.558594 0.707031
vt 0.564453 0.632812
vt 0.560547 0.699219
vt 0.398438 0.435547
vt 0.132812 0.429688
vt 0.380859 0.443359
vt 0.564453 0.964844
vt 0.402344 0.435547
vt 0.380859 0.439453
vt 0.398438 0.433594
vt 0.132812 0.427734
vt 0.138672 0.441406
vt 0.564453 0.962891
vt 0.402344 0.433594
vt 0.138672 0.437500
vt 0.568359 0.964844
vt 0.169922 0.421875
vt 0.384766 0.439453
vt 0.128906 0.429688
vt 0.173828 0.421875
vt 0.384766 0.443359
vt 0.568359 0.962891
vt 0.169922 0.419922
vt 0.142578 0.437500
vt 0.128906 0.427734
vt 0.173828 0.419922
vt 0.142578 0.441406
vt 0.558594 0.783203
vt 0.548828 0.943359
vt 0.523438 0.904297
vt 0.521484 0.628906
vt 0.562500 0.783203
vt 0.523438 0.900391
vt 0.558594 0.779297
vt 0.548828 0.939453
vt 0.523438 0.740234
vt 0.521484 0.625000
vt 0.562500 0.779297
vt 0.523438 0.736328
vt 0.546875 0.628906
vt 0.408203 0.441406
vt 0.548828 0.900391
vt 0.523438 0.943359
vt 0.412109 0.441406
vt 0.548828 0.904297
vt 0.546875 0.625000
vt 0.408203 0.437500
vt 0.548828 0.736328
vt 0.523438 0.939453
vt 0.412109 0.437500
vt 0.548828 0.740234
vt 0.496094 0.708984
vt 0.455078 0.583984
vt 0.500000 0.550781
vt 0.437500 0.648438
vt 0.503906 0.708984
vt 0.500000 0.542969
vt 0.496094 0.689453
vt 0.455078 0.564453
vt 0.500000 0.542969
vt 0.437500 0.628906
vt 0.503906 0.689453
vt 0.500000 0.535156
vt 0.455078 0.648438
vt 0.406250 0.503906
vt 0.517578 0.542969
vt 0.437500 0.583984
vt 0.414062 0.503906
vt 0.517578 0.550781
vt 0.455078 0.628906
vt 0.406250 0.484375
vt 0.517578 0.535156
vt 0.437500 0.564453
vt 0.414062 0.484375
vt 0.517578 0.542969
vt 0.201172 0.503906
vt 0.425781 0.517578
vt 0.531250 0.677734
vt 0.230469 0.517578
vt 0.208984 0.503906
vt 0.531250 0.669922
vt 0.201172 0.484375
vt 0.425781 0.498047
vt 0.423828 0.468750
vt 0.230469 0.498047
vt 0.208984 0.484375
vt 0.423828 0.460938
vt 0.240234 0.517578
vt 0.208984 0.503906
vt 0.541016 0.669922
vt 0.416016 0.517578
vt 0.216797 0.503906
vt 0.541016 0.677734
vt 0.240234 0.498047
vt 0.208984 0.484375
vt 0.433594 0.460938
vt 0.416016 0.498047
vt 0.216797 0.484375
vt 0.433594 0.468750
vt 0.535156 0.880859
vt 0.517578 0.642578
vt 0.500000 0.566406
vt 0.500000 0.650391
vt 0.542969 0.880859
vt 0.500000 0.558594
vt 0.535156 0.873047
vt 0.517578 0.634766
vt 0.500000 0.558594
vt 0.500000 0.642578
vt 0.542969 0.873047
vt 0.500000 0.550781
vt 0.517578 0.650391
vt 0.318359 0.464844
vt 0.517578 0.558594
vt 0.500000 0.642578
vt 0.326172 0.464844
vt 0.517578 0.566406
vt 0.517578 0.642578
vt 0.318359 0.457031
vt 0.517578 0.550781
vt 0.500000 0.634766
vt 0.326172 0.457031
vt 0.517578 0.558594
vt 0.044922 0.503906
vt 0.201172 0.517578
vt 0.263672 0.468750
vt 0.181641 0.517578
vt 0.052734 0.503906
vt 0.263672 0.460938
vt 0.044922 0.484375
vt 0.201172 0.498047
vt 0.273438 0.468750
vt 0.181641 0.498047
vt 0.052734 0.484375
vt 0.273438 0.460938
vt 0.191406 0.517578
vt 0.162109 0.503906
vt 0.273438 0.460938
vt 0.191406 0.517578
vt 0.169922 0.503906
vt 0.273438 0.468750
vt 0.191406 0.498047
vt 0.162109 0.484375
vt 0.283203 0.460938
vt 0.191406 0.498047
vt 0.169922 0.484375
vt 0.283203 0.468750
s 1
usemtl BMD_@_TRE_1.png.001
f 52/152/17 55/161/17 53/155/17 50/146/17
f 51/149/18 52/153/18 50/147/18 49/143/18
f 56/164/19 51/150/19 49/144/19 54/158/19
f 55/162/20 56/165/20 54/159/20 53/156/20
f 54/160/21 49/145/21 50/148/21 53/157/21
f 55/163/22 52/154/22 51/151/22 56/166/22
f 156/176/23 159/185/23 157/179/23 154/170/23
f 155/173/24 156/177/24 154/171/24 153/167/24
f 160/188/25 155/174/25 153/168/25 158/182/25
f 159/186/26 160/189/26 158/183/26 157/180/26
f 158/184/27 153/169/27 154/172/27 157/181/27
f 159/187/28 156/178/28 155/175/28 160/190/28
f 164/200/23 167/209/23 165/203/23 162/194/23
f 163/197/24 164/201/24 162/195/24 161/191/24
f 168/212/25 163/198/25 161/192/25 166/206/25
f 167/210/26 168/213/26 166/207/26 165/204/26
f 166/208/27 161/193/27 162/196/27 165/205/27
f 167/211/28 164/202/28 163/199/28 168/214/28
f 172/224/29 175/233/29 173/227/29 170/218/29
f 171/221/30 172/225/30 170/219/30 169/215/30
f 176/236/31 171/222/31 169/216/31 174/230/31
f 175/234/32 176/237/32 174/231/32 173/228/32
f 174/232/33 169/217/33 170/220/33 173/229/33
f 175/235/34 172/226/34 171/223/34 176/238/34
f 180/248/35 183/257/35 181/251/35 178/242/35
f 179/245/36 180/249/36 178/243/36 177/239/36
f 184/260/37 179/246/37 177/240/37 182/254/37
f 183/258/38 184/261/38 182/255/38 181/252/38
f 182/256/39 177/241/39 178/244/39 181/253/39
f 183/259/40 180/250/40 179/247/40 184/262/40
f 188/272/23 191/281/23 189/275/23 186/266/23
f 187/269/41 188/273/41 186/267/41 185/263/41
f 192/284/25 187/270/25 185/264/25 190/278/25
f 191/282/42 192/285/42 190/279/42 189/276/42
f 190/280/39 185/265/39 186/268/39 189/277/39
f 191/283/40 188/274/40 187/271/40 192/286/40
f 196/296/43 199/305/43 197/299/43 194/290/43
f 195/293/44 196/297/44 194/291/44 193/287/44
f 200/308/45 195/294/45 193/288/45 198/302/45
f 199/306/46 200/309/46 198/303/46 197/300/46
f 198/304/39 193/289/39 194/292/39 197/301/39
f 199/307/40 196/298/40 195/295/40 200/310/40
f 204/320/47 207/329/47 205/323/47 202/314/47
f 203/317/48 204/321/48 202/315/48 201/311/48
f 208/332/49 203/318/49 201/312/49 206/326/49
f 207/330/50 208/333/50 206/327/50 205/324/50
f 206/328/39 201/313/39 202/316/39 205/325/39
f 207/331/40 204/322/40 203/319/40 208/334/40
f 212/344/51 215/353/51 213/347/51 210/338/51
f 211/341/52 212/345/52 210/339/52 209/335/52
f 216/356/53 211/342/53 209/336/53 214/350/53
f 215/354/54 216/357/54 214/351/54 213/348/54
f 214/352/55 209/337/55 210/340/55 213/349/55
f 215/355/56 212/346/56 211/343/56 216/358/56
f 220/368/57 223/377/57 221/371/57 218/362/57
f 219/365/58 220/369/58 218/363/58 217/359/58
f 224/380/59 219/366/59 217/360/59 222/374/59
f 223/378/60 224/381/60 222/375/60 221/372/60
f 222/376/61 217/361/61 218/364/61 221/373/61
f 223/379/62 220/370/62 219/367/62 224/382/62
f 228/392/63 231/401/63 229/395/63 226/386/63
f 227/389/18 228/393/18 226/387/18 225/383/18
f 232/404/64 227/390/64 225/384/64 230/398/64
f 231/402/20 232/405/20 230/399/20 229/396/20
f 230/400/65 225/385/65 226/388/65 229/397/65
f 231/403/66 228/394/66 227/391/66 232/406/66
f 236/416/67 239/425/67 237/419/67 234/410/67
f 235/413/48 236/417/48 234/411/48 233/407/48
f 240/428/68 235/414/68 233/408/68 238/422/68
f 239/426/50 240/429/50 238/423/50 237/420/50
f 238/424/69 233/409/69 234/412/69 237/421/69
f 239/427/70 236/418/70 235/415/70 240/430/70
f 244/440/71 247/449/71 245/443/71 242/434/71
f 243/437/72 244/441/72 242/435/72 241/431/72
f 248/452/73 243/438/73 241/432/73 246/446/73
f 247/450/74 248/453/74 246/447/74 245/444/74
f 246/448/39 241/433/39 242/436/39 245/445/39
f 247/451/40 244/442/40 243/439/40 248/454/40
f 252/464/75 255/473/75 253/467/75 250/458/75
f 251/461/76 252/465/76 250/459/76 249/455/76
f 256/476/77 251/462/77 249/456/77 254/470/77
f 255/474/78 256/477/78 254/471/78 253/468/78
f 254/472/39 249/457/39 250/460/39 253/469/39
f 255/475/40 252/466/40 251/463/40 256/478/40
f 260/488/79 263/497/79 261/491/79 258/482/79
f 259/485/80 260/489/80 258/483/80 257/479/80
f 264/500/81 259/486/81 257/480/81 262/494/81
f 263/498/82 264/501/82 262/495/82 261/492/82
f 262/496/83 257/481/83 258/484/83 261/493/83
f 263/499/84 260/490/84 259/487/84 264/502/84
f 268/512/85 271/521/85 269/515/85 266/506/85
f 267/509/80 268/513/80 266/507/80 265/503/80
f 272/524/86 267/510/86 265/504/86 270/518/86
f 271/522/82 272/525/82 270/519/82 269/516/82
f 270/520/39 265/505/39 266/508/39 269/517/39
f 271/523/40 268/514/40 267/511/40 272/526/40
f 276/536/87 279/545/87 277/539/87 274/530/87
f 275/533/88 276/537/88 274/531/88 273/527/88
f 280/548/89 275/534/89 273/528/89 278/542/89
f 279/546/90 280/549/90 278/543/90 277/540/90
f 278/544/91 273/529/91 274/532/91 277/541/91
f 279/547/92 276/538/92 275/535/92 280/550/92
f 284/560/23 287/569/23 285/563/23 282/554/23
f 283/557/41 284/561/41 282/555/41 281/551/41
f 288/572/25 283/558/25 281/552/25 286/566/25
f 287/570/42 288/573/42 286/567/42 285/564/42
f 286/568/39 281/553/39 282/556/39 285/565/39
f 287/571/40 284/562/40 283/559/40 288/574/40
f 292/584/93 295/593/93 293/587/93 290/578/93
f 291/581/41 292/585/41 290/579/41 289/575/41
f 296/596/94 291/582/94 289/576/94 294/590/94
f 295/594/42 296/597/42 294/591/42 293/588/42
f 294/592/95 289/577/95 290/580/95 293/589/95
f 295/595/96 292/586/96 291/583/96 296/598/96
f 300/607/57 303/616/57 301/610/57 298/601/57
f 299/604/97 300/608/97 298/602/97 297/599/97
f 304/619/59 299/605/59 297/600/59 302/613/59
f 303/617/98 304/620/98 302/614/98 301/611/98
f 302/615/99 297/600/99 298/603/99 301/612/99
f 303/618/100 300/609/100 299/606/100 304/621/100
f 308/631/101 311/640/101 309/634/101 306/625/101
f 307/628/102 308/632/102 306/626/102 305/622/102
f 312/643/103 307/629/103 305/623/103 310/637/103
f 311/641/104 312/644/104 310/638/104 309/635/104
f 310/639/105 305/624/105 306/627/105 309/636/105
f 311/642/106 308/633/106 307/630/106 312/645/106
f 316/655/23 319/664/23 317/658/23 314/649/23
f 315/652/41 316/656/41 314/650/41 313/646/41
f 320/667/25 315/653/25 313/647/25 318/661/25
f 319/665/42 320/668/42 318/662/42 317/659/42
f 318/663/39 313/648/39 314/651/39 317/660/39
f 319/666/40 316/657/40 315/654/40 320/669/40
f 324/679/23 327/688/23 325/682/23 322/673/23
f 323/676/41 324/680/41 322/674/41 321/670/41
f 328/691/25 323/677/25 321/671/25 326/685/25
f 327/689/42 328/692/42 326/686/42 325/683/42
f 326/687/39 321/672/39 322/675/39 325/684/39
f 327/690/40 324/681/40 323/678/40 328/693/40
f 332/703/23 335/712/23 333/706/23 330/697/23
f 331/700/41 332/704/41 330/698/41 329/694/41
f 336/715/25 331/701/25 329/695/25 334/709/25
f 335/713/42 336/716/42 334/710/42 333/707/42
f 334/711/39 329/696/39 330/699/39 333/708/39
f 335/714/40 332/705/40 331/702/40 336/717/40
f 340/727/23 343/736/23 341/730/23 338/721/23
f 339/724/41 340/728/41 338/722/41 337/718/41
f 344/739/25 339/725/25 337/719/25 342/733/25
f 343/737/42 344/740/42 342/734/42 341/731/42
f 342/735/39 337/720/39 338/723/39 341/732/39
f 343/738/40 340/729/40 339/726/40 344/741/40
f 348/751/23 351/760/23 349/754/23 346/745/23
f 347/748/24 348/752/24 346/746/24 345/742/24
f 352/763/25 347/749/25 345/743/25 350/757/25
f 351/761/26 352/764/26 350/758/26 349/755/26
f 350/759/27 345/744/27 346/747/27 349/756/27
f 351/762/28 348/753/28 347/750/28 352/765/28
f 356/775/23 359/784/23 357/778/23 354/769/23
f 355/772/41 356/776/41 354/770/41 353/766/41
f 360/787/25 355/773/25 353/767/25 358/781/25
f 359/785/42 360/788/42 358/782/42 357/779/42
f 358/783/39 353/768/39 354/771/39 357/780/39
f 359/786/40 356/777/40 355/774/40 360/789/40
f 364/799/23 367/808/23 365/802/23 362/793/23
f 363/796/24 364/800/24 362/794/24 361/790/24
f 368/811/25 363/797/25 361/791/25 366/805/25
f 367/809/26 368/812/26 366/806/26 365/803/26
f 366/807/27 361/792/27 362/795/27 365/804/27
f 367/810/28 364/801/28 363/798/28 368/813/28
f 372/823/107 375/832/107 373/826/107 370/817/107
f 371/820/41 372/824/41 370/818/41 369/814/41
f 376/835/108 371/821/108 369/815/108 374/829/108
f 375/833/42 376/836/42 374/830/42 373/827/42
f 374/831/109 369/816/109 370/819/109 373/828/109
f 375/834/110 372/825/110 371/822/110 376/837/110
f 380/847/111 383/856/111 381/850/111 378/841/111
f 379/844/41 380/848/41 378/842/41 377/838/41
f 384/859/112 379/845/112 377/839/112 382/853/112
f 383/857/42 384/860/42 382/854/42 381/851/42
f 382/855/113 377/840/113 378/843/113 381/852/113
f 383/858/114 380/849/114 379/846/114 384/861/114
f 388/871/115 391/880/115 389/874/115 386/865/115
f 387/868/116 388/872/116 386/866/116 385/862/116
f 392/883/117 387/869/117 385/863/117 390/877/117
f 391/881/118 392/884/118 390/878/118 389/875/118
f 390/879/39 385/864/39 386/867/39 389/876/39
f 391/882/40 388/873/40 387/870/40 392/885/40
f 396/895/119 399/904/119 397/898/119 394/889/119
f 395/892/120 396/896/120 394/890/120 393/886/120
f 400/907/121 395/893/121 393/887/121 398/901/121
f 399/905/122 400/908/122 398/902/122 397/899/122
f 398/903/123 393/888/123 394/891/123 397/900/123
f 399/906/124 396/897/124 395/894/124 400/909/124
f 404/919/125 407/928/125 405/922/125 402/913/125
f 403/916/126 404/920/126 402/914/126 401/910/126
f 408/931/127 403/917/127 401/911/127 406/925/127
f 407/929/128 408/932/128 406/926/128 405/923/128
f 406/927/123 401/912/123 402/915/123 405/924/123
f 407/930/124 404/921/124 403/918/124 408/933/124
f 412/943/129 415/952/129 413/946/129 410/937/129
f 411/940/130 412/944/130 410/938/130 409/934/130
f 416/955/131 411/941/131 409/935/131 414/949/131
f 415/953/132 416/956/132 414/950/132 413/947/132
f 414/951/133 409/936/133 410/939/133 413/948/133
f 415/954/134 412/945/134 411/942/134 416/957/134
f 420/967/23 423/976/23 421/970/23 418/961/23
f 419/964/41 420/968/41 418/962/41 417/958/41
f 424/979/25 419/965/25 417/959/25 422/973/25
f 423/977/42 424/980/42 422/974/42 421/971/42
f 422/975/39 417/960/39 418/963/39 421/972/39
f 423/978/40 420/969/40 419/966/40 424/981/40
f 428/991/135 431/1000/135 429/994/135 426/985/135
f 427/988/136 428/992/136 426/986/136 425/982/136
f 432/1003/137 427/989/137 425/983/137 430/997/137
f 431/1001/138 432/1004/138 430/998/138 429/995/138
f 430/999/39 425/984/39 426/987/39 429/996/39
f 431/1002/40 428/993/40 427/990/40 432/1005/40
f 436/1015/101 439/1024/101 437/1018/101 434/1009/101
f 435/1012/102 436/1016/102 434/1010/102 433/1006/102
f 440/1027/103 435/1013/103 433/1007/103 438/1021/103
f 439/1025/104 440/1028/104 438/1022/104 437/1019/104
f 438/1023/105 433/1008/105 434/1011/105 437/1020/105
f 439/1026/106 436/1017/106 435/1014/106 440/1029/106
f 444/1039/139 447/1048/139 445/1042/139 442/1033/139
f 443/1036/140 444/1040/140 442/1034/140 441/1030/140
f 448/1051/141 443/1037/141 441/1031/141 446/1045/141
f 447/1049/142 448/1052/142 446/1046/142 445/1043/142
f 446/1047/143 441/1032/143 442/1035/143 445/1044/143
f 447/1050/144 444/1041/144 443/1038/144 448/1053/144
f 452/1063/145 455/1072/145 453/1066/145 450/1057/145
f 451/1060/88 452/1064/88 450/1058/88 449/1054/88
f 456/1075/146 451/1061/146 449/1055/146 454/1069/146
f 455/1073/90 456/1076/90 454/1070/90 453/1067/90
f 454/1071/147 449/1056/147 450/1059/147 453/1068/147
f 455/1074/148 452/1065/148 451/1062/148 456/1077/148
f 460/1087/149 463/1096/149 461/1090/149 458/1081/149
f 459/1084/150 460/1088/150 458/1082/150 457/1078/150
f 464/1099/151 459/1085/151 457/1079/151 462/1093/151
f 463/1097/152 464/1100/152 462/1094/152 461/1091/152
f 462/1095/153 457/1080/153 458/1083/153 461/1092/153
f 463/1098/154 460/1089/154 459/1086/154 464/1101/154
f 468/1111/149 471/1120/149 469/1114/149 466/1105/149
f 467/1108/155 468/1112/155 466/1106/155 465/1102/155
f 472/1123/151 467/1109/151 465/1103/151 470/1117/151
f 471/1121/156 472/1124/156 470/1118/156 469/1115/156
f 470/1119/157 465/1104/157 466/1107/157 469/1116/157
f 471/1122/158 468/1113/158 467/1110/158 472/1125/158
