# Blender 3.3.21
# www.blender.org
mtllib turret_pancsir.mtl
o gun
v 1.068781 1.828459 -0.516178
v 1.068781 1.828460 -1.609496
v 1.068781 1.288715 -0.516178
v 1.068781 1.288716 -1.609496
v -1.057406 1.828460 -1.609496
v -1.057406 1.828459 -0.516178
v -1.057406 1.288716 -1.609496
v -1.057406 1.288715 -0.516178
v 1.040821 1.558587 0.616761
v 1.040821 1.558588 -0.515553
v 0.880687 1.398454 0.616761
v 0.880687 1.398454 -0.515553
v 0.880687 1.718721 -0.515553
v 0.880687 1.718720 0.616761
v 0.720554 1.558588 -0.515553
v 0.720554 1.558587 0.616761
v 1.005235 1.549633 2.252323
v 1.005235 1.549634 0.616761
v 0.951858 1.496256 2.252323
v 0.951858 1.496256 0.616761
v 0.951858 1.603011 0.616761
v 0.951858 1.603011 2.252323
v 0.898480 1.549634 0.616761
v 0.898480 1.549633 2.252323
v 0.885222 1.554053 2.252323
v 0.885222 1.554053 0.616761
v 0.831844 1.500675 2.252323
v 0.831844 1.500675 0.616761
v 0.831844 1.607431 0.616761
v 0.831844 1.607430 2.252323
v 0.778466 1.554053 0.616761
v 0.778466 1.554053 2.252323
v 1.572656 1.703272 -1.522052
v 1.572656 1.703272 -1.735934
v 1.572656 1.539716 -1.522052
v 1.572656 1.539716 -1.735934
v 0.943594 1.703272 -1.735934
v 0.943594 1.703272 -1.522052
v 0.943594 1.539716 -1.735934
v 0.943594 1.539716 -1.522052
v -0.831844 1.607430 2.252323
v -0.831844 1.607431 0.616761
v -0.778466 1.554053 2.252323
v -0.778466 1.554053 0.616761
v -0.885222 1.554053 0.616761
v -0.885222 1.554053 2.252323
v -0.831844 1.500675 0.616761
v -0.831844 1.500675 2.252323
v -0.951858 1.603011 2.252323
v -0.951858 1.603011 0.616761
v -0.898480 1.549633 2.252323
v -0.898480 1.549634 0.616761
v -1.005236 1.549634 0.616761
v -1.005236 1.549633 2.252323
v -0.951858 1.496256 0.616761
v -0.951858 1.496256 2.252323
v -0.880687 1.718720 0.616761
v -0.880687 1.718721 -0.515553
v -0.720554 1.558587 0.616761
v -0.720554 1.558588 -0.515553
v -1.040821 1.558588 -0.515553
v -1.040821 1.558587 0.616761
v -0.880687 1.398454 -0.515553
v -0.880687 1.398454 0.616761
v -0.943594 1.703272 -1.522052
v -0.943594 1.703272 -1.735934
v -0.943594 1.539716 -1.522052
v -0.943594 1.539716 -1.735934
v -1.572656 1.703272 -1.735934
v -1.572656 1.703272 -1.522052
v -1.572656 1.539716 -1.735934
v -1.572656 1.539716 -1.522052
v 1.714997 1.753596 2.252323
v 1.714997 1.753597 -1.194939
v 1.572656 1.611256 2.252323
v 1.572656 1.611256 -1.194939
v 1.572656 1.895937 -1.194939
v 1.572656 1.895937 2.252324
v 1.430316 1.753597 -1.194939
v 1.430316 1.753596 2.252323
v 1.761375 1.501972 0.868386
v 1.761375 1.501972 -0.855245
v 1.761375 0.872909 0.868386
v 1.761375 0.872909 -0.855245
v 1.698469 1.501972 -0.855245
v 1.698469 1.501972 0.868386
v 1.698469 0.872909 -0.855245
v 1.698469 0.872909 0.868386
v 1.698469 1.627784 0.918711
v 1.698469 1.627784 -1.484308
v 1.698469 1.149697 0.918711
v 1.698469 1.149697 -1.484308
v 1.069406 1.627784 -1.484308
v 1.069406 1.627784 0.918711
v 1.069406 1.149697 -1.484308
v 1.069406 1.149697 0.918711
v 1.714997 1.428596 2.252323
v 1.714997 1.428597 -1.194939
v 1.572656 1.286256 2.252323
v 1.572656 1.286256 -1.194939
v 1.572656 1.570938 -1.194939
v 1.572656 1.570937 2.252323
v 1.430316 1.428597 -1.194939
v 1.430316 1.428596 2.252323
v 1.714997 1.141096 2.252323
v 1.714997 1.141097 -1.194939
v 1.572656 0.998756 2.252323
v 1.572656 0.998756 -1.194940
v 1.572656 1.283437 -1.194939
v 1.572656 1.283437 2.252323
v 1.430316 1.141097 -1.194939
v 1.430316 1.141096 2.252323
v 1.402497 1.428596 2.252323
v 1.402497 1.428597 -1.194939
v 1.260156 1.286256 2.252323
v 1.260156 1.286256 -1.194939
v 1.260156 1.570938 -1.194939
v 1.260156 1.570937 2.252323
v 1.117816 1.428597 -1.194939
v 1.117816 1.428596 2.252323
v 1.402497 1.141096 2.252323
v 1.402497 1.141097 -1.194939
v 1.260156 0.998756 2.252323
v 1.260156 0.998756 -1.194940
v 1.260156 1.283437 -1.194939
v 1.260156 1.283437 2.252323
v 1.117816 1.141097 -1.194939
v 1.117816 1.141096 2.252323
v 1.402497 1.753596 2.252323
v 1.402497 1.753597 -1.194939
v 1.260156 1.611256 2.252323
v 1.260156 1.611256 -1.194939
v 1.260156 1.895937 -1.194939
v 1.260156 1.895937 2.252324
v 1.117816 1.753597 -1.194939
v 1.117816 1.753596 2.252323
v -1.260156 1.895937 2.252324
v -1.260156 1.895937 -1.194939
v -1.117816 1.753596 2.252323
v -1.117816 1.753597 -1.194939
v -1.402497 1.753597 -1.194939
v -1.402497 1.753596 2.252323
v -1.260156 1.611256 -1.194939
v -1.260156 1.611256 2.252323
v -1.572656 1.570937 2.252323
v -1.572656 1.570938 -1.194939
v -1.430316 1.428596 2.252323
v -1.430316 1.428597 -1.194939
v -1.714997 1.428597 -1.194939
v -1.714997 1.428596 2.252323
v -1.572656 1.286256 -1.194939
v -1.572656 1.286256 2.252323
v -1.260156 1.570937 2.252323
v -1.260156 1.570938 -1.194939
v -1.117816 1.428596 2.252323
v -1.117816 1.428597 -1.194939
v -1.402497 1.428597 -1.194939
v -1.402497 1.428596 2.252323
v -1.260156 1.286256 -1.194939
v -1.260156 1.286256 2.252323
v -1.260156 1.283437 2.252323
v -1.260156 1.283437 -1.194939
v -1.117816 1.141096 2.252323
v -1.117816 1.141097 -1.194939
v -1.402497 1.141097 -1.194939
v -1.402497 1.141096 2.252323
v -1.260156 0.998756 -1.194940
v -1.260156 0.998756 2.252323
v -1.572656 1.283437 2.252323
v -1.572656 1.283437 -1.194939
v -1.430316 1.141096 2.252323
v -1.430316 1.141097 -1.194939
v -1.714997 1.141097 -1.194939
v -1.714997 1.141096 2.252323
v -1.572656 0.998756 -1.194940
v -1.572656 0.998756 2.252323
v -1.572656 1.895937 2.252324
v -1.572656 1.895937 -1.194939
v -1.430316 1.753596 2.252323
v -1.430316 1.753597 -1.194939
v -1.714997 1.753597 -1.194939
v -1.714997 1.753596 2.252323
v -1.572656 1.611256 -1.194939
v -1.572656 1.611256 2.252323
v -1.698469 1.501972 0.868386
v -1.698469 1.501972 -0.855245
v -1.698469 0.872909 0.868386
v -1.698469 0.872909 -0.855245
v -1.761375 1.501972 -0.855245
v -1.761375 1.501972 0.868386
v -1.761375 0.872909 -0.855245
v -1.761375 0.872909 0.868386
v -1.069406 1.627784 0.918711
v -1.069406 1.627784 -1.484308
v -1.069406 1.149697 0.918711
v -1.069406 1.149697 -1.484308
v -1.698469 1.627784 -1.484308
v -1.698469 1.627784 0.918711
v -1.698469 1.149697 -1.484308
v -1.698469 1.149697 0.918711
vn -0.0000 -0.0000 -1.0000
vn 1.0000 -0.0000 -0.0000
vn -0.0000 -0.0000 1.0000
vn -1.0000 -0.0000 -0.0000
vn -0.0000 1.0000 -0.0000
vn -0.0000 -1.0000 -0.0000
vn 0.7071 -0.7071 -0.0000
vn -0.7071 0.7071 -0.0000
vn 0.7071 0.7071 -0.0000
vn -0.7071 -0.7071 -0.0000
vt 0.591797 0.761719
vt 0.546875 0.734375
vt 0.062500 0.578125
vt 0.357422 0.740234
vt 0.626953 0.761719
vt 0.062500 0.542969
vt 0.591797 0.744141
vt 0.546875 0.716797
vt 0.423828 0.933594
vt 0.357422 0.722656
vt 0.626953 0.744141
vt 0.423828 0.898438
vt 0.423828 0.740234
vt 0.591797 0.558594
vt 0.128906 0.542969
vt 0.480469 0.734375
vt 0.626953 0.558594
vt 0.128906 0.578125
vt 0.423828 0.722656
vt 0.591797 0.541016
vt 0.490234 0.898438
vt 0.480469 0.716797
vt 0.626953 0.541016
vt 0.490234 0.933594
vt 0.693359 0.640625
vt 0.687500 0.970703
vt 0.402344 0.308594
vt 0.652344 0.529297
vt 0.728516 0.640625
vt 0.402344 0.273438
vt 0.693359 0.632812
vt 0.687500 0.962891
vt 0.375000 0.304688
vt 0.652344 0.521484
vt 0.728516 0.632812
vt 0.375000 0.269531
vt 0.660156 0.529297
vt 0.693359 0.353516
vt 0.410156 0.273438
vt 0.679688 0.970703
vt 0.728516 0.353516
vt 0.410156 0.308594
vt 0.660156 0.521484
vt 0.693359 0.345703
vt 0.382812 0.269531
vt 0.679688 0.962891
vt 0.728516 0.345703
vt 0.382812 0.304688
vt 0.281250 0.646484
vt 0.712891 0.578125
vt 0.296875 0.207031
vt 0.701172 0.460938
vt 0.332031 0.646484
vt 0.296875 0.156250
vt 0.281250 0.644531
vt 0.712891 0.576172
vt 0.474609 0.207031
vt 0.701172 0.458984
vt 0.332031 0.644531
vt 0.474609 0.156250
vt 0.703125 0.460938
vt 0.423828 0.890625
vt 0.298828 0.156250
vt 0.710938 0.578125
vt 0.474609 0.890625
vt 0.298828 0.207031
vt 0.703125 0.458984
vt 0.423828 0.888672
vt 0.476562 0.156250
vt 0.710938 0.576172
vt 0.474609 0.888672
vt 0.476562 0.207031
vt 0.789062 0.761719
vt 0.732422 0.984375
vt 0.242188 0.205078
vt 0.494141 0.271484
vt 0.839844 0.761719
vt 0.242188 0.154297
vt 0.789062 0.759766
vt 0.732422 0.982422
vt 0.244141 0.205078
vt 0.494141 0.269531
vt 0.839844 0.759766
vt 0.244141 0.154297
vt 0.496094 0.271484
vt 0.791016 0.937500
vt 0.244141 0.154297
vt 0.730469 0.984375
vt 0.841797 0.937500
vt 0.244141 0.205078
vt 0.496094 0.269531
vt 0.791016 0.935547
vt 0.246094 0.154297
vt 0.730469 0.982422
vt 0.841797 0.935547
vt 0.246094 0.205078
vt 0.800781 0.458984
vt 0.812500 0.814453
vt 0.794922 0.962891
vt 0.792969 0.849609
vt 0.806641 0.458984
vt 0.794922 0.957031
vt 0.800781 0.453125
vt 0.812500 0.808594
vt 0.794922 0.957031
vt 0.792969 0.843750
vt 0.806641 0.453125
vt 0.794922 0.951172
vt 0.812500 0.849609
vt 0.800781 0.363281
vt 0.814453 0.957031
vt 0.792969 0.814453
vt 0.806641 0.363281
vt 0.814453 0.962891
vt 0.812500 0.843750
vt 0.800781 0.357422
vt 0.814453 0.951172
vt 0.792969 0.808594
vt 0.806641 0.357422
vt 0.814453 0.957031
vt 0.625000 0.740234
vt 0.466797 0.271484
vt 0.238281 0.205078
vt 0.218750 0.271484
vt 0.675781 0.740234
vt 0.238281 0.154297
vt 0.625000 0.738281
vt 0.466797 0.269531
vt 0.240234 0.205078
vt 0.218750 0.269531
vt 0.675781 0.738281
vt 0.240234 0.154297
vt 0.220703 0.271484
vt 0.769531 0.701172
vt 0.240234 0.154297
vt 0.464844 0.271484
vt 0.820312 0.701172
vt 0.240234 0.205078
vt 0.220703 0.269531
vt 0.769531 0.699219
vt 0.242188 0.154297
vt 0.464844 0.269531
vt 0.820312 0.699219
vt 0.242188 0.205078
vt 0.000000 0.544922
vt 0.728516 0.699219
vt 0.613281 0.207031
vt 0.140625 0.283203
vt 0.050781 0.544922
vt 0.613281 0.156250
vt 0.000000 0.542969
vt 0.728516 0.697266
vt 0.236328 0.205078
vt 0.140625 0.281250
vt 0.050781 0.542969
vt 0.236328 0.154297
vt 0.142578 0.283203
vt 0.480469 0.701172
vt 0.615234 0.156250
vt 0.726562 0.699219
vt 0.531250 0.701172
vt 0.615234 0.207031
vt 0.142578 0.281250
vt 0.480469 0.699219
vt 0.238281 0.154297
vt 0.726562 0.697266
vt 0.531250 0.699219
vt 0.238281 0.205078
vt 0.693359 0.753906
vt 0.251953 0.378906
vt 0.041016 0.410156
vt 0.406250 0.408203
vt 0.728516 0.753906
vt 0.041016 0.375000
vt 0.693359 0.746094
vt 0.251953 0.371094
vt 0.015625 0.308594
vt 0.406250 0.400391
vt 0.728516 0.746094
vt 0.015625 0.273438
vt 0.414062 0.408203
vt 0.693359 0.648438
vt 0.048828 0.375000
vt 0.244141 0.378906
vt 0.728516 0.648438
vt 0.048828 0.410156
vt 0.414062 0.400391
vt 0.693359 0.640625
vt 0.023438 0.273438
vt 0.244141 0.371094
vt 0.728516 0.640625
vt 0.023438 0.308594
vt 0.169922 0.212891
vt 0.623047 0.904297
vt 0.708984 0.359375
vt 0.441406 0.425781
vt 0.175781 0.212891
vt 0.708984 0.353516
vt 0.169922 0.207031
vt 0.623047 0.898438
vt 0.720703 0.615234
vt 0.441406 0.419922
vt 0.175781 0.207031
vt 0.720703 0.609375
vt 0.460938 0.425781
vt 0.800781 0.464844
vt 0.728516 0.353516
vt 0.603516 0.904297
vt 0.806641 0.464844
vt 0.728516 0.359375
vt 0.460938 0.419922
vt 0.800781 0.458984
vt 0.740234 0.609375
vt 0.603516 0.898438
vt 0.806641 0.458984
vt 0.740234 0.615234
vt 0.589844 0.488281
vt 0.468750 0.224609
vt 0.511719 0.412109
vt 0.642578 0.226562
vt 0.697266 0.488281
vt 0.511719 0.304688
vt 0.589844 0.482422
vt 0.468750 0.218750
vt 0.517578 0.412109
vt 0.642578 0.220703
vt 0.697266 0.482422
vt 0.517578 0.304688
vt 0.648438 0.226562
vt 0.589844 0.482422
vt 0.517578 0.304688
vt 0.462891 0.224609
vt 0.697266 0.482422
vt 0.517578 0.412109
vt 0.648438 0.220703
vt 0.589844 0.476562
vt 0.523438 0.304688
vt 0.462891 0.218750
vt 0.697266 0.476562
vt 0.523438 0.412109
vt 0.503906 0.898438
vt 0.476562 0.332031
vt 0.259766 0.212891
vt 0.560547 0.345703
vt 0.558594 0.898438
vt 0.259766 0.158203
vt 0.503906 0.878906
vt 0.476562 0.312500
vt 0.693359 0.208984
vt 0.560547 0.326172
vt 0.558594 0.878906
vt 0.693359 0.154297
vt 0.562500 0.345703
vt 0.503906 0.878906
vt 0.261719 0.158203
vt 0.474609 0.332031
vt 0.558594 0.878906
vt 0.261719 0.212891
vt 0.562500 0.326172
vt 0.503906 0.859375
vt 0.695312 0.154297
vt 0.474609 0.312500
vt 0.558594 0.859375
vt 0.695312 0.208984
vt 0.494141 0.810547
vt 0.705078 0.558594
vt 0.167969 0.519531
vt 0.632812 0.316406
vt 0.568359 0.810547
vt 0.167969 0.445312
vt 0.494141 0.794922
vt 0.705078 0.542969
vt 0.187500 0.519531
vt 0.632812 0.300781
vt 0.568359 0.794922
vt 0.187500 0.445312
vt 0.652344 0.316406
vt 0.087891 0.500000
vt 0.187500 0.445312
vt 0.685547 0.558594
vt 0.162109 0.500000
vt 0.187500 0.519531
vt 0.652344 0.300781
vt 0.087891 0.484375
vt 0.207031 0.445312
vt 0.685547 0.542969
vt 0.162109 0.484375
vt 0.207031 0.519531
vt 0.591797 1.000000
vt 0.785156 0.988281
vt 0.523438 0.412109
vt 0.677734 0.224609
vt 0.699219 1.000000
vt 0.523438 0.304688
vt 0.591797 0.994141
vt 0.785156 0.982422
vt 0.529297 0.412109
vt 0.677734 0.218750
vt 0.699219 0.994141
vt 0.529297 0.304688
vt 0.683594 0.224609
vt 0.591797 0.994141
vt 0.529297 0.304688
vt 0.779297 0.988281
vt 0.699219 0.994141
vt 0.529297 0.412109
vt 0.683594 0.218750
vt 0.591797 0.988281
vt 0.535156 0.304688
vt 0.779297 0.982422
vt 0.699219 0.988281
vt 0.535156 0.412109
vt 0.591797 0.988281
vt 0.683594 0.218750
vt 0.535156 0.412109
vt 0.160156 0.218750
vt 0.699219 0.988281
vt 0.535156 0.304688
vt 0.591797 0.982422
vt 0.683594 0.212891
vt 0.541016 0.412109
vt 0.160156 0.212891
vt 0.699219 0.982422
vt 0.541016 0.304688
vt 0.166016 0.218750
vt 0.591797 0.767578
vt 0.541016 0.304688
vt 0.677734 0.218750
vt 0.699219 0.767578
vt 0.541016 0.412109
vt 0.166016 0.212891
vt 0.591797 0.761719
vt 0.546875 0.304688
vt 0.677734 0.212891
vt 0.699219 0.761719
vt 0.546875 0.412109
vt 0.589844 0.500000
vt 0.386719 0.226562
vt 0.500000 0.412109
vt 0.550781 0.230469
vt 0.697266 0.500000
vt 0.500000 0.304688
vt 0.589844 0.494141
vt 0.386719 0.220703
vt 0.505859 0.412109
vt 0.550781 0.224609
vt 0.697266 0.494141
vt 0.505859 0.304688
vt 0.556641 0.230469
vt 0.589844 0.494141
vt 0.505859 0.304688
vt 0.380859 0.226562
vt 0.697266 0.494141
vt 0.505859 0.412109
vt 0.556641 0.224609
vt 0.589844 0.488281
vt 0.511719 0.304688
vt 0.380859 0.220703
vt 0.697266 0.488281
vt 0.511719 0.412109
vt 0.589844 0.630859
vt 0.470703 0.242188
vt 0.375000 0.412109
vt 0.757812 0.910156
vt 0.697266 0.630859
vt 0.375000 0.304688
vt 0.589844 0.625000
vt 0.470703 0.236328
vt 0.380859 0.412109
vt 0.757812 0.904297
vt 0.697266 0.625000
vt 0.380859 0.304688
vt 0.763672 0.910156
vt 0.589844 0.625000
vt 0.380859 0.304688
vt 0.464844 0.242188
vt 0.697266 0.625000
vt 0.380859 0.412109
vt 0.763672 0.904297
vt 0.589844 0.619141
vt 0.386719 0.304688
vt 0.464844 0.236328
vt 0.697266 0.619141
vt 0.386719 0.412109
vt 0.583984 0.923828
vt 0.466797 0.425781
vt 0.494141 0.447266
vt 0.082031 0.449219
vt 0.691406 0.923828
vt 0.494141 0.339844
vt 0.583984 0.917969
vt 0.466797 0.419922
vt 0.050781 0.437500
vt 0.082031 0.443359
vt 0.691406 0.917969
vt 0.050781 0.330078
vt 0.087891 0.449219
vt 0.583984 0.917969
vt 0.500000 0.339844
vt 0.460938 0.425781
vt 0.691406 0.917969
vt 0.500000 0.447266
vt 0.087891 0.443359
vt 0.583984 0.912109
vt 0.056641 0.330078
vt 0.460938 0.419922
vt 0.691406 0.912109
vt 0.056641 0.437500
vt 0.589844 0.726562
vt 0.751953 0.246094
vt 0.363281 0.412109
vt 0.748047 0.312500
vt 0.697266 0.726562
vt 0.363281 0.304688
vt 0.589844 0.720703
vt 0.751953 0.240234
vt 0.369141 0.412109
vt 0.748047 0.306641
vt 0.697266 0.720703
vt 0.369141 0.304688
vt 0.753906 0.312500
vt 0.589844 0.720703
vt 0.369141 0.304688
vt 0.746094 0.246094
vt 0.697266 0.720703
vt 0.369141 0.412109
vt 0.753906 0.306641
vt 0.589844 0.714844
vt 0.375000 0.304688
vt 0.746094 0.240234
vt 0.697266 0.714844
vt 0.375000 0.412109
vt 0.589844 0.738281
vt 0.753906 0.667969
vt 0.351562 0.414062
vt 0.099609 0.255859
vt 0.697266 0.738281
vt 0.351562 0.306641
vt 0.589844 0.732422
vt 0.753906 0.662109
vt 0.357422 0.414062
vt 0.099609 0.250000
vt 0.697266 0.732422
vt 0.357422 0.306641
vt 0.105469 0.255859
vt 0.589844 0.732422
vt 0.357422 0.306641
vt 0.748047 0.667969
vt 0.697266 0.732422
vt 0.357422 0.414062
vt 0.105469 0.250000
vt 0.589844 0.726562
vt 0.363281 0.306641
vt 0.748047 0.662109
vt 0.697266 0.726562
vt 0.363281 0.414062
vt 0.587891 0.564453
vt 0.748047 0.347656
vt 0.017578 0.416016
vt 0.742188 0.449219
vt 0.695312 0.564453
vt 0.017578 0.308594
vt 0.587891 0.558594
vt 0.748047 0.341797
vt 0.345703 0.414062
vt 0.742188 0.443359
vt 0.695312 0.558594
vt 0.345703 0.306641
vt 0.748047 0.449219
vt 0.589844 0.859375
vt 0.023438 0.308594
vt 0.742188 0.347656
vt 0.697266 0.859375
vt 0.023438 0.416016
vt 0.748047 0.443359
vt 0.589844 0.853516
vt 0.351562 0.306641
vt 0.742188 0.341797
vt 0.697266 0.853516
vt 0.351562 0.414062
vt 0.587891 0.576172
vt 0.152344 0.263672
vt 0.005859 0.416016
vt 0.734375 0.306641
vt 0.695312 0.576172
vt 0.005859 0.308594
vt 0.587891 0.570312
vt 0.152344 0.257812
vt 0.011719 0.416016
vt 0.734375 0.300781
vt 0.695312 0.570312
vt 0.011719 0.308594
vt 0.740234 0.306641
vt 0.587891 0.570312
vt 0.011719 0.308594
vt 0.146484 0.263672
vt 0.695312 0.570312
vt 0.011719 0.416016
vt 0.740234 0.300781
vt 0.587891 0.564453
vt 0.017578 0.308594
vt 0.146484 0.257812
vt 0.695312 0.564453
vt 0.017578 0.416016
vt 0.587891 0.587891
vt 0.177734 0.292969
vt 0.484375 0.419922
vt 0.548828 0.298828
vt 0.695312 0.587891
vt 0.484375 0.312500
vt 0.587891 0.582031
vt 0.177734 0.287109
vt 0.000000 0.416016
vt 0.548828 0.292969
vt 0.695312 0.582031
vt 0.000000 0.308594
vt 0.554688 0.298828
vt 0.587891 0.582031
vt 0.490234 0.312500
vt 0.171875 0.292969
vt 0.695312 0.582031
vt 0.490234 0.419922
vt 0.554688 0.292969
vt 0.587891 0.576172
vt 0.005859 0.308594
vt 0.171875 0.287109
vt 0.695312 0.576172
vt 0.005859 0.416016
vt 0.583984 0.660156
vt 0.703125 0.859375
vt 0.144531 0.419922
vt 0.669922 0.318359
vt 0.691406 0.660156
vt 0.144531 0.312500
vt 0.583984 0.654297
vt 0.703125 0.853516
vt 0.478516 0.419922
vt 0.669922 0.312500
vt 0.691406 0.654297
vt 0.478516 0.312500
vt 0.675781 0.318359
vt 0.583984 0.654297
vt 0.150391 0.312500
vt 0.697266 0.859375
vt 0.691406 0.654297
vt 0.150391 0.419922
vt 0.675781 0.312500
vt 0.583984 0.648438
vt 0.484375 0.312500
vt 0.697266 0.853516
vt 0.691406 0.648438
vt 0.484375 0.419922
vt 0.501953 0.521484
vt 0.564453 0.376953
vt 0.048828 0.410156
vt 0.250000 0.519531
vt 0.556641 0.521484
vt 0.048828 0.355469
vt 0.501953 0.501953
vt 0.564453 0.357422
vt 0.142578 0.369141
vt 0.250000 0.500000
vt 0.556641 0.501953
vt 0.142578 0.314453
vt 0.251953 0.519531
vt 0.501953 0.501953
vt 0.050781 0.355469
vt 0.562500 0.376953
vt 0.556641 0.501953
vt 0.050781 0.410156
vt 0.251953 0.500000
vt 0.501953 0.482422
vt 0.144531 0.314453
vt 0.562500 0.357422
vt 0.556641 0.482422
vt 0.144531 0.369141
vt 0.480469 0.716797
vt 0.703125 0.529297
vt 0.068359 0.523438
vt 0.683594 0.953125
vt 0.554688 0.716797
vt 0.068359 0.449219
vt 0.480469 0.701172
vt 0.703125 0.513672
vt 0.320312 0.521484
vt 0.683594 0.937500
vt 0.554688 0.701172
vt 0.320312 0.447266
vt 0.703125 0.953125
vt 0.494141 0.826172
vt 0.087891 0.449219
vt 0.683594 0.529297
vt 0.568359 0.826172
vt 0.087891 0.523438
vt 0.703125 0.937500
vt 0.494141 0.810547
vt 0.339844 0.447266
vt 0.683594 0.513672
vt 0.568359 0.810547
vt 0.339844 0.521484
s 1
usemtl panchir_s1_tex_4.png.002
f 4/10/1 7/19/1 5/13/1 2/4/1
f 3/7/2 4/11/2 2/5/2 1/1/2
f 8/22/3 3/8/3 1/2/3 6/16/3
f 7/20/4 8/23/4 6/17/4 5/14/4
f 6/18/5 1/3/5 2/6/5 5/15/5
f 7/21/6 4/12/6 3/9/6 8/24/6
f 12/34/1 15/43/1 13/37/1 10/28/1
f 11/31/7 12/35/7 10/29/7 9/25/7
f 16/46/3 11/32/3 9/26/3 14/40/3
f 15/44/8 16/47/8 14/41/8 13/38/8
f 14/42/9 9/27/9 10/30/9 13/39/9
f 15/45/10 12/36/10 11/33/10 16/48/10
f 20/58/1 23/67/1 21/61/1 18/52/1
f 19/55/7 20/59/7 18/53/7 17/49/7
f 24/70/3 19/56/3 17/50/3 22/64/3
f 23/68/8 24/71/8 22/65/8 21/62/8
f 22/66/9 17/51/9 18/54/9 21/63/9
f 23/69/10 20/60/10 19/57/10 24/72/10
f 28/82/1 31/91/1 29/85/1 26/76/1
f 27/79/7 28/83/7 26/77/7 25/73/7
f 32/94/3 27/80/3 25/74/3 30/88/3
f 31/92/8 32/95/8 30/89/8 29/86/8
f 30/90/9 25/75/9 26/78/9 29/87/9
f 31/93/10 28/84/10 27/81/10 32/96/10
f 36/106/1 39/115/1 37/109/1 34/100/1
f 35/103/2 36/107/2 34/101/2 33/97/2
f 40/118/3 35/104/3 33/98/3 38/112/3
f 39/116/4 40/119/4 38/113/4 37/110/4
f 38/114/5 33/99/5 34/102/5 37/111/5
f 39/117/6 36/108/6 35/105/6 40/120/6
f 44/130/1 47/139/1 45/133/1 42/124/1
f 43/127/9 44/131/9 42/125/9 41/121/9
f 48/142/3 43/128/3 41/122/3 46/136/3
f 47/140/10 48/143/10 46/137/10 45/134/10
f 46/138/8 41/123/8 42/126/8 45/135/8
f 47/141/7 44/132/7 43/129/7 48/144/7
f 52/154/1 55/163/1 53/157/1 50/148/1
f 51/151/9 52/155/9 50/149/9 49/145/9
f 56/166/3 51/152/3 49/146/3 54/160/3
f 55/164/10 56/167/10 54/161/10 53/158/10
f 54/162/8 49/147/8 50/150/8 53/159/8
f 55/165/7 52/156/7 51/153/7 56/168/7
f 60/178/1 63/187/1 61/181/1 58/172/1
f 59/175/9 60/179/9 58/173/9 57/169/9
f 64/190/3 59/176/3 57/170/3 62/184/3
f 63/188/10 64/191/10 62/185/10 61/182/10
f 62/186/8 57/171/8 58/174/8 61/183/8
f 63/189/7 60/180/7 59/177/7 64/192/7
f 68/202/1 71/211/1 69/205/1 66/196/1
f 67/199/2 68/203/2 66/197/2 65/193/2
f 72/214/3 67/200/3 65/194/3 70/208/3
f 71/212/4 72/215/4 70/209/4 69/206/4
f 70/210/5 65/195/5 66/198/5 69/207/5
f 71/213/6 68/204/6 67/201/6 72/216/6
f 76/226/1 79/235/1 77/229/1 74/220/1
f 75/223/7 76/227/7 74/221/7 73/217/7
f 80/238/3 75/224/3 73/218/3 78/232/3
f 79/236/8 80/239/8 78/233/8 77/230/8
f 78/234/9 73/219/9 74/222/9 77/231/9
f 79/237/10 76/228/10 75/225/10 80/240/10
f 84/250/1 87/259/1 85/253/1 82/244/1
f 83/247/2 84/251/2 82/245/2 81/241/2
f 88/262/3 83/248/3 81/242/3 86/256/3
f 87/260/4 88/263/4 86/257/4 85/254/4
f 86/258/5 81/243/5 82/246/5 85/255/5
f 87/261/6 84/252/6 83/249/6 88/264/6
f 92/274/1 95/283/1 93/277/1 90/268/1
f 91/271/2 92/275/2 90/269/2 89/265/2
f 96/286/3 91/272/3 89/266/3 94/280/3
f 95/284/4 96/287/4 94/281/4 93/278/4
f 94/282/5 89/267/5 90/270/5 93/279/5
f 95/285/6 92/276/6 91/273/6 96/288/6
f 100/298/1 103/307/1 101/301/1 98/292/1
f 99/295/7 100/299/7 98/293/7 97/289/7
f 104/310/3 99/296/3 97/290/3 102/304/3
f 103/308/8 104/311/8 102/305/8 101/302/8
f 102/306/9 97/291/9 98/294/9 101/303/9
f 103/309/10 100/300/10 99/297/10 104/312/10
f 108/322/1 111/331/1 109/325/1 106/316/1
f 107/319/7 108/323/7 106/317/7 105/313/7
f 112/334/3 107/320/3 105/314/3 110/328/3
f 111/332/8 112/335/8 110/329/8 109/326/8
f 110/330/9 105/315/9 106/318/9 109/327/9
f 111/333/10 108/324/10 107/321/10 112/336/10
f 116/346/1 119/355/1 117/349/1 114/340/1
f 115/343/7 116/347/7 114/341/7 113/337/7
f 120/358/3 115/344/3 113/338/3 118/352/3
f 119/356/8 120/359/8 118/353/8 117/350/8
f 118/354/9 113/339/9 114/342/9 117/351/9
f 119/357/10 116/348/10 115/345/10 120/360/10
f 124/370/1 127/379/1 125/373/1 122/364/1
f 123/367/7 124/371/7 122/365/7 121/361/7
f 128/382/3 123/368/3 121/362/3 126/376/3
f 127/380/8 128/383/8 126/377/8 125/374/8
f 126/378/9 121/363/9 122/366/9 125/375/9
f 127/381/10 124/372/10 123/369/10 128/384/10
f 132/394/1 135/403/1 133/397/1 130/388/1
f 131/391/7 132/395/7 130/389/7 129/385/7
f 136/406/3 131/392/3 129/386/3 134/400/3
f 135/404/8 136/407/8 134/401/8 133/398/8
f 134/402/9 129/387/9 130/390/9 133/399/9
f 135/405/10 132/396/10 131/393/10 136/408/10
f 140/418/1 143/427/1 141/421/1 138/412/1
f 139/415/9 140/419/9 138/413/9 137/409/9
f 144/430/3 139/416/3 137/410/3 142/424/3
f 143/428/10 144/431/10 142/425/10 141/422/10
f 142/426/8 137/411/8 138/414/8 141/423/8
f 143/429/7 140/420/7 139/417/7 144/432/7
f 148/442/1 151/451/1 149/445/1 146/436/1
f 147/439/9 148/443/9 146/437/9 145/433/9
f 152/454/3 147/440/3 145/434/3 150/448/3
f 151/452/10 152/455/10 150/449/10 149/446/10
f 150/450/8 145/435/8 146/438/8 149/447/8
f 151/453/7 148/444/7 147/441/7 152/456/7
f 156/466/1 159/475/1 157/469/1 154/460/1
f 155/463/9 156/467/9 154/461/9 153/457/9
f 160/478/3 155/464/3 153/458/3 158/472/3
f 159/476/10 160/479/10 158/473/10 157/470/10
f 158/474/8 153/459/8 154/462/8 157/471/8
f 159/477/7 156/468/7 155/465/7 160/480/7
f 164/490/1 167/499/1 165/493/1 162/484/1
f 163/487/9 164/491/9 162/485/9 161/481/9
f 168/502/3 163/488/3 161/482/3 166/496/3
f 167/500/10 168/503/10 166/497/10 165/494/10
f 166/498/8 161/483/8 162/486/8 165/495/8
f 167/501/7 164/492/7 163/489/7 168/504/7
f 172/514/1 175/523/1 173/517/1 170/508/1
f 171/511/9 172/515/9 170/509/9 169/505/9
f 176/526/3 171/512/3 169/506/3 174/520/3
f 175/524/10 176/527/10 174/521/10 173/518/10
f 174/522/8 169/507/8 170/510/8 173/519/8
f 175/525/7 172/516/7 171/513/7 176/528/7
f 180/538/1 183/547/1 181/541/1 178/532/1
f 179/535/9 180/539/9 178/533/9 177/529/9
f 184/550/3 179/536/3 177/530/3 182/544/3
f 183/548/10 184/551/10 182/545/10 181/542/10
f 182/546/8 177/531/8 178/534/8 181/543/8
f 183/549/7 180/540/7 179/537/7 184/552/7
f 188/562/1 191/571/1 189/565/1 186/556/1
f 187/559/2 188/563/2 186/557/2 185/553/2
f 192/574/3 187/560/3 185/554/3 190/568/3
f 191/572/4 192/575/4 190/569/4 189/566/4
f 190/570/5 185/555/5 186/558/5 189/567/5
f 191/573/6 188/564/6 187/561/6 192/576/6
f 196/586/1 199/595/1 197/589/1 194/580/1
f 195/583/2 196/587/2 194/581/2 193/577/2
f 200/598/3 195/584/3 193/578/3 198/592/3
f 199/596/4 200/599/4 198/593/4 197/590/4
f 198/594/5 193/579/5 194/582/5 197/591/5
f 199/597/6 196/588/6 195/585/6 200/600/6
o turret
v 0.566156 4.345336 -0.374405
v 0.566156 4.345336 -0.399568
v 0.566156 2.206522 -0.374406
v 0.566156 2.206522 -0.399569
v 0.540994 4.345336 -0.399568
v 0.540994 4.345336 -0.374405
v 0.540994 2.206522 -0.399569
v 0.540994 2.206522 -0.374406
v -0.540994 4.345336 -0.374405
v -0.540994 4.345336 -0.399568
v -0.540994 2.206522 -0.374406
v -0.540994 2.206522 -0.399569
v -0.566156 4.345336 -0.399568
v -0.566156 4.345336 -0.374405
v -0.566156 2.206522 -0.399569
v -0.566156 2.206522 -0.374406
v 0.691969 1.954896 0.978078
v 0.691969 1.954897 -1.374616
v 0.691969 0.784840 0.978078
v 0.691969 0.784841 -1.374616
v -0.691969 1.954897 -1.374616
v -0.691969 1.954896 0.978078
v -0.691969 0.784841 -1.374616
v -0.691969 0.784840 0.978078
v 0.566156 1.954896 1.607141
v 0.566156 1.954896 0.978078
v 0.566156 0.973559 1.607140
v 0.566156 0.973559 0.978078
v -0.566156 1.954896 0.978078
v -0.566156 1.954896 1.607141
v -0.566156 0.973559 0.978078
v -0.566156 0.973559 1.607140
v 0.661768 2.042684 2.125080
v 0.661768 1.728153 1.580296
v 0.683719 1.607272 2.376466
v 0.683719 1.292741 1.831682
v 0.083581 1.706291 1.592918
v 0.083581 2.020822 2.137702
v 0.105533 1.270878 1.844304
v 0.105533 1.585410 2.389087
v 0.565531 1.720675 1.604277
v 0.565531 1.558590 1.292914
v 0.565531 1.007563 1.975500
v 0.565531 0.845477 1.664137
v -0.565531 1.558590 1.292914
v -0.565531 1.720675 1.604277
v -0.565531 0.845477 1.664137
v -0.565531 1.007563 1.975500
v 0.742271 1.059723 -0.024295
v 0.056425 1.059723 -0.710141
v 1.170925 1.059723 -0.452949
v 0.485079 1.059723 -1.138795
v 0.056425 0.561237 -0.710141
v 0.742271 0.561237 -0.024296
v 0.485079 0.561237 -1.138795
v 1.170925 0.561237 -0.452949
v -1.171912 1.060935 0.518196
v -1.171912 1.060935 -0.454162
v -0.563279 1.060935 0.518196
v -0.563279 1.060935 -0.454162
v -1.171912 0.560025 -0.454162
v -1.171912 0.560025 0.518196
v -0.563279 0.560025 -0.454162
v -0.563279 0.560025 0.518196
v 0.056425 1.059723 0.774176
v 0.742271 1.059723 0.088330
v 0.485079 1.059723 1.202829
v 1.170925 1.059723 0.516983
v 0.742271 0.561237 0.088330
v 0.056425 0.561237 0.774176
v 1.170925 0.561237 0.516983
v 0.485079 0.561237 1.202829
v -0.486066 1.060935 1.204042
v -0.486066 1.060935 0.595409
v 0.486291 1.060935 1.204042
v 0.486291 1.060935 0.595409
v -0.486066 0.560025 0.595409
v -0.486066 0.560025 1.204042
v 0.486291 0.560025 0.595409
v 0.486291 0.560025 1.204042
v -0.484854 1.059723 1.202829
v -1.170700 1.059723 0.516983
v -0.056200 1.059723 0.774176
v -0.742046 1.059723 0.088330
v -1.170700 0.561237 0.516983
v -0.484854 0.561237 1.202829
v -0.742046 0.561237 0.088330
v -0.056200 0.561237 0.774176
v -1.170700 1.059723 -0.452949
v -0.484854 1.059723 -1.138795
v -0.742046 1.059723 -0.024295
v -0.056200 1.059723 -0.710141
v -0.484854 0.561237 -1.138795
v -1.170700 0.561237 -0.452949
v -0.056200 0.561237 -0.710141
v -0.742046 0.561237 -0.024296
v 0.563505 1.060935 0.518196
v 0.563505 1.060935 -0.454162
v 1.172137 1.060935 0.518196
v 1.172137 1.060935 -0.454162
v 0.563505 0.560025 -0.454162
v 0.563505 0.560025 0.518196
v 1.172137 0.560025 -0.454162
v 1.172137 0.560025 0.518196
v -0.486066 1.060935 -0.531375
v -0.486066 1.060935 -1.140007
v 0.486291 1.060935 -0.531375
v 0.486291 1.060935 -1.140007
v -0.486066 0.560025 -1.140007
v -0.486066 0.560025 -0.531375
v 0.486291 0.560025 -1.140007
v 0.486291 0.560025 -0.531375
v 0.566156 1.954897 -1.374616
v 0.566156 1.954897 -2.129491
v 0.566156 1.288091 -1.374616
v 0.566156 1.288091 -2.129491
v 0.440344 1.954897 -2.129491
v 0.440344 1.954897 -1.374616
v 0.440344 1.288091 -2.129491
v 0.440344 1.288091 -1.374616
v 0.528412 1.900073 -2.131685
v 0.528412 1.436279 -2.556673
v 0.528412 1.738577 -1.955444
v 0.528412 1.274784 -2.380432
v 0.402600 1.436279 -2.556673
v 0.402600 1.900073 -2.131685
v 0.402600 1.274784 -2.380432
v 0.402600 1.738577 -1.955444
v 0.402600 1.403225 -2.471675
v 0.402600 1.277413 -2.471675
v 0.402600 1.403225 -2.358444
v 0.402600 1.277413 -2.358444
v -0.402600 1.277413 -2.471675
v -0.402600 1.403225 -2.471675
v -0.402600 1.277413 -2.358444
v -0.402600 1.403225 -2.358444
v 1.383937 0.860328 1.015822
v 1.383937 0.860328 0.676128
v 1.383937 0.734515 1.015822
v 1.383937 0.734515 0.676128
v -1.396519 0.860328 0.676128
v -1.396519 0.860328 1.015822
v -1.396519 0.734515 0.676128
v -1.396519 0.734515 1.015822
v 1.383937 1.363578 1.015822
v 1.383937 1.363578 0.890009
v 1.383937 0.860328 1.015822
v 1.383937 0.860328 0.890009
v -1.396519 1.363578 0.890009
v -1.396519 1.363578 1.015822
v -1.396519 0.860328 0.890009
v -1.396519 0.860328 1.015822
v 1.761375 0.860328 -0.619741
v 1.761375 0.860328 -1.085247
v 1.761375 0.734516 -0.619741
v 1.761375 0.734516 -1.085247
v -1.773956 0.860328 -1.085247
v -1.773956 0.860328 -0.619741
v -1.773956 0.734516 -1.085247
v -1.773956 0.734516 -0.619741
v 1.761375 1.615203 -0.619741
v 1.761375 1.615203 -0.871366
v 1.761375 0.860328 -0.619741
v 1.761375 0.860328 -0.871366
v -1.773956 1.615203 -0.871366
v -1.773956 1.615203 -0.619741
v -1.773956 0.860328 -0.871366
v -1.773956 0.860328 -0.619741
v 0.125813 2.458147 0.852266
v 0.125813 2.458147 0.386759
v 0.125813 1.954896 0.852266
v 0.125813 1.954897 0.386759
v -0.125813 2.458147 0.386759
v -0.125813 2.458147 0.852266
v -0.125813 1.954897 0.386759
v -0.125813 1.954896 0.852266
v 0.440344 1.829085 -1.374616
v 0.440344 1.829085 -2.003679
v 0.440344 1.665528 -1.374616
v 0.440344 1.665528 -2.003679
v -0.440344 1.829085 -2.003679
v -0.440344 1.829085 -1.374616
v -0.440344 1.665528 -2.003679
v -0.440344 1.665528 -1.374616
v 1.761375 1.181793 -1.934935
v 1.761375 1.100428 -1.968638
v 1.761375 0.815881 -1.051545
v 1.761375 0.734516 -1.085247
v 1.207800 1.100428 -1.968638
v 1.207800 1.181793 -1.934935
v 1.207800 0.734516 -1.085247
v 1.207800 0.815881 -1.051545
v 0.377438 2.432984 0.839684
v 0.377438 2.432984 0.399341
v 0.377438 2.105872 0.839684
v 0.377438 2.105872 0.399341
v -0.377438 2.432984 0.399341
v -0.377438 2.432984 0.839684
v -0.377438 2.105872 0.399341
v -0.377438 2.105872 0.839684
v 0.591319 2.206522 -0.342953
v 0.591319 2.206522 -0.431022
v 0.591319 1.954897 -0.342953
v 0.591319 1.954897 -0.431022
v 0.503250 2.206522 -0.431022
v 0.503250 2.206522 -0.342953
v 0.503250 1.954897 -0.431022
v 0.503250 1.954897 -0.342953
v 0.586596 1.611894 2.504545
v 0.586596 1.234457 1.850804
v -0.025611 1.126067 2.785038
v -0.025611 0.748630 2.131296
v 0.025611 1.764644 1.544701
v 0.025611 2.142081 2.198441
v -0.586596 1.278817 1.825193
v -0.586596 1.656255 2.478933
v -0.503250 2.206522 -0.342953
v -0.503250 2.206522 -0.431022
v -0.503250 1.954897 -0.342953
v -0.503250 1.954897 -0.431022
v -0.591319 2.206522 -0.431022
v -0.591319 2.206522 -0.342953
v -0.591319 1.954897 -0.431022
v -0.591319 1.954897 -0.342953
v -0.402600 1.900073 -2.131685
v -0.402600 1.436279 -2.556673
v -0.402600 1.738577 -1.955444
v -0.402600 1.274784 -2.380432
v -0.528413 1.436279 -2.556673
v -0.528413 1.900073 -2.131685
v -0.528413 1.274784 -2.380432
v -0.528413 1.738577 -1.955444
v -0.440344 1.954897 -1.374616
v -0.440344 1.954897 -2.129491
v -0.440344 1.288091 -1.374616
v -0.440344 1.288091 -2.129491
v -0.566156 1.954897 -2.129491
v -0.566156 1.954897 -1.374616
v -0.566156 1.288091 -2.129491
v -0.566156 1.288091 -1.374616
v -1.207800 1.181793 -1.934935
v -1.207800 1.100428 -1.968638
v -1.207800 0.815881 -1.051545
v -1.207800 0.734516 -1.085247
v -1.761375 1.100428 -1.968638
v -1.761375 1.181793 -1.934935
v -1.761375 0.734516 -1.085247
v -1.761375 0.815881 -1.051545
vn -0.0000 -0.0000 -1.0000
vn 1.0000 -0.0000 -0.0000
vn -0.0000 -0.0000 1.0000
vn -1.0000 -0.0000 -0.0000
vn -0.0000 1.0000 -0.0000
vn -0.0000 -1.0000 -0.0000
vn -0.0000 -0.5000 -0.8660
vn 0.9990 0.0378 -0.0218
vn -0.0000 0.5000 0.8660
vn -0.9990 -0.0378 0.0218
vn -0.0436 0.8652 -0.4995
vn 0.0436 -0.8652 0.4995
vn -0.0000 -0.4617 -0.8870
vn -0.0000 0.4617 0.8870
vn -0.0000 0.8870 -0.4617
vn -0.0000 -0.8870 0.4618
vn -0.7071 -0.0000 -0.7071
vn 0.7071 -0.0000 0.7071
vn -0.7071 -0.0000 0.7071
vn 0.7071 -0.0000 -0.7071
vn -0.0000 -0.7373 -0.6756
vn -0.0000 0.7373 0.6756
vn -0.0000 0.6756 -0.7373
vn -0.0000 -0.6756 0.7373
vn -0.0000 -0.9239 -0.3827
vn -0.0000 0.9239 0.3827
vn -0.0000 0.3827 -0.9239
vn -0.0000 -0.3827 0.9239
vn 0.6756 -0.6385 0.3686
vn -0.6756 0.6385 -0.3686
vn 0.7373 0.5851 -0.3378
vn -0.7373 -0.5851 0.3378
vt 0.566406 0.224609
vt 0.570312 0.224609
vt 0.138672 0.265625
vt 0.115234 0.224609
vt 0.568359 0.224609
vt 0.138672 0.263672
vt 0.566406 0.158203
vt 0.570312 0.158203
vt 0.246094 0.261719
vt 0.115234 0.158203
vt 0.568359 0.158203
vt 0.246094 0.259766
vt 0.117188 0.224609
vt 0.683594 0.224609
vt 0.140625 0.263672
vt 0.568359 0.224609
vt 0.685547 0.224609
vt 0.140625 0.265625
vt 0.117188 0.158203
vt 0.683594 0.158203
vt 0.248047 0.259766
vt 0.568359 0.158203
vt 0.685547 0.158203
vt 0.248047 0.261719
vt 0.109375 0.212891
vt 0.113281 0.212891
vt 0.435547 0.255859
vt 0.685547 0.224609
vt 0.111328 0.212891
vt 0.435547 0.253906
vt 0.109375 0.146484
vt 0.113281 0.146484
vt 0.537109 0.255859
vt 0.685547 0.158203
vt 0.111328 0.146484
vt 0.537109 0.253906
vt 0.687500 0.224609
vt 0.113281 0.212891
vt 0.437500 0.253906
vt 0.111328 0.212891
vt 0.115234 0.212891
vt 0.437500 0.255859
vt 0.687500 0.158203
vt 0.113281 0.146484
vt 0.539062 0.253906
vt 0.111328 0.146484
vt 0.115234 0.146484
vt 0.539062 0.255859
vt 0.357422 0.814453
vt 0.382812 0.531250
vt 0.349609 0.888672
vt 0.427734 0.537109
vt 0.431641 0.814453
vt 0.349609 0.814453
vt 0.357422 0.777344
vt 0.382812 0.494141
vt 0.238281 0.646484
vt 0.427734 0.500000
vt 0.431641 0.777344
vt 0.238281 0.572266
vt 0.470703 0.537109
vt 0.357422 0.777344
vt 0.392578 0.814453
vt 0.339844 0.531250
vt 0.431641 0.777344
vt 0.392578 0.888672
vt 0.470703 0.500000
vt 0.357422 0.740234
vt 0.281250 0.572266
vt 0.339844 0.494141
vt 0.431641 0.740234
vt 0.281250 0.646484
vt 0.232422 0.410156
vt 0.449219 0.500000
vt 0.580078 0.960938
vt 0.027344 0.501953
vt 0.251953 0.410156
vt 0.580078 0.941406
vt 0.232422 0.378906
vt 0.449219 0.468750
vt 0.109375 0.419922
vt 0.027344 0.470703
vt 0.251953 0.378906
vt 0.109375 0.400391
vt 0.062500 0.501953
vt 0.386719 0.408203
vt 0.615234 0.941406
vt 0.414062 0.500000
vt 0.406250 0.408203
vt 0.615234 0.960938
vt 0.062500 0.470703
vt 0.386719 0.376953
vt 0.144531 0.400391
vt 0.414062 0.468750
vt 0.406250 0.376953
vt 0.144531 0.419922
vt 0.687500 0.970703
vt 0.466797 0.304688
vt 0.107422 0.337891
vt 0.695312 0.576172
vt 0.707031 0.970703
vt 0.107422 0.318359
vt 0.687500 0.955078
vt 0.466797 0.289062
vt 0.269531 0.337891
vt 0.695312 0.560547
vt 0.707031 0.955078
vt 0.269531 0.318359
vt 0.712891 0.576172
vt 0.142578 0.312500
vt 0.125000 0.318359
vt 0.449219 0.304688
vt 0.162109 0.312500
vt 0.125000 0.337891
vt 0.712891 0.560547
vt 0.142578 0.296875
vt 0.287109 0.318359
vt 0.449219 0.289062
vt 0.162109 0.296875
vt 0.287109 0.337891
vt 0.097656 0.394531
vt 0.291016 0.449219
vt 0.652344 0.458984
vt 0.548828 0.933594
vt 0.109375 0.394531
vt 0.652344 0.447266
vt 0.097656 0.369141
vt 0.291016 0.423828
vt 0.654297 0.384766
vt 0.548828 0.908203
vt 0.109375 0.369141
vt 0.654297 0.373047
vt 0.583984 0.933594
vt 0.208984 0.316406
vt 0.687500 0.447266
vt 0.255859 0.449219
vt 0.220703 0.316406
vt 0.687500 0.458984
vt 0.583984 0.908203
vt 0.208984 0.291016
vt 0.689453 0.373047
vt 0.255859 0.423828
vt 0.220703 0.291016
vt 0.689453 0.384766
vt 0.591797 0.521484
vt 0.703125 0.853516
vt 0.259766 0.371094
vt 0.035156 0.314453
vt 0.623047 0.521484
vt 0.259766 0.339844
vt 0.591797 0.501953
vt 0.703125 0.833984
vt 0.072266 0.369141
vt 0.035156 0.294922
vt 0.623047 0.501953
vt 0.072266 0.337891
vt 0.050781 0.314453
vt 0.593750 0.898438
vt 0.275391 0.339844
vt 0.687500 0.853516
vt 0.625000 0.898438
vt 0.275391 0.371094
vt 0.050781 0.294922
vt 0.593750 0.878906
vt 0.087891 0.337891
vt 0.687500 0.833984
vt 0.625000 0.878906
vt 0.087891 0.369141
vt 0.595703 0.853516
vt 0.703125 0.833984
vt 0.087891 0.369141
vt 0.162109 0.312500
vt 0.626953 0.853516
vt 0.087891 0.337891
vt 0.595703 0.833984
vt 0.703125 0.814453
vt 0.103516 0.369141
vt 0.162109 0.292969
vt 0.626953 0.833984
vt 0.103516 0.337891
vt 0.177734 0.312500
vt 0.595703 0.833984
vt 0.103516 0.337891
vt 0.687500 0.833984
vt 0.626953 0.833984
vt 0.103516 0.369141
vt 0.177734 0.292969
vt 0.595703 0.814453
vt 0.119141 0.337891
vt 0.687500 0.814453
vt 0.626953 0.814453
vt 0.119141 0.369141
vt 0.595703 0.814453
vt 0.703125 0.458984
vt 0.119141 0.369141
vt 0.474609 0.312500
vt 0.626953 0.814453
vt 0.119141 0.337891
vt 0.595703 0.794922
vt 0.703125 0.439453
vt 0.207031 0.367188
vt 0.474609 0.292969
vt 0.626953 0.794922
vt 0.207031 0.335938
vt 0.490234 0.312500
vt 0.441406 0.402344
vt 0.134766 0.337891
vt 0.687500 0.458984
vt 0.472656 0.402344
vt 0.134766 0.369141
vt 0.490234 0.292969
vt 0.441406 0.382812
vt 0.222656 0.335938
vt 0.687500 0.439453
vt 0.472656 0.382812
vt 0.222656 0.367188
vt 0.597656 0.476562
vt 0.328125 0.365234
vt 0.687500 0.439453
vt 0.404297 0.367188
vt 0.617188 0.476562
vt 0.687500 0.419922
vt 0.597656 0.445312
vt 0.328125 0.333984
vt 0.687500 0.337891
vt 0.404297 0.335938
vt 0.617188 0.445312
vt 0.687500 0.318359
vt 0.419922 0.367188
vt 0.109375 0.400391
vt 0.703125 0.419922
vt 0.312500 0.365234
vt 0.128906 0.400391
vt 0.703125 0.439453
vt 0.419922 0.335938
vt 0.109375 0.369141
vt 0.703125 0.318359
vt 0.312500 0.333984
vt 0.128906 0.369141
vt 0.703125 0.337891
vt 0.597656 0.445312
vt 0.705078 0.892578
vt 0.328125 0.365234
vt 0.687500 0.318359
vt 0.628906 0.445312
vt 0.328125 0.333984
vt 0.597656 0.425781
vt 0.705078 0.873047
vt 0.189453 0.363281
vt 0.687500 0.298828
vt 0.628906 0.425781
vt 0.189453 0.332031
vt 0.703125 0.318359
vt 0.599609 0.878906
vt 0.343750 0.333984
vt 0.689453 0.892578
vt 0.630859 0.878906
vt 0.343750 0.365234
vt 0.703125 0.298828
vt 0.599609 0.859375
vt 0.205078 0.332031
vt 0.689453 0.873047
vt 0.630859 0.859375
vt 0.205078 0.363281
vt 0.283203 0.400391
vt 0.015625 0.308594
vt 0.636719 0.476562
vt 0.669922 0.310547
vt 0.314453 0.400391
vt 0.636719 0.445312
vt 0.283203 0.380859
vt 0.015625 0.289062
vt 0.638672 0.402344
vt 0.669922 0.291016
vt 0.314453 0.380859
vt 0.638672 0.371094
vt 0.685547 0.310547
vt 0.564453 0.400391
vt 0.652344 0.445312
vt 0.000000 0.308594
vt 0.595703 0.400391
vt 0.652344 0.476562
vt 0.685547 0.291016
vt 0.564453 0.380859
vt 0.654297 0.371094
vt 0.000000 0.289062
vt 0.595703 0.380859
vt 0.654297 0.402344
vt 0.595703 0.400391
vt 0.707031 0.667969
vt 0.611328 0.361328
vt 0.691406 0.923828
vt 0.626953 0.400391
vt 0.611328 0.330078
vt 0.595703 0.380859
vt 0.707031 0.648438
vt 0.626953 0.361328
vt 0.691406 0.904297
vt 0.626953 0.380859
vt 0.626953 0.330078
vt 0.707031 0.923828
vt 0.601562 0.714844
vt 0.626953 0.330078
vt 0.691406 0.667969
vt 0.632812 0.714844
vt 0.626953 0.361328
vt 0.707031 0.904297
vt 0.601562 0.695312
vt 0.642578 0.330078
vt 0.691406 0.648438
vt 0.632812 0.695312
vt 0.642578 0.361328
vt 0.207031 0.398438
vt 0.451172 0.359375
vt 0.691406 0.412109
vt 0.419922 0.359375
vt 0.226562 0.398438
vt 0.691406 0.392578
vt 0.207031 0.367188
vt 0.451172 0.328125
vt 0.691406 0.392578
vt 0.419922 0.328125
vt 0.226562 0.367188
vt 0.691406 0.373047
vt 0.435547 0.359375
vt 0.406250 0.398438
vt 0.707031 0.392578
vt 0.435547 0.359375
vt 0.425781 0.398438
vt 0.707031 0.412109
vt 0.435547 0.328125
vt 0.406250 0.367188
vt 0.707031 0.373047
vt 0.435547 0.328125
vt 0.425781 0.367188
vt 0.707031 0.392578
vt 0.326172 0.888672
vt 0.726562 0.203125
vt 0.603516 0.298828
vt 0.796875 0.324219
vt 0.349609 0.888672
vt 0.603516 0.275391
vt 0.326172 0.867188
vt 0.726562 0.181641
vt 0.718750 0.205078
vt 0.796875 0.302734
vt 0.349609 0.867188
vt 0.718750 0.181641
vt 0.800781 0.324219
vt 0.023438 0.375000
vt 0.607422 0.275391
vt 0.722656 0.203125
vt 0.046875 0.375000
vt 0.607422 0.298828
vt 0.800781 0.302734
vt 0.023438 0.353516
vt 0.722656 0.181641
vt 0.722656 0.181641
vt 0.046875 0.353516
vt 0.722656 0.205078
vt 0.777344 0.867188
vt 0.580078 0.978516
vt 0.185547 0.351562
vt 0.291016 0.449219
vt 0.796875 0.867188
vt 0.185547 0.332031
vt 0.777344 0.859375
vt 0.580078 0.970703
vt 0.275391 0.226562
vt 0.291016 0.441406
vt 0.796875 0.859375
vt 0.275391 0.207031
vt 0.294922 0.449219
vt 0.781250 0.656250
vt 0.189453 0.332031
vt 0.576172 0.978516
vt 0.800781 0.656250
vt 0.189453 0.351562
vt 0.294922 0.441406
vt 0.781250 0.648438
vt 0.279297 0.207031
vt 0.576172 0.970703
vt 0.800781 0.648438
vt 0.279297 0.226562
vt 0.544922 0.912109
vt 0.816406 0.529297
vt 0.794922 0.992188
vt 0.564453 0.738281
vt 0.548828 0.912109
vt 0.794922 0.988281
vt 0.544922 0.908203
vt 0.816406 0.525391
vt 0.794922 0.951172
vt 0.564453 0.734375
vt 0.548828 0.908203
vt 0.794922 0.947266
vt 0.589844 0.738281
vt 0.576172 0.970703
vt 0.820312 0.988281
vt 0.791016 0.529297
vt 0.580078 0.970703
vt 0.820312 0.992188
vt 0.589844 0.734375
vt 0.576172 0.966797
vt 0.820312 0.947266
vt 0.791016 0.525391
vt 0.580078 0.966797
vt 0.820312 0.951172
vt 0.578125 0.587891
vt 0.732422 0.416016
vt 0.503906 0.859375
vt 0.644531 0.783203
vt 0.587891 0.587891
vt 0.503906 0.849609
vt 0.578125 0.583984
vt 0.732422 0.412109
vt 0.517578 0.908203
vt 0.644531 0.779297
vt 0.587891 0.583984
vt 0.517578 0.898438
vt 0.730469 0.783203
vt 0.097656 0.322266
vt 0.589844 0.849609
vt 0.646484 0.416016
vt 0.107422 0.322266
vt 0.589844 0.859375
vt 0.730469 0.779297
vt 0.097656 0.318359
vt 0.603516 0.898438
vt 0.646484 0.412109
vt 0.107422 0.318359
vt 0.603516 0.908203
vt 0.130859 0.337891
vt 0.566406 0.781250
vt 0.650391 0.810547
vt 0.480469 0.841797
vt 0.134766 0.337891
vt 0.650391 0.806641
vt 0.130859 0.322266
vt 0.566406 0.765625
vt 0.650391 0.744141
vt 0.480469 0.826172
vt 0.134766 0.322266
vt 0.650391 0.740234
vt 0.566406 0.841797
vt 0.193359 0.304688
vt 0.736328 0.806641
vt 0.480469 0.781250
vt 0.197266 0.304688
vt 0.736328 0.810547
vt 0.566406 0.826172
vt 0.193359 0.289062
vt 0.736328 0.740234
vt 0.480469 0.765625
vt 0.197266 0.289062
vt 0.736328 0.744141
vt 0.628906 0.429688
vt 0.716797 0.771484
vt 0.431641 0.699219
vt 0.591797 0.533203
vt 0.642578 0.429688
vt 0.431641 0.685547
vt 0.628906 0.425781
vt 0.716797 0.767578
vt 0.478516 0.630859
vt 0.591797 0.529297
vt 0.642578 0.425781
vt 0.478516 0.617188
vt 0.703125 0.533203
vt 0.716797 0.771484
vt 0.542969 0.685547
vt 0.605469 0.771484
vt 0.730469 0.771484
vt 0.542969 0.699219
vt 0.703125 0.529297
vt 0.716797 0.767578
vt 0.589844 0.617188
vt 0.605469 0.767578
vt 0.730469 0.767578
vt 0.589844 0.630859
vt 0.562500 0.472656
vt 0.503906 0.865234
vt 0.500000 0.646484
vt 0.392578 0.888672
vt 0.570312 0.472656
vt 0.500000 0.638672
vt 0.562500 0.449219
vt 0.503906 0.841797
vt 0.500000 0.638672
vt 0.392578 0.865234
vt 0.570312 0.449219
vt 0.500000 0.630859
vt 0.503906 0.888672
vt 0.412109 0.232422
vt 0.611328 0.638672
vt 0.392578 0.865234
vt 0.419922 0.232422
vt 0.611328 0.646484
vt 0.503906 0.865234
vt 0.412109 0.208984
vt 0.611328 0.630859
vt 0.392578 0.841797
vt 0.419922 0.208984
vt 0.611328 0.638672
vt 0.146484 0.257812
vt 0.554688 0.734375
vt 0.078125 0.287109
vt 0.423828 0.740234
vt 0.160156 0.257812
vt 0.078125 0.273438
vt 0.146484 0.242188
vt 0.554688 0.718750
vt 0.185547 0.285156
vt 0.423828 0.724609
vt 0.160156 0.242188
vt 0.185547 0.271484
vt 0.431641 0.740234
vt 0.289062 0.257812
vt 0.085938 0.273438
vt 0.546875 0.734375
vt 0.302734 0.257812
vt 0.085938 0.287109
vt 0.431641 0.724609
vt 0.289062 0.242188
vt 0.193359 0.271484
vt 0.546875 0.718750
vt 0.302734 0.242188
vt 0.193359 0.285156
vt 0.794922 0.910156
vt 0.796875 0.599609
vt 0.619141 0.619141
vt 0.769531 0.707031
vt 0.814453 0.910156
vt 0.619141 0.599609
vt 0.794922 0.904297
vt 0.796875 0.593750
vt 0.611328 0.380859
vt 0.769531 0.701172
vt 0.814453 0.904297
vt 0.611328 0.361328
vt 0.796875 0.707031
vt 0.794922 0.904297
vt 0.646484 0.599609
vt 0.769531 0.599609
vt 0.814453 0.904297
vt 0.646484 0.619141
vt 0.796875 0.701172
vt 0.794922 0.898438
vt 0.638672 0.361328
vt 0.769531 0.593750
vt 0.814453 0.898438
vt 0.638672 0.380859
vt 0.677734 0.201172
vt 0.638672 0.953125
vt 0.396484 0.470703
vt 0.294922 0.380859
vt 0.679688 0.201172
vt 0.396484 0.468750
vt 0.677734 0.171875
vt 0.638672 0.923828
vt 0.320312 0.416016
vt 0.294922 0.351562
vt 0.679688 0.171875
vt 0.320312 0.414062
vt 0.312500 0.380859
vt 0.679688 0.201172
vt 0.414062 0.468750
vt 0.621094 0.953125
vt 0.681641 0.201172
vt 0.414062 0.470703
vt 0.312500 0.351562
vt 0.679688 0.171875
vt 0.337891 0.414062
vt 0.621094 0.923828
vt 0.681641 0.171875
vt 0.337891 0.416016
vt 0.546875 0.583984
vt 0.757812 0.914062
vt 0.664062 0.853516
vt 0.720703 0.609375
vt 0.560547 0.583984
vt 0.664062 0.839844
vt 0.546875 0.574219
vt 0.757812 0.904297
vt 0.304688 0.333984
vt 0.720703 0.599609
vt 0.560547 0.574219
vt 0.304688 0.320312
vt 0.744141 0.609375
vt 0.414062 0.435547
vt 0.687500 0.839844
vt 0.734375 0.914062
vt 0.427734 0.435547
vt 0.687500 0.853516
vt 0.744141 0.599609
vt 0.414062 0.425781
vt 0.328125 0.320312
vt 0.734375 0.904297
vt 0.427734 0.425781
vt 0.328125 0.333984
vt 0.689453 0.912109
vt 0.490234 0.292969
vt 0.011719 0.253906
vt 0.324219 0.923828
vt 0.691406 0.912109
vt 0.011719 0.251953
vt 0.689453 0.904297
vt 0.490234 0.285156
vt 0.210938 0.253906
vt 0.324219 0.916016
vt 0.691406 0.904297
vt 0.210938 0.251953
vt 0.326172 0.923828
vt 0.718750 0.695312
vt 0.013672 0.251953
vt 0.488281 0.292969
vt 0.720703 0.695312
vt 0.013672 0.253906
vt 0.326172 0.916016
vt 0.718750 0.687500
vt 0.212891 0.251953
vt 0.488281 0.285156
vt 0.720703 0.687500
vt 0.212891 0.253906
vt 0.251953 0.396484
vt 0.345703 0.414062
vt 0.314453 0.388672
vt 0.207031 0.423828
vt 0.275391 0.396484
vt 0.314453 0.365234
vt 0.251953 0.371094
vt 0.345703 0.388672
vt 0.425781 0.382812
vt 0.207031 0.398438
vt 0.275391 0.371094
vt 0.425781 0.359375
vt 0.232422 0.423828
vt 0.074219 0.394531
vt 0.339844 0.365234
vt 0.320312 0.414062
vt 0.097656 0.394531
vt 0.339844 0.388672
vt 0.232422 0.398438
vt 0.074219 0.369141
vt 0.451172 0.359375
vt 0.320312 0.388672
vt 0.097656 0.369141
vt 0.451172 0.382812
vt 0.179688 0.250000
vt 0.753906 0.585938
vt 0.748047 0.699219
vt 0.732422 0.931641
vt 0.181641 0.250000
vt 0.748047 0.697266
vt 0.179688 0.242188
vt 0.753906 0.578125
vt 0.750000 0.597656
vt 0.732422 0.923828
vt 0.181641 0.242188
vt 0.750000 0.595703
vt 0.734375 0.931641
vt 0.208984 0.236328
vt 0.750000 0.697266
vt 0.751953 0.585938
vt 0.210938 0.236328
vt 0.750000 0.699219
vt 0.734375 0.923828
vt 0.208984 0.228516
vt 0.751953 0.595703
vt 0.751953 0.578125
vt 0.210938 0.228516
vt 0.751953 0.597656
vt 0.783203 0.582031
vt 0.642578 0.371094
vt 0.105469 0.201172
vt 0.580078 0.941406
vt 0.802734 0.582031
vt 0.105469 0.181641
vt 0.783203 0.574219
vt 0.642578 0.363281
vt 0.123047 0.201172
vt 0.580078 0.933594
vt 0.802734 0.574219
vt 0.123047 0.181641
vt 0.583984 0.941406
vt 0.785156 0.781250
vt 0.109375 0.181641
vt 0.638672 0.371094
vt 0.804688 0.781250
vt 0.109375 0.201172
vt 0.583984 0.933594
vt 0.785156 0.773438
vt 0.126953 0.181641
vt 0.638672 0.363281
vt 0.804688 0.773438
vt 0.126953 0.201172
vt 0.626953 0.828125
vt 0.734375 0.203125
vt 0.777344 0.205078
vt 0.726562 0.203125
vt 0.650391 0.828125
vt 0.777344 0.181641
vt 0.626953 0.806641
vt 0.734375 0.181641
vt 0.781250 0.205078
vt 0.726562 0.181641
vt 0.650391 0.806641
vt 0.781250 0.181641
vt 0.730469 0.203125
vt 0.626953 0.761719
vt 0.781250 0.181641
vt 0.730469 0.203125
vt 0.650391 0.761719
vt 0.781250 0.205078
vt 0.730469 0.181641
vt 0.626953 0.740234
vt 0.785156 0.181641
vt 0.730469 0.181641
vt 0.650391 0.740234
vt 0.785156 0.205078
vt 0.681641 0.201172
vt 0.404297 0.376953
vt 0.607422 0.402344
vt 0.226562 0.378906
vt 0.683594 0.201172
vt 0.607422 0.400391
vt 0.681641 0.171875
vt 0.404297 0.347656
vt 0.617188 0.447266
vt 0.226562 0.349609
vt 0.683594 0.171875
vt 0.617188 0.445312
vt 0.244141 0.378906
vt 0.703125 0.201172
vt 0.625000 0.400391
vt 0.386719 0.376953
vt 0.705078 0.201172
vt 0.625000 0.402344
vt 0.244141 0.349609
vt 0.703125 0.171875
vt 0.634766 0.445312
vt 0.386719 0.347656
vt 0.705078 0.171875
vt 0.634766 0.447266
s 1
usemtl panchir_s1_tex_4.png.002
f 204/610/11 207/619/11 205/613/11 202/604/11
f 203/607/12 204/611/12 202/605/12 201/601/12
f 208/622/13 203/608/13 201/602/13 206/616/13
f 207/620/14 208/623/14 206/617/14 205/614/14
f 206/618/15 201/603/15 202/606/15 205/615/15
f 207/621/16 204/612/16 203/609/16 208/624/16
f 212/634/11 215/643/11 213/637/11 210/628/11
f 211/631/12 212/635/12 210/629/12 209/625/12
f 216/646/13 211/632/13 209/626/13 214/640/13
f 215/644/14 216/647/14 214/641/14 213/638/14
f 214/642/15 209/627/15 210/630/15 213/639/15
f 215/645/16 212/636/16 211/633/16 216/648/16
f 220/658/11 223/667/11 221/661/11 218/652/11
f 219/655/12 220/659/12 218/653/12 217/649/12
f 224/670/13 219/656/13 217/650/13 222/664/13
f 223/668/14 224/671/14 222/665/14 221/662/14
f 222/666/15 217/651/15 218/654/15 221/663/15
f 223/669/16 220/660/16 219/657/16 224/672/16
f 228/682/11 231/691/11 229/685/11 226/676/11
f 227/679/12 228/683/12 226/677/12 225/673/12
f 232/694/13 227/680/13 225/674/13 230/688/13
f 231/692/14 232/695/14 230/689/14 229/686/14
f 230/690/15 225/675/15 226/678/15 229/687/15
f 231/693/16 228/684/16 227/681/16 232/696/16
f 236/706/17 239/715/17 237/709/17 234/700/17
f 235/703/18 236/707/18 234/701/18 233/697/18
f 240/718/19 235/704/19 233/698/19 238/712/19
f 239/716/20 240/719/20 238/713/20 237/710/20
f 238/714/21 233/699/21 234/702/21 237/711/21
f 239/717/22 236/708/22 235/705/22 240/720/22
f 244/730/23 247/739/23 245/733/23 242/724/23
f 243/727/12 244/731/12 242/725/12 241/721/12
f 248/742/24 243/728/24 241/722/24 246/736/24
f 247/740/14 248/743/14 246/737/14 245/734/14
f 246/738/25 241/723/25 242/726/25 245/735/25
f 247/741/26 244/732/26 243/729/26 248/744/26
f 252/754/27 255/763/27 253/757/27 250/748/27
f 251/751/15 252/755/15 250/749/15 249/745/15
f 256/766/28 251/752/28 249/746/28 254/760/28
f 255/764/16 256/767/16 254/761/16 253/758/16
f 254/762/29 249/747/29 250/750/29 253/759/29
f 255/765/30 252/756/30 251/753/30 256/768/30
f 260/778/11 263/787/11 261/781/11 258/772/11
f 259/775/15 260/779/15 258/773/15 257/769/15
f 264/790/13 259/776/13 257/770/13 262/784/13
f 263/788/16 264/791/16 262/785/16 261/782/16
f 262/786/14 257/771/14 258/774/14 261/783/14
f 263/789/12 260/780/12 259/777/12 264/792/12
f 268/802/30 271/811/30 269/805/30 266/796/30
f 267/799/15 268/803/15 266/797/15 265/793/15
f 272/814/29 267/800/29 265/794/29 270/808/29
f 271/812/16 272/815/16 270/809/16 269/806/16
f 270/810/27 265/795/27 266/798/27 269/807/27
f 271/813/28 268/804/28 267/801/28 272/816/28
f 276/826/11 279/835/11 277/829/11 274/820/11
f 275/823/15 276/827/15 274/821/15 273/817/15
f 280/838/13 275/824/13 273/818/13 278/832/13
f 279/836/16 280/839/16 278/833/16 277/830/16
f 278/834/14 273/819/14 274/822/14 277/831/14
f 279/837/12 276/828/12 275/825/12 280/840/12
f 284/850/27 287/859/27 285/853/27 282/844/27
f 283/847/15 284/851/15 282/845/15 281/841/15
f 288/862/28 283/848/28 281/842/28 286/856/28
f 287/860/16 288/863/16 286/857/16 285/854/16
f 286/858/29 281/843/29 282/846/29 285/855/29
f 287/861/30 284/852/30 283/849/30 288/864/30
f 292/874/30 295/883/30 293/877/30 290/868/30
f 291/871/15 292/875/15 290/869/15 289/865/15
f 296/886/29 291/872/29 289/866/29 294/880/29
f 295/884/16 296/887/16 294/881/16 293/878/16
f 294/882/27 289/867/27 290/870/27 293/879/27
f 295/885/28 292/876/28 291/873/28 296/888/28
f 300/898/11 303/907/11 301/901/11 298/892/11
f 299/895/15 300/899/15 298/893/15 297/889/15
f 304/910/13 299/896/13 297/890/13 302/904/13
f 303/908/16 304/911/16 302/905/16 301/902/16
f 302/906/14 297/891/14 298/894/14 301/903/14
f 303/909/12 300/900/12 299/897/12 304/912/12
f 308/922/11 311/931/11 309/925/11 306/916/11
f 307/919/15 308/923/15 306/917/15 305/913/15
f 312/934/13 307/920/13 305/914/13 310/928/13
f 311/932/16 312/935/16 310/929/16 309/926/16
f 310/930/14 305/915/14 306/918/14 309/927/14
f 311/933/12 308/924/12 307/921/12 312/936/12
f 316/946/11 319/955/11 317/949/11 314/940/11
f 315/943/12 316/947/12 314/941/12 313/937/12
f 320/958/13 315/944/13 313/938/13 318/952/13
f 319/956/14 320/959/14 318/953/14 317/950/14
f 318/954/15 313/939/15 314/942/15 317/951/15
f 319/957/16 316/948/16 315/945/16 320/960/16
f 324/970/31 327/979/31 325/973/31 322/964/31
f 323/967/12 324/971/12 322/965/12 321/961/12
f 328/982/32 323/968/32 321/962/32 326/976/32
f 327/980/14 328/983/14 326/977/14 325/974/14
f 326/978/33 321/963/33 322/966/33 325/975/33
f 327/981/34 324/972/34 323/969/34 328/984/34
f 332/994/16 335/1003/16 333/997/16 330/988/16
f 331/991/12 332/995/12 330/989/12 329/985/12
f 336/1006/15 331/992/15 329/986/15 334/1000/15
f 335/1004/14 336/1007/14 334/1001/14 333/998/14
f 334/1002/11 329/987/11 330/990/11 333/999/11
f 335/1005/13 332/996/13 331/993/13 336/1008/13
f 340/1018/11 343/1027/11 341/1021/11 338/1012/11
f 339/1015/12 340/1019/12 338/1013/12 337/1009/12
f 344/1030/13 339/1016/13 337/1010/13 342/1024/13
f 343/1028/14 344/1031/14 342/1025/14 341/1022/14
f 342/1026/15 337/1011/15 338/1014/15 341/1023/15
f 343/1029/16 340/1020/16 339/1017/16 344/1032/16
f 348/1042/11 351/1051/11 349/1045/11 346/1036/11
f 347/1039/12 348/1043/12 346/1037/12 345/1033/12
f 352/1054/13 347/1040/13 345/1034/13 350/1048/13
f 351/1052/14 352/1055/14 350/1049/14 349/1046/14
f 350/1050/15 345/1035/15 346/1038/15 349/1047/15
f 351/1053/16 348/1044/16 347/1041/16 352/1056/16
f 356/1066/11 359/1075/11 357/1069/11 354/1060/11
f 355/1063/12 356/1067/12 354/1061/12 353/1057/12
f 360/1078/13 355/1064/13 353/1058/13 358/1072/13
f 359/1076/14 360/1079/14 358/1073/14 357/1070/14
f 358/1074/15 353/1059/15 354/1062/15 357/1071/15
f 359/1077/16 356/1068/16 355/1065/16 360/1080/16
f 364/1090/11 367/1099/11 365/1093/11 362/1084/11
f 363/1087/12 364/1091/12 362/1085/12 361/1081/12
f 368/1102/13 363/1088/13 361/1082/13 366/1096/13
f 367/1100/14 368/1103/14 366/1097/14 365/1094/14
f 366/1098/15 361/1083/15 362/1086/15 365/1095/15
f 367/1101/16 364/1092/16 363/1089/16 368/1104/16
f 372/1114/11 375/1123/11 373/1117/11 370/1108/11
f 371/1111/12 372/1115/12 370/1109/12 369/1105/12
f 376/1126/13 371/1112/13 369/1106/13 374/1120/13
f 375/1124/14 376/1127/14 374/1121/14 373/1118/14
f 374/1122/15 369/1107/15 370/1110/15 373/1119/15
f 375/1125/16 372/1116/16 371/1113/16 376/1128/16
f 380/1138/11 383/1147/11 381/1141/11 378/1132/11
f 379/1135/12 380/1139/12 378/1133/12 377/1129/12
f 384/1150/13 379/1136/13 377/1130/13 382/1144/13
f 383/1148/14 384/1151/14 382/1145/14 381/1142/14
f 382/1146/15 377/1131/15 378/1134/15 381/1143/15
f 383/1149/16 380/1140/16 379/1137/16 384/1152/16
f 388/1162/35 391/1171/35 389/1165/35 386/1156/35
f 387/1159/12 388/1163/12 386/1157/12 385/1153/12
f 392/1174/36 387/1160/36 385/1154/36 390/1168/36
f 391/1172/14 392/1175/14 390/1169/14 389/1166/14
f 390/1170/37 385/1155/37 386/1158/37 389/1167/37
f 391/1173/38 388/1164/38 387/1161/38 392/1176/38
f 396/1186/11 399/1195/11 397/1189/11 394/1180/11
f 395/1183/12 396/1187/12 394/1181/12 393/1177/12
f 400/1198/13 395/1184/13 393/1178/13 398/1192/13
f 399/1196/14 400/1199/14 398/1193/14 397/1190/14
f 398/1194/15 393/1179/15 394/1182/15 397/1191/15
f 399/1197/16 396/1188/16 395/1185/16 400/1200/16
f 404/1210/11 407/1219/11 405/1213/11 402/1204/11
f 403/1207/12 404/1211/12 402/1205/12 401/1201/12
f 408/1222/13 403/1208/13 401/1202/13 406/1216/13
f 407/1220/14 408/1223/14 406/1217/14 405/1214/14
f 406/1218/15 401/1203/15 402/1206/15 405/1215/15
f 407/1221/16 404/1212/16 403/1209/16 408/1224/16
f 412/1234/17 415/1243/17 413/1237/17 410/1228/17
f 411/1231/39 412/1235/39 410/1229/39 409/1225/39
f 416/1246/19 411/1232/19 409/1226/19 414/1240/19
f 415/1244/40 416/1247/40 414/1241/40 413/1238/40
f 414/1242/41 409/1227/41 410/1230/41 413/1239/41
f 415/1245/42 412/1236/42 411/1233/42 416/1248/42
f 420/1258/11 423/1267/11 421/1261/11 418/1252/11
f 419/1255/12 420/1259/12 418/1253/12 417/1249/12
f 424/1270/13 419/1256/13 417/1250/13 422/1264/13
f 423/1268/14 424/1271/14 422/1265/14 421/1262/14
f 422/1266/15 417/1251/15 418/1254/15 421/1263/15
f 423/1269/16 420/1260/16 419/1257/16 424/1272/16
f 428/1282/31 431/1291/31 429/1285/31 426/1276/31
f 427/1279/12 428/1283/12 426/1277/12 425/1273/12
f 432/1294/32 427/1280/32 425/1274/32 430/1288/32
f 431/1292/14 432/1295/14 430/1289/14 429/1286/14
f 430/1290/33 425/1275/33 426/1278/33 429/1287/33
f 431/1293/34 428/1284/34 427/1281/34 432/1296/34
f 436/1306/11 439/1315/11 437/1309/11 434/1300/11
f 435/1303/12 436/1307/12 434/1301/12 433/1297/12
f 440/1318/13 435/1304/13 433/1298/13 438/1312/13
f 439/1316/14 440/1319/14 438/1313/14 437/1310/14
f 438/1314/15 433/1299/15 434/1302/15 437/1311/15
f 439/1317/16 436/1308/16 435/1305/16 440/1320/16
f 444/1330/35 447/1339/35 445/1333/35 442/1324/35
f 443/1327/12 444/1331/12 442/1325/12 441/1321/12
f 448/1342/36 443/1328/36 441/1322/36 446/1336/36
f 447/1340/14 448/1343/14 446/1337/14 445/1334/14
f 446/1338/37 441/1323/37 442/1326/37 445/1335/37
f 447/1341/38 444/1332/38 443/1329/38 448/1344/38
o radar
v 0.014597 2.672028 -1.207651
v 0.367080 2.672028 -1.530644
v 0.014597 1.665528 -1.207652
v 0.367080 1.665528 -1.530644
v 0.044088 2.672028 -1.883126
v -0.308395 2.672028 -1.560135
v 0.044088 1.665528 -1.883127
v -0.308395 1.665528 -1.560135
v 0.993919 3.506329 -1.498780
v 0.993919 3.321298 -2.007149
v 0.993919 2.489592 -1.128719
v 0.993919 2.304561 -1.637087
v -0.993919 3.321298 -2.007149
v -0.993919 3.506329 -1.498780
v -0.993919 2.304561 -1.637087
v -0.993919 2.489592 -1.128719
v 0.704550 3.357851 -1.756886
v 0.704550 3.324955 -2.132889
v 0.704550 2.355179 -1.669165
v 0.704550 2.322284 -2.045166
v -0.679388 3.324955 -2.132889
v -0.679388 3.357851 -1.756886
v -0.679388 2.322284 -2.045166
v -0.679388 2.355179 -1.669165
vn 0.7373 -0.0000 -0.6756
vn 0.6756 -0.0000 0.7373
vn -0.7373 -0.0000 0.6756
vn -0.6756 -0.0000 -0.7373
vn -0.0000 1.0000 -0.0000
vn -0.0000 -1.0000 -0.0000
vn -0.0000 -0.3420 -0.9397
vn 1.0000 -0.0000 -0.0000
vn -0.0000 0.3420 0.9397
vn -1.0000 -0.0000 -0.0000
vn -0.0000 0.9397 -0.3420
vn -0.0000 -0.9397 0.3420
vn -0.0000 -0.0872 -0.9962
vn -0.0000 0.0872 0.9962
vn -0.0000 0.9962 -0.0872
vn -0.0000 -0.9962 0.0872
vt 0.546875 0.376953
vt 0.072266 0.375000
vt 0.425781 0.398438
vt 0.128906 0.400391
vt 0.562500 0.376953
vt 0.425781 0.382812
vt 0.546875 0.345703
vt 0.072266 0.343750
vt 0.142578 0.296875
vt 0.128906 0.369141
vt 0.562500 0.345703
vt 0.142578 0.281250
vt 0.144531 0.400391
vt 0.244141 0.371094
vt 0.441406 0.382812
vt 0.056641 0.375000
vt 0.259766 0.371094
vt 0.441406 0.398438
vt 0.144531 0.369141
vt 0.244141 0.339844
vt 0.158203 0.281250
vt 0.056641 0.343750
vt 0.259766 0.339844
vt 0.158203 0.296875
vt 0.189453 0.396484
vt 0.494141 0.814453
vt 0.250000 0.500000
vt 0.203125 0.572266
vt 0.207031 0.396484
vt 0.250000 0.482422
vt 0.189453 0.363281
vt 0.494141 0.781250
vt 0.501953 0.539062
vt 0.203125 0.539062
vt 0.207031 0.363281
vt 0.501953 0.521484
vt 0.265625 0.572266
vt 0.451172 0.382812
vt 0.312500 0.482422
vt 0.431641 0.814453
vt 0.468750 0.382812
vt 0.312500 0.500000
vt 0.265625 0.539062
vt 0.451172 0.349609
vt 0.564453 0.521484
vt 0.431641 0.781250
vt 0.468750 0.349609
vt 0.564453 0.539062
vt 0.414062 0.531250
vt 0.250000 0.519531
vt 0.625000 0.890625
vt 0.195312 0.916016
vt 0.425781 0.531250
vt 0.625000 0.878906
vt 0.414062 0.500000
vt 0.250000 0.488281
vt 0.626953 0.839844
vt 0.195312 0.884766
vt 0.425781 0.500000
vt 0.626953 0.828125
vt 0.238281 0.916016
vt 0.326172 0.447266
vt 0.667969 0.878906
vt 0.207031 0.519531
vt 0.337891 0.447266
vt 0.667969 0.890625
vt 0.238281 0.884766
vt 0.326172 0.416016
vt 0.669922 0.828125
vt 0.207031 0.488281
vt 0.337891 0.416016
vt 0.669922 0.839844
s 1
usemtl panchir_s1_tex_4.png.002
f 452/1354/43 455/1363/43 453/1357/43 450/1348/43
f 451/1351/44 452/1355/44 450/1349/44 449/1345/44
f 456/1366/45 451/1352/45 449/1346/45 454/1360/45
f 455/1364/46 456/1367/46 454/1361/46 453/1358/46
f 454/1362/47 449/1347/47 450/1350/47 453/1359/47
f 455/1365/48 452/1356/48 451/1353/48 456/1368/48
f 460/1378/49 463/1387/49 461/1381/49 458/1372/49
f 459/1375/50 460/1379/50 458/1373/50 457/1369/50
f 464/1390/51 459/1376/51 457/1370/51 462/1384/51
f 463/1388/52 464/1391/52 462/1385/52 461/1382/52
f 462/1386/53 457/1371/53 458/1374/53 461/1383/53
f 463/1389/54 460/1380/54 459/1377/54 464/1392/54
f 468/1402/55 471/1411/55 469/1405/55 466/1396/55
f 467/1399/50 468/1403/50 466/1397/50 465/1393/50
f 472/1414/56 467/1400/56 465/1394/56 470/1408/56
f 471/1412/52 472/1415/52 470/1409/52 469/1406/52
f 470/1410/57 465/1395/57 466/1398/57 469/1407/57
f 471/1413/58 468/1404/58 467/1401/58 472/1416/58
