# Blender 3.6.23
# www.blender.org
mtllib x58.mtl
o rocket
v -0.000000 0.265052 -2.400659
v 0.000000 0.265052 0.956152
v -0.214495 0.050557 -2.400659
v -0.214495 0.050557 0.956152
v 0.214495 0.050557 -2.400659
v 0.214495 0.050557 0.956152
v -0.000000 -0.163938 -2.400659
v 0.000000 -0.163938 0.956152
v 0.000000 0.093456 2.186983
v -0.042899 0.050557 2.186983
v 0.042899 0.050557 2.186983
v 0.000000 0.007658 2.186983
v -0.311105 0.382244 -0.834147
v -0.311105 0.382244 -0.258694
v -0.096610 0.167749 -0.834147
v -0.096610 0.167749 0.172896
v -0.346854 0.346495 -0.834147
v -0.346854 0.346495 -0.258694
v -0.132359 0.132000 -0.834147
v -0.132359 0.132000 0.172896
v 0.311105 0.382244 -0.834147
v 0.311105 0.382244 -0.258694
v 0.096610 0.167749 -0.834147
v 0.096610 0.167749 0.172896
v 0.346854 0.346495 -0.834147
v 0.346854 0.346495 -0.258694
v 0.132359 0.132000 -0.834147
v 0.132359 0.132000 0.172896
v 0.311105 -0.281130 -0.834147
v 0.311105 -0.281130 -0.258694
v 0.096610 -0.066635 -0.834147
v 0.096610 -0.066635 0.172896
v 0.346854 -0.245381 -0.834147
v 0.346854 -0.245381 -0.258694
v 0.132359 -0.030886 -0.834147
v 0.132359 -0.030886 0.172896
v -0.311105 -0.281130 -0.834147
v -0.311105 -0.281130 -0.258694
v -0.096610 -0.066635 -0.834147
v -0.096610 -0.066635 0.172896
v -0.346854 -0.245381 -0.834147
v -0.346854 -0.245381 -0.258694
v -0.132359 -0.030886 -0.834147
v -0.132359 -0.030886 0.172896
v 0.168108 0.239247 -2.204845
v 0.168108 0.239247 -1.885149
v 0.096610 0.167749 -2.204845
v 0.096610 0.167749 -1.645376
v 0.203857 0.203498 -2.204845
v 0.203857 0.203498 -1.885149
v 0.132359 0.132000 -2.204845
v 0.132359 0.132000 -1.645376
v -0.168109 0.239247 -2.204845
v -0.168108 0.239247 -1.885149
v -0.096610 0.167749 -2.204845
v -0.096610 0.167749 -1.645376
v -0.203858 0.203498 -2.204845
v -0.203858 0.203498 -1.885149
v -0.132359 0.132000 -2.204845
v -0.132359 0.132000 -1.645376
v -0.168109 -0.138133 -2.204845
v -0.168108 -0.138133 -1.885149
v -0.096610 -0.066635 -2.204845
v -0.096610 -0.066635 -1.645376
v -0.203858 -0.102384 -2.204845
v -0.203858 -0.102384 -1.885149
v -0.132359 -0.030886 -2.204845
v -0.132359 -0.030886 -1.645376
v 0.168108 -0.138133 -2.204845
v 0.168108 -0.138133 -1.885149
v 0.096610 -0.066635 -2.204845
v 0.096610 -0.066635 -1.645376
v 0.203857 -0.102384 -2.204845
v 0.203857 -0.102384 -1.885149
v 0.132359 -0.030886 -2.204845
v 0.132359 -0.030886 -1.645376
vn -0.7071 0.7071 -0.0000
vn 0.7071 -0.7071 -0.0000
vn 0.7071 0.7071 -0.0000
vn -0.7071 -0.7071 -0.0000
vn -0.0000 -0.0000 -1.0000
vn -0.0000 -0.0000 1.0000
vn 0.7037 0.7037 0.0981
vn -0.7037 0.7037 0.0981
vn -0.7037 -0.7037 0.0981
vn 0.7037 -0.7037 0.0981
vn -0.5785 0.5785 0.5750
vn 0.5785 0.5785 0.5750
vn 0.5785 -0.5785 0.5750
vn -0.5785 -0.5785 0.5750
vn 0.6515 0.6515 0.3886
vn -0.6515 0.6515 0.3886
vn -0.6515 -0.6515 0.3886
vn 0.6515 -0.6515 0.3886
vt 0.476052 1.000000
vt 0.007302 1.000000
vt 0.007302 0.953125
vt 0.476052 0.953125
vt 0.648948 0.890625
vt 0.648948 0.937500
vt 0.180198 0.937500
vt 0.180198 0.890625
vt 0.000000 0.225542
vt 0.046875 0.225542
vt 0.046875 0.694292
vt 0.000000 0.694292
vt 0.109375 0.399458
vt 0.109375 0.868208
vt 0.062500 0.868208
vt 0.062500 0.399458
vt 0.171875 0.578125
vt 0.171875 0.625000
vt 0.125000 0.625000
vt 0.125000 0.578125
vt 0.140625 0.703125
vt 0.125000 0.703125
vt 0.125000 0.687500
vt 0.140625 0.687500
vt 0.028125 0.875000
vt 0.018750 0.875000
vt 0.000000 0.702105
vt 0.046875 0.702105
vt 0.648948 0.971875
vt 0.648948 0.981250
vt 0.081250 0.226562
vt 0.090625 0.226562
vt 0.007302 0.918750
vt 0.007302 0.909375
vt 0.265625 0.640625
vt 0.265625 0.687500
vt 0.185267 0.687500
vt 0.125000 0.640625
vt 0.361608 0.687500
vt 0.281250 0.687500
vt 0.281250 0.640625
vt 0.421875 0.640625
vt 0.468750 0.656250
vt 0.468750 0.578125
vt 0.484375 0.578125
vt 0.484375 0.656250
vt 0.296875 0.625000
vt 0.281250 0.625000
vt 0.281250 0.484375
vt 0.296875 0.484375
vt 0.515625 0.656250
vt 0.500000 0.656250
vt 0.500000 0.609375
vt 0.515625 0.609375
vt 0.390625 0.453125
vt 0.390625 0.531250
vt 0.375000 0.531250
vt 0.375000 0.453125
vt 0.205358 0.875000
vt 0.125000 0.875000
vt 0.125000 0.828125
vt 0.265625 0.828125
vt 0.265625 0.765625
vt 0.265625 0.812500
vt 0.185267 0.812500
vt 0.125000 0.765625
vt 0.312500 0.546875
vt 0.328125 0.546875
vt 0.328125 0.625000
vt 0.312500 0.625000
vt 0.203125 0.484375
vt 0.203125 0.625000
vt 0.187500 0.625000
vt 0.187500 0.484375
vt 0.421875 0.484375
vt 0.421875 0.531250
vt 0.406250 0.531250
vt 0.406250 0.484375
vt 0.359375 0.625000
vt 0.343750 0.625000
vt 0.343750 0.546875
vt 0.359375 0.546875
vt 0.281250 0.812500
vt 0.281250 0.765625
vt 0.361608 0.765625
vt 0.421875 0.812500
vt 0.341517 0.703125
vt 0.421875 0.703125
vt 0.421875 0.750000
vt 0.281250 0.750000
vt 0.140625 0.484375
vt 0.140625 0.562500
vt 0.125000 0.562500
vt 0.125000 0.484375
vt 0.250000 0.484375
vt 0.265625 0.484375
vt 0.265625 0.625000
vt 0.250000 0.625000
vt 0.468750 0.484375
vt 0.484375 0.484375
vt 0.484375 0.531250
vt 0.468750 0.531250
vt 0.437500 0.875000
vt 0.437500 0.796875
vt 0.453125 0.796875
vt 0.453125 0.875000
vt 0.185267 0.703125
vt 0.265625 0.703125
vt 0.265625 0.750000
vt 0.125000 0.750000
vt 0.281250 0.875000
vt 0.281250 0.828125
vt 0.361608 0.828125
vt 0.421875 0.875000
vt 0.390625 0.625000
vt 0.375000 0.625000
vt 0.375000 0.546875
vt 0.390625 0.546875
vt 0.218750 0.625000
vt 0.218750 0.484375
vt 0.234375 0.484375
vt 0.234375 0.625000
vt 0.437500 0.531250
vt 0.437500 0.484375
vt 0.453125 0.484375
vt 0.453125 0.531250
vt 0.406250 0.546875
vt 0.421875 0.546875
vt 0.421875 0.625000
vt 0.406250 0.625000
vt 0.466517 0.781250
vt 0.421875 0.781250
vt 0.421875 0.765625
vt 0.500000 0.765625
vt 0.500000 0.671875
vt 0.500000 0.687500
vt 0.455358 0.687500
vt 0.421875 0.671875
vt 0.160156 0.387159
vt 0.167969 0.387159
vt 0.167969 0.431802
vt 0.160156 0.431802
vt 0.171875 0.484375
vt 0.171875 0.562500
vt 0.156250 0.562500
vt 0.156250 0.484375
vt 0.515625 0.578125
vt 0.515625 0.593750
vt 0.500000 0.593750
vt 0.500000 0.578125
vt 0.167969 0.468750
vt 0.160156 0.468750
vt 0.515625 0.734375
vt 0.515625 0.750000
vt 0.470983 0.750000
vt 0.437500 0.734375
vt 0.482142 0.718750
vt 0.437500 0.718750
vt 0.437500 0.703125
vt 0.515625 0.703125
vt 0.191406 0.431802
vt 0.191406 0.387159
vt 0.199219 0.387159
vt 0.199219 0.431802
vt 0.453125 0.656250
vt 0.437500 0.656250
vt 0.437500 0.578125
vt 0.453125 0.578125
vt 0.531250 0.781250
vt 0.515625 0.781250
vt 0.515625 0.765625
vt 0.531250 0.765625
vt 0.191406 0.468750
vt 0.199219 0.468750
vt 0.502233 0.828125
vt 0.546875 0.828125
vt 0.546875 0.843750
vt 0.468750 0.843750
vt 0.468750 0.812500
vt 0.468750 0.796875
vt 0.513392 0.796875
vt 0.546875 0.812500
vt 0.136719 0.456591
vt 0.128906 0.456591
vt 0.128906 0.411948
vt 0.136719 0.411948
vt 0.343750 0.531250
vt 0.343750 0.453125
vt 0.359375 0.453125
vt 0.359375 0.531250
vt 0.218750 0.468750
vt 0.218750 0.453125
vt 0.234375 0.453125
vt 0.234375 0.468750
vt 0.128906 0.375000
vt 0.136719 0.375000
vt 0.437500 0.562500
vt 0.437500 0.546875
vt 0.482142 0.546875
vt 0.515625 0.562500
vt 0.502233 0.859375
vt 0.546875 0.859375
vt 0.546875 0.875000
vt 0.468750 0.875000
vt 0.511719 0.474448
vt 0.511719 0.519091
vt 0.503906 0.519091
vt 0.503906 0.474448
vt 0.312500 0.453125
vt 0.328125 0.453125
vt 0.328125 0.531250
vt 0.312500 0.531250
vt 0.515625 0.671875
vt 0.531250 0.671875
vt 0.531250 0.687500
vt 0.515625 0.687500
vt 0.511719 0.437500
vt 0.503906 0.437500
s 0
usemtl m_3901bed3-c569-a049-c289-500aa5154bdf
f 2/1/1 1/2/1 3/3/1 4/4/1
f 7/5/2 5/6/2 6/7/2 8/8/2
f 5/9/3 1/10/3 2/11/3 6/12/3
f 4/13/4 3/14/4 7/15/4 8/16/4
f 3/17/5 1/18/5 5/19/5 7/20/5
f 11/21/6 9/22/6 10/23/6 12/24/6
f 9/25/7 11/26/7 6/27/7 2/28/7
f 10/29/8 9/30/8 2/1/8 4/4/8
f 12/31/9 10/32/9 4/13/9 8/16/9
f 11/33/10 12/34/10 8/8/10 6/7/10
f 15/35/3 13/36/3 14/37/3 16/38/3
f 18/39/4 17/40/4 19/41/4 20/42/4
f 14/43/1 13/44/1 17/45/1 18/46/1
f 19/47/2 15/48/2 16/49/2 20/50/2
f 17/51/5 13/52/5 15/53/5 19/54/5
f 16/55/11 14/56/11 18/57/11 20/58/11
f 22/59/1 21/60/1 23/61/1 24/62/1
f 27/63/2 25/64/2 26/65/2 28/66/2
f 25/67/3 21/68/3 22/69/3 26/70/3
f 24/71/4 23/72/4 27/73/4 28/74/4
f 23/75/5 21/76/5 25/77/5 27/78/5
f 26/79/12 22/80/12 24/81/12 28/82/12
f 31/83/4 29/84/4 30/85/4 32/86/4
f 34/87/3 33/88/3 35/89/3 36/90/3
f 30/91/2 29/92/2 33/93/2 34/94/2
f 35/95/1 31/96/1 32/97/1 36/98/1
f 33/99/5 29/100/5 31/101/5 35/102/5
f 32/103/13 30/104/13 34/105/13 36/106/13
f 38/107/2 37/108/2 39/109/2 40/110/2
f 43/111/1 41/112/1 42/113/1 44/114/1
f 41/115/4 37/116/4 38/117/4 42/118/4
f 40/119/3 39/120/3 43/121/3 44/122/3
f 39/123/5 37/124/5 41/125/5 43/126/5
f 42/127/14 38/128/14 40/129/14 44/130/14
f 46/131/1 45/132/1 47/133/1 48/134/1
f 51/135/2 49/136/2 50/137/2 52/138/2
f 49/139/3 45/140/3 46/141/3 50/142/3
f 48/143/4 47/144/4 51/145/4 52/146/4
f 47/147/5 45/148/5 49/149/5 51/150/5
f 50/142/15 46/141/15 48/151/15 52/152/15
f 55/153/3 53/154/3 54/155/3 56/156/3
f 58/157/4 57/158/4 59/159/4 60/160/4
f 54/161/1 53/162/1 57/163/1 58/164/1
f 59/165/2 55/166/2 56/167/2 60/168/2
f 57/169/5 53/170/5 55/171/5 59/172/5
f 56/173/16 54/161/16 58/164/16 60/174/16
f 62/175/2 61/176/2 63/177/2 64/178/2
f 67/179/1 65/180/1 66/181/1 68/182/1
f 65/183/4 61/184/4 62/185/4 66/186/4
f 64/187/3 63/188/3 67/189/3 68/190/3
f 63/191/5 61/192/5 65/193/5 67/194/5
f 66/186/17 62/185/17 64/195/17 68/196/17
f 71/197/4 69/198/4 70/199/4 72/200/4
f 74/201/3 73/202/3 75/203/3 76/204/3
f 70/205/2 69/206/2 73/207/2 74/208/2
f 75/209/1 71/210/1 72/211/1 76/212/1
f 73/213/5 69/214/5 71/215/5 75/216/5
f 72/217/18 70/205/18 74/208/18 76/218/18
