# Blender 3.3.21
# www.blender.org
mtllib zu23.mtl
o body
v 0.634375 0.528857 0.425000
v 0.634375 0.528857 -0.850000
v 0.634375 0.422607 0.425000
v 0.634375 0.422607 -0.850000
v -0.640625 0.528857 -0.850000
v -0.640625 0.528857 0.425000
v -0.640625 0.422607 -0.850000
v -0.640625 0.422607 0.425000
v 0.044197 0.528857 1.257858
v 0.566550 0.528857 0.254427
v 0.044197 0.422607 1.257858
v 0.566550 0.422607 0.254427
v 0.466762 0.528857 0.202481
v -0.055591 0.528857 1.205911
v 0.466762 0.422607 0.202480
v -0.055591 0.422607 1.205911
v 0.512227 0.528232 0.974543
v -0.012434 0.528232 -0.033323
v 0.512227 0.423232 0.974543
v -0.012434 0.423232 -0.033323
v -0.554620 0.528232 0.248921
v -0.029958 0.528232 1.256787
v -0.554620 0.423232 0.248921
v -0.029958 0.423232 1.256787
v 0.003125 0.247607 1.305882
v 0.215257 0.247607 1.093750
v 0.003125 0.172607 1.305882
v 0.215257 0.172607 1.093750
v 0.003125 0.247607 0.881618
v -0.209007 0.247607 1.093750
v 0.003125 0.172607 0.881618
v -0.209007 0.172607 1.093750
v 0.003125 0.591357 1.137944
v 0.047319 0.591357 1.093750
v 0.003125 0.247607 1.137944
v 0.047319 0.247607 1.093750
v 0.003125 0.591357 1.049556
v -0.041069 0.591357 1.093750
v 0.003125 0.247607 1.049556
v -0.041069 0.247607 1.093750
v 0.860492 0.247607 -0.665178
v 1.072624 0.247607 -0.877310
v 0.860492 0.172607 -0.665178
v 1.072624 0.172607 -0.877310
v 0.860492 0.247607 -1.089442
v 0.648360 0.247607 -0.877310
v 0.860492 0.172607 -1.089442
v 0.648360 0.172607 -0.877310
v 0.860492 0.591357 -0.833116
v 0.904686 0.591357 -0.877310
v 0.860492 0.247607 -0.833116
v 0.904686 0.247607 -0.877310
v 0.860492 0.591357 -0.921504
v 0.816298 0.591357 -0.877310
v 0.860492 0.247607 -0.921504
v 0.816298 0.247607 -0.877310
v -0.648360 0.247607 -0.877310
v -0.860492 0.247607 -1.089442
v -0.648360 0.172607 -0.877310
v -0.860492 0.172607 -1.089442
v -1.072624 0.247607 -0.877310
v -0.860492 0.247607 -0.665178
v -1.072624 0.172607 -0.877310
v -0.860492 0.172607 -0.665178
v -0.816298 0.591357 -0.877310
v -0.860492 0.591357 -0.921504
v -0.816298 0.247607 -0.877310
v -0.860492 0.247607 -0.921504
v -0.904686 0.591357 -0.877310
v -0.860492 0.591357 -0.833116
v -0.904686 0.247607 -0.877310
v -0.860492 0.247607 -0.833116
v 0.438889 0.528232 0.126460
v 0.960665 0.528232 -0.875862
v 0.438889 0.423232 0.126460
v 0.960665 0.423232 -0.875862
v 0.806547 0.528232 -0.956091
v 0.284771 0.528232 0.046232
v 0.806547 0.423232 -0.956091
v 0.284771 0.423232 0.046232
v 0.603755 0.528857 -0.733741
v 0.961758 0.528857 -0.882031
v 0.603755 0.422607 -0.733741
v 0.961758 0.422607 -0.882031
v 0.918706 0.528857 -0.985968
v 0.560703 0.528857 -0.837678
v 0.918706 0.422607 -0.985968
v 0.560703 0.422607 -0.837678
v 0.900502 0.471912 0.106425
v 0.900502 0.471912 -0.042882
v 0.900502 0.322604 0.106425
v 0.900502 0.322604 -0.042882
v 0.525502 0.471912 -0.042882
v 0.525502 0.471912 0.106425
v 0.525502 0.322604 -0.042882
v 0.525502 0.322604 0.106425
v -0.560703 0.528857 -0.837678
v -0.918706 0.528857 -0.985968
v -0.560703 0.422607 -0.837678
v -0.918706 0.422607 -0.985968
v -0.961758 0.528857 -0.882031
v -0.603755 0.528857 -0.733741
v -0.961758 0.422607 -0.882031
v -0.603755 0.422607 -0.733741
v -0.284771 0.528232 0.046232
v -0.806547 0.528232 -0.956091
v -0.284771 0.423232 0.046232
v -0.806547 0.423232 -0.956091
v -0.960665 0.528232 -0.875862
v -0.438889 0.528232 0.126460
v -0.960665 0.423232 -0.875862
v -0.438889 0.423232 0.126460
v -0.525502 0.471912 0.106425
v -0.525502 0.471912 -0.042882
v -0.525502 0.322604 0.106425
v -0.525502 0.322604 -0.042882
v -0.900502 0.471912 -0.042882
v -0.900502 0.471912 0.106425
v -0.900502 0.322604 -0.042882
v -0.900502 0.322604 0.106425
v 1.075765 0.230381 0.415030
v 1.075765 0.367275 0.278136
v 1.075765 -0.000560 0.184089
v 1.075765 0.136335 0.047195
v 0.842084 0.367275 0.278136
v 0.842084 0.230381 0.415030
v 0.842084 0.136335 0.047195
v 0.842084 -0.000560 0.184089
v -0.841459 0.003136 0.188123
v -0.841459 0.197984 0.188123
v -0.841459 0.003136 -0.139726
v -0.841459 0.197984 -0.139726
v -1.076390 0.197984 0.188123
v -1.076390 0.003136 0.188123
v -1.076390 0.197984 -0.139726
v -1.076390 0.003136 -0.139726
v -0.900502 0.725013 -0.300350
v -0.900502 0.013205 -0.300350
v -0.900502 0.725013 0.411458
v -0.900502 0.013205 0.411457
v -1.065086 0.013205 -0.300350
v -1.065086 0.725013 -0.300350
v -1.065086 0.013205 0.411457
v -1.065086 0.725013 0.411458
v -0.842084 0.234701 0.418439
v -0.842084 0.371596 0.281544
v -0.842084 0.003761 0.187498
v -0.842084 0.140655 0.050604
v -1.075765 0.371596 0.281544
v -1.075765 0.234701 0.418439
v -1.075765 0.140655 0.050604
v -1.075765 0.003761 0.187498
v -0.842084 0.792241 0.187498
v -0.842084 0.655347 0.050604
v -0.842084 0.561301 0.418439
v -0.842084 0.424406 0.281544
v -1.075765 0.655347 0.050604
v -1.075765 0.792241 0.187498
v -1.075765 0.424406 0.281544
v -1.075765 0.561301 0.418439
v -0.842084 0.561301 -0.370041
v -0.842084 0.424406 -0.233147
v -0.842084 0.792241 -0.139101
v -0.842084 0.655347 -0.002206
v -1.075765 0.424406 -0.233147
v -1.075765 0.561301 -0.370041
v -1.075765 0.655347 -0.002206
v -1.075765 0.792241 -0.139101
v -0.842084 0.003761 -0.139101
v -0.842084 0.140655 -0.002206
v -0.842084 0.234701 -0.370041
v -0.842084 0.371596 -0.233147
v -1.075765 0.140655 -0.002206
v -1.075765 0.003761 -0.139101
v -1.075765 0.371596 -0.233147
v -1.075765 0.234701 -0.370041
v -0.841459 0.792866 -0.139726
v -0.841459 0.598018 -0.139726
v -0.841459 0.792866 0.188123
v -0.841459 0.598018 0.188123
v -1.076390 0.598018 -0.139726
v -1.076390 0.792866 -0.139726
v -1.076390 0.598018 0.188123
v -1.076390 0.792866 0.188123
v -0.842709 0.235326 -0.369416
v -0.842709 0.235326 -0.177068
v -0.842709 0.560676 -0.369416
v -0.842709 0.560676 -0.177068
v -1.075140 0.235326 -0.177068
v -1.075140 0.235326 -0.369416
v -1.075140 0.560676 -0.177068
v -1.075140 0.560676 -0.369416
v -0.842709 0.560676 0.417814
v -0.842709 0.560676 0.225466
v -0.842709 0.235326 0.417814
v -0.842709 0.235326 0.225466
v -1.075140 0.560676 0.225466
v -1.075140 0.560676 0.417814
v -1.075140 0.235326 0.225466
v -1.075140 0.235326 0.417814
v 1.076390 -0.001185 0.184714
v 1.076390 0.193663 0.184714
v 1.076390 -0.001185 -0.143135
v 1.076390 0.193664 -0.143135
v 0.841459 0.193663 0.184714
v 0.841459 -0.001185 0.184714
v 0.841459 0.193664 -0.143135
v 0.841459 -0.001185 -0.143135
v 0.084375 0.303836 -2.479146
v 0.084375 0.203460 -2.622497
v 0.084375 0.257759 -2.446882
v 0.084375 0.157383 -2.590233
v -0.090625 0.203460 -2.622497
v -0.090625 0.303836 -2.479146
v -0.090625 0.157383 -2.590233
v -0.090625 0.257759 -2.446882
v 1.075765 0.787921 0.184090
v 1.075765 0.651026 0.047195
v 1.075765 0.556980 0.415030
v 1.075765 0.420086 0.278136
v 0.842084 0.651026 0.047195
v 0.842084 0.787921 0.184090
v 0.842084 0.420086 0.278136
v 0.842084 0.556980 0.415030
v 1.075765 0.556980 -0.373450
v 1.075765 0.420086 -0.236556
v 1.075765 0.787921 -0.142510
v 1.075765 0.651026 -0.005615
v 0.842084 0.420086 -0.236556
v 0.842084 0.556980 -0.373450
v 0.842084 0.651026 -0.005615
v 0.842084 0.787921 -0.142510
v 1.075765 -0.000560 -0.142510
v 1.075765 0.136335 -0.005615
v 1.075765 0.230381 -0.373450
v 1.075765 0.367276 -0.236556
v 0.842084 0.136335 -0.005615
v 0.842084 -0.000560 -0.142510
v 0.842084 0.367276 -0.236556
v 0.842084 0.230381 -0.373450
v 1.076390 0.788546 -0.143135
v 1.076390 0.593698 -0.143135
v 1.076390 0.788546 0.184715
v 1.076390 0.593698 0.184715
v 0.841459 0.593698 -0.143135
v 0.841459 0.788546 -0.143135
v 0.841459 0.593698 0.184715
v 0.841459 0.788546 0.184715
v 1.075140 0.231006 -0.372825
v 1.075140 0.231006 -0.180477
v 1.075140 0.556355 -0.372825
v 1.075140 0.556355 -0.180477
v 0.842709 0.231006 -0.180477
v 0.842709 0.231006 -0.372825
v 0.842709 0.556355 -0.180477
v 0.842709 0.556355 -0.372825
v 1.075140 0.556355 0.414405
v 1.075140 0.556355 0.222057
v 1.075140 0.231006 0.414405
v 1.075140 0.231006 0.222057
v 0.842709 0.556355 0.222057
v 0.842709 0.556355 0.414405
v 0.842709 0.231006 0.222057
v 0.842709 0.231006 0.414405
v 0.634375 0.570063 0.259772
v 0.634375 0.568372 0.453515
v 0.634375 0.601311 0.260045
v 0.634375 0.599621 0.453787
v -0.628125 0.568372 0.453515
v -0.628125 0.570063 0.259772
v -0.628125 0.599621 0.453787
v -0.628125 0.601311 0.260045
v -0.869440 0.857019 0.299227
v -0.869440 0.857019 -0.225773
v -0.546349 0.526084 0.299227
v -0.546349 0.526084 -0.225773
v -0.914161 0.813358 -0.225773
v -0.914161 0.813358 0.299227
v -0.591070 0.482423 -0.225773
v -0.591070 0.482423 0.299227
v 1.065086 0.720692 -0.303759
v 1.065086 0.008885 -0.303759
v 1.065086 0.720692 0.408049
v 1.065086 0.008885 0.408049
v 0.900502 0.008885 -0.303759
v 0.900502 0.720692 -0.303759
v 0.900502 0.008885 0.408049
v 0.900502 0.720692 0.408049
v 0.213754 0.532724 -0.865638
v 0.075069 0.715647 -1.903044
v 0.213754 0.489638 -0.873235
v 0.075069 0.672561 -1.910641
v -0.073647 0.712247 -1.883763
v 0.065037 0.529324 -0.846356
v -0.073647 0.669161 -1.891360
v 0.065037 0.486238 -0.853954
v 0.058356 0.525997 -0.831088
v 0.196877 0.708704 -1.867274
v 0.058356 0.484143 -0.838468
v 0.196877 0.666850 -1.874654
v -0.074531 0.714909 -1.902462
v -0.213052 0.532202 -0.866276
v -0.074531 0.673055 -1.909842
v -0.213052 0.490347 -0.873656
v 0.071875 0.707389 -1.891915
v 0.071875 0.205510 -2.608673
v 0.071875 0.671552 -1.866821
v 0.071875 0.169672 -2.583579
v -0.078125 0.205510 -2.608673
v -0.078125 0.707389 -1.891915
v -0.078125 0.169672 -2.583579
v -0.078125 0.671552 -1.866821
vn -0.0000 -0.0000 -1.0000
vn 1.0000 -0.0000 -0.0000
vn -0.0000 -0.0000 1.0000
vn -1.0000 -0.0000 -0.0000
vn -0.0000 1.0000 -0.0000
vn -0.0000 -1.0000 -0.0000
vn 0.4617 -0.0000 -0.8870
vn 0.8870 -0.0000 0.4617
vn -0.4618 -0.0000 0.8870
vn -0.8870 -0.0000 -0.4617
vn -0.4617 -0.0000 -0.8870
vn 0.8870 -0.0000 -0.4617
vn 0.4617 -0.0000 0.8870
vn -0.8870 -0.0000 0.4617
vn 0.7071 -0.0000 -0.7071
vn 0.7071 -0.0000 0.7071
vn -0.7071 -0.0000 0.7071
vn -0.7071 -0.0000 -0.7071
vn -0.4617 -0.0000 0.8870
vn 0.9239 -0.0000 -0.3827
vn 0.3827 -0.0000 0.9239
vn -0.9239 -0.0000 0.3827
vn -0.3827 -0.0000 -0.9239
vn -0.9239 -0.0000 -0.3827
vn 0.3827 -0.0000 -0.9239
vn 0.9239 -0.0000 0.3827
vn -0.3827 -0.0000 0.9239
vn -0.0000 0.7071 -0.7071
vn -0.0000 -0.7071 0.7071
vn -0.0000 0.7071 0.7071
vn -0.0000 -0.7071 -0.7071
vn -0.0000 -0.5736 -0.8192
vn -0.0000 0.5736 0.8192
vn -0.0000 0.8192 -0.5736
vn -0.0000 -0.8192 0.5736
vn -0.0000 -0.0087 1.0000
vn -0.0000 0.0087 -1.0000
vn -0.0000 -1.0000 -0.0087
vn -0.0000 1.0000 0.0087
vn 0.7155 0.6986 -0.0000
vn -0.7155 -0.6986 -0.0000
vn -0.6986 0.7155 -0.0000
vn 0.6986 -0.7155 -0.0000
vn -0.1305 0.1722 -0.9764
vn 0.9914 0.0227 -0.1285
vn 0.1305 -0.1722 0.9764
vn -0.9914 -0.0227 0.1285
vn -0.0000 0.9848 0.1736
vn -0.0000 -0.9848 -0.1736
vn 0.1305 0.1722 -0.9764
vn 0.9914 -0.0227 0.1285
vn -0.1305 -0.1722 0.9764
vn -0.9914 0.0227 -0.1285
vt 0.279065 0.755818
vt 0.356582 0.748067
vt 0.000000 1.000000
vt 0.271313 0.825585
vt 0.356582 0.755818
vt 0.000000 0.922482
vt 0.279065 0.748067
vt 0.356582 0.740315
vt 0.000000 0.922482
vt 0.271313 0.817833
vt 0.356582 0.748067
vt 0.000000 0.844964
vt 0.348831 0.825585
vt 0.282941 0.953489
vt 0.077518 0.922482
vt 0.279065 0.748067
vt 0.360458 0.953489
vt 0.077518 1.000000
vt 0.348831 0.817833
vt 0.282941 0.945737
vt 0.077518 0.844964
vt 0.279065 0.740315
vt 0.360458 0.945737
vt 0.077518 0.922482
vt 0.302320 0.899227
vt 0.418597 0.577527
vt 0.213174 0.697680
vt 0.422473 0.596907
vt 0.372086 0.899227
vt 0.213174 0.627914
vt 0.302320 0.891475
vt 0.418597 0.569775
vt 0.220926 0.697680
vt 0.422473 0.589155
vt 0.372086 0.891475
vt 0.220926 0.627914
vt 0.430225 0.596907
vt 0.302320 0.817833
vt 0.220926 0.627914
vt 0.410845 0.577527
vt 0.372086 0.817833
vt 0.220926 0.697680
vt 0.430225 0.589155
vt 0.302320 0.810081
vt 0.228678 0.627914
vt 0.410845 0.569775
vt 0.372086 0.810081
vt 0.228678 0.697680
vt 0.306196 0.980621
vt 0.399217 0.953489
vt 0.000000 0.844964
vt 0.356582 0.748067
vt 0.375962 0.980621
vt 0.000000 0.775198
vt 0.306196 0.972869
vt 0.399217 0.945737
vt 0.038759 0.844964
vt 0.356582 0.740315
vt 0.375962 0.972869
vt 0.038759 0.775198
vt 0.395341 0.748067
vt 0.306196 0.972869
vt 0.038759 0.775198
vt 0.360458 0.953489
vt 0.375962 0.972869
vt 0.038759 0.844964
vt 0.395341 0.740315
vt 0.306196 0.965117
vt 0.077518 0.775198
vt 0.360458 0.945737
vt 0.375962 0.965117
vt 0.077518 0.844964
vt 0.422473 0.759694
vt 0.441852 0.755818
vt 0.333327 0.717059
vt 0.422473 0.763570
vt 0.441852 0.759694
vt 0.333327 0.697680
vt 0.422473 0.755818
vt 0.441852 0.751943
vt 0.337203 0.930234
vt 0.422473 0.759694
vt 0.441852 0.755818
vt 0.337203 0.910854
vt 0.441852 0.763570
vt 0.267437 0.577527
vt 0.352707 0.697680
vt 0.422473 0.755818
vt 0.286816 0.577527
vt 0.352707 0.717059
vt 0.441852 0.759694
vt 0.267437 0.573651
vt 0.356582 0.910854
vt 0.422473 0.751943
vt 0.286816 0.573651
vt 0.356582 0.930234
vt 0.356582 0.577527
vt 0.426349 0.616286
vt 0.399217 0.569775
vt 0.352707 0.577527
vt 0.360458 0.577527
vt 0.399217 0.565899
vt 0.356582 0.558148
vt 0.426349 0.596907
vt 0.403093 0.569775
vt 0.352707 0.558148
vt 0.360458 0.558148
vt 0.403093 0.565899
vt 0.356582 0.577527
vt 0.391466 0.577527
vt 0.403093 0.565899
vt 0.422473 0.616286
vt 0.395341 0.577527
vt 0.403093 0.569775
vt 0.356582 0.558148
vt 0.391466 0.558148
vt 0.406969 0.565899
vt 0.422473 0.596907
vt 0.395341 0.558148
vt 0.406969 0.569775
vt 0.422473 0.709308
vt 0.441852 0.705432
vt 0.337203 0.891475
vt 0.422473 0.713184
vt 0.441852 0.709308
vt 0.337203 0.872095
vt 0.422473 0.705432
vt 0.441852 0.701556
vt 0.337203 0.794577
vt 0.422473 0.709308
vt 0.441852 0.705432
vt 0.337203 0.775198
vt 0.441852 0.713184
vt 0.298444 0.577527
vt 0.356582 0.872095
vt 0.422473 0.705432
vt 0.317823 0.577527
vt 0.356582 0.891475
vt 0.441852 0.709308
vt 0.298444 0.573651
vt 0.356582 0.775198
vt 0.422473 0.701556
vt 0.317823 0.573651
vt 0.356582 0.794577
vt 0.286816 0.577527
vt 0.294568 0.577527
vt 0.430225 0.616286
vt 0.422473 0.732563
vt 0.290692 0.577527
vt 0.430225 0.612410
vt 0.286816 0.558148
vt 0.294568 0.558148
vt 0.430225 0.612410
vt 0.422473 0.713184
vt 0.290692 0.558148
vt 0.430225 0.608534
vt 0.426349 0.732563
vt 0.294568 0.577527
vt 0.434100 0.612410
vt 0.290692 0.577527
vt 0.298444 0.577527
vt 0.434100 0.616286
vt 0.426349 0.713184
vt 0.294568 0.558148
vt 0.434100 0.608534
vt 0.290692 0.558148
vt 0.298444 0.558148
vt 0.434100 0.612410
vt 0.422473 0.693804
vt 0.352707 0.577527
vt 0.337203 0.775198
vt 0.422473 0.697680
vt 0.441852 0.693804
vt 0.337203 0.755818
vt 0.422473 0.689928
vt 0.352707 0.573651
vt 0.329451 0.662797
vt 0.422473 0.693804
vt 0.441852 0.689928
vt 0.329451 0.643417
vt 0.441852 0.697680
vt 0.422473 0.620162
vt 0.356582 0.755818
vt 0.333327 0.577527
vt 0.441852 0.620162
vt 0.356582 0.775198
vt 0.441852 0.693804
vt 0.422473 0.616286
vt 0.348831 0.643417
vt 0.333327 0.573651
vt 0.441852 0.616286
vt 0.348831 0.662797
vt 0.321700 0.577527
vt 0.329451 0.577527
vt 0.430225 0.608534
vt 0.317823 0.577527
vt 0.325575 0.577527
vt 0.430225 0.604659
vt 0.321700 0.558148
vt 0.329451 0.558148
vt 0.395341 0.569775
vt 0.317823 0.558148
vt 0.325575 0.558148
vt 0.395341 0.565899
vt 0.321700 0.577527
vt 0.329451 0.577527
vt 0.434100 0.604659
vt 0.325575 0.577527
vt 0.333327 0.577527
vt 0.434100 0.608534
vt 0.321700 0.558148
vt 0.329451 0.558148
vt 0.399217 0.565899
vt 0.325575 0.558148
vt 0.333327 0.558148
vt 0.399217 0.569775
vt 0.302320 0.810081
vt 0.434100 0.930234
vt 0.139532 0.744191
vt 0.422473 0.953489
vt 0.372086 0.810081
vt 0.139532 0.674425
vt 0.302320 0.802329
vt 0.434100 0.922482
vt 0.000000 0.728687
vt 0.422473 0.945737
vt 0.372086 0.802329
vt 0.000000 0.658921
vt 0.434100 0.953489
vt 0.302320 0.802329
vt 0.151160 0.674425
vt 0.422473 0.930234
vt 0.372086 0.802329
vt 0.151160 0.744191
vt 0.434100 0.945737
vt 0.302320 0.794577
vt 0.011628 0.658921
vt 0.422473 0.922482
vt 0.372086 0.794577
vt 0.011628 0.728687
vt 0.403093 0.968993
vt 0.007752 0.573651
vt 0.034883 0.639542
vt 0.418597 0.577527
vt 0.426349 0.968993
vt 0.034883 0.616286
vt 0.403093 0.961241
vt 0.007752 0.565899
vt 0.050387 0.604659
vt 0.418597 0.569775
vt 0.426349 0.961241
vt 0.050387 0.581403
vt 0.426349 0.577527
vt 0.403093 0.844964
vt 0.042635 0.616286
vt 0.000000 0.573651
vt 0.426349 0.844964
vt 0.042635 0.639542
vt 0.426349 0.569775
vt 0.403093 0.837212
vt 0.058138 0.581403
vt 0.000000 0.565899
vt 0.426349 0.837212
vt 0.058138 0.604659
vt 0.426349 0.879847
vt 0.437976 0.674425
vt 0.414721 0.666673
vt 0.414721 0.682176
vt 0.434100 0.879847
vt 0.414721 0.658921
vt 0.426349 0.872095
vt 0.437976 0.666673
vt 0.414721 0.658921
vt 0.414721 0.674425
vt 0.434100 0.872095
vt 0.414721 0.651169
vt 0.437976 0.682176
vt 0.426349 0.872095
vt 0.437976 0.658921
vt 0.414721 0.674425
vt 0.434100 0.872095
vt 0.437976 0.666673
vt 0.437976 0.674425
vt 0.426349 0.864344
vt 0.437976 0.651169
vt 0.414721 0.666673
vt 0.434100 0.864344
vt 0.437976 0.658921
vt 0.414721 0.740315
vt 0.127905 0.573651
vt 0.120153 0.596907
vt 0.038759 0.573651
vt 0.437976 0.740315
vt 0.120153 0.573651
vt 0.414721 0.732563
vt 0.127905 0.565899
vt 0.248057 0.593031
vt 0.038759 0.565899
vt 0.437976 0.732563
vt 0.248057 0.569775
vt 0.046511 0.573651
vt 0.414721 0.689928
vt 0.127905 0.573651
vt 0.120153 0.573651
vt 0.437976 0.689928
vt 0.127905 0.596907
vt 0.046511 0.565899
vt 0.414721 0.682176
vt 0.255809 0.569775
vt 0.120153 0.565899
vt 0.437976 0.682176
vt 0.255809 0.593031
vt 0.306196 0.965117
vt 0.434100 0.891475
vt 0.011628 0.728687
vt 0.422473 0.899227
vt 0.375962 0.965117
vt 0.011628 0.658921
vt 0.306196 0.957365
vt 0.434100 0.883723
vt 0.023255 0.728687
vt 0.422473 0.891475
vt 0.375962 0.957365
vt 0.023255 0.658921
vt 0.434100 0.899227
vt 0.310072 0.740315
vt 0.023255 0.658921
vt 0.422473 0.891475
vt 0.379838 0.740315
vt 0.023255 0.728687
vt 0.434100 0.891475
vt 0.310072 0.732563
vt 0.034883 0.658921
vt 0.422473 0.883723
vt 0.379838 0.732563
vt 0.034883 0.728687
vt 0.426349 1.000000
vt 0.434100 0.782950
vt 0.410845 0.775198
vt 0.406969 0.833336
vt 0.434100 1.000000
vt 0.410845 0.767446
vt 0.426349 0.992248
vt 0.434100 0.775198
vt 0.015504 0.585279
vt 0.406969 0.825585
vt 0.434100 0.992248
vt 0.015504 0.577527
vt 0.430225 0.833336
vt 0.426349 0.968993
vt 0.434100 0.767446
vt 0.410845 0.782950
vt 0.434100 0.968993
vt 0.434100 0.775198
vt 0.430225 0.825585
vt 0.426349 0.961241
vt 0.038759 0.577527
vt 0.410845 0.775198
vt 0.434100 0.961241
vt 0.038759 0.585279
vt 0.182167 0.608534
vt 0.387590 1.000000
vt 0.298444 0.593031
vt 0.368210 0.717059
vt 0.193795 0.608534
vt 0.298444 0.581403
vt 0.182167 0.589155
vt 0.387590 0.980621
vt 0.313948 0.593031
vt 0.368210 0.697680
vt 0.193795 0.589155
vt 0.313948 0.581403
vt 0.383714 0.717059
vt 0.205423 0.608534
vt 0.313948 0.581403
vt 0.372086 1.000000
vt 0.217050 0.608534
vt 0.313948 0.593031
vt 0.383714 0.697680
vt 0.205423 0.589155
vt 0.329451 0.581403
vt 0.372086 0.980621
vt 0.217050 0.589155
vt 0.329451 0.593031
vt 0.387590 0.767446
vt 0.372086 0.775198
vt 0.333327 0.697680
vt 0.356582 0.794577
vt 0.399217 0.767446
vt 0.333327 0.686052
vt 0.387590 0.748067
vt 0.372086 0.755818
vt 0.399217 0.689928
vt 0.356582 0.775198
vt 0.399217 0.748067
vt 0.399217 0.678300
vt 0.372086 0.794577
vt 0.244181 0.612410
vt 0.348831 0.686052
vt 0.356582 0.775198
vt 0.255809 0.612410
vt 0.348831 0.697680
vt 0.372086 0.775198
vt 0.244181 0.593031
vt 0.414721 0.678300
vt 0.356582 0.755818
vt 0.255809 0.593031
vt 0.414721 0.689928
vt 0.193795 0.879847
vt 0.120153 0.689928
vt 0.096897 0.693804
vt 0.236430 0.879847
vt 0.120153 0.647293
vt 0.193795 0.837212
vt 0.120153 0.647293
vt 0.042635 0.686052
vt 0.096897 0.651169
vt 0.236430 0.837212
vt 0.042635 0.643417
vt 0.108525 0.693804
vt 0.162788 0.794577
vt 0.131781 0.647293
vt 0.108525 0.689928
vt 0.205423 0.794577
vt 0.131781 0.689928
vt 0.108525 0.651169
vt 0.162788 0.751943
vt 0.054263 0.643417
vt 0.108525 0.647293
vt 0.205423 0.751943
vt 0.054263 0.686052
vt 0.267437 0.612410
vt 0.313948 0.643417
vt 0.399217 0.678300
vt 0.282941 0.643417
vt 0.279065 0.612410
vt 0.399217 0.666673
vt 0.267437 0.593031
vt 0.313948 0.624038
vt 0.399217 0.666673
vt 0.282941 0.624038
vt 0.279065 0.593031
vt 0.399217 0.655045
vt 0.298444 0.643417
vt 0.279065 0.612410
vt 0.414721 0.666673
vt 0.298444 0.643417
vt 0.290692 0.612410
vt 0.414721 0.678300
vt 0.298444 0.624038
vt 0.279065 0.593031
vt 0.414721 0.655045
vt 0.298444 0.624038
vt 0.290692 0.593031
vt 0.414721 0.666673
vt 0.290692 0.612410
vt 0.344955 0.643417
vt 0.399217 0.655045
vt 0.313948 0.643417
vt 0.302320 0.612410
vt 0.399217 0.643417
vt 0.290692 0.593031
vt 0.344955 0.624038
vt 0.399217 0.643417
vt 0.313948 0.624038
vt 0.302320 0.593031
vt 0.399217 0.631790
vt 0.329451 0.643417
vt 0.302320 0.612410
vt 0.414721 0.643417
vt 0.329451 0.643417
vt 0.313948 0.612410
vt 0.414721 0.655045
vt 0.329451 0.624038
vt 0.302320 0.593031
vt 0.414721 0.631790
vt 0.329451 0.624038
vt 0.313948 0.593031
vt 0.414721 0.643417
vt 0.313948 0.612410
vt 0.375962 0.872095
vt 0.399217 0.631790
vt 0.344955 0.643417
vt 0.325575 0.612410
vt 0.399217 0.620162
vt 0.313948 0.593031
vt 0.375962 0.852716
vt 0.403093 0.980621
vt 0.344955 0.624038
vt 0.325575 0.593031
vt 0.403093 0.968993
vt 0.360458 0.643417
vt 0.325575 0.612410
vt 0.414721 0.620162
vt 0.360458 0.872095
vt 0.337203 0.612410
vt 0.414721 0.631790
vt 0.360458 0.624038
vt 0.325575 0.593031
vt 0.418597 0.968993
vt 0.360458 0.852716
vt 0.337203 0.593031
vt 0.418597 0.980621
vt 0.337203 0.612410
vt 0.205423 0.639542
vt 0.403093 0.879847
vt 0.139532 0.639542
vt 0.348831 0.612410
vt 0.403093 0.868219
vt 0.337203 0.593031
vt 0.205423 0.620162
vt 0.403093 0.868219
vt 0.139532 0.620162
vt 0.348831 0.593031
vt 0.403093 0.856592
vt 0.155036 0.639542
vt 0.348831 0.612410
vt 0.418597 0.868219
vt 0.189919 0.639542
vt 0.360458 0.612410
vt 0.418597 0.879847
vt 0.155036 0.620162
vt 0.348831 0.593031
vt 0.418597 0.856592
vt 0.189919 0.620162
vt 0.360458 0.593031
vt 0.418597 0.868219
vt 0.015504 0.608534
vt 0.375962 0.678300
vt 0.403093 0.856592
vt 0.360458 0.697680
vt 0.027131 0.608534
vt 0.403093 0.844964
vt 0.015504 0.589155
vt 0.375962 0.658921
vt 0.406969 0.930234
vt 0.360458 0.678300
vt 0.027131 0.589155
vt 0.406969 0.918606
vt 0.375962 0.697680
vt 0.391466 0.980621
vt 0.418597 0.844964
vt 0.360458 0.678300
vt 0.403093 0.980621
vt 0.418597 0.856592
vt 0.375962 0.678300
vt 0.391466 0.961241
vt 0.422473 0.918606
vt 0.360458 0.658921
vt 0.403093 0.961241
vt 0.422473 0.930234
vt 0.065890 0.608534
vt 0.375962 0.639542
vt 0.217050 0.593031
vt 0.360458 0.658921
vt 0.077518 0.608534
vt 0.217050 0.581403
vt 0.065890 0.589155
vt 0.375962 0.620162
vt 0.232554 0.593031
vt 0.360458 0.639542
vt 0.077518 0.589155
vt 0.232554 0.581403
vt 0.375962 0.658921
vt 0.077518 0.608534
vt 0.232554 0.581403
vt 0.360458 0.639542
vt 0.089146 0.608534
vt 0.232554 0.593031
vt 0.375962 0.639542
vt 0.077518 0.589155
vt 0.248057 0.581403
vt 0.360458 0.620162
vt 0.089146 0.589155
vt 0.248057 0.593031
vt 0.089146 0.608534
vt 0.383714 0.930234
vt 0.267437 0.593031
vt 0.364334 0.852716
vt 0.100773 0.608534
vt 0.267437 0.581403
vt 0.089146 0.589155
vt 0.383714 0.910854
vt 0.406969 0.724811
vt 0.364334 0.833336
vt 0.100773 0.589155
vt 0.406969 0.713184
vt 0.379838 0.852716
vt 0.100773 0.608534
vt 0.282941 0.581403
vt 0.368210 0.930234
vt 0.112401 0.608534
vt 0.282941 0.593031
vt 0.379838 0.833336
vt 0.100773 0.589155
vt 0.422473 0.713184
vt 0.368210 0.910854
vt 0.112401 0.589155
vt 0.422473 0.724811
vt 0.391466 0.879847
vt 0.259685 0.631790
vt 0.282941 0.593031
vt 0.228678 0.631790
vt 0.403093 0.879847
vt 0.282941 0.581403
vt 0.391466 0.860468
vt 0.259685 0.612410
vt 0.406969 0.713184
vt 0.228678 0.612410
vt 0.403093 0.860468
vt 0.406969 0.701556
vt 0.244181 0.631790
vt 0.170539 0.608534
vt 0.298444 0.581403
vt 0.244181 0.631790
vt 0.182167 0.608534
vt 0.298444 0.593031
vt 0.244181 0.612410
vt 0.170539 0.589155
vt 0.422473 0.701556
vt 0.244181 0.612410
vt 0.182167 0.589155
vt 0.422473 0.713184
vt 0.426349 0.604659
vt 0.437976 0.600783
vt 0.155036 0.585279
vt 0.426349 0.717059
vt 0.437976 0.604659
vt 0.155036 0.573651
vt 0.426349 0.600783
vt 0.437976 0.596907
vt 0.414721 0.643417
vt 0.426349 0.713184
vt 0.437976 0.600783
vt 0.414721 0.631790
vt 0.437976 0.717059
vt 0.430225 0.833336
vt 0.166664 0.573651
vt 0.426349 0.600783
vt 0.441852 0.833336
vt 0.166664 0.585279
vt 0.437976 0.713184
vt 0.430225 0.829461
vt 0.426349 0.631790
vt 0.426349 0.596907
vt 0.441852 0.829461
vt 0.426349 0.643417
vt 0.000000 0.604659
vt 0.081394 0.627914
vt 0.329451 0.593031
vt 0.019379 0.627914
vt 0.011628 0.604659
vt 0.329451 0.581403
vt 0.000000 0.585279
vt 0.081394 0.608534
vt 0.344955 0.593031
vt 0.019379 0.608534
vt 0.011628 0.585279
vt 0.344955 0.581403
vt 0.034883 0.627914
vt 0.027131 0.604659
vt 0.344955 0.581403
vt 0.065890 0.627914
vt 0.038759 0.604659
vt 0.344955 0.593031
vt 0.034883 0.608534
vt 0.027131 0.585279
vt 0.360458 0.581403
vt 0.065890 0.608534
vt 0.038759 0.585279
vt 0.360458 0.593031
vt 0.038759 0.604659
vt 0.387590 0.899227
vt 0.406969 0.620162
vt 0.081394 0.627914
vt 0.050387 0.604659
vt 0.406969 0.608534
vt 0.038759 0.585279
vt 0.387590 0.879847
vt 0.406969 0.608534
vt 0.081394 0.608534
vt 0.050387 0.585279
vt 0.406969 0.596907
vt 0.096897 0.627914
vt 0.155036 0.604659
vt 0.422473 0.608534
vt 0.372086 0.899227
vt 0.166664 0.604659
vt 0.422473 0.620162
vt 0.096897 0.608534
vt 0.155036 0.585279
vt 0.422473 0.596907
vt 0.372086 0.879847
vt 0.166664 0.585279
vt 0.422473 0.608534
vt 0.360458 0.604659
vt 0.387590 0.806205
vt 0.406969 0.596907
vt 0.372086 0.825585
vt 0.372086 0.604659
vt 0.406969 0.585279
vt 0.360458 0.585279
vt 0.387590 0.786826
vt 0.410845 1.000000
vt 0.372086 0.806205
vt 0.372086 0.585279
vt 0.410845 0.988372
vt 0.387590 0.825585
vt 0.372086 0.604659
vt 0.422473 0.585279
vt 0.372086 0.806205
vt 0.383714 0.604659
vt 0.422473 0.596907
vt 0.387590 0.806205
vt 0.372086 0.585279
vt 0.426349 0.988372
vt 0.372086 0.786826
vt 0.383714 0.585279
vt 0.426349 1.000000
vt 0.383714 0.604659
vt 0.387590 0.786826
vt 0.065890 0.589155
vt 0.205423 0.627914
vt 0.395341 0.604659
vt 0.065890 0.577527
vt 0.383714 0.585279
vt 0.387590 0.767446
vt 0.081394 0.589155
vt 0.205423 0.608534
vt 0.395341 0.585279
vt 0.081394 0.577527
vt 0.220926 0.627914
vt 0.395341 0.604659
vt 0.081394 0.577527
vt 0.372086 0.786826
vt 0.406969 0.604659
vt 0.081394 0.589155
vt 0.220926 0.608534
vt 0.395341 0.585279
vt 0.096897 0.577527
vt 0.372086 0.767446
vt 0.406969 0.585279
vt 0.096897 0.589155
vt 0.139532 0.600783
vt 0.391466 0.980621
vt 0.096897 0.589155
vt 0.372086 0.767446
vt 0.151160 0.600783
vt 0.096897 0.577527
vt 0.139532 0.581403
vt 0.391466 0.961241
vt 0.166664 0.589155
vt 0.372086 0.748067
vt 0.151160 0.581403
vt 0.166664 0.577527
vt 0.387590 0.767446
vt 0.193795 0.600783
vt 0.112401 0.577527
vt 0.375962 0.980621
vt 0.205423 0.600783
vt 0.112401 0.589155
vt 0.387590 0.748067
vt 0.193795 0.581403
vt 0.182167 0.577527
vt 0.375962 0.961241
vt 0.205423 0.581403
vt 0.182167 0.589155
vt 0.399217 0.806205
vt 0.170539 0.624038
vt 0.410845 0.806205
vt 0.375962 0.879847
vt 0.410845 0.806205
vt 0.410845 0.794577
vt 0.399217 0.786826
vt 0.170539 0.604659
vt 0.410845 0.794577
vt 0.375962 0.860468
vt 0.410845 0.786826
vt 0.410845 0.782950
vt 0.391466 0.879847
vt 0.399217 0.786826
vt 0.426349 0.794577
vt 0.155036 0.624038
vt 0.410845 0.786826
vt 0.426349 0.806205
vt 0.391466 0.860468
vt 0.399217 0.767446
vt 0.426349 0.782950
vt 0.155036 0.604659
vt 0.410845 0.767446
vt 0.426349 0.794577
vt 0.426349 0.860468
vt 0.414721 0.903103
vt 0.236430 0.860468
vt 0.329451 0.829461
vt 0.437976 0.860468
vt 0.236430 0.848840
vt 0.426349 0.856592
vt 0.414721 0.899227
vt 0.236430 0.848840
vt 0.329451 0.825585
vt 0.437976 0.856592
vt 0.236430 0.837212
vt 0.406969 0.829461
vt 0.426349 0.844964
vt 0.313948 0.848840
vt 0.337203 0.903103
vt 0.437976 0.844964
vt 0.313948 0.860468
vt 0.406969 0.825585
vt 0.426349 0.841088
vt 0.313948 0.837212
vt 0.337203 0.899227
vt 0.437976 0.841088
vt 0.313948 0.848840
vt 0.244181 0.740315
vt 0.143408 0.581403
vt 0.360458 0.585279
vt 0.418597 0.879847
vt 0.275189 0.740315
vt 0.360458 0.554272
vt 0.244181 0.713184
vt 0.143408 0.554272
vt 0.364334 0.585279
vt 0.418597 0.852716
vt 0.275189 0.713184
vt 0.364334 0.554272
vt 0.422473 0.879847
vt 0.267437 0.941862
vt 0.364334 0.554272
vt 0.139532 0.581403
vt 0.298444 0.941862
vt 0.364334 0.585279
vt 0.422473 0.852716
vt 0.267437 0.914730
vt 0.368210 0.554272
vt 0.139532 0.554272
vt 0.298444 0.914730
vt 0.368210 0.585279
vt 0.205423 0.794577
vt 0.325575 0.879847
vt 0.151160 0.686052
vt 0.054263 0.686052
vt 0.248057 0.794577
vt 0.151160 0.643417
vt 0.205423 0.751943
vt 0.325575 0.837212
vt 0.236430 0.686052
vt 0.054263 0.643417
vt 0.248057 0.751943
vt 0.236430 0.643417
vt 0.065890 0.686052
vt 0.108525 0.786826
vt 0.162788 0.643417
vt 0.313948 0.879847
vt 0.151160 0.786826
vt 0.162788 0.686052
vt 0.065890 0.643417
vt 0.108525 0.744191
vt 0.248057 0.643417
vt 0.313948 0.837212
vt 0.151160 0.744191
vt 0.248057 0.686052
vt 0.387590 0.883723
vt 0.437976 0.728687
vt 0.228678 0.697680
vt 0.430225 0.732563
vt 0.453480 0.883723
vt 0.228678 0.631790
vt 0.387590 0.879847
vt 0.437976 0.724811
vt 0.089146 0.693804
vt 0.430225 0.728687
vt 0.453480 0.879847
vt 0.089146 0.627914
vt 0.437976 0.732563
vt 0.387590 0.825585
vt 0.236430 0.631790
vt 0.430225 0.728687
vt 0.453480 0.825585
vt 0.236430 0.697680
vt 0.437976 0.728687
vt 0.387590 0.821709
vt 0.096897 0.627914
vt 0.430225 0.724811
vt 0.453480 0.821709
vt 0.096897 0.693804
vt 0.368210 0.906978
vt 0.375962 0.620162
vt 0.093022 0.759694
vt 0.333327 0.686052
vt 0.434100 0.906978
vt 0.093022 0.693804
vt 0.368210 0.903103
vt 0.375962 0.616286
vt 0.151160 0.751943
vt 0.333327 0.682176
vt 0.434100 0.903103
vt 0.151160 0.686052
vt 0.348831 0.686052
vt 0.379838 0.837212
vt 0.108525 0.693804
vt 0.360458 0.620162
vt 0.445728 0.837212
vt 0.108525 0.759694
vt 0.348831 0.682176
vt 0.379838 0.833336
vt 0.166664 0.686052
vt 0.360458 0.616286
vt 0.445728 0.833336
vt 0.166664 0.751943
vt 0.395341 0.748067
vt 0.437976 0.751943
vt 0.248057 0.686052
vt 0.430225 0.786826
vt 0.449604 0.748067
vt 0.248057 0.631790
vt 0.395341 0.744191
vt 0.437976 0.748067
vt 0.275189 0.678300
vt 0.430225 0.782950
vt 0.449604 0.744191
vt 0.275189 0.624038
vt 0.437976 0.786826
vt 0.395341 0.744191
vt 0.255809 0.631790
vt 0.430225 0.751943
vt 0.449604 0.744191
vt 0.255809 0.686052
vt 0.437976 0.782950
vt 0.395341 0.740315
vt 0.282941 0.624038
vt 0.430225 0.748067
vt 0.449604 0.740315
vt 0.282941 0.678300
s 1
usemtl m_6d7d4cf9-93d2-a3ee-f93b-b5a7ff3b8d64
f 4/10/1 7/19/1 5/13/1 2/4/1
f 3/7/2 4/11/2 2/5/2 1/1/2
f 8/22/3 3/8/3 1/2/3 6/16/3
f 7/20/4 8/23/4 6/17/4 5/14/4
f 6/18/5 1/3/5 2/6/5 5/15/5
f 7/21/6 4/12/6 3/9/6 8/24/6
f 12/34/7 15/43/7 13/37/7 10/28/7
f 11/31/8 12/35/8 10/29/8 9/25/8
f 16/46/9 11/32/9 9/26/9 14/40/9
f 15/44/10 16/47/10 14/41/10 13/38/10
f 14/42/5 9/27/5 10/30/5 13/39/5
f 15/45/6 12/36/6 11/33/6 16/48/6
f 20/58/11 23/67/11 21/61/11 18/52/11
f 19/55/12 20/59/12 18/53/12 17/49/12
f 24/70/13 19/56/13 17/50/13 22/64/13
f 23/68/14 24/71/14 22/65/14 21/62/14
f 22/66/5 17/51/5 18/54/5 21/63/5
f 23/69/6 20/60/6 19/57/6 24/72/6
f 28/82/15 31/91/15 29/85/15 26/76/15
f 27/79/16 28/83/16 26/77/16 25/73/16
f 32/94/17 27/80/17 25/74/17 30/88/17
f 31/92/18 32/95/18 30/89/18 29/86/18
f 30/90/5 25/75/5 26/78/5 29/87/5
f 31/93/6 28/84/6 27/81/6 32/96/6
f 36/106/15 39/115/15 37/109/15 34/100/15
f 35/103/16 36/107/16 34/101/16 33/97/16
f 40/118/17 35/104/17 33/98/17 38/112/17
f 39/116/18 40/119/18 38/113/18 37/110/18
f 38/114/5 33/99/5 34/102/5 37/111/5
f 39/117/6 36/108/6 35/105/6 40/120/6
f 44/130/15 47/139/15 45/133/15 42/124/15
f 43/127/16 44/131/16 42/125/16 41/121/16
f 48/142/17 43/128/17 41/122/17 46/136/17
f 47/140/18 48/143/18 46/137/18 45/134/18
f 46/138/5 41/123/5 42/126/5 45/135/5
f 47/141/6 44/132/6 43/129/6 48/144/6
f 52/154/15 55/163/15 53/157/15 50/148/15
f 51/151/16 52/155/16 50/149/16 49/145/16
f 56/166/17 51/152/17 49/146/17 54/160/17
f 55/164/18 56/167/18 54/161/18 53/158/18
f 54/162/5 49/147/5 50/150/5 53/159/5
f 55/165/6 52/156/6 51/153/6 56/168/6
f 60/178/18 63/187/18 61/181/18 58/172/18
f 59/175/15 60/179/15 58/173/15 57/169/15
f 64/190/16 59/176/16 57/170/16 62/184/16
f 63/188/17 64/191/17 62/185/17 61/182/17
f 62/186/5 57/171/5 58/174/5 61/183/5
f 63/189/6 60/180/6 59/177/6 64/192/6
f 68/202/18 71/211/18 69/205/18 66/196/18
f 67/199/15 68/203/15 66/197/15 65/193/15
f 72/214/16 67/200/16 65/194/16 70/208/16
f 71/212/17 72/215/17 70/209/17 69/206/17
f 70/210/5 65/195/5 66/198/5 69/207/5
f 71/213/6 68/204/6 67/201/6 72/216/6
f 76/226/7 79/235/7 77/229/7 74/220/7
f 75/223/8 76/227/8 74/221/8 73/217/8
f 80/238/19 75/224/19 73/218/19 78/232/19
f 79/236/10 80/239/10 78/233/10 77/230/10
f 78/234/5 73/219/5 74/222/5 77/231/5
f 79/237/6 76/228/6 75/225/6 80/240/6
f 84/250/20 87/259/20 85/253/20 82/244/20
f 83/247/21 84/251/21 82/245/21 81/241/21
f 88/262/22 83/248/22 81/242/22 86/256/22
f 87/260/23 88/263/23 86/257/23 85/254/23
f 86/258/5 81/243/5 82/246/5 85/255/5
f 87/261/6 84/252/6 83/249/6 88/264/6
f 92/274/1 95/283/1 93/277/1 90/268/1
f 91/271/2 92/275/2 90/269/2 89/265/2
f 96/286/3 91/272/3 89/266/3 94/280/3
f 95/284/4 96/287/4 94/281/4 93/278/4
f 94/282/5 89/267/5 90/270/5 93/279/5
f 95/285/6 92/276/6 91/273/6 96/288/6
f 100/298/24 103/307/24 101/301/24 98/292/24
f 99/295/25 100/299/25 98/293/25 97/289/25
f 104/310/26 99/296/26 97/290/26 102/304/26
f 103/308/27 104/311/27 102/305/27 101/302/27
f 102/306/5 97/291/5 98/294/5 101/303/5
f 103/309/6 100/300/6 99/297/6 104/312/6
f 108/322/11 111/331/11 109/325/11 106/316/11
f 107/319/12 108/323/12 106/317/12 105/313/12
f 112/334/13 107/320/13 105/314/13 110/328/13
f 111/332/14 112/335/14 110/329/14 109/326/14
f 110/330/5 105/315/5 106/318/5 109/327/5
f 111/333/6 108/324/6 107/321/6 112/336/6
f 116/346/1 119/355/1 117/349/1 114/340/1
f 115/343/2 116/347/2 114/341/2 113/337/2
f 120/358/3 115/344/3 113/338/3 118/352/3
f 119/356/4 120/359/4 118/353/4 117/350/4
f 118/354/5 113/339/5 114/342/5 117/351/5
f 119/357/6 116/348/6 115/345/6 120/360/6
f 124/370/28 127/379/28 125/373/28 122/364/28
f 123/367/2 124/371/2 122/365/2 121/361/2
f 128/382/29 123/368/29 121/362/29 126/376/29
f 127/380/4 128/383/4 126/377/4 125/374/4
f 126/378/30 121/363/30 122/366/30 125/375/30
f 127/381/31 124/372/31 123/369/31 128/384/31
f 132/394/5 135/403/5 133/397/5 130/388/5
f 131/391/2 132/395/2 130/389/2 129/385/2
f 136/406/6 131/392/6 129/386/6 134/400/6
f 135/404/4 136/407/4 134/401/4 133/398/4
f 134/402/3 129/387/3 130/390/3 133/399/3
f 135/405/1 132/396/1 131/393/1 136/408/1
f 140/417/6 143/426/6 141/420/6 138/411/6
f 139/414/2 140/418/2 138/412/2 137/409/2
f 144/429/5 139/415/5 137/410/5 142/423/5
f 143/427/4 144/430/4 142/424/4 141/421/4
f 142/425/1 137/410/1 138/413/1 141/422/1
f 143/428/3 140/419/3 139/416/3 144/431/3
f 148/441/28 151/450/28 149/444/28 146/435/28
f 147/438/2 148/442/2 146/436/2 145/432/2
f 152/453/29 147/439/29 145/433/29 150/447/29
f 151/451/4 152/454/4 150/448/4 149/445/4
f 150/449/30 145/434/30 146/437/30 149/446/30
f 151/452/31 148/443/31 147/440/31 152/455/31
f 156/465/31 159/474/31 157/468/31 154/459/31
f 155/462/2 156/466/2 154/460/2 153/456/2
f 160/477/30 155/463/30 153/457/30 158/471/30
f 159/475/4 160/478/4 158/472/4 157/469/4
f 158/473/28 153/458/28 154/461/28 157/470/28
f 159/476/29 156/467/29 155/464/29 160/479/29
f 164/489/29 167/498/29 165/492/29 162/483/29
f 163/486/2 164/490/2 162/484/2 161/480/2
f 168/501/28 163/487/28 161/481/28 166/495/28
f 167/499/4 168/502/4 166/496/4 165/493/4
f 166/497/31 161/482/31 162/485/31 165/494/31
f 167/500/30 164/491/30 163/488/30 168/503/30
f 172/513/30 175/522/30 173/516/30 170/507/30
f 171/510/2 172/514/2 170/508/2 169/504/2
f 176/525/31 171/511/31 169/505/31 174/519/31
f 175/523/4 176/526/4 174/520/4 173/517/4
f 174/521/29 169/506/29 170/509/29 173/518/29
f 175/524/28 172/515/28 171/512/28 176/527/28
f 180/537/6 183/546/6 181/540/6 178/531/6
f 179/534/2 180/538/2 178/532/2 177/528/2
f 184/549/5 179/535/5 177/529/5 182/543/5
f 183/547/4 184/550/4 182/544/4 181/541/4
f 182/545/1 177/530/1 178/533/1 181/542/1
f 183/548/3 180/539/3 179/536/3 184/551/3
f 188/561/3 191/570/3 189/564/3 186/555/3
f 187/558/2 188/562/2 186/556/2 185/552/2
f 192/573/1 187/559/1 185/553/1 190/567/1
f 191/571/4 192/574/4 190/568/4 189/565/4
f 190/569/6 185/554/6 186/557/6 189/566/6
f 191/572/5 188/563/5 187/560/5 192/575/5
f 196/585/1 199/594/1 197/588/1 194/579/1
f 195/582/2 196/586/2 194/580/2 193/576/2
f 200/597/3 195/583/3 193/577/3 198/591/3
f 199/595/4 200/598/4 198/592/4 197/589/4
f 198/593/5 193/578/5 194/581/5 197/590/5
f 199/596/6 196/587/6 195/584/6 200/599/6
f 204/609/5 207/618/5 205/612/5 202/603/5
f 203/606/2 204/610/2 202/604/2 201/600/2
f 208/621/6 203/607/6 201/601/6 206/615/6
f 207/619/4 208/622/4 206/616/4 205/613/4
f 206/617/3 201/602/3 202/605/3 205/614/3
f 207/620/1 204/611/1 203/608/1 208/623/1
f 212/633/32 215/642/32 213/636/32 210/627/32
f 211/630/2 212/634/2 210/628/2 209/624/2
f 216/645/33 211/631/33 209/625/33 214/639/33
f 215/643/4 216/646/4 214/640/4 213/637/4
f 214/641/34 209/626/34 210/629/34 213/638/34
f 215/644/35 212/635/35 211/632/35 216/647/35
f 220/657/31 223/666/31 221/660/31 218/651/31
f 219/654/2 220/658/2 218/652/2 217/648/2
f 224/669/30 219/655/30 217/649/30 222/663/30
f 223/667/4 224/670/4 222/664/4 221/661/4
f 222/665/28 217/650/28 218/653/28 221/662/28
f 223/668/29 220/659/29 219/656/29 224/671/29
f 228/681/29 231/690/29 229/684/29 226/675/29
f 227/678/2 228/682/2 226/676/2 225/672/2
f 232/693/28 227/679/28 225/673/28 230/687/28
f 231/691/4 232/694/4 230/688/4 229/685/4
f 230/689/31 225/674/31 226/677/31 229/686/31
f 231/692/30 228/683/30 227/680/30 232/695/30
f 236/705/30 239/714/30 237/708/30 234/699/30
f 235/702/2 236/706/2 234/700/2 233/696/2
f 240/717/31 235/703/31 233/697/31 238/711/31
f 239/715/4 240/718/4 238/712/4 237/709/4
f 238/713/29 233/698/29 234/701/29 237/710/29
f 239/716/28 236/707/28 235/704/28 240/719/28
f 244/729/6 247/738/6 245/732/6 242/723/6
f 243/726/2 244/730/2 242/724/2 241/720/2
f 248/741/5 243/727/5 241/721/5 246/735/5
f 247/739/4 248/742/4 246/736/4 245/733/4
f 246/737/1 241/722/1 242/725/1 245/734/1
f 247/740/3 244/731/3 243/728/3 248/743/3
f 252/753/3 255/762/3 253/756/3 250/747/3
f 251/750/2 252/754/2 250/748/2 249/744/2
f 256/765/1 251/751/1 249/745/1 254/759/1
f 255/763/4 256/766/4 254/760/4 253/757/4
f 254/761/6 249/746/6 250/749/6 253/758/6
f 255/764/5 252/755/5 251/752/5 256/767/5
f 260/777/1 263/786/1 261/780/1 258/771/1
f 259/774/2 260/778/2 258/772/2 257/768/2
f 264/789/3 259/775/3 257/769/3 262/783/3
f 263/787/4 264/790/4 262/784/4 261/781/4
f 262/785/5 257/770/5 258/773/5 261/782/5
f 263/788/6 260/779/6 259/776/6 264/791/6
f 268/801/36 271/810/36 269/804/36 266/795/36
f 267/798/2 268/802/2 266/796/2 265/792/2
f 272/813/37 267/799/37 265/793/37 270/807/37
f 271/811/4 272/814/4 270/808/4 269/805/4
f 270/809/38 265/794/38 266/797/38 269/806/38
f 271/812/39 268/803/39 267/800/39 272/815/39
f 276/825/1 279/834/1 277/828/1 274/819/1
f 275/822/40 276/826/40 274/820/40 273/816/40
f 280/837/3 275/823/3 273/817/3 278/831/3
f 279/835/41 280/838/41 278/832/41 277/829/41
f 278/833/42 273/818/42 274/821/42 277/830/42
f 279/836/43 276/827/43 275/824/43 280/839/43
f 284/849/6 287/858/6 285/852/6 282/843/6
f 283/846/2 284/850/2 282/844/2 281/840/2
f 288/861/5 283/847/5 281/841/5 286/855/5
f 287/859/4 288/862/4 286/856/4 285/853/4
f 286/857/1 281/842/1 282/845/1 285/854/1
f 287/860/3 284/851/3 283/848/3 288/863/3
f 292/873/44 295/882/44 293/876/44 290/867/44
f 291/870/45 292/874/45 290/868/45 289/864/45
f 296/885/46 291/871/46 289/865/46 294/879/46
f 295/883/47 296/886/47 294/880/47 293/877/47
f 294/881/48 289/866/48 290/869/48 293/878/48
f 295/884/49 292/875/49 291/872/49 296/887/49
f 300/897/50 303/906/50 301/900/50 298/891/50
f 299/894/51 300/898/51 298/892/51 297/888/51
f 304/909/52 299/895/52 297/889/52 302/903/52
f 303/907/53 304/910/53 302/904/53 301/901/53
f 302/905/48 297/890/48 298/893/48 301/902/48
f 303/908/49 300/899/49 299/896/49 304/911/49
f 308/921/32 311/930/32 309/924/32 306/915/32
f 307/918/2 308/922/2 306/916/2 305/912/2
f 312/933/33 307/919/33 305/913/33 310/927/33
f 311/931/4 312/934/4 310/928/4 309/925/4
f 310/929/34 305/914/34 306/917/34 309/926/34
f 311/932/35 308/923/35 307/920/35 312/935/35
