# Blender 3.3.21
# www.blender.org
mtllib zu23_turret.mtl
o gun
v 0.178125 0.685042 2.275000
v 0.178125 0.685042 2.212500
v 0.178125 0.560042 2.275000
v 0.178125 0.560042 2.212500
v -0.184375 0.685042 2.212500
v -0.184375 0.685042 2.275000
v -0.184375 0.560042 2.212500
v -0.184375 0.560042 2.275000
v 0.178125 0.685042 2.212500
v 0.178125 0.685042 1.900000
v 0.178125 0.622542 2.212500
v 0.178125 0.622542 1.900000
v -0.184375 0.685042 1.900000
v -0.184375 0.685042 2.212500
v -0.184375 0.622542 1.900000
v -0.184375 0.622542 2.212500
v 0.196875 0.766292 0.987500
v 0.196875 0.766292 0.025000
v 0.196875 0.560042 0.987500
v 0.196875 0.560042 0.025000
v -0.203125 0.766292 0.025000
v -0.203125 0.766292 0.987500
v -0.203125 0.560042 0.025000
v -0.203125 0.560042 0.987500
v 0.246875 0.578792 1.112500
v 0.246875 0.578792 0.025000
v 0.246875 0.472542 1.112500
v 0.246875 0.472542 0.025000
v -0.240625 0.578792 0.025000
v -0.240625 0.578792 1.112500
v -0.240625 0.472542 0.025000
v -0.240625 0.472542 1.112500
v 0.053125 0.644616 2.213353
v 0.053125 0.575936 1.090452
v 0.053125 0.582232 2.217169
v 0.053125 0.513553 1.094267
v -0.059375 0.575936 1.090452
v -0.059375 0.644616 2.213353
v -0.059375 0.513553 1.094267
v -0.059375 0.582232 2.217169
v -0.136206 0.746155 3.356250
v -0.136206 0.746156 0.918750
v -0.092011 0.701961 3.356250
v -0.092011 0.701961 0.918750
v -0.180400 0.701961 0.918750
v -0.180400 0.701961 3.356250
v -0.136206 0.657767 0.918750
v -0.136206 0.657767 3.356250
v -0.136206 0.763833 3.350000
v -0.136206 0.763833 2.975000
v -0.074334 0.701961 3.350000
v -0.074334 0.701961 2.975000
v -0.198077 0.701961 2.975000
v -0.198077 0.701961 3.350000
v -0.136206 0.640089 2.975000
v -0.136206 0.640089 3.350000
v 0.198077 0.701961 3.350000
v 0.198077 0.701961 2.975000
v 0.136206 0.640089 3.350000
v 0.136206 0.640089 2.975000
v 0.136206 0.763833 2.975000
v 0.136206 0.763833 3.350000
v 0.074334 0.701961 2.975000
v 0.074334 0.701961 3.350000
v 0.178125 0.810042 1.775000
v 0.178125 0.810042 1.462500
v 0.178125 0.703792 1.775000
v 0.178125 0.703792 1.462500
v -0.178125 0.810042 1.462500
v -0.178125 0.810042 1.775000
v -0.178125 0.703792 1.462500
v -0.178125 0.703792 1.775000
v 0.180400 0.701961 3.356250
v 0.180400 0.701961 0.918750
v 0.136206 0.657767 3.356250
v 0.136206 0.657767 0.918750
v 0.136206 0.746156 0.918750
v 0.136206 0.746155 3.356250
v 0.092011 0.701961 0.918750
v 0.092011 0.701961 3.356250
v 0.828125 0.860042 0.518750
v 0.828125 0.860042 0.181250
v 0.828125 0.560042 0.518750
v 0.828125 0.560042 0.181250
v -0.828125 0.860042 0.181250
v -0.828125 0.860042 0.518750
v -0.828125 0.560042 0.181250
v -0.828125 0.560042 0.518750
v 0.178125 0.810042 1.462500
v 0.178125 0.810042 1.774999
v -0.178125 0.810042 1.774999
v -0.178125 0.810042 1.462500
v 0.178125 0.810042 1.462501
v 0.178125 0.810042 1.774999
v 0.178125 0.703792 1.462501
v 0.178125 0.703792 1.774999
v -0.178125 0.810042 1.774999
v -0.178125 0.810042 1.462501
v -0.178125 0.703792 1.774999
v -0.178125 0.703792 1.462501
v -0.178124 0.810042 1.775000
v -0.178124 0.703792 1.775000
v 0.178124 0.810042 1.775000
v 0.178124 0.703792 1.775000
v -0.178124 0.810042 1.462500
v -0.178124 0.703792 1.462500
v 0.178124 0.810042 1.462500
v 0.178124 0.703792 1.462500
v 0.178125 0.703792 1.462500
v 0.178125 0.703792 1.774999
v -0.178125 0.703792 1.774999
v -0.178125 0.703792 1.462500
vn -0.0000 -0.0000 -1.0000
vn 1.0000 -0.0000 -0.0000
vn -0.0000 -0.0000 1.0000
vn -1.0000 -0.0000 -0.0000
vn -0.0000 1.0000 -0.0000
vn -0.0000 -1.0000 -0.0000
vn -0.0000 -0.0610 -0.9981
vn -0.0000 0.0610 0.9981
vn -0.0000 0.9981 -0.0610
vn -0.0000 -0.9981 0.0610
vn 0.7071 0.7071 -0.0000
vn -0.7071 -0.7071 -0.0000
vn -0.7071 0.7071 -0.0000
vn 0.7071 -0.7071 -0.0000
vt 0.065890 0.709308
vt 0.422473 0.759694
vt 0.418597 0.918606
vt 0.399217 0.767446
vt 0.069766 0.709308
vt 0.418597 0.914730
vt 0.065890 0.701556
vt 0.422473 0.751943
vt 0.418597 0.914730
vt 0.399217 0.759694
vt 0.069766 0.701556
vt 0.418597 0.910854
vt 0.422473 0.767446
vt 0.089146 0.701556
vt 0.441852 0.914730
vt 0.399217 0.759694
vt 0.093022 0.701556
vt 0.441852 0.918606
vt 0.422473 0.759694
vt 0.089146 0.693804
vt 0.441852 0.910854
vt 0.399217 0.751943
vt 0.093022 0.693804
vt 0.441852 0.914730
vt 0.170539 0.624038
vt 0.441852 0.848840
vt 0.317823 1.000000
vt 0.418597 0.852716
vt 0.189919 0.624038
vt 0.317823 0.980621
vt 0.170539 0.620162
vt 0.441852 0.844964
vt 0.065890 0.678300
vt 0.418597 0.848840
vt 0.189919 0.620162
vt 0.065890 0.658921
vt 0.441852 0.852716
vt 0.422473 0.922482
vt 0.341079 0.980621
vt 0.418597 0.848840
vt 0.441852 0.922482
vt 0.341079 1.000000
vt 0.441852 0.848840
vt 0.422473 0.918606
vt 0.089146 0.658921
vt 0.418597 0.844964
vt 0.441852 0.918606
vt 0.089146 0.678300
vt 0.267437 0.891475
vt 0.290692 0.624038
vt 0.069766 0.759694
vt 0.337203 0.872095
vt 0.325575 0.891475
vt 0.069766 0.701556
vt 0.267437 0.879847
vt 0.290692 0.612410
vt 0.244181 0.941862
vt 0.337203 0.860468
vt 0.325575 0.879847
vt 0.244181 0.883723
vt 0.360458 0.872095
vt 0.271313 0.837212
vt 0.093022 0.701556
vt 0.267437 0.624038
vt 0.329451 0.837212
vt 0.093022 0.759694
vt 0.360458 0.860468
vt 0.271313 0.825585
vt 0.267437 0.883723
vt 0.267437 0.612410
vt 0.329451 0.825585
vt 0.267437 0.941862
vt 0.310072 0.732563
vt 0.418597 0.813957
vt 0.162788 0.879847
vt 0.387590 0.821709
vt 0.375962 0.732563
vt 0.162788 0.813957
vt 0.310072 0.724811
vt 0.418597 0.806205
vt 0.077518 0.825585
vt 0.387590 0.813957
vt 0.375962 0.724811
vt 0.077518 0.759694
vt 0.418597 0.821709
vt 0.310072 0.724811
vt 0.193795 0.813957
vt 0.387590 0.813957
vt 0.375962 0.724811
vt 0.193795 0.879847
vt 0.418597 0.813957
vt 0.310072 0.717059
vt 0.108525 0.759694
vt 0.387590 0.806205
vt 0.375962 0.717059
vt 0.108525 0.825585
vt 0.193795 0.817833
vt 0.383714 0.961241
vt 0.267437 0.713184
vt 0.321700 0.682176
vt 0.263561 0.817833
vt 0.267437 0.643417
vt 0.193795 0.813957
vt 0.383714 0.957365
vt 0.034883 0.709308
vt 0.321700 0.678300
vt 0.263561 0.813957
vt 0.034883 0.639542
vt 0.329451 0.682176
vt 0.368210 0.910854
vt 0.275189 0.643417
vt 0.375962 0.961241
vt 0.437976 0.910854
vt 0.275189 0.713184
vt 0.329451 0.678300
vt 0.368210 0.906978
vt 0.042635 0.639542
vt 0.375962 0.957365
vt 0.437976 0.906978
vt 0.042635 0.709308
vt 0.282941 0.945737
vt 0.155036 0.643417
vt 0.131781 0.717059
vt 0.263561 0.817833
vt 0.434100 0.945737
vt 0.131781 0.565899
vt 0.282941 0.941862
vt 0.155036 0.639542
vt 0.135656 0.717059
vt 0.263561 0.813957
vt 0.434100 0.941862
vt 0.135656 0.565899
vt 0.267437 0.817833
vt 0.298444 0.941862
vt 0.135656 0.565899
vt 0.151160 0.643417
vt 0.449604 0.941862
vt 0.135656 0.717059
vt 0.267437 0.813957
vt 0.298444 0.937986
vt 0.139532 0.565899
vt 0.151160 0.639542
vt 0.449604 0.937986
vt 0.139532 0.717059
vt 0.244181 0.883723
vt 0.259685 0.635666
vt 0.143408 0.581403
vt 0.201547 0.643417
vt 0.267437 0.883723
vt 0.143408 0.558148
vt 0.244181 0.879847
vt 0.259685 0.631790
vt 0.147284 0.581403
vt 0.201547 0.639542
vt 0.267437 0.879847
vt 0.147284 0.558148
vt 0.205423 0.643417
vt 0.337203 0.860468
vt 0.147284 0.558148
vt 0.255809 0.635666
vt 0.360458 0.860468
vt 0.147284 0.581403
vt 0.205423 0.639542
vt 0.337203 0.856592
vt 0.151160 0.558148
vt 0.255809 0.631790
vt 0.360458 0.856592
vt 0.151160 0.581403
vt 0.418597 0.961241
vt 0.220926 0.596907
vt 0.193795 0.581403
vt 0.015504 0.612410
vt 0.441852 0.961241
vt 0.193795 0.558148
vt 0.418597 0.957365
vt 0.220926 0.593031
vt 0.197671 0.581403
vt 0.015504 0.608534
vt 0.441852 0.957365
vt 0.197671 0.558148
vt 0.019379 0.612410
vt 0.418597 0.957365
vt 0.197671 0.558148
vt 0.217050 0.596907
vt 0.441852 0.957365
vt 0.197671 0.581403
vt 0.019379 0.608534
vt 0.418597 0.953489
vt 0.201547 0.558148
vt 0.217050 0.593031
vt 0.441852 0.953489
vt 0.201547 0.581403
vt 0.337203 0.910854
vt 0.422473 0.953489
vt 0.313948 0.794577
vt 0.348831 0.825585
vt 0.356582 0.910854
vt 0.313948 0.775198
vt 0.337203 0.903103
vt 0.422473 0.945737
vt 0.313948 0.775198
vt 0.348831 0.817833
vt 0.356582 0.903103
vt 0.313948 0.755818
vt 0.372086 0.825585
vt 0.414721 0.651169
vt 0.337203 0.775198
vt 0.399217 0.953489
vt 0.434100 0.651169
vt 0.337203 0.794577
vt 0.372086 0.817833
vt 0.414721 0.643417
vt 0.337203 0.755818
vt 0.399217 0.945737
vt 0.434100 0.643417
vt 0.337203 0.775198
vt 0.298444 0.937986
vt 0.255809 0.569775
vt 0.259685 0.713184
vt 0.166664 0.593031
vt 0.449604 0.937986
vt 0.259685 0.562024
vt 0.298444 0.934110
vt 0.255809 0.565899
vt 0.263561 0.713184
vt 0.166664 0.589155
vt 0.449604 0.934110
vt 0.263561 0.562024
vt 0.170539 0.593031
vt 0.298444 0.934110
vt 0.263561 0.562024
vt 0.251933 0.569775
vt 0.449604 0.934110
vt 0.263561 0.713184
vt 0.170539 0.589155
vt 0.298444 0.930234
vt 0.267437 0.562024
vt 0.251933 0.565899
vt 0.449604 0.930234
vt 0.267437 0.713184
vt 0.162788 0.670549
vt 0.282941 0.980621
vt 0.178291 0.961241
vt 0.178291 1.000000
vt 0.182167 0.670549
vt 0.178291 0.941862
vt 0.162788 0.651169
vt 0.282941 0.961241
vt 0.162788 0.813957
vt 0.178291 0.980621
vt 0.182167 0.651169
vt 0.162788 0.794577
vt 0.282941 1.000000
vt 0.329451 0.682176
vt 0.282941 0.941862
vt 0.178291 0.980621
vt 0.348831 0.682176
vt 0.282941 0.961241
vt 0.282941 0.980621
vt 0.329451 0.662797
vt 0.267437 0.794577
vt 0.178291 0.961241
vt 0.348831 0.662797
vt 0.267437 0.813957
vt 0.313948 0.794577
vt 0.313948 0.775198
vt 0.337203 0.775198
vt 0.337203 0.794577
vt 0.337203 0.910854
vt 0.356582 0.910854
vt 0.337203 0.903103
vt 0.356582 0.903103
vt 0.414721 0.651169
vt 0.434100 0.651169
vt 0.414721 0.643417
vt 0.434100 0.643417
vt 0.422473 0.953489
vt 0.422473 0.945737
vt 0.399217 0.953489
vt 0.399217 0.945737
vt 0.348831 0.825585
vt 0.348831 0.817833
vt 0.372086 0.825585
vt 0.372086 0.817833
vt 0.313948 0.775198
vt 0.313948 0.755818
vt 0.337203 0.755818
vt 0.337203 0.775198
s 1
usemtl m_6d7d4cf9-93d2-a3ee-f93b-b5a7ff3b8d64
f 4/10/1 7/19/1 5/13/1 2/4/1
f 3/7/2 4/11/2 2/5/2 1/1/2
f 8/22/3 3/8/3 1/2/3 6/16/3
f 7/20/4 8/23/4 6/17/4 5/14/4
f 6/18/5 1/3/5 2/6/5 5/15/5
f 7/21/6 4/12/6 3/9/6 8/24/6
f 12/34/1 15/43/1 13/37/1 10/28/1
f 11/31/2 12/35/2 10/29/2 9/25/2
f 16/46/3 11/32/3 9/26/3 14/40/3
f 15/44/4 16/47/4 14/41/4 13/38/4
f 14/42/5 9/27/5 10/30/5 13/39/5
f 15/45/6 12/36/6 11/33/6 16/48/6
f 20/58/1 23/67/1 21/61/1 18/52/1
f 19/55/2 20/59/2 18/53/2 17/49/2
f 24/70/3 19/56/3 17/50/3 22/64/3
f 23/68/4 24/71/4 22/65/4 21/62/4
f 22/66/5 17/51/5 18/54/5 21/63/5
f 23/69/6 20/60/6 19/57/6 24/72/6
f 28/82/1 31/91/1 29/85/1 26/76/1
f 27/79/2 28/83/2 26/77/2 25/73/2
f 32/94/3 27/80/3 25/74/3 30/88/3
f 31/92/4 32/95/4 30/89/4 29/86/4
f 30/90/5 25/75/5 26/78/5 29/87/5
f 31/93/6 28/84/6 27/81/6 32/96/6
f 36/106/7 39/115/7 37/109/7 34/100/7
f 35/103/2 36/107/2 34/101/2 33/97/2
f 40/118/8 35/104/8 33/98/8 38/112/8
f 39/116/4 40/119/4 38/113/4 37/110/4
f 38/114/9 33/99/9 34/102/9 37/111/9
f 39/117/10 36/108/10 35/105/10 40/120/10
f 44/130/1 47/139/1 45/133/1 42/124/1
f 43/127/11 44/131/11 42/125/11 41/121/11
f 48/142/3 43/128/3 41/122/3 46/136/3
f 47/140/12 48/143/12 46/137/12 45/134/12
f 46/138/13 41/123/13 42/126/13 45/135/13
f 47/141/14 44/132/14 43/129/14 48/144/14
f 52/154/1 55/163/1 53/157/1 50/148/1
f 51/151/11 52/155/11 50/149/11 49/145/11
f 56/166/3 51/152/3 49/146/3 54/160/3
f 55/164/12 56/167/12 54/161/12 53/158/12
f 54/162/13 49/147/13 50/150/13 53/159/13
f 55/165/14 52/156/14 51/153/14 56/168/14
f 60/178/1 63/187/1 61/181/1 58/172/1
f 59/175/14 60/179/14 58/173/14 57/169/14
f 64/190/3 59/176/3 57/170/3 62/184/3
f 63/188/13 64/191/13 62/185/13 61/182/13
f 62/186/11 57/171/11 58/174/11 61/183/11
f 63/189/12 60/180/12 59/177/12 64/192/12
f 68/202/1 71/211/1 69/205/1 66/196/1
f 67/199/2 68/203/2 66/197/2 65/193/2
f 72/214/3 67/200/3 65/194/3 70/208/3
f 71/212/4 72/215/4 70/209/4 69/206/4
f 70/210/5 65/195/5 66/198/5 69/207/5
f 71/213/6 68/204/6 67/201/6 72/216/6
f 76/226/1 79/235/1 77/229/1 74/220/1
f 75/223/14 76/227/14 74/221/14 73/217/14
f 80/238/3 75/224/3 73/218/3 78/232/3
f 79/236/13 80/239/13 78/233/13 77/230/13
f 78/234/11 73/219/11 74/222/11 77/231/11
f 79/237/12 76/228/12 75/225/12 80/240/12
f 84/250/1 87/259/1 85/253/1 82/244/1
f 83/247/2 84/251/2 82/245/2 81/241/2
f 88/262/3 83/248/3 81/242/3 86/256/3
f 87/260/4 88/263/4 86/257/4 85/254/4
f 86/258/5 81/243/5 82/246/5 85/255/5
f 87/261/6 84/252/6 83/249/6 88/264/6
f 92/268/6 89/265/6 90/266/6 91/267/6
f 95/271/4 96/272/4 94/270/4 93/269/4
f 99/275/2 100/276/2 98/274/2 97/273/2
f 104/280/1 102/278/1 101/277/1 103/279/1
f 106/282/3 108/284/3 107/283/3 105/281/3
f 111/287/5 110/286/5 109/285/5 112/288/5
o turret
v 0.087486 0.260375 -0.399324
v 0.087486 0.260375 -0.435574
v 0.057486 0.260375 -0.399324
v 0.057486 0.260375 -0.435574
v 0.087486 0.384125 -0.435574
v 0.087486 0.384125 -0.399324
v 0.057486 0.384125 -0.435574
v 0.057486 0.384125 -0.399324
v 0.362390 0.832925 0.030212
v 0.362390 0.832925 -0.115450
v 0.362390 0.492336 0.030212
v 0.362390 0.492336 -0.115450
v 0.284013 0.832925 -0.115450
v 0.284013 0.832925 0.030212
v 0.284013 0.492336 -0.115450
v 0.284013 0.492336 0.030212
v 0.362731 0.358192 0.259106
v 0.362731 0.612542 0.004756
v 0.362731 0.237473 0.138388
v 0.362731 0.491823 -0.115962
v 0.283501 0.612542 0.004756
v 0.283501 0.358192 0.259106
v 0.283501 0.491823 -0.115962
v 0.283501 0.237473 0.138388
v 0.362390 0.407853 0.497755
v 0.362390 0.407853 0.138900
v 0.362390 0.237985 0.497755
v 0.362390 0.237986 0.138900
v 0.284013 0.407853 0.138900
v 0.284013 0.407853 0.497755
v 0.284013 0.237986 0.138900
v 0.284013 0.237985 0.497755
v 0.362731 0.612542 0.631899
v 0.362731 0.358192 0.377548
v 0.362731 0.491823 0.752617
v 0.362731 0.237473 0.498267
v 0.283501 0.358192 0.377548
v 0.283501 0.612542 0.631899
v 0.283501 0.237473 0.498267
v 0.283501 0.491823 0.752617
v 0.362390 0.832925 0.752105
v 0.362390 0.832925 0.512693
v 0.362390 0.492336 0.752105
v 0.362390 0.492336 0.512693
v 0.284013 0.832925 0.512693
v 0.284013 0.832925 0.752105
v 0.284013 0.492336 0.512693
v 0.284013 0.492336 0.752105
v 0.362731 0.833437 0.752617
v 0.362731 1.087787 0.498267
v 0.362731 0.712719 0.631899
v 0.362731 0.967069 0.377548
v 0.283501 1.087787 0.498267
v 0.283501 0.833437 0.752617
v 0.283501 0.967069 0.377548
v 0.283501 0.712719 0.631899
v 0.362390 1.087275 0.497755
v 0.362390 1.087275 0.138900
v 0.362390 0.917407 0.497755
v 0.362390 0.917407 0.138900
v 0.284013 1.087275 0.138900
v 0.284013 1.087275 0.497755
v 0.284013 0.917407 0.138900
v 0.284013 0.917407 0.497755
v 0.349890 0.853227 0.612932
v 0.349890 1.092695 -0.146564
v 0.349890 -0.053870 0.326925
v 0.349890 0.185598 -0.432571
v 0.277763 1.092695 -0.146564
v 0.277763 0.853227 0.612932
v 0.277763 0.185598 -0.432571
v 0.277763 -0.053870 0.326925
v -0.275110 0.853227 0.612932
v -0.275110 1.092695 -0.146564
v -0.275110 -0.053870 0.326925
v -0.275110 0.185598 -0.432571
v -0.347237 1.092695 -0.146564
v -0.347237 0.853227 0.612932
v -0.347237 0.185598 -0.432571
v -0.347237 -0.053870 0.326925
v -0.384120 0.017487 -0.087688
v -0.008124 0.017487 -0.463683
v -0.606767 0.017487 -0.310335
v -0.230771 0.017487 -0.686331
v -0.008124 0.197382 -0.463683
v -0.384120 0.197382 -0.087688
v -0.230771 0.197382 -0.686331
v -0.606767 0.197382 -0.310335
v 0.650724 0.018617 0.220277
v 0.650724 0.018617 -0.308953
v -0.605385 0.018617 0.220277
v -0.605385 0.018617 -0.308953
v 0.650724 0.196000 -0.308953
v 0.650724 0.196000 0.220277
v -0.605385 0.196000 -0.308953
v -0.605385 0.196000 0.220277
v -0.008124 0.017487 0.375008
v -0.384120 0.017487 -0.000988
v -0.230771 0.017487 0.597655
v -0.606767 0.017487 0.221659
v -0.384120 0.197382 -0.000988
v -0.008124 0.197382 0.375008
v -0.606767 0.197382 0.221660
v -0.230771 0.197382 0.597655
v 0.273466 0.017992 0.596898
v 0.273466 0.017992 -0.689624
v -0.230014 0.017992 0.596898
v -0.230014 0.017992 -0.689624
v 0.273466 0.196625 -0.689623
v 0.273466 0.196625 0.596898
v -0.230014 0.196625 -0.689623
v -0.230014 0.196625 0.596898
v 0.274223 0.017487 0.597655
v 0.650219 0.017487 0.221659
v 0.042737 0.017487 0.366169
v 0.418733 0.017487 -0.009827
v 0.650219 0.197382 0.221659
v 0.274223 0.197382 0.597655
v 0.418733 0.197382 -0.009827
v 0.042737 0.197382 0.366169
v 0.276513 0.931025 -0.052245
v 0.276513 0.931025 -0.173600
v 0.276513 0.167407 -0.052245
v 0.276513 0.167407 -0.173600
v -0.284737 0.931025 -0.173600
v -0.284737 0.931025 -0.052245
v -0.284737 0.167407 -0.173600
v -0.284737 0.167407 -0.052245
v 0.276513 0.931025 -0.174850
v 0.276513 0.931025 -0.298600
v 0.276513 0.729907 -0.174850
v 0.276513 0.729907 -0.298600
v -0.284737 0.931025 -0.298600
v -0.284737 0.931025 -0.174850
v -0.284737 0.729907 -0.298600
v -0.284737 0.729907 -0.174850
v 0.276513 1.041780 -0.029264
v 0.276513 1.125385 -0.120502
v 0.276513 0.847421 -0.207362
v 0.276513 0.931025 -0.298600
v -0.284737 1.125385 -0.120502
v -0.284737 1.041780 -0.029264
v -0.284737 0.931025 -0.298600
v -0.284737 0.847421 -0.207362
v 0.085966 0.197875 -0.361552
v 0.085966 0.197875 -0.498074
v -0.042514 0.197875 -0.361552
v -0.042514 0.197875 -0.498074
v 0.085966 0.259125 -0.498074
v 0.085966 0.259125 -0.361552
v -0.042514 0.259125 -0.498074
v -0.042514 0.259125 -0.361552
v 0.089013 1.182737 -0.550033
v 0.089013 1.095232 -0.637537
v 0.089013 0.863748 -0.231044
v 0.089013 0.776244 -0.318549
v -0.090987 1.095232 -0.637537
v -0.090987 1.182737 -0.550033
v -0.090987 0.776244 -0.318549
v -0.090987 0.863748 -0.231044
v 0.089013 1.404590 -0.208113
v 0.089013 1.162750 -0.672684
v 0.089013 1.337073 -0.172965
v 0.089013 1.095232 -0.637537
v -0.090987 1.162750 -0.672684
v -0.090987 1.404590 -0.208113
v -0.090987 1.095232 -0.637537
v -0.090987 1.337073 -0.172965
v 0.650219 0.017487 -0.310335
v 0.274223 0.017487 -0.686331
v 0.383377 0.017487 -0.043493
v 0.007381 0.017487 -0.419489
v 0.274223 0.197382 -0.686331
v 0.650219 0.197382 -0.310335
v 0.007381 0.197382 -0.419489
v 0.383377 0.197382 -0.043493
v -0.284013 0.832925 0.030212
v -0.284013 0.832925 -0.115450
v -0.284013 0.492336 0.030212
v -0.284013 0.492336 -0.115450
v -0.362390 0.832925 -0.115450
v -0.362390 0.832925 0.030212
v -0.362390 0.492336 -0.115450
v -0.362390 0.492336 0.030212
v -0.283501 0.358192 0.259106
v -0.283501 0.612542 0.004756
v -0.283501 0.237473 0.138388
v -0.283501 0.491823 -0.115962
v -0.362731 0.612542 0.004756
v -0.362731 0.358192 0.259106
v -0.362731 0.491823 -0.115962
v -0.362731 0.237473 0.138388
v -0.284013 0.407853 0.497755
v -0.284013 0.407853 0.138900
v -0.284013 0.237985 0.497755
v -0.284013 0.237986 0.138900
v -0.362390 0.407853 0.138900
v -0.362390 0.407853 0.497755
v -0.362390 0.237986 0.138900
v -0.362390 0.237985 0.497755
v -0.283501 0.612542 0.631899
v -0.283501 0.358192 0.377548
v -0.283501 0.491823 0.752617
v -0.283501 0.237473 0.498267
v -0.362731 0.358192 0.377548
v -0.362731 0.612542 0.631899
v -0.362731 0.237473 0.498267
v -0.362731 0.491823 0.752617
v -0.284013 0.832925 0.752105
v -0.284013 0.832925 0.512693
v -0.284013 0.492336 0.752105
v -0.284013 0.492336 0.512693
v -0.362390 0.832925 0.512693
v -0.362390 0.832925 0.752105
v -0.362390 0.492336 0.512693
v -0.362390 0.492336 0.752105
v -0.283501 0.833437 0.752617
v -0.283501 1.087787 0.498267
v -0.283501 0.712719 0.631899
v -0.283501 0.967069 0.377548
v -0.362731 1.087787 0.498267
v -0.362731 0.833437 0.752617
v -0.362731 0.967069 0.377548
v -0.362731 0.712719 0.631899
v -0.284013 1.087275 0.497755
v -0.284013 1.087275 0.138900
v -0.284013 0.954907 0.497755
v -0.284013 0.954907 0.138900
v -0.362390 1.087275 0.138900
v -0.362390 1.087275 0.497755
v -0.362390 0.954907 0.138900
v -0.362390 0.954907 0.497755
v -0.283501 1.087787 0.138388
v -0.283501 0.833437 -0.115962
v -0.283501 0.967069 0.259107
v -0.283501 0.712719 0.004756
v -0.362731 0.833437 -0.115962
v -0.362731 1.087787 0.138388
v -0.362731 0.712719 0.004756
v -0.362731 0.967069 0.259107
v 0.412390 0.941473 -0.156861
v 0.412390 0.827452 -0.270882
v 0.412390 0.827452 -0.042840
v 0.412390 0.713431 -0.156861
v 0.351140 0.827452 -0.270882
v 0.351140 0.941473 -0.156861
v 0.351140 0.713431 -0.156861
v 0.351140 0.827452 -0.042840
v 0.499890 0.841157 -0.243600
v 0.499890 0.841157 -0.292350
v 0.499890 0.792407 -0.243600
v 0.499890 0.792407 -0.292350
v 0.351140 0.841157 -0.292350
v 0.351140 0.841157 -0.243600
v 0.351140 0.792407 -0.292350
v 0.351140 0.792407 -0.243600
v 0.215614 0.372875 -0.429697
v 0.063362 0.372875 -0.557451
v 0.087860 0.372875 -0.277446
v -0.064392 0.372875 -0.405200
v 0.063362 0.396625 -0.557451
v 0.215614 0.396625 -0.429697
v -0.064392 0.396625 -0.405200
v 0.087860 0.396625 -0.277446
v 0.362731 1.087787 0.138388
v 0.362731 0.833437 -0.115962
v 0.362731 0.967069 0.259107
v 0.362731 0.712719 0.004756
v 0.283501 0.833437 -0.115962
v 0.283501 1.087787 0.138388
v 0.283501 0.712719 0.004756
v 0.283501 0.967069 0.259107
v -0.396875 0.310042 -0.412500
v -0.396875 0.310042 -0.812500
v -0.396875 0.228792 -0.412500
v -0.396875 0.228792 -0.812500
v -0.796875 0.310042 -0.812500
v -0.796875 0.310042 -0.412500
v -0.796875 0.228792 -0.812500
v -0.796875 0.228792 -0.412500
v -0.397500 0.672465 -0.971632
v -0.397500 0.639555 -1.023290
v -0.397500 0.304535 -0.737235
v -0.397500 0.271626 -0.788893
v -0.796250 0.639555 -1.023290
v -0.796250 0.672465 -0.971632
v -0.796250 0.271626 -0.788893
v -0.796250 0.304535 -0.737235
v 0.796250 0.672465 -0.971632
v 0.796250 0.639555 -1.023290
v 0.796250 0.304535 -0.737235
v 0.796250 0.271626 -0.788893
v 0.397500 0.639555 -1.023290
v 0.397500 0.672465 -0.971632
v 0.397500 0.271626 -0.788893
v 0.397500 0.304535 -0.737235
v 0.796875 0.310042 -0.412500
v 0.796875 0.310042 -0.812500
v 0.796875 0.228792 -0.412500
v 0.796875 0.228792 -0.812500
v 0.396875 0.310042 -0.812500
v 0.396875 0.310042 -0.412500
v 0.396875 0.228792 -0.812500
v 0.396875 0.228792 -0.412500
v -0.871875 0.511504 0.064624
v -0.871875 0.451136 -0.393919
v -0.871875 0.461932 0.071150
v -0.871875 0.401564 -0.387393
v -1.065625 0.451136 -0.393919
v -1.065625 0.511504 0.064624
v -1.065625 0.401564 -0.387393
v -1.065625 0.461932 0.071150
v -0.869440 0.469454 0.299227
v -0.869440 0.469454 -0.225773
v -0.546349 0.138518 0.299227
v -0.546349 0.138518 -0.225773
v -0.914161 0.425793 -0.225773
v -0.914161 0.425793 0.299227
v -0.591070 0.094857 -0.225773
v -0.591070 0.094857 0.299227
v -0.871875 0.411401 0.516161
v -0.871875 0.511504 0.064624
v -0.871875 0.362586 0.505339
v -0.871875 0.462690 0.053802
v -1.065625 0.511504 0.064624
v -1.065625 0.411401 0.516161
v -1.065625 0.462690 0.053802
v -1.065625 0.362586 0.505339
v 0.634375 0.471311 0.588367
v 0.634375 0.196667 0.426589
v 0.634375 0.455451 0.615292
v 0.634375 0.180806 0.453515
v -0.628125 0.196667 0.426589
v -0.628125 0.471311 0.588367
v -0.628125 0.180806 0.453515
v -0.628125 0.455451 0.615292
v 1.065625 0.511504 0.064624
v 1.065625 0.451136 -0.393919
v 1.065625 0.461932 0.071150
v 1.065625 0.401564 -0.387393
v 0.871875 0.451136 -0.393919
v 0.871875 0.511504 0.064624
v 0.871875 0.401564 -0.387393
v 0.871875 0.461932 0.071150
v 0.914161 0.425793 0.299227
v 0.914161 0.425793 -0.225773
v 0.591070 0.094857 0.299227
v 0.591070 0.094857 -0.225773
v 0.869440 0.469454 -0.225773
v 0.869440 0.469454 0.299227
v 0.546349 0.138518 -0.225773
v 0.546349 0.138518 0.299227
v 1.065625 0.411401 0.516161
v 1.065625 0.511504 0.064624
v 1.065625 0.362586 0.505339
v 1.065625 0.462690 0.053802
v 0.871875 0.511504 0.064624
v 0.871875 0.411401 0.516161
v 0.871875 0.462690 0.053802
v 0.871875 0.362586 0.505339
v 0.301256 0.037313 -0.852129
v 0.301257 0.037313 -0.414629
v 0.863756 0.037313 -0.414629
v 0.863756 0.037313 -0.852129
v 0.332507 0.177324 -0.780327
v 0.332507 0.423526 -0.736915
v 0.332506 0.047087 -0.041721
v 0.332506 0.293289 0.001691
v 0.582507 0.177324 -0.780327
v 0.582506 0.047087 -0.041721
v 0.582507 0.177324 -0.780327
v 0.582506 0.047087 -0.041721
v 0.832507 0.177324 -0.780327
v 0.832506 0.047087 -0.041721
v -0.796249 0.645034 -1.026933
v -0.796249 0.275628 -0.794873
v -0.397501 0.645034 -1.026933
v -0.397501 0.275628 -0.794873
v 0.399424 0.645034 -1.026933
v 0.399424 0.275628 -0.794873
v 0.798172 0.645034 -1.026933
v 0.798172 0.275628 -0.794873
v -0.796249 0.649069 -1.006810
v -0.796249 0.262111 -0.805372
v -0.397501 0.649069 -1.006810
v -0.397501 0.262111 -0.805372
v 0.402796 0.649069 -1.006810
v 0.402796 0.262111 -0.805372
v 0.801544 0.649069 -1.006810
v 0.801544 0.262111 -0.805372
vn -0.0000 -0.0000 -1.0000
vn -0.0000 -1.0000 -0.0000
vn -0.0000 -0.0000 1.0000
vn -0.0000 1.0000 -0.0000
vn 1.0000 -0.0000 -0.0000
vn -1.0000 -0.0000 -0.0000
vn -0.0000 0.7071 -0.7071
vn -0.0000 -0.7071 0.7071
vn -0.0000 0.7071 0.7071
vn -0.0000 -0.7071 -0.7071
vn -0.0000 0.3007 -0.9537
vn -0.0000 -0.3007 0.9537
vn -0.0000 0.9537 0.3007
vn -0.0000 -0.9537 -0.3007
vn 0.7071 -0.0000 -0.7071
vn -0.7071 -0.0000 0.7071
vn 0.7071 -0.0000 0.7071
vn -0.7071 -0.0000 -0.7071
vn -0.0000 0.6756 -0.7373
vn -0.0000 -0.6756 0.7373
vn -0.0000 0.7373 0.6756
vn -0.0000 -0.7373 -0.6756
vn -0.0000 -0.4617 -0.8870
vn -0.0000 0.4617 0.8870
vn -0.0000 0.8870 -0.4617
vn -0.0000 -0.8870 0.4617
vn -0.7660 -0.0000 -0.6428
vn 0.7660 -0.0000 0.6428
vn 0.6428 -0.0000 -0.7660
vn -0.6428 -0.0000 0.7660
vn -0.0000 -0.5373 -0.8434
vn -0.0000 0.5373 0.8434
vn -0.0000 0.8434 -0.5373
vn -0.0000 -0.8434 0.5373
vn -0.0000 -0.1305 -0.9914
vn -0.0000 0.1305 0.9914
vn -0.0000 0.9914 -0.1305
vn -0.0000 -0.9914 0.1305
vn 0.7155 0.6986 -0.0000
vn -0.7155 -0.6986 -0.0000
vn -0.6986 0.7155 -0.0000
vn 0.6986 -0.7155 -0.0000
vn -0.0000 0.2164 -0.9763
vn -0.0000 -0.2164 0.9763
vn -0.0000 0.9763 0.2164
vn -0.0000 -0.9763 -0.2164
vn -0.0000 -0.8616 -0.5075
vn -0.0000 0.8616 0.5075
vn -0.0000 0.5075 -0.8616
vn -0.0000 -0.5075 0.8616
vn 0.7155 -0.6986 -0.0000
vn -0.7155 0.6986 -0.0000
vn 0.6986 0.7155 -0.0000
vn -0.6986 -0.7155 -0.0000
vn -0.0000 -0.9848 -0.1736
vn -0.0000 -0.5319 -0.8468
vt 0.430225 0.639542
vt 0.437976 0.806205
vt 0.430225 0.802329
vt 0.430225 0.829461
vt 0.434100 0.639542
vt 0.430225 0.798453
vt 0.430225 0.635666
vt 0.437976 0.802329
vt 0.430225 0.798453
vt 0.430225 0.825585
vt 0.434100 0.635666
vt 0.430225 0.794577
vt 0.437976 0.829461
vt 0.430225 0.635666
vt 0.437976 0.798453
vt 0.430225 0.806205
vt 0.434100 0.635666
vt 0.437976 0.802329
vt 0.437976 0.825585
vt 0.430225 0.631790
vt 0.437976 0.794577
vt 0.430225 0.802329
vt 0.434100 0.631790
vt 0.437976 0.798453
vt 0.155036 0.643417
vt 0.182167 0.577527
vt 0.325575 0.844964
vt 0.174415 0.577527
vt 0.162788 0.643417
vt 0.325575 0.837212
vt 0.155036 0.624038
vt 0.182167 0.558148
vt 0.360458 0.852716
vt 0.174415 0.558148
vt 0.162788 0.624038
vt 0.360458 0.844964
vt 0.178291 0.577527
vt 0.267437 0.643417
vt 0.329451 0.837212
vt 0.178291 0.577527
vt 0.275189 0.643417
vt 0.329451 0.844964
vt 0.178291 0.558148
vt 0.267437 0.624038
vt 0.364334 0.844964
vt 0.178291 0.558148
vt 0.275189 0.624038
vt 0.364334 0.852716
vt 0.375962 0.697680
vt 0.430225 0.732563
vt 0.244181 0.581403
vt 0.267437 0.573651
vt 0.399217 0.697680
vt 0.244181 0.558148
vt 0.375962 0.686052
vt 0.430225 0.720935
vt 0.015504 0.577527
vt 0.267437 0.562024
vt 0.399217 0.686052
vt 0.015504 0.554272
vt 0.271313 0.573651
vt 0.313948 0.624038
vt 0.248057 0.558148
vt 0.426349 0.732563
vt 0.337203 0.624038
vt 0.248057 0.581403
vt 0.271313 0.562024
vt 0.313948 0.612410
vt 0.019379 0.554272
vt 0.426349 0.720935
vt 0.337203 0.612410
vt 0.019379 0.577527
vt 0.375962 0.686052
vt 0.279065 0.573651
vt 0.019379 0.577527
vt 0.271313 0.573651
vt 0.399217 0.686052
vt 0.019379 0.554272
vt 0.375962 0.674425
vt 0.279065 0.562024
vt 0.023255 0.577527
vt 0.271313 0.562024
vt 0.399217 0.674425
vt 0.023255 0.554272
vt 0.275189 0.573651
vt 0.375962 0.674425
vt 0.023255 0.554272
vt 0.275189 0.573651
vt 0.399217 0.674425
vt 0.023255 0.577527
vt 0.275189 0.562024
vt 0.375962 0.662797
vt 0.027131 0.554272
vt 0.275189 0.562024
vt 0.399217 0.662797
vt 0.027131 0.577527
vt 0.337203 0.624038
vt 0.286816 0.573651
vt 0.027131 0.577527
vt 0.279065 0.573651
vt 0.360458 0.624038
vt 0.027131 0.554272
vt 0.337203 0.612410
vt 0.286816 0.562024
vt 0.031007 0.577527
vt 0.279065 0.562024
vt 0.360458 0.612410
vt 0.031007 0.554272
vt 0.282941 0.573651
vt 0.375962 0.662797
vt 0.031007 0.554272
vt 0.282941 0.573651
vt 0.399217 0.662797
vt 0.031007 0.577527
vt 0.282941 0.562024
vt 0.375962 0.651169
vt 0.034883 0.554272
vt 0.282941 0.562024
vt 0.399217 0.651169
vt 0.034883 0.577527
vt 0.341079 1.000000
vt 0.224802 0.577527
vt 0.162788 0.686052
vt 0.217050 0.577527
vt 0.356582 1.000000
vt 0.162788 0.670549
vt 0.341079 0.980621
vt 0.224802 0.558148
vt 0.333327 0.930234
vt 0.217050 0.558148
vt 0.356582 0.980621
vt 0.333327 0.914730
vt 0.220926 0.577527
vt 0.352707 0.717059
vt 0.166664 0.670549
vt 0.220926 0.577527
vt 0.368210 0.717059
vt 0.166664 0.686052
vt 0.220926 0.558148
vt 0.352707 0.697680
vt 0.337203 0.914730
vt 0.220926 0.558148
vt 0.368210 0.697680
vt 0.337203 0.930234
vt 0.375962 0.651169
vt 0.306196 0.573651
vt 0.034883 0.577527
vt 0.298444 0.573651
vt 0.399217 0.651169
vt 0.034883 0.554272
vt 0.375962 0.639542
vt 0.306196 0.562024
vt 0.065890 0.577527
vt 0.298444 0.562024
vt 0.399217 0.639542
vt 0.065890 0.554272
vt 0.302320 0.573651
vt 0.375962 0.639542
vt 0.038759 0.554272
vt 0.302320 0.573651
vt 0.399217 0.639542
vt 0.038759 0.577527
vt 0.302320 0.562024
vt 0.375962 0.627914
vt 0.069766 0.554272
vt 0.302320 0.562024
vt 0.399217 0.627914
vt 0.069766 0.577527
vt 0.375962 0.627914
vt 0.313948 0.573651
vt 0.069766 0.577527
vt 0.306196 0.573651
vt 0.399217 0.627914
vt 0.069766 0.554272
vt 0.375962 0.616286
vt 0.313948 0.562024
vt 0.073642 0.577527
vt 0.306196 0.562024
vt 0.399217 0.616286
vt 0.073642 0.554272
vt 0.310072 0.573651
vt 0.096897 0.620162
vt 0.073642 0.554272
vt 0.310072 0.573651
vt 0.120153 0.620162
vt 0.073642 0.577527
vt 0.310072 0.562024
vt 0.096897 0.608534
vt 0.077518 0.554272
vt 0.310072 0.562024
vt 0.120153 0.608534
vt 0.077518 0.577527
vt 0.077518 1.000000
vt 0.062014 0.616286
vt 0.255809 0.686052
vt 0.151160 0.620162
vt 0.127905 1.000000
vt 0.255809 0.635666
vt 0.077518 0.941862
vt 0.062014 0.558148
vt 0.255809 0.612410
vt 0.151160 0.562024
vt 0.127905 0.941862
vt 0.255809 0.562024
vt 0.155036 0.620162
vt 0.077518 0.941862
vt 0.259685 0.635666
vt 0.058138 0.616286
vt 0.127905 0.941862
vt 0.259685 0.686052
vt 0.155036 0.562024
vt 0.077518 0.883723
vt 0.259685 0.562024
vt 0.058138 0.558148
vt 0.127905 0.883723
vt 0.259685 0.612410
vt 0.077518 0.883723
vt 0.015504 0.612410
vt 0.112401 0.608534
vt 0.062014 0.616286
vt 0.127905 0.883723
vt 0.112401 0.558148
vt 0.077518 0.825585
vt 0.015504 0.554272
vt 0.116277 0.608534
vt 0.062014 0.558148
vt 0.127905 0.825585
vt 0.116277 0.558148
vt 0.065890 0.616286
vt 0.127905 1.000000
vt 0.116277 0.558148
vt 0.011628 0.612410
vt 0.178291 1.000000
vt 0.116277 0.608534
vt 0.065890 0.558148
vt 0.127905 0.941862
vt 0.120153 0.558148
vt 0.011628 0.554272
vt 0.178291 0.941862
vt 0.120153 0.608534
vt 0.034883 0.728687
vt 0.205423 0.620162
vt 0.108525 0.825585
vt 0.139532 0.620162
vt 0.069766 0.728687
vt 0.108525 0.790702
vt 0.034883 0.709308
vt 0.205423 0.600783
vt 0.151160 0.786826
vt 0.139532 0.600783
vt 0.069766 0.709308
vt 0.151160 0.751943
vt 0.151160 0.620162
vt 0.275189 0.740315
vt 0.120153 0.790702
vt 0.193795 0.620162
vt 0.310072 0.740315
vt 0.120153 0.825585
vt 0.151160 0.600783
vt 0.275189 0.720935
vt 0.162788 0.751943
vt 0.193795 0.600783
vt 0.310072 0.720935
vt 0.162788 0.786826
vt 0.127905 0.941862
vt 0.213174 0.751943
vt 0.282941 0.678300
vt 0.189919 0.751943
vt 0.162788 0.941862
vt 0.282941 0.643417
vt 0.127905 0.864344
vt 0.213174 0.674425
vt 0.321700 0.717059
vt 0.189919 0.674425
vt 0.162788 0.864344
vt 0.321700 0.682176
vt 0.201547 0.751943
vt 0.127905 0.864344
vt 0.294568 0.643417
vt 0.201547 0.751943
vt 0.162788 0.864344
vt 0.294568 0.678300
vt 0.201547 0.674425
vt 0.127905 0.786826
vt 0.333327 0.682176
vt 0.201547 0.674425
vt 0.162788 0.786826
vt 0.333327 0.717059
vt 0.279065 0.794577
vt 0.399217 0.786826
vt 0.294568 0.678300
vt 0.387590 0.806205
vt 0.313948 0.794577
vt 0.294568 0.643417
vt 0.279065 0.775198
vt 0.399217 0.767446
vt 0.306196 0.678300
vt 0.387590 0.786826
vt 0.313948 0.775198
vt 0.306196 0.643417
vt 0.399217 0.806205
vt 0.279065 0.775198
vt 0.306196 0.643417
vt 0.387590 0.786826
vt 0.313948 0.775198
vt 0.306196 0.678300
vt 0.399217 0.786826
vt 0.279065 0.755818
vt 0.317823 0.643417
vt 0.387590 0.767446
vt 0.313948 0.755818
vt 0.317823 0.678300
vt 0.162788 0.941862
vt 0.011628 0.658921
vt 0.166664 0.751943
vt 0.201547 0.674425
vt 0.244181 0.941862
vt 0.166664 0.670549
vt 0.162788 0.910854
vt 0.011628 0.627914
vt 0.178291 0.751943
vt 0.201547 0.643417
vt 0.244181 0.910854
vt 0.178291 0.670549
vt 0.213174 0.674425
vt 0.162788 0.910854
vt 0.178291 0.670549
vt 0.000000 0.658921
vt 0.244181 0.910854
vt 0.178291 0.751943
vt 0.213174 0.643417
vt 0.162788 0.879847
vt 0.189919 0.670549
vt 0.000000 0.627914
vt 0.244181 0.879847
vt 0.189919 0.751943
vt 0.275189 0.720935
vt 0.244181 0.612410
vt 0.317823 0.678300
vt 0.220926 0.612410
vt 0.310072 0.720935
vt 0.317823 0.643417
vt 0.275189 0.701556
vt 0.244181 0.593031
vt 0.325575 0.891475
vt 0.220926 0.593031
vt 0.310072 0.701556
vt 0.325575 0.856592
vt 0.232554 0.612410
vt 0.282941 1.000000
vt 0.329451 0.643417
vt 0.232554 0.612410
vt 0.317823 1.000000
vt 0.329451 0.678300
vt 0.232554 0.593031
vt 0.282941 0.980621
vt 0.337203 0.856592
vt 0.232554 0.593031
vt 0.317823 0.980621
vt 0.337203 0.891475
vt 0.182167 0.670549
vt 0.069766 0.775198
vt 0.379838 0.740315
vt 0.000000 0.775198
vt 0.189919 0.670549
vt 0.379838 0.732563
vt 0.182167 0.624038
vt 0.069766 0.728687
vt 0.383714 0.961241
vt 0.000000 0.728687
vt 0.189919 0.624038
vt 0.383714 0.953489
vt 0.034883 0.775198
vt 0.011628 0.658921
vt 0.414721 0.732563
vt 0.034883 0.775198
vt 0.019379 0.658921
vt 0.414721 0.740315
vt 0.034883 0.728687
vt 0.011628 0.612410
vt 0.418597 0.953489
vt 0.034883 0.728687
vt 0.019379 0.612410
vt 0.418597 0.961241
vt 0.120153 0.798453
vt 0.364334 0.844964
vt 0.383714 0.918606
vt 0.325575 0.856592
vt 0.127905 0.798453
vt 0.383714 0.910854
vt 0.120153 0.786826
vt 0.364334 0.833336
vt 0.387590 0.988372
vt 0.325575 0.844964
vt 0.127905 0.786826
vt 0.387590 0.980621
vt 0.360458 0.856592
vt 0.236430 0.724811
vt 0.418597 0.910854
vt 0.329451 0.844964
vt 0.244181 0.724811
vt 0.418597 0.918606
vt 0.360458 0.844964
vt 0.236430 0.713184
vt 0.422473 0.980621
vt 0.329451 0.833336
vt 0.244181 0.713184
vt 0.422473 0.988372
vt 0.069766 0.775198
vt 0.337203 0.914730
vt 0.387590 0.899227
vt 0.298444 0.930234
vt 0.077518 0.775198
vt 0.387590 0.891475
vt 0.069766 0.759694
vt 0.337203 0.899227
vt 0.387590 0.891475
vt 0.298444 0.914730
vt 0.077518 0.759694
vt 0.387590 0.883723
vt 0.333327 0.930234
vt 0.205423 0.643417
vt 0.422473 0.891475
vt 0.302320 0.914730
vt 0.213174 0.643417
vt 0.422473 0.899227
vt 0.333327 0.914730
vt 0.205423 0.627914
vt 0.422473 0.883723
vt 0.302320 0.899227
vt 0.213174 0.627914
vt 0.422473 0.891475
vt 0.395341 0.577527
vt 0.434100 0.794577
vt 0.209298 0.569775
vt 0.205423 0.569775
vt 0.403093 0.577527
vt 0.209298 0.562024
vt 0.395341 0.569775
vt 0.434100 0.786826
vt 0.248057 0.569775
vt 0.205423 0.562024
vt 0.403093 0.569775
vt 0.248057 0.562024
vt 0.209298 0.569775
vt 0.403093 0.577527
vt 0.213174 0.562024
vt 0.430225 0.794577
vt 0.410845 0.577527
vt 0.213174 0.569775
vt 0.209298 0.562024
vt 0.403093 0.569775
vt 0.251933 0.562024
vt 0.430225 0.786826
vt 0.410845 0.569775
vt 0.251933 0.569775
vt 0.120153 0.825585
vt 0.368210 0.930234
vt 0.356582 0.755818
vt 0.054263 0.643417
vt 0.127905 0.825585
vt 0.356582 0.748067
vt 0.120153 0.798453
vt 0.368210 0.903103
vt 0.422473 0.988372
vt 0.054263 0.616286
vt 0.127905 0.798453
vt 0.422473 0.980621
vt 0.065890 0.643417
vt 0.174415 0.651169
vt 0.368210 0.748067
vt 0.356582 0.930234
vt 0.182167 0.651169
vt 0.368210 0.755818
vt 0.065890 0.616286
vt 0.174415 0.624038
vt 0.434100 0.980621
vt 0.356582 0.903103
vt 0.182167 0.624038
vt 0.434100 0.988372
vt 0.399217 0.751943
vt 0.437976 0.720935
vt 0.019379 0.658921
vt 0.426349 0.841088
vt 0.430225 0.751943
vt 0.019379 0.627914
vt 0.399217 0.748067
vt 0.437976 0.717059
vt 0.065890 0.658921
vt 0.426349 0.837212
vt 0.430225 0.748067
vt 0.065890 0.627914
vt 0.437976 0.841088
vt 0.406969 0.701556
vt 0.031007 0.627914
vt 0.426349 0.720935
vt 0.437976 0.701556
vt 0.031007 0.658921
vt 0.437976 0.837212
vt 0.406969 0.697680
vt 0.077518 0.627914
vt 0.426349 0.717059
vt 0.437976 0.697680
vt 0.077518 0.658921
vt 0.267437 0.914730
vt 0.131781 0.620162
vt 0.139532 0.674425
vt 0.000000 0.627914
vt 0.302320 0.914730
vt 0.139532 0.639542
vt 0.267437 0.891475
vt 0.131781 0.596907
vt 0.189919 0.674425
vt 0.000000 0.604659
vt 0.302320 0.891475
vt 0.189919 0.639542
vt 0.011628 0.627914
vt 0.267437 0.817833
vt 0.151160 0.639542
vt 0.120153 0.620162
vt 0.302320 0.817833
vt 0.151160 0.674425
vt 0.011628 0.604659
vt 0.267437 0.794577
vt 0.201547 0.639542
vt 0.120153 0.596907
vt 0.302320 0.794577
vt 0.201547 0.674425
vt 0.182167 0.589155
vt 0.232554 0.577527
vt 0.368210 0.755818
vt 0.224802 0.577527
vt 0.189919 0.589155
vt 0.368210 0.748067
vt 0.182167 0.569775
vt 0.232554 0.558148
vt 0.372086 0.879847
vt 0.224802 0.558148
vt 0.189919 0.569775
vt 0.372086 0.872095
vt 0.228678 0.577527
vt 0.205423 0.589155
vt 0.372086 0.748067
vt 0.228678 0.577527
vt 0.213174 0.589155
vt 0.372086 0.755818
vt 0.228678 0.558148
vt 0.205423 0.569775
vt 0.375962 0.872095
vt 0.228678 0.558148
vt 0.213174 0.569775
vt 0.375962 0.879847
vt 0.383714 0.930234
vt 0.352707 0.573651
vt 0.093022 0.577527
vt 0.344955 0.573651
vt 0.406969 0.930234
vt 0.093022 0.554272
vt 0.383714 0.918606
vt 0.352707 0.562024
vt 0.096897 0.577527
vt 0.344955 0.562024
vt 0.406969 0.918606
vt 0.096897 0.554272
vt 0.348831 0.573651
vt 0.383714 0.720935
vt 0.096897 0.554272
vt 0.348831 0.573651
vt 0.406969 0.720935
vt 0.096897 0.577527
vt 0.348831 0.562024
vt 0.383714 0.709308
vt 0.100773 0.554272
vt 0.348831 0.562024
vt 0.406969 0.709308
vt 0.100773 0.577527
vt 0.170539 0.620162
vt 0.344955 0.573651
vt 0.085270 0.577527
vt 0.337203 0.573651
vt 0.193795 0.620162
vt 0.085270 0.554272
vt 0.170539 0.608534
vt 0.344955 0.562024
vt 0.089146 0.577527
vt 0.337203 0.562024
vt 0.193795 0.608534
vt 0.089146 0.554272
vt 0.341079 0.573651
vt 0.034883 0.616286
vt 0.089146 0.554272
vt 0.341079 0.573651
vt 0.058138 0.616286
vt 0.089146 0.577527
vt 0.341079 0.562024
vt 0.034883 0.604659
vt 0.093022 0.554272
vt 0.341079 0.562024
vt 0.058138 0.604659
vt 0.093022 0.577527
vt 0.379838 0.860468
vt 0.337203 0.573651
vt 0.077518 0.577527
vt 0.313948 0.573651
vt 0.403093 0.860468
vt 0.077518 0.554272
vt 0.379838 0.848840
vt 0.337203 0.562024
vt 0.081394 0.577527
vt 0.313948 0.562024
vt 0.403093 0.848840
vt 0.081394 0.554272
vt 0.317823 0.573651
vt 0.379838 0.848840
vt 0.081394 0.554272
vt 0.333327 0.573651
vt 0.403093 0.848840
vt 0.081394 0.577527
vt 0.317823 0.562024
vt 0.379838 0.837212
vt 0.085270 0.554272
vt 0.333327 0.562024
vt 0.403093 0.837212
vt 0.085270 0.577527
vt 0.356582 1.000000
vt 0.240306 0.577527
vt 0.220926 0.627914
vt 0.232554 0.577527
vt 0.372086 1.000000
vt 0.220926 0.612410
vt 0.356582 0.980621
vt 0.240306 0.558148
vt 0.224802 0.627914
vt 0.232554 0.558148
vt 0.372086 0.980621
vt 0.224802 0.612410
vt 0.236430 0.577527
vt 0.356582 0.891475
vt 0.224802 0.612410
vt 0.236430 0.577527
vt 0.372086 0.891475
vt 0.224802 0.627914
vt 0.236430 0.558148
vt 0.356582 0.872095
vt 0.228678 0.612410
vt 0.236430 0.558148
vt 0.372086 0.872095
vt 0.228678 0.627914
vt 0.383714 0.616286
vt 0.186043 0.569775
vt 0.166664 0.577527
vt 0.426349 0.577527
vt 0.406969 0.616286
vt 0.166664 0.554272
vt 0.383714 0.604659
vt 0.186043 0.558148
vt 0.170539 0.577527
vt 0.426349 0.565899
vt 0.406969 0.604659
vt 0.170539 0.554272
vt 0.430225 0.577527
vt 0.387590 1.000000
vt 0.170539 0.554272
vt 0.182167 0.569775
vt 0.410845 1.000000
vt 0.170539 0.577527
vt 0.430225 0.565899
vt 0.387590 0.988372
vt 0.174415 0.554272
vt 0.182167 0.558148
vt 0.410845 0.988372
vt 0.174415 0.577527
vt 0.399217 0.732563
vt 0.189919 0.569775
vt 0.108525 0.577527
vt 0.375962 0.860468
vt 0.422473 0.732563
vt 0.108525 0.554272
vt 0.399217 0.724811
vt 0.189919 0.562024
vt 0.422473 0.879847
vt 0.375962 0.852716
vt 0.422473 0.724811
vt 0.422473 0.856592
vt 0.379838 0.860468
vt 0.399217 0.697680
vt 0.112401 0.554272
vt 0.186043 0.569775
vt 0.422473 0.697680
vt 0.112401 0.577527
vt 0.379838 0.852716
vt 0.399217 0.689928
vt 0.426349 0.856592
vt 0.186043 0.562024
vt 0.422473 0.689928
vt 0.426349 0.879847
vt 0.383714 0.709308
vt 0.430225 0.616286
vt 0.100773 0.577527
vt 0.426349 0.643417
vt 0.406969 0.709308
vt 0.100773 0.554272
vt 0.383714 0.697680
vt 0.430225 0.604659
vt 0.104649 0.577527
vt 0.426349 0.631790
vt 0.406969 0.697680
vt 0.104649 0.554272
vt 0.430225 0.643417
vt 0.360458 0.616286
vt 0.104649 0.554272
vt 0.426349 0.616286
vt 0.383714 0.616286
vt 0.104649 0.577527
vt 0.430225 0.631790
vt 0.360458 0.604659
vt 0.108525 0.554272
vt 0.426349 0.604659
vt 0.383714 0.604659
vt 0.108525 0.577527
vt 0.310072 0.717059
vt 0.220926 0.608534
vt 0.166664 0.604659
vt 0.244181 0.751943
vt 0.321700 0.717059
vt 0.166664 0.593031
vt 0.310072 0.705432
vt 0.220926 0.596907
vt 0.007752 0.573651
vt 0.244181 0.740315
vt 0.321700 0.705432
vt 0.007752 0.562024
vt 0.248057 0.751943
vt 0.236430 0.643417
vt 0.170539 0.593031
vt 0.217050 0.608534
vt 0.248057 0.643417
vt 0.170539 0.604659
vt 0.248057 0.740315
vt 0.236430 0.631790
vt 0.011628 0.562024
vt 0.217050 0.596907
vt 0.248057 0.631790
vt 0.011628 0.573651
vt 0.430225 0.724811
vt 0.034883 0.608534
vt 0.399217 0.724811
vt 0.375962 0.720935
vt 0.434100 0.724811
vt 0.399217 0.720935
vt 0.430225 0.720935
vt 0.034883 0.604659
vt 0.399217 0.620162
vt 0.375962 0.717059
vt 0.434100 0.720935
vt 0.399217 0.616286
vt 0.383714 0.720935
vt 0.430225 0.643417
vt 0.406969 0.720935
vt 0.027131 0.608534
vt 0.434100 0.643417
vt 0.406969 0.724811
vt 0.383714 0.717059
vt 0.430225 0.639542
vt 0.406969 0.616286
vt 0.027131 0.604659
vt 0.434100 0.639542
vt 0.406969 0.620162
vt 0.000000 0.585279
vt 0.158912 0.573651
vt 0.046511 0.573651
vt 0.011628 0.585279
vt 0.158912 0.562024
vt 0.000000 0.573651
vt 0.158912 0.562024
vt 0.162788 0.573651
vt 0.046511 0.562024
vt 0.011628 0.573651
vt 0.162788 0.562024
vt 0.050387 0.573651
vt 0.038759 0.585279
vt 0.162788 0.562024
vt 0.155036 0.573651
vt 0.050387 0.585279
vt 0.162788 0.573651
vt 0.050387 0.562024
vt 0.038759 0.573651
vt 0.166664 0.562024
vt 0.155036 0.562024
vt 0.050387 0.573651
vt 0.166664 0.573651
vt 0.375962 0.732563
vt 0.430225 0.794577
vt 0.201547 0.581403
vt 0.426349 0.806205
vt 0.399217 0.732563
vt 0.201547 0.558148
vt 0.375962 0.720935
vt 0.430225 0.782950
vt 0.240306 0.581403
vt 0.426349 0.794577
vt 0.399217 0.720935
vt 0.240306 0.558148
vt 0.430225 0.806205
vt 0.290692 0.624038
vt 0.205423 0.558148
vt 0.426349 0.794577
vt 0.313948 0.624038
vt 0.205423 0.581403
vt 0.430225 0.794577
vt 0.290692 0.612410
vt 0.244181 0.558148
vt 0.426349 0.782950
vt 0.313948 0.612410
vt 0.244181 0.581403
vt 0.391466 0.581403
vt 0.437976 0.581403
vt 0.275189 0.701556
vt 0.337203 0.581403
vt 0.414721 0.581403
vt 0.275189 0.678300
vt 0.391466 0.577527
vt 0.437976 0.577527
vt 0.298444 0.701556
vt 0.337203 0.577527
vt 0.414721 0.577527
vt 0.298444 0.678300
vt 0.360458 0.581403
vt 0.418597 0.585279
vt 0.298444 0.678300
vt 0.414721 0.581403
vt 0.441852 0.585279
vt 0.298444 0.701556
vt 0.360458 0.577527
vt 0.418597 0.581403
vt 0.321700 0.678300
vt 0.414721 0.577527
vt 0.441852 0.581403
vt 0.321700 0.701556
vt 0.375962 0.585279
vt 0.259685 0.713184
vt 0.290692 0.581403
vt 0.108525 0.717059
vt 0.379838 0.585279
vt 0.290692 0.577527
vt 0.375962 0.558148
vt 0.259685 0.686052
vt 0.313948 0.581403
vt 0.108525 0.689928
vt 0.379838 0.558148
vt 0.313948 0.577527
vt 0.131781 0.717059
vt 0.379838 0.585279
vt 0.313948 0.577527
vt 0.236430 0.713184
vt 0.383714 0.585279
vt 0.313948 0.581403
vt 0.131781 0.689928
vt 0.379838 0.558148
vt 0.337203 0.577527
vt 0.236430 0.686052
vt 0.383714 0.558148
vt 0.337203 0.581403
vt 0.368210 0.585279
vt 0.306196 0.980621
vt 0.217050 0.581403
vt 0.213174 0.724811
vt 0.372086 0.585279
vt 0.217050 0.577527
vt 0.368210 0.558148
vt 0.306196 0.953489
vt 0.267437 0.581403
vt 0.213174 0.697680
vt 0.372086 0.558148
vt 0.267437 0.577527
vt 0.236430 0.724811
vt 0.372086 0.585279
vt 0.240306 0.577527
vt 0.282941 0.980621
vt 0.375962 0.585279
vt 0.240306 0.581403
vt 0.236430 0.697680
vt 0.372086 0.558148
vt 0.290692 0.577527
vt 0.282941 0.953489
vt 0.375962 0.558148
vt 0.290692 0.581403
vt 0.418597 0.817833
vt 0.441852 0.813957
vt 0.042635 0.709308
vt 0.418597 0.821709
vt 0.441852 0.817833
vt 0.042635 0.686052
vt 0.418597 0.813957
vt 0.441852 0.810081
vt 0.065890 0.701556
vt 0.418597 0.817833
vt 0.441852 0.813957
vt 0.065890 0.678300
vt 0.441852 0.821709
vt 0.418597 0.810081
vt 0.065890 0.686052
vt 0.418597 0.813957
vt 0.441852 0.810081
vt 0.065890 0.709308
vt 0.441852 0.817833
vt 0.418597 0.806205
vt 0.089146 0.678300
vt 0.418597 0.810081
vt 0.441852 0.806205
vt 0.089146 0.701556
vt 0.391466 0.585279
vt 0.434100 0.589155
vt 0.348831 0.670549
vt 0.015504 0.589155
vt 0.418597 0.585279
vt 0.348831 0.643417
vt 0.391466 0.581403
vt 0.434100 0.585279
vt 0.108525 0.647293
vt 0.015504 0.585279
vt 0.418597 0.581403
vt 0.108525 0.620162
vt 0.027131 0.589155
vt 0.418597 0.980621
vt 0.360458 0.643417
vt 0.422473 0.589155
vt 0.445728 0.980621
vt 0.360458 0.670549
vt 0.027131 0.585279
vt 0.418597 0.976745
vt 0.120153 0.620162
vt 0.422473 0.585279
vt 0.445728 0.976745
vt 0.120153 0.647293
vt 0.248057 0.767446
vt 0.058138 0.581403
vt 0.189919 0.589155
vt 0.050387 0.581403
vt 0.279065 0.767446
vt 0.189919 0.558148
vt 0.248057 0.740315
vt 0.058138 0.554272
vt 0.213174 0.589155
vt 0.050387 0.554272
vt 0.279065 0.740315
vt 0.213174 0.558148
vt 0.054263 0.581403
vt 0.108525 0.744191
vt 0.193795 0.558148
vt 0.054263 0.581403
vt 0.139532 0.744191
vt 0.193795 0.589155
vt 0.054263 0.554272
vt 0.108525 0.717059
vt 0.217050 0.558148
vt 0.054263 0.554272
vt 0.139532 0.717059
vt 0.217050 0.589155
vt 0.418597 0.976745
vt 0.437976 0.864344
vt 0.120153 0.647293
vt 0.426349 0.992248
vt 0.445728 0.976745
vt 0.120153 0.620162
vt 0.418597 0.972869
vt 0.437976 0.860468
vt 0.042635 0.643417
vt 0.426349 0.988372
vt 0.445728 0.972869
vt 0.042635 0.616286
vt 0.437976 0.992248
vt 0.418597 0.972869
vt 0.131781 0.620162
vt 0.426349 0.864344
vt 0.445728 0.972869
vt 0.131781 0.647293
vt 0.437976 0.988372
vt 0.418597 0.968993
vt 0.054263 0.616286
vt 0.426349 0.860468
vt 0.445728 0.968993
vt 0.054263 0.643417
vt 0.422473 0.856592
vt 0.406969 0.833336
vt 0.193795 0.837212
vt 0.306196 0.957365
vt 0.441852 0.856592
vt 0.193795 0.817833
vt 0.422473 0.852716
vt 0.406969 0.829461
vt 0.236430 0.879847
vt 0.306196 0.953489
vt 0.441852 0.852716
vt 0.236430 0.860468
vt 0.383714 0.957365
vt 0.422473 0.767446
vt 0.271313 0.817833
vt 0.329451 0.833336
vt 0.441852 0.767446
vt 0.271313 0.837212
vt 0.383714 0.953489
vt 0.422473 0.763570
vt 0.313948 0.860468
vt 0.329451 0.829461
vt 0.441852 0.763570
vt 0.313948 0.879847
vt 0.414721 0.903103
vt 0.321700 0.705432
vt 0.077518 0.658921
vt 0.108525 0.790702
vt 0.441852 0.903103
vt 0.077518 0.631790
vt 0.414721 0.899227
vt 0.321700 0.701556
vt 0.096897 0.651169
vt 0.108525 0.786826
vt 0.441852 0.899227
vt 0.096897 0.624038
vt 0.120153 0.790702
vt 0.414721 0.631790
vt 0.089146 0.631790
vt 0.310072 0.705432
vt 0.441852 0.631790
vt 0.089146 0.658921
vt 0.120153 0.786826
vt 0.414721 0.627914
vt 0.108525 0.624038
vt 0.310072 0.701556
vt 0.441852 0.627914
vt 0.108525 0.651169
vt 0.248057 0.794577
vt 0.391466 0.585279
vt 0.031007 0.658921
vt 0.383714 0.585279
vt 0.279065 0.794577
vt 0.031007 0.627914
vt 0.248057 0.767446
vt 0.391466 0.558148
vt 0.127905 0.596907
vt 0.383714 0.558148
vt 0.279065 0.767446
vt 0.127905 0.565899
vt 0.387590 0.585279
vt 0.213174 0.751943
vt 0.034883 0.627914
vt 0.387590 0.585279
vt 0.244181 0.751943
vt 0.034883 0.658921
vt 0.387590 0.558148
vt 0.213174 0.724811
vt 0.131781 0.565899
vt 0.387590 0.558148
vt 0.244181 0.724811
vt 0.131781 0.596907
vt 0.414721 0.627914
vt 0.108525 0.624038
vt 0.162788 0.651169
vt 0.077518 0.631790
vt 0.441852 0.627914
vt 0.162788 0.624038
vt 0.414721 0.624038
vt 0.108525 0.620162
vt 0.348831 0.697680
vt 0.077518 0.627914
vt 0.441852 0.624038
vt 0.348831 0.670549
vt 0.089146 0.631790
vt 0.414721 0.624038
vt 0.174415 0.624038
vt 0.096897 0.624038
vt 0.441852 0.624038
vt 0.174415 0.651169
vt 0.089146 0.627914
vt 0.414721 0.620162
vt 0.360458 0.670549
vt 0.096897 0.620162
vt 0.441852 0.620162
vt 0.360458 0.697680
vt 0.108424 0.201360
vt 0.108424 0.154892
vt 0.170381 0.154892
vt 0.170381 0.201360
vt 0.000000 0.294295
vt 0.123914 0.294295
vt 0.030978 0.294295
vt 0.000000 0.201360
vt 0.123914 0.201360
vt 0.030978 0.201360
vt 0.092935 0.294295
vt 0.092935 0.201360
vt 0.092935 0.294295
vt 0.092935 0.201360
vt 0.123914 0.294295
vt 0.123914 0.201360
vt 0.259685 0.713184
vt 0.259685 0.686052
vt 0.236430 0.713184
vt 0.236430 0.686052
vt 0.259685 0.713184
vt 0.259685 0.686052
vt 0.236430 0.713184
vt 0.236430 0.686052
vt 0.108525 0.717059
vt 0.108525 0.689928
vt 0.131781 0.717059
vt 0.131781 0.689928
vt 0.108525 0.717059
vt 0.108525 0.689928
vt 0.131781 0.717059
vt 0.131781 0.689928
s 1
usemtl m_6d7d4cf9-93d2-a3ee-f93b-b5a7ff3b8d64
f 116/298/15 119/307/15 117/301/15 114/292/15
f 115/295/16 116/299/16 114/293/16 113/289/16
f 120/310/17 115/296/17 113/290/17 118/304/17
f 119/308/18 120/311/18 118/305/18 117/302/18
f 118/306/19 113/291/19 114/294/19 117/303/19
f 119/309/20 116/300/20 115/297/20 120/312/20
f 124/322/15 127/331/15 125/325/15 122/316/15
f 123/319/19 124/323/19 122/317/19 121/313/19
f 128/334/17 123/320/17 121/314/17 126/328/17
f 127/332/20 128/335/20 126/329/20 125/326/20
f 126/330/18 121/315/18 122/318/18 125/327/18
f 127/333/16 124/324/16 123/321/16 128/336/16
f 132/346/21 135/355/21 133/349/21 130/340/21
f 131/343/19 132/347/19 130/341/19 129/337/19
f 136/358/22 131/344/22 129/338/22 134/352/22
f 135/356/20 136/359/20 134/353/20 133/350/20
f 134/354/23 129/339/23 130/342/23 133/351/23
f 135/357/24 132/348/24 131/345/24 136/360/24
f 140/370/15 143/379/15 141/373/15 138/364/15
f 139/367/19 140/371/19 138/365/19 137/361/19
f 144/382/17 139/368/17 137/362/17 142/376/17
f 143/380/20 144/383/20 142/377/20 141/374/20
f 142/378/18 137/363/18 138/366/18 141/375/18
f 143/381/16 140/372/16 139/369/16 144/384/16
f 148/394/24 151/403/24 149/397/24 146/388/24
f 147/391/19 148/395/19 146/389/19 145/385/19
f 152/406/23 147/392/23 145/386/23 150/400/23
f 151/404/20 152/407/20 150/401/20 149/398/20
f 150/402/21 145/387/21 146/390/21 149/399/21
f 151/405/22 148/396/22 147/393/22 152/408/22
f 156/418/15 159/427/15 157/421/15 154/412/15
f 155/415/19 156/419/19 154/413/19 153/409/19
f 160/430/17 155/416/17 153/410/17 158/424/17
f 159/428/20 160/431/20 158/425/20 157/422/20
f 158/426/18 153/411/18 154/414/18 157/423/18
f 159/429/16 156/420/16 155/417/16 160/432/16
f 164/442/21 167/451/21 165/445/21 162/436/21
f 163/439/19 164/443/19 162/437/19 161/433/19
f 168/454/22 163/440/22 161/434/22 166/448/22
f 167/452/20 168/455/20 166/449/20 165/446/20
f 166/450/23 161/435/23 162/438/23 165/447/23
f 167/453/24 164/444/24 163/441/24 168/456/24
f 172/466/15 175/475/15 173/469/15 170/460/15
f 171/463/19 172/467/19 170/461/19 169/457/19
f 176/478/17 171/464/17 169/458/17 174/472/17
f 175/476/20 176/479/20 174/473/20 173/470/20
f 174/474/18 169/459/18 170/462/18 173/471/18
f 175/477/16 172/468/16 171/465/16 176/480/16
f 180/490/25 183/499/25 181/493/25 178/484/25
f 179/487/19 180/491/19 178/485/19 177/481/19
f 184/502/26 179/488/26 177/482/26 182/496/26
f 183/500/20 184/503/20 182/497/20 181/494/20
f 182/498/27 177/483/27 178/486/27 181/495/27
f 183/501/28 180/492/28 179/489/28 184/504/28
f 188/514/25 191/523/25 189/517/25 186/508/25
f 187/511/19 188/515/19 186/509/19 185/505/19
f 192/526/26 187/512/26 185/506/26 190/520/26
f 191/524/20 192/527/20 190/521/20 189/518/20
f 190/522/27 185/507/27 186/510/27 189/519/27
f 191/525/28 188/516/28 187/513/28 192/528/28
f 196/538/29 199/547/29 197/541/29 194/532/29
f 195/535/16 196/539/16 194/533/16 193/529/16
f 200/550/30 195/536/30 193/530/30 198/544/30
f 199/548/18 200/551/18 198/545/18 197/542/18
f 198/546/31 193/531/31 194/534/31 197/543/31
f 199/549/32 196/540/32 195/537/32 200/552/32
f 204/562/15 207/571/15 205/565/15 202/556/15
f 203/559/16 204/563/16 202/557/16 201/553/16
f 208/574/17 203/560/17 201/554/17 206/568/17
f 207/572/18 208/575/18 206/569/18 205/566/18
f 206/570/19 201/555/19 202/558/19 205/567/19
f 207/573/20 204/564/20 203/561/20 208/576/20
f 212/586/32 215/595/32 213/589/32 210/580/32
f 211/583/16 212/587/16 210/581/16 209/577/16
f 216/598/31 211/584/31 209/578/31 214/592/31
f 215/596/18 216/599/18 214/593/18 213/590/18
f 214/594/29 209/579/29 210/582/29 213/591/29
f 215/597/30 212/588/30 211/585/30 216/600/30
f 220/610/15 223/619/15 221/613/15 218/604/15
f 219/607/16 220/611/16 218/605/16 217/601/16
f 224/622/17 219/608/17 217/602/17 222/616/17
f 223/620/18 224/623/18 222/617/18 221/614/18
f 222/618/19 217/603/19 218/606/19 221/615/19
f 223/621/20 220/612/20 219/609/20 224/624/20
f 228/634/29 231/643/29 229/637/29 226/628/29
f 227/631/16 228/635/16 226/629/16 225/625/16
f 232/646/30 227/632/30 225/626/30 230/640/30
f 231/644/18 232/647/18 230/641/18 229/638/18
f 230/642/31 225/627/31 226/630/31 229/639/31
f 231/645/32 228/636/32 227/633/32 232/648/32
f 236/658/15 239/667/15 237/661/15 234/652/15
f 235/655/19 236/659/19 234/653/19 233/649/19
f 240/670/17 235/656/17 233/650/17 238/664/17
f 239/668/20 240/671/20 238/665/20 237/662/20
f 238/666/18 233/651/18 234/654/18 237/663/18
f 239/669/16 236/660/16 235/657/16 240/672/16
f 244/682/15 247/691/15 245/685/15 242/676/15
f 243/679/19 244/683/19 242/677/19 241/673/19
f 248/694/17 243/680/17 241/674/17 246/688/17
f 247/692/20 248/695/20 246/689/20 245/686/20
f 246/690/18 241/675/18 242/678/18 245/687/18
f 247/693/16 244/684/16 243/681/16 248/696/16
f 252/706/33 255/715/33 253/709/33 250/700/33
f 251/703/19 252/707/19 250/701/19 249/697/19
f 256/718/34 251/704/34 249/698/34 254/712/34
f 255/716/20 256/719/20 254/713/20 253/710/20
f 254/714/35 249/699/35 250/702/35 253/711/35
f 255/717/36 252/708/36 251/705/36 256/720/36
f 260/730/15 263/739/15 261/733/15 258/724/15
f 259/727/16 260/731/16 258/725/16 257/721/16
f 264/742/17 259/728/17 257/722/17 262/736/17
f 263/740/18 264/743/18 262/737/18 261/734/18
f 262/738/19 257/723/19 258/726/19 261/735/19
f 263/741/20 260/732/20 259/729/20 264/744/20
f 268/754/24 271/763/24 269/757/24 266/748/24
f 267/751/19 268/755/19 266/749/19 265/745/19
f 272/766/23 267/752/23 265/746/23 270/760/23
f 271/764/20 272/767/20 270/761/20 269/758/20
f 270/762/21 265/747/21 266/750/21 269/759/21
f 271/765/22 268/756/22 267/753/22 272/768/22
f 276/778/37 279/787/37 277/781/37 274/772/37
f 275/775/19 276/779/19 274/773/19 273/769/19
f 280/790/38 275/776/38 273/770/38 278/784/38
f 279/788/20 280/791/20 278/785/20 277/782/20
f 278/786/39 273/771/39 274/774/39 277/783/39
f 279/789/40 276/780/40 275/777/40 280/792/40
f 284/802/32 287/811/32 285/805/32 282/796/32
f 283/799/16 284/803/16 282/797/16 281/793/16
f 288/814/31 283/800/31 281/794/31 286/808/31
f 287/812/18 288/815/18 286/809/18 285/806/18
f 286/810/29 281/795/29 282/798/29 285/807/29
f 287/813/30 284/804/30 283/801/30 288/816/30
f 292/826/15 295/835/15 293/829/15 290/820/15
f 291/823/19 292/827/19 290/821/19 289/817/19
f 296/838/17 291/824/17 289/818/17 294/832/17
f 295/836/20 296/839/20 294/833/20 293/830/20
f 294/834/18 289/819/18 290/822/18 293/831/18
f 295/837/16 292/828/16 291/825/16 296/840/16
f 300/850/21 303/859/21 301/853/21 298/844/21
f 299/847/19 300/851/19 298/845/19 297/841/19
f 304/862/22 299/848/22 297/842/22 302/856/22
f 303/860/20 304/863/20 302/857/20 301/854/20
f 302/858/23 297/843/23 298/846/23 301/855/23
f 303/861/24 300/852/24 299/849/24 304/864/24
f 308/874/15 311/883/15 309/877/15 306/868/15
f 307/871/19 308/875/19 306/869/19 305/865/19
f 312/886/17 307/872/17 305/866/17 310/880/17
f 311/884/20 312/887/20 310/881/20 309/878/20
f 310/882/18 305/867/18 306/870/18 309/879/18
f 311/885/16 308/876/16 307/873/16 312/888/16
f 316/898/24 319/907/24 317/901/24 314/892/24
f 315/895/19 316/899/19 314/893/19 313/889/19
f 320/910/23 315/896/23 313/890/23 318/904/23
f 319/908/20 320/911/20 318/905/20 317/902/20
f 318/906/21 313/891/21 314/894/21 317/903/21
f 319/909/22 316/900/22 315/897/22 320/912/22
f 324/922/15 327/931/15 325/925/15 322/916/15
f 323/919/19 324/923/19 322/917/19 321/913/19
f 328/934/17 323/920/17 321/914/17 326/928/17
f 327/932/20 328/935/20 326/929/20 325/926/20
f 326/930/18 321/915/18 322/918/18 325/927/18
f 327/933/16 324/924/16 323/921/16 328/936/16
f 332/946/21 335/955/21 333/949/21 330/940/21
f 331/943/19 332/947/19 330/941/19 329/937/19
f 336/958/22 331/944/22 329/938/22 334/952/22
f 335/956/20 336/959/20 334/953/20 333/950/20
f 334/954/23 329/939/23 330/942/23 333/951/23
f 335/957/24 332/948/24 331/945/24 336/960/24
f 340/970/15 343/979/15 341/973/15 338/964/15
f 339/967/19 340/971/19 338/965/19 337/961/19
f 344/982/17 339/968/17 337/962/17 342/976/17
f 343/980/20 344/983/20 342/977/20 341/974/20
f 342/978/18 337/963/18 338/966/18 341/975/18
f 343/981/16 340/972/16 339/969/16 344/984/16
f 348/994/24 351/1003/24 349/997/24 346/988/24
f 347/991/19 348/995/19 346/989/19 345/985/19
f 352/1006/23 347/992/23 345/986/23 350/1000/23
f 351/1004/20 352/1007/20 350/1001/20 349/998/20
f 350/1002/21 345/987/21 346/990/21 349/999/21
f 351/1005/22 348/996/22 347/993/22 352/1008/22
f 356/1018/24 359/1027/24 357/1021/24 354/1012/24
f 355/1015/19 356/1019/19 354/1013/19 353/1009/19
f 360/1030/23 355/1016/23 353/1010/23 358/1024/23
f 359/1028/20 360/1031/20 358/1025/20 357/1022/20
f 358/1026/21 353/1011/21 354/1014/21 357/1023/21
f 359/1029/22 356/1020/22 355/1017/22 360/1032/22
f 364/1042/15 367/1051/15 365/1045/15 362/1036/15
f 363/1039/19 364/1043/19 362/1037/19 361/1033/19
f 368/1054/17 363/1040/17 361/1034/17 366/1048/17
f 367/1052/20 368/1055/20 366/1049/20 365/1046/20
f 366/1050/18 361/1035/18 362/1038/18 365/1047/18
f 367/1053/16 364/1044/16 363/1041/16 368/1056/16
f 372/1065/41 375/1074/41 373/1068/41 370/1059/41
f 371/1062/16 372/1066/16 370/1060/16 369/1057/16
f 376/1077/42 371/1063/42 369/1058/42 374/1071/42
f 375/1075/18 376/1078/18 374/1072/18 373/1069/18
f 374/1073/43 369/1058/43 370/1061/43 373/1070/43
f 375/1076/44 372/1067/44 371/1064/44 376/1079/44
f 380/1089/24 383/1098/24 381/1092/24 378/1083/24
f 379/1086/19 380/1090/19 378/1084/19 377/1080/19
f 384/1101/23 379/1087/23 377/1081/23 382/1095/23
f 383/1099/20 384/1102/20 382/1096/20 381/1093/20
f 382/1097/21 377/1082/21 378/1085/21 381/1094/21
f 383/1100/22 380/1091/22 379/1088/22 384/1103/22
f 388/1113/15 391/1122/15 389/1116/15 386/1107/15
f 387/1110/19 388/1114/19 386/1108/19 385/1104/19
f 392/1125/17 387/1111/17 385/1105/17 390/1119/17
f 391/1123/20 392/1126/20 390/1120/20 389/1117/20
f 390/1121/18 385/1106/18 386/1109/18 389/1118/18
f 391/1124/16 388/1115/16 387/1112/16 392/1127/16
f 396/1137/45 399/1146/45 397/1140/45 394/1131/45
f 395/1134/19 396/1138/19 394/1132/19 393/1128/19
f 400/1149/46 395/1135/46 393/1129/46 398/1143/46
f 399/1147/20 400/1150/20 398/1144/20 397/1141/20
f 398/1145/47 393/1130/47 394/1133/47 397/1142/47
f 399/1148/48 396/1139/48 395/1136/48 400/1151/48
f 404/1161/45 407/1170/45 405/1164/45 402/1155/45
f 403/1158/19 404/1162/19 402/1156/19 401/1152/19
f 408/1173/46 403/1159/46 401/1153/46 406/1167/46
f 407/1171/20 408/1174/20 406/1168/20 405/1165/20
f 406/1169/47 401/1154/47 402/1157/47 405/1166/47
f 407/1172/48 404/1163/48 403/1160/48 408/1175/48
f 412/1185/15 415/1194/15 413/1188/15 410/1179/15
f 411/1182/19 412/1186/19 410/1180/19 409/1176/19
f 416/1197/17 411/1183/17 409/1177/17 414/1191/17
f 415/1195/20 416/1198/20 414/1192/20 413/1189/20
f 414/1193/18 409/1178/18 410/1181/18 413/1190/18
f 415/1196/16 412/1187/16 411/1184/16 416/1199/16
f 420/1209/49 423/1218/49 421/1212/49 418/1203/49
f 419/1206/19 420/1210/19 418/1204/19 417/1200/19
f 424/1221/50 419/1207/50 417/1201/50 422/1215/50
f 423/1219/20 424/1222/20 422/1216/20 421/1213/20
f 422/1217/51 417/1202/51 418/1205/51 421/1214/51
f 423/1220/52 420/1211/52 419/1208/52 424/1223/52
f 428/1233/15 431/1242/15 429/1236/15 426/1227/15
f 427/1230/53 428/1234/53 426/1228/53 425/1224/53
f 432/1245/17 427/1231/17 425/1225/17 430/1239/17
f 431/1243/54 432/1246/54 430/1240/54 429/1237/54
f 430/1241/55 425/1226/55 426/1229/55 429/1238/55
f 431/1244/56 428/1235/56 427/1232/56 432/1247/56
f 436/1257/57 439/1266/57 437/1260/57 434/1251/57
f 435/1254/19 436/1258/19 434/1252/19 433/1248/19
f 440/1269/58 435/1255/58 433/1249/58 438/1263/58
f 439/1267/20 440/1270/20 438/1264/20 437/1261/20
f 438/1265/59 433/1250/59 434/1253/59 437/1262/59
f 439/1268/60 436/1259/60 435/1256/60 440/1271/60
f 444/1281/61 447/1290/61 445/1284/61 442/1275/61
f 443/1278/19 444/1282/19 442/1276/19 441/1272/19
f 448/1293/62 443/1279/62 441/1273/62 446/1287/62
f 447/1291/20 448/1294/20 446/1288/20 445/1285/20
f 446/1289/63 441/1274/63 442/1277/63 445/1286/63
f 447/1292/64 444/1283/64 443/1280/64 448/1295/64
f 452/1305/49 455/1314/49 453/1308/49 450/1299/49
f 451/1302/19 452/1306/19 450/1300/19 449/1296/19
f 456/1317/50 451/1303/50 449/1297/50 454/1311/50
f 455/1315/20 456/1318/20 454/1312/20 453/1309/20
f 454/1313/51 449/1298/51 450/1301/51 453/1310/51
f 455/1316/52 452/1307/52 451/1304/52 456/1319/52
f 460/1329/15 463/1338/15 461/1332/15 458/1323/15
f 459/1326/65 460/1330/65 458/1324/65 457/1320/65
f 464/1341/17 459/1327/17 457/1321/17 462/1335/17
f 463/1339/66 464/1342/66 462/1336/66 461/1333/66
f 462/1337/67 457/1322/67 458/1325/67 461/1334/67
f 463/1340/68 460/1331/68 459/1328/68 464/1343/68
f 468/1353/57 471/1362/57 469/1356/57 466/1347/57
f 467/1350/19 468/1354/19 466/1348/19 465/1344/19
f 472/1365/58 467/1351/58 465/1345/58 470/1359/58
f 471/1363/20 472/1366/20 470/1360/20 469/1357/20
f 470/1361/59 465/1346/59 466/1349/59 469/1358/59
f 471/1364/60 468/1355/60 467/1352/60 472/1367/60
f 475/1370/16 474/1369/16 473/1368/16 476/1371/16
f 479/1375/20 480/1377/20 478/1374/20 477/1372/20
f 482/1379/69 479/1376/69 477/1373/69 481/1378/69
f 486/1383/69 484/1381/69 483/1380/69 485/1382/69
f 490/1387/70 488/1385/70 487/1384/70 489/1386/70
f 494/1391/70 492/1389/70 491/1388/70 493/1390/70
f 496/1393/38 498/1395/38 497/1394/38 495/1392/38
f 500/1397/38 502/1399/38 501/1398/38 499/1396/38
