# Made in Blockbench 4.12.1
mtllib agm88g.mtl

o cylinder
v -0.1562499999999999 0.06472086912079633 1
v -0.06472086912079598 0.15625000000000022 1
v 1.2246467991473532e-16 2.220446049250313e-16 1
v -0.09374999999999979 0.031250000000000375 1.6875
v -0.031249999999999792 0.09375000000000037 1.6875
v -0.031249999999999792 0.09375000000000037 1.687500625
v -0.09374999999999979 0.031250000000000375 1.687500625
v 2.2196730888588272e-16 4.024559852044973e-16 1.812500625
v -0.1562499999999999 -0.06472086912079589 1
v -0.09374999999999979 -0.031249999999999625 1.6875
v -0.09374999999999979 -0.031249999999999625 1.687500625
v -0.064720869120796 -0.15624999999999978 1
v -0.031249999999999792 -0.09374999999999963 1.6875
v -0.031249999999999792 -0.09374999999999963 1.687500625
v 0.0647208691207962 -0.15624999999999978 1
v 0.03125000000000021 -0.09374999999999963 1.6875
v 0.03125000000000021 -0.09374999999999963 1.687500625
v 0.15625000000000006 -0.06472086912079597 1
v 0.09375000000000015 -0.031249999999999625 1.6875
v 0.09375000000000015 -0.031249999999999625 1.687500625
v 0.15625000000000008 0.06472086912079639 1
v 0.09375000000000018 0.031250000000000375 1.6875
v 0.09375000000000018 0.031250000000000375 1.687500625
v 0.06472086912079633 0.15625000000000017 1
v 0.03125000000000021 0.09375000000000032 1.6875
v 0.03125000000000021 0.09375000000000032 1.687500625
vt 0.0859375 0.62918359375
vt 0.07449609374999999 0.640625
vt 0.06640625 0.62109375
vt 0.15625 0.46051953125
vt 0.17242968749999998 0.46051953125
vt 0.16986406249999997 0.546875
vt 0.15881562500000002 0.546875
vt 0.33794843750000003 0.85586328125
vt 0.348996875 0.85586328125
vt 0.34347265625 0.875
vt 0.0859375 0.61300390625
vt 0.0859375 0.62918359375
vt 0.06640625 0.62109375
vt 0.09375 0.46058359375
vt 0.10992968749999998 0.46058359375
vt 0.10574609374999999 0.546875
vt 0.09793359374999999 0.546875
vt 0.054763356735582344 0.6534891123307952
vt 0.062424143264417656 0.6519569550250282
vt 0.06242414326441764 0.671875
vt 0.07449609374999999 0.6015625
vt 0.0859375 0.61300390625
vt 0.06640625 0.62109375
vt 0.15625 0.36676953125
vt 0.17242968749999998 0.36676953125
vt 0.16986406250000002 0.453125
vt 0.15881562500000002 0.453125
vt 0.346315625 0.73867578125
vt 0.3573640625 0.73867578125
vt 0.35183984375 0.7578125
vt 0.05831640625 0.6015625
vt 0.07449609374999999 0.6015625
vt 0.06640625 0.62109375
vt 0.09375 0.55433359375
vt 0.1099296875 0.55433359375
vt 0.10574609375 0.640625
vt 0.09793359375 0.640625
vt 0.30476335673558236 0.7706766123307952
vt 0.31242414326441764 0.7691444550250282
vt 0.31242414326441764 0.7890625
vt 0.046875 0.61300390625
vt 0.05831640625 0.6015625
vt 0.06640625 0.62109375
vt 0.125 0.36676953125
vt 0.14117968749999998 0.36676953125
vt 0.13861406249999997 0.453125
vt 0.12756562500000002 0.453125
vt 0.25201093750000003 0.67617578125
vt 0.263059375 0.67617578125
vt 0.25753515625 0.6953125
vt 0.046875 0.62918359375
vt 0.046875 0.61300390625
vt 0.06640625 0.62109375
vt 0.125 0.55433359375
vt 0.14117968749999998 0.55433359375
vt 0.13699609375 0.640625
vt 0.12918359375 0.640625
vt 0.32820085673558236 0.8878641123307952
vt 0.33586164326441764 0.8863319550250282
vt 0.33586164326441764 0.90625
vt 0.05831640625 0.640625
vt 0.046875 0.62918359375
vt 0.06640625 0.62109375
vt 0.125 0.46051953125
vt 0.14117968749999998 0.46051953125
vt 0.13861406250000002 0.546875
vt 0.12756562500000002 0.546875
vt 0.307253125 0.88711328125
vt 0.3183015625 0.88711328125
vt 0.31277734375 0.90625
vt 0.07449609374999999 0.640625
vt 0.05831640625 0.640625
vt 0.06640625 0.62109375
vt 0.15625 0.55433359375
vt 0.17242968749999998 0.55433359375
vt 0.16824609375 0.640625
vt 0.16043359375 0.640625
vt 0.27351335673558236 0.6769266123307952
vt 0.28117414326441764 0.6753944550250282
vt 0.28117414326441764 0.6953125
vt 0.1640625 0.640625
vt 0.15625 0.640625
vt 0.15625 0.640625
vt 0.1640625 0.640625
vt 0.3183015625 0.88711328125
vt 0.307253125 0.88711328125
vt 0.307253125 0.88711328125
vt 0.3183015625 0.88711328125
vt 0.1328125 0.640625
vt 0.125 0.640625
vt 0.125 0.640625
vt 0.1328125 0.640625
vt 0.263059375 0.67617578125
vt 0.25201093750000003 0.67617578125
vt 0.25201093750000003 0.67617578125
vt 0.263059375 0.67617578125
vt 0.1015625 0.640625
vt 0.09375 0.640625
vt 0.09375 0.640625
vt 0.1015625 0.640625
vt 0.348996875 0.85586328125
vt 0.33794843750000003 0.85586328125
vt 0.33794843750000003 0.85586328125
vt 0.348996875 0.85586328125
vt 0.3573640625 0.73867578125
vt 0.346315625 0.73867578125
vt 0.346315625 0.73867578125
vt 0.3573640625 0.73867578125
vt 0.375 0.90625
vt 0.3671875 0.90625
vt 0.3671875 0.90625
vt 0.375 0.90625
vn -1.2246467991473532e-16 0 -1
vn -0.7036869948766281 0.7036869948766281 0.09823047634517987
vn -0.5773502691896257 0.5773502691896258 0.5773502691896257
vn -1.2246467991473532e-16 0 -1
vn -0.995893206467704 0 0.09053574604251867
vn -0.7999999999999999 0 0.6000000000000001
vn -1.2246467991473532e-16 0 -1
vn -0.7036869948766281 -0.703686994876628 0.09823047634518016
vn -0.5773502691896256 -0.5773502691896257 0.577350269189626
vn -1.2246467991473532e-16 0 -1
vn 1.1087431159938825e-17 -0.995893206467704 0.09053574604251875
vn 7.347880794884121e-17 -0.8 0.6000000000000002
vn -1.2246467991473532e-16 0 -1
vn 0.7036869948766278 -0.7036869948766283 0.09823047634518009
vn 0.5773502691896262 -0.5773502691896255 0.5773502691896256
vn -1.2246467991473532e-16 0 -1
vn 0.995893206467704 -2.1354463848140498e-16 0.0905357460425184
vn 0.8000000000000003 -3.5527136788005016e-16 0.5999999999999998
vn -1.2246467991473532e-16 0 -1
vn 0.7036869948766281 0.7036869948766281 0.09823047634517981
vn 0.577350269189626 0.5773502691896261 0.5773502691896255
vn -1.2246467991473532e-16 0 -1
vn 4.381767081227488e-16 0.995893206467704 0.09053574604251828
vn 7.840215437089415e-16 0.8000000000000002 0.5999999999999998
vn 8.881784197001252e-16 1 -1.0877048587575128e-31
vn 0.7071067811865475 0.7071067811865477 -8.659560562354932e-17
vn 1 -4.440892098500626e-16 -1.2246467991473532e-16
vn 0.7071067811865478 -0.7071067811865472 -8.659560562354937e-17
vn 0 -1 0
vn -0.7071067811865476 0.7071067811865476 8.659560562354934e-17
vn -0.7071067811865476 -0.7071067811865476 8.659560562354934e-17
vn -1 0 1.2246467991473532e-16
usemtl m_757821e5-f43c-3278-c938-6c055d43e4f9
f 1/1/1 2/2/1 3/3/1
f 2/4/2 1/5/2 4/6/2 5/7/2
f 6/8/3 7/9/3 8/10/3
f 9/11/4 1/12/4 3/13/4
f 1/14/5 9/15/5 10/16/5 4/17/5
f 7/18/6 11/19/6 8/20/6
f 12/21/7 9/22/7 3/23/7
f 9/24/8 12/25/8 13/26/8 10/27/8
f 11/28/9 14/29/9 8/30/9
f 15/31/10 12/32/10 3/33/10
f 12/34/11 15/35/11 16/36/11 13/37/11
f 14/38/12 17/39/12 8/40/12
f 18/41/13 15/42/13 3/43/13
f 15/44/14 18/45/14 19/46/14 16/47/14
f 17/48/15 20/49/15 8/50/15
f 21/51/16 18/52/16 3/53/16
f 18/54/17 21/55/17 22/56/17 19/57/17
f 20/58/18 23/59/18 8/60/18
f 24/61/19 21/62/19 3/63/19
f 21/64/20 24/65/20 25/66/20 22/67/20
f 23/68/21 26/69/21 8/70/21
f 2/71/22 24/72/22 3/73/22
f 24/74/23 2/75/23 5/76/23 25/77/23
f 26/78/24 6/79/24 8/80/24
f 6/81/25 26/82/25 25/83/25 5/84/25
f 26/85/26 23/86/26 22/87/26 25/88/26
f 23/89/27 20/90/27 19/91/27 22/92/27
f 20/93/28 17/94/28 16/95/28 19/96/28
f 17/97/29 14/98/29 13/99/29 16/100/29
f 7/101/30 6/102/30 5/103/30 4/104/30
f 14/105/31 11/106/31 10/107/31 13/108/31
f 11/109/32 7/110/32 4/111/32 10/112/32
o plane
v -0.04419417382415949 0.04419417382415923 -2.1875
v -0.04419417382415941 0.04419417382415923 -1.5625
v -0.2762135864009953 0.2762135864009952 -1.75
v -0.30935921676911476 0.3093592167691146 -2.1875
v -0.24306795603287595 0.24306795603287576 -2.3125
v -0.044194173824159494 0.04419417382415923 -2.25
vt 0.296875 0.8203125
vt 0.296875 0.8984375
vt 0.255859375 0.875
vt 0.25 0.8203125
vt 0.25 0.8203125
vt 0.26171875 0.8046875
vt 0.296875 0.8125
vt 0.296875 0.8203125
vn -0.7071067811865477 -0.7071067811865475 8.659560562354935e-17
vn -0.7071067811865477 -0.7071067811865474 8.659560562354935e-17
usemtl m_757821e5-f43c-3278-c938-6c055d43e4f9
f 27/113/33 28/114/33 29/115/33 30/116/33
f 30/117/34 31/118/34 32/119/34 27/120/34
o plane1
v 0.044194173824158946 0.04419417382415922 -2.1875
v 0.04419417382415902 0.04419417382415922 -1.5625
v 0.27621358640099486 0.27621358640099514 -1.75
v 0.3093592167691142 0.30935921676911454 -2.1875
v 0.2430679560328754 0.24306795603287573 -2.3125
v 0.04419417382415894 0.04419417382415922 -2.25
vt 0.296875 0.921875
vt 0.296875 1
vt 0.255859375 0.9765625
vt 0.25 0.921875
vt 0.25 0.921875
vt 0.26171875 0.90625
vt 0.296875 0.9140625
vt 0.296875 0.921875
vn -0.7071067811865477 0.7071067811865475 8.659560562354935e-17
vn -0.7071067811865476 0.7071067811865475 1.711840265473708e-16
usemtl m_757821e5-f43c-3278-c938-6c055d43e4f9
f 33/121/35 34/122/35 35/123/35 36/124/35
f 36/125/36 37/126/36 38/127/36 33/128/36
o plane2
v -0.04419417382415949 -0.04419417382415923 -2.1875
v -0.04419417382415941 -0.04419417382415923 -1.5625
v -0.2762135864009953 -0.2762135864009952 -1.75
v -0.30935921676911476 -0.3093592167691146 -2.1875
v -0.24306795603287595 -0.24306795603287576 -2.3125
v -0.044194173824159494 -0.04419417382415923 -2.25
vt 0.296875 0.71875
vt 0.296875 0.796875
vt 0.255859375 0.7734375
vt 0.25 0.71875
vt 0.25 0.71875
vt 0.26171875 0.703125
vt 0.296875 0.7109375
vt 0.296875 0.71875
vn 0.7071067811865477 -0.7071067811865475 -8.659560562354935e-17
vn 0.7071067811865477 -0.7071067811865474 -8.659560562354935e-17
usemtl m_757821e5-f43c-3278-c938-6c055d43e4f9
f 39/129/37 40/130/37 41/131/37 42/132/37
f 42/133/38 43/134/38 44/135/38 39/136/38
o plane3
v 0.044194173824158946 -0.04419417382415922 -2.1875
v 0.04419417382415902 -0.04419417382415922 -1.5625
v 0.27621358640099486 -0.27621358640099514 -1.75
v 0.3093592167691142 -0.30935921676911454 -2.1875
v 0.2430679560328754 -0.24306795603287573 -2.3125
v 0.04419417382415894 -0.04419417382415922 -2.25
vt 0.3359375 0.6328125
vt 0.3359375 0.7109375
vt 0.294921875 0.6875
vt 0.2890625 0.6328125
vt 0.2890625 0.6328125
vt 0.30078125 0.6171875
vt 0.3359375 0.625
vt 0.3359375 0.6328125
vn 0.7071067811865477 0.7071067811865475 -8.659560562354935e-17
vn 0.7071067811865476 0.7071067811865475 -1.711840265473708e-16
usemtl m_757821e5-f43c-3278-c938-6c055d43e4f9
f 45/137/39 46/138/39 47/139/39 48/140/39
f 48/141/40 49/142/40 50/143/40 45/144/40
o cylinder1
v -0.10937500000000028 0.03124999999999961 -2.3125
v -0.031250000000000284 0.10937499999999961 -2.3125
v -2.6023744481881253e-16 -3.469446951953614e-16 -2.125
v -0.06472086912079635 0.15624999999999972 -1.875
v -0.15625000000000022 0.06472086912079582 -1.875
v -0.1562499999999999 0.06472086912079646 1
v -0.06472086912079598 0.15625000000000033 1
v 1.2246467991473532e-16 3.469446951953614e-16 1
v -0.10937500000000028 -0.03125000000000039 -2.3125
v -0.15625000000000022 -0.0647208691207964 -1.875
v -0.1562499999999999 -0.06472086912079576 1
v -0.031250000000000284 -0.10937500000000039 -2.3125
v -0.06472086912079636 -0.15625000000000028 -1.875
v -0.064720869120796 -0.15624999999999967 1
v 0.031249999999999716 -0.10937500000000039 -2.3125
v 0.06472086912079585 -0.15625000000000028 -1.875
v 0.0647208691207962 -0.15624999999999967 1
v 0.10937499999999972 -0.03125000000000039 -2.3125
v 0.15624999999999972 -0.06472086912079648 -1.875
v 0.15625000000000006 -0.06472086912079585 1
v 0.10937499999999972 0.03124999999999961 -2.3125
v 0.15624999999999975 0.06472086912079587 -1.875
v 0.15625000000000008 0.06472086912079651 1
v 0.031249999999999716 0.10937499999999961 -2.3125
v 0.06472086912079597 0.15624999999999967 -1.875
v 0.06472086912079633 0.15625000000000028 1
vt 0.333984375 0.744140625
vt 0.32421875 0.75390625
vt 0.3203125 0.740234375
vt 0.0697578125 0.7109375
vt 0.0859375 0.7109375
vt 0.0859375 1
vt 0.0697578125 1
vt 0.02762109375 0.6015625
vt 0.0390625 0.61300390625
vt 0.01953125 0.62109375
vt 0.333984375 0.736328125
vt 0.333984375 0.744140625
vt 0.3203125 0.740234375
vt 0.12862890625 0.7109375
vt 0.14480859375 0.7109375
vt 0.14480859375 1
vt 0.12862890625 1
vt 0.0390625 0.61300390625
vt 0.0390625 0.62918359375
vt 0.01953125 0.62109375
vt 0.32421875 0.7265625
vt 0.333984375 0.736328125
vt 0.3203125 0.740234375
vt 0 0.7109375
vt 0.0161796875 0.7109375
vt 0.0161796875 1
vt 0 1
vt 0.0390625 0.62918359375
vt 0.02762109375 0.640625
vt 0.01953125 0.62109375
vt 0.31640625 0.7265625
vt 0.32421875 0.7265625
vt 0.3203125 0.740234375
vt 0.15987890625 0.7109375
vt 0.17605859375 0.7109375
vt 0.17605859375 1
vt 0.15987890625 1
vt 0.02762109375 0.640625
vt 0.01144140625 0.640625
vt 0.01953125 0.62109375
vt 0.306640625 0.736328125
vt 0.31640625 0.7265625
vt 0.3203125 0.740234375
vt 0.1010078125 0.7109375
vt 0.1171875 0.7109375
vt 0.1171875 1
vt 0.1010078125 1
vt 0.01144140625 0.640625
vt 0 0.62918359375
vt 0.01953125 0.62109375
vt 0.306640625 0.744140625
vt 0.306640625 0.736328125
vt 0.3203125 0.740234375
vt 0.19112890625 0.7109375
vt 0.20730859375 0.7109375
vt 0.20730859375 1
vt 0.19112890625 1
vt 0 0.62918359375
vt 0 0.61300390625
vt 0.01953125 0.62109375
vt 0.31640625 0.75390625
vt 0.306640625 0.744140625
vt 0.3203125 0.740234375
vt 0.03125 0.7109375
vt 0.0474296875 0.7109375
vt 0.0474296875 1
vt 0.03125 1
vt 0 0.61300390625
vt 0.01144140625 0.6015625
vt 0.01953125 0.62109375
vt 0.32421875 0.75390625
vt 0.31640625 0.75390625
vt 0.3203125 0.740234375
vt 0.22237890625 0.7109375
vt 0.23855859375 0.7109375
vt 0.23855859375 1
vt 0.22237890625 1
vt 0.01144140625 0.6015625
vt 0.02762109375 0.6015625
vt 0.01953125 0.62109375
vt 0.0709421875 0.655790625
vt 0.084753125 0.655790625
vt 0.0859375 0.7109375
vt 0.0697578125 0.7109375
vt 0.2265625 0.6559375000000001
vt 0.234375 0.6559375000000001
vt 0.23855859375 0.7109375
vt 0.22237890625 0.7109375
vt 0.032434375 0.655790625
vt 0.046245312499999996 0.655790625
vt 0.0474296875 0.7109375
vt 0.03125 0.7109375
vt 0.1953125 0.6559375000000001
vt 0.203125 0.6559375000000001
vt 0.20730859375 0.7109375
vt 0.19112890625 0.7109375
vt 0.1021921875 0.655790625
vt 0.116003125 0.655790625
vt 0.1171875 0.7109375
vt 0.1010078125 0.7109375
vt 0.1640625 0.6559375000000001
vt 0.171875 0.6559375000000001
vt 0.17605859375 0.7109375
vt 0.15987890625 0.7109375
vt 0.0011843750000000005 0.655790625
vt 0.0149953125 0.655790625
vt 0.0161796875 0.7109375
vt 0 0.7109375
vt 0.1328125 0.6559375000000001
vt 0.140625 0.6559375000000001
vt 0.14480859375 0.7109375
vt 0.12862890625 0.7109375
vn 0.6246950475544243 -0.6246950475544244 -0.4685212856658182
vn -0.7071067811865477 0.7071067811865475 -7.189261425906574e-17
vn 1.2246467991473532e-16 0 1
vn 0.8637789008984333 0 -0.5038710255240864
vn -1 0 1.2246467991473532e-16
vn 1.2246467991473532e-16 0 1
vn 0.6246950475544242 0.6246950475544243 -0.46852128566581847
vn -0.7071067811865476 -0.7071067811865476 2.4042240727432285e-16
vn 1.2246467991473532e-16 0 1
vn -6.170640385911667e-17 0.8637789008984333 -0.5038710255240864
vn 2.6010333578984005e-32 -1 2.1239049166742126e-16
vn 1.2246467991473532e-16 0 1
vn -0.6246950475544243 0.6246950475544242 -0.46852128566581824
vn 0.7071067811865472 -0.7071067811865479 7.189261425906593e-17
vn 1.2246467991473532e-16 0 1
vn -0.8637789008984336 0 -0.5038710255240861
vn 1 -2.1442523866471429e-16 -1.2246467991473527e-16
vn 1.2246467991473532e-16 0 1
vn -0.6246950475544244 -0.6246950475544243 -0.46852128566581797
vn 0.7071067811865476 0.7071067811865475 -2.40422407274323e-16
vn 1.2246467991473532e-16 0 1
vn -6.170640385911664e-17 -0.8637789008984337 -0.5038710255240861
vn 4.2885047732942857e-16 1 -2.123904916674213e-16
vn 1.2246467991473532e-16 0 1
vn -0.7012190862924966 0.7012190862924966 -0.1287772729880256
vn -1.3046544886187249e-17 0.994309153919809 -0.1065331236342655
vn 0.7012190862924966 0.7012190862924966 -0.12877727298802585
vn 0.994309153919809 0 -0.10653312363426531
vn 0.7012190862924966 -0.7012190862924966 -0.12877727298802552
vn -1.3046544886187187e-17 -0.994309153919809 -0.106533123634265
vn -0.7012190862924966 -0.7012190862924966 -0.12877727298802527
vn -0.994309153919809 0 -0.10653312363426512
usemtl m_757821e5-f43c-3278-c938-6c055d43e4f9
f 51/145/41 52/146/41 53/147/41
f 54/148/42 55/149/42 56/150/42 57/151/42
f 57/152/43 56/153/43 58/154/43
f 59/155/44 51/156/44 53/157/44
f 55/158/45 60/159/45 61/160/45 56/161/45
f 56/162/46 61/163/46 58/164/46
f 62/165/47 59/166/47 53/167/47
f 60/168/48 63/169/48 64/170/48 61/171/48
f 61/172/49 64/173/49 58/174/49
f 65/175/50 62/176/50 53/177/50
f 63/178/51 66/179/51 67/180/51 64/181/51
f 64/182/52 67/183/52 58/184/52
f 68/185/53 65/186/53 53/187/53
f 66/188/54 69/189/54 70/190/54 67/191/54
f 67/192/55 70/193/55 58/194/55
f 71/195/56 68/196/56 53/197/56
f 69/198/57 72/199/57 73/200/57 70/201/57
f 70/202/58 73/203/58 58/204/58
f 74/205/59 71/206/59 53/207/59
f 72/208/60 75/209/60 76/210/60 73/211/60
f 73/212/61 76/213/61 58/214/61
f 52/215/62 74/216/62 53/217/62
f 75/218/63 54/219/63 57/220/63 76/221/63
f 76/222/64 57/223/64 58/224/64
f 52/225/65 51/226/65 55/227/65 54/228/65
f 74/229/66 52/230/66 54/231/66 75/232/66
f 71/233/67 74/234/67 75/235/67 72/236/67
f 68/237/68 71/238/68 72/239/68 69/240/68
f 65/241/69 68/242/69 69/243/69 66/244/69
f 62/245/70 65/246/70 66/247/70 63/248/70
f 59/249/71 62/250/71 63/251/71 60/252/71
f 51/253/72 59/254/72 60/255/72 55/256/72
o cuboid
v -0.2187499999999999 0 1
v -0.2187500000000002 0 -1.625
v -0.2187500000000002 0.0000625 -1.625
v -0.2187499999999999 0.0000625 1
v -0.1562500000000002 -0.03125 -1.625
v -0.1562500000000002 0.03125 -1.625
v -0.1562499999999999 0.03125 1
v -0.1562499999999999 -0.03125 1
v -0.15625000000000022 0 -1.75
v -0.15625000000000022 0.0000625 -1.75
v -0.09375000000000021 0.03125 -1.75
v -0.09375000000000021 -0.03125 -1.75
v -0.09374999999999983 0 1.3125
v -0.09374999999999983 0.0000625 1.3125
v -0.03124999999999984 0.03125 1.3125
v -0.03124999999999984 -0.03125 1.3125
vt 0.419473046875 0.6640546875
vt 0.708535546875 0.6640546875
vt 0.708535546875 0.6640625
vt 0.419473046875 0.6640625
vt 0.59375 0.9921875
vt 0.59375 1
vt 0.2890625 1
vt 0.2890625 0.9921875
vt 0.2890625 0.984375
vt 0.2890625 0.9765625
vt 0.59375 0.9765625
vt 0.59375 0.984375
vt 0.59375 0.96875
vt 0.2890625 0.96875
vt 0.2890625 0.9609375
vt 0.59375 0.9609375
vt 0.2578125 0.9921875
vt 0.2578125 0.9921875
vt 0.25349385621484344 1
vt 0.25 0.9930122875703131
vt 0.2578125 0.890625
vt 0.2578125 0.890625
vt 0.25349385621484344 0.8984375
vt 0.25 0.8914497875703131
vt 0.377401953125 0.6640625
vt 0.377401953125 0.6640546875
vt 0.419473046875 0.6640546875
vt 0.419473046875 0.6640625
vt 0.359375 0.7890625
vt 0.36227656249999995 0.78125
vt 0.40434765625 0.78125
vt 0.40144609374999995 0.7890625
vt 0.3828125 0.6328125
vt 0.3828125 0.640625
vt 0.34375 0.640625
vt 0.34375 0.6328125
vt 0.36227656249999995 0.7734375
vt 0.359375 0.765625
vt 0.40144609374999995 0.765625
vt 0.40434765625 0.7734375
vt 0.25 0.796875
vt 0.25 0.7890625
vt 0.2578125 0.7890625
vt 0.2578125 0.796875
vt 0.37405234375 0.7421875
vt 0.3795765625 0.734375
vt 0.390625 0.734375
vt 0.38510078125 0.7421875
vt 0.3125 0.7109375
vt 0.3125 0.71875
vt 0.3046875 0.71875
vt 0.3046875 0.7109375
vt 0.3795765625 0.7265625
vt 0.37405234375 0.71875
vt 0.38510078125 0.71875
vt 0.390625 0.7265625
vn 1 0 -1.2246467991473532e-16
vn 1 0 -1.2246467991473532e-16
vn -0.44721359549995804 0.8944271909999161 5.4767869826420275e-17
vn -0.4479287079279351 -0.8940692773012676 5.485544584101554e-17
vn -1.2246467991473532e-16 0 -1
vn -1.2246467991473532e-16 0 -1
vn 0.9284766908852594 0 -0.3713906763541039
vn 0.4395424727383323 -0.8808466387541729 -0.17581698909533294
vn -0.9284766908852594 0 0.37139067635410383
vn 0.4402254531628119 0.8804509063256238 -0.17609018126512482
vn -0.894427190999916 0 -0.44721359549995787
vn -0.43577026038095845 0.8732870949518206 -0.21788513019047917
vn 0.8944271909999161 0 0.4472135954999579
vn -0.4364357804719848 -0.8728715609439696 -0.21821789023599233
usemtl m_757821e5-f43c-3278-c938-6c055d43e4f9
f 77/257/73 78/258/73 79/259/73 80/260/73
f 81/261/74 82/262/74 83/263/74 84/264/74
f 82/265/75 78/266/75 77/267/75 83/268/75
f 80/269/76 79/270/76 81/271/76 84/272/76
f 85/273/77 86/274/77 87/275/77 88/276/77
f 89/277/78 90/278/78 91/279/78 92/280/78
f 90/281/79 89/282/79 77/283/79 80/284/79
f 91/285/80 90/286/80 80/287/80 83/288/80
f 92/289/81 91/290/81 83/291/81 84/292/81
f 89/293/82 92/294/82 84/295/82 77/296/82
f 86/297/83 85/298/83 78/299/83 79/300/83
f 87/301/84 86/302/84 79/303/84 82/304/84
f 88/305/85 87/306/85 82/307/85 81/308/85
f 85/309/86 88/310/86 81/311/86 78/312/86
o cuboid1
v 0.2187500000000001 -1.5308084989341915e-17 1
v 0.2187499999999998 -1.5308084989341915e-17 -1.625
v 0.2187499999999998 -0.00006250000000001532 -1.625
v 0.2187500000000001 -0.00006250000000001532 1
v 0.1562499999999998 0.031249999999999993 -1.625
v 0.1562499999999998 -0.03125000000000001 -1.625
v 0.1562500000000001 -0.03125000000000001 1
v 0.1562500000000001 0.031249999999999993 1
v 0.15624999999999978 -7.654042494670958e-18 -1.75
v 0.15624999999999978 -0.00006250000000000766 -1.75
v 0.09374999999999979 -0.03125 -1.75
v 0.09374999999999979 0.03125 -1.75
v 0.09375000000000017 0 1.3125
v 0.09375000000000017 -0.0000625 1.3125
v 0.03125000000000016 -0.031249999999999993 1.3125
v 0.03125000000000017 0.03125000000000001 1.3125
vt 0.4194734375 0.6796796875
vt 0.7085359375 0.6796796875
vt 0.7085359375 0.6796875
vt 0.4194734375 0.6796875
vt 0.59375 0.9453125
vt 0.59375 0.953125
vt 0.2890625 0.953125
vt 0.2890625 0.9453125
vt 0.2890625 0.9375
vt 0.2890625 0.9296875
vt 0.59375 0.9296875
vt 0.59375 0.9375
vt 0.5937500000000001 0.921875
vt 0.2890625 0.921875
vt 0.2890625 0.9140625
vt 0.5937500000000001 0.9140625
vt 0.28125 0.65625
vt 0.28125 0.65625
vt 0.27693135621484344 0.6640625
vt 0.2734375 0.6570747875703131
vt 0.3515625 0.8984375
vt 0.3515625 0.8984375
vt 0.34724385621484344 0.90625
vt 0.34375 0.8992622875703131
vt 0.3774015625 0.6796875
vt 0.3774015625 0.6796796875
vt 0.4194734375 0.6796796875
vt 0.4194734375 0.6796875
vt 0.1875 0.640625
vt 0.19040156249999998 0.6328125
vt 0.2324734375 0.6328125
vt 0.22957187499999998 0.640625
vt 0.40625 0.75
vt 0.40625 0.7578125
vt 0.3671875 0.7578125
vt 0.3671875 0.75
vt 0.36227656249999995 0.8046875
vt 0.359375 0.796875
vt 0.401446875 0.796875
vt 0.4043484375 0.8046875
vt 0.34375 0.890625
vt 0.34375 0.8828125
vt 0.3515625 0.8828125
vt 0.3515625 0.890625
vt 0.37405234375 0.7109375
vt 0.3795765625 0.703125
vt 0.390625 0.703125
vt 0.38510078125 0.7109375
vt 0.28125 0.640625
vt 0.28125 0.6484375
vt 0.2734375 0.6484375
vt 0.2734375 0.640625
vt 0.3795765625 0.6953125
vt 0.37405234375 0.6875
vt 0.38510078125 0.6875
vt 0.390625 0.6953125
vn -1 0 1.2246467991473532e-16
vn -1 0 1.2246467991473532e-16
vn 0.447213595499958 -0.8944271909999161 -5.476786982642027e-17
vn 0.4479287079279352 0.8940692773012676 -5.485544584101555e-17
vn -1.2246467991473532e-16 0 -1
vn -1.2246467991473532e-16 0 -1
vn -0.9284766908852594 0 -0.37139067635410367
vn -0.43954247273833214 0.8808466387541729 -0.17581698909533286
vn 0.9284766908852594 -1.0308162000485892e-16 0.3713906763541036
vn -0.4402254531628121 -0.8804509063256238 -0.17609018126512474
vn 0.894427190999916 0 -0.4472135954999581
vn 0.4357702603809584 -0.8732870949518206 -0.21788513019047928
vn -0.8944271909999159 0 0.44721359549995804
vn 0.4364357804719849 0.8728715609439696 -0.21821789023599245
usemtl m_757821e5-f43c-3278-c938-6c055d43e4f9
f 93/313/87 94/314/87 95/315/87 96/316/87
f 97/317/88 98/318/88 99/319/88 100/320/88
f 98/321/89 94/322/89 93/323/89 99/324/89
f 96/325/90 95/326/90 97/327/90 100/328/90
f 101/329/91 102/330/91 103/331/91 104/332/91
f 105/333/92 106/334/92 107/335/92 108/336/92
f 106/337/93 105/338/93 93/339/93 96/340/93
f 107/341/94 106/342/94 96/343/94 99/344/94
f 108/345/95 107/346/95 99/347/95 100/348/95
f 105/349/96 108/350/96 100/351/96 93/352/96
f 102/353/97 101/354/97 94/355/97 95/356/97
f 103/357/98 102/358/98 95/359/98 98/360/98
f 104/361/99 103/362/99 98/363/99 97/364/99
f 101/365/100 104/366/100 97/367/100 94/368/100