# Made in Blockbench 4.11.2
mtllib artillery_cannon.mtl

g Main 
o cylinder
v -3.0247562280809216e-17 0 -0.42153625794580113
v -3.0247562280809216e-17 0.2875 -0.42153625794580113
v 0.5845296417675957 0 1.3996257109401133
v 1.4882352941176462 0 1.1617834552682837
v 1.5812499999999994 0.2875 1.1705844756764465
v 1.488235294117647 0 -1.6190779099353954
v 1.5812499999999998 0.2875 -1.6909529099353953
v 0.6775443476499503 0 -2.5124999999999997
v 0.7705590535323031 0.2875 -2.512499999999999
v 0.5845296417675957 0.2875 1.4406249999999998
v -0.5845296417675957 0 1.3996257109401133
v -1.4882352941176462 0 1.1617834552682837
v -1.5812499999999994 0.2875 1.1705844756764465
v -1.488235294117647 0 -1.6190779099353954
v -1.5812499999999998 0.2875 -1.6909529099353953
v -0.6775443476499503 0 -2.5124999999999997
v -0.7705590535323031 0.2875 -2.512499999999999
v -0.5845296417675957 0.2875 1.4406249999999998
vt 0.11379921875 0.4609375
vt 0.05026328125 0.4609375
vt 0.08203125 0.559913671875
vt 0.54153359375 0.9980776146758443
vt 0.54153359375 0.9822944115508444
vt 0.47799765625 0.9822944115508444
vt 0.47799765625 0.9980776146758443
vt 0.05416953125 1
vt 0.11770546875 1
vt 0.0859375 0.898795703125
vt 0.045208203125 0.673553125
vt 0.118854296875 0.673553125
vt 0.08203125 0.559913671875
vt 0.143440625 0.3984375
vt 0.138385546875 0.3828125
vt 0.064739453125 0.3828125
vt 0.059684375 0.3984375
vt 0.127815625 0.78515625
vt 0.044059375 0.78515625
vt 0.0859375 0.898795703125
vt 0.162913671875 0.473863671875
vt 0.11379921875 0.4609375
vt 0.08203125 0.559913671875
vt 0.162913671875 0.62499765625
vt 0.162913671875 0.473863671875
vt 0.08203125 0.559913671875
vt 0.7530623046875 0.96484375
vt 0.6019283203125 0.96484375
vt 0.5980220703125 0.98046875
vt 0.7535404296875 0.98046875
vt 0.171875 0.985323828125
vt 0.171875 0.82980546875
vt 0.0859375 0.898795703125
vt 0.118854296875 0.673553125
vt 0.162913671875 0.62499765625
vt 0.08203125 0.559913671875
vt 0.679183203125 0.54296875
vt 0.613617578125 0.54296875
vt 0.617014453125 0.55798203125
vt 0.6796875 0.55859375
vt 0.171875 0.82980546875
vt 0.127815625 0.78515625
vt 0.0859375 0.898795703125
vt 0.47799765625 0.9822944115508444
vt 0.4272437621994607 0.98046875
vt 0.42191446381302333 0.9960098752785678
vt 0.47799765625 0.9980725781161057
vt 0.11770546875 1
vt 0.171875 0.985323828125
vt 0.0859375 0.898795703125
vt 0.11379921875 0.4609375
vt 0.162913671875 0.473863671875
vt 0.08203125 0.559913671875
vt 0.162913671875 0.473863671875
vt 0.162913671875 0.62499765625
vt 0.08203125 0.559913671875
vt 0.5980220703125 0.98046875
vt 0.6019283203125 0.96484375
vt 0.7530623046875 0.96484375
vt 0.7535404296875 0.98046875
vt 0.171875 0.82980546875
vt 0.171875 0.985323828125
vt 0.0859375 0.898795703125
vt 0.162913671875 0.62499765625
vt 0.118854296875 0.673553125
vt 0.08203125 0.559913671875
vt 0.617014453125 0.55798203125
vt 0.613617578125 0.54296875
vt 0.679183203125 0.54296875
vt 0.6796875 0.55859375
vt 0.127815625 0.78515625
vt 0.171875 0.82980546875
vt 0.0859375 0.898795703125
vt 0.42191446381302333 0.9960098752785678
vt 0.4272437621994607 0.98046875
vt 0.47799765625 0.9822944115508444
vt 0.47799765625 0.9980725781161057
vt 0.171875 0.985323828125
vt 0.11770546875 1
vt 0.0859375 0.898795703125
vn 0 -1 0
vn 0 -0.14117791321359174 0.9899842406930808
vn 0 1 0
vn 0 -1 0
vn 0 3.089316242435219e-15 -1
vn 0 1 0
vn 0 -1 0
vn 0 -1 0
vn 0.9514445185544118 -0.3078202854146618 3.0388155968361613e-16
vn 0 1 0
vn 0 -1 0
vn 0.7201805014594814 -0.2329995740015946 -0.6534915790066811
vn 0 1 0
vn 0.2529382691650427 -0.11125331063074004 0.9610644790363926
vn 0 1 0
vn 0 -1 0
vn 0 -1 0
vn -0.9514445185544118 -0.3078202854146619 3.05533089899288e-16
vn 0 1 0
vn 0 -1 0
vn -0.7201805014594815 -0.2329995740015947 -0.6534915790066811
vn 0 1 0
vn -0.2529382691650427 -0.11125331063074002 0.9610644790363926
vn 0 1 0
usemtl m_59b907b3-41bb-f9fc-8b7c-670a70f659df
f 3/1/1 11/2/1 1/3/1
f 18/4/2 11/5/2 3/6/2 10/7/2
f 18/8/3 10/9/3 2/10/3
f 16/11/4 8/12/4 1/13/4
f 9/14/5 8/15/5 16/16/5 17/17/5
f 9/18/6 17/19/6 2/20/6
f 4/21/7 3/22/7 1/23/7
f 6/24/8 4/25/8 1/26/8
f 4/27/9 6/28/9 7/29/9 5/30/9
f 5/31/10 7/32/10 2/33/10
f 8/34/11 6/35/11 1/36/11
f 6/37/12 8/38/12 9/39/12 7/40/12
f 7/41/13 9/42/13 2/43/13
f 3/44/14 4/45/14 5/46/14 10/47/14
f 10/48/15 5/49/15 2/50/15
f 11/51/16 12/52/16 1/53/16
f 12/54/17 14/55/17 1/56/17
f 15/57/18 14/58/18 12/59/18 13/60/18
f 15/61/19 13/62/19 2/63/19
f 14/64/20 16/65/20 1/66/20
f 17/67/21 16/68/21 14/69/21 15/70/21
f 17/71/22 15/72/22 2/73/22
f 13/74/23 12/75/23 11/76/23 18/77/23
f 13/78/24 18/79/24 2/80/24
g Main 
o cylinder5
v 0 0.2875 -0.4215362579458013
v 0 1.2218749999999998 -0.4215362579458013
v 0.5845296417675957 0.2875 1.4406249999999998
v 0.5845296417675957 1.2218749999999998 1.1033727835396454
v 1.5812499999999996 0.2875 1.1705844756764465
v 1.2091911764705878 1.2218749999999998 0.9404113408487452
v 1.5812499999999998 0.2875 -1.6909529099353957
v 1.2091911764705883 1.2218749999999998 -1.6058523328193037
v 0.770559053532303 0.2875 -2.5124999999999993
v 0.3985002300028913 1.2218749999999998 -2.3101486701237866
v -0.5845296417675957 0.2875 1.4406249999999998
v -0.5845296417675957 1.2218749999999998 1.1033727835396454
v -1.5812499999999996 0.2875 1.1705844756764465
v -1.2091911764705878 1.2218749999999998 0.9404113408487452
v -1.5812499999999998 0.2875 -1.6909529099353957
v -1.2091911764705883 1.2218749999999998 -1.6058523328193037
v -0.770559053532303 0.2875 -2.5124999999999993
v -0.3985002300028913 1.2218749999999998 -2.3101486701237866
vt 0.27395546875 0.62890625
vt 0.21041953125 0.62890625
vt 0.2421875 0.730110546875
vt 0.5117187500000001 0.53125
vt 0.5117187500000001 0.47265625
vt 0.4453125000000001 0.47265625
vt 0.4453125000000001 0.53125
vt 0.36666953125 0.80859375
vt 0.43020546875 0.80859375
vt 0.3984375 0.7257183593750001
vt 0.200309375 0.84375
vt 0.284065625 0.84375
vt 0.2421875 0.730110546875
vt 0.22868906249999998 0.51171875
vt 0.248909375 0.4609375
vt 0.165153125 0.4609375
vt 0.1853734375 0.51171875
vt 0.4200953125 0.623076171875
vt 0.3767796875 0.623076171875
vt 0.3984375 0.7257183593750001
vt 0.22478281249999998 0.45703125
vt 0.245003125 0.40625
vt 0.161246875 0.40625
vt 0.1814671875 0.45703125
vt 0.6115015625 0.47265625
vt 0.631721875 0.421875
vt 0.547965625 0.421875
vt 0.5681859375 0.47265625
vt 0.3107203125 0.4375
vt 0.330940625 0.38671875
vt 0.247184375 0.38671875
vt 0.2674046875 0.4375
vt 0.328125 0.643582421875
vt 0.27395546875 0.62890625
vt 0.2421875 0.730110546875
vt 0.44674765625 0.4742544877174908
vt 0.39084700308061276 0.47923702463345386
vt 0.41179313106897497 0.53125
vt 0.44674765625 0.5282414967164668
vt 0.43020546875 0.80859375
vt 0.464154296875 0.799737109375
vt 0.3984375 0.7257183593750001
vt 0.328125 0.79910078125
vt 0.328125 0.643582421875
vt 0.2421875 0.730110546875
vt 0.1558841796875 0.40234375
vt 0.0003658203125000009 0.40234375
vt 0.004990820312500005 0.45703125
vt 0.14337480468750002 0.45703125
vt 0.464154296875 0.799737109375
vt 0.464154296875 0.661353125
vt 0.3984375 0.7257183593750001
vt 0.284065625 0.84375
vt 0.328125 0.79910078125
vt 0.2421875 0.730110546875
vt 0.49609375 0.35546875
vt 0.433366015625 0.35546875
vt 0.42699101562499997 0.41015625
vt 0.485183203125 0.40836914062499996
vt 0.464154296875 0.661353125
vt 0.4200953125 0.623076171875
vt 0.3984375 0.7257183593750001
vt 0.27395546875 0.62890625
vt 0.328125 0.643582421875
vt 0.2421875 0.730110546875
vt 0.41179313106897497 0.53125
vt 0.39084700308061276 0.47923702463345386
vt 0.44674765625 0.4742544877174908
vt 0.44674765625 0.5282414967164668
vt 0.464154296875 0.799737109375
vt 0.43020546875 0.80859375
vt 0.3984375 0.7257183593750001
vt 0.328125 0.643582421875
vt 0.328125 0.79910078125
vt 0.2421875 0.730110546875
vt 0.004990820312500005 0.45703125
vt 0.0003658203125000009 0.40234375
vt 0.1558841796875 0.40234375
vt 0.14337480468750002 0.45703125
vt 0.464154296875 0.661353125
vt 0.464154296875 0.799737109375
vt 0.3984375 0.7257183593750001
vt 0.328125 0.79910078125
vt 0.284065625 0.84375
vt 0.2421875 0.730110546875
vt 0.42699101562499997 0.41015625
vt 0.433366015625 0.35546875
vt 0.49609375 0.35546875
vt 0.485183203125 0.40836914062499996
vt 0.4200953125 0.623076171875
vt 0.464154296875 0.661353125
vt 0.3984375 0.7257183593750001
vn 0 -1 0
vn 0 0.33950110239218834 0.9406056567310708
vn 0 1 0
vn 0 -1 0
vn 0 0.21165684751894906 -0.9773440432612972
vn 0 1 0
vn 0 0.21165684751894906 -0.9773440432612972
vn 0 0.21165684751894906 -0.9773440432612972
vn 0 0.21165684751894906 -0.9773440432612972
vn 0 -1 0
vn 0.2474393259361993 0.32350923386114944 0.9132992694548767
vn 0 1 0
vn 0 -1 0
vn 0.9290554034830266 0.3699406131516122 7.209122657530674e-17
vn 0 1 0
vn 0 -1 0
vn 0.6525839597187651 0.39931065365976676 -0.6439605402441885
vn 0 1 0
vn 0 -1 0
vn -0.2474393259361993 0.32350923386114944 0.9132992694548767
vn 0 1 0
vn 0 -1 0
vn -0.9290554034830266 0.3699406131516122 7.715448998026139e-17
vn 0 1 0
vn 0 -1 0
vn -0.6525839597187651 0.39931065365976676 -0.6439605402441884
vn 0 1 0
usemtl m_59b907b3-41bb-f9fc-8b7c-670a70f659df
f 21/81/25 29/82/25 19/83/25
f 30/84/26 29/85/26 21/86/26 22/87/26
f 30/88/27 22/89/27 20/90/27
f 35/91/28 27/92/28 19/93/28
f 28/94/29 27/95/29 35/96/29 36/97/29
f 28/98/30 36/99/30 20/100/30
f 28/101/31 27/102/31 35/103/31 36/104/31
f 28/105/32 27/106/32 35/107/32 36/108/32
f 28/109/33 27/110/33 35/111/33 36/112/33
f 23/113/34 21/114/34 19/115/34
f 21/116/35 23/117/35 24/118/35 22/119/35
f 22/120/36 24/121/36 20/122/36
f 25/123/37 23/124/37 19/125/37
f 23/126/38 25/127/38 26/128/38 24/129/38
f 24/130/39 26/131/39 20/132/39
f 27/133/40 25/134/40 19/135/40
f 25/136/41 27/137/41 28/138/41 26/139/41
f 26/140/42 28/141/42 20/142/42
f 29/143/43 31/144/43 19/145/43
f 32/146/44 31/147/44 29/148/44 30/149/44
f 32/150/45 30/151/45 20/152/45
f 31/153/46 33/154/46 19/155/46
f 34/156/47 33/157/47 31/158/47 32/159/47
f 34/160/48 32/161/48 20/162/48
f 33/163/49 35/164/49 19/165/49
f 36/166/50 35/167/50 33/168/50 34/169/50
f 36/170/51 34/171/51 20/172/51
g Main 
o cylinder_selection
v 0.662746553532303 0.2875 -2.5304687499999994
v 0.342744209941561 1.2218749999999998 -2.3281174201237866
v -0.662746553532303 0.2875 -2.5304687499999994
v -0.342744209941561 1.2218749999999998 -2.3281174201237866
vt 0.64558046875 0.41796875
vt 0.662971875 0.3671875
vt 0.590934375 0.3671875
vt 0.60832578125 0.41796875
vn 0 0.2116568475189491 -0.9773440432612972
usemtl m_59b907b3-41bb-f9fc-8b7c-670a70f659df
f 38/173/52 37/174/52 39/175/52 40/176/52
g Main 
o cube
v 1.3656249999999999 1.2218749999999998 0.3624999999999998
v 1.3656249999999999 1.2218749999999998 -1.146875
v 1.3656249999999999 1.2218749999999998 0.3624999999999998
v 1.3656249999999999 1.2218749999999998 -1.146875
v -1.3656249999999999 1.2218749999999998 -1.146875
v -1.3656249999999999 1.2218749999999998 0.3624999999999998
v -1.3656249999999999 1.2218749999999998 -1.146875
v -1.3656249999999999 1.2218749999999998 0.3624999999999998
vt 0.78515625 0.421875
vt 0.63671875 0.421875
vt 0.63671875 0.421875
vt 0.78515625 0.421875
vt 0.55078125 0.96484375
vt 0.46875 0.96484375
vt 0.46875 0.96484375
vt 0.55078125 0.96484375
vt 0.78515625 0.52734375
vt 0.63671875 0.52734375
vt 0.63671875 0.52734375
vt 0.78515625 0.52734375
vt 0.72265625 0.36328125
vt 0.640625 0.36328125
vt 0.640625 0.36328125
vt 0.72265625 0.36328125
vt 0.1484375 0.78125
vt 0 0.78125
vt 0 0.69921875
vt 0.1484375 0.69921875
vt 0.6171875 0.62109375
vt 0.46875 0.62109375
vt 0.46875 0.703125
vt 0.6171875 0.703125
vn 0 0 -1
vn 1 0 0
vn 0 0 1
vn -1 0 0
vn 0 1 0
vn 0 -1 0
usemtl m_59b907b3-41bb-f9fc-8b7c-670a70f659df
f 44/180/53 47/179/53 45/178/53 42/177/53
f 43/184/54 44/183/54 42/182/54 41/181/54
f 48/188/55 43/187/55 41/186/55 46/185/55
f 47/192/56 48/191/56 46/190/56 45/189/56
f 46/196/57 41/195/57 42/194/57 45/193/57
f 47/200/58 44/199/58 43/198/58 48/197/58
g Main 
o cube1
v 1.7249999999999999 0.2875 0.3624999999999998
v 1.7249999999999999 0.2875 -1.146875
v 1.7249999999999999 0.2875 0.3624999999999998
v 1.7249999999999999 0.2875 -1.146875
v -1.7249999999999999 0.2875 -1.146875
v -1.7249999999999999 0.2875 0.3624999999999998
v -1.7249999999999999 0.2875 -1.146875
v -1.7249999999999999 0.2875 0.3624999999999998
vt 0.83203125 0.73046875
vt 0.64453125 0.73046875
vt 0.64453125 0.73046875
vt 0.83203125 0.73046875
vt 0.7265625 0.734375
vt 0.64453125 0.734375
vt 0.64453125 0.734375
vt 0.7265625 0.734375
vt 0.83203125 0.73828125
vt 0.64453125 0.73828125
vt 0.64453125 0.73828125
vt 0.83203125 0.73828125
vt 0.7265625 0.7265625
vt 0.64453125 0.7265625
vt 0.64453125 0.7265625
vt 0.7265625 0.7265625
vt 0.578125 0.6171875
vt 0.390625 0.6171875
vt 0.390625 0.53515625
vt 0.578125 0.53515625
vt 0.6015625 0.87890625
vt 0.4140625 0.87890625
vt 0.4140625 0.9609375
vt 0.6015625 0.9609375
vn 0 0 -1
vn 1 0 0
vn 0 0 1
vn -1 0 0
vn 0 1 0
vn 0 -1 0
usemtl m_59b907b3-41bb-f9fc-8b7c-670a70f659df
f 52/204/59 55/203/59 53/202/59 50/201/59
f 51/208/60 52/207/60 50/206/60 49/205/60
f 56/212/61 51/211/61 49/210/61 54/209/61
f 55/216/62 56/215/62 54/214/62 53/213/62
f 54/220/63 49/219/63 50/218/63 53/217/63
f 55/224/64 52/223/64 51/222/64 56/221/64
g Main 
o cube2
v 1.5812499999999998 0.71875 0.3624999999999998
v 1.5812499999999998 0.71875 -1.146875
v 1.5812499999999998 0.71875 0.3624999999999998
v 1.5812499999999998 0.71875 -1.146875
v -1.5812499999999998 0.71875 -1.146875
v -1.5812499999999998 0.71875 0.3624999999999998
v -1.5812499999999998 0.71875 -1.146875
v -1.5812499999999998 0.71875 0.3624999999999998
vt 0.81640625 0.71484375
vt 0.64453125 0.71484375
vt 0.64453125 0.71484375
vt 0.81640625 0.71484375
vt 0.7265625 0.71875
vt 0.64453125 0.71875
vt 0.64453125 0.71875
vt 0.7265625 0.71875
vt 0.81640625 0.72265625
vt 0.64453125 0.72265625
vt 0.64453125 0.72265625
vt 0.81640625 0.72265625
vt 0.7265625 0.7109375
vt 0.64453125 0.7109375
vt 0.64453125 0.7109375
vt 0.7265625 0.7109375
vt 0.640625 0.875
vt 0.46875 0.875
vt 0.46875 0.79296875
vt 0.640625 0.79296875
vt 0.640625 0.70703125
vt 0.46875 0.70703125
vt 0.46875 0.7890625
vt 0.640625 0.7890625
vn 0 0 -1
vn 1 0 0
vn 0 0 1
vn -1 0 0
vn 0 1 0
vn 0 -1 0
usemtl m_59b907b3-41bb-f9fc-8b7c-670a70f659df
f 60/228/65 63/227/65 61/226/65 58/225/65
f 59/232/66 60/231/66 58/230/66 57/229/66
f 64/236/67 59/235/67 57/234/67 62/233/67
f 63/240/68 64/239/68 62/238/68 61/237/68
f 62/244/69 57/243/69 58/242/69 61/241/69
f 63/248/70 60/247/70 59/246/70 64/245/70
g Main 
o cylinder12
v 0 1.2218749999999998 -0.5
v 0 1.509375 -0.5
v 0.5845296417675957 1.2218749999999998 1.1033727835396454
v 0.446573996933493 1.509375 0.7218750000000003
v 1.2091911764705878 1.2218749999999998 0.9404113408487451
v 1.0781249999999998 1.509375 0.5020183950935901
v 1.2091911764705883 1.2218749999999998 -1.6058523328193035
v 1.078125 1.509375 -1.4301433950935893
v 0.3985002300028913 1.2218749999999998 -2.3101486701237866
v 0.37469899693349384 1.509375 -2.1531249999999993
v -0.5845296417675957 1.2218749999999998 1.1033727835396454
v -0.446573996933493 1.509375 0.7218750000000003
v -1.2091911764705878 1.2218749999999998 0.9404113408487451
v -1.0781249999999998 1.509375 0.5020183950935901
v -1.2091911764705883 1.2218749999999998 -1.6058523328193035
v -1.078125 1.509375 -1.4301433950935893
v -0.3985002300028913 1.2218749999999998 -2.3101486701237866
v -0.37469899693349384 1.509375 -2.1531249999999993
vt 0.35208046875 0.44140625
vt 0.28854453125 0.44140625
vt 0.3203125 0.52854609375
vt 0.8138507812500001 0.9921875
vt 0.8213484375000001 0.96622578125
vt 0.7578125000000001 0.96622578125
vt 0.7653101562500001 0.9921875
vt 0.3253235947986951 0.9707100693745132
vt 0.3738642197986951 0.9707100693745132
vt 0.3495939072986951 0.9043038193745132
vt 0.2986546875 0.626923828125
vt 0.3419703125 0.626923828125
vt 0.32031250000000006 0.5285460937500001
vt 0.4188015625 0.375
vt 0.4200953125 0.35546875
vt 0.3767796875 0.35546875
vt 0.3780734375 0.375
vt 0.3699579697986951 0.8144600693745132
vt 0.3292298447986951 0.8144600693745132
vt 0.3495939072986951 0.9043038193745132
vt 0.386029296875 0.450262890625
vt 0.35208046875 0.44140625
vt 0.3203125 0.52854609375
vt 0.38295260857435687 0.9961123658223996
vt 0.41679122128779994 0.9868417731149495
vt 0.4081876572986951 0.9587612412495132
vt 0.3738951552013049 0.9706993000042028
vt 0.3738642197986951 0.9707100693745132
vt 0.4081876572986951 0.9587612412495132
vt 0.3495939072986951 0.9043038193745132
vt 0.386029296875 0.588646875
vt 0.386029296875 0.450262890625
vt 0.3203125 0.52854609375
vt 0.7410669921874999 0.984375
vt 0.6026830078125001 0.984375
vt 0.6122326171875 1
vt 0.7172412109375 1
vt 0.4081876572986951 0.9587612412495132
vt 0.4081876572986951 0.8537526474995132
vt 0.3495939072986951 0.9043038193745132
vt 0.3419703125 0.626923828125
vt 0.386029296875 0.588646875
vt 0.3203125 0.5285460937500001
vt 0.268645703125 0.36328125
vt 0.210281640625 0.36328125
vt 0.214901953125 0.38087187499999997
vt 0.26953125 0.3828125
vt 0.4081876572986951 0.8537526474995132
vt 0.3699579697986951 0.8144600693745132
vt 0.3495939072986951 0.9043038193745132
vt 0.35208046875 0.44140625
vt 0.386029296875 0.450262890625
vt 0.3203125 0.52854609375
vt 0.4081876572986951 0.9587612412495132
vt 0.41679122128779994 0.9868417731149495
vt 0.38295260857435687 0.9961123658223996
vt 0.3738951552013049 0.9706993000042028
vt 0.4081876572986951 0.9587612412495132
vt 0.3738642197986951 0.9707100693745132
vt 0.3495939072986951 0.9043038193745132
vt 0.386029296875 0.450262890625
vt 0.386029296875 0.588646875
vt 0.3203125 0.52854609375
vt 0.6122326171875 1
vt 0.6026830078125001 0.984375
vt 0.7410669921874999 0.984375
vt 0.7172412109375 1
vt 0.4081876572986951 0.8537526474995132
vt 0.4081876572986951 0.9587612412495132
vt 0.3495939072986951 0.9043038193745132
vt 0.386029296875 0.588646875
vt 0.3419703125 0.626923828125
vt 0.3203125 0.5285460937500001
vt 0.214901953125 0.38087187499999997
vt 0.210281640625 0.36328125
vt 0.268645703125 0.36328125
vt 0.26953125 0.3828125
vt 0.3699579697986951 0.8144600693745132
vt 0.4081876572986951 0.8537526474995132
vt 0.3495939072986951 0.9043038193745132
vn 0 -1 0
vn 0 0.7986145818183248 0.6018427948452506
vn 0 1 0
vn 0 -1 0
vn 0 0.4793355033288127 -0.8776317423888643
vn 0 1 0
vn 0 -1 0
vn 0.13435882799548363 0.8465811497504776 0.5150223900247829
vn 0 1 0
vn 0 -1 0
vn 0.9099076659797817 0.41481084772607685 1.5869533882144018e-16
vn 0 1 0
vn 0 -1 0
vn 0.5943195563954153 0.4228365604307517 -0.6841005101949919
vn 0 1 0
vn 0 -1 0
vn -0.13435882799548368 0.8465811497504776 0.5150223900247829
vn 0 1 0
vn 0 -1 0
vn -0.9099076659797816 0.41481084772607674 1.5524544015140878e-16
vn 0 1 0
vn 0 -1 0
vn -0.5943195563954153 0.4228365604307517 -0.6841005101949917
vn 0 1 0
usemtl m_59b907b3-41bb-f9fc-8b7c-670a70f659df
f 67/249/71 75/250/71 65/251/71
f 76/252/72 75/253/72 67/254/72 68/255/72
f 76/256/73 68/257/73 66/258/73
f 81/259/74 73/260/74 65/261/74
f 74/262/75 73/263/75 81/264/75 82/265/75
f 74/266/76 82/267/76 66/268/76
f 69/269/77 67/270/77 65/271/77
f 67/272/78 69/273/78 70/274/78 68/275/78
f 68/276/79 70/277/79 66/278/79
f 71/279/80 69/280/80 65/281/80
f 69/282/81 71/283/81 72/284/81 70/285/81
f 70/286/82 72/287/82 66/288/82
f 73/289/83 71/290/83 65/291/83
f 71/292/84 73/293/84 74/294/84 72/295/84
f 72/296/85 74/297/85 66/298/85
f 75/299/86 77/300/86 65/301/86
f 78/302/87 77/303/87 75/304/87 76/305/87
f 78/306/88 76/307/88 66/308/88
f 77/309/89 79/310/89 65/311/89
f 80/312/90 79/313/90 77/314/90 78/315/90
f 80/316/91 78/317/91 66/318/91
f 79/319/92 81/320/92 65/321/92
f 82/322/93 81/323/93 79/324/93 80/325/93
f 82/326/94 80/327/94 66/328/94
g Gun Main 
o cuboid
v 0.2875 1.2218749999999998 1.009375
v 0.2875 1.078125 1.728125
v 0.2875 0.359375 1.009375
v 0.2875 0.503125 1.728125
v -0.2875 1.2218749999999998 1.009375
v -0.2875 1.078125 1.728125
v -0.2875 0.359375 1.009375
v -0.2875 0.503125 1.728125
vt 0.25390625 0.87109375
vt 0.25390625 0.91015625
vt 0.28515625 0.91015625
vt 0.28515625 0.87109375
vt 0.24609375 0.515625
vt 0.21484375 0.515625
vt 0.21484375 0.5546875
vt 0.24609375 0.5546875
vt 0.25390625 0.9609375
vt 0.28515625 0.9609375
vt 0.28515625 0.9140625
vt 0.25390625 0.9140625
vt 0.65234375 0.6328125
vt 0.62109375 0.6328125
vt 0.62109375 0.6640625
vt 0.65234375 0.6640625
vt 0.4140625 0.828125
vt 0.4140625 0.875
vt 0.453125 0.8671875
vt 0.453125 0.8359375
vt 0.453125 0.8671875
vt 0.4140625 0.875
vt 0.4140625 0.828125
vt 0.453125 0.8359375
vn 0 0.9805806756909203 0.19611613513818404
vn 0 -0.9805806756909203 0.19611613513818404
vn 0 0 -1
vn 0 0 1
vn 1 0 0
vn -1 0 0
usemtl m_59b907b3-41bb-f9fc-8b7c-670a70f659df
f 84/329/95 83/330/95 87/331/95 88/332/95
f 89/333/96 85/334/96 86/335/96 90/336/96
f 87/337/97 83/338/97 85/339/97 89/340/97
f 90/341/98 86/342/98 84/343/98 88/344/98
f 85/345/99 83/346/99 84/347/99 86/348/99
f 88/349/100 87/350/100 89/351/100 90/352/100
g Gun Main 
o cylinder6
v 0 0.8984374999999999 5.465624999999999
v 0 0.8984374999999999 1.7281249999999995
v 0.05954319959113241 0.7546875 5.465624999999999
v 0.05954319959113241 0.7546875 1.7281249999999995
v 0.14375 0.8388943004088675 5.465624999999999
v 0.14375 0.8388943004088675 1.7281249999999995
v 0.14375 0.9579806995911323 5.465624999999999
v 0.14375 0.9579806995911323 1.7281249999999995
v 0.05954319959113244 1.0421874999999998 5.465624999999999
v 0.05954319959113244 1.0421874999999998 1.7281249999999995
v -0.05954319959113241 0.7546875 5.465624999999999
v -0.05954319959113241 0.7546875 1.7281249999999995
v -0.14375 0.8388943004088675 5.465624999999999
v -0.14375 0.8388943004088675 1.7281249999999995
v -0.14375 0.9579806995911323 5.465624999999999
v -0.14375 0.9579806995911323 1.7281249999999995
v -0.05954319959113244 1.0421874999999998 5.465624999999999
v -0.05954319959113244 1.0421874999999998 1.7281249999999995
vt 0.0045765625 0.8046875
vt 0.011048437500000001 0.8046875
vt 0.0078125 0.796875
vt 0.5 0.20703125
vt 0.5 0.41015625
vt 0.5078125 0.41015625
vt 0.5078125 0.20703125
vt 0.1959828125 0.625
vt 0.2024546875 0.625
vt 0.19921875 0.6171875
vt 0.011048437500000001 0.7890625
vt 0.0045765625 0.7890625
vt 0.0078125 0.796875
vt 0.51953125 0.41015625
vt 0.51953125 0.20703125
vt 0.51171875 0.20703125
vt 0.51171875 0.41015625
vt 0.2024546875 0.609375
vt 0.1959828125 0.609375
vt 0.19921875 0.6171875
vt 0.0045765625 0.7890625
vt 0 0.7936390625
vt 0.0078125 0.796875
vt 0.60546875 0.9140625
vt 0.80859375 0.9140625
vt 0.80859375 0.90625
vt 0.60546875 0.90625
vt 0.20703125 0.6139515625
vt 0.2024546875 0.609375
vt 0.19921875 0.6171875
vt 0 0.7936390625
vt 0 0.8001109375
vt 0.0078125 0.796875
vt 0.60546875 0.9609375
vt 0.80859375 0.9609375
vt 0.80859375 0.953125
vt 0.60546875 0.953125
vt 0.20703125 0.6204234375
vt 0.20703125 0.6139515625
vt 0.19921875 0.6171875
vt 0 0.8001109375
vt 0.0045765625 0.8046875
vt 0.0078125 0.796875
vt 0.60546875 0.9375
vt 0.80859375 0.9375
vt 0.80859375 0.9296875
vt 0.60546875 0.9296875
vt 0.2024546875 0.625
vt 0.20703125 0.6204234375
vt 0.19921875 0.6171875
vt 0 0.7936390625
vt 0.0045765625 0.7890625
vt 0.0078125 0.796875
vt 0.80859375 0.90625
vt 0.80859375 0.9140625
vt 0.60546875 0.9140625
vt 0.60546875 0.90625
vt 0.2024546875 0.609375
vt 0.20703125 0.6139515625
vt 0.19921875 0.6171875
vt 0 0.8001109375
vt 0 0.7936390625
vt 0.0078125 0.796875
vt 0.80859375 0.953125
vt 0.80859375 0.9609375
vt 0.60546875 0.9609375
vt 0.60546875 0.953125
vt 0.20703125 0.6139515625
vt 0.20703125 0.6204234375
vt 0.19921875 0.6171875
vt 0.0045765625 0.8046875
vt 0 0.8001109375
vt 0.0078125 0.796875
vt 0.80859375 0.9296875
vt 0.80859375 0.9375
vt 0.60546875 0.9375
vt 0.60546875 0.9296875
vt 0.20703125 0.6204234375
vt 0.2024546875 0.625
vt 0.19921875 0.6171875
vn 0 0 1
vn 0 1 0
vn 0 0 -1
vn 0 0 1
vn 0 -1 0
vn 0 0 -1
vn 0 0 1
vn 0.7071067811865475 -0.7071067811865477 0
vn 0 0 -1
vn 0 0 1
vn 1 0 0
vn 0 0 -1
vn 0 0 1
vn 0.7071067811865477 0.7071067811865475 0
vn 0 0 -1
vn 0 0 1
vn -0.7071067811865475 -0.7071067811865477 0
vn 0 0 -1
vn 0 0 1
vn -1 0 0
vn 0 0 -1
vn 0 0 1
vn -0.7071067811865477 0.7071067811865475 0
vn 0 0 -1
usemtl m_59b907b3-41bb-f9fc-8b7c-670a70f659df
f 99/353/101 107/354/101 91/355/101
f 108/356/102 107/357/102 99/358/102 100/359/102
f 108/360/103 100/361/103 92/362/103
f 101/363/104 93/364/104 91/365/104
f 94/366/105 93/367/105 101/368/105 102/369/105
f 94/370/106 102/371/106 92/372/106
f 93/373/107 95/374/107 91/375/107
f 96/376/108 95/377/108 93/378/108 94/379/108
f 96/380/109 94/381/109 92/382/109
f 95/383/110 97/384/110 91/385/110
f 98/386/111 97/387/111 95/388/111 96/389/111
f 98/390/112 96/391/112 92/392/112
f 97/393/113 99/394/113 91/395/113
f 100/396/114 99/397/114 97/398/114 98/399/114
f 100/400/115 98/401/115 92/402/115
f 103/403/116 101/404/116 91/405/116
f 101/406/117 103/407/117 104/408/117 102/409/117
f 102/410/118 104/411/118 92/412/118
f 105/413/119 103/414/119 91/415/119
f 103/416/120 105/417/120 106/418/120 104/419/120
f 104/420/121 106/421/121 92/422/121
f 107/423/122 105/424/122 91/425/122
f 105/426/123 107/427/123 108/428/123 106/429/123
f 106/430/124 108/431/124 92/432/124
g Gun Main 
o cylinder7
v 0 0.8984374999999999 6.0406249999999995
v 0 0.8984374999999999 5.465624999999999
v 0.06766272680810502 0.7546875 6.0406249999999995
v 0.05954319959113241 0.7546875 5.465624999999999
v 0.2875 0.7546875 6.0406249999999995
v 0.14375 0.8388943004088675 5.465624999999999
v 0.2875 1.0421874999999998 6.0406249999999995
v 0.14375 0.9579806995911323 5.465624999999999
v 0.06766272680810505 1.0421874999999998 6.0406249999999995
v 0.06766272680810505 1.0421874999999998 5.465624999999999
v -0.06766272680810502 0.7546875 6.0406249999999995
v -0.05954319959113241 0.7546875 5.465624999999999
v -0.2875 0.7546875 6.0406249999999995
v -0.14375 0.8388943004088675 5.465624999999999
v -0.2875 1.0421874999999998 6.0406249999999995
v -0.14375 0.9579806995911323 5.465624999999999
v -0.06766272680810505 1.0421874999999998 6.0406249999999995
v -0.06766272680810505 1.0421874999999998 5.465624999999999
vt 0.25413515625 0.359375
vt 0.26148984375 0.359375
vt 0.2578125 0.3515625
vt 0.35179140625 0.34375
vt 0.35179140625 0.375
vt 0.35914609375 0.375
vt 0.35914609375 0.34375
vt 0.25804140625 0.625
vt 0.26539609375 0.625
vt 0.26171875 0.6171875
vt 0.26148984375 0.34375
vt 0.25413515625 0.34375
vt 0.2578125 0.3515625
vt 0.6399546875 0.6992205512000961
vt 0.64039609375 0.6679705512000961
vt 0.63304140625 0.6679705512000961
vt 0.6334828125 0.6992205512000961
vt 0.2649546875 0.609375
vt 0.2584828125 0.609375
vt 0.26171875 0.6171875
vt 0.25413515625 0.34375
vt 0.2421875 0.34375
vt 0.2578125 0.3515625
vt 0.6445360113612136 0.6995531305599154
vt 0.6523437498642277 0.66796875
vt 0.64039609375 0.6679705512000961
vt 0.6399593489185257 0.6988905392690754
vt 0.26953125 0.6139515625
vt 0.2649546875 0.609375
vt 0.26171875 0.6171875
vt 0.2421875 0.34375
vt 0.2421875 0.359375
vt 0.2578125 0.3515625
vt 0.43230854216071446 0.82421875
vt 0.46484375 0.82421875
vt 0.4626458605807674 0.8087491053014031
vt 0.43139817636326827 0.8178112231658412
vt 0.26953125 0.6204234375
vt 0.26953125 0.6139515625
vt 0.26171875 0.6171875
vt 0.2421875 0.359375
vt 0.25413515625 0.359375
vt 0.2578125 0.3515625
vt 0.35914609375 0.34375
vt 0.35914609375 0.375
vt 0.37109375 0.375
vt 0.36328125 0.34375
vt 0.26539609375 0.625
vt 0.26953125 0.6204234375
vt 0.26171875 0.6171875
vt 0.2421875 0.34375
vt 0.25413515625 0.34375
vt 0.2578125 0.3515625
vt 0.64039609375 0.6679705512000961
vt 0.6523437498642277 0.66796875
vt 0.6445360113612136 0.6995531305599154
vt 0.6399593489185257 0.6988905392690754
vt 0.2649546875 0.609375
vt 0.26953125 0.6139515625
vt 0.26171875 0.6171875
vt 0.2421875 0.359375
vt 0.2421875 0.34375
vt 0.2578125 0.3515625
vt 0.4626458605807674 0.8087491053014031
vt 0.46484375 0.82421875
vt 0.43230854216071446 0.82421875
vt 0.43139817636326827 0.8178112231658412
vt 0.26953125 0.6139515625
vt 0.26953125 0.6204234375
vt 0.26171875 0.6171875
vt 0.25413515625 0.359375
vt 0.2421875 0.359375
vt 0.2578125 0.3515625
vt 0.37109375 0.375
vt 0.35914609375 0.375
vt 0.35914609375 0.34375
vt 0.36328125 0.34375
vt 0.26953125 0.6204234375
vt 0.26539609375 0.625
vt 0.26171875 0.6171875
vn 0 0 1
vn 0 1 0
vn 0 0 -1
vn 0 0 1
vn 0 -1 0
vn 0 0 -1
vn 0 0 1
vn 0 -0.9894461532835013 -0.14490103433889662
vn 0 0 -1
vn 0 0 1
vn 0.970142500145332 0 -0.24253562503633297
vn 0 0 -1
vn 0 0 1
vn 0 1 0
vn 0 0 -1
vn 0 0 1
vn 0 -0.9894461532835013 -0.1449010343388966
vn 0 0 -1
vn 0 0 1
vn -0.970142500145332 0 -0.24253562503633297
vn 0 0 -1
vn 0 0 1
vn 0 1 0
vn 0 0 -1
usemtl m_59b907b3-41bb-f9fc-8b7c-670a70f659df
f 117/433/125 125/434/125 109/435/125
f 126/436/126 125/437/126 117/438/126 118/439/126
f 126/440/127 118/441/127 110/442/127
f 119/443/128 111/444/128 109/445/128
f 112/446/129 111/447/129 119/448/129 120/449/129
f 112/450/130 120/451/130 110/452/130
f 111/453/131 113/454/131 109/455/131
f 114/456/132 113/457/132 111/458/132 112/459/132
f 114/460/133 112/461/133 110/462/133
f 113/463/134 115/464/134 109/465/134
f 116/466/135 115/467/135 113/468/135 114/469/135
f 116/470/136 114/471/136 110/472/136
f 115/473/137 117/474/137 109/475/137
f 118/476/138 117/477/138 115/478/138 116/479/138
f 118/480/139 116/481/139 110/482/139
f 121/483/140 119/484/140 109/485/140
f 119/486/141 121/487/141 122/488/141 120/489/141
f 120/490/142 122/491/142 110/492/142
f 123/493/143 121/494/143 109/495/143
f 121/496/144 123/497/144 124/498/144 122/499/144
f 122/500/145 124/501/145 110/502/145
f 125/503/146 123/504/146 109/505/146
f 123/506/147 125/507/147 126/508/147 124/509/147
f 124/510/148 126/511/148 110/512/148
g Gun Main 
o cylinder8
v 0 0.8984374999999999 4.315625
v 0 0.8984374999999999 3.453125
v 0.08931479938669862 0.6828124999999999 4.315625
v 0.08931479938669862 0.6828124999999999 3.453125
v 0.21562499999999998 0.8091227006133013 4.315625
v 0.21562499999999998 0.8091227006133013 3.453125
v 0.21562499999999998 0.9877522993866985 4.315625
v 0.21562499999999998 0.9877522993866985 3.453125
v 0.08931479938669866 1.1140625 4.315625
v 0.08931479938669866 1.1140625 3.453125
v -0.08931479938669862 0.6828124999999999 4.315625
v -0.08931479938669862 0.6828124999999999 3.453125
v -0.21562499999999998 0.8091227006133013 4.315625
v -0.21562499999999998 0.8091227006133013 3.453125
v -0.21562499999999998 0.9877522993866985 4.315625
v -0.21562499999999998 0.9877522993866985 3.453125
v -0.08931479938669866 1.1140625 4.315625
v -0.08931479938669866 1.1140625 3.453125
vt 0.26077109375 1
vt 0.27047890625 1
vt 0.265625 0.98828125
vt 0.45703125 0.828125
vt 0.45703125 0.875
vt 0.46484375 0.875
vt 0.46484375 0.828125
vt 0.57717734375 0.41796875
vt 0.58688515625 0.41796875
vt 0.58203125 0.40625
vt 0.27047890625 0.9765625
vt 0.26077109375 0.9765625
vt 0.265625 0.98828125
vt 0.53125 0.41015625
vt 0.53125 0.36328125
vt 0.5234375 0.36328125
vt 0.5234375 0.41015625
vt 0.58688515625 0.39453125
vt 0.57717734375 0.39453125
vt 0.58203125 0.40625
vt 0.26077109375 0.9765625
vt 0.25390625 0.98342734375
vt 0.265625 0.98828125
vt 0.6328125 0.5390625
vt 0.6796875 0.5390625
vt 0.6796875 0.53125
vt 0.6328125 0.53125
vt 0.59375 0.40139609374999996
vt 0.58688515625 0.39453125
vt 0.58203125 0.40625
vt 0.25390625 0.98342734375
vt 0.25390625 0.99313515625
vt 0.265625 0.98828125
vt 0.41796875 0.97265625
vt 0.46484375 0.97265625
vt 0.46484375 0.96484375
vt 0.41796875 0.96484375
vt 0.59375 0.41110390625000004
vt 0.59375 0.40139609374999996
vt 0.58203125 0.40625
vt 0.25390625 0.99313515625
vt 0.26077109375 1
vt 0.265625 0.98828125
vt 0.51953125 0.9765625
vt 0.56640625 0.9765625
vt 0.56640625 0.96875
vt 0.51953125 0.96875
vt 0.58688515625 0.41796875
vt 0.59375 0.41110390625000004
vt 0.58203125 0.40625
vt 0.25390625 0.98342734375
vt 0.26077109375 0.9765625
vt 0.265625 0.98828125
vt 0.6796875 0.53125
vt 0.6796875 0.5390625
vt 0.6328125 0.5390625
vt 0.6328125 0.53125
vt 0.58688515625 0.39453125
vt 0.59375 0.40139609374999996
vt 0.58203125 0.40625
vt 0.25390625 0.99313515625
vt 0.25390625 0.98342734375
vt 0.265625 0.98828125
vt 0.46484375 0.96484375
vt 0.46484375 0.97265625
vt 0.41796875 0.97265625
vt 0.41796875 0.96484375
vt 0.59375 0.40139609374999996
vt 0.59375 0.41110390625000004
vt 0.58203125 0.40625
vt 0.26077109375 1
vt 0.25390625 0.99313515625
vt 0.265625 0.98828125
vt 0.56640625 0.96875
vt 0.56640625 0.9765625
vt 0.51953125 0.9765625
vt 0.51953125 0.96875
vt 0.59375 0.41110390625000004
vt 0.58688515625 0.41796875
vt 0.58203125 0.40625
vn 0 0 1
vn 0 1 0
vn 0 0 -1
vn 0 0 1
vn 0 -1 0
vn 0 0 -1
vn 0 0 1
vn 0.7071067811865475 -0.7071067811865477 0
vn 0 0 -1
vn 0 0 1
vn 1 0 0
vn 0 0 -1
vn 0 0 1
vn 0.7071067811865477 0.7071067811865475 0
vn 0 0 -1
vn 0 0 1
vn -0.7071067811865475 -0.7071067811865477 0
vn 0 0 -1
vn 0 0 1
vn -1 0 0
vn 0 0 -1
vn 0 0 1
vn -0.7071067811865477 0.7071067811865475 0
vn 0 0 -1
usemtl m_59b907b3-41bb-f9fc-8b7c-670a70f659df
f 135/513/149 143/514/149 127/515/149
f 144/516/150 143/517/150 135/518/150 136/519/150
f 144/520/151 136/521/151 128/522/151
f 137/523/152 129/524/152 127/525/152
f 130/526/153 129/527/153 137/528/153 138/529/153
f 130/530/154 138/531/154 128/532/154
f 129/533/155 131/534/155 127/535/155
f 132/536/156 131/537/156 129/538/156 130/539/156
f 132/540/157 130/541/157 128/542/157
f 131/543/158 133/544/158 127/545/158
f 134/546/159 133/547/159 131/548/159 132/549/159
f 134/550/160 132/551/160 128/552/160
f 133/553/161 135/554/161 127/555/161
f 136/556/162 135/557/162 133/558/162 134/559/162
f 136/560/163 134/561/163 128/562/163
f 139/563/164 137/564/164 127/565/164
f 137/566/165 139/567/165 140/568/165 138/569/165
f 138/570/166 140/571/166 128/572/166
f 141/573/167 139/574/167 127/575/167
f 139/576/168 141/577/168 142/578/168 140/579/168
f 140/580/169 142/581/169 128/582/169
f 143/583/170 141/584/170 127/585/170
f 141/586/171 143/587/171 144/588/171 142/589/171
f 142/590/172 144/591/172 128/592/172
g Gun Main 
o cylinder9
v 0 0.6828124999999999 2.5906249999999997
v 0 0.6828124999999999 1.728125
v 0.07442899948891551 0.5031249999999999 2.5906249999999997
v 0.07442899948891551 0.5031249999999999 1.728125
v 0.1796875 0.6083835005110844 2.5906249999999997
v 0.1796875 0.6083835005110844 1.728125
v 0.1796875 0.7572414994889154 2.5906249999999997
v 0.1796875 0.7572414994889154 1.728125
v 0.07442899948891556 0.8624999999999999 2.5906249999999997
v 0.07442899948891556 0.8624999999999999 1.728125
v -0.07442899948891551 0.5031249999999999 2.5906249999999997
v -0.07442899948891551 0.5031249999999999 1.728125
v -0.1796875 0.6083835005110844 2.5906249999999997
v -0.1796875 0.6083835005110844 1.728125
v -0.1796875 0.7572414994889154 2.5906249999999997
v -0.1796875 0.7572414994889154 1.728125
v -0.07442899948891556 0.8624999999999999 2.5906249999999997
v -0.07442899948891556 0.8624999999999999 1.728125
vt 0.005720703125 0.67578125
vt 0.013810546875 0.67578125
vt 0.009765625 0.666015625
vt 0.53515625 0.36328125
vt 0.53515625 0.41015625
vt 0.54296875 0.41015625
vt 0.54296875 0.36328125
vt 0.329939453125 0.4375
vt 0.338029296875 0.4375
vt 0.333984375 0.427734375
vt 0.013810546875 0.65625
vt 0.005720703125 0.65625
vt 0.009765625 0.666015625
vt 0.53125 0.359375
vt 0.53125 0.3125
vt 0.5234375 0.3125
vt 0.5234375 0.359375
vt 0.338029296875 0.41796875
vt 0.329939453125 0.41796875
vt 0.333984375 0.427734375
vt 0.005720703125 0.65625
vt 0 0.661970703125
vt 0.009765625 0.666015625
vt 0.64453125 0.78515625
vt 0.69140625 0.78515625
vt 0.69140625 0.77734375
vt 0.64453125 0.77734375
vt 0.34375 0.42368945312499995
vt 0.338029296875 0.41796875
vt 0.333984375 0.427734375
vt 0 0.661970703125
vt 0 0.670060546875
vt 0.009765625 0.666015625
vt 0.64453125 0.83203125
vt 0.69140625 0.83203125
vt 0.69140625 0.82421875
vt 0.64453125 0.82421875
vt 0.34375 0.43177929687500005
vt 0.34375 0.42368945312499995
vt 0.333984375 0.427734375
vt 0 0.670060546875
vt 0.005720703125 0.67578125
vt 0.009765625 0.666015625
vt 0.64453125 0.80859375
vt 0.69140625 0.80859375
vt 0.69140625 0.80078125
vt 0.64453125 0.80078125
vt 0.338029296875 0.4375
vt 0.34375 0.43177929687500005
vt 0.333984375 0.427734375
vt 0 0.661970703125
vt 0.005720703125 0.65625
vt 0.009765625 0.666015625
vt 0.69140625 0.77734375
vt 0.69140625 0.78515625
vt 0.64453125 0.78515625
vt 0.64453125 0.77734375
vt 0.338029296875 0.41796875
vt 0.34375 0.42368945312499995
vt 0.333984375 0.427734375
vt 0 0.670060546875
vt 0 0.661970703125
vt 0.009765625 0.666015625
vt 0.69140625 0.82421875
vt 0.69140625 0.83203125
vt 0.64453125 0.83203125
vt 0.64453125 0.82421875
vt 0.34375 0.42368945312499995
vt 0.34375 0.43177929687500005
vt 0.333984375 0.427734375
vt 0.005720703125 0.67578125
vt 0 0.670060546875
vt 0.009765625 0.666015625
vt 0.69140625 0.80078125
vt 0.69140625 0.80859375
vt 0.64453125 0.80859375
vt 0.64453125 0.80078125
vt 0.34375 0.43177929687500005
vt 0.338029296875 0.4375
vt 0.333984375 0.427734375
vn 0 0 1
vn 0 1 0
vn 0 0 -1
vn 0 0 1
vn 0 -1 0
vn 0 0 -1
vn 0 0 1
vn 0.7071067811865475 -0.7071067811865477 0
vn 0 0 -1
vn 0 0 1
vn 1 0 0
vn 0 0 -1
vn 0 0 1
vn 0.7071067811865477 0.7071067811865474 0
vn 0 0 -1
vn 0 0 1
vn -0.7071067811865475 -0.7071067811865477 0
vn 0 0 -1
vn 0 0 1
vn -1 0 0
vn 0 0 -1
vn 0 0 1
vn -0.7071067811865477 0.7071067811865474 0
vn 0 0 -1
usemtl m_59b907b3-41bb-f9fc-8b7c-670a70f659df
f 153/593/173 161/594/173 145/595/173
f 162/596/174 161/597/174 153/598/174 154/599/174
f 162/600/175 154/601/175 146/602/175
f 155/603/176 147/604/176 145/605/176
f 148/606/177 147/607/177 155/608/177 156/609/177
f 148/610/178 156/611/178 146/612/178
f 147/613/179 149/614/179 145/615/179
f 150/616/180 149/617/180 147/618/180 148/619/180
f 150/620/181 148/621/181 146/622/181
f 149/623/182 151/624/182 145/625/182
f 152/626/183 151/627/183 149/628/183 150/629/183
f 152/630/184 150/631/184 146/632/184
f 151/633/185 153/634/185 145/635/185
f 154/636/186 153/637/186 151/638/186 152/639/186
f 154/640/187 152/641/187 146/642/187
f 157/643/188 155/644/188 145/645/188
f 155/646/189 157/647/189 158/648/189 156/649/189
f 156/650/190 158/651/190 146/652/190
f 159/653/191 157/654/191 145/655/191
f 157/656/192 159/657/192 160/658/192 158/659/192
f 158/660/193 160/661/193 146/662/193
f 161/663/194 159/664/194 145/665/194
f 159/666/195 161/667/195 162/668/195 160/669/195
f 160/670/196 162/671/196 146/672/196
g Gun Main 
o cube3
v 0.2875 1.0421874999999998 6.471875
v 0.2875 1.0421874999999998 6.0406249999999995
v 0.2875 0.7546875 6.471875
v 0.2875 0.7546875 6.0406249999999995
v -0.2875 1.0421874999999998 6.0406249999999995
v -0.2875 1.0421874999999998 6.471875
v -0.2875 0.7546875 6.0406249999999995
v -0.2875 0.7546875 6.471875
vt 0.23828125 0.359375
vt 0.20703125 0.359375
vt 0.20703125 0.34375
vt 0.23828125 0.34375
vt 0.66796875 0.87109375
vt 0.64453125 0.87109375
vt 0.64453125 0.85546875
vt 0.66796875 0.85546875
vt 0.28515625 0.8671875
vt 0.25390625 0.8671875
vt 0.25390625 0.8515625
vt 0.28515625 0.8515625
vt 0.66796875 0.8515625
vt 0.64453125 0.8515625
vt 0.64453125 0.8359375
vt 0.66796875 0.8359375
vt 0.19921875 0.5390625
vt 0.16796875 0.5390625
vt 0.16796875 0.515625
vt 0.19921875 0.515625
vt 0.65625 0.45703125
vt 0.625 0.45703125
vt 0.625 0.48046875
vt 0.65625 0.48046875
vn 0 0 -1
vn 1 0 0
vn 0 0 1
vn -1 0 0
vn 0 1 0
vn 0 -1 0
usemtl m_59b907b3-41bb-f9fc-8b7c-670a70f659df
f 166/676/197 169/675/197 167/674/197 164/673/197
f 165/680/198 166/679/198 164/678/198 163/677/198
f 170/684/199 165/683/199 163/682/199 168/681/199
f 169/688/200 170/687/200 168/686/200 167/685/200
f 168/692/201 163/691/201 164/690/201 167/689/201
f 169/696/202 166/695/202 165/694/202 170/693/202
g ShellEject Main 
o cube4
v 0.2875 0.26953125 -2.2609375
v 0.2875 0.26953125 -2.4046874999999996
v 0.2875 0.05390624999999999 -2.2609375
v 0.2875 0.05390624999999999 -2.4046874999999996
v -0.2875 0.26953125 -2.4046874999999996
v -0.2875 0.26953125 -2.2609375
v -0.2875 0.05390624999999999 -2.4046874999999996
v -0.2875 0.05390624999999999 -2.2609375
vt 0.63671875 0.890625
vt 0.60546875 0.890625
vt 0.60546875 0.87890625
vt 0.63671875 0.87890625
vt 0.18359375 0.9296875
vt 0.17578125 0.9296875
vt 0.17578125 0.91796875
vt 0.18359375 0.91796875
vt 0.421875 0.82421875
vt 0.390625 0.82421875
vt 0.390625 0.8125
vt 0.421875 0.8125
vt 0.18359375 0.8515625
vt 0.17578125 0.8515625
vt 0.17578125 0.83984375
vt 0.18359375 0.83984375
vt 0.67578125 0.76171875
vt 0.64453125 0.76171875
vt 0.64453125 0.75390625
vt 0.67578125 0.75390625
vt 0.67578125 0.7421875
vt 0.64453125 0.7421875
vt 0.64453125 0.75
vt 0.67578125 0.75
vn 0 0 -1
vn 1 0 0
vn 0 0 1
vn -1 0 0
vn 0 1 0
vn 0 -1 0
usemtl m_59b907b3-41bb-f9fc-8b7c-670a70f659df
f 174/700/203 177/699/203 175/698/203 172/697/203
f 173/704/204 174/703/204 172/702/204 171/701/204
f 178/708/205 173/707/205 171/706/205 176/705/205
f 177/712/206 178/711/206 176/710/206 175/709/206
f 176/716/207 171/715/207 172/714/207 175/713/207
f 177/720/208 174/719/208 173/718/208 178/717/208
g Cupola2 Main 
o cylinder10
v 0.7289486257827562 1.3885250227477466 -1.213232264727953
v 0.6534798757827562 1.6904000227477465 -1.137763514727953
v 1.0826171875 1.3885250227477466 -0.8595637030107092
v 1.0071484375000002 1.6904000227477465 -0.7840949530107092
v 1.0826171875 1.3885250227477466 -0.20846332644519688
v 1.0071484375000002 1.6904000227477465 -0.28393207644519686
v 0.7289486257827562 1.3885250227477466 0.14520523527204698
v 0.6534798757827562 1.6904000227477465 0.06973648527204701
v 0.07784824921724398 1.3885250227477466 0.1452052352720472
v 0.15331699921724395 1.6904000227477465 0.06973648527204712
v -0.27582031249999983 1.3885250227477466 -0.2084633264451965
v -0.20035156249999986 1.6904000227477465 -0.28393207644519647
v -0.27582031249999994 1.3885250227477466 -0.8595637030107093
v -0.20035156249999997 1.6904000227477465 -0.7840949530107093
v 0.07784824921724348 1.3885250227477466 -1.213232264727953
v 0.1533169992172435 1.6904000227477465 -1.1377635147279528
vt 0.25 0.57421875
vt 0.25 0.55859375
vt 0.22265625 0.55859375
vt 0.22265625 0.57421875
vt 0.09171640625000001 0.359375
vt 0.09581796875 0.34375
vt 0.060432031250000004 0.34375
vt 0.06453359375 0.359375
vt 0.3046875 0.359375
vt 0.3046875 0.34375
vt 0.27734375 0.34375
vt 0.27734375 0.359375
vt 0.66593515625 0.453125
vt 0.67003671875 0.4375
vt 0.63465078125 0.4375
vt 0.63875234375 0.453125
vt 0.3359375 0.359375
vt 0.3359375 0.34375
vt 0.30859375 0.34375
vt 0.30859375 0.359375
vt 0.13468515625 0.359375
vt 0.13878671874999998 0.34375
vt 0.10340078125 0.34375
vt 0.10750234375 0.359375
vt 0.671875 0.890625
vt 0.671875 0.875
vt 0.64453125 0.875
vt 0.64453125 0.890625
vt 0.63468515625 0.36328125
vt 0.63878671875 0.34765625
vt 0.60340078125 0.34765625
vt 0.60750234375 0.36328125
vn 0.6666666666666667 0.3333333333333332 -0.6666666666666666
vn 0.970142500145332 0.24253562503633289 0
vn 0.6666666666666669 0.3333333333333331 0.6666666666666667
vn 3.253675884718858e-16 0.24253562503633314 0.9701425001453319
vn -0.6666666666666666 0.33333333333333326 0.6666666666666669
vn -0.970142500145332 0.24253562503633286 1.7124609919572925e-16
vn -0.6666666666666669 0.33333333333333337 -0.6666666666666666
vn -1.7124609919572927e-16 0.24253562503633289 -0.970142500145332
usemtl m_59b907b3-41bb-f9fc-8b7c-670a70f659df
f 182/721/209 181/722/209 179/723/209 180/724/209
f 184/725/210 183/726/210 181/727/210 182/728/210
f 186/729/211 185/730/211 183/731/211 184/732/211
f 188/733/212 187/734/212 185/735/212 186/736/212
f 190/737/213 189/738/213 187/739/213 188/740/213
f 192/741/214 191/742/214 189/743/214 190/744/214
f 194/745/215 193/746/215 191/747/215 192/748/215
f 180/749/216 179/750/216 193/751/216 194/752/216
g Cupola2 Main 
o cylinder_selection11
v 0.6847400555681007 1.6526656477477466 -1.213232264727953
v 1.0826171875 1.6526656477477466 -0.8153551327960538
v 0.40339843750000004 1.6526656477477466 -0.534013514727953
v 0.12205681943189894 1.6526656477477466 -1.2132322647279528
v -0.27582031249999994 1.6526656477477466 -0.8153551327960538
v -0.27582031249999983 1.6526656477477466 -0.2526718966598519
v 0.12205681943189944 1.6526656477477466 0.14520523527204698
v 0.6847400555681008 1.6526656477477466 0.14520523527204698
v 1.0826171875 1.6526656477477466 -0.25267189665985235
vt 0.2498046875 0.978376171875
vt 0.2498046875 0.9477957031249999
vt 0.212890625 0.9630859375
vt 0.228180859375 1
vt 0.2498046875 0.978376171875
vt 0.212890625 0.9630859375
vt 0.197600390625 1
vt 0.228180859375 1
vt 0.212890625 0.9630859375
vt 0.1759765625 0.978376171875
vt 0.197600390625 1
vt 0.212890625 0.9630859375
vt 0.1759765625 0.9477957031249999
vt 0.1759765625 0.978376171875
vt 0.212890625 0.9630859375
vt 0.197600390625 0.926171875
vt 0.1759765625 0.9477957031249999
vt 0.212890625 0.9630859375
vt 0.228180859375 0.926171875
vt 0.197600390625 0.926171875
vt 0.212890625 0.9630859375
vt 0.2498046875 0.9477957031249999
vt 0.228180859375 0.926171875
vt 0.212890625 0.9630859375
vn 0 1 0
vn 0 1 0
vn 0 1 0
vn 0 1 0
vn 0 1 0
vn 0 1 0
vn 0 1 0
vn 0 1 0
usemtl m_59b907b3-41bb-f9fc-8b7c-670a70f659df
f 203/753/217 196/754/217 197/755/217
f 202/756/218 203/757/218 197/758/218
f 201/759/219 202/760/219 197/761/219
f 200/762/220 201/763/220 197/764/220
f 199/765/221 200/766/221 197/767/221
f 198/768/222 199/769/222 197/770/222
f 195/771/223 198/772/223 197/773/223
f 196/774/224 195/775/224 197/776/224