# Made in Blockbench 4.11.2
mtllib ewr4000.mtl

o cube5
v 0.75 1 0.75
v 0.75 1 -0.75
v 0.75 0 0.75
v 0.75 0 -0.75
v -0.75 1 -0.75
v -0.75 1 0.75
v -0.75 0 -0.75
v -0.75 0 0.75
vt 0.57421875 0.9140625
vt 0.48046875 0.9140625
vt 0.48046875 0.8515625
vt 0.57421875 0.8515625
vt 0.57421875 0.9140625
vt 0.48046875 0.9140625
vt 0.48046875 0.8515625
vt 0.57421875 0.8515625
vt 0.57421875 0.9140625
vt 0.48046875 0.9140625
vt 0.48046875 0.8515625
vt 0.57421875 0.8515625
vt 0.57421875 0.9140625
vt 0.48046875 0.9140625
vt 0.48046875 0.8515625
vt 0.57421875 0.8515625
vt 0.09375 0.80078125
vt 0 0.80078125
vt 0 0.70703125
vt 0.09375 0.70703125
vt 0.09375 0.70703125
vt 0 0.70703125
vt 0 0.80078125
vt 0.09375 0.80078125
vn 0 0 -1
vn 1 0 0
vn 0 0 1
vn -1 0 0
vn 0 1 0
vn 0 -1 0
usemtl m_74458ff2-f163-55f7-be33-ccce9ea6ce10
f 4/4/1 7/3/1 5/2/1 2/1/1
f 3/8/2 4/7/2 2/6/2 1/5/2
f 8/12/3 3/11/3 1/10/3 6/9/3
f 7/16/4 8/15/4 6/14/4 5/13/4
f 6/20/5 1/19/5 2/18/5 5/17/5
f 7/24/6 4/23/6 3/22/6 8/21/6
o cube4
v 0.375 2 0.375
v 0.375 2 -0.375
v 0.375 1 0.375
v 0.375 1 -0.375
v -0.375 2 -0.375
v -0.375 2 0.375
v -0.375 1 -0.375
v -0.375 1 0.375
vt 0.046875 0.703125
vt 0 0.703125
vt 0 0.640625
vt 0.046875 0.640625
vt 0.046875 0.703125
vt 0 0.703125
vt 0 0.640625
vt 0.046875 0.640625
vt 0.046875 0.703125
vt 0 0.703125
vt 0 0.640625
vt 0.046875 0.640625
vt 0.046875 0.703125
vt 0 0.703125
vt 0 0.640625
vt 0.046875 0.640625
vt 0.57421875 0.74609375
vt 0.52734375 0.74609375
vt 0.52734375 0.69921875
vt 0.57421875 0.69921875
vt 0.57421875 0.69921875
vt 0.52734375 0.69921875
vt 0.52734375 0.74609375
vt 0.57421875 0.74609375
vn 0 0 -1
vn 1 0 0
vn 0 0 1
vn -1 0 0
vn 0 1 0
vn 0 -1 0
usemtl m_74458ff2-f163-55f7-be33-ccce9ea6ce10
f 12/28/7 15/27/7 13/26/7 10/25/7
f 11/32/8 12/31/8 10/30/8 9/29/8
f 16/36/9 11/35/9 9/34/9 14/33/9
f 15/40/10 16/39/10 14/38/10 13/37/10
f 14/44/11 9/43/11 10/42/11 13/41/11
f 15/48/12 12/47/12 11/46/12 16/45/12
o cube6
v -0.5624999999999999 0.575360710371253 -1.1227563509461096
v -0.5625000000000001 1.5496392896287468 -0.5602563509461098
v -0.5624999999999999 0.32536071037125314 -0.6897436490538902
v -0.5625000000000001 1.2996392896287468 -0.1272436490538904
v 0.5624999999999999 1.5496392896287468 -0.5602563509461098
v 0.5625000000000001 0.5753607103712531 -1.1227563509461096
v 0.5624999999999999 1.299639289628747 -0.1272436490538904
v 0.5625000000000001 0.32536071037125325 -0.6897436490538902
vt 0.22265625 0.703125
vt 0.15234375 0.703125
vt 0.15234375 0.671875
vt 0.22265625 0.671875
vt 0.22265625 0.703125
vt 0.15234375 0.703125
vt 0.15234375 0.671875
vt 0.22265625 0.671875
vt 0.22265625 0.703125
vt 0.15234375 0.703125
vt 0.15234375 0.671875
vt 0.22265625 0.671875
vt 0.22265625 0.703125
vt 0.15234375 0.703125
vt 0.15234375 0.671875
vt 0.22265625 0.671875
vt 0.37109375 0.703125
vt 0.30078125 0.703125
vt 0.30078125 0.6328125
vt 0.37109375 0.6328125
vt 0.296875 0.6328125
vt 0.2265625 0.6328125
vt 0.2265625 0.703125
vt 0.296875 0.703125
vn -1.0605752387249072e-16 0.8660254037844388 0.4999999999999998
vn -1 -1.2246467991473532e-16 -6.162975822039155e-33
vn 1.0605752387249072e-16 -0.8660254037844388 -0.4999999999999998
vn 1 1.2246467991473532e-16 6.162975822039155e-33
vn -6.123233995736764e-17 0.4999999999999998 -0.8660254037844388
vn 6.123233995736764e-17 -0.4999999999999998 0.8660254037844388
usemtl m_74458ff2-f163-55f7-be33-ccce9ea6ce10
f 20/52/13 23/51/13 21/50/13 18/49/13
f 19/56/14 20/55/14 18/54/14 17/53/14
f 24/60/15 19/59/15 17/58/15 22/57/15
f 23/64/16 24/63/16 22/62/16 21/61/16
f 22/68/17 17/67/17 18/66/17 21/65/17
f 23/72/18 20/71/18 19/70/18 24/69/18
g bone 
o cuboid
v 0.3125 3.0625 0.5
v 0.125 2.875 3.5
v 0.3125 2.4375 0.5
v 0.125 2.625 3.5
v -0.3125 3.0625 0.5
v -0.125 2.875 3.5
v -0.3125 2.4375 0.5
v -0.125 2.625 3.5
vt 0.3984375 0.9609375
vt 0.4008694229408192 1
vt 0.5876414274057112 0.9766079655322251
vt 0.5866686582293836 0.9609375
vt 0.5888709808236723 0.9610132758870418
vt 0.40063982259428876 0.9610132758870418
vt 0.40307174553510794 1
vt 0.58984375 0.9766079655322251
vt 0.5873934679586326 0.9610132762012442
vt 0.39916269959648853 0.9610132762012442
vt 0.4015946275743538 1
vt 0.5883662391497786 0.9766079657207465
vt 0.40306894959648853 0.9609375
vt 0.4055008775743538 1
vt 0.5922724891497786 0.9766079657207465
vt 0.5912997179586326 0.9609375
vt 0.53125 0.46875
vt 0.5703125 0.46875
vt 0.5703125 0.4296875
vt 0.53125 0.4296875
vt 0 0.81640625
vt 0 0.83203125
vt 0.015625 0.83203125
vt 0.015625 0.81640625
vn 0.9980525784828886 0 0.06237828615518054
vn -0.9980525784828886 0 0.06237828615518054
vn 0 0.9980525784828886 0.06237828615518054
vn 0 -0.9980525784828886 0.06237828615518054
vn 0 0 -1
vn 0 0 1
usemtl m_74458ff2-f163-55f7-be33-ccce9ea6ce10
f 27/73/19 25/74/19 26/75/19 28/76/19
f 30/77/20 29/78/20 31/79/20 32/80/20
f 26/81/21 25/82/21 29/83/21 30/84/21
f 31/85/22 27/86/22 28/87/22 32/88/22
f 29/89/23 25/90/23 27/91/23 31/92/23
f 28/93/24 26/94/24 30/95/24 32/96/24
g bone 
o sphere
v -1.4985587267037037 5.539213562373096 -0.18496796437445814
v -2.119282075316934 4.125 -0.31086792626947085
v -1.4985587267037037 2.710786437626904 -0.18496796437445825
v -3.651330804039775e-16 5.539213562373096 -0.3685155489330493
v -4.3763304060994204e-16 4.125 -0.5704434096930531
v -3.651330804039777e-16 2.710786437626904 -0.3685155489330493
v 1.4985587267037028 5.539213562373096 -0.18496796437445787
v 2.1192820753169324 4.125 -0.3108679262694704
v 1.4985587267037028 2.710786437626904 -0.18496796437445798
v -5.260551033720537e-17 2.125 0.42955659030694704
v -5.260551033720537e-17 6.125 0.42955659030694704
v -2.474873734152916 5.539213562373096 0.42955659030694676
v -3.5 4.125 0.4295565903069466
v -2.474873734152916 2.710786437626904 0.42955659030694676
v 2.474873734152916 5.539213562373096 0.4295565903069473
v 3.5 4.125 0.4295565903069475
v 2.474873734152916 2.710786437626904 0.4295565903069473
vt 0.42000367366196467 0.83984375
vt 0.4868560919630353 0.8128386241132534
vt 0.3317079563057006 0.7782679588253811
vt 0.09762481938438525 0.9009617884560961
vt 0 0.9085632514905266
vt 0.0635466224342909 0.9973289127270014
vt 0.1351304660645981 0.9901263621553484
vt 0.13492947986562467 0.8116903040810961
vt 0.06316957886330904 0.8046875
vt 0 0.893721908582353
vt 0.09745944413395385 0.9007698278087293
vt 0.4868560651962619 0.8119144699213416
vt 0.42000370042873814 0.838919728332442
vt 0.3317077147002138 0.77734375
vt 0.3256439080369647 0.83984375
vt 0.42000367366196467 0.83984375
vt 0.3317079705369647 0.77826796875
vt 0.23106974125938526 0.9009617884560961
vt 0.09762481938438525 0.9009617884560961
vt 0.13517560063438527 0.9902336634560961
vt 0.22953536625938525 0.9902336634560961
vt 0.22953536625938525 0.8116903040810961
vt 0.13517560063438527 0.8116903040810961
vt 0.09762481938438525 0.9009617884560961
vt 0.23106974125938526 0.9009617884560961
vt 0.42000370042873814 0.838919728332442
vt 0.3256439348037381 0.838919728332442
vt 0.3317079973037381 0.777343947082442
vt 0.42000367366196467 0.83984375
vt 0.32564390803696464 0.83984375
vt 0.33170797053696477 0.77826796875
vt 0.09741167139025896 0.9010097378997123
vt 0.23085659326525895 0.9010097378997123
vt 0.22932221826525898 0.9902816128997123
vt 0.13496245264025894 0.9902816128997123
vt 0.13496245264025894 0.8117382535247123
vt 0.22932221826525898 0.8117382535247123
vt 0.23085659326525895 0.9010097378997123
vt 0.09741167139025896 0.9010097378997123
vt 0.32564393480373816 0.838919728332442
vt 0.42000370042873814 0.838919728332442
vt 0.3317079973037381 0.777343947082442
vt 0.48685609196303536 0.8128386241132535
vt 0.42000367366196467 0.83984375
vt 0.3317079563057006 0.7782679588253811
vt 0.000390625 0.907942038187367
vt 0.09812126916479089 0.9018503396366598
vt 0.13425196869325753 0.9917063563765711
vt 0.06254999696639021 0.9975552739032518
vt 0.06320724703401663 0.8046875
vt 0.13496245264025894 0.8117382535247123
vt 0.0974115476255678 0.9010100321321444
vt 0 0.8934577000539599
vt 0.42000370042873814 0.838919728332442
vt 0.48685606519626184 0.8119144699213416
vt 0.3317077147002138 0.77734375
vn -0.2163021682624594 0.9138493493323907 -0.3436462406745127
vn -0.44708881038508563 0.3240829354818222 -0.8337156868848842
vn -0.4969339197490955 -0.3602143460357727 -0.7894949678831525
vn -0.21630216826245943 -0.9138493493323906 -0.34364624067451266
vn -0.07228516935116858 0.8040390348400193 -0.5901661501182557
vn -0.12037132420168119 0.14032316709279125 -0.9827614934901462
vn -0.12037132420168105 -0.14032316709279113 -0.9827614934901462
vn -0.07228516935116854 -0.8040390348400193 -0.5901661501182557
vn 0.07228516935116867 0.8040390348400193 -0.5901661501182557
vn 0.12037132420168142 0.14032316709279133 -0.982761493490146
vn 0.1203713242016812 -0.1403231670927913 -0.982761493490146
vn 0.07228516935116863 -0.8040390348400193 -0.5901661501182557
vn 0.2163021682624595 0.9138493493323905 -0.34364624067451294
vn 0.45439117226466363 0.27487389273313456 -0.8473328777178886
vn 0.5089285081740726 -0.2953587625535969 -0.8085511579056213
vn 0.21630216826245952 -0.9138493493323905 -0.3436462406745129
usemtl m_74458ff2-f163-55f7-be33-ccce9ea6ce10
f 33/97/25 44/98/25 43/99/25
f 34/100/26 45/101/26 44/102/26 33/103/26
f 35/104/27 46/105/27 45/106/27 34/107/27
f 46/108/28 35/109/28 42/110/28
f 36/111/29 33/112/29 43/113/29
f 37/114/30 34/115/30 33/116/30 36/117/30
f 38/118/31 35/119/31 34/120/31 37/121/31
f 35/122/32 38/123/32 42/124/32
f 39/125/33 36/126/33 43/127/33
f 40/128/34 37/129/34 36/130/34 39/131/34
f 41/132/35 38/133/35 37/134/35 40/135/35
f 38/136/36 41/137/36 42/138/36
f 47/139/37 39/140/37 43/141/37
f 48/142/38 40/143/38 39/144/38 47/145/38
f 49/146/39 41/147/39 40/148/39 48/149/39
f 41/150/40 49/151/40 42/152/40
g bone 
o cube1
v 0.125 3.25 3.5
v 0.125 3.25 3.25
v 0.125 2.875 3.5
v 0.125 2.875 3.25
v -0.125 3.25 3.25
v -0.125 3.25 3.5
v -0.125 2.875 3.25
v -0.125 2.875 3.5
vt 0.015625 1
vt 0 1
vt 0 0.9765625
vt 0.015625 0.9765625
vt 0.015625 1
vt 0 1
vt 0 0.9765625
vt 0.015625 0.9765625
vt 0.015625 1
vt 0 1
vt 0 0.9765625
vt 0.015625 0.9765625
vt 0.015625 1
vt 0 1
vt 0 0.9765625
vt 0.015625 0.9765625
vt 0.015625 0.83203125
vt 0 0.83203125
vt 0 0.81640625
vt 0.015625 0.81640625
vt 0.015625 0.81640625
vt 0 0.81640625
vt 0 0.83203125
vt 0.015625 0.83203125
vn 0 0 -1
vn 1 0 0
vn 0 0 1
vn -1 0 0
vn 0 1 0
vn 0 -1 0
usemtl m_74458ff2-f163-55f7-be33-ccce9ea6ce10
f 53/156/41 56/155/41 54/154/41 51/153/41
f 52/160/42 53/159/42 51/158/42 50/157/42
f 57/164/43 52/163/43 50/162/43 55/161/43
f 56/168/44 57/167/44 55/166/44 54/165/44
f 55/172/45 50/171/45 51/170/45 54/169/45
f 56/176/46 53/175/46 52/174/46 57/173/46
g bone 
o cube7
v 0.5 3.25 0.5
v 0.5 3.25 -0.5
v 0.5 2.25 0.5
v 0.5 2.25 -0.5
v -0.5 3.25 -0.5
v -0.5 3.25 0.5
v -0.5 2.25 -0.5
v -0.5 2.25 0.5
vt 0.5078125 0.8125
vt 0.5703125 0.8125
vt 0.5703125 0.75
vt 0.5078125 0.75
vt 0.5078125 0.8125
vt 0.5703125 0.8125
vt 0.5703125 0.75
vt 0.5078125 0.75
vt 0.5078125 0.8125
vt 0.5703125 0.8125
vt 0.5703125 0.75
vt 0.5078125 0.75
vt 0.5078125 0.8125
vt 0.5703125 0.8125
vt 0.5703125 0.75
vt 0.5078125 0.75
vt 0.5703125 0.75
vt 0.5078125 0.75
vt 0.5078125 0.8125
vt 0.5703125 0.8125
vt 0.5703125 0.8125
vt 0.5078125 0.8125
vt 0.5078125 0.75
vt 0.5703125 0.75
vn 0 0 -1
vn 1 0 0
vn 0 0 1
vn -1 0 0
vn 0 1 0
vn 0 -1 0
usemtl m_74458ff2-f163-55f7-be33-ccce9ea6ce10
f 61/180/47 64/179/47 62/178/47 59/177/47
f 60/184/48 61/183/48 59/182/48 58/181/48
f 65/188/49 60/187/49 58/186/49 63/185/49
f 64/192/50 65/191/50 63/190/50 62/189/50
f 63/196/51 58/195/51 59/194/51 62/193/51
f 64/200/52 61/199/52 60/198/52 65/197/52
g bone 
o cube2
v 0.625 2.25 0.625
v 0.625 2.25 -0.625
v 0.625 2 0.625
v 0.625 2 -0.625
v -0.625 2.25 -0.625
v -0.625 2.25 0.625
v -0.625 2 -0.625
v -0.625 2 0.625
vt 0.640625 1
vt 0.5625 1
vt 0.5625 0.984375
vt 0.640625 0.984375
vt 0.640625 1
vt 0.5625 1
vt 0.5625 0.984375
vt 0.640625 0.984375
vt 0.640625 1
vt 0.5625 1
vt 0.5625 0.984375
vt 0.640625 0.984375
vt 0.640625 1
vt 0.5625 1
vt 0.5625 0.984375
vt 0.640625 0.984375
vt 0.4765625 0.92578125
vt 0.3984375 0.92578125
vt 0.3984375 0.84765625
vt 0.4765625 0.84765625
vt 0.4765625 0.84765625
vt 0.3984375 0.84765625
vt 0.3984375 0.92578125
vt 0.4765625 0.92578125
vn 0 0 -1
vn 1 0 0
vn 0 0 1
vn -1 0 0
vn 0 1 0
vn 0 -1 0
usemtl m_74458ff2-f163-55f7-be33-ccce9ea6ce10
f 69/204/53 72/203/53 70/202/53 67/201/53
f 68/208/54 69/207/54 67/206/54 66/205/54
f 73/212/55 68/211/55 66/210/55 71/209/55
f 72/216/56 73/215/56 71/214/56 70/213/56
f 71/220/57 66/219/57 67/218/57 70/217/57
f 72/224/58 69/223/58 68/222/58 73/221/58