# Made in Blockbench 4.11.2
mtllib mlrs.mtl

g RocketLauncher Body MLRS 
o cube1
v 1.390625 1.5625 2.3125
v 1.390625 1.5625 -1.3125
v 1.390625 0.3125 2.3125
v 1.390625 0.3125 -1.3125
v 1.390625 1.5625 -1.3125
v 1.390625 1.5625 2.3125
v 1.390625 0.3125 -1.3125
v 1.390625 0.3125 2.3125
vt 0.087890625 0.83203125
vt 0.087890625 0.83203125
vt 0.087890625 0.79296875
vt 0.087890625 0.79296875
vt 0.267578125 0.8359375
vt 0.380859375 0.8359375
vt 0.380859375 0.796875
vt 0.267578125 0.796875
vt 0.08984375 0.83203125
vt 0.08984375 0.83203125
vt 0.08984375 0.79296875
vt 0.08984375 0.79296875
vt 0.267578125 0.794921875
vt 0.380859375 0.794921875
vt 0.380859375 0.755859375
vt 0.267578125 0.755859375
vt 0.087890625 0.677734375
vt 0.087890625 0.677734375
vt 0.087890625 0.791015625
vt 0.087890625 0.791015625
vt 0.08984375 0.791015625
vt 0.08984375 0.791015625
vt 0.08984375 0.677734375
vt 0.08984375 0.677734375
vn 0 0 -1
vn 1 0 0
vn 0 0 1
vn -1 0 0
vn 0 1 0
vn 0 -1 0
usemtl m_8ccb3ba2-3daf-a514-aec7-4e0e3097aead
f 4/4/1 7/3/1 5/2/1 2/1/1
f 3/8/2 4/7/2 2/6/2 1/5/2
f 8/12/3 3/11/3 1/10/3 6/9/3
f 7/16/4 8/15/4 6/14/4 5/13/4
f 6/20/5 1/19/5 2/18/5 5/17/5
f 7/24/6 4/23/6 3/22/6 8/21/6
g RocketLauncher Body MLRS 
o cube2
v -1.390625 1.5625 2.3125
v -1.390625 1.5625 -1.3125
v -1.390625 0.3125 2.3125
v -1.390625 0.3125 -1.3125
v -1.390625 1.5625 -1.3125
v -1.390625 1.5625 2.3125
v -1.390625 0.3125 -1.3125
v -1.390625 0.3125 2.3125
vt 0.275390625 0.65625
vt 0.275390625 0.65625
vt 0.275390625 0.6171875
vt 0.275390625 0.6171875
vt 0.267578125 0.75390625
vt 0.380859375 0.75390625
vt 0.380859375 0.71484375
vt 0.267578125 0.71484375
vt 0.27734375 0.65625
vt 0.27734375 0.65625
vt 0.27734375 0.6171875
vt 0.27734375 0.6171875
vt 0.1796875 0.712890625
vt 0.29296875 0.712890625
vt 0.29296875 0.673828125
vt 0.1796875 0.673828125
vt 0.279296875 0.54296875
vt 0.279296875 0.54296875
vt 0.279296875 0.65625
vt 0.279296875 0.65625
vt 0.28125 0.642578125
vt 0.28125 0.642578125
vt 0.28125 0.529296875
vt 0.28125 0.529296875
vn 0 0 -1
vn 1 0 0
vn 0 0 1
vn -1 0 0
vn 0 1 0
vn 0 -1 0
usemtl m_8ccb3ba2-3daf-a514-aec7-4e0e3097aead
f 12/28/7 15/27/7 13/26/7 10/25/7
f 11/32/8 12/31/8 10/30/8 9/29/8
f 16/36/9 11/35/9 9/34/9 14/33/9
f 15/40/10 16/39/10 14/38/10 13/37/10
f 14/44/11 9/43/11 10/42/11 13/41/11
f 15/48/12 12/47/12 11/46/12 16/45/12
g RocketLauncher Body MLRS 
o cube6
v 1.375 2.0625 3.0625
v 1.375 2.0625 -2.25
v 1.375 1.1875 3.0625
v 1.375 1.1875 -2.25
v -1.375 2.0625 3.0625
v -1.375 2.0625 -2.25
v -1.375 1.1875 3.0625
v -1.375 1.1875 -2.25
vt 0.43359375 0.8671875
vt 0.43359375 0.89453125
vt 0.267578125 0.89453125
vt 0.267578125 0.8671875
vt 0.43359375 0.837890625
vt 0.43359375 0.865234375
vt 0.267578125 0.865234375
vt 0.267578125 0.837890625
vn 1 0 0
vn -1 0 0
usemtl m_8ccb3ba2-3daf-a514-aec7-4e0e3097aead
f 20/49/13 18/50/13 17/51/13 19/52/13
f 23/53/14 21/54/14 22/55/14 24/56/14
g RocketLauncher Body MLRS 
o cube7
v -0.875 2.3125 3.0625
v -0.875 2.3125 -2.25
v -1.375 2.0625 3.0625
v -1.375 2.0625 -2.25
v 0.875 2.3125 3.0625
v 1.375 2.0625 3.0625
v 1.375 2.0625 -2.25
v 0.875 2.3125 -2.25
vt 0.01757812499999998 0.833984375
vt 0.01757812500000001 1
vt 0.0001087890625000136 1
vt 0.00010878906249998238 0.833984375
vt 0.072265625 1
vt 0.072265625 0.833984375
vt 0.0897349609375 0.833984375
vt 0.08973496093750002 1
vt 0.072265625 1
vt 0.01757812500000001 1
vt 0.01757812500000001 0.833984375
vt 0.072265625 0.833984375
vn -0.44721359549995804 0.8944271909999161 0
vn 0.44721359549995804 0.8944271909999161 0
vn 0 1 0
usemtl m_8ccb3ba2-3daf-a514-aec7-4e0e3097aead
f 25/57/15 26/58/15 28/59/15 27/60/15
f 32/61/16 29/62/16 30/63/16 31/64/16
f 32/65/17 26/66/17 25/67/17 29/68/17
g RocketLauncher Body MLRS 
o cube3
v 1.375 1.4375 2.9375
v 1.375 1.4375 -2.25
v 1.375 1.4375 2.9375
v 1.375 1.4375 -2.25
v -1.375 1.4375 -2.25
v -1.375 1.4375 2.9375
v -1.375 1.4375 -2.25
v -1.375 1.4375 2.9375
vt 0.1796875 0.71875
vt 0.265625 0.71875
vt 0.265625 0.71875
vt 0.1796875 0.71875
vt 0.283203125 0.642578125
vt 0.4453125 0.642578125
vt 0.4453125 0.642578125
vt 0.283203125 0.642578125
vt 0.1796875 0.716796875
vt 0.265625 0.716796875
vt 0.265625 0.716796875
vt 0.1796875 0.716796875
vt 0.283203125 0.640625
vt 0.4453125 0.640625
vt 0.4453125 0.640625
vt 0.283203125 0.640625
vt 0.177734375 0.837890625
vt 0.091796875 0.837890625
vt 0.091796875 1
vt 0.177734375 1
vt 0.177734375 0.8359375
vt 0.091796875 0.8359375
vt 0.091796875 0.673828125
vt 0.177734375 0.673828125
vn 0 0 -1
vn 1 0 0
vn 0 0 1
vn -1 0 0
vn 0 1 0
vn 0 -1 0
usemtl m_8ccb3ba2-3daf-a514-aec7-4e0e3097aead
f 36/72/18 39/71/18 37/70/18 34/69/18
f 35/76/19 36/75/19 34/74/19 33/73/19
f 40/80/20 35/79/20 33/78/20 38/77/20
f 39/84/21 40/83/21 38/82/21 37/81/21
f 38/88/22 33/87/22 34/86/22 37/85/22
f 39/92/23 36/91/23 35/90/23 40/89/23
g RocketLauncher Body MLRS 
o cube4
v 1.375 2.0625 0.5
v 1.375 2.0625 0.5
v 1.375 1.4375 0.5
v 1.375 1.4375 0.5
v -1.375 2.0625 0.5
v -1.375 2.0625 0.5
v -1.375 1.4375 0.5
v -1.375 1.4375 0.5
vt 0.34765625 1
vt 0.43359375 1
vt 0.43359375 0.98046875
vt 0.34765625 0.98046875
vt 0 0.681640625
vt 0 0.681640625
vt 0 0.662109375
vt 0 0.662109375
vt 0.34765625 0.978515625
vt 0.43359375 0.978515625
vt 0.43359375 0.958984375
vt 0.34765625 0.958984375
vt 0.361328125 0.921875
vt 0.361328125 0.921875
vt 0.361328125 0.90234375
vt 0.361328125 0.90234375
vt 0.265625 0.71484375
vt 0.1796875 0.71484375
vt 0.1796875 0.71484375
vt 0.265625 0.71484375
vt 0.087890625 0.67578125
vt 0.001953125 0.67578125
vt 0.001953125 0.67578125
vt 0.087890625 0.67578125
vn 0 0 -1
vn 1 0 0
vn 0 0 1
vn -1 0 0
vn 0 1 0
vn 0 -1 0
usemtl m_8ccb3ba2-3daf-a514-aec7-4e0e3097aead
f 44/96/24 47/95/24 45/94/24 42/93/24
f 43/100/25 44/99/25 42/98/25 41/97/25
f 48/104/26 43/103/26 41/102/26 46/101/26
f 47/108/27 48/107/27 46/106/27 45/105/27
f 46/112/28 41/111/28 42/110/28 45/109/28
f 47/116/29 44/115/29 43/114/29 48/113/29
g RocketLauncher Body MLRS 
o cube8
v 0.875 2.3125 0.5
v 1.375 2.0625 0.5
v -0.875 2.3125 0.5
v -1.375 2.0625 0.5
vt 0.0859375 0.68359375
vt 0.0703125 0.69140625
vt 0.015625 0.69140625
vt 0 0.68359375
vn 0 0 1
usemtl m_8ccb3ba2-3daf-a514-aec7-4e0e3097aead
f 50/117/30 49/118/30 51/119/30 52/120/30
g RocketLauncher Body MLRS 
o cylinder
v 1.125 1.640625 -2.015625
v 1.125 1.640625 2.984375
v 1.0473349570550448 1.453125 -2.015625
v 1.0473349570550448 1.453125 2.984375
v 0.9375 1.5629599570550448 -2.015625
v 0.9375 1.5629599570550448 2.984375
v 0.9375 1.7182900429449552 -2.015625
v 0.9375 1.7182900429449552 2.984375
v 1.0473349570550448 1.828125 -2.015625
v 1.0473349570550448 1.828125 2.984375
v 1.2026650429449552 1.453125 -2.015625
v 1.2026650429449552 1.453125 2.984375
v 1.3125 1.5629599570550448 -2.015625
v 1.3125 1.5629599570550448 2.984375
v 1.3125 1.7182900429449552 -2.015625
v 1.3125 1.7182900429449552 2.984375
v 1.2026650429449552 1.828125 -2.015625
v 1.2026650429449552 1.828125 2.984375
vt 0.355942578125 0.91015625
vt 0.359375 0.913588671875
vt 0.353515625 0.916015625
vt 0.50390625 0.9453125
vt 0.34765625 0.9453125
vt 0.34765625 0.94140625
vt 0.50390625 0.94140625
vt 0.34765625 0.899916796875
vt 0.351088671875 0.896484375
vt 0.353515625 0.90234375
vt 0.359375 0.913588671875
vt 0.359375 0.918442578125
vt 0.353515625 0.916015625
vt 0.50390625 0.95703125
vt 0.34765625 0.95703125
vt 0.34765625 0.953125
vt 0.50390625 0.953125
vt 0.34765625 0.904770703125
vt 0.34765625 0.899916796875
vt 0.353515625 0.90234375
vt 0.359375 0.918442578125
vt 0.355942578125 0.921875
vt 0.353515625 0.916015625
vt 0.50390625 0.939453125
vt 0.34765625 0.939453125
vt 0.34765625 0.935546875
vt 0.50390625 0.935546875
vt 0.351088671875 0.908203125
vt 0.34765625 0.904770703125
vt 0.353515625 0.90234375
vt 0.355942578125 0.921875
vt 0.351088671875 0.921875
vt 0.353515625 0.916015625
vt 0.267578125 0.5
vt 0.267578125 0.65625
vt 0.263671875 0.65625
vt 0.263671875 0.5
vt 0.355942578125 0.908203125
vt 0.351088671875 0.908203125
vt 0.353515625 0.90234375
vt 0.351088671875 0.91015625
vt 0.355942578125 0.91015625
vt 0.353515625 0.916015625
vt 0.26953125 0.65625
vt 0.26953125 0.5
vt 0.2734375 0.5
vt 0.2734375 0.65625
vt 0.351088671875 0.896484375
vt 0.355942578125 0.896484375
vt 0.353515625 0.90234375
vt 0.34765625 0.913588671875
vt 0.351088671875 0.91015625
vt 0.353515625 0.916015625
vt 0.50390625 0.9296875
vt 0.50390625 0.93359375
vt 0.34765625 0.93359375
vt 0.34765625 0.9296875
vt 0.355942578125 0.896484375
vt 0.359375 0.899916796875
vt 0.353515625 0.90234375
vt 0.34765625 0.918442578125
vt 0.34765625 0.913588671875
vt 0.353515625 0.916015625
vt 0.50390625 0.947265625
vt 0.50390625 0.951171875
vt 0.34765625 0.951171875
vt 0.34765625 0.947265625
vt 0.359375 0.899916796875
vt 0.359375 0.904770703125
vt 0.353515625 0.90234375
vt 0.351088671875 0.921875
vt 0.34765625 0.918442578125
vt 0.353515625 0.916015625
vt 0.50390625 0.923828125
vt 0.50390625 0.927734375
vt 0.34765625 0.927734375
vt 0.34765625 0.923828125
vt 0.359375 0.904770703125
vt 0.355942578125 0.908203125
vt 0.353515625 0.90234375
vn 0 0 -1
vn -0.7071067811865476 -0.7071067811865476 0
vn 0 0 1
vn 0 0 -1
vn -1 0 0
vn 0 0 1
vn 0 0 -1
vn -0.7071067811865476 0.7071067811865475 0
vn 0 0 1
vn 0 0 -1
vn 0 1 0
vn 0 0 1
vn 0 0 -1
vn 0 -1 0
vn 0 0 1
vn 0 0 -1
vn 0.7071067811865476 -0.7071067811865476 0
vn 0 0 1
vn 0 0 -1
vn 1 0 0
vn 0 0 1
vn 0 0 -1
vn 0.7071067811865476 0.7071067811865475 0
vn 0 0 1
usemtl m_8ccb3ba2-3daf-a514-aec7-4e0e3097aead
f 55/121/31 57/122/31 53/123/31
f 58/124/32 57/125/32 55/126/32 56/127/32
f 58/128/33 56/129/33 54/130/33
f 57/131/34 59/132/34 53/133/34
f 60/134/35 59/135/35 57/136/35 58/137/35
f 60/138/36 58/139/36 54/140/36
f 59/141/37 61/142/37 53/143/37
f 62/144/38 61/145/38 59/146/38 60/147/38
f 62/148/39 60/149/39 54/150/39
f 61/151/40 69/152/40 53/153/40
f 70/154/41 69/155/41 61/156/41 62/157/41
f 70/158/42 62/159/42 54/160/42
f 63/161/43 55/162/43 53/163/43
f 56/164/44 55/165/44 63/166/44 64/167/44
f 56/168/45 64/169/45 54/170/45
f 65/171/46 63/172/46 53/173/46
f 63/174/47 65/175/47 66/176/47 64/177/47
f 64/178/48 66/179/48 54/180/48
f 67/181/49 65/182/49 53/183/49
f 65/184/50 67/185/50 68/186/50 66/187/50
f 66/188/51 68/189/51 54/190/51
f 69/191/52 67/192/52 53/193/52
f 67/194/53 69/195/53 70/196/53 68/197/53
f 68/198/54 70/199/54 54/200/54
g RocketLauncher Body MLRS 
o cylinder9
v 0.6875 1.640625 -2.015625
v 0.6875 1.640625 2.984375
v 0.6098349570550446 1.453125 -2.015625
v 0.6098349570550446 1.453125 2.984375
v 0.5 1.5629599570550448 -2.015625
v 0.5 1.5629599570550448 2.984375
v 0.5 1.7182900429449552 -2.015625
v 0.5 1.7182900429449552 2.984375
v 0.6098349570550446 1.828125 -2.015625
v 0.6098349570550446 1.828125 2.984375
v 0.7651650429449554 1.453125 -2.015625
v 0.7651650429449554 1.453125 2.984375
v 0.875 1.5629599570550448 -2.015625
v 0.875 1.5629599570550448 2.984375
v 0.875 1.7182900429449552 -2.015625
v 0.875 1.7182900429449552 2.984375
v 0.7651650429449554 1.828125 -2.015625
v 0.7651650429449554 1.828125 2.984375
vt 0.355942578125 0.91015625
vt 0.359375 0.913588671875
vt 0.353515625 0.916015625
vt 0.50390625 0.9453125
vt 0.34765625 0.9453125
vt 0.34765625 0.94140625
vt 0.50390625 0.94140625
vt 0.34765625 0.899916796875
vt 0.351088671875 0.896484375
vt 0.353515625 0.90234375
vt 0.359375 0.913588671875
vt 0.359375 0.918442578125
vt 0.353515625 0.916015625
vt 0.50390625 0.95703125
vt 0.34765625 0.95703125
vt 0.34765625 0.953125
vt 0.50390625 0.953125
vt 0.34765625 0.904770703125
vt 0.34765625 0.899916796875
vt 0.353515625 0.90234375
vt 0.359375 0.918442578125
vt 0.355942578125 0.921875
vt 0.353515625 0.916015625
vt 0.50390625 0.939453125
vt 0.34765625 0.939453125
vt 0.34765625 0.935546875
vt 0.50390625 0.935546875
vt 0.351088671875 0.908203125
vt 0.34765625 0.904770703125
vt 0.353515625 0.90234375
vt 0.355942578125 0.921875
vt 0.351088671875 0.921875
vt 0.353515625 0.916015625
vt 0.267578125 0.5
vt 0.267578125 0.65625
vt 0.263671875 0.65625
vt 0.263671875 0.5
vt 0.355942578125 0.908203125
vt 0.351088671875 0.908203125
vt 0.353515625 0.90234375
vt 0.351088671875 0.91015625
vt 0.355942578125 0.91015625
vt 0.353515625 0.916015625
vt 0.26953125 0.65625
vt 0.26953125 0.5
vt 0.2734375 0.5
vt 0.2734375 0.65625
vt 0.351088671875 0.896484375
vt 0.355942578125 0.896484375
vt 0.353515625 0.90234375
vt 0.34765625 0.913588671875
vt 0.351088671875 0.91015625
vt 0.353515625 0.916015625
vt 0.50390625 0.9296875
vt 0.50390625 0.93359375
vt 0.34765625 0.93359375
vt 0.34765625 0.9296875
vt 0.355942578125 0.896484375
vt 0.359375 0.899916796875
vt 0.353515625 0.90234375
vt 0.34765625 0.918442578125
vt 0.34765625 0.913588671875
vt 0.353515625 0.916015625
vt 0.50390625 0.947265625
vt 0.50390625 0.951171875
vt 0.34765625 0.951171875
vt 0.34765625 0.947265625
vt 0.359375 0.899916796875
vt 0.359375 0.904770703125
vt 0.353515625 0.90234375
vt 0.351088671875 0.921875
vt 0.34765625 0.918442578125
vt 0.353515625 0.916015625
vt 0.50390625 0.923828125
vt 0.50390625 0.927734375
vt 0.34765625 0.927734375
vt 0.34765625 0.923828125
vt 0.359375 0.904770703125
vt 0.355942578125 0.908203125
vt 0.353515625 0.90234375
vn 0 0 -1
vn -0.7071067811865476 -0.7071067811865476 0
vn 0 0 1
vn 0 0 -1
vn -1 0 0
vn 0 0 1
vn 0 0 -1
vn -0.7071067811865476 0.7071067811865475 0
vn 0 0 1
vn 0 0 -1
vn 0 1 0
vn 0 0 1
vn 0 0 -1
vn 0 -1 0
vn 0 0 1
vn 0 0 -1
vn 0.7071067811865476 -0.7071067811865476 0
vn 0 0 1
vn 0 0 -1
vn 1 0 0
vn 0 0 1
vn 0 0 -1
vn 0.7071067811865476 0.7071067811865475 0
vn 0 0 1
usemtl m_8ccb3ba2-3daf-a514-aec7-4e0e3097aead
f 73/201/55 75/202/55 71/203/55
f 76/204/56 75/205/56 73/206/56 74/207/56
f 76/208/57 74/209/57 72/210/57
f 75/211/58 77/212/58 71/213/58
f 78/214/59 77/215/59 75/216/59 76/217/59
f 78/218/60 76/219/60 72/220/60
f 77/221/61 79/222/61 71/223/61
f 80/224/62 79/225/62 77/226/62 78/227/62
f 80/228/63 78/229/63 72/230/63
f 79/231/64 87/232/64 71/233/64
f 88/234/65 87/235/65 79/236/65 80/237/65
f 88/238/66 80/239/66 72/240/66
f 81/241/67 73/242/67 71/243/67
f 74/244/68 73/245/68 81/246/68 82/247/68
f 74/248/69 82/249/69 72/250/69
f 83/251/70 81/252/70 71/253/70
f 81/254/71 83/255/71 84/256/71 82/257/71
f 82/258/72 84/259/72 72/260/72
f 85/261/73 83/262/73 71/263/73
f 83/264/74 85/265/74 86/266/74 84/267/74
f 84/268/75 86/269/75 72/270/75
f 87/271/76 85/272/76 71/273/76
f 85/274/77 87/275/77 88/276/77 86/277/77
f 86/278/78 88/279/78 72/280/78
g RocketLauncher Body MLRS 
o cylinder10
v 0.25 1.640625 -2.015625
v 0.25 1.640625 2.984375
v 0.17233495705504467 1.453125 -2.015625
v 0.17233495705504467 1.453125 2.984375
v 0.0625 1.5629599570550448 -2.015625
v 0.0625 1.5629599570550448 2.984375
v 0.0625 1.7182900429449552 -2.015625
v 0.0625 1.7182900429449552 2.984375
v 0.17233495705504465 1.828125 -2.015625
v 0.17233495705504465 1.828125 2.984375
v 0.32766504294495535 1.453125 -2.015625
v 0.32766504294495535 1.453125 2.984375
v 0.4375 1.5629599570550448 -2.015625
v 0.4375 1.5629599570550448 2.984375
v 0.4375 1.7182900429449552 -2.015625
v 0.4375 1.7182900429449552 2.984375
v 0.32766504294495535 1.828125 -2.015625
v 0.32766504294495535 1.828125 2.984375
vt 0.355942578125 0.91015625
vt 0.359375 0.913588671875
vt 0.353515625 0.916015625
vt 0.50390625 0.9453125
vt 0.34765625 0.9453125
vt 0.34765625 0.94140625
vt 0.50390625 0.94140625
vt 0.34765625 0.899916796875
vt 0.351088671875 0.896484375
vt 0.353515625 0.90234375
vt 0.359375 0.913588671875
vt 0.359375 0.918442578125
vt 0.353515625 0.916015625
vt 0.50390625 0.95703125
vt 0.34765625 0.95703125
vt 0.34765625 0.953125
vt 0.50390625 0.953125
vt 0.34765625 0.904770703125
vt 0.34765625 0.899916796875
vt 0.353515625 0.90234375
vt 0.359375 0.918442578125
vt 0.355942578125 0.921875
vt 0.353515625 0.916015625
vt 0.50390625 0.939453125
vt 0.34765625 0.939453125
vt 0.34765625 0.935546875
vt 0.50390625 0.935546875
vt 0.351088671875 0.908203125
vt 0.34765625 0.904770703125
vt 0.353515625 0.90234375
vt 0.355942578125 0.921875
vt 0.351088671875 0.921875
vt 0.353515625 0.916015625
vt 0.267578125 0.5
vt 0.267578125 0.65625
vt 0.263671875 0.65625
vt 0.263671875 0.5
vt 0.355942578125 0.908203125
vt 0.351088671875 0.908203125
vt 0.353515625 0.90234375
vt 0.351088671875 0.91015625
vt 0.355942578125 0.91015625
vt 0.353515625 0.916015625
vt 0.26953125 0.65625
vt 0.26953125 0.5
vt 0.2734375 0.5
vt 0.2734375 0.65625
vt 0.351088671875 0.896484375
vt 0.355942578125 0.896484375
vt 0.353515625 0.90234375
vt 0.34765625 0.913588671875
vt 0.351088671875 0.91015625
vt 0.353515625 0.916015625
vt 0.50390625 0.9296875
vt 0.50390625 0.93359375
vt 0.34765625 0.93359375
vt 0.34765625 0.9296875
vt 0.355942578125 0.896484375
vt 0.359375 0.899916796875
vt 0.353515625 0.90234375
vt 0.34765625 0.918442578125
vt 0.34765625 0.913588671875
vt 0.353515625 0.916015625
vt 0.50390625 0.947265625
vt 0.50390625 0.951171875
vt 0.34765625 0.951171875
vt 0.34765625 0.947265625
vt 0.359375 0.899916796875
vt 0.359375 0.904770703125
vt 0.353515625 0.90234375
vt 0.351088671875 0.921875
vt 0.34765625 0.918442578125
vt 0.353515625 0.916015625
vt 0.50390625 0.923828125
vt 0.50390625 0.927734375
vt 0.34765625 0.927734375
vt 0.34765625 0.923828125
vt 0.359375 0.904770703125
vt 0.355942578125 0.908203125
vt 0.353515625 0.90234375
vn 0 0 -1
vn -0.7071067811865476 -0.7071067811865476 0
vn 0 0 1
vn 0 0 -1
vn -1 0 0
vn 0 0 1
vn 0 0 -1
vn -0.7071067811865476 0.7071067811865475 0
vn 0 0 1
vn 0 0 -1
vn 0 1 0
vn 0 0 1
vn 0 0 -1
vn 0 -1 0
vn 0 0 1
vn 0 0 -1
vn 0.7071067811865476 -0.7071067811865476 0
vn 0 0 1
vn 0 0 -1
vn 1 0 0
vn 0 0 1
vn 0 0 -1
vn 0.7071067811865476 0.7071067811865475 0
vn 0 0 1
usemtl m_8ccb3ba2-3daf-a514-aec7-4e0e3097aead
f 91/281/79 93/282/79 89/283/79
f 94/284/80 93/285/80 91/286/80 92/287/80
f 94/288/81 92/289/81 90/290/81
f 93/291/82 95/292/82 89/293/82
f 96/294/83 95/295/83 93/296/83 94/297/83
f 96/298/84 94/299/84 90/300/84
f 95/301/85 97/302/85 89/303/85
f 98/304/86 97/305/86 95/306/86 96/307/86
f 98/308/87 96/309/87 90/310/87
f 97/311/88 105/312/88 89/313/88
f 106/314/89 105/315/89 97/316/89 98/317/89
f 106/318/90 98/319/90 90/320/90
f 99/321/91 91/322/91 89/323/91
f 92/324/92 91/325/92 99/326/92 100/327/92
f 92/328/93 100/329/93 90/330/93
f 101/331/94 99/332/94 89/333/94
f 99/334/95 101/335/95 102/336/95 100/337/95
f 100/338/96 102/339/96 90/340/96
f 103/341/97 101/342/97 89/343/97
f 101/344/98 103/345/98 104/346/98 102/347/98
f 102/348/99 104/349/99 90/350/99
f 105/351/100 103/352/100 89/353/100
f 103/354/101 105/355/101 106/356/101 104/357/101
f 104/358/102 106/359/102 90/360/102
g RocketLauncher Body MLRS 
o cylinder11
v 0.25 2.078125 -2.015625
v 0.25 2.078125 2.984375
v 0.17233495705504467 1.890625 -2.015625
v 0.17233495705504467 1.890625 2.984375
v 0.0625 2.0004599570550448 -2.015625
v 0.0625 2.0004599570550448 2.984375
v 0.0625 2.1557900429449552 -2.015625
v 0.0625 2.1557900429449552 2.984375
v 0.17233495705504465 2.265625 -2.015625
v 0.17233495705504465 2.265625 2.984375
v 0.32766504294495535 1.890625 -2.015625
v 0.32766504294495535 1.890625 2.984375
v 0.4375 2.0004599570550448 -2.015625
v 0.4375 2.0004599570550448 2.984375
v 0.4375 2.1557900429449552 -2.015625
v 0.4375 2.1557900429449552 2.984375
v 0.32766504294495535 2.265625 -2.015625
v 0.32766504294495535 2.265625 2.984375
vt 0.355942578125 0.91015625
vt 0.359375 0.913588671875
vt 0.353515625 0.916015625
vt 0.50390625 0.9453125
vt 0.34765625 0.9453125
vt 0.34765625 0.94140625
vt 0.50390625 0.94140625
vt 0.34765625 0.899916796875
vt 0.351088671875 0.896484375
vt 0.353515625 0.90234375
vt 0.359375 0.913588671875
vt 0.359375 0.918442578125
vt 0.353515625 0.916015625
vt 0.50390625 0.95703125
vt 0.34765625 0.95703125
vt 0.34765625 0.953125
vt 0.50390625 0.953125
vt 0.34765625 0.904770703125
vt 0.34765625 0.899916796875
vt 0.353515625 0.90234375
vt 0.359375 0.918442578125
vt 0.355942578125 0.921875
vt 0.353515625 0.916015625
vt 0.50390625 0.939453125
vt 0.34765625 0.939453125
vt 0.34765625 0.935546875
vt 0.50390625 0.935546875
vt 0.351088671875 0.908203125
vt 0.34765625 0.904770703125
vt 0.353515625 0.90234375
vt 0.355942578125 0.921875
vt 0.351088671875 0.921875
vt 0.353515625 0.916015625
vt 0.267578125 0.5
vt 0.267578125 0.65625
vt 0.263671875 0.65625
vt 0.263671875 0.5
vt 0.355942578125 0.908203125
vt 0.351088671875 0.908203125
vt 0.353515625 0.90234375
vt 0.351088671875 0.91015625
vt 0.355942578125 0.91015625
vt 0.353515625 0.916015625
vt 0.26953125 0.65625
vt 0.26953125 0.5
vt 0.2734375 0.5
vt 0.2734375 0.65625
vt 0.351088671875 0.896484375
vt 0.355942578125 0.896484375
vt 0.353515625 0.90234375
vt 0.34765625 0.913588671875
vt 0.351088671875 0.91015625
vt 0.353515625 0.916015625
vt 0.50390625 0.9296875
vt 0.50390625 0.93359375
vt 0.34765625 0.93359375
vt 0.34765625 0.9296875
vt 0.355942578125 0.896484375
vt 0.359375 0.899916796875
vt 0.353515625 0.90234375
vt 0.34765625 0.918442578125
vt 0.34765625 0.913588671875
vt 0.353515625 0.916015625
vt 0.50390625 0.947265625
vt 0.50390625 0.951171875
vt 0.34765625 0.951171875
vt 0.34765625 0.947265625
vt 0.359375 0.899916796875
vt 0.359375 0.904770703125
vt 0.353515625 0.90234375
vt 0.351088671875 0.921875
vt 0.34765625 0.918442578125
vt 0.353515625 0.916015625
vt 0.50390625 0.923828125
vt 0.50390625 0.927734375
vt 0.34765625 0.927734375
vt 0.34765625 0.923828125
vt 0.359375 0.904770703125
vt 0.355942578125 0.908203125
vt 0.353515625 0.90234375
vn 0 0 -1
vn -0.7071067811865476 -0.7071067811865476 0
vn 0 0 1
vn 0 0 -1
vn -1 0 0
vn 0 0 1
vn 0 0 -1
vn -0.7071067811865476 0.7071067811865475 0
vn 0 0 1
vn 0 0 -1
vn 0 1 0
vn 0 0 1
vn 0 0 -1
vn 0 -1 0
vn 0 0 1
vn 0 0 -1
vn 0.7071067811865476 -0.7071067811865476 0
vn 0 0 1
vn 0 0 -1
vn 1 0 0
vn 0 0 1
vn 0 0 -1
vn 0.7071067811865476 0.7071067811865475 0
vn 0 0 1
usemtl m_8ccb3ba2-3daf-a514-aec7-4e0e3097aead
f 109/361/103 111/362/103 107/363/103
f 112/364/104 111/365/104 109/366/104 110/367/104
f 112/368/105 110/369/105 108/370/105
f 111/371/106 113/372/106 107/373/106
f 114/374/107 113/375/107 111/376/107 112/377/107
f 114/378/108 112/379/108 108/380/108
f 113/381/109 115/382/109 107/383/109
f 116/384/110 115/385/110 113/386/110 114/387/110
f 116/388/111 114/389/111 108/390/111
f 115/391/112 123/392/112 107/393/112
f 124/394/113 123/395/113 115/396/113 116/397/113
f 124/398/114 116/399/114 108/400/114
f 117/401/115 109/402/115 107/403/115
f 110/404/116 109/405/116 117/406/116 118/407/116
f 110/408/117 118/409/117 108/410/117
f 119/411/118 117/412/118 107/413/118
f 117/414/119 119/415/119 120/416/119 118/417/119
f 118/418/120 120/419/120 108/420/120
f 121/421/121 119/422/121 107/423/121
f 119/424/122 121/425/122 122/426/122 120/427/122
f 120/428/123 122/429/123 108/430/123
f 123/431/124 121/432/124 107/433/124
f 121/434/125 123/435/125 124/436/125 122/437/125
f 122/438/126 124/439/126 108/440/126
g RocketLauncher Body MLRS 
o cylinder12
v 0.6875 2.078125 -2.015625
v 0.6875 2.078125 2.984375
v 0.6098349570550446 1.890625 -2.015625
v 0.6098349570550446 1.890625 2.984375
v 0.5 2.0004599570550448 -2.015625
v 0.5 2.0004599570550448 2.984375
v 0.5 2.1557900429449552 -2.015625
v 0.5 2.1557900429449552 2.984375
v 0.6098349570550446 2.265625 -2.015625
v 0.6098349570550446 2.265625 2.984375
v 0.7651650429449554 1.890625 -2.015625
v 0.7651650429449554 1.890625 2.984375
v 0.875 2.0004599570550448 -2.015625
v 0.875 2.0004599570550448 2.984375
v 0.875 2.1557900429449552 -2.015625
v 0.875 2.1557900429449552 2.984375
v 0.7651650429449554 2.265625 -2.015625
v 0.7651650429449554 2.265625 2.984375
vt 0.355942578125 0.91015625
vt 0.359375 0.913588671875
vt 0.353515625 0.916015625
vt 0.50390625 0.9453125
vt 0.34765625 0.9453125
vt 0.34765625 0.94140625
vt 0.50390625 0.94140625
vt 0.34765625 0.899916796875
vt 0.351088671875 0.896484375
vt 0.353515625 0.90234375
vt 0.359375 0.913588671875
vt 0.359375 0.918442578125
vt 0.353515625 0.916015625
vt 0.50390625 0.95703125
vt 0.34765625 0.95703125
vt 0.34765625 0.953125
vt 0.50390625 0.953125
vt 0.34765625 0.904770703125
vt 0.34765625 0.899916796875
vt 0.353515625 0.90234375
vt 0.359375 0.918442578125
vt 0.355942578125 0.921875
vt 0.353515625 0.916015625
vt 0.50390625 0.939453125
vt 0.34765625 0.939453125
vt 0.34765625 0.935546875
vt 0.50390625 0.935546875
vt 0.351088671875 0.908203125
vt 0.34765625 0.904770703125
vt 0.353515625 0.90234375
vt 0.355942578125 0.921875
vt 0.351088671875 0.921875
vt 0.353515625 0.916015625
vt 0.267578125 0.5
vt 0.267578125 0.65625
vt 0.263671875 0.65625
vt 0.263671875 0.5
vt 0.355942578125 0.908203125
vt 0.351088671875 0.908203125
vt 0.353515625 0.90234375
vt 0.351088671875 0.91015625
vt 0.355942578125 0.91015625
vt 0.353515625 0.916015625
vt 0.26953125 0.65625
vt 0.26953125 0.5
vt 0.2734375 0.5
vt 0.2734375 0.65625
vt 0.351088671875 0.896484375
vt 0.355942578125 0.896484375
vt 0.353515625 0.90234375
vt 0.34765625 0.913588671875
vt 0.351088671875 0.91015625
vt 0.353515625 0.916015625
vt 0.50390625 0.9296875
vt 0.50390625 0.93359375
vt 0.34765625 0.93359375
vt 0.34765625 0.9296875
vt 0.355942578125 0.896484375
vt 0.359375 0.899916796875
vt 0.353515625 0.90234375
vt 0.34765625 0.918442578125
vt 0.34765625 0.913588671875
vt 0.353515625 0.916015625
vt 0.50390625 0.947265625
vt 0.50390625 0.951171875
vt 0.34765625 0.951171875
vt 0.34765625 0.947265625
vt 0.359375 0.899916796875
vt 0.359375 0.904770703125
vt 0.353515625 0.90234375
vt 0.351088671875 0.921875
vt 0.34765625 0.918442578125
vt 0.353515625 0.916015625
vt 0.50390625 0.923828125
vt 0.50390625 0.927734375
vt 0.34765625 0.927734375
vt 0.34765625 0.923828125
vt 0.359375 0.904770703125
vt 0.355942578125 0.908203125
vt 0.353515625 0.90234375
vn 0 0 -1
vn -0.7071067811865476 -0.7071067811865476 0
vn 0 0 1
vn 0 0 -1
vn -1 0 0
vn 0 0 1
vn 0 0 -1
vn -0.7071067811865476 0.7071067811865475 0
vn 0 0 1
vn 0 0 -1
vn 0 1 0
vn 0 0 1
vn 0 0 -1
vn 0 -1 0
vn 0 0 1
vn 0 0 -1
vn 0.7071067811865476 -0.7071067811865476 0
vn 0 0 1
vn 0 0 -1
vn 1 0 0
vn 0 0 1
vn 0 0 -1
vn 0.7071067811865476 0.7071067811865475 0
vn 0 0 1
usemtl m_8ccb3ba2-3daf-a514-aec7-4e0e3097aead
f 127/441/127 129/442/127 125/443/127
f 130/444/128 129/445/128 127/446/128 128/447/128
f 130/448/129 128/449/129 126/450/129
f 129/451/130 131/452/130 125/453/130
f 132/454/131 131/455/131 129/456/131 130/457/131
f 132/458/132 130/459/132 126/460/132
f 131/461/133 133/462/133 125/463/133
f 134/464/134 133/465/134 131/466/134 132/467/134
f 134/468/135 132/469/135 126/470/135
f 133/471/136 141/472/136 125/473/136
f 142/474/137 141/475/137 133/476/137 134/477/137
f 142/478/138 134/479/138 126/480/138
f 135/481/139 127/482/139 125/483/139
f 128/484/140 127/485/140 135/486/140 136/487/140
f 128/488/141 136/489/141 126/490/141
f 137/491/142 135/492/142 125/493/142
f 135/494/143 137/495/143 138/496/143 136/497/143
f 136/498/144 138/499/144 126/500/144
f 139/501/145 137/502/145 125/503/145
f 137/504/146 139/505/146 140/506/146 138/507/146
f 138/508/147 140/509/147 126/510/147
f 141/511/148 139/512/148 125/513/148
f 139/514/149 141/515/149 142/516/149 140/517/149
f 140/518/150 142/519/150 126/520/150
g RocketLauncher Body MLRS 
o cylinder13
v 0.6875 2.078125 -2.015625
v 0.6875 2.078125 2.984375
v 0.6098349570550446 1.890625 -2.015625
v 0.6098349570550446 1.890625 2.984375
v 0.5 2.0004599570550448 -2.015625
v 0.5 2.0004599570550448 2.984375
v 0.5 2.1557900429449552 -2.015625
v 0.5 2.1557900429449552 2.984375
v 0.6098349570550446 2.265625 -2.015625
v 0.6098349570550446 2.265625 2.984375
v 0.7651650429449554 1.890625 -2.015625
v 0.7651650429449554 1.890625 2.984375
v 0.875 2.0004599570550448 -2.015625
v 0.875 2.0004599570550448 2.984375
v 0.875 2.1557900429449552 -2.015625
v 0.875 2.1557900429449552 2.984375
v 0.7651650429449554 2.265625 -2.015625
v 0.7651650429449554 2.265625 2.984375
vt 0.355942578125 0.91015625
vt 0.359375 0.913588671875
vt 0.353515625 0.916015625
vt 0.50390625 0.9453125
vt 0.34765625 0.9453125
vt 0.34765625 0.94140625
vt 0.50390625 0.94140625
vt 0.34765625 0.899916796875
vt 0.351088671875 0.896484375
vt 0.353515625 0.90234375
vt 0.359375 0.913588671875
vt 0.359375 0.918442578125
vt 0.353515625 0.916015625
vt 0.50390625 0.95703125
vt 0.34765625 0.95703125
vt 0.34765625 0.953125
vt 0.50390625 0.953125
vt 0.34765625 0.904770703125
vt 0.34765625 0.899916796875
vt 0.353515625 0.90234375
vt 0.359375 0.918442578125
vt 0.355942578125 0.921875
vt 0.353515625 0.916015625
vt 0.50390625 0.939453125
vt 0.34765625 0.939453125
vt 0.34765625 0.935546875
vt 0.50390625 0.935546875
vt 0.351088671875 0.908203125
vt 0.34765625 0.904770703125
vt 0.353515625 0.90234375
vt 0.355942578125 0.921875
vt 0.351088671875 0.921875
vt 0.353515625 0.916015625
vt 0.267578125 0.5
vt 0.267578125 0.65625
vt 0.263671875 0.65625
vt 0.263671875 0.5
vt 0.355942578125 0.908203125
vt 0.351088671875 0.908203125
vt 0.353515625 0.90234375
vt 0.351088671875 0.91015625
vt 0.355942578125 0.91015625
vt 0.353515625 0.916015625
vt 0.26953125 0.65625
vt 0.26953125 0.5
vt 0.2734375 0.5
vt 0.2734375 0.65625
vt 0.351088671875 0.896484375
vt 0.355942578125 0.896484375
vt 0.353515625 0.90234375
vt 0.34765625 0.913588671875
vt 0.351088671875 0.91015625
vt 0.353515625 0.916015625
vt 0.50390625 0.9296875
vt 0.50390625 0.93359375
vt 0.34765625 0.93359375
vt 0.34765625 0.9296875
vt 0.355942578125 0.896484375
vt 0.359375 0.899916796875
vt 0.353515625 0.90234375
vt 0.34765625 0.918442578125
vt 0.34765625 0.913588671875
vt 0.353515625 0.916015625
vt 0.50390625 0.947265625
vt 0.50390625 0.951171875
vt 0.34765625 0.951171875
vt 0.34765625 0.947265625
vt 0.359375 0.899916796875
vt 0.359375 0.904770703125
vt 0.353515625 0.90234375
vt 0.351088671875 0.921875
vt 0.34765625 0.918442578125
vt 0.353515625 0.916015625
vt 0.50390625 0.923828125
vt 0.50390625 0.927734375
vt 0.34765625 0.927734375
vt 0.34765625 0.923828125
vt 0.359375 0.904770703125
vt 0.355942578125 0.908203125
vt 0.353515625 0.90234375
vn 0 0 -1
vn -0.7071067811865476 -0.7071067811865476 0
vn 0 0 1
vn 0 0 -1
vn -1 0 0
vn 0 0 1
vn 0 0 -1
vn -0.7071067811865476 0.7071067811865475 0
vn 0 0 1
vn 0 0 -1
vn 0 1 0
vn 0 0 1
vn 0 0 -1
vn 0 -1 0
vn 0 0 1
vn 0 0 -1
vn 0.7071067811865476 -0.7071067811865476 0
vn 0 0 1
vn 0 0 -1
vn 1 0 0
vn 0 0 1
vn 0 0 -1
vn 0.7071067811865476 0.7071067811865475 0
vn 0 0 1
usemtl m_8ccb3ba2-3daf-a514-aec7-4e0e3097aead
f 145/521/151 147/522/151 143/523/151
f 148/524/152 147/525/152 145/526/152 146/527/152
f 148/528/153 146/529/153 144/530/153
f 147/531/154 149/532/154 143/533/154
f 150/534/155 149/535/155 147/536/155 148/537/155
f 150/538/156 148/539/156 144/540/156
f 149/541/157 151/542/157 143/543/157
f 152/544/158 151/545/158 149/546/158 150/547/158
f 152/548/159 150/549/159 144/550/159
f 151/551/160 159/552/160 143/553/160
f 160/554/161 159/555/161 151/556/161 152/557/161
f 160/558/162 152/559/162 144/560/162
f 153/561/163 145/562/163 143/563/163
f 146/564/164 145/565/164 153/566/164 154/567/164
f 146/568/165 154/569/165 144/570/165
f 155/571/166 153/572/166 143/573/166
f 153/574/167 155/575/167 156/576/167 154/577/167
f 154/578/168 156/579/168 144/580/168
f 157/581/169 155/582/169 143/583/169
f 155/584/170 157/585/170 158/586/170 156/587/170
f 156/588/171 158/589/171 144/590/171
f 159/591/172 157/592/172 143/593/172
f 157/594/173 159/595/173 160/596/173 158/597/173
f 158/598/174 160/599/174 144/600/174
g RocketLauncher Body MLRS 
o cylinder14
v -1.125 1.640625 -2.015625
v -1.125 1.640625 2.984375
v -1.2026650429449552 1.453125 -2.015625
v -1.2026650429449552 1.453125 2.984375
v -1.3125 1.5629599570550448 -2.015625
v -1.3125 1.5629599570550448 2.984375
v -1.3125 1.7182900429449552 -2.015625
v -1.3125 1.7182900429449552 2.984375
v -1.2026650429449552 1.828125 -2.015625
v -1.2026650429449552 1.828125 2.984375
v -1.0473349570550448 1.453125 -2.015625
v -1.0473349570550448 1.453125 2.984375
v -0.9375 1.5629599570550448 -2.015625
v -0.9375 1.5629599570550448 2.984375
v -0.9375 1.7182900429449552 -2.015625
v -0.9375 1.7182900429449552 2.984375
v -1.0473349570550448 1.828125 -2.015625
v -1.0473349570550448 1.828125 2.984375
vt 0.355942578125 0.91015625
vt 0.359375 0.913588671875
vt 0.353515625 0.916015625
vt 0.50390625 0.9453125
vt 0.34765625 0.9453125
vt 0.34765625 0.94140625
vt 0.50390625 0.94140625
vt 0.34765625 0.899916796875
vt 0.351088671875 0.896484375
vt 0.353515625 0.90234375
vt 0.359375 0.913588671875
vt 0.359375 0.918442578125
vt 0.353515625 0.916015625
vt 0.50390625 0.95703125
vt 0.34765625 0.95703125
vt 0.34765625 0.953125
vt 0.50390625 0.953125
vt 0.34765625 0.904770703125
vt 0.34765625 0.899916796875
vt 0.353515625 0.90234375
vt 0.359375 0.918442578125
vt 0.355942578125 0.921875
vt 0.353515625 0.916015625
vt 0.50390625 0.939453125
vt 0.34765625 0.939453125
vt 0.34765625 0.935546875
vt 0.50390625 0.935546875
vt 0.351088671875 0.908203125
vt 0.34765625 0.904770703125
vt 0.353515625 0.90234375
vt 0.355942578125 0.921875
vt 0.351088671875 0.921875
vt 0.353515625 0.916015625
vt 0.267578125 0.5
vt 0.267578125 0.65625
vt 0.263671875 0.65625
vt 0.263671875 0.5
vt 0.355942578125 0.908203125
vt 0.351088671875 0.908203125
vt 0.353515625 0.90234375
vt 0.351088671875 0.91015625
vt 0.355942578125 0.91015625
vt 0.353515625 0.916015625
vt 0.26953125 0.65625
vt 0.26953125 0.5
vt 0.2734375 0.5
vt 0.2734375 0.65625
vt 0.351088671875 0.896484375
vt 0.355942578125 0.896484375
vt 0.353515625 0.90234375
vt 0.34765625 0.913588671875
vt 0.351088671875 0.91015625
vt 0.353515625 0.916015625
vt 0.50390625 0.9296875
vt 0.50390625 0.93359375
vt 0.34765625 0.93359375
vt 0.34765625 0.9296875
vt 0.355942578125 0.896484375
vt 0.359375 0.899916796875
vt 0.353515625 0.90234375
vt 0.34765625 0.918442578125
vt 0.34765625 0.913588671875
vt 0.353515625 0.916015625
vt 0.50390625 0.947265625
vt 0.50390625 0.951171875
vt 0.34765625 0.951171875
vt 0.34765625 0.947265625
vt 0.359375 0.899916796875
vt 0.359375 0.904770703125
vt 0.353515625 0.90234375
vt 0.351088671875 0.921875
vt 0.34765625 0.918442578125
vt 0.353515625 0.916015625
vt 0.50390625 0.923828125
vt 0.50390625 0.927734375
vt 0.34765625 0.927734375
vt 0.34765625 0.923828125
vt 0.359375 0.904770703125
vt 0.355942578125 0.908203125
vt 0.353515625 0.90234375
vn 0 0 -1
vn -0.7071067811865476 -0.7071067811865476 0
vn 0 0 1
vn 0 0 -1
vn -1 0 0
vn 0 0 1
vn 0 0 -1
vn -0.7071067811865476 0.7071067811865475 0
vn 0 0 1
vn 0 0 -1
vn 0 1 0
vn 0 0 1
vn 0 0 -1
vn 0 -1 0
vn 0 0 1
vn 0 0 -1
vn 0.7071067811865476 -0.7071067811865476 0
vn 0 0 1
vn 0 0 -1
vn 1 0 0
vn 0 0 1
vn 0 0 -1
vn 0.7071067811865476 0.7071067811865475 0
vn 0 0 1
usemtl m_8ccb3ba2-3daf-a514-aec7-4e0e3097aead
f 163/601/175 165/602/175 161/603/175
f 166/604/176 165/605/176 163/606/176 164/607/176
f 166/608/177 164/609/177 162/610/177
f 165/611/178 167/612/178 161/613/178
f 168/614/179 167/615/179 165/616/179 166/617/179
f 168/618/180 166/619/180 162/620/180
f 167/621/181 169/622/181 161/623/181
f 170/624/182 169/625/182 167/626/182 168/627/182
f 170/628/183 168/629/183 162/630/183
f 169/631/184 177/632/184 161/633/184
f 178/634/185 177/635/185 169/636/185 170/637/185
f 178/638/186 170/639/186 162/640/186
f 171/641/187 163/642/187 161/643/187
f 164/644/188 163/645/188 171/646/188 172/647/188
f 164/648/189 172/649/189 162/650/189
f 173/651/190 171/652/190 161/653/190
f 171/654/191 173/655/191 174/656/191 172/657/191
f 172/658/192 174/659/192 162/660/192
f 175/661/193 173/662/193 161/663/193
f 173/664/194 175/665/194 176/666/194 174/667/194
f 174/668/195 176/669/195 162/670/195
f 177/671/196 175/672/196 161/673/196
f 175/674/197 177/675/197 178/676/197 176/677/197
f 176/678/198 178/679/198 162/680/198
g RocketLauncher Body MLRS 
o cylinder15
v -0.6875 1.640625 -2.015625
v -0.6875 1.640625 2.984375
v -0.7651650429449554 1.453125 -2.015625
v -0.7651650429449554 1.453125 2.984375
v -0.875 1.5629599570550448 -2.015625
v -0.875 1.5629599570550448 2.984375
v -0.875 1.7182900429449552 -2.015625
v -0.875 1.7182900429449552 2.984375
v -0.7651650429449554 1.828125 -2.015625
v -0.7651650429449554 1.828125 2.984375
v -0.6098349570550446 1.453125 -2.015625
v -0.6098349570550446 1.453125 2.984375
v -0.5 1.5629599570550448 -2.015625
v -0.5 1.5629599570550448 2.984375
v -0.5 1.7182900429449552 -2.015625
v -0.5 1.7182900429449552 2.984375
v -0.6098349570550446 1.828125 -2.015625
v -0.6098349570550446 1.828125 2.984375
vt 0.355942578125 0.91015625
vt 0.359375 0.913588671875
vt 0.353515625 0.916015625
vt 0.50390625 0.9453125
vt 0.34765625 0.9453125
vt 0.34765625 0.94140625
vt 0.50390625 0.94140625
vt 0.34765625 0.899916796875
vt 0.351088671875 0.896484375
vt 0.353515625 0.90234375
vt 0.359375 0.913588671875
vt 0.359375 0.918442578125
vt 0.353515625 0.916015625
vt 0.50390625 0.95703125
vt 0.34765625 0.95703125
vt 0.34765625 0.953125
vt 0.50390625 0.953125
vt 0.34765625 0.904770703125
vt 0.34765625 0.899916796875
vt 0.353515625 0.90234375
vt 0.359375 0.918442578125
vt 0.355942578125 0.921875
vt 0.353515625 0.916015625
vt 0.50390625 0.939453125
vt 0.34765625 0.939453125
vt 0.34765625 0.935546875
vt 0.50390625 0.935546875
vt 0.351088671875 0.908203125
vt 0.34765625 0.904770703125
vt 0.353515625 0.90234375
vt 0.355942578125 0.921875
vt 0.351088671875 0.921875
vt 0.353515625 0.916015625
vt 0.267578125 0.5
vt 0.267578125 0.65625
vt 0.263671875 0.65625
vt 0.263671875 0.5
vt 0.355942578125 0.908203125
vt 0.351088671875 0.908203125
vt 0.353515625 0.90234375
vt 0.351088671875 0.91015625
vt 0.355942578125 0.91015625
vt 0.353515625 0.916015625
vt 0.26953125 0.65625
vt 0.26953125 0.5
vt 0.2734375 0.5
vt 0.2734375 0.65625
vt 0.351088671875 0.896484375
vt 0.355942578125 0.896484375
vt 0.353515625 0.90234375
vt 0.34765625 0.913588671875
vt 0.351088671875 0.91015625
vt 0.353515625 0.916015625
vt 0.50390625 0.9296875
vt 0.50390625 0.93359375
vt 0.34765625 0.93359375
vt 0.34765625 0.9296875
vt 0.355942578125 0.896484375
vt 0.359375 0.899916796875
vt 0.353515625 0.90234375
vt 0.34765625 0.918442578125
vt 0.34765625 0.913588671875
vt 0.353515625 0.916015625
vt 0.50390625 0.947265625
vt 0.50390625 0.951171875
vt 0.34765625 0.951171875
vt 0.34765625 0.947265625
vt 0.359375 0.899916796875
vt 0.359375 0.904770703125
vt 0.353515625 0.90234375
vt 0.351088671875 0.921875
vt 0.34765625 0.918442578125
vt 0.353515625 0.916015625
vt 0.50390625 0.923828125
vt 0.50390625 0.927734375
vt 0.34765625 0.927734375
vt 0.34765625 0.923828125
vt 0.359375 0.904770703125
vt 0.355942578125 0.908203125
vt 0.353515625 0.90234375
vn 0 0 -1
vn -0.7071067811865476 -0.7071067811865476 0
vn 0 0 1
vn 0 0 -1
vn -1 0 0
vn 0 0 1
vn 0 0 -1
vn -0.7071067811865476 0.7071067811865475 0
vn 0 0 1
vn 0 0 -1
vn 0 1 0
vn 0 0 1
vn 0 0 -1
vn 0 -1 0
vn 0 0 1
vn 0 0 -1
vn 0.7071067811865476 -0.7071067811865476 0
vn 0 0 1
vn 0 0 -1
vn 1 0 0
vn 0 0 1
vn 0 0 -1
vn 0.7071067811865476 0.7071067811865475 0
vn 0 0 1
usemtl m_8ccb3ba2-3daf-a514-aec7-4e0e3097aead
f 181/681/199 183/682/199 179/683/199
f 184/684/200 183/685/200 181/686/200 182/687/200
f 184/688/201 182/689/201 180/690/201
f 183/691/202 185/692/202 179/693/202
f 186/694/203 185/695/203 183/696/203 184/697/203
f 186/698/204 184/699/204 180/700/204
f 185/701/205 187/702/205 179/703/205
f 188/704/206 187/705/206 185/706/206 186/707/206
f 188/708/207 186/709/207 180/710/207
f 187/711/208 195/712/208 179/713/208
f 196/714/209 195/715/209 187/716/209 188/717/209
f 196/718/210 188/719/210 180/720/210
f 189/721/211 181/722/211 179/723/211
f 182/724/212 181/725/212 189/726/212 190/727/212
f 182/728/213 190/729/213 180/730/213
f 191/731/214 189/732/214 179/733/214
f 189/734/215 191/735/215 192/736/215 190/737/215
f 190/738/216 192/739/216 180/740/216
f 193/741/217 191/742/217 179/743/217
f 191/744/218 193/745/218 194/746/218 192/747/218
f 192/748/219 194/749/219 180/750/219
f 195/751/220 193/752/220 179/753/220
f 193/754/221 195/755/221 196/756/221 194/757/221
f 194/758/222 196/759/222 180/760/222
g RocketLauncher Body MLRS 
o cylinder16
v -0.25 1.640625 -2.015625
v -0.25 1.640625 2.984375
v -0.32766504294495535 1.453125 -2.015625
v -0.32766504294495535 1.453125 2.984375
v -0.4375 1.5629599570550448 -2.015625
v -0.4375 1.5629599570550448 2.984375
v -0.4375 1.7182900429449552 -2.015625
v -0.4375 1.7182900429449552 2.984375
v -0.32766504294495535 1.828125 -2.015625
v -0.32766504294495535 1.828125 2.984375
v -0.17233495705504467 1.453125 -2.015625
v -0.17233495705504467 1.453125 2.984375
v -0.0625 1.5629599570550448 -2.015625
v -0.0625 1.5629599570550448 2.984375
v -0.0625 1.7182900429449552 -2.015625
v -0.0625 1.7182900429449552 2.984375
v -0.17233495705504465 1.828125 -2.015625
v -0.17233495705504465 1.828125 2.984375
vt 0.355942578125 0.91015625
vt 0.359375 0.913588671875
vt 0.353515625 0.916015625
vt 0.50390625 0.9453125
vt 0.34765625 0.9453125
vt 0.34765625 0.94140625
vt 0.50390625 0.94140625
vt 0.34765625 0.899916796875
vt 0.351088671875 0.896484375
vt 0.353515625 0.90234375
vt 0.359375 0.913588671875
vt 0.359375 0.918442578125
vt 0.353515625 0.916015625
vt 0.50390625 0.95703125
vt 0.34765625 0.95703125
vt 0.34765625 0.953125
vt 0.50390625 0.953125
vt 0.34765625 0.904770703125
vt 0.34765625 0.899916796875
vt 0.353515625 0.90234375
vt 0.359375 0.918442578125
vt 0.355942578125 0.921875
vt 0.353515625 0.916015625
vt 0.50390625 0.939453125
vt 0.34765625 0.939453125
vt 0.34765625 0.935546875
vt 0.50390625 0.935546875
vt 0.351088671875 0.908203125
vt 0.34765625 0.904770703125
vt 0.353515625 0.90234375
vt 0.355942578125 0.921875
vt 0.351088671875 0.921875
vt 0.353515625 0.916015625
vt 0.267578125 0.5
vt 0.267578125 0.65625
vt 0.263671875 0.65625
vt 0.263671875 0.5
vt 0.355942578125 0.908203125
vt 0.351088671875 0.908203125
vt 0.353515625 0.90234375
vt 0.351088671875 0.91015625
vt 0.355942578125 0.91015625
vt 0.353515625 0.916015625
vt 0.26953125 0.65625
vt 0.26953125 0.5
vt 0.2734375 0.5
vt 0.2734375 0.65625
vt 0.351088671875 0.896484375
vt 0.355942578125 0.896484375
vt 0.353515625 0.90234375
vt 0.34765625 0.913588671875
vt 0.351088671875 0.91015625
vt 0.353515625 0.916015625
vt 0.50390625 0.9296875
vt 0.50390625 0.93359375
vt 0.34765625 0.93359375
vt 0.34765625 0.9296875
vt 0.355942578125 0.896484375
vt 0.359375 0.899916796875
vt 0.353515625 0.90234375
vt 0.34765625 0.918442578125
vt 0.34765625 0.913588671875
vt 0.353515625 0.916015625
vt 0.50390625 0.947265625
vt 0.50390625 0.951171875
vt 0.34765625 0.951171875
vt 0.34765625 0.947265625
vt 0.359375 0.899916796875
vt 0.359375 0.904770703125
vt 0.353515625 0.90234375
vt 0.351088671875 0.921875
vt 0.34765625 0.918442578125
vt 0.353515625 0.916015625
vt 0.50390625 0.923828125
vt 0.50390625 0.927734375
vt 0.34765625 0.927734375
vt 0.34765625 0.923828125
vt 0.359375 0.904770703125
vt 0.355942578125 0.908203125
vt 0.353515625 0.90234375
vn 0 0 -1
vn -0.7071067811865476 -0.7071067811865476 0
vn 0 0 1
vn 0 0 -1
vn -1 0 0
vn 0 0 1
vn 0 0 -1
vn -0.7071067811865476 0.7071067811865475 0
vn 0 0 1
vn 0 0 -1
vn 0 1 0
vn 0 0 1
vn 0 0 -1
vn 0 -1 0
vn 0 0 1
vn 0 0 -1
vn 0.7071067811865476 -0.7071067811865476 0
vn 0 0 1
vn 0 0 -1
vn 1 0 0
vn 0 0 1
vn 0 0 -1
vn 0.7071067811865476 0.7071067811865475 0
vn 0 0 1
usemtl m_8ccb3ba2-3daf-a514-aec7-4e0e3097aead
f 199/761/223 201/762/223 197/763/223
f 202/764/224 201/765/224 199/766/224 200/767/224
f 202/768/225 200/769/225 198/770/225
f 201/771/226 203/772/226 197/773/226
f 204/774/227 203/775/227 201/776/227 202/777/227
f 204/778/228 202/779/228 198/780/228
f 203/781/229 205/782/229 197/783/229
f 206/784/230 205/785/230 203/786/230 204/787/230
f 206/788/231 204/789/231 198/790/231
f 205/791/232 213/792/232 197/793/232
f 214/794/233 213/795/233 205/796/233 206/797/233
f 214/798/234 206/799/234 198/800/234
f 207/801/235 199/802/235 197/803/235
f 200/804/236 199/805/236 207/806/236 208/807/236
f 200/808/237 208/809/237 198/810/237
f 209/811/238 207/812/238 197/813/238
f 207/814/239 209/815/239 210/816/239 208/817/239
f 208/818/240 210/819/240 198/820/240
f 211/821/241 209/822/241 197/823/241
f 209/824/242 211/825/242 212/826/242 210/827/242
f 210/828/243 212/829/243 198/830/243
f 213/831/244 211/832/244 197/833/244
f 211/834/245 213/835/245 214/836/245 212/837/245
f 212/838/246 214/839/246 198/840/246
g RocketLauncher Body MLRS 
o cylinder17
v -0.25 2.078125 -2.015625
v -0.25 2.078125 2.984375
v -0.32766504294495535 1.890625 -2.015625
v -0.32766504294495535 1.890625 2.984375
v -0.4375 2.0004599570550448 -2.015625
v -0.4375 2.0004599570550448 2.984375
v -0.4375 2.1557900429449552 -2.015625
v -0.4375 2.1557900429449552 2.984375
v -0.32766504294495535 2.265625 -2.015625
v -0.32766504294495535 2.265625 2.984375
v -0.17233495705504467 1.890625 -2.015625
v -0.17233495705504467 1.890625 2.984375
v -0.0625 2.0004599570550448 -2.015625
v -0.0625 2.0004599570550448 2.984375
v -0.0625 2.1557900429449552 -2.015625
v -0.0625 2.1557900429449552 2.984375
v -0.17233495705504465 2.265625 -2.015625
v -0.17233495705504465 2.265625 2.984375
vt 0.355942578125 0.91015625
vt 0.359375 0.913588671875
vt 0.353515625 0.916015625
vt 0.50390625 0.9453125
vt 0.34765625 0.9453125
vt 0.34765625 0.94140625
vt 0.50390625 0.94140625
vt 0.34765625 0.899916796875
vt 0.351088671875 0.896484375
vt 0.353515625 0.90234375
vt 0.359375 0.913588671875
vt 0.359375 0.918442578125
vt 0.353515625 0.916015625
vt 0.50390625 0.95703125
vt 0.34765625 0.95703125
vt 0.34765625 0.953125
vt 0.50390625 0.953125
vt 0.34765625 0.904770703125
vt 0.34765625 0.899916796875
vt 0.353515625 0.90234375
vt 0.359375 0.918442578125
vt 0.355942578125 0.921875
vt 0.353515625 0.916015625
vt 0.50390625 0.939453125
vt 0.34765625 0.939453125
vt 0.34765625 0.935546875
vt 0.50390625 0.935546875
vt 0.351088671875 0.908203125
vt 0.34765625 0.904770703125
vt 0.353515625 0.90234375
vt 0.355942578125 0.921875
vt 0.351088671875 0.921875
vt 0.353515625 0.916015625
vt 0.267578125 0.5
vt 0.267578125 0.65625
vt 0.263671875 0.65625
vt 0.263671875 0.5
vt 0.355942578125 0.908203125
vt 0.351088671875 0.908203125
vt 0.353515625 0.90234375
vt 0.351088671875 0.91015625
vt 0.355942578125 0.91015625
vt 0.353515625 0.916015625
vt 0.26953125 0.65625
vt 0.26953125 0.5
vt 0.2734375 0.5
vt 0.2734375 0.65625
vt 0.351088671875 0.896484375
vt 0.355942578125 0.896484375
vt 0.353515625 0.90234375
vt 0.34765625 0.913588671875
vt 0.351088671875 0.91015625
vt 0.353515625 0.916015625
vt 0.50390625 0.9296875
vt 0.50390625 0.93359375
vt 0.34765625 0.93359375
vt 0.34765625 0.9296875
vt 0.355942578125 0.896484375
vt 0.359375 0.899916796875
vt 0.353515625 0.90234375
vt 0.34765625 0.918442578125
vt 0.34765625 0.913588671875
vt 0.353515625 0.916015625
vt 0.50390625 0.947265625
vt 0.50390625 0.951171875
vt 0.34765625 0.951171875
vt 0.34765625 0.947265625
vt 0.359375 0.899916796875
vt 0.359375 0.904770703125
vt 0.353515625 0.90234375
vt 0.351088671875 0.921875
vt 0.34765625 0.918442578125
vt 0.353515625 0.916015625
vt 0.50390625 0.923828125
vt 0.50390625 0.927734375
vt 0.34765625 0.927734375
vt 0.34765625 0.923828125
vt 0.359375 0.904770703125
vt 0.355942578125 0.908203125
vt 0.353515625 0.90234375
vn 0 0 -1
vn -0.7071067811865476 -0.7071067811865476 0
vn 0 0 1
vn 0 0 -1
vn -1 0 0
vn 0 0 1
vn 0 0 -1
vn -0.7071067811865476 0.7071067811865475 0
vn 0 0 1
vn 0 0 -1
vn 0 1 0
vn 0 0 1
vn 0 0 -1
vn 0 -1 0
vn 0 0 1
vn 0 0 -1
vn 0.7071067811865476 -0.7071067811865476 0
vn 0 0 1
vn 0 0 -1
vn 1 0 0
vn 0 0 1
vn 0 0 -1
vn 0.7071067811865476 0.7071067811865475 0
vn 0 0 1
usemtl m_8ccb3ba2-3daf-a514-aec7-4e0e3097aead
f 217/841/247 219/842/247 215/843/247
f 220/844/248 219/845/248 217/846/248 218/847/248
f 220/848/249 218/849/249 216/850/249
f 219/851/250 221/852/250 215/853/250
f 222/854/251 221/855/251 219/856/251 220/857/251
f 222/858/252 220/859/252 216/860/252
f 221/861/253 223/862/253 215/863/253
f 224/864/254 223/865/254 221/866/254 222/867/254
f 224/868/255 222/869/255 216/870/255
f 223/871/256 231/872/256 215/873/256
f 232/874/257 231/875/257 223/876/257 224/877/257
f 232/878/258 224/879/258 216/880/258
f 225/881/259 217/882/259 215/883/259
f 218/884/260 217/885/260 225/886/260 226/887/260
f 218/888/261 226/889/261 216/890/261
f 227/891/262 225/892/262 215/893/262
f 225/894/263 227/895/263 228/896/263 226/897/263
f 226/898/264 228/899/264 216/900/264
f 229/901/265 227/902/265 215/903/265
f 227/904/266 229/905/266 230/906/266 228/907/266
f 228/908/267 230/909/267 216/910/267
f 231/911/268 229/912/268 215/913/268
f 229/914/269 231/915/269 232/916/269 230/917/269
f 230/918/270 232/919/270 216/920/270
g RocketLauncher Body MLRS 
o cylinder18
v -0.6875 2.078125 -2.015625
v -0.6875 2.078125 2.984375
v -0.7651650429449554 1.890625 -2.015625
v -0.7651650429449554 1.890625 2.984375
v -0.875 2.0004599570550448 -2.015625
v -0.875 2.0004599570550448 2.984375
v -0.875 2.1557900429449552 -2.015625
v -0.875 2.1557900429449552 2.984375
v -0.7651650429449554 2.265625 -2.015625
v -0.7651650429449554 2.265625 2.984375
v -0.6098349570550446 1.890625 -2.015625
v -0.6098349570550446 1.890625 2.984375
v -0.5 2.0004599570550448 -2.015625
v -0.5 2.0004599570550448 2.984375
v -0.5 2.1557900429449552 -2.015625
v -0.5 2.1557900429449552 2.984375
v -0.6098349570550446 2.265625 -2.015625
v -0.6098349570550446 2.265625 2.984375
vt 0.355942578125 0.91015625
vt 0.359375 0.913588671875
vt 0.353515625 0.916015625
vt 0.50390625 0.9453125
vt 0.34765625 0.9453125
vt 0.34765625 0.94140625
vt 0.50390625 0.94140625
vt 0.34765625 0.899916796875
vt 0.351088671875 0.896484375
vt 0.353515625 0.90234375
vt 0.359375 0.913588671875
vt 0.359375 0.918442578125
vt 0.353515625 0.916015625
vt 0.50390625 0.95703125
vt 0.34765625 0.95703125
vt 0.34765625 0.953125
vt 0.50390625 0.953125
vt 0.34765625 0.904770703125
vt 0.34765625 0.899916796875
vt 0.353515625 0.90234375
vt 0.359375 0.918442578125
vt 0.355942578125 0.921875
vt 0.353515625 0.916015625
vt 0.50390625 0.939453125
vt 0.34765625 0.939453125
vt 0.34765625 0.935546875
vt 0.50390625 0.935546875
vt 0.351088671875 0.908203125
vt 0.34765625 0.904770703125
vt 0.353515625 0.90234375
vt 0.355942578125 0.921875
vt 0.351088671875 0.921875
vt 0.353515625 0.916015625
vt 0.267578125 0.5
vt 0.267578125 0.65625
vt 0.263671875 0.65625
vt 0.263671875 0.5
vt 0.355942578125 0.908203125
vt 0.351088671875 0.908203125
vt 0.353515625 0.90234375
vt 0.351088671875 0.91015625
vt 0.355942578125 0.91015625
vt 0.353515625 0.916015625
vt 0.26953125 0.65625
vt 0.26953125 0.5
vt 0.2734375 0.5
vt 0.2734375 0.65625
vt 0.351088671875 0.896484375
vt 0.355942578125 0.896484375
vt 0.353515625 0.90234375
vt 0.34765625 0.913588671875
vt 0.351088671875 0.91015625
vt 0.353515625 0.916015625
vt 0.50390625 0.9296875
vt 0.50390625 0.93359375
vt 0.34765625 0.93359375
vt 0.34765625 0.9296875
vt 0.355942578125 0.896484375
vt 0.359375 0.899916796875
vt 0.353515625 0.90234375
vt 0.34765625 0.918442578125
vt 0.34765625 0.913588671875
vt 0.353515625 0.916015625
vt 0.50390625 0.947265625
vt 0.50390625 0.951171875
vt 0.34765625 0.951171875
vt 0.34765625 0.947265625
vt 0.359375 0.899916796875
vt 0.359375 0.904770703125
vt 0.353515625 0.90234375
vt 0.351088671875 0.921875
vt 0.34765625 0.918442578125
vt 0.353515625 0.916015625
vt 0.50390625 0.923828125
vt 0.50390625 0.927734375
vt 0.34765625 0.927734375
vt 0.34765625 0.923828125
vt 0.359375 0.904770703125
vt 0.355942578125 0.908203125
vt 0.353515625 0.90234375
vn 0 0 -1
vn -0.7071067811865476 -0.7071067811865476 0
vn 0 0 1
vn 0 0 -1
vn -1 0 0
vn 0 0 1
vn 0 0 -1
vn -0.7071067811865476 0.7071067811865475 0
vn 0 0 1
vn 0 0 -1
vn 0 1 0
vn 0 0 1
vn 0 0 -1
vn 0 -1 0
vn 0 0 1
vn 0 0 -1
vn 0.7071067811865476 -0.7071067811865476 0
vn 0 0 1
vn 0 0 -1
vn 1 0 0
vn 0 0 1
vn 0 0 -1
vn 0.7071067811865476 0.7071067811865475 0
vn 0 0 1
usemtl m_8ccb3ba2-3daf-a514-aec7-4e0e3097aead
f 235/921/271 237/922/271 233/923/271
f 238/924/272 237/925/272 235/926/272 236/927/272
f 238/928/273 236/929/273 234/930/273
f 237/931/274 239/932/274 233/933/274
f 240/934/275 239/935/275 237/936/275 238/937/275
f 240/938/276 238/939/276 234/940/276
f 239/941/277 241/942/277 233/943/277
f 242/944/278 241/945/278 239/946/278 240/947/278
f 242/948/279 240/949/279 234/950/279
f 241/951/280 249/952/280 233/953/280
f 250/954/281 249/955/281 241/956/281 242/957/281
f 250/958/282 242/959/282 234/960/282
f 243/961/283 235/962/283 233/963/283
f 236/964/284 235/965/284 243/966/284 244/967/284
f 236/968/285 244/969/285 234/970/285
f 245/971/286 243/972/286 233/973/286
f 243/974/287 245/975/287 246/976/287 244/977/287
f 244/978/288 246/979/288 234/980/288
f 247/981/289 245/982/289 233/983/289
f 245/984/290 247/985/290 248/986/290 246/987/290
f 246/988/291 248/989/291 234/990/291
f 249/991/292 247/992/292 233/993/292
f 247/994/293 249/995/293 250/996/293 248/997/293
f 248/998/294 250/999/294 234/1000/294
g Body MLRS 
o cube
v 1.375 0.6875 2.3125
v 1.375 0.6875 -2.125
v 1.375 0 2.3125
v 1.375 0 -2.125
v -1.375 0.6875 -2.125
v -1.375 0.6875 2.3125
v -1.375 0 -2.125
v -1.375 0 2.3125
vt 0.28125 0.666015625
vt 0.3671875 0.666015625
vt 0.3671875 0.64453125
vt 0.28125 0.64453125
vt 0.294921875 0.712890625
vt 0.43359375 0.712890625
vt 0.43359375 0.69140625
vt 0.294921875 0.69140625
vt 0 0.65625
vt 0.0859375 0.65625
vt 0.0859375 0.634765625
vt 0 0.634765625
vt 0.294921875 0.689453125
vt 0.43359375 0.689453125
vt 0.43359375 0.66796875
vt 0.294921875 0.66796875
vt 0.0859375 0.693359375
vt 0 0.693359375
vt 0 0.83203125
vt 0.0859375 0.83203125
vt 0.265625 1
vt 0.1796875 1
vt 0.1796875 0.861328125
vt 0.265625 0.861328125
vn 0 0 -1
vn 1 0 0
vn 0 0 1
vn -1 0 0
vn 0 1 0
vn 0 -1 0
usemtl m_8ccb3ba2-3daf-a514-aec7-4e0e3097aead
f 254/1004/295 257/1003/295 255/1002/295 252/1001/295
f 253/1008/296 254/1007/296 252/1006/296 251/1005/296
f 258/1012/297 253/1011/297 251/1010/297 256/1009/297
f 257/1016/298 258/1015/298 256/1014/298 255/1013/298
f 256/1020/299 251/1019/299 252/1018/299 255/1017/299
f 257/1024/300 254/1023/300 253/1022/300 258/1021/300
g Body MLRS 
o cube5
v 1.25 1.125 -1.5625
v 1.375 0.6875 2.3125
v 1.375 0.6875 -2.125
v 1.25 1.125 1.75
v -1.25 1.125 -1.5625
v -1.375 0.6875 2.3125
v -1.375 0.6875 -2.125
v -1.25 1.125 1.75
vt 0.345703125 0.896484375
vt 0.345703125 1
vt 0.267578125 1
vt 0.267578125 0.896484375
vt 0.265625 0.720703125
vt 0.265625 0.859375
vt 0.1796875 0.859375
vt 0.1796875 0.720703125
vt 0.173828125 0.634765625
vt 0.169921875 0.65625
vt 0.091796875 0.65625
vt 0.087890625 0.634765625
vt 0.26171875 0.634765625
vt 0.2578125 0.65625
vt 0.1796875 0.65625
vt 0.17578125 0.634765625
vt 0.138671875 0.658203125
vt 0.12109375 0.671875
vt 0.017578125 0.671875
vt 0 0.658203125
vt 0.26171875 0.671875
vt 0.158203125 0.671875
vt 0.140625 0.658203125
vt 0.279296875 0.658203125
vn 0 1 0
vn 0 -1 0
vn 0 0.7893522173763263 0.6139406135149205
vn 0 0.7893522173763263 -0.6139406135149205
vn 0.9615239476408232 0.27472112789737807 0
vn -0.9615239476408232 0.27472112789737807 0
usemtl m_8ccb3ba2-3daf-a514-aec7-4e0e3097aead
f 262/1025/301 259/1026/301 263/1027/301 266/1028/301
f 261/1029/302 260/1030/302 264/1031/302 265/1032/302
f 260/1033/303 262/1034/303 266/1035/303 264/1036/303
f 265/1037/304 263/1038/304 259/1039/304 261/1040/304
f 261/1041/305 259/1042/305 262/1043/305 260/1044/305
f 266/1045/306 263/1046/306 265/1047/306 264/1048/306