<?xml version="1.0" encoding="UTF-8"?>
<svg version="1.1" xmlns="http://www.w3.org/2000/svg" width="648" height="648">
<path d="M0 0 C213.84 0 427.68 0 648 0 C648 213.84 648 427.68 648 648 C434.16 648 220.32 648 0 648 C0 434.16 0 220.32 0 0 Z " fill="#FEFEFE" transform="translate(0,0)"/>
<path d="M0 0 C4.28241964 1.95504708 7.15341756 4.93231296 10.39614868 8.27003479 C11.03615102 8.9203229 11.67615336 9.57061101 12.33554971 10.24060482 C14.48315118 12.4247724 16.6235045 14.615911 18.76416016 16.80688477 C20.30147108 18.37258621 21.83935238 19.93772779 23.37776184 21.50234985 C26.69348371 24.8752822 30.00683295 28.25052281 33.31889725 31.62704659 C38.56306583 36.96982057 43.82288287 42.29699525 49.08700562 47.62010193 C49.97559316 48.51871887 50.86418071 49.41733582 51.77969515 50.34318358 C54.517037 53.11110445 57.25459593 55.87881048 59.9921875 58.64648438 C63.74392454 62.43959725 67.49512925 66.23323418 71.24511719 70.02807617 C71.71364134 70.50219061 72.1821655 70.97630504 72.66488735 71.46478658 C80.24299166 79.13499635 87.79344532 86.83190485 95.33485158 94.53817809 C103.08923869 102.46063359 110.87673925 110.34944687 118.69284856 118.2110123 C123.07591345 122.621898 127.44245485 127.04670792 131.77296829 131.50924873 C135.85199261 135.71201033 139.96959997 139.87279981 144.11940575 144.00564957 C145.62983802 145.5239125 147.12586858 147.0566715 148.60544395 148.60502052 C157.78162648 158.43428517 157.78162648 158.43428517 170.2547344 162.06773371 C172.62389218 162.09049383 172.62389218 162.09049383 174.89442503 161.8946653 C177.89665684 161.68030497 180.26502599 161.52710329 182.85247159 163.19191658 C185.54242521 165.6209492 187.91464129 168.27598837 190.0390625 171.21484375 C193.23013488 175.41287187 196.8707843 179.05765117 200.625 182.75 C201.22989258 183.35803467 201.83478516 183.96606934 202.45800781 184.5925293 C205.44262644 187.67247642 205.44262644 187.67247642 209 190 C209 190.66 209 191.32 209 192 C207.5390625 193.2890625 207.5390625 193.2890625 205.625 194.625 C204.99851562 195.07101562 204.37203125 195.51703125 203.7265625 195.9765625 C202 197 202 197 200 197 C205.64154677 203.70172691 211.75946572 209.89007179 217.96484375 216.0625 C219.00881066 217.1045974 220.05255372 218.14691909 221.09608459 219.18945312 C223.81785922 221.90744446 226.54262523 224.6224169 229.26806641 227.33673096 C232.05881073 230.11717018 234.84665871 232.90051029 237.63476562 235.68359375 C243.08704358 241.12520842 248.54249109 246.56363103 254 252 C249.18317799 257.87651265 243.87788452 263.17597895 238.4456501 268.47668839 C235.74144754 271.11941122 233.05293276 273.77805223 230.36132812 276.43359375 C226.94977763 279.79712531 223.5337759 283.15580408 220.1027832 286.49951172 C217.31429234 289.21787202 214.54058006 291.95055185 211.77622795 294.69344711 C210.72298081 295.73309932 209.66433719 296.76731379 208.60028267 297.79590225 C207.11858793 299.22947295 205.65647687 300.68056382 204.19750977 302.13720703 C203.36067154 302.95770538 202.52383331 303.77820374 201.66163635 304.62356567 C199.72501136 306.87469016 199.72501136 306.87469016 200.13609314 309.61251831 C200.99826467 312.1695422 200.99826467 312.1695422 202.625 315.0625 C204 318 204 318 203.85772705 320.06242371 C203 322 203 322 201.12908936 323.09516907 C200.31144104 323.37354111 199.49379272 323.65191315 198.65136719 323.9387207 C197.72660583 324.2619783 196.80184448 324.5852359 195.84906006 324.91828918 C194.84183899 325.25076157 193.83461792 325.58323395 192.796875 325.92578125 C191.7669342 326.27762985 190.73699341 326.62947845 189.67584229 326.99198914 C187.49278468 327.73345031 185.30695004 328.46677685 183.11865234 329.19262695 C179.77067564 330.3056266 176.43404482 331.44849609 173.09765625 332.59570312 C170.97717356 333.31170806 168.85609767 334.02595911 166.734375 334.73828125 C165.23568878 335.25217155 165.23568878 335.25217155 163.70672607 335.77644348 C162.30067108 336.23768867 162.30067108 336.23768867 160.86621094 336.70825195 C160.04538025 336.98264603 159.22454956 337.2570401 158.37884521 337.53974915 C154.81458847 338.22934938 152.10497975 337.6302004 148.97265625 335.84375 C147.70096022 334.94914175 146.43012333 334.05331094 145.16015625 333.15625 C143.00200147 331.82973605 143.00200147 331.82973605 140.26953125 331.69140625 C135.6089909 330.70584395 132.43985631 328.20033898 128.625 325.4375 C127.88894531 324.91736328 127.15289062 324.39722656 126.39453125 323.86132812 C124.58933072 322.58362125 122.79172542 321.29650092 121 320 C121.95632999 321.29315061 122.91513851 322.58446853 123.875 323.875 C124.40867187 324.59429687 124.94234375 325.31359375 125.4921875 326.0546875 C126.99873162 328.08252632 126.99873162 328.08252632 129 330 C129 330.99 129 331.98 129 333 C129.99 333.33 130.98 333.66 132 334 C132.87890625 335.81640625 132.87890625 335.81640625 133 338 C131.10839995 341.03985568 128.52306104 343.4719428 126 346 C125.46246094 346.54914063 124.92492187 347.09828125 124.37109375 347.6640625 C122.875 349.0625 122.875 349.0625 120 351 C115.3685933 350.80096434 113.18429121 348.69889027 109.9375 345.5625 C107.08177421 342.82117925 104.66676542 340.54969532 101 339 C101.33 341.64 101.66 344.28 102 347 C100.35 347.33 98.7 347.66 97 348 C96.67 349.65 96.34 351.3 96 353 C93.03 352.34 90.06 351.68 87 351 C88.2684375 352.7015625 88.2684375 352.7015625 89.5625 354.4375 C90.10003906 355.16453125 90.63757813 355.8915625 91.19140625 356.640625 C92.42462612 358.24940427 93.70626018 359.821929 95.02734375 361.359375 C96.00380859 362.51179687 96.00380859 362.51179687 97 363.6875 C97.61875 364.39261719 98.2375 365.09773438 98.875 365.82421875 C100 368 100 368 99.43359375 370.5078125 C97.89818282 373.17700098 96.27807888 375.05443803 94.0625 377.1875 C93.02802734 378.19876953 93.02802734 378.19876953 91.97265625 379.23046875 C87.74908039 383.01914175 87.74908039 383.01914175 84.70703125 382.94140625 C81.07086838 381.67688208 78.52759491 379.44630802 75.6875 376.9375 C75.13771484 376.46505859 74.58792969 375.99261719 74.02148438 375.50585938 C72.6737304 374.345619 71.33584883 373.17392776 70 372 C72.09041301 376.61969725 75.09988858 380.71765937 77.98632812 384.8671875 C81.09037343 389.52575468 81.09037343 389.52575468 80.58984375 392.15234375 C80.29787109 393.06693359 80.29787109 393.06693359 80 394 C81.15009239 396.33510021 81.15009239 396.33510021 82.875 398.5625 C84.74449154 401.14065926 85.98534639 402.95603916 87 406 C85.78173828 408.7644043 85.78173828 408.7644043 83.9453125 412.13671875 C81.16807282 417.41648163 78.85646364 422.7082846 76.8671875 428.33203125 C76.61866028 429.02803436 76.37013306 429.72403748 76.11407471 430.44113159 C75.10079747 433.29624057 74.09978574 436.15507073 73.11962891 439.02172852 C72.3866483 441.1527667 71.62895029 443.27364291 70.8671875 445.39453125 C70.43519043 446.64081299 70.00319336 447.88709473 69.55810547 449.17114258 C68 452 68 452 65.44970703 452.9753418 C62.67381732 453.00328328 61.42550437 452.25187322 59 451 C54.79211557 451.29719395 52.47097414 454.1259075 49.68066406 456.97875977 C48.90437904 457.75438766 48.90437904 457.75438766 48.1124115 458.54568481 C46.40627403 460.25390966 44.71100408 461.97250895 43.015625 463.69140625 C41.83372441 464.87890296 40.65115904 466.06573835 39.46795654 467.25193787 C36.35747898 470.3738629 33.25611608 473.50469244 30.15655518 476.63745117 C26.99132819 479.83338097 23.81757832 483.0208219 20.64453125 486.20898438 C14.42130852 492.46436954 8.20768022 498.72919325 2 505 C-1.97526224 503.3993244 -4.64020304 500.62856444 -7.59472656 497.63232422 C-8.14151062 497.08583221 -8.68829468 496.53934021 -9.25164795 495.97628784 C-11.05275649 494.17378907 -12.84668247 492.36431604 -14.640625 490.5546875 C-15.89000495 489.30157633 -17.13982801 488.04890681 -18.39007568 486.79666138 C-21.67586872 483.50324045 -24.9556107 480.20385709 -28.23413086 476.90319824 C-31.58214253 473.53471006 -34.93583907 470.1718924 -38.2890625 466.80859375 C-44.86495296 460.21126824 -51.43446516 453.60763017 -58 447 C-59.98 449.31 -61.96 451.62 -64 454 C-68.88595662 449.89928641 -73.50772917 445.65152969 -78 441.125 C-78.6094043 440.51438721 -79.21880859 439.90377441 -79.84667969 439.2746582 C-83.65249873 435.43574951 -87.31779387 431.52307906 -90.765625 427.35546875 C-91.97763565 425.86110218 -91.97763565 425.86110218 -94 425 C-93.83173203 424.17608198 -93.66346405 423.35216396 -93.49009705 422.50327873 C-92.80422324 416.45470952 -92.83295627 412.09073919 -96.52420044 407.18442154 C-100.25453091 402.83390863 -104.38389135 398.88296765 -108.50390625 394.90673828 C-110.06354459 393.35105252 -111.62009959 391.79227038 -113.17379761 390.23065186 C-117.38669684 386.01374534 -121.6412711 381.84131826 -125.9047966 377.67568827 C-130.35813903 373.31002788 -134.77171121 368.90452871 -139.18969727 364.50314331 C-146.605765 357.12560703 -154.04577296 349.77296769 -161.50488281 342.43896484 C-169.18475491 334.88776895 -176.84965618 327.32188125 -184.49511719 319.73583984 C-184.96706249 319.26757267 -185.43900779 318.7993055 -185.92525446 318.31684841 C-188.29297827 315.96739627 -190.66039719 313.61763736 -193.02770424 311.26776528 C-212.64118509 291.80051235 -232.30405852 272.38379443 -252 253 C-248.58672701 248.94547848 -245.13389247 245.01048765 -241.36146545 241.28158569 C-240.48511444 240.41253098 -239.60876343 239.54347626 -238.70585632 238.64808655 C-237.75322941 237.70856223 -236.80057658 236.76906419 -235.84790039 235.82958984 C-234.83036148 234.82217306 -233.81309606 233.81447998 -232.79608154 232.80653381 C-230.6185415 230.64898916 -228.43965991 228.49281173 -226.25987434 226.33753586 C-222.81443014 222.92965796 -219.37562213 219.51513674 -215.93833923 216.09902954 C-215.06613482 215.23228121 -215.06613482 215.23228121 -214.17631012 214.34802282 C-212.98821787 213.16733478 -211.80014142 211.98663083 -210.61208045 210.8059113 C-202.61745593 202.86119856 -194.61853978 194.92093874 -186.60131836 186.99902344 C-181.180501 181.64254753 -175.77031878 176.27558202 -170.37228388 170.89614451 C-167.51807557 168.05262565 -164.65862152 165.21485875 -161.78605843 162.3898735 C-159.08995833 159.73827861 -156.40803482 157.07315052 -153.73648071 154.39683342 C-152.75281134 153.41641875 -151.76396429 152.44116825 -150.76971245 151.47148705 C-149.41596946 150.1497164 -148.08219966 148.80758015 -146.74964905 147.46444702 C-145.99696275 146.7185903 -145.24427645 145.97273357 -144.46878147 145.20427513 C-142.73080946 143.08228051 -142.73080946 143.08228051 -143.17873287 140.42409706 C-144.28783746 137.15040319 -145.69480902 134.07934023 -147.25 131 C-147.59353516 130.319375 -147.93707031 129.63875 -148.29101562 128.9375 C-151.45546577 122.81628384 -154.9221816 116.88749663 -158.5 111 C-159.02110352 110.12859375 -159.54220703 109.2571875 -160.07910156 108.359375 C-163.27735813 103.19463621 -166.73340322 98.93513984 -171.1550293 94.76464844 C-173.6254969 92.40173461 -175.81014586 89.83684097 -178.03125 87.2421875 C-179.93864179 85.06988018 -181.91312857 82.9725782 -183.90136719 80.87451172 C-189.84423893 74.55943935 -194.87165966 67.86960856 -199.77490234 60.72949219 C-200.93923862 59.08577792 -202.18093831 57.49767912 -203.42578125 55.9140625 C-212.13307292 44.78875472 -217.38885155 31.88152309 -223 19 C-222.34 18.67 -221.68 18.34 -221 18 C-216.64610187 19.71433113 -212.52526442 21.96881731 -208.375 24.125 C-207.45728317 24.59851898 -207.45728317 24.59851898 -206.52102661 25.081604 C-196.59718281 30.23799446 -187.88899783 36.10643561 -179.57373047 43.60595703 C-177.30116345 45.61904386 -174.90308456 47.45869191 -172.5 49.3125 C-168.70005585 52.33720471 -165.29499647 55.60007336 -161.9140625 59.08203125 C-160.09313137 60.90667857 -158.21358889 62.58135348 -156.25 64.25 C-153.37309477 66.69619773 -150.7947223 69.28643957 -148.23022461 72.05664062 C-137.58507932 83.36355576 -123.9243442 91.48113097 -110.4375 99 C-109.83703857 99.34450195 -109.23657715 99.68900391 -108.61791992 100.04394531 C-106.77300715 101.07298697 -106.77300715 101.07298697 -104 102 C-100.5159714 100.76116314 -98.30354084 98.55053466 -95.72259521 95.96310425 C-94.87568115 95.11893951 -94.02876709 94.27477478 -93.15618896 93.4050293 C-92.23549622 92.477146 -91.31480347 91.5492627 -90.36621094 90.59326172 C-89.38084147 89.60732795 -88.39503107 88.62183467 -87.40881348 87.63674927 C-84.73521735 84.96372691 -82.06783214 82.28458338 -79.40151501 79.60430288 C-76.61307269 76.80335733 -73.81896487 74.00807521 -71.02545166 71.21218872 C-65.73750411 65.91802522 -60.45467545 60.61878415 -55.17366433 55.31770241 C-49.16070616 49.28238886 -43.14206738 43.25275394 -37.1229434 37.22359061 C-24.74229475 24.82203735 -12.36880304 12.41336738 0 0 Z " fill="#2FB2E9" transform="translate(323,71)"/>
<path d="M0 0 C14.03219309 4.15100246 26.25023848 12.3063001 37 22 C38.70364088 23.33932383 40.41205477 24.67259682 42.125 26 C46.48255032 29.51596335 50.30149836 33.34498461 54.16918945 37.390625 C66.91074408 50.6437069 81.09200269 59.67584549 97.3828125 67.99780273 C109.24040028 74.09141902 120.59038754 81.11482242 132 88 C132.60122681 88.36279053 133.20245361 88.72558105 133.82189941 89.09936523 C140.24435339 92.9768956 146.65872887 96.86762787 153.06640625 100.76953125 C154.18885742 101.42550293 155.31130859 102.08147461 156.46777344 102.75732422 C159.02842618 104.3044112 161.27074045 106.02100673 163.55566406 107.94970703 C177.91249659 119.3441321 194.74629056 117.07488655 212.03793335 116.35003662 C216.40367727 116.18122216 220.77097096 116.08371779 225.13867188 115.98046875 C234.03542325 115.76052936 242.92906924 115.47597739 251.82336426 115.17407227 C263.61718136 114.77442224 275.41213101 114.4234723 287.20974922 114.15771866 C291.35853239 114.0618739 295.50388702 113.92918705 299.65052986 113.76555252 C302.797527 113.64953394 305.94563157 113.57868243 309.09375 113.5 C310.20676483 113.44511414 311.31977966 113.39022827 312.46652222 113.3336792 C319.84396665 113.209606 319.84396665 113.209606 323.22035217 115.51808167 C324.98551927 117.2607155 326.50717528 119.02272264 328 121 C328.63808594 121.71027344 329.27617187 122.42054688 329.93359375 123.15234375 C330.67802734 124.03599609 330.67802734 124.03599609 331.4375 124.9375 C334.59553499 128.6194817 337.98500023 131.9914044 341.49609375 135.3359375 C343 137 343 137 343 139 C342.01 139 341.02 139 340 139 C340 139.66 340 140.32 340 141 C337.85473633 142.65722656 337.85473633 142.65722656 334.83203125 144.640625 C334.01799583 145.17913841 334.01799583 145.17913841 333.18751526 145.72853088 C331.40006689 146.90890937 329.60640867 148.07946792 327.8125 149.25 C326.57915407 150.06143113 325.34624654 150.87352898 324.11376953 151.6862793 C321.61258612 153.33503183 319.10934771 154.98060024 316.60498047 156.62451172 C313.33868061 158.77222019 310.09011086 160.94532158 306.84765625 163.12890625 C305.45293091 164.06718262 305.45293091 164.06718262 304.0300293 165.02441406 C302.31526401 166.17925921 300.60179007 167.33602518 298.88989258 168.49511719 C294.36692754 171.52815884 289.77925037 174.27035978 284.99609375 176.87182617 C282.44682289 178.31265061 280.1385925 179.97412514 277.8125 181.75 C272.87644108 185.43979156 267.77669965 188.75485185 262.50708008 191.94238281 C258.81895345 194.16792429 258.81895345 194.16792429 257 198 C257.55816406 198.22945312 258.11632812 198.45890625 258.69140625 198.6953125 C261.62595608 200.35375521 263.60140353 202.44891522 265.9375 204.875 C267.60554141 206.60233809 269.29286994 208.31128274 271 210 C271.69577148 210.69013184 272.39154297 211.38026367 273.10839844 212.09130859 C277.00315618 214.66216439 280.22104713 214.79112663 284.80078125 215.046875 C285.63715622 215.10780334 286.47353119 215.16873169 287.33525085 215.23150635 C289.99347776 215.42126767 292.65257408 215.58596442 295.3125 215.75 C297.12055744 215.87464896 298.92850293 216.00093311 300.73632812 216.12890625 C305.15647986 216.43822451 309.57758076 216.72508344 314 217 C314 217.66 314 218.32 314 219 C315.04172363 218.98428955 315.04172363 218.98428955 316.10449219 218.96826172 C319.31962307 218.92611181 322.5346955 218.90048939 325.75 218.875 C326.84183594 218.85824219 327.93367188 218.84148437 329.05859375 218.82421875 C339.65465753 218.76152015 352.42616983 218.91331205 361 226 C367.25558396 234.9839526 367.25558396 234.9839526 366.82574463 240.05632019 C366 242 366 242 364.12908936 243.09516907 C363.31144104 243.37354111 362.49379272 243.65191315 361.65136719 243.9387207 C360.26422516 244.4236071 360.26422516 244.4236071 358.84906006 244.91828918 C357.84183899 245.25076157 356.83461792 245.58323395 355.796875 245.92578125 C354.7669342 246.27762985 353.73699341 246.62947845 352.67584229 246.99198914 C350.49278468 247.73345031 348.30695004 248.46677685 346.11865234 249.19262695 C342.77067564 250.3056266 339.43404482 251.44849609 336.09765625 252.59570312 C333.97717356 253.31170806 331.85609767 254.02595911 329.734375 254.73828125 C328.73525085 255.08087479 327.73612671 255.42346832 326.70672607 255.77644348 C325.30067108 256.23768867 325.30067108 256.23768867 323.86621094 256.70825195 C323.04538025 256.98264603 322.22454956 257.2570401 321.37884521 257.53974915 C317.81458847 258.22934938 315.10497975 257.6302004 311.97265625 255.84375 C310.70096022 254.94914175 309.43012333 254.05331094 308.16015625 253.15625 C306.00200147 251.82973605 306.00200147 251.82973605 303.26953125 251.69140625 C298.6089909 250.70584395 295.43985631 248.20033898 291.625 245.4375 C290.88894531 244.91736328 290.15289062 244.39722656 289.39453125 243.86132812 C287.58933072 242.58362125 285.79172542 241.29650092 284 240 C284.95632999 241.29315061 285.91513851 242.58446853 286.875 243.875 C287.40867187 244.59429687 287.94234375 245.31359375 288.4921875 246.0546875 C289.99873162 248.08252632 289.99873162 248.08252632 292 250 C292 250.99 292 251.98 292 253 C292.99 253.33 293.98 253.66 295 254 C295.87890625 255.81640625 295.87890625 255.81640625 296 258 C294.10839995 261.03985568 291.52306104 263.4719428 289 266 C288.46246094 266.54914063 287.92492187 267.09828125 287.37109375 267.6640625 C285.875 269.0625 285.875 269.0625 283 271 C278.3685933 270.80096434 276.18429121 268.69889027 272.9375 265.5625 C270.08177421 262.82117925 267.66676542 260.54969532 264 259 C264.33 261.64 264.66 264.28 265 267 C263.35 267.33 261.7 267.66 260 268 C259.67 269.65 259.34 271.3 259 273 C256.03 272.34 253.06 271.68 250 271 C250.845625 272.134375 251.69125 273.26875 252.5625 274.4375 C253.10003906 275.16453125 253.63757813 275.8915625 254.19140625 276.640625 C255.42462612 278.24940427 256.70626018 279.821929 258.02734375 281.359375 C259.00380859 282.51179687 259.00380859 282.51179687 260 283.6875 C260.61875 284.39261719 261.2375 285.09773438 261.875 285.82421875 C263 288 263 288 262.43359375 290.5078125 C260.89818282 293.17700098 259.27807888 295.05443803 257.0625 297.1875 C256.37285156 297.86167969 255.68320312 298.53585937 254.97265625 299.23046875 C250.74908039 303.01914175 250.74908039 303.01914175 247.70703125 302.94140625 C244.07086838 301.67688208 241.52759491 299.44630802 238.6875 296.9375 C238.13771484 296.46505859 237.58792969 295.99261719 237.02148438 295.50585938 C235.6737304 294.345619 234.33584883 293.17392776 233 292 C235.09041301 296.61969725 238.09988858 300.71765937 240.98632812 304.8671875 C244.09037343 309.52575468 244.09037343 309.52575468 243.58984375 312.15234375 C243.29787109 313.06693359 243.29787109 313.06693359 243 314 C244.15009239 316.33510021 244.15009239 316.33510021 245.875 318.5625 C247.74449154 321.14065926 248.98534639 322.95603916 250 326 C248.78173828 328.7644043 248.78173828 328.7644043 246.9453125 332.13671875 C244.16807282 337.41648163 241.85646364 342.7082846 239.8671875 348.33203125 C239.61866028 349.02803436 239.37013306 349.72403748 239.11407471 350.44113159 C238.10079747 353.29624057 237.09978574 356.15507073 236.11962891 359.02172852 C235.3866483 361.1527667 234.62895029 363.27364291 233.8671875 365.39453125 C233.43519043 366.64081299 233.00319336 367.88709473 232.55810547 369.17114258 C231 372 231 372 228.49291992 372.97119141 C223.31864385 373.03098619 219.03788742 370.00349034 215 367 C213.07257633 364.47271488 212.00951945 361.99394625 211 359 C210.66593643 358.26723343 210.33187286 357.53446686 209.98768616 356.77949524 C208.84940871 353.5762138 208.65029188 350.89641567 208.51342773 347.50073242 C208.45674423 346.20556198 208.40006073 344.91039154 208.34165955 343.57597351 C208.28888415 342.16914184 208.23619776 340.76230684 208.18359375 339.35546875 C208.1224565 337.90200683 208.06043574 336.44858183 207.99757385 334.99519348 C207.83419488 331.173045 207.68088316 327.35056356 207.53027344 323.52789307 C207.28819373 317.42095471 207.03171926 311.31461346 206.77354622 305.20833778 C206.68538008 303.08596997 206.60203711 300.96345523 206.51939392 298.84086609 C206.87192703 286.54237839 206.87192703 286.54237839 201.91015625 276.04296875 C201.29076172 275.40552734 200.67136719 274.76808594 200.03320312 274.11132812 C199.38287109 273.47646484 198.73253906 272.84160156 198.0625 272.1875 C196.78109351 270.89076263 195.50108682 269.59264012 194.22265625 268.29296875 C193.65297119 267.7311792 193.08328613 267.16938965 192.49633789 266.59057617 C191 265 191 265 189 262 C182.14668804 270.24053824 175.93796155 278.91628226 169.70117188 287.62548828 C166.99584124 291.40161425 164.28049874 295.17048545 161.5625 298.9375 C161.02923096 299.67677734 160.49596191 300.41605469 159.9465332 301.17773438 C155.42458497 307.43545515 150.84473679 313.64950391 146.25708008 319.85913086 C142.05682267 325.55035305 137.8915419 331.26591452 133.75 337 C133.20085937 337.75990234 132.65171875 338.51980469 132.0859375 339.30273438 C130.01312737 342.17783777 127.96645415 345.05031877 126 348 C122.33247995 346.4608199 120.01419427 344.24514548 117.234375 341.4296875 C116.34492188 340.53378906 115.45546875 339.63789063 114.5390625 338.71484375 C113.61867188 337.77769531 112.69828125 336.84054687 111.75 335.875 C110.80515144 334.92011363 109.85984367 333.96568141 108.9140625 333.01171875 C106.60481662 330.67890913 104.30036797 328.34155914 102 326 C102.33 325.01 102.66 324.02 103 323 C103.22530906 320.24343829 103.40223688 317.50233269 103.54077148 314.74121094 C103.60932343 313.47389885 103.60932343 313.47389885 103.67926025 312.1809845 C103.83053122 309.36564514 103.97582138 306.55002977 104.12109375 303.734375 C104.22662024 301.74699044 104.33250752 299.759625 104.43873596 297.77227783 C104.71950983 292.50037446 104.99519965 287.22821664 105.26989746 281.95599365 C105.54203254 276.75044404 105.81910086 271.54515756 106.09570312 266.33984375 C106.58197155 257.17530508 107.06192375 248.01045029 107.53825951 238.84539032 C107.84061657 233.03433169 108.14713016 227.22351517 108.45787334 221.41289902 C108.64915667 217.82936192 108.83816414 214.24570698 109.02672005 210.66202545 C109.11415037 209.00994874 109.20254831 207.35792288 109.2920208 205.70595551 C109.55715219 200.80488087 109.79322961 195.90390188 110 191 C110.05289185 189.91410583 110.10578369 188.82821167 110.16027832 187.70941162 C110.32269548 182.22742927 110.03118145 178.68817939 106.8984375 173.984375 C106.25616211 172.98212891 105.61388672 171.97988281 104.95214844 170.94726562 C103.98583496 169.48836914 103.98583496 169.48836914 103 168 C101.93975174 166.24082071 100.88987615 164.47533913 99.8515625 162.703125 C99.32997559 161.82390381 98.80838867 160.94468262 98.27099609 160.03881836 C86.0316292 139.30160566 75.00292383 117.89278864 63.92919922 96.51733398 C56.48346739 82.1632339 49.00449936 68.76253424 37.80859375 56.984375 C21.63819648 39.96551297 9.1419823 21.58457639 0 0 Z " fill="#0F1015" transform="translate(160,151)"/>
<path d="M0 0 C2.52155921 2.42507257 4.07346453 4.6995966 5.71484375 7.8046875 C6.22982422 8.76963135 6.74480469 9.7345752 7.27539062 10.72875977 C7.82388672 11.76701904 8.37238281 12.80527832 8.9375 13.875 C13.1919793 21.83070954 17.50045563 29.74254503 22 37.5625 C22.47985352 38.39676514 22.95970703 39.23103027 23.45410156 40.09057617 C24.44271712 41.80884511 25.43148897 43.52702413 26.42041016 45.24511719 C29.36471617 50.3801325 32.27550294 55.53411601 35.1875 60.6875 C35.75275391 61.686604 36.31800781 62.68570801 36.90039062 63.71508789 C37.42181641 64.63797607 37.94324219 65.56086426 38.48046875 66.51171875 C38.94348389 67.33115967 39.40649902 68.15060059 39.88354492 68.99487305 C45.88121533 79.76654746 41.57366024 99.56864805 40.94140625 111.61328125 C40.83140696 113.76123071 40.72170706 115.90919552 40.61228943 118.05717468 C40.38362724 122.52921813 40.15224493 127.00110927 39.91870117 131.47290039 C39.62077614 137.17928708 39.32839864 142.88594107 39.03788853 148.59270954 C38.81227464 153.01707396 38.58439976 157.44131961 38.35578728 161.86553001 C38.24722007 163.96926318 38.13918393 166.07302384 38.03170967 168.17681313 C36.98899026 188.52344382 36.98899026 188.52344382 36 198 C29.6661874 192.77357017 23.89737152 187.03216033 18.10766602 181.22119141 C17.02311845 180.13636134 15.93834978 179.05175228 14.8533783 177.96734619 C11.92602363 175.04027701 9.00175028 172.11014724 6.07804227 169.17943621 C3.0155749 166.11069378 -0.04974749 163.04480583 -3.11476135 159.97860718 C-8.91059045 154.17967697 -14.70386692 148.37820362 -20.49621874 142.5758003 C-27.09402938 135.96679055 -33.6946988 129.3606391 -40.29560363 122.75471997 C-53.86690733 109.17297952 -67.43463714 95.587674 -81 82 C-76.69682388 76.85750993 -72.1865617 72.0478993 -67.43408203 67.32055664 C-66.3354911 66.22174667 -66.3354911 66.22174667 -65.21470642 65.10073853 C-62.81477343 62.70149725 -60.41132745 60.30580871 -58.0078125 57.91015625 C-56.3346507 56.23886127 -54.66171085 54.56734408 -52.98898315 52.89561462 C-48.60182061 48.51225649 -44.21166243 44.13191075 -39.82086182 39.75219727 C-35.3344815 35.27607582 -30.85095708 30.79709574 -26.3671875 26.31835938 C-17.58090901 17.54278157 -8.7914614 8.77038529 0 0 Z " fill="#FFFFFF" transform="translate(196,242)"/>
<path d="M0 0 C3.70439967 1.5523011 6.06026311 3.81121838 8.88482666 6.6375885 C9.36193643 7.11228386 9.83904621 7.58697922 10.33061385 8.07605928 C11.92604477 9.66586012 13.51423459 11.2627009 15.10253906 12.85961914 C16.2455497 14.00155676 17.38899319 15.14306128 18.53283691 16.28416443 C21.63627052 19.38275109 24.73341895 22.48755098 27.82935047 25.59363103 C31.06652398 28.83958294 34.3089632 32.08026688 37.55072021 35.32164001 C42.99133123 40.76318747 48.42805497 46.2085943 53.86230469 51.65649414 C60.15402129 57.96395576 66.45096895 64.26615583 72.75092912 70.56538302 C78.80393859 76.61778326 84.85409115 82.67303043 90.9026413 88.72988701 C93.48081848 91.31160365 96.05985127 93.89246116 98.639534 96.47267342 C101.67225772 99.50639792 104.70243151 102.5426465 107.73060608 105.58091164 C108.84562724 106.69886578 109.96150849 107.81596281 111.07828522 108.93216324 C112.59555175 110.44894283 114.1097307 111.96873642 115.62310791 113.48939514 C116.47333652 114.3412996 117.32356514 115.19320406 118.19955826 116.07092381 C120 118 120 118 120 119 C100.92984825 119.69927752 81.8670193 120.21285094 62.78564453 120.50268555 C58.86874754 120.56259563 54.95196086 120.62771324 51.03515625 120.69335938 C45.88603109 120.77876297 40.7372161 120.84327925 35.58764648 120.89453125 C30.48861771 120.94870943 25.40055867 121.0856755 20.30493164 121.27734375 C-2.81803836 121.99367058 -2.81803836 121.99367058 -13.3125 113.875 C-15.45597293 112.39690159 -17.6005268 110.92036964 -19.74609375 109.4453125 C-20.78620605 108.69797852 -21.82631836 107.95064453 -22.89794922 107.18066406 C-27.73652197 103.77926852 -32.79688067 100.77647514 -37.875 97.75 C-39.74561347 96.61463414 -41.61541736 95.47793326 -43.484375 94.33984375 C-51.3337758 89.58090079 -59.20560407 84.85938024 -67.08300781 80.14697266 C-69.38990988 78.76670955 -71.69521577 77.38379616 -74 76 C-72.68634063 73.09702266 -71.27927877 71.03091891 -69.02609253 68.7855835 C-68.41752411 68.17426575 -67.80895569 67.562948 -67.1819458 66.93310547 C-66.18285187 65.94479736 -66.18285187 65.94479736 -65.16357422 64.93652344 C-64.46102509 64.23368225 -63.75847595 63.53084106 -63.03463745 62.80670166 C-60.71269689 60.48615375 -58.38375372 58.1727692 -56.0546875 55.859375 C-54.44285268 54.25127053 -52.83145903 52.64272375 -51.2204895 51.03375244 C-46.98012971 46.80102735 -42.73379794 42.57434285 -38.48620605 38.34887695 C-34.15255457 34.03568729 -29.82456212 29.71682751 -25.49609375 25.3984375 C-17.00293327 16.92672409 -8.50345472 8.46137967 0 0 Z " fill="#FEFDFD" transform="translate(323,115)"/>
<path d="M0 0 C1.14908873 1.14908873 2.29784563 2.29851045 3.4453125 3.44921875 C4.51829398 4.5195043 5.59678032 5.58428956 6.6796875 6.64453125 C8.4735642 8.4105032 10.23949063 10.20079812 12 12 C12.57621094 12.56847656 13.15242188 13.13695312 13.74609375 13.72265625 C14.28363281 14.28855469 14.82117188 14.85445313 15.375 15.4375 C15.85710937 15.93121094 16.33921875 16.42492187 16.8359375 16.93359375 C21.40042917 25.03633232 19.81007494 39.18797427 20.25952148 48.26391602 C20.37848777 50.55234435 20.50974104 52.84016595 20.65307617 55.12719727 C20.85955503 58.44202641 21.0257455 61.75676192 21.18359375 65.07421875 C21.25517197 66.09513107 21.32675018 67.1160434 21.40049744 68.16789246 C21.67152988 75.11201394 21.67152988 75.11201394 19.6489563 77.78652954 C17.98852539 79.18286133 17.98852539 79.18286133 15 81 C14.98240128 80.33094131 14.96480255 79.66188263 14.94667053 78.97254944 C14.75412574 71.97786754 14.50072049 64.98723471 14.21264648 57.99584961 C14.11318471 55.39027461 14.02899871 52.78406809 13.96069336 50.17749023 C13.85950015 46.41898778 13.70259797 42.66622089 13.53515625 38.91015625 C13.51598648 37.75354996 13.49681671 36.59694366 13.47706604 35.4052887 C13.12348849 28.85287573 12.10548184 25.41849392 7.40405273 20.69311523 C5.96225445 19.43146993 4.50250236 18.18870426 3 17 C2.72420223 30.36086976 3.10732796 43.66407287 3.74664307 57.00830078 C3.83156163 58.78080928 3.91407842 60.55343463 3.99407959 62.32617188 C4.11031319 64.86765382 4.23823701 67.40835478 4.3671875 69.94921875 C4.41734009 71.16370445 4.41734009 71.16370445 4.46850586 72.40272522 C4.69978213 76.91024725 5.43991775 80.45913874 7 84.7265625 C7.60685665 87.64780383 7.5025263 89.22143142 5.87359619 91.74514771 C1.76571995 96.86063949 -3.06702301 101.24572864 -7.875 105.6875 C-9.33236061 107.07961774 -10.78682584 108.47477331 -12.23828125 109.87304688 C-15.79295132 113.28479029 -19.3847883 116.65252309 -23 120 C-26.04581486 118.63886987 -28.13839026 117.10669904 -30.48339844 114.74365234 C-31.47397247 113.75285172 -31.47397247 113.75285172 -32.48455811 112.74203491 C-33.18574768 112.03052277 -33.88693726 111.31901062 -34.609375 110.5859375 C-35.69958954 109.49147812 -35.69958954 109.49147812 -36.81182861 108.37490845 C-39.12929198 106.0462612 -41.4396995 103.71075174 -43.75 101.375 C-45.32115444 99.79381347 -46.89276371 98.21307875 -48.46484375 96.6328125 C-52.31518653 92.7604331 -56.15976117 88.88239829 -60 85 C-58.79541305 81.75489031 -57.49876111 79.03216261 -55.453125 76.2421875 C-54.69128906 75.19514648 -54.69128906 75.19514648 -53.9140625 74.12695312 C-53.36492187 73.38380859 -52.81578125 72.64066406 -52.25 71.875 C-51.67507813 71.08802734 -51.10015625 70.30105469 -50.5078125 69.49023438 C-48.67792059 66.98898602 -46.84000369 64.49381704 -45 62 C-43.82812226 60.40885619 -42.65624722 58.81771038 -41.484375 57.2265625 C-39.73528935 54.85308368 -37.98538823 52.48022282 -36.23339844 50.10888672 C-31.74966401 44.03587066 -27.32279874 37.92366852 -22.91430664 31.79589844 C-18.21941846 25.27972361 -13.45625746 18.8149935 -8.66796875 12.3671875 C-5.66454984 8.3111685 -2.75448477 4.22938003 0 0 Z " fill="#FDFDFD" transform="translate(348,412)"/>
<path d="M0 0 C4.66874537 3.89976721 9.09127809 7.95214644 13.37109375 12.2734375 C13.93828629 12.84204498 14.50547882 13.41065247 15.08985901 13.99649048 C16.87479913 15.78696236 18.65620256 17.58090484 20.4375 19.375 C21.65796939 20.60049323 22.87867053 21.82575572 24.09960938 23.05078125 C27.06908756 26.03119774 30.03540257 29.01472894 33 32 C31.63766076 35.14584997 30.20959751 36.89240841 27.546875 39.02734375 C24.02999359 41.99481154 20.9268495 45.16454566 17.828125 48.56640625 C16.4399307 50.05900832 15.04832201 51.54836815 13.65625 53.03735352 C12.71394667 54.05932728 11.78360684 55.09245485 10.86523438 56.13598633 C3.21019946 64.79121056 3.21019946 64.79121056 -1.7265625 65.25756836 C-4.546875 64.75 -4.546875 64.75 -7.57128906 63.91040039 C-11.65622041 62.82575862 -15.57797221 62.48392601 -19.78125 62.18359375 C-20.56190826 62.12211151 -21.34256653 62.06062927 -22.1468811 61.99728394 C-24.59749358 61.80461098 -27.04866167 61.62068531 -29.5 61.4375 C-31.19613744 61.30702946 -32.8922637 61.17641351 -34.58837891 61.0456543 C-46.0501864 60.17243089 -57.5120015 59.42821588 -69 59 C-69 59.66 -69 60.32 -69 61 C-68.46375 61.20625 -67.9275 61.4125 -67.375 61.625 C-65 63 -65 63 -62.53076172 65.99462891 C-58.37426796 70.19468087 -53.79641519 70.13985758 -48.1328125 70.4609375 C-47.09808807 70.54123199 -46.06336365 70.62152649 -44.99728394 70.70425415 C-41.70781647 70.95360072 -38.41717687 71.16478941 -35.125 71.375 C-32.88783637 71.53784997 -30.65085231 71.70318723 -28.4140625 71.87109375 C-22.94445995 72.27622841 -17.47339939 72.65011238 -12 73 C-12 73.66 -12 74.32 -12 75 C-11.34 75.33 -10.68 75.66 -10 76 C-12 78 -12 78 -14.58764648 78.22167969 C-18.39251957 78.16504385 -22.19610169 78.10182971 -26 78 C-26.73261047 77.98477295 -27.46522095 77.9695459 -28.22003174 77.95385742 C-33.01236044 77.84970703 -37.79183275 77.6523053 -42.57739258 77.37744141 C-44.23495735 77.29243808 -45.89376619 77.22897592 -47.55297852 77.18701172 C-58.30144659 76.90134518 -65.21442572 75.55814078 -72.81471252 67.59356689 C-73.74790302 66.56976322 -74.67371865 65.53917859 -75.59127808 64.50134277 C-77.86282436 62.08044654 -80.40961392 60.07116087 -83 58 C-82.69352816 55.0092148 -82.1423177 54.11895516 -79.79443359 52.15649414 C-78.83875488 51.53895264 -77.88307617 50.92141113 -76.8984375 50.28515625 C-75.85042969 49.59873047 -74.80242187 48.91230469 -73.72265625 48.20507812 C-72.61792969 47.49802734 -71.51320313 46.79097656 -70.375 46.0625 C-68.21554847 44.65847043 -66.05667965 43.25354415 -63.8984375 41.84765625 C-62.86944336 41.18266113 -61.84044922 40.51766602 -60.78027344 39.83251953 C-58.54311613 38.35797591 -56.37655087 36.84240823 -54.2265625 35.24609375 C-51.20288736 33.14123515 -48.25443327 31.58550543 -44.95166016 29.99707031 C-41.83896428 28.4068464 -39.02724244 26.39823898 -36.1875 24.375 C-28.37028269 18.90119252 -20.44570018 13.59699257 -12.5 8.3125 C-11.26325887 7.48942975 -10.02652372 6.6663505 -8.78979492 5.84326172 C-5.86064539 3.89433009 -2.93059316 1.94676036 0 0 Z " fill="#FDFCFC" transform="translate(500,291)"/>
<path d="M0 0 C2.16433076 2.75192654 3.87697537 5.49365236 5.4609375 8.61328125 C5.92532227 9.51900879 6.38970703 10.42473633 6.86816406 11.35791016 C7.36541992 12.3329248 7.86267578 13.30793945 8.375 14.3125 C13.01149478 23.30118954 17.83751755 32.15172757 22.85424805 40.93310547 C25.95910784 46.37453653 29.02150842 51.83547179 32.02734375 57.33203125 C32.54118874 58.26956741 32.54118874 58.26956741 33.06541443 59.2260437 C34.79753942 62.38814078 36.52093365 65.55454171 38.23120117 68.72851562 C41.34763808 74.47359849 44.42863992 80.03515366 48.62646484 85.07299805 C53.56410541 92.1285691 54.49473843 97.27809525 53.90234375 105.84375 C53.84224121 106.98107574 53.78213867 108.11840149 53.72021484 109.29019165 C53.57820736 111.96105594 53.42814402 114.63053826 53.26901245 117.300354 C52.95660824 122.6331061 52.70297365 127.96837282 52.44946289 133.30419922 C51.93469743 144.081329 51.39332132 154.85694371 50.84326172 165.63232422 C50.55366602 171.30650303 50.26927427 176.9809305 49.98607635 182.65543175 C49.76556056 187.05812501 49.54168601 191.46064272 49.31684875 195.86311722 C49.21040171 197.95782068 49.10515271 200.05258538 49.00114441 202.14741135 C48.85649798 205.05338176 48.70716489 207.95907503 48.55664062 210.86474609 C48.51505325 211.72072388 48.47346588 212.57670166 48.43061829 213.45861816 C48.2219206 217.39622625 47.92828154 221.15077377 47 225 C44.61372339 223.04759186 42.30772342 221.04365557 40 219 C39.50193848 218.58137695 39.00387695 218.16275391 38.49072266 217.73144531 C36.81640342 216.3118155 35.18962499 214.84835062 33.5625 213.375 C33.01819336 212.92737305 32.47388672 212.47974609 31.91308594 212.01855469 C29.56447115 209.8254179 28.12949341 208.05219145 27.72923279 204.79989624 C27.9238665 195.21392334 28.4103013 185.6444526 28.92597961 176.07108307 C29.09713489 172.89021783 29.26411782 169.70915669 29.43005371 166.52801514 C29.9022743 157.49103098 30.38262222 148.45448139 30.86376953 139.41796875 C31.15904322 133.86702945 31.45019793 128.31588516 31.73908997 122.76461029 C31.90203767 119.65842248 32.06978142 116.55251822 32.2376709 113.44659424 C32.68782346 104.94672671 33.10483376 96.44686319 33.20166016 87.93457031 C33.21653473 86.71747375 33.2314093 85.5003772 33.24673462 84.24639893 C32.8393077 78.88569877 30.69665741 74.97851499 27.875 70.5 C27.3372998 69.58186523 26.79959961 68.66373047 26.24560547 67.71777344 C25.10505747 65.77762883 23.94934453 63.84632632 22.77929688 61.92382812 C19.82690051 57.07230523 16.9848154 52.15645904 14.125 47.25 C13.55249512 46.27256836 12.97999023 45.29513672 12.39013672 44.28808594 C8.16921509 37.06595886 4.00100994 29.81632271 -0.03668213 22.4901123 C-0.98369131 20.77945959 -1.9465554 19.07761498 -2.90966797 17.37597656 C-3.47572754 16.33924805 -4.04178711 15.30251953 -4.625 14.234375 C-5.13289062 13.31881836 -5.64078125 12.40326172 -6.1640625 11.45996094 C-7 9 -7 9 -6.3125 6.84472656 C-4.47993794 4.26904967 -2.28969839 2.16918795 0 0 Z " fill="#8A2020" transform="translate(204,234)"/>
<path d="M0 0 C12.74921861 6.77388289 25.11112413 14.19219299 37.40356445 21.75634766 C39.64634866 23.13438286 41.89365163 24.50508891 44.14526367 25.86865234 C50.1626387 29.53291497 55.96368511 33.29082865 61.53369141 37.61010742 C70.4671524 43.55218695 76.95156765 45.79775335 87.73828125 45.375 C88.94868576 45.35111206 90.15909027 45.32722412 91.40617371 45.3026123 C93.97132381 45.25007711 96.53625511 45.18567352 99.10083008 45.11010742 C102.92810477 45.00203023 106.75359878 44.93544223 110.58203125 44.88476562 C119.62538495 44.7647918 128.6676509 44.59603289 137.71020508 44.42724609 C144.17970506 44.30797394 150.64875214 44.20212263 157.11889648 44.12475586 C161.87225606 44.06507747 166.61739172 43.95155067 171.36711025 43.7677784 C174.18003782 43.66518986 176.99327315 43.59535719 179.80730247 43.53079224 C181.77312919 43.47445619 183.7376204 43.37633696 185.70173645 43.27685547 C193.63674847 43.12580513 197.92314178 44.37910368 203.81416321 49.78369141 C206.35485938 52.52205526 208.66369887 55.35147782 210.79614258 58.41772461 C211.9292783 60.14840181 211.9292783 60.14840181 214 61 C214 61.66 214 62.32 214 63 C196.06258905 64.4491465 178.0508075 64.46723664 160.06518555 64.65380859 C157.93501805 64.67657644 155.80485371 64.69959867 153.67469215 64.72291565 C152.25266798 64.73837723 150.83063898 64.75340152 149.40860558 64.76799011 C139.98427145 64.86838033 130.58901329 65.17407244 121.17578125 65.66015625 C97.06579683 66.76601019 81.0719136 65.48607428 61.86376953 50.22265625 C57.54910295 46.87391588 52.93006673 44.11428645 48.25 41.3125 C46.56677392 40.26973599 44.88447995 39.22546585 43.203125 38.1796875 C26.71876273 28.04275208 9.82135465 18.56289764 -7 9 C-5.27845212 5.23511958 -3.00765886 2.84936103 0 0 Z " fill="#8C2424" transform="translate(248,190)"/>
<path d="M0 0 C0.70125 0.44730469 1.4025 0.89460938 2.125 1.35546875 C4.09565193 2.61122385 6.06841971 3.86366292 8.04296875 5.11328125 C9.80699348 6.23880826 11.56289251 7.37749158 13.30078125 8.54296875 C17.31876136 11.20341771 20.18558486 12.26737161 25 13 C27.01254782 14.31431695 29.01310269 15.64721885 31 17 C35.66711355 18.65207559 39.2021327 17.18449047 43.625 15.5 C50.61072076 12.87024025 50.61072076 12.87024025 54 14 C21.99 46.01 -10.02 78.02 -43 111 C-44 109 -44 109 -42.92578125 105.76953125 C-42.39607456 104.44726593 -41.85791582 103.12836334 -41.3125 101.8125 C-41.05533203 101.16474609 -40.79816406 100.51699219 -40.53320312 99.84960938 C-39.1480156 96.44279681 -37.64070111 93.36883441 -35.66796875 90.26171875 C-33.67033209 87.25764107 -33.67033209 87.25764107 -34.5859375 84.84375 C-35.05257813 84.2353125 -35.51921875 83.626875 -36 83 C-36.42539062 82.2678125 -36.85078125 81.535625 -37.2890625 80.78125 C-38.18102044 79.25814054 -39.07687114 77.7373042 -39.9765625 76.21875 C-41 74 -41 74 -41 70 C-41.98943645 67.9227492 -41.98943645 67.9227492 -43.40625 65.890625 C-43.90253906 65.13652344 -44.39882813 64.38242187 -44.91015625 63.60546875 C-45.43480469 62.82816406 -45.95945312 62.05085938 -46.5 61.25 C-47.02464844 60.45722656 -47.54929687 59.66445313 -48.08984375 58.84765625 C-49.38518257 56.89287221 -50.68871163 54.94410548 -52 53 C-47.37361421 53 -44.79244842 56.49692811 -41.55859375 59.53320312 C-38.41307348 62.34369722 -38.41307348 62.34369722 -34.375 63.015625 C-31.73401226 61.88625524 -29.99162566 60.62566507 -27.875 58.6875 C-27.21242188 58.09324219 -26.54984375 57.49898438 -25.8671875 56.88671875 C-23.1292158 54.17523967 -23.1292158 54.17523967 -21 51 C-21.95222302 46.19853645 -25.48123871 42.76612167 -28.625 39.1875 C-29.140625 38.59001953 -29.65625 37.99253906 -30.1875 37.37695312 C-31.45246272 35.91287591 -32.72543834 34.45572845 -34 33 C-33.67 32.34 -33.34 31.68 -33 31 C-30.03 31.99 -27.06 32.98 -24 34 C-23.67 32.35 -23.34 30.7 -23 29 C-21.35 28.67 -19.7 28.34 -18 28 C-18.66 24.7 -19.32 21.4 -20 18 C-18.865625 18.845625 -17.73125 19.69125 -16.5625 20.5625 C-15.83675781 21.10132813 -15.11101562 21.64015625 -14.36328125 22.1953125 C-12.75066535 23.42676464 -11.16526299 24.6944794 -9.60546875 25.9921875 C-8.43951172 26.95511719 -8.43951172 26.95511719 -7.25 27.9375 C-6.53328125 28.54464844 -5.8165625 29.15179688 -5.078125 29.77734375 C-3.11199298 31.19049918 -3.11199298 31.19049918 -0.98828125 30.8984375 C1.42422225 29.80830822 3.09474836 28.45809733 5.0625 26.6875 C5.73410156 26.09324219 6.40570313 25.49898438 7.09765625 24.88671875 C8.97622772 23.02357702 10.5554331 21.21681964 12 19 C11.93391003 16.81656815 11.93391003 16.81656815 11 15 C10.34 14.67 9.68 14.34 9 14 C8.04422308 12.28619311 7.09026169 10.57130167 6.15234375 8.84765625 C4.48940787 6.18132177 2.24289219 4.18058963 0 2 C0 1.34 0 0.68 0 0 Z " fill="#2EB0E7" transform="translate(443,390)"/>
<path d="M0 0 C3.56973518 4.11207589 5.97329187 8.43967194 8.4375 13.25 C9.07884888 14.48314941 9.07884888 14.48314941 9.7331543 15.74121094 C11.67344877 19.47571526 13.59803208 23.21823814 15.52246094 26.9609375 C22.82255509 41.150752 30.37013089 55.14485263 38.29248047 68.99658203 C41.98866492 75.49793477 45.61341624 82.03990606 49.24389648 88.578125 C50.06676147 90.05345703 50.06676147 90.05345703 50.90625 91.55859375 C51.38384766 92.41767334 51.86144531 93.27675293 52.35351562 94.16186523 C53.83945648 96.87489685 53.83945648 96.87489685 55.30651855 98.66522217 C59.93252723 104.88982038 59.46129549 110.38538357 58.96875 117.8984375 C58.9007805 119.23810991 58.83532409 120.57791166 58.77209473 121.91781616 C58.6251409 124.927618 58.46114808 127.9359155 58.28613281 130.94421387 C57.96960819 136.43150933 57.70658529 141.9209708 57.4453125 147.41113281 C56.88591959 159.0545802 56.28234032 170.69550282 55.67181396 182.33636475 C55.44089115 186.75638337 55.21346559 191.17657917 54.98607635 195.59678078 C54.76431243 199.9019341 54.54085573 204.20699822 54.31684875 208.51203537 C54.21120592 210.54434503 54.10595999 212.57667537 54.00114441 214.60902786 C53.4595846 225.0845093 52.8901162 235.54723552 52 246 C47.1171875 241.8984375 47.1171875 241.8984375 45 240 C44.25299835 239.39232285 44.25299835 239.39232285 43.49090576 238.77236938 C40.35320586 236.01508532 39.10617332 234.67640446 38.43896484 230.42578125 C38.49739235 229.05293636 38.59064913 227.68131247 38.7109375 226.3125 C38.75297302 225.53376022 38.79500854 224.75502045 38.83831787 223.9526825 C38.98826121 221.29920833 39.18235537 218.65069072 39.375 216 C39.49012127 214.08979591 39.60181369 212.17938274 39.71044922 210.26879883 C39.96573611 205.83791728 40.23787773 201.40840857 40.51757812 196.97900391 C41.3689796 183.21797489 42.02404577 169.44551033 42.71902657 155.67588615 C43.03102588 149.50422786 43.35215678 143.33309064 43.67724609 137.16210938 C43.80817539 134.6610329 43.9389002 132.15994584 44.06952667 129.65885353 C44.15240551 128.07940898 44.23596134 126.49999978 44.32024384 124.9206295 C44.43691641 122.73193081 44.55100328 120.54311078 44.66455078 118.35424805 C44.76209152 116.50599678 44.76209152 116.50599678 44.86160278 114.6204071 C45.42926654 105.62929403 45.42926654 105.62929403 41.875 97.5625 C41.13228384 96.44258572 40.3958599 95.3184856 39.6640625 94.19140625 C39.24543945 93.54703613 38.82681641 92.90266602 38.39550781 92.23876953 C35.50201568 87.59683062 32.90106615 82.7829893 30.25 78 C26.32918592 70.94745662 22.38856874 63.91063614 18.34912109 56.92529297 C12.04558033 46.01989601 6.16379651 34.92480882 0.43066406 23.70996094 C-0.58193975 21.79188888 -1.63654323 19.89571858 -2.71972656 18.01660156 C-3.27885742 17.04432617 -3.83798828 16.07205078 -4.4140625 15.0703125 C-4.93178223 14.19391113 -5.44950195 13.31750977 -5.98291016 12.41455078 C-7 10 -7 10 -6.74975586 7.78955078 C-5.830038 5.59432711 -4.67011059 4.37201842 -2.9375 2.75 C-2.38964844 2.22921875 -1.84179688 1.7084375 -1.27734375 1.171875 C-0.64505859 0.59179688 -0.64505859 0.59179688 0 0 Z " fill="#FDFDFD" transform="translate(212,226)"/>
<path d="M0 0 C9.7963142 4.68856876 19.16004239 9.88707484 28.46533203 15.47802734 C31.27408553 17.16457804 34.08808963 18.8421762 36.90234375 20.51953125 C47.7299437 26.98341811 58.51857086 33.50481638 69.22167969 40.1730957 C70.81634765 41.16647051 72.41881592 42.14739239 74.02734375 43.11816406 C76.39728277 44.61845069 78.65125526 46.1759563 80.92578125 47.81152344 C91.51461035 55.18610315 99.47689252 57.50281163 112.30557251 56.88394165 C115.2413365 56.74447324 118.17150091 56.68072845 121.11010742 56.6315918 C127.68264237 56.50624798 134.25099818 56.29401015 140.82093048 56.07314301 C152.92696866 55.66678974 165.03256883 55.29199693 177.14245224 55.01963615 C182.55871718 54.89420923 187.96952229 54.71356261 193.38262844 54.49110508 C196.81155069 54.36164279 200.24051171 54.27964153 203.67110634 54.20928764 C205.2756888 54.16674074 206.87989725 54.10487694 208.48290062 54.0219593 C221.3825894 53.37167341 221.3825894 53.37167341 226.48934937 57.47348022 C229.31165926 60.09481247 231.72479079 62.89476052 234 66 C234 66.33 234 66.66 234 67 C215.19 67 196.38 67 177 67 C177 67.66 177 68.32 177 69 C167.18620233 69.53196874 157.37321693 69.96163277 147.54977798 70.27195835 C142.98439823 70.41916266 138.42532077 70.59736311 133.86474609 70.85522461 C109.07724567 72.22754644 92.68863008 70.31634112 72.68493652 55.02786255 C69.30519648 52.47523302 65.78173293 50.308527 62.125 48.18359375 C61.09511963 47.55308105 60.06523926 46.92256836 59.00415039 46.27294922 C48.44261947 39.82015853 37.81020102 33.5127731 27.0625 27.375 C25.94423828 26.73618896 24.82597656 26.09737793 23.67382812 25.43920898 C17.10313691 21.70805122 10.48565711 18.09003186 3.80566406 14.55883789 C0.30782907 12.61542713 -2.82861273 10.43385534 -6 8 C-4.55140574 4.61994673 -2.62669829 2.5412772 0 0 Z " fill="#F8F8F9" transform="translate(240,198)"/>
<path d="M0 0 C16.18497848 4.65931199 30.88075104 14.53560313 43.36181641 25.57373047 C45.66817804 27.58174308 48.08116816 29.442571 50.5 31.3125 C54.29994415 34.33720471 57.70500353 37.60007336 61.0859375 41.08203125 C62.90686863 42.90667857 64.78641111 44.58135348 66.75 46.25 C69.62681776 48.69612335 72.20512905 51.28626099 74.76953125 54.05639648 C87.30802882 67.37423249 103.9975562 76.44423797 120 85 C119.07347299 86.17539996 118.13336613 87.34010577 117.1875 88.5 C116.66542969 89.1496875 116.14335937 89.799375 115.60546875 90.46875 C114 92 114 92 111 92 C104.24999805 88.12646316 98.87622107 82.08110895 93.5 76.5625 C74.55500927 57.20698379 54.24741949 42.88598995 30 31 C31.36403331 34.12989607 32.74329186 37.25287103 34.125 40.375 C34.50398438 41.24511719 34.88296875 42.11523438 35.2734375 43.01171875 C39.65096689 52.86115989 45.22555029 61.66090671 51.625 70.3125 C52.22965088 71.13210205 52.83430176 71.9517041 53.45727539 72.79614258 C58.85316875 80.00125139 64.7753593 86.51522506 71 93 C72.82982923 95.03855499 74.6285363 97.09847394 76.4140625 99.17578125 C77.53317353 100.46303457 78.67632982 101.72957281 79.8359375 102.98046875 C83.87757854 107.38875655 86.55899211 111.53214232 89 117 C86.69 119.31 84.38 121.62 82 124 C79.23490151 120.63998638 77.47075102 116.96772058 75.625 113.0625 C72.25697309 106.16420982 68.49592443 99.55315396 64.5 93 C63.97873535 92.12867432 63.4574707 91.25734863 62.92041016 90.35961914 C59.7230635 85.19425561 56.26657604 80.93512028 51.8449707 76.76464844 C49.3745031 74.40173461 47.18985414 71.83684097 44.96875 69.2421875 C43.06135821 67.06988018 41.08687143 64.9725782 39.09863281 62.87451172 C33.15576107 56.55943935 28.12834034 49.86960856 23.22509766 42.72949219 C22.06076138 41.08577792 20.81906169 39.49767912 19.57421875 37.9140625 C12.48592316 28.85876134 0 11.56796824 0 0 Z " fill="#8C2324" transform="translate(100,89)"/>
<path d="M0 0 C19.70244578 9.08363453 35.86982456 19.46250995 52 34 C52.71671875 34.62519531 53.4334375 35.25039062 54.171875 35.89453125 C60.26895001 41.26434077 65.99604642 46.93533132 71.64672852 52.77148438 C75.20515441 56.39845973 78.65628791 59.35513236 83 62 C82.67 62.99 82.34 63.98 82 65 C78.31455493 63.40441907 75.60005738 61.10479819 72.5625 58.5 C71.4815934 57.5924089 70.39952552 56.68619935 69.31640625 55.78125 C67.21181685 54.01955348 65.11710347 52.24820374 63.02734375 50.46875 C53.84541426 42.9810346 43.7077505 37.98892945 33 33 C37.33084686 51.61423952 50.97286253 68.5278361 64 82 C62.625 84 62.625 84 61 86 C60.34 86 59.68 86 59 86 C57.93882745 84.41427057 56.9525663 82.77825208 56 81.125 C52.70305265 75.7743292 48.92576393 71.65995726 44.40625 67.32421875 C41.03575961 64.06863144 38.01892755 60.57894183 35 57 C34.24074219 56.11828125 33.48148438 55.2365625 32.69921875 54.328125 C20.02261768 39.42375423 10.06681138 23.71574949 1.7578125 6 C1.24951904 4.9171875 1.24951904 4.9171875 0.73095703 3.8125 C0 2 0 2 0 0 Z " fill="#FBFAFA" transform="translate(129,119)"/>
<path d="M0 0 C1.08518111 0.91447846 2.16804738 1.83170407 3.25 2.75 C3.85328125 3.26046875 4.4565625 3.7709375 5.078125 4.296875 C5.71234375 4.85890625 6.3465625 5.4209375 7 6 C7.72026367 6.55534424 8.44052734 7.11068848 9.18261719 7.68286133 C11.78773839 11.00435586 11.70765845 14.26162365 11.828125 18.32421875 C11.88622345 19.55372002 11.88622345 19.55372002 11.94549561 20.80805969 C12.06474096 23.43411669 12.15730391 26.0603865 12.25 28.6875 C12.32647101 30.40437134 12.40458079 32.12117052 12.484375 33.83789062 C12.67261764 38.06531337 12.81627866 42.2924034 12.93115234 46.52243042 C12.97703074 48.17342215 13.02878414 49.82426113 13.08642578 51.47488403 C13.16496725 53.81134567 13.21893622 56.14708583 13.265625 58.484375 C13.29215149 59.17855026 13.31867798 59.87272552 13.3460083 60.5879364 C13.39652607 65.06122881 12.62313809 67.35680657 9.5 70.5625 C7.53125 72.06640625 7.53125 72.06640625 6 73 C4 72 4 72 3.38943481 70.24368286 C2.2582283 64.87232379 1.60968928 59.6601547 1.3671875 54.1796875 C1.30470825 52.95863815 1.30470825 52.95863815 1.2409668 51.71292114 C1.11040274 49.10061407 0.99200924 46.48794649 0.875 43.875 C0.78924224 42.07812419 0.70346743 40.28124919 0.61767578 38.484375 C0.0254424 25.64901478 -0.24923526 12.84946237 0 0 Z " fill="#8A2020" transform="translate(350,428)"/>
<path d="M0 0 C13.27279627 -0.46062404 26.40024507 0.33846174 39.625 1.375 C40.87111053 1.46982162 40.87111053 1.46982162 42.14239502 1.56655884 C50.89340725 2.23958923 59.43148709 3.00125967 68 5 C68.495 6.485 68.495 6.485 69 8 C66.80910749 11.31997316 64.57847284 13.242234 61 15 C54.27524388 15.87293857 47.32297071 14.71972273 40.625 14 C38.77115186 13.82855146 36.91698138 13.66055146 35.0625 13.49609375 C30.84438158 13.11401593 26.63116747 12.70013859 22.42010498 12.24682617 C20.70451894 12.07185379 18.98673269 11.91787562 17.2678833 11.77856445 C16.37494568 11.703396 15.48200806 11.62822754 14.56201172 11.55078125 C13.75190643 11.48802002 12.94180115 11.42525879 12.10714722 11.3605957 C8.96966489 10.82367895 7.51536215 9.39110763 5.5 7 C3.08158994 4.07209356 3.08158994 4.07209356 0 2 C0 1.34 0 0.68 0 0 Z " fill="#8F2929" transform="translate(431,350)"/>
<path d="M0 0 C13.79931832 -1.91293868 13.79931832 -1.91293868 18.75732422 1.05029297 C22.11916868 3.98039914 24.74744897 7.53200057 27.44189453 11.06542969 C30.24297152 14.54329463 33.44485974 17.62232657 36.625 20.75 C37.22981201 21.3579541 37.83462402 21.9659082 38.45776367 22.59228516 C41.44249325 25.67236871 41.44249325 25.67236871 45 28 C45 28.66 45 29.32 45 30 C43.03125 31.5078125 43.03125 31.5078125 40.5 33.125 C39.6646875 33.66382813 38.829375 34.20265625 37.96875 34.7578125 C37.3190625 35.16773438 36.669375 35.57765625 36 36 C31.10546618 31.89174608 26.48223283 27.63030488 21.97265625 23.10546875 C21.02198524 22.15623283 21.02198524 22.15623283 20.05210876 21.18782043 C18.72744029 19.8638271 17.40401222 18.53859164 16.08178711 17.2121582 C14.04720242 15.17216173 12.00726228 13.13762825 9.96679688 11.10351562 C8.67676209 9.812821 7.38703703 8.52181671 6.09765625 7.23046875 C5.48527603 6.62011276 4.87289581 6.00975677 4.24195862 5.38090515 C0 1.11498391 0 1.11498391 0 0 Z " fill="#882426" transform="translate(487,233)"/>
<path d="M0 0 C6.69146218 5.61359949 12.9155198 11.62577342 19.11865234 17.76855469 C20.38194251 19.01512339 21.65059449 20.25627971 22.92431641 21.4921875 C24.77417443 23.28759615 26.6073235 25.09862208 28.4375 26.9140625 C29.01129395 27.46518707 29.58508789 28.01631165 30.17626953 28.58413696 C33.99797255 32.42686529 33.99797255 32.42686529 34.0078125 35.20849609 C32.46672618 37.94795622 30.29368905 39.88274857 28 42 C24.80823908 38.83760418 21.6223919 35.66931241 18.4375 32.5 C17.54224609 31.613125 16.64699219 30.72625 15.72460938 29.8125 C11.07546858 25.18038902 6.57249164 20.51330316 2.35961914 15.47851562 C1.04716583 13.87539187 1.04716583 13.87539187 -1 13 C-1.0272415 11.58344207 -1.04650467 10.16672955 -1.0625 8.75 C-1.07410156 7.96109375 -1.08570313 7.1721875 -1.09765625 6.359375 C-1.00356049 4.08602141 -0.58351934 2.18870232 0 0 Z " fill="#882122" transform="translate(230,483)"/>
<path d="M0 0 C4.38740847 3.27196564 8.75154163 6.54812758 13 10 C12.41889329 13.42754467 11.31446376 15.04538661 8.83984375 17.453125 C8.21142578 18.071875 7.58300781 18.690625 6.93554688 19.328125 C6.27619141 19.96234375 5.61683594 20.5965625 4.9375 21.25 C4.27427734 21.8996875 3.61105469 22.549375 2.92773438 23.21875 C1.29170683 24.8194676 -0.35090912 26.41276193 -2 28 C-5.05632859 24.98590047 -8.00541584 21.93491108 -10.8125 18.6875 C-11.41707031 17.99011719 -12.02164062 17.29273438 -12.64453125 16.57421875 C-13.09183594 16.05472656 -13.53914063 15.53523438 -14 15 C-13.67 14.34 -13.34 13.68 -13 13 C-10.03 13.99 -7.06 14.98 -4 16 C-3.67 14.35 -3.34 12.7 -3 11 C-1.35 10.67 0.3 10.34 2 10 C1.34 6.7 0.68 3.4 0 0 Z " fill="#F5F5F5" transform="translate(423,408)"/>
<path d="M0 0 C3.2826932 1.49076434 5.93077441 3.38620321 8.75 5.625 C9.94882812 6.57246094 9.94882812 6.57246094 11.171875 7.5390625 C11.77515625 8.02117187 12.3784375 8.50328125 13 9 C12.34 10.32 11.68 11.64 11 13 C10.01 13 9.02 13 8 13 C5.95703125 10.41015625 5.95703125 10.41015625 3.8125 7.0625 C3.09707031 5.96035156 2.38164062 4.85820312 1.64453125 3.72265625 C0 1 0 1 0 0 Z " fill="#EDEDED" transform="translate(391,442)"/>
<path d="M0 0 C1.15628906 0.74056641 1.15628906 0.74056641 2.3359375 1.49609375 C3.33882813 2.13675781 4.34171875 2.77742188 5.375 3.4375 C6.37273437 4.07558594 7.37046875 4.71367187 8.3984375 5.37109375 C10.85830521 6.96899211 10.85830521 6.96899211 13 8 C12.6875 9.9375 12.6875 9.9375 12 12 C11.01 12.33 10.02 12.66 9 13 C7.87064804 11.58680023 6.74669374 10.16928595 5.625 8.75 C4.99851562 7.96109375 4.37203125 7.1721875 3.7265625 6.359375 C2.21089263 4.28818811 1.05780366 2.32930503 0 0 Z " fill="#DDDEDE" transform="translate(443,390)"/>
</svg>
